<?xml version="1.0" encoding="UTF-8"?>
<svg xmlns="http://www.w3.org/2000/svg" xmlns:xlink="http://www.w3.org/1999/xlink" width="1000px" height="667px" viewBox="0 0 1000 667" version="1.1">
<defs>
<clipPath id="clip1">
  <path d="M 0 0 L 500 0 L 500 334 L 0 334 Z M 0 0 "/>
</clipPath>
<clipPath id="clip2">
  <path d="M 0 0 L 0 166.75 L 583.332031 166.75 L 583.332031 333.5 L 500 333.5 Z M 500 0 L 250 0 L 250 389.082031 L 0 389.082031 L 0 333.5 Z M 500 0 "/>
</clipPath>
<clipPath id="clip3">
  <path d="M 0 0 L 584 0 L 584 390 L 0 390 Z M 0 0 "/>
</clipPath>
<clipPath id="clip4">
  <path d="M 0 0 L 0 166.75 L 583.332031 166.75 L 583.332031 333.5 L 500 333.5 Z M 500 0 L 250 0 L 250 389.082031 L 0 389.082031 L 0 333.5 Z M 500 0 "/>
</clipPath>
</defs>
<g id="surface1">
<rect x="0" y="0" width="1000" height="667" style="fill:rgb(0.392157%,12.941177%,41.176471%);fill-opacity:1;stroke:none;"/>
<path style="fill-rule:nonzero;fill:rgb(0%,0%,0%);fill-opacity:1;stroke-width:60;stroke-linecap:butt;stroke-linejoin:miter;stroke:rgb(100%,100%,100%);stroke-opacity:1;stroke-miterlimit:4;" d="M 0 0 L 600 300 M 600 0 L 0 300 " transform="matrix(0.833333,0,0,1.111667,0,0)"/>
<g clip-path="url(#clip1)" clip-rule="nonzero">
<g clip-path="url(#clip2)" clip-rule="nonzero">
<path style=" stroke:none;fill-rule:nonzero;fill:rgb(0%,0%,0%);fill-opacity:1;" d="M 0 0 L 500 333.5 M 500 0 L 0 333.5 "/>
</g>
</g>
<g clip-path="url(#clip3)" clip-rule="nonzero">
<g clip-path="url(#clip4)" clip-rule="nonzero">
<path style="fill:none;stroke-width:40;stroke-linecap:butt;stroke-linejoin:miter;stroke:rgb(78.431374%,6.27451%,18.039216%);stroke-opacity:1;stroke-miterlimit:4;" d="M 0 0 L 600 300 M 600 0 L 0 300 " transform="matrix(0.833333,0,0,1.111667,0,0)"/>
</g>
</g>
<path style="fill-rule:nonzero;fill:rgb(0%,0%,0%);fill-opacity:1;stroke-width:100;stroke-linecap:butt;stroke-linejoin:miter;stroke:rgb(100%,100%,100%);stroke-opacity:1;stroke-miterlimit:4;" d="M 300 0 L 300 349.998829 M 0 150 L 699.998438 150 " transform="matrix(0.833333,0,0,1.111667,0,0)"/>
<path style="fill-rule:nonzero;fill:rgb(0%,0%,0%);fill-opacity:1;stroke-width:60;stroke-linecap:butt;stroke-linejoin:miter;stroke:rgb(78.431374%,6.27451%,18.039216%);stroke-opacity:1;stroke-miterlimit:4;" d="M 300 0 L 300 349.998829 M 0 150 L 699.998438 150 " transform="matrix(0.833333,0,0,1.111667,0,0)"/>
<path style=" stroke:none;fill-rule:nonzero;fill:rgb(0.392157%,12.941177%,41.176471%);fill-opacity:1;" d="M 0 333.5 L 500 333.5 L 500 0 L 666.667969 0 L 666.667969 444.667969 L 0 444.667969 Z M 0 333.5 "/>
<path style=" stroke:none;fill-rule:nonzero;fill:rgb(80.000001%,80.000001%,20%);fill-opacity:1;" d="M 650.484375 171.238281 C 650.484375 336.6875 660.378906 395.433594 694.324219 440.796875 C 728.269531 486.15625 741.128906 493.300781 750.59375 500.25 C 761.511719 492.234375 774.089844 483.425781 804.855469 442.386719 C 835.285156 401.792969 850 343.28125 850 168.414062 C 827.867188 181.054688 816.847656 185.21875 797.492188 185.144531 C 783.15625 187.019531 761.039062 174.765625 747.816406 166.75 C 739.175781 174.089844 726.636719 182.84375 704.109375 183.824219 C 678.085938 185.28125 669.839844 179.671875 650.488281 171.238281 Z M 650.484375 171.238281 "/>
<path style=" stroke:none;fill-rule:nonzero;fill:rgb(100%,100%,100%);fill-opacity:1;" d="M 656.480469 181.6875 C 656.480469 232.871094 654.210938 302.632812 662.316406 342.992188 C 670.460938 383.523438 672.328125 389.460938 678.449219 403.609375 L 821.121094 402.195312 C 829.9375 381.832031 830.378906 369.21875 836.917969 336.679688 C 843.429688 304.257812 845.074219 231.984375 845.261719 178.15625 C 830.917969 187.855469 812.128906 194.726562 793.894531 191.710938 C 779.273438 190.296875 765.765625 186.050781 750.039062 174.742188 C 736.394531 185.140625 731.636719 189.886719 709.105469 191.101562 C 691.5625 192.203125 677.355469 194.007812 656.480469 181.6875 Z M 656.480469 181.6875 "/>
<path style=" stroke:none;fill-rule:nonzero;fill:rgb(60.000002%,80.000001%,100%);fill-opacity:1;" d="M 678.757812 402.484375 C 688.914062 429.664062 736.785156 481.75 750.785156 492.535156 C 766.757812 480.230469 808.992188 428.761719 820.761719 402.484375 Z M 678.757812 402.484375 "/>
<path style=" stroke:none;fill-rule:nonzero;fill:rgb(100%,60.000002%,0%);fill-opacity:1;" d="M 753.515625 257.46875 C 758.027344 270.964844 772.492188 285.867188 776.46875 293.167969 C 771.40625 300.472656 770.394531 299.675781 771.058594 313.246094 C 779.859375 301.535156 780.019531 300.3125 785.679688 302.089844 C 798.078125 317.824219 787.898438 351.621094 777.648438 358.96875 C 767.40625 366.808594 769.265625 358.699219 753.910156 368.523438 C 760.949219 376.179688 769.105469 367.398438 775.773438 369.746094 C 779.394531 375.210938 774.050781 385.171875 776.867188 394.554688 C 782.757812 393.832031 782.050781 378.707031 783.421875 373.222656 C 787.726562 353.128906 813.601562 339.113281 814.914062 320.679688 C 820.371094 317.425781 825.824219 319.660156 832.457031 324.398438 C 829.152344 307.132812 818.226562 307.316406 815.296875 301.925781 C 808.324219 288.371094 802.140625 272.910156 787.25 268.902344 C 775.941406 265.855469 776.789062 269.816406 769.542969 263.53125 C 765.03125 259.066406 751.324219 250.617188 753.515625 257.46875 Z M 753.515625 257.46875 "/>
<path style=" stroke:none;fill-rule:nonzero;fill:rgb(100%,60.000002%,0%);fill-opacity:1;" d="M 717.367188 314.71875 C 724.640625 303.34375 728.242188 280.117188 731.464844 272.234375 C 738.90625 274.511719 738.824219 276.023438 747.945312 268.9375 C 735.695312 264.511719 734.773438 264.90625 733.363281 257.710938 C 738.511719 236.414062 766.761719 232.074219 776.65625 240.167969 C 786.890625 248.023438 780.386719 249.722656 794.386719 262.398438 C 796.421875 250.90625 786.507812 245.835938 785.023438 237.242188 C 787.132812 230.617188 796.554688 231.972656 801.761719 224.421875 C 798.507812 218.136719 788.324219 225.996094 783.871094 227.019531 C 767.886719 231.566406 746.058594 209.015625 732.628906 216.148438 C 727.816406 211.535156 726.824219 204.359375 727.019531 194.683594 C 716.558594 206.464844 721.792969 218.667969 719.410156 224.484375 C 713.246094 238.65625 705.386719 252.828125 709.554688 271.449219 C 712.722656 285.585938 715.078125 282.785156 714.09375 293.867188 C 713.097656 301.027344 713.625 320.386719 717.367188 314.71875 Z M 717.367188 314.71875 "/>
<path style=" stroke:none;fill-rule:nonzero;fill:rgb(100%,60.000002%,0%);fill-opacity:1;" d="M 776.46875 322.71875 C 765.050781 320.6875 747.558594 328.777344 740.585938 329.351562 C 738.273438 320.074219 739.328125 319.378906 729.84375 313.117188 C 733.203125 328.742188 733.945312 329.542969 729.832031 334.796875 C 712.839844 340.210938 695.304688 311.707031 695.632812 296.75 C 695.625 281.546875 700.132812 287.75 701.421875 265.949219 C 692.632812 269.679688 694.347656 283.097656 689.335938 289.15625 C 683.785156 290.289062 679.824219 279.332031 672.050781 277.570312 C 669.503906 284.363281 680.0625 291.382812 683.050781 295.699219 C 694.378906 310.742188 690.5 346.167969 702.242188 357.09375 C 701.628906 364.722656 697.3125 369.511719 690.703125 374.304688 C 704.042969 379.59375 709.546875 367.585938 714.6875 367.171875 C 727.414062 366.546875 741.015625 367.773438 751.390625 353.601562 C 759.265625 342.847656 756.160156 341.726562 764.128906 337.066406 C 769.464844 334.449219 782.214844 323.855469 776.46875 322.71875 Z M 776.46875 322.71875 "/>
<path style=" stroke:none;fill-rule:nonzero;fill:rgb(100%,100%,100%);fill-opacity:1;" d="M 786.035156 272.816406 C 786.035156 274.472656 784.980469 275.8125 783.679688 275.8125 C 782.378906 275.8125 781.324219 274.472656 781.324219 272.816406 C 781.324219 271.160156 782.378906 269.820312 783.679688 269.820312 C 784.980469 269.820312 786.035156 271.160156 786.035156 272.816406 Z M 786.035156 272.816406 "/>
<path style=" stroke:none;fill-rule:nonzero;fill:rgb(100%,100%,100%);fill-opacity:1;" d="M 712.84375 270.980469 C 713.992188 270.207031 715.417969 270.765625 716.027344 272.230469 C 716.636719 273.695312 716.195312 275.507812 715.042969 276.28125 C 713.894531 277.054688 712.46875 276.496094 711.859375 275.03125 C 711.253906 273.566406 711.691406 271.753906 712.84375 270.980469 Z M 712.84375 270.980469 "/>
<path style=" stroke:none;fill-rule:nonzero;fill:rgb(100%,100%,100%);fill-opacity:1;" d="M 749.375 350.269531 C 748.261719 349.417969 747.898438 347.574219 748.570312 346.15625 C 749.238281 344.738281 750.6875 344.277344 751.804688 345.132812 C 752.917969 345.984375 753.28125 347.824219 752.609375 349.242188 C 751.9375 350.664062 750.492188 351.121094 749.375 350.269531 Z M 749.375 350.269531 "/>
</g>
</svg>
