<?xml version="1.0" encoding="UTF-8"?>
<svg xmlns="http://www.w3.org/2000/svg" xmlns:xlink="http://www.w3.org/1999/xlink" width="1000px" height="667px" viewBox="0 0 1000 667" version="1.1">
<g id="surface1">
<rect x="0" y="0" width="1000" height="667" style="fill:rgb(100%,0%,0%);fill-opacity:1;stroke:none;"/>
<path style=" stroke:none;fill-rule:evenodd;fill:rgb(0%,0%,0%);fill-opacity:1;" d="M 527.050781 504.007812 C 520.777344 498.925781 513.167969 488.636719 513.277344 478.722656 C 513.835938 471.324219 519.269531 467.03125 522.777344 476.058594 C 527.738281 486.019531 538.378906 502.496094 553.042969 492.832031 C 559.449219 488.441406 559.347656 481.976562 550.566406 482.71875 C 539.71875 482.023438 533.054688 476.453125 528.199219 462.101562 C 527.320312 454.210938 530.832031 454.40625 535.738281 459.484375 C 542.042969 466.242188 554.59375 476.453125 568.4375 470.980469 C 576.132812 467.96875 578.304688 461.753906 566.679688 460.226562 C 555.675781 460.375 546.695312 453.714844 537.753906 443.554688 C 532.847656 437.929688 540.082031 432.257812 544.421875 437.042969 C 548.292969 440.148438 553.71875 445.871094 558.367188 446.660156 C 563.742188 447.644531 570.402344 447.15625 577.785156 443.503906 C 585.742188 437.285156 583.15625 432.800781 573.5 431.765625 C 566.011719 432.113281 561.933594 434.769531 552.273438 428.753906 C 534.914062 417.796875 521.109375 403.15625 518.957031 385.546875 C 517.539062 373.964844 524.207031 370.457031 529.753906 371.789062 C 544.835938 375.410156 554.699219 401.730469 565.136719 416.1875 C 568.550781 420.355469 571.691406 420.421875 573.910156 419.136719 C 578.097656 415.785156 581.441406 413.03125 585.625 409.285156 C 585.625 409.285156 616.324219 414.4375 633.042969 419.523438 L 614.425781 425.703125 C 607.378906 422.066406 598.875 425.984375 598.875 432.289062 C 592.203125 436.597656 592.742188 441.644531 595.617188 446.519531 C 596.496094 443.125 597.246094 438.71875 602.511719 438.132812 C 610.03125 441.039062 618.792969 436.894531 618.792969 431.410156 L 640.753906 423.351562 L 662.9375 435.078125 C 662.9375 443.003906 670.980469 445.515625 679.347656 443.375 C 683.292969 445.664062 685.828125 449.632812 687.164062 453.875 C 689.632812 447.753906 689.117188 443.433594 685.25 440.433594 C 687.46875 432.519531 675.597656 424.914062 666.40625 429.980469 L 650.449219 421.421875 L 677.765625 420.707031 C 680.933594 425.949219 692.394531 426.238281 695.738281 420.707031 C 698.59375 419.976562 701.007812 419.511719 706.578125 423.378906 C 704.824219 417.121094 701.40625 414.449219 696.28125 414.449219 C 692.390625 408.003906 678.296875 408.035156 676.261719 415.289062 L 647.8125 416.027344 L 664.691406 404.804688 C 670.992188 408.277344 679.835938 404.417969 681.605469 398.105469 C 684.117188 395.316406 687.214844 394.007812 693.3125 395.898438 C 690.171875 390.699219 685.742188 389.148438 677.746094 392.679688 C 670.449219 387.515625 660.832031 393.777344 662.292969 398.976562 L 639.832031 413.242188 C 623.53125 408.703125 594.007812 401.628906 594.007812 401.628906 C 597.519531 398.175781 601.085938 394.96875 604.597656 391.464844 C 605.863281 389.414062 603.925781 387.027344 601.238281 386.53125 C 574.894531 381.453125 559.8125 371.535156 550.671875 346.332031 C 546.851562 335.777344 555.113281 332.625 557.953125 339.078125 C 561.882812 348.058594 566.21875 357.875 578.046875 365.472656 C 582.125 368.136719 594.269531 365.960938 587.085938 359.601562 C 579.648438 353.878906 576.445312 351.417969 572.78125 337.503906 C 572.78125 330.453125 580.472656 327.292969 584.765625 334.050781 C 589.359375 347.910156 589.828125 353.878906 598.140625 362.808594 C 604.441406 369.566406 612.652344 374.105469 616.734375 374.003906 C 624.070312 373.910156 631.460938 366.503906 621.644531 361.128906 C 607.230469 355.753906 601.964844 348.40625 599.84375 341.398438 C 597.519531 329.171875 600.054688 323.25 607.957031 329.265625 C 619.160156 341.152344 640.546875 363.296875 651.753906 373.609375 C 664.308594 382.589844 678.714844 382.882812 690.179688 373.757812 C 696.742188 366.703125 694.414062 359.113281 684.140625 360.738281 C 660.949219 362.5625 643.390625 351.8125 624.121094 322.753906 C 620.347656 316.195312 619.316406 306.773438 627.636719 313.78125 C 637.238281 325.914062 651.238281 336.226562 664.257812 340.664062 C 677.328125 345.046875 688.117188 342.625 692.300781 338.789062 C 697.34375 334.078125 696.019531 322.214844 687.289062 325.078125 C 680.109375 327.445312 669.988281 328.035156 659.453125 324.234375 C 648.914062 320.386719 637.964844 312.101562 626.34375 298.046875 C 622.363281 290.105469 623.65625 283.398438 631.714844 287.488281 C 650.777344 302.585938 675.363281 314.816406 687.910156 307.46875 C 697.15625 302.089844 697.3125 288.277344 685.589844 289.167969 C 661.980469 292.171875 653.046875 287.292969 630.371094 268.601562 C 625.210938 265 625.566406 255.871094 633.777344 261.695312 C 652.839844 273.1875 678.871094 277.675781 689.097656 271.660156 C 698.296875 266.28125 696.949219 249.851562 681.457031 255.671875 C 669.054688 262.726562 655.367188 262.53125 627.941406 244.234375 C 621.023438 238.855469 626.183594 231.847656 631.867188 234.859375 C 653.921875 246.597656 686.054688 251.628906 694.417969 227.757812 C 697.667969 218.632812 691.785156 213.304688 683.15625 219.621094 C 664.199219 235.992188 642.710938 227.953125 630.683594 219.714844 C 627.238281 217.820312 620.917969 208.222656 632.019531 210.003906 C 660.742188 216.121094 689.148438 210.792969 694.316406 191.800781 C 697.3125 185.632812 691.417969 174.730469 680.9375 183.859375 C 667.148438 196.585938 652.527344 197.027344 634.144531 196.929688 C 624.789062 195.101562 624.691406 185.484375 632.539062 184.058594 C 647.054688 184.347656 661.359375 178.429688 672.828125 172.414062 C 684.039062 166.398438 693.335938 157.960938 696.28125 146.273438 C 698.085938 135.816406 687.292969 124.71875 680.785156 135.816406 C 671.175781 152.042969 649.894531 167.335938 626.234375 170.097656 C 625.003906 168.171875 621.898438 163.238281 618.078125 164.625 C 611.128906 167.140625 602.851562 170.503906 594.332031 174.285156 C 575.960938 182.429688 568.304688 186.355469 570.507812 200.429688 C 572.8125 215.117188 560.6875 224.398438 550.671875 221.835938 C 541.9375 219.640625 537.121094 212.273438 538.683594 199.492188 C 539.9375 189.3125 550.886719 176.996094 563.222656 170.535156 C 571.207031 166.363281 583.265625 164.082031 597.777344 161.070312 C 606.609375 159.445312 611.109375 156.234375 611.621094 152.878906 C 611.621094 152.878906 605.585938 157.003906 595.921875 156.386719 C 591.351562 156.078125 588.289062 154.203125 587.136719 152.289062 C 590.496094 151.648438 596.589844 152.390625 602.0625 152.390625 C 609.34375 152.335938 626.25 150.8125 630.734375 141.242188 C 632.128906 134.925781 627.6875 133.792969 623.550781 137.835938 C 619.109375 142.207031 617.28125 146.136719 608.367188 147.601562 C 602.945312 148.496094 597.519531 149.527344 590.546875 147.949219 C 594.472656 143.59375 600.71875 139.136719 606.042969 139.957031 C 607.792969 140.230469 610.121094 141.738281 611.984375 144.449219 C 613.125 137.542969 611.101562 129.746094 591.320312 133.003906 C 591.636719 127.777344 579.855469 125.507812 572.78125 125.609375 C 568.753906 125.703125 560.539062 127.925781 554.601562 130.585938 C 545.199219 133.304688 535.902344 135.273438 524.949219 136.015625 C 531.304688 141.09375 532.492188 141.390625 538.84375 145.679688 C 529.238281 149.03125 521.800781 155.9375 518.441406 160.476562 C 518.441406 160.476562 529.652344 160.1875 532.492188 161.367188 C 520.761719 164.570312 515.496094 166.492188 509.296875 172.414062 C 511.46875 172.761719 514.71875 173.351562 516.117188 173.847656 C 517.566406 174.335938 517.191406 175.226562 516.015625 176.0625 C 513.488281 177.863281 503.046875 189.1875 500 191.902344 C 496.953125 189.1875 486.511719 177.863281 483.988281 176.0625 C 482.8125 175.226562 482.433594 174.335938 483.886719 173.847656 C 485.28125 173.351562 488.535156 172.761719 490.707031 172.414062 C 484.507812 166.492188 479.238281 164.570312 467.507812 161.367188 C 470.347656 160.1875 481.558594 160.476562 481.558594 160.476562 C 478.199219 155.9375 470.761719 149.03125 461.160156 145.679688 C 467.507812 141.390625 468.695312 141.09375 475.054688 136.015625 C 464.097656 135.273438 454.804688 133.304688 445.398438 130.582031 C 439.464844 127.925781 431.25 125.703125 427.222656 125.609375 C 420.148438 125.507812 408.367188 127.777344 408.679688 133.003906 C 388.898438 129.746094 386.878906 137.542969 388.015625 144.449219 C 389.882812 141.738281 392.210938 140.230469 393.960938 139.957031 C 399.285156 139.136719 405.527344 143.59375 409.457031 147.949219 C 402.480469 149.527344 397.054688 148.496094 391.632812 147.605469 C 382.722656 146.136719 380.890625 142.207031 376.449219 137.835938 C 372.316406 133.792969 367.875 134.925781 369.269531 141.242188 C 373.753906 150.8125 390.65625 152.335938 397.9375 152.390625 C 403.414062 152.390625 409.503906 151.648438 412.867188 152.289062 C 411.710938 154.203125 408.652344 156.078125 404.082031 156.386719 C 394.417969 157.003906 388.378906 152.878906 388.378906 152.878906 C 388.894531 156.234375 393.390625 159.445312 402.222656 161.070312 C 416.738281 164.082031 428.792969 166.363281 436.78125 170.539062 C 449.117188 176.996094 460.0625 189.3125 461.316406 199.492188 C 462.882812 212.273438 458.0625 219.640625 449.328125 221.835938 C 439.316406 224.398438 427.191406 215.117188 429.492188 200.429688 C 431.699219 186.355469 424.042969 182.429688 405.671875 174.285156 C 397.148438 170.503906 388.871094 167.140625 381.925781 164.625 C 378.101562 163.238281 375 168.171875 373.765625 170.097656 C 350.105469 167.335938 328.824219 152.042969 319.214844 135.816406 C 312.710938 124.71875 301.914062 135.816406 303.71875 146.273438 C 306.667969 157.964844 315.964844 166.398438 327.171875 172.414062 C 338.640625 178.429688 352.949219 184.347656 367.460938 184.058594 C 375.3125 185.484375 375.210938 195.101562 365.859375 196.929688 C 347.472656 197.027344 332.855469 196.585938 319.066406 183.859375 C 308.582031 174.730469 302.6875 185.632812 305.6875 191.800781 C 310.851562 210.789062 339.261719 216.121094 367.980469 210.003906 C 379.082031 208.21875 372.761719 217.820312 369.316406 219.714844 C 357.289062 227.953125 335.800781 235.992188 316.847656 219.621094 C 308.21875 213.304688 302.332031 218.632812 305.585938 227.757812 C 313.949219 251.628906 346.078125 246.597656 368.136719 234.859375 C 373.816406 231.847656 378.976562 238.855469 372.058594 244.234375 C 344.632812 262.53125 330.945312 262.726562 318.546875 255.671875 C 303.050781 249.851562 301.707031 266.28125 310.902344 271.660156 C 321.128906 277.675781 347.160156 273.1875 366.222656 261.695312 C 374.4375 255.871094 374.792969 265 369.628906 268.601562 C 346.953125 287.292969 338.019531 292.171875 314.414062 289.167969 C 302.6875 288.277344 302.84375 302.089844 312.09375 307.46875 C 324.640625 314.8125 349.222656 302.585938 368.285156 287.488281 C 376.34375 283.398438 377.640625 290.105469 373.660156 298.046875 C 362.039062 312.101562 351.089844 320.386719 340.546875 324.234375 C 330.015625 328.035156 319.894531 327.445312 312.710938 325.078125 C 303.984375 322.214844 302.65625 334.078125 307.699219 338.789062 C 311.886719 342.625 322.675781 345.046875 335.742188 340.664062 C 348.761719 336.226562 362.761719 325.914062 372.367188 313.78125 C 380.6875 306.773438 379.652344 316.195312 375.878906 322.753906 C 356.613281 351.8125 339.054688 362.5625 315.863281 360.738281 C 305.585938 359.113281 303.257812 366.703125 309.820312 373.757812 C 321.289062 382.882812 335.695312 382.589844 348.25 373.609375 C 359.453125 363.296875 380.839844 341.152344 392.042969 329.265625 C 399.945312 323.25 402.480469 329.171875 400.160156 341.398438 C 398.039062 348.40625 392.773438 355.753906 378.359375 361.128906 C 368.542969 366.507812 375.929688 373.90625 383.269531 374.003906 C 387.347656 374.105469 395.5625 369.566406 401.859375 362.808594 C 410.175781 353.878906 410.644531 347.910156 415.234375 334.050781 C 419.527344 327.292969 427.222656 330.453125 427.222656 337.503906 C 423.554688 351.417969 420.351562 353.878906 412.914062 359.601562 C 405.730469 365.960938 417.875 368.136719 421.957031 365.472656 C 433.785156 357.875 438.117188 348.058594 442.046875 339.078125 C 444.886719 332.625 453.152344 335.777344 449.328125 346.332031 C 440.191406 371.535156 425.109375 381.453125 398.765625 386.53125 C 396.074219 387.027344 394.136719 389.414062 395.402344 391.464844 C 398.914062 394.96875 402.480469 398.175781 405.996094 401.628906 C 405.996094 401.628906 376.46875 408.703125 360.167969 413.242188 L 337.710938 398.976562 C 339.167969 393.777344 329.554688 387.515625 322.257812 392.675781 C 314.257812 389.148438 309.828125 390.699219 306.6875 395.898438 C 312.785156 394.007812 315.882812 395.316406 318.394531 398.105469 C 320.164062 404.417969 329.007812 408.277344 335.308594 404.804688 L 352.1875 416.027344 L 323.738281 415.289062 C 321.703125 408.035156 307.613281 408.003906 303.71875 414.449219 C 298.59375 414.449219 295.175781 417.121094 293.421875 423.378906 C 298.992188 419.511719 301.40625 419.976562 304.265625 420.707031 C 307.605469 426.238281 319.066406 425.949219 322.234375 420.707031 L 349.554688 421.421875 L 333.59375 429.980469 C 324.402344 424.914062 312.53125 432.519531 314.75 440.433594 C 310.882812 443.433594 310.367188 447.753906 312.835938 453.875 C 314.171875 449.632812 316.707031 445.664062 320.652344 443.375 C 329.019531 445.515625 337.066406 443.007812 337.066406 435.078125 L 359.25 423.351562 L 381.207031 431.410156 C 381.207031 436.894531 389.96875 441.039062 397.488281 438.132812 C 402.757812 438.71875 403.503906 443.125 404.382812 446.519531 C 407.261719 441.644531 407.796875 436.597656 401.128906 432.289062 C 401.128906 425.984375 392.621094 422.066406 385.574219 425.703125 L 366.960938 419.523438 C 383.675781 414.4375 414.375 409.285156 414.375 409.285156 C 418.5625 413.03125 421.902344 415.785156 426.089844 419.136719 C 428.3125 420.421875 431.449219 420.355469 434.867188 416.1875 C 445.300781 401.730469 455.167969 375.410156 470.25 371.789062 C 475.792969 370.453125 482.464844 373.964844 481.046875 385.546875 C 478.890625 403.15625 465.085938 417.796875 447.730469 428.753906 C 438.070312 434.769531 433.992188 432.113281 426.503906 431.765625 C 416.84375 432.800781 414.261719 437.285156 422.21875 443.503906 C 429.597656 447.15625 436.261719 447.644531 441.636719 446.660156 C 446.285156 445.871094 451.707031 440.148438 455.578125 437.042969 C 459.921875 432.257812 467.152344 437.929688 462.25 443.554688 C 453.308594 453.714844 444.324219 460.375 433.320312 460.226562 C 421.699219 461.753906 423.871094 467.96875 431.5625 470.980469 C 445.40625 476.453125 457.957031 466.242188 464.261719 459.484375 C 469.167969 454.40625 472.683594 454.210938 471.800781 462.101562 C 466.945312 476.453125 460.285156 482.023438 449.4375 482.71875 C 440.652344 481.976562 440.554688 488.441406 446.960938 492.832031 C 461.621094 502.496094 472.261719 486.019531 477.222656 476.058594 C 480.734375 467.03125 486.164062 471.324219 486.726562 478.722656 C 486.832031 488.636719 479.226562 498.925781 472.949219 504.007812 C 466.675781 509.089844 500 541.394531 500 541.394531 C 500 541.394531 533.324219 509.089844 527.050781 504.007812 Z M 571.707031 138.167969 C 566.519531 138.167969 563.316406 139.863281 563.316406 141.921875 C 563.316406 144.011719 566.519531 145.714844 571.707031 145.714844 C 576.863281 145.714844 580.136719 143.859375 580.136719 141.765625 C 580.136719 139.707031 576.863281 138.167969 571.707031 138.167969 Z M 428.292969 138.167969 C 433.480469 138.167969 436.6875 139.863281 436.6875 141.921875 C 436.6875 144.011719 433.480469 145.714844 428.292969 145.714844 C 423.140625 145.714844 419.863281 143.859375 419.863281 141.765625 C 419.863281 139.707031 423.140625 138.167969 428.292969 138.167969 Z M 428.292969 138.167969 "/>
</g>
</svg>
