<?xml version="1.0" encoding="UTF-8"?>
<svg xmlns="http://www.w3.org/2000/svg" xmlns:xlink="http://www.w3.org/1999/xlink" width="1000px" height="667px" viewBox="0 0 1000 667" version="1.1">
<g id="surface1">
<rect x="0" y="0" width="1000" height="667" style="fill:rgb(0%,0%,0%);fill-opacity:1;stroke:none;"/>
<path style=" stroke:none;fill-rule:nonzero;fill:rgb(80.000001%,3.529412%,18.431373%);fill-opacity:1;" d="M 0 0 L 1000 0 L 1000 333.5 L 0 333.5 Z M 0 0 "/>
<path style=" stroke:none;fill-rule:evenodd;fill:rgb(100%,79.607844%,0%);fill-opacity:1;" d="M 434.285156 228.777344 L 475.003906 228.777344 L 487.347656 190.382812 L 500.027344 228.777344 L 540.738281 228.777344 L 508.035156 253.152344 L 520.710938 292.210938 L 487.347656 268.503906 L 454.3125 292.210938 L 466.992188 253.152344 Z M 434.285156 228.777344 "/>
<path style=" stroke:none;fill-rule:evenodd;fill:rgb(100%,79.607844%,0%);fill-opacity:1;" d="M 583.113281 438.78125 L 551.082031 413.734375 C 583.445312 387.363281 604.472656 346.964844 604.472656 301.894531 C 604.472656 233.121094 555.425781 175.363281 490.683594 161.675781 L 495.6875 138.300781 C 504.699219 140.304688 515.269531 144.101562 523.945312 147.101562 L 532.289062 133.085938 C 541.289062 137.421875 551.308594 141.757812 559.648438 147.101562 L 553.308594 162.128906 C 561.65625 167.472656 571.726562 175.746094 577.328125 182.261719 L 589.859375 172.46875 C 596.535156 179.8125 604.542969 187.484375 610.214844 195.503906 L 598.871094 207.191406 C 606.199219 217.953125 609.03125 222.90625 614.429688 235.300781 L 630.351562 231.566406 C 633.355469 240.914062 637.921875 252.355469 639.59375 262.035156 L 624.519531 267.960938 C 626.320312 275.484375 628.652344 288.621094 628.503906 299.671875 C 628.488281 300.335938 628.441406 301.089844 628.441406 301.761719 L 644.179688 304.007812 C 643.515625 313.691406 643.183594 324.710938 641.175781 334.394531 L 624.828125 334.394531 C 622.496094 344.402344 619.484375 356.648438 615.816406 365.992188 L 629.492188 374.011719 C 625.15625 382.6875 620.824219 393.039062 615.148438 401.386719 L 600.132812 395.046875 C 594.457031 403.390625 588.125 411.398438 581.113281 418.75 L 590.789062 431.433594 C 588.125 433.765625 585.785156 436.105469 583.113281 438.78125 M 512.710938 435.773438 L 536.902344 450.359375 C 534.644531 452.425781 527.886719 455.925781 526.097656 456.632812 L 530.050781 471.824219 C 520.710938 474.835938 510.695312 479.171875 500.359375 481.175781 L 494.351562 466.15625 C 484.675781 468.15625 475.003906 469.488281 464.988281 469.488281 L 462.980469 485.179688 C 453.640625 484.515625 442.296875 485.179688 431.949219 482.84375 L 431.949219 467.15625 C 422.605469 465.484375 413.597656 463.148438 404.925781 460.140625 L 397.246094 473.839844 C 389.238281 470.492188 378.5625 466.484375 369.882812 461.148438 L 375.558594 446.125 C 368.546875 442.449219 362.207031 437.777344 356.203125 433.097656 L 371.21875 414.066406 C 395.914062 433.769531 426.945312 445.445312 460.980469 445.445312 C 479.003906 445.445312 496.683594 442.449219 512.710938 435.777344 "/>
<path style=" stroke:none;fill-rule:evenodd;fill:rgb(100%,79.607844%,0%);fill-opacity:1;" d="M 613.546875 474.472656 L 453.847656 352.875 L 452.390625 354.949219 L 611.679688 476.757812 L 602.226562 488.59375 L 446.945312 388.945312 C 404.902344 362.570312 406.570312 341.875 415.246094 319.503906 L 422.589844 301.476562 C 426.59375 324.847656 450.613281 342.546875 475.640625 362.238281 L 616.65625 470.621094 Z M 653.640625 510.710938 C 652.980469 510.710938 652.351562 510.449219 651.886719 509.984375 C 651.417969 509.515625 651.160156 508.882812 651.164062 508.222656 C 651.160156 506.855469 652.269531 505.742188 653.640625 505.742188 C 655.015625 505.742188 656.128906 506.855469 656.128906 508.222656 C 656.128906 508.882812 655.867188 509.519531 655.398438 509.984375 C 654.933594 510.453125 654.300781 510.714844 653.640625 510.714844 M 644.09375 503.699219 C 642.722656 503.699219 641.613281 502.585938 641.609375 501.214844 C 641.609375 499.84375 642.722656 498.730469 644.09375 498.730469 C 645.464844 498.730469 646.578125 499.839844 646.578125 501.214844 C 646.578125 502.585938 645.46875 503.699219 644.09375 503.699219 M 634.328125 495.914062 C 632.960938 495.914062 631.84375 494.800781 631.84375 493.433594 C 631.882812 492.089844 632.984375 491.019531 634.328125 491.019531 C 635.671875 491.019531 636.769531 492.089844 636.8125 493.433594 C 636.8125 494.800781 635.699219 495.914062 634.328125 495.914062 M 667.167969 509.695312 L 619.316406 472.605469 L 605.414062 490.535156 L 646.980469 519.699219 C 650.316406 522.03125 650.644531 532.726562 662.988281 534.398438 C 668 535.058594 671.328125 531.382812 671.328125 531.382812 C 676.707031 524.835938 675.242188 515.816406 667.167969 509.695312 "/>
</g>
</svg>
