<?xml version="1.0" encoding="UTF-8"?>
<svg xmlns="http://www.w3.org/2000/svg" xmlns:xlink="http://www.w3.org/1999/xlink" width="1000px" height="667px" viewBox="0 0 1000 667" version="1.1">
<g id="surface1">
<rect x="0" y="0" width="1000" height="667" style="fill:rgb(24.705882%,61.176473%,20.784314%);fill-opacity:1;stroke:none;"/>
<path style=" stroke:none;fill-rule:nonzero;fill:rgb(92.941177%,16.078432%,22.352941%);fill-opacity:1;" d="M 0 0 L 1000 0 L 1000 444.667969 L 0 444.667969 Z M 0 0 "/>
<path style=" stroke:none;fill-rule:nonzero;fill:rgb(0%,72.549021%,89.411765%);fill-opacity:1;" d="M 0 0 L 1000 0 L 1000 222.332031 L 0 222.332031 Z M 0 0 "/>
<path style=" stroke:none;fill-rule:nonzero;fill:rgb(100%,100%,100%);fill-opacity:1;" d="M 558.332031 333.5 C 558.332031 388.757812 524.753906 433.550781 483.332031 433.550781 C 441.910156 433.550781 408.332031 388.757812 408.332031 333.5 C 408.332031 278.242188 441.910156 233.449219 483.332031 233.449219 C 524.753906 233.449219 558.332031 278.242188 558.332031 333.5 Z M 558.332031 333.5 "/>
<path style=" stroke:none;fill-rule:nonzero;fill:rgb(92.941177%,16.078432%,22.352941%);fill-opacity:1;" d="M 562.5 333.5 C 562.5 379.546875 534.519531 416.875 500 416.875 C 465.480469 416.875 437.5 379.546875 437.5 333.5 C 437.5 287.453125 465.480469 250.125 500 250.125 C 534.519531 250.125 562.5 287.453125 562.5 333.5 Z M 562.5 333.5 "/>
<path style=" stroke:none;fill-rule:nonzero;fill:rgb(100%,100%,100%);fill-opacity:1;" d="M 566.667969 277.917969 L 574.640625 307.824219 L 596.128906 294.195312 L 585.914062 322.863281 L 608.332031 333.5 L 585.914062 344.136719 L 596.128906 372.804688 L 574.640625 359.175781 L 566.667969 389.082031 L 558.695312 359.175781 L 537.203125 372.804688 L 547.417969 344.136719 L 525 333.5 L 547.417969 322.863281 L 537.203125 294.195312 L 558.695312 307.824219 Z M 566.667969 277.917969 "/>
</g>
</svg>
