<?xml version="1.0" encoding="UTF-8"?>
<svg xmlns="http://www.w3.org/2000/svg" xmlns:xlink="http://www.w3.org/1999/xlink" width="1000px" height="667px" viewBox="0 0 1000 667" version="1.1">
<g id="surface1">
<rect x="0" y="0" width="1000" height="667" style="fill:rgb(0%,13.725491%,58.431375%);fill-opacity:1;stroke:none;"/>
<path style=" stroke:none;fill-rule:nonzero;fill:rgb(99.607843%,79.607844%,0%);fill-opacity:1;" d="M 265 0 L 765 0 L 765 667 Z M 265 0 "/>
<path style=" stroke:none;fill-rule:nonzero;fill:rgb(100%,100%,100%);fill-opacity:1;" d="M 147.0625 43.773438 L 175 -70.867188 L 202.9375 43.773438 L 129.8125 -27.097656 L 220.1875 -27.097656 Z M 147.0625 43.773438 "/>
<path style=" stroke:none;fill-rule:nonzero;fill:rgb(100%,100%,100%);fill-opacity:1;" d="M 209.5625 127.148438 L 237.5 12.507812 L 265.4375 127.148438 L 192.3125 56.277344 L 282.6875 56.277344 Z M 209.5625 127.148438 "/>
<path style=" stroke:none;fill-rule:nonzero;fill:rgb(100%,100%,100%);fill-opacity:1;" d="M 272.0625 210.523438 L 300 95.882812 L 327.9375 210.523438 L 254.8125 139.652344 L 345.1875 139.652344 Z M 272.0625 210.523438 "/>
<path style=" stroke:none;fill-rule:nonzero;fill:rgb(100%,100%,100%);fill-opacity:1;" d="M 334.5625 293.898438 L 362.5 179.257812 L 390.4375 293.898438 L 317.3125 223.027344 L 407.6875 223.027344 Z M 334.5625 293.898438 "/>
<path style=" stroke:none;fill-rule:nonzero;fill:rgb(100%,100%,100%);fill-opacity:1;" d="M 397.0625 377.273438 L 425 262.632812 L 452.9375 377.273438 L 379.8125 306.402344 L 470.1875 306.402344 Z M 397.0625 377.273438 "/>
<path style=" stroke:none;fill-rule:nonzero;fill:rgb(100%,100%,100%);fill-opacity:1;" d="M 459.5625 460.648438 L 487.5 346.007812 L 515.4375 460.648438 L 442.3125 389.777344 L 532.6875 389.777344 Z M 459.5625 460.648438 "/>
<path style=" stroke:none;fill-rule:nonzero;fill:rgb(100%,100%,100%);fill-opacity:1;" d="M 522.0625 544.023438 L 550 429.382812 L 577.9375 544.023438 L 504.8125 473.152344 L 595.1875 473.152344 Z M 522.0625 544.023438 "/>
<path style=" stroke:none;fill-rule:nonzero;fill:rgb(100%,100%,100%);fill-opacity:1;" d="M 584.5625 627.398438 L 612.5 512.757812 L 640.4375 627.398438 L 567.3125 556.527344 L 657.6875 556.527344 Z M 584.5625 627.398438 "/>
<path style=" stroke:none;fill-rule:nonzero;fill:rgb(100%,100%,100%);fill-opacity:1;" d="M 647.0625 710.773438 L 675 596.132812 L 702.9375 710.773438 L 629.8125 639.902344 L 720.1875 639.902344 Z M 647.0625 710.773438 "/>
</g>
</svg>
