<?xml version="1.0" encoding="UTF-8"?>
<svg xmlns="http://www.w3.org/2000/svg" xmlns:xlink="http://www.w3.org/1999/xlink" width="1000px" height="667px" viewBox="0 0 1000 667" version="1.1">
<g id="surface1">
<rect x="0" y="0" width="1000" height="667" style="fill:rgb(0%,14.901961%,49.803922%);fill-opacity:1;stroke:none;"/>
<path style=" stroke:none;fill-rule:nonzero;fill:rgb(100%,78.039217%,14.901961%);fill-opacity:1;" d="M 333.332031 0 L 666.667969 0 L 666.667969 667 L 333.332031 667 Z M 333.332031 0 "/>
<path style=" stroke:none;fill-rule:nonzero;fill:rgb(0%,0%,0%);fill-opacity:1;" d="M 500 171.917969 C 489.167969 201.476562 478.125 232.242188 454.5 255.792969 C 461.832031 253.375 474.667969 251.207031 482.917969 251.417969 L 482.917969 375.730469 L 447.832031 380.941406 C 446.582031 380.816406 446.167969 378.855469 446.167969 376.1875 C 442.792969 337.585938 433.667969 305.152344 423.167969 271.59375 C 422.417969 267.007812 409.125 249.5 419.375 252.585938 C 420.625 252.75 434.332031 258.335938 432.167969 255.667969 C 413.5 236.328125 386.207031 222.402344 359.707031 218.277344 C 357.375 217.691406 356 218.859375 358.082031 221.570312 C 393.25 275.722656 422.667969 339.628906 422.417969 415.457031 C 436.082031 415.457031 469.207031 407.371094 482.917969 407.371094 C 482.917969 407.371094 482.917969 495.082031 482.917969 495.082031 L 500.207031 495.082031 L 504.167969 250.125 Z M 500 171.917969 "/>
<path style=" stroke:none;fill-rule:nonzero;fill:rgb(0%,0%,0%);fill-opacity:1;" d="M 500 171.917969 C 510.832031 201.476562 521.875 232.242188 545.5 255.792969 C 538.167969 253.375 525.332031 251.207031 517.082031 251.417969 L 517.082031 375.730469 L 552.167969 380.941406 C 553.417969 380.816406 553.832031 378.855469 553.832031 376.1875 C 557.207031 337.585938 566.332031 305.152344 576.832031 271.59375 C 577.582031 267.007812 590.875 249.5 580.625 252.585938 C 579.375 252.75 565.667969 258.335938 567.832031 255.667969 C 586.5 236.328125 613.792969 222.402344 640.292969 218.277344 C 642.625 217.691406 644 218.859375 641.917969 221.570312 C 606.75 275.722656 577.332031 339.628906 577.582031 415.457031 C 563.917969 415.457031 530.792969 407.371094 517.082031 407.371094 C 517.082031 407.371094 517.082031 495.082031 517.082031 495.082031 L 499.792969 495.082031 L 495.832031 250.125 Z M 500 171.917969 "/>
</g>
</svg>
