<?xml version="1.0" encoding="UTF-8"?>
<svg xmlns="http://www.w3.org/2000/svg" xmlns:xlink="http://www.w3.org/1999/xlink" width="1000px" height="667px" viewBox="0 0 1000 667" version="1.1">
<g id="surface1">
<path style=" stroke:none;fill-rule:nonzero;fill:rgb(80.784315%,6.666667%,14.901961%);fill-opacity:1;" d="M 0 0 L 1000 0 L 0 667 L 1000 667 Z M 0 0 "/>
<path style=" stroke:none;fill-rule:nonzero;fill:rgb(11.764706%,70.980394%,22.745098%);fill-opacity:1;" d="M 0 0 L 0 667 L 1000 0 L 1000 667 Z M 0 0 "/>
<path style="fill-rule:nonzero;fill:rgb(0%,0%,0%);fill-opacity:1;stroke-width:40;stroke-linecap:butt;stroke-linejoin:miter;stroke:rgb(100%,100%,100%);stroke-opacity:1;stroke-miterlimit:4;" d="M 0 0 L 500 300 M 500 0 L 0 300 " transform="matrix(2,0,0,2.223333,0,0)"/>
<path style=" stroke:none;fill-rule:nonzero;fill:rgb(100%,100%,100%);fill-opacity:1;" d="M 670 333.5 C 670 437.871094 593.886719 522.484375 500 522.484375 C 406.113281 522.484375 330 437.871094 330 333.5 C 330 229.128906 406.113281 144.515625 500 144.515625 C 593.886719 144.515625 670 229.128906 670 333.5 Z M 670 333.5 "/>
<path style=" stroke:none;fill-rule:nonzero;fill:rgb(11.764706%,70.980394%,22.745098%);fill-opacity:1;" d="M 500 191.207031 L 480 229.714844 L 514.640625 251.949219 "/>
<path style=" stroke:none;fill-rule:nonzero;fill:rgb(11.764706%,70.980394%,22.745098%);fill-opacity:1;" d="M 500 191.207031 L 520 229.714844 L 485.359375 251.949219 "/>
<path style=" stroke:none;fill-rule:nonzero;fill:rgb(11.764706%,70.980394%,22.745098%);fill-opacity:1;" d="M 534.640625 257.90625 L 514.640625 219.398438 L 480 241.628906 "/>
<path style=" stroke:none;fill-rule:nonzero;fill:rgb(11.764706%,70.980394%,22.745098%);fill-opacity:1;" d="M 534.640625 257.90625 L 494.640625 257.90625 L 494.640625 213.441406 "/>
<path style=" stroke:none;fill-rule:nonzero;fill:rgb(11.764706%,70.980394%,22.745098%);fill-opacity:1;" d="M 465.359375 257.90625 L 505.359375 257.90625 L 505.359375 213.441406 "/>
<path style=" stroke:none;fill-rule:nonzero;fill:rgb(11.764706%,70.980394%,22.745098%);fill-opacity:1;" d="M 465.359375 257.90625 L 485.359375 219.398438 L 520 241.628906 "/>
<path style=" stroke:none;fill-rule:nonzero;fill:rgb(11.764706%,70.980394%,22.745098%);fill-opacity:1;" d="M 500 280.140625 L 520 241.628906 L 485.359375 219.398438 "/>
<path style=" stroke:none;fill-rule:nonzero;fill:rgb(11.764706%,70.980394%,22.745098%);fill-opacity:1;" d="M 500 280.140625 L 480 241.628906 L 514.640625 219.398438 "/>
<path style=" stroke:none;fill-rule:nonzero;fill:rgb(11.764706%,70.980394%,22.745098%);fill-opacity:1;" d="M 465.359375 213.441406 L 485.359375 251.949219 L 520 229.714844 "/>
<path style=" stroke:none;fill-rule:nonzero;fill:rgb(11.764706%,70.980394%,22.745098%);fill-opacity:1;" d="M 465.359375 213.441406 L 505.359375 213.441406 L 505.359375 257.90625 "/>
<path style=" stroke:none;fill-rule:nonzero;fill:rgb(11.764706%,70.980394%,22.745098%);fill-opacity:1;" d="M 534.640625 213.441406 L 494.640625 213.441406 L 494.640625 257.90625 "/>
<path style=" stroke:none;fill-rule:nonzero;fill:rgb(11.764706%,70.980394%,22.745098%);fill-opacity:1;" d="M 534.640625 213.441406 L 514.640625 251.949219 L 480 229.714844 "/>
<path style=" stroke:none;fill-rule:nonzero;fill:rgb(80.784315%,6.666667%,14.901961%);fill-opacity:1;" d="M 500 199.210938 L 483.601562 230.789062 L 512.003906 249.019531 "/>
<path style=" stroke:none;fill-rule:nonzero;fill:rgb(80.784315%,6.666667%,14.901961%);fill-opacity:1;" d="M 500 199.210938 L 516.398438 230.789062 L 487.996094 249.019531 "/>
<path style=" stroke:none;fill-rule:nonzero;fill:rgb(80.784315%,6.666667%,14.901961%);fill-opacity:1;" d="M 528.40625 253.90625 L 512.003906 222.328125 L 483.601562 240.558594 "/>
<path style=" stroke:none;fill-rule:nonzero;fill:rgb(80.784315%,6.666667%,14.901961%);fill-opacity:1;" d="M 528.40625 253.90625 L 495.605469 253.90625 L 495.605469 217.441406 "/>
<path style=" stroke:none;fill-rule:nonzero;fill:rgb(80.784315%,6.666667%,14.901961%);fill-opacity:1;" d="M 471.59375 253.90625 L 504.394531 253.90625 L 504.394531 217.441406 "/>
<path style=" stroke:none;fill-rule:nonzero;fill:rgb(80.784315%,6.666667%,14.901961%);fill-opacity:1;" d="M 471.59375 253.90625 L 487.996094 222.328125 L 516.398438 240.558594 "/>
<path style=" stroke:none;fill-rule:nonzero;fill:rgb(80.784315%,6.666667%,14.901961%);fill-opacity:1;" d="M 500 272.136719 L 516.398438 240.558594 L 487.996094 222.328125 "/>
<path style=" stroke:none;fill-rule:nonzero;fill:rgb(80.784315%,6.666667%,14.901961%);fill-opacity:1;" d="M 500 272.136719 L 483.601562 240.558594 L 512.003906 222.328125 "/>
<path style=" stroke:none;fill-rule:nonzero;fill:rgb(80.784315%,6.666667%,14.901961%);fill-opacity:1;" d="M 471.59375 217.441406 L 487.996094 249.019531 L 516.398438 230.789062 "/>
<path style=" stroke:none;fill-rule:nonzero;fill:rgb(80.784315%,6.666667%,14.901961%);fill-opacity:1;" d="M 471.59375 217.441406 L 504.394531 217.441406 L 504.394531 253.90625 "/>
<path style=" stroke:none;fill-rule:nonzero;fill:rgb(80.784315%,6.666667%,14.901961%);fill-opacity:1;" d="M 528.40625 217.441406 L 495.605469 217.441406 L 495.605469 253.90625 "/>
<path style=" stroke:none;fill-rule:nonzero;fill:rgb(80.784315%,6.666667%,14.901961%);fill-opacity:1;" d="M 528.40625 217.441406 L 512.003906 249.019531 L 483.601562 230.789062 "/>
<path style=" stroke:none;fill-rule:nonzero;fill:rgb(11.764706%,70.980394%,22.745098%);fill-opacity:1;" d="M 610.851562 404.648438 L 590.851562 366.136719 L 556.210938 388.371094 "/>
<path style=" stroke:none;fill-rule:nonzero;fill:rgb(11.764706%,70.980394%,22.745098%);fill-opacity:1;" d="M 610.851562 404.648438 L 570.851562 404.648438 L 570.851562 360.179688 "/>
<path style=" stroke:none;fill-rule:nonzero;fill:rgb(11.764706%,70.980394%,22.745098%);fill-opacity:1;" d="M 541.570312 404.648438 L 581.570312 404.648438 L 581.570312 360.179688 "/>
<path style=" stroke:none;fill-rule:nonzero;fill:rgb(11.764706%,70.980394%,22.745098%);fill-opacity:1;" d="M 541.570312 404.648438 L 561.570312 366.136719 L 596.210938 388.371094 "/>
<path style=" stroke:none;fill-rule:nonzero;fill:rgb(11.764706%,70.980394%,22.745098%);fill-opacity:1;" d="M 576.210938 337.945312 L 556.210938 376.457031 L 590.851562 398.6875 "/>
<path style=" stroke:none;fill-rule:nonzero;fill:rgb(11.764706%,70.980394%,22.745098%);fill-opacity:1;" d="M 576.210938 337.945312 L 596.210938 376.457031 L 561.570312 398.6875 "/>
<path style=" stroke:none;fill-rule:nonzero;fill:rgb(11.764706%,70.980394%,22.745098%);fill-opacity:1;" d="M 541.570312 360.179688 L 561.570312 398.6875 L 596.210938 376.457031 "/>
<path style=" stroke:none;fill-rule:nonzero;fill:rgb(11.764706%,70.980394%,22.745098%);fill-opacity:1;" d="M 541.570312 360.179688 L 581.570312 360.179688 L 581.570312 404.648438 "/>
<path style=" stroke:none;fill-rule:nonzero;fill:rgb(11.764706%,70.980394%,22.745098%);fill-opacity:1;" d="M 610.851562 360.179688 L 570.851562 360.179688 L 570.851562 404.648438 "/>
<path style=" stroke:none;fill-rule:nonzero;fill:rgb(11.764706%,70.980394%,22.745098%);fill-opacity:1;" d="M 610.851562 360.179688 L 590.851562 398.6875 L 556.210938 376.457031 "/>
<path style=" stroke:none;fill-rule:nonzero;fill:rgb(11.764706%,70.980394%,22.745098%);fill-opacity:1;" d="M 576.210938 426.878906 L 596.210938 388.371094 L 561.570312 366.136719 "/>
<path style=" stroke:none;fill-rule:nonzero;fill:rgb(11.764706%,70.980394%,22.745098%);fill-opacity:1;" d="M 576.210938 426.878906 L 556.210938 388.371094 L 590.851562 366.136719 "/>
<path style=" stroke:none;fill-rule:nonzero;fill:rgb(80.784315%,6.666667%,14.901961%);fill-opacity:1;" d="M 604.617188 400.644531 L 588.214844 369.066406 L 559.808594 387.296875 "/>
<path style=" stroke:none;fill-rule:nonzero;fill:rgb(80.784315%,6.666667%,14.901961%);fill-opacity:1;" d="M 604.617188 400.644531 L 571.816406 400.644531 L 571.816406 364.183594 "/>
<path style=" stroke:none;fill-rule:nonzero;fill:rgb(80.784315%,6.666667%,14.901961%);fill-opacity:1;" d="M 547.804688 400.644531 L 580.605469 400.644531 L 580.605469 364.183594 "/>
<path style=" stroke:none;fill-rule:nonzero;fill:rgb(80.784315%,6.666667%,14.901961%);fill-opacity:1;" d="M 547.804688 400.644531 L 564.203125 369.066406 L 592.609375 387.296875 "/>
<path style=" stroke:none;fill-rule:nonzero;fill:rgb(80.784315%,6.666667%,14.901961%);fill-opacity:1;" d="M 576.210938 345.949219 L 559.808594 377.527344 L 588.214844 395.757812 "/>
<path style=" stroke:none;fill-rule:nonzero;fill:rgb(80.784315%,6.666667%,14.901961%);fill-opacity:1;" d="M 576.210938 345.949219 L 592.609375 377.527344 L 564.203125 395.757812 "/>
<path style=" stroke:none;fill-rule:nonzero;fill:rgb(80.784315%,6.666667%,14.901961%);fill-opacity:1;" d="M 547.804688 364.183594 L 564.203125 395.757812 L 592.609375 377.527344 "/>
<path style=" stroke:none;fill-rule:nonzero;fill:rgb(80.784315%,6.666667%,14.901961%);fill-opacity:1;" d="M 547.804688 364.183594 L 580.605469 364.183594 L 580.605469 400.644531 "/>
<path style=" stroke:none;fill-rule:nonzero;fill:rgb(80.784315%,6.666667%,14.901961%);fill-opacity:1;" d="M 604.617188 364.183594 L 571.816406 364.183594 L 571.816406 400.644531 "/>
<path style=" stroke:none;fill-rule:nonzero;fill:rgb(80.784315%,6.666667%,14.901961%);fill-opacity:1;" d="M 604.617188 364.183594 L 588.214844 395.757812 L 559.808594 377.527344 "/>
<path style=" stroke:none;fill-rule:nonzero;fill:rgb(80.784315%,6.666667%,14.901961%);fill-opacity:1;" d="M 576.210938 418.875 L 592.609375 387.296875 L 564.203125 369.066406 "/>
<path style=" stroke:none;fill-rule:nonzero;fill:rgb(80.784315%,6.666667%,14.901961%);fill-opacity:1;" d="M 576.210938 418.875 L 559.808594 387.296875 L 588.214844 369.066406 "/>
<path style=" stroke:none;fill-rule:nonzero;fill:rgb(11.764706%,70.980394%,22.745098%);fill-opacity:1;" d="M 389.148438 404.648438 L 429.148438 404.648438 L 429.148438 360.179688 "/>
<path style=" stroke:none;fill-rule:nonzero;fill:rgb(11.764706%,70.980394%,22.745098%);fill-opacity:1;" d="M 389.148438 404.648438 L 409.148438 366.136719 L 443.789062 388.371094 "/>
<path style=" stroke:none;fill-rule:nonzero;fill:rgb(11.764706%,70.980394%,22.745098%);fill-opacity:1;" d="M 423.789062 337.945312 L 403.789062 376.457031 L 438.429688 398.6875 "/>
<path style=" stroke:none;fill-rule:nonzero;fill:rgb(11.764706%,70.980394%,22.745098%);fill-opacity:1;" d="M 423.789062 337.945312 L 443.789062 376.457031 L 409.148438 398.6875 "/>
<path style=" stroke:none;fill-rule:nonzero;fill:rgb(11.764706%,70.980394%,22.745098%);fill-opacity:1;" d="M 458.429688 404.648438 L 438.429688 366.136719 L 403.789062 388.371094 "/>
<path style=" stroke:none;fill-rule:nonzero;fill:rgb(11.764706%,70.980394%,22.745098%);fill-opacity:1;" d="M 458.429688 404.648438 L 418.429688 404.648438 L 418.429688 360.179688 "/>
<path style=" stroke:none;fill-rule:nonzero;fill:rgb(11.764706%,70.980394%,22.745098%);fill-opacity:1;" d="M 458.429688 360.179688 L 418.429688 360.179688 L 418.429688 404.648438 "/>
<path style=" stroke:none;fill-rule:nonzero;fill:rgb(11.764706%,70.980394%,22.745098%);fill-opacity:1;" d="M 458.429688 360.179688 L 438.429688 398.6875 L 403.789062 376.457031 "/>
<path style=" stroke:none;fill-rule:nonzero;fill:rgb(11.764706%,70.980394%,22.745098%);fill-opacity:1;" d="M 423.789062 426.878906 L 443.789062 388.371094 L 409.148438 366.136719 "/>
<path style=" stroke:none;fill-rule:nonzero;fill:rgb(11.764706%,70.980394%,22.745098%);fill-opacity:1;" d="M 423.789062 426.878906 L 403.789062 388.371094 L 438.429688 366.136719 "/>
<path style=" stroke:none;fill-rule:nonzero;fill:rgb(11.764706%,70.980394%,22.745098%);fill-opacity:1;" d="M 389.148438 360.179688 L 409.148438 398.6875 L 443.789062 376.457031 "/>
<path style=" stroke:none;fill-rule:nonzero;fill:rgb(11.764706%,70.980394%,22.745098%);fill-opacity:1;" d="M 389.148438 360.179688 L 429.148438 360.179688 L 429.148438 404.648438 "/>
<path style=" stroke:none;fill-rule:nonzero;fill:rgb(80.784315%,6.666667%,14.901961%);fill-opacity:1;" d="M 395.382812 400.644531 L 428.183594 400.644531 L 428.183594 364.183594 "/>
<path style=" stroke:none;fill-rule:nonzero;fill:rgb(80.784315%,6.666667%,14.901961%);fill-opacity:1;" d="M 395.382812 400.644531 L 411.785156 369.066406 L 440.191406 387.296875 "/>
<path style=" stroke:none;fill-rule:nonzero;fill:rgb(80.784315%,6.666667%,14.901961%);fill-opacity:1;" d="M 423.789062 345.949219 L 407.390625 377.527344 L 435.796875 395.757812 "/>
<path style=" stroke:none;fill-rule:nonzero;fill:rgb(80.784315%,6.666667%,14.901961%);fill-opacity:1;" d="M 423.789062 345.949219 L 440.191406 377.527344 L 411.785156 395.757812 "/>
<path style=" stroke:none;fill-rule:nonzero;fill:rgb(80.784315%,6.666667%,14.901961%);fill-opacity:1;" d="M 452.195312 400.644531 L 435.796875 369.066406 L 407.390625 387.296875 "/>
<path style=" stroke:none;fill-rule:nonzero;fill:rgb(80.784315%,6.666667%,14.901961%);fill-opacity:1;" d="M 452.195312 400.644531 L 419.394531 400.644531 L 419.394531 364.183594 "/>
<path style=" stroke:none;fill-rule:nonzero;fill:rgb(80.784315%,6.666667%,14.901961%);fill-opacity:1;" d="M 452.195312 364.183594 L 419.394531 364.183594 L 419.394531 400.644531 "/>
<path style=" stroke:none;fill-rule:nonzero;fill:rgb(80.784315%,6.666667%,14.901961%);fill-opacity:1;" d="M 452.195312 364.183594 L 435.796875 395.757812 L 407.390625 377.527344 "/>
<path style=" stroke:none;fill-rule:nonzero;fill:rgb(80.784315%,6.666667%,14.901961%);fill-opacity:1;" d="M 423.789062 418.875 L 440.191406 387.296875 L 411.785156 369.066406 "/>
<path style=" stroke:none;fill-rule:nonzero;fill:rgb(80.784315%,6.666667%,14.901961%);fill-opacity:1;" d="M 423.789062 418.875 L 407.390625 387.296875 L 435.796875 369.066406 "/>
<path style=" stroke:none;fill-rule:nonzero;fill:rgb(80.784315%,6.666667%,14.901961%);fill-opacity:1;" d="M 395.382812 364.183594 L 411.785156 395.757812 L 440.191406 377.527344 "/>
<path style=" stroke:none;fill-rule:nonzero;fill:rgb(80.784315%,6.666667%,14.901961%);fill-opacity:1;" d="M 395.382812 364.183594 L 428.183594 364.183594 L 428.183594 400.644531 "/>
</g>
</svg>
