<?xml version="1.0" encoding="UTF-8"?>
<svg xmlns="http://www.w3.org/2000/svg" xmlns:xlink="http://www.w3.org/1999/xlink" width="1000px" height="667px" viewBox="0 0 1000 667" version="1.1">
<g id="surface1">
<rect x="0" y="0" width="1000" height="667" style="fill:rgb(78.431374%,6.27451%,18.039216%);fill-opacity:1;stroke:none;"/>
<path style=" stroke:none;fill-rule:nonzero;fill:rgb(0.392157%,12.941177%,41.176471%);fill-opacity:1;" d="M 0 0 L 500 0 L 500 333.5 L 0 333.5 Z M 0 0 "/>
<path style=" stroke:none;fill-rule:nonzero;fill:rgb(100%,100%,100%);fill-opacity:1;" d="M 0 0 L 0 37.285156 L 444.101562 333.5 L 500 333.5 L 500 296.214844 L 55.898438 0 Z M 500 0 L 500 37.285156 L 55.898438 333.5 L 0 333.5 L 0 296.214844 L 444.101562 0 Z M 500 0 "/>
<path style=" stroke:none;fill-rule:nonzero;fill:rgb(100%,100%,100%);fill-opacity:1;" d="M 208.332031 0 L 208.332031 333.5 L 291.667969 333.5 L 291.667969 0 Z M 0 111.167969 L 0 222.332031 L 500 222.332031 L 500 111.167969 Z M 0 111.167969 "/>
<path style=" stroke:none;fill-rule:nonzero;fill:rgb(78.431374%,6.27451%,18.039216%);fill-opacity:1;" d="M 0 133.398438 L 0 200.101562 L 500 200.101562 L 500 133.398438 Z M 225 0 L 225 333.5 L 275 333.5 L 275 0 Z M 0 333.5 L 166.667969 222.332031 L 203.933594 222.332031 L 37.265625 333.5 Z M 0 0 L 166.667969 111.167969 L 129.398438 111.167969 L 0 24.855469 Z M 296.066406 111.167969 L 462.734375 0 L 500 0 L 333.332031 111.167969 Z M 500 333.5 L 333.332031 222.332031 L 370.601562 222.332031 L 500 308.644531 Z M 500 333.5 "/>
<path style=" stroke:none;fill-rule:nonzero;fill:rgb(100%,100%,100%);fill-opacity:1;" d="M 865.359375 142.289062 L 865.359375 424.746094 C 865.359375 500.195312 752.300781 524.707031 752.300781 524.707031 C 752.300781 524.707031 639.238281 500.195312 639.238281 424.746094 L 639.238281 142.289062 Z M 865.359375 142.289062 "/>
<path style=" stroke:none;fill-rule:nonzero;fill:rgb(18.431373%,56.078434%,13.333334%);fill-opacity:1;" d="M 865.359375 424.746094 C 865.359375 500.195312 752.300781 524.707031 752.300781 524.707031 C 752.300781 524.707031 639.238281 500.195312 639.238281 424.746094 C 639.238281 424.746094 639.238281 418.671875 641.539062 415.214844 C 641.539062 415.214844 640.292969 427.765625 647.519531 437.253906 C 647.519531 437.253906 641.851562 423.867188 647.394531 410.707031 C 647.394531 410.707031 645.339844 427.636719 653.25 437.359375 C 653.25 437.359375 648.890625 423.53125 653.8125 408.109375 C 653.8125 408.109375 651.382812 433.335938 659.980469 438.367188 C 659.980469 438.367188 662.347656 423.867188 658.921875 414.5625 C 658.921875 414.5625 664.839844 417.746094 664.527344 438.785156 C 664.527344 438.785156 666.394531 435.683594 666.894531 420.511719 C 666.894531 420.511719 667.144531 437.863281 671.628906 441.886719 C 671.628906 441.886719 673 440.125 671.132812 432.246094 C 669.261719 424.367188 671.941406 421.601562 672.378906 421.769531 C 672.378906 421.769531 671.394531 430.484375 676.871094 437.023438 C 676.871094 437.023438 674.496094 423.363281 677.796875 421.519531 C 677.796875 421.519531 677.113281 433.085938 683.964844 435.683594 C 683.964844 435.683594 684.464844 432.332031 682.96875 428.558594 C 682.96875 428.558594 681.660156 424.085938 682.65625 420.664062 C 682.65625 420.664062 684.839844 431.15625 687.828125 432.917969 C 687.828125 432.917969 686.019531 426.769531 687.703125 420.664062 C 687.703125 420.664062 688.078125 429.398438 693.933594 433 C 693.933594 433 690.074219 426.242188 691.597656 418.808594 L 729.257812 421.265625 L 748.757812 422.507812 L 807.261719 416.992188 L 817.355469 405.425781 C 817.355469 405.425781 821.339844 412.800781 815.050781 424.453125 C 815.050781 424.453125 821.277344 422.945312 823.273438 409.953125 C 823.273438 409.953125 825.828125 417.160156 822.339844 425.125 C 822.339844 425.125 829.253906 415.902344 830.25 405.425781 C 830.25 405.425781 832.929688 415.566406 826.386719 426.464844 C 826.386719 426.464844 832.242188 423.863281 834.734375 412.300781 C 834.734375 412.300781 836.730469 419.265625 831.058594 429.109375 C 831.058594 429.109375 841.652344 421.601562 841.339844 406.097656 C 841.339844 406.097656 845.761719 414.644531 840.71875 426.378906 C 840.71875 426.378906 846.136719 419.925781 846.636719 410.289062 C 846.636719 410.289062 849.628906 414.644531 846.386719 426.628906 C 846.386719 426.628906 852.992188 418.332031 853.988281 409.363281 C 853.988281 409.363281 855.421875 417.660156 849.75 428.136719 C 849.75 428.136719 853.613281 426.882812 857.289062 416.65625 C 857.289062 416.65625 858.285156 420.679688 854.921875 428.054688 C 854.921875 428.054688 858.535156 427.21875 860.964844 418 C 860.964844 418 861.402344 423.53125 860.34375 428.476562 C 860.34375 428.476562 863.148438 426.042969 863.769531 415.566406 C 863.769531 415.566406 865.335938 419.003906 865.363281 423.277344 C 865.386719 427.554688 865.359375 424.746094 865.359375 424.746094 Z M 865.359375 424.746094 "/>
<path style="fill-rule:nonzero;fill:rgb(78.431374%,6.27451%,18.039216%);fill-opacity:1;stroke-width:0.831;stroke-linecap:butt;stroke-linejoin:round;stroke:rgb(0%,0%,0%);stroke-opacity:1;stroke-miterlimit:4;" d="M 807.140625 195.997704 C 807.140625 195.997704 803.210938 196.668267 798.164062 195.128022 C 793.117188 193.590705 791.078125 194.217344 789.511719 195.128022 C 789.511719 195.128022 791.558594 191.075361 786.574219 187.871884 C 786.574219 187.871884 788.195312 191.965541 785.953125 193.877671 C 785.953125 193.877671 784.957031 194.814702 783.773438 193.403298 C 783.773438 193.403298 782.027344 191.611226 780.191406 190.229104 C 780.191406 190.229104 784.425781 188.75328 783.648438 184.448791 C 782.867188 180.147231 780.5625 179.582084 779.316406 179.046219 C 779.316406 179.046219 779.753906 180.996416 779.316406 182.314116 C 779.316406 182.314116 774.707031 179.73728 780.96875 176.09457 C 787.230469 172.448932 786.078125 170.314257 784.957031 168.460692 C 783.835938 166.607126 781.4375 164.566154 780.253906 163.842883 C 780.253906 163.842883 781.496094 165.790152 781.28125 167.456311 C 781.0625 169.119542 778.226562 170.188343 778.789062 167.265976 C 779.347656 164.343609 778.757812 164.847264 778.695312 161.737491 C 778.695312 161.737491 784.269531 163.623266 786.449219 158.188484 C 786.449219 158.188484 788.601562 152.566295 781.558594 149.769842 C 781.558594 149.769842 783.273438 152.062641 782.433594 153.790292 C 782.433594 153.790292 780.9375 156.616028 779.160156 154.323229 C 777.386719 152.03043 776.265625 151.591197 776.449219 148.888446 C 776.449219 148.888446 782.835938 149.769842 781.09375 142.827024 C 781.09375 142.827024 780.066406 147.444832 771.777344 141.225286 C 771.777344 141.225286 777.167969 135.693872 775.082031 131.234188 C 775.082031 131.234188 774.425781 129.193216 768.570312 130.385003 C 768.570312 130.385003 773.648438 127.181526 771.496094 124.449494 C 771.496094 124.449494 770.40625 122.628139 765.671875 125.014641 C 765.671875 125.014641 767.511719 121.840447 762.867188 118.417354 C 762.867188 118.417354 759.753906 120.051302 758.101562 121.559338 C 758.101562 121.559338 754.925781 117.535959 752.902344 115.93422 C 752.902344 115.93422 749.226562 117.348552 748.289062 121.559338 C 748.289062 121.559338 746.578125 119.515438 742.683594 118.57255 C 742.683594 118.57255 740.816406 122.030781 743.246094 125.043923 C 743.246094 125.043923 741.4375 124.982431 738.136719 123.535888 C 738.136719 123.535888 734.367188 121.746744 734.925781 124.982431 C 735.488281 128.218118 735.769531 128.941389 736.515625 130.449424 C 736.515625 130.449424 728.058594 128.484586 728.417969 133.055543 C 728.664062 136.226808 729.851562 138.961769 732.46875 141.254568 C 732.46875 141.254568 727.730469 147.441904 723.683594 142.791885 C 723.683594 142.791885 722.28125 144.29992 725.300781 148.258878 C 725.300781 148.258878 728.324219 151.588268 725.832031 153.693661 C 725.832031 153.693661 722.5 156.364201 720.878906 151.181245 C 720.878906 151.181245 715.488281 156.551607 721.84375 160.668689 C 721.84375 160.668689 725.925781 162.993698 730.101562 159.409553 C 730.101562 159.409553 728.824219 169.713971 724.835938 167.73742 C 724.835938 167.73742 722.4375 165.977558 726.734375 163.872165 C 726.734375 163.872165 720.535156 163.087402 719.539062 169.087331 C 719.539062 169.087331 718.773438 173.860335 724.179688 175.590915 C 724.179688 175.590915 728.355469 177.098951 724.023438 180.334637 C 724.023438 180.334637 720.972656 182.659647 722.964844 186.11495 C 722.964844 186.11495 725.363281 189.915784 719.289062 190.290597 C 719.289062 190.290597 715.988281 190.261315 714.804688 189.822081 C 714.804688 189.822081 713.472656 192.299358 714.402344 195.128022 C 714.402344 195.128022 711.378906 192.87329 704.492188 195.368136 C 697.609375 197.862983 698.136719 196.10312 697.574219 196.858602 C 697.015625 197.611155 695.675781 200.155781 695.675781 200.155781 C 695.675781 200.155781 699.289062 204.553973 699.351562 204.46027 C 699.414062 204.366567 698.667969 209.485101 698.667969 209.485101 L 700.441406 210.334286 L 714.617188 204.021036 L 729.007812 196.518928 L 740.578125 197.227558 L 747.917969 198.975707 L 757.558594 199.678481 L 764.460938 195.994776 L 774.460938 195.994776 L 785.457031 201.47641 L 798.007812 208.963877 L 804.550781 210.111741 L 809.589844 209.842344 L 809.589844 199.675553 Z M 807.140625 195.997704 " transform="matrix(1,0,0,1.334,0,0)"/>
<path style="fill-rule:nonzero;fill:rgb(78.431374%,6.27451%,18.039216%);fill-opacity:1;stroke-width:0.831;stroke-linecap:butt;stroke-linejoin:round;stroke:rgb(0%,0%,0%);stroke-opacity:1;stroke-miterlimit:4;" d="M 692.972656 207.886291 C 692.972656 207.886291 698.457031 210.682745 700.746094 207.288934 C 700.746094 207.288934 703.738281 201.587683 697.171875 199.608204 C 697.171875 199.608204 700.746094 195.321285 696.914062 191.362327 C 696.914062 191.362327 694.90625 189.242293 691.398438 190.79718 C 691.398438 190.79718 689.949219 187.781109 686.539062 187.874813 C 686.539062 187.874813 683.550781 187.827961 682.523438 191.125141 C 682.523438 191.125141 678.410156 189.429699 676.121094 191.880622 C 676.121094 191.880622 672.335938 196.12069 677.613281 199.467649 L 681.414062 199.813179 L 685.152344 198.085528 L 689.328125 199.280243 C 689.328125 199.277314 688.253906 203.502741 692.972656 207.886291 Z M 692.972656 207.886291 " transform="matrix(1,0,0,1.334,0,0)"/>
<path style="fill-rule:nonzero;fill:rgb(39.215687%,70.588237%,81.960785%);fill-opacity:1;stroke-width:0.623;stroke-linecap:butt;stroke-linejoin:miter;stroke:rgb(0%,0%,0%);stroke-opacity:1;stroke-miterlimit:4;" d="M 815.359375 197.860054 C 821.964844 197.236343 824.296875 202.81168 824.296875 202.81168 C 827.757812 210.931644 820.40625 215.268342 820.40625 215.268342 C 820.96875 217.089697 821.027344 219.479128 821.027344 219.479128 C 831.371094 220.735335 829.5625 232.357454 829.5625 232.357454 L 826.136719 229.531719 C 820.15625 227.206709 813.988281 232.295961 809.566406 240.840517 C 805.144531 249.385073 807.261719 253.405524 808.007812 263.519607 C 808.757812 273.636619 825.203125 279.668759 825.203125 279.668759 C 825.203125 279.668759 817.414062 299.70952 812.367188 312.590775 C 807.324219 325.469101 796.792969 320.128022 793.742188 317.416487 C 790.6875 314.702024 789.925781 316.210059 788.382812 317.416487 C 786.839844 318.622915 795.300781 325.217274 779.910156 331.436821 C 764.519531 337.659295 761.84375 342.432299 759.289062 344.004755 C 756.734375 345.574283 746.078125 344.50841 745.019531 343.187781 C 743.960938 341.867152 744.585938 341.867152 740.597656 339.416229 C 736.609375 336.968235 729.882812 334.830632 722.53125 331.249414 C 715.179688 327.668197 715.363281 323.079671 715.429688 322.139711 C 715.488281 321.196823 717.980469 313.530735 709.371094 319.627296 C 700.761719 325.720929 693.433594 316.725426 693.433594 316.725426 C 691.753906 314.511689 684.589844 295.311329 684.589844 295.311329 C 682.65625 288.148894 678.855469 279.791745 678.855469 279.791745 C 679.042969 279.730252 678.480469 280.67314 684.835938 277.03043 C 691.191406 273.384792 694.039062 267.32337 696.238281 261.32344 C 698.4375 255.320582 696.300781 245.051302 695.488281 242.975192 C 694.679688 240.90201 689.945312 231.396997 684.082031 229.405805 C 678.21875 227.411685 674.285156 232.357454 674.285156 232.357454 C 674.285156 232.357454 672.476562 220.735335 682.820312 219.479128 C 682.820312 219.479128 682.882812 217.089697 683.445312 215.268342 C 683.445312 215.268342 676.09375 210.934572 679.554688 202.81168 C 679.554688 202.81168 681.886719 197.236343 688.492188 197.860054 L 686.894531 200.881981 C 686.894531 200.881981 685.230469 217.467438 709.507812 206.346046 C 733.789062 195.224653 733.058594 193.154399 746.890625 200.126499 L 756.984375 199.939093 C 756.984375 199.939093 771.5625 193.195394 776.234375 196.097264 C 780.90625 198.996205 797.726562 208.422156 797.726562 208.422156 C 797.726562 208.422156 813.988281 214.518717 817.164062 203.271411 Z M 815.359375 197.860054 " transform="matrix(1,0,0,1.334,0,0)"/>
<path style="fill-rule:nonzero;fill:rgb(100%,100%,100%);fill-opacity:1;stroke-width:0.831;stroke-linecap:butt;stroke-linejoin:miter;stroke:rgb(0.392157%,12.941177%,41.176471%);stroke-opacity:1;stroke-miterlimit:10;" d="M 742.308594 269.771364 C 742.308594 269.771364 741.464844 264.682112 740.578125 261.384933 C 740.578125 261.384933 738.777344 256.210762 741.851562 252.576837 L 745.664062 248.190358 C 745.664062 248.190358 748.03125 245.004451 750.964844 244.571074 C 750.964844 244.571074 753.898438 244.483227 754.179688 243.88587 C 754.457031 243.29144 757.667969 238.008925 765.300781 243.88587 C 765.300781 243.88587 767.730469 239.991332 771.46875 239.332482 C 771.46875 239.332482 775.503906 238.105557 777.457031 241.121627 C 777.457031 241.121627 781.996094 237.680964 785.890625 243.221163 C 785.890625 243.221163 791.277344 240.190452 795.203125 246.216735 C 795.203125 246.216735 800.53125 243.619401 803.800781 249.156672 C 807.074219 254.693942 806.417969 256.957459 806.417969 256.957459 L 808.847656 265.750914 L 817.445312 276.368652 L 797.449219 283.908827 L 788.476562 283.908827 L 770.535156 288.714041 L 738.667969 291.164964 L 729.789062 280.70535 Z M 742.308594 269.771364 " transform="matrix(1,0,0,1.334,0,0)"/>
<path style="fill-rule:nonzero;fill:rgb(78.431374%,6.27451%,18.039216%);fill-opacity:1;stroke-width:0.831;stroke-linecap:butt;stroke-linejoin:round;stroke:rgb(0%,0%,0%);stroke-opacity:1;stroke-miterlimit:4;" d="M 715.375 322.737069 C 715.375 322.737069 710.609375 323.018178 708.179688 324.245104 C 705.746094 325.469101 703.878906 326.78973 701.074219 328.578875 C 701.074219 328.578875 699.769531 330.321168 694.253906 329.261151 C 694.253906 329.261151 684.722656 326.977136 684.722656 334.42068 C 684.722656 334.42068 673.320312 335.363568 677.992188 345.354666 C 677.992188 345.354666 681.171875 353.175951 687.710938 347.615255 C 687.710938 347.615255 683.507812 353.647395 691.636719 356.004615 C 691.636719 356.004615 697.429688 357.418947 699.113281 351.48051 C 699.113281 351.48051 700.046875 349.12329 697.804688 346.200923 C 697.804688 346.200923 700.609375 345.635776 702.570312 342.619706 C 702.570312 342.619706 696.589844 350.180379 703.132812 352.903626 C 703.132812 352.903626 711.351562 354.965096 711.820312 346.391257 C 711.820312 346.391257 711.152344 342.432299 714.335938 341.017968 C 714.335938 341.017968 720.886719 339.509933 723.878906 332.206943 C 723.878906 332.206943 714.460938 327.190897 715.375 322.737069 Z M 696.128906 247.566646 C 696.128906 247.566646 688.773438 244.18162 685.285156 247.566646 C 685.285156 247.566646 680.425781 244.559361 675.316406 247.566646 C 675.316406 247.566646 670.457031 250.743769 667.09375 254.242996 C 667.09375 254.242996 664.726562 256.269326 665.597656 262.65871 C 665.597656 262.65871 666.84375 267.165246 666.097656 269.425834 C 666.097656 269.425834 664.476562 269.103729 661.238281 272.94263 C 661.238281 272.94263 657.125 277.70685 653.511719 273.501921 C 653.511719 273.501921 654.632812 279.352511 661.425781 278.409623 C 661.425781 278.409623 658.121094 280.98646 660.988281 287.64524 C 660.988281 287.64524 663.105469 292.356751 659.742188 298.262978 C 659.742188 298.262978 665.660156 295.876476 665.410156 288.904376 C 665.410156 288.904376 664.914062 284.189936 666.65625 280.860546 C 666.65625 280.860546 664.914062 283.888329 668.960938 290.34799 C 668.960938 290.34799 672.078125 294.998009 669.523438 299.835434 C 669.523438 299.835434 675.378906 297.697831 674.820312 290.599817 C 674.257812 283.498876 670.707031 286.453453 673.011719 279.917658 C 673.011719 279.917658 673.574219 283.264618 675.316406 284.954203 C 677.0625 286.640859 679.304688 289.466595 678.371094 294.181034 C 678.371094 294.181034 681.859375 289.844336 681.050781 285.384651 C 680.238281 280.922039 679.367188 279.575056 679.367188 279.575056 L 690.394531 273.320371 L 695.878906 263.393694 Z M 696.128906 247.566646 " transform="matrix(1,0,0,1.334,0,0)"/>
<path style="fill:none;stroke-width:0.831;stroke-linecap:butt;stroke-linejoin:miter;stroke:rgb(0%,0%,0%);stroke-opacity:1;stroke-miterlimit:10;" d="M 679.367188 275.583888 C 679.367188 275.583888 674.820312 275.26764 674.070312 271.750843 M 666.097656 269.425834 C 666.097656 269.425834 667.683594 269.364341 669.113281 270.807955 C 669.113281 270.807955 670.210938 272.441904 671.765625 272.25157 " transform="matrix(1,0,0,1.334,0,0)"/>
<path style=" stroke:none;fill-rule:nonzero;fill:rgb(0%,0%,0%);fill-opacity:1;" d="M 686.097656 349.777344 C 686.097656 349.777344 683.730469 349.777344 682.421875 348.265625 C 682.421875 348.265625 681.050781 347.011719 680.238281 349.019531 C 680.238281 349.019531 678.992188 351.871094 681.296875 353.128906 C 681.296875 353.128906 684.164062 355.054688 679.617188 358.910156 C 679.617188 358.910156 685.035156 356.3125 682.855469 352.792969 C 682.855469 352.792969 680.488281 350.53125 681.359375 349.691406 C 681.359375 349.691406 681.609375 349.019531 682.546875 349.859375 C 683.480469 350.699219 685.347656 350.363281 686.097656 349.777344 Z M 686.097656 349.777344 "/>
<path style="fill-rule:nonzero;fill:rgb(47.058824%,26.666668%,12.941177%);fill-opacity:1;stroke-width:0.623;stroke-linecap:butt;stroke-linejoin:miter;stroke:rgb(0%,0%,0%);stroke-opacity:1;stroke-miterlimit:4;" d="M 760.40625 274.204695 L 742.191406 211.291815 L 741.523438 211.470437 L 757.621094 275.144654 Z M 760.40625 274.204695 " transform="matrix(1,0,0,1.334,0,0)"/>
<path style=" stroke:none;fill-rule:nonzero;fill:rgb(0%,0%,0%);fill-opacity:1;" d="M 696.964844 459.941406 C 696.964844 459.941406 692.664062 456.722656 689.113281 460.492188 C 689.113281 460.492188 689.476562 458.398438 692.191406 457.476562 C 692.191406 457.476562 693.664062 451.941406 697.773438 452.445312 C 697.773438 452.445312 696.09375 455.128906 693.847656 457.390625 C 693.847656 457.390625 696.21875 457.71875 696.964844 459.941406 Z M 696.964844 459.941406 "/>
<path style="fill-rule:nonzero;fill:rgb(39.215687%,70.588237%,81.960785%);fill-opacity:1;stroke-width:0.623;stroke-linecap:butt;stroke-linejoin:miter;stroke:rgb(0.392157%,12.941177%,41.176471%);stroke-opacity:1;stroke-miterlimit:2.613;" d="M 681.824219 354.777689 C 681.824219 354.777689 675.003906 350.49077 678.695312 343.278556 C 678.695312 343.278556 679.769531 341.208302 681.824219 341.629966 C 681.824219 341.629966 686.078125 342.950595 682.761719 348.84218 C 682.757812 348.84218 681.078125 352.657656 681.824219 354.777689 Z M 695.65625 361.565311 C 695.65625 361.565311 685.9375 357.134909 688.925781 349.594734 C 688.925781 349.594734 689.851562 347.050108 692.007812 347.240442 C 692.007812 347.240442 695.753906 347.427849 695.003906 352.423398 C 695.003906 352.423398 693.878906 357.322315 695.65625 361.565311 Z M 695.65625 361.565311 " transform="matrix(1,0,0,1.334,0,0)"/>
<path style=" stroke:none;fill-rule:nonzero;fill:rgb(0%,0%,0%);fill-opacity:1;" d="M 693.601562 444.792969 C 693.601562 444.792969 690.679688 447.667969 689.492188 449.597656 C 689.492188 449.597656 688.304688 447.628906 686.746094 446.433594 C 686.746094 446.433594 688.539062 446.117188 689.492188 447.195312 C 689.492188 447.195312 690.984375 445.265625 693.601562 444.792969 Z M 693.601562 444.792969 "/>
<path style="fill-rule:nonzero;fill:rgb(39.215687%,70.588237%,81.960785%);fill-opacity:1;stroke-width:0.623;stroke-linecap:butt;stroke-linejoin:miter;stroke:rgb(0.392157%,12.941177%,41.176471%);stroke-opacity:1;stroke-miterlimit:2.613;" d="M 702.242188 359.679535 C 702.242188 359.679535 709.859375 357.746908 708.460938 349.878772 C 708.460938 349.878772 707.710938 346.438109 704.488281 346.909553 C 704.488281 346.909553 700.601562 347.902221 703.132812 352.903626 C 703.132812 352.903626 704.628906 356.476059 702.242188 359.679535 Z M 702.242188 359.679535 " transform="matrix(1,0,0,1.334,0,0)"/>
<path style="fill-rule:nonzero;fill:rgb(96.078432%,80.784315%,0%);fill-opacity:1;stroke-width:0.831;stroke-linecap:butt;stroke-linejoin:miter;stroke:rgb(0%,0%,0%);stroke-opacity:1;stroke-miterlimit:2.613;" d="M 736.65625 193.201251 C 736.65625 193.201251 741.5625 194.706358 744.226562 195.7898 C 744.226562 195.7898 751.328125 198.996205 760.347656 195.7898 C 760.347656 195.7898 766.445312 193.376944 767.257812 193.201251 L 762.589844 200.313906 L 762.355469 203.988826 L 765.277344 208.278673 C 765.277344 208.278673 763.523438 208.984375 758.289062 205.780899 C 758.289062 205.780899 752.496094 201.303645 745.578125 205.780899 C 745.578125 205.780899 741.796875 208.343094 738.617188 208.278673 L 743.105469 203.268483 L 741.375 198.759019 Z M 736.65625 193.201251 " transform="matrix(1,0,0,1.334,0,0)"/>
<path style=" stroke:none;fill-rule:nonzero;fill:rgb(100%,100%,100%);fill-opacity:1;" d="M 705.1875 467.269531 C 705.1875 467.269531 705.46875 466.769531 705.140625 466.546875 C 705.140625 466.546875 704.8125 466.359375 704.578125 466.972656 C 704.578125 466.972656 703.785156 468.652344 704.457031 470.957031 C 704.457031 470.957031 705.09375 472.550781 704.785156 474.21875 C 704.785156 474.21875 704.742188 474.6875 705.023438 474.75 C 705.023438 474.75 705.292969 474.625 705.34375 474.28125 C 705.34375 474.28125 705.726562 472.65625 705.070312 471.0625 C 705.070312 471.0625 704.277344 468.589844 705.1875 467.269531 Z M 705.1875 467.269531 "/>
<path style="fill-rule:nonzero;fill:rgb(78.431374%,6.27451%,18.039216%);fill-opacity:1;stroke-width:0.831;stroke-linecap:butt;stroke-linejoin:round;stroke:rgb(0%,0%,0%);stroke-opacity:1;stroke-miterlimit:4;" d="M 810.6875 207.886291 C 810.6875 207.886291 805.203125 210.682745 802.914062 207.288934 C 802.914062 207.288934 799.925781 201.587683 806.488281 199.608204 C 806.488281 199.608204 802.914062 195.321285 806.746094 191.362327 C 806.746094 191.362327 808.757812 189.242293 812.261719 190.79718 C 812.261719 190.79718 813.710938 187.781109 817.121094 187.874813 C 817.121094 187.874813 820.109375 187.827961 821.140625 191.125141 C 821.140625 191.125141 825.25 189.429699 827.539062 191.880622 C 827.539062 191.880622 831.324219 196.12069 826.046875 199.467649 L 822.246094 199.813179 L 818.507812 198.085528 L 814.332031 199.280243 C 814.332031 199.277314 815.40625 203.502741 810.6875 207.886291 Z M 810.6875 207.886291 " transform="matrix(1,0,0,1.334,0,0)"/>
<path style="fill-rule:nonzero;fill:rgb(96.078432%,80.784315%,0%);fill-opacity:1;stroke-width:0.831;stroke-linecap:butt;stroke-linejoin:miter;stroke:rgb(0%,0%,0%);stroke-opacity:1;stroke-miterlimit:2.613;" d="M 767.261719 203.455889 C 767.261719 203.455889 767.125 204.589112 766.003906 204.715025 C 766.003906 204.715025 764.832031 205.089838 764.148438 203.634511 C 764.148438 203.634511 764.070312 203.303622 764.054688 203.142569 C 763.976562 202.463222 763.742188 200.50424 765.859375 198.902502 C 765.859375 198.902502 769.316406 196.073838 775.921875 199.499859 C 775.921875 199.499859 781.15625 202.012275 784.769531 204.14695 C 784.769531 204.14695 794.113281 209.17471 795.234375 209.55245 C 795.234375 209.55245 799.347656 211.622704 805.640625 211.87746 C 805.640625 211.87746 814.238281 212.5041 817.882812 206.471959 C 817.882812 206.471959 820.652344 201.886362 817.882812 198.963995 C 817.882812 198.963995 816.761719 197.646294 814.917969 197.889337 C 814.144531 197.991824 813.289062 198.346139 812.460938 199.312453 C 812.460938 199.312453 811.121094 201.259722 812.679688 202.703336 C 812.679688 202.703336 814.703125 203.944903 815.421875 201.321214 C 815.421875 201.321214 815.453125 201.133808 815.515625 201.368066 C 815.554688 201.520334 816.011719 203.52031 814.9375 205.215751 C 814.9375 205.215751 809.75 213.066318 795.484375 204.931714 L 776.667969 194.378397 C 776.667969 194.378397 767.230469 189.540972 761.59375 197.113357 C 761.59375 197.113357 757.042969 203.394397 762.898438 207.50855 C 762.898438 207.50855 767.261719 210.117597 770.003906 205.971233 C 770.003906 205.971233 772.277344 201.886362 768.695312 200.097217 C 768.695312 200.097217 765.546875 198.621392 764.300781 201.763376 C 763.054688 204.902432 766.730469 205.719406 767.074219 203.491028 C 767.074219 203.4881 767.167969 202.955163 767.261719 203.455889 Z M 767.261719 203.455889 " transform="matrix(1,0,0,1.334,0,0)"/>
<path style="fill-rule:nonzero;fill:rgb(89.411765%,79.607844%,36.862746%);fill-opacity:1;stroke-width:0.623;stroke-linecap:butt;stroke-linejoin:miter;stroke:rgb(0%,0%,0%);stroke-opacity:1;stroke-miterlimit:2.613;" d="M 692.679688 235.844968 L 692.679688 224.064725 C 692.679688 223.139407 692.6875 222.369284 694.089844 221.236062 C 695.488281 220.105767 696.984375 218.313695 699.132812 223.405875 C 699.132812 223.405875 703.339844 218.975473 704.742188 218.316623 C 704.742188 218.316623 707.171875 216.243441 708.851562 219.256583 C 708.851562 219.256583 711.097656 215.8657 712.871094 215.016515 C 712.871094 215.016515 717.074219 212.284483 717.261719 220.483508 L 720.535156 217.467438 C 720.535156 217.467438 723.058594 215.394256 725.859375 218.219992 C 725.859375 218.219992 730.628906 222.8378 731.28125 224.158429 C 731.28125 224.158429 732.332031 225.587402 732.414062 227.842134 C 732.414062 227.842134 732.402344 230.377975 733.710938 231.792307 C 733.710938 231.792307 735.203125 233.110007 736.652344 233.394045 C 736.652344 233.394045 740.0625 233.487748 741.277344 236.691225 C 741.277344 236.691225 741.839844 236.134862 743.523438 251.493394 L 743.523438 279.478425 L 724.644531 302.002319 L 694.363281 293.33185 L 682.308594 288.336301 L 679.601562 279.478425 L 691.28125 271.93825 L 697.636719 254.784717 L 695.582031 242.723365 Z M 692.679688 235.844968 " transform="matrix(1,0,0,1.334,0,0)"/>
<path style="fill-rule:nonzero;fill:rgb(47.058824%,26.666668%,12.941177%);fill-opacity:1;stroke-width:0.623;stroke-linecap:butt;stroke-linejoin:miter;stroke:rgb(0%,0%,0%);stroke-opacity:1;stroke-miterlimit:4;" d="M 776.109375 250.702774 L 777.542969 248.568099 L 780.96875 245.926841 C 780.96875 245.926841 786.203125 259.663137 786.453125 262.65871 L 786.453125 266.922203 C 786.453125 266.922203 794.300781 268.925108 795.671875 280.98646 L 789.195312 292.924827 L 779.039062 287.270427 L 776.109375 285.132824 Z M 776.109375 250.702774 " transform="matrix(1,0,0,1.334,0,0)"/>
<path style=" stroke:none;fill-rule:nonzero;fill:rgb(100%,100%,100%);fill-opacity:1;" d="M 679.933594 460.230469 C 679.933594 460.230469 680.304688 459.570312 680.050781 459.289062 C 680.050781 459.289062 679.886719 458.972656 679.441406 459.726562 C 679.441406 459.726562 677.378906 462.804688 679.019531 467.539062 C 679.019531 467.539062 679.207031 468.214844 679.535156 467.992188 C 679.535156 467.992188 679.816406 467.804688 679.558594 467.238281 C 679.558594 467.238281 678.085938 463.34375 679.933594 460.230469 Z M 679.933594 460.230469 "/>
<path style="fill:none;stroke-width:0.831;stroke-linecap:butt;stroke-linejoin:miter;stroke:rgb(0%,0%,0%);stroke-opacity:1;stroke-miterlimit:10;" d="M 710.546875 342.684127 C 710.546875 342.684127 710.855469 341.615325 710.109375 340.485031 C 710.109375 340.485031 709.613281 339.668057 709.796875 338.599255 " transform="matrix(1,0,0,1.334,0,0)"/>
<path style="fill:none;stroke-width:0.623;stroke-linecap:butt;stroke-linejoin:miter;stroke:rgb(0%,0%,0%);stroke-opacity:1;stroke-miterlimit:10;" d="M 717.265625 220.483508 C 717.265625 220.483508 717.292969 223.429301 718.132812 225.596186 C 718.976562 227.766 721.816406 231.514126 722.003906 233.540456 " transform="matrix(1,0,0,1.334,0,0)"/>
<path style="fill-rule:nonzero;fill:rgb(78.431374%,6.27451%,18.039216%);fill-opacity:1;stroke-width:0.831;stroke-linecap:butt;stroke-linejoin:round;stroke:rgb(0%,0%,0%);stroke-opacity:1;stroke-miterlimit:4;" d="M 788.476562 322.737069 C 788.476562 322.737069 793.242188 323.018178 795.671875 324.245104 C 798.101562 325.469101 799.972656 326.78973 802.773438 328.578875 C 802.773438 328.578875 804.082031 330.321168 809.597656 329.261151 C 809.597656 329.261151 819.128906 326.977136 819.128906 334.42068 C 819.128906 334.42068 830.527344 335.363568 825.855469 345.354666 C 825.855469 345.354666 822.679688 353.175951 816.136719 347.615255 C 816.136719 347.615255 820.34375 353.647395 812.214844 356.004615 C 812.214844 356.004615 806.417969 357.418947 804.738281 351.48051 C 804.738281 351.48051 803.800781 349.12329 806.046875 346.200923 C 806.046875 346.200923 803.242188 345.635776 801.277344 342.619706 C 801.277344 342.619706 807.261719 350.180379 800.71875 352.903626 C 800.71875 352.903626 792.496094 354.965096 792.027344 346.391257 C 792.027344 346.391257 792.699219 342.432299 789.511719 341.017968 C 789.511719 341.017968 782.960938 339.509933 779.972656 332.206943 C 779.972656 332.206943 789.390625 327.190897 788.476562 322.737069 Z M 788.476562 322.737069 " transform="matrix(1,0,0,1.334,0,0)"/>
<path style="fill:none;stroke-width:0.623;stroke-linecap:butt;stroke-linejoin:miter;stroke:rgb(0%,0%,0%);stroke-opacity:1;stroke-miterlimit:10;" d="M 713.503906 233.5346 L 721.28125 296.315709 M 715.300781 233.399902 L 724.023438 291.920446 M 716.9375 233.127577 L 726.984375 291.164964 " transform="matrix(1,0,0,1.334,0,0)"/>
<path style="fill-rule:nonzero;fill:rgb(47.058824%,26.666668%,12.941177%);fill-opacity:1;stroke-width:0.623;stroke-linecap:butt;stroke-linejoin:miter;stroke:rgb(0%,0%,0%);stroke-opacity:1;stroke-miterlimit:4;" d="M 735.613281 285.226527 L 717.394531 222.313648 L 716.726562 222.492269 L 732.824219 286.169415 Z M 735.613281 285.226527 " transform="matrix(1,0,0,1.334,0,0)"/>
<path style="fill:none;stroke-width:0.623;stroke-linecap:butt;stroke-linejoin:miter;stroke:rgb(0%,0%,0%);stroke-opacity:1;stroke-miterlimit:10;" d="M 722.511719 230.823065 L 740.910156 277.31154 M 721.28125 231.575618 L 739.039062 280.137275 " transform="matrix(1,0,0,1.334,0,0)"/>
<path style=" stroke:none;fill-rule:nonzero;fill:rgb(100%,100%,100%);fill-opacity:1;" d="M 692.136719 476.375 C 692.136719 476.375 690 473.644531 690.296875 468.75 C 690.296875 468.75 690.421875 467.703125 690.03125 467.554688 C 690.03125 467.554688 689.613281 467.324219 689.550781 468.539062 C 689.550781 468.539062 688.960938 473.652344 691.546875 476.585938 C 691.546875 476.585938 691.722656 476.878906 692.007812 476.792969 C 692.007812 476.792969 692.3125 476.703125 692.136719 476.375 Z M 692.136719 476.375 "/>
<path style="fill:none;stroke-width:0.623;stroke-linecap:butt;stroke-linejoin:miter;stroke:rgb(0%,0%,0%);stroke-opacity:1;stroke-miterlimit:10;" d="M 723.339844 230.190569 L 742.308594 272.600028 M 718.152344 232.82597 L 729.789062 289.938039 " transform="matrix(1,0,0,1.334,0,0)"/>
<path style="fill-rule:nonzero;fill:rgb(96.078432%,80.784315%,0%);fill-opacity:1;stroke-width:0.831;stroke-linecap:butt;stroke-linejoin:miter;stroke:rgb(0%,0%,0%);stroke-opacity:1;stroke-miterlimit:2.613;" d="M 813.328125 275.144654 C 805.015625 270.430215 803.195312 259.970601 803.195312 259.970601 C 801.1875 249.55491 805.25 241.309033 805.25 241.309033 C 810.625 229.953383 819.832031 227.842134 819.832031 227.842134 C 819.832031 227.842134 810.8125 234.099747 808.289062 242.535959 C 808.289062 242.535959 806.324219 249.648613 807.449219 256.670493 C 808.570312 263.692373 808.148438 261.9003 809.878906 267.320441 Z M 813.328125 275.144654 " transform="matrix(1,0,0,1.334,0,0)"/>
<path style="fill-rule:nonzero;fill:rgb(47.058824%,26.666668%,12.941177%);fill-opacity:1;stroke-width:0.38;stroke-linecap:butt;stroke-linejoin:miter;stroke:rgb(0%,0%,0%);stroke-opacity:1;stroke-miterlimit:4;" d="M 777.542969 248.568099 L 742.625 259.59286 L 740.722656 275.144654 C 732.433594 287.15037 715.597656 289.279189 715.597656 289.279189 L 728.695312 303.226317 L 753.867188 308.505903 L 767.074219 298.327399 L 779.035156 287.270427 C 777.789062 281.364201 778.476562 272.600028 778.476562 272.600028 C 778.476562 271.124204 779.035156 267.665972 779.035156 267.665972 C 779.035156 267.665972 776.980469 253.467016 777.542969 248.568099 Z M 777.542969 248.568099 " transform="matrix(1,0,0,1.334,0,0)"/>
<path style="fill:none;stroke-width:0.623;stroke-linecap:butt;stroke-linejoin:miter;stroke:rgb(0%,0%,0%);stroke-opacity:1;stroke-miterlimit:10;" d="M 741.199219 271.238404 C 741.199219 271.238404 764.195312 264.0584 777.910156 258.2898 M 730.160156 284.34806 C 730.160156 284.34806 758.851562 279.165105 779.035156 267.665972 L 786.449219 262.65871 " transform="matrix(1,0,0,1.334,0,0)"/>
<path style="fill:none;stroke-width:0.623;stroke-linecap:butt;stroke-linejoin:miter;stroke:rgb(0%,0%,0%);stroke-opacity:1;stroke-miterlimit:10;" d="M 786.449219 266.922203 L 778.476562 272.600028 C 778.476562 272.600028 746.390625 287.396341 721.960938 287.788723 M 778.46875 283.11235 C 778.46875 283.11235 753.804688 295.814983 739.660156 296.002389 " transform="matrix(1,0,0,1.334,0,0)"/>
<path style="fill-rule:nonzero;fill:rgb(78.431374%,6.27451%,18.039216%);fill-opacity:1;stroke-width:0.831;stroke-linecap:butt;stroke-linejoin:round;stroke:rgb(0%,0%,0%);stroke-opacity:1;stroke-miterlimit:4;" d="M 807.882812 247.566646 C 807.882812 247.566646 815.234375 244.18162 818.722656 247.566646 C 818.722656 247.566646 823.585938 244.559361 828.691406 247.566646 C 828.691406 247.566646 833.550781 250.743769 836.914062 254.242996 C 836.914062 254.242996 839.28125 256.269326 838.410156 262.65871 C 838.410156 262.65871 837.164062 267.165246 837.914062 269.425834 C 837.914062 269.425834 839.53125 269.103729 842.773438 272.94263 C 842.773438 272.94263 846.886719 277.70685 850.496094 273.501921 C 850.496094 273.501921 849.378906 279.352511 842.585938 278.409623 C 842.585938 278.409623 845.886719 280.98646 843.023438 287.64524 C 843.023438 287.64524 840.902344 292.356751 844.269531 298.262978 C 844.269531 298.262978 838.347656 295.876476 838.597656 288.904376 C 838.597656 288.904376 839.097656 284.189936 837.351562 280.860546 C 837.351562 280.860546 839.097656 283.888329 835.046875 290.34799 C 835.046875 290.34799 831.933594 294.998009 834.488281 299.835434 C 834.488281 299.835434 828.632812 297.697831 829.191406 290.599817 C 829.753906 283.498876 833.304688 286.453453 830.996094 279.917658 C 830.996094 279.917658 830.4375 283.264618 828.691406 284.954203 C 826.949219 286.640859 824.707031 289.466595 825.640625 294.181034 C 825.640625 294.181034 822.152344 289.844336 822.960938 285.384651 C 823.769531 280.922039 824.644531 279.575056 824.644531 279.575056 L 813.617188 273.320371 L 808.132812 263.393694 Z M 807.882812 247.566646 " transform="matrix(1,0,0,1.334,0,0)"/>
<path style="fill-rule:nonzero;fill:rgb(100%,100%,100%);fill-opacity:1;stroke-width:0.831;stroke-linecap:butt;stroke-linejoin:miter;stroke:rgb(0.392157%,12.941177%,41.176471%);stroke-opacity:1;stroke-miterlimit:10;" d="M 682.96875 287.29971 C 682.96875 287.29971 683.996094 282.430074 688.667969 284.34806 C 688.667969 284.34806 690.257812 276.368652 698.761719 276.084614 C 707.265625 275.803504 707.734375 284.380271 707.734375 284.945418 C 707.734375 284.945418 710.230469 281.261713 714.402344 281.689234 C 714.402344 281.689234 721.59375 281.264641 718.914062 292.810626 L 720.273438 294.260097 C 720.273438 294.260097 725.769531 281.364201 737.078125 284.755083 C 737.078125 284.755083 748.105469 288.116684 740.910156 298.798843 C 740.910156 298.798843 746.351562 305.864646 750.964844 305.205796 C 755.582031 304.546945 759.691406 303.132613 764.273438 295.027291 C 768.851562 286.921969 779.503906 285.697971 782.214844 286.169415 C 784.925781 286.640859 787.066406 288.400722 787.507812 290.31578 C 787.507812 290.31578 793.148438 271.490231 813.429688 274.447737 L 821.558594 278.535537 L 824.640625 279.949869 L 820.046875 292.924827 L 808.847656 318.239318 L 800.34375 320.851293 L 791.464844 315.762041 L 788.382812 317.416487 L 788.128906 324.997657 L 776.421875 333.428013 L 768.289062 336.7779 L 759.320312 342.903743 L 757.230469 348.379521 C 757.230469 348.379521 752.277344 346.291698 746.683594 348.379521 L 744.835938 343.846631 L 739.601562 338.851082 L 719.269531 329.261151 L 715.597656 317.416487 L 711.886719 315.762041 L 707.734375 320.520404 L 701.660156 321.229034 L 692.59375 315.103191 Z M 682.96875 287.29971 " transform="matrix(1,0,0,1.334,0,0)"/>
<path style="fill:none;stroke-width:0.831;stroke-linecap:butt;stroke-linejoin:miter;stroke:rgb(0%,0%,0%);stroke-opacity:1;stroke-miterlimit:2.613;" d="M 771.5 195.13095 C 771.5 195.13095 763.738281 194.788348 764.019531 202.829249 " transform="matrix(1,0,0,1.334,0,0)"/>
<path style="fill-rule:nonzero;fill:rgb(96.078432%,80.784315%,0%);fill-opacity:1;stroke-width:0.831;stroke-linecap:butt;stroke-linejoin:miter;stroke:rgb(0%,0%,0%);stroke-opacity:1;stroke-miterlimit:2.613;" d="M 822.539062 280.561868 C 809.035156 276.415503 805.34375 261.903228 805.34375 261.903228 C 802.589844 251.016094 807.027344 241.499368 807.027344 241.499368 C 813.195312 227.013446 823.632812 227.016375 823.632812 227.016375 C 828.863281 226.87582 829.492188 231.353073 829.492188 231.353073 C 829.984375 234.524339 827.757812 235.672203 827.757812 235.672203 C 824.175781 237.619472 821.917969 234.981142 821.917969 234.981142 C 820.421875 233.030945 821.574219 231.306222 821.574219 231.306222 C 822.492188 230.017804 824.253906 230.582951 824.253906 230.582951 C 825.648438 231.0134 825.5 232.755692 825.5 232.755692 C 825.507812 232.802544 825.539062 232.802544 825.539062 232.802544 C 825.601562 232.787903 825.578125 232.764477 825.578125 232.764477 C 825.578125 232.764477 825.890625 230.629802 823.800781 230.410186 C 823.800781 230.410186 819.738281 229.52879 814.972656 235.467227 C 814.972656 235.467227 808.695312 243.478847 808.710938 253.844757 C 808.710938 253.844757 807.914062 273.30573 828.195312 278.348131 C 828.195312 278.348131 826 281.504755 822.121094 292.907257 C 822.121094 292.907257 817.730469 307.563015 813.535156 315.48386 C 813.535156 315.48386 807.960938 326.786802 795.53125 322.168994 C 795.53125 322.168994 788.132812 318.918666 788.148438 313.545376 C 788.148438 313.545376 787.636719 308.646458 792.074219 308.268717 C 792.074219 308.268717 796.421875 307.937828 796.375 311.6596 C 796.375 311.6596 796.492188 315.688835 791.746094 314.772301 C 791.746094 314.772301 790.089844 314.417986 790.394531 312.792822 C 790.394531 312.792822 790.65625 311.331639 792.660156 311.967063 C 792.660156 311.967063 792.722656 311.975848 792.730469 311.943638 C 792.730469 311.943638 792.753906 311.908499 792.683594 311.888001 C 792.683594 311.888001 791.90625 311.542471 791.089844 311.829437 C 791.089844 311.829437 790.355469 312.072479 790.300781 313.214487 C 790.300781 313.214487 790.253906 314.133949 791.234375 314.652244 C 791.234375 314.652244 792.425781 315.076837 793.359375 314.983133 C 793.359375 314.983133 794.617188 317.518975 797.460938 318.379873 C 801.421875 319.574588 804.679688 318.423796 806.675781 316.830842 C 808.847656 315.100262 810.253906 312.072479 810.671875 311.328711 C 811.09375 310.58787 814.738281 302.423983 817.476562 293.64517 C 817.476562 293.64517 819.878906 286.072784 821.792969 282.113826 Z M 822.539062 280.561868 " transform="matrix(1,0,0,1.334,0,0)"/>
<path style="fill-rule:nonzero;fill:rgb(96.078432%,80.784315%,0%);fill-opacity:1;stroke-width:0.831;stroke-linecap:butt;stroke-linejoin:miter;stroke:rgb(0%,0%,0%);stroke-opacity:1;stroke-miterlimit:2.613;" d="M 784.433594 317.457482 C 784.433594 317.457482 786.957031 317.11488 786.957031 319.366684 C 786.957031 319.366684 786.804688 322.65215 782.796875 321.934736 C 782.796875 321.934736 778.851562 321.07091 780.25 316.655149 C 780.25 316.655149 781.1875 313.545376 784.925781 313.993394 C 784.925781 313.993394 788.546875 314.160303 790.132812 319.106072 C 790.132812 319.106072 791.347656 323.27879 789.269531 326.857079 C 786.949219 330.854104 781.078125 333.477792 778.242188 334.640297 C 778.242188 334.640297 766.886719 339.102909 763.5 341.653392 C 763.5 341.653392 758.308594 345.509862 760.605469 349.099864 C 760.605469 349.099864 761.492188 350.467344 762.824219 350.467344 C 762.824219 350.467344 764.34375 350.537622 764.601562 348.982735 C 764.601562 348.982735 764.609375 348.950525 764.585938 348.912458 C 764.585938 348.912458 764.5625 348.912458 764.554688 348.950525 C 764.554688 348.950525 764.445312 349.899269 763.617188 350.253584 C 763.617188 350.253584 762.511719 350.812875 761.351562 349.828992 C 761.351562 349.828992 760.121094 348.651846 761.148438 346.821706 C 761.148438 346.821706 762.496094 344.566974 765.636719 345.902244 C 765.636719 345.902244 768.402344 347.269725 767.265625 350.206733 C 767.265625 350.206733 766.253906 352.909483 762.917969 352.903626 C 762.917969 352.903626 760.40625 352.818708 758.804688 351.137908 C 756.296875 348.511291 756.160156 343.395685 758.371094 340.751499 C 758.371094 340.751499 760.457031 337.940405 764.648438 336.227394 C 767.074219 335.234726 771.65625 333.243534 776.421875 331.375328 C 779.773438 330.060556 782.839844 328.4881 784.832031 326.127952 C 784.832031 326.127952 786.609375 324.148473 787.121094 320.754662 C 787.121094 320.754662 787.613281 318.210036 786.0625 317.653673 C 786.0625 317.653673 785.277344 317.302286 784.414062 317.419415 C 784.414062 317.419415 784.390625 317.419415 784.382812 317.434056 C 784.382812 317.434056 784.347656 317.472123 784.433594 317.457482 Z M 784.433594 317.457482 " transform="matrix(1,0,0,1.334,0,0)"/>
<path style="fill:none;stroke-width:0.831;stroke-linecap:butt;stroke-linejoin:miter;stroke:rgb(0%,0%,0%);stroke-opacity:1;stroke-miterlimit:2.613;" d="M 784.644531 317.442841 C 784.644531 317.442841 787.433594 316.939187 789.175781 320.253936 C 789.175781 320.253936 790.203125 322.38861 790.371094 323.627249 M 791.277344 311.776729 C 791.277344 311.776729 788.488281 312.259886 789.925781 316.210059 C 791.28125 319.931831 793.796875 321.1529 794.542969 321.671196 " transform="matrix(1,0,0,1.334,0,0)"/>
<path style="fill-rule:nonzero;fill:rgb(96.078432%,80.784315%,0%);fill-opacity:1;stroke-width:0.831;stroke-linecap:butt;stroke-linejoin:miter;stroke:rgb(0%,0%,0%);stroke-opacity:1;stroke-miterlimit:2.613;" d="M 736.652344 203.455889 C 736.652344 203.455889 736.789062 204.586183 737.914062 204.712097 C 737.914062 204.712097 739.082031 205.089838 739.765625 203.631583 C 739.765625 203.631583 739.84375 203.303622 739.863281 203.142569 C 739.941406 202.460293 740.171875 200.50424 738.054688 198.899574 C 738.054688 198.899574 734.597656 196.073838 727.992188 199.496931 C 727.992188 199.496931 722.761719 202.012275 719.144531 204.14695 C 719.144531 204.14695 709.800781 209.171781 708.679688 209.549522 C 708.679688 209.549522 704.566406 211.622704 698.273438 211.874531 C 698.273438 211.874531 689.675781 212.5041 686.03125 206.471959 C 686.03125 206.471959 683.261719 201.886362 686.03125 198.963995 C 686.03125 198.963995 687.152344 197.646294 688.996094 197.889337 C 689.773438 197.988896 690.628906 198.346139 691.453125 199.309525 C 691.453125 199.309525 692.792969 201.256793 691.234375 202.703336 C 691.234375 202.703336 689.210938 203.944903 688.492188 201.321214 C 688.492188 201.321214 688.464844 201.133808 688.398438 201.368066 C 688.359375 201.520334 687.902344 203.52031 688.976562 205.215751 C 688.976562 205.215751 694.164062 213.066318 708.429688 204.931714 L 727.246094 194.378397 C 727.246094 194.378397 736.683594 189.540972 742.320312 197.110429 C 742.320312 197.110429 746.871094 203.394397 741.015625 207.50855 C 741.015625 207.50855 736.652344 210.114669 733.910156 205.971233 C 733.910156 205.971233 731.636719 201.886362 735.21875 200.097217 C 735.21875 200.097217 738.367188 198.621392 739.613281 201.760448 C 740.859375 204.902432 737.183594 205.719406 736.839844 203.4881 C 736.839844 203.4881 736.746094 202.955163 736.652344 203.455889 Z M 690.589844 275.144654 C 698.898438 270.430215 700.71875 259.970601 700.71875 259.970601 C 702.730469 249.55491 698.664062 241.309033 698.664062 241.309033 C 693.289062 229.953383 684.082031 227.842134 684.082031 227.842134 C 684.082031 227.842134 693.101562 234.099747 695.625 242.535959 C 695.625 242.535959 697.589844 249.648613 696.46875 256.670493 C 695.347656 263.692373 695.765625 261.9003 694.035156 267.320441 Z M 690.589844 275.144654 " transform="matrix(1,0,0,1.334,0,0)"/>
<path style="fill:none;stroke-width:0.831;stroke-linecap:butt;stroke-linejoin:miter;stroke:rgb(0%,0%,0%);stroke-opacity:1;stroke-miterlimit:2.613;" d="M 732.414062 195.13095 C 732.414062 195.13095 740.175781 194.788348 739.894531 202.829249 " transform="matrix(1,0,0,1.334,0,0)"/>
<path style="fill-rule:nonzero;fill:rgb(96.078432%,80.784315%,0%);fill-opacity:1;stroke-width:0.831;stroke-linecap:butt;stroke-linejoin:miter;stroke:rgb(0%,0%,0%);stroke-opacity:1;stroke-miterlimit:2.613;" d="M 681.375 280.561868 C 694.878906 276.415503 698.570312 261.903228 698.570312 261.903228 C 701.328125 251.016094 696.886719 241.499368 696.886719 241.499368 C 690.71875 227.013446 680.285156 227.016375 680.285156 227.016375 C 675.050781 226.87582 674.421875 231.353073 674.421875 231.353073 C 673.929688 234.524339 676.15625 235.672203 676.15625 235.672203 C 679.738281 237.619472 681.996094 234.981142 681.996094 234.981142 C 683.492188 233.030945 682.339844 231.306222 682.339844 231.306222 C 681.421875 230.017804 679.660156 230.582951 679.660156 230.582951 C 678.265625 231.0134 678.414062 232.755692 678.414062 232.755692 C 678.40625 232.802544 678.375 232.802544 678.375 232.802544 C 678.3125 232.787903 678.335938 232.764477 678.335938 232.764477 C 678.335938 232.764477 678.023438 230.629802 680.113281 230.410186 C 680.113281 230.410186 684.179688 229.52879 688.945312 235.467227 C 688.945312 235.467227 695.21875 243.478847 695.203125 253.844757 C 695.203125 253.844757 696 273.30573 675.71875 278.348131 C 675.71875 278.348131 677.914062 281.504755 681.792969 292.907257 C 681.792969 292.907257 686.1875 307.563015 690.378906 315.48386 C 690.378906 315.48386 695.953125 326.786802 708.382812 322.168994 C 708.382812 322.168994 715.78125 318.918666 715.765625 313.545376 C 715.765625 313.545376 716.277344 308.646458 711.839844 308.268717 C 711.839844 308.268717 707.492188 307.937828 707.539062 311.6596 C 707.539062 311.6596 707.425781 315.688835 712.167969 314.772301 C 712.167969 314.772301 713.824219 314.417986 713.523438 312.792822 C 713.523438 312.792822 713.257812 311.331639 711.257812 311.967063 C 711.257812 311.967063 711.195312 311.975848 711.1875 311.943638 C 711.1875 311.943638 711.164062 311.908499 711.234375 311.888001 C 711.234375 311.888001 712.007812 311.542471 712.824219 311.829437 C 712.824219 311.829437 713.558594 312.072479 713.617188 313.214487 C 713.617188 313.214487 713.664062 314.133949 712.679688 314.652244 C 712.679688 314.652244 711.488281 315.076837 710.554688 314.983133 C 710.554688 314.983133 709.296875 317.518975 706.453125 318.379873 C 702.496094 319.574588 699.234375 318.423796 697.238281 316.830842 C 695.066406 315.100262 693.664062 312.072479 693.242188 311.328711 C 692.824219 310.58787 689.179688 302.423983 686.4375 293.64517 C 686.4375 293.64517 684.039062 286.072784 682.121094 282.113826 Z M 681.375 280.561868 " transform="matrix(1,0,0,1.334,0,0)"/>
<path style="fill-rule:nonzero;fill:rgb(96.078432%,80.784315%,0%);fill-opacity:1;stroke-width:0.831;stroke-linecap:butt;stroke-linejoin:miter;stroke:rgb(0%,0%,0%);stroke-opacity:1;stroke-miterlimit:2.613;" d="M 719.480469 317.457482 C 719.480469 317.457482 716.957031 317.11488 716.957031 319.366684 C 716.957031 319.366684 717.113281 322.65215 721.117188 321.934736 C 721.117188 321.934736 725.066406 321.07091 723.664062 316.655149 C 723.664062 316.655149 722.730469 313.545376 718.992188 313.993394 C 718.992188 313.993394 715.371094 314.160303 713.78125 319.106072 C 713.78125 319.106072 712.566406 323.27879 714.644531 326.857079 C 716.964844 330.854104 722.839844 333.477792 725.671875 334.640297 C 725.671875 334.640297 737.027344 339.102909 740.414062 341.653392 C 740.414062 341.653392 745.609375 345.509862 743.3125 349.099864 C 743.3125 349.099864 742.421875 350.467344 741.089844 350.467344 C 741.089844 350.467344 739.570312 350.537622 739.316406 348.982735 C 739.316406 348.982735 739.308594 348.950525 739.332031 348.912458 C 739.332031 348.912458 739.355469 348.912458 739.363281 348.950525 C 739.363281 348.950525 739.472656 349.899269 740.296875 350.253584 C 740.296875 350.253584 741.402344 350.812875 742.5625 349.828992 C 742.5625 349.828992 743.792969 348.651846 742.765625 346.821706 C 742.765625 346.821706 741.417969 344.566974 738.277344 345.902244 C 738.277344 345.902244 735.515625 347.269725 736.652344 350.206733 C 736.652344 350.206733 737.664062 352.909483 740.996094 352.903626 C 740.996094 352.903626 743.507812 352.818708 745.113281 351.137908 C 747.617188 348.511291 747.753906 343.395685 745.546875 340.751499 C 745.546875 340.751499 743.457031 337.940405 739.269531 336.227394 C 736.839844 335.234726 732.257812 333.243534 727.492188 331.375328 C 724.144531 330.060556 721.074219 328.4881 719.082031 326.127952 C 719.082031 326.127952 717.304688 324.148473 716.792969 320.754662 C 716.792969 320.754662 716.300781 318.210036 717.851562 317.653673 C 717.851562 317.653673 718.636719 317.302286 719.503906 317.419415 C 719.503906 317.419415 719.523438 317.419415 719.53125 317.434056 C 719.53125 317.434056 719.566406 317.472123 719.480469 317.457482 Z M 719.480469 317.457482 " transform="matrix(1,0,0,1.334,0,0)"/>
<path style="fill:none;stroke-width:0.831;stroke-linecap:butt;stroke-linejoin:miter;stroke:rgb(0%,0%,0%);stroke-opacity:1;stroke-miterlimit:2.613;" d="M 719.269531 317.442841 C 719.269531 317.442841 716.480469 316.939187 714.738281 320.253936 C 714.738281 320.253936 713.710938 322.38861 713.542969 323.627249 M 712.636719 311.773801 C 712.636719 311.773801 715.429688 312.259886 713.988281 316.210059 C 712.636719 319.931831 710.117188 321.1529 709.371094 321.671196 M 745.207031 202.375375 C 745.207031 202.375375 751.957031 198.14702 758.851562 202.829249 " transform="matrix(1,0,0,1.334,0,0)"/>
<path style="fill:none;stroke-width:0.623;stroke-linecap:butt;stroke-linejoin:miter;stroke:rgb(0%,0%,0%);stroke-opacity:1;stroke-miterlimit:2.613;" d="M 706.796875 243.666253 C 706.796875 243.666253 707.734375 239.897629 703.433594 233.300342 C 703.433594 233.300342 700.628906 227.268202 699.136719 223.405875 M 708.855469 219.256583 C 708.855469 219.256583 711.289062 225.186235 712.125 227.842134 C 712.125 227.842134 715.144531 235.279821 715.785156 236.787856 " transform="matrix(1,0,0,1.334,0,0)"/>
<path style="fill:none;stroke-width:0.623;stroke-linecap:butt;stroke-linejoin:miter;stroke:rgb(0%,0%,0%);stroke-opacity:1;stroke-miterlimit:10;" d="M 710.070312 247.812617 C 710.070312 247.812617 712.605469 250.54465 712.320312 255.165386 M 701.65625 244.893178 C 701.65625 244.893178 704.460938 246.243089 704.277344 253.686633 C 704.277344 253.686633 703.996094 259.124344 708.199219 261.856376 M 701.277344 263.771435 C 701.277344 263.771435 710.054688 262.813906 710.535156 268.216478 C 710.535156 268.216478 710.722656 273.399433 713.714844 273.96458 C 713.714844 273.96458 718.191406 274.389173 719.078125 278.535537 M 704.039062 269.771364 C 704.039062 269.771364 705.582031 272.081733 707.078125 273.068544 M 715.300781 264.070113 C 715.300781 264.070113 717.53125 267.446355 717.949219 269.425834 M 724.960938 223.402947 C 724.960938 223.402947 727.015625 226.1994 729.007812 227.520029 M 733.183594 239.959122 C 733.183594 239.959122 737.542969 242.096725 736.796875 253.092204 C 736.796875 253.092204 736.234375 259.540152 738.042969 263.056948 " transform="matrix(1,0,0,1.334,0,0)"/>
<path style="fill-rule:nonzero;fill:rgb(47.058824%,26.666668%,12.941177%);fill-opacity:1;stroke-width:0.623;stroke-linecap:butt;stroke-linejoin:miter;stroke:rgb(0%,0%,0%);stroke-opacity:1;stroke-miterlimit:4;" d="M 712.640625 232.498009 L 712.917969 233.5346 C 712.917969 233.5346 720.738281 233.865489 724.960938 228.541979 L 724.507812 227.520029 C 724.507812 227.520029 717.683594 227.174499 712.640625 232.498009 Z M 712.640625 232.498009 " transform="matrix(1,0,0,1.334,0,0)"/>
<path style="fill:none;stroke-width:0.623;stroke-linecap:butt;stroke-linejoin:miter;stroke:rgb(0%,0%,0%);stroke-opacity:1;stroke-miterlimit:10;" d="M 740.808594 274.447737 C 740.808594 274.447737 767.847656 266.386338 778.269531 261.683611 " transform="matrix(1,0,0,1.334,0,0)"/>
<path style="fill-rule:nonzero;fill:rgb(47.058824%,26.666668%,12.941177%);fill-opacity:1;stroke-width:0.38;stroke-linecap:butt;stroke-linejoin:miter;stroke:rgb(0%,0%,0%);stroke-opacity:1;stroke-miterlimit:4;" d="M 737.589844 223.686985 L 750.964844 218.597732 L 751.28125 219.493769 L 737.902344 224.574236 Z M 737.589844 223.686985 " transform="matrix(1,0,0,1.334,0,0)"/>
<path style="fill:none;stroke-width:0.623;stroke-linecap:butt;stroke-linejoin:miter;stroke:rgb(0%,0%,0%);stroke-opacity:1;stroke-miterlimit:10;" d="M 739.039062 224.143787 L 747.917969 267.665972 M 740.578125 223.558143 L 750.746094 266.881208 M 742.308594 222.902221 L 753.429688 265.909038 M 746.671875 221.244846 L 761.832031 253.528509 M 748.675781 220.483508 L 764.84375 252.576837 M 750.160156 219.918361 L 767.648438 251.689585 M 747.316406 268.011502 L 754.179688 265.750914 M 742.121094 263.707014 C 742.121094 263.707014 762.234375 257.830069 777.460938 251.689585 M 741.851562 265.909038 C 741.851562 265.909038 767.34375 259.162411 777.457031 254.242996 M 749.632812 286.640859 L 750.964844 290.725731 L 754.613281 289.55737 L 753.367188 285.510565 M 759.925781 283.706779 L 761.261719 287.788723 L 764.910156 286.62329 L 763.664062 282.576485 M 742.625 259.59286 L 742.308594 254.067302 L 775.734375 243.91808 L 777.542969 248.568099 M 756.484375 249.762814 L 758.304688 254.641234 M 768.171875 246.213807 L 770.300781 250.855041 M 770.941406 245.373407 L 772.933594 249.762814 M 773.585938 244.571074 L 775.679688 249.153743 M 775.734375 243.91808 L 779.410156 241.844898 L 780.96875 245.926841 M 777.542969 242.899058 L 779.414062 247.127413 " transform="matrix(1,0,0,1.334,0,0)"/>
<path style="fill:none;stroke-width:0.831;stroke-linecap:butt;stroke-linejoin:miter;stroke:rgb(0.392157%,12.941177%,41.176471%);stroke-opacity:1;stroke-miterlimit:10;" d="M 694.648438 306.526424 C 694.648438 306.526424 688.105469 299.899855 694.648438 293.410912 C 694.648438 293.410912 687.546875 289.938039 688.667969 284.34806 M 706.332031 311.773801 C 706.332031 311.773801 699.554688 312.699119 701.566406 299.504545 C 701.566406 299.504545 698.761719 304.734352 697.796875 307.422461 C 697.070312 309.43415 697.550781 312.68155 700.417969 314.438484 C 701.5625 315.141257 707.640625 316.722498 709.601562 312.699119 M 698.761719 291.589557 C 698.761719 291.589557 696.003906 294.134183 697.96875 298.798843 M 701.609375 292.201555 C 701.609375 292.201555 701.9375 296.725661 704.179688 299.270287 M 703.550781 290.412411 C 703.550781 290.412411 703.527344 295.735921 707.359375 299.033101 M 705.453125 288.573487 C 705.453125 288.573487 705.488281 294.555847 709.929688 298.233696 M 727.496094 297.337659 C 727.496094 297.337659 729.742188 292.435813 734.460938 292.672999 C 734.460938 292.672999 732.171875 293.709591 732.21875 296.002389 C 732.21875 296.002389 731.9375 299.785654 736.003906 300.163395 C 736.003906 300.163395 739.273438 300.587987 740.90625 298.795915 " transform="matrix(1,0,0,1.334,0,0)"/>
<path style="fill:none;stroke-width:0.831;stroke-linecap:butt;stroke-linejoin:miter;stroke:rgb(0.392157%,12.941177%,41.176471%);stroke-opacity:1;stroke-miterlimit:10;" d="M 738.664062 319.720999 C 738.664062 319.720999 727.03125 314.254006 728.246094 306.38587 C 728.246094 306.38587 728.714844 301.577727 733.410156 299.317138 M 730.957031 304.309759 C 730.957031 304.309759 729.929688 307.70357 732.21875 310.06079 M 733.570312 302.002319 C 733.570312 302.002319 732.171875 305.724091 734.507812 308.505903 M 736.375 300.195605 C 736.375 300.195605 734.695312 303.273168 736.703125 306.05498 M 725.769531 320.520404 C 725.769531 320.520404 732.125 326.034249 737.078125 326.0811 M 723.761719 322.262697 C 723.761719 322.262697 729.699219 327.07084 733.410156 327.776541 M 721.515625 323.624321 C 721.515625 323.624321 728.859375 330.08691 733.410156 330.558354 M 751.375 336.493862 C 751.375 336.493862 744.160156 340.382543 749.753906 344.493769 M 746.796875 332.206943 C 746.796875 332.206943 754.972656 327.920024 758.523438 326.318286 M 749.738281 334.42068 C 749.738281 334.42068 761.5625 327.211394 765.066406 325.659436 M 755.8125 334.892124 C 755.8125 334.892124 765.90625 328.154282 771.328125 325.231915 M 762.496094 334.657866 C 762.496094 334.657866 769.457031 329.190873 776.1875 325.231915 M 778.570312 318.40037 C 778.570312 318.40037 775.160156 313.404821 763.945312 318.40037 C 763.945312 318.40037 768.058594 314.669814 776.1875 311.776729 M 787.507812 290.31578 C 787.507812 290.31578 788.425781 294.368441 787.445312 296.819364 " transform="matrix(1,0,0,1.334,0,0)"/>
<path style="fill:none;stroke-width:0.831;stroke-linecap:butt;stroke-linejoin:miter;stroke:rgb(0.392157%,12.941177%,41.176471%);stroke-opacity:1;stroke-miterlimit:10;" d="M 769.316406 309.967087 C 769.316406 309.967087 771.652344 306.526424 777.589844 304.830983 C 777.589844 304.830983 779.1875 308.833864 783.804688 307.940756 C 783.804688 307.940756 790.765625 306.573276 788.664062 298.939397 C 788.664062 298.939397 787.214844 293.238147 779.265625 292.672999 M 802.914062 283.11235 C 802.914062 283.11235 811 284.567677 810.859375 291.164964 C 810.859375 291.164964 811.511719 301.059431 801.09375 302.992059 M 809.710938 287.176724 C 809.710938 287.176724 811.933594 282.35394 816.886719 280.374461 M 810.867188 277.545797 C 810.867188 277.545797 813.074219 281.086019 814.582031 281.601387 M 809.710938 280.374461 C 809.710938 280.374461 811.792969 282.916159 812.492188 283.340751 M 809.035156 282.825384 C 809.035156 282.825384 810.132812 284.441763 811.101562 284.954203 M 767.449219 244.571074 C 767.449219 244.571074 769.023438 242.017663 772.933594 243.101106 M 788.898438 263.707014 C 788.898438 263.707014 791.375 253.373313 800.019531 257.188788 M 796.511719 256.34546 C 796.511719 256.34546 797.402344 251.581241 795.25 249.153743 M 790.625 256.011643 C 790.625 256.011643 791.726562 257.982337 790.785156 259.59286 " transform="matrix(1,0,0,1.334,0,0)"/>
<path style="fill-rule:nonzero;fill:rgb(39.215687%,70.588237%,81.960785%);fill-opacity:1;stroke-width:0.623;stroke-linecap:butt;stroke-linejoin:miter;stroke:rgb(0.392157%,12.941177%,41.176471%);stroke-opacity:1;stroke-miterlimit:2.613;" d="M 808.195312 361.562383 C 808.195312 361.562383 817.914062 357.134909 814.925781 349.594734 C 814.925781 349.594734 814 347.050108 811.84375 347.237514 C 811.84375 347.237514 808.097656 347.42492 808.847656 352.420469 C 808.847656 352.423398 809.96875 357.322315 808.195312 361.562383 Z M 808.195312 361.562383 " transform="matrix(1,0,0,1.334,0,0)"/>
<path style=" stroke:none;fill-rule:nonzero;fill:rgb(100%,100%,100%);fill-opacity:1;" d="M 811.714844 476.375 C 811.714844 476.375 813.851562 473.644531 813.554688 468.75 C 813.554688 468.75 813.429688 467.703125 813.820312 467.554688 C 813.820312 467.554688 814.238281 467.324219 814.300781 468.539062 C 814.300781 468.539062 814.890625 473.652344 812.304688 476.582031 C 812.304688 476.582031 812.128906 476.878906 811.84375 476.792969 C 811.84375 476.792969 811.539062 476.703125 811.714844 476.375 Z M 811.714844 476.375 "/>
<path style="fill-rule:nonzero;fill:rgb(39.215687%,70.588237%,81.960785%);fill-opacity:1;stroke-width:0.623;stroke-linecap:butt;stroke-linejoin:miter;stroke:rgb(0.392157%,12.941177%,41.176471%);stroke-opacity:1;stroke-miterlimit:2.613;" d="M 822.027344 354.777689 C 822.027344 354.777689 828.847656 350.49077 825.15625 343.278556 C 825.15625 343.278556 824.082031 341.208302 822.027344 341.629966 C 822.027344 341.629966 817.773438 342.950595 821.089844 348.84218 C 821.089844 348.84218 822.773438 352.657656 822.027344 354.777689 Z M 822.027344 354.777689 " transform="matrix(1,0,0,1.334,0,0)"/>
<path style=" stroke:none;fill-rule:nonzero;fill:rgb(100%,100%,100%);fill-opacity:1;" d="M 823.730469 460.230469 C 823.730469 460.230469 823.355469 459.570312 823.613281 459.285156 C 823.613281 459.285156 823.777344 458.972656 824.222656 459.726562 C 824.222656 459.726562 826.285156 462.804688 824.640625 467.539062 C 824.640625 467.539062 824.453125 468.210938 824.128906 467.992188 C 824.128906 467.992188 823.847656 467.804688 824.105469 467.238281 C 824.105469 467.238281 825.578125 463.34375 823.730469 460.230469 Z M 823.730469 460.230469 "/>
<path style="fill-rule:nonzero;fill:rgb(39.215687%,70.588237%,81.960785%);fill-opacity:1;stroke-width:0.623;stroke-linecap:butt;stroke-linejoin:miter;stroke:rgb(0.392157%,12.941177%,41.176471%);stroke-opacity:1;stroke-miterlimit:2.613;" d="M 801.605469 359.679535 C 801.605469 359.679535 793.988281 357.746908 795.390625 349.878772 C 795.390625 349.878772 796.140625 346.438109 799.363281 346.909553 C 799.363281 346.909553 803.246094 347.902221 800.71875 352.903626 C 800.71875 352.903626 799.222656 356.473131 801.605469 359.679535 Z M 801.605469 359.679535 " transform="matrix(1,0,0,1.334,0,0)"/>
<path style=" stroke:none;fill-rule:nonzero;fill:rgb(100%,100%,100%);fill-opacity:1;" d="M 798.660156 467.269531 C 798.660156 467.269531 798.382812 466.769531 798.710938 466.546875 C 798.710938 466.546875 799.035156 466.359375 799.269531 466.972656 C 799.269531 466.972656 800.0625 468.652344 799.390625 470.957031 C 799.390625 470.957031 798.757812 472.550781 799.066406 474.21875 C 799.066406 474.21875 799.105469 474.6875 798.824219 474.75 C 798.824219 474.75 798.558594 474.625 798.503906 474.28125 C 798.503906 474.28125 798.125 472.65625 798.777344 471.0625 C 798.777344 471.0625 799.574219 468.589844 798.660156 467.269531 Z M 798.660156 467.269531 "/>
<path style=" stroke:none;fill-rule:nonzero;fill:rgb(0%,0%,0%);fill-opacity:1;" d="M 807.074219 459.941406 C 807.074219 459.941406 811.371094 456.722656 814.921875 460.492188 C 814.921875 460.492188 814.558594 458.398438 811.84375 457.476562 C 811.84375 457.476562 810.375 451.941406 806.261719 452.445312 C 806.261719 452.445312 807.945312 455.128906 810.1875 457.390625 C 810.1875 457.390625 807.820312 457.71875 807.074219 459.941406 Z M 810.25 444.792969 C 810.25 444.792969 813.171875 447.667969 814.359375 449.597656 C 814.359375 449.597656 815.546875 447.628906 817.105469 446.433594 C 817.105469 446.433594 815.3125 446.117188 814.359375 447.195312 C 814.359375 447.195312 812.867188 445.265625 810.25 444.792969 Z M 810.25 444.792969 "/>
<path style="fill:none;stroke-width:0.831;stroke-linecap:butt;stroke-linejoin:miter;stroke:rgb(0%,0%,0%);stroke-opacity:1;stroke-miterlimit:10;" d="M 793.304688 342.684127 C 793.304688 342.684127 792.992188 341.615325 793.742188 340.485031 C 793.742188 340.485031 794.238281 339.668057 794.054688 338.599255 M 824.640625 275.583888 C 824.640625 275.583888 829.191406 275.26764 829.9375 271.750843 M 837.914062 269.425834 C 837.914062 269.425834 836.328125 269.364341 834.894531 270.807955 C 834.894531 270.807955 833.800781 272.441904 832.242188 272.25157 " transform="matrix(1,0,0,1.334,0,0)"/>
<path style=" stroke:none;fill-rule:nonzero;fill:rgb(0%,0%,0%);fill-opacity:1;" d="M 817.914062 349.777344 C 817.914062 349.777344 820.28125 349.777344 821.589844 348.265625 C 821.589844 348.265625 822.960938 347.011719 823.769531 349.019531 C 823.769531 349.019531 825.015625 351.871094 822.710938 353.128906 C 822.710938 353.128906 819.847656 355.054688 824.394531 358.910156 C 824.394531 358.910156 818.972656 356.3125 821.152344 352.792969 C 821.152344 352.792969 823.519531 350.53125 822.648438 349.691406 C 822.648438 349.691406 822.398438 349.019531 821.464844 349.859375 C 820.53125 350.699219 818.660156 350.363281 817.914062 349.777344 Z M 817.914062 349.777344 "/>
<path style="fill-rule:nonzero;fill:rgb(39.215687%,70.588237%,81.960785%);fill-opacity:1;stroke-width:0.623;stroke-linecap:butt;stroke-linejoin:miter;stroke:rgb(0.392157%,12.941177%,41.176471%);stroke-opacity:1;stroke-miterlimit:2.613;" d="M 821.132812 204.98735 C 821.132812 204.98735 822.203125 203.532023 821.765625 199.166042 C 821.328125 194.800061 825.121094 194.299335 826.578125 195.552614 C 826.578125 195.552614 828.085938 196.858602 826.699219 199.625773 C 825.898438 201.224583 824.621094 203.294837 821.132812 204.98735 Z M 821.132812 204.98735 " transform="matrix(1,0,0,1.334,0,0)"/>
<path style=" stroke:none;fill-rule:nonzero;fill:rgb(100%,100%,100%);fill-opacity:1;" d="M 822.558594 269.105469 C 822.558594 269.105469 823.980469 267.066406 823.300781 262.640625 C 823.300781 262.640625 823.296875 262.203125 823.484375 262.175781 C 823.484375 262.175781 823.828125 262.058594 823.886719 262.496094 C 823.886719 262.496094 824.652344 267.210938 823.046875 269.773438 C 823.046875 269.773438 822.753906 270.152344 822.558594 269.773438 C 822.558594 269.773438 822.34375 269.503906 822.558594 269.105469 Z M 822.558594 269.105469 "/>
<path style="fill-rule:nonzero;fill:rgb(39.215687%,70.588237%,81.960785%);fill-opacity:1;stroke-width:0.623;stroke-linecap:butt;stroke-linejoin:miter;stroke:rgb(0.392157%,12.941177%,41.176471%);stroke-opacity:1;stroke-miterlimit:2.613;" d="M 819.921875 203.400253 C 819.921875 203.400253 819.8125 201.640391 816.769531 198.647746 C 813.726562 195.65803 816.226562 192.899644 818.089844 192.92307 C 818.089844 192.92307 820.019531 192.95528 820.714844 195.895216 C 821.117188 197.593586 821.457031 199.942021 819.921875 203.400253 Z M 819.921875 203.400253 " transform="matrix(1,0,0,1.334,0,0)"/>
<path style=" stroke:none;fill-rule:nonzero;fill:rgb(100%,100%,100%);fill-opacity:1;" d="M 819.449219 266.230469 C 819.449219 266.230469 819.503906 263.351562 816.75 260.351562 C 816.75 260.351562 816.527344 260 816.652344 259.816406 C 816.652344 259.816406 816.859375 259.425781 817.125 259.726562 C 817.125 259.726562 820.089844 262.894531 820.160156 266.351562 C 820.160156 266.351562 820.128906 266.910156 819.789062 266.773438 C 819.789062 266.769531 819.484375 266.738281 819.449219 266.230469 Z M 819.449219 266.230469 "/>
<path style="fill-rule:nonzero;fill:rgb(39.215687%,70.588237%,81.960785%);fill-opacity:1;stroke-width:0.623;stroke-linecap:butt;stroke-linejoin:miter;stroke:rgb(0.392157%,12.941177%,41.176471%);stroke-opacity:1;stroke-miterlimit:2.613;" d="M 815.792969 202.076696 C 815.792969 202.076696 814.996094 200.641867 811.238281 199.309525 C 807.484375 197.977183 808.496094 194.694645 810.078125 193.991871 C 810.078125 193.991871 811.71875 193.2686 813.476562 195.467696 C 814.492188 196.741473 815.710938 198.580397 815.792969 202.076696 Z M 815.792969 202.076696 " transform="matrix(1,0,0,1.334,0,0)"/>
<path style=" stroke:none;fill-rule:nonzero;fill:rgb(100%,100%,100%);fill-opacity:1;" d="M 814.144531 266.054688 C 814.144531 266.054688 813.292969 263.414062 809.851562 262.261719 C 809.851562 262.261719 809.539062 262.070312 809.597656 261.828125 C 809.597656 261.828125 809.660156 261.359375 809.996094 261.484375 C 809.996094 261.484375 813.679688 262.664062 814.828125 265.757812 C 814.828125 265.757812 814.976562 266.285156 814.621094 266.351562 C 814.621094 266.351562 814.339844 266.496094 814.144531 266.054688 Z M 814.144531 266.054688 "/>
<path style="fill-rule:nonzero;fill:rgb(39.215687%,70.588237%,81.960785%);fill-opacity:1;stroke-width:0.623;stroke-linecap:butt;stroke-linejoin:miter;stroke:rgb(0.392157%,12.941177%,41.176471%);stroke-opacity:1;stroke-miterlimit:2.613;" d="M 818.144531 203.511525 C 818.144531 203.511525 816.394531 204.003467 812.371094 202.062055 C 808.347656 200.120643 806.585938 203.499813 807.289062 205.306526 C 807.289062 205.306526 808.027344 207.177661 811.140625 206.8497 C 812.941406 206.659366 815.347656 206.187922 818.144531 203.511525 Z M 818.144531 203.511525 " transform="matrix(1,0,0,1.334,0,0)"/>
<path style=" stroke:none;fill-rule:nonzero;fill:rgb(100%,100%,100%);fill-opacity:1;" d="M 808.789062 273.195312 C 808.789062 273.195312 810.613281 274.695312 813.925781 272.988281 C 813.925781 272.988281 814.261719 272.902344 814.316406 273.144531 C 814.316406 273.144531 814.46875 273.578125 814.140625 273.734375 C 814.140625 273.734375 810.617188 275.609375 808.355469 273.964844 C 808.355469 273.964844 808.011719 273.644531 808.269531 273.316406 C 808.273438 273.316406 808.445312 272.980469 808.789062 273.195312 Z M 808.789062 273.195312 "/>
<path style="fill:none;stroke-width:0.831;stroke-linecap:butt;stroke-linejoin:miter;stroke:rgb(0%,0%,0%);stroke-opacity:1;stroke-miterlimit:2.613;" d="M 812.261719 190.79718 C 812.261719 190.79718 814.269531 191.772278 813.800781 194.12657 " transform="matrix(1,0,0,1.334,0,0)"/>
<path style="fill:none;stroke-width:0.831;stroke-linecap:butt;stroke-linejoin:miter;stroke:rgb(0%,0%,0%);stroke-opacity:1;stroke-miterlimit:10;" d="M 821.136719 191.128069 C 821.136719 191.128069 821.925781 193.61413 821.054688 194.955257 " transform="matrix(1,0,0,1.334,0,0)"/>
<path style="fill-rule:nonzero;fill:rgb(39.215687%,70.588237%,81.960785%);fill-opacity:1;stroke-width:0.623;stroke-linecap:butt;stroke-linejoin:miter;stroke:rgb(0.392157%,12.941177%,41.176471%);stroke-opacity:1;stroke-miterlimit:2.613;" d="M 682.527344 204.98735 C 682.527344 204.98735 681.460938 203.532023 681.894531 199.166042 C 682.332031 194.800061 678.542969 194.299335 677.085938 195.552614 C 677.085938 195.552614 675.578125 196.858602 676.964844 199.625773 C 677.761719 201.224583 679.039062 203.294837 682.527344 204.98735 Z M 682.527344 204.98735 " transform="matrix(1,0,0,1.334,0,0)"/>
<path style=" stroke:none;fill-rule:nonzero;fill:rgb(100%,100%,100%);fill-opacity:1;" d="M 681.101562 269.105469 C 681.101562 269.105469 679.679688 267.066406 680.359375 262.640625 C 680.359375 262.640625 680.363281 262.203125 680.175781 262.175781 C 680.175781 262.175781 679.832031 262.058594 679.773438 262.496094 C 679.773438 262.496094 679.011719 267.210938 680.613281 269.773438 C 680.613281 269.773438 680.90625 270.152344 681.101562 269.773438 C 681.101562 269.773438 681.320312 269.503906 681.101562 269.105469 Z M 681.101562 269.105469 "/>
<path style="fill-rule:nonzero;fill:rgb(39.215687%,70.588237%,81.960785%);fill-opacity:1;stroke-width:0.623;stroke-linecap:butt;stroke-linejoin:miter;stroke:rgb(0.392157%,12.941177%,41.176471%);stroke-opacity:1;stroke-miterlimit:2.613;" d="M 683.738281 203.400253 C 683.738281 203.400253 683.851562 201.640391 686.890625 198.647746 C 689.933594 195.65803 687.433594 192.899644 685.570312 192.92307 C 685.570312 192.92307 683.640625 192.95528 682.945312 195.895216 C 682.542969 197.593586 682.203125 199.942021 683.738281 203.400253 Z M 683.738281 203.400253 " transform="matrix(1,0,0,1.334,0,0)"/>
<path style=" stroke:none;fill-rule:nonzero;fill:rgb(100%,100%,100%);fill-opacity:1;" d="M 684.210938 266.230469 C 684.210938 266.230469 684.15625 263.351562 686.910156 260.351562 C 686.910156 260.351562 687.136719 260 687.007812 259.816406 C 687.007812 259.816406 686.804688 259.425781 686.539062 259.726562 C 686.539062 259.726562 683.570312 262.894531 683.5 266.351562 C 683.5 266.351562 683.53125 266.910156 683.871094 266.773438 C 683.871094 266.769531 684.175781 266.738281 684.210938 266.230469 Z M 684.210938 266.230469 "/>
<path style="fill-rule:nonzero;fill:rgb(39.215687%,70.588237%,81.960785%);fill-opacity:1;stroke-width:0.623;stroke-linecap:butt;stroke-linejoin:miter;stroke:rgb(0.392157%,12.941177%,41.176471%);stroke-opacity:1;stroke-miterlimit:2.613;" d="M 687.867188 202.076696 C 687.867188 202.076696 688.664062 200.641867 692.421875 199.309525 C 696.179688 197.977183 695.164062 194.694645 693.582031 193.991871 C 693.582031 193.991871 691.941406 193.2686 690.183594 195.467696 C 689.171875 196.741473 687.949219 198.580397 687.867188 202.076696 Z M 687.867188 202.076696 " transform="matrix(1,0,0,1.334,0,0)"/>
<path style=" stroke:none;fill-rule:nonzero;fill:rgb(100%,100%,100%);fill-opacity:1;" d="M 689.515625 266.054688 C 689.515625 266.054688 690.367188 263.414062 693.808594 262.261719 C 693.808594 262.261719 694.121094 262.070312 694.0625 261.828125 C 694.0625 261.828125 694.003906 261.359375 693.664062 261.484375 C 693.664062 261.484375 689.984375 262.664062 688.832031 265.757812 C 688.832031 265.757812 688.6875 266.285156 689.039062 266.351562 C 689.039062 266.351562 689.320312 266.496094 689.515625 266.054688 Z M 689.515625 266.054688 "/>
<path style="fill-rule:nonzero;fill:rgb(39.215687%,70.588237%,81.960785%);fill-opacity:1;stroke-width:0.623;stroke-linecap:butt;stroke-linejoin:miter;stroke:rgb(0.392157%,12.941177%,41.176471%);stroke-opacity:1;stroke-miterlimit:2.613;" d="M 685.515625 203.511525 C 685.515625 203.511525 687.265625 204.003467 691.289062 202.062055 C 695.3125 200.120643 697.074219 203.499813 696.371094 205.306526 C 696.371094 205.306526 695.632812 207.177661 692.519531 206.8497 C 690.722656 206.659366 688.3125 206.187922 685.515625 203.511525 Z M 685.515625 203.511525 " transform="matrix(1,0,0,1.334,0,0)"/>
<path style=" stroke:none;fill-rule:nonzero;fill:rgb(100%,100%,100%);fill-opacity:1;" d="M 694.871094 273.195312 C 694.871094 273.195312 693.046875 274.695312 689.734375 272.988281 C 689.734375 272.988281 689.398438 272.902344 689.34375 273.144531 C 689.34375 273.144531 689.195312 273.578125 689.523438 273.734375 C 689.523438 273.734375 693.042969 275.609375 695.304688 273.964844 C 695.304688 273.964844 695.648438 273.644531 695.390625 273.316406 C 695.390625 273.316406 695.21875 272.980469 694.871094 273.195312 Z M 694.871094 273.195312 "/>
<path style="fill:none;stroke-width:0.831;stroke-linecap:butt;stroke-linejoin:miter;stroke:rgb(0%,0%,0%);stroke-opacity:1;stroke-miterlimit:2.613;" d="M 691.402344 190.79718 C 691.402344 190.79718 689.390625 191.772278 689.859375 194.12657 " transform="matrix(1,0,0,1.334,0,0)"/>
<path style="fill:none;stroke-width:0.831;stroke-linecap:butt;stroke-linejoin:miter;stroke:rgb(0%,0%,0%);stroke-opacity:1;stroke-miterlimit:10;" d="M 682.523438 191.128069 C 682.523438 191.128069 681.738281 193.61413 682.605469 194.955257 " transform="matrix(1,0,0,1.334,0,0)"/>
<path style=" stroke:none;fill-rule:nonzero;fill:rgb(0%,0%,0%);fill-opacity:1;" d="M 769.738281 224.476562 C 769.738281 224.476562 771.011719 229.324219 770.464844 233.71875 C 769.972656 237.644531 770.640625 238.660156 771.707031 239.4375 C 772.628906 240.109375 774.761719 238.933594 775.019531 235.855469 C 775.019531 235.855469 777.539062 242.421875 772.636719 246.855469 C 772.636719 246.855469 769.105469 249.746094 766.117188 245.878906 C 765.0625 244.519531 764.597656 240.757812 765.113281 237.269531 C 765.113281 237.269531 765.882812 232.539062 764.597656 227.683594 C 764.597656 227.683594 766.605469 230.542969 766.09375 236.246094 C 766.09375 236.246094 765.066406 246.476562 770.742188 245.972656 C 770.742188 245.972656 774.667969 245.910156 774.785156 239.5625 C 774.785156 239.5625 773.3125 241.824219 771.488281 241.070312 C 770.199219 240.539062 769.011719 238.871094 769.222656 236.246094 C 769.445312 233.488281 770.019531 228.6875 769.738281 224.476562 Z M 763.304688 241.28125 C 763.304688 241.28125 762.992188 249.367188 757.449219 251.335938 C 757.449219 251.335938 758.230469 249.871094 756.984375 245.847656 C 756.984375 245.847656 755.769531 243.5 755.863281 239.855469 C 755.863281 239.855469 754.097656 241.699219 756.109375 246.5625 C 757.324219 249.492188 756.265625 253.015625 755.894531 253.140625 C 755.519531 253.265625 765.050781 251.464844 763.304688 241.28125 Z M 756.109375 233.234375 C 756.109375 233.234375 754.769531 231.222656 754.675781 226.570312 C 754.585938 221.917969 753.929688 220.789062 753.460938 220.242188 C 753.460938 220.242188 754.148438 224.265625 753.960938 226.738281 C 753.773438 229.210938 754.085938 230.636719 754.335938 231.808594 C 754.335938 231.808594 751.3125 232.4375 749.410156 226.570312 C 747.597656 220.960938 745.765625 221.414062 744.863281 221.457031 C 744.863281 221.457031 745.917969 221.613281 748.039062 226.734375 C 750.164062 231.855469 750.753906 232.898438 756.109375 233.234375 Z M 741.96875 221.082031 C 741.96875 221.082031 743.714844 226.65625 743.773438 229.589844 C 743.773438 229.589844 739.726562 227.785156 738.636719 223.09375 C 738.636719 223.09375 734.304688 225.0625 735.894531 231.726562 C 735.894531 231.726562 732.15625 229.964844 730.472656 225.898438 C 730.472656 225.898438 732.5625 227.996094 734.492188 228.917969 C 734.492188 228.917969 734.273438 223.554688 739.320312 221.542969 C 739.320312 221.542969 740.070312 226.347656 742.589844 227.492188 C 742.589844 227.492188 742.402344 224.476562 741.96875 221.082031 Z M 748.632812 211.527344 C 748.632812 211.527344 750.035156 214.25 752.902344 214.375 C 754.273438 214.4375 755.746094 214.023438 757.171875 211.527344 C 757.171875 211.527344 756.984375 216.261719 752.902344 216.304688 C 752.902344 216.304688 748.632812 216.511719 748.632812 211.527344 Z M 730.980469 243.898438 C 730.980469 243.898438 733.105469 246.476562 733.550781 247.324219 C 733.550781 247.324219 735.042969 249.273438 736.328125 246.753906 C 736.328125 246.753906 737.964844 242.722656 739.972656 242.832031 C 739.972656 242.832031 738.550781 244.152344 736.945312 247.960938 C 736.945312 247.960938 736.515625 249.367188 735.324219 249.523438 C 734.765625 249.597656 734.0625 249.839844 732.996094 248.355469 C 732.996094 248.355469 732.078125 246.855469 730.980469 243.898438 Z M 752.902344 192.542969 C 748.632812 192.539062 752.230469 196.941406 752.230469 196.941406 C 752.324219 203.917969 748.128906 206.066406 745.269531 204.046875 C 742.410156 202.023438 744.648438 196.941406 744.648438 196.941406 C 744.648438 196.941406 741.421875 199.769531 743.480469 203.855469 C 745.535156 207.941406 750.925781 206.117188 752.902344 202.347656 C 754.878906 206.117188 760.269531 207.941406 762.324219 203.855469 C 764.382812 199.769531 761.15625 196.941406 761.15625 196.941406 C 761.15625 196.941406 763.390625 202.023438 760.535156 204.046875 C 757.675781 206.066406 753.476562 203.921875 753.570312 196.941406 C 753.570312 196.945312 757.167969 192.539062 752.902344 192.542969 Z M 755.488281 185 C 755.488281 185 756.980469 188.394531 756.65625 193.546875 C 756.65625 193.546875 758.011719 188.394531 755.488281 185 Z M 742.402344 192.984375 C 742.402344 192.984375 742.078125 189.273438 739.367188 188.960938 C 739.367188 188.960938 741.65625 191.160156 742.402344 192.984375 Z M 763.429688 192.984375 C 763.429688 192.984375 763.757812 189.273438 766.46875 188.960938 C 766.46875 188.960938 764.179688 191.160156 763.429688 192.984375 Z M 738.105469 198.640625 C 738.105469 198.640625 740.253906 199.519531 741.5625 197.382812 C 741.5625 197.382812 739.085938 198.261719 738.105469 198.640625 Z M 731.144531 175.886719 C 731.144531 175.886719 733.644531 175.507812 736.144531 180.472656 C 736.144531 180.472656 733.664062 182.234375 733.058594 183.300781 C 733.058594 183.300781 733.058594 181.667969 734.273438 180.222656 C 734.273438 180.222656 733.804688 177.707031 731.144531 175.886719 Z M 773.011719 175.886719 C 773.011719 175.886719 770.511719 175.507812 768.011719 180.472656 C 768.011719 180.472656 770.488281 182.234375 771.09375 183.300781 C 771.09375 183.300781 771.09375 181.667969 769.878906 180.222656 C 769.878906 180.222656 770.347656 177.707031 773.011719 175.886719 Z M 753.710938 179.589844 C 753.710938 179.589844 755.953125 180.410156 758.757812 178.335938 C 758.757812 178.335938 762.214844 175.886719 764.410156 178.335938 C 764.410156 178.335938 762.496094 177.199219 758.804688 179.589844 C 758.804688 179.589844 755.113281 182.292969 753.710938 179.589844 Z M 753.710938 179.589844 "/>
<path style=" stroke:none;fill-rule:nonzero;fill:rgb(100%,100%,100%);fill-opacity:1;" d="M 756.046875 182.609375 C 756.046875 182.609375 757.964844 178.128906 763.804688 179.019531 C 763.804688 179.019531 762.214844 185.25 756.046875 182.609375 Z M 756.046875 182.609375 "/>
<path style=" stroke:none;fill-rule:nonzero;fill:rgb(47.058824%,26.666668%,12.941177%);fill-opacity:1;" d="M 761.230469 181.222656 C 761.230469 182.300781 760.714844 183.175781 760.078125 183.175781 C 759.4375 183.175781 758.921875 182.300781 758.921875 181.222656 C 758.921875 180.144531 759.4375 179.269531 760.078125 179.269531 C 760.714844 179.269531 761.230469 180.144531 761.230469 181.222656 Z M 761.230469 181.222656 "/>
<path style=" stroke:none;fill-rule:nonzero;fill:rgb(0%,0%,0%);fill-opacity:1;" d="M 760.761719 181.222656 C 760.761719 181.882812 760.457031 182.417969 760.078125 182.417969 C 759.699219 182.417969 759.390625 181.882812 759.390625 181.222656 C 759.390625 180.558594 759.699219 180.023438 760.078125 180.023438 C 760.457031 180.023438 760.761719 180.558594 760.761719 181.222656 Z M 760.761719 181.222656 "/>
<path style=" stroke:none;fill-rule:nonzero;fill:rgb(0%,0%,0%);fill-opacity:1;" d="M 743.523438 173.058594 C 743.523438 173.058594 747.214844 173.371094 749.460938 175.257812 C 749.460938 175.257812 751.84375 177.144531 754.550781 174.4375 C 754.550781 174.4375 757.5 172.175781 759.390625 169.035156 C 759.390625 169.035156 754.878906 173.183594 753.195312 173.8125 C 753.195312 173.8125 751.65625 172.238281 751.046875 169.976562 C 751.046875 169.976562 751.28125 168.28125 753.710938 165.136719 C 753.710938 165.136719 750.441406 166.457031 749.785156 170.167969 C 749.785156 170.167969 750.394531 172.429688 751.65625 174.191406 C 751.65625 174.191406 751.046875 174.566406 749.460938 173.246094 C 749.460938 173.246094 746.003906 171.671875 743.523438 173.058594 Z M 752.902344 202.632812 C 749.710938 206.308594 752.902344 205.933594 752.902344 205.933594 C 752.902344 205.933594 756.09375 206.308594 752.902344 202.632812 Z M 751.054688 179.589844 C 751.054688 179.589844 748.8125 180.410156 746.007812 178.335938 C 746.007812 178.335938 742.550781 175.886719 740.351562 178.335938 C 740.351562 178.335938 742.269531 177.199219 745.960938 179.589844 C 745.960938 179.589844 749.652344 182.292969 751.054688 179.589844 Z M 751.054688 179.589844 "/>
<path style=" stroke:none;fill-rule:nonzero;fill:rgb(100%,100%,100%);fill-opacity:1;" d="M 748.71875 182.609375 C 748.71875 182.609375 746.800781 178.128906 740.960938 179.019531 C 740.960938 179.019531 742.550781 185.25 748.71875 182.609375 Z M 748.71875 182.609375 "/>
<path style=" stroke:none;fill-rule:nonzero;fill:rgb(47.058824%,26.666668%,12.941177%);fill-opacity:1;" d="M 745.84375 181.222656 C 745.84375 182.300781 745.328125 183.175781 744.6875 183.175781 C 744.050781 183.175781 743.535156 182.300781 743.535156 181.222656 C 743.535156 180.144531 744.050781 179.269531 744.6875 179.269531 C 745.328125 179.269531 745.84375 180.144531 745.84375 181.222656 Z M 745.84375 181.222656 "/>
<path style=" stroke:none;fill-rule:nonzero;fill:rgb(0%,0%,0%);fill-opacity:1;" d="M 745.375 181.222656 C 745.375 181.882812 745.066406 182.417969 744.6875 182.417969 C 744.308594 182.417969 744.003906 181.882812 744.003906 181.222656 C 744.003906 180.558594 744.308594 180.023438 744.6875 180.023438 C 745.066406 180.023438 745.375 180.558594 745.375 181.222656 Z M 745.375 181.222656 "/>
<path style="fill:none;stroke-width:2;stroke-linecap:butt;stroke-linejoin:miter;stroke:rgb(0%,0%,0%);stroke-opacity:1;stroke-miterlimit:4;" d="M 865.722656 106.663465 L 865.722656 318.40037 C 865.722656 374.959005 752.660156 393.333607 752.660156 393.333607 C 752.660156 393.333607 639.597656 374.959005 639.597656 318.40037 L 639.597656 106.663465 Z M 865.722656 106.663465 " transform="matrix(1,0,0,1.334,0,0)"/>
</g>
</svg>
