<?xml version="1.0" encoding="UTF-8"?>
<svg xmlns="http://www.w3.org/2000/svg" xmlns:xlink="http://www.w3.org/1999/xlink" width="1000px" height="667px" viewBox="0 0 1000 667" version="1.1">
<g id="surface1">
<rect x="0" y="0" width="1000" height="667" style="fill:rgb(96.862745%,87.843138%,9.019608%);fill-opacity:1;stroke:none;"/>
<path style=" stroke:none;fill-rule:nonzero;fill:rgb(100%,100%,100%);fill-opacity:1;" d="M 0 46.320312 L 0 342.765625 L 1000 481.722656 L 1000 324.234375 Z M 0 46.320312 "/>
<path style=" stroke:none;fill-rule:nonzero;fill:rgb(0%,0%,0%);fill-opacity:1;" d="M 0 203.804688 L 0 342.765625 L 1000 620.679688 L 1000 481.722656 Z M 0 203.804688 "/>
<path style=" stroke:none;fill-rule:nonzero;fill:rgb(81.176472%,6.666667%,14.901961%);fill-opacity:1;" d="M 483.152344 527.78125 C 469.707031 525.402344 457.382812 519.695312 448.820312 511.875 C 447.160156 510.355469 445.597656 509.117188 445.355469 509.117188 C 445.105469 509.117188 444.902344 510.800781 444.902344 512.886719 C 444.902344 518.785156 443.125 521.761719 438.652344 523.308594 C 434.375 524.789062 427.847656 521.796875 422.554688 515.941406 C 417.078125 509.875 410.75 505.242188 405.394531 503.390625 C 400.984375 501.851562 395.132812 502.101562 390.902344 503.992188 C 388.9375 504.871094 386.703125 506.113281 385.921875 506.753906 C 385.152344 507.390625 384.285156 507.910156 384.007812 507.910156 C 383.257812 507.910156 383.359375 501.566406 384.144531 499.535156 C 385.179688 496.878906 387.730469 494.257812 390.703125 492.8125 C 392.203125 492.078125 393.429688 491.144531 393.429688 490.726562 C 393.429688 490.308594 392.921875 488.78125 392.304688 487.34375 C 390.292969 482.640625 391.117188 478.082031 394.632812 474.496094 C 398.230469 470.828125 404.320312 470.199219 409.703125 472.929688 C 411.054688 473.617188 412.320312 474.179688 412.507812 474.179688 C 413.214844 474.179688 412.785156 472.855469 410.832031 469.066406 C 408.582031 464.675781 408.140625 462.507812 408.417969 457.285156 C 408.777344 450.667969 412.820312 445.257812 417.769531 444.777344 C 421.8125 444.390625 424.328125 446.203125 430.292969 453.78125 C 448.105469 476.441406 467.472656 488.929688 490.0625 492.3125 C 495.765625 493.164062 507.234375 492.710938 513.964844 491.355469 C 534.292969 487.269531 554.769531 473.636719 570.765625 453.542969 C 575.195312 447.972656 577.328125 446.5 580.957031 446.480469 C 584.117188 446.464844 586.332031 447.824219 588.597656 451.160156 C 590.660156 454.21875 591.359375 457.117188 591.140625 461.757812 C 590.992188 464.730469 590.632812 466.195312 589.304688 469.078125 C 587.347656 473.328125 587.679688 473.71875 591.554688 471.71875 C 596.792969 468.992188 603.242188 470.253906 606.722656 474.664062 C 609.785156 478.542969 610.078125 482.425781 607.695312 487.6875 C 606.828125 489.613281 606.117188 491.421875 606.117188 491.707031 C 606.117188 492.238281 606.777344 492.488281 609.957031 493.171875 C 614.117188 494.0625 616.5 498.183594 616.5 504.484375 C 616.5 506.375 616.328125 507.910156 616.109375 507.910156 C 615.902344 507.910156 614.328125 507.140625 612.609375 506.199219 C 607.765625 503.53125 605.007812 502.84375 599.339844 502.890625 C 595.027344 502.925781 593.542969 503.195312 590.535156 504.503906 C 585.929688 506.511719 581.007812 510.382812 576.992188 515.15625 C 572.570312 520.417969 569.785156 522.074219 565.480469 522.03125 C 561.480469 521.972656 558.742188 520.425781 557.296875 517.378906 C 556.527344 515.75 556.417969 514.757812 556.605469 511.070312 C 556.730469 508.671875 556.703125 506.707031 556.554688 506.707031 C 556.402344 506.707031 554.847656 508.023438 553.089844 509.644531 C 548.480469 513.867188 545.542969 515.960938 540.265625 518.75 C 524.167969 527.246094 500.9375 530.921875 483.152344 527.78125 Z M 483.152344 527.78125 "/>
<path style=" stroke:none;fill-rule:nonzero;fill:rgb(81.176472%,6.666667%,14.901961%);fill-opacity:1;" d="M 490.515625 486.511719 C 463.722656 483.082031 438.085938 464.464844 422.5 434.953125 C 405.578125 404.164062 400.242188 363.511719 405.410156 326.339844 C 408.15625 309.417969 413.695312 292.484375 423.148438 280.433594 C 415.613281 301.746094 413.066406 326.171875 417.085938 349.257812 C 423.328125 395.347656 452.527344 434.363281 487.460938 441.113281 C 501.28125 446.449219 515.578125 440.8125 528.777344 435.097656 C 557.898438 421.40625 580.082031 384.535156 582.789062 343.3125 C 585.105469 321.007812 582.539062 297.8125 575.007812 277.617188 C 579.300781 280.644531 584.71875 292.519531 587.917969 300.503906 C 599.027344 329.226562 599.535156 363.644531 592.996094 394.292969 C 584.121094 433.292969 561.769531 467.457031 532.222656 479.875 C 518.8125 485.71875 504.554688 487.5 490.515625 486.515625 Z M 490.515625 486.511719 "/>
<path style=" stroke:none;fill-rule:nonzero;fill:rgb(81.176472%,6.666667%,14.901961%);fill-opacity:1;" d="M 355.570312 435.308594 C 353.8125 434.945312 351.878906 437.25 352.539062 439.660156 C 353.804688 442.101562 355.988281 443.292969 357.953125 444.460938 C 362.671875 446.980469 367.800781 447.964844 372.867188 447.800781 C 371.121094 447.792969 373.464844 447.824219 374.117188 447.800781 C 378.125 447.816406 382.113281 446.851562 385.882812 445.039062 C 387.980469 444.054688 390.648438 443.164062 391.507812 440.070312 C 392.347656 438.054688 390.828125 436.042969 389.296875 436.449219 C 387.164062 437.070312 385.167969 438.359375 383.054688 439.09375 C 378.488281 440.8125 373.683594 441.476562 368.953125 440.957031 C 365.496094 440.394531 362.144531 438.917969 358.949219 437.121094 C 357.839844 436.46875 356.796875 435.515625 355.570312 435.308594 Z M 355.570312 435.308594 "/>
<path style=" stroke:none;fill-rule:nonzero;fill:rgb(81.176472%,6.666667%,14.901961%);fill-opacity:1;" d="M 357.519531 425.695312 C 355.746094 425.339844 354.21875 428.066406 354.957031 430.242188 C 356.320312 432.878906 358.613281 434.285156 360.761719 435.519531 C 364.488281 437.511719 368.539062 438.34375 372.546875 438.183594 C 371.027344 438.179688 373.070312 438.207031 373.636719 438.183594 C 377.042969 438.1875 380.433594 437.289062 383.582031 435.558594 C 385.507812 434.5625 387.867188 433.59375 388.667969 430.765625 C 389.292969 429.210938 388.816406 426.949219 387.351562 426.828125 C 386.011719 426.742188 384.855469 427.878906 383.613281 428.390625 C 379.113281 430.871094 374.15625 431.925781 369.300781 431.367188 C 366.273438 430.847656 363.382812 429.359375 360.640625 427.632812 C 359.609375 426.96875 358.679688 425.933594 357.519531 425.695312 Z M 357.519531 425.695312 "/>
<path style=" stroke:none;fill-rule:nonzero;fill:rgb(81.176472%,6.666667%,14.901961%);fill-opacity:1;" d="M 359.917969 416.476562 C 358.394531 416.234375 357.347656 418.523438 357.605469 420.351562 C 357.832031 421.957031 358.914062 423.035156 359.804688 424.019531 C 363.507812 427.628906 368.195312 429.167969 372.742188 428.964844 C 370.976562 428.957031 375.109375 429.003906 373.847656 428.960938 C 376.726562 428.945312 379.570312 428.003906 382.15625 426.34375 C 383.886719 425.339844 385.914062 424.179688 386.496094 421.546875 C 386.777344 420.320312 386.949219 418.558594 385.914062 417.867188 C 384.828125 417.058594 383.75 418.304688 382.761719 418.808594 C 379.4375 421.066406 375.730469 422.324219 371.992188 422.300781 C 368.761719 422.445312 365.71875 420.632812 362.917969 418.679688 C 361.902344 417.988281 361.0625 416.789062 359.917969 416.476562 Z M 359.917969 416.476562 "/>
<path style=" stroke:none;fill-rule:nonzero;fill:rgb(81.176472%,6.666667%,14.901961%);fill-opacity:1;" d="M 334.394531 280.417969 C 332.132812 283.4375 333.859375 289.007812 333.738281 292.964844 C 334.910156 305.152344 336.367188 317.5 339.777344 328.972656 C 343.957031 340.183594 352.828125 346.179688 358.203125 356.085938 C 360.125 360.863281 359.445312 366.605469 359.847656 371.828125 C 360.167969 386.0625 360.066406 400.308594 359.882812 414.546875 C 364.699219 417.769531 369.933594 421.019531 375.476562 419.777344 C 378.761719 418.730469 384.859375 418.078125 385.542969 413.714844 C 385.277344 389.167969 385.105469 364.609375 384.859375 340.0625 C 382.992188 332.542969 377.253906 328.648438 372.964844 323.835938 C 369.421875 319.179688 366.128906 314.171875 363.113281 308.921875 C 361.292969 304.832031 354.175781 303.355469 356.75 310.476562 C 358.257812 316.640625 362.109375 321.230469 363.074219 327.710938 C 363.285156 331.257812 366.460938 337.789062 363.75 339.859375 C 362.027344 335.945312 359.527344 332.617188 356.332031 330.632812 C 353.253906 327.570312 348.167969 326.296875 347.054688 320.890625 C 346.242188 313.21875 343.296875 306.269531 339.496094 300.523438 C 340.476562 293.632812 339.5 285.019531 335.035156 280.613281 Z M 334.394531 280.417969 "/>
<path style=" stroke:none;fill-rule:nonzero;fill:rgb(81.176472%,6.666667%,14.901961%);fill-opacity:1;" d="M 341.277344 281.796875 C 339.21875 282.242188 339.289062 285.738281 340.242188 287.578125 C 341.253906 291.550781 341.53125 295.863281 340.984375 300 C 344.640625 305.710938 347.472656 312.546875 348.328125 320.046875 C 348.347656 322.867188 350.570312 323.800781 352.015625 325.191406 C 355.398438 328.066406 359.199219 330.152344 362.210938 333.746094 C 362.847656 334.648438 363.324219 335.625 362.875 333.777344 C 362.40625 331.417969 362.164062 328.816406 360.777344 327.03125 C 358.878906 324.308594 356.507812 321.875 353.742188 321.046875 C 353.511719 317.234375 352.152344 313.734375 350.894531 310.363281 C 349.5 307.140625 348.042969 303.6875 345.65625 301.597656 C 345.753906 295.949219 345.683594 290.023438 343.863281 284.808594 C 343.328125 283.46875 342.539062 281.878906 341.277344 281.796875 Z M 341.277344 281.796875 "/>
<path style=" stroke:none;fill-rule:nonzero;fill:rgb(81.176472%,6.666667%,14.901961%);fill-opacity:1;" d="M 347.035156 284.050781 C 345.601562 284.617188 345.875 286.976562 346.328125 288.417969 C 347.015625 292.417969 347.125 296.546875 347.066406 300.632812 C 349.699219 303.410156 351.347656 307.441406 352.847656 311.367188 C 353.785156 313.988281 354.675781 316.695312 355.039062 319.578125 C 357.171875 320.523438 359.042969 322.308594 360.710938 324.28125 C 360.050781 321.609375 358.574219 319.542969 357.585938 317.105469 C 356.507812 314.570312 355.476562 311.925781 355.019531 309.054688 C 352.96875 306.128906 351.835938 301.984375 352.285156 297.984375 C 352.375 293.558594 351.304688 288.984375 349.085938 285.652344 C 348.527344 284.917969 347.859375 284.105469 347.035156 284.050781 Z M 347.035156 284.050781 "/>
<path style=" stroke:none;fill-rule:nonzero;fill:rgb(81.176472%,6.666667%,14.901961%);fill-opacity:1;" d="M 353.582031 285.300781 C 352.804688 285.484375 352.328125 286.472656 351.914062 287.28125 C 351.75 288.089844 352.492188 288.957031 352.613281 289.835938 C 353.523438 292.886719 353.867188 296.230469 353.597656 299.496094 C 353.535156 301.8125 354.15625 304.078125 355.042969 306.039062 C 355.296875 304.59375 356.304688 303.550781 357.394531 303.410156 C 357.792969 303.316406 358.375 303.582031 358.144531 302.777344 C 357.867188 298.34375 357.359375 293.882812 356.199219 289.695312 C 355.746094 288.199219 355.238281 286.625 354.265625 285.601562 C 354.066406 285.414062 353.832031 285.253906 353.582031 285.300781 Z M 353.582031 285.300781 "/>
<path style=" stroke:none;fill-rule:nonzero;fill:rgb(81.176472%,6.666667%,14.901961%);fill-opacity:1;" d="M 644.429688 435.308594 C 646.1875 434.945312 648.121094 437.25 647.460938 439.660156 C 646.195312 442.101562 644.011719 443.292969 642.046875 444.460938 C 637.328125 446.980469 632.199219 447.964844 627.132812 447.800781 C 628.878906 447.792969 626.535156 447.824219 625.882812 447.800781 C 621.875 447.816406 617.886719 446.851562 614.117188 445.039062 C 612.019531 444.054688 609.351562 443.164062 608.492188 440.070312 C 607.652344 438.054688 609.171875 436.042969 610.703125 436.449219 C 612.835938 437.070312 614.832031 438.359375 616.945312 439.09375 C 621.511719 440.8125 626.316406 441.476562 631.046875 440.957031 C 634.503906 440.394531 637.855469 438.917969 641.050781 437.121094 C 642.160156 436.46875 643.203125 435.515625 644.429688 435.308594 Z M 644.429688 435.308594 "/>
<path style=" stroke:none;fill-rule:nonzero;fill:rgb(81.176472%,6.666667%,14.901961%);fill-opacity:1;" d="M 642.480469 425.695312 C 644.253906 425.339844 645.78125 428.066406 645.042969 430.242188 C 643.679688 432.878906 641.386719 434.285156 639.238281 435.519531 C 635.511719 437.511719 631.460938 438.34375 627.453125 438.183594 C 628.972656 438.179688 626.929688 438.207031 626.363281 438.183594 C 622.957031 438.1875 619.566406 437.289062 616.417969 435.558594 C 614.492188 434.5625 612.132812 433.59375 611.332031 430.765625 C 610.707031 429.210938 611.183594 426.949219 612.648438 426.828125 C 613.988281 426.742188 615.144531 427.878906 616.386719 428.390625 C 620.886719 430.871094 625.84375 431.925781 630.699219 431.367188 C 633.726562 430.847656 636.617188 429.359375 639.359375 427.632812 C 640.390625 426.96875 641.320312 425.933594 642.480469 425.695312 Z M 642.480469 425.695312 "/>
<path style=" stroke:none;fill-rule:nonzero;fill:rgb(81.176472%,6.666667%,14.901961%);fill-opacity:1;" d="M 640.082031 416.476562 C 641.605469 416.234375 642.652344 418.523438 642.394531 420.351562 C 642.167969 421.957031 641.085938 423.035156 640.195312 424.019531 C 636.492188 427.628906 631.804688 429.167969 627.257812 428.964844 C 629.023438 428.957031 624.890625 429.003906 626.152344 428.960938 C 623.273438 428.945312 620.429688 428.003906 617.84375 426.34375 C 616.113281 425.339844 614.085938 424.179688 613.503906 421.546875 C 613.222656 420.320312 613.050781 418.558594 614.085938 417.867188 C 615.171875 417.058594 616.25 418.304688 617.238281 418.808594 C 620.5625 421.066406 624.269531 422.324219 628.007812 422.300781 C 631.238281 422.445312 634.28125 420.632812 637.082031 418.679688 C 638.097656 417.988281 638.9375 416.789062 640.082031 416.476562 Z M 640.082031 416.476562 "/>
<path style=" stroke:none;fill-rule:nonzero;fill:rgb(81.176472%,6.666667%,14.901961%);fill-opacity:1;" d="M 665.605469 280.417969 C 667.867188 283.4375 666.140625 289.007812 666.261719 292.964844 C 665.089844 305.152344 663.632812 317.5 660.222656 328.972656 C 656.042969 340.183594 647.171875 346.179688 641.796875 356.085938 C 639.875 360.863281 640.554688 366.605469 640.152344 371.828125 C 639.832031 386.0625 639.933594 400.308594 640.117188 414.546875 C 635.300781 417.769531 630.066406 421.019531 624.523438 419.777344 C 621.238281 418.730469 615.140625 418.078125 614.457031 413.714844 C 614.722656 389.167969 614.894531 364.609375 615.140625 340.0625 C 617.007812 332.542969 622.746094 328.648438 627.035156 323.835938 C 630.578125 319.179688 633.871094 314.171875 636.886719 308.921875 C 638.707031 304.832031 645.824219 303.355469 643.25 310.476562 C 641.742188 316.640625 637.890625 321.230469 636.925781 327.710938 C 636.714844 331.257812 633.539062 337.789062 636.25 339.859375 C 637.972656 335.945312 640.472656 332.617188 643.667969 330.632812 C 646.746094 327.570312 651.832031 326.296875 652.945312 320.890625 C 653.757812 313.21875 656.703125 306.269531 660.503906 300.523438 C 659.523438 293.632812 660.5 285.019531 664.964844 280.613281 Z M 665.605469 280.417969 "/>
<path style=" stroke:none;fill-rule:nonzero;fill:rgb(81.176472%,6.666667%,14.901961%);fill-opacity:1;" d="M 658.722656 281.796875 C 660.78125 282.242188 660.710938 285.738281 659.757812 287.578125 C 658.746094 291.550781 658.46875 295.863281 659.015625 300 C 655.359375 305.710938 652.527344 312.546875 651.671875 320.046875 C 651.652344 322.867188 649.429688 323.800781 647.984375 325.191406 C 644.601562 328.066406 640.800781 330.152344 637.789062 333.746094 C 637.152344 334.648438 636.675781 335.625 637.125 333.777344 C 637.59375 331.417969 637.835938 328.816406 639.222656 327.03125 C 641.121094 324.308594 643.492188 321.875 646.257812 321.046875 C 646.488281 317.234375 647.847656 313.734375 649.105469 310.363281 C 650.5 307.140625 651.957031 303.6875 654.34375 301.597656 C 654.246094 295.949219 654.316406 290.023438 656.136719 284.808594 C 656.671875 283.46875 657.460938 281.878906 658.722656 281.796875 Z M 658.722656 281.796875 "/>
<path style=" stroke:none;fill-rule:nonzero;fill:rgb(81.176472%,6.666667%,14.901961%);fill-opacity:1;" d="M 652.964844 284.050781 C 654.398438 284.617188 654.125 286.976562 653.671875 288.417969 C 652.984375 292.417969 652.875 296.546875 652.933594 300.632812 C 650.300781 303.410156 648.652344 307.441406 647.152344 311.367188 C 646.214844 313.988281 645.324219 316.695312 644.960938 319.578125 C 642.828125 320.523438 640.957031 322.308594 639.289062 324.28125 C 639.949219 321.609375 641.425781 319.542969 642.414062 317.105469 C 643.492188 314.570312 644.523438 311.925781 644.980469 309.054688 C 647.03125 306.128906 648.164062 301.984375 647.714844 297.984375 C 647.625 293.558594 648.695312 288.984375 650.914062 285.652344 C 651.472656 284.917969 652.140625 284.105469 652.964844 284.050781 Z M 652.964844 284.050781 "/>
<path style=" stroke:none;fill-rule:nonzero;fill:rgb(81.176472%,6.666667%,14.901961%);fill-opacity:1;" d="M 646.417969 285.300781 C 647.195312 285.484375 647.671875 286.472656 648.085938 287.28125 C 648.25 288.089844 647.507812 288.957031 647.386719 289.835938 C 646.476562 292.886719 646.132812 296.230469 646.402344 299.496094 C 646.464844 301.8125 645.84375 304.078125 644.957031 306.039062 C 644.703125 304.59375 643.695312 303.550781 642.605469 303.410156 C 642.207031 303.316406 641.625 303.582031 641.855469 302.777344 C 642.132812 298.34375 642.640625 293.882812 643.800781 289.695312 C 644.253906 288.199219 644.761719 286.625 645.734375 285.601562 C 645.933594 285.414062 646.167969 285.253906 646.417969 285.300781 Z M 646.417969 285.300781 "/>
<path style=" stroke:none;fill-rule:nonzero;fill:rgb(81.176472%,6.666667%,14.901961%);fill-opacity:1;" d="M 496.992188 440.941406 C 487.621094 439.753906 479.167969 430.640625 476.277344 418.710938 C 476.433594 416.652344 478.351562 419.859375 479.257812 420.074219 C 480.960938 421.335938 482.800781 422.371094 484.757812 422.535156 C 487.230469 423.949219 488.757812 427.199219 491.113281 428.890625 C 492.210938 430.027344 496.082031 432.265625 495.363281 428.644531 C 494.457031 426.757812 493.832031 424.363281 494.613281 422.199219 C 495.925781 418.351562 497.949219 415.003906 499.980469 411.796875 C 501.476562 411.132812 502.476562 415.066406 503.546875 416.390625 C 505.027344 419.425781 506.8125 423.132812 505.941406 426.90625 C 505.09375 428.304688 504.535156 432.507812 506.800781 431.09375 C 509.59375 429.457031 511.882812 426.703125 514.199219 424.132812 C 516.226562 422.242188 518.820312 422.109375 520.945312 420.453125 C 521.929688 420.121094 523.980469 417.492188 524.40625 418.949219 C 523.242188 423.109375 521.292969 426.832031 519.210938 430.261719 C 515.835938 435.402344 511.269531 439.269531 506.164062 440.363281 C 503.144531 441.097656 500.050781 441.253906 496.992188 440.941406 Z M 496.992188 440.941406 "/>
<path style=" stroke:none;fill-rule:nonzero;fill:rgb(81.176472%,6.666667%,14.901961%);fill-opacity:1;" d="M 508.007812 426.34375 C 508.214844 423.835938 507.785156 421.273438 506.824219 418.992188 C 505.351562 414.984375 503.269531 411.425781 501.238281 407.910156 C 499.324219 406.414062 498.261719 411.300781 496.988281 412.703125 C 495.003906 416.664062 492.511719 420.722656 492.390625 425.703125 C 491.277344 428.023438 489.195312 423.8125 488.296875 422.429688 C 486.582031 419.195312 485.285156 415.371094 485.5 411.324219 C 485.296875 404.808594 486.234375 398.316406 488.011719 392.257812 C 489.355469 387.085938 491.539062 382.0625 491.316406 376.414062 C 491.472656 372.160156 490.824219 367.464844 488.242188 364.605469 C 485.785156 362.035156 489.832031 361.488281 491.121094 362.820312 C 493.320312 363.015625 494.511719 367.867188 496.519531 366.667969 C 497.320312 364.132812 497.480469 361.109375 499.128906 359.136719 C 500.75 356.175781 502.445312 360.390625 503 362.367188 C 504.144531 364.101562 502.933594 368.394531 504.792969 368.507812 C 507.019531 366.425781 508.605469 362.925781 511.453125 362.164062 C 512.609375 361.289062 514.582031 362.046875 513.058594 363.820312 C 510.953125 366.453125 509.152344 369.75 508.769531 373.667969 C 508.125 378.585938 509.046875 383.570312 510.652344 388 C 513.738281 396.699219 516.128906 406.523438 514.566406 416.203125 C 513.839844 420.503906 511.648438 424.210938 508.988281 426.707031 C 508.652344 426.980469 508.121094 426.960938 508.007812 426.34375 Z M 508.007812 426.34375 "/>
<path style=" stroke:none;fill-rule:nonzero;fill:rgb(81.176472%,6.666667%,14.901961%);fill-opacity:1;" d="M 504.671875 360.949219 C 503.664062 358.519531 502.433594 356.121094 500.734375 354.46875 C 499.082031 354.464844 498.058594 357.246094 496.9375 358.703125 C 496.148438 360.660156 495.191406 363.929688 493.253906 361.371094 C 490.167969 358.96875 489.621094 353.707031 489.640625 349.367188 C 489.445312 342.335938 491.570312 335.773438 493.453125 329.371094 C 494.652344 325.359375 494.359375 320.847656 493.625 316.738281 C 492.707031 312.023438 489.867188 308.75 487.683594 305.070312 C 487.832031 303.648438 490.621094 304.425781 491.671875 304.695312 C 494.007812 305.484375 495.402344 308.242188 497.140625 310.1875 C 498.375 309.6875 497.871094 306.351562 498.449219 304.78125 C 498.488281 302.578125 500.691406 299.667969 501.601562 302.828125 C 502.960938 304.835938 501.558594 308.816406 503.316406 310.066406 C 504.988281 309.238281 505.816406 306.796875 507.390625 305.691406 C 508.9375 304.285156 511.125 304.128906 512.789062 305.234375 C 513.378906 307.28125 510.957031 308.988281 510.257812 310.769531 C 507.441406 315.40625 506.453125 321.804688 507.660156 327.550781 C 508.613281 332.054688 510.308594 336.261719 510.890625 340.921875 C 511.59375 346.15625 511.570312 351.65625 510.554688 356.816406 C 509.949219 359.949219 507.914062 362.042969 505.816406 363.34375 C 505.296875 362.699219 505.023438 361.753906 504.671875 360.949219 Z M 504.671875 360.949219 "/>
<path style=" stroke:none;fill-rule:nonzero;fill:rgb(81.176472%,6.666667%,14.901961%);fill-opacity:1;" d="M 494.171875 302.828125 C 491.839844 300.546875 491.070312 298.371094 491.070312 294.0625 C 491.070312 291.859375 491.375 290.664062 492.464844 288.664062 C 494.070312 285.699219 493.777344 284.761719 491.507812 285.632812 C 487.855469 287.03125 486.109375 285.753906 485.984375 281.605469 C 485.929688 279.574219 486.25 278.714844 488.296875 275.433594 C 489.9375 272.804688 490.535156 271.421875 490.207031 270.988281 C 489.890625 270.5625 487.953125 272.804688 483.972656 278.203125 C 480.796875 282.511719 477.230469 286.910156 476.042969 287.988281 C 469.207031 294.136719 462.679688 295.09375 459.703125 290.359375 C 458.171875 287.941406 458.257812 286.578125 460.019531 285.113281 C 460.832031 284.449219 462.203125 282.910156 463.070312 281.695312 C 465.117188 278.851562 471.222656 272.980469 474.25 270.941406 C 476.707031 269.28125 477.292969 268.160156 475.695312 268.160156 C 473.625 268.160156 466.984375 273.925781 461.953125 280.09375 C 460.472656 281.917969 458.339844 283.949219 457.222656 284.605469 C 454.707031 286.085938 449.769531 286.632812 447.578125 285.671875 C 446.027344 284.984375 443.203125 281.425781 443.203125 280.160156 C 443.203125 279.824219 443.847656 279.082031 444.632812 278.519531 C 445.417969 277.964844 446.828125 276.601562 447.757812 275.515625 C 451.785156 270.800781 459.417969 265.949219 465.472656 264.253906 C 467.394531 263.714844 466.6875 262.417969 464.542969 262.546875 C 460.382812 262.789062 452.125 267.949219 447.195312 273.378906 C 441.417969 279.730469 432.703125 279.128906 429.894531 272.183594 C 429.410156 270.988281 429.125 269.867188 429.265625 269.691406 C 429.394531 269.515625 431.109375 268.828125 433.078125 268.160156 C 435.203125 267.449219 439.410156 265.125 443.429688 262.445312 C 449.757812 258.238281 451.632812 257.339844 455.984375 256.40625 C 457.945312 255.988281 458.046875 254.710938 456.144531 254.414062 C 453.695312 254.023438 449.9375 255.664062 443.296875 260.019531 C 434.769531 265.613281 432.382812 266.578125 427.890625 266.226562 C 423.792969 265.890625 421.480469 264.492188 418.152344 260.296875 C 415.980469 257.546875 412.894531 250.558594 413.5 249.753906 C 413.644531 249.558594 414.644531 249.753906 415.722656 250.171875 C 416.917969 250.644531 420.339844 250.957031 424.464844 250.96875 C 430.234375 250.988281 431.769531 250.78125 434.847656 249.597656 C 439.992188 247.613281 446.832031 242.972656 451.515625 238.3125 C 460.464844 229.382812 467.765625 225.796875 477.070312 225.742188 C 485.660156 225.695312 491.125 228.34375 495.964844 234.894531 C 497.605469 237.109375 499 238.546875 499.230469 238.238281 C 499.445312 237.953125 499.679688 234.078125 499.75 229.632812 C 499.75 229.632812 502.277344 229.308594 502.8125 230.253906 C 502.8125 237.46875 502.875 238.035156 503.660156 238.035156 C 504.171875 238.035156 504.722656 237.332031 505.0625 236.238281 C 505.796875 233.875 508.519531 230.644531 511.429688 228.679688 C 517.714844 224.425781 528.589844 224.296875 537.328125 228.363281 C 541.007812 230.085938 545.089844 233.164062 548.980469 237.164062 C 552.882812 241.167969 560.859375 246.519531 565.578125 248.308594 C 570.347656 250.117188 578.757812 250.570312 583.070312 249.261719 C 584.847656 248.726562 586.515625 248.28125 586.777344 248.28125 C 588.367188 248.28125 585.660156 255.351562 582.480469 259.492188 C 576.667969 267.070312 569.105469 267.03125 558.464844 259.378906 C 551.832031 254.617188 543.902344 252.015625 543.902344 254.609375 C 543.902344 255.144531 544.320312 255.507812 544.9375 255.507812 C 547.242188 255.507812 551.695312 257.574219 557.902344 261.5 C 564.617188 265.761719 568.390625 267.558594 570.625 267.558594 C 572.25 267.558594 572.296875 268.902344 570.785156 271.867188 C 569.179688 275.027344 566.457031 276.59375 562.609375 276.582031 C 558.9375 276.5625 556.894531 275.488281 553.609375 271.847656 C 548.117188 265.753906 534.429688 258.953125 534.957031 262.585938 C 535.0625 263.308594 535.722656 263.753906 537.132812 264.039062 C 541.894531 265.011719 547.484375 268.570312 553.207031 274.285156 C 554.972656 276.054688 556.804688 277.796875 557.269531 278.167969 C 558.054688 278.777344 558.070312 278.964844 557.453125 280.511719 C 556.421875 283.066406 553.832031 285.050781 551.027344 285.4375 C 547.394531 285.9375 544.234375 284.492188 540.964844 280.84375 C 534.0625 273.136719 527.554688 267.558594 525.472656 267.558594 C 523.769531 267.558594 524.535156 268.808594 527.535156 270.933594 C 531.480469 273.71875 535.535156 277.492188 538.519531 281.148438 C 539.929688 282.890625 541.519531 284.613281 542.046875 284.996094 C 543.296875 285.882812 543.25 287.191406 541.875 289.589844 C 540.472656 292.035156 538.152344 293.109375 535.144531 292.683594 C 529.144531 291.839844 524.464844 287.976562 517.109375 277.796875 C 514.234375 273.820312 511.671875 270.570312 511.410156 270.570312 C 510.429688 270.570312 511.007812 272.339844 512.902344 275.175781 C 515.25 278.675781 515.703125 280.648438 514.8125 283.492188 C 514.027344 286.011719 512.722656 286.597656 510.042969 285.632812 C 507.296875 284.640625 506.867188 285.539062 508.667969 288.523438 C 511.347656 292.980469 510.953125 298.4375 507.667969 302.1875 C 506.644531 303.347656 505.578125 304.300781 505.285156 304.300781 C 505 304.300781 504.277344 303.308594 503.671875 302.09375 C 501.5625 297.816406 499.707031 297.84375 497.652344 302.167969 C 496.9375 303.679688 496.332031 304.902344 496.3125 304.894531 C 496.285156 304.882812 495.320312 303.957031 494.171875 302.828125 Z M 494.171875 302.828125 "/>
<path style=" stroke:none;fill-rule:nonzero;fill:rgb(81.176472%,6.666667%,14.901961%);fill-opacity:1;" d="M 504.632812 215.875 L 501.070312 219.636719 L 497.875 216.421875 L 497.875 242.121094 L 504.632812 242.230469 Z M 504.632812 215.875 "/>
<path style=" stroke:none;fill-rule:nonzero;fill:rgb(81.176472%,6.666667%,14.901961%);fill-opacity:1;" d="M 482.5625 189.214844 C 481.855469 201.359375 479.542969 209.835938 476.328125 219.183594 L 484.035156 209.652344 L 489.394531 218.144531 L 495.203125 209.503906 L 501.125 216.804688 L 506.820312 209.207031 L 512.734375 218.441406 L 517.875 210.847656 L 526.582031 219.183594 C 523.421875 209.835938 519.144531 201.914062 519.679688 188.761719 C 511.242188 197.125 491.195312 198.636719 482.5625 189.214844 Z M 482.5625 189.214844 "/>
<path style=" stroke:none;fill-rule:nonzero;fill:rgb(81.176472%,6.666667%,14.901961%);fill-opacity:1;" d="M 497.882812 183.015625 C 494.785156 183.089844 491.519531 183.148438 488.582031 183.914062 C 486.546875 184.453125 484.703125 185.332031 483.160156 186.789062 C 483.410156 194.691406 511.632812 197.988281 519.203125 186.9375 C 517.609375 185.390625 515.667969 184.472656 513.527344 183.914062 C 510.703125 183.183594 507.578125 183.109375 504.609375 183.046875 C 504.609375 185.214844 504.625 187.390625 504.625 189.566406 L 497.882812 189.539062 Z M 497.882812 183.015625 "/>
<path style=" stroke:none;fill-rule:nonzero;fill:rgb(81.176472%,6.666667%,14.901961%);fill-opacity:1;" d="M 503.402344 142.636719 L 499.019531 142.683594 L 499.019531 188.425781 L 503.492188 188.457031 Z M 503.402344 142.636719 "/>
<path style=" stroke:none;fill-rule:nonzero;fill:rgb(81.176472%,6.666667%,14.901961%);fill-opacity:1;" d="M 503.394531 143.8125 L 501.722656 165.710938 L 518.609375 176.71875 L 510.0625 161.46875 L 521.734375 156.421875 Z M 503.394531 143.8125 "/>
<path style=" stroke:none;fill-rule:nonzero;fill:rgb(81.176472%,6.666667%,14.901961%);fill-opacity:1;" d="M 501.515625 138.105469 C 498.953125 138.105469 497.054688 139.382812 497.054688 140.902344 C 497.054688 142.421875 498.953125 143.710938 501.515625 143.710938 C 504.078125 143.710938 505.957031 142.421875 505.957031 140.902344 C 505.957031 139.382812 504.078125 138.105469 501.515625 138.105469 Z M 501.515625 138.105469 "/>
<path style=" stroke:none;fill-rule:nonzero;fill:rgb(96.862745%,87.843138%,9.019608%);fill-opacity:1;" d="M 493.785156 522.316406 C 496.554688 521.09375 498.132812 518.851562 499.265625 514.535156 C 499.828125 512.386719 500.207031 510.152344 500.109375 509.570312 C 499.875 508.1875 498.679688 508.261719 497.359375 509.726562 C 496.457031 510.738281 496.347656 511.246094 496.605469 513.304688 C 497.265625 518.492188 495.882812 519.777344 488.519531 520.835938 C 487.792969 520.9375 485.679688 520.769531 483.820312 520.464844 C 480.320312 519.878906 479.070312 520.34375 480.339844 521.75 C 480.722656 522.175781 481.695312 522.753906 482.5 523.019531 C 484.464844 523.695312 491.679688 523.242188 493.785156 522.316406 Z M 493.785156 522.316406 "/>
<path style=" stroke:none;fill-rule:nonzero;fill:rgb(96.862745%,87.843138%,9.019608%);fill-opacity:1;" d="M 509.042969 521.453125 C 509.457031 520.945312 510.890625 520.066406 512.222656 519.492188 C 514 518.730469 514.917969 517.917969 515.667969 516.425781 C 517.828125 512.136719 517.421875 508.4375 514.25 503.457031 C 512.527344 500.75 511.765625 500.824219 510.390625 503.824219 C 509.203125 506.417969 509.230469 506.585938 510.9375 507.179688 C 511.832031 507.484375 512.695312 508.363281 513.167969 509.449219 C 515.027344 513.746094 514.480469 516.40625 511.722656 516.433594 C 509.222656 516.460938 508.535156 516.933594 507.859375 519.09375 C 507.507812 520.214844 507.222656 521.410156 507.222656 521.75 C 507.222656 522.660156 508.167969 522.5 509.042969 521.453125 Z M 509.042969 521.453125 "/>
<path style=" stroke:none;fill-rule:nonzero;fill:rgb(96.862745%,87.843138%,9.019608%);fill-opacity:1;" d="M 504.035156 516.601562 C 504.507812 514.894531 504.671875 511.828125 504.617188 505.578125 C 504.582031 500.816406 504.445312 496.777344 504.304688 496.589844 C 503.890625 496.035156 501.832031 497.804688 501.5625 498.945312 C 501.421875 499.535156 501.652344 500.90625 502.070312 501.980469 C 502.707031 503.640625 502.792969 505.1875 502.597656 511.679688 C 502.347656 519.890625 502.75 521.269531 504.035156 516.601562 Z M 504.035156 516.601562 "/>
<path style=" stroke:none;fill-rule:nonzero;fill:rgb(96.862745%,87.843138%,9.019608%);fill-opacity:1;" d="M 492.285156 512.691406 C 492.535156 511.164062 492.855469 508.03125 493 505.742188 C 493.144531 503.457031 493.5 500.566406 493.777344 499.3125 C 494.484375 496.109375 493.769531 495.265625 491.875 497.0625 L 490.464844 498.40625 L 490.757812 503.011719 C 491.027344 507.160156 490.535156 514.894531 489.820312 517.898438 C 489.625 518.695312 489.902344 518.492188 490.6875 517.269531 C 491.320312 516.285156 492.042969 514.21875 492.285156 512.691406 Z M 492.285156 512.691406 "/>
<path style=" stroke:none;fill-rule:nonzero;fill:rgb(96.862745%,87.843138%,9.019608%);fill-opacity:1;" d="M 481.859375 514.925781 C 484.398438 512.09375 484.105469 507.261719 484.667969 503.324219 C 484.609375 500.707031 485.917969 497.570312 485.074219 495.28125 C 482.703125 495.859375 481.242188 498.855469 482.457031 501.835938 C 482.558594 505.296875 482.464844 509.070312 481.132812 512.128906 C 480.039062 514.132812 476.589844 513.632812 476.746094 510.796875 C 477.613281 506.527344 473.78125 508.605469 472.285156 509.722656 C 471.128906 510.796875 468.683594 510.878906 469.535156 508.1875 C 468.972656 504.609375 465.519531 506.847656 463.644531 506.832031 C 461.871094 506.789062 463.496094 502.042969 460.953125 502.875 C 456.226562 502.378906 451.011719 502.929688 446.917969 499.121094 C 444.523438 497.585938 444.878906 493.746094 446.125 491.257812 C 447.617188 487.863281 448.039062 483.617188 450.402344 480.980469 C 452.742188 477.988281 448.195312 479.253906 447.171875 480.261719 C 444.894531 481.925781 447.011719 486.210938 445.144531 488.589844 C 444.054688 491.054688 442.621094 494.457031 440.097656 493.988281 C 436.457031 493.070312 434.359375 488.554688 431.753906 485.527344 C 429.519531 484.933594 430.773438 490.367188 431.929688 491.507812 C 434.210938 493.789062 436.878906 495.449219 439.628906 496.433594 C 442.371094 495.851562 442.457031 500.636719 444.800781 501.386719 C 449.097656 504.058594 453.886719 504.855469 458.574219 505.183594 C 460.414062 505.386719 459.378906 509.761719 461.800781 508.898438 C 463.152344 509.363281 466.207031 508.226562 466.359375 510.320312 C 464.308594 513.570312 468.328125 513.496094 469.816406 512.914062 C 471.71875 512.527344 474.152344 511.558594 474.65625 515.039062 C 476.246094 517.273438 479.164062 516.945312 481.101562 515.664062 C 481.375 515.457031 481.628906 515.207031 481.859375 514.925781 Z M 481.859375 514.925781 "/>
<path style=" stroke:none;fill-rule:nonzero;fill:rgb(96.862745%,87.843138%,9.019608%);fill-opacity:1;" d="M 440.359375 486.882812 C 441.132812 485.574219 442.285156 482.9375 442.921875 481.007812 C 443.554688 479.074219 444.507812 476.878906 445.027344 476.125 C 446.25 474.367188 445.570312 473.28125 443.597656 473.867188 C 442.554688 474.171875 442.132812 474.683594 441.957031 475.886719 C 441.367188 479.8125 440.296875 483.835938 439.347656 485.707031 C 437.625 489.097656 437.582031 489.234375 438.292969 489.234375 C 438.660156 489.234375 439.589844 488.179688 440.359375 486.882812 Z M 440.359375 486.882812 "/>
<path style=" stroke:none;fill-rule:nonzero;fill:rgb(96.862745%,87.843138%,9.019608%);fill-opacity:1;" d="M 414.347656 465.128906 C 412.402344 465.128906 412.320312 466.769531 414.214844 467.648438 C 415.132812 468.078125 415.910156 469.105469 416.535156 470.78125 C 418.382812 475.683594 419.464844 476.554688 424.367188 477.117188 L 427.515625 477.496094 L 427.667969 480.046875 C 427.742188 481.453125 427.992188 482.621094 428.234375 482.621094 C 428.480469 482.621094 429.695312 481.917969 430.921875 481.082031 C 433.230469 479.527344 435.417969 475.894531 435.417969 473.644531 C 435.417969 472.171875 433.578125 470.578125 431.902344 470.578125 C 431.160156 470.578125 429.742188 471.375 428.625 472.457031 C 425.125 475.839844 421.382812 475.152344 419.332031 470.753906 C 417.652344 467.121094 415.894531 465.128906 414.347656 465.128906 Z M 431.332031 474.164062 C 432.265625 474.164062 432.492188 475.078125 431.984375 476.832031 C 431.640625 478.035156 430.507812 478.070312 430.167969 476.886719 C 429.765625 475.488281 430.328125 474.164062 431.332031 474.164062 Z M 431.332031 474.164062 "/>
<path style=" stroke:none;fill-rule:nonzero;fill:rgb(96.862745%,87.843138%,9.019608%);fill-opacity:1;" d="M 563.082031 468.464844 C 561.8125 468.53125 561.4375 468.902344 560.632812 470.496094 C 559.3125 473.105469 559.179688 478.765625 560.394531 480.769531 C 561.152344 482.007812 561.265625 482.039062 562.867188 481.148438 C 565.105469 479.898438 565.480469 479.945312 565.472656 481.546875 C 565.457031 485.640625 561.054688 493.535156 556.445312 497.730469 C 555.203125 498.859375 554.089844 500.121094 553.972656 500.539062 C 553.640625 501.703125 555.347656 501.445312 557.445312 500.019531 C 560.304688 498.074219 564.0625 492.960938 565.605469 488.929688 C 566.828125 485.714844 567 484.621094 567.144531 479 C 567.277344 473.820312 567.171875 472.300781 566.515625 470.578125 C 565.777344 468.640625 565.542969 468.464844 563.695312 468.464844 C 563.472656 468.464844 563.269531 468.457031 563.082031 468.464844 Z M 563.234375 472.078125 C 564.195312 472.078125 564.359375 472.367188 564.472656 474.199219 C 564.570312 475.71875 564.367188 476.644531 563.734375 477.40625 C 562.875 478.441406 562.804688 478.433594 562.042969 476.886719 C 560.972656 474.699219 561.632812 472.078125 563.234375 472.078125 Z M 563.234375 472.078125 "/>
<path style=" stroke:none;fill-rule:nonzero;fill:rgb(96.862745%,87.843138%,9.019608%);fill-opacity:1;" d="M 542.152344 511.617188 C 546.214844 508.949219 548.609375 505.949219 550.152344 501.601562 C 550.882812 499.535156 551.480469 497.589844 551.480469 497.257812 C 551.480469 496.507812 549.480469 495.265625 548.277344 495.265625 C 547.082031 495.265625 546.839844 494.164062 547.355469 491.117188 C 547.855469 488.140625 547.25 484.417969 546.269531 484.417969 C 545.917969 484.417969 545.292969 485.113281 544.875 485.957031 C 544.234375 487.261719 544.203125 487.816406 544.671875 489.71875 C 545.367188 492.53125 544.820312 494.636719 542.929688 496.433594 C 542.035156 497.285156 541.542969 498.265625 541.542969 499.222656 C 541.542969 500.027344 541.617188 500.683594 541.707031 500.683594 C 541.804688 500.683594 542.792969 500 543.902344 499.175781 L 545.929688 497.664062 L 547.125 498.914062 C 547.777344 499.601562 548.320312 500.722656 548.320312 501.40625 C 548.320312 504.707031 541.269531 510.246094 536.429688 510.765625 C 533.855469 511.042969 533.417969 510.921875 532.519531 509.734375 C 531.792969 508.761719 531.582031 507.949219 531.765625 506.800781 C 531.902344 505.917969 532.152344 504.316406 532.320312 503.242188 C 532.765625 500.371094 531.839844 500.757812 530.242188 504.113281 C 528.929688 506.882812 528.542969 509.839844 529.277344 511.394531 C 529.882812 512.664062 533.894531 513.878906 536.734375 513.644531 C 538.519531 513.507812 540.285156 512.839844 542.152344 511.617188 Z M 542.152344 511.617188 "/>
<path style=" stroke:none;fill-rule:nonzero;fill:rgb(96.862745%,87.843138%,9.019608%);fill-opacity:1;" d="M 569.265625 491.441406 C 571.820312 488.039062 572.902344 483.898438 572.917969 477.496094 L 572.921875 472.691406 L 575.035156 471.355469 C 577.777344 469.613281 580.375 466.148438 580.375 464.222656 C 580.375 462.242188 579.714844 462.34375 578.519531 464.5 C 577.652344 466.066406 576.492188 467.011719 572.25 469.613281 C 571.179688 470.273438 571.109375 470.625 570.867188 476.609375 C 570.582031 483.511719 569.882812 486.09375 566.992188 490.808594 C 565.222656 493.683594 565.160156 494.0625 566.390625 494.0625 C 566.894531 494.0625 568.1875 492.886719 569.265625 491.441406 Z M 569.265625 491.441406 "/>
<path style=" stroke:none;fill-rule:nonzero;fill:rgb(96.862745%,87.843138%,9.019608%);fill-opacity:1;" d="M 541.429688 487.585938 C 541.671875 486.59375 540.265625 485.890625 539.652344 486.695312 C 539.394531 487.039062 539.328125 487.632812 539.5 488.011719 C 539.902344 488.875 541.179688 488.585938 541.429688 487.585938 Z M 541.429688 487.585938 "/>
<path style=" stroke:none;fill-rule:nonzero;fill:rgb(96.862745%,87.843138%,9.019608%);fill-opacity:1;" d="M 579.8125 474.328125 C 580.0625 473.339844 578.644531 472.632812 578.042969 473.441406 C 577.777344 473.792969 577.707031 474.386719 577.882812 474.765625 C 578.285156 475.625 579.5625 475.339844 579.8125 474.328125 Z M 579.8125 474.328125 "/>
<path style=" stroke:none;fill-rule:nonzero;fill:rgb(96.862745%,87.843138%,9.019608%);fill-opacity:1;" d="M 533.617188 438.441406 C 532.625 439.070312 532.109375 440.503906 531.421875 441.59375 C 530.921875 442.042969 531.320312 442.464844 531.609375 442.890625 C 533.359375 445.40625 534.101562 448.804688 534.933594 451.976562 C 535.75 455.71875 536.777344 459.738281 535.925781 463.636719 C 535.589844 465.132812 534.707031 466.675781 533.390625 466.179688 C 531.289062 466.007812 529.21875 465.261719 527.105469 465.289062 C 525.226562 465.421875 523.777344 467.703125 521.855469 467.453125 C 520.628906 467.5625 520.679688 464.101562 519.539062 465.027344 C 518.976562 466.832031 519.253906 468.84375 519.1875 470.75 C 519.398438 471.023438 519.996094 470.785156 520.351562 470.867188 L 524.132812 470.867188 C 524.402344 472.605469 524.367188 474.605469 525.304688 475.988281 C 526.617188 476.613281 528.09375 476.074219 529.34375 475.394531 C 530.679688 474.5625 530.859375 472.417969 531.234375 470.746094 C 531.636719 468.953125 533.402344 469.421875 534.441406 468.71875 C 536.984375 467.726562 538.652344 464.199219 538.503906 460.726562 C 538.339844 455.425781 536.824219 450.4375 535.675781 445.421875 C 535.09375 443.210938 534.695312 440.90625 534.023438 438.746094 C 533.945312 438.5625 533.785156 438.40625 533.617188 438.441406 Z M 527.320312 468.753906 C 528.734375 468.628906 529.347656 470.949219 529.046875 472.484375 C 528.519531 474.574219 526.59375 473.234375 526.203125 471.730469 C 525.488281 470.382812 525.929688 468.574219 527.320312 468.753906 Z M 527.320312 468.753906 "/>
<path style=" stroke:none;fill-rule:nonzero;fill:rgb(96.862745%,87.843138%,9.019608%);fill-opacity:1;" d="M 474.957031 451.355469 C 474.328125 451.335938 473.617188 451.652344 472.917969 452.308594 C 469.230469 455.753906 468.285156 459.832031 470.792969 461.425781 C 472.632812 462.601562 472.167969 463.980469 469.269531 465.917969 C 465.125 468.679688 461.464844 468.335938 454.515625 464.5 C 452.804688 463.554688 452.359375 463.917969 452.757812 466 C 453.140625 468.046875 454.542969 469.167969 458.027344 470.226562 C 461.777344 471.375 466.3125 471.003906 469.230469 469.328125 C 470.652344 468.511719 472.339844 466.796875 473.765625 464.730469 L 476.019531 461.425781 L 478.644531 461.859375 C 481.882812 462.386719 481.945312 462.433594 481.945312 464.5 C 481.945312 466.140625 482.015625 466.175781 484.984375 466.546875 C 486.660156 466.761719 488.859375 466.957031 489.890625 466.957031 C 491.203125 466.964844 491.945312 467.269531 492.382812 468.085938 C 492.964844 469.167969 493.3125 469.226562 498.203125 468.640625 C 502.769531 468.085938 503.667969 468.132812 505.730469 469.066406 C 507.195312 469.734375 508.804688 470.003906 510.027344 469.828125 C 513.527344 469.300781 518.355469 465.484375 519.054688 462.675781 C 519.140625 462.332031 520.410156 461.730469 521.875 461.339844 C 525.410156 460.398438 525.5625 459.367188 522.265625 458.820312 C 520.832031 458.582031 518.6875 457.886719 517.492188 457.257812 C 516.292969 456.625 514.652344 456.097656 513.847656 456.097656 C 512.070312 456.097656 510.394531 457.582031 510.394531 459.109375 C 510.394531 460.109375 510.660156 460.210938 512.765625 459.925781 C 514.742188 459.65625 515.320312 459.804688 516.359375 460.90625 C 517.046875 461.628906 517.507812 462.480469 517.359375 462.785156 C 516.894531 463.796875 512.765625 466.308594 510.9375 466.695312 C 509.714844 466.957031 508.730469 466.78125 507.769531 466.121094 C 506.167969 465.011719 503.804688 464.84375 503.359375 465.796875 C 503.171875 466.214844 502.667969 465.945312 501.972656 465.074219 L 500.890625 463.714844 L 498.4375 465.074219 C 495.945312 466.457031 495.027344 466.398438 495.027344 464.816406 C 495.027344 464.09375 494.296875 464.007812 490.625 464.324219 C 486.578125 464.675781 486.152344 464.585938 485.394531 463.453125 C 484.695312 462.417969 484.679688 462.054688 485.179688 460.988281 C 485.640625 460.007812 485.640625 459.582031 485.203125 458.996094 C 484.765625 458.414062 484.195312 458.421875 482.597656 458.996094 C 478.570312 460.433594 477.429688 459.628906 477.429688 455.429688 C 477.429688 452.910156 476.347656 451.382812 474.957031 451.355469 Z M 473.957031 455.207031 C 474.171875 455.207031 474.355469 455.386719 474.632812 455.753906 C 474.984375 456.226562 475.171875 457.050781 475.019531 457.582031 C 474.660156 458.832031 472.953125 458.785156 472.589844 457.523438 C 472.417969 456.914062 472.640625 456.226562 473.152344 455.726562 C 473.515625 455.375 473.742188 455.199219 473.957031 455.207031 Z M 473.957031 455.207031 "/>
<path style=" stroke:none;fill-rule:nonzero;fill:rgb(96.862745%,87.843138%,9.019608%);fill-opacity:1;" d="M 466.734375 459.117188 C 469.1875 457.042969 469.132812 457.199219 469.484375 451.4375 C 469.730469 447.371094 469.6875 447.066406 468.859375 447.066406 C 467.660156 447.066406 467.035156 448.824219 467.035156 452.179688 C 467.035156 454.328125 466.785156 455.292969 465.921875 456.433594 C 463.882812 459.15625 458.8125 457.914062 458.171875 454.53125 C 457.957031 453.375 458.234375 452.328125 459.296875 450.316406 C 461.515625 446.121094 461.015625 445.09375 458.296875 448.28125 C 456.429688 450.457031 456.097656 450.519531 456.453125 448.640625 C 456.777344 446.910156 456.097656 446.222656 454.578125 446.734375 C 453.796875 446.992188 453.375 447.640625 453.1875 448.898438 C 453.007812 450.132812 452.582031 450.816406 451.847656 451.058594 C 450.617188 451.476562 448.519531 449.917969 448.519531 448.59375 C 448.519531 447.613281 451.660156 442.5 455.6875 436.921875 C 457.207031 434.808594 458.453125 432.847656 458.453125 432.550781 C 458.453125 432.253906 457.640625 432.011719 456.644531 432.011719 C 455.195312 432.011719 454.839844 432.226562 454.839844 433.125 C 454.839844 433.734375 452.8125 437.285156 450.328125 441.015625 C 445.144531 448.796875 444.714844 450.417969 447.277344 452.496094 C 449.339844 454.179688 451.984375 454.050781 454.0625 452.171875 L 455.742188 450.640625 L 455.742188 453.410156 C 455.742188 456.949219 456.269531 458.21875 458.355469 459.691406 C 460.972656 461.535156 464.140625 461.3125 466.734375 459.117188 Z M 466.734375 459.117188 "/>
<path style=" stroke:none;fill-rule:nonzero;fill:rgb(96.862745%,87.843138%,9.019608%);fill-opacity:1;" d="M 575.457031 411.03125 C 573.535156 412.558594 575.039062 415.777344 575.332031 417.910156 C 574.546875 420.824219 571.738281 421.609375 569.695312 422.152344 C 566.796875 422.792969 564.742188 426.027344 563.640625 429.464844 C 563.042969 431.695312 561.601562 435.15625 560.027344 431.757812 C 558.664062 429.910156 556.152344 428.445312 554.539062 430.601562 C 553.308594 432.160156 553 434.453125 552.542969 436.535156 C 551.816406 434.933594 551.492188 432.554688 549.957031 432.046875 C 547.507812 432.507812 548.394531 436.628906 549.546875 438.328125 C 550.59375 440.308594 551.597656 442.921875 550.570312 445.273438 C 549.667969 448.097656 546.539062 450.007812 544.699219 447.585938 C 542.984375 446.378906 544.128906 442.0625 542.441406 441.824219 C 541.605469 442.628906 541.535156 447.148438 540.195312 444.699219 C 539.230469 442.605469 539.742188 439.742188 538.5625 437.859375 C 537.164062 438.089844 536.042969 441.296875 536.507812 443.019531 C 538.371094 446.371094 539.136719 450.574219 539.863281 454.566406 C 540.316406 456.167969 539.796875 459.410156 540.917969 460.042969 C 541.695312 457.46875 540.972656 454.550781 541.585938 451.949219 C 543.402344 451.644531 545.425781 452.753906 547.332031 452.164062 C 550.058594 451.691406 552.167969 448.621094 553.125 445.351562 C 553.414062 442.890625 553.070312 440.398438 553.019531 437.925781 C 555.175781 438.371094 557.414062 438.359375 559.488281 439.292969 C 560.515625 441.398438 559.160156 444.339844 558.875 446.640625 C 557.792969 451.320312 555.046875 454.71875 552.371094 457.847656 C 551.253906 458.730469 551.105469 461.066406 552.753906 459.808594 C 556.347656 457.757812 559.027344 453.417969 560.566406 448.71875 C 561.691406 445.105469 560.785156 441.078125 561.519531 437.382812 C 562.605469 434.609375 565.214844 435.191406 567.148438 435.203125 C 569.148438 435.101562 570.855469 431.992188 570.1875 429.398438 C 569.550781 426.390625 571.933594 424.945312 573.566406 423.867188 C 575.726562 422.414062 577.382812 419.460938 577.214844 416.125 C 577.128906 414.421875 577.191406 411.1875 575.457031 411.03125 Z M 567.796875 428.398438 C 570.113281 429.21875 567.378906 435.117188 566.148438 431.382812 C 565.769531 429.957031 566.667969 428.347656 567.796875 428.398438 Z M 557.054688 432.625 C 560.066406 432.390625 558.984375 438.257812 556.441406 435.59375 C 555.121094 434.707031 555.558594 432.515625 557.054688 432.625 Z M 557.054688 432.625 "/>
<path style=" stroke:none;fill-rule:nonzero;fill:rgb(96.862745%,87.843138%,9.019608%);fill-opacity:1;" d="M 447.984375 455.300781 C 448.070312 454.71875 447.847656 454.300781 447.453125 454.300781 C 446.609375 454.300781 446.105469 455.28125 446.5 456.136719 C 446.910156 457.015625 447.8125 456.515625 447.984375 455.300781 Z M 447.984375 455.300781 "/>
<path style=" stroke:none;fill-rule:nonzero;fill:rgb(96.862745%,87.843138%,9.019608%);fill-opacity:1;" d="M 483.292969 450.039062 C 483.292969 449.179688 483.046875 448.855469 482.507812 448.992188 C 481.328125 449.289062 481.195312 451.289062 482.355469 451.289062 C 483 451.289062 483.292969 450.902344 483.292969 450.039062 Z M 483.292969 450.039062 "/>
<path style=" stroke:none;fill-rule:nonzero;fill:rgb(96.862745%,87.843138%,9.019608%);fill-opacity:1;" d="M 439.605469 421.765625 C 438.195312 421.378906 437.308594 422.972656 436.828125 424.488281 C 435.773438 426.851562 434.484375 429.265625 432.59375 430.515625 C 431.234375 431.023438 429.753906 430.332031 428.578125 429.394531 C 427.179688 428.46875 427.5 426.222656 426.898438 424.671875 C 425.886719 423.613281 424.09375 425.128906 424.132812 426.777344 C 424.019531 428.984375 425.570312 430.261719 426.859375 431.117188 C 427.953125 432.011719 429.535156 432.507812 429.972656 434.316406 C 429.945312 435.851562 430.40625 437.613281 431.808594 437.019531 C 433.378906 436.984375 433.785156 439.535156 433.152344 441.0625 C 432.507812 442.789062 432.070312 444.808594 432.378906 446.730469 C 433.128906 447.570312 433.894531 445.3125 434.4375 444.667969 C 434.808594 444.007812 435.175781 443.351562 435.546875 442.695312 C 438.324219 442.898438 441.097656 443.371094 443.878906 443.238281 C 445.859375 443.191406 447.546875 441.5625 448.804688 439.648438 C 450.585938 437.164062 452.046875 434.25 454.078125 432.105469 C 455.527344 431.636719 454.75 428 453.238281 429.050781 C 451.875 429.730469 451.449219 431.78125 450.503906 433.089844 C 448.898438 435.6875 447.257812 438.324219 445.230469 440.355469 C 443.753906 441.171875 442.054688 440.816406 440.539062 440.355469 C 439.90625 439.621094 441.796875 439.019531 442.058594 438.199219 C 442.929688 437.039062 443.960938 435.941406 444.464844 434.417969 C 443.984375 433.015625 442.507812 432.902344 441.46875 432.871094 C 438.910156 433.28125 436.957031 436.148438 434.371094 436.417969 C 432.410156 436.511719 433.429688 433.675781 434.316406 432.707031 C 436.046875 429.96875 437.914062 427.386719 439.722656 424.734375 C 440.234375 423.910156 442.089844 423.128906 440.902344 421.972656 C 440.488281 421.773438 440.039062 421.773438 439.605469 421.765625 Z M 440.863281 435.632812 C 442.152344 436.601562 440.039062 438.1875 439.148438 437.96875 C 437.980469 438.4375 437.960938 436.847656 438.996094 436.53125 C 439.582031 436.125 440.195312 435.703125 440.863281 435.632812 Z M 436.890625 439.253906 C 437.625 439.234375 439.164062 440.175781 437.71875 440.777344 C 436.714844 441.820312 435.578125 439.71875 436.890625 439.253906 Z M 436.890625 439.253906 "/>
<path style=" stroke:none;fill-rule:nonzero;fill:rgb(96.862745%,87.843138%,9.019608%);fill-opacity:1;" d="M 468.160156 441.648438 C 468.160156 440.339844 466.402344 440.527344 466.207031 441.851562 C 466.082031 442.703125 466.285156 442.90625 467.105469 442.75 C 467.6875 442.636719 468.160156 442.148438 468.160156 441.648438 Z M 468.160156 441.648438 "/>
<path style=" stroke:none;fill-rule:nonzero;fill:rgb(96.862745%,87.843138%,9.019608%);fill-opacity:1;" d="M 545.972656 432.457031 C 546.152344 431.207031 544.847656 430.371094 544.160156 431.289062 C 543.472656 432.207031 544.105469 433.949219 545.035156 433.707031 C 545.464844 433.597656 545.890625 433.03125 545.972656 432.457031 Z M 545.972656 432.457031 "/>
<path style=" stroke:none;fill-rule:nonzero;fill:rgb(96.862745%,87.843138%,9.019608%);fill-opacity:1;" d="M 424.875 419.738281 C 426.097656 418.339844 426.109375 418.246094 425.582031 415.171875 C 424.832031 410.863281 424.882812 410.398438 426.109375 409.992188 C 427.667969 409.464844 431.617188 412.289062 432.492188 414.550781 C 433.171875 416.300781 433.152344 416.421875 432 417.847656 C 430.757812 419.375 430.765625 421.164062 432.007812 421.164062 C 433.035156 421.164062 435.875 417.578125 435.875 416.292969 C 435.875 414.503906 432.722656 410.277344 430.230469 408.730469 C 428.6875 407.769531 427.144531 407.324219 425.359375 407.316406 C 422.167969 407.316406 421.734375 408.230469 422.597656 413.1875 C 423.609375 418.996094 422.234375 419.785156 418.730469 415.402344 C 416.125 412.152344 415.097656 408.769531 415.109375 403.441406 C 415.117188 397.726562 416.757812 394.902344 420.453125 394.234375 C 422.902344 393.796875 422.839844 393.03125 420.320312 392.53125 C 416.640625 391.789062 413.527344 395.066406 412.347656 400.921875 C 411.035156 407.417969 414.042969 415.328125 419.359375 419.402344 C 422.144531 421.535156 423.257812 421.597656 424.875 419.738281 Z M 424.875 419.738281 "/>
<path style=" stroke:none;fill-rule:nonzero;fill:rgb(96.862745%,87.843138%,9.019608%);fill-opacity:1;" d="M 569.902344 412.613281 C 570.203125 412.214844 570.445312 411.316406 570.445312 410.621094 C 570.445312 409.925781 570.953125 408.4375 571.570312 407.316406 C 572.195312 406.195312 572.703125 405.046875 572.703125 404.765625 C 572.703125 403.628906 571.292969 403.664062 570.179688 404.839844 C 569.042969 406.027344 568.1875 406.054688 568.1875 404.898438 C 568.1875 404.609375 568.730469 404.015625 569.394531 403.582031 C 571.046875 402.507812 571.1875 401.441406 569.792969 400.589844 C 568 399.503906 566.203125 401.488281 566.015625 404.757812 C 565.894531 406.945312 566.027344 407.324219 567.292969 408.316406 C 568.445312 409.222656 568.660156 409.703125 568.464844 411 C 568.132812 413.253906 568.832031 414.039062 569.902344 412.613281 Z M 569.902344 412.613281 "/>
<path style=" stroke:none;fill-rule:nonzero;fill:rgb(96.862745%,87.843138%,9.019608%);fill-opacity:1;" d="M 583.535156 410.558594 C 584.535156 409.363281 585.347656 408 585.347656 407.546875 C 585.347656 407.09375 586.207031 405.886719 587.265625 404.878906 C 590.257812 402.007812 590.917969 399.105469 589.578125 394.652344 C 589.054688 392.898438 587.417969 390.480469 583.855469 386.203125 C 581.117188 382.90625 578.597656 380.207031 578.269531 380.207031 C 577.296875 380.207031 577.472656 384.980469 578.457031 385.394531 C 580.234375 386.15625 581.3125 387.128906 584.109375 390.492188 C 587.359375 394.410156 588.859375 398.070312 588.042969 400.105469 C 587.257812 402.082031 586.214844 401.46875 583.347656 397.367188 C 581.839844 395.207031 580.347656 393.445312 580.042969 393.445312 C 579.707031 393.457031 579.472656 394.234375 579.472656 395.328125 C 579.472656 396.699219 580.019531 398.003906 581.507812 400.210938 C 583.929688 403.804688 584.167969 405.960938 582.347656 407.871094 C 581.695312 408.554688 581.019531 409.121094 580.855469 409.121094 C 580.695312 409.121094 580.160156 408.046875 579.671875 406.742188 C 578.660156 404 572.457031 395.261719 571.527344 395.261719 C 571.105469 395.261719 570.894531 395.964844 570.894531 397.355469 C 570.894531 399.03125 571.144531 399.625 572.144531 400.3125 C 573.375 401.164062 576.417969 405.25 579.472656 410.175781 C 580.347656 411.585938 581.207031 412.726562 581.394531 412.734375 C 581.578125 412.734375 582.542969 411.753906 583.535156 410.558594 Z M 583.535156 410.558594 "/>
<path style=" stroke:none;fill-rule:nonzero;fill:rgb(96.862745%,87.843138%,9.019608%);fill-opacity:1;" d="M 589.617188 387.332031 C 589.214844 385.601562 580.894531 374.179688 580.042969 374.179688 C 579.597656 374.179688 579.457031 374.882812 579.5625 376.699219 C 579.679688 378.902344 579.859375 379.28125 581 379.679688 C 581.707031 379.929688 583.902344 382.226562 585.867188 384.777344 C 587.828125 387.324219 589.546875 389.257812 589.6875 389.066406 C 589.828125 388.878906 589.796875 388.101562 589.617188 387.332031 Z M 589.617188 387.332031 "/>
<path style=" stroke:none;fill-rule:nonzero;fill:rgb(96.862745%,87.843138%,9.019608%);fill-opacity:1;" d="M 539.929688 515.898438 C 539.929688 516.730469 539.375 517.410156 538.695312 517.410156 C 538.011719 517.410156 537.457031 516.730469 537.457031 515.898438 C 537.457031 515.0625 538.011719 514.382812 538.695312 514.382812 C 539.375 514.382812 539.929688 515.0625 539.929688 515.898438 Z M 539.929688 515.898438 "/>
<path style=" stroke:none;fill-rule:nonzero;fill:rgb(96.862745%,87.843138%,9.019608%);fill-opacity:1;" d="M 544.296875 513.953125 C 544.296875 514.785156 543.746094 515.464844 543.0625 515.464844 C 542.378906 515.464844 541.824219 514.785156 541.824219 513.953125 C 541.824219 513.117188 542.378906 512.4375 543.0625 512.4375 C 543.746094 512.4375 544.296875 513.117188 544.296875 513.953125 Z M 544.296875 513.953125 "/>
</g>
</svg>
