<?xml version="1.0" encoding="UTF-8"?>
<svg xmlns="http://www.w3.org/2000/svg" xmlns:xlink="http://www.w3.org/1999/xlink" width="1000px" height="667px" viewBox="0 0 1000 667" version="1.1">
<defs>
<clipPath id="clip1">
  <path d="M 325 262 L 675 262 L 675 501 L 325 501 Z M 325 262 "/>
</clipPath>
<clipPath id="clip2">
  <path d="M 675 333.5 C 675 425.59375 596.648438 500.25 500 500.25 C 403.351562 500.25 325 425.59375 325 333.5 C 325 241.40625 403.351562 166.75 500 166.75 C 596.648438 166.75 675 241.40625 675 333.5 Z M 675 333.5 "/>
</clipPath>
<clipPath id="clip3">
  <path d="M 556 298 L 573 298 L 573 315 L 556 315 Z M 556 298 "/>
</clipPath>
<clipPath id="clip4">
  <path d="M 554.28125 310.980469 L 560.929688 296.414062 L 574.683594 302.113281 L 568.039062 316.679688 Z M 565.625 304.050781 L 564.484375 306.546875 L 571.363281 309.394531 L 572.5 306.898438 Z M 565.625 304.050781 "/>
</clipPath>
</defs>
<g id="surface1">
<rect x="0" y="0" width="1000" height="667" style="fill:rgb(0%,60.784316%,22.745098%);fill-opacity:1;stroke:none;"/>
<path style=" stroke:none;fill-rule:nonzero;fill:rgb(99.607843%,87.450981%,0%);fill-opacity:1;" d="M 85 333.5 L 500 586.007812 L 915 333.5 L 500 80.992188 Z M 85 333.5 "/>
<path style=" stroke:none;fill-rule:nonzero;fill:rgb(0%,15.294118%,46.27451%);fill-opacity:1;" d="M 675 333.5 C 675 425.59375 596.648438 500.25 500 500.25 C 403.351562 500.25 325 425.59375 325 333.5 C 325 241.40625 403.351562 166.75 500 166.75 C 596.648438 166.75 675 241.40625 675 333.5 Z M 675 333.5 "/>
<g clip-path="url(#clip1)" clip-rule="nonzero">
<g clip-path="url(#clip2)" clip-rule="nonzero">
<path style=" stroke:none;fill-rule:nonzero;fill:rgb(100%,100%,100%);fill-opacity:1;" d="M -25 667 C -25 443.34375 165.277344 262.035156 400 262.035156 C 634.722656 262.035156 825 443.34375 825 667 L 800 667 C 800 456.5 620.914062 285.855469 400 285.855469 C 179.085938 285.855469 0 456.5 0 667 Z M -25 667 "/>
</g>
</g>
<path style=" stroke:none;fill-rule:evenodd;fill:rgb(0%,60.784316%,22.745098%);fill-opacity:1;" d="M 350.746094 284.757812 C 354.855469 284.277344 357.734375 280.359375 357.171875 276.003906 C 356.613281 271.652344 352.824219 268.515625 348.714844 268.996094 C 344.601562 269.476562 341.722656 273.394531 342.285156 277.746094 C 342.84375 282.101562 346.632812 285.238281 350.746094 284.757812 M 350.367188 281.832031 C 352.78125 281.546875 354.453125 279.101562 354.101562 276.363281 C 353.75 273.628906 351.503906 271.640625 349.089844 271.921875 C 346.675781 272.203125 345.003906 274.652344 345.355469 277.386719 C 345.710938 280.125 347.953125 282.113281 350.367188 281.832031 "/>
<path style=" stroke:none;fill-rule:evenodd;fill:rgb(0%,60.784316%,22.745098%);fill-opacity:1;" d="M 364.324219 283.324219 L 367.414062 283.117188 L 366.980469 277.234375 L 373.632812 276.789062 C 376.515625 276.597656 378.691406 274.214844 378.492188 271.464844 C 378.289062 268.714844 375.785156 266.640625 372.902344 266.832031 L 363.398438 267.464844 Z M 366.765625 274.292969 L 373.179688 273.863281 C 374.359375 273.785156 375.25 272.808594 375.167969 271.683594 C 375.082031 270.558594 374.058594 269.710938 372.878906 269.789062 L 366.464844 270.21875 Z M 366.765625 274.292969 "/>
<path style=" stroke:none;fill-rule:nonzero;fill:rgb(0%,60.784316%,22.745098%);fill-opacity:1;" d="M 378.457031 282.382812 C 378.292969 280.117188 377.925781 275.140625 374.363281 275.378906 L 369.851562 275.679688 C 375.074219 275.328125 375.441406 280.308594 375.605469 282.570312 "/>
<path style=" stroke:none;fill-rule:evenodd;fill:rgb(0%,60.784316%,22.745098%);fill-opacity:1;" d="M 385.449219 282.070312 L 393.304688 281.941406 C 397.246094 281.875 400.390625 278.773438 400.320312 275.015625 L 400.277344 272.746094 C 400.210938 268.988281 396.957031 265.996094 393.011719 266.0625 L 385.15625 266.191406 Z M 388.488281 279.070312 L 393.011719 278.996094 C 395.507812 278.953125 397.5 276.988281 397.457031 274.609375 L 397.429688 273.25 C 397.386719 270.867188 395.328125 268.972656 392.828125 269.015625 L 388.304688 269.089844 Z M 388.488281 279.070312 "/>
<path style=" stroke:none;fill-rule:nonzero;fill:rgb(0%,60.784316%,22.745098%);fill-opacity:1;" d="M 406.609375 281.871094 L 421.601562 282.371094 L 421.707031 279.421875 L 409.574219 279.019531 L 409.722656 274.9375 L 419.242188 275.253906 L 419.339844 272.535156 L 409.824219 272.21875 L 409.9375 269.042969 L 421.359375 269.421875 L 421.46875 266.476562 L 407.191406 266 Z M 406.609375 281.871094 "/>
<path style=" stroke:none;fill-rule:nonzero;fill:rgb(0%,60.784316%,22.745098%);fill-opacity:1;" d="M 427.753906 282.730469 L 430.601562 282.96875 L 431.597656 272.117188 L 433.921875 283.242188 L 436.53125 283.460938 L 440.847656 272.890625 L 439.851562 283.738281 L 442.695312 283.976562 L 444.148438 268.15625 L 440 267.808594 L 435.683594 278.378906 L 433.355469 267.253906 L 429.207031 266.910156 Z M 427.753906 282.730469 "/>
<path style=" stroke:none;fill-rule:nonzero;fill:rgb(0%,60.784316%,22.745098%);fill-opacity:1;" d="M 462.285156 286.441406 L 474.605469 288.457031 L 475.089844 285.773438 L 465.585938 284.21875 L 466.230469 280.640625 L 473.972656 281.910156 L 474.457031 279.226562 L 466.714844 277.957031 L 467.15625 275.5 L 476.367188 277.007812 L 476.851562 274.324219 L 464.824219 272.355469 Z M 462.285156 286.441406 "/>
<path style=" stroke:none;fill-rule:evenodd;fill:rgb(0%,60.784316%,22.745098%);fill-opacity:1;" d="M 493.933594 292.363281 L 496.929688 293.101562 L 498.480469 287.390625 L 504.933594 288.984375 C 507.734375 289.671875 510.59375 288.070312 511.316406 285.398438 C 512.042969 282.730469 510.359375 280.007812 507.558594 279.316406 L 498.335938 277.046875 Z M 499.253906 284.535156 L 505.480469 286.070312 C 506.625 286.351562 507.792969 285.695312 508.089844 284.605469 C 508.386719 283.511719 507.699219 282.398438 506.550781 282.117188 L 500.328125 280.582031 Z M 499.253906 284.535156 "/>
<path style=" stroke:none;fill-rule:evenodd;fill:rgb(0%,60.784316%,22.745098%);fill-opacity:1;" d="M 514.382812 297.5625 L 517.335938 298.449219 L 519.195312 292.824219 L 525.554688 294.734375 C 528.3125 295.5625 531.253906 294.101562 532.125 291.472656 C 532.996094 288.84375 531.464844 286.042969 528.703125 285.214844 L 519.621094 282.484375 Z M 520.125 290.011719 L 526.257812 291.851562 C 527.386719 292.191406 528.589844 291.59375 528.945312 290.519531 C 529.300781 289.445312 528.675781 288.296875 527.546875 287.957031 L 521.414062 286.117188 Z M 520.125 290.011719 "/>
<path style=" stroke:none;fill-rule:nonzero;fill:rgb(0%,60.784316%,22.745098%);fill-opacity:1;" d="M 527.894531 301.621094 C 528.609375 299.457031 530.183594 294.699219 526.777344 293.675781 L 522.464844 292.378906 C 527.460938 293.878906 525.882812 298.640625 525.167969 300.800781 "/>
<path style=" stroke:none;fill-rule:evenodd;fill:rgb(0%,60.784316%,22.745098%);fill-opacity:1;" d="M 541.542969 306.273438 C 545.421875 307.65625 549.875 305.449219 551.484375 301.339844 C 553.097656 297.234375 551.257812 292.78125 547.378906 291.398438 C 543.5 290.019531 539.046875 292.226562 537.433594 296.335938 C 535.824219 300.441406 537.664062 304.894531 541.542969 306.273438 M 542.625 303.511719 C 544.90625 304.324219 547.574219 302.890625 548.585938 300.308594 C 549.597656 297.726562 548.574219 294.972656 546.296875 294.164062 C 544.015625 293.351562 541.347656 294.785156 540.335938 297.367188 C 539.320312 299.949219 540.347656 302.699219 542.625 303.511719 "/>
<g clip-path="url(#clip3)" clip-rule="nonzero">
<g clip-path="url(#clip4)" clip-rule="nonzero">
<path style=" stroke:none;fill-rule:evenodd;fill:rgb(0%,60.784316%,22.745098%);fill-opacity:1;" d="M 561.160156 313.828125 C 564.960938 315.402344 569.527344 313.417969 571.363281 309.394531 C 573.195312 305.375 571.605469 300.839844 567.808594 299.265625 C 564.007812 297.691406 559.441406 299.675781 557.605469 303.695312 C 555.769531 307.71875 557.363281 312.253906 561.160156 313.828125 M 562.394531 311.125 C 564.625 312.046875 567.371094 310.746094 568.523438 308.21875 C 569.675781 305.691406 568.804688 302.894531 566.574219 301.96875 C 564.339844 301.042969 561.597656 302.34375 560.445312 304.871094 C 559.289062 307.402344 560.164062 310.199219 562.394531 311.125 "/>
</g>
</g>
<path style=" stroke:none;fill-rule:nonzero;fill:rgb(0%,60.784316%,22.745098%);fill-opacity:1;" d="M 565.574219 307 L 571.363281 309.394531 L 570.414062 311.476562 L 564.625 309.078125 Z M 565.574219 307 "/>
<path style=" stroke:none;fill-rule:nonzero;fill:rgb(0%,60.784316%,22.745098%);fill-opacity:1;" d="M 569.179688 308.492188 L 571.363281 309.394531 L 568.039062 316.679688 L 565.855469 315.773438 Z M 569.179688 308.492188 "/>
<path style=" stroke:none;fill-rule:evenodd;fill:rgb(0%,60.784316%,22.745098%);fill-opacity:1;" d="M 573.625 319.160156 L 576.394531 320.476562 L 579.160156 315.199219 L 585.125 318.03125 C 587.714844 319.261719 590.859375 318.257812 592.148438 315.792969 C 593.441406 313.324219 592.386719 310.328125 589.800781 309.097656 L 581.277344 305.050781 Z M 580.539062 312.558594 L 586.292969 315.292969 C 587.351562 315.792969 588.636719 315.382812 589.167969 314.375 C 589.695312 313.367188 589.265625 312.140625 588.203125 311.636719 L 582.453125 308.902344 Z M 580.539062 312.558594 "/>
<path style=" stroke:none;fill-rule:nonzero;fill:rgb(0%,60.784316%,22.745098%);fill-opacity:1;" d="M 586.304688 325.183594 C 587.367188 323.152344 589.703125 318.6875 586.507812 317.167969 L 582.460938 315.246094 C 587.148438 317.472656 584.808594 321.9375 583.746094 323.96875 "/>
<path style=" stroke:none;fill-rule:nonzero;fill:rgb(0%,60.784316%,22.745098%);fill-opacity:1;" d="M 592.492188 328.296875 L 605.550781 335.332031 L 607.074219 332.765625 L 596.503906 327.070312 L 598.613281 323.515625 L 606.902344 327.984375 L 608.3125 325.613281 L 600.023438 321.144531 L 601.664062 318.382812 L 611.609375 323.742188 L 613.132812 321.175781 L 600.699219 314.472656 Z M 592.492188 328.296875 "/>
<path style=" stroke:none;fill-rule:nonzero;fill:rgb(0%,60.784316%,22.745098%);fill-opacity:1;" d="M 616.808594 336.070312 C 615.914062 337.410156 616.824219 338.902344 618.832031 340.121094 C 620.839844 341.339844 622.207031 341.296875 622.785156 340.433594 C 624.605469 337.707031 614.066406 333.730469 617.316406 328.980469 C 620.117188 324.894531 624.910156 328.074219 626.714844 329.171875 C 628.523438 330.269531 631.425781 333.105469 629.167969 336.375 L 626.105469 334.515625 C 627.066406 333.082031 626.011719 331.703125 624.40625 330.726562 C 622.847656 329.78125 621.585938 329.351562 620.65625 330.738281 C 619.105469 332.957031 629.433594 337.140625 626.265625 341.878906 C 623.933594 345.367188 619.871094 343.84375 617.160156 342.199219 C 614.847656 340.796875 611.398438 337.492188 613.648438 334.148438 Z M 616.808594 336.070312 "/>
<path style=" stroke:none;fill-rule:nonzero;fill:rgb(0%,60.784316%,22.745098%);fill-opacity:1;" d="M 634.691406 347.335938 C 633.722656 348.628906 634.546875 350.164062 636.484375 351.480469 C 638.421875 352.796875 639.792969 352.824219 640.414062 351.992188 C 642.386719 349.359375 632.078125 344.863281 635.585938 340.28125 C 638.605469 336.339844 643.214844 339.753906 644.960938 340.941406 C 646.707031 342.125 649.449219 345.105469 647.015625 348.257812 L 644.058594 346.246094 C 645.09375 344.863281 644.117188 343.433594 642.566406 342.378906 C 641.066406 341.359375 639.828125 340.863281 638.824219 342.203125 C 637.152344 344.339844 647.234375 349.035156 643.8125 353.605469 C 641.289062 356.976562 637.316406 355.253906 634.699219 353.472656 C 632.472656 351.957031 629.207031 348.484375 631.636719 345.261719 Z M 634.691406 347.335938 "/>
<path style=" stroke:none;fill-rule:evenodd;fill:rgb(0%,60.784316%,22.745098%);fill-opacity:1;" d="M 651.601562 365.605469 C 654.839844 368.0625 659.792969 367.273438 662.65625 363.84375 C 665.523438 360.410156 665.214844 355.636719 661.976562 353.179688 C 658.734375 350.722656 653.78125 351.511719 650.917969 354.945312 C 648.050781 358.375 648.359375 363.148438 651.601562 365.605469 M 653.527344 363.300781 C 655.429688 364.742188 658.433594 364.164062 660.234375 362.003906 C 662.035156 359.847656 661.953125 356.929688 660.046875 355.488281 C 658.144531 354.042969 655.140625 354.621094 653.339844 356.78125 C 651.539062 358.9375 651.621094 361.855469 653.527344 363.300781 "/>
<path style=" stroke:none;fill-rule:nonzero;fill:rgb(100%,100%,100%);fill-opacity:1;" d="M 357.144531 296.40625 L 354.824219 303.203125 L 358.390625 304.308594 "/>
<path style=" stroke:none;fill-rule:nonzero;fill:rgb(100%,100%,100%);fill-opacity:1;" d="M 357.144531 296.40625 L 359.460938 303.203125 L 355.894531 304.308594 "/>
<path style=" stroke:none;fill-rule:nonzero;fill:rgb(100%,100%,100%);fill-opacity:1;" d="M 364.277344 301.34375 L 356.777344 301.34375 L 356.777344 304.917969 "/>
<path style=" stroke:none;fill-rule:nonzero;fill:rgb(100%,100%,100%);fill-opacity:1;" d="M 364.277344 301.34375 L 358.207031 305.546875 L 356.003906 302.65625 "/>
<path style=" stroke:none;fill-rule:nonzero;fill:rgb(100%,100%,100%);fill-opacity:1;" d="M 350.011719 301.34375 L 356.078125 305.546875 L 358.28125 302.65625 "/>
<path style=" stroke:none;fill-rule:nonzero;fill:rgb(100%,100%,100%);fill-opacity:1;" d="M 350.011719 301.34375 L 357.511719 301.34375 L 357.511719 304.917969 "/>
<path style=" stroke:none;fill-rule:nonzero;fill:rgb(100%,100%,100%);fill-opacity:1;" d="M 361.550781 309.335938 L 359.234375 302.539062 L 355.667969 303.640625 "/>
<path style=" stroke:none;fill-rule:nonzero;fill:rgb(100%,100%,100%);fill-opacity:1;" d="M 361.550781 309.335938 L 355.484375 305.132812 L 357.6875 302.242188 "/>
<path style=" stroke:none;fill-rule:nonzero;fill:rgb(100%,100%,100%);fill-opacity:1;" d="M 352.734375 309.335938 L 358.800781 305.132812 L 356.597656 302.242188 "/>
<path style=" stroke:none;fill-rule:nonzero;fill:rgb(100%,100%,100%);fill-opacity:1;" d="M 352.734375 309.335938 L 355.050781 302.539062 L 358.617188 303.640625 "/>
<path style=" stroke:none;fill-rule:nonzero;fill:rgb(100%,100%,100%);fill-opacity:1;" d="M 372.617188 366.507812 L 370.300781 373.304688 L 373.867188 374.410156 "/>
<path style=" stroke:none;fill-rule:nonzero;fill:rgb(100%,100%,100%);fill-opacity:1;" d="M 372.617188 366.507812 L 374.9375 373.304688 L 371.371094 374.410156 "/>
<path style=" stroke:none;fill-rule:nonzero;fill:rgb(100%,100%,100%);fill-opacity:1;" d="M 379.753906 371.449219 L 372.253906 371.449219 L 372.253906 375.019531 "/>
<path style=" stroke:none;fill-rule:nonzero;fill:rgb(100%,100%,100%);fill-opacity:1;" d="M 379.753906 371.449219 L 373.683594 375.648438 L 371.480469 372.757812 "/>
<path style=" stroke:none;fill-rule:nonzero;fill:rgb(100%,100%,100%);fill-opacity:1;" d="M 365.484375 371.449219 L 371.554688 375.648438 L 373.757812 372.757812 "/>
<path style=" stroke:none;fill-rule:nonzero;fill:rgb(100%,100%,100%);fill-opacity:1;" d="M 365.484375 371.449219 L 372.984375 371.449219 L 372.984375 375.019531 "/>
<path style=" stroke:none;fill-rule:nonzero;fill:rgb(100%,100%,100%);fill-opacity:1;" d="M 377.027344 379.4375 L 374.710938 372.640625 L 371.144531 373.746094 "/>
<path style=" stroke:none;fill-rule:nonzero;fill:rgb(100%,100%,100%);fill-opacity:1;" d="M 377.027344 379.4375 L 370.960938 375.238281 L 373.164062 372.347656 "/>
<path style=" stroke:none;fill-rule:nonzero;fill:rgb(100%,100%,100%);fill-opacity:1;" d="M 368.210938 379.4375 L 374.277344 375.238281 L 372.074219 372.347656 "/>
<path style=" stroke:none;fill-rule:nonzero;fill:rgb(100%,100%,100%);fill-opacity:1;" d="M 368.210938 379.4375 L 370.527344 372.640625 L 374.09375 373.746094 "/>
<path style=" stroke:none;fill-rule:nonzero;fill:rgb(100%,100%,100%);fill-opacity:1;" d="M 351.191406 382.675781 L 349.257812 388.339844 L 352.230469 389.257812 "/>
<path style=" stroke:none;fill-rule:nonzero;fill:rgb(100%,100%,100%);fill-opacity:1;" d="M 351.191406 382.675781 L 353.121094 388.339844 L 350.148438 389.257812 "/>
<path style=" stroke:none;fill-rule:nonzero;fill:rgb(100%,100%,100%);fill-opacity:1;" d="M 357.132812 386.789062 L 350.882812 386.789062 L 350.882812 389.765625 "/>
<path style=" stroke:none;fill-rule:nonzero;fill:rgb(100%,100%,100%);fill-opacity:1;" d="M 357.132812 386.789062 L 352.078125 390.289062 L 350.242188 387.878906 "/>
<path style=" stroke:none;fill-rule:nonzero;fill:rgb(100%,100%,100%);fill-opacity:1;" d="M 345.246094 386.789062 L 350.300781 390.289062 L 352.140625 387.878906 "/>
<path style=" stroke:none;fill-rule:nonzero;fill:rgb(100%,100%,100%);fill-opacity:1;" d="M 345.246094 386.789062 L 351.496094 386.789062 L 351.496094 389.765625 "/>
<path style=" stroke:none;fill-rule:nonzero;fill:rgb(100%,100%,100%);fill-opacity:1;" d="M 354.863281 393.449219 L 352.933594 387.785156 L 349.960938 388.703125 "/>
<path style=" stroke:none;fill-rule:nonzero;fill:rgb(100%,100%,100%);fill-opacity:1;" d="M 354.863281 393.449219 L 349.808594 389.945312 L 351.644531 387.539062 "/>
<path style=" stroke:none;fill-rule:nonzero;fill:rgb(100%,100%,100%);fill-opacity:1;" d="M 347.515625 393.449219 L 352.574219 389.945312 L 350.738281 387.539062 "/>
<path style=" stroke:none;fill-rule:nonzero;fill:rgb(100%,100%,100%);fill-opacity:1;" d="M 347.515625 393.449219 L 349.449219 387.785156 L 352.421875 388.703125 "/>
<path style=" stroke:none;fill-rule:nonzero;fill:rgb(100%,100%,100%);fill-opacity:1;" d="M 389.761719 360.042969 L 388.660156 363.28125 L 390.355469 363.804688 "/>
<path style=" stroke:none;fill-rule:nonzero;fill:rgb(100%,100%,100%);fill-opacity:1;" d="M 389.761719 360.042969 L 390.867188 363.28125 L 389.167969 363.804688 "/>
<path style=" stroke:none;fill-rule:nonzero;fill:rgb(100%,100%,100%);fill-opacity:1;" d="M 393.160156 362.394531 L 389.585938 362.394531 L 389.585938 364.097656 "/>
<path style=" stroke:none;fill-rule:nonzero;fill:rgb(100%,100%,100%);fill-opacity:1;" d="M 393.160156 362.394531 L 390.269531 364.394531 L 389.21875 363.019531 "/>
<path style=" stroke:none;fill-rule:nonzero;fill:rgb(100%,100%,100%);fill-opacity:1;" d="M 386.367188 362.394531 L 389.253906 364.394531 L 390.304688 363.019531 "/>
<path style=" stroke:none;fill-rule:nonzero;fill:rgb(100%,100%,100%);fill-opacity:1;" d="M 386.367188 362.394531 L 389.9375 362.394531 L 389.9375 364.097656 "/>
<path style=" stroke:none;fill-rule:nonzero;fill:rgb(100%,100%,100%);fill-opacity:1;" d="M 391.859375 366.199219 L 390.757812 362.964844 L 389.058594 363.488281 "/>
<path style=" stroke:none;fill-rule:nonzero;fill:rgb(100%,100%,100%);fill-opacity:1;" d="M 391.859375 366.199219 L 388.972656 364.199219 L 390.019531 362.824219 "/>
<path style=" stroke:none;fill-rule:nonzero;fill:rgb(100%,100%,100%);fill-opacity:1;" d="M 387.664062 366.199219 L 390.550781 364.199219 L 389.503906 362.824219 "/>
<path style=" stroke:none;fill-rule:nonzero;fill:rgb(100%,100%,100%);fill-opacity:1;" d="M 387.664062 366.199219 L 388.765625 362.964844 L 390.464844 363.488281 "/>
<path style=" stroke:none;fill-rule:nonzero;fill:rgb(100%,100%,100%);fill-opacity:1;" d="M 409.046875 384.261719 L 407.117188 389.925781 L 410.089844 390.847656 "/>
<path style=" stroke:none;fill-rule:nonzero;fill:rgb(100%,100%,100%);fill-opacity:1;" d="M 409.046875 384.261719 L 410.980469 389.925781 L 408.007812 390.847656 "/>
<path style=" stroke:none;fill-rule:nonzero;fill:rgb(100%,100%,100%);fill-opacity:1;" d="M 414.992188 388.378906 L 408.742188 388.378906 L 408.742188 391.355469 "/>
<path style=" stroke:none;fill-rule:nonzero;fill:rgb(100%,100%,100%);fill-opacity:1;" d="M 414.992188 388.378906 L 409.933594 391.878906 L 408.097656 389.46875 "/>
<path style=" stroke:none;fill-rule:nonzero;fill:rgb(100%,100%,100%);fill-opacity:1;" d="M 403.105469 388.378906 L 408.160156 391.878906 L 409.996094 389.46875 "/>
<path style=" stroke:none;fill-rule:nonzero;fill:rgb(100%,100%,100%);fill-opacity:1;" d="M 403.105469 388.378906 L 409.355469 388.378906 L 409.355469 391.355469 "/>
<path style=" stroke:none;fill-rule:nonzero;fill:rgb(100%,100%,100%);fill-opacity:1;" d="M 412.722656 395.035156 L 410.789062 389.371094 L 407.816406 390.292969 "/>
<path style=" stroke:none;fill-rule:nonzero;fill:rgb(100%,100%,100%);fill-opacity:1;" d="M 412.722656 395.035156 L 407.664062 391.535156 L 409.5 389.125 "/>
<path style=" stroke:none;fill-rule:nonzero;fill:rgb(100%,100%,100%);fill-opacity:1;" d="M 405.375 395.035156 L 410.429688 391.535156 L 408.59375 389.125 "/>
<path style=" stroke:none;fill-rule:nonzero;fill:rgb(100%,100%,100%);fill-opacity:1;" d="M 405.375 395.035156 L 407.304688 389.371094 L 410.277344 390.292969 "/>
<path style=" stroke:none;fill-rule:nonzero;fill:rgb(100%,100%,100%);fill-opacity:1;" d="M 403.808594 402.015625 L 402.265625 406.546875 L 404.640625 407.28125 "/>
<path style=" stroke:none;fill-rule:nonzero;fill:rgb(100%,100%,100%);fill-opacity:1;" d="M 403.808594 402.015625 L 405.355469 406.546875 L 402.976562 407.28125 "/>
<path style=" stroke:none;fill-rule:nonzero;fill:rgb(100%,100%,100%);fill-opacity:1;" d="M 408.566406 405.308594 L 403.566406 405.308594 L 403.566406 407.6875 "/>
<path style=" stroke:none;fill-rule:nonzero;fill:rgb(100%,100%,100%);fill-opacity:1;" d="M 408.566406 405.308594 L 404.519531 408.105469 L 403.050781 406.179688 "/>
<path style=" stroke:none;fill-rule:nonzero;fill:rgb(100%,100%,100%);fill-opacity:1;" d="M 399.054688 405.308594 L 403.097656 408.105469 L 404.570312 406.179688 "/>
<path style=" stroke:none;fill-rule:nonzero;fill:rgb(100%,100%,100%);fill-opacity:1;" d="M 399.054688 405.308594 L 404.054688 405.308594 L 404.054688 407.6875 "/>
<path style=" stroke:none;fill-rule:nonzero;fill:rgb(100%,100%,100%);fill-opacity:1;" d="M 406.75 410.632812 L 405.203125 406.101562 L 402.824219 406.839844 "/>
<path style=" stroke:none;fill-rule:nonzero;fill:rgb(100%,100%,100%);fill-opacity:1;" d="M 406.75 410.632812 L 402.703125 407.832031 L 404.171875 405.90625 "/>
<path style=" stroke:none;fill-rule:nonzero;fill:rgb(100%,100%,100%);fill-opacity:1;" d="M 400.871094 410.632812 L 404.914062 407.832031 L 403.445312 405.90625 "/>
<path style=" stroke:none;fill-rule:nonzero;fill:rgb(100%,100%,100%);fill-opacity:1;" d="M 400.871094 410.632812 L 402.414062 406.101562 L 404.792969 406.839844 "/>
<path style=" stroke:none;fill-rule:nonzero;fill:rgb(100%,100%,100%);fill-opacity:1;" d="M 554.285156 274.628906 L 551.96875 281.421875 L 555.535156 282.527344 "/>
<path style=" stroke:none;fill-rule:nonzero;fill:rgb(100%,100%,100%);fill-opacity:1;" d="M 554.285156 274.628906 L 556.601562 281.421875 L 553.035156 282.527344 "/>
<path style=" stroke:none;fill-rule:nonzero;fill:rgb(100%,100%,100%);fill-opacity:1;" d="M 561.417969 279.566406 L 553.917969 279.566406 L 553.917969 283.136719 "/>
<path style=" stroke:none;fill-rule:nonzero;fill:rgb(100%,100%,100%);fill-opacity:1;" d="M 561.417969 279.566406 L 555.351562 283.765625 L 553.148438 280.875 "/>
<path style=" stroke:none;fill-rule:nonzero;fill:rgb(100%,100%,100%);fill-opacity:1;" d="M 547.152344 279.566406 L 553.21875 283.765625 L 555.425781 280.875 "/>
<path style=" stroke:none;fill-rule:nonzero;fill:rgb(100%,100%,100%);fill-opacity:1;" d="M 547.152344 279.566406 L 554.652344 279.566406 L 554.652344 283.136719 "/>
<path style=" stroke:none;fill-rule:nonzero;fill:rgb(100%,100%,100%);fill-opacity:1;" d="M 558.695312 287.554688 L 556.375 280.757812 L 552.808594 281.863281 "/>
<path style=" stroke:none;fill-rule:nonzero;fill:rgb(100%,100%,100%);fill-opacity:1;" d="M 558.695312 287.554688 L 552.625 283.355469 L 554.832031 280.464844 "/>
<path style=" stroke:none;fill-rule:nonzero;fill:rgb(100%,100%,100%);fill-opacity:1;" d="M 549.878906 287.554688 L 555.945312 283.355469 L 553.742188 280.464844 "/>
<path style=" stroke:none;fill-rule:nonzero;fill:rgb(100%,100%,100%);fill-opacity:1;" d="M 549.878906 287.554688 L 552.195312 280.757812 L 555.761719 281.863281 "/>
<path style=" stroke:none;fill-rule:nonzero;fill:rgb(100%,100%,100%);fill-opacity:1;" d="M 622.617188 384.886719 L 620.300781 391.683594 L 623.867188 392.785156 "/>
<path style=" stroke:none;fill-rule:nonzero;fill:rgb(100%,100%,100%);fill-opacity:1;" d="M 622.617188 384.886719 L 624.9375 391.683594 L 621.371094 392.785156 "/>
<path style=" stroke:none;fill-rule:nonzero;fill:rgb(100%,100%,100%);fill-opacity:1;" d="M 629.753906 389.824219 L 622.253906 389.824219 L 622.253906 393.398438 "/>
<path style=" stroke:none;fill-rule:nonzero;fill:rgb(100%,100%,100%);fill-opacity:1;" d="M 629.753906 389.824219 L 623.683594 394.023438 L 621.480469 391.132812 "/>
<path style=" stroke:none;fill-rule:nonzero;fill:rgb(100%,100%,100%);fill-opacity:1;" d="M 615.484375 389.824219 L 621.554688 394.023438 L 623.757812 391.132812 "/>
<path style=" stroke:none;fill-rule:nonzero;fill:rgb(100%,100%,100%);fill-opacity:1;" d="M 615.484375 389.824219 L 622.984375 389.824219 L 622.984375 393.398438 "/>
<path style=" stroke:none;fill-rule:nonzero;fill:rgb(100%,100%,100%);fill-opacity:1;" d="M 627.027344 397.8125 L 624.710938 391.015625 L 621.144531 392.121094 "/>
<path style=" stroke:none;fill-rule:nonzero;fill:rgb(100%,100%,100%);fill-opacity:1;" d="M 627.027344 397.8125 L 620.960938 393.613281 L 623.164062 390.722656 "/>
<path style=" stroke:none;fill-rule:nonzero;fill:rgb(100%,100%,100%);fill-opacity:1;" d="M 618.210938 397.8125 L 624.277344 393.613281 L 622.074219 390.722656 "/>
<path style=" stroke:none;fill-rule:nonzero;fill:rgb(100%,100%,100%);fill-opacity:1;" d="M 618.210938 397.8125 L 620.527344 391.015625 L 624.09375 392.121094 "/>
<path style=" stroke:none;fill-rule:nonzero;fill:rgb(100%,100%,100%);fill-opacity:1;" d="M 646.90625 388.855469 L 645.359375 393.386719 L 647.738281 394.125 "/>
<path style=" stroke:none;fill-rule:nonzero;fill:rgb(100%,100%,100%);fill-opacity:1;" d="M 646.90625 388.855469 L 648.449219 393.386719 L 646.070312 394.125 "/>
<path style=" stroke:none;fill-rule:nonzero;fill:rgb(100%,100%,100%);fill-opacity:1;" d="M 651.660156 392.148438 L 646.660156 392.148438 L 646.660156 394.53125 "/>
<path style=" stroke:none;fill-rule:nonzero;fill:rgb(100%,100%,100%);fill-opacity:1;" d="M 651.660156 392.148438 L 647.613281 394.949219 L 646.144531 393.023438 "/>
<path style=" stroke:none;fill-rule:nonzero;fill:rgb(100%,100%,100%);fill-opacity:1;" d="M 642.148438 392.148438 L 646.195312 394.949219 L 647.664062 393.023438 "/>
<path style=" stroke:none;fill-rule:nonzero;fill:rgb(100%,100%,100%);fill-opacity:1;" d="M 642.148438 392.148438 L 647.148438 392.148438 L 647.148438 394.53125 "/>
<path style=" stroke:none;fill-rule:nonzero;fill:rgb(100%,100%,100%);fill-opacity:1;" d="M 649.84375 397.476562 L 648.296875 392.945312 L 645.921875 393.679688 "/>
<path style=" stroke:none;fill-rule:nonzero;fill:rgb(100%,100%,100%);fill-opacity:1;" d="M 649.84375 397.476562 L 645.796875 394.675781 L 647.269531 392.746094 "/>
<path style=" stroke:none;fill-rule:nonzero;fill:rgb(100%,100%,100%);fill-opacity:1;" d="M 643.964844 397.476562 L 648.011719 394.675781 L 646.542969 392.746094 "/>
<path style=" stroke:none;fill-rule:nonzero;fill:rgb(100%,100%,100%);fill-opacity:1;" d="M 643.964844 397.476562 L 645.511719 392.945312 L 647.886719 393.679688 "/>
<path style=" stroke:none;fill-rule:nonzero;fill:rgb(100%,100%,100%);fill-opacity:1;" d="M 629.761719 400.824219 L 627.832031 406.488281 L 630.800781 407.40625 "/>
<path style=" stroke:none;fill-rule:nonzero;fill:rgb(100%,100%,100%);fill-opacity:1;" d="M 629.761719 400.824219 L 631.691406 406.488281 L 628.722656 407.40625 "/>
<path style=" stroke:none;fill-rule:nonzero;fill:rgb(100%,100%,100%);fill-opacity:1;" d="M 635.707031 404.9375 L 629.457031 404.9375 L 629.457031 407.917969 "/>
<path style=" stroke:none;fill-rule:nonzero;fill:rgb(100%,100%,100%);fill-opacity:1;" d="M 635.707031 404.9375 L 630.648438 408.4375 L 628.8125 406.03125 "/>
<path style=" stroke:none;fill-rule:nonzero;fill:rgb(100%,100%,100%);fill-opacity:1;" d="M 623.816406 404.9375 L 628.875 408.4375 L 630.710938 406.03125 "/>
<path style=" stroke:none;fill-rule:nonzero;fill:rgb(100%,100%,100%);fill-opacity:1;" d="M 623.816406 404.9375 L 630.066406 404.9375 L 630.066406 407.917969 "/>
<path style=" stroke:none;fill-rule:nonzero;fill:rgb(100%,100%,100%);fill-opacity:1;" d="M 633.4375 411.597656 L 631.503906 405.933594 L 628.53125 406.851562 "/>
<path style=" stroke:none;fill-rule:nonzero;fill:rgb(100%,100%,100%);fill-opacity:1;" d="M 633.4375 411.597656 L 628.378906 408.097656 L 630.214844 405.6875 "/>
<path style=" stroke:none;fill-rule:nonzero;fill:rgb(100%,100%,100%);fill-opacity:1;" d="M 626.089844 411.597656 L 631.144531 408.097656 L 629.308594 405.6875 "/>
<path style=" stroke:none;fill-rule:nonzero;fill:rgb(100%,100%,100%);fill-opacity:1;" d="M 626.089844 411.597656 L 628.019531 405.933594 L 630.992188 406.851562 "/>
<path style=" stroke:none;fill-rule:nonzero;fill:rgb(100%,100%,100%);fill-opacity:1;" d="M 587.617188 435.761719 L 585.6875 441.425781 L 588.660156 442.347656 "/>
<path style=" stroke:none;fill-rule:nonzero;fill:rgb(100%,100%,100%);fill-opacity:1;" d="M 587.617188 435.761719 L 589.550781 441.425781 L 586.578125 442.347656 "/>
<path style=" stroke:none;fill-rule:nonzero;fill:rgb(100%,100%,100%);fill-opacity:1;" d="M 593.5625 439.878906 L 587.3125 439.878906 L 587.3125 442.855469 "/>
<path style=" stroke:none;fill-rule:nonzero;fill:rgb(100%,100%,100%);fill-opacity:1;" d="M 593.5625 439.878906 L 588.507812 443.378906 L 586.671875 440.96875 "/>
<path style=" stroke:none;fill-rule:nonzero;fill:rgb(100%,100%,100%);fill-opacity:1;" d="M 581.675781 439.878906 L 586.730469 443.378906 L 588.566406 440.96875 "/>
<path style=" stroke:none;fill-rule:nonzero;fill:rgb(100%,100%,100%);fill-opacity:1;" d="M 581.675781 439.878906 L 587.925781 439.878906 L 587.925781 442.855469 "/>
<path style=" stroke:none;fill-rule:nonzero;fill:rgb(100%,100%,100%);fill-opacity:1;" d="M 591.292969 446.535156 L 589.363281 440.871094 L 586.390625 441.792969 "/>
<path style=" stroke:none;fill-rule:nonzero;fill:rgb(100%,100%,100%);fill-opacity:1;" d="M 591.292969 446.535156 L 586.238281 443.035156 L 588.074219 440.625 "/>
<path style=" stroke:none;fill-rule:nonzero;fill:rgb(100%,100%,100%);fill-opacity:1;" d="M 583.945312 446.535156 L 589 443.035156 L 587.164062 440.625 "/>
<path style=" stroke:none;fill-rule:nonzero;fill:rgb(100%,100%,100%);fill-opacity:1;" d="M 583.945312 446.535156 L 585.875 440.871094 L 588.847656 441.792969 "/>
<path style=" stroke:none;fill-rule:nonzero;fill:rgb(100%,100%,100%);fill-opacity:1;" d="M 587.382812 453.742188 L 585.835938 458.273438 L 588.214844 459.007812 "/>
<path style=" stroke:none;fill-rule:nonzero;fill:rgb(100%,100%,100%);fill-opacity:1;" d="M 587.382812 453.742188 L 588.925781 458.273438 L 586.546875 459.007812 "/>
<path style=" stroke:none;fill-rule:nonzero;fill:rgb(100%,100%,100%);fill-opacity:1;" d="M 592.136719 457.035156 L 587.136719 457.035156 L 587.136719 459.414062 "/>
<path style=" stroke:none;fill-rule:nonzero;fill:rgb(100%,100%,100%);fill-opacity:1;" d="M 592.136719 457.035156 L 588.089844 459.832031 L 586.621094 457.90625 "/>
<path style=" stroke:none;fill-rule:nonzero;fill:rgb(100%,100%,100%);fill-opacity:1;" d="M 582.625 457.035156 L 586.671875 459.832031 L 588.140625 457.90625 "/>
<path style=" stroke:none;fill-rule:nonzero;fill:rgb(100%,100%,100%);fill-opacity:1;" d="M 582.625 457.035156 L 587.625 457.035156 L 587.625 459.414062 "/>
<path style=" stroke:none;fill-rule:nonzero;fill:rgb(100%,100%,100%);fill-opacity:1;" d="M 590.320312 462.359375 L 588.773438 457.828125 L 586.398438 458.566406 "/>
<path style=" stroke:none;fill-rule:nonzero;fill:rgb(100%,100%,100%);fill-opacity:1;" d="M 590.320312 462.359375 L 586.273438 459.558594 L 587.746094 457.632812 "/>
<path style=" stroke:none;fill-rule:nonzero;fill:rgb(100%,100%,100%);fill-opacity:1;" d="M 584.441406 462.359375 L 588.488281 459.558594 L 587.019531 457.632812 "/>
<path style=" stroke:none;fill-rule:nonzero;fill:rgb(100%,100%,100%);fill-opacity:1;" d="M 584.441406 462.359375 L 585.988281 457.828125 L 588.363281 458.566406 "/>
<path style=" stroke:none;fill-rule:nonzero;fill:rgb(100%,100%,100%);fill-opacity:1;" d="M 605 423.792969 L 603.453125 428.324219 L 605.832031 429.0625 "/>
<path style=" stroke:none;fill-rule:nonzero;fill:rgb(100%,100%,100%);fill-opacity:1;" d="M 605 423.792969 L 606.546875 428.324219 L 604.167969 429.0625 "/>
<path style=" stroke:none;fill-rule:nonzero;fill:rgb(100%,100%,100%);fill-opacity:1;" d="M 609.753906 427.085938 L 604.753906 427.085938 L 604.753906 429.46875 "/>
<path style=" stroke:none;fill-rule:nonzero;fill:rgb(100%,100%,100%);fill-opacity:1;" d="M 609.753906 427.085938 L 605.710938 429.886719 L 604.242188 427.960938 "/>
<path style=" stroke:none;fill-rule:nonzero;fill:rgb(100%,100%,100%);fill-opacity:1;" d="M 600.246094 427.085938 L 604.289062 429.886719 L 605.757812 427.960938 "/>
<path style=" stroke:none;fill-rule:nonzero;fill:rgb(100%,100%,100%);fill-opacity:1;" d="M 600.246094 427.085938 L 605.246094 427.085938 L 605.246094 429.46875 "/>
<path style=" stroke:none;fill-rule:nonzero;fill:rgb(100%,100%,100%);fill-opacity:1;" d="M 607.9375 432.414062 L 606.394531 427.882812 L 604.015625 428.617188 "/>
<path style=" stroke:none;fill-rule:nonzero;fill:rgb(100%,100%,100%);fill-opacity:1;" d="M 607.9375 432.414062 L 603.894531 429.613281 L 605.363281 427.6875 "/>
<path style=" stroke:none;fill-rule:nonzero;fill:rgb(100%,100%,100%);fill-opacity:1;" d="M 602.0625 432.414062 L 606.105469 429.613281 L 604.636719 427.6875 "/>
<path style=" stroke:none;fill-rule:nonzero;fill:rgb(100%,100%,100%);fill-opacity:1;" d="M 602.0625 432.414062 L 603.605469 427.882812 L 605.984375 428.617188 "/>
<path style=" stroke:none;fill-rule:nonzero;fill:rgb(100%,100%,100%);fill-opacity:1;" d="M 619.046875 414.210938 L 617.117188 419.875 L 620.089844 420.792969 "/>
<path style=" stroke:none;fill-rule:nonzero;fill:rgb(100%,100%,100%);fill-opacity:1;" d="M 619.046875 414.210938 L 620.980469 419.875 L 618.007812 420.792969 "/>
<path style=" stroke:none;fill-rule:nonzero;fill:rgb(100%,100%,100%);fill-opacity:1;" d="M 624.992188 418.324219 L 618.742188 418.324219 L 618.742188 421.300781 "/>
<path style=" stroke:none;fill-rule:nonzero;fill:rgb(100%,100%,100%);fill-opacity:1;" d="M 624.992188 418.324219 L 619.933594 421.824219 L 618.097656 419.414062 "/>
<path style=" stroke:none;fill-rule:nonzero;fill:rgb(100%,100%,100%);fill-opacity:1;" d="M 613.105469 418.324219 L 618.160156 421.824219 L 619.996094 419.414062 "/>
<path style=" stroke:none;fill-rule:nonzero;fill:rgb(100%,100%,100%);fill-opacity:1;" d="M 613.105469 418.324219 L 619.355469 418.324219 L 619.355469 421.300781 "/>
<path style=" stroke:none;fill-rule:nonzero;fill:rgb(100%,100%,100%);fill-opacity:1;" d="M 622.722656 424.984375 L 620.789062 419.320312 L 617.816406 420.238281 "/>
<path style=" stroke:none;fill-rule:nonzero;fill:rgb(100%,100%,100%);fill-opacity:1;" d="M 622.722656 424.984375 L 617.664062 421.480469 L 619.5 419.074219 "/>
<path style=" stroke:none;fill-rule:nonzero;fill:rgb(100%,100%,100%);fill-opacity:1;" d="M 615.375 424.984375 L 620.429688 421.480469 L 618.59375 419.074219 "/>
<path style=" stroke:none;fill-rule:nonzero;fill:rgb(100%,100%,100%);fill-opacity:1;" d="M 615.375 424.984375 L 617.304688 419.320312 L 620.277344 420.238281 "/>
<path style=" stroke:none;fill-rule:nonzero;fill:rgb(100%,100%,100%);fill-opacity:1;" d="M 586.90625 420.617188 L 585.359375 425.148438 L 587.738281 425.886719 "/>
<path style=" stroke:none;fill-rule:nonzero;fill:rgb(100%,100%,100%);fill-opacity:1;" d="M 586.90625 420.617188 L 588.449219 425.148438 L 586.070312 425.886719 "/>
<path style=" stroke:none;fill-rule:nonzero;fill:rgb(100%,100%,100%);fill-opacity:1;" d="M 591.660156 423.910156 L 586.660156 423.910156 L 586.660156 426.292969 "/>
<path style=" stroke:none;fill-rule:nonzero;fill:rgb(100%,100%,100%);fill-opacity:1;" d="M 591.660156 423.910156 L 587.613281 426.710938 L 586.144531 424.785156 "/>
<path style=" stroke:none;fill-rule:nonzero;fill:rgb(100%,100%,100%);fill-opacity:1;" d="M 582.148438 423.910156 L 586.195312 426.710938 L 587.664062 424.785156 "/>
<path style=" stroke:none;fill-rule:nonzero;fill:rgb(100%,100%,100%);fill-opacity:1;" d="M 582.148438 423.910156 L 587.148438 423.910156 L 587.148438 426.292969 "/>
<path style=" stroke:none;fill-rule:nonzero;fill:rgb(100%,100%,100%);fill-opacity:1;" d="M 589.84375 429.238281 L 588.296875 424.707031 L 585.921875 425.441406 "/>
<path style=" stroke:none;fill-rule:nonzero;fill:rgb(100%,100%,100%);fill-opacity:1;" d="M 589.84375 429.238281 L 585.796875 426.4375 L 587.269531 424.507812 "/>
<path style=" stroke:none;fill-rule:nonzero;fill:rgb(100%,100%,100%);fill-opacity:1;" d="M 583.964844 429.238281 L 588.011719 426.4375 L 586.542969 424.507812 "/>
<path style=" stroke:none;fill-rule:nonzero;fill:rgb(100%,100%,100%);fill-opacity:1;" d="M 583.964844 429.238281 L 585.511719 424.707031 L 587.886719 425.441406 "/>
<path style=" stroke:none;fill-rule:nonzero;fill:rgb(100%,100%,100%);fill-opacity:1;" d="M 433.332031 334.351562 L 431.402344 340.015625 L 434.375 340.933594 "/>
<path style=" stroke:none;fill-rule:nonzero;fill:rgb(100%,100%,100%);fill-opacity:1;" d="M 433.332031 334.351562 L 435.265625 340.015625 L 432.292969 340.933594 "/>
<path style=" stroke:none;fill-rule:nonzero;fill:rgb(100%,100%,100%);fill-opacity:1;" d="M 439.277344 338.464844 L 433.027344 338.464844 L 433.027344 341.445312 "/>
<path style=" stroke:none;fill-rule:nonzero;fill:rgb(100%,100%,100%);fill-opacity:1;" d="M 439.277344 338.464844 L 434.222656 341.964844 L 432.382812 339.558594 "/>
<path style=" stroke:none;fill-rule:nonzero;fill:rgb(100%,100%,100%);fill-opacity:1;" d="M 427.390625 338.464844 L 432.445312 341.964844 L 434.28125 339.558594 "/>
<path style=" stroke:none;fill-rule:nonzero;fill:rgb(100%,100%,100%);fill-opacity:1;" d="M 427.390625 338.464844 L 433.640625 338.464844 L 433.640625 341.445312 "/>
<path style=" stroke:none;fill-rule:nonzero;fill:rgb(100%,100%,100%);fill-opacity:1;" d="M 437.007812 345.125 L 435.074219 339.460938 L 432.105469 340.378906 "/>
<path style=" stroke:none;fill-rule:nonzero;fill:rgb(100%,100%,100%);fill-opacity:1;" d="M 437.007812 345.125 L 431.949219 341.625 L 433.789062 339.214844 "/>
<path style=" stroke:none;fill-rule:nonzero;fill:rgb(100%,100%,100%);fill-opacity:1;" d="M 429.660156 345.125 L 434.714844 341.625 L 432.878906 339.214844 "/>
<path style=" stroke:none;fill-rule:nonzero;fill:rgb(100%,100%,100%);fill-opacity:1;" d="M 429.660156 345.125 L 431.589844 339.460938 L 434.5625 340.378906 "/>
<path style=" stroke:none;fill-rule:nonzero;fill:rgb(100%,100%,100%);fill-opacity:1;" d="M 547.617188 320.339844 L 546.074219 324.871094 L 548.453125 325.609375 "/>
<path style=" stroke:none;fill-rule:nonzero;fill:rgb(100%,100%,100%);fill-opacity:1;" d="M 547.617188 320.339844 L 549.164062 324.871094 L 546.785156 325.609375 "/>
<path style=" stroke:none;fill-rule:nonzero;fill:rgb(100%,100%,100%);fill-opacity:1;" d="M 552.375 323.632812 L 547.375 323.632812 L 547.375 326.015625 "/>
<path style=" stroke:none;fill-rule:nonzero;fill:rgb(100%,100%,100%);fill-opacity:1;" d="M 552.375 323.632812 L 548.328125 326.433594 L 546.859375 324.507812 "/>
<path style=" stroke:none;fill-rule:nonzero;fill:rgb(100%,100%,100%);fill-opacity:1;" d="M 542.863281 323.632812 L 546.910156 326.433594 L 548.378906 324.507812 "/>
<path style=" stroke:none;fill-rule:nonzero;fill:rgb(100%,100%,100%);fill-opacity:1;" d="M 542.863281 323.632812 L 547.863281 323.632812 L 547.863281 326.015625 "/>
<path style=" stroke:none;fill-rule:nonzero;fill:rgb(100%,100%,100%);fill-opacity:1;" d="M 550.558594 328.960938 L 549.011719 324.429688 L 546.636719 325.164062 "/>
<path style=" stroke:none;fill-rule:nonzero;fill:rgb(100%,100%,100%);fill-opacity:1;" d="M 550.558594 328.960938 L 546.511719 326.160156 L 547.980469 324.234375 "/>
<path style=" stroke:none;fill-rule:nonzero;fill:rgb(100%,100%,100%);fill-opacity:1;" d="M 544.679688 328.960938 L 548.726562 326.160156 L 547.253906 324.234375 "/>
<path style=" stroke:none;fill-rule:nonzero;fill:rgb(100%,100%,100%);fill-opacity:1;" d="M 544.679688 328.960938 L 546.226562 324.429688 L 548.601562 325.164062 "/>
<path style=" stroke:none;fill-rule:nonzero;fill:rgb(100%,100%,100%);fill-opacity:1;" d="M 500 401.222656 L 497.683594 408.015625 L 501.25 409.121094 "/>
<path style=" stroke:none;fill-rule:nonzero;fill:rgb(100%,100%,100%);fill-opacity:1;" d="M 500 401.222656 L 502.316406 408.015625 L 498.75 409.121094 "/>
<path style=" stroke:none;fill-rule:nonzero;fill:rgb(100%,100%,100%);fill-opacity:1;" d="M 507.132812 406.160156 L 499.632812 406.160156 L 499.632812 409.730469 "/>
<path style=" stroke:none;fill-rule:nonzero;fill:rgb(100%,100%,100%);fill-opacity:1;" d="M 507.132812 406.160156 L 501.066406 410.359375 L 498.859375 407.46875 "/>
<path style=" stroke:none;fill-rule:nonzero;fill:rgb(100%,100%,100%);fill-opacity:1;" d="M 492.867188 406.160156 L 498.933594 410.359375 L 501.140625 407.46875 "/>
<path style=" stroke:none;fill-rule:nonzero;fill:rgb(100%,100%,100%);fill-opacity:1;" d="M 492.867188 406.160156 L 500.367188 406.160156 L 500.367188 409.730469 "/>
<path style=" stroke:none;fill-rule:nonzero;fill:rgb(100%,100%,100%);fill-opacity:1;" d="M 504.410156 414.148438 L 502.089844 407.351562 L 498.523438 408.457031 "/>
<path style=" stroke:none;fill-rule:nonzero;fill:rgb(100%,100%,100%);fill-opacity:1;" d="M 504.410156 414.148438 L 498.339844 409.949219 L 500.546875 407.058594 "/>
<path style=" stroke:none;fill-rule:nonzero;fill:rgb(100%,100%,100%);fill-opacity:1;" d="M 495.589844 414.148438 L 501.660156 409.949219 L 499.453125 407.058594 "/>
<path style=" stroke:none;fill-rule:nonzero;fill:rgb(100%,100%,100%);fill-opacity:1;" d="M 495.589844 414.148438 L 497.910156 407.351562 L 501.476562 408.457031 "/>
<path style=" stroke:none;fill-rule:nonzero;fill:rgb(100%,100%,100%);fill-opacity:1;" d="M 520.238281 369.289062 L 518.308594 374.953125 L 521.277344 375.871094 "/>
<path style=" stroke:none;fill-rule:nonzero;fill:rgb(100%,100%,100%);fill-opacity:1;" d="M 520.238281 369.289062 L 522.167969 374.953125 L 519.199219 375.871094 "/>
<path style=" stroke:none;fill-rule:nonzero;fill:rgb(100%,100%,100%);fill-opacity:1;" d="M 526.183594 373.402344 L 519.933594 373.402344 L 519.933594 376.382812 "/>
<path style=" stroke:none;fill-rule:nonzero;fill:rgb(100%,100%,100%);fill-opacity:1;" d="M 526.183594 373.402344 L 521.125 376.90625 L 519.289062 374.496094 "/>
<path style=" stroke:none;fill-rule:nonzero;fill:rgb(100%,100%,100%);fill-opacity:1;" d="M 514.292969 373.402344 L 519.351562 376.90625 L 521.1875 374.496094 "/>
<path style=" stroke:none;fill-rule:nonzero;fill:rgb(100%,100%,100%);fill-opacity:1;" d="M 514.292969 373.402344 L 520.542969 373.402344 L 520.542969 376.382812 "/>
<path style=" stroke:none;fill-rule:nonzero;fill:rgb(100%,100%,100%);fill-opacity:1;" d="M 523.910156 380.0625 L 521.980469 374.398438 L 519.007812 375.320312 "/>
<path style=" stroke:none;fill-rule:nonzero;fill:rgb(100%,100%,100%);fill-opacity:1;" d="M 523.910156 380.0625 L 518.855469 376.5625 L 520.691406 374.152344 "/>
<path style=" stroke:none;fill-rule:nonzero;fill:rgb(100%,100%,100%);fill-opacity:1;" d="M 516.5625 380.0625 L 521.621094 376.5625 L 519.785156 374.152344 "/>
<path style=" stroke:none;fill-rule:nonzero;fill:rgb(100%,100%,100%);fill-opacity:1;" d="M 516.5625 380.0625 L 518.496094 374.398438 L 521.46875 375.320312 "/>
<path style=" stroke:none;fill-rule:nonzero;fill:rgb(100%,100%,100%);fill-opacity:1;" d="M 500 354.316406 L 498.070312 359.980469 L 501.039062 360.898438 "/>
<path style=" stroke:none;fill-rule:nonzero;fill:rgb(100%,100%,100%);fill-opacity:1;" d="M 500 354.316406 L 501.929688 359.980469 L 498.960938 360.898438 "/>
<path style=" stroke:none;fill-rule:nonzero;fill:rgb(100%,100%,100%);fill-opacity:1;" d="M 505.945312 358.429688 L 499.695312 358.429688 L 499.695312 361.40625 "/>
<path style=" stroke:none;fill-rule:nonzero;fill:rgb(100%,100%,100%);fill-opacity:1;" d="M 505.945312 358.429688 L 500.886719 361.929688 L 499.050781 359.523438 "/>
<path style=" stroke:none;fill-rule:nonzero;fill:rgb(100%,100%,100%);fill-opacity:1;" d="M 494.054688 358.429688 L 499.113281 361.929688 L 500.949219 359.523438 "/>
<path style=" stroke:none;fill-rule:nonzero;fill:rgb(100%,100%,100%);fill-opacity:1;" d="M 494.054688 358.429688 L 500.304688 358.429688 L 500.304688 361.40625 "/>
<path style=" stroke:none;fill-rule:nonzero;fill:rgb(100%,100%,100%);fill-opacity:1;" d="M 503.671875 365.089844 L 501.742188 359.425781 L 498.769531 360.34375 "/>
<path style=" stroke:none;fill-rule:nonzero;fill:rgb(100%,100%,100%);fill-opacity:1;" d="M 503.671875 365.089844 L 498.617188 361.589844 L 500.453125 359.179688 "/>
<path style=" stroke:none;fill-rule:nonzero;fill:rgb(100%,100%,100%);fill-opacity:1;" d="M 496.328125 365.089844 L 501.382812 361.589844 L 499.546875 359.179688 "/>
<path style=" stroke:none;fill-rule:nonzero;fill:rgb(100%,100%,100%);fill-opacity:1;" d="M 496.328125 365.089844 L 498.257812 359.425781 L 501.230469 360.34375 "/>
<path style=" stroke:none;fill-rule:nonzero;fill:rgb(100%,100%,100%);fill-opacity:1;" d="M 482.382812 370.480469 L 480.835938 375.011719 L 483.214844 375.746094 "/>
<path style=" stroke:none;fill-rule:nonzero;fill:rgb(100%,100%,100%);fill-opacity:1;" d="M 482.382812 370.480469 L 483.925781 375.011719 L 481.546875 375.746094 "/>
<path style=" stroke:none;fill-rule:nonzero;fill:rgb(100%,100%,100%);fill-opacity:1;" d="M 487.136719 373.773438 L 482.136719 373.773438 L 482.136719 376.152344 "/>
<path style=" stroke:none;fill-rule:nonzero;fill:rgb(100%,100%,100%);fill-opacity:1;" d="M 487.136719 373.773438 L 483.089844 376.574219 L 481.621094 374.644531 "/>
<path style=" stroke:none;fill-rule:nonzero;fill:rgb(100%,100%,100%);fill-opacity:1;" d="M 477.625 373.773438 L 481.671875 376.574219 L 483.140625 374.644531 "/>
<path style=" stroke:none;fill-rule:nonzero;fill:rgb(100%,100%,100%);fill-opacity:1;" d="M 477.625 373.773438 L 482.625 373.773438 L 482.625 376.152344 "/>
<path style=" stroke:none;fill-rule:nonzero;fill:rgb(100%,100%,100%);fill-opacity:1;" d="M 485.320312 379.097656 L 483.773438 374.566406 L 481.398438 375.304688 "/>
<path style=" stroke:none;fill-rule:nonzero;fill:rgb(100%,100%,100%);fill-opacity:1;" d="M 485.320312 379.097656 L 481.273438 376.296875 L 482.746094 374.371094 "/>
<path style=" stroke:none;fill-rule:nonzero;fill:rgb(100%,100%,100%);fill-opacity:1;" d="M 479.441406 379.097656 L 483.488281 376.296875 L 482.019531 374.371094 "/>
<path style=" stroke:none;fill-rule:nonzero;fill:rgb(100%,100%,100%);fill-opacity:1;" d="M 479.441406 379.097656 L 480.988281 374.566406 L 483.363281 375.304688 "/>
<path style=" stroke:none;fill-rule:nonzero;fill:rgb(100%,100%,100%);fill-opacity:1;" d="M 491.191406 383.410156 L 490.085938 386.648438 L 491.785156 387.175781 "/>
<path style=" stroke:none;fill-rule:nonzero;fill:rgb(100%,100%,100%);fill-opacity:1;" d="M 491.191406 383.410156 L 492.292969 386.648438 L 490.597656 387.175781 "/>
<path style=" stroke:none;fill-rule:nonzero;fill:rgb(100%,100%,100%);fill-opacity:1;" d="M 494.585938 385.761719 L 491.015625 385.761719 L 491.015625 387.464844 "/>
<path style=" stroke:none;fill-rule:nonzero;fill:rgb(100%,100%,100%);fill-opacity:1;" d="M 494.585938 385.761719 L 491.699219 387.761719 L 490.648438 386.386719 "/>
<path style=" stroke:none;fill-rule:nonzero;fill:rgb(100%,100%,100%);fill-opacity:1;" d="M 487.792969 385.761719 L 490.683594 387.761719 L 491.734375 386.386719 "/>
<path style=" stroke:none;fill-rule:nonzero;fill:rgb(100%,100%,100%);fill-opacity:1;" d="M 487.792969 385.761719 L 491.367188 385.761719 L 491.367188 387.464844 "/>
<path style=" stroke:none;fill-rule:nonzero;fill:rgb(100%,100%,100%);fill-opacity:1;" d="M 493.289062 389.566406 L 492.1875 386.332031 L 490.488281 386.855469 "/>
<path style=" stroke:none;fill-rule:nonzero;fill:rgb(100%,100%,100%);fill-opacity:1;" d="M 493.289062 389.566406 L 490.398438 387.566406 L 491.449219 386.191406 "/>
<path style=" stroke:none;fill-rule:nonzero;fill:rgb(100%,100%,100%);fill-opacity:1;" d="M 489.089844 389.566406 L 491.980469 387.566406 L 490.929688 386.191406 "/>
<path style=" stroke:none;fill-rule:nonzero;fill:rgb(100%,100%,100%);fill-opacity:1;" d="M 489.089844 389.566406 L 490.195312 386.332031 L 491.894531 386.855469 "/>
<path style=" stroke:none;fill-rule:nonzero;fill:rgb(100%,100%,100%);fill-opacity:1;" d="M 552.382812 439.84375 L 550.449219 445.507812 L 553.421875 446.429688 "/>
<path style=" stroke:none;fill-rule:nonzero;fill:rgb(100%,100%,100%);fill-opacity:1;" d="M 552.382812 439.84375 L 554.3125 445.507812 L 551.339844 446.429688 "/>
<path style=" stroke:none;fill-rule:nonzero;fill:rgb(100%,100%,100%);fill-opacity:1;" d="M 558.324219 443.960938 L 552.074219 443.960938 L 552.074219 446.9375 "/>
<path style=" stroke:none;fill-rule:nonzero;fill:rgb(100%,100%,100%);fill-opacity:1;" d="M 558.324219 443.960938 L 553.269531 447.460938 L 551.433594 445.050781 "/>
<path style=" stroke:none;fill-rule:nonzero;fill:rgb(100%,100%,100%);fill-opacity:1;" d="M 546.4375 443.960938 L 551.492188 447.460938 L 553.328125 445.050781 "/>
<path style=" stroke:none;fill-rule:nonzero;fill:rgb(100%,100%,100%);fill-opacity:1;" d="M 546.4375 443.960938 L 552.6875 443.960938 L 552.6875 446.9375 "/>
<path style=" stroke:none;fill-rule:nonzero;fill:rgb(100%,100%,100%);fill-opacity:1;" d="M 556.054688 450.617188 L 554.125 444.957031 L 551.152344 445.875 "/>
<path style=" stroke:none;fill-rule:nonzero;fill:rgb(100%,100%,100%);fill-opacity:1;" d="M 556.054688 450.617188 L 551 447.117188 L 552.835938 444.710938 "/>
<path style=" stroke:none;fill-rule:nonzero;fill:rgb(100%,100%,100%);fill-opacity:1;" d="M 548.707031 450.617188 L 553.761719 447.117188 L 551.925781 444.710938 "/>
<path style=" stroke:none;fill-rule:nonzero;fill:rgb(100%,100%,100%);fill-opacity:1;" d="M 548.707031 450.617188 L 550.636719 444.957031 L 553.609375 445.875 "/>
<path style=" stroke:none;fill-rule:nonzero;fill:rgb(100%,100%,100%);fill-opacity:1;" d="M 567.382812 426.289062 L 565.835938 430.820312 L 568.214844 431.558594 "/>
<path style=" stroke:none;fill-rule:nonzero;fill:rgb(100%,100%,100%);fill-opacity:1;" d="M 567.382812 426.289062 L 568.925781 430.820312 L 566.546875 431.558594 "/>
<path style=" stroke:none;fill-rule:nonzero;fill:rgb(100%,100%,100%);fill-opacity:1;" d="M 572.136719 429.582031 L 567.136719 429.582031 L 567.136719 431.964844 "/>
<path style=" stroke:none;fill-rule:nonzero;fill:rgb(100%,100%,100%);fill-opacity:1;" d="M 572.136719 429.582031 L 568.089844 432.382812 L 566.621094 430.457031 "/>
<path style=" stroke:none;fill-rule:nonzero;fill:rgb(100%,100%,100%);fill-opacity:1;" d="M 562.625 429.582031 L 566.671875 432.382812 L 568.140625 430.457031 "/>
<path style=" stroke:none;fill-rule:nonzero;fill:rgb(100%,100%,100%);fill-opacity:1;" d="M 562.625 429.582031 L 567.625 429.582031 L 567.625 431.964844 "/>
<path style=" stroke:none;fill-rule:nonzero;fill:rgb(100%,100%,100%);fill-opacity:1;" d="M 570.320312 434.910156 L 568.773438 430.378906 L 566.398438 431.113281 "/>
<path style=" stroke:none;fill-rule:nonzero;fill:rgb(100%,100%,100%);fill-opacity:1;" d="M 570.320312 434.910156 L 566.273438 432.109375 L 567.746094 430.179688 "/>
<path style=" stroke:none;fill-rule:nonzero;fill:rgb(100%,100%,100%);fill-opacity:1;" d="M 564.441406 434.910156 L 568.488281 432.109375 L 567.019531 430.179688 "/>
<path style=" stroke:none;fill-rule:nonzero;fill:rgb(100%,100%,100%);fill-opacity:1;" d="M 564.441406 434.910156 L 565.988281 430.378906 L 568.363281 431.113281 "/>
<path style=" stroke:none;fill-rule:nonzero;fill:rgb(100%,100%,100%);fill-opacity:1;" d="M 538.570312 422.207031 L 537.027344 426.738281 L 539.402344 427.472656 "/>
<path style=" stroke:none;fill-rule:nonzero;fill:rgb(100%,100%,100%);fill-opacity:1;" d="M 538.570312 422.207031 L 540.117188 426.738281 L 537.738281 427.472656 "/>
<path style=" stroke:none;fill-rule:nonzero;fill:rgb(100%,100%,100%);fill-opacity:1;" d="M 543.328125 425.5 L 538.328125 425.5 L 538.328125 427.878906 "/>
<path style=" stroke:none;fill-rule:nonzero;fill:rgb(100%,100%,100%);fill-opacity:1;" d="M 543.328125 425.5 L 539.28125 428.300781 L 537.8125 426.371094 "/>
<path style=" stroke:none;fill-rule:nonzero;fill:rgb(100%,100%,100%);fill-opacity:1;" d="M 533.816406 425.5 L 537.859375 428.300781 L 539.332031 426.371094 "/>
<path style=" stroke:none;fill-rule:nonzero;fill:rgb(100%,100%,100%);fill-opacity:1;" d="M 533.816406 425.5 L 538.816406 425.5 L 538.816406 427.878906 "/>
<path style=" stroke:none;fill-rule:nonzero;fill:rgb(100%,100%,100%);fill-opacity:1;" d="M 541.511719 430.824219 L 539.964844 426.292969 L 537.585938 427.03125 "/>
<path style=" stroke:none;fill-rule:nonzero;fill:rgb(100%,100%,100%);fill-opacity:1;" d="M 541.511719 430.824219 L 537.464844 428.023438 L 538.933594 426.097656 "/>
<path style=" stroke:none;fill-rule:nonzero;fill:rgb(100%,100%,100%);fill-opacity:1;" d="M 535.632812 430.824219 L 539.675781 428.023438 L 538.207031 426.097656 "/>
<path style=" stroke:none;fill-rule:nonzero;fill:rgb(100%,100%,100%);fill-opacity:1;" d="M 535.632812 430.824219 L 537.175781 426.292969 L 539.554688 427.03125 "/>
<path style=" stroke:none;fill-rule:nonzero;fill:rgb(100%,100%,100%);fill-opacity:1;" d="M 429.761719 414.832031 L 427.445312 421.628906 L 431.011719 422.734375 "/>
<path style=" stroke:none;fill-rule:nonzero;fill:rgb(100%,100%,100%);fill-opacity:1;" d="M 429.761719 414.832031 L 432.078125 421.628906 L 428.511719 422.734375 "/>
<path style=" stroke:none;fill-rule:nonzero;fill:rgb(100%,100%,100%);fill-opacity:1;" d="M 436.894531 419.769531 L 429.394531 419.769531 L 429.394531 423.34375 "/>
<path style=" stroke:none;fill-rule:nonzero;fill:rgb(100%,100%,100%);fill-opacity:1;" d="M 436.894531 419.769531 L 430.828125 423.972656 L 428.621094 421.082031 "/>
<path style=" stroke:none;fill-rule:nonzero;fill:rgb(100%,100%,100%);fill-opacity:1;" d="M 422.628906 419.769531 L 428.695312 423.972656 L 430.902344 421.082031 "/>
<path style=" stroke:none;fill-rule:nonzero;fill:rgb(100%,100%,100%);fill-opacity:1;" d="M 422.628906 419.769531 L 430.128906 419.769531 L 430.128906 423.34375 "/>
<path style=" stroke:none;fill-rule:nonzero;fill:rgb(100%,100%,100%);fill-opacity:1;" d="M 434.171875 427.761719 L 431.851562 420.964844 L 428.285156 422.070312 "/>
<path style=" stroke:none;fill-rule:nonzero;fill:rgb(100%,100%,100%);fill-opacity:1;" d="M 434.171875 427.761719 L 428.101562 423.5625 L 430.308594 420.667969 "/>
<path style=" stroke:none;fill-rule:nonzero;fill:rgb(100%,100%,100%);fill-opacity:1;" d="M 425.351562 427.761719 L 431.421875 423.5625 L 429.21875 420.667969 "/>
<path style=" stroke:none;fill-rule:nonzero;fill:rgb(100%,100%,100%);fill-opacity:1;" d="M 425.351562 427.761719 L 427.671875 420.964844 L 431.238281 422.070312 "/>
<path style=" stroke:none;fill-rule:nonzero;fill:rgb(100%,100%,100%);fill-opacity:1;" d="M 500 461.570312 L 499.226562 463.835938 L 500.417969 464.203125 "/>
<path style=" stroke:none;fill-rule:nonzero;fill:rgb(100%,100%,100%);fill-opacity:1;" d="M 500 461.570312 L 500.773438 463.835938 L 499.582031 464.203125 "/>
<path style=" stroke:none;fill-rule:nonzero;fill:rgb(100%,100%,100%);fill-opacity:1;" d="M 502.378906 463.214844 L 499.878906 463.214844 L 499.878906 464.40625 "/>
<path style=" stroke:none;fill-rule:nonzero;fill:rgb(100%,100%,100%);fill-opacity:1;" d="M 502.378906 463.214844 L 500.355469 464.613281 L 499.621094 463.652344 "/>
<path style=" stroke:none;fill-rule:nonzero;fill:rgb(100%,100%,100%);fill-opacity:1;" d="M 497.621094 463.214844 L 499.644531 464.613281 L 500.378906 463.652344 "/>
<path style=" stroke:none;fill-rule:nonzero;fill:rgb(100%,100%,100%);fill-opacity:1;" d="M 497.621094 463.214844 L 500.121094 463.214844 L 500.121094 464.40625 "/>
<path style=" stroke:none;fill-rule:nonzero;fill:rgb(100%,100%,100%);fill-opacity:1;" d="M 501.46875 465.878906 L 500.695312 463.613281 L 499.507812 463.980469 "/>
<path style=" stroke:none;fill-rule:nonzero;fill:rgb(100%,100%,100%);fill-opacity:1;" d="M 501.46875 465.878906 L 499.445312 464.476562 L 500.183594 463.515625 "/>
<path style=" stroke:none;fill-rule:nonzero;fill:rgb(100%,100%,100%);fill-opacity:1;" d="M 498.53125 465.878906 L 500.554688 464.476562 L 499.816406 463.515625 "/>
<path style=" stroke:none;fill-rule:nonzero;fill:rgb(100%,100%,100%);fill-opacity:1;" d="M 498.53125 465.878906 L 499.304688 463.613281 L 500.492188 463.980469 "/>
</g>
</svg>
