<?xml version="1.0" encoding="UTF-8"?>
<svg xmlns="http://www.w3.org/2000/svg" xmlns:xlink="http://www.w3.org/1999/xlink" width="1000px" height="667px" viewBox="0 0 1000 667" version="1.1">
<g id="surface1">
<rect x="0" y="0" width="1000" height="667" style="fill:rgb(82.352942%,15.294118%,18.82353%);fill-opacity:1;stroke:none;"/>
<path style=" stroke:none;fill-rule:nonzero;fill:rgb(100%,100%,100%);fill-opacity:1;" d="M 5.554688 0 L 116.667969 0 L 116.667969 667 L 5.554688 667 Z M 5.554688 0 "/>
<path style=" stroke:none;fill-rule:nonzero;fill:rgb(82.352942%,15.294118%,18.82353%);fill-opacity:1;" d="M 63.554688 0 L 63.554688 24.160156 L 58.667969 24.160156 L 58.667969 0 Z M 1.109375 42.242188 L 9.890625 42.242188 L 9.890625 32.609375 L 14.332031 32.609375 L 14.332031 20.898438 L 20.554688 20.898438 L 20.554688 10.671875 L 25.667969 10.671875 L 25.667969 0 L 41.109375 0 L 41.109375 10.671875 L 46.109375 10.671875 L 46.109375 20.898438 L 52.332031 20.898438 L 52.332031 32.609375 L 56.777344 32.609375 L 56.777344 42.242188 L 63.554688 42.242188 L 63.554688 57.214844 L 56.777344 57.214844 L 56.777344 66.847656 L 52.332031 66.847656 L 52.332031 78.558594 L 46.109375 78.558594 L 46.109375 88.785156 L 41.109375 88.785156 L 41.109375 99.753906 L 37.554688 99.753906 L 37.554688 108.941406 L 29.222656 108.941406 L 29.222656 99.753906 L 25.667969 99.753906 L 25.667969 88.785156 L 20.554688 88.785156 L 20.554688 78.558594 L 14.332031 78.558594 L 14.332031 66.847656 L 9.890625 66.847656 L 9.890625 57.214844 L 1.109375 57.214844 M 1.109375 5.039062 L 9.890625 5.039062 L 9.890625 18.378906 L 1.109375 18.378906 M 35.554688 22.382812 L 31 22.382812 L 31 31.421875 L 26.667969 31.421875 L 26.667969 42.835938 L 22.445312 42.835938 L 22.445312 56.917969 L 26.667969 56.917969 L 26.667969 68.332031 L 31 68.332031 L 31 77.222656 L 35.554688 77.222656 L 35.554688 68.332031 L 39.890625 68.332031 L 39.890625 56.917969 L 44.222656 56.917969 L 44.222656 42.835938 L 39.890625 42.835938 L 39.890625 31.421875 L 35.554688 31.421875 Z M 36 42.984375 L 36 56.324219 L 30.554688 56.324219 L 30.554688 42.984375 Z M 1.109375 77.964844 L 9.890625 77.964844 L 9.890625 92.34375 L 1.109375 92.34375 M 63.554688 79.300781 L 63.554688 99.605469 L 58.667969 99.605469 L 58.667969 79.300781 Z M 51.554688 101.828125 L 51.554688 111.90625 L 56.890625 111.90625 L 56.890625 122.285156 L 63.554688 122.285156 L 63.554688 135.917969 L 56.890625 135.917969 L 56.890625 146.445312 L 51.554688 146.445312 L 51.554688 156.523438 L 45.332031 156.523438 L 45.332031 146.445312 L 40 146.445312 L 40 135.917969 L 35.554688 135.917969 L 35.554688 122.285156 L 40 122.285156 L 40 111.90625 L 45.332031 111.90625 L 45.332031 101.828125 Z M 1.109375 122.285156 L 9.890625 122.285156 L 9.890625 111.90625 L 15.222656 111.90625 L 15.222656 101.828125 L 21.332031 101.828125 L 21.332031 111.90625 L 26.667969 111.90625 L 26.667969 122.285156 L 31.109375 122.285156 L 31.109375 135.917969 L 26.667969 135.917969 L 26.667969 146.445312 L 21.332031 146.445312 L 21.332031 156.523438 L 15.222656 156.523438 L 15.222656 146.445312 L 9.890625 146.445312 L 9.890625 135.917969 L 1.109375 135.917969 M 50.777344 122.578125 L 46.222656 122.578125 L 46.222656 135.476562 L 50.777344 135.476562 Z M 20.667969 122.578125 L 16.109375 122.578125 L 16.109375 135.476562 L 20.667969 135.476562 Z M 22.445312 336.167969 L 22.445312 329.203125 L 18.667969 329.203125 L 18.667969 318.679688 L 13.667969 318.679688 L 13.667969 312.304688 L 9.890625 312.304688 L 9.890625 302.078125 L 1.109375 302.078125 L 1.109375 278.363281 L 9.890625 278.363281 L 9.890625 285.179688 L 13.667969 285.179688 L 13.667969 295.109375 L 18.667969 295.109375 L 18.667969 306.96875 L 25.777344 306.96875 L 25.777344 296.296875 L 31 296.296875 L 31 288.441406 L 34.777344 288.441406 L 34.777344 279.101562 L 39.777344 279.101562 L 39.777344 269.171875 L 43.445312 269.171875 L 43.445312 259.09375 L 47 259.09375 L 47 248.71875 L 51.777344 248.71875 L 51.777344 234.785156 L 45.445312 234.785156 L 45.445312 222.183594 L 38.554688 222.183594 L 38.554688 214.625 L 27 214.625 L 27 225.59375 L 33.667969 225.59375 L 33.667969 235.523438 L 29.222656 235.523438 L 29.222656 247.679688 L 24 247.679688 L 24 258.351562 L 17.445312 258.351562 L 17.445312 247.679688 L 12 247.679688 L 12 235.523438 L 8.667969 235.523438 L 8.667969 225.59375 L 1.109375 225.59375 L 1.109375 206.769531 L 9.890625 206.769531 L 9.890625 194.617188 L 13.222656 194.617188 L 13.222656 185.277344 L 16.332031 185.277344 L 16.332031 174.605469 L 20.777344 174.605469 L 20.777344 164.082031 L 25.109375 164.082031 L 25.109375 157.117188 L 30.332031 157.117188 L 30.332031 146.589844 L 36.667969 146.589844 L 36.667969 157.117188 L 41.890625 157.117188 L 41.890625 164.082031 L 46.332031 164.082031 L 46.332031 174.605469 L 50.667969 174.605469 L 50.667969 185.277344 L 54.222656 185.277344 L 54.222656 194.46875 L 57.777344 194.46875 L 57.777344 202.472656 L 63.554688 202.472656 L 63.554688 261.316406 L 57 261.316406 L 57 271.246094 L 55.109375 271.246094 L 55.109375 281.621094 L 50.222656 281.621094 L 50.222656 291.703125 L 47.222656 291.703125 L 47.222656 299.113281 L 44.109375 299.113281 L 44.109375 306.96875 L 38.777344 306.96875 L 38.777344 314.675781 L 31.109375 314.675781 L 31.109375 336.167969 M 63.554688 156.375 L 63.554688 176.679688 L 58.667969 176.679688 L 58.667969 156.375 Z M 1.109375 160.226562 L 9.890625 160.226562 L 9.890625 174.605469 L 1.109375 174.605469 M 1.109375 246.640625 L 9.890625 246.640625 L 9.890625 261.019531 L 1.109375 261.019531 Z M 63.332031 283.105469 L 63.332031 296.148438 L 58.667969 296.148438 L 58.667969 283.105469 Z M 56.890625 336.167969 L 56.890625 328.015625 L 54 328.015625 L 54 321.640625 L 49.777344 321.640625 L 49.777344 302.523438 L 54 302.523438 L 54 310.230469 L 58.445312 310.230469 L 58.445312 321.492188 L 63.332031 321.492188 L 63.332031 336.019531 M 39.554688 336.019531 L 39.554688 326.535156 L 44.222656 326.535156 L 44.222656 336.019531 "/>
<path style=" stroke:none;fill-rule:nonzero;fill:rgb(82.352942%,15.294118%,18.82353%);fill-opacity:1;" d="M 58.667969 0 L 58.667969 24.160156 L 63.554688 24.160156 L 63.554688 0 Z M 121.109375 42.242188 L 112.332031 42.242188 L 112.332031 32.609375 L 107.890625 32.609375 L 107.890625 20.898438 L 101.667969 20.898438 L 101.667969 10.671875 L 96.554688 10.671875 L 96.554688 0 L 81.109375 0 L 81.109375 10.671875 L 76.109375 10.671875 L 76.109375 20.898438 L 69.890625 20.898438 L 69.890625 32.609375 L 65.445312 32.609375 L 65.445312 42.242188 L 58.667969 42.242188 L 58.667969 57.214844 L 65.445312 57.214844 L 65.445312 66.847656 L 69.890625 66.847656 L 69.890625 78.558594 L 76.109375 78.558594 L 76.109375 88.785156 L 81.109375 88.785156 L 81.109375 99.753906 L 84.667969 99.753906 L 84.667969 108.941406 L 93 108.941406 L 93 99.753906 L 96.554688 99.753906 L 96.554688 88.785156 L 101.667969 88.785156 L 101.667969 78.558594 L 107.890625 78.558594 L 107.890625 66.847656 L 112.332031 66.847656 L 112.332031 57.214844 L 121.109375 57.214844 M 121.109375 5.039062 L 112.332031 5.039062 L 112.332031 18.378906 L 121.109375 18.378906 M 86.667969 22.382812 L 91.222656 22.382812 L 91.222656 31.421875 L 95.554688 31.421875 L 95.554688 42.835938 L 99.777344 42.835938 L 99.777344 56.917969 L 95.554688 56.917969 L 95.554688 68.332031 L 91.222656 68.332031 L 91.222656 77.222656 L 86.667969 77.222656 L 86.667969 68.332031 L 82.332031 68.332031 L 82.332031 56.917969 L 78 56.917969 L 78 42.835938 L 82.332031 42.835938 L 82.332031 31.421875 L 86.667969 31.421875 Z M 86.222656 42.984375 L 86.222656 56.324219 L 91.667969 56.324219 L 91.667969 42.984375 Z M 121.109375 77.964844 L 112.332031 77.964844 L 112.332031 92.34375 L 121.109375 92.34375 M 58.667969 79.300781 L 58.667969 99.605469 L 63.554688 99.605469 L 63.554688 79.300781 Z M 70.667969 101.828125 L 70.667969 111.90625 L 65.332031 111.90625 L 65.332031 122.285156 L 58.667969 122.285156 L 58.667969 135.917969 L 65.332031 135.917969 L 65.332031 146.445312 L 70.667969 146.445312 L 70.667969 156.523438 L 76.890625 156.523438 L 76.890625 146.445312 L 82.222656 146.445312 L 82.222656 135.917969 L 86.667969 135.917969 L 86.667969 122.285156 L 82.222656 122.285156 L 82.222656 111.90625 L 76.890625 111.90625 L 76.890625 101.828125 Z M 121.109375 122.285156 L 112.332031 122.285156 L 112.332031 111.90625 L 107 111.90625 L 107 101.828125 L 100.890625 101.828125 L 100.890625 111.90625 L 95.554688 111.90625 L 95.554688 122.285156 L 91.109375 122.285156 L 91.109375 135.917969 L 95.554688 135.917969 L 95.554688 146.445312 L 100.890625 146.445312 L 100.890625 156.523438 L 107 156.523438 L 107 146.445312 L 112.332031 146.445312 L 112.332031 135.917969 L 121.109375 135.917969 M 71.445312 122.578125 L 76 122.578125 L 76 135.476562 L 71.445312 135.476562 Z M 101.554688 122.578125 L 106.109375 122.578125 L 106.109375 135.476562 L 101.554688 135.476562 Z M 99.777344 336.167969 L 99.777344 329.203125 L 103.554688 329.203125 L 103.554688 318.679688 L 108.554688 318.679688 L 108.554688 312.304688 L 112.332031 312.304688 L 112.332031 302.078125 L 121.109375 302.078125 L 121.109375 278.363281 L 112.332031 278.363281 L 112.332031 285.179688 L 108.554688 285.179688 L 108.554688 295.109375 L 103.554688 295.109375 L 103.554688 306.96875 L 96.445312 306.96875 L 96.445312 296.296875 L 91.222656 296.296875 L 91.222656 288.441406 L 87.445312 288.441406 L 87.445312 279.101562 L 82.445312 279.101562 L 82.445312 269.171875 L 78.777344 269.171875 L 78.777344 259.09375 L 75.222656 259.09375 L 75.222656 248.71875 L 70.445312 248.71875 L 70.445312 234.785156 L 76.777344 234.785156 L 76.777344 222.183594 L 83.667969 222.183594 L 83.667969 214.625 L 95.222656 214.625 L 95.222656 225.59375 L 88.554688 225.59375 L 88.554688 235.523438 L 93 235.523438 L 93 247.679688 L 98.222656 247.679688 L 98.222656 258.351562 L 104.777344 258.351562 L 104.777344 247.679688 L 110.222656 247.679688 L 110.222656 235.523438 L 113.554688 235.523438 L 113.554688 225.59375 L 121.109375 225.59375 L 121.109375 206.769531 L 112.332031 206.769531 L 112.332031 194.617188 L 109 194.617188 L 109 185.277344 L 105.890625 185.277344 L 105.890625 174.605469 L 101.445312 174.605469 L 101.445312 164.082031 L 97.109375 164.082031 L 97.109375 157.117188 L 91.890625 157.117188 L 91.890625 146.589844 L 85.554688 146.589844 L 85.554688 157.117188 L 80.332031 157.117188 L 80.332031 164.082031 L 75.890625 164.082031 L 75.890625 174.605469 L 71.554688 174.605469 L 71.554688 185.277344 L 68 185.277344 L 68 194.46875 L 64.445312 194.46875 L 64.445312 202.472656 L 58.667969 202.472656 L 58.667969 261.316406 L 65.222656 261.316406 L 65.222656 271.246094 L 67.109375 271.246094 L 67.109375 281.621094 L 72 281.621094 L 72 291.703125 L 75 291.703125 L 75 299.113281 L 78.109375 299.113281 L 78.109375 306.96875 L 83.445312 306.96875 L 83.445312 314.675781 L 91.109375 314.675781 L 91.109375 336.167969 M 58.667969 156.375 L 58.667969 176.679688 L 63.554688 176.679688 L 63.554688 156.375 Z M 121.109375 160.226562 L 112.332031 160.226562 L 112.332031 174.605469 L 121.109375 174.605469 M 121.109375 246.640625 L 112.332031 246.640625 L 112.332031 261.019531 L 121.109375 261.019531 Z M 58.890625 283.105469 L 58.890625 296.148438 L 63.554688 296.148438 L 63.554688 283.105469 Z M 65.332031 336.167969 L 65.332031 328.015625 L 68.222656 328.015625 L 68.222656 321.640625 L 72.445312 321.640625 L 72.445312 302.523438 L 68.222656 302.523438 L 68.222656 310.230469 L 63.777344 310.230469 L 63.777344 321.492188 L 58.890625 321.492188 L 58.890625 336.019531 M 82.667969 336.019531 L 82.667969 326.535156 L 78 326.535156 L 78 336.019531 "/>
<path style=" stroke:none;fill-rule:nonzero;fill:rgb(82.352942%,15.294118%,18.82353%);fill-opacity:1;" d="M 63.554688 667 L 63.554688 642.839844 L 58.667969 642.839844 L 58.667969 667 Z M 1.109375 624.757812 L 9.890625 624.757812 L 9.890625 634.390625 L 14.332031 634.390625 L 14.332031 646.101562 L 20.554688 646.101562 L 20.554688 656.328125 L 25.667969 656.328125 L 25.667969 667 L 41.109375 667 L 41.109375 656.328125 L 46.109375 656.328125 L 46.109375 646.101562 L 52.332031 646.101562 L 52.332031 634.390625 L 56.777344 634.390625 L 56.777344 624.757812 L 63.554688 624.757812 L 63.554688 609.785156 L 56.777344 609.785156 L 56.777344 600.152344 L 52.332031 600.152344 L 52.332031 588.441406 L 46.109375 588.441406 L 46.109375 578.214844 L 41.109375 578.214844 L 41.109375 567.246094 L 37.554688 567.246094 L 37.554688 558.058594 L 29.222656 558.058594 L 29.222656 567.246094 L 25.667969 567.246094 L 25.667969 578.214844 L 20.554688 578.214844 L 20.554688 588.441406 L 14.332031 588.441406 L 14.332031 600.152344 L 9.890625 600.152344 L 9.890625 609.785156 L 1.109375 609.785156 M 1.109375 661.960938 L 9.890625 661.960938 L 9.890625 648.621094 L 1.109375 648.621094 M 35.554688 644.617188 L 31 644.617188 L 31 635.578125 L 26.667969 635.578125 L 26.667969 624.164062 L 22.445312 624.164062 L 22.445312 610.082031 L 26.667969 610.082031 L 26.667969 598.667969 L 31 598.667969 L 31 589.777344 L 35.554688 589.777344 L 35.554688 598.667969 L 39.890625 598.667969 L 39.890625 610.082031 L 44.222656 610.082031 L 44.222656 624.164062 L 39.890625 624.164062 L 39.890625 635.578125 L 35.554688 635.578125 Z M 36 624.015625 L 36 610.675781 L 30.554688 610.675781 L 30.554688 624.015625 Z M 1.109375 589.035156 L 9.890625 589.035156 L 9.890625 574.65625 L 1.109375 574.65625 M 63.554688 587.699219 L 63.554688 567.394531 L 58.667969 567.394531 L 58.667969 587.699219 Z M 51.554688 565.171875 L 51.554688 555.09375 L 56.890625 555.09375 L 56.890625 544.714844 L 63.554688 544.714844 L 63.554688 531.082031 L 56.890625 531.082031 L 56.890625 520.554688 L 51.554688 520.554688 L 51.554688 510.476562 L 45.332031 510.476562 L 45.332031 520.554688 L 40 520.554688 L 40 531.082031 L 35.554688 531.082031 L 35.554688 544.714844 L 40 544.714844 L 40 555.09375 L 45.332031 555.09375 L 45.332031 565.171875 Z M 1.109375 544.714844 L 9.890625 544.714844 L 9.890625 555.09375 L 15.222656 555.09375 L 15.222656 565.171875 L 21.332031 565.171875 L 21.332031 555.09375 L 26.667969 555.09375 L 26.667969 544.714844 L 31.109375 544.714844 L 31.109375 531.082031 L 26.667969 531.082031 L 26.667969 520.554688 L 21.332031 520.554688 L 21.332031 510.476562 L 15.222656 510.476562 L 15.222656 520.554688 L 9.890625 520.554688 L 9.890625 531.082031 L 1.109375 531.082031 M 50.777344 544.421875 L 46.222656 544.421875 L 46.222656 531.523438 L 50.777344 531.523438 Z M 20.667969 544.421875 L 16.109375 544.421875 L 16.109375 531.523438 L 20.667969 531.523438 Z M 22.445312 330.832031 L 22.445312 337.796875 L 18.667969 337.796875 L 18.667969 348.320312 L 13.667969 348.320312 L 13.667969 354.695312 L 9.890625 354.695312 L 9.890625 364.921875 L 1.109375 364.921875 L 1.109375 388.636719 L 9.890625 388.636719 L 9.890625 381.820312 L 13.667969 381.820312 L 13.667969 371.890625 L 18.667969 371.890625 L 18.667969 360.03125 L 25.777344 360.03125 L 25.777344 370.703125 L 31 370.703125 L 31 378.558594 L 34.777344 378.558594 L 34.777344 387.898438 L 39.777344 387.898438 L 39.777344 397.828125 L 43.445312 397.828125 L 43.445312 407.90625 L 47 407.90625 L 47 418.28125 L 51.777344 418.28125 L 51.777344 432.214844 L 45.445312 432.214844 L 45.445312 444.816406 L 38.554688 444.816406 L 38.554688 452.375 L 27 452.375 L 27 441.40625 L 33.667969 441.40625 L 33.667969 431.476562 L 29.222656 431.476562 L 29.222656 419.320312 L 24 419.320312 L 24 408.648438 L 17.445312 408.648438 L 17.445312 419.320312 L 12 419.320312 L 12 431.476562 L 8.667969 431.476562 L 8.667969 441.40625 L 1.109375 441.40625 L 1.109375 460.230469 L 9.890625 460.230469 L 9.890625 472.382812 L 13.222656 472.382812 L 13.222656 481.722656 L 16.332031 481.722656 L 16.332031 492.394531 L 20.777344 492.394531 L 20.777344 502.917969 L 25.109375 502.917969 L 25.109375 509.882812 L 30.332031 509.882812 L 30.332031 520.410156 L 36.667969 520.410156 L 36.667969 509.882812 L 41.890625 509.882812 L 41.890625 502.917969 L 46.332031 502.917969 L 46.332031 492.394531 L 50.667969 492.394531 L 50.667969 481.722656 L 54.222656 481.722656 L 54.222656 472.53125 L 57.777344 472.53125 L 57.777344 464.527344 L 63.554688 464.527344 L 63.554688 405.683594 L 57 405.683594 L 57 395.753906 L 55.109375 395.753906 L 55.109375 385.378906 L 50.222656 385.378906 L 50.222656 375.296875 L 47.222656 375.296875 L 47.222656 367.886719 L 44.109375 367.886719 L 44.109375 360.03125 L 38.777344 360.03125 L 38.777344 352.324219 L 31.109375 352.324219 L 31.109375 330.832031 M 63.554688 510.625 L 63.554688 490.320312 L 58.667969 490.320312 L 58.667969 510.625 Z M 1.109375 506.773438 L 9.890625 506.773438 L 9.890625 492.394531 L 1.109375 492.394531 M 1.109375 420.359375 L 9.890625 420.359375 L 9.890625 405.980469 L 1.109375 405.980469 Z M 63.332031 383.894531 L 63.332031 370.851562 L 58.667969 370.851562 L 58.667969 383.894531 Z M 56.890625 330.832031 L 56.890625 338.984375 L 54 338.984375 L 54 345.359375 L 49.777344 345.359375 L 49.777344 364.476562 L 54 364.476562 L 54 356.769531 L 58.445312 356.769531 L 58.445312 345.507812 L 63.332031 345.507812 L 63.332031 330.980469 M 39.554688 330.980469 L 39.554688 340.464844 L 44.222656 340.464844 L 44.222656 330.980469 "/>
<path style=" stroke:none;fill-rule:nonzero;fill:rgb(82.352942%,15.294118%,18.82353%);fill-opacity:1;" d="M 58.667969 667 L 58.667969 642.839844 L 63.554688 642.839844 L 63.554688 667 Z M 121.109375 624.757812 L 112.332031 624.757812 L 112.332031 634.390625 L 107.890625 634.390625 L 107.890625 646.101562 L 101.667969 646.101562 L 101.667969 656.328125 L 96.554688 656.328125 L 96.554688 667 L 81.109375 667 L 81.109375 656.328125 L 76.109375 656.328125 L 76.109375 646.101562 L 69.890625 646.101562 L 69.890625 634.390625 L 65.445312 634.390625 L 65.445312 624.757812 L 58.667969 624.757812 L 58.667969 609.785156 L 65.445312 609.785156 L 65.445312 600.152344 L 69.890625 600.152344 L 69.890625 588.441406 L 76.109375 588.441406 L 76.109375 578.214844 L 81.109375 578.214844 L 81.109375 567.246094 L 84.667969 567.246094 L 84.667969 558.058594 L 93 558.058594 L 93 567.246094 L 96.554688 567.246094 L 96.554688 578.214844 L 101.667969 578.214844 L 101.667969 588.441406 L 107.890625 588.441406 L 107.890625 600.152344 L 112.332031 600.152344 L 112.332031 609.785156 L 121.109375 609.785156 M 121.109375 661.960938 L 112.332031 661.960938 L 112.332031 648.621094 L 121.109375 648.621094 M 86.667969 644.617188 L 91.222656 644.617188 L 91.222656 635.578125 L 95.554688 635.578125 L 95.554688 624.164062 L 99.777344 624.164062 L 99.777344 610.082031 L 95.554688 610.082031 L 95.554688 598.667969 L 91.222656 598.667969 L 91.222656 589.777344 L 86.667969 589.777344 L 86.667969 598.667969 L 82.332031 598.667969 L 82.332031 610.082031 L 78 610.082031 L 78 624.164062 L 82.332031 624.164062 L 82.332031 635.578125 L 86.667969 635.578125 Z M 86.222656 624.015625 L 86.222656 610.675781 L 91.667969 610.675781 L 91.667969 624.015625 Z M 121.109375 589.035156 L 112.332031 589.035156 L 112.332031 574.65625 L 121.109375 574.65625 M 58.667969 587.699219 L 58.667969 567.394531 L 63.554688 567.394531 L 63.554688 587.699219 Z M 70.667969 565.171875 L 70.667969 555.09375 L 65.332031 555.09375 L 65.332031 544.714844 L 58.667969 544.714844 L 58.667969 531.082031 L 65.332031 531.082031 L 65.332031 520.554688 L 70.667969 520.554688 L 70.667969 510.476562 L 76.890625 510.476562 L 76.890625 520.554688 L 82.222656 520.554688 L 82.222656 531.082031 L 86.667969 531.082031 L 86.667969 544.714844 L 82.222656 544.714844 L 82.222656 555.09375 L 76.890625 555.09375 L 76.890625 565.171875 Z M 121.109375 544.714844 L 112.332031 544.714844 L 112.332031 555.09375 L 107 555.09375 L 107 565.171875 L 100.890625 565.171875 L 100.890625 555.09375 L 95.554688 555.09375 L 95.554688 544.714844 L 91.109375 544.714844 L 91.109375 531.082031 L 95.554688 531.082031 L 95.554688 520.554688 L 100.890625 520.554688 L 100.890625 510.476562 L 107 510.476562 L 107 520.554688 L 112.332031 520.554688 L 112.332031 531.082031 L 121.109375 531.082031 M 71.445312 544.421875 L 76 544.421875 L 76 531.523438 L 71.445312 531.523438 Z M 101.554688 544.421875 L 106.109375 544.421875 L 106.109375 531.523438 L 101.554688 531.523438 Z M 99.777344 330.832031 L 99.777344 337.796875 L 103.554688 337.796875 L 103.554688 348.320312 L 108.554688 348.320312 L 108.554688 354.695312 L 112.332031 354.695312 L 112.332031 364.921875 L 121.109375 364.921875 L 121.109375 388.636719 L 112.332031 388.636719 L 112.332031 381.820312 L 108.554688 381.820312 L 108.554688 371.890625 L 103.554688 371.890625 L 103.554688 360.03125 L 96.445312 360.03125 L 96.445312 370.703125 L 91.222656 370.703125 L 91.222656 378.558594 L 87.445312 378.558594 L 87.445312 387.898438 L 82.445312 387.898438 L 82.445312 397.828125 L 78.777344 397.828125 L 78.777344 407.90625 L 75.222656 407.90625 L 75.222656 418.28125 L 70.445312 418.28125 L 70.445312 432.214844 L 76.777344 432.214844 L 76.777344 444.816406 L 83.667969 444.816406 L 83.667969 452.375 L 95.222656 452.375 L 95.222656 441.40625 L 88.554688 441.40625 L 88.554688 431.476562 L 93 431.476562 L 93 419.320312 L 98.222656 419.320312 L 98.222656 408.648438 L 104.777344 408.648438 L 104.777344 419.320312 L 110.222656 419.320312 L 110.222656 431.476562 L 113.554688 431.476562 L 113.554688 441.40625 L 121.109375 441.40625 L 121.109375 460.230469 L 112.332031 460.230469 L 112.332031 472.382812 L 109 472.382812 L 109 481.722656 L 105.890625 481.722656 L 105.890625 492.394531 L 101.445312 492.394531 L 101.445312 502.917969 L 97.109375 502.917969 L 97.109375 509.882812 L 91.890625 509.882812 L 91.890625 520.410156 L 85.554688 520.410156 L 85.554688 509.882812 L 80.332031 509.882812 L 80.332031 502.917969 L 75.890625 502.917969 L 75.890625 492.394531 L 71.554688 492.394531 L 71.554688 481.722656 L 68 481.722656 L 68 472.53125 L 64.445312 472.53125 L 64.445312 464.527344 L 58.667969 464.527344 L 58.667969 405.683594 L 65.222656 405.683594 L 65.222656 395.753906 L 67.109375 395.753906 L 67.109375 385.378906 L 72 385.378906 L 72 375.296875 L 75 375.296875 L 75 367.886719 L 78.109375 367.886719 L 78.109375 360.03125 L 83.445312 360.03125 L 83.445312 352.324219 L 91.109375 352.324219 L 91.109375 330.832031 M 58.667969 510.625 L 58.667969 490.320312 L 63.554688 490.320312 L 63.554688 510.625 Z M 121.109375 506.773438 L 112.332031 506.773438 L 112.332031 492.394531 L 121.109375 492.394531 M 121.109375 420.359375 L 112.332031 420.359375 L 112.332031 405.980469 L 121.109375 405.980469 Z M 58.890625 383.894531 L 58.890625 370.851562 L 63.554688 370.851562 L 63.554688 383.894531 Z M 65.332031 330.832031 L 65.332031 338.984375 L 68.222656 338.984375 L 68.222656 345.359375 L 72.445312 345.359375 L 72.445312 364.476562 L 68.222656 364.476562 L 68.222656 356.769531 L 63.777344 356.769531 L 63.777344 345.507812 L 58.890625 345.507812 L 58.890625 330.980469 M 82.667969 330.980469 L 82.667969 340.464844 L 78 340.464844 L 78 330.980469 "/>
<path style=" stroke:none;fill-rule:nonzero;fill:rgb(0%,59.215689%,22.352941%);fill-opacity:1;" d="M 116.667969 444.667969 L 1000 444.667969 L 1000 667 L 116.667969 667 Z M 116.667969 444.667969 "/>
</g>
</svg>
