<?xml version="1.0" encoding="UTF-8"?>
<svg xmlns="http://www.w3.org/2000/svg" xmlns:xlink="http://www.w3.org/1999/xlink" width="1000px" height="667px" viewBox="0 0 1000 667" version="1.1">
<g id="surface1">
<path style=" stroke:none;fill-rule:nonzero;fill:rgb(83.529413%,16.862746%,11.764706%);fill-opacity:1;" d="M 0 0 L 250 0 L 260.3125 13.757812 L 739.6875 13.757812 L 750 0 L 1000 0 L 1000 667 L 750 667 L 739.6875 653.242188 L 260.3125 653.242188 L 250 667 L 0 667 Z M 0 0 "/>
<path style=" stroke:none;fill-rule:nonzero;fill:rgb(100%,100%,100%);fill-opacity:1;" d="M 250 0 L 750 0 L 750 667 L 250 667 Z M 509.375 615.585938 L 504.6875 495.664062 C 504.550781 491.667969 505.777344 487.808594 508.023438 485.160156 C 510.269531 482.515625 513.296875 481.367188 516.25 482.046875 L 605.730469 503.027344 L 593.644531 458.5625 C 592.640625 454.933594 593.476562 450.855469 595.730469 448.417969 L 693.75 342.53125 L 671.667969 328.777344 C 668.582031 326.828125 667.0625 322.125 668.125 317.796875 L 687.5 238.3125 L 631.042969 254.292969 C 627.886719 255.171875 624.707031 252.960938 623.4375 249.011719 L 612.5 214.691406 L 568.4375 277.777344 C 566.367188 280.691406 563.105469 281.429688 560.429688 279.597656 C 557.753906 277.765625 556.308594 273.796875 556.875 269.855469 L 578.125 123.671875 L 544.0625 149.9375 C 542.445312 151.199219 540.507812 151.511719 538.714844 150.800781 C 536.917969 150.089844 535.421875 148.417969 534.582031 146.183594 L 500 55.582031 L 465.417969 146.183594 C 464.578125 148.417969 463.082031 150.089844 461.285156 150.800781 C 459.492188 151.511719 457.554688 151.199219 455.9375 149.9375 L 421.875 123.671875 L 443.125 269.855469 C 443.691406 273.796875 442.246094 277.765625 439.570312 279.597656 C 436.894531 281.429688 433.632812 280.691406 431.5625 277.777344 L 387.5 214.691406 L 376.5625 249.011719 C 375.292969 252.960938 372.113281 255.171875 368.957031 254.292969 L 312.5 238.3125 L 331.875 317.796875 C 332.9375 322.125 331.417969 326.828125 328.332031 328.777344 L 306.25 342.53125 L 404.269531 448.417969 C 406.523438 450.855469 407.359375 454.933594 406.355469 458.5625 L 394.269531 503.027344 L 483.75 482.046875 C 486.703125 481.367188 489.730469 482.515625 491.976562 485.160156 C 494.222656 487.808594 495.449219 491.667969 495.3125 495.664062 L 490.625 615.585938 Z M 509.375 615.585938 "/>
</g>
</svg>
