<?xml version="1.0" encoding="UTF-8"?>
<svg xmlns="http://www.w3.org/2000/svg" xmlns:xlink="http://www.w3.org/1999/xlink" width="1000px" height="667px" viewBox="0 0 1000 667" version="1.1">
<g id="surface1">
<rect x="0" y="0" width="1000" height="667" style="fill:rgb(0%,50.196081%,0%);fill-opacity:1;stroke:none;"/>
<path style=" stroke:none;fill-rule:nonzero;fill:rgb(100%,87.843138%,0%);fill-opacity:1;" d="M 604.167969 333.5 C 604.167969 410.246094 557.53125 472.457031 500 472.457031 C 442.46875 472.457031 395.832031 410.246094 395.832031 333.5 C 395.832031 256.753906 442.46875 194.542969 500 194.542969 C 557.53125 194.542969 604.167969 256.753906 604.167969 333.5 Z M 604.167969 333.5 "/>
<path style=" stroke:none;fill-rule:nonzero;fill:rgb(0%,50.196081%,0%);fill-opacity:1;" d="M 618.195312 333.5 C 618.195312 396.648438 579.820312 447.84375 532.480469 447.84375 C 485.140625 447.84375 446.765625 396.648438 446.765625 333.5 C 446.765625 270.351562 485.140625 219.15625 532.480469 219.15625 C 579.820312 219.15625 618.195312 270.351562 618.195312 333.5 Z M 618.195312 333.5 "/>
<path style=" stroke:none;fill-rule:nonzero;fill:rgb(100%,87.843138%,0%);fill-opacity:1;" d="M 280.753906 194.542969 C 280.753906 274.941406 231.894531 340.117188 171.628906 340.117188 C 111.359375 340.117188 62.5 274.941406 62.5 194.542969 C 62.5 114.144531 111.359375 48.964844 171.628906 48.964844 C 231.894531 48.964844 280.753906 114.144531 280.753906 194.542969 Z M 280.753906 194.542969 "/>
<path style="fill-rule:nonzero;fill:rgb(50.196081%,12.54902%,0%);fill-opacity:1;stroke-width:23.333;stroke-linecap:butt;stroke-linejoin:miter;stroke:rgb(48.235294%,19.215687%,0%);stroke-opacity:1;stroke-miterlimit:4;" d="M 1654.104375 2299.393741 L 1928.784375 2299.393741 C 1928.784375 2299.393741 1941.1875 2274.216173 1925.98875 2261.642148 C 1910.829375 2249.038606 1851.766875 2246.264055 1867.71375 2201.753186 C 1900.5525 2110.193028 1905.12 2138.410795 1925.713125 1920.9628 C 1946.30625 1703.514805 1956.22875 1362.481259 1956.22875 1362.481259 L 1916.578125 1362.481259 C 1916.578125 1362.481259 1924.1775 1468.534014 1901.300625 1606.641679 C 1878.42375 1744.719828 1871.533125 1756.939655 1846.3725 1862.99241 C 1821.211875 1969.045165 1817.3925 1978.195277 1794.47625 2040.002811 C 1771.599375 2101.780828 1769.315625 2104.850543 1733.445 2162.053504 C 1697.574375 2219.285982 1710.568125 2197.916042 1690.723125 2232.243722 C 1680.800625 2249.42232 1668.594375 2244.847264 1661.94 2257.33274 C 1655.24625 2269.818216 1654.104375 2299.393741 1654.104375 2299.393741 Z M 1654.104375 2299.393741 " transform="matrix(0.0992063,0,0,0.132341,0,0)"/>
<path style=" stroke:none;fill-rule:nonzero;fill:rgb(0%,50.196081%,0%);fill-opacity:1;" d="M 184.890625 88.484375 C 185.117188 94.128906 184.691406 101.601562 182.9375 107.6875 C 181.160156 114.464844 179.226562 121.21875 179.320312 128.238281 C 176.492188 129.523438 173.578125 120.078125 170.855469 125.632812 C 172.902344 133.3125 177.628906 139.390625 180.863281 146.308594 C 181.410156 148.453125 186.066406 154.054688 183.371094 155.355469 C 176.570312 152.25 174.921875 140.757812 170.703125 133.777344 C 165.804688 122.03125 156.671875 113.730469 146.5 113.15625 C 142.675781 113.289062 130.25 111.890625 133.484375 120.621094 C 138.246094 124.941406 144.113281 127.757812 148.8125 132.605469 C 152.316406 133.042969 158.664062 140.84375 158.296875 143.789062 C 152.136719 140.460938 149.25 136.472656 142.613281 132.96875 C 133.621094 128.335938 121.179688 131.121094 116.199219 143.03125 C 115.269531 146.132812 113.902344 155.171875 116.820312 156.03125 C 120.230469 148.925781 125.109375 140.984375 132.339844 143.113281 C 138.019531 143.707031 126.003906 157.226562 130.601562 154.507812 C 132.058594 153.644531 135.421875 150.699219 137.753906 150.390625 C 140.085938 150.085938 141.390625 152.414062 143.160156 152.738281 C 146.699219 153.382812 147.675781 155.363281 147.347656 156.515625 C 146.960938 157.871094 145.835938 156.710938 142.234375 158.234375 C 140.4375 158.996094 139.496094 161.105469 137.398438 162.070312 C 135.296875 163.035156 130.933594 163.105469 129.300781 162.25 C 123.589844 158.941406 114.230469 159.515625 112.453125 169.058594 C 112.449219 173.257812 109.652344 168.597656 108.355469 170.410156 C 107.386719 174.988281 107.136719 179.691406 102.042969 179.273438 C 98.953125 183.601562 95.789062 188.078125 91.863281 191.15625 C 94.167969 198.207031 103.292969 184.074219 102.867188 190.035156 C 98.875 197.289062 104.917969 198.816406 107.5625 193.230469 C 112.035156 186.925781 117.574219 179.253906 124.25 185.605469 C 127.429688 189.601562 129.277344 183.496094 131.578125 183.824219 C 133.027344 188.78125 134.851562 184.066406 136.496094 182.664062 C 139.191406 182.21875 138.433594 187.152344 141.632812 184.113281 C 148.011719 178.480469 155.855469 183.214844 162.089844 177.734375 C 168.71875 173.703125 163.019531 180.980469 161.1875 183.824219 C 158.273438 191.363281 160.800781 201.261719 154.480469 205.945312 C 151.941406 214.929688 157.480469 226.777344 151.832031 233.421875 C 151.011719 237.589844 159.097656 237.113281 161.367188 238.828125 C 165.34375 239.035156 161.195312 226.683594 165.140625 225.027344 C 170.433594 229.398438 170.1875 217.214844 169.09375 213.453125 C 169.605469 204.910156 169.96875 195.570312 173.148438 187.832031 C 176.535156 178.351562 179.664062 191.695312 175.878906 195.449219 C 173.726562 204.171875 170.59375 215.085938 175.488281 223.195312 C 176.894531 223.617188 178.054688 228.175781 179.878906 229.574219 C 181.703125 230.976562 184.199219 229.21875 184.652344 225.074219 C 186.996094 212.582031 185.816406 199.152344 189.160156 187.007812 C 191.519531 183.246094 194.773438 186.402344 196.238281 189.859375 C 200.921875 197.117188 204.214844 206.1875 209.890625 212.167969 C 215.054688 215.390625 219.621094 220.269531 222.003906 227.363281 C 221.96875 232.835938 233.652344 233.671875 230.164062 227.589844 C 226.8125 221.667969 229.023438 215.746094 232.417969 211.808594 C 234.234375 212.40625 233.695312 208.0625 232.269531 209.78125 C 229.988281 209.0625 229.84375 203.492188 233.015625 206.140625 C 238.355469 208.441406 232.597656 200.984375 230.667969 200.757812 C 226.152344 197.023438 220.964844 192.726562 218.742188 186.234375 C 224.621094 186.316406 230.726562 190.546875 236.730469 187.921875 C 241.546875 184.621094 246.429688 188.195312 248.113281 193.859375 C 251.835938 193.066406 250.25 188.085938 248.113281 186.429688 C 250.835938 184.929688 252.71875 181.824219 249.417969 179.082031 C 247.671875 176.046875 251.753906 170.871094 246.738281 171.085938 C 246.902344 165.972656 245.394531 161.296875 241.214844 159.53125 C 237.03125 154.800781 224.753906 166.492188 225.109375 155.839844 C 223.871094 150.039062 230.097656 155.0625 231.835938 152.171875 C 233.632812 146.058594 223.273438 146.65625 226.691406 141.914062 C 228.925781 139.996094 239.40625 137.242188 231.1875 135.191406 C 227.082031 136.695312 223.5625 135.578125 220.335938 132.871094 C 217.394531 139.4375 208.992188 129.308594 210.488281 140.976562 C 209.339844 145.375 201.832031 156.800781 199.796875 148.046875 C 201.527344 141.1875 210.421875 138.941406 207.664062 129.691406 C 207.242188 123.917969 203.652344 130.695312 201.960938 130.265625 C 201.105469 126.671875 204.550781 122.433594 206.953125 121.582031 C 211.71875 126.472656 211.863281 115.410156 216.394531 116.3125 C 219.703125 115.332031 215.328125 113.4375 214.402344 112.605469 C 215.308594 109.375 220.390625 107.722656 215.410156 104.917969 C 211.015625 100.566406 207.757812 109.25 204.132812 109.710938 C 200.652344 104.472656 207.289062 101.953125 209.121094 99.191406 C 209.222656 97.136719 205.25 98.574219 206.445312 96.78125 C 207.484375 94.308594 214.511719 94.125 211.21875 90.410156 C 206.261719 88.140625 199.867188 88.707031 195.109375 91.648438 C 192.113281 92.941406 191.234375 101.980469 188.652344 101.605469 C 187.4375 97.582031 189.046875 89.644531 184.890625 88.480469 Z M 208.328125 176.78125 C 212.105469 175.925781 208.410156 184.433594 206.59375 184.308594 C 206.753906 181.25 201.128906 181.546875 204.617188 178.882812 C 205.75 177.90625 207.011719 177.164062 208.328125 176.78125 Z M 208.328125 176.78125 "/>
<path style=" stroke:none;fill-rule:nonzero;fill:rgb(100%,87.843138%,0%);fill-opacity:1;" d="M 750 508.191406 L 756.886719 536.753906 L 777.921875 526.128906 L 765.476562 551.121094 L 784.820312 566.433594 L 762.410156 569.035156 L 765.496094 598.757812 L 750 577.007812 L 734.503906 598.757812 L 737.589844 569.035156 L 715.179688 566.433594 L 734.523438 551.121094 L 722.078125 526.128906 L 743.113281 536.753906 Z M 750 508.191406 "/>
<path style=" stroke:none;fill-rule:nonzero;fill:rgb(100%,87.843138%,0%);fill-opacity:1;" d="M 625 244.167969 L 631.886719 272.734375 L 652.921875 262.109375 L 640.476562 287.101562 L 659.820312 302.414062 L 637.410156 305.015625 L 640.496094 334.738281 L 625 312.988281 L 609.503906 334.738281 L 612.589844 305.015625 L 590.179688 302.414062 L 609.523438 287.101562 L 597.078125 262.109375 L 618.113281 272.734375 Z M 625 244.167969 "/>
<path style=" stroke:none;fill-rule:nonzero;fill:rgb(100%,87.843138%,0%);fill-opacity:1;" d="M 750 63.523438 L 756.886719 92.089844 L 777.921875 81.460938 L 765.476562 106.453125 L 784.820312 121.769531 L 762.410156 124.367188 L 765.496094 154.089844 L 750 132.339844 L 734.503906 154.089844 L 737.589844 124.367188 L 715.179688 121.769531 L 734.523438 106.453125 L 722.078125 81.460938 L 743.113281 92.089844 Z M 750 63.523438 "/>
<path style=" stroke:none;fill-rule:nonzero;fill:rgb(100%,87.843138%,0%);fill-opacity:1;" d="M 861.109375 199.703125 L 868 228.269531 L 889.035156 217.640625 L 876.585938 242.632812 L 895.929688 257.949219 L 873.519531 260.546875 L 876.605469 290.269531 L 861.109375 268.519531 L 845.617188 290.269531 L 848.699219 260.546875 L 826.292969 257.949219 L 845.636719 242.632812 L 833.1875 217.640625 L 854.222656 228.269531 Z M 861.109375 199.703125 "/>
<path style=" stroke:none;fill-rule:nonzero;fill:rgb(100%,87.843138%,0%);fill-opacity:1;" d="M 800 333.5 L 805.441406 351.296875 L 819.8125 352.703125 L 808.804688 365.109375 L 812.246094 383.777344 L 800 373.644531 L 787.753906 383.777344 L 791.195312 365.109375 L 780.1875 352.703125 L 794.558594 351.296875 Z M 800 333.5 "/>
</g>
</svg>
