<?xml version="1.0" encoding="UTF-8"?>
<svg xmlns="http://www.w3.org/2000/svg" xmlns:xlink="http://www.w3.org/1999/xlink" width="1000px" height="667px" viewBox="0 0 1000 667" version="1.1">
<defs>
<clipPath id="clip1">
  <path d="M 0 0 L 500 0 L 500 334 L 0 334 Z M 0 0 "/>
</clipPath>
<clipPath id="clip2">
  <path d="M 0 0 L 0 166.75 L 666.667969 166.75 L 666.667969 444.667969 Z M 500 0 L 250 0 L 250 444.667969 L -166.667969 444.667969 Z M 500 0 "/>
</clipPath>
<clipPath id="clip3">
  <path d="M 0 0 L 667 0 L 667 445 L 0 445 Z M 0 0 "/>
</clipPath>
<clipPath id="clip4">
  <path d="M 0 0 L 0 166.75 L 666.667969 166.75 L 666.667969 444.667969 Z M 500 0 L 250 0 L 250 444.667969 L -166.667969 444.667969 Z M 500 0 "/>
</clipPath>
</defs>
<g id="surface1">
<rect x="0" y="0" width="1000" height="667" style="fill:rgb(0.392157%,12.941177%,41.176471%);fill-opacity:1;stroke:none;"/>
<path style="fill-rule:nonzero;fill:rgb(0.392157%,12.941177%,41.176471%);fill-opacity:1;stroke-width:0.6;stroke-linecap:butt;stroke-linejoin:miter;stroke:rgb(100%,100%,100%);stroke-opacity:1;stroke-miterlimit:4;" d="M 0 0 L 6 3 M 0 3 L 6 0 " transform="matrix(83.333333,0,0,111.166667,0,0)"/>
<g clip-path="url(#clip1)" clip-rule="nonzero">
<g clip-path="url(#clip2)" clip-rule="nonzero">
<path style=" stroke:none;fill-rule:nonzero;fill:rgb(0.392157%,12.941177%,41.176471%);fill-opacity:1;" d="M 0 0 L 500 333.5 M 0 333.5 L 500 0 "/>
</g>
</g>
<g clip-path="url(#clip3)" clip-rule="nonzero">
<g clip-path="url(#clip4)" clip-rule="nonzero">
<path style="fill:none;stroke-width:0.4;stroke-linecap:butt;stroke-linejoin:miter;stroke:rgb(78.431374%,6.27451%,18.039216%);stroke-opacity:1;stroke-miterlimit:4;" d="M 0 0 L 6 3 M 0 3 L 6 0 " transform="matrix(83.333333,0,0,111.166667,0,0)"/>
</g>
</g>
<path style="fill-rule:nonzero;fill:rgb(0.392157%,12.941177%,41.176471%);fill-opacity:1;stroke-width:1;stroke-linecap:butt;stroke-linejoin:miter;stroke:rgb(100%,100%,100%);stroke-opacity:1;stroke-miterlimit:4;" d="M 3 0 L 3 4.000012 M 0 1.5 L 6.999984 1.5 " transform="matrix(83.333333,0,0,111.166667,0,0)"/>
<path style="fill-rule:nonzero;fill:rgb(0.392157%,12.941177%,41.176471%);fill-opacity:1;stroke-width:0.6;stroke-linecap:butt;stroke-linejoin:miter;stroke:rgb(78.431374%,6.27451%,18.039216%);stroke-opacity:1;stroke-miterlimit:4;" d="M 3 0 L 3 4.000012 M 0 1.5 L 6.999984 1.5 " transform="matrix(83.333333,0,0,111.166667,0,0)"/>
<path style=" stroke:none;fill-rule:nonzero;fill:rgb(0.392157%,12.941177%,41.176471%);fill-opacity:1;" d="M 0 333.5 L 500 333.5 L 500 0 L 1000 0 L 1000 667 L 0 667 Z M 0 333.5 "/>
<path style=" stroke:none;fill-rule:nonzero;fill:rgb(100%,100%,100%);fill-opacity:1;" d="M 750 56.695312 L 758.4375 91.296875 L 785.625 91.296875 L 763.644531 112.554688 L 772.082031 147.15625 L 750 125.894531 L 727.917969 147.15625 L 736.355469 112.554688 L 714.375 91.296875 L 741.5625 91.296875 Z M 750 56.695312 "/>
<path style=" stroke:none;fill-rule:nonzero;fill:rgb(100%,100%,100%);fill-opacity:1;" d="M 834.398438 80.625 L 831.554688 116.8125 L 856.394531 131.566406 L 829.832031 139.0625 L 826.988281 175.25 L 813.296875 143.84375 L 786.640625 151.285156 L 804.898438 124.253906 L 791.304688 92.90625 L 816.140625 107.65625 Z M 834.398438 80.625 "/>
<path style=" stroke:none;fill-rule:nonzero;fill:rgb(100%,100%,100%);fill-opacity:1;" d="M 904.203125 148.28125 L 890.574219 179.796875 L 908.765625 206.75 L 882.214844 199.1875 L 868.585938 230.703125 L 865.652344 194.585938 L 839.03125 186.917969 L 863.953125 172.132812 L 861.089844 136.117188 L 879.28125 163.070312 Z M 904.203125 148.28125 "/>
<path style=" stroke:none;fill-rule:nonzero;fill:rgb(100%,100%,100%);fill-opacity:1;" d="M 947.34375 247.960938 L 925.285156 269.359375 L 933.683594 303.851562 L 911.734375 282.539062 L 889.675781 303.933594 L 898.007812 269.347656 L 876.027344 247.898438 L 903.300781 247.910156 L 911.667969 213.457031 L 920.070312 247.949219 Z M 947.34375 247.960938 "/>
<path style=" stroke:none;fill-rule:nonzero;fill:rgb(100%,100%,100%);fill-opacity:1;" d="M 956.363281 362.433594 L 929.6875 370.011719 L 926.84375 406.082031 L 913.292969 374.699219 L 886.613281 382.277344 L 904.773438 355.199219 L 891.230469 323.679688 L 916.144531 338.492188 L 934.292969 311.554688 L 931.449219 347.625 Z M 956.363281 362.433594 "/>
<path style=" stroke:none;fill-rule:nonzero;fill:rgb(100%,100%,100%);fill-opacity:1;" d="M 929.699219 471.902344 L 903.019531 464.351562 L 889.425781 495.757812 L 886.613281 459.738281 L 859.929688 452.183594 L 884.773438 437.300781 L 882.015625 401.160156 L 900.257812 428.207031 L 925.050781 413.445312 L 911.457031 444.855469 Z M 929.699219 471.902344 "/>
<path style=" stroke:none;fill-rule:nonzero;fill:rgb(100%,100%,100%);fill-opacity:1;" d="M 871.964844 557.441406 L 849.894531 536.0625 L 827.898438 557.382812 L 836.3125 522.945312 L 814.242188 501.570312 L 841.472656 501.453125 L 849.972656 466.9375 L 858.390625 501.546875 L 885.539062 501.515625 L 863.546875 522.832031 Z M 871.964844 557.441406 "/>
<path style=" stroke:none;fill-rule:nonzero;fill:rgb(100%,100%,100%);fill-opacity:1;" d="M 793.140625 604.257812 L 779.496094 572.75 L 752.902344 580.292969 L 771.085938 553.398438 L 757.441406 521.894531 L 782.355469 536.566406 L 800.644531 509.644531 L 797.78125 545.832031 L 822.59375 560.53125 L 796.003906 568.070312 Z M 793.140625 604.257812 "/>
<path style=" stroke:none;fill-rule:nonzero;fill:rgb(100%,100%,100%);fill-opacity:1;" d="M 706.859375 604.257812 L 703.996094 568.070312 L 677.40625 560.53125 L 702.21875 545.832031 L 699.355469 509.644531 L 717.644531 536.566406 L 742.558594 521.894531 L 728.914062 553.398438 L 747.097656 580.292969 L 720.503906 572.75 Z M 706.859375 604.257812 "/>
<path style=" stroke:none;fill-rule:nonzero;fill:rgb(100%,100%,100%);fill-opacity:1;" d="M 628.035156 557.441406 L 636.453125 522.832031 L 614.460938 501.515625 L 641.609375 501.546875 L 650.027344 466.9375 L 658.527344 501.453125 L 685.757812 501.570312 L 663.6875 522.945312 L 672.101562 557.382812 L 650.105469 536.0625 Z M 628.035156 557.441406 "/>
<path style=" stroke:none;fill-rule:nonzero;fill:rgb(100%,100%,100%);fill-opacity:1;" d="M 570.300781 471.902344 L 588.542969 444.855469 L 574.949219 413.445312 L 599.742188 428.207031 L 617.984375 401.160156 L 615.226562 437.300781 L 640.070312 452.183594 L 613.386719 459.738281 L 610.574219 495.757812 L 596.980469 464.351562 Z M 570.300781 471.902344 "/>
<path style=" stroke:none;fill-rule:nonzero;fill:rgb(100%,100%,100%);fill-opacity:1;" d="M 543.636719 362.433594 L 568.550781 347.625 L 565.707031 311.554688 L 583.855469 338.492188 L 608.769531 323.679688 L 595.226562 355.199219 L 613.386719 382.277344 L 586.707031 374.699219 L 573.15625 406.082031 L 570.3125 370.011719 Z M 543.636719 362.433594 "/>
<path style=" stroke:none;fill-rule:nonzero;fill:rgb(100%,100%,100%);fill-opacity:1;" d="M 552.65625 247.960938 L 579.929688 247.949219 L 588.332031 213.457031 L 596.699219 247.910156 L 623.972656 247.898438 L 601.992188 269.347656 L 610.324219 303.933594 L 588.265625 282.539062 L 566.316406 303.851562 L 574.714844 269.359375 Z M 552.65625 247.960938 "/>
<path style=" stroke:none;fill-rule:nonzero;fill:rgb(100%,100%,100%);fill-opacity:1;" d="M 595.796875 148.28125 L 620.71875 163.070312 L 638.910156 136.117188 L 636.046875 172.132812 L 660.96875 186.917969 L 634.347656 194.585938 L 631.414062 230.703125 L 617.785156 199.1875 L 591.234375 206.75 L 609.425781 179.796875 Z M 595.796875 148.28125 "/>
<path style=" stroke:none;fill-rule:nonzero;fill:rgb(100%,100%,100%);fill-opacity:1;" d="M 665.601562 80.625 L 683.859375 107.65625 L 708.695312 92.90625 L 695.101562 124.253906 L 713.359375 151.285156 L 686.703125 143.84375 L 673.011719 175.25 L 670.167969 139.0625 L 643.605469 131.566406 L 668.445312 116.8125 Z M 665.601562 80.625 "/>
</g>
</svg>
