<?xml version="1.0" encoding="UTF-8"?>
<svg xmlns="http://www.w3.org/2000/svg" xmlns:xlink="http://www.w3.org/1999/xlink" width="1000px" height="667px" viewBox="0 0 1000 667" version="1.1">
<g id="surface1">
<path style=" stroke:none;fill-rule:nonzero;fill:rgb(0%,47.843137%,36.862746%);fill-opacity:1;" d="M 0 0 L 333.332031 0 L 333.332031 667 L 0 667 Z M 0 0 "/>
<path style=" stroke:none;fill-rule:nonzero;fill:rgb(80.784315%,6.666667%,14.901961%);fill-opacity:1;" d="M 333.332031 0 L 666.667969 0 L 666.667969 667 L 333.332031 667 Z M 333.332031 0 "/>
<path style=" stroke:none;fill-rule:nonzero;fill:rgb(98.823529%,81.960785%,8.627451%);fill-opacity:1;" d="M 666.667969 0 L 1000 0 L 1000 667 L 666.667969 667 Z M 666.667969 0 "/>
<path style=" stroke:none;fill-rule:nonzero;fill:rgb(98.823529%,81.960785%,8.627451%);fill-opacity:1;" d="M 500 244.566406 L 472.53125 329.148438 L 514.800781 342.886719 Z M 500 244.566406 "/>
<path style=" stroke:none;fill-rule:nonzero;fill:rgb(98.823529%,81.960785%,8.627451%);fill-opacity:1;" d="M 500 244.566406 L 527.46875 329.148438 L 485.199219 342.886719 Z M 500 244.566406 "/>
<path style=" stroke:none;fill-rule:nonzero;fill:rgb(98.823529%,81.960785%,8.627451%);fill-opacity:1;" d="M 584.539062 306.019531 L 495.648438 306.019531 L 495.648438 350.484375 Z M 584.539062 306.019531 "/>
<path style=" stroke:none;fill-rule:nonzero;fill:rgb(98.823529%,81.960785%,8.627451%);fill-opacity:1;" d="M 584.539062 306.019531 L 512.625 358.292969 L 486.5 322.316406 Z M 584.539062 306.019531 "/>
<path style=" stroke:none;fill-rule:nonzero;fill:rgb(98.823529%,81.960785%,8.627451%);fill-opacity:1;" d="M 552.246094 405.449219 L 524.78125 320.867188 L 482.511719 334.609375 Z M 552.246094 405.449219 "/>
<path style=" stroke:none;fill-rule:nonzero;fill:rgb(98.823529%,81.960785%,8.627451%);fill-opacity:1;" d="M 552.246094 405.449219 L 480.335938 353.175781 L 506.457031 317.199219 Z M 552.246094 405.449219 "/>
<path style=" stroke:none;fill-rule:nonzero;fill:rgb(98.823529%,81.960785%,8.627451%);fill-opacity:1;" d="M 447.753906 405.449219 L 519.664062 353.175781 L 493.542969 317.199219 Z M 447.753906 405.449219 "/>
<path style=" stroke:none;fill-rule:nonzero;fill:rgb(98.823529%,81.960785%,8.627451%);fill-opacity:1;" d="M 447.753906 405.449219 L 475.21875 320.867188 L 517.488281 334.609375 Z M 447.753906 405.449219 "/>
<path style=" stroke:none;fill-rule:nonzero;fill:rgb(98.823529%,81.960785%,8.627451%);fill-opacity:1;" d="M 415.460938 306.019531 L 487.375 358.292969 L 513.5 322.316406 Z M 415.460938 306.019531 "/>
<path style=" stroke:none;fill-rule:nonzero;fill:rgb(98.823529%,81.960785%,8.627451%);fill-opacity:1;" d="M 415.460938 306.019531 L 504.351562 306.019531 L 504.351562 350.484375 Z M 415.460938 306.019531 "/>
</g>
</svg>
