<?xml version="1.0" encoding="UTF-8"?>
<svg xmlns="http://www.w3.org/2000/svg" xmlns:xlink="http://www.w3.org/1999/xlink" width="1000px" height="667px" viewBox="0 0 1000 667" version="1.1">
<g id="surface1">
<rect x="0" y="0" width="1000" height="667" style="fill:rgb(93.333334%,10.980392%,14.509805%);fill-opacity:1;stroke:none;"/>
<path style=" stroke:none;fill-rule:nonzero;fill:rgb(100%,100%,0%);fill-opacity:1;" d="M 166.667969 66.699219 L 225.464844 247.691406 L 71.464844 135.835938 L 261.867188 135.835938 L 107.867188 247.691406 Z M 166.667969 66.699219 "/>
<path style=" stroke:none;fill-rule:nonzero;fill:rgb(100%,100%,0%);fill-opacity:1;" d="M 346.375 36.003906 L 340.816406 99.199219 L 308.15625 44.789062 L 366.5625 69.636719 L 304.742188 83.851562 Z M 346.375 36.003906 "/>
<path style=" stroke:none;fill-rule:nonzero;fill:rgb(100%,100%,0%);fill-opacity:1;" d="M 423.925781 110.191406 L 394.292969 166.273438 L 385.296875 103.449219 L 429.488281 149.023438 L 366.996094 138.121094 Z M 423.925781 110.191406 "/>
<path style=" stroke:none;fill-rule:nonzero;fill:rgb(100%,100%,0%);fill-opacity:1;" d="M 431.316406 222.03125 L 381.394531 261.140625 L 398.796875 200.113281 L 420.558594 259.757812 L 367.949219 224.300781 Z M 431.316406 222.03125 "/>
<path style=" stroke:none;fill-rule:nonzero;fill:rgb(100%,100%,0%);fill-opacity:1;" d="M 345.097656 268.953125 L 342.164062 332.320312 L 307.277344 279.3125 L 366.664062 301.71875 L 305.484375 318.484375 Z M 345.097656 268.953125 "/>
</g>
</svg>
