<?xml version="1.0" encoding="UTF-8"?>
<svg xmlns="http://www.w3.org/2000/svg" xmlns:xlink="http://www.w3.org/1999/xlink" width="1000px" height="667px" viewBox="0 0 1000 667" version="1.1">
<g id="surface1">
<rect x="0" y="0" width="1000" height="667" style="fill:rgb(0%,16.862746%,49.803922%);fill-opacity:1;stroke:none;"/>
<path style=" stroke:none;fill-rule:nonzero;fill:rgb(97.647059%,90.980393%,7.843138%);fill-opacity:1;" d="M 0 416.875 L 1000 416.875 L 1000 500.25 L 0 500.25 Z M 0 416.875 "/>
<path style=" stroke:none;fill-rule:nonzero;fill:rgb(100%,100%,100%);fill-opacity:1;" d="M 222.222656 148.222656 L 199.332031 218.707031 L 234.554688 230.15625 Z M 222.222656 148.222656 "/>
<path style=" stroke:none;fill-rule:nonzero;fill:rgb(100%,100%,100%);fill-opacity:1;" d="M 222.222656 148.222656 L 245.113281 218.707031 L 209.886719 230.15625 Z M 222.222656 148.222656 "/>
<path style=" stroke:none;fill-rule:nonzero;fill:rgb(100%,100%,100%);fill-opacity:1;" d="M 292.671875 199.433594 L 218.597656 199.433594 L 218.597656 236.488281 Z M 292.671875 199.433594 "/>
<path style=" stroke:none;fill-rule:nonzero;fill:rgb(100%,100%,100%);fill-opacity:1;" d="M 292.671875 199.433594 L 232.742188 242.992188 L 210.972656 213.015625 Z M 292.671875 199.433594 "/>
<path style=" stroke:none;fill-rule:nonzero;fill:rgb(100%,100%,100%);fill-opacity:1;" d="M 151.773438 199.433594 L 211.699219 242.992188 L 233.46875 213.015625 Z M 151.773438 199.433594 "/>
<path style=" stroke:none;fill-rule:nonzero;fill:rgb(100%,100%,100%);fill-opacity:1;" d="M 151.773438 199.433594 L 225.847656 199.433594 L 225.847656 236.488281 Z M 151.773438 199.433594 "/>
<path style=" stroke:none;fill-rule:nonzero;fill:rgb(100%,100%,100%);fill-opacity:1;" d="M 265.761719 282.289062 L 242.871094 211.804688 L 207.648438 223.257812 Z M 265.761719 282.289062 "/>
<path style=" stroke:none;fill-rule:nonzero;fill:rgb(100%,100%,100%);fill-opacity:1;" d="M 265.761719 282.289062 L 205.835938 238.730469 L 227.605469 208.75 Z M 265.761719 282.289062 "/>
<path style=" stroke:none;fill-rule:nonzero;fill:rgb(100%,100%,100%);fill-opacity:1;" d="M 178.683594 282.289062 L 238.609375 238.730469 L 216.839844 208.75 Z M 178.683594 282.289062 "/>
<path style=" stroke:none;fill-rule:nonzero;fill:rgb(100%,100%,100%);fill-opacity:1;" d="M 178.683594 282.289062 L 201.574219 211.804688 L 236.796875 223.257812 Z M 178.683594 282.289062 "/>
<path style=" stroke:none;fill-rule:nonzero;fill:rgb(100%,100%,100%);fill-opacity:1;" d="M 111.109375 55.582031 L 93.945312 108.445312 L 120.363281 117.035156 Z M 111.109375 55.582031 "/>
<path style=" stroke:none;fill-rule:nonzero;fill:rgb(100%,100%,100%);fill-opacity:1;" d="M 111.109375 55.582031 L 128.277344 108.445312 L 101.859375 117.035156 Z M 111.109375 55.582031 "/>
<path style=" stroke:none;fill-rule:nonzero;fill:rgb(100%,100%,100%);fill-opacity:1;" d="M 163.949219 93.992188 L 108.390625 93.992188 L 108.390625 121.78125 Z M 163.949219 93.992188 "/>
<path style=" stroke:none;fill-rule:nonzero;fill:rgb(100%,100%,100%);fill-opacity:1;" d="M 163.949219 93.992188 L 119.003906 126.660156 L 102.675781 104.175781 Z M 163.949219 93.992188 "/>
<path style=" stroke:none;fill-rule:nonzero;fill:rgb(100%,100%,100%);fill-opacity:1;" d="M 58.273438 93.992188 L 103.21875 126.660156 L 119.546875 104.175781 Z M 58.273438 93.992188 "/>
<path style=" stroke:none;fill-rule:nonzero;fill:rgb(100%,100%,100%);fill-opacity:1;" d="M 58.273438 93.992188 L 113.832031 93.992188 L 113.832031 121.78125 Z M 58.273438 93.992188 "/>
<path style=" stroke:none;fill-rule:nonzero;fill:rgb(100%,100%,100%);fill-opacity:1;" d="M 143.765625 156.132812 L 126.597656 103.273438 L 100.179688 111.859375 Z M 143.765625 156.132812 "/>
<path style=" stroke:none;fill-rule:nonzero;fill:rgb(100%,100%,100%);fill-opacity:1;" d="M 143.765625 156.132812 L 98.820312 123.464844 L 115.148438 100.980469 Z M 143.765625 156.132812 "/>
<path style=" stroke:none;fill-rule:nonzero;fill:rgb(100%,100%,100%);fill-opacity:1;" d="M 78.457031 156.132812 L 123.402344 123.464844 L 107.074219 100.980469 Z M 78.457031 156.132812 "/>
<path style=" stroke:none;fill-rule:nonzero;fill:rgb(100%,100%,100%);fill-opacity:1;" d="M 78.457031 156.132812 L 95.625 103.273438 L 122.042969 111.859375 Z M 78.457031 156.132812 "/>
</g>
</svg>
