<?xml version="1.0" encoding="UTF-8"?>
<svg xmlns="http://www.w3.org/2000/svg" xmlns:xlink="http://www.w3.org/1999/xlink" width="1000px" height="667px" viewBox="0 0 1000 667" version="1.1">
<g id="surface1">
<rect x="0" y="0" width="1000" height="667" style="fill:rgb(0%,12.941177%,67.843139%);fill-opacity:1;stroke:none;"/>
<path style=" stroke:none;fill-rule:nonzero;fill:rgb(10.980392%,54.11765%,25.882354%);fill-opacity:1;" d="M 0 0 L 1000 0 L 1000 667 Z M 0 0 "/>
<path style=" stroke:none;fill-rule:nonzero;fill:rgb(100%,77.64706%,22.352941%);fill-opacity:1;" d="M 590.320312 333.5 C 590.320312 400.042969 549.882812 453.988281 500 453.988281 C 450.117188 453.988281 409.679688 400.042969 409.679688 333.5 C 409.679688 266.957031 450.117188 213.011719 500 213.011719 C 549.882812 213.011719 590.320312 266.957031 590.320312 333.5 Z M 590.320312 333.5 "/>
<path style=" stroke:none;fill-rule:nonzero;fill:rgb(10.980392%,54.11765%,25.882354%);fill-opacity:1;" d="M 444.839844 279.378906 C 451.019531 290.6875 460.382812 309.648438 467.910156 304.699219 C 473.789062 304.722656 476.820312 305.277344 477.617188 310.492188 C 491.476562 313.640625 514.769531 305.839844 529.265625 280.65625 C 529.265625 280.65625 530.484375 280.871094 530.0625 271.296875 C 530.140625 267.128906 534.335938 267.964844 534.4375 269.320312 C 535.019531 271.390625 534.917969 272.9375 535.707031 272.992188 C 537.488281 272.199219 539.929688 266.859375 541.976562 263.472656 C 542.53125 261.980469 542.226562 260.40625 542.359375 258.523438 C 543.4375 254.988281 546.128906 255.753906 546.691406 257.609375 C 547.207031 258.808594 547.214844 259.722656 547.71875 260.917969 C 550.453125 263.351562 555.382812 261.078125 555.765625 261.078125 C 556.246094 258.109375 557.679688 258.390625 557.679688 258.390625 C 559.503906 257.851562 558.789062 258.066406 559.988281 258.902344 C 558.929688 274.914062 562.347656 275.628906 562.0625 283.84375 C 562.183594 293.011719 559.988281 295.621094 559.988281 299.117188 C 560.683594 303.394531 570.824219 303.539062 567.253906 307.15625 C 564.121094 309.390625 567.265625 313.570312 562.546875 315.199219 C 548.820312 324.488281 546.1875 332.464844 546.1875 332.464844 C 546.1875 332.464844 542.742188 341.148438 542.359375 341.148438 C 540.058594 346.945312 537.148438 343.785156 535.523438 346.609375 C 534.71875 350.15625 533.8125 358.023438 535.421875 362.113281 C 536.230469 367.730469 535.324219 370.796875 534.316406 376.417969 C 533.40625 388.144531 529.921875 389.917969 529.515625 394.03125 C 527.90625 398.429688 529.859375 419.082031 528.328125 419.082031 C 518.109375 419.351562 510.277344 416.472656 506.234375 415.398438 C 510.175781 392.742188 508.644531 372.839844 508.644531 370.796875 C 507.636719 354.59375 490.449219 358.535156 487.820312 356.382812 C 485.640625 355.765625 484.269531 353.398438 483.503906 352.378906 C 481.074219 352.027344 480.167969 351.289062 477.738281 350.953125 C 476.53125 351.757812 477.253906 352.59375 474.554688 353.707031 C 467.699219 354.8125 464.675781 345.734375 464.675781 345.734375 C 465.007812 342.683594 449.265625 346.355469 440.707031 343.703125 C 437.199219 346.3125 435.667969 354.03125 432.796875 354.945312 C 432.714844 357.339844 428.066406 352.980469 427.128906 350.628906 C 426.9375 343.785156 431.605469 340.761719 431.605469 340.761719 C 435.316406 337.277344 437.511719 336.714844 439.296875 334.304688 C 440.191406 328.347656 439.738281 323.9375 441.644531 319.460938 C 443.257812 316.046875 445.636719 317.644531 447.25 316.113281 C 448.984375 314.582031 449.71875 304.550781 448.117188 301.808594 C 448.117188 301.808594 441.179688 293.457031 440.796875 292.945312 C 438.539062 284.316406 443.4375 278.746094 444.839844 279.378906 Z M 444.839844 279.378906 "/>
<path style=" stroke:none;fill-rule:nonzero;fill:rgb(100%,77.64706%,22.352941%);fill-opacity:1;" d="M 877.929688 130.136719 C 873.835938 108.535156 837.210938 62.007812 809.683594 32.402344 C 803.109375 26.429688 798.828125 29.988281 799.683594 38.503906 C 803.109375 46.128906 805.679688 54.511719 809.109375 62.136719 C 810.066406 67.21875 811.871094 70.777344 812.828125 75.859375 C 812.828125 75.859375 813.109375 84.625 813.683594 85.386719 C 822.253906 97.972656 823.402344 108.640625 823.402344 108.640625 C 828.351562 121.351562 832.734375 130.625 841.402344 141.046875 C 851.121094 149.179688 843.972656 174.457031 844.253906 187.929688 C 844.253906 196.441406 839.691406 195.433594 835.6875 194.414062 C 804.160156 155.78125 772.914062 155.660156 745.386719 144.472656 C 734.621094 142.953125 734.429688 149.8125 737.957031 153.617188 C 757.199219 181.074219 775.292969 199.75 799.109375 215.375 C 803.109375 218.679688 807.113281 221.988281 811.113281 225.296875 C 815.679688 230.378906 820.257812 235.460938 824.824219 240.542969 C 835.394531 249.6875 836.261719 258.078125 836.261719 258.832031 C 836.542969 275.988281 829.679688 289.324219 827.683594 294.664062 C 824.078125 312.855469 816.832031 316.015625 816.832031 316.015625 C 757.957031 369.003906 727.09375 382.71875 631.648438 366.328125 C 630.21875 365.320312 621.078125 367.351562 631.648438 372.433594 C 655.941406 383.230469 715.609375 400.550781 773.339844 364.085938 C 787.199219 351.121094 796.472656 355.371094 806.511719 347.613281 C 823 334.046875 846.546875 317.15625 850.832031 315.261719 C 863.691406 306.105469 899.695312 295.820312 907.988281 286.664062 C 917.503906 285.640625 927.382812 283.972656 928.046875 273.054688 C 931.171875 270.351562 935.75 272.328125 939.144531 263.429688 C 946.695312 261.679688 945.425781 258.078125 945.425781 258.078125 C 943.519531 250.964844 936.464844 248.035156 931.425781 242.828125 C 923.984375 239.523438 918.84375 238.5 913.414062 242.0625 C 911.699219 243.085938 909.984375 244.09375 908.273438 245.117188 C 908.273438 245.117188 900.269531 243.582031 900.269531 242.828125 C 882.488281 241.527344 884.222656 162.921875 877.933594 130.136719 Z M 877.929688 130.136719 "/>
<path style=" stroke:none;fill-rule:nonzero;fill:rgb(10.980392%,54.11765%,25.882354%);fill-opacity:1;" d="M 919.628906 258.808594 C 919.117188 260.71875 916.820312 261.480469 914.5 260.507812 C 912.183594 259.539062 910.71875 257.203125 911.234375 255.292969 C 911.75 253.382812 914.042969 252.621094 916.363281 253.59375 C 918.679688 254.5625 920.144531 256.898438 919.628906 258.808594 Z M 919.628906 258.808594 "/>
<path style=" stroke:none;fill-rule:nonzero;fill:rgb(100%,100%,100%);fill-opacity:1;" d="M 188.160156 254.714844 L 175.410156 238.792969 L 162.503906 254.492188 L 163.886719 231.273438 L 146.640625 227.601562 L 161.113281 214.5625 L 152.507812 194.289062 L 169.175781 201.253906 L 175.695312 179.636719 L 182.003906 201.363281 L 198.738281 194.683594 L 189.9375 214.808594 L 204.285156 228.09375 L 187.003906 231.472656 Z M 188.160156 254.714844 "/>
<path style=" stroke:none;fill-rule:nonzero;fill:rgb(100%,100%,100%);fill-opacity:1;" d="M 233.390625 447.597656 L 219.636719 435.367188 L 206.246094 448.261719 L 210.957031 427.492188 L 197.375 414.933594 L 214.042969 414.339844 L 219.03125 393.667969 L 224.625 414.074219 L 241.292969 413.867188 L 228.082031 427.078125 Z M 233.390625 447.597656 "/>
<path style=" stroke:none;fill-rule:nonzero;fill:rgb(100%,100%,100%);fill-opacity:1;" d="M 190.679688 613.640625 L 177.929688 597.71875 L 165.027344 613.417969 L 166.410156 590.203125 L 149.160156 586.527344 L 163.636719 573.488281 L 155.03125 553.21875 L 171.699219 560.179688 L 178.214844 538.5625 L 184.527344 560.289062 L 201.257812 553.609375 L 192.460938 573.734375 L 206.808594 587.019531 L 189.523438 590.398438 L 190.683594 613.640625 Z M 190.679688 613.640625 "/>
<path style=" stroke:none;fill-rule:nonzero;fill:rgb(100%,100%,100%);fill-opacity:1;" d="M 76.09375 419.09375 L 63.34375 403.171875 L 50.441406 418.871094 L 51.824219 395.652344 L 34.574219 391.980469 L 49.046875 378.941406 L 40.441406 358.667969 L 57.109375 365.632812 L 63.628906 344.015625 L 69.9375 365.742188 L 86.671875 359.0625 L 77.871094 379.1875 L 92.21875 392.472656 L 74.9375 395.851562 Z M 76.09375 419.09375 "/>
<path style=" stroke:none;fill-rule:nonzero;fill:rgb(100%,100%,100%);fill-opacity:1;" d="M 296.585938 368.140625 L 283.835938 352.21875 L 270.933594 367.917969 L 272.316406 344.699219 L 255.066406 341.027344 L 269.542969 327.988281 L 260.9375 307.714844 L 277.605469 314.679688 L 284.121094 293.0625 L 290.429688 314.789062 L 307.164062 308.109375 L 298.363281 328.234375 L 312.714844 341.519531 L 295.429688 344.898438 L 296.589844 368.140625 Z M 296.585938 368.140625 "/>
</g>
</svg>
