<?xml version="1.0" encoding="UTF-8"?>
<svg xmlns="http://www.w3.org/2000/svg" xmlns:xlink="http://www.w3.org/1999/xlink" width="1000px" height="667px" viewBox="0 0 1000 667" version="1.1">
<g id="surface1">
<rect x="0" y="0" width="1000" height="667" style="fill:rgb(100%,100%,100%);fill-opacity:1;stroke:none;"/>
<path style=" stroke:none;fill-rule:nonzero;fill:rgb(30.588236%,35.686275%,19.215687%);fill-opacity:1;" d="M 514.554688 563.328125 C 514.410156 563.265625 514.277344 563.171875 514.171875 563.054688 L 514.03125 562.925781 C 513.414062 562.347656 512.828125 561.738281 512.273438 561.097656 C 510.792969 559.417969 508.808594 556.953125 507.0625 554.777344 C 503.601562 550.460938 500.742188 546.742188 500.203125 546.042969 L 499.320312 544.894531 L 490.691406 542.234375 L 484.390625 539.292969 L 487.757812 535.507812 L 499.320312 540.460938 L 507.949219 542.234375 L 523.910156 553.976562 L 523.898438 553.988281 C 523.867188 554.011719 521.578125 555.917969 519.300781 557.988281 C 518.289062 558.910156 517.007812 560.101562 516.105469 561.082031 C 515.734375 561.480469 515.386719 561.90625 515.070312 562.351562 C 514.882812 562.667969 514.710938 562.992188 514.554688 563.328125 M 455.289062 545.519531 C 447.503906 545.449219 439.875 543.3125 433.183594 539.332031 L 433.175781 539.332031 L 433.175781 539.320312 C 433.988281 537.960938 435.078125 536.789062 436.375 535.875 C 438.53125 534.292969 442.421875 532.398438 448.707031 532.375 L 448.835938 532.375 C 456.28125 532.375 465.390625 534.90625 475.917969 539.902344 C 469.679688 543.609375 462.546875 545.550781 455.289062 545.519531 L 455.300781 545.53125 Z M 422.65625 538.28125 C 421.324219 538.308594 420.046875 537.769531 419.132812 536.800781 C 418.347656 535.882812 417.804688 534.78125 417.554688 533.601562 C 417.199219 532.066406 417.066406 530.484375 417.164062 528.910156 C 417.714844 528.675781 418.304688 528.539062 418.902344 528.519531 L 419.027344 528.519531 C 421.816406 528.519531 424.015625 530.941406 424.957031 533.339844 C 425.46875 534.402344 425.578125 535.613281 425.261719 536.75 C 424.789062 537.742188 423.757812 538.34375 422.660156 538.273438 Z M 480.078125 531.625 C 460.789062 528.867188 452.613281 521.890625 449.152344 516.523438 C 446.960938 513.265625 445.929688 509.367188 446.226562 505.453125 L 446.226562 505.4375 L 446.238281 505.4375 C 447.207031 505.214844 448.199219 505.105469 449.191406 505.109375 C 454.324219 505.109375 467.449219 507.691406 480.082031 531.613281 L 480.089844 531.628906 L 480.066406 531.617188 Z M 440.542969 527.800781 C 432.304688 527.800781 426.03125 526.375 421.898438 523.574219 C 420.140625 522.449219 418.722656 520.863281 417.800781 518.988281 C 417.464844 518.277344 417.242188 517.519531 417.140625 516.742188 C 419.886719 515.625 422.808594 515.007812 425.769531 514.90625 C 426.195312 514.886719 426.625 514.875 427.074219 514.871094 C 433.441406 514.871094 443.128906 516.953125 453.347656 526.855469 L 453.359375 526.867188 L 453.34375 526.867188 C 449.097656 527.453125 444.820312 527.765625 440.535156 527.800781 Z M 400.644531 526.265625 C 391.957031 526.265625 380.019531 523.609375 372.574219 516.164062 L 372.566406 516.15625 L 372.589844 516.15625 C 378.246094 514.816406 384.027344 514.050781 389.835938 513.863281 C 390.378906 513.847656 390.925781 513.84375 391.476562 513.839844 C 399.621094 513.839844 405.859375 515.421875 410.011719 518.539062 C 411.171875 519.234375 412.03125 520.335938 412.429688 521.632812 C 412.523438 522.585938 412.070312 523.511719 411.257812 524.023438 C 409.386719 525.433594 406.042969 526.1875 401.320312 526.265625 L 400.652344 526.285156 Z M 372.488281 511.8125 C 371.421875 511.816406 370.414062 511.339844 369.734375 510.515625 C 369.109375 509.691406 368.6875 508.730469 368.503906 507.710938 C 368.21875 506.371094 368.109375 504.996094 368.179688 503.628906 L 368.179688 503.609375 C 368.605469 503.414062 369.066406 503.308594 369.53125 503.300781 C 370.621094 503.34375 371.652344 503.804688 372.410156 504.589844 C 373.25 505.414062 373.890625 506.421875 374.285156 507.53125 C 374.679688 508.457031 374.75 509.488281 374.484375 510.460938 C 374.160156 511.277344 373.363281 511.8125 372.484375 511.804688 Z M 437.523438 510.347656 C 436.191406 510.371094 434.914062 509.832031 434 508.863281 C 433.210938 507.949219 432.667969 506.847656 432.421875 505.664062 C 432.0625 504.128906 431.933594 502.550781 432.03125 500.976562 C 432.578125 500.738281 433.167969 500.605469 433.765625 500.582031 L 433.890625 500.582031 C 436.679688 500.582031 438.878906 503.003906 439.820312 505.40625 C 440.335938 506.464844 440.441406 507.679688 440.125 508.8125 C 439.652344 509.808594 438.621094 510.410156 437.527344 510.335938 Z M 405.84375 509.035156 C 388.359375 508.417969 379.289062 503.445312 374.75 499.382812 C 372.8125 497.679688 371.210938 495.625 370.039062 493.328125 C 369.605469 492.464844 369.265625 491.554688 369.03125 490.617188 L 369.054688 490.605469 C 370.453125 490.183594 371.910156 489.964844 373.371094 489.960938 L 373.78125 489.960938 C 379.675781 489.960938 391.679688 492.441406 405.835938 509.03125 L 405.835938 509.042969 Z M 424.832031 507.265625 C 410.765625 505.125 402.796875 499.082031 398.585938 494.386719 C 395.988281 491.597656 394.015625 488.285156 392.792969 484.675781 C 394.214844 484.347656 395.667969 484.171875 397.128906 484.152344 C 397.316406 484.152344 397.511719 484.144531 397.710938 484.144531 C 397.910156 484.144531 398.117188 484.144531 398.324219 484.152344 C 405.398438 484.308594 418.25 487.511719 424.828125 507.257812 L 424.839844 507.257812 Z M 352.609375 500.507812 C 348.132812 500.523438 343.671875 499.988281 339.320312 498.914062 C 331.957031 497.074219 328.796875 494.257812 327.441406 492.222656 C 326.859375 491.378906 326.46875 490.417969 326.296875 489.40625 C 326.238281 489.011719 326.226562 488.609375 326.261719 488.210938 L 326.296875 488.199219 C 330.101562 487.257812 334.003906 486.761719 337.925781 486.722656 C 338.191406 486.722656 338.457031 486.71875 338.730469 486.71875 C 341.925781 486.710938 345.113281 487.019531 348.246094 487.640625 C 355.351562 489.128906 361.6875 493.128906 366.082031 498.914062 L 366.082031 498.921875 L 366.066406 498.921875 C 361.660156 500 357.136719 500.53125 352.601562 500.5 Z M 385.265625 488.636719 C 383.941406 488.671875 382.660156 488.144531 381.742188 487.191406 C 380.953125 486.261719 380.410156 485.152344 380.164062 483.957031 C 379.808594 482.433594 379.675781 480.867188 379.773438 479.304688 C 380.324219 479.066406 380.910156 478.933594 381.511719 478.910156 L 381.632812 478.910156 C 384.417969 478.910156 386.621094 481.332031 387.566406 483.734375 C 388.070312 484.785156 388.164062 485.988281 387.835938 487.105469 C 387.386719 488.105469 386.363281 488.714844 385.269531 488.640625 Z M 360.710938 485.265625 C 356.035156 483.941406 351.5625 481.988281 347.414062 479.457031 C 341.253906 475.664062 333.71875 468.953125 332.800781 458.527344 L 332.816406 458.527344 C 333.28125 458.425781 333.757812 458.367188 334.234375 458.355469 C 334.347656 458.355469 334.476562 458.347656 334.605469 458.347656 C 336.445312 458.347656 340.214844 458.867188 344.769531 462.332031 C 350.570312 466.757812 355.925781 474.472656 360.714844 485.289062 Z M 376.746094 484.679688 C 372.929688 482.945312 369.386719 480.664062 366.222656 477.914062 C 358.050781 470.878906 351.683594 461.984375 347.648438 451.980469 C 348.917969 451.382812 350.3125 451.109375 351.710938 451.179688 C 354.390625 451.257812 358.46875 452.371094 362.992188 457.253906 C 368.1875 462.863281 372.828125 472.082031 376.769531 484.65625 L 376.78125 484.691406 L 376.75 484.683594 Z M 335.199219 483.464844 C 329.84375 483.464844 328.011719 480.558594 327.46875 479.308594 C 326.933594 478.003906 326.722656 476.589844 326.855469 475.1875 L 326.855469 475.164062 C 327.726562 474.949219 328.621094 474.832031 329.519531 474.816406 L 329.703125 474.816406 C 333.207031 474.730469 336.542969 476.316406 338.6875 479.085938 C 338.96875 479.507812 339.839844 480.96875 339.121094 482.109375 C 338.542969 483.011719 337.230469 483.46875 335.199219 483.46875 Z M 323.332031 468.492188 C 319.183594 468.5 315.042969 468.144531 310.953125 467.433594 C 306.183594 466.5625 303.480469 462.503906 302.050781 459.253906 C 301.089844 457.03125 300.417969 454.695312 300.050781 452.300781 L 300.0625 452.300781 C 314.820312 452.734375 321.792969 457.050781 325.039062 460.59375 C 327.050781 462.6875 328.304688 465.398438 328.601562 468.289062 L 328.59375 468.289062 C 328.570312 468.289062 326.492188 468.488281 323.324219 468.488281 Z M 338.699219 453.128906 C 337.5 451.617188 336.378906 450.046875 335.328125 448.425781 C 333.582031 445.710938 331.964844 442.867188 331.964844 440.550781 C 331.964844 438.3125 331.4375 433.585938 331.125 430.972656 C 330.726562 427.652344 330.324219 424.8125 330.292969 424.570312 L 330.304688 424.570312 C 330.679688 424.707031 339.535156 428.03125 339.535156 436.34375 C 339.535156 444.65625 338.714844 453.035156 338.707031 453.117188 L 338.707031 453.132812 L 338.699219 453.132812 Z M 327.222656 452.339844 C 327.128906 452.339844 327.035156 452.328125 326.945312 452.316406 C 324.328125 451.878906 319.722656 449.875 314.640625 446.957031 C 308.996094 443.71875 304.410156 440.25 301.730469 437.1875 C 299.285156 434.394531 297.839844 430.007812 297.417969 424.152344 C 297.234375 421.5 297.265625 418.835938 297.515625 416.1875 C 297.988281 416.035156 298.480469 415.960938 298.976562 415.964844 C 300.9375 415.996094 303.027344 416.878906 305.851562 418.828125 C 308.425781 420.660156 310.839844 422.710938 313.0625 424.957031 C 315.890625 427.765625 318.558594 430.722656 321.0625 433.816406 L 321.101562 433.863281 C 321.394531 434.390625 323.917969 438.945312 325.886719 443.375 C 326.867188 445.414062 327.625 447.558594 328.132812 449.761719 C 328.328125 450.410156 328.328125 451.097656 328.132812 451.742188 C 328.050781 451.953125 327.902344 452.128906 327.707031 452.242188 C 327.550781 452.308594 327.386719 452.34375 327.21875 452.339844 Z M 327.222656 452.339844 "/>
<path style=" stroke:none;fill-rule:nonzero;fill:rgb(30.588236%,35.686275%,19.215687%);fill-opacity:1;" d="M 485.445312 563.328125 C 485.589844 563.265625 485.722656 563.171875 485.828125 563.054688 L 485.96875 562.925781 C 486.585938 562.347656 487.171875 561.738281 487.726562 561.097656 C 489.207031 559.417969 491.191406 556.953125 492.9375 554.777344 C 496.398438 550.460938 499.257812 546.742188 499.796875 546.042969 L 500.679688 544.894531 L 509.308594 542.234375 L 515.609375 539.292969 L 512.242188 535.507812 L 500.679688 540.460938 L 492.050781 542.234375 L 476.089844 553.976562 L 476.101562 553.988281 C 476.132812 554.011719 478.421875 555.917969 480.699219 557.988281 C 481.710938 558.910156 482.992188 560.101562 483.894531 561.082031 C 484.265625 561.480469 484.613281 561.90625 484.929688 562.351562 C 485.117188 562.667969 485.289062 562.992188 485.445312 563.328125 M 544.710938 545.519531 C 552.496094 545.449219 560.125 543.3125 566.816406 539.332031 L 566.824219 539.332031 L 566.824219 539.320312 C 566.011719 537.960938 564.921875 536.789062 563.625 535.875 C 561.46875 534.292969 557.578125 532.398438 551.292969 532.375 L 551.164062 532.375 C 543.71875 532.375 534.609375 534.90625 524.082031 539.902344 C 530.320312 543.609375 537.453125 545.550781 544.710938 545.519531 L 544.699219 545.53125 Z M 577.34375 538.28125 C 578.675781 538.308594 579.953125 537.769531 580.867188 536.800781 C 581.652344 535.882812 582.195312 534.78125 582.445312 533.601562 C 582.800781 532.066406 582.933594 530.484375 582.835938 528.910156 C 582.285156 528.675781 581.695312 528.539062 581.097656 528.519531 L 580.972656 528.519531 C 578.183594 528.519531 575.984375 530.941406 575.042969 533.339844 C 574.53125 534.402344 574.421875 535.613281 574.738281 536.75 C 575.210938 537.742188 576.242188 538.34375 577.339844 538.273438 Z M 519.921875 531.625 C 539.210938 528.867188 547.386719 521.890625 550.847656 516.523438 C 553.039062 513.265625 554.070312 509.367188 553.773438 505.453125 L 553.773438 505.4375 L 553.761719 505.4375 C 552.792969 505.214844 551.800781 505.105469 550.808594 505.109375 C 545.675781 505.109375 532.550781 507.691406 519.917969 531.613281 L 519.910156 531.628906 L 519.933594 531.617188 Z M 559.457031 527.800781 C 567.695312 527.800781 573.96875 526.375 578.101562 523.574219 C 579.859375 522.449219 581.277344 520.863281 582.199219 518.988281 C 582.535156 518.277344 582.757812 517.519531 582.859375 516.742188 C 580.113281 515.625 577.191406 515.007812 574.230469 514.90625 C 573.804688 514.886719 573.375 514.875 572.925781 514.871094 C 566.558594 514.871094 556.871094 516.953125 546.652344 526.855469 L 546.640625 526.867188 L 546.65625 526.867188 C 550.902344 527.453125 555.179688 527.765625 559.464844 527.800781 Z M 599.355469 526.265625 C 608.042969 526.265625 619.980469 523.609375 627.425781 516.164062 L 627.433594 516.15625 L 627.410156 516.15625 C 621.753906 514.816406 615.972656 514.050781 610.164062 513.863281 C 609.621094 513.847656 609.074219 513.84375 608.523438 513.839844 C 600.378906 513.839844 594.140625 515.421875 589.988281 518.539062 C 588.828125 519.234375 587.96875 520.335938 587.570312 521.632812 C 587.476562 522.585938 587.929688 523.511719 588.742188 524.023438 C 590.613281 525.433594 593.957031 526.1875 598.679688 526.265625 L 599.347656 526.285156 Z M 627.511719 511.8125 C 628.578125 511.816406 629.585938 511.339844 630.265625 510.515625 C 630.890625 509.691406 631.3125 508.730469 631.496094 507.710938 C 631.78125 506.371094 631.890625 504.996094 631.820312 503.628906 L 631.820312 503.609375 C 631.394531 503.414062 630.933594 503.308594 630.46875 503.300781 C 629.378906 503.34375 628.347656 503.804688 627.589844 504.589844 C 626.75 505.414062 626.109375 506.421875 625.714844 507.53125 C 625.320312 508.457031 625.25 509.488281 625.515625 510.460938 C 625.839844 511.277344 626.636719 511.8125 627.515625 511.804688 Z M 562.476562 510.347656 C 563.808594 510.371094 565.085938 509.832031 566 508.863281 C 566.789062 507.949219 567.332031 506.847656 567.578125 505.664062 C 567.9375 504.128906 568.066406 502.550781 567.96875 500.976562 C 567.421875 500.738281 566.832031 500.605469 566.234375 500.582031 L 566.109375 500.582031 C 563.320312 500.582031 561.121094 503.003906 560.179688 505.40625 C 559.664062 506.464844 559.558594 507.679688 559.875 508.8125 C 560.347656 509.808594 561.378906 510.410156 562.472656 510.335938 Z M 594.15625 509.035156 C 611.640625 508.417969 620.710938 503.445312 625.25 499.382812 C 627.1875 497.679688 628.789062 495.625 629.960938 493.328125 C 630.394531 492.464844 630.734375 491.554688 630.96875 490.617188 L 630.945312 490.605469 C 629.546875 490.183594 628.089844 489.964844 626.628906 489.960938 L 626.21875 489.960938 C 620.324219 489.960938 608.320312 492.441406 594.164062 509.03125 L 594.164062 509.042969 Z M 575.167969 507.265625 C 589.234375 505.125 597.203125 499.082031 601.414062 494.386719 C 604.011719 491.597656 605.984375 488.285156 607.207031 484.675781 C 605.785156 484.347656 604.332031 484.171875 602.871094 484.152344 C 602.683594 484.152344 602.488281 484.144531 602.289062 484.144531 C 602.089844 484.144531 601.882812 484.144531 601.675781 484.152344 C 594.601562 484.308594 581.75 487.511719 575.171875 507.257812 L 575.160156 507.257812 Z M 647.390625 500.507812 C 651.867188 500.523438 656.328125 499.988281 660.679688 498.914062 C 668.042969 497.074219 671.203125 494.257812 672.558594 492.222656 C 673.140625 491.378906 673.53125 490.417969 673.703125 489.40625 C 673.761719 489.011719 673.773438 488.609375 673.738281 488.210938 L 673.703125 488.199219 C 669.898438 487.257812 665.996094 486.761719 662.074219 486.722656 C 661.808594 486.722656 661.542969 486.71875 661.269531 486.71875 C 658.074219 486.710938 654.886719 487.019531 651.753906 487.640625 C 644.648438 489.128906 638.3125 493.128906 633.917969 498.914062 L 633.917969 498.921875 L 633.933594 498.921875 C 638.339844 500 642.863281 500.53125 647.398438 500.5 Z M 614.734375 488.636719 C 616.058594 488.671875 617.339844 488.144531 618.257812 487.191406 C 619.046875 486.261719 619.589844 485.152344 619.835938 483.957031 C 620.191406 482.433594 620.324219 480.867188 620.226562 479.304688 C 619.675781 479.066406 619.089844 478.933594 618.488281 478.910156 L 618.367188 478.910156 C 615.582031 478.910156 613.378906 481.332031 612.433594 483.734375 C 611.929688 484.785156 611.835938 485.988281 612.164062 487.105469 C 612.613281 488.105469 613.636719 488.714844 614.730469 488.640625 Z M 639.289062 485.265625 C 643.964844 483.941406 648.4375 481.988281 652.585938 479.457031 C 658.746094 475.664062 666.28125 468.953125 667.199219 458.527344 L 667.183594 458.527344 C 666.71875 458.425781 666.242188 458.367188 665.765625 458.355469 C 665.652344 458.355469 665.523438 458.347656 665.394531 458.347656 C 663.554688 458.347656 659.785156 458.867188 655.230469 462.332031 C 649.429688 466.757812 644.074219 474.472656 639.285156 485.289062 Z M 623.253906 484.679688 C 627.070312 482.945312 630.613281 480.664062 633.777344 477.914062 C 641.949219 470.878906 648.316406 461.984375 652.351562 451.980469 C 651.082031 451.382812 649.6875 451.109375 648.289062 451.179688 C 645.609375 451.257812 641.53125 452.371094 637.007812 457.253906 C 631.8125 462.863281 627.171875 472.082031 623.230469 484.65625 L 623.21875 484.691406 L 623.25 484.683594 Z M 664.800781 483.464844 C 670.15625 483.464844 671.988281 480.558594 672.53125 479.308594 C 673.066406 478.003906 673.277344 476.589844 673.144531 475.1875 L 673.144531 475.164062 C 672.273438 474.949219 671.378906 474.832031 670.480469 474.816406 L 670.296875 474.816406 C 666.792969 474.730469 663.457031 476.316406 661.3125 479.085938 C 661.03125 479.507812 660.160156 480.96875 660.878906 482.109375 C 661.457031 483.011719 662.769531 483.46875 664.800781 483.46875 Z M 676.667969 468.492188 C 680.816406 468.5 684.957031 468.144531 689.046875 467.433594 C 693.816406 466.5625 696.519531 462.503906 697.949219 459.253906 C 698.910156 457.03125 699.582031 454.695312 699.949219 452.300781 L 699.9375 452.300781 C 685.179688 452.734375 678.207031 457.050781 674.960938 460.59375 C 672.949219 462.6875 671.695312 465.398438 671.398438 468.289062 L 671.40625 468.289062 C 671.429688 468.289062 673.507812 468.488281 676.675781 468.488281 Z M 661.300781 453.128906 C 662.5 451.617188 663.621094 450.046875 664.671875 448.425781 C 666.417969 445.710938 668.035156 442.867188 668.035156 440.550781 C 668.035156 438.3125 668.5625 433.585938 668.875 430.972656 C 669.273438 427.652344 669.675781 424.8125 669.707031 424.570312 L 669.695312 424.570312 C 669.320312 424.707031 660.464844 428.03125 660.464844 436.34375 C 660.464844 444.65625 661.285156 453.035156 661.292969 453.117188 L 661.292969 453.132812 L 661.300781 453.132812 Z M 672.777344 452.339844 C 672.871094 452.339844 672.964844 452.328125 673.054688 452.316406 C 675.671875 451.878906 680.277344 449.875 685.359375 446.957031 C 691.003906 443.71875 695.589844 440.25 698.269531 437.1875 C 700.714844 434.394531 702.160156 430.007812 702.582031 424.152344 C 702.765625 421.5 702.734375 418.835938 702.484375 416.1875 C 702.011719 416.035156 701.519531 415.960938 701.023438 415.964844 C 699.0625 415.996094 696.972656 416.878906 694.148438 418.828125 C 691.574219 420.660156 689.160156 422.710938 686.9375 424.957031 C 684.109375 427.765625 681.441406 430.722656 678.9375 433.816406 L 678.898438 433.863281 C 678.605469 434.390625 676.082031 438.945312 674.113281 443.375 C 673.132812 445.414062 672.375 447.558594 671.867188 449.761719 C 671.671875 450.410156 671.671875 451.097656 671.867188 451.742188 C 671.949219 451.953125 672.097656 452.128906 672.292969 452.242188 C 672.449219 452.308594 672.613281 452.34375 672.78125 452.339844 Z M 672.777344 452.339844 "/>
<path style=" stroke:none;fill-rule:nonzero;fill:rgb(83.529413%,47.058824%,0%);fill-opacity:1;" d="M 807.925781 115.578125 L 805.308594 116.621094 L 804.28125 117.027344 L 801.109375 116.855469 L 798.140625 118.28125 L 792.875 121.882812 L 792.640625 122.046875 L 790.679688 122.558594 L 788.855469 121.773438 L 787.820312 122.246094 L 787.464844 124.378906 L 786.476562 125.910156 L 785.265625 126.765625 L 781.0625 127.195312 L 777.515625 129.023438 L 772.90625 127.789062 L 770.761719 128.628906 L 766.207031 132.730469 L 763.878906 133.835938 L 763.066406 133.789062 L 759.980469 133.628906 L 758.675781 134.054688 L 756.730469 135.9375 L 753.046875 136.226562 L 751.898438 137.019531 L 750.101562 140.644531 L 748.152344 142.652344 L 747.042969 142.890625 L 745.835938 142.445312 L 744.925781 142.605469 L 744.515625 144.921875 L 743.632812 145.894531 L 741.167969 146.746094 L 739.199219 148.386719 L 737.46875 149.277344 L 735.15625 149.21875 L 734.621094 149.21875 L 732.316406 150.492188 L 727.980469 150.871094 L 726.179688 152.59375 L 725.78125 152.960938 L 724.9375 153.472656 L 723.558594 154.292969 L 723.226562 154.5 L 721.558594 154.203125 L 719.617188 154.972656 L 718.828125 153.761719 L 717.484375 154.570312 L 715.707031 154.644531 L 713.484375 153.65625 L 711.792969 152.902344 L 710.554688 153.082031 L 710.125 155.238281 L 710.082031 155.46875 L 708.78125 157.199219 L 706.355469 158.671875 L 706.023438 159.101562 L 703.261719 162.667969 L 698.015625 168.1875 L 693.578125 170.441406 L 688.980469 171.839844 L 685.757812 174.488281 L 677.3125 178.675781 L 663.984375 185.316406 L 661.257812 186.1875 L 657.347656 186.8125 L 650.371094 189.382812 L 644.21875 191.242188 L 643.875 191.34375 L 642.652344 191.714844 L 633.976562 194.339844 L 629.9375 193.914062 L 627.542969 194.785156 L 621.316406 194.09375 L 616.984375 194.179688 L 614.242188 194.75 L 609.089844 197.222656 L 600.394531 201.402344 L 597.519531 204.03125 L 593.046875 206.367188 L 587.808594 208.027344 L 587.820312 205.824219 L 587.789062 205.730469 L 585.96875 206.304688 L 584.65625 206.722656 L 580.40625 207.378906 L 578.042969 207.378906 L 576.574219 206.949219 L 576.351562 207.027344 L 567.667969 209.882812 L 557.980469 210.820312 L 553.132812 212.375 L 549.507812 212.316406 L 547.246094 212.992188 L 542.800781 213.535156 L 541.214844 213.109375 L 540.855469 213.011719 L 527.800781 213.578125 L 521.832031 212.90625 L 518.980469 213.554688 L 514.203125 211.945312 L 507.238281 211.136719 L 505.609375 210.648438 L 501.945312 209.5625 L 500.289062 210.515625 L 499.046875 210.648438 L 496.085938 209.574219 L 495.019531 209.546875 L 492.574219 210.4375 L 491.164062 210.074219 L 489.859375 209.035156 L 486.789062 208.578125 L 484.921875 207.003906 L 474.476562 208.390625 L 471.640625 207.554688 L 462.136719 204.785156 L 460.625 204.863281 L 458.738281 206.273438 L 455.90625 207.308594 L 453.449219 207.945312 L 450.101562 208.058594 L 446.210938 207.039062 L 442.207031 205.09375 L 440.722656 204.742188 L 437.421875 205.074219 L 436.410156 205.167969 L 430.335938 201.90625 L 422.511719 197.015625 L 417.203125 194.460938 L 415.207031 194.136719 L 414.941406 195.085938 L 415.929688 198.195312 L 416.261719 201.28125 L 416.164062 204.128906 L 416.109375 205.894531 L 416.601562 207.476562 L 418.519531 209.605469 L 419.320312 211.738281 L 419.902344 217.613281 L 419.898438 223.574219 L 418.964844 233.078125 L 418.648438 234.523438 L 417.539062 239.449219 L 416.523438 243.972656 L 412.582031 256.015625 L 411.5 257.507812 L 408.84375 259.320312 L 402.824219 263.421875 L 398.390625 265.976562 L 396.988281 266.558594 L 393.386719 266.832031 L 391.144531 266.71875 L 388.351562 265.207031 L 385.613281 264.5 L 382.019531 261.917969 L 378.019531 261.089844 L 373.640625 258.558594 L 372.503906 257.1875 L 370.117188 256.964844 L 366.8125 255.972656 L 366.8125 255.96875 L 365.597656 255.601562 L 364.757812 255.359375 L 360.535156 255.246094 L 356.601562 253.429688 L 354.53125 252.929688 L 351.699219 252.789062 L 348.738281 254.164062 L 347.238281 254.863281 L 345.339844 254.109375 L 343.96875 254.195312 L 342.414062 256.546875 L 342.222656 256.90625 L 341.152344 257.472656 L 339.816406 257.453125 L 338.773438 257.425781 L 337.644531 257.921875 L 336.125 258.578125 L 334.785156 259.164062 L 334.128906 259.449219 L 334.117188 259.4375 L 333.714844 259.519531 L 332.996094 259.644531 L 332.109375 259.8125 L 330.542969 258.898438 L 329.707031 258.40625 L 328.3125 258.121094 L 327.558594 258.664062 L 327.410156 261.222656 L 326.722656 262.753906 L 324.546875 264.679688 L 322.332031 266.632812 L 320.789062 268.90625 L 316.703125 278.234375 L 314.148438 281.996094 L 313.351562 282.875 L 310.667969 285.832031 L 308.292969 287.671875 L 302.824219 291.914062 L 297.648438 293.851562 L 293.1875 294.761719 L 291.019531 294.769531 L 286.910156 294.222656 L 283.21875 293.089844 L 279.164062 290.554688 L 274.71875 286.976562 L 268.28125 280.613281 L 267.367188 280.066406 L 267.179688 279.9375 L 265.152344 278.640625 L 263.648438 278.679688 L 263.058594 279.652344 L 262.734375 281.054688 L 262.464844 282.300781 L 261.726562 289.378906 L 261.78125 289.789062 L 262.167969 292.703125 L 267.058594 299.539062 L 268.566406 303.171875 L 268.8125 303.585938 L 269.820312 305.28125 L 270.589844 306.574219 L 270.667969 306.707031 L 272.332031 311.695312 L 271.160156 314.511719 L 271.753906 316.402344 L 270.269531 317.554688 L 269.996094 319.183594 L 274.386719 324.691406 L 275.34375 327.117188 L 274.273438 330.484375 L 272.566406 332.34375 L 272.089844 332.851562 L 272.328125 334.273438 L 274.351562 336.09375 L 277.78125 339.148438 L 279.613281 343.691406 L 281.003906 344.914062 L 282.621094 344.570312 L 283.523438 345.257812 L 284.886719 345.234375 L 286.230469 346.578125 L 287.097656 346.996094 L 288.472656 347.683594 L 289.558594 349.097656 L 289.796875 353.445312 L 291.820312 358.847656 L 291.851562 361.777344 L 291.863281 362.191406 L 293.125 364.359375 L 293.519531 366.066406 L 292.851562 370.589844 L 294.457031 372.042969 L 296.199219 371.6875 L 297.324219 371.863281 L 299.128906 373.371094 L 301.316406 376.703125 L 303.457031 376.390625 L 304.816406 377.046875 L 311.371094 382.976562 L 312.859375 383.726562 L 312.941406 383.773438 L 314.011719 384.3125 L 315.34375 385.652344 L 317.40625 384.285156 L 317.636719 384.261719 L 319.878906 384.0625 L 320.863281 384.730469 L 322.75 386.007812 L 325.234375 385.976562 L 330.617188 387.625 L 332.96875 388.230469 L 337.703125 391.171875 L 339.714844 392.417969 L 340.90625 393.386719 L 342.488281 394.675781 L 345.652344 396.039062 L 348.363281 396.6875 L 349.832031 397.035156 L 350.941406 397.464844 L 350.96875 397.394531 L 350.984375 397.394531 L 350.957031 397.464844 L 356.828125 399.714844 L 360.011719 400.457031 L 362.953125 401.539062 L 365.09375 402.316406 L 366.664062 402.34375 L 368.886719 400.472656 L 371.039062 400.347656 L 372.828125 400.792969 L 374.570312 400.5 L 377.332031 398.800781 L 377.871094 398 L 379.828125 397.066406 L 386.433594 396.246094 L 388.363281 396.875 L 393.320312 394.71875 L 396.640625 395.640625 L 399.578125 394.597656 L 406 396.027344 L 407.707031 397.226562 L 409.613281 399.410156 L 409.847656 399.421875 L 411.972656 399.464844 L 411.082031 400.941406 L 413.886719 403.886719 L 416.417969 407.714844 L 416.589844 408.21875 L 418.429688 413.628906 L 419.800781 415.542969 L 420.757812 418.214844 L 420.804688 419.960938 L 419.3125 421.097656 L 419.070312 421.742188 L 418.984375 421.984375 L 419.289062 422.710938 L 419.851562 422.40625 L 420.921875 421.8125 L 422.222656 421.609375 L 424.519531 421.855469 L 426.035156 422.015625 L 428.425781 420.824219 L 430.011719 420.035156 L 432.558594 421.132812 L 435.359375 421.101562 L 436.535156 421.625 L 439.867188 423.136719 L 441.566406 423.296875 L 442.195312 422.882812 L 442.59375 421.933594 L 442.390625 420.820312 L 441.109375 419.355469 L 438.300781 416.089844 L 437.148438 414.410156 L 436.269531 411.980469 L 436 408.871094 L 435.808594 406.777344 L 436.15625 404.023438 L 436.910156 403.039062 L 437.464844 400.851562 L 437.476562 400.851562 L 437.621094 400.277344 L 439.183594 398.203125 L 443.320312 395.542969 L 447.765625 391.5625 L 451.277344 389.246094 L 454.898438 387.675781 L 454.996094 387.230469 L 455.398438 387.390625 L 464.613281 384.257812 L 464.765625 384.242188 L 468.867188 383.527344 L 496.558594 385.476562 L 497.582031 385.167969 L 497.582031 385.160156 L 498.503906 382.570312 L 499.003906 382.089844 L 499.335938 381.777344 L 502.378906 380.4375 L 503.804688 380.230469 L 507.753906 381.207031 L 509.371094 381.605469 L 511.964844 380.15625 L 513.800781 380.1875 L 517.597656 378.109375 L 519.941406 378.171875 L 520.832031 377.8125 L 525.402344 374.527344 L 529.800781 373.265625 L 530.945312 372.65625 L 531.351562 372.433594 L 535.859375 370.050781 L 538.726562 367.847656 L 541.199219 366.535156 L 543.910156 365.835938 L 550.996094 365.335938 L 552.421875 362.960938 L 555.472656 362.550781 L 557.3125 360.472656 L 559.425781 359.617188 L 560.933594 357.441406 L 562.199219 355.617188 L 563.96875 354.589844 L 569.632812 354.234375 L 576.351562 355.070312 L 577.238281 354.53125 L 578.757812 349.109375 L 580.347656 348.09375 L 584.625 341.855469 L 584.640625 339.582031 L 584.640625 337.683594 L 585.34375 334.980469 L 584.867188 330.097656 L 585.433594 325.15625 L 588.09375 318.875 L 590.4375 316.339844 L 594.214844 313.785156 L 596.132812 312.945312 L 598.855469 312.488281 L 599.253906 312.421875 L 599.949219 312.304688 L 609.320312 312.171875 C 609.449219 312.078125 612.726562 312.128906 612.726562 312.128906 L 615.851562 312.085938 L 623.757812 313.488281 L 624.320312 313.585938 L 626.988281 314.453125 L 630.070312 316.851562 L 633.332031 320.042969 L 633.945312 320.636719 L 636.058594 321.523438 L 636.695312 321.804688 L 638.441406 321.523438 L 640.925781 320.230469 L 642.800781 318.644531 L 645.359375 317.246094 L 645.421875 317.15625 L 646.859375 314.992188 L 646.902344 314.949219 L 646.933594 314.957031 L 646.933594 314.941406 L 646.910156 314.941406 L 647.476562 314.082031 L 652.417969 312.15625 L 658.230469 311.820312 L 658.882812 311.46875 L 659.246094 311.273438 L 660.78125 309.46875 L 662.21875 309.457031 L 665.703125 310.71875 L 668.148438 310.230469 L 670.09375 311.011719 L 671.601562 310.832031 L 674.453125 310.496094 L 677.511719 312.652344 L 679.296875 312.871094 L 685.582031 316.550781 L 685.910156 316.605469 L 686.078125 316.636719 L 686.4375 316.695312 L 687.183594 316.476562 L 688.296875 316.152344 L 688.441406 316.109375 L 688.582031 316.304688 L 689.296875 317.3125 L 690.277344 317.453125 L 691.4375 315.90625 L 690.976562 315.203125 L 690.800781 314.945312 L 688.554688 314.488281 L 686.539062 311.042969 L 688.457031 308.972656 L 685.445312 305.277344 L 684.945312 304.664062 L 684.777344 304.40625 L 683.734375 302.824219 L 678.460938 294.78125 L 671.59375 289.292969 L 669.1875 287.367188 L 669.171875 287.355469 L 668.328125 286.691406 L 664.664062 282.957031 L 662.042969 279.476562 L 661.699219 278.726562 L 661.160156 277.546875 L 659.589844 274.125 L 656.851562 272.015625 L 654.625 269.578125 L 654.511719 269.433594 L 649.914062 263.179688 L 649.15625 262.132812 L 648.070312 261.503906 L 645.777344 261.488281 L 645.554688 261.265625 L 645.425781 261.132812 L 645.503906 261.050781 L 646.601562 259.953125 L 647.832031 259.644531 L 648.359375 258.433594 L 646.019531 251.652344 L 646.003906 251.417969 L 645.828125 249.25 L 647.738281 239.40625 L 647.980469 238.207031 L 651.234375 231.582031 L 653.25 229.929688 L 655.449219 225.605469 L 657.339844 222.839844 L 659.144531 221.078125 L 659.460938 220.894531 L 662.71875 218.917969 L 665.457031 218.53125 L 668.066406 218.164062 L 672.625 219.570312 L 676.957031 219.484375 L 677.800781 219.394531 L 679.769531 219.171875 L 683.003906 218.152344 L 684.53125 217.210938 L 685.320312 215.996094 L 686.972656 210.453125 L 687.503906 208.6875 L 688.523438 206.769531 L 694.421875 199.980469 L 698.875 195.855469 L 708.898438 188.503906 L 713.804688 185.570312 L 716.308594 184.074219 L 738.671875 174.128906 L 744.480469 168.238281 L 747.507812 165.171875 L 752.867188 161.574219 L 759.132812 159.007812 L 764.527344 154.734375 L 765.703125 153.253906 L 767.1875 148.472656 L 768.425781 148.171875 L 769.535156 145.757812 L 769.855469 145.070312 L 774.253906 141.964844 L 774.753906 141.71875 L 791.851562 133.148438 L 794.335938 133.488281 L 795.667969 131.496094 L 800.644531 130.660156 L 801.558594 130.503906 L 802.78125 129.890625 L 803.824219 128.113281 L 803.824219 127.761719 L 803.96875 123.011719 L 805.03125 121.726562 L 805.609375 118.597656 L 806.15625 117.875 L 806.722656 117.121094 L 808.132812 116.132812 L 807.890625 115.542969 Z M 807.925781 115.578125 "/>
</g>
</svg>
