<?xml version="1.0" encoding="UTF-8"?>
<svg xmlns="http://www.w3.org/2000/svg" xmlns:xlink="http://www.w3.org/1999/xlink" width="1000px" height="667px" viewBox="0 0 1000 667" version="1.1">
<g id="surface1">
<rect x="0" y="0" width="1000" height="667" style="fill:rgb(0%,41.960785%,24.705882%);fill-opacity:1;stroke:none;"/>
<path style=" stroke:none;fill-rule:nonzero;fill:rgb(98.823529%,81.960785%,8.627451%);fill-opacity:1;" d="M 0 250.125 L 1000 250.125 L 1000 361.292969 L 0 361.292969 Z M 0 250.125 "/>
<path style=" stroke:none;fill-rule:nonzero;fill:rgb(100%,100%,100%);fill-opacity:1;" d="M 0 305.707031 L 1000 305.707031 L 1000 416.875 L 0 416.875 Z M 0 305.707031 "/>
<path style=" stroke:none;fill-rule:nonzero;fill:rgb(0%,0%,0%);fill-opacity:1;" d="M 0 305.707031 L 1000 305.707031 L 1000 361.292969 L 0 361.292969 Z M 0 305.707031 "/>
<path style=" stroke:none;fill-rule:nonzero;fill:rgb(98.823529%,81.960785%,8.627451%);fill-opacity:1;" d="M 437.5 0 L 520.832031 0 L 520.832031 667 L 437.5 667 Z M 437.5 0 "/>
<path style=" stroke:none;fill-rule:nonzero;fill:rgb(100%,100%,100%);fill-opacity:1;" d="M 479.167969 0 L 562.5 0 L 562.5 667 L 479.167969 667 Z M 479.167969 0 "/>
<path style=" stroke:none;fill-rule:nonzero;fill:rgb(0%,0%,0%);fill-opacity:1;" d="M 479.167969 0 L 520.832031 0 L 520.832031 667 L 479.167969 667 Z M 479.167969 0 "/>
<path style=" stroke:none;fill-rule:nonzero;fill:rgb(83.137256%,10.980392%,18.82353%);fill-opacity:1;" d="M 625 333.5 C 625 425.59375 569.035156 500.25 500 500.25 C 430.964844 500.25 375 425.59375 375 333.5 C 375 241.40625 430.964844 166.75 500 166.75 C 569.035156 166.75 625 241.40625 625 333.5 Z M 625 333.5 "/>
<path style="fill-rule:nonzero;fill:rgb(0%,41.960785%,24.705882%);fill-opacity:1;stroke-width:1;stroke-linecap:butt;stroke-linejoin:miter;stroke:rgb(0%,0%,0%);stroke-opacity:1;stroke-miterlimit:4;" d="M -4.809375 -118.410326 L 0 -132.128467 L 4.36875 -118.6317 L 19.021875 -118.410326 L 7.429688 -109.558892 L 12.679688 -94.508996 L 0 -103.799663 L -12.459375 -94.951743 L -7.65 -109.558892 L -19.021875 -118.188952 Z M -4.809375 -118.410326 " transform="matrix(0.833333,0,0,1.111667,500,333.5)"/>
<path style="fill-rule:nonzero;fill:rgb(0%,41.960785%,24.705882%);fill-opacity:1;stroke-width:1;stroke-linecap:butt;stroke-linejoin:miter;stroke:rgb(0%,0%,0%);stroke-opacity:1;stroke-miterlimit:4;" d="M -4.809375 -118.410326 L 0 -132.128467 L 4.36875 -118.6317 L 19.021875 -118.410326 L 7.429688 -109.558892 L 12.679688 -94.508996 L 0 -103.799663 L -12.459375 -94.951743 L -7.65 -109.558892 L -19.021875 -118.188952 Z M -4.809375 -118.410326 " transform="matrix(-0.833333,0,0,-1.111667,500,333.5)"/>
<path style="fill-rule:nonzero;fill:rgb(0%,41.960785%,24.705882%);fill-opacity:1;stroke-width:1;stroke-linecap:butt;stroke-linejoin:miter;stroke:rgb(0%,0%,0%);stroke-opacity:1;stroke-miterlimit:4;" d="M -4.809576 -118.411279 L -0.00124583 -132.129052 L 4.370678 -118.631205 L 19.020703 -118.412278 L 7.431226 -109.562036 L 12.679317 -94.507355 L 0.00122429 -103.79898 L -12.45864 -94.950497 L -7.648983 -109.559626 L -19.018518 -118.19058 Z M -4.809576 -118.411279 " transform="matrix(0.674181,0.653421,-0.489821,0.899357,500,333.5)"/>
<path style="fill-rule:nonzero;fill:rgb(0%,41.960785%,24.705882%);fill-opacity:1;stroke-width:1;stroke-linecap:butt;stroke-linejoin:miter;stroke:rgb(0%,0%,0%);stroke-opacity:1;stroke-miterlimit:4;" d="M -4.809576 -118.411279 L -0.00124583 -132.129052 L 4.370678 -118.631205 L 19.020703 -118.412278 L 7.431226 -109.562036 L 12.679317 -94.507355 L 0.00122429 -103.79898 L -12.45864 -94.950497 L -7.648983 -109.559626 L -19.018518 -118.19058 Z M -4.809576 -118.411279 " transform="matrix(-0.674181,-0.653421,0.489821,-0.899357,500,333.5)"/>
<path style="fill-rule:nonzero;fill:rgb(0%,41.960785%,24.705882%);fill-opacity:1;stroke-width:1;stroke-linecap:butt;stroke-linejoin:miter;stroke:rgb(0%,0%,0%);stroke-opacity:1;stroke-miterlimit:4;" d="M -4.810211 -118.408315 L -0.000880297 -132.129658 L 4.369077 -118.629457 L 19.020581 -118.408255 L 7.430314 -109.561543 L 12.68121 -94.508425 L 0.00102577 -103.798703 L -12.461941 -94.949682 L -7.647753 -109.561547 L -19.020609 -118.19047 Z M -4.810211 -118.408315 " transform="matrix(0.257514,1.057258,-0.792547,0.343524,500,333.5)"/>
<path style="fill-rule:nonzero;fill:rgb(0%,41.960785%,24.705882%);fill-opacity:1;stroke-width:1;stroke-linecap:butt;stroke-linejoin:miter;stroke:rgb(0%,0%,0%);stroke-opacity:1;stroke-miterlimit:4;" d="M -4.810211 -118.408315 L -0.000880297 -132.129658 L 4.369077 -118.629457 L 19.020581 -118.408255 L 7.430314 -109.561543 L 12.68121 -94.508425 L 0.00102577 -103.798703 L -12.461941 -94.949682 L -7.647753 -109.561547 L -19.020609 -118.19047 Z M -4.810211 -118.408315 " transform="matrix(-0.257514,-1.057258,0.792547,-0.343524,500,333.5)"/>
<path style="fill-rule:nonzero;fill:rgb(0%,41.960785%,24.705882%);fill-opacity:1;stroke-width:1;stroke-linecap:butt;stroke-linejoin:miter;stroke:rgb(0%,0%,0%);stroke-opacity:1;stroke-miterlimit:4;" d="M -4.811871 -118.411654 L 0.000880297 -132.129658 L 4.368832 -118.629628 L 19.018921 -118.411714 L 7.430303 -109.559895 L 12.679424 -94.507759 L -0.00102577 -103.798703 L -12.459002 -94.950279 L -7.651106 -109.558805 L -19.020342 -118.191468 Z M -4.811871 -118.411654 " transform="matrix(-0.257514,1.057258,-0.792547,-0.343524,500,333.5)"/>
<path style="fill-rule:nonzero;fill:rgb(0%,41.960785%,24.705882%);fill-opacity:1;stroke-width:1;stroke-linecap:butt;stroke-linejoin:miter;stroke:rgb(0%,0%,0%);stroke-opacity:1;stroke-miterlimit:4;" d="M -4.811871 -118.411654 L 0.000880297 -132.129658 L 4.368832 -118.629628 L 19.018921 -118.411714 L 7.430303 -109.559895 L 12.679424 -94.507759 L -0.00102577 -103.798703 L -12.459002 -94.950279 L -7.651106 -109.558805 L -19.020342 -118.191468 Z M -4.811871 -118.411654 " transform="matrix(0.257514,-1.057258,0.792547,0.343524,500,333.5)"/>
<path style="fill-rule:nonzero;fill:rgb(0%,41.960785%,24.705882%);fill-opacity:1;stroke-width:1;stroke-linecap:butt;stroke-linejoin:miter;stroke:rgb(0%,0%,0%);stroke-opacity:1;stroke-miterlimit:4;" d="M -4.808816 -118.410952 L 0.00124583 -132.129052 L 4.371468 -118.629685 L 19.021463 -118.409953 L 7.428457 -109.559143 L 12.679136 -94.512322 L -0.00122429 -103.79898 L -12.460487 -94.952096 L -7.651752 -109.561553 L -19.019855 -118.19015 Z M -4.808816 -118.410952 " transform="matrix(-0.674181,0.653421,-0.489821,-0.899357,500,333.5)"/>
<path style="fill-rule:nonzero;fill:rgb(0%,41.960785%,24.705882%);fill-opacity:1;stroke-width:1;stroke-linecap:butt;stroke-linejoin:miter;stroke:rgb(0%,0%,0%);stroke-opacity:1;stroke-miterlimit:4;" d="M -4.808816 -118.410952 L 0.00124583 -132.129052 L 4.371468 -118.629685 L 19.021463 -118.409953 L 7.428457 -109.559143 L 12.679136 -94.512322 L -0.00122429 -103.79898 L -12.460487 -94.952096 L -7.651752 -109.561553 L -19.019855 -118.19015 Z M -4.808816 -118.410952 " transform="matrix(0.674181,-0.653421,0.489821,0.899357,500,333.5)"/>
<path style="fill-rule:nonzero;fill:rgb(0%,41.960785%,24.705882%);fill-opacity:1;stroke-width:2.5;stroke-linecap:butt;stroke-linejoin:miter;stroke:rgb(0%,0%,0%);stroke-opacity:1;stroke-miterlimit:4;" d="M 711.009308 586.132774 C 711.009133 690.961785 697.21957 775.950065 680.205138 775.948038 C 663.190706 775.946011 649.41037 690.960862 649.410545 586.131851 C 649.41072 481.30284 663.200283 396.31456 680.214715 396.316587 C 697.230007 396.303597 711.010343 481.288746 711.009308 586.132774 Z M 711.009308 586.132774 " transform="matrix(0.241292,-0.0335501,0.013825,0.258196,344.902496,249.095594)"/>
<path style="fill-rule:nonzero;fill:rgb(0%,41.960785%,24.705882%);fill-opacity:1;stroke-width:2.5;stroke-linecap:butt;stroke-linejoin:miter;stroke:rgb(0%,0%,0%);stroke-opacity:1;stroke-miterlimit:4;" d="M 711.008981 586.130802 C 711.020172 690.965884 697.220864 775.948704 680.216384 775.947468 C 663.196712 775.94415 649.400025 690.960514 649.404026 586.127515 C 649.408027 481.294517 663.192143 396.309614 680.211815 396.312932 C 697.216295 396.314168 711.012982 481.297804 711.008981 586.130802 Z M 711.008981 586.130802 " transform="matrix(0.255217,-0.0353955,0.0139083,0.258185,342.722499,250.250617)"/>
<path style="fill-rule:nonzero;fill:rgb(0%,41.960785%,24.705882%);fill-opacity:1;stroke-width:2.5;stroke-linecap:butt;stroke-linejoin:miter;stroke:rgb(0%,0%,0%);stroke-opacity:1;stroke-miterlimit:4;" d="M 711.010298 586.126679 C 711.023069 690.962362 697.217707 775.955458 680.209145 775.95044 C 663.200584 775.945423 649.397028 690.959174 649.40325 586.125408 C 649.409472 481.291641 663.194849 396.310215 680.20341 396.315233 C 697.231957 396.30858 711.01652 481.292913 711.010298 586.126679 Z M 711.010298 586.126679 " transform="matrix(0.204167,-0.0287922,0.0149167,0.28542,373.377495,232.409483)"/>
<path style="fill-rule:nonzero;fill:rgb(61.176473%,29.019609%,0%);fill-opacity:1;stroke-width:0.657;stroke-linecap:butt;stroke-linejoin:miter;stroke:rgb(0%,0%,0%);stroke-opacity:1;stroke-miterlimit:4;" d="M -44.2125 62.564421 C -36.557813 62.244659 -39.88125 58.147489 -36.014063 55.968891 C -32.146875 53.790292 -26.648438 55.230978 -24.998438 57.954226 C -23.348438 60.677474 -24.670313 63.351527 -22.546875 63.386666 C -20.423437 63.425319 37.378125 61.00075 39.464062 63.28125 C 41.545313 65.56175 41.892187 70.059501 39.73125 71.805894 C 37.570312 73.576883 -35.503125 74.395615 -38.020313 72.543806 C -40.5375 70.720109 -44.221875 63.014196 -44.2125 62.564421 Z M -44.2125 62.564421 " transform="matrix(0.833333,0,0,1.111667,500,333.5)"/>
<path style="fill-rule:nonzero;fill:rgb(98.823529%,81.960785%,8.627451%);fill-opacity:1;stroke-width:0.633;stroke-linecap:butt;stroke-linejoin:miter;stroke:rgb(0%,0%,0%);stroke-opacity:1;stroke-miterlimit:4;" d="M -3.375 68.193638 C -3.515625 73.970437 5.025 72.336488 5.142187 77.157515 C 4.889063 82.273707 -9.178125 77.470249 -9.314062 68.116332 C -8.732813 58.772957 5.039062 54.155735 5.207812 59.4933 C 5.334375 63.927802 -3.239063 62.420352 -3.375 68.193638 Z M -3.375 68.193638 " transform="matrix(0.833333,0,0,1.111667,500,333.5)"/>
<path style="fill-rule:nonzero;fill:rgb(98.823529%,81.960785%,8.627451%);fill-opacity:1;stroke-width:0.633;stroke-linecap:butt;stroke-linejoin:miter;stroke:rgb(0%,0%,0%);stroke-opacity:1;stroke-miterlimit:4;" d="M 1.664062 68.260401 C 1.523438 74.0372 10.06875 72.399738 10.185938 77.224278 C 9.928125 82.336957 -4.139063 77.537013 -4.275 68.183096 C -3.689062 58.839721 10.078125 54.222498 10.246875 59.55655 C 10.378125 63.994565 1.804688 62.487116 1.664062 68.260401 Z M 1.664062 68.260401 " transform="matrix(0.833333,0,0,1.111667,500,333.5)"/>
<path style="fill-rule:nonzero;fill:rgb(98.823529%,81.960785%,8.627451%);fill-opacity:1;stroke-width:0.633;stroke-linecap:butt;stroke-linejoin:miter;stroke:rgb(0%,0%,0%);stroke-opacity:1;stroke-miterlimit:4;" d="M 7.06875 68.056597 C 6.932812 73.833396 15.473437 72.199447 15.590625 77.020474 C 15.332812 82.136666 1.270312 77.333208 1.129687 67.979292 C 1.715625 58.635916 15.4875 54.018694 15.65625 59.356259 C 15.782812 63.790761 7.209375 62.283311 7.06875 68.056597 Z M 7.06875 68.056597 " transform="matrix(0.833333,0,0,1.111667,500,333.5)"/>
<path style="fill-rule:nonzero;fill:rgb(98.823529%,81.960785%,8.627451%);fill-opacity:1;stroke-width:0.633;stroke-linecap:butt;stroke-linejoin:miter;stroke:rgb(0%,0%,0%);stroke-opacity:1;stroke-miterlimit:4;" d="M 12.1125 68.12336 C 11.971875 73.900159 20.517187 72.262697 20.629687 77.087238 C 20.376562 82.199916 6.309375 77.399972 6.173437 68.046055 C 6.759375 58.70268 20.526562 54.085457 20.695312 59.419509 C 20.821875 63.857524 12.248438 62.350075 12.1125 68.12336 Z M 12.1125 68.12336 " transform="matrix(0.833333,0,0,1.111667,500,333.5)"/>
<path style="fill-rule:nonzero;fill:rgb(61.176473%,29.019609%,0%);fill-opacity:1;stroke-width:0.399;stroke-linecap:butt;stroke-linejoin:miter;stroke:rgb(0%,0%,0%);stroke-opacity:1;stroke-miterlimit:4;" d="M 481.914403 -41.085525 C 481.915348 -39.205922 480.3322 -37.682992 478.378937 -37.684077 C 476.429124 -37.682795 474.846313 -39.206395 474.845369 -41.085998 C 474.844424 -42.965601 476.427572 -44.48853 478.380781 -44.489861 C 480.330648 -44.488728 481.913459 -42.965128 481.914403 -41.085525 Z M 481.914403 -41.085525 " transform="matrix(1.149933,0.0231004,-0.0255167,1.616852,-21.022491,463.792894)"/>
<path style="fill-rule:nonzero;fill:rgb(0%,41.960785%,24.705882%);fill-opacity:1;stroke-width:2.5;stroke-linecap:butt;stroke-linejoin:miter;stroke:rgb(0%,0%,0%);stroke-opacity:1;stroke-miterlimit:4;" d="M 447.92154 904.995488 C 447.915803 918.334109 438.593993 929.147345 427.11413 929.145054 C 415.612027 929.141002 406.287952 918.335864 406.293689 904.997243 C 406.297644 891.667373 415.619453 880.854138 427.099316 880.856428 C 438.603202 880.851729 447.925495 891.665619 447.92154 904.995488 Z M 447.92154 904.995488 " transform="matrix(0.17285,-0.0347952,0.0352167,0.439264,400.018336,7.31923)"/>
<path style="fill-rule:nonzero;fill:rgb(0%,41.960785%,24.705882%);fill-opacity:1;stroke-width:2.5;stroke-linecap:butt;stroke-linejoin:miter;stroke:rgb(0%,0%,0%);stroke-opacity:1;stroke-miterlimit:4;" d="M 447.932407 904.996928 C 447.926669 918.335549 438.606642 929.140033 427.102756 929.144732 C 415.622894 929.142442 406.298818 918.337303 406.304556 904.998683 C 406.28627 891.667052 415.60808 880.853816 427.110183 880.857868 C 438.614068 880.853169 447.914121 891.665297 447.932407 904.996928 Z M 447.932407 904.996928 " transform="matrix(0.17285,-0.0347952,0.0352167,0.439264,393.887501,6.674444)"/>
<path style="fill-rule:nonzero;fill:rgb(0%,41.960785%,24.705882%);fill-opacity:1;stroke-width:2.5;stroke-linecap:butt;stroke-linejoin:miter;stroke:rgb(0%,0%,0%);stroke-opacity:1;stroke-miterlimit:4;" d="M 447.928149 905.000023 C 447.922412 918.338643 438.602385 929.143128 427.100282 929.139075 C 415.618637 929.145536 406.296344 918.331646 406.300298 905.001777 C 406.306036 891.663156 415.603822 880.85691 427.107708 880.852211 C 438.609811 880.856264 447.932104 891.670153 447.928149 905.000023 Z M 447.928149 905.000023 " transform="matrix(0.17285,-0.0347952,0.0352167,0.439264,389.497503,-3.791907)"/>
<path style="fill-rule:nonzero;fill:rgb(0%,41.960785%,24.705882%);fill-opacity:1;stroke-width:2.5;stroke-linecap:butt;stroke-linejoin:miter;stroke:rgb(0%,0%,0%);stroke-opacity:1;stroke-miterlimit:4;" d="M 447.917706 904.995552 C 447.921778 918.336179 438.596209 929.139794 427.100978 929.146406 C 415.60759 929.145092 406.296497 918.331159 406.290584 904.998459 C 406.28467 891.665758 415.612081 880.854217 427.10547 880.855531 C 438.598859 880.856846 447.934909 891.664524 447.917706 904.995552 Z M 447.917706 904.995552 " transform="matrix(0.166192,-0.035062,0.0386,0.484609,395.494169,-45.172586)"/>
<path style="fill-rule:nonzero;fill:rgb(0%,41.960785%,24.705882%);fill-opacity:1;stroke-width:2.5;stroke-linecap:butt;stroke-linejoin:miter;stroke:rgb(0%,0%,0%);stroke-opacity:1;stroke-miterlimit:4;" d="M 447.932019 905.003276 C 447.934164 918.337119 438.596205 929.143712 427.106249 929.145058 C 415.616293 929.146405 406.299598 918.333576 406.297453 904.999733 C 406.295309 891.665889 415.610152 880.857552 427.100108 880.856206 C 438.61318 880.856603 447.929875 891.669432 447.932019 905.003276 Z M 447.932019 905.003276 " transform="matrix(0.16625,-0.0342838,0.0363,0.454383,406.124999,-18.044567)"/>
<path style="fill-rule:nonzero;fill:rgb(0%,41.960785%,24.705882%);fill-opacity:1;stroke-width:2.5;stroke-linecap:butt;stroke-linejoin:miter;stroke:rgb(0%,0%,0%);stroke-opacity:1;stroke-miterlimit:4;" d="M 447.913972 904.998393 C 447.916116 918.332237 438.601273 929.140573 427.111317 929.14192 C 415.621361 929.143267 406.302819 918.338895 406.302521 904.996594 C 406.300377 891.66275 415.61522 880.854414 427.105176 880.853067 C 438.595132 880.851721 447.934943 891.666293 447.913972 904.998393 Z M 447.913972 904.998393 " transform="matrix(0.16625,-0.0342838,0.0363,0.454383,401.413333,-21.83203)"/>
<path style="fill-rule:nonzero;fill:rgb(0%,41.960785%,24.705882%);fill-opacity:1;stroke-width:2.5;stroke-linecap:butt;stroke-linejoin:miter;stroke:rgb(0%,0%,0%);stroke-opacity:1;stroke-miterlimit:4;" d="M 447.93077 904.997401 C 447.932915 918.331245 438.59311 929.146295 427.103154 929.147642 C 415.615044 929.140531 406.296502 918.33616 406.294358 905.002316 C 406.292213 891.668472 415.608903 880.851678 427.120128 880.860533 C 438.610084 880.859186 447.928626 891.663558 447.93077 904.997401 Z M 447.93077 904.997401 " transform="matrix(0.16625,-0.0342838,0.0363,0.454383,395.46917,-27.295847)"/>
<path style="fill-rule:nonzero;fill:rgb(0%,41.960785%,24.705882%);fill-opacity:1;stroke-width:2.5;stroke-linecap:butt;stroke-linejoin:miter;stroke:rgb(0%,0%,0%);stroke-opacity:1;stroke-miterlimit:4;" d="M 447.931429 905.001809 C 447.933574 918.335652 438.595615 929.142245 427.105659 929.143591 C 415.615703 929.144938 406.299008 918.332109 406.296864 904.998266 C 406.294719 891.664422 415.609562 880.856085 427.099518 880.854739 C 438.61259 880.855136 447.929285 891.667965 447.931429 905.001809 Z M 447.931429 905.001809 " transform="matrix(0.16625,-0.0342838,0.0363,0.454383,389.964994,-30.606421)"/>
<path style="fill-rule:nonzero;fill:rgb(58.039218%,38.039216%,78.823531%);fill-opacity:1;stroke-width:0.575;stroke-linecap:butt;stroke-linejoin:miter;stroke:rgb(0%,0%,0%);stroke-opacity:1;stroke-miterlimit:4;" d="M -14.732813 -52.686938 C -14.732813 -52.686938 -29.390625 -39.966735 -27.745313 -5.54137 C -25.898438 29.077258 4.65 45.353495 4.65 45.353495 C 4.65 45.353495 12.435938 35.525206 11.53125 7.709427 C 9.346875 -32.960082 -5.076563 -50.930004 -5.076563 -50.930004 Z M -14.732813 -52.686938 " transform="matrix(0.833333,0,0,1.111667,500,333.5)"/>
<path style="fill-rule:nonzero;fill:rgb(0%,41.960785%,24.705882%);fill-opacity:1;stroke-width:2.5;stroke-linecap:butt;stroke-linejoin:miter;stroke:rgb(0%,0%,0%);stroke-opacity:1;stroke-miterlimit:4;" d="M 447.916372 904.999011 C 447.917237 918.333148 438.606473 929.143876 427.116004 929.145727 C 415.625535 929.147578 406.291563 918.335001 406.290698 905.000864 C 406.289832 891.666726 415.622904 880.855651 427.113373 880.8538 C 438.603842 880.851948 447.915506 891.664873 447.916372 904.999011 Z M 447.916372 904.999011 " transform="matrix(0.174733,0.0068701,-0.0240333,0.440598,462.347501,-10.450779)"/>
<path style="fill-rule:nonzero;fill:rgb(0%,41.960785%,24.705882%);fill-opacity:1;stroke-width:2.5;stroke-linecap:butt;stroke-linejoin:miter;stroke:rgb(0%,0%,0%);stroke-opacity:1;stroke-miterlimit:4;" d="M 447.924829 905.0041 C 447.925695 918.338237 438.613714 929.140118 427.100937 929.142317 C 415.610468 929.144168 406.298804 918.331243 406.297938 904.997105 C 406.297073 891.662968 415.607837 880.852241 427.099523 880.859236 C 438.612299 880.857037 447.923963 891.669962 447.924829 905.0041 Z M 447.924829 905.0041 " transform="matrix(0.174733,0.0068701,-0.0240333,0.440598,456.400833,-12.542923)"/>
<path style="fill-rule:nonzero;fill:rgb(0%,41.960785%,24.705882%);fill-opacity:1;stroke-width:2.5;stroke-linecap:butt;stroke-linejoin:miter;stroke:rgb(0%,0%,0%);stroke-opacity:1;stroke-miterlimit:4;" d="M 447.923551 905.003456 C 447.924416 918.337594 438.612435 929.139474 427.099659 929.141673 C 415.60919 929.143525 406.297526 918.3306 406.29666 904.996462 C 406.295794 891.662325 415.607775 880.860444 427.120552 880.858245 C 438.611021 880.856394 447.922685 891.669319 447.923551 905.003456 Z M 447.923551 905.003456 " transform="matrix(0.174733,0.0068701,-0.0240333,0.440598,453.479166,-23.886381)"/>
<path style="fill-rule:nonzero;fill:rgb(0%,41.960785%,24.705882%);fill-opacity:1;stroke-width:2.5;stroke-linecap:butt;stroke-linejoin:miter;stroke:rgb(0%,0%,0%);stroke-opacity:1;stroke-miterlimit:4;" d="M 447.917099 905.003728 C 447.924931 918.337378 438.614197 929.147024 427.119219 929.145044 C 415.624242 929.143064 406.287994 918.33288 406.303345 904.998991 C 406.295513 891.665341 415.606248 880.855695 427.101225 880.857675 C 438.596202 880.859655 447.931174 891.661815 447.917099 905.003728 Z M 447.917099 905.003728 " transform="matrix(0.168217,0.00501362,-0.0267583,0.486021,464.908333,-63.178241)"/>
<path style="fill-rule:nonzero;fill:rgb(0%,41.960785%,24.705882%);fill-opacity:1;stroke-width:2.5;stroke-linecap:butt;stroke-linejoin:miter;stroke:rgb(0%,0%,0%);stroke-opacity:1;stroke-miterlimit:4;" d="M 447.928187 904.996104 C 447.935119 918.332875 438.600039 929.139854 427.10202 929.140266 C 415.604002 929.140678 406.286205 918.330755 406.303728 905.002244 C 406.296796 891.665474 415.608692 880.858789 427.10671 880.858377 C 438.604729 880.857965 447.922526 891.667888 447.928187 904.996104 Z M 447.928187 904.996104 " transform="matrix(0.168167,0.00579178,-0.0249833,0.455739,471.744165,-33.958078)"/>
<path style="fill-rule:nonzero;fill:rgb(0%,41.960785%,24.705882%);fill-opacity:1;stroke-width:2.5;stroke-linecap:butt;stroke-linejoin:miter;stroke:rgb(0%,0%,0%);stroke-opacity:1;stroke-miterlimit:4;" d="M 447.935322 905.000434 C 447.919069 918.337499 438.607173 929.144184 427.109155 929.144596 C 415.611137 929.145008 406.29334 918.335085 406.286408 904.998314 C 406.303931 891.669804 415.614556 880.854564 427.112574 880.854152 C 438.610593 880.85374 447.92839 891.663663 447.935322 905.000434 Z M 447.935322 905.000434 " transform="matrix(0.168167,0.00579178,-0.0249833,0.455739,467.614168,-38.803843)"/>
<path style="fill-rule:nonzero;fill:rgb(0%,41.960785%,24.705882%);fill-opacity:1;stroke-width:2.5;stroke-linecap:butt;stroke-linejoin:miter;stroke:rgb(0%,0%,0%);stroke-opacity:1;stroke-miterlimit:4;" d="M 447.924217 905.002768 C 447.929878 918.330984 438.596069 929.146518 427.121235 929.146635 C 415.623216 929.147048 406.305419 918.337125 406.298487 905.000354 C 406.291555 891.663583 415.603451 880.856898 427.101469 880.856486 C 438.599488 880.856074 447.917285 891.665997 447.924217 905.002768 Z M 447.924217 905.002768 " transform="matrix(0.168167,0.00579178,-0.0249833,0.455739,462.495,-45.593905)"/>
<path style="fill-rule:nonzero;fill:rgb(0%,41.960785%,24.705882%);fill-opacity:1;stroke-width:2.5;stroke-linecap:butt;stroke-linejoin:miter;stroke:rgb(0%,0%,0%);stroke-opacity:1;stroke-miterlimit:4;" d="M 447.927969 905.000971 C 447.934901 918.337742 438.59982 929.144721 427.101802 929.145133 C 415.603784 929.145545 406.285987 918.335622 406.302239 904.998557 C 406.295307 891.661786 415.607203 880.855101 427.105221 880.854689 C 438.60324 880.854277 447.921037 891.6642 447.927969 905.000971 Z M 447.927969 905.000971 " transform="matrix(0.168167,0.00579178,-0.0249833,0.455739,457.521667,-50.159514)"/>
<path style="fill-rule:nonzero;fill:rgb(83.137256%,10.980392%,18.82353%);fill-opacity:1;stroke-width:1.25;stroke-linecap:butt;stroke-linejoin:miter;stroke:rgb(0%,0%,0%);stroke-opacity:1;stroke-miterlimit:4;" d="M 682.70495 606.104102 C 682.702351 709.115157 656.598674 792.599482 624.426262 792.603598 C 592.233526 792.599412 566.129255 709.104327 566.145645 606.117686 C 566.14171 503.122743 592.231597 419.614005 624.424333 419.61819 C 656.617069 419.622376 682.701016 503.109159 682.70495 606.104102 Z M 682.70495 606.104102 " transform="matrix(0.164892,-0.0849647,0.0668583,0.207993,370.135002,267.67488)"/>
<path style="fill-rule:nonzero;fill:rgb(0%,41.960785%,24.705882%);fill-opacity:1;stroke-width:1.464;stroke-linecap:butt;stroke-linejoin:miter;stroke:rgb(0%,0%,0%);stroke-opacity:1;stroke-miterlimit:4;" d="M 228.954694 356.750818 C 228.95455 363.874556 224.110751 369.657611 218.127682 369.658592 C 212.154018 369.659347 207.308292 363.880664 207.308311 356.747404 C 207.308455 349.623666 212.152254 343.840611 218.126044 343.849377 C 224.109113 343.848396 228.954839 349.627079 228.954694 356.750818 Z M 228.954694 356.750818 " transform="matrix(0.415233,0.00986048,-0.005475,0.410161,417.074998,152.554012)"/>
<path style="fill-rule:nonzero;fill:rgb(0%,41.960785%,24.705882%);fill-opacity:1;stroke-width:1.546;stroke-linecap:butt;stroke-linejoin:miter;stroke:rgb(0%,0%,0%);stroke-opacity:1;stroke-miterlimit:4;" d="M 228.949214 356.753749 C 228.949052 363.877488 224.108987 369.657908 218.133635 369.653328 C 212.147926 369.658494 207.305708 363.877176 207.30587 356.753438 C 207.305891 349.620178 212.156595 343.849052 218.131806 343.844112 C 224.107157 343.848693 228.949235 349.62049 228.949214 356.753749 Z M 228.949214 356.753749 " transform="matrix(0.371975,0.00883775,-0.005475,0.410161,429.887498,145.29483)"/>
<path style="fill-rule:nonzero;fill:rgb(0%,41.960785%,24.705882%);fill-opacity:1;stroke-width:1.546;stroke-linecap:butt;stroke-linejoin:miter;stroke:rgb(0%,0%,0%);stroke-opacity:1;stroke-miterlimit:4;" d="M 228.952291 356.75379 C 228.95213 363.877529 224.112064 369.65795 218.126215 369.653595 C 212.151003 369.658535 207.308786 363.877218 207.308947 356.753479 C 207.308968 349.620219 212.149174 343.84932 218.134883 343.844153 C 224.110235 343.848734 228.952312 349.620531 228.952291 356.75379 Z M 228.952291 356.75379 " transform="matrix(0.371975,0.00883775,-0.005475,0.410161,424.456666,145.16588)"/>
<path style="fill-rule:nonzero;fill:rgb(0%,41.960785%,24.705882%);fill-opacity:1;stroke-width:1.56;stroke-linecap:butt;stroke-linejoin:miter;stroke:rgb(0%,0%,0%);stroke-opacity:1;stroke-miterlimit:4;" d="M 228.956564 356.749031 C 228.950419 363.881001 224.109835 369.658095 218.129315 369.659722 C 212.148661 369.651208 207.305977 363.873381 207.302225 356.751794 C 207.30837 349.619824 212.148954 343.84273 218.129474 343.841103 C 224.110128 343.849617 228.952812 349.627444 228.956564 356.749031 Z M 228.956564 356.749031 " transform="matrix(0.389283,0.00924907,-0.00514167,0.385048,421.76,148.552022)"/>
<path style="fill-rule:nonzero;fill:rgb(0%,41.960785%,24.705882%);fill-opacity:1;stroke-width:1.56;stroke-linecap:butt;stroke-linejoin:miter;stroke:rgb(0%,0%,0%);stroke-opacity:1;stroke-miterlimit:4;" d="M 228.951084 356.74979 C 228.954969 363.881519 224.104354 369.658853 218.133732 369.650098 C 212.153212 369.651726 207.310527 363.873898 207.306775 356.752311 C 207.302889 349.620583 212.153505 343.843248 218.134024 343.84162 C 224.104513 343.840234 228.957229 349.61782 228.951084 356.74979 Z M 228.951084 356.74979 " transform="matrix(0.389283,0.00924907,-0.00514167,0.385048,421.281668,142.274437)"/>
<path style="fill-rule:nonzero;fill:rgb(0%,41.960785%,24.705882%);fill-opacity:1;stroke-width:1.546;stroke-linecap:butt;stroke-linejoin:miter;stroke:rgb(0%,0%,0%);stroke-opacity:1;stroke-miterlimit:4;" d="M 228.954465 356.749628 C 228.954304 363.873367 224.10374 369.654014 218.128529 369.658954 C 212.153178 369.654373 207.31096 363.873056 207.311121 356.749317 C 207.311283 349.625578 212.151348 343.845158 218.1267 343.849739 C 224.112409 343.844572 228.954627 349.62589 228.954465 356.749628 Z M 228.954465 356.749628 " transform="matrix(0.371975,0.00883775,-0.005475,0.410161,419.268335,140.937099)"/>
<path style="fill-rule:nonzero;fill:rgb(0%,41.960785%,24.705882%);fill-opacity:1;stroke-width:1.562;stroke-linecap:butt;stroke-linejoin:miter;stroke:rgb(0%,0%,0%);stroke-opacity:1;stroke-miterlimit:4;" d="M 228.949459 356.751843 C 228.957759 363.877979 224.105426 369.65271 218.130215 369.657753 C 212.154864 369.653077 207.303917 363.877892 207.306115 356.751525 C 207.308313 349.625158 212.150007 343.840938 218.125359 343.845614 C 224.111068 343.84034 228.951657 349.625476 228.949459 356.751843 Z M 228.949459 356.751843 " transform="matrix(0.371975,0.00883775,-0.00536667,0.40179,420.442499,137.145209)"/>
<path style="fill-rule:nonzero;fill:rgb(0%,41.960785%,24.705882%);fill-opacity:1;stroke-width:1.464;stroke-linecap:butt;stroke-linejoin:miter;stroke:rgb(0%,0%,0%);stroke-opacity:1;stroke-miterlimit:4;" d="M 228.95345 356.752143 C 228.953306 363.875882 224.109507 369.658937 218.126313 369.650397 C 212.152648 369.651152 207.307047 363.88199 207.307066 356.74873 C 207.307211 349.624991 212.151009 343.841936 218.134078 343.840956 C 224.107869 343.849722 228.953469 349.618884 228.95345 356.752143 Z M 228.95345 356.752143 " transform="matrix(0.415233,0.00986048,-0.005475,0.410161,404.395835,134.100355)"/>
<path style="fill-rule:nonzero;fill:rgb(0%,41.960785%,24.705882%);fill-opacity:1;stroke-width:1.56;stroke-linecap:butt;stroke-linejoin:miter;stroke:rgb(0%,0%,0%);stroke-opacity:1;stroke-miterlimit:4;" d="M 228.953801 356.75296 C 228.957553 363.874547 224.106937 369.651882 218.126418 369.653509 C 212.155929 369.654896 207.303213 363.877309 207.309358 356.74534 C 207.305606 349.623753 212.156222 343.846418 218.12671 343.845031 C 224.10723 343.843404 228.949915 349.621231 228.953801 356.75296 Z M 228.953801 356.75296 " transform="matrix(0.389283,0.00924907,-0.00514167,0.385048,418.202502,134.421629)"/>
<path style="fill-rule:nonzero;fill:rgb(0%,41.960785%,24.705882%);fill-opacity:1;stroke-width:1.562;stroke-linecap:butt;stroke-linejoin:miter;stroke:rgb(0%,0%,0%);stroke-opacity:1;stroke-miterlimit:4;" d="M 228.956706 356.749758 C 228.954508 363.876125 224.102176 369.650856 218.126965 369.655899 C 212.151613 369.651223 207.311164 363.875807 207.302865 356.749671 C 207.305063 349.623304 212.157395 343.848572 218.132606 343.843529 C 224.107958 343.848205 228.948407 349.623622 228.956706 356.749758 Z M 228.956706 356.749758 " transform="matrix(0.371975,0.00883775,-0.00536667,0.40179,416.424166,129.485826)"/>
<path style="fill-rule:nonzero;fill:rgb(0%,41.960785%,24.705882%);fill-opacity:1;stroke-width:1.546;stroke-linecap:butt;stroke-linejoin:miter;stroke:rgb(0%,0%,0%);stroke-opacity:1;stroke-miterlimit:4;" d="M 228.951129 356.751235 C 228.950967 363.874973 224.110902 369.655394 218.125052 369.651039 C 212.149841 369.655979 207.307623 363.874662 207.307785 356.750923 C 207.307946 349.627184 212.148012 343.846764 218.133721 343.841598 C 224.109072 343.846179 228.95129 349.627496 228.951129 356.751235 Z M 228.951129 356.751235 " transform="matrix(0.371975,0.00883775,-0.005475,0.410161,407.925835,134.616157)"/>
<path style="fill-rule:nonzero;fill:rgb(0%,41.960785%,24.705882%);fill-opacity:1;stroke-width:1.562;stroke-linecap:butt;stroke-linejoin:miter;stroke:rgb(0%,0%,0%);stroke-opacity:1;stroke-miterlimit:4;" d="M 228.950564 356.750735 C 228.948366 363.877102 224.106531 369.651602 218.13132 369.656645 C 212.155969 369.651969 207.305022 363.876784 207.30722 356.750417 C 207.309418 349.62405 212.151253 343.849549 218.126464 343.844506 C 224.112313 343.848952 228.952762 349.624368 228.950564 356.750735 Z M 228.950564 356.750735 " transform="matrix(0.371975,0.00883775,-0.00536667,0.40179,409.285831,133.653456)"/>
<path style="fill-rule:nonzero;fill:rgb(0%,41.960785%,24.705882%);fill-opacity:1;stroke-width:1.562;stroke-linecap:butt;stroke-linejoin:miter;stroke:rgb(0%,0%,0%);stroke-opacity:1;stroke-miterlimit:4;" d="M 228.957516 356.74783 C 228.955318 363.874197 224.103126 369.658647 218.127774 369.653971 C 212.152563 369.659014 207.311974 363.873879 207.303674 356.747743 C 207.305872 349.621376 212.147707 343.846875 218.133416 343.841601 C 224.108767 343.846278 228.949216 349.621694 228.957516 356.74783 Z M 228.957516 356.74783 " transform="matrix(0.371975,0.00883775,-0.00536667,0.40179,410.994167,129.291281)"/>
<path style="fill-rule:nonzero;fill:rgb(0%,41.960785%,24.705882%);fill-opacity:1;stroke-width:2.545;stroke-linecap:butt;stroke-linejoin:miter;stroke:rgb(0%,0%,0%);stroke-opacity:1;stroke-miterlimit:4;" d="M 596.116323 564.480384 C 596.123468 678.046355 565.931908 770.12341 528.678312 770.125092 C 491.430696 770.111671 461.234727 678.057711 461.233561 564.476638 C 461.244973 450.917781 491.436533 358.840725 528.690129 358.839043 C 565.919188 358.845351 596.115157 450.899312 596.116323 564.480384 Z M 596.116323 564.480384 " transform="matrix(0.182767,-0.0860764,0.0723583,0.224579,379.154167,252.841914)"/>
<path style="fill-rule:nonzero;fill:rgb(0%,41.960785%,24.705882%);fill-opacity:1;stroke-width:2.5;stroke-linecap:butt;stroke-linejoin:miter;stroke:rgb(0%,0%,0%);stroke-opacity:1;stroke-miterlimit:4;" d="M 541.997423 646.072924 C 541.9936 668.60063 536.042251 686.874102 528.68269 686.875092 C 521.329422 686.86241 515.357502 668.605102 515.361325 646.077396 C 515.365148 623.54969 521.316497 605.276218 528.676058 605.275228 C 536.03562 605.274238 542.001246 623.545218 541.997423 646.072924 Z M 541.997423 646.072924 " transform="matrix(0.17145,-0.108777,0.078925,0.235629,385.731672,247.453665)"/>
<path style="fill-rule:nonzero;fill:rgb(0%,41.960785%,24.705882%);fill-opacity:1;stroke-width:0.575;stroke-linecap:butt;stroke-linejoin:miter;stroke:rgb(0%,0%,0%);stroke-opacity:1;stroke-miterlimit:4;" d="M 31.4625 7.797273 C 44.273438 23.395334 42.65625 33.300928 41.320312 41.681503 C 37.29375 32.018366 35.095312 25.93586 22.284375 10.334286 C 9.473437 -5.263774 15.867188 -16.212987 16.748438 -21.979245 C 18.675 -16.989552 18.651562 -7.800787 31.4625 7.797273 Z M 31.4625 7.797273 " transform="matrix(0.833333,0,0,1.111667,500,333.5)"/>
<path style="fill-rule:nonzero;fill:rgb(0%,41.960785%,24.705882%);fill-opacity:1;stroke-width:0.575;stroke-linecap:butt;stroke-linejoin:miter;stroke:rgb(0%,0%,0%);stroke-opacity:1;stroke-miterlimit:4;" d="M 32.615625 20.398004 C 45.426562 35.996064 43.809375 45.901659 42.473437 54.27872 C 38.446875 44.615583 36.253125 38.533077 23.4375 22.931503 C 10.626562 7.333443 17.020312 -3.612256 17.901562 -9.382028 C 19.828125 -4.388821 19.804688 4.79643 32.615625 20.398004 Z M 32.615625 20.398004 " transform="matrix(0.833333,0,0,1.111667,500,333.5)"/>
<path style="fill-rule:nonzero;fill:rgb(0%,41.960785%,24.705882%);fill-opacity:1;stroke-width:0.575;stroke-linecap:butt;stroke-linejoin:miter;stroke:rgb(0%,0%,0%);stroke-opacity:1;stroke-miterlimit:4;" d="M 33 30.546055 C 46.120312 45.86652 44.7 55.803739 43.532812 64.212425 C 39.31875 54.637135 36.998438 48.600309 23.878125 33.276331 C 10.753125 17.952352 16.93125 6.869612 17.695312 1.085785 C 19.720312 6.036825 19.879687 15.218563 33 30.546055 Z M 33 30.546055 " transform="matrix(0.833333,0,0,1.111667,500,333.5)"/>
<path style="fill-rule:nonzero;fill:rgb(0%,41.960785%,24.705882%);fill-opacity:1;stroke-width:1.389;stroke-linecap:butt;stroke-linejoin:miter;stroke:rgb(0%,0%,0%);stroke-opacity:1;stroke-miterlimit:4;" d="M 542.001213 646.068037 C 541.995642 668.600964 536.036952 686.864665 528.682125 686.862225 C 521.323875 686.868148 515.353774 668.600933 515.359344 646.068006 C 515.361492 623.543443 521.323605 605.271379 528.678432 605.273819 C 536.033259 605.276259 542.00336 623.543474 542.001213 646.068037 Z M 542.001213 646.068037 " transform="matrix(0.339867,-0.115391,0.139117,0.419843,250.358327,115.579985)"/>
<path style="fill-rule:nonzero;fill:rgb(0%,41.960785%,24.705882%);fill-opacity:1;stroke-width:1.64;stroke-linecap:butt;stroke-linejoin:miter;stroke:rgb(0%,0%,0%);stroke-opacity:1;stroke-miterlimit:4;" d="M 542.000681 646.075155 C 542.005706 668.599091 536.040361 686.872305 528.681956 686.870754 C 521.323551 686.869204 515.353482 668.603529 515.364092 646.071509 C 515.362778 623.537082 521.324412 605.274359 528.682817 605.275909 C 536.041222 605.27746 541.999367 623.540728 542.000681 646.075155 Z M 542.000681 646.075155 " transform="matrix(0.30575,-0.0701462,0.10815,0.347563,284.164174,147.995069)"/>
<path style="fill-rule:nonzero;fill:rgb(0%,41.960785%,24.705882%);fill-opacity:1;stroke-width:1.64;stroke-linecap:butt;stroke-linejoin:miter;stroke:rgb(0%,0%,0%);stroke-opacity:1;stroke-miterlimit:4;" d="M 542.002007 646.068381 C 541.995643 668.600775 536.032592 686.867425 528.672673 686.868877 C 521.328304 686.861914 515.360309 668.597109 515.363148 646.075241 C 515.357486 623.540737 521.320537 605.274087 528.680456 605.272635 C 536.040374 605.271182 541.996344 623.533877 542.002007 646.068381 Z M 542.002007 646.068381 " transform="matrix(0.306792,-0.0614974,0.102717,0.35052,282.063344,148.051759)"/>
<path style="fill-rule:nonzero;fill:rgb(0%,41.960785%,24.705882%);fill-opacity:1;stroke-width:2.097;stroke-linecap:butt;stroke-linejoin:miter;stroke:rgb(0%,0%,0%);stroke-opacity:1;stroke-miterlimit:4;" d="M 542.008899 646.066625 C 542.006579 668.604409 536.038843 686.872713 528.677986 686.861124 C 521.32645 686.866783 515.358325 668.606327 515.360645 646.068543 C 515.357755 623.54462 521.325491 605.276316 528.677027 605.270657 C 536.043095 605.268384 542.006009 623.542702 542.008899 646.066625 Z M 542.008899 646.066625 " transform="matrix(0.24715,-0.0603746,0.092925,0.259107,324.108327,182.82693)"/>
<path style="fill-rule:nonzero;fill:rgb(0%,41.960785%,24.705882%);fill-opacity:1;stroke-width:2.097;stroke-linecap:butt;stroke-linejoin:miter;stroke:rgb(0%,0%,0%);stroke-opacity:1;stroke-miterlimit:4;" d="M 541.995773 646.066641 C 542.00532 668.602957 536.041695 686.861995 528.684116 686.868368 C 521.331062 686.860742 515.354308 668.599839 515.359646 646.065892 C 515.360459 623.545943 521.328608 605.272907 528.681662 605.280532 C 536.039241 605.274159 542.00111 623.532693 541.995773 646.066641 Z M 541.995773 646.066641 " transform="matrix(0.2496,-0.0422433,0.0806667,0.265388,326.441663,173.570069)"/>
<path style="fill-rule:nonzero;fill:rgb(0%,41.960785%,24.705882%);fill-opacity:1;stroke-width:0.575;stroke-linecap:butt;stroke-linejoin:miter;stroke:rgb(0%,0%,0%);stroke-opacity:1;stroke-miterlimit:4;" d="M 8.620312 -15.766726 C 12.407812 -6.514711 13.940625 1.809642 12.042187 2.811094 C 10.139063 3.809033 5.526562 -2.8884 1.739062 -12.147442 " transform="matrix(0.833333,0,0,1.111667,500,333.5)"/>
<path style="fill-rule:nonzero;fill:rgb(0%,41.960785%,24.705882%);fill-opacity:1;stroke-width:2.097;stroke-linecap:butt;stroke-linejoin:miter;stroke:rgb(0%,0%,0%);stroke-opacity:1;stroke-miterlimit:4;" d="M 541.997426 646.067265 C 542.006973 668.603581 536.043348 686.862619 528.685769 686.868992 C 521.31783 686.858997 515.355961 668.600463 515.361298 646.066516 C 515.362111 623.546567 521.33026 605.273531 528.683315 605.281156 C 536.040894 605.274783 542.002763 623.533318 541.997426 646.067265 Z M 541.997426 646.067265 " transform="matrix(0.2496,-0.0422433,0.0806667,0.265388,325.921669,161.484036)"/>
<path style="fill-rule:nonzero;fill:rgb(0%,41.960785%,24.705882%);fill-opacity:1;stroke-width:2.097;stroke-linecap:butt;stroke-linejoin:miter;stroke:rgb(0%,0%,0%);stroke-opacity:1;stroke-miterlimit:4;" d="M 542.000306 646.070854 C 542.009589 668.59614 536.042256 686.862047 528.672125 686.871865 C 521.321266 686.869647 515.363544 668.604644 515.358535 646.065322 C 515.364251 623.542038 521.316585 605.27413 528.682442 605.278349 C 536.033301 605.280566 542.010295 623.533534 542.000306 646.070854 Z M 542.000306 646.070854 " transform="matrix(0.250267,-0.0356845,0.0762,0.267423,323.171666,160.094452)"/>
<path style="fill-rule:nonzero;fill:rgb(0%,41.960785%,24.705882%);fill-opacity:1;stroke-width:0.575;stroke-linecap:butt;stroke-linejoin:miter;stroke:rgb(0%,0%,0%);stroke-opacity:1;stroke-miterlimit:4;" d="M 2.025 -28.339346 C 5.704687 -22.084661 7.682812 -16.244612 6.445312 -15.299382 C 5.207812 -14.357665 1.21875 -18.669181 -2.460938 -24.923866 " transform="matrix(0.833333,0,0,1.111667,500,333.5)"/>
<path style="fill-rule:nonzero;fill:rgb(0%,41.960785%,24.705882%);fill-opacity:1;stroke-width:0.575;stroke-linecap:butt;stroke-linejoin:miter;stroke:rgb(0%,0%,0%);stroke-opacity:1;stroke-miterlimit:4;" d="M 4.575 -32.48571 C 8.25 -26.231025 10.228125 -20.390976 8.990625 -19.44926 C 7.753125 -18.507543 3.764063 -22.815545 0.084375 -29.070231 M 16.0125 -31.607243 C 21.135937 -23.06503 23.896875 -15.088549 22.167187 -13.795446 C 20.442187 -12.505856 14.878125 -18.395099 9.754687 -26.937313 " transform="matrix(0.833333,0,0,1.111667,500,333.5)"/>
<path style="fill-rule:nonzero;fill:rgb(0%,41.960785%,24.705882%);fill-opacity:1;stroke-width:0.575;stroke-linecap:butt;stroke-linejoin:miter;stroke:rgb(0%,0%,0%);stroke-opacity:1;stroke-miterlimit:4;" d="M 8.451563 -36.080397 C 12.145312 -29.17916 14.1375 -22.734726 12.9 -21.698135 C 11.667187 -20.661544 7.664062 -25.422835 3.975 -32.327586 " transform="matrix(0.833333,0,0,1.111667,500,333.5)"/>
<path style="fill-rule:nonzero;fill:rgb(58.039218%,38.039216%,78.823531%);fill-opacity:1;stroke-width:0.591;stroke-linecap:butt;stroke-linejoin:miter;stroke:rgb(0%,0%,0%);stroke-opacity:1;stroke-miterlimit:4;" d="M 8.123438 -46.08438 C 5.657812 -43.603589 8.071875 -38.961769 10.33125 -37.285654 C 12.857813 -34.991098 27.070312 -19.997423 37.096875 -32.61221 C 29.067187 -32.759792 14.071875 -51.618722 8.123438 -46.08438 Z M 8.123438 -46.08438 " transform="matrix(0.833333,0,0,1.111667,500,333.5)"/>
<path style="fill-rule:nonzero;fill:rgb(58.039218%,38.039216%,78.823531%);fill-opacity:1;stroke-width:0.591;stroke-linecap:butt;stroke-linejoin:miter;stroke:rgb(0%,0%,0%);stroke-opacity:1;stroke-miterlimit:4;" d="M 6.370312 -53.484586 C 3.904688 -51.003795 6.31875 -46.361975 8.573437 -44.682346 C 11.104687 -42.391304 25.317187 -27.397629 35.34375 -40.012416 C 27.309375 -40.156484 12.31875 -59.015414 6.370312 -53.484586 Z M 6.370312 -53.484586 " transform="matrix(0.833333,0,0,1.111667,500,333.5)"/>
<path style="fill-rule:nonzero;fill:rgb(58.039218%,38.039216%,78.823531%);fill-opacity:1;stroke-width:0.591;stroke-linecap:butt;stroke-linejoin:miter;stroke:rgb(0%,0%,0%);stroke-opacity:1;stroke-miterlimit:4;" d="M 4.125 -60.575572 C 1.654688 -58.094781 4.073437 -53.452961 6.328125 -51.773332 C 8.859375 -49.48229 23.071875 -34.488615 33.098437 -47.103401 C 25.064062 -47.24747 10.06875 -66.1064 4.125 -60.575572 Z M 4.125 -60.575572 " transform="matrix(0.833333,0,0,1.111667,500,333.5)"/>
<path style="fill-rule:nonzero;fill:rgb(58.039218%,38.039216%,78.823531%);fill-opacity:1;stroke-width:0.591;stroke-linecap:butt;stroke-linejoin:miter;stroke:rgb(0%,0%,0%);stroke-opacity:1;stroke-miterlimit:4;" d="M -0.759375 -68.685579 C -3.225 -66.204788 -0.810938 -61.562969 1.448437 -59.886853 C 3.975 -57.592298 18.1875 -42.598623 28.214062 -55.213409 C 20.179688 -55.360991 5.189062 -74.216407 -0.759375 -68.685579 Z M -0.759375 -68.685579 " transform="matrix(0.833333,0,0,1.111667,500,333.5)"/>
<path style="fill-rule:nonzero;fill:rgb(58.039218%,38.039216%,78.823531%);fill-opacity:1;stroke-width:0.628;stroke-linecap:butt;stroke-linejoin:miter;stroke:rgb(0%,0%,0%);stroke-opacity:1;stroke-miterlimit:4;" d="M -18.271875 -76.447714 C -13.190625 -80.228636 -3.857813 -81.33199 3.407812 -77.631887 C 9.464062 -74.666183 19.55625 -62.557393 27.145312 -59.697105 C 21.80625 -58.744846 18.553125 -59.549522 15.140625 -61.186985 C 8.404688 -56.309736 6 -55.575337 -0.867188 -54.619565 C -10.415625 -53.238615 -18.346875 -55.726434 -21.13125 -60.709099 C -23.971875 -65.40714 -22.748438 -72.944387 -18.271875 -76.447714 Z M -18.271875 -76.447714 " transform="matrix(0.833333,0,0,1.111667,500,333.5)"/>
<path style="fill-rule:nonzero;fill:rgb(83.137256%,10.980392%,18.82353%);fill-opacity:1;stroke-width:2.5;stroke-linecap:butt;stroke-linejoin:miter;stroke:rgb(0%,0%,0%);stroke-opacity:1;stroke-miterlimit:4;" d="M 301.388362 323.033158 C 301.378004 331.313382 295.043832 338.035124 287.233703 338.019033 C 279.408616 338.02418 273.080182 331.319452 273.07538 323.03972 C 273.070577 314.759989 279.420111 308.0585 287.230038 308.053845 C 295.039966 308.04919 301.383559 314.753426 301.388362 323.033158 Z M 301.388362 323.033158 " transform="matrix(0.257583,0.00611417,-0.00250833,0.188239,420.579999,194.330447)"/>
<path style="fill-rule:nonzero;fill:rgb(98.823529%,81.960785%,8.627451%);fill-opacity:1;stroke-width:2.5;stroke-linecap:butt;stroke-linejoin:miter;stroke:rgb(0%,0%,0%);stroke-opacity:1;stroke-miterlimit:4;" d="M 227.83657 348.264808 C 227.830469 357.04493 217.431752 364.151171 204.575892 364.158495 C 191.741448 364.158725 181.31958 357.03957 181.325681 348.259447 C 181.331782 339.479325 191.735158 332.359001 204.586359 332.36576 C 217.420802 332.36553 227.825912 339.477696 227.83657 348.264808 Z M 227.83657 348.264808 " transform="matrix(0.204833,-0.101651,0.0677667,0.243733,417.129167,204.225393)"/>
<path style=" stroke:none;fill-rule:nonzero;fill:rgb(0%,0%,0%);fill-opacity:1;" d="M 494.878906 256.734375 C 494.867188 257.570312 494.269531 258.234375 493.546875 258.214844 C 492.824219 258.199219 492.246094 257.507812 492.253906 256.671875 C 492.265625 255.839844 492.863281 255.175781 493.585938 255.191406 C 494.3125 255.210938 494.886719 255.898438 494.878906 256.734375 Z M 494.878906 256.734375 "/>
<path style="fill-rule:nonzero;fill:rgb(98.823529%,81.960785%,8.627451%);fill-opacity:1;stroke-width:0.732;stroke-linecap:butt;stroke-linejoin:miter;stroke:rgb(0%,0%,0%);stroke-opacity:1;stroke-miterlimit:4;" d="M -17.128125 -65.51607 C -16.725 -63.565873 -18.16875 -60.930472 -21.309375 -59.999297 C -24.501562 -58.678083 -26.925 -55.67724 -28.321875 -50.77188 C -33.178125 -61.956522 -30.09375 -66.689702 -24.9375 -67.838737 C -20.498438 -69.254826 -17.826563 -69.075618 -17.128125 -65.51607 Z M -17.128125 -65.51607 " transform="matrix(0.833333,0,0,1.111667,500,333.5)"/>
</g>
</svg>
