<?xml version="1.0" encoding="UTF-8"?>
<svg xmlns="http://www.w3.org/2000/svg" xmlns:xlink="http://www.w3.org/1999/xlink" width="1000px" height="667px" viewBox="0 0 1000 667" version="1.1">
<g id="surface1">
<rect x="0" y="0" width="1000" height="667" style="fill:rgb(100%,100%,100%);fill-opacity:1;stroke:none;"/>
<path style=" stroke:none;fill-rule:nonzero;fill:rgb(0%,38.431373%,20%);fill-opacity:1;" d="M 0 0 L 500 0 L 500 667 L 0 667 Z M 0 0 "/>
<path style=" stroke:none;fill-rule:nonzero;fill:rgb(82.352942%,6.27451%,20.392157%);fill-opacity:1;" d="M 644.445312 250.125 C 606.726562 184.765625 529.835938 152.898438 456.96875 172.433594 C 384.105469 191.964844 333.441406 258.027344 333.441406 333.5 C 333.441406 408.972656 384.105469 475.035156 456.96875 494.566406 C 529.835938 514.101562 606.726562 482.234375 644.445312 416.875 C 609.058594 461.09375 549.621094 478.132812 496.203125 459.371094 C 442.78125 440.613281 407.027344 390.144531 407.027344 333.5 C 407.027344 276.855469 442.78125 226.386719 496.203125 207.628906 C 549.621094 188.867188 609.058594 205.90625 644.445312 250.125 M 650 333.5 L 500 284.585938 L 593.332031 412.429688 L 593.332031 254.570312 L 500 382.414062 Z M 650 333.5 "/>
</g>
</svg>
