<?xml version="1.0" encoding="UTF-8"?>
<svg xmlns="http://www.w3.org/2000/svg" xmlns:xlink="http://www.w3.org/1999/xlink" width="1000px" height="667px" viewBox="0 0 1000 667" version="1.1">
<g id="surface1">
<rect x="0" y="0" width="1000" height="667" style="fill:rgb(0%,0%,0%);fill-opacity:1;stroke:none;"/>
<path style=" stroke:none;fill-rule:nonzero;fill:rgb(100%,100%,100%);fill-opacity:1;" d="M 0 0 L 1000 0 L 1000 444.667969 L 0 444.667969 Z M 0 0 "/>
<path style=" stroke:none;fill-rule:nonzero;fill:rgb(80.784315%,6.666667%,14.901961%);fill-opacity:1;" d="M 0 0 L 1000 0 L 1000 222.332031 L 0 222.332031 Z M 0 0 "/>
<path style="fill-rule:nonzero;fill:rgb(100%,100%,100%);fill-opacity:1;stroke-width:1.2703;stroke-linecap:butt;stroke-linejoin:round;stroke:rgb(75.294119%,57.647061%,0%);stroke-opacity:1;stroke-miterlimit:4;" d="M 450.808594 302.399972 L 519.296484 365.979901 L 514.423828 250.510682 C 513.706641 233.008105 498.498047 237.024457 487.451953 243.335364 C 476.261719 250.510682 463.492969 250.510682 450.003516 245.773988 C 436.521094 250.510682 423.752344 250.510682 412.562109 243.335364 C 401.516016 237.024457 386.307422 233.008105 385.590234 250.510682 L 380.710547 365.979901 Z M 450.808594 302.399972 " transform="matrix(1.111111,0,0,1.111667,0,0)"/>
<path style=" stroke:none;fill-rule:nonzero;fill:rgb(75.294119%,57.647061%,0%);fill-opacity:1;" d="M 437.1875 274.015625 L 431.929688 398.878906 L 423 406.84375 L 428.421875 278.480469 C 430.972656 276.726562 435.4375 274.015625 437.1875 274.015625 Z M 437.1875 274.015625 "/>
<path style=" stroke:none;fill-rule:nonzero;fill:rgb(75.294119%,57.647061%,0%);fill-opacity:1;" d="M 447.878906 282.953125 L 443.414062 387.398438 L 434.488281 396.539062 L 439.910156 275.933594 C 441.664062 277.6875 446.925781 281.992188 447.878906 282.949219 Z M 447.878906 282.953125 "/>
<path style=" stroke:none;fill-rule:nonzero;fill:rgb(75.294119%,57.647061%,0%);fill-opacity:1;" d="M 457.601562 290.921875 L 454.09375 378.035156 L 446.921875 385.050781 L 451.386719 285.660156 C 453.136719 287.414062 456.644531 289.964844 457.601562 290.921875 Z M 457.601562 290.921875 "/>
<path style=" stroke:none;fill-rule:nonzero;fill:rgb(75.294119%,57.647061%,0%);fill-opacity:1;" d="M 468.121094 295.390625 L 464.613281 369.636719 L 457.601562 375.328125 L 461.109375 292.683594 C 462.863281 293.480469 466.367188 295.390625 468.121094 295.390625 Z M 468.121094 295.390625 "/>
<path style=" stroke:none;fill-rule:nonzero;fill:rgb(75.294119%,57.647061%,0%);fill-opacity:1;" d="M 477.84375 295.390625 L 475.292969 357.265625 L 468.121094 364.28125 L 470.832031 296.191406 C 472.582031 296.191406 477.046875 296.191406 477.84375 295.390625 Z M 477.84375 295.390625 "/>
<path style=" stroke:none;fill-rule:nonzero;fill:rgb(75.294119%,57.647061%,0%);fill-opacity:1;" d="M 562.8125 274.015625 L 568.070312 398.878906 L 577 406.84375 L 571.578125 278.480469 C 569.027344 276.726562 564.5625 274.015625 562.8125 274.015625 Z M 562.8125 274.015625 "/>
<path style=" stroke:none;fill-rule:nonzero;fill:rgb(75.294119%,57.647061%,0%);fill-opacity:1;" d="M 552.121094 282.953125 L 556.585938 387.398438 L 565.511719 396.539062 L 560.089844 275.933594 C 558.335938 277.6875 553.074219 281.992188 552.121094 282.949219 Z M 552.121094 282.953125 "/>
<path style=" stroke:none;fill-rule:nonzero;fill:rgb(75.294119%,57.647061%,0%);fill-opacity:1;" d="M 542.398438 290.921875 L 545.90625 378.035156 L 553.078125 385.050781 L 548.613281 285.660156 C 546.863281 287.414062 543.355469 289.964844 542.398438 290.921875 Z M 542.398438 290.921875 "/>
<path style=" stroke:none;fill-rule:nonzero;fill:rgb(75.294119%,57.647061%,0%);fill-opacity:1;" d="M 531.878906 295.390625 L 535.386719 369.636719 L 542.398438 375.328125 L 538.890625 292.683594 C 537.136719 293.480469 533.632812 295.390625 531.878906 295.390625 Z M 531.878906 295.390625 "/>
<path style=" stroke:none;fill-rule:nonzero;fill:rgb(75.294119%,57.647061%,0%);fill-opacity:1;" d="M 522.15625 295.390625 L 524.707031 357.265625 L 531.878906 364.28125 L 529.167969 296.191406 C 527.417969 296.191406 522.953125 296.191406 522.15625 295.390625 Z M 522.15625 295.390625 "/>
<path style="fill-rule:nonzero;fill:rgb(75.294119%,57.647061%,0%);fill-opacity:1;stroke-width:1.0739;stroke-linecap:butt;stroke-linejoin:miter;stroke:rgb(75.294119%,57.647061%,0%);stroke-opacity:1;stroke-miterlimit:4;" d="M 453.160547 315.060439 L 462.772266 358.815124 L 459.615234 361.970577 L 456.314062 359.531953 L 450.864844 320.513962 L 453.160547 359.531953 L 450.003516 363.548304 L 446.846484 359.531953 L 449.142187 320.513962 L 443.692969 359.531953 L 440.388281 361.970577 L 437.234766 358.815124 L 446.846484 315.060439 Z M 453.160547 315.060439 " transform="matrix(1.111111,0,0,1.111667,0,0)"/>
<path style="fill-rule:nonzero;fill:rgb(100%,100%,100%);fill-opacity:1;stroke-width:1.1888;stroke-linecap:butt;stroke-linejoin:round;stroke:rgb(75.294119%,57.647061%,0%);stroke-opacity:1;stroke-miterlimit:4;" d="M 428.480859 295.83958 L 409.401562 363.54479 L 435.65625 367.561141 L 446.842969 316.638165 Z M 428.480859 295.83958 " transform="matrix(1.111111,0,0,1.111667,0,0)"/>
<path style="fill:none;stroke-width:1.2705;stroke-linecap:butt;stroke-linejoin:round;stroke:rgb(75.294119%,57.647061%,0%);stroke-opacity:1;stroke-miterlimit:4;" d="M 422.170312 318.939749 L 424.466016 324.533827 L 436.869141 312.685064 " transform="matrix(1.111111,0,0,1.111667,0,0)"/>
<path style="fill:none;stroke-width:1.2705;stroke-linecap:butt;stroke-linejoin:round;stroke:rgb(75.294119%,57.647061%,0%);stroke-opacity:1;stroke-miterlimit:4;" d="M 430.758984 304.919415 L 433.357031 329.267007 L 441.246094 318.939749 " transform="matrix(1.111111,0,0,1.111667,0,0)"/>
<path style="fill:none;stroke-width:1.2705;stroke-linecap:butt;stroke-linejoin:round;stroke:rgb(75.294119%,57.647061%,0%);stroke-opacity:1;stroke-miterlimit:4;" d="M 438.089062 322.949072 L 442.399219 337.823276 " transform="matrix(1.111111,0,0,1.111667,0,0)"/>
<path style="fill:none;stroke-width:1.2705;stroke-linecap:butt;stroke-linejoin:round;stroke:rgb(75.294119%,57.647061%,0%);stroke-opacity:1;stroke-miterlimit:4;" d="M 444.090234 332.359211 L 435.371484 345.599466 M 438.092578 358.818638 L 435.301172 345.620549 L 432.864844 332.197573 L 427.025391 340.103776 L 424.4625 330.985289 L 416.288672 339.369378 L 420.447656 354.623079 L 426.185156 345.188343 L 429.338672 354.798772 L 435.230859 345.638118 " transform="matrix(1.111111,0,0,1.111667,0,0)"/>
<path style="fill:none;stroke-width:1.2705;stroke-linecap:butt;stroke-linejoin:round;stroke:rgb(75.294119%,57.647061%,0%);stroke-opacity:1;stroke-miterlimit:4;" d="M 414.991406 361.970577 L 420.289453 354.524691 L 423.741797 365.983415 L 428.477344 357.950712 L 431.634375 367.564655 " transform="matrix(1.111111,0,0,1.111667,0,0)"/>
<path style="fill-rule:nonzero;fill:rgb(100%,100%,100%);fill-opacity:1;stroke-width:1.1888;stroke-linecap:butt;stroke-linejoin:round;stroke:rgb(75.294119%,57.647061%,0%);stroke-opacity:1;stroke-miterlimit:4;" d="M 428.480859 295.83958 L 409.401563 363.54479 L 435.65625 367.561141 L 446.842969 316.638165 Z M 428.480859 295.83958 " transform="matrix(-1.111111,0,0,1.111667,1000,0)"/>
<path style="fill:none;stroke-width:1.2705;stroke-linecap:butt;stroke-linejoin:round;stroke:rgb(75.294119%,57.647061%,0%);stroke-opacity:1;stroke-miterlimit:4;" d="M 422.170313 318.939749 L 424.466016 324.533827 L 436.869141 312.685064 " transform="matrix(-1.111111,0,0,1.111667,1000,0)"/>
<path style="fill:none;stroke-width:1.2705;stroke-linecap:butt;stroke-linejoin:round;stroke:rgb(75.294119%,57.647061%,0%);stroke-opacity:1;stroke-miterlimit:4;" d="M 430.758984 304.919415 L 433.357031 329.267007 L 441.246094 318.939749 " transform="matrix(-1.111111,0,0,1.111667,1000,0)"/>
<path style="fill:none;stroke-width:1.2705;stroke-linecap:butt;stroke-linejoin:round;stroke:rgb(75.294119%,57.647061%,0%);stroke-opacity:1;stroke-miterlimit:4;" d="M 438.089063 322.949072 L 442.399219 337.823276 " transform="matrix(-1.111111,0,0,1.111667,1000,0)"/>
<path style="fill:none;stroke-width:1.2705;stroke-linecap:butt;stroke-linejoin:round;stroke:rgb(75.294119%,57.647061%,0%);stroke-opacity:1;stroke-miterlimit:4;" d="M 444.090234 332.359211 L 435.371484 345.599466 M 438.092578 358.818638 L 435.301172 345.620549 L 432.864844 332.197573 L 427.025391 340.103776 L 424.4625 330.985289 L 416.288672 339.369378 L 420.447656 354.623079 L 426.185156 345.188343 L 429.338672 354.798772 L 435.230859 345.638118 " transform="matrix(-1.111111,0,0,1.111667,1000,0)"/>
<path style="fill:none;stroke-width:1.2705;stroke-linecap:butt;stroke-linejoin:round;stroke:rgb(75.294119%,57.647061%,0%);stroke-opacity:1;stroke-miterlimit:4;" d="M 414.991406 361.970577 L 420.289453 354.524691 L 423.741797 365.983415 L 428.477344 357.950712 L 431.634375 367.564655 " transform="matrix(-1.111111,0,0,1.111667,1000,0)"/>
<path style="fill-rule:nonzero;fill:rgb(100%,100%,100%);fill-opacity:1;stroke-width:2.3777;stroke-linecap:round;stroke-linejoin:round;stroke:rgb(75.294119%,57.647061%,0%);stroke-opacity:1;stroke-miterlimit:4;" d="M 450 393.809736 C 469.944141 393.809736 489.023437 392.232009 500.213672 389.076555 C 504.949219 388.215658 504.949219 385.777033 504.949219 382.62158 C 509.684766 381.043853 507.244922 375.449775 510.542578 375.449775 C 507.244922 376.314187 506.527734 369.855697 502.509375 370.720109 C 502.509375 365.122517 496.916016 364.405688 492.180469 365.979901 C 482.709375 369.138868 465.925781 369.855697 450 369.855697 C 434.074219 369.138868 417.43125 369.138868 407.819531 365.979901 C 403.0875 364.405688 397.494141 365.122517 397.494141 370.720109 C 393.475781 369.855697 392.758594 376.314187 389.460937 375.449775 C 392.758594 375.449775 390.31875 381.043853 395.054297 382.62158 C 395.054297 385.777033 395.054297 388.215658 399.930469 389.076555 C 410.976562 392.232009 430.059375 393.809736 450 393.809736 Z M 450 393.809736 " transform="matrix(1.111111,0,0,1.111667,0,0)"/>
<path style="fill-rule:nonzero;fill:rgb(100%,100%,100%);fill-opacity:1;stroke-width:1.2705;stroke-linecap:round;stroke-linejoin:round;stroke:rgb(75.294119%,57.647061%,0%);stroke-opacity:1;stroke-miterlimit:4;" d="M 422.891016 363.541276 C 429.345703 364.402174 436.517578 365.119003 442.114453 364.402174 C 445.267969 364.402174 447.563672 369.852183 441.253125 370.713081 C 435.659766 371.42991 426.905859 370.713081 422.173828 369.852183 C 418.155469 369.135354 409.405078 367.557627 403.808203 365.976387 C 398.214844 363.541276 402.233203 358.808096 405.386719 359.524925 C 410.262891 361.102652 416.576953 362.680379 422.891016 363.541276 Z M 422.891016 363.541276 " transform="matrix(1.111111,0,0,1.111667,0,0)"/>
<path style="fill-rule:nonzero;fill:rgb(100%,100%,100%);fill-opacity:1;stroke-width:1.2705;stroke-linecap:round;stroke-linejoin:round;stroke:rgb(75.294119%,57.647061%,0%);stroke-opacity:1;stroke-miterlimit:4;" d="M 477.119531 363.541276 C 470.664844 364.402174 463.492969 365.119003 458.040234 364.402174 C 454.739062 364.402174 452.443359 369.852183 458.757422 370.713081 C 464.350781 371.42991 473.104687 370.713081 477.833203 369.852183 C 481.851562 369.135354 490.601953 367.557627 496.198828 365.976387 C 501.795703 363.541276 497.777344 358.808096 494.620312 359.524925 C 489.744141 361.102652 483.430078 362.680379 477.119531 363.541276 Z M 477.119531 363.541276 " transform="matrix(1.111111,0,0,1.111667,0,0)"/>
<path style="fill-rule:nonzero;fill:rgb(100%,100%,100%);fill-opacity:1;stroke-width:1.2705;stroke-linecap:round;stroke-linejoin:round;stroke:rgb(75.294119%,57.647061%,0%);stroke-opacity:1;stroke-miterlimit:4;" d="M 403.091016 360.389337 C 398.211328 359.528439 395.919141 365.122517 397.497656 368.27797 C 398.214844 366.700244 401.5125 366.700244 402.233203 365.122517 C 403.091016 362.683892 401.5125 362.683892 403.091016 360.389337 Z M 403.091016 360.389337 " transform="matrix(1.111111,0,0,1.111667,0,0)"/>
<path style="fill-rule:nonzero;fill:rgb(100%,100%,100%);fill-opacity:1;stroke-width:1.2705;stroke-linecap:round;stroke-linejoin:round;stroke:rgb(75.294119%,57.647061%,0%);stroke-opacity:1;stroke-miterlimit:4;" d="M 422.170312 375.059736 C 422.170312 371.907796 425.323828 372.294322 425.323828 369.138868 C 425.323828 367.561141 424.466016 365.122517 422.8875 365.122517 C 421.308984 365.122517 419.730469 366.700244 419.730469 368.27797 C 419.013281 371.433424 422.170312 371.907796 422.170312 375.059736 Z M 422.170312 375.059736 " transform="matrix(1.111111,0,0,1.111667,0,0)"/>
<path style="fill-rule:nonzero;fill:rgb(100%,100%,100%);fill-opacity:1;stroke-width:1.2705;stroke-linecap:round;stroke-linejoin:round;stroke:rgb(75.294119%,57.647061%,0%);stroke-opacity:1;stroke-miterlimit:4;" d="M 444.88125 365.979901 C 449.609766 365.979901 449.142187 372.294322 446.846484 375.449775 C 446.846484 373.155219 442.828125 372.294322 442.828125 370.716595 C 442.828125 368.27797 446.45625 368.27797 444.88125 365.979901 Z M 444.88125 365.979901 " transform="matrix(1.111111,0,0,1.111667,0,0)"/>
<path style="fill-rule:nonzero;fill:rgb(100%,100%,100%);fill-opacity:1;stroke-width:1.2705;stroke-linecap:round;stroke-linejoin:round;stroke:rgb(75.294119%,57.647061%,0%);stroke-opacity:1;stroke-miterlimit:4;" d="M 496.908984 360.389337 C 501.788672 359.528439 504.084375 365.122517 502.505859 368.27797 C 501.788672 366.700244 498.4875 366.700244 497.770312 365.122517 C 496.908984 362.683892 498.4875 362.683892 496.908984 360.389337 Z M 496.908984 360.389337 " transform="matrix(1.111111,0,0,1.111667,0,0)"/>
<path style="fill-rule:nonzero;fill:rgb(100%,100%,100%);fill-opacity:1;stroke-width:1.2705;stroke-linecap:round;stroke-linejoin:round;stroke:rgb(75.294119%,57.647061%,0%);stroke-opacity:1;stroke-miterlimit:4;" d="M 477.829687 375.059736 C 477.829687 371.907796 474.676172 372.294322 474.676172 369.138868 C 474.676172 367.561141 475.5375 365.122517 477.116016 365.122517 C 478.691016 365.122517 480.269531 366.700244 480.269531 368.27797 C 480.990234 371.433424 477.829687 371.907796 477.829687 375.059736 Z M 477.829687 375.059736 " transform="matrix(1.111111,0,0,1.111667,0,0)"/>
<path style="fill-rule:nonzero;fill:rgb(100%,100%,100%);fill-opacity:1;stroke-width:1.2705;stroke-linecap:round;stroke-linejoin:round;stroke:rgb(75.294119%,57.647061%,0%);stroke-opacity:1;stroke-miterlimit:4;" d="M 455.11875 365.979901 C 450.386719 365.979901 450.857812 372.294322 453.153516 375.449775 C 453.153516 373.155219 457.168359 372.294322 457.168359 370.716595 C 457.168359 368.27797 453.54375 368.27797 455.11875 365.979901 Z M 455.11875 365.979901 " transform="matrix(1.111111,0,0,1.111667,0,0)"/>
<path style="fill-rule:nonzero;fill:rgb(100%,100%,100%);fill-opacity:1;stroke-width:0.8915;stroke-linecap:round;stroke-linejoin:round;stroke:rgb(75.294119%,57.647061%,0%);stroke-opacity:1;stroke-miterlimit:4;" d="M 404.669531 361.970577 C 406.251562 361.970577 408.687891 362.687406 409.405078 363.548304 L 404.666016 361.967063 Z M 404.669531 361.970577 " transform="matrix(1.111111,0,0,1.111667,0,0)"/>
<path style="fill-rule:nonzero;fill:rgb(100%,100%,100%);fill-opacity:1;stroke-width:0.8915;stroke-linecap:round;stroke-linejoin:round;stroke:rgb(75.294119%,57.647061%,0%);stroke-opacity:1;stroke-miterlimit:4;" d="M 412.551562 364.409202 C 413.412891 364.409202 416.569922 365.126031 418.144922 365.986928 L 412.544531 364.405688 Z M 412.551562 364.409202 " transform="matrix(1.111111,0,0,1.111667,0,0)"/>
<path style="fill-rule:nonzero;fill:rgb(100%,100%,100%);fill-opacity:1;stroke-width:0.8915;stroke-linecap:round;stroke-linejoin:round;stroke:rgb(75.294119%,57.647061%,0%);stroke-opacity:1;stroke-miterlimit:4;" d="M 441.249609 367.561141 C 439.671094 367.561141 436.517578 367.561141 435.65625 368.274457 L 441.246094 367.554114 Z M 441.249609 367.561141 " transform="matrix(1.111111,0,0,1.111667,0,0)"/>
<path style="fill-rule:nonzero;fill:rgb(100%,100%,100%);fill-opacity:1;stroke-width:0.8915;stroke-linecap:round;stroke-linejoin:round;stroke:rgb(75.294119%,57.647061%,0%);stroke-opacity:1;stroke-miterlimit:4;" d="M 432.499219 367.561141 C 431.641406 366.69673 428.484375 366.69673 426.905859 367.561141 Z M 432.499219 367.561141 " transform="matrix(1.111111,0,0,1.111667,0,0)"/>
<path style="fill-rule:nonzero;fill:rgb(100%,100%,100%);fill-opacity:1;stroke-width:0.8915;stroke-linecap:round;stroke-linejoin:round;stroke:rgb(75.294119%,57.647061%,0%);stroke-opacity:1;stroke-miterlimit:4;" d="M 495.341016 361.970577 C 493.7625 361.970577 491.466797 362.687406 490.605469 363.548304 Z M 495.341016 361.970577 " transform="matrix(1.111111,0,0,1.111667,0,0)"/>
<path style="fill-rule:nonzero;fill:rgb(100%,100%,100%);fill-opacity:1;stroke-width:0.8915;stroke-linecap:round;stroke-linejoin:round;stroke:rgb(75.294119%,57.647061%,0%);stroke-opacity:1;stroke-miterlimit:4;" d="M 487.448437 364.409202 C 486.590625 364.409202 483.433594 365.126031 481.855078 365.986928 L 487.455469 364.405688 Z M 487.448437 364.409202 " transform="matrix(1.111111,0,0,1.111667,0,0)"/>
<path style="fill-rule:nonzero;fill:rgb(100%,100%,100%);fill-opacity:1;stroke-width:0.8915;stroke-linecap:round;stroke-linejoin:round;stroke:rgb(75.294119%,57.647061%,0%);stroke-opacity:1;stroke-miterlimit:4;" d="M 458.750391 367.561141 C 460.328906 367.561141 463.485937 367.561141 464.34375 368.274457 L 458.746875 367.554114 Z M 458.750391 367.561141 " transform="matrix(1.111111,0,0,1.111667,0,0)"/>
<path style="fill-rule:nonzero;fill:rgb(100%,100%,100%);fill-opacity:1;stroke-width:0.8915;stroke-linecap:round;stroke-linejoin:round;stroke:rgb(75.294119%,57.647061%,0%);stroke-opacity:1;stroke-miterlimit:4;" d="M 467.500781 367.561141 C 468.358594 366.69673 471.519141 366.69673 473.094141 367.561141 L 467.49375 367.561141 Z M 467.500781 367.561141 " transform="matrix(1.111111,0,0,1.111667,0,0)"/>
<path style=" stroke:none;fill-rule:nonzero;fill:rgb(75.294119%,57.647061%,0%);fill-opacity:1;" d="M 448.15625 416.40625 C 447.5625 416.292969 447.25 415.824219 447.398438 415.269531 C 447.582031 414.59375 448.125 414.203125 448.636719 414.386719 C 448.960938 414.5 449.558594 415.101562 449.558594 415.316406 C 449.5625 415.566406 449.25 416.15625 449.113281 416.15625 C 449.054688 416.15625 448.964844 416.207031 448.910156 416.269531 C 448.800781 416.402344 448.453125 416.464844 448.15625 416.40625 Z M 448.15625 416.40625 "/>
<path style=" stroke:none;fill-rule:nonzero;fill:rgb(75.294119%,57.647061%,0%);fill-opacity:1;" d="M 509.1875 420.765625 C 508.96875 420.683594 508.617188 420.1875 508.617188 419.960938 C 508.617188 419.53125 509.253906 418.828125 509.648438 418.824219 C 509.84375 418.824219 510.375 419.101562 510.574219 419.308594 C 510.9375 419.683594 510.859375 420.300781 510.402344 420.652344 C 510.179688 420.824219 509.515625 420.886719 509.1875 420.765625 Z M 509.1875 420.765625 "/>
<path style=" stroke:none;fill-rule:nonzero;fill:rgb(75.294119%,57.647061%,0%);fill-opacity:1;" d="M 509.589844 423.523438 C 509.121094 423.363281 508.953125 423.136719 508.914062 422.617188 C 508.875 422.078125 508.925781 421.996094 509.496094 421.683594 L 509.902344 421.460938 L 510.289062 421.632812 C 510.820312 421.871094 511.058594 422.128906 511.078125 422.488281 C 511.097656 422.875 510.808594 423.269531 510.363281 423.46875 C 509.972656 423.644531 509.953125 423.644531 509.589844 423.523438 Z M 509.589844 423.523438 "/>
<path style=" stroke:none;fill-rule:nonzero;fill:rgb(75.294119%,57.647061%,0%);fill-opacity:1;" d="M 453.054688 411.417969 C 452.671875 411.40625 452.144531 411.757812 451.839844 411.9375 C 451.117188 412.105469 450.28125 412.550781 449.582031 412.078125 C 448.898438 411.863281 447.984375 412.03125 447.882812 412.875 C 448.058594 413.601562 449.074219 414.015625 449.6875 413.535156 C 450.144531 412.9375 451.390625 412.585938 451.527344 413.605469 C 451.019531 414.375 451.078125 415.394531 450.660156 416.210938 C 450.589844 416.71875 450.378906 417.203125 450.105469 417.636719 C 449.589844 417.6875 449.042969 417.625 448.609375 417.949219 C 447.914062 417.984375 447.207031 418.332031 446.804688 418.921875 C 446.355469 419.5625 445.929688 420.214844 445.796875 421.003906 C 445.917969 421.8125 446.839844 422.042969 447.535156 422.082031 C 448.277344 422.285156 449.015625 422.554688 449.757812 422.777344 C 450.960938 423.046875 452.09375 423.484375 453.296875 423.75 C 455.058594 424.28125 456.90625 424.523438 458.679688 425 C 458.867188 425.0625 459.039062 425.117188 459.234375 425.140625 C 459.972656 425.292969 460.355469 424.492188 460.417969 423.886719 C 460.78125 422.597656 461.058594 421.289062 461.421875 419.996094 C 461.671875 419.480469 461.976562 418.3125 460.972656 418.574219 C 460.398438 418.917969 459.914062 419.433594 459.203125 419.476562 C 458.230469 419.53125 458.785156 420.527344 459.167969 420.933594 C 459.25 421.589844 459.042969 422.367188 458.609375 422.878906 C 458.035156 423.246094 457.308594 422.820312 456.703125 422.671875 C 456.0625 422.683594 454.785156 422.359375 455.382812 421.492188 C 455.59375 420.851562 455.613281 420.148438 455.867188 419.511719 C 456.195312 418.828125 456.242188 418.082031 456.390625 417.355469 C 455.988281 416.492188 455.300781 417.640625 454.757812 417.738281 C 454.382812 418 452.972656 418.109375 453.714844 418.78125 C 454.355469 419.265625 453.863281 420.113281 453.75 420.726562 C 453.707031 421.582031 452.820312 421.789062 452.117188 421.59375 C 451.421875 421.5625 450.449219 421.042969 451.042969 420.277344 C 451.175781 419.636719 451.398438 419.007812 451.527344 418.363281 C 451.792969 417.589844 452.011719 416.851562 452.292969 416.070312 C 452.410156 415.382812 452.660156 414.730469 452.984375 414.125 C 453.003906 413.363281 453.515625 412.707031 453.507812 411.9375 C 453.453125 411.5625 453.285156 411.425781 453.054688 411.417969 Z M 449.0625 419.476562 C 449.152344 419.460938 449.21875 419.472656 449.304688 419.511719 C 449.582031 419.628906 449.589844 419.855469 449.304688 420.101562 C 449.179688 420.210938 449.039062 420.3125 448.992188 420.308594 C 448.472656 420.265625 448.320312 420.1875 448.296875 419.996094 C 448.28125 419.828125 448.332031 419.78125 448.679688 419.613281 C 448.851562 419.53125 448.972656 419.492188 449.0625 419.476562 Z M 449.0625 419.476562 "/>
<path style=" stroke:none;fill-rule:nonzero;fill:rgb(75.294119%,57.647061%,0%);fill-opacity:1;" d="M 447.910156 425.058594 C 447.359375 424.539062 447.449219 424.160156 448.261719 423.550781 C 448.613281 423.292969 448.824219 423.320312 449.222656 423.6875 C 449.835938 424.246094 449.859375 424.601562 449.320312 425.082031 C 449.050781 425.316406 448.933594 425.367188 448.621094 425.371094 C 448.296875 425.375 448.203125 425.332031 447.910156 425.058594 Z M 447.910156 425.058594 "/>
<path style=" stroke:none;fill-rule:nonzero;fill:rgb(75.294119%,57.647061%,0%);fill-opacity:1;" d="M 451.300781 426.078125 C 450.761719 425.945312 450.449219 425.402344 450.609375 424.871094 C 450.75 424.386719 450.832031 424.339844 451.542969 424.332031 C 452.335938 424.324219 452.492188 424.457031 452.496094 425.15625 C 452.503906 425.550781 452.472656 425.644531 452.277344 425.824219 C 452.046875 426.039062 451.605469 426.15625 451.300781 426.078125 Z M 451.300781 426.078125 "/>
<path style=" stroke:none;fill-rule:nonzero;fill:rgb(75.294119%,57.647061%,0%);fill-opacity:1;" d="M 550.3125 426.167969 C 550.058594 425.957031 550.007812 425.863281 550.003906 425.597656 C 550 425.140625 550.265625 424.804688 550.835938 424.546875 C 551.589844 424.203125 551.902344 424.25 552.1875 424.753906 C 552.566406 425.421875 552.546875 425.695312 552.09375 426.144531 C 551.84375 426.394531 551.792969 426.410156 551.21875 426.414062 C 550.65625 426.417969 550.59375 426.402344 550.3125 426.167969 Z M 550.3125 426.167969 "/>
<path style=" stroke:none;fill-rule:nonzero;fill:rgb(75.294119%,57.647061%,0%);fill-opacity:1;" d="M 455.800781 427.445312 C 455.394531 427.339844 455.1875 427.035156 455.179688 426.550781 C 455.175781 426.179688 455.203125 426.121094 455.460938 425.917969 C 455.628906 425.785156 455.894531 425.671875 456.105469 425.644531 C 456.402344 425.601562 456.511719 425.628906 456.75 425.796875 C 457.359375 426.226562 457.492188 426.652344 457.136719 427.066406 C 456.757812 427.503906 456.402344 427.609375 455.800781 427.445312 Z M 455.800781 427.445312 "/>
<path style=" stroke:none;fill-rule:nonzero;fill:rgb(75.294119%,57.647061%,0%);fill-opacity:1;" d="M 480.15625 428.535156 C 480.066406 428.425781 479.867188 428.359375 479.847656 428.21875 C 479.882812 427.601562 479.914062 426.976562 480.109375 426.386719 C 480.214844 425.804688 480.121094 425.195312 480.324219 424.628906 C 480.53125 423.601562 480.53125 422.539062 480.769531 421.511719 C 480.78125 420.984375 480.832031 420.457031 480.984375 419.949219 C 481.160156 419.148438 481 418.308594 481.238281 417.515625 C 481.210938 417.21875 481.554688 416.425781 481.855469 416.894531 C 482.292969 417.535156 482.867188 418.058594 483.433594 418.578125 C 483.917969 418.859375 483.472656 419.273438 483.136719 419.414062 C 482.675781 419.59375 482.5625 420.101562 482.597656 420.550781 C 482.53125 421.011719 482.347656 421.445312 482.328125 421.917969 C 482.230469 422.609375 482.25 423.3125 482.160156 424.003906 C 481.957031 424.679688 482.035156 425.402344 481.96875 426.101562 C 481.976562 426.542969 481.765625 426.945312 481.792969 427.390625 C 481.742188 427.84375 481.722656 428.386719 481.34375 428.695312 C 480.976562 428.878906 480.449219 428.847656 480.15625 428.535156 Z M 480.15625 428.535156 "/>
<path style=" stroke:none;fill-rule:nonzero;fill:rgb(75.294119%,57.647061%,0%);fill-opacity:1;" d="M 513.15625 417.640625 C 512.621094 418.046875 512.140625 418.527344 511.664062 418.996094 C 511.003906 419.496094 512.203125 419.785156 512.355469 420.210938 C 512.53125 420.863281 512.519531 421.558594 512.566406 422.226562 C 512.765625 422.839844 512.851562 423.492188 512.808594 424.136719 C 512.75 424.832031 511.847656 424.683594 511.453125 425.078125 C 510.90625 425.308594 510.691406 425.84375 510.273438 426.222656 C 510 426.757812 509.925781 427.417969 509.890625 428.027344 C 509.929688 428.527344 509.554688 429.085938 509.890625 429.523438 C 509.933594 429.585938 509.984375 429.667969 510.03125 429.730469 C 510.144531 429.894531 510.410156 429.765625 510.585938 429.800781 C 511.144531 429.769531 511.730469 429.855469 512.253906 429.628906 C 513.597656 429.394531 514.953125 429.375 516.316406 429.316406 C 517.148438 429.339844 517.949219 429.050781 518.78125 429.070312 C 519.433594 429.214844 519.726562 428.507812 519.71875 427.996094 C 519.347656 427.269531 519.667969 426.40625 519.371094 425.667969 C 519.109375 424.917969 519.210938 424.078125 519.09375 423.304688 C 519.078125 422.695312 518.304688 422.46875 517.914062 422.921875 C 517.53125 423.304688 516.921875 423.382812 516.628906 423.859375 C 516.296875 424.53125 517.324219 424.53125 517.496094 425.042969 C 517.691406 425.558594 517.628906 426.132812 517.667969 426.675781 C 517.796875 427.332031 517.082031 427.371094 516.628906 427.4375 C 516.03125 427.664062 515.195312 427.8125 514.855469 427.089844 C 514.644531 426.558594 514.671875 425.988281 514.613281 425.425781 C 514.597656 424.433594 514.359375 423.457031 514.300781 422.472656 C 514.246094 421.25 514.035156 420.039062 513.953125 418.824219 C 513.941406 418.316406 513.875 417.492188 513.15625 417.640625 Z M 512.460938 426.8125 L 512.808594 426.847656 L 512.878906 427.683594 L 512.425781 427.820312 C 512.1875 427.890625 511.976562 427.925781 511.976562 427.925781 C 511.972656 427.925781 511.878906 427.867188 511.765625 427.785156 C 511.523438 427.609375 511.585938 427.359375 511.90625 427.023438 C 512.085938 426.832031 512.171875 426.796875 512.460938 426.8125 Z M 512.460938 426.8125 "/>
<path style=" stroke:none;fill-rule:nonzero;fill:rgb(75.294119%,57.647061%,0%);fill-opacity:1;" d="M 479.167969 416.496094 C 478.746094 416.648438 478.207031 417.265625 477.777344 417.261719 C 476.800781 417.332031 476.9375 418.28125 477.640625 418.617188 C 477.730469 418.90625 477.644531 419.269531 477.671875 419.589844 C 477.808594 420.464844 477.257812 421.171875 477.359375 422.054688 C 477.3125 423.023438 477.019531 423.964844 476.980469 424.9375 C 476.703125 425.941406 476.703125 426.976562 476.527344 427.996094 C 476.410156 428.910156 475.75 428.589844 475.171875 428.34375 C 475.167969 427.945312 475.144531 427.558594 475.140625 427.164062 C 475.378906 426.253906 474.648438 425.988281 473.921875 425.875 C 473.160156 425.949219 472.785156 425.296875 472.953125 424.625 C 473.277344 424.234375 474.101562 424.34375 474.617188 424.277344 C 475.707031 424.503906 475.664062 423.042969 475.105469 422.542969 C 474.722656 421.835938 473.773438 421.53125 473.507812 420.804688 C 473.613281 419.839844 472.972656 418.878906 472.1875 418.40625 C 470.976562 418.324219 470.066406 419.367188 469.617188 420.386719 C 469.113281 420.535156 468.613281 420.683594 468.125 420.875 C 467.335938 421.070312 466.214844 422.4375 467.292969 422.957031 C 467.894531 423.125 469.734375 423.546875 468.921875 424.382812 C 468.464844 425.167969 467.589844 425.183594 466.804688 424.972656 C 466 424.972656 465.105469 424.582031 465.140625 423.652344 C 464.976562 422.820312 465 421.921875 464.617188 421.152344 C 464.453125 420.21875 463.394531 420.4375 463.332031 421.292969 C 462.519531 421.886719 462.628906 422.84375 463.195312 423.550781 C 463.546875 424.359375 463.199219 425.304688 462.847656 426.050781 C 462.636719 427.023438 461.5625 427.054688 460.796875 427.371094 C 460.421875 427.515625 458.988281 427.285156 459.515625 428.101562 C 460.351562 428.394531 461.351562 428.660156 462.222656 428.449219 C 463.136719 428.335938 463.929688 427.707031 464.375 426.917969 C 464.988281 426.296875 466.042969 426.621094 466.839844 426.605469 C 467.699219 426.605469 468.578125 427.210938 469.410156 426.816406 C 469.652344 426.1875 470.765625 425.152344 471.109375 426.222656 C 471.050781 427.183594 471.898438 427.699219 472.777344 427.578125 C 473.738281 427.523438 473.382812 428.257812 473.367188 428.828125 C 473.429688 429.867188 474.101562 430.414062 474.964844 430.84375 C 475.257812 430.925781 475.570312 430.898438 475.867188 430.84375 C 476.699219 430.582031 477.59375 430.210938 477.847656 429.28125 C 478.183594 428.523438 478.191406 427.667969 478.4375 426.882812 C 478.632812 425.628906 478.886719 424.371094 478.921875 423.097656 C 479.230469 421.945312 479.140625 420.722656 479.375 419.554688 C 479.523438 418.683594 479.632812 417.816406 479.722656 416.949219 C 479.621094 416.484375 479.421875 416.40625 479.167969 416.496094 Z M 471.632812 421.117188 C 471.800781 421.136719 471.894531 421.34375 471.910156 421.707031 C 471.925781 422.113281 472.140625 422.441406 472.394531 422.507812 C 472.597656 422.558594 472.582031 422.773438 472.359375 422.921875 C 472.234375 423.011719 472.003906 423.066406 471.597656 423.0625 C 470.953125 423.058594 470.558594 422.894531 470.207031 422.542969 L 470 422.332031 L 470.3125 422.125 C 470.46875 422.003906 470.753906 421.753906 470.9375 421.570312 C 471.253906 421.246094 471.464844 421.097656 471.632812 421.117188 Z M 471.632812 421.117188 "/>
<path style=" stroke:none;fill-rule:nonzero;fill:rgb(75.294119%,57.647061%,0%);fill-opacity:1;" d="M 545 412.363281 C 544.371094 412.390625 543.738281 412.492188 543.160156 412.640625 C 542.003906 412.566406 541.421875 413.78125 542.535156 414.375 C 543.203125 416.082031 544.246094 414.023438 545.3125 414.167969 C 546.910156 414.480469 547.042969 416.203125 547.292969 417.503906 C 547.382812 418.789062 547.753906 420.039062 548.125 421.253906 C 549.195312 422.445312 547.324219 423.191406 546.527344 422.261719 C 545.847656 421.523438 544.394531 420.617188 543.578125 421.636719 C 542.574219 422.0625 542.53125 423.40625 541.703125 423.789062 C 540.359375 424.199219 540.1875 422.546875 539.480469 421.84375 C 538.828125 420.929688 537.578125 420.847656 536.5625 420.527344 C 536.085938 419.558594 536.335938 417.917969 535.347656 417.261719 C 534.519531 417.597656 533 419.152344 534.269531 419.867188 C 535.511719 420.933594 533.730469 421.421875 533.160156 422.160156 C 532.347656 423.0625 532.21875 424.308594 532.082031 425.457031 C 530.683594 426.230469 530.410156 424.582031 530.242188 423.546875 C 530.132812 422.3125 529.09375 422.675781 528.367188 423.132812 C 527.308594 423.558594 526.78125 424.566406 526.042969 425.355469 C 525.953125 426.074219 526.082031 426.863281 526.078125 427.613281 C 526.316406 428.515625 527.414062 428.089844 528.089844 428.027344 C 529.179688 427.574219 529.621094 428.726562 528.75 429.382812 C 528.160156 430.136719 526.285156 429.742188 526.457031 430.949219 C 527.0625 431.019531 527.691406 430.996094 528.296875 430.949219 C 529.511719 430.617188 530.8125 429.761719 530.9375 428.410156 C 531.097656 427.234375 532.789062 427.449219 533.714844 427.195312 C 534.871094 426.863281 536.265625 426.777344 536.527344 428.238281 C 537.316406 429.066406 539.027344 430 539.894531 428.863281 C 540.777344 428.324219 541.203125 427.375 541.144531 426.363281 C 540.964844 425.488281 542.554688 425.457031 542.949219 425.945312 C 543.53125 426.898438 545.339844 426.617188 546.214844 426.082031 C 547.144531 425.398438 547.347656 424.1875 548.679688 424.171875 C 550.660156 423.578125 552.71875 423.238281 554.652344 422.503906 C 556.21875 422.164062 554.417969 421.175781 554.027344 420.59375 C 552.835938 420.003906 551.796875 422.421875 550.449219 421.21875 C 549.410156 420.425781 549.480469 418.910156 549.097656 417.746094 C 548.832031 416.238281 548.898438 414.496094 547.8125 413.300781 C 547.066406 412.503906 546.050781 412.3125 545 412.363281 Z M 537.429688 422.886719 C 537.570312 422.882812 537.726562 422.953125 537.984375 423.097656 C 538.472656 423.363281 538.820312 423.8125 538.820312 424.171875 C 538.820312 424.410156 538.757812 424.425781 538.402344 424.589844 C 538.183594 424.691406 537.933594 424.800781 537.847656 424.796875 C 537.644531 424.796875 537.152344 424.402344 537.152344 424.242188 C 537.152344 424.175781 537.089844 423.925781 537.015625 423.722656 C 536.882812 423.363281 536.902344 423.371094 537.082031 423.132812 C 537.199219 422.976562 537.289062 422.890625 537.429688 422.886719 Z M 544.6875 423.269531 C 545.101562 423.242188 545.347656 423.371094 545.519531 423.6875 C 545.722656 424.050781 545.585938 424.332031 545.070312 424.554688 C 544.84375 424.652344 544.617188 424.730469 544.582031 424.730469 C 544.550781 424.726562 544.363281 424.613281 544.167969 424.484375 C 543.867188 424.289062 543.824219 424.191406 543.820312 423.964844 C 543.816406 423.613281 544.207031 423.300781 544.6875 423.269531 Z M 534.757812 423.375 C 534.878906 423.355469 534.988281 423.417969 535.140625 423.546875 C 535.339844 423.71875 535.402344 423.859375 535.453125 424.207031 C 535.484375 424.449219 535.480469 424.765625 535.453125 424.902344 C 535.398438 425.152344 535.390625 425.140625 534.828125 425.144531 C 534.113281 425.152344 534.050781 425.074219 534.0625 424.417969 C 534.070312 423.996094 534.074219 423.882812 534.304688 423.652344 C 534.484375 423.472656 534.636719 423.394531 534.757812 423.375 Z M 528.644531 424.972656 C 528.867188 425.023438 529.078125 425.191406 529.132812 425.457031 C 529.203125 425.8125 529.140625 425.972656 528.855469 426.117188 C 528.605469 426.246094 528.039062 426.285156 527.882812 426.1875 C 527.832031 426.15625 527.726562 426.074219 527.671875 425.980469 C 527.597656 425.84375 527.613281 425.78125 527.707031 425.703125 C 527.777344 425.648438 527.847656 425.570312 527.847656 425.527344 C 527.847656 425.488281 527.921875 425.347656 528.019531 425.214844 C 528.183594 425 528.425781 424.921875 528.644531 424.972656 Z M 538.921875 426.292969 C 539.121094 426.292969 539.289062 426.359375 539.410156 426.464844 C 539.617188 426.644531 539.609375 426.910156 539.375 427.089844 C 539.226562 427.207031 538.40625 427.195312 538.125 427.089844 C 538 427.042969 537.953125 426.980469 537.953125 426.847656 C 537.949219 426.691406 537.992188 426.59375 538.265625 426.464844 C 538.492188 426.355469 538.726562 426.292969 538.921875 426.292969 Z M 538.921875 426.292969 "/>
<path style=" stroke:none;fill-rule:nonzero;fill:rgb(75.294119%,57.647061%,0%);fill-opacity:1;" d="M 519.84375 431.648438 C 519.738281 431.578125 519.582031 431.519531 519.738281 431.402344 C 519.929688 431.066406 520.316406 430.949219 520.65625 430.824219 C 521.265625 430.5625 521.789062 430.113281 522.179688 429.582031 C 522.238281 429.210938 522.652344 429.011719 522.652344 428.625 C 522.652344 428.097656 522.683594 427.554688 522.554688 427.039062 C 522.414062 426.566406 522.054688 426.203125 521.636719 425.957031 C 521.351562 425.730469 520.890625 425.671875 520.785156 425.273438 C 520.726562 424.890625 521.066406 424.601562 521.183594 424.261719 C 521.433594 423.792969 521.640625 423.300781 521.90625 422.84375 C 522.195312 422.523438 522.640625 422.828125 522.789062 423.136719 C 523 423.445312 523.183594 423.777344 523.289062 424.132812 C 523.625 424.503906 523.921875 424.9375 524.042969 425.425781 C 524.210938 425.769531 524.46875 426.09375 524.453125 426.5 C 524.453125 426.960938 524.714844 427.375 524.699219 427.839844 C 524.714844 428.464844 524.714844 429.113281 524.484375 429.703125 C 524.332031 430.027344 524.019531 430.222656 523.8125 430.515625 C 523.457031 430.84375 523.066406 431.160156 522.613281 431.335938 C 522.292969 431.4375 522.105469 431.808594 521.703125 431.71875 C 521.128906 431.726562 520.550781 431.804688 519.984375 431.714844 C 520.019531 431.773438 519.808594 431.613281 519.84375 431.648438 Z M 519.84375 431.648438 "/>
<path style=" stroke:none;fill-rule:nonzero;fill:rgb(75.294119%,57.647061%,0%);fill-opacity:1;" d="M 512.234375 432.148438 C 511.964844 431.871094 511.90625 431.753906 511.902344 431.480469 C 511.898438 431.207031 511.953125 431.097656 512.214844 430.832031 C 512.703125 430.339844 512.941406 430.328125 513.78125 430.753906 C 514.585938 431.160156 514.855469 431.195312 514.929688 430.90625 C 514.996094 430.628906 515.460938 430.375 515.898438 430.375 C 516.179688 430.371094 516.335938 430.425781 516.558594 430.601562 C 516.835938 430.816406 516.851562 430.851562 516.859375 431.355469 C 516.863281 431.871094 516.855469 431.890625 516.535156 432.171875 C 516.226562 432.445312 516.175781 432.460938 515.796875 432.421875 C 515.308594 432.375 515.019531 432.152344 514.9375 431.769531 C 514.882812 431.492188 514.785156 431.425781 514.710938 431.613281 C 514.6875 431.675781 514.566406 431.75 514.445312 431.78125 C 514.21875 431.835938 513.835938 432.078125 513.5625 432.335938 C 513.460938 432.433594 513.28125 432.480469 512.988281 432.480469 C 512.589844 432.484375 512.535156 432.460938 512.234375 432.148438 Z M 512.234375 432.148438 "/>
<path style=" stroke:none;fill-rule:nonzero;fill:rgb(75.294119%,57.647061%,0%);fill-opacity:1;" d="M 490.210938 422.253906 C 489.472656 422.261719 488.675781 422.886719 488.578125 423.609375 C 488.75 424.445312 489.441406 425.265625 488.996094 426.144531 C 489.304688 427.273438 488.148438 427.699219 487.363281 427.050781 C 486.890625 425.96875 486.648438 424.785156 485.941406 423.820312 C 485.046875 423.566406 484.65625 424.992188 484.03125 425.484375 C 484.339844 426.324219 485.246094 427.078125 485.351562 428.125 C 485.566406 429.144531 484.949219 430.273438 484.066406 430.800781 C 483.304688 431.527344 482.257812 431.269531 481.320312 431.425781 C 480.183594 432.09375 482.15625 432.335938 482.675781 432.363281 C 483.839844 432.484375 485.050781 432.328125 485.90625 431.460938 C 486.761719 431.054688 486.695312 429.574219 487.710938 429.410156 C 489.476562 429.332031 491.226562 429.683594 492.988281 429.722656 C 493.933594 429.949219 495.394531 429.613281 496.042969 430.316406 C 496.046875 431.546875 497.089844 432.304688 498.09375 432.78125 C 498.648438 432.9375 499.230469 432.25 499.792969 432.121094 C 500.867188 431.78125 500.539062 430.453125 501.183594 429.933594 C 503.015625 429.832031 504.867188 429.855469 506.703125 429.828125 C 507.054688 429.835938 507.15625 429.339844 507.398438 429.132812 C 507.359375 428.421875 507.332031 427.71875 507.226562 427.015625 C 506.871094 426.117188 507.28125 424.964844 506.632812 424.199219 C 505.710938 423.949219 504.929688 424.792969 503.996094 424.859375 C 502.964844 425.320312 502.101562 426.269531 502.050781 427.433594 C 501.441406 428.429688 500.464844 427.253906 500.800781 426.425781 C 500.761719 426.0625 500.878906 425.640625 500.765625 425.3125 C 500.203125 424.636719 499.21875 424.859375 498.441406 424.757812 C 497.308594 424.800781 496.203125 424.558594 495.070312 424.582031 C 494.078125 424.507812 493.046875 424.667969 492.085938 424.410156 C 490.941406 424.375 491.097656 423.253906 490.90625 422.464844 C 490.703125 422.3125 490.457031 422.253906 490.210938 422.253906 Z M 492.433594 426.355469 C 492.816406 426.363281 493.175781 426.414062 493.542969 426.457031 C 494.023438 426.539062 494.535156 426.292969 495.003906 426.457031 C 496.085938 426.644531 497.171875 426.601562 498.265625 426.703125 C 498.554688 426.699219 498.761719 426.90625 498.960938 427.085938 C 498.964844 427.84375 498.960938 428.617188 498.960938 429.378906 C 498.929688 429.664062 499.046875 430.042969 498.789062 430.246094 C 498.703125 430.300781 498.613281 430.363281 498.507812 430.382812 C 498.210938 430.308594 497.890625 430.109375 497.746094 429.828125 C 497.699219 429.429688 497.765625 429.046875 497.78125 428.648438 C 497.773438 428.542969 497.824219 428.382812 497.78125 428.300781 C 497.542969 428.132812 497.277344 428.023438 496.980469 428.023438 C 496.039062 427.988281 495.113281 427.921875 494.167969 427.882812 C 493.382812 427.832031 492.578125 427.949219 491.808594 427.746094 C 491.511719 427.636719 491.121094 427.671875 490.941406 427.363281 C 490.679688 427.058594 491.054688 426.699219 491.320312 426.5625 C 491.675781 426.402344 492.050781 426.347656 492.433594 426.355469 Z M 504.96875 426.632812 C 505.144531 426.628906 505.199219 426.6875 505.28125 427.015625 C 505.332031 427.222656 505.390625 427.480469 505.417969 427.570312 C 505.460938 427.703125 505.394531 427.746094 505.210938 427.8125 C 504.660156 428.019531 504.117188 428 503.925781 427.746094 C 503.839844 427.628906 503.941406 427.261719 504.101562 427.117188 C 504.421875 426.832031 504.777344 426.632812 504.96875 426.632812 Z M 504.96875 426.632812 "/>
<path style="fill-rule:nonzero;fill:rgb(100%,100%,100%);fill-opacity:1;stroke-width:1.1502;stroke-linecap:butt;stroke-linejoin:miter;stroke:rgb(75.294119%,57.647061%,0%);stroke-opacity:1;stroke-miterlimit:4;" d="M 449.978906 327.228964 C 482.621484 302.122376 479.823047 265.346233 479.823047 265.346233 C 478.961719 265.518413 478.142578 265.606259 477.28125 265.606259 C 470.436328 265.606259 454.102734 261.688296 450.295312 256.712659 C 446.213672 261.217438 429.525 265.606259 422.71875 265.606259 C 421.857422 265.606259 420.996094 265.518413 420.180469 265.346233 C 420.180469 265.346233 417.336328 302.122376 449.978906 327.228964 Z M 449.978906 327.228964 " transform="matrix(1.111111,0,0,1.111667,0,0)"/>
<path style="fill-rule:nonzero;fill:rgb(100%,100%,100%);fill-opacity:1;stroke-width:0.9157;stroke-linecap:butt;stroke-linejoin:miter;stroke:rgb(75.294119%,57.647061%,0%);stroke-opacity:1;stroke-miterlimit:4;" d="M 477.221484 268.04137 C 476.940234 268.058939 476.655469 268.065967 476.370703 268.065967 C 470.165625 268.065967 455.751562 264.882403 450.196875 260.11057 C 444.378516 264.51696 429.725391 268.065967 423.622266 268.065967 C 423.333984 268.065967 423.052734 268.030828 422.771484 267.981634 C 422.757422 269.369612 422.83125 270.813812 422.915625 272.124485 C 423.239062 277.022817 424.100391 281.942232 425.404687 286.675412 C 429.510937 301.570699 437.920312 314.227652 449.975391 323.831053 C 462.041016 314.220624 470.460937 301.549616 474.577734 286.643787 C 475.885547 281.914121 476.746875 276.994706 477.073828 272.09286 C 477.158203 270.810298 477.228516 269.401237 477.217969 268.04137 Z M 477.221484 268.04137 " transform="matrix(1.111111,0,0,1.111667,0,0)"/>
<path style=" stroke:none;fill-rule:nonzero;fill:rgb(75.294119%,57.647061%,0%);fill-opacity:1;" d="M 488.199219 294.625 C 481.675781 296.675781 474.613281 297.996094 470.699219 297.996094 C 470.382812 297.996094 470.074219 297.949219 469.761719 297.890625 C 469.746094 299.4375 469.839844 301.054688 469.9375 302.511719 C 470.296875 307.957031 471.230469 313.40625 472.679688 318.664062 C 475.75 329.808594 481.019531 339.820312 488.199219 348.4375 Z M 488.199219 294.625 "/>
<path style=" stroke:none;fill-rule:nonzero;fill:rgb(75.294119%,57.647061%,0%);fill-opacity:1;" d="M 511.109375 294.523438 L 511.109375 349.273438 C 518.660156 340.46875 524.148438 330.148438 527.328125 318.636719 C 528.777344 313.375 529.707031 307.929688 530.070312 302.480469 C 530.164062 301.054688 530.253906 299.480469 530.242188 297.964844 C 529.929688 297.984375 529.621094 298 529.304688 298 C 525.160156 298 517.726562 296.699219 511.113281 294.527344 Z M 511.109375 294.523438 "/>
<path style="fill-rule:nonzero;fill:rgb(100%,100%,100%);fill-opacity:1;stroke-width:1.2179;stroke-linecap:butt;stroke-linejoin:miter;stroke:rgb(75.294119%,57.647061%,0%);stroke-opacity:1;stroke-miterlimit:4;" d="M 462.311719 253.089861 C 462.976172 253.128514 461.408203 249.523285 461.408203 249.523285 C 463.173047 251.3259 469.838672 251.758105 469.838672 251.758105 C 465.837891 249.99063 461.840625 236.662528 462.308203 226.036591 C 462.740625 215.372001 460.782422 211.176443 459.214453 209.609258 C 457.214062 207.609867 450.783984 205.842391 446.547656 205.610476 C 444.157031 205.491004 444.550781 207.41309 444.550781 207.41309 C 440.117578 206.274597 435.687891 205.842391 433.6875 207.177661 C 431.806641 208.432112 431.412891 214.704367 432.7875 213.60804 C 436.120312 210.941014 439.020703 213.372611 441.021094 216.271552 C 442.785937 218.82262 442.666406 226.036591 440.117578 234.466361 C 437.452734 243.324822 430.157812 252.186797 430.157812 252.186797 C 434.119922 252.186797 439.688672 248.658874 439.688672 248.658874 L 438.352734 254.186188 C 442.550391 252.186797 445.883203 249.091079 445.883203 249.091079 L 449.880469 253.286638 C 451.212891 251.519162 453.88125 249.091079 453.88125 249.091079 C 453.88125 249.091079 457.214062 252.619003 462.308203 253.089861 Z M 462.311719 253.089861 " transform="matrix(1.111111,0,0,1.111667,0,0)"/>
<path style="fill:none;stroke-width:1.2704;stroke-linecap:butt;stroke-linejoin:miter;stroke:rgb(75.294119%,57.647061%,0%);stroke-opacity:1;stroke-miterlimit:4;" d="M 446.11875 227.568638 C 446.11875 227.568638 443.886328 243.999485 439.688672 248.662388 " transform="matrix(1.111111,0,0,1.111667,0,0)"/>
<path style="fill:none;stroke-width:1.2704;stroke-linecap:butt;stroke-linejoin:miter;stroke:rgb(75.294119%,57.647061%,0%);stroke-opacity:1;stroke-miterlimit:4;" d="M 449.648437 227.139946 C 449.648437 227.139946 448.787109 243.764055 445.886719 249.094593 " transform="matrix(1.111111,0,0,1.111667,0,0)"/>
<path style="fill:none;stroke-width:1.2704;stroke-linecap:butt;stroke-linejoin:miter;stroke:rgb(75.294119%,57.647061%,0%);stroke-opacity:1;stroke-miterlimit:4;" d="M 452.780859 227.811094 C 452.780859 227.811094 452.780859 246.002389 453.877734 249.098107 " transform="matrix(1.111111,0,0,1.111667,0,0)"/>
<path style="fill:none;stroke-width:1.2704;stroke-linecap:butt;stroke-linejoin:miter;stroke:rgb(75.294119%,57.647061%,0%);stroke-opacity:1;stroke-miterlimit:4;" d="M 456.739453 228.710645 C 456.739453 228.710645 457.642969 243.999485 461.404687 249.530313 " transform="matrix(1.111111,0,0,1.111667,0,0)"/>
<path style="fill-rule:nonzero;fill:rgb(75.294119%,57.647061%,0%);fill-opacity:1;stroke-width:0.3542;stroke-linecap:butt;stroke-linejoin:miter;stroke:rgb(75.294119%,57.647061%,0%);stroke-opacity:1;stroke-miterlimit:4;" d="M 442.079297 219.609726 C 441.882422 218.158499 441.530859 217.023519 441.021094 216.278579 C 439.020703 213.376124 436.120312 210.944528 432.7875 213.611554 C 432.7875 213.611554 433.926562 210.08363 436.355859 209.964159 C 438.236719 209.848201 442.511719 211.376734 446.276953 217.807112 C 446.276953 217.807112 443.492578 217.17813 442.824609 217.76846 C 441.569531 218.864786 442.079297 219.609726 442.079297 219.609726 Z M 442.079297 219.609726 " transform="matrix(1.111111,0,0,1.111667,0,0)"/>
<path style="fill-rule:nonzero;fill:rgb(75.294119%,57.647061%,0%);fill-opacity:1;stroke-width:0.3542;stroke-linecap:butt;stroke-linejoin:miter;stroke:rgb(75.294119%,57.647061%,0%);stroke-opacity:1;stroke-miterlimit:4;" d="M 432.439453 209.261385 C 432.713672 208.358321 433.146094 207.536076 433.694531 207.181175 C 435.694922 205.849419 440.124609 206.281625 444.554297 207.416604 C 444.554297 207.416604 444.164062 205.494518 446.554687 205.61399 C 450.7875 205.849419 457.217578 207.613381 459.217969 209.612772 C 459.689062 210.122283 460.2375 210.867223 460.708594 212.005716 L 460.63125 212.005716 C 459.650391 210.631793 456.866016 210.709099 456.198047 210.789918 C 455.139844 210.905875 454.475391 210.867223 453.062109 211.218609 C 452.394141 211.376734 451.378125 211.57351 450.826172 212.005716 C 450.397266 212.357103 450.042187 213.650206 449.377734 213.650206 C 448.319531 213.650206 448.396875 213.376124 448.122656 213.06339 C 447.771094 212.631184 447.574219 212.005716 447.219141 212.044368 C 446.122266 212.241145 444.357422 211.376734 442.125 209.612772 C 439.889062 207.84881 439.027734 207.416604 436.123828 207.613381 C 433.262109 207.84881 432.362109 209.454648 432.362109 209.454648 Z M 432.439453 209.261385 " transform="matrix(1.111111,0,0,1.111667,0,0)"/>
<path style=" stroke:none;fill-rule:nonzero;fill:rgb(100%,100%,100%);fill-opacity:1;" d="M 500 234.195312 C 500 234.917969 499.414062 235.503906 498.691406 235.503906 C 497.972656 235.503906 497.386719 234.917969 497.386719 234.195312 C 497.386719 233.476562 497.972656 232.890625 498.691406 232.890625 C 499.414062 232.890625 500 233.476562 500 234.195312 Z M 500 234.195312 "/>
</g>
</svg>
