<?xml version="1.0" encoding="UTF-8"?>
<svg xmlns="http://www.w3.org/2000/svg" xmlns:xlink="http://www.w3.org/1999/xlink" width="1000px" height="667px" viewBox="0 0 1000 667" version="1.1">
<g id="surface1">
<path style=" stroke:none;fill-rule:nonzero;fill:rgb(0%,0%,0%);fill-opacity:1;" d="M 0 0 L 1000 0 L 1000 333.5 L 0 333.5 Z M 0 0 "/>
<path style=" stroke:none;fill-rule:nonzero;fill:rgb(0%,47.843137%,23.921569%);fill-opacity:1;" d="M 0 333.5 L 1000 333.5 L 1000 667 L 0 667 Z M 0 333.5 "/>
<path style=" stroke:none;fill-rule:nonzero;fill:rgb(100%,100%,100%);fill-opacity:1;" d="M 0 222.332031 L 1000 222.332031 L 1000 444.667969 L 0 444.667969 Z M 0 222.332031 "/>
<path style=" stroke:none;fill-rule:nonzero;fill:rgb(76.862746%,6.666667%,10.588235%);fill-opacity:1;" d="M 0 0 L 333.332031 333.5 L 0 667 Z M 0 0 "/>
<path style=" stroke:none;fill-rule:nonzero;fill:rgb(76.862746%,6.666667%,10.588235%);fill-opacity:1;" d="M 566.667969 333.5 C 566.667969 382.617188 536.820312 422.433594 500 422.433594 C 463.179688 422.433594 433.332031 382.617188 433.332031 333.5 C 433.332031 284.382812 463.179688 244.566406 500 244.566406 C 536.820312 244.566406 566.667969 284.382812 566.667969 333.5 Z M 566.667969 333.5 "/>
<path style=" stroke:none;fill-rule:nonzero;fill:rgb(100%,100%,100%);fill-opacity:1;" d="M 591.667969 333.5 C 591.667969 382.617188 561.820312 422.433594 525 422.433594 C 488.179688 422.433594 458.332031 382.617188 458.332031 333.5 C 458.332031 284.382812 488.179688 244.566406 525 244.566406 C 561.820312 244.566406 591.667969 284.382812 591.667969 333.5 Z M 591.667969 333.5 "/>
<path style=" stroke:none;fill-rule:nonzero;fill:rgb(76.862746%,6.666667%,10.588235%);fill-opacity:1;" d="M 482.105469 387.351562 L 510.53125 360.242188 L 538.738281 387.761719 L 528.195312 343.316406 L 556.53125 316.035156 L 521.585938 315.679688 L 510.894531 271.300781 L 499.839844 315.519531 L 464.898438 315.375 L 493.007812 343.0625 Z M 482.105469 387.351562 "/>
</g>
</svg>
