<?xml version="1.0" encoding="UTF-8"?>
<svg xmlns="http://www.w3.org/2000/svg" xmlns:xlink="http://www.w3.org/1999/xlink" width="1000px" height="667px" viewBox="0 0 1000 667" version="1.1">
<g id="surface1">
<rect x="0" y="0" width="1000" height="667" style="fill:rgb(0%,20%,60.000002%);fill-opacity:1;stroke:none;"/>
<path style=" stroke:none;fill-rule:nonzero;fill:rgb(100%,80.000001%,0%);fill-opacity:1;" d="M 500 74.109375 L 488.554688 109.351562 L 506.167969 115.078125 Z M 500 74.109375 "/>
<path style=" stroke:none;fill-rule:nonzero;fill:rgb(100%,80.000001%,0%);fill-opacity:1;" d="M 500 74.109375 L 511.445312 109.351562 L 493.832031 115.078125 Z M 500 74.109375 "/>
<path style=" stroke:none;fill-rule:nonzero;fill:rgb(100%,80.000001%,0%);fill-opacity:1;" d="M 535.226562 99.714844 L 498.1875 99.714844 L 498.1875 118.242188 Z M 535.226562 99.714844 "/>
<path style=" stroke:none;fill-rule:nonzero;fill:rgb(100%,80.000001%,0%);fill-opacity:1;" d="M 535.226562 99.714844 L 505.261719 121.496094 L 494.378906 106.507812 Z M 535.226562 99.714844 "/>
<path style=" stroke:none;fill-rule:nonzero;fill:rgb(100%,80.000001%,0%);fill-opacity:1;" d="M 521.769531 141.148438 L 510.324219 105.90625 L 492.714844 111.628906 Z M 521.769531 141.148438 "/>
<path style=" stroke:none;fill-rule:nonzero;fill:rgb(100%,80.000001%,0%);fill-opacity:1;" d="M 521.769531 141.144531 L 491.808594 119.367188 L 502.691406 104.375 Z M 521.769531 141.144531 "/>
<path style=" stroke:none;fill-rule:nonzero;fill:rgb(100%,80.000001%,0%);fill-opacity:1;" d="M 464.773438 99.714844 L 501.8125 99.714844 L 501.8125 118.242188 Z M 464.773438 99.714844 "/>
<path style=" stroke:none;fill-rule:nonzero;fill:rgb(100%,80.000001%,0%);fill-opacity:1;" d="M 464.773438 99.714844 L 494.738281 121.496094 L 505.621094 106.507812 Z M 464.773438 99.714844 "/>
<path style=" stroke:none;fill-rule:nonzero;fill:rgb(100%,80.000001%,0%);fill-opacity:1;" d="M 478.230469 141.148438 L 489.675781 105.90625 L 507.285156 111.628906 Z M 478.230469 141.148438 "/>
<path style=" stroke:none;fill-rule:nonzero;fill:rgb(100%,80.000001%,0%);fill-opacity:1;" d="M 478.230469 141.144531 L 508.191406 119.367188 L 497.308594 104.375 Z M 478.230469 141.144531 "/>
<path style=" stroke:none;fill-rule:nonzero;fill:rgb(100%,80.000001%,0%);fill-opacity:1;" d="M 500 518.777344 L 488.554688 554.019531 L 506.167969 559.742188 Z M 500 518.777344 "/>
<path style=" stroke:none;fill-rule:nonzero;fill:rgb(100%,80.000001%,0%);fill-opacity:1;" d="M 500 518.777344 L 511.445312 554.019531 L 493.832031 559.742188 Z M 500 518.777344 "/>
<path style=" stroke:none;fill-rule:nonzero;fill:rgb(100%,80.000001%,0%);fill-opacity:1;" d="M 535.226562 544.382812 L 498.1875 544.382812 L 498.1875 562.910156 Z M 535.226562 544.382812 "/>
<path style=" stroke:none;fill-rule:nonzero;fill:rgb(100%,80.000001%,0%);fill-opacity:1;" d="M 535.226562 544.382812 L 505.261719 566.164062 L 494.378906 551.171875 Z M 535.226562 544.382812 "/>
<path style=" stroke:none;fill-rule:nonzero;fill:rgb(100%,80.000001%,0%);fill-opacity:1;" d="M 521.769531 585.8125 L 510.324219 550.570312 L 492.714844 556.296875 Z M 521.769531 585.8125 "/>
<path style=" stroke:none;fill-rule:nonzero;fill:rgb(100%,80.000001%,0%);fill-opacity:1;" d="M 521.769531 585.8125 L 491.808594 564.03125 L 502.691406 549.042969 Z M 521.769531 585.8125 "/>
<path style=" stroke:none;fill-rule:nonzero;fill:rgb(100%,80.000001%,0%);fill-opacity:1;" d="M 464.773438 544.382812 L 501.8125 544.382812 L 501.8125 562.910156 Z M 464.773438 544.382812 "/>
<path style=" stroke:none;fill-rule:nonzero;fill:rgb(100%,80.000001%,0%);fill-opacity:1;" d="M 464.773438 544.382812 L 494.738281 566.164062 L 505.621094 551.171875 Z M 464.773438 544.382812 "/>
<path style=" stroke:none;fill-rule:nonzero;fill:rgb(100%,80.000001%,0%);fill-opacity:1;" d="M 478.230469 585.8125 L 489.675781 550.570312 L 507.285156 556.296875 Z M 478.230469 585.8125 "/>
<path style=" stroke:none;fill-rule:nonzero;fill:rgb(100%,80.000001%,0%);fill-opacity:1;" d="M 478.230469 585.8125 L 508.191406 564.03125 L 497.308594 549.042969 Z M 478.230469 585.8125 "/>
<path style=" stroke:none;fill-rule:nonzero;fill:rgb(100%,80.000001%,0%);fill-opacity:1;" d="M 277.777344 296.441406 L 266.332031 331.683594 L 283.945312 337.410156 Z M 277.777344 296.441406 "/>
<path style=" stroke:none;fill-rule:nonzero;fill:rgb(100%,80.000001%,0%);fill-opacity:1;" d="M 277.777344 296.441406 L 289.222656 331.683594 L 271.609375 337.410156 Z M 277.777344 296.441406 "/>
<path style=" stroke:none;fill-rule:nonzero;fill:rgb(100%,80.000001%,0%);fill-opacity:1;" d="M 313.003906 322.050781 L 275.964844 322.050781 L 275.964844 340.578125 Z M 313.003906 322.050781 "/>
<path style=" stroke:none;fill-rule:nonzero;fill:rgb(100%,80.000001%,0%);fill-opacity:1;" d="M 313.003906 322.046875 L 283.039062 343.828125 L 272.15625 328.839844 Z M 313.003906 322.046875 "/>
<path style=" stroke:none;fill-rule:nonzero;fill:rgb(100%,80.000001%,0%);fill-opacity:1;" d="M 299.546875 363.480469 L 288.101562 328.238281 L 270.492188 333.964844 Z M 299.546875 363.480469 "/>
<path style=" stroke:none;fill-rule:nonzero;fill:rgb(100%,80.000001%,0%);fill-opacity:1;" d="M 299.546875 363.480469 L 269.585938 341.699219 L 280.46875 326.710938 Z M 299.546875 363.480469 "/>
<path style=" stroke:none;fill-rule:nonzero;fill:rgb(100%,80.000001%,0%);fill-opacity:1;" d="M 242.550781 322.050781 L 279.589844 322.050781 L 279.589844 340.578125 Z M 242.550781 322.050781 "/>
<path style=" stroke:none;fill-rule:nonzero;fill:rgb(100%,80.000001%,0%);fill-opacity:1;" d="M 242.550781 322.046875 L 272.515625 343.828125 L 283.402344 328.839844 Z M 242.550781 322.046875 "/>
<path style=" stroke:none;fill-rule:nonzero;fill:rgb(100%,80.000001%,0%);fill-opacity:1;" d="M 256.007812 363.480469 L 267.453125 328.238281 L 285.066406 333.964844 Z M 256.007812 363.480469 "/>
<path style=" stroke:none;fill-rule:nonzero;fill:rgb(100%,80.000001%,0%);fill-opacity:1;" d="M 256.007812 363.480469 L 285.96875 341.699219 L 275.085938 326.710938 Z M 256.007812 363.480469 "/>
<path style=" stroke:none;fill-rule:nonzero;fill:rgb(100%,80.000001%,0%);fill-opacity:1;" d="M 367.113281 170.984375 L 397.078125 149.203125 L 386.191406 134.214844 Z M 367.113281 170.984375 "/>
<path style=" stroke:none;fill-rule:nonzero;fill:rgb(100%,80.000001%,0%);fill-opacity:1;" d="M 367.113281 170.984375 L 378.558594 135.742188 L 396.171875 141.46875 Z M 367.113281 170.984375 "/>
<path style=" stroke:none;fill-rule:nonzero;fill:rgb(100%,80.000001%,0%);fill-opacity:1;" d="M 353.660156 129.550781 L 383.621094 151.332031 L 394.507812 136.34375 Z M 353.660156 129.550781 "/>
<path style=" stroke:none;fill-rule:nonzero;fill:rgb(100%,80.000001%,0%);fill-opacity:1;" d="M 353.660156 129.554688 L 390.695312 129.554688 L 390.695312 148.082031 Z M 353.660156 129.554688 "/>
<path style=" stroke:none;fill-rule:nonzero;fill:rgb(100%,80.000001%,0%);fill-opacity:1;" d="M 388.886719 103.945312 L 377.441406 139.1875 L 395.050781 144.914062 Z M 388.886719 103.945312 "/>
<path style=" stroke:none;fill-rule:nonzero;fill:rgb(100%,80.000001%,0%);fill-opacity:1;" d="M 388.882812 103.945312 L 400.328125 139.1875 L 382.71875 144.914062 Z M 388.882812 103.945312 "/>
<path style=" stroke:none;fill-rule:nonzero;fill:rgb(100%,80.000001%,0%);fill-opacity:1;" d="M 410.65625 170.984375 L 380.691406 149.203125 L 391.578125 134.214844 Z M 410.65625 170.984375 "/>
<path style=" stroke:none;fill-rule:nonzero;fill:rgb(100%,80.000001%,0%);fill-opacity:1;" d="M 410.65625 170.984375 L 399.210938 135.742188 L 381.597656 141.46875 Z M 410.65625 170.984375 "/>
<path style=" stroke:none;fill-rule:nonzero;fill:rgb(100%,80.000001%,0%);fill-opacity:1;" d="M 424.109375 129.550781 L 394.148438 151.332031 L 383.261719 136.34375 Z M 424.109375 129.550781 "/>
<path style=" stroke:none;fill-rule:nonzero;fill:rgb(100%,80.000001%,0%);fill-opacity:1;" d="M 424.109375 129.554688 L 387.074219 129.554688 L 387.074219 148.082031 Z M 424.109375 129.554688 "/>
<path style=" stroke:none;fill-rule:nonzero;fill:rgb(100%,80.000001%,0%);fill-opacity:1;" d="M 329.371094 252.308594 L 317.925781 217.066406 L 300.3125 222.792969 Z M 329.371094 252.308594 "/>
<path style=" stroke:none;fill-rule:nonzero;fill:rgb(100%,80.000001%,0%);fill-opacity:1;" d="M 329.371094 252.308594 L 299.40625 230.527344 L 310.292969 215.539062 Z M 329.371094 252.308594 "/>
<path style=" stroke:none;fill-rule:nonzero;fill:rgb(100%,80.000001%,0%);fill-opacity:1;" d="M 285.828125 252.308594 L 315.792969 230.527344 L 304.90625 215.539062 Z M 285.828125 252.308594 "/>
<path style=" stroke:none;fill-rule:nonzero;fill:rgb(100%,80.000001%,0%);fill-opacity:1;" d="M 285.828125 252.308594 L 297.273438 217.066406 L 314.886719 222.792969 Z M 285.828125 252.308594 "/>
<path style=" stroke:none;fill-rule:nonzero;fill:rgb(100%,80.000001%,0%);fill-opacity:1;" d="M 272.375 210.878906 L 302.339844 232.660156 L 313.222656 217.667969 Z M 272.375 210.878906 "/>
<path style=" stroke:none;fill-rule:nonzero;fill:rgb(100%,80.000001%,0%);fill-opacity:1;" d="M 272.375 210.878906 L 309.410156 210.878906 L 309.410156 229.40625 Z M 272.375 210.878906 "/>
<path style=" stroke:none;fill-rule:nonzero;fill:rgb(100%,80.000001%,0%);fill-opacity:1;" d="M 342.824219 210.878906 L 312.863281 232.660156 L 301.976562 217.667969 Z M 342.824219 210.878906 "/>
<path style=" stroke:none;fill-rule:nonzero;fill:rgb(100%,80.000001%,0%);fill-opacity:1;" d="M 342.824219 210.878906 L 305.789062 210.878906 L 305.789062 229.40625 Z M 342.824219 210.878906 "/>
<path style=" stroke:none;fill-rule:nonzero;fill:rgb(100%,80.000001%,0%);fill-opacity:1;" d="M 307.601562 185.273438 L 319.046875 220.515625 L 301.433594 226.238281 Z M 307.601562 185.273438 "/>
<path style=" stroke:none;fill-rule:nonzero;fill:rgb(100%,80.000001%,0%);fill-opacity:1;" d="M 307.601562 185.273438 L 296.15625 220.515625 L 313.765625 226.238281 Z M 307.601562 185.273438 "/>
<path style=" stroke:none;fill-rule:nonzero;fill:rgb(100%,80.000001%,0%);fill-opacity:1;" d="M 342.765625 433.226562 L 305.726562 433.226562 L 305.726562 451.753906 Z M 342.765625 433.226562 "/>
<path style=" stroke:none;fill-rule:nonzero;fill:rgb(100%,80.000001%,0%);fill-opacity:1;" d="M 342.765625 433.226562 L 312.800781 455.007812 L 301.917969 440.019531 Z M 342.765625 433.226562 "/>
<path style=" stroke:none;fill-rule:nonzero;fill:rgb(100%,80.000001%,0%);fill-opacity:1;" d="M 329.308594 474.65625 L 317.863281 439.414062 L 300.253906 445.140625 Z M 329.308594 474.65625 "/>
<path style=" stroke:none;fill-rule:nonzero;fill:rgb(100%,80.000001%,0%);fill-opacity:1;" d="M 329.308594 474.65625 L 299.347656 452.875 L 310.230469 437.886719 Z M 329.308594 474.65625 "/>
<path style=" stroke:none;fill-rule:nonzero;fill:rgb(100%,80.000001%,0%);fill-opacity:1;" d="M 285.769531 474.65625 L 315.730469 452.875 L 304.847656 437.886719 Z M 285.769531 474.65625 "/>
<path style=" stroke:none;fill-rule:nonzero;fill:rgb(100%,80.000001%,0%);fill-opacity:1;" d="M 285.769531 474.65625 L 297.214844 439.414062 L 314.824219 445.140625 Z M 285.769531 474.65625 "/>
<path style=" stroke:none;fill-rule:nonzero;fill:rgb(100%,80.000001%,0%);fill-opacity:1;" d="M 307.539062 407.621094 L 318.984375 442.863281 L 301.371094 448.589844 Z M 307.539062 407.621094 "/>
<path style=" stroke:none;fill-rule:nonzero;fill:rgb(100%,80.000001%,0%);fill-opacity:1;" d="M 307.539062 407.621094 L 296.09375 442.863281 L 313.707031 448.589844 Z M 307.539062 407.621094 "/>
<path style=" stroke:none;fill-rule:nonzero;fill:rgb(100%,80.000001%,0%);fill-opacity:1;" d="M 272.3125 433.226562 L 309.351562 433.226562 L 309.351562 451.753906 Z M 272.3125 433.226562 "/>
<path style=" stroke:none;fill-rule:nonzero;fill:rgb(100%,80.000001%,0%);fill-opacity:1;" d="M 272.3125 433.226562 L 302.277344 455.007812 L 313.160156 440.019531 Z M 272.3125 433.226562 "/>
<path style=" stroke:none;fill-rule:nonzero;fill:rgb(100%,80.000001%,0%);fill-opacity:1;" d="M 424.128906 514.609375 L 387.09375 514.609375 L 387.09375 533.136719 Z M 424.128906 514.609375 "/>
<path style=" stroke:none;fill-rule:nonzero;fill:rgb(100%,80.000001%,0%);fill-opacity:1;" d="M 424.128906 514.609375 L 394.167969 536.390625 L 383.28125 521.402344 Z M 424.128906 514.609375 "/>
<path style=" stroke:none;fill-rule:nonzero;fill:rgb(100%,80.000001%,0%);fill-opacity:1;" d="M 410.675781 556.039062 L 399.230469 520.800781 L 381.617188 526.523438 Z M 410.675781 556.039062 "/>
<path style=" stroke:none;fill-rule:nonzero;fill:rgb(100%,80.000001%,0%);fill-opacity:1;" d="M 410.675781 556.039062 L 380.710938 534.261719 L 391.597656 519.269531 Z M 410.675781 556.039062 "/>
<path style=" stroke:none;fill-rule:nonzero;fill:rgb(100%,80.000001%,0%);fill-opacity:1;" d="M 367.132812 556.039062 L 397.097656 534.261719 L 386.210938 519.269531 Z M 367.132812 556.039062 "/>
<path style=" stroke:none;fill-rule:nonzero;fill:rgb(100%,80.000001%,0%);fill-opacity:1;" d="M 367.132812 556.039062 L 378.578125 520.800781 L 396.191406 526.523438 Z M 367.132812 556.039062 "/>
<path style=" stroke:none;fill-rule:nonzero;fill:rgb(100%,80.000001%,0%);fill-opacity:1;" d="M 388.90625 489.003906 L 400.351562 524.246094 L 382.738281 529.972656 Z M 388.90625 489.003906 "/>
<path style=" stroke:none;fill-rule:nonzero;fill:rgb(100%,80.000001%,0%);fill-opacity:1;" d="M 388.90625 489.003906 L 377.460938 524.246094 L 395.074219 529.972656 Z M 388.90625 489.003906 "/>
<path style=" stroke:none;fill-rule:nonzero;fill:rgb(100%,80.000001%,0%);fill-opacity:1;" d="M 353.679688 514.609375 L 390.714844 514.609375 L 390.714844 533.136719 Z M 353.679688 514.609375 "/>
<path style=" stroke:none;fill-rule:nonzero;fill:rgb(100%,80.000001%,0%);fill-opacity:1;" d="M 353.679688 514.609375 L 383.644531 536.390625 L 394.527344 521.402344 Z M 353.679688 514.609375 "/>
<path style=" stroke:none;fill-rule:nonzero;fill:rgb(100%,80.000001%,0%);fill-opacity:1;" d="M 722.222656 296.441406 L 733.667969 331.683594 L 716.054688 337.410156 Z M 722.222656 296.441406 "/>
<path style=" stroke:none;fill-rule:nonzero;fill:rgb(100%,80.000001%,0%);fill-opacity:1;" d="M 722.222656 296.441406 L 710.777344 331.683594 L 728.390625 337.410156 Z M 722.222656 296.441406 "/>
<path style=" stroke:none;fill-rule:nonzero;fill:rgb(100%,80.000001%,0%);fill-opacity:1;" d="M 686.996094 322.050781 L 724.035156 322.050781 L 724.035156 340.578125 Z M 686.996094 322.050781 "/>
<path style=" stroke:none;fill-rule:nonzero;fill:rgb(100%,80.000001%,0%);fill-opacity:1;" d="M 686.996094 322.046875 L 716.960938 343.828125 L 727.84375 328.839844 Z M 686.996094 322.046875 "/>
<path style=" stroke:none;fill-rule:nonzero;fill:rgb(100%,80.000001%,0%);fill-opacity:1;" d="M 700.453125 363.480469 L 711.898438 328.238281 L 729.507812 333.964844 Z M 700.453125 363.480469 "/>
<path style=" stroke:none;fill-rule:nonzero;fill:rgb(100%,80.000001%,0%);fill-opacity:1;" d="M 700.453125 363.480469 L 730.414062 341.699219 L 719.53125 326.710938 Z M 700.453125 363.480469 "/>
<path style=" stroke:none;fill-rule:nonzero;fill:rgb(100%,80.000001%,0%);fill-opacity:1;" d="M 757.449219 322.050781 L 720.410156 322.050781 L 720.410156 340.578125 Z M 757.449219 322.050781 "/>
<path style=" stroke:none;fill-rule:nonzero;fill:rgb(100%,80.000001%,0%);fill-opacity:1;" d="M 757.449219 322.046875 L 727.484375 343.828125 L 716.597656 328.839844 Z M 757.449219 322.046875 "/>
<path style=" stroke:none;fill-rule:nonzero;fill:rgb(100%,80.000001%,0%);fill-opacity:1;" d="M 743.992188 363.480469 L 732.546875 328.238281 L 714.933594 333.964844 Z M 743.992188 363.480469 "/>
<path style=" stroke:none;fill-rule:nonzero;fill:rgb(100%,80.000001%,0%);fill-opacity:1;" d="M 743.992188 363.480469 L 714.03125 341.699219 L 724.914062 326.710938 Z M 743.992188 363.480469 "/>
<path style=" stroke:none;fill-rule:nonzero;fill:rgb(100%,80.000001%,0%);fill-opacity:1;" d="M 632.886719 170.984375 L 602.921875 149.203125 L 613.808594 134.214844 Z M 632.886719 170.984375 "/>
<path style=" stroke:none;fill-rule:nonzero;fill:rgb(100%,80.000001%,0%);fill-opacity:1;" d="M 632.886719 170.984375 L 621.441406 135.742188 L 603.828125 141.46875 Z M 632.886719 170.984375 "/>
<path style=" stroke:none;fill-rule:nonzero;fill:rgb(100%,80.000001%,0%);fill-opacity:1;" d="M 646.339844 129.550781 L 616.378906 151.332031 L 605.492188 136.34375 Z M 646.339844 129.550781 "/>
<path style=" stroke:none;fill-rule:nonzero;fill:rgb(100%,80.000001%,0%);fill-opacity:1;" d="M 646.339844 129.554688 L 609.304688 129.554688 L 609.304688 148.082031 Z M 646.339844 129.554688 "/>
<path style=" stroke:none;fill-rule:nonzero;fill:rgb(100%,80.000001%,0%);fill-opacity:1;" d="M 611.113281 103.945312 L 622.558594 139.1875 L 604.949219 144.914062 Z M 611.113281 103.945312 "/>
<path style=" stroke:none;fill-rule:nonzero;fill:rgb(100%,80.000001%,0%);fill-opacity:1;" d="M 611.117188 103.945312 L 599.671875 139.1875 L 617.28125 144.914062 Z M 611.117188 103.945312 "/>
<path style=" stroke:none;fill-rule:nonzero;fill:rgb(100%,80.000001%,0%);fill-opacity:1;" d="M 589.34375 170.984375 L 619.308594 149.203125 L 608.421875 134.214844 Z M 589.34375 170.984375 "/>
<path style=" stroke:none;fill-rule:nonzero;fill:rgb(100%,80.000001%,0%);fill-opacity:1;" d="M 589.34375 170.984375 L 600.789062 135.742188 L 618.402344 141.46875 Z M 589.34375 170.984375 "/>
<path style=" stroke:none;fill-rule:nonzero;fill:rgb(100%,80.000001%,0%);fill-opacity:1;" d="M 575.890625 129.550781 L 605.851562 151.332031 L 616.738281 136.34375 Z M 575.890625 129.550781 "/>
<path style=" stroke:none;fill-rule:nonzero;fill:rgb(100%,80.000001%,0%);fill-opacity:1;" d="M 575.890625 129.554688 L 612.925781 129.554688 L 612.925781 148.082031 Z M 575.890625 129.554688 "/>
<path style=" stroke:none;fill-rule:nonzero;fill:rgb(100%,80.000001%,0%);fill-opacity:1;" d="M 670.628906 252.308594 L 682.074219 217.066406 L 699.6875 222.792969 Z M 670.628906 252.308594 "/>
<path style=" stroke:none;fill-rule:nonzero;fill:rgb(100%,80.000001%,0%);fill-opacity:1;" d="M 670.628906 252.308594 L 700.59375 230.527344 L 689.707031 215.539062 Z M 670.628906 252.308594 "/>
<path style=" stroke:none;fill-rule:nonzero;fill:rgb(100%,80.000001%,0%);fill-opacity:1;" d="M 714.171875 252.308594 L 684.207031 230.527344 L 695.09375 215.539062 Z M 714.171875 252.308594 "/>
<path style=" stroke:none;fill-rule:nonzero;fill:rgb(100%,80.000001%,0%);fill-opacity:1;" d="M 714.171875 252.308594 L 702.726562 217.066406 L 685.113281 222.792969 Z M 714.171875 252.308594 "/>
<path style=" stroke:none;fill-rule:nonzero;fill:rgb(100%,80.000001%,0%);fill-opacity:1;" d="M 727.625 210.878906 L 697.660156 232.660156 L 686.777344 217.667969 Z M 727.625 210.878906 "/>
<path style=" stroke:none;fill-rule:nonzero;fill:rgb(100%,80.000001%,0%);fill-opacity:1;" d="M 727.625 210.878906 L 690.589844 210.878906 L 690.589844 229.40625 Z M 727.625 210.878906 "/>
<path style=" stroke:none;fill-rule:nonzero;fill:rgb(100%,80.000001%,0%);fill-opacity:1;" d="M 657.175781 210.878906 L 687.136719 232.660156 L 698.023438 217.667969 Z M 657.175781 210.878906 "/>
<path style=" stroke:none;fill-rule:nonzero;fill:rgb(100%,80.000001%,0%);fill-opacity:1;" d="M 657.175781 210.878906 L 694.210938 210.878906 L 694.210938 229.40625 Z M 657.175781 210.878906 "/>
<path style=" stroke:none;fill-rule:nonzero;fill:rgb(100%,80.000001%,0%);fill-opacity:1;" d="M 692.398438 185.273438 L 680.953125 220.515625 L 698.566406 226.238281 Z M 692.398438 185.273438 "/>
<path style=" stroke:none;fill-rule:nonzero;fill:rgb(100%,80.000001%,0%);fill-opacity:1;" d="M 692.398438 185.273438 L 703.84375 220.515625 L 686.234375 226.238281 Z M 692.398438 185.273438 "/>
<path style=" stroke:none;fill-rule:nonzero;fill:rgb(100%,80.000001%,0%);fill-opacity:1;" d="M 657.234375 433.226562 L 694.273438 433.226562 L 694.273438 451.753906 Z M 657.234375 433.226562 "/>
<path style=" stroke:none;fill-rule:nonzero;fill:rgb(100%,80.000001%,0%);fill-opacity:1;" d="M 657.234375 433.226562 L 687.199219 455.007812 L 698.082031 440.019531 Z M 657.234375 433.226562 "/>
<path style=" stroke:none;fill-rule:nonzero;fill:rgb(100%,80.000001%,0%);fill-opacity:1;" d="M 670.691406 474.65625 L 682.136719 439.414062 L 699.746094 445.140625 Z M 670.691406 474.65625 "/>
<path style=" stroke:none;fill-rule:nonzero;fill:rgb(100%,80.000001%,0%);fill-opacity:1;" d="M 670.691406 474.65625 L 700.652344 452.875 L 689.769531 437.886719 Z M 670.691406 474.65625 "/>
<path style=" stroke:none;fill-rule:nonzero;fill:rgb(100%,80.000001%,0%);fill-opacity:1;" d="M 714.230469 474.65625 L 684.269531 452.875 L 695.152344 437.886719 Z M 714.230469 474.65625 "/>
<path style=" stroke:none;fill-rule:nonzero;fill:rgb(100%,80.000001%,0%);fill-opacity:1;" d="M 714.230469 474.65625 L 702.785156 439.414062 L 685.175781 445.140625 Z M 714.230469 474.65625 "/>
<path style=" stroke:none;fill-rule:nonzero;fill:rgb(100%,80.000001%,0%);fill-opacity:1;" d="M 692.460938 407.621094 L 681.015625 442.863281 L 698.628906 448.589844 Z M 692.460938 407.621094 "/>
<path style=" stroke:none;fill-rule:nonzero;fill:rgb(100%,80.000001%,0%);fill-opacity:1;" d="M 692.460938 407.621094 L 703.90625 442.863281 L 686.292969 448.589844 Z M 692.460938 407.621094 "/>
<path style=" stroke:none;fill-rule:nonzero;fill:rgb(100%,80.000001%,0%);fill-opacity:1;" d="M 727.6875 433.226562 L 690.648438 433.226562 L 690.648438 451.753906 Z M 727.6875 433.226562 "/>
<path style=" stroke:none;fill-rule:nonzero;fill:rgb(100%,80.000001%,0%);fill-opacity:1;" d="M 727.6875 433.226562 L 697.722656 455.007812 L 686.839844 440.019531 Z M 727.6875 433.226562 "/>
<path style=" stroke:none;fill-rule:nonzero;fill:rgb(100%,80.000001%,0%);fill-opacity:1;" d="M 575.871094 514.609375 L 612.90625 514.609375 L 612.90625 533.136719 Z M 575.871094 514.609375 "/>
<path style=" stroke:none;fill-rule:nonzero;fill:rgb(100%,80.000001%,0%);fill-opacity:1;" d="M 575.871094 514.609375 L 605.832031 536.390625 L 616.71875 521.402344 Z M 575.871094 514.609375 "/>
<path style=" stroke:none;fill-rule:nonzero;fill:rgb(100%,80.000001%,0%);fill-opacity:1;" d="M 589.324219 556.039062 L 600.769531 520.800781 L 618.382812 526.523438 Z M 589.324219 556.039062 "/>
<path style=" stroke:none;fill-rule:nonzero;fill:rgb(100%,80.000001%,0%);fill-opacity:1;" d="M 589.324219 556.039062 L 619.289062 534.261719 L 608.402344 519.269531 Z M 589.324219 556.039062 "/>
<path style=" stroke:none;fill-rule:nonzero;fill:rgb(100%,80.000001%,0%);fill-opacity:1;" d="M 632.867188 556.039062 L 602.902344 534.261719 L 613.789062 519.269531 Z M 632.867188 556.039062 "/>
<path style=" stroke:none;fill-rule:nonzero;fill:rgb(100%,80.000001%,0%);fill-opacity:1;" d="M 632.867188 556.039062 L 621.421875 520.800781 L 603.808594 526.523438 Z M 632.867188 556.039062 "/>
<path style=" stroke:none;fill-rule:nonzero;fill:rgb(100%,80.000001%,0%);fill-opacity:1;" d="M 611.09375 489.003906 L 599.648438 524.246094 L 617.261719 529.972656 Z M 611.09375 489.003906 "/>
<path style=" stroke:none;fill-rule:nonzero;fill:rgb(100%,80.000001%,0%);fill-opacity:1;" d="M 611.09375 489.003906 L 622.539062 524.246094 L 604.925781 529.972656 Z M 611.09375 489.003906 "/>
<path style=" stroke:none;fill-rule:nonzero;fill:rgb(100%,80.000001%,0%);fill-opacity:1;" d="M 646.320312 514.609375 L 609.285156 514.609375 L 609.285156 533.136719 Z M 646.320312 514.609375 "/>
<path style=" stroke:none;fill-rule:nonzero;fill:rgb(100%,80.000001%,0%);fill-opacity:1;" d="M 646.320312 514.609375 L 616.355469 536.390625 L 605.472656 521.402344 Z M 646.320312 514.609375 "/>
</g>
</svg>
