<?xml version="1.0" encoding="UTF-8"?>
<svg xmlns="http://www.w3.org/2000/svg" xmlns:xlink="http://www.w3.org/1999/xlink" width="1000px" height="667px" viewBox="0 0 1000 667" version="1.1">
<g id="surface1">
<path style=" stroke:none;fill-rule:nonzero;fill:rgb(0%,67.058825%,22.352941%);fill-opacity:1;" d="M 0 333.5 L 1000 333.5 L 1000 667 L 0 667 Z M 0 333.5 "/>
<path style=" stroke:none;fill-rule:nonzero;fill:rgb(100%,100%,100%);fill-opacity:1;" d="M 0 0 L 1000 0 L 1000 333.5 L 0 333.5 Z M 0 0 "/>
<path style="fill-rule:nonzero;fill:rgb(82.352942%,6.27451%,20.392157%);fill-opacity:1;stroke-width:1.8;stroke-linecap:butt;stroke-linejoin:miter;stroke:rgb(0%,0%,0%);stroke-opacity:1;stroke-miterlimit:4;" d="M 541.560391 28.562585 C 541.550664 28.583001 541.54418 28.606333 541.531211 28.623832 C 541.563633 28.606333 541.592812 28.580084 541.625234 28.562585 Z M 541.531211 28.623832 C 489.289844 57.511868 442.527773 87.569426 396.563281 125.874874 C 374.503437 145.144259 380.728437 160.50552 379.875742 177.812093 C 380.585781 189.428555 377.363047 200.237142 370.220508 206.74971 C 353.870156 210.057033 337.503594 213.381855 321.156484 216.689178 C 319.590508 212.162754 318.034258 207.645079 316.468281 203.124488 C 317.96293 196.186109 323.701602 192.773792 335.781992 197.125226 C 336.731953 188.200704 329.55375 184.569648 321.156484 181.469397 C 318.270937 179.223684 314.68832 177.49711 315.155195 169.780023 C 313.744844 152.313042 341.770312 171.031206 342.029687 171.031206 C 342.292305 171.031206 341.095937 153.403817 328.217969 149.874839 C 321.195391 147.389972 318.225547 139.982036 320.906836 134.498996 C 326.525547 123.290846 337.101562 135.376866 345.187578 135.811426 C 344.882812 128.496817 342.801328 123.282097 336.498516 117.376163 C 333.107187 115.287941 324.778008 113.718859 324.560781 110.219046 C 324.385703 105.46805 332.371211 103.435243 343.342773 104.750589 C 341.057031 98.089279 333.67457 93.781593 323.529766 90.655094 C 321.532578 87.178613 319.532148 83.699216 317.531719 80.219819 C 314.691562 74.958434 313.417383 74.818442 319.999023 64.843976 C 325.916016 61.017514 333.775078 55.607387 339.688828 51.780925 C 337.51332 51.521356 335.331328 51.261786 333.15582 50.9993 C 334.024727 43.868432 334.125234 41.468144 335.781992 29.624195 C 329.433789 38.297897 321.506641 36.746314 314.373828 40.313206 C 314.373828 40.313206 294.045312 43.92093 287.499336 52.56255 C 287.239961 52.56255 236.376523 49.969772 236.376523 49.969772 C 225.534648 51.477608 216.274961 54.55161 214.469062 65.094796 C 189.676055 67.597162 163.712617 65.38353 144.810664 89.094761 C 157.682148 88.48521 168.94875 85.419957 183.405664 87.280691 C 183.405664 87.280691 195.725977 87.514012 198.28082 100.56248 C 198.543437 101.084535 202.469727 101.093285 202.469727 101.093285 C 204.035703 102.312386 205.588711 103.534404 207.154687 104.750589 C 207.764219 103.096927 208.360781 101.4316 208.970312 99.780855 C 210.361211 100.73747 211.765078 101.699919 213.155977 102.656534 C 213.59043 100.830799 214.034609 99.013813 214.469062 97.188077 C 215.859961 98.144693 217.231406 99.107141 218.625547 100.06084 C 218.713086 97.88804 218.820078 95.70649 218.907617 93.530773 C 220.732969 94.834453 222.548594 96.1323 224.373945 97.438897 L 224.373945 88.843941 C 224.373945 88.843941 244.566289 88.797276 250.719961 101.62409 C 250.982578 101.886576 194.053008 112.088529 139.062266 107.375448 C 144.366484 104.765171 149.664219 102.140312 154.968437 99.530035 C 134.91875 95.45567 116.068672 91.769201 98.376055 77.874945 C 105.051719 103.012349 139.555078 132.539101 146.626289 132.404941 C 146.626289 132.667427 139.843633 120.155597 139.843633 120.155597 C 159.760391 121.024717 179.680391 121.882172 199.593906 122.751292 C 201.769414 129.360104 200.806484 136.770958 206.123672 142.595229 C 206.123672 142.595229 202.826367 153.517561 210.156953 157.968156 C 210.41957 158.490211 218.907617 135.811426 218.907617 135.811426 C 218.907617 135.811426 221.504609 141.912766 224.124297 145.969632 C 227.920898 126.461093 249.157227 123.282097 249.157227 123.282097 C 249.157227 123.282097 253.592539 133.457802 253.592539 133.720288 C 246.959023 134.67982 238.704414 148.203679 243.155937 155.626198 C 238.704414 155.710777 230.806445 168.811742 233.251055 175.968859 C 229.50957 179.693243 220.191523 184.654227 222.561562 200.248809 C 215.227734 201.820808 210.886445 215.239672 213.155977 229.469327 C 201.80832 240.032928 204.593359 259.424806 214.718711 267.281886 C 210.516836 271.020852 207.92957 273.896532 207.939297 278.498785 C 203.94168 277.014281 200.258555 278.256715 198.530469 280.875741 C 193.631523 275.85351 186.599219 271.458329 181.593281 276.156827 C 180.296406 270.215895 172.560547 263.682912 164.095195 264.438288 C 164.59125 258.173623 161.339336 250.418622 152.374687 247.717933 C 152.374687 247.717933 150.562305 218.360339 141.656016 208.843765 C 140.783867 203.518217 142.165039 199.895911 149.498867 195.529895 C 156.822969 191.624687 158.379219 188.597349 157.844258 177.532108 C 160.729805 170.135838 162.924766 162.593742 153.937422 157.469433 C 154.206523 166.262712 151.509023 170.500401 147.939375 174.405609 C 143.672656 173.784392 142.18125 178.762876 139.311914 180.938593 C 135.294844 175.522633 147.78375 167.137665 138.530547 155.095393 C 138.008555 154.570421 132.072109 139.369568 117.404453 139.71955 C 124.378398 143.799748 127.325547 150.671047 127.312578 157.720253 C 122.689219 170.762887 120.338633 180.845264 124.968477 195.812796 C 118.876406 186.684118 115.420234 169.330881 110.375391 166.312292 C 105.953047 165.449005 103.79375 154.990399 86.626367 157.968156 C 94.031523 159.960133 96.382109 165.615246 98.376055 170.751221 C 93.83375 173.093179 96.090312 179.270349 99.40707 183.53137 C 98.778086 193.546667 104.776133 199.397187 113.750508 203.124488 C 112.27207 216.776674 110.790391 230.408444 109.311953 244.060629 C 105.748789 243.60857 100.263008 257.488244 98.093984 257.905305 C 94.605391 260.078105 88.51332 265.916959 95.500234 267.561871 C 93.425234 275.054386 91.499375 279.572061 80.343008 281.123645 C 80.343008 281.123645 92.131602 288.117437 101.906797 276.156827 C 112.379062 275.894341 108.935859 263.402927 114.000156 257.905305 C 114.000156 257.645735 116.872734 255.840415 121.061641 244.845171 C 122.893477 254.662145 132.970195 284.731368 155.749805 299.655152 C 175.604961 320.910681 191.926133 340.985022 191.751055 369.313089 C 199.499883 362.103475 204.126484 350.688253 207.686406 339.812585 C 218.463437 336.064869 233.880039 334.632863 247.623672 335.251163 C 245.266602 340.212147 242.627461 344.971892 246.031758 348.188803 C 236.438125 351.481544 234.337187 358.443254 238.188906 365.404965 C 228.076523 372.273347 227.408633 376.686027 227.249766 388.095416 C 208.542344 412.077882 197.000156 411.281675 178.467812 405.060758 C 172.382227 401.490949 162.963672 396.349141 158.625625 399.061496 C 150.620664 393.727198 139.114141 392.936824 137.217461 405.060758 C 143.225234 400.085191 146.811094 401.044723 151.59332 405.845299 C 150.630391 408.280586 149.82957 410.707122 153.405703 412.095381 C 151.839727 413.833622 150.283477 415.574778 148.7175 417.313019 C 140.10625 415.988923 128.525156 416.061836 125.500195 428.529918 C 129.922539 424.866781 139.739883 424.00641 147.657305 427.50039 C 149.135742 428.022445 150.61418 428.538668 152.092617 429.060723 C 152.267695 431.061449 152.4525 433.062175 152.624336 435.062901 C 152.624336 435.062901 140.894102 433.251748 137.74918 452.281979 C 148.749922 440.578023 156.531172 443.654941 156.531172 443.654941 C 160.768711 449.861276 176.373359 448.927992 187.59457 438.720206 C 203.354844 429.906511 207.952266 442.57 218.12625 434.281277 C 226.562422 427.990364 236.541875 432.17264 243.405586 439.498914 C 251.319766 442.467922 259.606797 444.911957 266.123594 439.498914 C 266.123594 439.498914 274.086406 434.418353 282.029766 442.625413 C 282.117305 433.371325 275.561602 428.457005 266.655312 428.282015 L 264.032383 425.657155 C 255.680508 423.915998 246.300859 424.621794 238.999453 420.436601 C 242.442656 407.370634 247.45832 395.535435 257.249727 385.467641 C 269.336602 372.509584 278.236406 366.618233 293.500625 346.780129 C 292.910547 357.991195 301.502344 370.459278 306.03168 381.845334 C 306.03168 381.845334 315.145469 367.289031 316.468281 355.468414 C 316.727656 355.468414 327.890508 349.658725 332.656523 344.718156 C 342.710547 350.956572 359.103047 339.72509 369.688789 330.438921 C 376.21207 332.909205 381.166133 332.731298 388.749609 330.438921 C 382.660781 342.828257 392.270625 354.322225 407.531602 359.125718 C 408.941953 370.062632 419.991328 372.355009 436.750195 372.436672 C 437.456992 378.87341 447.436445 379.75128 447.436445 379.75128 C 441.130391 382.691123 437.842812 385.636798 438.063281 392.280609 C 431.598359 392.324357 426.702656 393.95177 425.000508 401.40637 C 416.123398 401.558029 407.077695 402.237576 399.439102 406.624008 C 391.262305 405.355326 381.315273 401.969257 374.905469 395.407108 C 371.598437 392.621841 370.774922 388.608722 365.000586 387.062972 C 361.340156 382.73487 356.959961 383.703152 355.595 387.844597 C 351.811367 384.890171 337.623555 383.516495 335.250273 396.970358 C 341.874062 392.120201 347.81375 390.27405 351.970234 396.188733 C 349.703945 400.29518 357.485195 402.642971 364.219219 404.28205 C 368.994961 404.576617 377.466797 408.928051 380.125391 416.280574 C 373.965234 418.150057 364.627734 417.534673 358.467578 412.87409 C 352.991523 408.292252 345.596094 408.837639 341.530391 411.844561 C 335.892227 408.248504 322.459844 415.03814 321.937852 425.905059 C 327.595469 420.722419 332.744062 418.21422 337.876445 421.501128 C 335.321602 422.104845 336.291016 422.355665 336.563359 423.843086 C 340.911133 426.365867 345.245937 428.882816 349.593711 431.405597 C 343.200117 433.094257 337.189102 435.643287 339.967656 447.563065 C 339.967656 447.563065 345.177852 437.264867 356.904844 441.062164 C 357.167461 440.802594 358.522695 444.739883 361.875117 442.094608 C 366.952383 436.317001 378.556172 433.732973 388.749609 432.718027 C 396.929648 431.740996 405.096719 429.331958 412.219805 434.001292 C 418.561523 430.737716 425.619766 428.544501 432.843359 433.750472 C 441.36707 436.445327 447.588828 446.381879 458.404766 441.843788 C 463.783555 438.122321 470.397617 437.932748 477.186758 445.501093 C 477.271055 435.95827 470.118789 432.758858 459.9675 430.623973 C 457.620156 429.232797 455.285781 427.829955 452.938437 426.43878 C 446.415156 425.479248 439.865937 426.637103 433.342656 423.563101 C 467.476406 414.73774 491.406992 395.701676 508.250156 368.531464 C 513.641914 370.444695 519.014219 372.334594 524.405977 374.250741 C 528.231758 374.495728 528.523555 375.82274 536.405312 378.18803 C 536.703594 366.574486 531.717109 354.610959 510.843906 353.406441 L 483.437695 342.96825 C 477.621211 336.834828 474.991797 323.818442 482.40668 316.092605 C 489.662695 309.629618 490.930391 310.40541 495.719102 302.530832 C 501.54207 302.000027 507.027852 307.999289 512.406641 307.999289 C 514.961484 315.588049 529.681016 322.293107 539.031484 320.000729 C 544.890117 325.186285 556.04 328.070714 568.250078 323.905937 C 575.178633 329.972279 584.208125 332.506726 594.8425 327.811145 C 597.666445 330.637243 603.625586 332.88004 610.499023 331.468449 C 611.021016 331.468449 613.971406 339.010545 621.470586 341.65582 C 618.202461 344.8319 620.209375 358.621161 623.561797 363.56173 C 621.272812 368.863946 620.553047 374.51906 622.501602 379.999183 C 614.94082 384.861006 613.400781 388.474563 616.782383 396.687456 C 606.880742 412.594105 595.040273 414.411091 583.906602 409.499687 C 579.9025 406.976905 575.908125 404.427875 571.907266 401.905094 C 567.643789 397.731567 563.386797 393.581373 559.126562 389.40493 C 556.954297 387.369205 552.463867 386.727573 551.530117 391.218999 C 551.530117 391.218999 535.131133 387.561695 533.811562 401.40637 C 540.61043 394.785892 550.249453 400.61308 550.249453 400.875565 C 550.249453 401.135135 547.953984 402.698385 549.717734 405.34366 C 550.116523 405.014094 561.691133 409.663012 572.001289 414.093191 C 577.600547 416.216411 578.832578 416.881375 581.28043 418.187972 C 578.595898 416.957204 575.421797 415.566029 572.001289 414.093191 C 565.724414 411.716235 559.612891 409.81467 557.813477 410.281312 C 551.971055 409.735924 545.778477 409.009713 542.93832 413.404895 C 536.661445 416.061836 526.853828 418.187972 527.281797 429.845264 C 531.519336 422.903969 537.33582 423.19562 544.750703 423.843086 C 544.575625 424.365141 544.423242 424.88428 544.251406 425.406335 C 552.298516 429.072389 550.771445 424.408889 558.280352 423.717676 C 564.557227 423.143123 573.453789 425.391753 578.154961 426.969585 C 572.244453 428.707825 564.200586 427.978697 560.407227 432.187222 C 559.710156 433.581314 557.275273 433.009678 558.345195 436.34325 C 558.345195 436.34325 546.809492 436.045766 543.719687 451.999078 C 555.44668 444.49198 564.333516 444.719468 564.592891 444.719468 C 564.855508 444.719468 568.250078 445.501093 568.250078 445.501093 C 568.250078 445.501093 582.334141 436.095346 582.593516 436.095346 C 582.856133 436.095346 596.233398 430.171913 602.406523 436.874055 C 607.795039 439.525163 613.559648 439.69432 619.126484 436.34325 C 630.091562 431.574755 640.356328 431.239356 650.439531 437.938581 L 659.563047 443.407038 C 660.866406 442.537918 662.166523 441.651299 663.469883 440.782179 C 663.469883 440.782179 673.799492 437.862752 681.376484 447.061426 C 678.244531 431.148944 666.87418 430.623973 666.87418 430.623973 C 666.005273 429.842348 665.120156 429.063639 664.25125 428.282015 C 658.859492 426.193793 653.487187 424.088072 648.09543 421.999851 C 645.741602 416.172663 639.824609 411.535411 645.718906 404.529953 C 651.739648 374.603639 658.937305 352.129009 647.281641 321.811882 C 658.152695 326.507464 666.287344 341.02877 679.904531 335.907378 C 679.904531 323.730946 635.084531 300.611768 600.843789 282.030679 C 656.936875 279.160833 724.354922 237.755133 698.436875 185.123785 C 702.525273 172.428215 706.600703 159.726812 710.689102 147.031242 C 716.456953 158.653536 728.141797 167.513895 738.623789 171.282026 C 729.983359 154.786243 725.026055 104.351027 729.99957 69.530808 C 707.398281 97.45348 682.43668 122.232153 655.905859 147.404555 C 668.955664 150.455225 680.358437 148.308673 692.970547 146.751257 C 689.404141 154.054199 685.941484 161.380473 682.375078 168.689248 C 647.900898 148.501163 607.428672 163.649518 607.123906 190.595159 C 608.304062 222.014726 647.151953 226.479904 669.561953 215.531324 C 665.120156 244.17729 599.281055 233.625355 599.281055 233.625355 C 575.88543 225.561203 553.666719 226.940713 529.09418 227.124453 C 534.200625 211.416127 562.553555 197.472291 584.15625 203.626128 C 553.913125 169.71586 588.429453 127.616031 630.062383 114.655059 C 584.684727 99.690443 623.75957 65.097712 657.718242 40.313206 C 657.718242 40.313206 560.05707 81.412672 551.157266 81.281429 C 523.378203 79.193207 530.948711 46.312468 541.531211 28.623832 Z M 234.998594 68.092968 C 237.274609 68.104635 239.946172 68.326289 242.06332 68.842512 C 246.466211 69.915788 251.825547 70.531171 251.750977 71.843601 C 249.711641 75.255918 244.702461 79.374031 239.78082 79.126128 C 234.85918 78.878224 232.015781 75.926716 230.375234 68.530445 C 230.877773 68.25921 232.72582 68.081302 234.998594 68.092968 Z M 646.095 183.968847 C 652.49832 183.881352 660.169336 186.59079 667.655547 194.529531 C 664.056719 204.900643 632.815 210.229107 630.720547 194.87368 C 630.085078 190.233511 636.734805 184.097173 646.095 183.968847 Z M 646.095 183.968847 " transform="matrix(1.204819,0,0,1.339357,2.072289,1.299177)"/>
<path style="fill:none;stroke-width:1.8;stroke-linecap:butt;stroke-linejoin:round;stroke:rgb(0%,0%,0%);stroke-opacity:1;stroke-miterlimit:4;" d="M 267.261602 158.741031 L 271.998437 165.629829 M 271.781211 165.848567 C 271.781211 165.848567 271.781211 175.105572 273.720039 175.32431 M 269.414414 180.276545 C 269.628398 180.492366 274.368477 188.460273 274.368477 188.460273 M 260.79668 190.612658 C 261.013906 190.612658 266.830391 197.28855 266.830391 197.28855 M 271.878477 192.108828 C 271.878477 192.32465 277.380469 202.675345 277.81168 202.675345 M 264.677578 199.22803 C 264.677578 199.22803 266.613164 211.719444 268.334766 211.287801 M 256.536445 222.116804 L 262.090312 230.455108 M 266.830391 213.22728 C 266.830391 213.22728 269.842383 225.071229 272.212422 223.995037 M 274.575977 206.113911 C 274.793203 206.329733 280.181719 214.087651 281.689336 213.011458 M 280.395703 216.02713 L 285.56375 226.363244 M 271.781211 223.995037 C 271.998437 224.426681 276.090078 236.27063 276.090078 236.27063 M 261.876328 230.242202 C 261.876328 230.242202 265.750742 243.378166 269.197187 241.222864 M 260.368711 247.685852 C 260.368711 247.685852 260.582695 254.57465 264.029141 255.006293 M 266.39918 244.238536 C 266.39918 244.454358 269.842383 249.193688 269.842383 249.193688 M 276.242461 236.043142 L 279.105312 240.578316 M 285.349766 227.658174 L 289.658633 233.039136 M 265.364922 165.903981 C 265.578906 171.716586 274.80293 163.853674 278.463359 158.901439 M 261.445117 186.092067 C 261.445117 186.092067 271.567227 178.984531 279.319297 168.216774 M 258.212656 203.104072 C 265.319531 201.167509 278.398516 185.351273 280.982539 176.951723 M 256.705039 218.82698 C 258.647109 219.687351 283.07375 202.09496 283.718945 189.171902 M 256.059844 232.394587 C 256.059844 232.178765 278.392031 226.701559 287.651719 202.150373 M 254.863477 250.975676 C 254.863477 250.975676 290.517812 229.594737 292.456641 213.874746 M 533.227969 286.880836 C 533.227969 286.880836 530.929258 305.333598 512.406641 308.133448 M 539.041211 319.831572 C 539.258437 319.61575 556.701406 300.448443 552.178555 294.632921 M 579.529648 301.308814 C 579.529648 301.308814 579.315664 314.660599 568.331133 323.923436 M 601.281484 305.187773 C 601.281484 305.187773 601.712695 321.339408 594.819805 327.799479 M 621.308477 314.876421 C 621.308477 314.876421 613.582344 330.00436 610.784336 331.512196 M 620.974531 341.684985 C 620.974531 341.684985 631.142031 344.219433 634.37125 337.540624 M 623.61043 363.625893 C 623.61043 363.625893 633.009531 365.323303 637.315156 356.279203 M 622.602109 380.56207 C 622.602109 380.56207 630.208281 386.952144 635.37957 378.555511 M 513.42793 256.114567 C 513.42793 256.114567 512.565508 288.849481 558.653203 295.525373 C 610.126172 309.740446 634.458789 302.201266 637.477266 359.919009 C 635.538437 381.886166 632.808516 406.69692 616.873164 397.221178 M 464.551953 286.271286 C 464.551953 286.271286 471.876055 299.407249 480.704531 298.543962 C 492.334258 295.099563 496.639883 302.207099 496.639883 302.207099 M 433.109219 299.407249 C 433.109219 299.407249 452.494258 308.882991 469.074805 293.591727 M 435.262031 285.836726 C 436.983633 308.451348 409.20457 321.374406 398.220039 319.219105 M 436.581602 372.489169 C 436.795586 372.489169 451.628594 363.585062 448.616602 357.337897 M 407.048516 359.277376 C 407.479727 358.845733 432.032812 356.477526 436.555664 347.646332 M 395.636016 323.095147 C 395.636016 322.879325 430.479805 323.191392 432.849844 329.651463 M 441.937695 302.420004 C 441.937695 302.420004 407.910937 360.56939 470.796406 360.56939 M 405.972109 301.559634 C 405.972109 301.559634 398.65125 323.310969 388.311914 330.634327 M 369.792539 294.02337 C 369.792539 294.02337 382.430586 318.472478 369.721211 330.532249 M 336.842187 300.915085 C 337.059414 301.343812 340.933828 335.586562 332.319336 345.278126 M 320.475625 301.991277 C 320.475625 301.991277 321.766016 323.742612 315.307578 331.494697 C 308.845898 339.246782 316.818437 355.351753 316.818437 355.351753 M 238.318594 365.807443 C 238.318594 365.807443 242.945195 373.921175 249.406875 371.121325 M 246.174414 348.077976 C 246.174414 348.077976 256.510508 352.601484 259.956953 350.877826 M 257.37293 311.46702 C 257.37293 311.46702 242.082773 315.774706 247.899258 333.862904 C 256.727734 340.973356 265.342227 339.894248 265.342227 339.894248 M 227.223828 388.349153 C 227.006602 388.349153 228.94543 402.564225 238.853555 391.796468 C 245.743203 377.368491 267.495039 336.662754 272.449102 322.66642 M 282.571211 315.990528 C 282.571211 315.990528 272.017891 307.806799 272.449102 319.219105 C 272.231875 326.326641 275.67832 328.050298 275.67832 328.050298 C 276.109531 333.218355 280.632383 340.538796 284.292812 333.862904 C 285.80043 327.402833 283.216406 324.602983 283.216406 324.602983 M 289.246875 312.971939 C 279.769961 312.32739 274.601914 333.218355 292.910547 320.082392 M 299.155 305.86732 C 299.155 305.86732 296.784961 309.098813 293.124531 305.651498 C 291.185703 302.207099 284.296055 321.158584 296.35375 321.803133 C 298.506562 316.203433 305.185469 314.695597 305.185469 314.695597 M 310.784727 296.823221 C 310.784727 296.823221 305.399453 299.407249 303.460625 298.975605 C 297.002187 300.483441 298.292578 315.558884 306.475859 314.695597 C 309.273867 311.46702 312.292344 306.943512 312.292344 306.943512 M 260.002344 277.113443 C 259.785117 277.113443 238.629844 310.382078 271.79418 319.213272 M 528.504102 227.036957 C 528.504102 227.036957 515.583984 238.020536 527.64168 255.680007 C 487.584453 255.035458 466.049844 273.5553 464.328242 286.043798 C 413.286484 282.383577 422.549414 297.461936 405.962383 302.414171 C 383.782578 283.891413 351.263437 294.230443 353.41625 312.750284 C 338.554062 291.85932 315.729062 301.982528 312.927812 307.150584 C 310.129805 312.318641 311.206211 281.523206 311.206211 281.523206 C 311.206211 281.523206 296.347266 288.199099 286.00793 300.474692 C 286.225156 292.290963 286.00793 278.939178 286.00793 274.631492 C 273.590352 277.142608 261.600742 277.285517 248.748711 276.999699 M 215.153164 267.523956 C 215.153164 267.523956 233.672539 277.862986 256.504023 263.863735 M 213.645547 230.268451 C 213.645547 230.268451 228.076523 243.188593 255.210391 239.096728 M 222.69125 200.546293 C 222.69125 200.546293 225.920469 211.101144 256.935234 211.745693 M 233.195937 176.140933 C 233.195937 176.140933 244.874297 190.426001 260.595664 188.2707 M 243.152695 155.751608 C 243.152695 155.751608 247.675547 163.503693 264.904531 164.795707 M 253.271562 133.139902 C 253.271562 133.139902 262.317266 143.047288 272.656602 141.32363 M 307.085391 52.623797 C 307.085391 52.623797 311.092734 48.619428 317.768398 50.623071 M 304.196602 73.765581 C 304.196602 73.765581 291.733633 73.319355 292.621992 68.422534 C 293.513594 62.860749 305.752852 58.85638 305.752852 58.85638 C 305.752852 58.85638 321.996211 48.397773 324.444062 44.836714 M 251.011758 101.801997 L 266.810937 132.066626 L 274.378203 120.715567 L 278.382305 128.505567 L 284.8375 117.157425 L 295.961445 124.276627 L 291.733633 110.481532 L 301.077617 109.813651 C 301.077617 109.813651 298.629766 103.137759 290.174141 101.801997 C 292.401523 100.022925 300.189258 94.904449 300.189258 94.904449 C 300.189258 94.904449 295.740977 89.785974 288.841602 89.564319 C 291.065742 87.117366 294.181484 81.106438 293.957773 81.106438 C 293.737305 81.106438 287.058398 79.549022 287.058398 79.549022 C 287.058398 79.549022 302.86082 84.667498 315.096836 77.548296 M 284.847227 53.081689 C 285.070937 53.303344 283.955625 59.311355 280.619414 62.872415 M 223.877891 69.769962 C 223.877891 69.769962 233.649844 67.080939 240.964219 68.603358 C 248.210508 70.093695 257.924102 72.66314 257.924102 72.66314 C 257.924102 72.66314 269.492227 71.105724 273.275859 68.4342 M 199.619844 76.221283 C 199.619844 76.221283 198.287305 80.89645 197.843125 84.011283 C 197.843125 86.23658 190.720039 89.129759 190.720039 89.129759 M 204.074609 66.655129 C 204.074609 66.655129 210.302852 74.442212 210.526562 78.892807 C 210.747031 83.343402 205.85457 86.67989 205.85457 86.67989 M 139.762578 119.837698 L 133.310625 109.379091 L 139.094687 107.375448 M 256.296523 264.097056 C 251.128477 257.418247 260.170937 154.90582 279.33875 128.205166 C 272.663086 176.447166 294.846133 225.762442 300.445391 225.549537 M 198.044141 99.5592 C 198.044141 99.5592 206.765625 102.895688 224.857031 88.575622 M 249.299883 123.250015 L 262.275117 123.410423 M 651.765586 42.900151 C 651.765586 42.900151 435.576523 143.922241 432.425117 149.271122 C 468.928906 138.255461 623.756328 112.450177 627.533477 114.655059 C 618.409961 116.857024 430.534922 159.968882 421.725898 170.354576 C 468.614414 168.782577 566.804062 185.459184 582.21418 201.508741 C 548.858555 193.957895 449.096445 179.165354 418.574492 185.774167 C 440.919648 191.125964 526.513398 246.510498 526.513398 255.321276 C 513.612734 243.051517 410.705703 200.566708 406.614062 204.658572 C 430.213945 218.818231 463.576055 271.370833 463.572812 284.273476 C 456.650742 273.260732 397.172812 209.377486 393.713398 213.466434 C 400.006484 222.280129 412.47918 297.689424 406.101797 301.183404 C 406.101797 292.057642 383.010937 226.05701 381.123984 224.167111 C 376.403359 225.427044 346.970781 304.694882 352.803477 312.067821 C 349.026328 285.63257 353.432461 230.463857 360.669023 232.665823 C 347.768359 234.552805 306.592578 288.843648 310.995469 297.342359 C 312.253437 283.809751 314.095 274.835648 337.380391 229.833891 C 311.57582 231.40589 258.079727 265.07992 248.952969 277.037613 C 256.189531 255.639176 301.505586 219.445281 321.331562 216.928332 M 414.648203 138.182549 C 437.499141 125.501561 508.1075 99.62628 555.21 80.639797 M 370.29832 206.420145 C 370.29832 206.420145 385.873789 206.19849 401.4525 163.917837 C 416.801016 106.068852 538.522461 41.53814 540.973555 29.519201 M 164.302695 264.589947 C 164.302695 264.589947 160.687656 272.292451 156.236133 274.517748 M 181.761875 276.261822 C 181.761875 276.261822 176.931016 285.644236 175.818945 290.094831 M 198.468867 280.849493 C 198.468867 280.849493 202.521602 293.652974 199.182148 299.663902 M 151.943477 247.610022 C 139.707461 254.50757 158.907695 298.103569 216.985 302.332509 M 207.637773 278.743772 C 207.637773 278.743772 206.081523 286.533772 216.985 302.110854 C 213.869258 319.467008 230.180703 333.104611 236.632656 335.329909 M 202.962539 122.319648 C 202.962539 122.097993 204.7425 117.647398 204.7425 117.647398 L 206.726719 122.792123 L 209.920273 122.707544 L 212.027695 117.551153 L 213.759023 122.72796 L 216.929883 122.72796 L 218.888164 116.979517 L 221.845039 122.421726 L 224.357734 122.550052 L 226.335469 115.920824 L 230.410898 120.668903 L 231.892578 120.094351 L 233.163516 113.465122 L 237.190312 118.102374 L 238.344531 117.425744 L 240.212031 110.889843 L 243.557969 115.74875 L 245.243906 115.200446 L 246.806641 109.70574 L 249.915898 114.75422 M 199.383164 122.90295 L 223.657422 122.541303 C 231.380312 122.427559 244.099414 111.723965 258.342344 115.060453 M 148.221445 174.834336 C 148.221445 174.834336 152.225547 183.513871 157.792383 178.619967 M 138.877461 180.620693 C 138.877461 180.620693 131.086484 201.537906 140.433711 206.431811 M 127.750273 157.478182 C 127.750273 157.478182 127.750273 162.375003 137.985859 154.809575 M 95.911992 267.398546 C 95.911992 267.398546 104.147148 269.845498 102.811367 276.078081 M 99.024492 171.267444 C 99.024492 171.267444 104.140664 173.714396 109.036367 166.151884 M 153.318164 412.039968 C 161.329609 411.596658 163.054453 415.213131 170.342891 415.213131 C 178.736914 415.469784 186.920195 412.039968 197.599961 409.146789 M 266.360273 428.506586 C 266.136562 428.506586 262.576641 436.072014 265.692383 439.854728 M 152.202852 429.174467 C 152.202852 429.174467 164.886289 418.71586 171.561953 425.170098 C 178.017148 427.395395 181.573828 426.949169 181.573828 426.949169 M 158.885 399.35898 C 158.885 399.35898 162.000742 407.370634 151.541445 406.256527 M 148.425703 417.829241 C 148.425703 417.829241 155.101367 422.058181 147.537344 427.619967 M 152.429805 435.185395 C 152.429805 435.185395 161.55332 436.521157 156.213437 443.86493 M 447.121953 379.748363 C 447.121953 379.748363 471.89875 382.311976 473.036758 384.16396 C 475.886641 381.171621 498.011328 363.25258 470.812617 360.691884 C 466.257344 379.345885 447.549922 380.034181 447.121953 379.748363 Z M 438.296719 392.1377 C 447.549922 399.539804 443.759805 403.978733 472.809805 384.470194 M 425.052383 401.394704 C 425.052383 401.394704 438.721445 416.061836 448.68793 398.259456 M 398.994922 406.661922 L 380.482031 416.344737 M 347.16207 430.014422 C 347.16207 430.014422 358.412461 420.331607 363.681016 425.458832 C 368.94957 430.583141 391.304453 421.046152 391.304453 421.046152 M 355.562578 388.007921 C 355.562578 388.007921 359.407812 395.695843 352.002656 396.693289 M 340.898164 412.072049 C 340.898164 412.072049 344.798516 419.302079 337.250703 421.296972 M 349.583984 431.723497 C 349.583984 431.723497 361.259102 432.292217 357.131797 441.120494 M 458.800312 430.157331 C 458.800312 430.157331 452.39375 435.567458 457.09168 441.69213 M 551.783008 391.283162 C 551.783008 391.283162 559.188164 394.841305 550.359687 400.965977 M 542.954531 413.781124 C 542.954531 413.781124 548.508398 419.619978 544.80582 424.461386 M 558.474883 436.136177 C 558.474883 436.136177 566.165352 438.27398 565.312656 444.681553 M 666.121992 430.443149 C 666.121992 430.443149 659.712187 435.138731 663.132695 441.263403 M 551.99375 243.293587 C 567.371445 241.441603 589.441016 275.617273 600.691406 282.307748 M 667.963555 194.885346 C 667.963555 194.885346 675.751289 201.683732 668.897305 218.089103 M 682.404258 168.724247 C 684.570039 170.40999 692.941367 174.878084 698.472539 185.22003 M 703.783242 117.559903 C 703.783242 117.702812 692.96082 146.751257 692.96082 146.751257 M 715.886328 116.136646 C 715.886328 116.136646 713.749727 142.049842 710.617773 147.319976 M 667.662031 194.544114 C 664.063203 204.915225 632.821484 210.220358 630.727031 194.867847 C 629.660352 187.051599 649.230195 174.997661 667.662031 194.544114 Z M 667.662031 194.544114 " transform="matrix(1.204819,0,0,1.339357,2.072289,1.299177)"/>
<path style="fill-rule:nonzero;fill:rgb(0%,0%,0%);fill-opacity:1;stroke-width:1.8;stroke-linecap:butt;stroke-linejoin:round;stroke:rgb(0%,0%,0%);stroke-opacity:1;stroke-miterlimit:4;" d="M 234.758672 68.177547 L 246.780703 70.402845 C 246.780703 70.402845 238.318594 81.750987 234.758672 68.177547 Z M 234.758672 68.177547 " transform="matrix(1.204819,0,0,1.339357,2.072289,1.299177)"/>
</g>
</svg>
