<?xml version="1.0" encoding="UTF-8"?>
<svg xmlns="http://www.w3.org/2000/svg" xmlns:xlink="http://www.w3.org/1999/xlink" width="1000px" height="667px" viewBox="0 0 1000 667" version="1.1">
<g id="surface1">
<rect x="0" y="0" width="1000" height="667" style="fill:rgb(80.784315%,6.666667%,14.901961%);fill-opacity:1;stroke:none;"/>
<path style=" stroke:none;fill-rule:nonzero;fill:rgb(0%,47.843137%,36.862746%);fill-opacity:1;" d="M 84 93.378906 L 916 93.378906 L 916 573.621094 L 84 573.621094 Z M 84 93.378906 "/>
<path style=" stroke:none;fill-rule:nonzero;fill:rgb(98.823529%,81.960785%,8.627451%);fill-opacity:1;" d="M 84 93.378906 L 916 93.378906 L 84 573.621094 L 916 573.621094 Z M 84 93.378906 "/>
<path style=" stroke:none;fill-rule:nonzero;fill:rgb(80.784315%,6.666667%,14.901961%);fill-opacity:1;" d="M 572 333.5 C 572 377.703125 539.765625 413.539062 500 413.539062 C 460.234375 413.539062 428 377.703125 428 333.5 C 428 289.296875 460.234375 253.460938 500 253.460938 C 539.765625 253.460938 572 289.296875 572 333.5 Z M 572 333.5 "/>
<path style=" stroke:none;fill-rule:nonzero;fill:rgb(80.784315%,6.666667%,14.901961%);fill-opacity:1;" d="M 135.496094 334.410156 C 144.507812 353.066406 162.027344 373.363281 177.328125 380.5 C 177.574219 361.558594 171.53125 337.28125 163.261719 317.9375 Z M 135.496094 334.410156 "/>
<path style=" stroke:none;fill-rule:nonzero;fill:rgb(98.823529%,81.960785%,8.627451%);fill-opacity:1;" d="M 120.222656 270.425781 C 133.28125 300.683594 86.359375 372.875 164.535156 389.792969 C 154.890625 375.164062 148.675781 351.019531 151.027344 331.632812 C 167.429688 338.570312 184.6875 358.867188 191.660156 374.386719 C 212.121094 291.789062 139.179688 296.816406 120.222656 270.425781 Z M 300 576.953125 L 277.074219 655.386719 L 337.09375 606.914062 L 262.910156 606.914062 L 322.925781 655.386719 Z M 500 576.953125 L 477.074219 655.386719 L 537.089844 606.914062 L 462.910156 606.914062 L 522.925781 655.386719 Z M 700 576.953125 L 677.074219 655.386719 L 737.09375 606.914062 L 662.910156 606.914062 L 722.925781 655.386719 Z M 700 3.335938 L 677.074219 81.765625 L 737.089844 33.292969 L 662.910156 33.292969 L 722.925781 81.765625 Z M 500 3.335938 L 477.074219 81.765625 L 537.089844 33.292969 L 462.910156 33.292969 L 522.925781 81.765625 Z M 300 3.335938 L 277.074219 81.765625 L 337.089844 33.292969 L 262.910156 33.292969 L 322.925781 81.765625 Z M 500 260.128906 L 461.207031 392.855469 L 562.769531 310.828125 L 437.230469 310.828125 L 538.792969 392.855469 Z M 500 260.128906 "/>
</g>
</svg>
