<?xml version="1.0" encoding="UTF-8"?>
<svg xmlns="http://www.w3.org/2000/svg" xmlns:xlink="http://www.w3.org/1999/xlink" width="1000px" height="667px" viewBox="0 0 1000 667" version="1.1">
<defs>
<clipPath id="clip1">
  <path d="M 31 0 L 399 0 L 399 379 L 31 379 Z M 31 0 "/>
</clipPath>
<clipPath id="clip2">
  <path d="M -148.5 478.40625 C 42.957031 478.40625 198.167969 323.121094 198.167969 131.566406 C 198.167969 -59.988281 42.957031 -215.273438 -148.5 -215.273438 L 578.167969 -215.273438 C 386.707031 -215.273438 231.5 -59.988281 231.5 131.566406 C 231.5 323.121094 386.707031 478.40625 578.167969 478.40625 Z M -148.5 478.40625 "/>
</clipPath>
<clipPath id="clip3">
  <path d="M 0 0 L 462 0 L 462 315 L 0 315 Z M 0 0 "/>
</clipPath>
<clipPath id="clip4">
  <path d="M -131.832031 -231.949219 C -131.832031 -40.394531 23.375 114.890625 214.832031 114.890625 C 406.292969 114.890625 561.5 -40.394531 561.5 -231.949219 L 561.5 495.082031 C 561.5 303.527344 406.292969 148.242188 214.832031 148.242188 C 23.375 148.242188 -131.832031 303.527344 -131.832031 495.082031 Z M -131.832031 -231.949219 "/>
</clipPath>
<clipPath id="clip5">
  <path d="M 601 288 L 969 288 L 969 667 L 601 667 Z M 601 288 "/>
</clipPath>
<clipPath id="clip6">
  <path d="M 421.832031 882.273438 C 613.292969 882.273438 768.5 726.988281 768.5 535.433594 C 768.5 343.878906 613.292969 188.59375 421.832031 188.59375 L 1148.5 188.59375 C 957.042969 188.59375 801.832031 343.878906 801.832031 535.433594 C 801.832031 726.988281 957.042969 882.273438 1148.5 882.273438 Z M 421.832031 882.273438 "/>
</clipPath>
<clipPath id="clip7">
  <path d="M 538 352 L 1000 352 L 1000 667 L 538 667 Z M 538 352 "/>
</clipPath>
<clipPath id="clip8">
  <path d="M 438.5 171.917969 C 438.5 363.472656 593.707031 518.757812 785.167969 518.757812 C 976.625 518.757812 1131.832031 363.472656 1131.832031 171.917969 L 1131.832031 898.949219 C 1131.832031 707.394531 976.625 552.109375 785.167969 552.109375 C 593.707031 552.109375 438.5 707.394531 438.5 898.949219 Z M 438.5 171.917969 "/>
</clipPath>
<clipPath id="clip9">
  <path d="M 601 0 L 969 0 L 969 379 L 601 379 Z M 601 0 "/>
</clipPath>
<clipPath id="clip10">
  <path d="M 421.832031 478.40625 C 613.292969 478.40625 768.5 323.121094 768.5 131.566406 C 768.5 -59.988281 613.292969 -215.273438 421.832031 -215.273438 L 1148.5 -215.273438 C 957.042969 -215.273438 801.832031 -59.988281 801.832031 131.566406 C 801.832031 323.121094 957.042969 478.40625 1148.5 478.40625 Z M 421.832031 478.40625 "/>
</clipPath>
<clipPath id="clip11">
  <path d="M 538 0 L 1000 0 L 1000 315 L 538 315 Z M 538 0 "/>
</clipPath>
<clipPath id="clip12">
  <path d="M 438.5 -231.949219 C 438.5 -40.394531 593.707031 114.890625 785.167969 114.890625 C 976.625 114.890625 1131.832031 -40.394531 1131.832031 -231.949219 L 1131.832031 495.082031 C 1131.832031 303.527344 976.625 148.242188 785.167969 148.242188 C 593.707031 148.242188 438.5 303.527344 438.5 495.082031 Z M 438.5 -231.949219 "/>
</clipPath>
<clipPath id="clip13">
  <path d="M 31 288 L 399 288 L 399 667 L 31 667 Z M 31 288 "/>
</clipPath>
<clipPath id="clip14">
  <path d="M -148.5 882.273438 C 42.957031 882.273438 198.167969 726.988281 198.167969 535.433594 C 198.167969 343.878906 42.957031 188.59375 -148.5 188.59375 L 578.167969 188.59375 C 386.707031 188.59375 231.5 343.878906 231.5 535.433594 C 231.5 726.988281 386.707031 882.273438 578.167969 882.273438 Z M -148.5 882.273438 "/>
</clipPath>
<clipPath id="clip15">
  <path d="M 0 352 L 462 352 L 462 667 L 0 667 Z M 0 352 "/>
</clipPath>
<clipPath id="clip16">
  <path d="M -131.832031 171.917969 C -131.832031 363.472656 23.375 518.757812 214.832031 518.757812 C 406.292969 518.757812 561.5 363.472656 561.5 171.917969 L 561.5 898.949219 C 561.5 707.394531 406.292969 552.109375 214.832031 552.109375 C 23.375 552.109375 -131.832031 707.394531 -131.832031 898.949219 Z M -131.832031 171.917969 "/>
</clipPath>
</defs>
<g id="surface1">
<rect x="0" y="0" width="1000" height="667" style="fill:rgb(100%,100%,100%);fill-opacity:1;stroke:none;"/>
<path style=" stroke:none;fill-rule:nonzero;fill:rgb(100%,0%,0%);fill-opacity:1;" d="M 433.332031 0 L 433.332031 266.800781 L 0 266.800781 L 0 400.199219 L 433.332031 400.199219 L 433.332031 667 L 566.667969 667 L 566.667969 400.199219 L 1000 400.199219 L 1000 266.800781 L 566.667969 266.800781 L 566.667969 0 Z M 433.332031 0 "/>
<g clip-path="url(#clip1)" clip-rule="nonzero">
<g clip-path="url(#clip2)" clip-rule="nonzero">
<path style=" stroke:none;fill-rule:nonzero;fill:rgb(100%,0%,0%);fill-opacity:1;" d="M 31.5 378.355469 C 31.5 277.054688 113.582031 194.929688 214.832031 194.929688 C 316.085938 194.929688 398.167969 277.054688 398.167969 378.355469 L 398.167969 -115.222656 C 398.167969 -13.921875 316.085938 68.199219 214.832031 68.199219 C 113.582031 68.199219 31.5 -13.921875 31.5 -115.222656 Z M 31.5 378.355469 "/>
</g>
</g>
<g clip-path="url(#clip3)" clip-rule="nonzero">
<g clip-path="url(#clip4)" clip-rule="nonzero">
<path style=" stroke:none;fill-rule:nonzero;fill:rgb(100%,0%,0%);fill-opacity:1;" d="M -31.832031 -51.859375 C 69.417969 -51.859375 151.5 30.261719 151.5 131.566406 C 151.5 232.867188 69.417969 314.992188 -31.832031 314.992188 L 461.5 314.992188 C 360.246094 314.992188 278.167969 232.867188 278.167969 131.566406 C 278.167969 30.261719 360.246094 -51.859375 461.5 -51.859375 Z M -31.832031 -51.859375 "/>
</g>
</g>
<g clip-path="url(#clip5)" clip-rule="nonzero">
<g clip-path="url(#clip6)" clip-rule="nonzero">
<path style=" stroke:none;fill-rule:nonzero;fill:rgb(100%,0%,0%);fill-opacity:1;" d="M 601.832031 782.222656 C 601.832031 680.921875 683.914062 598.800781 785.167969 598.800781 C 886.417969 598.800781 968.5 680.921875 968.5 782.222656 L 968.5 288.644531 C 968.5 389.945312 886.417969 472.070312 785.167969 472.070312 C 683.914062 472.070312 601.832031 389.945312 601.832031 288.644531 Z M 601.832031 782.222656 "/>
</g>
</g>
<g clip-path="url(#clip7)" clip-rule="nonzero">
<g clip-path="url(#clip8)" clip-rule="nonzero">
<path style=" stroke:none;fill-rule:nonzero;fill:rgb(100%,0%,0%);fill-opacity:1;" d="M 538.5 352.007812 C 639.753906 352.007812 721.832031 434.132812 721.832031 535.433594 C 721.832031 636.738281 639.753906 718.859375 538.5 718.859375 L 1031.832031 718.859375 C 930.582031 718.859375 848.5 636.738281 848.5 535.433594 C 848.5 434.132812 930.582031 352.007812 1031.832031 352.007812 Z M 538.5 352.007812 "/>
</g>
</g>
<g clip-path="url(#clip9)" clip-rule="nonzero">
<g clip-path="url(#clip10)" clip-rule="nonzero">
<path style=" stroke:none;fill-rule:nonzero;fill:rgb(100%,0%,0%);fill-opacity:1;" d="M 601.832031 378.355469 C 601.832031 277.054688 683.914062 194.929688 785.167969 194.929688 C 886.417969 194.929688 968.5 277.054688 968.5 378.355469 L 968.5 -115.222656 C 968.5 -13.921875 886.417969 68.199219 785.167969 68.199219 C 683.914062 68.199219 601.832031 -13.921875 601.832031 -115.222656 Z M 601.832031 378.355469 "/>
</g>
</g>
<g clip-path="url(#clip11)" clip-rule="nonzero">
<g clip-path="url(#clip12)" clip-rule="nonzero">
<path style=" stroke:none;fill-rule:nonzero;fill:rgb(100%,0%,0%);fill-opacity:1;" d="M 538.5 -51.859375 C 639.753906 -51.859375 721.832031 30.261719 721.832031 131.566406 C 721.832031 232.867188 639.753906 314.992188 538.5 314.992188 L 1031.832031 314.992188 C 930.582031 314.992188 848.5 232.867188 848.5 131.566406 C 848.5 30.261719 930.582031 -51.859375 1031.832031 -51.859375 Z M 538.5 -51.859375 "/>
</g>
</g>
<g clip-path="url(#clip13)" clip-rule="nonzero">
<g clip-path="url(#clip14)" clip-rule="nonzero">
<path style=" stroke:none;fill-rule:nonzero;fill:rgb(100%,0%,0%);fill-opacity:1;" d="M 31.5 782.222656 C 31.5 680.921875 113.582031 598.800781 214.832031 598.800781 C 316.085938 598.800781 398.167969 680.921875 398.167969 782.222656 L 398.167969 288.644531 C 398.167969 389.945312 316.085938 472.070312 214.832031 472.070312 C 113.582031 472.070312 31.5 389.945312 31.5 288.644531 Z M 31.5 782.222656 "/>
</g>
</g>
<g clip-path="url(#clip15)" clip-rule="nonzero">
<g clip-path="url(#clip16)" clip-rule="nonzero">
<path style=" stroke:none;fill-rule:nonzero;fill:rgb(100%,0%,0%);fill-opacity:1;" d="M -31.832031 352.007812 C 69.417969 352.007812 151.5 434.132812 151.5 535.433594 C 151.5 636.738281 69.417969 718.859375 -31.832031 718.859375 L 461.5 718.859375 C 360.246094 718.859375 278.167969 636.738281 278.167969 535.433594 C 278.167969 434.132812 360.246094 352.007812 461.5 352.007812 Z M -31.832031 352.007812 "/>
</g>
</g>
</g>
</svg>
