<?xml version="1.0" encoding="UTF-8"?>
<svg xmlns="http://www.w3.org/2000/svg" xmlns:xlink="http://www.w3.org/1999/xlink" width="1000px" height="667px" viewBox="0 0 1000 667" version="1.1">
<g id="surface1">
<rect x="0" y="0" width="1000" height="667" style="fill:rgb(85.490197%,0%,4.705882%);fill-opacity:1;stroke:none;"/>
<path style=" stroke:none;fill-rule:nonzero;fill:rgb(100%,100%,100%);fill-opacity:1;" d="M 0 0 L 1000 0 L 1000 446.835938 L 0 446.835938 Z M 0 0 "/>
<path style=" stroke:none;fill-rule:nonzero;fill:rgb(0%,0%,0%);fill-opacity:1;" d="M 383.929688 303.023438 L 508.929688 303.023438 L 508.929688 417.648438 L 383.929688 417.648438 Z M 383.929688 303.023438 "/>
<path style="fill-rule:nonzero;fill:rgb(85.490197%,0%,4.705882%);fill-opacity:1;stroke-width:1;stroke-linecap:square;stroke-linejoin:miter;stroke:rgb(0%,0%,0%);stroke-opacity:1;stroke-miterlimit:4;" d="M 229.818 153.865067 L 190.75 153.865067 L 182.09 159.563718 L 182.09 165.604198 L 229.818 165.604198 " transform="matrix(1.953125,0,0,2.605469,0,0)"/>
<path style="fill-rule:nonzero;fill:rgb(85.490197%,0%,4.705882%);fill-opacity:1;stroke-width:1;stroke-linecap:square;stroke-linejoin:miter;stroke:rgb(0%,0%,0%);stroke-opacity:1;stroke-miterlimit:4;" d="M 213.468 128.593703 C 219.094 128.593703 223.688 133.283358 223.688 139.062969 L 223.688 153.844078 L 231.032 153.844078 L 231.032 97.844078 L 190.75 97.844078 L 190.75 153.844078 L 203.25 153.844078 L 203.25 139.062969 C 203.25 133.508246 207.764 128.593703 213.468 128.593703 Z M 213.468 128.593703 " transform="matrix(1.953125,0,0,2.605469,0,0)"/>
<path style=" stroke:none;fill-rule:nonzero;fill:rgb(0%,0%,0%);fill-opacity:1;" d="M 399.46875 156.226562 L 435.648438 156.226562 L 435.648438 244.707031 L 399.46875 244.707031 Z M 399.46875 156.226562 "/>
<path style="fill-rule:nonzero;fill:rgb(85.490197%,0%,4.705882%);fill-opacity:1;stroke-width:1;stroke-linecap:square;stroke-linejoin:miter;stroke:rgb(0%,0%,0%);stroke-opacity:1;stroke-miterlimit:4;" d="M 223 88.656672 L 206.792 88.656672 L 206.792 82.905547 L 194.906 82.905547 L 194.906 88.656672 L 186.844 88.656672 L 186.844 82.905547 L 182.032 82.905547 L 182.032 93.343328 L 223 93.343328 M 186.844 93.305847 L 221.814 93.305847 L 221.814 97.844078 L 186.844 97.844078 Z M 186.844 93.305847 " transform="matrix(1.953125,0,0,2.605469,0,0)"/>
<path style="fill-rule:nonzero;fill:rgb(85.490197%,0%,4.705882%);fill-opacity:1;stroke-width:1;stroke-linecap:square;stroke-linejoin:miter;stroke:rgb(0%,0%,0%);stroke-opacity:1;stroke-miterlimit:4;" d="M 200.718 47.625187 L 200.718 82.905547 L 206.792 82.905547 L 206.792 73.218891 C 206.792 69.589205 209.354 66.61919 212.938 66.437781 C 213.054 66.431784 213.164 66.437781 213.282 66.437781 C 217.028 66.437781 220.062 69.472264 220.062 73.218891 L 220.062 82.905547 L 225.844 82.905547 L 225.844 47.625187 Z M 200.718 47.625187 " transform="matrix(1.953125,0,0,2.605469,0,0)"/>
<path style="fill-rule:nonzero;fill:rgb(85.490197%,0%,4.705882%);fill-opacity:1;stroke-width:1;stroke-linecap:square;stroke-linejoin:miter;stroke:rgb(0%,0%,0%);stroke-opacity:1;stroke-miterlimit:4;" d="M 198.532 42.844078 L 198.532 47.625187 L 227.782 47.625187 L 227.782 42.844078 Z M 198.532 42.844078 " transform="matrix(1.953125,0,0,2.605469,0,0)"/>
<path style="fill-rule:nonzero;fill:rgb(85.490197%,0%,4.705882%);fill-opacity:1;stroke-width:1;stroke-linecap:square;stroke-linejoin:miter;stroke:rgb(0%,0%,0%);stroke-opacity:1;stroke-miterlimit:4;" d="M 194.782 33.688156 L 194.782 42.844078 L 229.876 42.844078 L 229.876 33.688156 L 224.468 33.688156 L 224.468 38.343328 L 217.938 38.343328 L 217.938 33.688156 L 207.968 33.688156 L 207.968 38.343328 L 201.438 38.343328 L 201.438 33.688156 Z M 194.782 33.688156 " transform="matrix(1.953125,0,0,2.605469,0,0)"/>
<path style="fill:none;stroke-width:1;stroke-linecap:square;stroke-linejoin:miter;stroke:rgb(0%,0%,0%);stroke-opacity:1;stroke-miterlimit:4;" d="M 182.09 159.563718 L 230 159.563718 " transform="matrix(1.953125,0,0,2.605469,0,0)"/>
<path style="fill-rule:nonzero;fill:rgb(85.490197%,0%,4.705882%);fill-opacity:1;stroke-width:1;stroke-linecap:square;stroke-linejoin:miter;stroke:rgb(0%,0%,0%);stroke-opacity:1;stroke-miterlimit:4;" d="M 261 156.812594 L 228.562 156.812594 L 218.782 161.530735 L 218.782 168.562219 L 261 168.562219 " transform="matrix(1.953125,0,0,2.605469,0,0)"/>
<path style="fill:none;stroke-width:1;stroke-linecap:butt;stroke-linejoin:miter;stroke:rgb(0%,0%,0%);stroke-opacity:1;stroke-miterlimit:4;" d="M 218.772 161.518741 L 262 161.518741 " transform="matrix(1.953125,0,0,2.605469,0,0)"/>
<path style=" stroke:none;fill-rule:nonzero;fill:rgb(0%,0%,0%);fill-opacity:1;" d="M 616.070312 303.023438 L 491.070312 303.023438 L 491.070312 417.648438 L 616.070312 417.648438 Z M 616.070312 303.023438 "/>
<path style="fill-rule:nonzero;fill:rgb(85.490197%,0%,4.705882%);fill-opacity:1;stroke-width:1;stroke-linecap:square;stroke-linejoin:miter;stroke:rgb(0%,0%,0%);stroke-opacity:1;stroke-miterlimit:4;" d="M 229.818 153.865067 L 190.75 153.865067 L 182.09 159.563718 L 182.09 165.604198 L 229.818 165.604198 " transform="matrix(-1.953125,0,0,2.605469,1000,0)"/>
<path style="fill-rule:nonzero;fill:rgb(85.490197%,0%,4.705882%);fill-opacity:1;stroke-width:1;stroke-linecap:square;stroke-linejoin:miter;stroke:rgb(0%,0%,0%);stroke-opacity:1;stroke-miterlimit:4;" d="M 213.468 128.593703 C 219.094 128.593703 223.688 133.283358 223.688 139.062969 L 223.688 153.844078 L 231.032 153.844078 L 231.032 97.844078 L 190.75 97.844078 L 190.75 153.844078 L 203.25 153.844078 L 203.25 139.062969 C 203.25 133.508246 207.764 128.593703 213.468 128.593703 Z M 213.468 128.593703 " transform="matrix(-1.953125,0,0,2.605469,1000,0)"/>
<path style=" stroke:none;fill-rule:nonzero;fill:rgb(0%,0%,0%);fill-opacity:1;" d="M 600.53125 156.226562 L 564.351562 156.226562 L 564.351562 244.707031 L 600.53125 244.707031 Z M 600.53125 156.226562 "/>
<path style="fill-rule:nonzero;fill:rgb(85.490197%,0%,4.705882%);fill-opacity:1;stroke-width:1;stroke-linecap:square;stroke-linejoin:miter;stroke:rgb(0%,0%,0%);stroke-opacity:1;stroke-miterlimit:4;" d="M 223 88.656672 L 206.792 88.656672 L 206.792 82.905547 L 194.906 82.905547 L 194.906 88.656672 L 186.844 88.656672 L 186.844 82.905547 L 182.032 82.905547 L 182.032 93.343328 L 223 93.343328 M 186.844 93.305847 L 221.814 93.305847 L 221.814 97.844078 L 186.844 97.844078 Z M 186.844 93.305847 " transform="matrix(-1.953125,0,0,2.605469,1000,0)"/>
<path style="fill-rule:nonzero;fill:rgb(85.490197%,0%,4.705882%);fill-opacity:1;stroke-width:1;stroke-linecap:square;stroke-linejoin:miter;stroke:rgb(0%,0%,0%);stroke-opacity:1;stroke-miterlimit:4;" d="M 200.718 47.625187 L 200.718 82.905547 L 206.792 82.905547 L 206.792 73.218891 C 206.792 69.589205 209.354 66.61919 212.938 66.437781 C 213.054 66.431784 213.164 66.437781 213.282 66.437781 C 217.028 66.437781 220.062 69.472264 220.062 73.218891 L 220.062 82.905547 L 225.844 82.905547 L 225.844 47.625187 Z M 200.718 47.625187 " transform="matrix(-1.953125,0,0,2.605469,1000,0)"/>
<path style="fill-rule:nonzero;fill:rgb(85.490197%,0%,4.705882%);fill-opacity:1;stroke-width:1;stroke-linecap:square;stroke-linejoin:miter;stroke:rgb(0%,0%,0%);stroke-opacity:1;stroke-miterlimit:4;" d="M 198.532 42.844078 L 198.532 47.625187 L 227.782 47.625187 L 227.782 42.844078 Z M 198.532 42.844078 " transform="matrix(-1.953125,0,0,2.605469,1000,0)"/>
<path style="fill-rule:nonzero;fill:rgb(85.490197%,0%,4.705882%);fill-opacity:1;stroke-width:1;stroke-linecap:square;stroke-linejoin:miter;stroke:rgb(0%,0%,0%);stroke-opacity:1;stroke-miterlimit:4;" d="M 194.782 33.688156 L 194.782 42.844078 L 229.876 42.844078 L 229.876 33.688156 L 224.468 33.688156 L 224.468 38.343328 L 217.938 38.343328 L 217.938 33.688156 L 207.968 33.688156 L 207.968 38.343328 L 201.438 38.343328 L 201.438 33.688156 Z M 194.782 33.688156 " transform="matrix(-1.953125,0,0,2.605469,1000,0)"/>
<path style="fill:none;stroke-width:1;stroke-linecap:square;stroke-linejoin:miter;stroke:rgb(0%,0%,0%);stroke-opacity:1;stroke-miterlimit:4;" d="M 182.09 159.563718 L 230 159.563718 " transform="matrix(-1.953125,0,0,2.605469,1000,0)"/>
<path style="fill-rule:nonzero;fill:rgb(85.490197%,0%,4.705882%);fill-opacity:1;stroke-width:1;stroke-linecap:square;stroke-linejoin:miter;stroke:rgb(0%,0%,0%);stroke-opacity:1;stroke-miterlimit:4;" d="M 261 156.812594 L 228.562 156.812594 L 218.782 161.530735 L 218.782 168.562219 L 261 168.562219 " transform="matrix(-1.953125,0,0,2.605469,1000,0)"/>
<path style="fill:none;stroke-width:1;stroke-linecap:butt;stroke-linejoin:miter;stroke:rgb(0%,0%,0%);stroke-opacity:1;stroke-miterlimit:4;" d="M 218.772 161.518741 L 262 161.518741 " transform="matrix(-1.953125,0,0,2.605469,1000,0)"/>
<path style="fill-rule:nonzero;fill:rgb(97.254902%,84.705883%,5.490196%);fill-opacity:1;stroke-width:0.768;stroke-linecap:round;stroke-linejoin:miter;stroke:rgb(0%,0%,0%);stroke-opacity:1;stroke-miterlimit:4;" d="M 273.296 150.031484 C 270.642 150.914543 268.244 152.4003 265.828 153.784108 C 262.728 155.616192 259.722 157.611694 256.924 159.883058 C 255.938 160.532234 254.994 161.242879 254.234 162.155922 C 253.208 163.032984 252.17 164.211394 252.366 165.668666 C 252.418 166.311844 253.24 164.913043 253.78 164.845577 C 254.722 164.304348 255.864 164.130435 256.922 164.374813 C 258.194 163.035982 259.832 162.13943 261.246 160.968516 C 264.252 158.727136 267.484 156.8006 270.772 155.007496 C 271.92 154.41979 273.072 153.821589 274.296 153.406297 C 273.964 152.28036 273.63 151.155922 273.296 150.031484 Z M 273.296 150.031484 " transform="matrix(1.953125,0,0,2.605469,0,0)"/>
<path style="fill:none;stroke-width:1;stroke-linecap:round;stroke-linejoin:miter;stroke:rgb(0%,0%,0%);stroke-opacity:1;stroke-miterlimit:4;" d="M 260.4 157.391304 L 260.4 161.302849 " transform="matrix(1.953125,0,0,2.605469,0,0)"/>
<path style="fill:none;stroke-width:1;stroke-linecap:round;stroke-linejoin:miter;stroke:rgb(0%,0%,0%);stroke-opacity:1;stroke-miterlimit:4;" d="M 262.816 155.685157 L 262.816 159.568216 " transform="matrix(1.953125,0,0,2.605469,0,0)"/>
<path style="fill:none;stroke-width:1;stroke-linecap:round;stroke-linejoin:miter;stroke:rgb(0%,0%,0%);stroke-opacity:1;stroke-miterlimit:4;" d="M 265.234 154.17991 L 265.234 158.037481 " transform="matrix(1.953125,0,0,2.605469,0,0)"/>
<path style="fill:none;stroke-width:1;stroke-linecap:round;stroke-linejoin:miter;stroke:rgb(0%,0%,0%);stroke-opacity:1;stroke-miterlimit:4;" d="M 267.65 152.694153 L 267.65 156.674663 " transform="matrix(1.953125,0,0,2.605469,0,0)"/>
<path style="fill-rule:nonzero;fill:rgb(97.254902%,84.705883%,5.490196%);fill-opacity:1;stroke-width:0.768;stroke-linecap:round;stroke-linejoin:miter;stroke:rgb(0%,0%,0%);stroke-opacity:1;stroke-miterlimit:4;" d="M 238.892 150.155922 C 238.496 151.26087 238.1 152.364318 237.704 153.467766 C 243.24 155.568216 248.512 158.347826 253.502 161.529235 C 255.192 162.67916 256.968 163.794603 258.298 165.374813 C 258.59 166.185907 257.784 166.863568 256.984 166.61919 C 256.25 166.370315 255.53 166.086957 254.756 166.614693 C 253.65 167.118441 252.65 168.757121 254.332 169.305847 C 256.646 170.86057 260.412 170.184408 261.526 167.46027 C 262.108 166.05997 262.144 164.265367 261.018 163.115442 C 258.956 160.752624 256.22 159.107946 253.596 157.443778 C 248.908 154.623688 244.024 152.070465 238.892 150.155922 Z M 238.892 150.155922 " transform="matrix(1.953125,0,0,2.605469,0,0)"/>
<path style="fill-rule:nonzero;fill:rgb(97.254902%,84.705883%,5.490196%);fill-opacity:1;stroke-width:1;stroke-linecap:round;stroke-linejoin:miter;stroke:rgb(0%,0%,0%);stroke-opacity:1;stroke-miterlimit:4;" d="M 254.05 158.034483 L 253.738 161.374813 " transform="matrix(1.953125,0,0,2.605469,0,0)"/>
<path style="fill-rule:nonzero;fill:rgb(97.254902%,84.705883%,5.490196%);fill-opacity:1;stroke-width:1;stroke-linecap:round;stroke-linejoin:miter;stroke:rgb(0%,0%,0%);stroke-opacity:1;stroke-miterlimit:4;" d="M 256.832 159.73913 L 255.97 163.008996 " transform="matrix(1.953125,0,0,2.605469,0,0)"/>
<path style="fill-rule:nonzero;fill:rgb(97.254902%,84.705883%,5.490196%);fill-opacity:1;stroke-width:1;stroke-linecap:round;stroke-linejoin:miter;stroke:rgb(0%,0%,0%);stroke-opacity:1;stroke-miterlimit:4;" d="M 259.804 162.011994 L 257.996 164.548726 " transform="matrix(1.953125,0,0,2.605469,0,0)"/>
<path style="fill-rule:nonzero;fill:rgb(97.254902%,84.705883%,5.490196%);fill-opacity:1;stroke-width:1;stroke-linecap:round;stroke-linejoin:miter;stroke:rgb(0%,0%,0%);stroke-opacity:1;stroke-miterlimit:4;" d="M 260.716 168.181409 L 258.106 166.77961 " transform="matrix(1.953125,0,0,2.605469,0,0)"/>
<path style="fill-rule:nonzero;fill:rgb(97.254902%,84.705883%,5.490196%);fill-opacity:1;stroke-width:1;stroke-linecap:round;stroke-linejoin:miter;stroke:rgb(0%,0%,0%);stroke-opacity:1;stroke-miterlimit:4;" d="M 261.528 165.428786 L 258.532 165.709145 " transform="matrix(1.953125,0,0,2.605469,0,0)"/>
<path style="fill-rule:nonzero;fill:rgb(97.254902%,84.705883%,5.490196%);fill-opacity:1;stroke-width:1;stroke-linecap:round;stroke-linejoin:miter;stroke:rgb(0%,0%,0%);stroke-opacity:1;stroke-miterlimit:4;" d="M 257.664 169.764618 L 257.46 167.131934 " transform="matrix(1.953125,0,0,2.605469,0,0)"/>
<path style="fill-rule:nonzero;fill:rgb(97.254902%,84.705883%,5.490196%);fill-opacity:1;stroke-width:1;stroke-linecap:round;stroke-linejoin:miter;stroke:rgb(0%,0%,0%);stroke-opacity:1;stroke-miterlimit:4;" d="M 256.568 166.755622 L 254.096 168.577211 " transform="matrix(1.953125,0,0,2.605469,0,0)"/>
<path style="fill:none;stroke-width:1;stroke-linecap:round;stroke-linejoin:miter;stroke:rgb(0%,0%,0%);stroke-opacity:1;stroke-miterlimit:4;" d="M 244.676 152.937031 L 244.676 156.052474 " transform="matrix(1.953125,0,0,2.605469,0,0)"/>
<path style="fill:none;stroke-width:1;stroke-linecap:round;stroke-linejoin:miter;stroke:rgb(0%,0%,0%);stroke-opacity:1;stroke-miterlimit:4;" d="M 250.964 156.244378 L 250.964 159.778111 " transform="matrix(1.953125,0,0,2.605469,0,0)"/>
<path style="fill:none;stroke-width:1;stroke-linecap:round;stroke-linejoin:miter;stroke:rgb(0%,0%,0%);stroke-opacity:1;stroke-miterlimit:4;" d="M 247.82 154.593703 L 247.82 157.911544 " transform="matrix(1.953125,0,0,2.605469,0,0)"/>
<path style="fill-rule:nonzero;fill:rgb(97.254902%,84.705883%,5.490196%);fill-opacity:1;stroke-width:1;stroke-linecap:butt;stroke-linejoin:miter;stroke:rgb(0%,0%,0%);stroke-opacity:1;stroke-miterlimit:4;" d="M 235.782 227.562219 L 235.782 235.593703 L 240.812 235.593703 L 240.812 231.562219 L 247.656 231.562219 L 247.656 235.593703 L 253.062 235.593703 L 253.062 227.562219 Z M 235.782 238.625187 L 235.782 246.688156 L 253.062 246.688156 L 253.062 238.625187 L 247.656 238.625187 L 247.656 242.656672 L 240.812 242.656672 L 240.812 238.625187 Z M 235.782 238.625187 " transform="matrix(1.953125,0,0,2.605469,0,0)"/>
<path style="fill-rule:nonzero;fill:rgb(97.254902%,84.705883%,5.490196%);fill-opacity:1;stroke-width:1;stroke-linecap:butt;stroke-linejoin:miter;stroke:rgb(0%,0%,0%);stroke-opacity:1;stroke-miterlimit:4;" d="M 253.052 193.652174 L 258.042 193.652174 L 258.042 251.766117 L 253.052 251.766117 Z M 253.052 193.652174 " transform="matrix(1.953125,0,0,2.605469,0,0)"/>
<path style="fill-rule:nonzero;fill:rgb(97.254902%,84.705883%,5.490196%);fill-opacity:1;stroke-width:1;stroke-linecap:butt;stroke-linejoin:miter;stroke:rgb(0%,0%,0%);stroke-opacity:1;stroke-miterlimit:4;" d="M 253.052 198.67916 L 258.042 198.67916 L 258.042 248.73913 L 253.052 248.73913 Z M 253.052 198.67916 " transform="matrix(1.953125,0,0,2.605469,0,0)"/>
<path style="fill-rule:nonzero;fill:rgb(97.254902%,84.705883%,5.490196%);fill-opacity:1;stroke-width:1.024;stroke-linecap:butt;stroke-linejoin:miter;stroke:rgb(0%,0%,0%);stroke-opacity:1;stroke-miterlimit:4;" d="M 255.546 179.406297 L 266.172 185.593703 L 255.546 191.749625 L 244.922 185.593703 Z M 241.328 183.374813 L 238.546 183.374813 L 238.546 187.812594 L 241.328 187.812594 L 255.546 196.062969 L 269.766 187.812594 L 272.546 187.812594 L 272.546 183.374813 L 269.766 183.374813 L 255.546 175.124438 Z M 241.328 183.374813 " transform="matrix(1.953125,0,0,2.605469,0,0)"/>
<path style="fill-rule:nonzero;fill:rgb(97.254902%,84.705883%,5.490196%);fill-opacity:1;stroke-width:1.024;stroke-linecap:butt;stroke-linejoin:miter;stroke:rgb(0%,0%,0%);stroke-opacity:1;stroke-miterlimit:4;" d="M 255.344 164.28036 C 252.926 164.62069 251.118 167.010495 251.25 169.415292 C 251.26 173.152924 251.232 176.892054 251.264 180.628186 C 251.392 183.037481 253.496 185.194903 255.938 185.217391 C 257.924 185.404798 259.918 184.244378 260.75 182.437781 C 260.178 182.092954 259.604 181.749625 259.032 181.406297 C 258.588 182.589205 257.308 183.323838 256.062 183.187406 C 254.428 183.233883 253.104 181.643178 253.25 180.052474 C 253.26 176.34033 253.232 172.625187 253.264 168.913043 C 253.354 167.397301 254.8 166.157421 256.312 166.311844 C 256.94 166.131934 257.8 166.989505 258.188 166.250375 C 258.772 165.41979 257.774 164.772114 257.218 164.311844 C 256.606 164.227886 255.964 164.304348 255.344 164.28036 Z M 261.126 168.187406 C 260.728 168.932534 259.908 169.376312 259.25 169.767616 L 259.25 177.28036 C 259.916 177.667166 260.584 178.052474 261.25 178.437781 C 261.242 175.233883 261.266 172.028486 261.238 168.826087 C 261.208 168.628186 261.23 168.326837 261.126 168.187406 Z M 261.126 168.187406 " transform="matrix(1.953125,0,0,2.605469,0,0)"/>
<path style=" stroke:none;fill-rule:nonzero;fill:rgb(0%,0%,0%);fill-opacity:1;" d="M 470.320312 99.921875 L 527.601562 99.921875 L 527.601562 238.675781 L 470.320312 238.675781 Z M 470.320312 99.921875 "/>
<path style="fill-rule:nonzero;fill:rgb(85.490197%,0%,4.705882%);fill-opacity:1;stroke-width:1;stroke-linecap:butt;stroke-linejoin:miter;stroke:rgb(0%,0%,0%);stroke-opacity:1;stroke-miterlimit:4;" d="M 238.75 38.374813 L 238.75 82.937031 L 248.062 82.937031 L 248.062 69.718141 C 248.062 66.670165 250.016 62.437781 256 62.437781 C 261.984 62.437781 263.938 66.670165 263.938 69.718141 L 263.938 82.937031 L 273.25 82.937031 L 273.25 38.374813 Z M 254.562 43.374813 L 257.438 43.374813 L 257.438 58.625187 L 254.562 58.625187 Z M 246.312 46.374813 L 249.218 46.374813 L 249.218 57.530735 L 246.312 57.530735 Z M 262.782 46.374813 L 265.688 46.374813 L 265.688 57.530735 L 262.782 57.530735 Z M 262.782 46.374813 " transform="matrix(1.953125,0,0,2.605469,0,0)"/>
<path style="fill-rule:nonzero;fill:rgb(85.490197%,0%,4.705882%);fill-opacity:1;stroke-width:1;stroke-linecap:butt;stroke-linejoin:miter;stroke:rgb(0%,0%,0%);stroke-opacity:1;stroke-miterlimit:4;" d="M 235.594 31.968516 L 235.594 38.311844 L 276.406 38.311844 L 276.406 31.968516 Z M 235.594 31.968516 " transform="matrix(1.953125,0,0,2.605469,0,0)"/>
<path style="fill-rule:nonzero;fill:rgb(85.490197%,0%,4.705882%);fill-opacity:1;stroke-width:1;stroke-linecap:butt;stroke-linejoin:miter;stroke:rgb(0%,0%,0%);stroke-opacity:1;stroke-miterlimit:4;" d="M 231.75 24.593703 L 231.75 31.968516 L 280.25 31.968516 L 280.25 24.593703 L 274.156 24.593703 L 274.156 28.656672 L 267.282 28.656672 L 267.282 24.593703 L 259.438 24.593703 L 259.438 28.656672 L 252.562 28.656672 L 252.562 24.593703 L 244.718 24.593703 L 244.718 28.656672 L 237.844 28.656672 L 237.844 24.593703 Z M 231.75 24.593703 " transform="matrix(1.953125,0,0,2.605469,0,0)"/>
<path style="fill-rule:nonzero;fill:rgb(85.490197%,0%,4.705882%);fill-opacity:1;stroke-width:1;stroke-linecap:butt;stroke-linejoin:miter;stroke:rgb(0%,0%,0%);stroke-opacity:1;stroke-miterlimit:4;" d="M 222.75 97.844078 L 222.75 102.437781 L 289.25 102.437781 L 289.25 97.844078 Z M 222.75 97.844078 " transform="matrix(1.953125,0,0,2.605469,0,0)"/>
<path style="fill-rule:nonzero;fill:rgb(85.490197%,0%,4.705882%);fill-opacity:1;stroke-width:1;stroke-linecap:butt;stroke-linejoin:miter;stroke:rgb(0%,0%,0%);stroke-opacity:1;stroke-miterlimit:4;" d="M 220.032 82.905547 L 220.032 97.844078 L 291.968 97.844078 L 291.968 82.905547 L 285.156 82.905547 L 285.156 88.656672 L 276.094 88.656672 L 276.094 82.905547 L 263.938 82.905547 L 263.938 88.656672 L 248.062 88.656672 L 248.062 82.905547 L 235.906 82.905547 L 235.906 88.656672 L 226.844 88.656672 L 226.844 82.905547 Z M 220.032 82.905547 " transform="matrix(1.953125,0,0,2.605469,0,0)"/>
<path style="fill-rule:nonzero;fill:rgb(85.490197%,0%,4.705882%);fill-opacity:1;stroke-width:1;stroke-linecap:butt;stroke-linejoin:round;stroke:rgb(0%,0%,0%);stroke-opacity:1;stroke-miterlimit:4;" d="M 228.688 102.437781 L 228.688 156.781109 L 241.532 156.781109 L 241.532 136.437781 C 241.532 126.854573 247.928 122.343328 256 122.343328 C 263.758 122.343328 270.468 126.854573 270.468 136.437781 L 270.468 156.781109 L 283.312 156.781109 L 283.312 102.437781 Z M 228.688 102.437781 " transform="matrix(1.953125,0,0,2.605469,0,0)"/>
</g>
</svg>
