<?xml version="1.0" encoding="UTF-8"?>
<svg xmlns="http://www.w3.org/2000/svg" xmlns:xlink="http://www.w3.org/1999/xlink" width="1000px" height="667px" viewBox="0 0 1000 667" version="1.1">
<g id="surface1">
<rect x="0" y="0" width="1000" height="667" style="fill:rgb(89.019608%,12.941177%,9.411765%);fill-opacity:1;stroke:none;"/>
<path style=" stroke:none;fill-rule:nonzero;fill:rgb(100%,100%,100%);fill-opacity:1;" d="M 0 0 L 1000 0 L 1000 444.667969 L 0 444.667969 Z M 0 0 "/>
<path style=" stroke:none;fill-rule:nonzero;fill:rgb(24.313726%,60.392159%,0%);fill-opacity:1;" d="M 0 0 L 1000 0 L 1000 222.332031 L 0 222.332031 Z M 0 0 "/>
<path style=" stroke:none;fill-rule:nonzero;fill:rgb(0%,45.09804%,80.784315%);fill-opacity:1;" d="M 0 0 L 0 667 L 250 333.5 Z M 0 0 "/>
<path style="fill-rule:nonzero;fill:rgb(100%,100%,100%);fill-opacity:1;stroke-width:4.8;stroke-linecap:butt;stroke-linejoin:miter;stroke:rgb(0%,0%,0%);stroke-opacity:1;stroke-miterlimit:4;" d="M 1608.004687 958.79404 L 1990.996875 958.79404 L 1990.996875 1359.993441 C 1990.996875 1494.996252 1815.004687 1390.999813 1800 1463.005997 C 1773.998437 1389.003936 1609.003125 1495.99419 1609.003125 1351.995877 C 1609.003125 1212.003373 1608.004687 958.79404 1608.004687 958.79404 Z M 1608.004687 958.79404 " transform="matrix(0.277778,0,0,0.277917,0,0)"/>
<path style="fill-rule:nonzero;fill:rgb(45.09804%,27.058825%,16.862746%);fill-opacity:1;stroke-width:1;stroke-linecap:butt;stroke-linejoin:miter;stroke:rgb(0%,0%,0%);stroke-opacity:1;stroke-miterlimit:4;" d="M 1827 1398.997376 C 1827 1398.997376 1821.99375 1404.001124 1812.99375 1399.995315 C 1803.99375 1396.003561 1802.995312 1143.00506 1802.995312 1143.00506 C 1823.00625 1120.99419 1838.995312 1113.994565 1838.995312 1113.994565 C 1838.995312 1113.994565 1851.004687 1124.002061 1851.004687 1124.002061 C 1806.004687 1146.996814 1809.998437 1179.999063 1814.00625 1236.994003 C 1815.004687 1258.006934 1815.004687 1284.993441 1819.996875 1310.996064 C 1827 1343.998313 1841.00625 1371.996814 1842.004687 1392.99569 C 1843.003125 1405.997001 1827 1398.997376 1827 1398.997376 Z M 1827 1398.997376 " transform="matrix(0.277778,0,0,0.277917,0,0)"/>
<path style="fill-rule:nonzero;fill:rgb(45.09804%,27.058825%,16.862746%);fill-opacity:1;stroke-width:1;stroke-linecap:butt;stroke-linejoin:miter;stroke:rgb(0%,0%,0%);stroke-opacity:1;stroke-miterlimit:4;" d="M 1796.00625 1108.006934 L 1814.00625 1108.006934 C 1799.001562 1253.003186 1811.995312 1338.994565 1811.995312 1381.006372 C 1811.995312 1395.005622 1819.996875 1399.995315 1818.998437 1399.995315 C 1800.998437 1419.996252 1791.998437 1398.997376 1791.998437 1398.997376 Z M 1796.00625 1108.006934 " transform="matrix(0.277778,0,0,0.277917,0,0)"/>
<path style="fill-rule:nonzero;fill:rgb(63.921571%,40.000001%,16.078432%);fill-opacity:1;stroke-width:1;stroke-linecap:butt;stroke-linejoin:miter;stroke:rgb(0%,0%,0%);stroke-opacity:1;stroke-miterlimit:4;" d="M 1767.99375 1398.997376 C 1751.00625 1406.99494 1748.995312 1390.999813 1749.99375 1389.003936 C 1787.00625 1314.003936 1802.995312 1149.006747 1769.00625 1131.001687 C 1769.00625 1131.001687 1771.003125 1115.006559 1771.003125 1115.006559 C 1783.996875 1118.998313 1796.00625 1136.005435 1796.00625 1136.005435 C 1800.998437 1321.003561 1796.00625 1397.001499 1792.996875 1399.995315 C 1774.996875 1418.998313 1767.99375 1397.001499 1766.995312 1395.005622 " transform="matrix(0.277778,0,0,0.277917,0,0)"/>
<path style="fill:none;stroke-width:1;stroke-linecap:butt;stroke-linejoin:miter;stroke:rgb(0%,0%,0%);stroke-opacity:1;stroke-miterlimit:4;" d="M 1766.995312 1396.003561 C 1764 1379.994378 1792.996875 1338.994565 1791 1295.998876 " transform="matrix(0.277778,0,0,0.277917,0,0)"/>
<path style="fill:none;stroke-width:1;stroke-linecap:butt;stroke-linejoin:miter;stroke:rgb(0%,0%,0%);stroke-opacity:1;stroke-miterlimit:4;" d="M 1816.003125 1330.997001 C 1825.003125 1356.001687 1828.996875 1377.998501 1827 1398.997376 " transform="matrix(0.277778,0,0,0.277917,0,0)"/>
<path style="fill-rule:nonzero;fill:rgb(0%,60.392159%,23.137255%);fill-opacity:1;stroke-width:1;stroke-linecap:butt;stroke-linejoin:miter;stroke:rgb(0%,0%,0%);stroke-opacity:1;stroke-miterlimit:4;" d="M 1854.998437 1040.006559 C 1861.003125 1033.006934 1861.003125 1033.006934 1872 1033.006934 C 1873.996875 1017.99569 1899 1017.99569 1900.996875 1036.998688 C 1920.99375 1033.006934 1925.001562 1044.996252 1917 1056.999625 C 1935.998437 1051.995877 1953 1056.999625 1947.99375 1078.996439 C 1981.996875 1088.005997 1969.003125 1111.998688 1953.998437 1117.002436 C 1952.001562 1131.999625 1937.995312 1137.003373 1918.996875 1131.001687 C 1895.00625 1147.994753 1881 1141.993066 1870.003125 1125 C 1843.003125 1129.00581 1841.00625 1123.004123 1828.996875 1108.006934 C 1808.001562 1117.002436 1803.99375 1117.002436 1785.99375 1105.997001 C 1784.995312 1119.996252 1780.003125 1116.004498 1771.003125 1115.006559 C 1772.001562 1132.997564 1764.998437 1140.995127 1748.995312 1134.993441 C 1761.004687 1159.998126 1729.996875 1171.003561 1715.00625 1150.004685 C 1701 1151.002624 1700.001562 1146.996814 1692.998437 1141.993066 C 1686.99375 1161.994003 1665 1159.000187 1661.00625 1147.994753 C 1632.99375 1144.002999 1636.003125 1129.00581 1658.995312 1127.993816 C 1661.00625 1111.998688 1674.998437 1115.006559 1683.998437 1117.002436 C 1684.996875 1106.99494 1691.001562 1109.004873 1695.99375 1111.00075 C 1692.998437 1104.001124 1694.995312 1099.995315 1703.995312 1097.999438 C 1691.001562 1081.006372 1699.003125 1075.004685 1711.996875 1069.002999 C 1704.99375 1052.993816 1717.003125 1054.00581 1726.003125 1052.993816 C 1725.004687 1036.00075 1729.996875 1033.006934 1747.996875 1030.997001 C 1746 1024.995315 1748.995312 1020.005622 1758.99375 1020.005622 C 1753.003125 1002.998501 1761.004687 999.105135 1779.004687 1002.000562 C 1782 977.305097 1835.001562 988.99925 1830.99375 1022.999438 C 1845.998437 1024.995315 1851.004687 1028.003186 1854.998437 1040.006559 Z M 1854.998437 1040.006559 " transform="matrix(0.277778,0,0,0.277917,0,0)"/>
<path style="fill:none;stroke-width:1;stroke-linecap:butt;stroke-linejoin:miter;stroke:rgb(0%,0%,0%);stroke-opacity:1;stroke-miterlimit:4;" d="M 1747.996875 1030.997001 C 1752.004687 1033.006934 1756.996875 1030.997001 1757.995312 1042.002436 C 1765.996875 1028.003186 1775.995312 1036.00075 1775.995312 1051.995877 " transform="matrix(0.277778,0,0,0.277917,0,0)"/>
<path style="fill:none;stroke-width:1;stroke-linecap:butt;stroke-linejoin:miter;stroke:rgb(0%,0%,0%);stroke-opacity:1;stroke-miterlimit:4;" d="M 1830.99375 1022.999438 C 1827 1029.001124 1811.995312 1029.001124 1814.00625 1044.996252 C 1809 1037.996627 1799.001562 1036.00075 1794.99375 1043.000375 " transform="matrix(0.277778,0,0,0.277917,0,0)"/>
<path style="fill:none;stroke-width:1;stroke-linecap:butt;stroke-linejoin:miter;stroke:rgb(0%,0%,0%);stroke-opacity:1;stroke-miterlimit:4;" d="M 1854.998437 1040.006559 C 1854.998437 1043.998313 1854 1056.001687 1850.00625 1062.003373 " transform="matrix(0.277778,0,0,0.277917,0,0)"/>
<path style="fill:none;stroke-width:1;stroke-linecap:butt;stroke-linejoin:miter;stroke:rgb(0%,0%,0%);stroke-opacity:1;stroke-miterlimit:4;" d="M 1917 1056.999625 C 1917.998437 1057.997564 1902.99375 1056.999625 1896.004687 1062.003373 " transform="matrix(0.277778,0,0,0.277917,0,0)"/>
<path style="fill:none;stroke-width:1;stroke-linecap:butt;stroke-linejoin:miter;stroke:rgb(0%,0%,0%);stroke-opacity:1;stroke-miterlimit:4;" d="M 1953.998437 1117.002436 C 1950.004687 1115.006559 1942.003125 1110.002811 1935.998437 1118.000375 C 1935.998437 1113.994565 1935.998437 1103.003186 1925.001562 1103.003186 " transform="matrix(0.277778,0,0,0.277917,0,0)"/>
<path style="fill:none;stroke-width:1;stroke-linecap:butt;stroke-linejoin:miter;stroke:rgb(0%,0%,0%);stroke-opacity:1;stroke-miterlimit:4;" d="M 1918.996875 1131.001687 C 1918.996875 1120.99419 1917 1118.000375 1915.003125 1115.006559 " transform="matrix(0.277778,0,0,0.277917,0,0)"/>
<path style="fill:none;stroke-width:1;stroke-linecap:butt;stroke-linejoin:miter;stroke:rgb(0%,0%,0%);stroke-opacity:1;stroke-miterlimit:4;" d="M 1886.00625 1117.002436 C 1878.004687 1111.00075 1870.003125 1119.996252 1870.003125 1125 " transform="matrix(0.277778,0,0,0.277917,0,0)"/>
<path style="fill:none;stroke-width:1;stroke-linecap:butt;stroke-linejoin:miter;stroke:rgb(0%,0%,0%);stroke-opacity:1;stroke-miterlimit:4;" d="M 1827.998437 1108.006934 C 1827.998437 1104.001124 1825.003125 1096.003561 1832.00625 1092.99569 " transform="matrix(0.277778,0,0,0.277917,0,0)"/>
<path style="fill:none;stroke-width:1;stroke-linecap:butt;stroke-linejoin:miter;stroke:rgb(0%,0%,0%);stroke-opacity:1;stroke-miterlimit:4;" d="M 1713.99375 1150.004685 C 1716.004687 1139.997189 1722.99375 1139.997189 1721.995312 1134.993441 C 1720.996875 1126.995877 1711.996875 1119.996252 1701 1131.001687 " transform="matrix(0.277778,0,0,0.277917,0,0)"/>
<path style="fill:none;stroke-width:1;stroke-linecap:butt;stroke-linejoin:miter;stroke:rgb(0%,0%,0%);stroke-opacity:1;stroke-miterlimit:4;" d="M 1721.995312 1134.993441 C 1728 1132.997564 1734.004687 1133.995502 1736.001562 1137.003373 " transform="matrix(0.277778,0,0,0.277917,0,0)"/>
<path style="fill:none;stroke-width:1;stroke-linecap:butt;stroke-linejoin:miter;stroke:rgb(0%,0%,0%);stroke-opacity:1;stroke-miterlimit:4;" d="M 1704.99375 1097.999438 C 1709.001562 1093.993628 1719 1095.005622 1725.004687 1097.999438 " transform="matrix(0.277778,0,0,0.277917,0,0)"/>
<path style="fill:none;stroke-width:1;stroke-linecap:butt;stroke-linejoin:miter;stroke:rgb(0%,0%,0%);stroke-opacity:1;stroke-miterlimit:4;" d="M 1725.004687 1074.006747 C 1729.996875 1074.006747 1738.996875 1071.996814 1742.00625 1081.006372 C 1753.003125 1063.99925 1761.004687 1065.995127 1763.001562 1070.000937 " transform="matrix(0.277778,0,0,0.277917,0,0)"/>
<path style="fill:none;stroke-width:1;stroke-linecap:butt;stroke-linejoin:miter;stroke:rgb(0%,0%,0%);stroke-opacity:1;stroke-miterlimit:4;" d="M 1782.998437 1068.00506 C 1791 1064.997189 1805.00625 1072.994753 1812.99375 1086.994003 C 1817.001562 1076.002624 1823.00625 1077.998501 1828.996875 1077.000562 " transform="matrix(0.277778,0,0,0.277917,0,0)"/>
<path style="fill:none;stroke-width:1;stroke-linecap:butt;stroke-linejoin:miter;stroke:rgb(0%,0%,0%);stroke-opacity:1;stroke-miterlimit:4;" d="M 1866.99375 1086.994003 C 1880.001562 1081.006372 1888.003125 1092.99569 1891.996875 1097.999438 C 1898.001562 1090.001874 1902.99375 1090.001874 1908.998437 1090.001874 " transform="matrix(0.277778,0,0,0.277917,0,0)"/>
<path style="fill:none;stroke-width:1;stroke-linecap:butt;stroke-linejoin:miter;stroke:rgb(0%,0%,0%);stroke-opacity:1;stroke-miterlimit:4;" d="M 1746 1111.00075 C 1748.995312 1105.997001 1755.998437 1104.999063 1761.004687 1108.006934 C 1760.00625 1098.997376 1765.996875 1095.005622 1770.004687 1097.001499 " transform="matrix(0.277778,0,0,0.277917,0,0)"/>
<path style="fill-rule:nonzero;fill:rgb(100%,84.313726%,0%);fill-opacity:1;stroke-width:3.5;stroke-linecap:butt;stroke-linejoin:miter;stroke:rgb(0%,0%,0%);stroke-opacity:1;stroke-miterlimit:4;" d="M 1787.00625 902.600262 L 1764.998437 903.598201 L 1754.001562 923.303973 L 1742.00625 904.497751 L 1719.998437 905.397301 L 1729.996875 885.593141 L 1718.001562 866.800975 L 1740.99375 865.803036 L 1751.00625 846.097264 L 1763.001562 864.903486 L 1784.995312 864.003936 L 1774.996875 883.79404 Z M 1787.00625 902.600262 " transform="matrix(0.277778,0,0,0.277917,0,0)"/>
<path style="fill-rule:nonzero;fill:rgb(100%,84.313726%,0%);fill-opacity:1;stroke-width:3.5;stroke-linecap:butt;stroke-linejoin:miter;stroke:rgb(0%,0%,0%);stroke-opacity:1;stroke-miterlimit:4;" d="M 1692.998437 909.895052 L 1671.004687 915.306409 L 1665 936.60045 L 1648.996875 920.605322 L 1628.001562 925.805847 L 1634.00625 904.497751 L 1619.001562 888.305847 L 1639.996875 883.006934 L 1646.001562 861.60045 L 1662.004687 877.595577 L 1683.998437 872.395052 L 1676.995312 893.801537 Z M 1692.998437 909.895052 " transform="matrix(0.277778,0,0,0.277917,0,0)"/>
<path style="fill-rule:nonzero;fill:rgb(100%,84.313726%,0%);fill-opacity:1;stroke-width:3.5;stroke-linecap:butt;stroke-linejoin:miter;stroke:rgb(0%,0%,0%);stroke-opacity:1;stroke-miterlimit:4;" d="M 1602 928.602886 L 1582.003125 938.497939 L 1581.004687 960.705585 L 1562.00625 948.505435 L 1541.995312 958.302099 L 1544.00625 936.094453 L 1524.99375 923.795915 L 1545.004687 913.802474 L 1547.001562 891.594828 L 1565.001562 903.794978 L 1584.998437 893.998313 L 1584 916.20596 Z M 1602 928.602886 " transform="matrix(0.277778,0,0,0.277917,0,0)"/>
<path style="fill-rule:nonzero;fill:rgb(100%,84.313726%,0%);fill-opacity:1;stroke-width:3.5;stroke-linecap:butt;stroke-linejoin:miter;stroke:rgb(0%,0%,0%);stroke-opacity:1;stroke-miterlimit:4;" d="M 1816.003125 902.600262 L 1837.996875 903.598201 L 1847.995312 923.303973 L 1860.004687 904.497751 L 1881.998437 905.397301 L 1872 885.593141 L 1883.995312 866.800975 L 1862.001562 865.803036 L 1851.004687 846.097264 L 1838.995312 864.903486 L 1817.001562 864.003936 L 1827 883.79404 Z M 1816.003125 902.600262 " transform="matrix(0.277778,0,0,0.277917,0,0)"/>
<path style="fill-rule:nonzero;fill:rgb(100%,84.313726%,0%);fill-opacity:1;stroke-width:3.5;stroke-linecap:butt;stroke-linejoin:miter;stroke:rgb(0%,0%,0%);stroke-opacity:1;stroke-miterlimit:4;" d="M 1909.996875 909.895052 L 1931.00625 915.306409 L 1936.996875 936.60045 L 1953 920.605322 L 1973.995312 925.805847 L 1968.004687 904.497751 L 1983.99375 888.305847 L 1962 883.006934 L 1955.995312 861.60045 L 1940.00625 877.595577 L 1918.996875 872.395052 L 1925.001562 893.801537 Z M 1909.996875 909.895052 " transform="matrix(0.277778,0,0,0.277917,0,0)"/>
<path style="fill-rule:nonzero;fill:rgb(100%,84.313726%,0%);fill-opacity:1;stroke-width:3.5;stroke-linecap:butt;stroke-linejoin:miter;stroke:rgb(0%,0%,0%);stroke-opacity:1;stroke-miterlimit:4;" d="M 1999.996875 928.602886 L 2019.99375 938.497939 L 2021.00625 960.705585 L 2040.004687 948.505435 L 2060.001562 958.302099 L 2059.003125 936.094453 L 2077.003125 923.795915 L 2057.00625 913.802474 L 2055.99375 891.594828 L 2036.995312 903.794978 L 2016.998437 893.998313 L 2018.995312 916.20596 Z M 1999.996875 928.602886 " transform="matrix(0.277778,0,0,0.277917,0,0)"/>
<path style="fill-rule:nonzero;fill:rgb(100%,100%,100%);fill-opacity:1;stroke-width:3.5;stroke-linecap:butt;stroke-linejoin:miter;stroke:rgb(0%,0%,0%);stroke-opacity:1;stroke-miterlimit:4;" d="M 2026.996875 1351.995877 L 2052 1388.005997 L 2075.00625 1354.00581 L 2059.003125 1324.995315 Z M 2026.996875 1351.995877 " transform="matrix(0.277778,0,0,0.277917,0,0)"/>
<path style="fill-rule:nonzero;fill:rgb(100%,100%,100%);fill-opacity:1;stroke-width:3.5;stroke-linecap:butt;stroke-linejoin:miter;stroke:rgb(0%,0%,0%);stroke-opacity:1;stroke-miterlimit:4;" d="M 1868.00625 1457.00431 L 1870.003125 1493.000375 C 1870.003125 1493.000375 1880.001562 1493.000375 1889.001562 1490.006559 C 1897.003125 1486.998688 1904.00625 1480.997001 1904.00625 1480.997001 L 1902.99375 1461.994003 Z M 1868.00625 1457.00431 " transform="matrix(0.277778,0,0,0.277917,0,0)"/>
<path style="fill-rule:nonzero;fill:rgb(100%,100%,100%);fill-opacity:1;stroke-width:3.5;stroke-linecap:butt;stroke-linejoin:miter;stroke:rgb(0%,0%,0%);stroke-opacity:1;stroke-miterlimit:4;" d="M 1734.004687 1457.00431 L 1731.99375 1492.002436 C 1731.99375 1492.002436 1722.99375 1492.002436 1713.99375 1490.006559 C 1706.00625 1487.996627 1699.003125 1483.006934 1699.003125 1483.006934 L 1689.004687 1459.000187 Z M 1734.004687 1457.00431 " transform="matrix(0.277778,0,0,0.277917,0,0)"/>
<path style="fill-rule:nonzero;fill:rgb(100%,100%,100%);fill-opacity:1;stroke-width:3.5;stroke-linecap:butt;stroke-linejoin:miter;stroke:rgb(0%,0%,0%);stroke-opacity:1;stroke-miterlimit:4;" d="M 1573.003125 1351.995877 L 1547.001562 1388.005997 L 1519.003125 1342.002436 L 1539.998437 1320.005622 Z M 1573.003125 1351.995877 " transform="matrix(0.277778,0,0,0.277917,0,0)"/>
<path style="fill-rule:nonzero;fill:rgb(100%,100%,100%);fill-opacity:1;stroke-width:3.5;stroke-linecap:butt;stroke-linejoin:miter;stroke:rgb(0%,0%,0%);stroke-opacity:1;stroke-miterlimit:4;" d="M 1698.004687 1528.996439 C 1698.004687 1562.996627 1904.00625 1562.996627 1904.00625 1528.996439 L 1904.00625 1480.997001 C 1904.00625 1506.001687 1698.004687 1500.997939 1698.004687 1480.997001 Z M 1698.004687 1528.996439 " transform="matrix(0.277778,0,0,0.277917,0,0)"/>
<path style="fill-rule:nonzero;fill:rgb(100%,100%,100%);fill-opacity:1;stroke-width:3.5;stroke-linecap:butt;stroke-linejoin:miter;stroke:rgb(0%,0%,0%);stroke-opacity:1;stroke-miterlimit:4;" d="M 1513.996875 1418.000375 C 1531.996875 1509.993441 1698.004687 1512.003373 1698.004687 1512.003373 C 1698.004687 1512.003373 1698.004687 1480.997001 1698.004687 1480.997001 C 1693.996875 1468.993628 1701 1465.001874 1728 1460.996064 C 1738.996875 1459.998126 1734.004687 1444.002999 1734.004687 1444.002999 C 1734.004687 1444.002999 1662.004687 1457.00431 1611 1437.003373 C 1541.995312 1409.004873 1531.996875 1355.003748 1531.996875 1355.003748 C 1531.996875 1355.003748 1527.004687 1397.001499 1513.996875 1418.000375 Z M 1513.996875 1418.000375 " transform="matrix(0.277778,0,0,0.277917,0,0)"/>
<path style="fill-rule:nonzero;fill:rgb(100%,100%,100%);fill-opacity:1;stroke-width:3.5;stroke-linecap:butt;stroke-linejoin:miter;stroke:rgb(0%,0%,0%);stroke-opacity:1;stroke-miterlimit:4;" d="M 2087.001562 1418.000375 C 2070 1509.993441 1904.00625 1512.003373 1904.00625 1512.003373 C 1904.00625 1512.003373 1904.00625 1480.997001 1904.00625 1480.997001 C 1907.001562 1468.993628 1899.998437 1465.001874 1872.998437 1460.996064 C 1862.001562 1459.998126 1868.00625 1444.002999 1868.00625 1444.002999 C 1868.00625 1444.002999 1940.00625 1457.00431 1990.996875 1437.003373 C 2059.003125 1409.004873 2067.004687 1355.003748 2067.004687 1355.003748 C 2067.004687 1355.003748 2073.99375 1397.001499 2087.001562 1418.000375 Z M 2087.001562 1418.000375 " transform="matrix(0.277778,0,0,0.277917,0,0)"/>
<path style="fill-rule:nonzero;fill:rgb(100%,100%,100%);fill-opacity:1;stroke-width:3.5;stroke-linecap:butt;stroke-linejoin:miter;stroke:rgb(0%,0%,0%);stroke-opacity:1;stroke-miterlimit:4;" d="M 1527.004687 1383.002249 C 1481.00625 1357.997564 1517.00625 1331.99494 1521 1258.006934 C 1528.003125 1302.998501 1578.99375 1322.001499 1573.003125 1350.997939 C 1551.99375 1351.995877 1541.995312 1320.005622 1531.996875 1355.003748 C 1531.996875 1355.003748 1527.004687 1383.002249 1527.004687 1383.002249 Z M 1527.004687 1383.002249 " transform="matrix(0.277778,0,0,0.277917,0,0)"/>
<path style="fill-rule:nonzero;fill:rgb(100%,100%,100%);fill-opacity:1;stroke-width:3.5;stroke-linecap:butt;stroke-linejoin:miter;stroke:rgb(0%,0%,0%);stroke-opacity:1;stroke-miterlimit:4;" d="M 2073.99375 1383.002249 C 2120.00625 1356.999625 2081.995312 1331.99494 2078.001562 1258.006934 C 2070.998437 1302.998501 2021.00625 1322.001499 2026.996875 1350.997939 C 2046.99375 1351.995877 2057.00625 1320.005622 2067.004687 1355.003748 C 2067.004687 1355.003748 2073.99375 1382.00431 2073.99375 1382.00431 Z M 2073.99375 1383.002249 " transform="matrix(0.277778,0,0,0.277917,0,0)"/>
<path style=" stroke:none;fill-rule:nonzero;fill:rgb(0%,0%,0%);fill-opacity:1;" d="M 431.945312 393.808594 L 433.332031 394.917969 L 430.277344 398.253906 C 429.054688 399.589844 428.757812 400.472656 429.609375 401.285156 C 430.664062 402.292969 431.40625 401.945312 432.5 400.753906 L 435.832031 397.144531 L 436.945312 398.253906 L 433.613281 402.140625 C 431.804688 404.253906 430.128906 403.769531 428.71875 402.453125 C 427.492188 401.308594 426.789062 399.648438 428.59375 397.605469 L 431.957031 393.824219 Z M 431.945312 393.808594 "/>
<path style=" stroke:none;fill-rule:nonzero;fill:rgb(0%,0%,0%);fill-opacity:1;" d="M 437.5 398.53125 L 438.890625 399.367188 L 438.609375 406.035156 L 441.667969 401.3125 L 443.054688 402.144531 L 438.609375 409.371094 L 436.945312 408.539062 L 437.222656 401.867188 L 434.167969 406.59375 L 432.777344 405.757812 Z M 437.5 398.53125 "/>
<path style=" stroke:none;fill-rule:nonzero;fill:rgb(0%,0%,0%);fill-opacity:1;" d="M 440 410.203125 L 443.890625 402.421875 L 445.277344 403.257812 L 441.667969 410.761719 Z M 440 410.203125 "/>
<path style=" stroke:none;fill-rule:nonzero;fill:rgb(0%,0%,0%);fill-opacity:1;" d="M 446.109375 403.535156 L 443.042969 411.589844 L 446.109375 412.707031 C 448.96875 413.75 450.3125 412.488281 451.21875 410.070312 C 452.136719 407.613281 451.734375 405.804688 448.878906 404.652344 Z M 447.210938 405.484375 C 450.085938 406.488281 450.261719 407.578125 449.476562 409.554688 C 448.71875 411.429688 448.011719 412.164062 445.277344 410.753906 Z M 447.210938 405.484375 "/>
<path style=" stroke:none;fill-rule:nonzero;fill:rgb(0%,0%,0%);fill-opacity:1;" d="M 455.277344 406.59375 L 450.277344 414.097656 L 452.210938 414.664062 L 453.328125 412.710938 L 456.660156 413.546875 L 456.945312 415.496094 L 458.878906 415.761719 L 456.945312 406.875 Z M 455.828125 408.542969 L 456.378906 411.878906 L 454.160156 411.59375 Z M 455.828125 408.542969 "/>
<path style=" stroke:none;fill-rule:nonzero;fill:rgb(0%,0%,0%);fill-opacity:1;" d="M 460.027344 407.316406 L 459.726562 415.925781 L 462.996094 415.992188 C 466.035156 416.050781 466.898438 414.429688 466.972656 411.847656 C 467.050781 409.222656 466.082031 407.636719 463.003906 407.480469 Z M 461.695312 408.808594 C 464.742188 408.820312 465.261719 409.792969 465.15625 411.921875 C 465.054688 413.941406 464.613281 414.863281 461.574219 414.414062 Z M 461.695312 408.808594 "/>
<path style=" stroke:none;fill-rule:nonzero;fill:rgb(0%,0%,0%);fill-opacity:1;" d="M 489.167969 419.375 L 489.167969 428.265625 L 491.117188 428.265625 L 491.117188 424.929688 C 491.117188 424.929688 492.785156 425.027344 494.167969 424.664062 C 495.257812 424.378906 496.015625 423.679688 496.042969 421.953125 C 496.066406 420.261719 495.082031 419.375 493.382812 419.375 L 489.160156 419.375 Z M 491.117188 420.761719 L 493.074219 420.785156 C 494.707031 420.785156 494.398438 423.261719 493.125 423.261719 L 491.117188 423.261719 Z M 491.117188 420.761719 "/>
<path style=" stroke:none;fill-rule:nonzero;fill:rgb(0%,0%,0%);fill-opacity:1;" d="M 499.167969 419.375 L 495.550781 428.265625 L 497.5 428.265625 L 498.332031 426.046875 L 501.949219 426.046875 L 502.785156 428.265625 L 504.714844 428.265625 L 501.105469 419.371094 L 499.160156 419.371094 Z M 500 421.328125 L 501.382812 424.664062 L 498.882812 424.664062 Z M 500 421.328125 "/>
<path style=" stroke:none;fill-rule:nonzero;fill:rgb(0%,0%,0%);fill-opacity:1;" d="M 504.722656 426.601562 L 509.445312 420.765625 L 505.277344 420.765625 L 505.277344 419.375 L 511.945312 419.375 L 511.945312 420.765625 L 506.945312 426.601562 L 511.945312 426.601562 L 511.945312 428.269531 L 504.722656 428.269531 Z M 504.722656 426.601562 "/>
<path style=" stroke:none;fill-rule:nonzero;fill:rgb(0%,0%,0%);fill-opacity:1;" d="M 532.777344 409.371094 L 534.445312 409.09375 L 535.277344 414.097656 C 535.574219 415.875 534.761719 417.085938 533.496094 417.554688 C 532.054688 418.085938 530.214844 417.601562 530 415.207031 L 531.390625 414.929688 C 531.710938 416.363281 532.289062 416.484375 532.953125 416.261719 C 533.484375 416.082031 533.757812 415.25 533.609375 414.375 Z M 532.777344 409.371094 "/>
<path style=" stroke:none;fill-rule:nonzero;fill:rgb(0%,0%,0%);fill-opacity:1;" d="M 535.554688 408.871094 L 537.199219 408.558594 L 537.960938 412.722656 C 538.285156 414.503906 538.84375 415.261719 540.003906 415.058594 C 541.441406 414.808594 541.597656 414.003906 541.292969 412.414062 L 540.269531 407.972656 L 541.953125 407.71875 L 543.070312 412.339844 C 543.722656 415.042969 542.3125 416.113281 540.417969 416.46875 C 538.765625 416.777344 537.011719 416.355469 536.4375 413.691406 Z M 535.554688 408.871094 "/>
<path style=" stroke:none;fill-rule:nonzero;fill:rgb(0%,0%,0%);fill-opacity:1;" d="M 544.167969 412.707031 L 545.554688 412.152344 C 546.238281 413.375 547.300781 413.3125 548.125 412.945312 C 549.273438 412.4375 549.40625 411.433594 548.839844 411.09375 C 548.027344 410.609375 546.097656 411.296875 545.054688 410.917969 C 543.8125 410.464844 543.277344 409.761719 543.339844 408.6875 C 543.417969 407.390625 544.558594 406.675781 545.796875 406.292969 C 547.183594 405.859375 548.554688 406.011719 549.445312 407.703125 L 547.777344 408.257812 C 547.234375 407.347656 546.539062 407.390625 545.917969 407.683594 C 545.398438 407.925781 544.589844 408.386719 545.023438 409.128906 C 545.378906 409.734375 547.417969 409.339844 548.496094 409.386719 C 549.605469 409.429688 550.503906 410.171875 550.65625 411.242188 C 550.867188 412.734375 550.3125 413.542969 548.589844 414.214844 C 546.460938 415.046875 544.539062 414.117188 544.167969 412.707031 Z M 544.167969 412.707031 "/>
<path style=" stroke:none;fill-rule:nonzero;fill:rgb(0%,0%,0%);fill-opacity:1;" d="M 551.667969 405.757812 L 549.445312 406.871094 L 548.890625 405.480469 L 555 402.980469 L 555.554688 404.089844 L 553.332031 405.203125 L 555.832031 411.316406 L 554.445312 412.152344 Z M 551.667969 405.757812 "/>
<path style=" stroke:none;fill-rule:nonzero;fill:rgb(0%,0%,0%);fill-opacity:1;" d="M 555.277344 402.703125 L 556.667969 401.867188 L 560.554688 409.09375 L 559.167969 409.925781 Z M 555.277344 402.703125 "/>
<path style=" stroke:none;fill-rule:nonzero;fill:rgb(0%,0%,0%);fill-opacity:1;" d="M 564.722656 403.257812 L 566.390625 402.703125 C 567.171875 404.351562 565.996094 407.347656 563.117188 407.285156 C 558.90625 407.195312 558.449219 402.554688 559.113281 401.023438 C 560.226562 398.449219 563.339844 398.5 564.722656 399.921875 L 563.332031 401.035156 C 562.453125 399.902344 560.496094 400.617188 560.363281 401.65625 C 560.148438 403.351562 560.894531 404.933594 562.410156 405.679688 C 563.699219 406.316406 565.679688 404.71875 564.722656 403.257812 Z M 564.722656 403.257812 "/>
<path style=" stroke:none;fill-rule:nonzero;fill:rgb(0%,0%,0%);fill-opacity:1;" d="M 563.890625 397.421875 L 565.277344 396.308594 L 570.277344 402.980469 L 568.890625 404.089844 Z M 563.890625 397.421875 "/>
<path style=" stroke:none;fill-rule:nonzero;fill:rgb(0%,0%,0%);fill-opacity:1;" d="M 569.167969 393.253906 L 567.785156 394.371094 L 570.832031 402.707031 L 572.214844 401.324219 L 571.382812 399.65625 L 573.882812 397.421875 L 575.550781 398.253906 L 576.949219 397.152344 Z M 569.714844 395.203125 L 572.5 396.585938 L 570.832031 398.253906 Z M 569.714844 395.203125 "/>
</g>
</svg>
