<?xml version="1.0" encoding="UTF-8"?>
<svg xmlns="http://www.w3.org/2000/svg" xmlns:xlink="http://www.w3.org/1999/xlink" width="1000px" height="667px" viewBox="0 0 1000 667" version="1.1">
<g id="surface1">
<rect x="0" y="0" width="1000" height="667" style="fill:rgb(77.64706%,12.941177%,22.352941%);fill-opacity:1;stroke:none;"/>
<path style=" stroke:none;fill-rule:evenodd;fill:rgb(0%,16.078432%,48.235294%);fill-opacity:1;" d="M 24.390625 30.320312 L 975.609375 30.320312 L 975.609375 636.679688 L 24.390625 636.679688 Z M 24.390625 30.320312 "/>
<path style=" stroke:none;fill-rule:evenodd;fill:rgb(57.254905%,85.882354%,98.823529%);fill-opacity:1;" d="M 500.265625 163.960938 C 500.265625 163.960938 416.738281 246.578125 416.738281 332.398438 C 416.738281 418.230469 500.265625 503.039062 500.265625 503.039062 C 500.265625 503.039062 583.261719 424.410156 583.261719 332.398438 C 583.261719 240.402344 500.265625 163.960938 500.265625 163.960938 Z M 500.265625 163.960938 "/>
<path style=" stroke:none;fill-rule:evenodd;fill:rgb(0%,54.901963%,90.588236%);fill-opacity:1;" d="M 425.980469 384.785156 C 447.71875 449.683594 500.265625 503.039062 500.265625 503.039062 C 500.265625 503.039062 553.753906 452.367188 574.851562 384.78125 "/>
<path style=" stroke:none;fill-rule:evenodd;fill:rgb(61.176473%,51.764709%,19.215687%);fill-opacity:1;" d="M 575.140625 366.054688 C 562.261719 377.507812 489.800781 372.007812 489.800781 372.007812 L 485.75 384.828125 L 572.03125 385.160156 C 572.390625 383.402344 573.25 381.3125 573.550781 379.535156 Z M 575.140625 366.054688 "/>
<path style=" stroke:none;fill-rule:evenodd;fill:rgb(100%,87.058824%,32.156864%);fill-opacity:1;" d="M 445.484375 419.125 C 449.152344 419.273438 452.808594 420.238281 456.089844 422.425781 C 461.957031 426.253906 465.359375 426.226562 471.683594 426.34375 C 478.300781 426.472656 483.496094 432.527344 490.648438 432.777344 C 503.828125 433.238281 509.367188 441.375 499.121094 441.367188 C 494.28125 441.363281 483.90625 437.324219 478.890625 438.171875 C 471.269531 439.132812 466.863281 439.855469 461.21875 445.429688 C 455.847656 437.410156 450.472656 428.585938 445.484375 419.125 Z M 471.554688 459.964844 C 474.824219 457.1875 477.070312 455.015625 480.242188 454.894531 C 486.40625 454.660156 488.507812 449.921875 495.628906 449.925781 C 503.722656 451.773438 514.691406 448.71875 521.113281 446.949219 C 532.511719 443.683594 527.105469 433.769531 520.203125 430.171875 C 514.628906 427.203125 504.171875 430.023438 497.6875 427.078125 C 492.78125 424.695312 496.828125 420.894531 499.46875 420.089844 C 502.132812 419.480469 504.988281 420.574219 508.304688 421.246094 C 514.222656 421.894531 521.65625 421.207031 526.855469 420.203125 C 537.597656 418.15625 537.15625 414.238281 542.34375 414.148438 C 546.125 413.929688 549.007812 412.53125 551.589844 410.238281 C 554.621094 407.722656 557.777344 402.5625 561.449219 402.769531 L 563.605469 402.882812 C 540.945312 457.371094 500.25 493.136719 500.25 493.136719 C 500.25 493.136719 487.101562 480.625 471.554688 459.964844 Z M 471.554688 459.964844 "/>
<path style=" stroke:none;fill-rule:evenodd;fill:rgb(54.901963%,25.882354%,0%);fill-opacity:1;" d="M 523.644531 420.054688 C 525.046875 426.816406 526.539062 429.113281 532.253906 430.847656 C 537.894531 432.585938 546.511719 425.765625 541.171875 419.148438 C 536.085938 412.996094 530.730469 411.417969 526.179688 405.878906 C 519.113281 397.171875 509.417969 379.167969 504.8125 362.148438 C 499.777344 343.539062 500.652344 291.148438 500.878906 264.609375 C 500.882812 264.300781 501.492188 264.117188 501.558594 263.992188 C 501.886719 263.40625 502.199219 264.179688 501.6875 260.289062 C 501.554688 259.292969 500.917969 258.261719 500.925781 257.253906 C 500.929688 255.453125 495.929688 259.21875 494.609375 262.425781 C 494.308594 263.160156 495.566406 265.25 495.566406 265.664062 C 495.738281 291.125 493.535156 341.394531 498.972656 364.152344 C 502.339844 378.242188 508.480469 389.121094 514.039062 399.1875 C 517.371094 405.640625 522.191406 412.601562 523.644531 420.054688 Z M 523.644531 420.054688 "/>
<path style=" stroke:none;fill-rule:nonzero;fill:rgb(100%,100%,100%);fill-opacity:1;" d="M 461.316406 345.507812 C 461.253906 345.496094 461 345.457031 460.753906 345.417969 C 459.015625 345.152344 457.160156 344.242188 455.800781 342.980469 C 453.863281 341.1875 452.582031 338.320312 452.15625 334.792969 C 452.035156 333.808594 452.039062 331.269531 452.160156 330.304688 C 452.5 327.582031 453.300781 325.179688 454.453125 323.425781 C 454.796875 322.910156 455.449219 322.121094 455.851562 321.75 C 456.796875 320.855469 458.015625 320.15625 459.304688 319.765625 C 460.226562 319.480469 460.792969 319.394531 461.898438 319.355469 C 463.4375 319.308594 464.519531 319.480469 465.738281 319.984375 C 467.296875 320.621094 468.503906 321.652344 469.355469 323.0625 C 469.933594 324.011719 470.679688 326.125 470.785156 327.101562 C 470.839844 327.632812 470.667969 328.027344 470.292969 328.230469 C 470.171875 328.292969 469.574219 328.515625 468.953125 328.722656 C 467.714844 329.132812 467.539062 329.144531 467.261719 328.859375 C 467.078125 328.664062 467.015625 328.515625 466.851562 327.890625 C 466.777344 327.628906 466.597656 327.089844 466.449219 326.703125 C 466.210938 326.113281 466.117188 325.9375 465.796875 325.542969 C 465.480469 325.140625 465.339844 325.019531 464.867188 324.734375 C 463.816406 324.097656 462.636719 323.878906 461.277344 324.085938 C 460.28125 324.234375 459.203125 324.738281 458.523438 325.375 C 457.015625 326.785156 456.179688 329.570312 456.265625 332.859375 C 456.382812 337.34375 457.910156 339.8125 461.058594 340.597656 C 461.664062 340.746094 462.980469 340.746094 463.625 340.597656 C 464.566406 340.382812 465.945312 339.710938 466.722656 339.09375 L 467.003906 338.875 L 467.003906 337.449219 L 467.007812 336.015625 L 464.527344 335.992188 L 462.042969 335.96875 L 461.882812 335.832031 C 461.796875 335.75 461.675781 335.601562 461.617188 335.492188 C 461.507812 335.304688 461.507812 335.277344 461.507812 333.597656 C 461.511719 331.917969 461.511719 331.890625 461.621094 331.699219 C 461.679688 331.59375 461.804688 331.441406 461.894531 331.367188 L 462.050781 331.226562 L 466.304688 331.238281 L 470.5625 331.25 L 470.714844 331.386719 C 470.804688 331.460938 470.921875 331.628906 470.988281 331.753906 L 471.097656 331.976562 L 471.105469 336.359375 C 471.117188 341.03125 471.105469 341.21875 470.882812 341.558594 C 470.816406 341.65625 470.523438 341.953125 470.230469 342.214844 C 468.222656 344.054688 466.082031 345.148438 463.886719 345.464844 C 463.316406 345.542969 461.667969 345.574219 461.316406 345.511719 Z M 483.574219 345.742188 C 481.347656 345.53125 479.667969 344.707031 478.441406 343.234375 C 477.234375 341.785156 476.632812 339.96875 476.367188 336.945312 C 476.289062 336.101562 476.285156 335.214844 476.289062 328.371094 C 476.296875 321.003906 476.300781 320.730469 476.394531 320.503906 C 476.445312 320.378906 476.566406 320.203125 476.65625 320.109375 L 476.832031 319.949219 L 478.292969 319.933594 C 479.703125 319.921875 479.761719 319.921875 479.972656 320.046875 C 480.101562 320.128906 480.230469 320.269531 480.296875 320.402344 L 480.410156 320.625 L 480.425781 328.53125 C 480.441406 335.5 480.449219 336.515625 480.519531 337.0625 C 480.703125 338.496094 480.886719 339.027344 481.425781 339.699219 C 482.105469 340.535156 482.808594 340.84375 484.148438 340.902344 C 485.378906 340.949219 486.222656 340.777344 486.945312 340.335938 C 487.777344 339.832031 488.15625 339.035156 488.441406 337.210938 C 488.546875 336.523438 488.546875 336.417969 488.589844 328.613281 C 488.632812 319.773438 488.597656 320.503906 488.980469 320.144531 L 489.160156 319.980469 L 490.683594 319.980469 C 492.378906 319.984375 492.328125 319.972656 492.601562 320.417969 L 492.738281 320.644531 L 492.742188 327.734375 C 492.746094 334.851562 492.71875 336.34375 492.566406 337.683594 C 492.242188 340.535156 491.480469 342.339844 490.015625 343.75 C 489.519531 344.226562 489.316406 344.386719 488.835938 344.683594 C 488.09375 345.148438 487.234375 345.464844 486.261719 345.636719 C 485.753906 345.726562 484.089844 345.789062 483.574219 345.742188 Z M 503.496094 345.359375 C 503.429688 345.34375 503.289062 345.210938 503.171875 345.074219 C 502.9375 344.78125 502.875 344.511719 502.941406 344.144531 C 503.03125 343.691406 510.238281 320.570312 510.355469 320.386719 C 510.582031 320.007812 510.644531 319.996094 512.332031 320 C 514.019531 320 514.082031 320.019531 514.3125 320.390625 C 514.375 320.5 516.160156 325.878906 518.285156 332.359375 C 521.660156 342.65625 522.144531 344.175781 522.144531 344.449219 C 522.144531 344.796875 522.035156 345.039062 521.769531 345.273438 C 521.613281 345.410156 521.609375 345.410156 519.921875 345.40625 L 518.230469 345.40625 L 518.046875 345.226562 C 517.8125 345.003906 517.816406 345.027344 516.722656 341.476562 C 516.226562 339.855469 515.796875 338.480469 515.769531 338.421875 C 515.730469 338.320312 515.515625 338.3125 512.382812 338.308594 C 509.242188 338.300781 509.035156 338.308594 509.003906 338.40625 C 508.984375 338.460938 508.5625 339.90625 508.058594 341.613281 C 507.5625 343.316406 507.109375 344.796875 507.054688 344.90625 C 507 345.015625 506.882812 345.164062 506.800781 345.238281 C 506.648438 345.378906 506.621094 345.378906 505.128906 345.382812 C 504.292969 345.390625 503.5625 345.375 503.496094 345.359375 Z M 514.296875 333.523438 C 514.222656 333.265625 512.433594 327.316406 512.386719 327.175781 C 512.367188 327.113281 512.34375 327.140625 512.308594 327.265625 C 512.226562 327.574219 510.394531 333.644531 510.371094 333.695312 C 510.359375 333.71875 511.253906 333.742188 512.355469 333.746094 L 514.363281 333.746094 Z M 529.570312 345.335938 C 529.359375 345.257812 529.128906 344.953125 529.066406 344.671875 C 529.035156 344.511719 529.027344 340.585938 529.050781 332.519531 L 529.082031 320.609375 L 529.210938 320.390625 C 529.46875 319.972656 529.445312 319.980469 531.753906 319.984375 C 533.675781 319.992188 533.839844 319.996094 534 320.097656 C 534.09375 320.160156 534.214844 320.300781 534.273438 320.402344 C 534.328125 320.5 535.402344 324.425781 536.65625 329.113281 C 537.914062 333.796875 538.949219 337.636719 538.964844 337.636719 C 538.976562 337.636719 540.046875 333.828125 541.34375 329.175781 C 542.8125 323.878906 543.742188 320.621094 543.820312 320.472656 C 544.078125 320.007812 544.058594 320.011719 546.171875 320.019531 C 547.976562 320.019531 548.058594 320.023438 548.226562 320.144531 C 548.324219 320.214844 548.457031 320.375 548.527344 320.496094 L 548.648438 320.722656 L 548.632812 332.703125 C 548.617188 343.996094 548.609375 344.695312 548.527344 344.878906 C 548.480469 344.980469 548.363281 345.148438 548.261719 345.238281 L 548.082031 345.410156 L 546.609375 345.40625 C 545.152344 345.40625 545.140625 345.40625 544.984375 345.261719 C 544.894531 345.1875 544.777344 345.039062 544.714844 344.929688 L 544.601562 344.734375 L 544.585938 337.859375 L 544.574219 330.992188 L 544.316406 331.902344 C 544.171875 332.40625 543.296875 335.523438 542.371094 338.828125 C 540.742188 344.621094 540.675781 344.855469 540.484375 345.097656 C 540.371094 345.246094 540.226562 345.359375 540.128906 345.382812 C 540.039062 345.40625 539.425781 345.421875 538.761719 345.421875 C 537.605469 345.417969 537.542969 345.410156 537.335938 345.28125 C 537.21875 345.203125 537.074219 345.054688 537.019531 344.953125 C 536.964844 344.851562 536.066406 341.625 535.023438 337.785156 C 533.980469 333.953125 533.109375 330.8125 533.089844 330.8125 C 533.070312 330.8125 533.050781 333.917969 533.042969 337.722656 C 533.03125 345.460938 533.058594 344.894531 532.671875 345.214844 L 532.472656 345.375 L 531.101562 345.382812 C 530.34375 345.390625 529.65625 345.367188 529.574219 345.332031 Z M 529.570312 345.335938 "/>
<path style=" stroke:none;fill-rule:nonzero;fill:rgb(74.117649%,2.745098%,15.686275%);fill-opacity:1;" d="M 461.1875 344.449219 C 458.691406 344.09375 456.441406 342.71875 455.085938 340.714844 C 453.941406 339.027344 453.207031 336.804688 452.960938 334.308594 C 452.882812 333.484375 452.886719 331.535156 452.96875 330.746094 C 453.257812 328.023438 454.121094 325.484375 455.363281 323.738281 C 457.476562 320.753906 461.871094 319.550781 465.4375 320.980469 C 467.6875 321.878906 469.023438 323.589844 469.785156 326.515625 C 469.890625 326.921875 469.96875 327.265625 469.960938 327.285156 C 469.933594 327.304688 468.015625 327.953125 467.871094 327.988281 C 467.789062 328.003906 467.746094 327.90625 467.621094 327.449219 C 467.269531 326.15625 466.730469 325.078125 466.128906 324.480469 C 464.820312 323.1875 462.976562 322.710938 460.816406 323.117188 C 459.433594 323.382812 458.058594 324.265625 457.269531 325.398438 C 456.085938 327.101562 455.5 329.1875 455.425781 331.941406 C 455.359375 334.667969 455.753906 336.75 456.671875 338.46875 C 458.160156 341.261719 461.625 342.511719 464.710938 341.367188 C 465.695312 341 466.769531 340.363281 467.527344 339.695312 L 467.875 339.382812 L 467.882812 337.179688 L 467.882812 334.964844 L 465.097656 334.960938 L 462.308594 334.953125 L 462.3125 333.601562 L 462.3125 332.25 L 466.296875 332.261719 L 470.277344 332.269531 L 470.269531 336.578125 L 470.265625 340.886719 L 469.824219 341.285156 C 468.03125 342.925781 466.234375 343.917969 464.3125 344.339844 C 463.605469 344.496094 461.90625 344.550781 461.1875 344.449219 Z M 483.253906 344.660156 C 481.445312 344.414062 480.039062 343.691406 479.042969 342.488281 C 478.136719 341.394531 477.617188 340.039062 477.34375 338.0625 C 477.148438 336.640625 477.136719 335.90625 477.144531 328.34375 L 477.15625 320.933594 L 478.375 320.941406 L 479.59375 320.941406 L 479.601562 328.84375 C 479.613281 337.246094 479.605469 337.109375 479.863281 338.375 C 480.191406 339.992188 481.160156 341.1875 482.542969 341.6875 C 483.648438 342.089844 485.140625 342.09375 486.402344 341.703125 C 487.894531 341.242188 488.695312 340.242188 489.101562 338.351562 C 489.414062 336.902344 489.410156 337.042969 489.441406 328.671875 L 489.476562 320.964844 L 490.695312 320.96875 L 491.914062 320.96875 L 491.898438 328.113281 C 491.894531 332.230469 491.867188 335.660156 491.835938 336.210938 C 491.628906 339.832031 490.871094 341.792969 489.105469 343.273438 C 488.410156 343.863281 487.464844 344.3125 486.421875 344.550781 C 485.972656 344.65625 483.769531 344.730469 483.253906 344.660156 Z M 503.875 344.007812 C 503.933594 343.820312 505.5625 338.578125 507.492188 332.355469 L 511.007812 321.042969 L 512.328125 321.03125 L 513.648438 321.015625 L 517.4375 332.589844 C 519.523438 338.953125 521.242188 344.214844 521.261719 344.277344 C 521.292969 344.386719 521.210938 344.390625 519.914062 344.390625 L 518.53125 344.386719 L 518.292969 343.613281 C 518.15625 343.1875 517.675781 341.601562 517.207031 340.09375 L 516.363281 337.355469 L 512.390625 337.332031 L 508.417969 337.304688 L 507.386719 340.832031 L 506.355469 344.363281 L 505.058594 344.355469 L 503.769531 344.355469 Z M 515.554688 334.699219 C 515.539062 334.632812 514.996094 332.828125 514.351562 330.6875 C 513.707031 328.542969 512.976562 326.058594 512.738281 325.152344 C 512.496094 324.253906 512.289062 323.503906 512.28125 323.484375 C 512.265625 323.46875 512.175781 323.863281 512.078125 324.363281 C 511.761719 326.015625 511.457031 327.152344 510.320312 330.875 C 509.710938 332.910156 509.1875 334.621094 509.171875 334.6875 C 509.132812 334.792969 509.308594 334.800781 512.355469 334.804688 C 515.398438 334.8125 515.578125 334.804688 515.554688 334.699219 Z M 529.898438 332.667969 L 529.914062 320.988281 L 531.757812 321.011719 L 533.597656 321.03125 L 536.085938 330.34375 C 537.457031 335.460938 538.65625 339.96875 538.746094 340.363281 C 538.84375 340.753906 538.929688 341.0625 538.945312 341.050781 C 538.953125 341.035156 539.261719 339.929688 539.628906 338.585938 C 539.996094 337.253906 541.242188 332.761719 542.398438 328.605469 L 544.503906 321.054688 L 546.152344 321.042969 L 547.804688 321.03125 L 547.785156 332.707031 L 547.765625 344.390625 L 546.601562 344.382812 L 545.433594 344.382812 L 545.449219 334.570312 C 545.457031 329.171875 545.445312 324.789062 545.417969 324.824219 C 545.394531 324.859375 544.238281 328.9375 542.847656 333.886719 C 541.460938 338.839844 540.230469 343.222656 540.117188 343.628906 L 539.902344 344.367188 L 537.699219 344.367188 L 535.019531 334.476562 C 533.542969 329.039062 532.316406 324.550781 532.292969 324.492188 C 532.269531 324.441406 532.242188 328.886719 532.234375 334.375 L 532.214844 344.351562 L 531.050781 344.351562 L 529.882812 344.34375 Z M 529.898438 332.667969 "/>
<path style=" stroke:none;fill-rule:evenodd;fill:rgb(6.27451%,58.039218%,12.941177%);fill-opacity:1;" d="M 448.351562 257.085938 C 448.707031 257.695312 448.65625 260.3125 448.65625 260.3125 C 448.945312 260.53125 453.65625 255.328125 453.65625 255.5625 C 453.660156 256.65625 453.765625 258.914062 453.765625 258.914062 C 453.765625 258.914062 458.644531 253.152344 458.847656 253.757812 C 459.074219 254.441406 458.828125 257.78125 458.828125 257.78125 C 458.828125 257.78125 462.074219 253.335938 462.667969 252.53125 C 463.097656 251.960938 463.027344 253.253906 463.070312 255.34375 C 463.078125 255.71875 468.386719 250.476562 468.710938 250.382812 C 469.398438 250.199219 469.609375 253.105469 469.574219 253.832031 C 469.542969 254.371094 474.472656 250.335938 474.253906 250.871094 L 474.621094 253.96875 C 475.992188 253.734375 479.265625 252.21875 481.234375 252.613281 C 481.863281 252.738281 481.832031 253.132812 481.269531 253.421875 C 471.785156 258.191406 464.488281 265.390625 460.238281 275.414062 C 458.792969 278.828125 458.347656 281.808594 458.730469 282.558594 C 458.730469 282.558594 460.4375 278 462.359375 277.28125 C 462.617188 277.191406 462.789062 280.207031 463.050781 280.035156 C 463.050781 280.035156 464.507812 275.460938 465.558594 273.777344 C 465.839844 273.324219 466.308594 276.175781 466.609375 275.753906 C 466.609375 275.753906 467.363281 272.695312 468.84375 270.5625 C 469.054688 270.257812 469.4375 273.457031 469.671875 273.1875 C 471.207031 271.425781 472.652344 267.015625 473.226562 266.691406 C 473.628906 266.300781 473.699219 270.355469 474.082031 270.007812 C 474.082031 270.007812 476.269531 264.539062 477.578125 263.550781 C 478.417969 262.90625 478.386719 266.535156 478.386719 266.535156 C 480.054688 264.488281 481.894531 261.097656 482.765625 259.625 C 483.164062 258.949219 482.945312 264.09375 483.371094 264.292969 C 483.921875 264.558594 487.515625 260.351562 487.921875 260.265625 C 488.1875 260.210938 488.503906 261.464844 487.800781 262.472656 C 487.746094 262.554688 483.359375 268.84375 483.359375 268.84375 C 484.210938 269.042969 484.542969 268.746094 485.15625 268.945312 C 486.976562 269.542969 481.746094 273.273438 481.832031 273.972656 C 481.832031 273.972656 484.355469 273.914062 483.511719 274.523438 C 482.902344 274.960938 479.570312 280.296875 479.570312 280.109375 C 479.570312 280.011719 481.242188 280.152344 481.234375 280.75 C 481.21875 281.855469 478.464844 287.554688 478.4375 287.523438 C 478.285156 287.332031 479.914062 287.273438 480.136719 287.835938 C 480.542969 288.875 477.304688 293.484375 477.9375 294.269531 C 478.027344 294.378906 479.785156 294.304688 480.570312 294.523438 C 480.949219 294.625 482.007812 302.898438 481.742188 302.566406 C 481.679688 302.488281 482.875 294.808594 483.597656 292.472656 C 484.039062 291.054688 485.457031 294.609375 485.570312 294.292969 C 485.511719 294.292969 485.285156 289.246094 485.484375 286.949219 C 485.539062 286.308594 486.558594 287.617188 486.542969 287.007812 C 486.507812 285.613281 486.414062 284.125 486.644531 282.765625 C 486.820312 281.742188 487.6875 284.617188 488.023438 283.84375 C 488.023438 283.84375 486.972656 278.847656 487.410156 277.4375 C 487.699219 276.507812 488.402344 279.683594 488.863281 279.808594 C 488.863281 279.808594 488.605469 275.925781 489.085938 274.921875 L 490.546875 276.871094 C 490.867188 276.246094 490.808594 270.195312 491.101562 269.628906 C 491.347656 269.152344 492.863281 271.898438 493.089844 271.46875 C 493.292969 271.078125 492.449219 266.585938 492.636719 266.230469 C 492.902344 265.722656 494.566406 267.480469 494.601562 267.445312 C 495.277344 266.597656 495.253906 264.484375 495.539062 263.699219 C 496.304688 261.574219 500.695312 261.296875 501.210938 262.8125 C 501.464844 263.542969 501.289062 264.488281 501.1875 265.628906 C 501.226562 265.675781 503.386719 265.871094 503.402344 265.664062 C 503.402344 265.664062 503.144531 268.167969 503.296875 270.921875 C 503.320312 271.289062 505.488281 270.832031 505.515625 271.199219 C 505.714844 273.792969 505.234375 274.035156 505.234375 274.035156 C 505.253906 274.222656 506.695312 273.757812 506.71875 273.960938 C 506.875 275.226562 506.546875 276.765625 505.902344 278.25 C 505.804688 278.464844 507.96875 278.046875 508 278.292969 C 508.261719 280.238281 508.3125 281.785156 508.039062 284.535156 C 508.019531 284.761719 510.15625 282.59375 510.1875 282.816406 C 510.511719 285.132812 510.136719 287.628906 510.332031 290.023438 C 510.378906 290.582031 511.746094 288.371094 511.871094 289.011719 C 511.996094 289.640625 511.566406 294.226562 511.773438 294.484375 C 511.773438 294.484375 514.066406 294.339844 514.269531 294.582031 C 516.082031 296.699219 515.738281 300.402344 515.738281 300.402344 C 516.234375 299.941406 516.046875 295.484375 515.542969 291.40625 C 515.488281 290.976562 517.304688 291.144531 517.25 290.742188 C 517.25 290.742188 515.257812 289.25 514.605469 285.105469 C 514.464844 284.214844 516.527344 284.398438 516.527344 284.398438 C 515.953125 282.765625 514.949219 282.457031 514.097656 280.886719 C 513.820312 280.371094 516.234375 280.136719 516.234375 279.988281 C 516.242188 278.421875 514.199219 277.679688 513.144531 276.050781 C 512.691406 275.359375 515.347656 275.324219 515.347656 275.324219 C 514.566406 273.976562 512 273.386719 510.691406 271.605469 C 509.976562 270.636719 513.296875 269.6875 513.253906 269.519531 C 512.890625 268.09375 509.769531 267.644531 508.257812 266.035156 C 507.945312 265.703125 510.230469 264.582031 510.230469 264.582031 C 510 263.972656 505.015625 259.898438 507.550781 260.273438 C 508.621094 260.433594 510.792969 262.324219 510.964844 262.039062 C 510.964844 262.039062 510.871094 259.660156 511.09375 259.375 C 511.925781 258.296875 514.800781 263.945312 515.78125 263.714844 C 515.78125 263.714844 516.140625 259.671875 516.582031 259.5625 C 517.632812 259.316406 518.914062 265.453125 519.949219 265.453125 C 520.089844 265.453125 520.167969 261.90625 520.703125 261.710938 C 521.304688 261.492188 521.984375 265.6875 522.75 266.613281 C 523.457031 267.46875 523.46875 263.335938 523.882812 264.121094 C 524.585938 265.390625 524.757812 268.03125 525.722656 269.191406 C 526.347656 269.949219 526.464844 265.550781 527.160156 266.140625 C 527.964844 266.820312 527.777344 269.101562 528.683594 270.222656 C 529.117188 270.757812 529.410156 267.320312 529.902344 267.824219 C 530.339844 268.265625 530.636719 272.46875 531.105469 273.136719 C 531.703125 273.984375 532.394531 270.917969 533.019531 271.40625 C 533.464844 271.761719 533.359375 275.398438 533.773438 276.175781 C 534.621094 277.792969 535.0625 274.222656 535.625 274.773438 C 536.019531 275.144531 536.867188 279.328125 537.222656 279.660156 C 538.007812 280.40625 538.441406 277.757812 539.042969 278.132812 C 539.476562 278.394531 540.351562 283.78125 540.710938 283.644531 C 540.945312 283.550781 541.527344 271.371094 537.757812 266.230469 C 531.613281 257.855469 520.609375 253.019531 511.632812 252.898438 C 511.632812 252.898438 516.144531 251.78125 516.261719 250.851562 C 516.503906 249.003906 518.742188 249.21875 520.304688 249.644531 C 520.582031 249.71875 520.433594 246.371094 520.472656 246.355469 C 521.867188 246.316406 523.117188 247.339844 524.453125 248.351562 C 524.867188 248.664062 523.609375 244.996094 524.054688 245.3125 C 525.769531 246.542969 527.675781 246.90625 528.832031 248.402344 C 529.136719 248.796875 528.480469 245.578125 528.480469 245.578125 C 529.339844 245.320312 531.03125 246.855469 531.695312 248.292969 C 532.019531 249.003906 531.675781 244.539062 531.929688 245.332031 C 531.929688 245.332031 534.917969 246.589844 535.238281 248.15625 C 535.238281 248.15625 535.484375 245.324219 535.882812 245.472656 C 537.082031 245.863281 538.132812 248.378906 539.070312 248.738281 C 539.070312 248.738281 538.683594 246.21875 538.988281 246.316406 C 541.234375 247.019531 543.679688 248.75 543.675781 248.738281 C 542.40625 244.796875 537.597656 240.667969 529.140625 239.5625 C 527.589844 239.359375 521.289062 239.039062 515.945312 240.582031 C 511.566406 241.839844 508.109375 242.558594 508.820312 241.699219 C 511.714844 238.175781 516.390625 237.746094 517.679688 236.925781 C 518.601562 236.339844 514.578125 234.410156 515.375 234.136719 C 516.167969 233.898438 519.761719 233.527344 519.761719 233.527344 C 520.539062 232.769531 517.148438 231.292969 517.65625 230.191406 C 518.667969 227.988281 524.667969 229.992188 525.175781 229.15625 C 525.34375 228.875 522.601562 226.859375 522.714844 226.5625 C 523.152344 225.445312 528.492188 227.386719 528.617188 226.410156 C 528.617188 226.410156 527 224.910156 525.847656 223.679688 C 525.707031 223.53125 530.613281 221.890625 530.613281 221.890625 C 530.519531 221.777344 529.773438 221.125 528.648438 220.578125 C 527.621094 220.082031 532.953125 218.355469 532.953125 218.355469 C 526.195312 214.515625 508.660156 225.4375 505.179688 236.769531 C 504.273438 239.476562 504.246094 236.535156 504.4375 234.242188 C 504.617188 231.78125 504.863281 229.621094 504.652344 227.355469 C 504.589844 226.6875 503.21875 229.140625 503.128906 228.484375 C 502.777344 226.078125 503.8125 223.4375 503.339844 220.769531 C 503.183594 219.867188 501.367188 223.421875 501.125 222.523438 C 500.464844 220.050781 501.625 216.582031 501.15625 213.175781 C 500.96875 211.847656 499.25 216.023438 498.675781 214.832031 C 498 213.453125 498.296875 208.335938 497.980469 207.5625 C 497.722656 206.941406 496.191406 210.015625 496.0625 209.4375 C 493.988281 200.054688 496.742188 198.886719 492.761719 204.175781 C 492.621094 204.359375 491.738281 198.628906 491.585938 198.824219 C 489.953125 203.167969 487.28125 195.730469 486.367188 196.425781 C 485.6875 196.953125 488.230469 199.828125 488.257812 201.121094 C 488.273438 201.746094 485.917969 201.785156 485.917969 201.785156 C 485.96875 202.859375 490.398438 205.859375 490.539062 207.035156 C 490.65625 208.003906 487.40625 207.761719 487.40625 207.761719 C 487.507812 209.074219 491.199219 210.324219 491.402344 211.714844 C 491.515625 212.484375 489.671875 212.65625 489.734375 213.433594 C 489.828125 214.632812 493.300781 217 493.414062 218.21875 C 493.492188 219.066406 491.199219 219.417969 491.144531 220.207031 C 491.074219 221.164062 495.753906 224.371094 495.757812 225.273438 C 495.761719 226.542969 493.894531 225.890625 493.046875 226.53125 C 491.851562 227.429688 496.878906 231.074219 497.089844 232.113281 C 497.253906 233.023438 495.078125 232.222656 495.007812 233.050781 C 494.914062 234.140625 497.46875 235.785156 498.050781 237.652344 C 498.636719 239.496094 498.039062 239.96875 497.199219 239.234375 C 495.515625 237.761719 488.734375 228.800781 486.929688 226.410156 C 484.3125 222.941406 478.953125 219.050781 473.605469 218.820312 C 473.046875 219.03125 476.480469 222.050781 476.503906 223.144531 C 476.507812 223.425781 474.960938 223.84375 475.03125 223.929688 C 475.980469 225.109375 478.933594 226.515625 478.933594 226.515625 L 478.085938 228.410156 C 478.285156 228.96875 479.683594 229.117188 481.929688 230.03125 C 481.929688 230.03125 480.246094 231.328125 480.371094 231.449219 C 481.5625 232.628906 483.867188 233.5 483.867188 233.5 L 481.597656 234.445312 C 481.464844 234.988281 486.699219 237.59375 486.699219 237.59375 C 486.699219 237.59375 485.0625 239.347656 485.136719 239.441406 C 485.539062 239.9375 489.386719 241.042969 489.386719 241.042969 C 489.453125 241.125 486.667969 242.203125 486.6875 242.226562 C 487.695312 243.480469 490.480469 243.886719 491.128906 245.960938 C 491.128906 245.960938 491.511719 247.140625 490.410156 246.917969 C 486.078125 244.964844 479.367188 240.917969 466.355469 242.503906 C 453.054688 244.660156 442.917969 259.035156 443.09375 260.46875 C 443.09375 260.46875 447.847656 256.226562 448.351562 257.085938 Z M 448.351562 257.085938 "/>
<path style=" stroke:none;fill-rule:evenodd;fill:rgb(54.901963%,25.882354%,0%);fill-opacity:1;" d="M 498.859375 256.238281 C 499.75 257.957031 499.414062 260.199219 498.109375 261.246094 C 496.804688 262.289062 495.023438 261.742188 494.132812 260.019531 C 493.242188 258.300781 493.574219 256.058594 494.882812 255.015625 C 496.1875 253.96875 497.96875 254.515625 498.859375 256.238281 Z M 498.859375 256.238281 "/>
<path style=" stroke:none;fill-rule:evenodd;fill:rgb(54.901963%,25.882354%,0%);fill-opacity:1;" d="M 498.476562 259.308594 C 497.457031 261.273438 497.84375 263.835938 499.332031 265.027344 C 500.824219 266.222656 502.859375 265.597656 503.878906 263.632812 C 504.894531 261.664062 504.511719 259.105469 503.019531 257.914062 C 501.53125 256.71875 499.496094 257.34375 498.476562 259.308594 Z M 498.476562 259.308594 "/>
<path style=" stroke:none;fill-rule:evenodd;fill:rgb(54.901963%,25.882354%,0%);fill-opacity:1;" d="M 494.492188 262.472656 C 493.40625 264.570312 493.8125 267.300781 495.40625 268.578125 C 496.996094 269.851562 499.167969 269.183594 500.257812 267.085938 C 501.34375 264.988281 500.933594 262.253906 499.34375 260.980469 C 497.75 259.707031 495.578125 260.375 494.492188 262.472656 Z M 494.492188 262.472656 "/>
<path style=" stroke:none;fill-rule:evenodd;fill:rgb(0%,0%,0%);fill-opacity:1;" d="M 471.058594 399.375 L 475.292969 399.375 L 475.292969 403.3125 L 471.058594 403.3125 Z M 471.058594 399.375 "/>
<path style=" stroke:none;fill-rule:evenodd;fill:rgb(54.901963%,25.882354%,0%);fill-opacity:1;" d="M 449.871094 401.910156 C 449.871094 401.910156 477.699219 404.542969 494.761719 399.988281 C 494.761719 399.988281 496.195312 401.199219 494.136719 404.1875 C 492.074219 407.175781 486.863281 407.816406 484 408.457031 C 484 408.457031 483.3125 410.378906 483.367188 411.375 C 483.429688 412.371094 485.175781 412.269531 486.03125 412.050781 L 486.890625 411.839844 C 486.890625 411.839844 486.488281 415.574219 475.957031 416.070312 C 472.5 416.238281 461.101562 416.535156 458.691406 412.335938 C 458.691406 412.335938 460.777344 412.546875 461.324219 412.335938 C 461.867188 412.125 461.46875 409.421875 461.265625 409.023438 C 461.070312 408.636719 453.878906 409.023438 450.101562 404.683594 C 449.167969 403.445312 448.722656 402.125 448.722656 401.65625 C 448.722656 401.617188 449.871094 401.910156 449.871094 401.910156 Z M 464.375 409.167969 C 464.375 409.167969 471.988281 410.378906 480.75 409.167969 C 480.75 409.167969 480.980469 411.230469 480.578125 412.015625 C 480.179688 412.800781 470.070312 413.402344 464.972656 412.300781 C 464.152344 411.976562 464.125 410.726562 464.375 409.167969 Z M 464.375 409.167969 "/>
<path style=" stroke:none;fill-rule:evenodd;fill:rgb(99.215686%,97.647059%,100%);fill-opacity:1;" d="M 453.746094 400.222656 C 453.746094 400.222656 464.070312 386.578125 460.90625 358.101562 C 460.90625 358.101562 471.664062 361.546875 482.628906 381.214844 C 482.628906 381.214844 485.828125 385.207031 489.589844 399.449219 Z M 453.746094 400.222656 "/>
<path style=" stroke:none;fill-rule:evenodd;fill:rgb(77.64706%,12.941177%,22.352941%);fill-opacity:1;" d="M 500.285156 154.0625 C 500.285156 154.0625 411.875 235.871094 411.875 332.335938 C 411.875 428.8125 500.285156 512.9375 500.285156 512.9375 C 500.285156 512.9375 588.125 435.753906 588.125 332.335938 C 588.125 228.925781 500.285156 154.0625 500.285156 154.0625 Z M 500.25 173.863281 C 500.25 173.863281 421.601562 246.640625 421.601562 332.464844 C 421.601562 418.296875 500.25 493.136719 500.25 493.136719 C 500.25 493.136719 578.398438 424.472656 578.398438 332.464844 C 578.398438 240.464844 500.25 173.863281 500.25 173.863281 Z M 500.25 173.863281 "/>
</g>
</svg>
