<?xml version="1.0" encoding="UTF-8"?>
<svg xmlns="http://www.w3.org/2000/svg" xmlns:xlink="http://www.w3.org/1999/xlink" width="1000px" height="667px" viewBox="0 0 1000 667" version="1.1">
<g id="surface1">
<rect x="0" y="0" width="1000" height="667" style="fill:rgb(93.333334%,10.980392%,14.509805%);fill-opacity:1;stroke:none;"/>
<path style=" stroke:none;fill-rule:nonzero;fill:rgb(100%,100%,100%);fill-opacity:1;" d="M 499.960938 333.402344 C 383 283.949219 434.847656 131.546875 546.703125 139.207031 C 524.074219 150.84375 520.796875 172.554688 533.71875 192.667969 C 548.191406 215.183594 532.386719 251.414062 512.824219 260.21875 C 480.671875 274.699219 474.238281 313.300781 499.960938 333.402344 Z M 499.960938 333.402344 "/>
<path style=" stroke:none;fill-rule:nonzero;fill:rgb(93.333334%,10.980392%,14.509805%);fill-opacity:1;" d="M 493.636719 223.355469 L 487.058594 233.6875 L 484.675781 221.664062 L 472.808594 218.597656 L 483.503906 212.605469 L 482.757812 200.378906 L 491.742188 208.707031 L 503.136719 204.210938 L 498.015625 215.339844 L 505.792969 224.792969 Z M 500.621094 332.121094 C 486.476562 324.855469 475.070312 309.714844 470.101562 291.621094 C 464.417969 270.867188 467.6875 248.550781 479.082031 230.4375 L 476.628906 228.886719 C 464.808594 247.707031 461.414062 270.84375 467.3125 292.386719 C 472.566406 311.53125 484.214844 326.957031 499.296875 334.699219 Z M 500.621094 332.121094 "/>
<path style=" stroke:none;fill-rule:nonzero;fill:rgb(100%,100%,100%);fill-opacity:1;" d="M 500.078125 333.433594 C 510.945312 206.859375 671.839844 209.097656 699.125 317.902344 C 681.070312 299.964844 659.417969 303.550781 644.292969 322.066406 C 627.359375 342.792969 588.035156 338.949219 573.621094 323.058594 C 549.921875 296.9375 511.238281 302.742188 500.078125 333.433594 Z M 500.078125 333.433594 "/>
<path style=" stroke:none;fill-rule:nonzero;fill:rgb(93.333334%,10.980392%,14.509805%);fill-opacity:1;" d="M 602.734375 293.40625 L 590.878906 290.339844 L 601.574219 284.359375 L 600.820312 272.121094 L 609.820312 280.445312 L 621.214844 275.957031 L 616.074219 287.078125 L 623.871094 296.53125 L 611.707031 295.097656 L 605.125 305.421875 Z M 501.503906 333.664062 C 504.039062 317.960938 514.90625 302.429688 530.570312 292.109375 C 548.542969 280.289062 570.765625 276.503906 591.503906 281.75 L 592.222656 278.9375 C 570.679688 273.503906 547.636719 277.425781 528.980469 289.691406 C 512.40625 300.605469 501.34375 316.460938 498.640625 333.203125 Z M 501.503906 333.664062 "/>
<path style=" stroke:none;fill-rule:nonzero;fill:rgb(100%,100%,100%);fill-opacity:1;" d="M 500.089844 333.554688 C 623.765625 304.78125 671.355469 458.570312 576.359375 518.152344 C 587.832031 495.433594 577.730469 475.9375 555.460938 467.265625 C 530.523438 457.558594 522.023438 418.953125 532.675781 400.328125 C 550.179688 369.707031 532.710938 334.691406 500.089844 333.554688 Z M 500.089844 333.554688 "/>
<path style=" stroke:none;fill-rule:nonzero;fill:rgb(93.333334%,10.980392%,14.509805%);fill-opacity:1;" d="M 569.859375 418.867188 L 569.109375 406.636719 L 578.101562 414.964844 L 589.5 410.46875 L 584.371094 421.605469 L 592.15625 431.058594 L 579.996094 429.605469 L 573.417969 439.941406 L 571.023438 427.925781 L 559.175781 424.851562 Z M 500.308594 334.980469 C 516.019531 332.539062 534.140625 338.082031 548.792969 349.796875 C 565.582031 363.246094 576.046875 383.222656 577.46875 404.578125 L 580.367188 404.390625 C 578.875 382.210938 568.023438 361.496094 550.597656 347.539062 C 535.101562 335.140625 516.613281 329.511719 499.863281 332.117188 Z M 500.308594 334.980469 "/>
<path style=" stroke:none;fill-rule:nonzero;fill:rgb(100%,100%,100%);fill-opacity:1;" d="M 499.976562 333.601562 C 565.542969 442.390625 434.0625 535.199219 348.070312 463.222656 C 373.210938 467.113281 388.621094 451.480469 389.980469 427.609375 C 391.503906 400.878906 425.574219 380.863281 446.574219 385.246094 C 481.089844 392.4375 508.976562 364.992188 499.976562 333.601562 Z M 499.976562 333.601562 "/>
<path style=" stroke:none;fill-rule:nonzero;fill:rgb(93.333334%,10.980392%,14.509805%);fill-opacity:1;" d="M 440.441406 426.351562 L 451.832031 421.859375 L 446.695312 432.988281 L 454.492188 442.449219 L 442.320312 441.003906 L 435.742188 451.335938 L 433.363281 439.316406 L 421.503906 436.25 L 432.1875 430.261719 L 431.449219 418.039062 Z M 498.6875 334.25 C 505.863281 348.445312 506.195312 367.402344 499.585938 384.960938 C 491.988281 405.097656 476.234375 421.226562 456.375 429.179688 L 457.449219 431.875 C 478.070312 423.605469 494.40625 406.878906 502.289062 385.984375 C 509.289062 367.40625 508.925781 348.078125 501.273438 332.941406 Z M 498.6875 334.25 "/>
<path style=" stroke:none;fill-rule:nonzero;fill:rgb(100%,100%,100%);fill-opacity:1;" d="M 499.894531 333.507812 C 416.742188 429.515625 287.894531 333.089844 329.742188 229.019531 C 333.808594 254.148438 353.433594 263.976562 376.546875 257.894531 C 402.421875 251.085938 431.980469 277.320312 434.304688 298.652344 C 438.132812 333.71875 472.839844 351.773438 499.894531 333.507812 Z M 499.894531 333.507812 "/>
<path style=" stroke:none;fill-rule:nonzero;fill:rgb(93.333334%,10.980392%,14.509805%);fill-opacity:1;" d="M 393.332031 305.519531 L 401.121094 314.972656 L 388.957031 313.523438 L 382.375 323.867188 L 379.984375 311.835938 L 368.128906 308.769531 L 378.820312 302.792969 L 378.070312 290.5625 L 387.066406 298.875 L 398.457031 294.394531 Z M 498.882812 332.480469 C 487.605469 343.695312 469.6875 349.871094 450.953125 349.007812 C 429.464844 348 409.265625 337.996094 395.566406 321.554688 L 393.335938 323.410156 C 407.570312 340.476562 428.519531 350.851562 450.816406 351.898438 C 470.636719 352.816406 488.902344 346.496094 500.925781 334.539062 Z M 498.882812 332.480469 "/>
</g>
</svg>
