<?xml version="1.0" encoding="UTF-8"?>
<svg xmlns="http://www.w3.org/2000/svg" xmlns:xlink="http://www.w3.org/1999/xlink" width="1000px" height="667px" viewBox="0 0 1000 667" version="1.1">
<g id="surface1">
<rect x="0" y="0" width="1000" height="667" style="fill:rgb(81.176472%,7.843138%,16.862746%);fill-opacity:1;stroke:none;"/>
<path style="fill-rule:nonzero;fill:rgb(97.647059%,86.666667%,8.627451%);fill-opacity:1;stroke-width:1;stroke-linecap:butt;stroke-linejoin:miter;stroke:rgb(0%,0%,0%);stroke-opacity:1;stroke-miterlimit:4;" d="M 225.969232 126.346828 C 226.189348 126.571246 228.826504 128.165145 228.872424 128.075687 C 228.918398 127.987919 235.776147 126.406749 235.730173 126.494517 C 235.684199 126.582285 231.888005 131.094574 232.063958 131.186849 C 232.242072 131.277362 236.031688 135.816403 236.119665 135.86254 C 236.207641 135.908678 228.939164 135.266006 228.939164 135.266006 L 224.13339 139.141946 L 223.05595 134.112501 C 223.05595 134.112501 217.0104 131.97841 216.922424 131.932273 C 216.834501 131.887825 222.096923 130.14627 222.096923 130.14627 L 223.666284 126.044086 C 223.666284 126.044086 225.703601 126.431706 225.969232 126.346828 Z M 225.969232 126.346828 " transform="matrix(1.7613,0.0763048,-0.05655,2.309799,-24.175,-69.250162)"/>
<path style="fill-rule:nonzero;fill:rgb(100%,100%,100%);fill-opacity:1;stroke-width:1.3;stroke-linecap:butt;stroke-linejoin:miter;stroke:rgb(0%,0%,0%);stroke-opacity:1;stroke-miterlimit:4;" d="M 314.466304 136.203436 C 314.480975 131.963201 306.131531 112.780487 304.754874 109.829222 C 302.199226 106.629406 299.492645 101.560767 298.32969 97.183555 C 297.577837 92.76232 295.213283 89.297444 291.879868 88.122279 C 288.035167 86.081217 284.281699 86.88168 280.667855 87.195548 C 278.894651 87.573756 277.377324 88.530346 276.522157 89.940278 C 274.569197 92.732643 273.508929 92.520759 272.159144 93.722106 C 261.045798 95.454008 250.535602 101.189266 242.541646 105.097808 C 238.306813 108.036584 234.713293 109.743301 233.048159 110.102719 C 228.533227 110.11996 225.250922 107.980834 223.684115 106.843705 L 208.345894 92.897714 C 203.914963 89.590733 202.819581 94.363871 203.670252 95.093411 C 205.149605 98.272973 201.947118 100.208608 214.107065 111.663657 L 218.713494 121.127444 C 218.713494 121.127444 218.459513 123.716552 218.673726 123.826165 C 220.892819 129.11554 224.418949 127.796636 226.08573 126.31423 L 229.697106 123.022302 C 229.697106 123.022302 236.858888 120.756314 236.969582 120.542952 C 244.648848 121.684477 264.435015 117.91571 267.696502 116.367094 C 270.637705 114.720824 270.824407 116.11494 273.372607 114.040259 C 275.503027 112.630478 274.330363 113.753253 278.264676 110.158086 C 279.475391 109.115229 280.434467 110.80346 280.660804 111.98149 C 280.879706 123.151165 282.246603 130.288386 283.265073 141.424883 L 299.99883 149.999294 Z M 314.466304 136.203436 " transform="matrix(1.7613,0.0763048,-0.05655,2.309799,-24.175,-69.250162)"/>
<path style=" stroke:none;fill-rule:nonzero;fill:rgb(97.647059%,86.666667%,8.627451%);fill-opacity:1;" d="M 353.722656 183.621094 C 353.984375 183.945312 348.308594 205.65625 348.308594 205.65625 C 348.308594 205.65625 343.722656 199.261719 343.765625 199.160156 L 347.648438 176.257812 Z M 353.722656 183.621094 "/>
<path style="fill:none;stroke-width:1.13;stroke-linecap:butt;stroke-linejoin:miter;stroke:rgb(0%,0%,0%);stroke-opacity:1;stroke-miterlimit:4;" d="M 217.921864 101.928436 C 217.789445 102.57038 217.224898 105.433569 216.961729 106.216816 C 216.741096 107.081525 216.542943 107.955639 216.397799 108.822927 C 216.128814 109.77041 216.009037 110.391642 215.709849 111.365489 C 215.614684 112.200686 215.438027 112.984458 215.225388 113.821844 M 213.375278 97.575063 C 213.434678 97.698246 213.650873 98.560363 213.682011 99.115727 C 213.580926 99.697445 213.417179 101.781296 213.195932 102.488747 C 213.014681 103.267597 212.869258 104.057101 212.759444 104.850503 C 212.536325 105.706838 212.447936 106.269534 212.19899 107.150399 C 212.141317 107.909946 212.004422 108.619684 211.831327 109.376279 " transform="matrix(1.7613,0.0763048,-0.05655,2.309799,-24.175,-69.250162)"/>
<path style="fill:none;stroke-width:1;stroke-linecap:butt;stroke-linejoin:miter;stroke:rgb(0%,0%,0%);stroke-opacity:1;stroke-miterlimit:4;" d="M 262.225874 96.634354 C 265.804682 100.617201 266.915151 107.089809 266.266292 110.711734 M 248.383269 120.221707 L 248.448043 120.097803 C 248.245455 120.48839 248.402403 120.265045 248.019777 119.399971 C 247.615046 118.951653 247.327797 116.774467 247.952308 115.571712 C 248.192101 114.958353 248.592667 114.033582 248.895577 113.451962 C 248.981204 113.286782 249.224292 113.121473 249.30992 112.956292 M 222.794888 106.778375 L 222.730114 106.902279 L 222.473341 107.401199 C 222.13699 108.046498 221.685697 108.634711 221.377977 109.204652 C 221.054214 109.827549 220.556713 110.358098 220.23295 110.980996 C 219.816942 111.56297 219.451428 112.336069 219.022778 112.938755 C 218.619917 113.653897 218.172776 114.164179 217.777972 114.923025 C 217.437941 115.522784 217.162985 115.800762 216.812156 116.478671 L 217.777972 114.923025 C 217.437941 115.522784 217.162985 115.800762 216.812156 116.478671 M 209.804055 94.657398 C 209.865509 94.775441 210.106716 95.587687 210.156654 96.106916 C 210.076422 96.647357 209.990091 98.586593 209.79591 99.239032 C 209.646156 99.962724 209.529904 100.693766 209.449263 101.428704 C 209.259584 102.221362 209.192103 102.74447 208.976435 103.556589 C 208.94599 104.266192 208.836214 104.922608 208.694562 105.622357 M 225.392035 117.55662 C 224.551936 116.672835 224.061057 116.995152 223.520853 116.955498 C 222.921011 117.061563 221.837053 117.562443 220.732689 118.671124 C 220.329848 119.110605 219.992 119.432941 219.459369 119.905459 C 219.218521 120.278707 219.021252 120.420517 218.758016 120.649065 M 288.474954 87.759544 L 288.410234 87.885137 C 288.615038 87.494477 288.466897 87.71584 288.651867 88.641561 C 288.891973 89.281345 288.921747 89.725138 289.190003 90.343698 M 275.418786 91.218043 C 275.37708 91.300596 275.267995 100.33671 275.640282 101.501462 C 275.752876 102.245238 275.95483 102.871062 276.05885 103.762251 C 276.05832 104.298368 276.1859 104.749077 276.222654 105.272124 C 276.529487 105.848821 276.592401 106.426813 276.906677 106.889956 C 277.060217 107.527527 277.571185 107.554617 277.845329 108.149306 C 278.226711 108.56119 278.85551 109.287912 279.231911 109.61371 M 269.142513 115.952342 C 268.864485 115.858365 268.149951 115.293445 267.541414 114.990536 C 266.85473 114.602268 265.159696 112.579822 265.078469 111.155162 " transform="matrix(1.7613,0.0763048,-0.05655,2.309799,-24.175,-69.250162)"/>
<path style="fill:none;stroke-width:1;stroke-linecap:butt;stroke-linejoin:miter;stroke:rgb(0%,0%,0%);stroke-opacity:1;stroke-miterlimit:4;" d="M 275.901042 103.129896 C 275.880189 103.171172 274.960063 104.077592 273.454532 105.608788 C 271.526847 107.392384 266.28485 110.460829 265.654062 110.708283 C 265.050728 110.981889 264.295599 111.63933 263.699753 111.731734 C 263.014338 112.00467 262.332469 112.111754 261.68319 112.266805 C 260.892338 112.433297 260.222739 112.577182 259.607272 112.611043 C 257.765602 113.412613 248.05484 113.100915 247.552345 112.992369 C 246.988802 112.985618 246.422283 112.95529 245.859545 112.904542 C 245.397333 113.014517 244.850266 112.968325 244.225991 113.004168 C 243.472179 112.942821 243.039908 113.087321 242.403696 113.165838 C 241.904272 113.429247 241.070258 113.702018 240.507895 114.077431 C 239.735054 114.39046 239.267423 114.81517 238.733953 115.054336 C 238.180895 115.512309 230.624368 119.920515 230.258136 120.118642 C 229.466495 120.467806 226.619325 121.31274 225.905212 119.310316 C 225.722474 118.523197 225.359307 117.711597 225.337728 117.108564 C 225.108311 116.387251 225.238824 115.616842 225.277108 114.944185 C 225.937178 111.533285 227.034057 110.19147 227.334698 109.608234 L 227.658515 108.987026 M 297.882181 96.439005 L 297.817407 96.562909 C 297.99293 96.227333 297.912059 96.402504 297.434343 96.996664 C 296.947903 97.388172 296.346935 98.011771 295.907508 98.416946 C 295.460359 98.857891 295.032414 99.482539 294.631973 99.651355 C 294.231953 100.178684 293.722737 100.344328 293.173171 100.634761 C 292.510932 100.869725 291.875342 101.174837 291.277369 101.546354 C 290.457478 101.982701 289.947428 102.398666 289.187354 102.833037 C 288.718609 103.430282 288.242595 103.801152 287.84384 104.506011 C 287.45005 105.158281 287.057761 105.719177 286.685917 106.433295 L 285.779402 108.178083 L 286.685917 106.433295 L 285.779402 108.178083 M 291.569738 144.223382 L 291.699232 143.973885 C 291.458989 144.435054 291.543811 144.31387 291.767265 143.537008 C 291.770556 142.603377 291.991644 141.476522 292.000676 140.652627 C 292.141281 139.782105 292.284038 138.840484 292.291226 137.95915 C 292.238146 136.927602 292.241709 136.002417 292.087747 135.006334 C 292.076127 134.091798 291.967993 133.141553 291.939137 132.242807 C 291.9239 131.353757 291.857343 130.593241 291.663249 129.728703 C 291.64696 129.083216 291.607406 128.196661 291.448876 127.403669 C 291.533097 126.780229 291.354979 126.206044 291.22361 125.706417 C 290.982006 124.74367 290.888618 124.183597 290.634798 123.185739 C 290.482405 122.652983 290.331832 121.969653 290.09992 121.170629 C 290.01791 120.412314 289.611547 119.429642 289.446388 118.775544 C 289.222512 118.295885 288.995374 117.645525 288.906037 117.07348 C 288.67178 116.546811 288.336192 115.903417 288.243826 115.306105 C 287.99634 114.850901 287.731909 114.144274 287.457541 113.47349 C 287.22031 112.923242 287.045529 112.245786 286.793115 111.706187 C 286.538414 111.026297 286.229203 110.444604 286.069443 109.751431 C 285.826738 109.51423 285.771914 109.257293 285.641176 109.053599 " transform="matrix(1.7613,0.0763048,-0.05655,2.309799,-24.175,-69.250162)"/>
<path style="fill-rule:nonzero;fill:rgb(97.647059%,86.666667%,8.627451%);fill-opacity:1;stroke-width:1;stroke-linecap:butt;stroke-linejoin:miter;stroke:rgb(0%,0%,0%);stroke-opacity:1;stroke-miterlimit:4;" d="M 289.888966 91.736113 C 289.043913 93.668281 286.867896 96.49 286.836617 96.551915 L 284.765103 100.694363 C 283.850924 102.960283 284.43457 103.869452 284.832625 104.524312 C 285.657771 105.978513 285.802791 106.765187 286.412831 107.874733 C 286.641301 109.257322 284.187793 109.722269 284.154298 109.784257 C 279.045938 111.557929 276.453339 106.65464 276.425318 106.403582 C 275.732804 103.830522 275.823371 103.404739 277.389814 102.8727 C 279.184142 102.461662 279.90644 102.439492 280.79504 101.794553 C 282.477842 100.534852 283.664014 96.724369 283.697509 96.662381 C 283.728735 96.598776 283.949704 94.501197 283.949704 94.501197 C 284.079052 93.487298 283.612392 92.560736 284.128675 90.957368 C 284.801994 89.409694 285.205431 88.988796 286.796078 88.86522 C 288.870339 88.676623 290.481064 90.145461 289.888966 91.736113 Z M 289.888966 91.736113 " transform="matrix(1.7613,0.0763048,-0.05655,2.309799,-24.175,-69.250162)"/>
<path style="fill-rule:nonzero;fill:rgb(97.647059%,86.666667%,8.627451%);fill-opacity:1;stroke-width:1;stroke-linecap:butt;stroke-linejoin:miter;stroke:rgb(0%,0%,0%);stroke-opacity:1;stroke-miterlimit:4;" d="M 225.969477 126.345685 C 226.189699 126.571625 228.82705 128.164213 228.873346 128.075451 C 228.918206 127.987581 235.775862 126.406326 235.729565 126.495088 C 235.684705 126.582958 231.889105 131.095178 232.065436 131.186597 C 232.241768 131.278016 236.032286 135.817965 236.119866 135.862734 C 236.208617 135.909384 228.940564 135.26666 228.940564 135.26666 L 224.133271 139.141602 L 223.05598 134.11188 C 223.05598 134.11188 217.009634 131.977303 216.922054 131.932534 C 216.834474 131.887766 222.09729 130.146159 222.09729 130.146159 L 223.666907 126.04294 C 223.666907 126.04294 225.701989 126.430898 225.969477 126.345685 Z M 225.969477 126.345685 " transform="matrix(-0.929624,1.962192,-1.497056,-1.220981,999.177934,-105.399318)"/>
<path style="fill-rule:nonzero;fill:rgb(100%,100%,100%);fill-opacity:1;stroke-width:1.3;stroke-linecap:butt;stroke-linejoin:miter;stroke:rgb(0%,0%,0%);stroke-opacity:1;stroke-miterlimit:4;" d="M 314.46577 136.204431 C 314.480295 131.963145 306.130737 112.779807 304.754943 109.829789 C 302.198137 106.629439 299.492969 101.559032 298.330363 97.182423 C 297.577083 92.762988 295.213161 89.296744 291.880713 88.122742 C 288.03668 86.081801 284.280673 86.882509 280.66713 87.19553 C 278.895324 87.572993 277.37884 88.530336 276.52165 89.939345 C 274.57059 92.73212 273.508862 92.519917 272.158188 93.721333 C 261.047237 95.454488 250.536395 101.188162 242.541916 105.098325 C 238.306298 108.036405 234.712287 109.743704 233.048887 110.103426 C 228.534287 110.120129 225.250687 107.981668 223.682935 106.844278 L 208.345565 92.897743 C 203.916046 89.589565 202.819949 94.364181 203.670176 95.093893 C 205.151025 98.273526 201.947306 100.208138 214.107744 111.662953 L 218.713944 121.12893 C 218.713944 121.12893 218.4588 123.716614 218.672536 123.826554 C 220.893392 129.116815 224.419423 127.796156 226.084686 126.313283 L 229.697386 123.023587 C 229.697386 123.023587 236.85834 120.755619 236.970546 120.542431 C 244.64885 121.684489 264.435671 117.916831 267.697271 116.366372 C 270.636994 114.720939 270.825424 116.114708 273.371099 114.04077 C 275.502126 112.631363 274.330637 113.752823 278.265523 110.158688 C 279.475507 109.115086 280.434184 110.802906 280.660611 111.982602 C 280.880228 123.152275 282.246793 130.288105 283.266468 141.42542 L 299.998803 149.999484 Z M 314.46577 136.204431 " transform="matrix(-0.929624,1.962192,-1.497056,-1.220981,999.177934,-105.399318)"/>
<path style=" stroke:none;fill-rule:nonzero;fill:rgb(97.647059%,86.666667%,8.627451%);fill-opacity:1;" d="M 643.546875 197.160156 C 643.203125 197.292969 631.699219 179.976562 631.699219 179.976562 C 631.699219 179.976562 638.210938 177.972656 638.257812 178.070312 L 651.441406 193.949219 Z M 643.546875 197.160156 "/>
<path style="fill:none;stroke-width:1.13;stroke-linecap:butt;stroke-linejoin:miter;stroke:rgb(0%,0%,0%);stroke-opacity:1;stroke-miterlimit:4;" d="M 217.922398 101.928153 C 217.789363 102.571761 217.224466 105.432679 216.961851 106.216765 C 216.741508 107.081583 216.543193 107.956205 216.39823 108.823791 C 216.128077 109.771724 216.009554 110.390665 215.71106 111.366635 C 215.613747 112.202021 215.437735 112.984516 215.225519 113.820803 M 213.373859 97.574497 C 213.434981 97.698318 213.649995 98.558941 213.681937 99.115758 C 213.579249 99.696163 213.417942 101.781998 213.195085 102.48921 C 213.015295 103.268833 212.868489 104.056674 212.758977 104.85006 C 212.535385 105.706458 212.447851 106.269625 212.199055 107.149502 C 212.141236 107.910788 212.00328 108.620074 211.832523 109.375821 " transform="matrix(-0.929624,1.962192,-1.497056,-1.220981,999.177934,-105.399318)"/>
<path style="fill:none;stroke-width:1;stroke-linecap:butt;stroke-linejoin:miter;stroke:rgb(0%,0%,0%);stroke-opacity:1;stroke-miterlimit:4;" d="M 262.227313 96.634307 C 265.804863 100.617651 266.914793 107.088308 266.267554 110.712694 M 248.382977 120.221561 L 248.448887 120.097136 C 248.246695 120.488838 248.401827 120.264651 248.019616 119.400872 C 247.614122 118.950772 247.327425 116.775224 247.95282 115.572775 C 248.193804 114.958679 248.594084 114.034311 248.894235 113.451315 C 248.981461 113.287561 249.225455 113.123002 249.310338 112.955484 M 222.796285 106.779067 L 222.730374 106.903493 L 222.472212 107.400402 C 222.13767 108.046502 221.685699 108.635058 221.378786 109.203988 C 221.055884 109.827204 220.55548 110.357119 220.232578 110.980336 C 219.816352 111.562351 219.452021 112.336539 219.021813 112.937674 C 218.619742 113.65441 218.172578 114.164311 217.778664 114.922949 C 217.437666 115.523482 217.164036 115.800378 216.81158 116.478477 L 217.778664 114.922949 C 217.437666 115.523482 217.164036 115.800378 216.81158 116.478477 M 209.802615 94.657045 C 209.864267 94.775319 210.106869 95.587499 210.157254 96.106771 C 210.077317 96.646955 209.990689 98.587264 209.794779 99.238604 C 209.644542 99.963344 209.530162 100.694521 209.449297 101.428369 C 209.258661 102.222554 209.192707 102.743618 208.977395 103.555735 C 208.947428 104.265805 208.837326 104.923874 208.694952 105.622857 M 225.393022 117.555479 C 224.553315 116.673112 224.059206 116.995594 223.521269 116.956508 C 222.922218 117.062352 221.835737 117.562199 220.732866 118.672361 C 220.33041 119.110142 219.991634 119.432711 219.460139 119.906263 C 219.217936 120.278453 219.021968 120.421017 218.757147 120.648085 M 288.476157 87.760647 L 288.410247 87.885073 C 288.61361 87.495253 288.467094 87.71409 288.650059 88.641581 C 288.892906 89.281395 288.92214 89.725085 289.189928 90.344193 M 275.418798 91.219099 C 275.375903 91.30053 275.267029 100.336263 275.640856 101.500097 C 275.753258 102.247006 275.954393 102.870974 276.058505 103.761323 C 276.058521 104.298827 276.185693 104.749543 276.222248 105.272184 C 276.529224 105.848694 276.592827 106.427599 276.906616 106.890287 C 277.060518 107.527929 277.570043 107.553347 277.845428 108.149473 C 278.2275 108.561931 278.8551 109.288987 279.23208 109.613282 M 269.14164 115.952184 C 268.864234 115.858296 268.149674 115.292221 267.541032 114.989143 C 266.853997 114.601672 265.158516 112.58077 265.07721 111.154401 " transform="matrix(-0.929624,1.962192,-1.497056,-1.220981,999.177934,-105.399318)"/>
<path style="fill:none;stroke-width:1;stroke-linecap:butt;stroke-linejoin:miter;stroke:rgb(0%,0%,0%);stroke-opacity:1;stroke-miterlimit:4;" d="M 275.902637 103.130121 C 275.881058 103.172223 274.959765 104.078306 273.45342 105.608616 C 271.527144 107.391861 266.283565 110.460088 265.654573 110.709771 C 265.049155 110.981344 264.29607 111.639464 263.70095 111.73243 C 263.014408 112.004802 262.332797 112.112337 261.683336 112.26514 C 260.893389 112.43212 260.221636 112.577892 259.607819 112.612017 C 257.76459 113.412177 248.053639 113.101797 247.553494 112.992275 C 246.988121 112.985881 246.423696 112.955415 245.859953 112.903651 C 245.396926 113.013744 244.851433 112.968913 244.226658 113.004624 C 243.47199 112.943563 243.038129 113.087731 242.403903 113.165841 C 241.904662 113.428887 241.070873 113.70137 240.508217 114.076854 C 239.735408 114.389749 239.267888 114.815747 238.734643 115.052941 C 238.180215 115.512032 230.625723 119.921328 230.258433 120.118091 C 229.467181 120.468532 226.618722 121.313646 225.906209 119.31119 C 225.723305 118.524564 225.360585 117.711304 225.338359 117.109314 C 225.10867 116.388269 225.23915 115.615783 225.277538 114.944842 C 225.938166 111.533931 227.033544 110.190977 227.334866 109.609863 L 227.657768 108.986646 M 297.881336 96.438414 L 297.816861 96.561948 C 297.992106 96.226118 297.910472 96.402056 297.434885 96.997449 C 296.94772 97.388678 296.347932 98.01162 295.906788 98.41602 C 295.460765 98.857371 295.033653 99.482676 294.633796 99.652696 C 294.229781 100.177552 293.7222 100.344014 293.174402 100.634602 C 292.510347 100.869528 291.876058 101.174685 291.278715 101.545616 C 290.457604 101.98244 289.947842 102.398139 289.18764 102.83367 C 288.718703 103.430151 288.241478 103.802162 287.843338 104.50602 C 287.449964 105.159951 287.057507 105.719378 286.685438 106.43314 L 285.780035 108.177374 L 286.685438 106.43314 L 285.780035 108.177374 M 291.568831 144.22303 L 291.699215 143.975071 C 291.459496 144.434434 291.54392 144.314168 291.766747 143.536524 C 291.769382 142.603371 291.991795 141.47634 292.001445 140.65364 C 292.141459 139.7813 292.282613 138.84041 292.291174 137.958373 C 292.23839 136.926561 292.24023 136.00173 292.086707 135.00638 C 292.074189 134.090466 291.967552 133.14167 291.939879 132.242994 C 291.924712 131.354817 291.856935 130.593243 291.663837 129.729449 C 291.647284 129.082188 291.607594 128.196192 291.449477 127.40461 C 291.534751 126.780224 291.355979 126.204992 291.222616 125.705935 C 290.982185 124.743678 290.888427 124.183497 290.63383 123.185679 C 290.481995 122.653735 290.331158 121.969831 290.100797 121.170925 C 290.017754 120.413612 289.611979 119.428783 289.447272 118.776976 C 289.221675 118.296054 288.994622 117.646432 288.907403 117.074363 C 288.671571 116.545002 288.335736 115.902917 288.242813 115.305687 C 287.995789 114.851117 287.730996 114.144042 287.457282 113.473819 C 287.220697 112.924051 287.046244 112.246985 286.793863 111.707025 C 286.539987 111.027092 286.229499 110.444937 286.070199 109.750633 C 285.826514 109.515779 285.772888 109.256839 285.640928 109.054369 " transform="matrix(-0.929624,1.962192,-1.497056,-1.220981,999.177934,-105.399318)"/>
<path style="fill-rule:nonzero;fill:rgb(97.647059%,86.666667%,8.627451%);fill-opacity:1;stroke-width:1;stroke-linecap:butt;stroke-linejoin:miter;stroke:rgb(0%,0%,0%);stroke-opacity:1;stroke-miterlimit:4;" d="M 289.89053 91.735644 C 289.044203 93.667593 286.868773 96.490104 286.835818 96.552317 L 284.764151 100.693318 C 283.852002 102.960989 284.43409 103.867646 284.832117 104.523297 C 285.656269 105.978929 285.801351 106.765559 286.411452 107.874 C 286.642806 109.25677 284.187199 109.722253 284.154244 109.784465 C 279.045019 111.558552 276.453603 106.654955 276.426312 106.403144 C 275.733133 103.830295 275.822428 103.404327 277.388778 102.872643 C 279.185413 102.461498 279.90616 102.439252 280.795647 101.795584 C 282.477548 100.534606 283.665128 96.726023 283.696912 96.661928 C 283.729868 96.599716 283.9491 94.501394 283.9491 94.501394 C 284.080968 93.487993 283.611595 92.560921 284.12931 90.958275 C 284.799934 89.409408 285.204844 88.988368 286.795785 88.864119 C 288.869509 88.677522 290.479959 90.145871 289.89053 91.735644 Z M 289.89053 91.735644 " transform="matrix(-0.929624,1.962192,-1.497056,-1.220981,999.177934,-105.399318)"/>
<path style="fill-rule:nonzero;fill:rgb(97.647059%,86.666667%,8.627451%);fill-opacity:1;stroke-width:1;stroke-linecap:butt;stroke-linejoin:miter;stroke:rgb(0%,0%,0%);stroke-opacity:1;stroke-miterlimit:4;" d="M 225.969909 126.344847 C 226.190251 126.570915 228.826104 128.165485 228.874145 128.075544 C 228.918606 127.988715 235.774891 126.406623 235.729385 126.495407 C 235.684924 126.582236 231.887598 131.094207 232.064481 131.186381 C 232.241364 131.278556 236.031689 135.816877 236.119609 135.863942 C 236.208572 135.909052 228.940353 135.26672 228.940353 135.26672 L 224.132149 139.142004 L 223.057558 134.111392 C 223.057558 134.111392 217.009497 131.977526 216.922023 131.933214 C 216.834104 131.886149 222.097213 130.147663 222.097213 130.147663 L 223.666109 126.044386 C 223.666109 126.044386 225.703505 126.431037 225.969909 126.344847 Z M 225.969909 126.344847 " transform="matrix(-0.831676,-2.038497,1.553606,-1.088817,512.194537,1074.982764)"/>
<path style="fill-rule:nonzero;fill:rgb(100%,100%,100%);fill-opacity:1;stroke-width:1.3;stroke-linecap:butt;stroke-linejoin:miter;stroke:rgb(0%,0%,0%);stroke-opacity:1;stroke-miterlimit:4;" d="M 314.465186 136.204601 C 314.480694 131.963715 306.130244 112.779793 304.756962 109.829539 C 302.198664 106.629611 299.49283 101.560513 298.329527 97.183905 C 297.576893 92.763133 295.213839 89.29812 291.880945 88.122418 C 288.036472 86.081995 284.280478 86.882337 280.667519 87.196043 C 278.895213 87.572335 277.377655 88.530031 276.521232 89.939705 C 274.569911 92.731965 273.508145 92.520613 272.159346 93.722023 C 261.045667 95.453872 250.535475 101.189734 242.539854 105.098634 C 238.306721 108.03718 234.712452 109.743763 233.048965 110.102878 C 228.534665 110.120138 225.251137 107.980224 223.683039 106.8441 L 208.346759 92.89662 C 203.916081 89.589465 202.818017 94.364678 203.670851 95.092763 C 205.149401 98.272857 201.947184 100.206914 214.107579 111.662271 L 218.713488 121.127752 C 218.713488 121.127752 218.459113 123.717096 218.672805 123.82646 C 220.893057 129.11585 224.419612 127.797937 226.084549 126.313186 L 229.698679 123.023161 C 229.698679 123.023161 236.857736 120.755825 236.97008 120.541905 C 244.648849 121.685615 264.435427 117.916014 267.696032 116.367732 C 270.637261 114.721396 270.824681 116.114083 273.371422 114.040339 C 275.50182 112.631271 274.331928 113.752451 278.265634 110.158297 C 279.475583 109.116389 280.434816 110.804069 280.659755 111.983009 C 280.880061 123.151348 282.247997 130.287586 283.26636 141.425535 L 299.999706 149.998542 Z M 314.465186 136.204601 " transform="matrix(-0.831676,-2.038497,1.553606,-1.088817,512.194537,1074.982764)"/>
<path style=" stroke:none;fill-rule:nonzero;fill:rgb(97.647059%,86.666667%,8.627451%);fill-opacity:1;" d="M 489.929688 519.550781 C 490.011719 519.09375 507.191406 514.699219 507.191406 514.699219 C 507.191406 514.699219 505.261719 523.101562 505.175781 523.101562 L 488.109375 530.125 Z M 489.929688 519.550781 "/>
<path style="fill:none;stroke-width:1.13;stroke-linecap:butt;stroke-linejoin:miter;stroke:rgb(0%,0%,0%);stroke-opacity:1;stroke-miterlimit:4;" d="M 217.922388 101.929888 C 217.789263 102.570175 217.223974 105.433083 216.961399 106.215275 C 216.741263 107.083042 216.543632 107.955314 216.398322 108.822908 C 216.127318 109.77156 216.009706 110.389979 215.710517 111.366286 C 215.61307 112.201673 215.439331 112.986162 215.22592 113.819815 M 213.375069 97.574682 C 213.435823 97.69772 213.650186 98.559224 213.683003 99.114854 C 213.581209 99.696483 213.418007 101.781484 213.196162 102.487421 C 213.014973 103.267922 212.869254 104.057353 212.758115 104.85021 C 212.536196 105.706966 212.44887 106.268682 212.19832 107.15034 C 212.141602 107.909472 212.003524 108.620022 211.831887 109.375464 " transform="matrix(-0.831676,-2.038497,1.553606,-1.088817,512.194537,1074.982764)"/>
<path style="fill:none;stroke-width:1;stroke-linecap:butt;stroke-linejoin:miter;stroke:rgb(0%,0%,0%);stroke-opacity:1;stroke-miterlimit:4;" d="M 262.22769 96.634753 C 265.805438 100.616759 266.914793 107.089081 266.267147 110.712483 M 248.383259 120.222512 L 248.450098 120.097376 C 248.245252 120.488066 248.402466 120.26548 248.019971 119.399458 C 247.613867 118.950746 247.326966 116.775654 247.952698 115.571862 C 248.192235 114.958369 248.592309 114.033553 248.895477 113.451608 C 248.981712 113.286569 249.224604 113.12242 249.311884 112.955426 M 222.796043 106.779106 L 222.731739 106.903085 L 222.473478 107.400954 C 222.138381 108.046264 221.686453 108.634061 221.378968 109.206152 C 221.054913 109.827201 220.556955 110.357672 220.231856 110.980677 C 219.817194 111.56328 219.452372 112.335994 219.021752 112.937712 C 218.62044 113.653177 218.171084 114.164407 217.777949 114.921965 C 217.438254 115.52207 217.163408 115.799858 216.812047 116.479206 L 217.777949 114.921965 C 217.438254 115.52207 217.163408 115.799858 216.812047 116.479206 M 209.803652 94.657106 C 209.865004 94.775436 210.106967 95.588856 210.158135 96.106539 C 210.076783 96.646309 209.990863 98.586622 209.795726 99.238969 C 209.644823 99.962768 209.530435 100.693542 209.449581 101.429697 C 209.258101 102.222289 209.192707 102.742945 208.977219 103.555371 C 208.94661 104.265622 208.83673 104.92338 208.695378 105.62212 M 225.393081 117.555282 C 224.55344 116.673344 224.059759 116.994901 223.519752 116.954741 C 222.921986 117.062179 221.836616 117.562313 220.732761 118.671072 C 220.330095 119.109238 219.992027 119.43364 219.460113 119.905704 C 219.218459 120.279205 219.022232 120.420563 218.75695 120.648156 M 288.475655 87.760314 L 288.411351 87.884292 C 288.613663 87.49476 288.467032 87.715469 288.650957 88.641136 C 288.893452 89.281354 288.923044 89.724628 289.189547 90.345012 M 275.418933 91.217757 C 275.37656 91.300675 275.26642 100.335984 275.640272 101.50161 C 275.75259 102.245629 275.953208 102.870973 276.058002 103.761822 C 276.059079 104.297947 276.183913 104.749464 276.222409 105.272934 C 276.529031 105.846908 276.592987 106.426751 276.907415 106.889245 C 277.06003 107.52912 277.571725 107.554124 277.844799 108.147854 C 278.227518 108.561419 278.855429 109.28727 279.232377 109.614774 M 269.142224 115.952638 C 268.86294 115.858447 268.149393 115.292926 267.54095 114.989842 C 266.8534 114.601669 265.158296 112.580405 265.07851 111.154822 " transform="matrix(-0.831676,-2.038497,1.553606,-1.088817,512.194537,1074.982764)"/>
<path style="fill:none;stroke-width:1;stroke-linecap:butt;stroke-linejoin:miter;stroke:rgb(0%,0%,0%);stroke-opacity:1;stroke-miterlimit:4;" d="M 275.901209 103.129768 C 275.880768 103.171626 274.959307 104.078822 273.454136 105.60887 C 271.527013 107.390758 266.28486 110.460477 265.654084 110.708645 C 265.050424 110.981386 264.296774 111.638981 263.699314 111.731496 C 263.015313 112.003972 262.333183 112.111505 261.683225 112.266432 C 260.893448 112.431998 260.221583 112.577712 259.607757 112.611179 C 257.765484 113.41265 248.053487 113.101446 247.552566 112.991695 C 246.986755 112.985494 246.422446 112.954954 245.860086 112.902828 C 245.39781 113.014909 244.851395 112.968805 244.226985 113.00415 C 243.472497 112.942204 243.038674 113.087117 242.404852 113.165195 C 241.9033 113.429738 241.072182 113.701403 240.508566 114.078553 C 239.736902 114.389587 239.268211 114.815038 238.734027 115.05457 C 238.180806 115.512713 230.625397 119.92127 230.259816 120.1178 C 229.465775 120.467142 226.61825 121.313801 225.906009 119.310793 C 225.722761 118.523775 225.359765 117.710935 225.338449 117.108661 C 225.108664 116.387246 225.238424 115.616929 225.277809 114.944062 C 225.938168 111.533639 227.032748 110.191112 227.334426 109.60837 L 227.658481 108.98732 M 297.882281 96.439108 L 297.816487 96.562289 C 297.992091 96.226346 297.910619 96.403992 297.434989 96.996701 C 296.947384 97.389397 296.347129 98.010936 295.907961 98.41699 C 295.461023 98.859115 295.03397 99.482856 294.632778 99.65278 C 294.231858 100.177367 293.722751 100.344837 293.173488 100.634126 C 292.510821 100.87025 291.875843 101.176512 291.278247 101.545529 C 290.458823 101.981855 289.947656 102.397139 289.188004 102.832777 C 288.71729 103.430632 288.241173 103.801821 287.843592 104.506712 C 287.449615 105.158217 287.055981 105.719391 286.685822 106.433933 L 285.778853 108.17861 L 286.685822 106.433933 L 285.778853 108.17861 M 291.5696 144.223551 L 291.699252 143.973639 C 291.4583 144.435516 291.542129 144.314447 291.767437 143.537449 C 291.769985 142.603489 291.990397 141.476895 292.001238 140.652975 C 292.140587 139.78219 292.2834 138.840344 292.291884 137.959848 C 292.240225 136.926468 292.241575 136.001924 292.087198 135.006588 C 292.074832 134.089786 291.966191 133.141562 291.940401 132.242718 C 291.924444 131.354167 291.857148 130.59402 291.663952 129.728761 C 291.646533 129.083315 291.606428 128.196923 291.449417 127.403835 C 291.533494 126.780036 291.355955 126.204762 291.223541 125.706446 C 290.982099 124.744959 290.88713 124.183715 290.634377 123.186002 C 290.482604 122.652179 290.331351 121.970289 290.101157 121.170712 C 290.017763 120.412004 289.612073 119.427965 289.446645 118.776202 C 289.221957 118.296375 288.994223 117.646459 288.90701 117.074281 C 288.671763 116.546058 288.336407 115.903902 288.243692 115.30615 C 287.995888 114.851663 287.731664 114.144498 287.457137 113.474561 C 287.219813 112.925113 287.045903 112.24618 286.793819 111.70643 C 286.539567 111.027233 286.229074 110.446158 286.070077 109.750066 C 285.827829 109.514784 285.772359 109.256288 285.640395 109.054901 " transform="matrix(-0.831676,-2.038497,1.553606,-1.088817,512.194537,1074.982764)"/>
<path style="fill-rule:nonzero;fill:rgb(97.647059%,86.666667%,8.627451%);fill-opacity:1;stroke-width:1;stroke-linecap:butt;stroke-linejoin:miter;stroke:rgb(0%,0%,0%);stroke-opacity:1;stroke-miterlimit:4;" d="M 289.889719 91.735611 C 289.045708 93.667363 286.867809 96.489189 286.83588 96.552555 L 284.764053 100.693349 C 283.851907 102.960746 284.434414 103.868466 284.831771 104.523698 C 285.65667 105.978551 285.80176 106.765257 286.412787 107.874303 C 286.642097 109.256728 284.187521 109.722877 284.154102 109.785445 C 279.044949 111.558576 276.453209 106.656157 276.426205 106.405355 C 275.733175 103.831825 275.823267 103.404847 277.389356 102.872906 C 279.184484 102.461059 279.906519 102.44026 280.795506 101.794769 C 282.476429 100.534807 283.664194 96.725337 283.696123 96.661971 C 283.729542 96.599403 283.949242 94.501903 283.949242 94.501903 C 284.080464 93.48848 283.611844 92.561269 284.129262 90.957547 C 284.801223 89.408898 285.204029 88.988407 286.795405 88.864749 C 288.869156 88.677484 290.480167 90.14584 289.889719 91.735611 Z M 289.889719 91.735611 " transform="matrix(-0.831676,-2.038497,1.553606,-1.088817,512.194537,1074.982764)"/>
<path style="fill-rule:nonzero;fill:rgb(97.647059%,86.666667%,8.627451%);fill-opacity:1;stroke-width:1.3;stroke-linecap:butt;stroke-linejoin:miter;stroke:rgb(0%,0%,0%);stroke-opacity:1;stroke-miterlimit:4;" d="M 304.617265 169.369527 C 302.845095 168.46749 301.490874 168.287302 300.844006 168.724698 C 299.816732 162.978234 298.911201 157.224365 297.594025 151.497625 C 286.696335 146.96002 284.394217 145.923285 280.818026 144.370554 C 282.488692 143.285444 283.321095 142.202659 283.265073 141.424883 C 288.755762 143.408187 294.190104 145.501587 299.809853 147.22188 C 309.187333 140.05442 311.235772 138.578009 314.370505 136.259027 C 314.474279 138.24779 314.996043 139.509074 315.69677 139.851217 C 311.235517 143.612615 306.704491 147.273156 302.401971 151.281293 C 303.922127 162.984669 304.175807 165.497815 304.617265 169.369527 Z M 304.617265 169.369527 " transform="matrix(1.7613,0.0763048,-0.05655,2.309799,-24.175,-69.250162)"/>
</g>
</svg>
