<?xml version="1.0" encoding="UTF-8"?>
<svg xmlns="http://www.w3.org/2000/svg" xmlns:xlink="http://www.w3.org/1999/xlink" width="1000px" height="667px" viewBox="0 0 1000 667" version="1.1">
<g id="surface1">
<path style=" stroke:none;fill-rule:nonzero;fill:rgb(100%,60.000002%,20%);fill-opacity:1;" d="M 0 0 L 1000 0 L 1000 222.332031 L 0 222.332031 Z M 0 0 "/>
<path style=" stroke:none;fill-rule:nonzero;fill:rgb(100%,100%,100%);fill-opacity:1;" d="M 0 222.332031 L 1000 222.332031 L 1000 444.667969 L 0 444.667969 Z M 0 222.332031 "/>
<path style=" stroke:none;fill-rule:nonzero;fill:rgb(7.058824%,53.333336%,2.745098%);fill-opacity:1;" d="M 0 444.667969 L 1000 444.667969 L 1000 667 L 0 667 Z M 0 444.667969 "/>
<path style=" stroke:none;fill-rule:nonzero;fill:rgb(0%,0%,53.333336%);fill-opacity:1;" d="M 602.777344 333.5 C 602.777344 390.289062 556.761719 436.328125 500 436.328125 C 443.238281 436.328125 397.222656 390.289062 397.222656 333.5 C 397.222656 276.710938 443.238281 230.671875 500 230.671875 C 556.761719 230.671875 602.777344 276.710938 602.777344 333.5 Z M 602.777344 333.5 "/>
<path style=" stroke:none;fill-rule:nonzero;fill:rgb(100%,100%,100%);fill-opacity:1;" d="M 588.890625 333.5 C 588.890625 382.617188 549.09375 422.433594 500 422.433594 C 450.90625 422.433594 411.109375 382.617188 411.109375 333.5 C 411.109375 284.382812 450.90625 244.566406 500 244.566406 C 549.09375 244.566406 588.890625 284.382812 588.890625 333.5 Z M 588.890625 333.5 "/>
<path style=" stroke:none;fill-rule:nonzero;fill:rgb(0%,0%,53.333336%);fill-opacity:1;" d="M 517.777344 333.5 C 517.777344 343.324219 509.820312 351.285156 500 351.285156 C 490.179688 351.285156 482.222656 343.324219 482.222656 333.5 C 482.222656 323.675781 490.179688 315.714844 500 315.714844 C 509.820312 315.714844 517.777344 323.675781 517.777344 333.5 Z M 517.777344 333.5 "/>
<path style=" stroke:none;fill-rule:nonzero;fill:rgb(0%,0%,53.333336%);fill-opacity:1;" d="M 591.984375 345.617188 C 591.703125 347.746094 589.75 349.246094 587.621094 348.964844 C 585.492188 348.683594 583.992188 346.730469 584.273438 344.601562 C 584.554688 342.46875 586.507812 340.96875 588.636719 341.25 C 590.765625 341.53125 592.265625 343.484375 591.984375 345.617188 Z M 591.984375 345.617188 "/>
<path style=" stroke:none;fill-rule:nonzero;fill:rgb(0%,0%,53.333336%);fill-opacity:1;" d="M 500 422.433594 L 503.332031 369.074219 L 501.109375 351.253906 L 501.109375 350.175781 L 498.890625 350.175781 L 498.890625 351.253906 L 496.667969 369.074219 Z M 500 422.433594 "/>
<path style=" stroke:none;fill-rule:nonzero;fill:rgb(0%,0%,53.333336%);fill-opacity:1;" d="M 585.714844 369.023438 C 584.894531 371.007812 582.617188 371.949219 580.632812 371.128906 C 578.648438 370.304688 577.707031 368.03125 578.53125 366.042969 C 579.351562 364.058594 581.625 363.117188 583.609375 363.9375 C 585.59375 364.761719 586.539062 367.035156 585.714844 369.023438 Z M 585.714844 369.023438 "/>
<path style=" stroke:none;fill-rule:nonzero;fill:rgb(0%,0%,53.333336%);fill-opacity:1;" d="M 476.992188 419.402344 L 494.015625 368.722656 L 496.480469 350.933594 L 496.757812 349.894531 L 494.613281 349.320312 L 494.335938 350.359375 L 487.578125 366.996094 Z M 476.992188 419.402344 "/>
<path style=" stroke:none;fill-rule:nonzero;fill:rgb(0%,0%,53.333336%);fill-opacity:1;" d="M 573.605469 390.007812 C 572.296875 391.710938 569.855469 392.035156 568.152344 390.726562 C 566.449219 389.417969 566.128906 386.976562 567.433594 385.269531 C 568.742188 383.566406 571.183594 383.246094 572.886719 384.550781 C 574.589844 385.859375 574.914062 388.304688 573.605469 390.007812 Z M 573.605469 390.007812 "/>
<path style=" stroke:none;fill-rule:nonzero;fill:rgb(0%,0%,53.333336%);fill-opacity:1;" d="M 455.554688 410.519531 L 485.109375 365.976562 L 492.089844 349.429688 L 492.628906 348.496094 L 490.703125 347.386719 L 490.167969 348.316406 L 479.335938 362.640625 Z M 455.554688 410.519531 "/>
<path style=" stroke:none;fill-rule:nonzero;fill:rgb(0%,0%,53.333336%);fill-opacity:1;" d="M 556.480469 407.140625 C 554.777344 408.449219 552.335938 408.128906 551.027344 406.425781 C 549.71875 404.71875 550.039062 402.277344 551.746094 400.96875 C 553.449219 399.660156 555.890625 399.980469 557.199219 401.6875 C 558.503906 403.390625 558.183594 405.835938 556.480469 407.140625 Z M 556.480469 407.140625 "/>
<path style=" stroke:none;fill-rule:nonzero;fill:rgb(0%,0%,53.333336%);fill-opacity:1;" d="M 437.144531 396.386719 L 477.214844 361.011719 L 488.238281 346.839844 L 489 346.078125 L 487.429688 344.503906 L 486.667969 345.265625 L 472.5 356.296875 Z M 437.144531 396.386719 "/>
<path style=" stroke:none;fill-rule:nonzero;fill:rgb(0%,0%,53.333336%);fill-opacity:1;" d="M 535.503906 419.257812 C 533.519531 420.082031 531.246094 419.136719 530.421875 417.152344 C 529.601562 415.167969 530.542969 412.890625 532.527344 412.070312 C 534.511719 411.246094 536.789062 412.1875 537.609375 414.175781 C 538.429688 416.160156 537.488281 418.4375 535.503906 419.257812 Z M 535.503906 419.257812 "/>
<path style=" stroke:none;fill-rule:nonzero;fill:rgb(0%,0%,53.333336%);fill-opacity:1;" d="M 423.019531 377.964844 L 470.875 354.175781 L 485.1875 343.339844 L 486.121094 342.800781 L 485.011719 340.875 L 484.078125 341.414062 L 467.542969 348.398438 Z M 423.019531 377.964844 "/>
<path style=" stroke:none;fill-rule:nonzero;fill:rgb(0%,0%,53.333336%);fill-opacity:1;" d="M 512.109375 425.53125 C 509.980469 425.808594 508.027344 424.3125 507.746094 422.179688 C 507.464844 420.050781 508.964844 418.09375 511.09375 417.816406 C 513.222656 417.535156 515.175781 419.035156 515.457031 421.164062 C 515.738281 423.296875 514.238281 425.25 512.109375 425.53125 Z M 512.109375 425.53125 "/>
<path style=" stroke:none;fill-rule:nonzero;fill:rgb(0%,0%,53.333336%);fill-opacity:1;" d="M 414.140625 356.519531 L 466.519531 345.929688 L 483.148438 339.167969 L 484.1875 338.890625 L 483.613281 336.742188 L 482.574219 337.019531 L 464.792969 339.484375 Z M 414.140625 356.519531 "/>
<path style=" stroke:none;fill-rule:nonzero;fill:rgb(0%,0%,53.333336%);fill-opacity:1;" d="M 487.890625 425.53125 C 485.761719 425.25 484.261719 423.296875 484.542969 421.164062 C 484.824219 419.035156 486.777344 417.535156 488.90625 417.816406 C 491.035156 418.09375 492.535156 420.050781 492.253906 422.179688 C 491.972656 424.3125 490.019531 425.808594 487.890625 425.53125 Z M 487.890625 425.53125 "/>
<path style=" stroke:none;fill-rule:nonzero;fill:rgb(0%,0%,53.333336%);fill-opacity:1;" d="M 411.109375 333.5 L 464.445312 336.835938 L 482.257812 334.613281 L 483.332031 334.613281 L 483.332031 332.386719 L 482.257812 332.386719 L 464.445312 330.164062 Z M 411.109375 333.5 "/>
<path style=" stroke:none;fill-rule:nonzero;fill:rgb(0%,0%,53.333336%);fill-opacity:1;" d="M 464.496094 419.257812 C 462.511719 418.4375 461.570312 416.160156 462.390625 414.175781 C 463.210938 412.1875 465.488281 411.246094 467.472656 412.070312 C 469.457031 412.890625 470.398438 415.167969 469.578125 417.152344 C 468.753906 419.136719 466.480469 420.082031 464.496094 419.257812 Z M 464.496094 419.257812 "/>
<path style=" stroke:none;fill-rule:nonzero;fill:rgb(0%,0%,53.333336%);fill-opacity:1;" d="M 414.140625 310.480469 L 464.792969 327.515625 L 482.574219 329.980469 L 483.613281 330.257812 L 484.1875 328.109375 L 483.148438 327.832031 L 466.519531 321.070312 Z M 414.140625 310.480469 "/>
<path style=" stroke:none;fill-rule:nonzero;fill:rgb(0%,0%,53.333336%);fill-opacity:1;" d="M 443.519531 407.140625 C 441.816406 405.835938 441.496094 403.390625 442.800781 401.6875 C 444.109375 399.980469 446.550781 399.660156 448.253906 400.96875 C 449.960938 402.277344 450.28125 404.71875 448.972656 406.425781 C 447.664062 408.128906 445.222656 408.449219 443.519531 407.140625 Z M 443.519531 407.140625 "/>
<path style=" stroke:none;fill-rule:nonzero;fill:rgb(0%,0%,53.333336%);fill-opacity:1;" d="M 423.019531 289.035156 L 467.542969 318.601562 L 484.078125 325.585938 L 485.011719 326.125 L 486.121094 324.199219 L 485.1875 323.660156 L 470.875 312.824219 Z M 423.019531 289.035156 "/>
<path style=" stroke:none;fill-rule:nonzero;fill:rgb(0%,0%,53.333336%);fill-opacity:1;" d="M 426.394531 390.007812 C 425.085938 388.304688 425.410156 385.859375 427.113281 384.550781 C 428.816406 383.246094 431.257812 383.566406 432.566406 385.269531 C 433.871094 386.976562 433.550781 389.417969 431.847656 390.726562 C 430.144531 392.035156 427.703125 391.710938 426.394531 390.007812 Z M 426.394531 390.007812 "/>
<path style=" stroke:none;fill-rule:nonzero;fill:rgb(0%,0%,53.333336%);fill-opacity:1;" d="M 437.144531 270.613281 L 472.5 310.703125 L 486.667969 321.734375 L 487.429688 322.496094 L 489 320.921875 L 488.238281 320.160156 L 477.214844 305.988281 Z M 437.144531 270.613281 "/>
<path style=" stroke:none;fill-rule:nonzero;fill:rgb(0%,0%,53.333336%);fill-opacity:1;" d="M 414.285156 369.023438 C 413.460938 367.035156 414.40625 364.761719 416.390625 363.9375 C 418.375 363.117188 420.648438 364.058594 421.46875 366.042969 C 422.292969 368.03125 421.351562 370.304688 419.367188 371.128906 C 417.382812 371.949219 415.105469 371.007812 414.285156 369.023438 Z M 414.285156 369.023438 "/>
<path style=" stroke:none;fill-rule:nonzero;fill:rgb(0%,0%,53.333336%);fill-opacity:1;" d="M 455.554688 256.480469 L 479.335938 304.359375 L 490.167969 318.683594 L 490.703125 319.613281 L 492.628906 318.503906 L 492.089844 317.570312 L 485.109375 301.023438 Z M 455.554688 256.480469 "/>
<path style=" stroke:none;fill-rule:nonzero;fill:rgb(0%,0%,53.333336%);fill-opacity:1;" d="M 408.015625 345.617188 C 407.734375 343.484375 409.234375 341.53125 411.363281 341.25 C 413.492188 340.96875 415.445312 342.46875 415.726562 344.601562 C 416.007812 346.730469 414.507812 348.683594 412.378906 348.964844 C 410.25 349.246094 408.296875 347.746094 408.015625 345.617188 Z M 408.015625 345.617188 "/>
<path style=" stroke:none;fill-rule:nonzero;fill:rgb(0%,0%,53.333336%);fill-opacity:1;" d="M 476.992188 247.597656 L 487.578125 300.003906 L 494.335938 316.640625 L 494.613281 317.679688 L 496.757812 317.105469 L 496.480469 316.066406 L 494.015625 298.277344 Z M 476.992188 247.597656 "/>
<path style=" stroke:none;fill-rule:nonzero;fill:rgb(0%,0%,53.333336%);fill-opacity:1;" d="M 408.015625 321.382812 C 408.296875 319.253906 410.25 317.753906 412.378906 318.035156 C 414.507812 318.316406 416.007812 320.269531 415.726562 322.398438 C 415.445312 324.53125 413.492188 326.03125 411.363281 325.75 C 409.234375 325.46875 407.734375 323.515625 408.015625 321.382812 Z M 408.015625 321.382812 "/>
<path style=" stroke:none;fill-rule:nonzero;fill:rgb(0%,0%,53.333336%);fill-opacity:1;" d="M 500 244.566406 L 496.667969 297.925781 L 498.890625 315.746094 L 498.890625 316.824219 L 501.109375 316.824219 L 501.109375 315.746094 L 503.332031 297.925781 Z M 500 244.566406 "/>
<path style=" stroke:none;fill-rule:nonzero;fill:rgb(0%,0%,53.333336%);fill-opacity:1;" d="M 414.285156 297.976562 C 415.105469 295.992188 417.382812 295.050781 419.367188 295.871094 C 421.351562 296.695312 422.292969 298.96875 421.46875 300.957031 C 420.648438 302.941406 418.375 303.882812 416.390625 303.0625 C 414.40625 302.238281 413.460938 299.964844 414.285156 297.976562 Z M 414.285156 297.976562 "/>
<path style=" stroke:none;fill-rule:nonzero;fill:rgb(0%,0%,53.333336%);fill-opacity:1;" d="M 523.007812 247.597656 L 505.984375 298.277344 L 503.519531 316.066406 L 503.242188 317.105469 L 505.386719 317.679688 L 505.664062 316.640625 L 512.421875 300.003906 Z M 523.007812 247.597656 "/>
<path style=" stroke:none;fill-rule:nonzero;fill:rgb(0%,0%,53.333336%);fill-opacity:1;" d="M 426.394531 276.992188 C 427.703125 275.289062 430.144531 274.964844 431.847656 276.273438 C 433.550781 277.582031 433.871094 280.023438 432.566406 281.730469 C 431.257812 283.433594 428.816406 283.753906 427.113281 282.449219 C 425.410156 281.140625 425.085938 278.695312 426.394531 276.992188 Z M 426.394531 276.992188 "/>
<path style=" stroke:none;fill-rule:nonzero;fill:rgb(0%,0%,53.333336%);fill-opacity:1;" d="M 544.445312 256.480469 L 514.890625 301.023438 L 507.910156 317.570312 L 507.371094 318.503906 L 509.296875 319.613281 L 509.832031 318.683594 L 520.664062 304.359375 Z M 544.445312 256.480469 "/>
<path style=" stroke:none;fill-rule:nonzero;fill:rgb(0%,0%,53.333336%);fill-opacity:1;" d="M 443.519531 259.859375 C 445.222656 258.550781 447.664062 258.871094 448.972656 260.574219 C 450.28125 262.28125 449.960938 264.722656 448.253906 266.03125 C 446.550781 267.339844 444.109375 267.019531 442.800781 265.3125 C 441.496094 263.609375 441.816406 261.164062 443.519531 259.859375 Z M 443.519531 259.859375 "/>
<path style=" stroke:none;fill-rule:nonzero;fill:rgb(0%,0%,53.333336%);fill-opacity:1;" d="M 562.855469 270.613281 L 522.785156 305.988281 L 511.761719 320.160156 L 511 320.921875 L 512.570312 322.496094 L 513.332031 321.734375 L 527.5 310.703125 Z M 562.855469 270.613281 "/>
<path style=" stroke:none;fill-rule:nonzero;fill:rgb(0%,0%,53.333336%);fill-opacity:1;" d="M 464.496094 247.742188 C 466.480469 246.917969 468.753906 247.863281 469.578125 249.847656 C 470.398438 251.832031 469.457031 254.109375 467.472656 254.929688 C 465.488281 255.753906 463.210938 254.8125 462.390625 252.824219 C 461.570312 250.839844 462.511719 248.5625 464.496094 247.742188 Z M 464.496094 247.742188 "/>
<path style=" stroke:none;fill-rule:nonzero;fill:rgb(0%,0%,53.333336%);fill-opacity:1;" d="M 576.980469 289.035156 L 529.125 312.824219 L 514.8125 323.660156 L 513.878906 324.199219 L 514.988281 326.125 L 515.921875 325.585938 L 532.457031 318.601562 Z M 576.980469 289.035156 "/>
<path style=" stroke:none;fill-rule:nonzero;fill:rgb(0%,0%,53.333336%);fill-opacity:1;" d="M 487.890625 241.46875 C 490.019531 241.191406 491.972656 242.6875 492.253906 244.820312 C 492.535156 246.949219 491.035156 248.90625 488.90625 249.183594 C 486.777344 249.464844 484.824219 247.964844 484.542969 245.835938 C 484.261719 243.703125 485.761719 241.75 487.890625 241.46875 Z M 487.890625 241.46875 "/>
<path style=" stroke:none;fill-rule:nonzero;fill:rgb(0%,0%,53.333336%);fill-opacity:1;" d="M 585.859375 310.480469 L 533.480469 321.070312 L 516.851562 327.832031 L 515.8125 328.109375 L 516.386719 330.257812 L 517.425781 329.980469 L 535.207031 327.515625 Z M 585.859375 310.480469 "/>
<path style=" stroke:none;fill-rule:nonzero;fill:rgb(0%,0%,53.333336%);fill-opacity:1;" d="M 512.109375 241.46875 C 514.238281 241.75 515.738281 243.703125 515.457031 245.835938 C 515.175781 247.964844 513.222656 249.464844 511.09375 249.183594 C 508.964844 248.90625 507.464844 246.949219 507.746094 244.820312 C 508.027344 242.6875 509.980469 241.191406 512.109375 241.46875 Z M 512.109375 241.46875 "/>
<path style=" stroke:none;fill-rule:nonzero;fill:rgb(0%,0%,53.333336%);fill-opacity:1;" d="M 588.890625 333.5 L 535.554688 330.164062 L 517.742188 332.386719 L 516.667969 332.386719 L 516.667969 334.613281 L 517.742188 334.613281 L 535.554688 336.835938 Z M 588.890625 333.5 "/>
<path style=" stroke:none;fill-rule:nonzero;fill:rgb(0%,0%,53.333336%);fill-opacity:1;" d="M 535.503906 247.742188 C 537.488281 248.5625 538.429688 250.839844 537.609375 252.824219 C 536.789062 254.8125 534.511719 255.753906 532.527344 254.929688 C 530.542969 254.109375 529.601562 251.832031 530.421875 249.847656 C 531.246094 247.863281 533.519531 246.917969 535.503906 247.742188 Z M 535.503906 247.742188 "/>
<path style=" stroke:none;fill-rule:nonzero;fill:rgb(0%,0%,53.333336%);fill-opacity:1;" d="M 585.859375 356.519531 L 535.207031 339.484375 L 517.425781 337.019531 L 516.386719 336.742188 L 515.8125 338.890625 L 516.851562 339.167969 L 533.480469 345.929688 Z M 585.859375 356.519531 "/>
<path style=" stroke:none;fill-rule:nonzero;fill:rgb(0%,0%,53.333336%);fill-opacity:1;" d="M 556.480469 259.859375 C 558.183594 261.164062 558.503906 263.609375 557.199219 265.3125 C 555.890625 267.019531 553.449219 267.339844 551.746094 266.03125 C 550.039062 264.722656 549.71875 262.28125 551.027344 260.574219 C 552.335938 258.871094 554.777344 258.550781 556.480469 259.859375 Z M 556.480469 259.859375 "/>
<path style=" stroke:none;fill-rule:nonzero;fill:rgb(0%,0%,53.333336%);fill-opacity:1;" d="M 576.980469 377.964844 L 532.457031 348.398438 L 515.921875 341.414062 L 514.988281 340.875 L 513.878906 342.800781 L 514.8125 343.339844 L 529.125 354.175781 Z M 576.980469 377.964844 "/>
<path style=" stroke:none;fill-rule:nonzero;fill:rgb(0%,0%,53.333336%);fill-opacity:1;" d="M 573.605469 276.992188 C 574.914062 278.695312 574.589844 281.140625 572.886719 282.449219 C 571.183594 283.753906 568.742188 283.433594 567.433594 281.730469 C 566.128906 280.023438 566.449219 277.582031 568.152344 276.273438 C 569.855469 274.964844 572.296875 275.289062 573.605469 276.992188 Z M 573.605469 276.992188 "/>
<path style=" stroke:none;fill-rule:nonzero;fill:rgb(0%,0%,53.333336%);fill-opacity:1;" d="M 562.855469 396.386719 L 527.5 356.296875 L 513.332031 345.265625 L 512.570312 344.503906 L 511 346.078125 L 511.761719 346.839844 L 522.785156 361.011719 Z M 562.855469 396.386719 "/>
<path style=" stroke:none;fill-rule:nonzero;fill:rgb(0%,0%,53.333336%);fill-opacity:1;" d="M 585.714844 297.976562 C 586.539062 299.964844 585.59375 302.238281 583.609375 303.0625 C 581.625 303.882812 579.351562 302.941406 578.53125 300.957031 C 577.707031 298.96875 578.648438 296.695312 580.632812 295.871094 C 582.617188 295.050781 584.894531 295.992188 585.714844 297.976562 Z M 585.714844 297.976562 "/>
<path style=" stroke:none;fill-rule:nonzero;fill:rgb(0%,0%,53.333336%);fill-opacity:1;" d="M 544.445312 410.519531 L 520.664062 362.640625 L 509.832031 348.316406 L 509.296875 347.386719 L 507.371094 348.496094 L 507.910156 349.429688 L 514.890625 365.976562 Z M 544.445312 410.519531 "/>
<path style=" stroke:none;fill-rule:nonzero;fill:rgb(0%,0%,53.333336%);fill-opacity:1;" d="M 591.984375 321.382812 C 592.265625 323.515625 590.765625 325.46875 588.636719 325.75 C 586.507812 326.03125 584.554688 324.53125 584.273438 322.398438 C 583.992188 320.269531 585.492188 318.316406 587.621094 318.035156 C 589.75 317.753906 591.703125 319.253906 591.984375 321.382812 Z M 591.984375 321.382812 "/>
<path style=" stroke:none;fill-rule:nonzero;fill:rgb(0%,0%,53.333336%);fill-opacity:1;" d="M 523.007812 419.402344 L 512.421875 366.996094 L 505.664062 350.359375 L 505.386719 349.320312 L 503.242188 349.894531 L 503.519531 350.933594 L 505.984375 368.722656 Z M 523.007812 419.402344 "/>
</g>
</svg>
