<?xml version="1.0" encoding="UTF-8"?>
<svg xmlns="http://www.w3.org/2000/svg" xmlns:xlink="http://www.w3.org/1999/xlink" width="1000px" height="667px" viewBox="0 0 1000 667" version="1.1">
<g id="surface1">
<rect x="0" y="0" width="1000" height="667" style="fill:rgb(80.784315%,6.666667%,14.901961%);fill-opacity:1;stroke:none;"/>
<path style=" stroke:none;fill-rule:nonzero;fill:rgb(100%,100%,100%);fill-opacity:1;" d="M 0 222.332031 L 1000 222.332031 L 1000 667 L 0 667 Z M 0 222.332031 "/>
<path style=" stroke:none;fill-rule:nonzero;fill:rgb(0%,0%,0%);fill-opacity:1;" d="M 0 444.667969 L 1000 444.667969 L 1000 667 L 0 667 Z M 0 444.667969 "/>
<path style=" stroke:none;fill-rule:nonzero;fill:rgb(0%,47.843137%,23.921569%);fill-opacity:1;" d="M 597.480469 291.902344 C 596.125 291.183594 594.597656 290.03125 594.085938 289.335938 C 593.324219 288.269531 593.765625 288.226562 596.917969 289.082031 C 602.558594 290.613281 606.199219 290.015625 609.808594 286.957031 L 612.992188 284.273438 L 616.738281 286.179688 C 618.800781 287.222656 620.992188 287.945312 621.625 287.777344 C 623.246094 287.347656 626.609375 283.03125 626.5 281.535156 C 626.371094 279.6875 627.929688 280.152344 628.679688 282.179688 C 630.179688 286.148438 627.996094 290.703125 624.144531 291.714844 C 622.261719 292.203125 620.523438 292.023438 617.675781 291.03125 C 614.175781 289.808594 613.578125 289.828125 611.824219 291.171875 C 607.886719 294.1875 602.410156 294.472656 597.480469 291.902344 Z M 611.433594 279.140625 C 610.0625 277.394531 608.417969 270.804688 608.949219 269.1875 C 609.417969 267.785156 609.902344 267.507812 611.171875 267.90625 C 613.40625 268.605469 613.921875 270.144531 613.589844 275.363281 C 613.328125 279.617188 612.699219 280.734375 611.433594 279.140625 Z M 447.160156 274.402344 C 446.710938 277.59375 452.816406 285.523438 455.574219 286.960938 C 453.699219 287.800781 451.371094 287.417969 449.652344 288.359375 C 440.046875 297.972656 404.964844 332.195312 398.558594 340.371094 C 417.53125 340.746094 438.578125 340.113281 456.371094 339.300781 C 456.351562 326.402344 468.578125 325.738281 476.761719 321.039062 C 480.972656 327.671875 491.542969 327.164062 492.863281 337.148438 C 492.863281 349.101562 492.886719 367.105469 492.886719 380.101562 L 330.78125 380.101562 C 327.929688 392.703125 316.5625 402.316406 300.722656 398.359375 C 305.625 393.238281 313.875 391.476562 316.828125 384.402344 C 319.320312 368.90625 311.847656 359.339844 307.019531 350.550781 C 315.011719 347.640625 316.222656 346.914062 324.347656 341.453125 C 318.644531 358.785156 339.164062 356.882812 354.402344 356.484375 C 354.914062 350.601562 354.617188 343.652344 350.105469 342.792969 C 355.933594 340.675781 356.902344 339.953125 366.210938 332.054688 L 366.210938 355.40625 C 402.429688 355.40625 441.496094 355.136719 478.46875 355.136719 C 478.46875 347.828125 480.402344 336.089844 474.625 336.089844 C 469.101562 336.089844 474.363281 351.117188 470.074219 351.117188 L 383.382812 351.117188 C 383.382812 347.886719 383.300781 341.128906 383.300781 336.257812 C 386.972656 332.582031 386.539062 332.902344 411.640625 307.785156 C 414.140625 305.273438 431.753906 289.363281 447.160156 274.402344 Z M 663.851562 273.785156 C 669.902344 277.042969 674.695312 281.550781 682.105469 283.453125 C 681.242188 286.523438 678.511719 287.734375 677.796875 290.96875 L 677.796875 356.476562 C 686.074219 358.300781 687.816406 353.609375 691.757812 351.109375 C 692.832031 361.59375 699.507812 371.871094 699.269531 380.101562 L 663.847656 380.101562 C 663.851562 344.667969 663.851562 309.226562 663.851562 273.785156 Z M 616.621094 308.867188 C 616.621094 308.867188 629.507812 297.984375 629.507812 297.566406 L 629.507812 354.734375 L 638.785156 354.71875 C 638.785156 332.9375 638.5 310.847656 638.5 290.601562 C 642.265625 286.832031 649.640625 281.375 651.488281 277.558594 L 651.488281 379.945312 C 625.339844 379.945312 576.566406 379.976562 570.117188 379.976562 C 568.917969 358.726562 568.714844 336.714844 593.476562 341.449219 L 593.476562 332.777344 C 592.71875 331.296875 591.363281 333.136719 591.046875 331.207031 C 594.976562 327.269531 596.308594 326.269531 606.953125 316.960938 C 606.953125 328.1875 607.148438 354.695312 607.148438 354.695312 C 609.753906 354.695312 614.820312 354.703125 616.53125 354.703125 C 616.535156 354.707031 616.621094 310.332031 616.621094 308.867188 Z M 586.078125 354.152344 C 587.820312 356.769531 593.753906 356.722656 593.476562 352.316406 C 592.476562 348.679688 584.675781 350.066406 586.078125 354.152344 Z M 586.078125 354.152344 "/>
<path style=" stroke:none;fill-rule:nonzero;fill:rgb(0%,47.843137%,23.921569%);fill-opacity:1;" d="M 355.496094 392.171875 C 355.496094 394.917969 353.269531 397.144531 350.527344 397.144531 C 347.78125 397.144531 345.558594 394.917969 345.558594 392.171875 C 345.558594 389.425781 347.78125 387.203125 350.527344 387.203125 C 353.269531 387.203125 355.496094 389.425781 355.496094 392.171875 Z M 355.496094 392.171875 "/>
<path style=" stroke:none;fill-rule:nonzero;fill:rgb(0%,47.843137%,23.921569%);fill-opacity:1;" d="M 503.863281 273.890625 C 509.917969 277.148438 514.707031 281.65625 522.117188 283.554688 C 521.257812 286.625 518.527344 287.839844 517.816406 291.070312 L 517.816406 356.582031 C 526.089844 358.402344 527.832031 353.707031 531.773438 351.210938 C 532.84375 361.695312 539.519531 371.96875 539.285156 380.203125 L 503.859375 380.203125 C 503.863281 344.769531 503.863281 309.332031 503.863281 273.890625 Z M 503.863281 273.890625 "/>
</g>
</svg>
