<?xml version="1.0" encoding="UTF-8"?>
<svg xmlns="http://www.w3.org/2000/svg" xmlns:xlink="http://www.w3.org/1999/xlink" width="1000px" height="667px" viewBox="0 0 1000 667" version="1.1">
<g id="surface1">
<rect x="0" y="0" width="1000" height="667" style="fill:rgb(100%,100%,100%);fill-opacity:1;stroke:none;"/>
<path style="fill-rule:nonzero;fill:rgb(0%,0%,0%);fill-opacity:1;stroke-width:2;stroke-linecap:butt;stroke-linejoin:miter;stroke:rgb(87.450981%,6.666667%,17.647059%);stroke-opacity:1;stroke-miterlimit:4;" d="M 0 0 L 30 18 M 0 18 L 30 0 " transform="matrix(33.333333,0,0,37.055556,0,0)"/>
<path style="fill-rule:nonzero;fill:rgb(90.980393%,6.666667%,17.647059%);fill-opacity:1;stroke-width:0.015;stroke-linecap:butt;stroke-linejoin:miter;stroke:rgb(0%,0%,0%);stroke-opacity:1;stroke-miterlimit:4;" d="M 16.569961 2.692958 C 16.955039 4.253959 16.743984 6.182018 15.003047 7.251991 C 13.261055 6.182018 13.05 4.253959 13.434961 2.692958 C 13.845 2.319996 15.710977 2.089978 16.569961 2.692958 Z M 16.569961 2.692958 " transform="matrix(33.333333,0,0,37.055556,0,0)"/>
<path style="fill-rule:nonzero;fill:rgb(97.647059%,86.666667%,8.627451%);fill-opacity:1;stroke-width:0.015;stroke-linecap:butt;stroke-linejoin:miter;stroke:rgb(0%,0%,0%);stroke-opacity:1;stroke-miterlimit:4;" d="M 15 2.379978 C 15.637969 2.379978 16.233047 2.54896 16.584023 2.768014 C 16.651992 2.229022 16.895977 1.690979 17.184023 1.283967 C 16.884023 1.277959 16.749023 1.43798 16.745977 1.60401 C 16.670977 1.390965 16.376016 1.404036 16.286016 1.519045 C 16.614961 1.741051 16.361016 2.134991 16.063945 2.054032 C 15.924023 2.015976 15.851016 1.918994 15.823945 1.776998 C 15.906562 1.771411 15.971719 1.704472 15.974883 1.62172 C 15.978164 1.538969 15.918516 1.46718 15.836602 1.455058 C 15.754687 1.44304 15.676875 1.494694 15.656133 1.57481 C 15.635508 1.655032 15.678516 1.737889 15.755977 1.766984 C 15.678516 1.900757 15.522422 1.967801 15.371953 1.93196 C 15.215977 1.888001 15.15 1.746955 15.15 1.622037 C 15.15 1.297039 15.463008 1.246966 15.556992 1.303048 C 15.551016 1.083993 15.206953 0.909003 15.099961 1.090002 C 15.234141 0.85756 15.193008 0.563554 15 0.376968 C 14.786953 0.577047 14.780977 0.876956 14.900039 1.090002 C 14.793984 0.909003 14.450039 1.083993 14.443008 1.303048 C 14.536992 1.246966 14.85 1.297039 14.85 1.622985 C 14.855039 1.76477 14.763867 1.892113 14.628047 1.933014 C 14.477461 1.968012 14.321836 1.900124 14.244961 1.766035 C 14.321836 1.735675 14.363437 1.652396 14.341758 1.572702 C 14.320078 1.493113 14.241914 1.442513 14.160352 1.455268 C 14.078789 1.468129 14.019844 1.540234 14.023594 1.622775 C 14.027344 1.70521 14.092617 1.771622 14.175 1.776998 C 14.148984 1.918994 14.075039 2.015976 13.936055 2.054032 C 13.638984 2.134991 13.385977 1.741051 13.713984 1.519045 C 13.623984 1.402982 13.329023 1.390965 13.254023 1.602956 C 13.250977 1.43798 13.115977 1.277959 12.815977 1.283967 C 13.104023 1.690979 13.348008 2.229022 13.415977 2.768014 C 13.766953 2.548011 14.362031 2.379978 15 2.379978 Z M 15 2.379978 " transform="matrix(33.333333,0,0,37.055556,0,0)"/>
<path style="fill-rule:nonzero;fill:rgb(97.647059%,86.666667%,8.627451%);fill-opacity:1;stroke-width:0.015;stroke-linecap:butt;stroke-linejoin:miter;stroke:rgb(0%,0%,0%);stroke-opacity:1;stroke-miterlimit:4;" d="M 16.323984 3.909986 C 16.286016 3.920001 16.286016 3.969968 16.265977 3.969968 C 16.366055 3.967016 16.413984 3.938976 16.445039 3.889009 C 16.423008 3.909038 16.441992 3.946987 16.434961 3.955948 C 16.507969 3.930964 16.543008 3.868031 16.516992 3.82597 C 16.533984 3.850005 16.580977 3.862971 16.597031 3.864974 C 16.545 3.825021 16.580977 3.732044 16.498945 3.685029 C 16.526016 3.683026 16.578984 3.714967 16.593984 3.751019 C 16.580977 3.667951 16.569023 3.615032 16.501055 3.568966 C 16.507969 3.576977 16.546992 3.584989 16.563047 3.568966 C 16.527188 3.547461 16.50668 3.507613 16.509961 3.465974 C 16.515 3.426021 16.488047 3.416007 16.436016 3.430027 C 16.365352 3.442361 16.29375 3.44837 16.222031 3.447948 C 16.093008 3.447948 15.980977 3.447948 15.873984 3.374051 C 16.033945 3.44099 16.237969 3.300998 16.237969 3.18504 C 16.237969 3.05696 16.08 2.951965 15.761016 3.021962 C 15.440977 3.091958 15.052031 3.06202 15.052031 2.955971 C 15.052031 2.848974 15.331055 2.834954 15.474023 2.856037 C 15.616992 2.879018 15.72 2.893038 15.988008 2.797953 C 15.922031 2.82399 15.708984 2.830948 15.54 2.782984 C 15.371016 2.735019 14.956055 2.735019 14.953008 2.959028 C 14.949023 3.183037 15.395039 3.163008 15.778945 3.105978 C 16.003008 3.072983 16.121016 3.095964 16.121016 3.169017 C 16.121016 3.239013 15.915 3.268003 15.757031 3.249028 C 15.586992 3.227101 15.414258 3.241016 15.249961 3.290035 C 15.093984 3.335996 14.986055 3.290035 14.812969 3.319973 C 14.73 3.333993 14.527031 3.319973 14.426953 3.154048 C 14.364961 3.198006 14.180039 3.290035 14.148984 3.379955 C 14.103984 3.463022 14.133984 3.545036 14.193047 3.625996 C 14.266992 3.728038 14.156016 3.712015 14.077031 3.716021 C 13.968984 3.720975 13.824023 3.704003 13.747969 3.619038 C 13.681055 3.543033 13.591992 3.481997 13.520977 3.537973 C 13.483945 3.566963 13.518984 3.605018 13.548047 3.595003 C 13.576992 3.58404 13.610977 3.605018 13.642031 3.619038 C 13.601016 3.601644 13.554023 3.606915 13.518047 3.632953 C 13.488047 3.658991 13.524023 3.708009 13.558945 3.691037 C 13.586953 3.677017 13.642969 3.667951 13.678945 3.701052 C 13.640039 3.693989 13.599023 3.695043 13.578984 3.71697 C 13.558945 3.737947 13.573945 3.769045 13.616953 3.767042 C 13.685977 3.763985 13.702969 3.811949 13.771992 3.80204 C 13.741172 3.804887 13.713047 3.82091 13.695 3.845999 C 13.758984 3.815955 13.83 3.895966 13.912969 3.878045 C 13.880977 3.891012 13.828945 3.922953 13.828945 3.948042 C 13.878984 3.889957 14.210977 3.991051 14.218945 3.866977 C 14.229258 3.900499 14.222109 3.936868 14.199961 3.963959 C 14.242031 3.938027 14.379961 3.928961 14.422031 3.829976 C 14.426016 3.860019 14.420039 3.897969 14.394961 3.907035 C 14.439023 3.92095 14.497031 3.887954 14.555977 3.800037 C 14.58 3.765039 14.585977 3.741953 14.581055 3.716021 C 14.635312 3.720132 14.688867 3.701684 14.728945 3.665 C 14.776055 3.625047 14.827969 3.697995 14.908945 3.646025 C 14.988984 3.595003 15.058945 3.638962 15.103008 3.613029 C 15.146953 3.586992 15.208008 3.623044 15.256055 3.593 C 15.303047 3.562957 15.378047 3.607021 15.455977 3.545036 C 15.581016 3.590049 15.725977 3.675014 16.081992 3.609024 C 16.286016 3.572023 16.35 3.640965 16.35 3.734047 C 16.35 3.798983 16.312031 3.804043 16.284023 3.806046 C 16.171055 3.813004 16.121953 3.763036 16.076953 3.778954 C 16.046953 3.790023 16.029023 3.839041 16.072031 3.856013 C 16.036055 3.87404 16.040977 3.907984 16.059023 3.92095 C 16.076953 3.934021 16.125 3.922004 16.156992 3.907035 C 16.115977 3.92601 16.072969 3.959005 16.096992 3.994952 C 16.111992 4.014981 16.149023 4.033956 16.183945 3.989048 C 16.218984 3.942982 16.284023 3.905032 16.323984 3.911041 Z M 14.062969 2.941002 C 13.959961 2.899047 13.925977 2.897992 13.948945 2.980955 C 13.959023 3.017007 13.983984 3.068028 14.008945 3.091009 C 14.008945 3.056011 14.023008 2.959028 14.062969 2.941002 Z M 14.062969 2.941002 " transform="matrix(33.333333,0,0,37.055556,0,0)"/>
<path style="fill-rule:nonzero;fill:rgb(97.647059%,86.666667%,8.627451%);fill-opacity:1;stroke-width:0.015;stroke-linecap:butt;stroke-linejoin:miter;stroke:rgb(0%,0%,0%);stroke-opacity:1;stroke-miterlimit:4;" d="M 14.383945 2.941002 C 14.486953 2.899047 14.521992 2.897992 14.497969 2.980955 C 14.486719 3.021751 14.466211 3.05949 14.437969 3.091009 C 14.437969 3.056011 14.424961 2.959028 14.383945 2.941002 Z M 14.383945 2.941002 " transform="matrix(33.333333,0,0,37.055556,0,0)"/>
<path style="fill-rule:nonzero;fill:rgb(97.647059%,86.666667%,8.627451%);fill-opacity:1;stroke-width:0.015;stroke-linecap:butt;stroke-linejoin:miter;stroke:rgb(0%,0%,0%);stroke-opacity:1;stroke-miterlimit:4;" d="M 14.223984 2.885026 C 14.418984 2.885026 14.443945 2.976 14.441953 3.089955 C 14.441953 3.212976 14.375039 3.169966 14.338008 3.329039 C 14.323008 3.389969 14.274023 3.393975 14.223984 3.393975 C 14.173945 3.393975 14.126016 3.389969 14.111016 3.329039 C 14.073047 3.17102 14.006953 3.212976 14.006016 3.089006 C 14.006016 2.976 14.030039 2.885026 14.223984 2.885026 Z M 14.223984 2.885026 " transform="matrix(33.333333,0,0,37.055556,0,0)"/>
<path style="fill-rule:nonzero;fill:rgb(97.647059%,86.666667%,8.627451%);fill-opacity:1;stroke-width:0.015;stroke-linecap:butt;stroke-linejoin:miter;stroke:rgb(0%,0%,0%);stroke-opacity:1;stroke-miterlimit:4;" d="M 13.723008 3.335996 C 13.672969 3.305952 13.640977 3.325982 13.621055 3.33199 C 13.685039 3.348962 13.687969 3.43203 13.835039 3.46998 C 13.801992 3.459965 13.783008 3.479994 13.751953 3.463022 C 13.811953 3.510038 13.880039 3.566014 14.023945 3.566963 C 14.103984 3.568017 14.047969 3.609024 13.996055 3.586043 C 14.049961 3.642019 14.158008 3.595952 14.225977 3.697995 C 14.238984 3.617984 14.098945 3.494015 14.163047 3.403989 C 13.965 3.395029 13.948945 3.286029 13.835039 3.198006 C 13.741992 3.12801 13.732969 3.054957 13.691953 2.920024 C 13.674023 2.85804 13.601953 2.819985 13.561992 2.834954 C 13.526953 2.846971 13.515 2.877963 13.545 2.899995 C 13.575 2.922976 13.612969 2.926033 13.621055 2.982958 C 13.582031 2.936048 13.524023 2.91897 13.496016 2.949014 C 13.479023 2.965986 13.486055 3.006993 13.522031 3.010998 C 13.582031 3.017007 13.539023 3.074986 13.606992 3.132016 C 13.546992 3.064971 13.494961 3.058014 13.462969 3.095015 C 13.443047 3.117047 13.462969 3.156051 13.503984 3.152045 C 13.563984 3.146036 13.633945 3.296992 13.723008 3.335996 Z M 15.320039 3.903029 C 15.288984 3.909038 15.298008 3.959954 15.256055 3.963011 C 15.356016 3.963011 15.408047 3.94003 15.455977 3.901026 C 15.433945 3.913992 15.425039 3.946987 15.423047 3.965962 C 15.476016 3.920001 15.603047 3.915995 15.669023 3.928961 C 15.735 3.942033 15.746016 3.911041 15.768984 3.86898 C 15.793945 3.82597 15.761016 3.80204 15.727969 3.769045 C 15.695039 3.73605 15.688008 3.689983 15.695039 3.613029 C 15.517969 3.377952 15.202031 3.492012 15.198984 3.595003 C 15.313008 3.726984 15.326953 3.712015 15.423047 3.73099 C 15.517969 3.749016 15.577031 3.749016 15.513047 3.80204 C 15.491016 3.821015 15.399023 3.811949 15.326953 3.815007 C 15.166992 3.821964 15.093984 3.704952 15.046992 3.765039 C 15.007031 3.815007 15.046992 3.837987 15.127031 3.835036 C 15.071953 3.835036 14.998945 3.833033 15.011953 3.883949 C 15.031992 3.969968 15.114961 3.868031 15.146953 3.903978 C 15.12 3.89702 15.076992 3.913992 15.076055 3.94003 C 15.073945 3.965962 15.136055 4.000012 15.206016 3.944985 C 15.238711 3.919474 15.278555 3.904821 15.320039 3.903029 Z M 15.320039 3.903029 " transform="matrix(33.333333,0,0,37.055556,0,0)"/>
<path style="fill-rule:nonzero;fill:rgb(97.647059%,86.666667%,8.627451%);fill-opacity:1;stroke-width:0.015;stroke-linecap:butt;stroke-linejoin:miter;stroke:rgb(0%,0%,0%);stroke-opacity:1;stroke-miterlimit:4;" d="M 15.457031 3.545036 C 15.401367 3.52079 15.339727 3.513833 15.279961 3.525007 M 14.593008 3.51805 C 14.546016 3.619038 14.574023 3.669005 14.581055 3.716021 M 14.090039 3.037036 C 14.122969 3.054008 14.141016 3.006993 14.188945 3.05696 C 14.176055 3.041991 14.158945 3.093961 14.122969 3.060017 M 14.355 3.037036 C 14.323008 3.054008 14.304961 3.006993 14.257031 3.05696 C 14.270039 3.041991 14.287031 3.093961 14.323008 3.060017 " transform="matrix(33.333333,0,0,37.055556,0,0)"/>
<path style="fill-rule:nonzero;fill:rgb(97.647059%,86.666667%,8.627451%);fill-opacity:1;stroke-width:0.015;stroke-linecap:butt;stroke-linejoin:miter;stroke:rgb(0%,0%,0%);stroke-opacity:1;stroke-miterlimit:4;" d="M 14.257031 3.056011 C 14.246016 3.066026 14.244961 3.048948 14.253047 3.091958 C 14.268984 3.171969 14.287031 3.20897 14.223047 3.20897 C 14.156953 3.20897 14.176992 3.171969 14.193047 3.091958 C 14.201016 3.048948 14.199961 3.066026 14.188945 3.056011 " transform="matrix(33.333333,0,0,37.055556,0,0)"/>
<path style="fill-rule:nonzero;fill:rgb(100%,0%,8.627451%);fill-opacity:1;stroke-width:0.008;stroke-linecap:butt;stroke-linejoin:miter;stroke:rgb(0%,0%,0%);stroke-opacity:1;stroke-miterlimit:4;" d="M 14.223984 3.362034 C 14.276016 3.362034 14.306016 3.36098 14.298047 3.286978 C 14.295 3.257039 14.334023 3.245971 14.319961 3.198006 C 14.334961 3.257039 14.223984 3.251031 14.223984 3.224993 C 14.223984 3.251031 14.113008 3.257039 14.126953 3.198006 C 14.113945 3.245971 14.152969 3.257988 14.148984 3.288032 C 14.141016 3.36098 14.171953 3.362034 14.223984 3.362034 Z M 14.176992 3.212976 L 14.051016 3.177977 M 14.176992 3.220038 L 14.036953 3.218036 M 14.178047 3.226996 L 14.058047 3.259042 M 14.270039 3.212976 L 14.396016 3.177977 M 14.270039 3.220038 L 14.411016 3.218036 M 14.270039 3.226996 L 14.390039 3.259042 " transform="matrix(33.333333,0,0,37.055556,0,0)"/>
<path style="fill-rule:nonzero;fill:rgb(0%,31.764707%,72.941178%);fill-opacity:1;stroke-width:0.002;stroke-linecap:butt;stroke-linejoin:miter;stroke:rgb(0%,0%,0%);stroke-opacity:1;stroke-miterlimit:4;" d="M 13.573008 2.836957 C 13.537031 2.792049 13.445039 2.829999 13.443047 2.887029 C 13.473984 2.850028 13.524961 2.903052 13.552969 2.891984 C 13.571016 2.883972 13.588008 2.856037 13.573008 2.836957 Z M 13.526016 2.945008 C 13.488984 2.899047 13.398047 2.938051 13.396055 2.994975 C 13.426055 2.957974 13.477031 3.01005 13.505039 2.998981 C 13.524961 2.992024 13.541016 2.963034 13.524961 2.945008 Z M 13.501992 3.089955 C 13.460977 3.047999 13.374023 3.097018 13.378945 3.152994 C 13.404961 3.113041 13.460977 3.159951 13.486992 3.146036 C 13.505977 3.136022 13.518984 3.105978 13.501992 3.089955 Z M 13.546055 3.537973 C 13.5 3.502026 13.419961 3.560005 13.430039 3.615032 C 13.451953 3.572971 13.513008 3.613029 13.537969 3.595003 C 13.554023 3.58404 13.563984 3.551994 13.546055 3.537973 Z M 13.543008 3.63601 C 13.488984 3.615981 13.430039 3.695992 13.458047 3.74501 C 13.464961 3.697995 13.535039 3.71697 13.552969 3.69304 C 13.565977 3.677017 13.565977 3.644022 13.543008 3.63601 Z M 13.614023 3.710012 C 13.558945 3.689034 13.5 3.769045 13.528008 3.817958 C 13.535039 3.771048 13.606055 3.790023 13.623984 3.767042 C 13.636055 3.749965 13.636055 3.71697 13.614023 3.708958 Z M 15.048047 3.850953 C 14.992969 3.83103 14.934023 3.911041 14.962031 3.961008 C 14.968945 3.913043 15.039961 3.932018 15.058008 3.909038 C 15.069961 3.89196 15.069961 3.858965 15.048047 3.850953 Z M 15.121055 3.917998 C 15.065039 3.903978 15.016055 3.989997 15.048984 4.035959 C 15.050977 3.987994 15.123047 3.998958 15.138047 3.973974 C 15.148008 3.955948 15.144961 3.924007 15.121992 3.917998 Z M 15.069961 3.757028 C 15.018984 3.726984 14.947969 3.79698 14.966016 3.850005 C 14.981953 3.804992 15.048047 3.835984 15.069961 3.815007 C 15.084961 3.800986 15.09 3.769045 15.069961 3.757028 Z M 16.089961 3.872037 C 16.033008 3.858016 15.984023 3.944036 16.016953 3.989997 C 16.018945 3.942033 16.091016 3.952996 16.106953 3.928013 C 16.117031 3.909986 16.113047 3.878045 16.089961 3.872037 Z M 16.091016 3.782011 C 16.040039 3.753971 15.971016 3.82597 15.991055 3.878045 C 16.006055 3.833033 16.072969 3.860968 16.093945 3.83999 C 16.108008 3.82597 16.111992 3.792975 16.091016 3.782011 Z M 16.130977 3.952047 C 16.074023 3.942033 16.029023 4.029001 16.063945 4.074014 C 16.063945 4.026049 16.136016 4.033956 16.149961 4.008023 C 16.160039 3.989048 16.155 3.957002 16.130977 3.952047 Z M 14.227969 3.31797 C 14.263945 3.31797 14.278008 3.327984 14.278008 3.393026 C 14.278008 3.529962 14.276953 3.588995 14.233008 3.588995 C 14.188008 3.588995 14.191055 3.533019 14.191055 3.43203 C 14.191055 3.379955 14.191055 3.352968 14.180977 3.358028 C 14.180977 3.32303 14.195977 3.31797 14.227969 3.31797 Z M 14.227969 3.31797 " transform="matrix(33.333333,0,0,37.055556,0,0)"/>
<path style="fill-rule:nonzero;fill:rgb(97.647059%,86.666667%,8.627451%);fill-opacity:1;stroke-width:0.015;stroke-linecap:butt;stroke-linejoin:miter;stroke:rgb(0%,0%,0%);stroke-opacity:1;stroke-miterlimit:4;" d="M 16.323968 3.909942 C 16.285947 3.920015 16.285947 3.970029 16.266025 3.970029 C 16.366025 3.966984 16.413941 3.93899 16.445061 3.888976 C 16.423056 3.909005 16.441936 3.946955 16.435035 3.955974 C 16.507952 3.931026 16.542978 3.86801 16.516936 3.825961 C 16.533994 3.849972 16.580999 3.862974 16.597014 3.864965 C 16.545061 3.825024 16.580999 3.732023 16.498968 3.685055 C 16.526051 3.682946 16.579046 3.71504 16.59402 3.750998 C 16.580999 3.667954 16.56902 3.615012 16.501051 3.56898 C 16.507952 3.576945 16.547014 3.585027 16.56303 3.56898 C 16.527223 3.547545 16.50665 3.507604 16.510035 3.466024 C 16.514983 3.425966 16.48803 3.41601 16.435947 3.429948 C 16.365374 3.442364 16.293759 3.448454 16.222014 3.447986 C 16.092978 3.447986 15.980999 3.447986 15.873967 3.37396 C 16.033994 3.440958 16.23803 3.300989 16.23803 3.185031 C 16.23803 3.057009 16.079957 2.951945 15.760947 3.021988 C 15.441025 3.092031 15.051962 3.062046 15.051962 2.956044 C 15.051962 2.848988 15.330999 2.83505 15.473967 2.856016 C 15.616936 2.878973 15.720061 2.893029 15.98803 2.798037 C 15.922014 2.82404 15.708994 2.830951 15.539983 2.783045 C 15.370973 2.735022 14.955999 2.735022 14.953004 2.958972 C 14.948967 3.18304 15.395061 3.163011 15.779046 3.105969 C 16.003004 3.073056 16.120973 3.096013 16.120973 3.168985 C 16.120973 3.239028 15.914983 3.267959 15.75704 3.248984 C 15.586988 3.227081 15.414332 3.241019 15.250009 3.289979 C 15.09402 3.336011 14.985947 3.289979 14.81303 3.319964 C 14.729957 3.334019 14.526962 3.319964 14.426962 3.153992 C 14.364983 3.198033 14.179957 3.289979 14.148967 3.380051 C 14.104046 3.462978 14.133993 3.544969 14.192978 3.626022 C 14.266936 3.728041 14.155999 3.711994 14.076962 3.715977 C 13.96902 3.721013 13.823967 3.70403 13.748056 3.618994 C 13.680999 3.542977 13.591936 3.481953 13.520973 3.538058 C 13.483993 3.566989 13.51902 3.605056 13.548056 3.594983 C 13.576962 3.583972 13.610947 3.605056 13.641936 3.618994 C 13.601051 3.601659 13.554046 3.60693 13.517978 3.63305 C 13.48803 3.659052 13.523967 3.708012 13.558993 3.691028 C 13.586988 3.676973 13.642978 3.667954 13.679046 3.700984 C 13.639983 3.693957 13.598967 3.695011 13.579046 3.717031 C 13.558993 3.737997 13.573967 3.769036 13.616936 3.767045 C 13.685947 3.764 13.703004 3.812023 13.772014 3.801949 C 13.741155 3.804878 13.71303 3.820924 13.695061 3.84599 C 13.758993 3.816005 13.829957 3.896004 13.91303 3.877966 C 13.880999 3.890967 13.829046 3.922944 13.829046 3.948009 C 13.879046 3.89003 14.210947 3.990996 14.21902 3.866956 C 14.229176 3.900455 14.222145 3.936882 14.200009 3.964056 C 14.241936 3.938053 14.379957 3.929034 14.422014 3.829943 C 14.426051 3.860045 14.420061 3.897995 14.395061 3.907014 C 14.438941 3.920952 14.497014 3.888039 14.555999 3.799958 C 14.579957 3.765054 14.585947 3.741979 14.580999 3.715977 C 14.635296 3.720193 14.688811 3.701687 14.729046 3.665026 C 14.776051 3.624968 14.828004 3.698056 14.908994 3.646051 C 14.988941 3.594983 15.058994 3.639023 15.103004 3.61302 C 15.147014 3.587018 15.207952 3.622976 15.255999 3.592991 C 15.303004 3.563006 15.378004 3.607047 15.455999 3.544969 C 15.580999 3.589946 15.726051 3.674982 16.08204 3.609038 C 16.285947 3.572025 16.350009 3.641014 16.350009 3.734015 C 16.350009 3.799021 16.311988 3.804058 16.283994 3.806049 C 16.170973 3.81296 16.122014 3.762945 16.076962 3.778992 C 16.047014 3.790002 16.029046 3.838962 16.072014 3.855946 C 16.035947 3.873984 16.041025 3.907951 16.058994 3.920952 C 16.076962 3.933954 16.125009 3.922007 16.15704 3.907014 C 16.116025 3.925989 16.073056 3.959019 16.097014 3.994978 C 16.111988 4.015007 16.148967 4.033982 16.183994 3.989004 C 16.21902 3.942973 16.283994 3.905023 16.323968 3.910996 Z M 14.06303 2.941052 C 13.960035 2.899002 13.926051 2.897948 13.948967 2.980993 C 13.958993 3.016951 13.983993 3.06802 14.008993 3.090977 C 14.008993 3.055955 14.023056 2.958972 14.06303 2.941052 Z M 14.06303 2.941052 " transform="matrix(29.999999,0,0,33.349999,48.433332,61.919833)"/>
<path style="fill-rule:nonzero;fill:rgb(97.647059%,86.666667%,8.627451%);fill-opacity:1;stroke-width:0.015;stroke-linecap:butt;stroke-linejoin:miter;stroke:rgb(0%,0%,0%);stroke-opacity:1;stroke-miterlimit:4;" d="M 14.383993 2.941052 C 14.486988 2.899002 14.522014 2.897948 14.498056 2.980993 C 14.486728 3.021754 14.466155 3.059469 14.43803 3.090977 C 14.43803 3.055955 14.425009 2.958972 14.383993 2.941052 Z M 14.383993 2.941052 " transform="matrix(29.999999,0,0,33.349999,48.433332,61.919833)"/>
<path style="fill-rule:nonzero;fill:rgb(97.647059%,86.666667%,8.627451%);fill-opacity:1;stroke-width:0.015;stroke-linecap:butt;stroke-linejoin:miter;stroke:rgb(0%,0%,0%);stroke-opacity:1;stroke-miterlimit:4;" d="M 14.223967 2.884947 C 14.41902 2.884947 14.44402 2.975956 14.441936 3.09004 C 14.441936 3.213025 14.375009 3.170039 14.33803 3.328983 C 14.323056 3.390007 14.273967 3.393989 14.223967 3.393989 C 14.173967 3.393989 14.126051 3.390007 14.110947 3.328983 C 14.073056 3.170976 14.00704 3.213025 14.005999 3.088986 C 14.005999 2.975956 14.029957 2.884947 14.223967 2.884947 Z M 14.223967 2.884947 " transform="matrix(29.999999,0,0,33.349999,48.433332,61.919833)"/>
<path style="fill-rule:nonzero;fill:rgb(97.647059%,86.666667%,8.627451%);fill-opacity:1;stroke-width:0.015;stroke-linecap:butt;stroke-linejoin:miter;stroke:rgb(0%,0%,0%);stroke-opacity:1;stroke-miterlimit:4;" d="M 13.723056 3.336011 C 13.673056 3.306026 13.641025 3.326055 13.620973 3.332028 C 13.685035 3.349012 13.68803 3.432056 13.835035 3.470006 C 13.801962 3.46005 13.782952 3.479962 13.751962 3.462978 C 13.811988 3.509947 13.879957 3.566052 14.023967 3.566989 C 14.104046 3.568043 14.048056 3.609038 13.995973 3.585964 C 14.050009 3.641951 14.157952 3.596037 14.226051 3.698056 C 14.238941 3.618057 14.098967 3.494017 14.16303 3.403945 C 13.964983 3.395044 13.948967 3.285996 13.835035 3.198033 C 13.741936 3.12799 13.732952 3.055018 13.691936 2.919969 C 13.673967 2.858007 13.601962 2.820058 13.561988 2.83505 C 13.526962 2.846997 13.514983 2.878036 13.545061 2.900057 C 13.575009 2.923014 13.61303 2.925942 13.620973 2.982984 C 13.58204 2.936015 13.523967 2.919031 13.495973 2.949017 C 13.479046 2.966 13.485947 3.006995 13.522014 3.010978 C 13.58204 3.016951 13.538941 3.075047 13.60704 3.131972 C 13.547014 3.064974 13.495061 3.057946 13.46303 3.094959 C 13.442978 3.116979 13.46303 3.155983 13.504046 3.152001 C 13.563941 3.146027 13.633993 3.297007 13.723056 3.336011 Z M 15.320061 3.903032 C 15.288941 3.909005 15.298056 3.959956 15.255999 3.963002 C 15.355999 3.963002 15.407952 3.940044 15.455999 3.901041 C 15.433994 3.914042 15.425009 3.946955 15.423056 3.966047 C 15.476051 3.920015 15.603004 3.916033 15.66902 3.929034 C 15.735035 3.942036 15.745973 3.910996 15.76902 3.868947 C 15.79402 3.825961 15.760947 3.801949 15.728004 3.769036 C 15.695061 3.736006 15.68803 3.689974 15.695061 3.61302 C 15.517978 3.377943 15.201962 3.492026 15.198967 3.594983 C 15.31303 3.726987 15.326962 3.711994 15.423056 3.730969 C 15.517978 3.749007 15.576962 3.749007 15.51303 3.801949 C 15.491025 3.821041 15.398967 3.812023 15.326962 3.814951 C 15.166936 3.821978 15.09402 3.704967 15.047014 3.765054 C 15.00704 3.814951 15.047014 3.838025 15.126962 3.83498 C 15.072014 3.83498 14.998967 3.832989 15.011988 3.884057 C 15.03204 3.970029 15.114983 3.86801 15.147014 3.903969 C 15.120061 3.897058 15.076962 3.914042 15.076051 3.940044 C 15.073967 3.966047 15.135947 4.000014 15.205999 3.944964 C 15.238681 3.919547 15.278525 3.904789 15.320061 3.903032 Z M 15.320061 3.903032 " transform="matrix(29.999999,0,0,33.349999,48.433332,61.919833)"/>
<path style="fill-rule:nonzero;fill:rgb(97.647059%,86.666667%,8.627451%);fill-opacity:1;stroke-width:0.015;stroke-linecap:butt;stroke-linejoin:miter;stroke:rgb(0%,0%,0%);stroke-opacity:1;stroke-miterlimit:4;" d="M 15.45704 3.544969 C 15.401311 3.520723 15.339723 3.513812 15.279957 3.525057 M 14.592978 3.518029 C 14.545973 3.618994 14.573967 3.669008 14.580999 3.715977 M 14.089983 3.03698 C 14.123056 3.053964 14.141025 3.006995 14.188941 3.057009 C 14.176051 3.042017 14.158993 3.094022 14.123056 3.060055 M 14.354957 3.03698 C 14.323056 3.053964 14.304957 3.006995 14.25704 3.057009 C 14.270061 3.042017 14.286988 3.094022 14.323056 3.060055 " transform="matrix(29.999999,0,0,33.349999,48.433332,61.919833)"/>
<path style="fill-rule:nonzero;fill:rgb(97.647059%,86.666667%,8.627451%);fill-opacity:1;stroke-width:0.015;stroke-linecap:butt;stroke-linejoin:miter;stroke:rgb(0%,0%,0%);stroke-opacity:1;stroke-miterlimit:4;" d="M 14.25704 3.055955 C 14.245973 3.066028 14.245061 3.049045 14.253004 3.092031 C 14.26902 3.17203 14.286988 3.209043 14.223056 3.209043 C 14.15704 3.209043 14.176962 3.17203 14.192978 3.092031 C 14.201051 3.049045 14.200009 3.066028 14.188941 3.055955 " transform="matrix(29.999999,0,0,33.349999,48.433332,61.919833)"/>
<path style="fill-rule:nonzero;fill:rgb(100%,0%,8.627451%);fill-opacity:1;stroke-width:0.008;stroke-linecap:butt;stroke-linejoin:miter;stroke:rgb(0%,0%,0%);stroke-opacity:1;stroke-miterlimit:4;" d="M 14.223967 3.362013 C 14.276051 3.362013 14.305999 3.360959 14.298056 3.287051 C 14.295061 3.256948 14.333993 3.246055 14.320061 3.198033 C 14.335035 3.256948 14.223967 3.250975 14.223967 3.224972 C 14.223967 3.250975 14.11303 3.256948 14.126962 3.198033 C 14.113941 3.246055 14.153004 3.258003 14.148967 3.287988 C 14.141025 3.360959 14.172014 3.362013 14.223967 3.362013 Z M 14.176962 3.213025 L 14.051051 3.178004 M 14.176962 3.220053 L 14.036988 3.217945 M 14.178004 3.226963 L 14.057952 3.259057 M 14.270061 3.213025 L 14.395973 3.178004 M 14.270061 3.220053 L 14.410947 3.217945 M 14.270061 3.226963 L 14.389983 3.259057 " transform="matrix(29.999999,0,0,33.349999,48.433332,61.919833)"/>
<path style="fill-rule:nonzero;fill:rgb(0%,31.764707%,72.941178%);fill-opacity:1;stroke-width:0.002;stroke-linecap:butt;stroke-linejoin:miter;stroke:rgb(0%,0%,0%);stroke-opacity:1;stroke-miterlimit:4;" d="M 13.573056 2.837041 C 13.536988 2.791947 13.445061 2.830014 13.442978 2.887055 C 13.473967 2.850043 13.525009 2.902985 13.553004 2.891975 C 13.570973 2.88401 13.58803 2.856016 13.573056 2.837041 Z M 13.526051 2.945034 C 13.488941 2.899002 13.398056 2.938006 13.395973 2.995048 C 13.426051 2.958035 13.476962 3.010041 13.504957 2.999031 C 13.525009 2.992003 13.541025 2.962955 13.525009 2.945034 Z M 13.501962 3.09004 C 13.460947 3.04799 13.373967 3.09695 13.379046 3.153055 C 13.404957 3.112997 13.460947 3.159966 13.486988 3.146027 C 13.505999 3.135954 13.51902 3.105969 13.501962 3.09004 Z M 13.545973 3.538058 C 13.500009 3.501982 13.420061 3.559961 13.429957 3.615012 C 13.451962 3.572962 13.51303 3.61302 13.53803 3.594983 C 13.554046 3.583972 13.563941 3.551996 13.545973 3.538058 Z M 13.542978 3.635978 C 13.488941 3.615949 13.429957 3.695948 13.457952 3.745025 C 13.464983 3.698056 13.535035 3.717031 13.553004 3.69302 C 13.566025 3.676973 13.566025 3.643942 13.542978 3.635978 Z M 13.613941 3.710003 C 13.558993 3.689037 13.500009 3.769036 13.528004 3.817996 C 13.535035 3.771027 13.605999 3.790002 13.623967 3.767045 C 13.635947 3.749944 13.635947 3.717031 13.613941 3.708949 Z M 15.048056 3.851026 C 14.992978 3.830997 14.933994 3.910996 14.961988 3.961011 C 14.96902 3.912988 15.039983 3.931963 15.057952 3.909005 C 15.070061 3.892022 15.070061 3.858991 15.048056 3.851026 Z M 15.120973 3.918024 C 15.064983 3.903969 15.016025 3.990059 15.048967 4.035973 C 15.051051 3.98795 15.123056 3.99896 15.13803 3.974012 C 15.148056 3.955974 15.145061 3.923998 15.122014 3.918024 Z M 15.070061 3.756972 C 15.01902 3.726987 14.948056 3.79703 14.966025 3.849972 C 14.98204 3.804995 15.048056 3.836034 15.070061 3.814951 C 15.085035 3.801012 15.089983 3.769036 15.070061 3.756972 Z M 16.089983 3.871993 C 16.032952 3.858054 15.983994 3.944027 16.016936 3.990059 C 16.01902 3.942036 16.091025 3.953046 16.10704 3.92798 C 16.116936 3.909942 16.11303 3.877966 16.089983 3.871993 Z M 16.091025 3.782038 C 16.039983 3.754044 15.970973 3.825961 15.991025 3.877966 C 16.005999 3.832989 16.073056 3.860982 16.09402 3.840016 C 16.107952 3.825961 16.111988 3.793048 16.091025 3.782038 Z M 16.130999 3.951992 C 16.073967 3.942036 16.029046 4.028945 16.063941 4.07404 C 16.063941 4.026017 16.135947 4.033982 16.150009 4.007979 C 16.160035 3.989004 16.154957 3.957028 16.130999 3.951992 Z M 14.228004 3.317973 C 14.263941 3.317973 14.278004 3.328046 14.278004 3.393052 C 14.278004 3.529976 14.276962 3.589009 14.232952 3.589009 C 14.18803 3.589009 14.191025 3.533021 14.191025 3.432056 C 14.191025 3.380051 14.191025 3.352994 14.180999 3.358031 C 14.180999 3.323009 14.195973 3.317973 14.228004 3.317973 Z M 14.228004 3.317973 " transform="matrix(29.999999,0,0,33.349999,48.433332,61.919833)"/>
<path style="fill-rule:nonzero;fill:rgb(97.647059%,86.666667%,8.627451%);fill-opacity:1;stroke-width:0.015;stroke-linecap:butt;stroke-linejoin:miter;stroke:rgb(0%,0%,0%);stroke-opacity:1;stroke-miterlimit:4;" d="M 16.32402 3.909981 C 16.286065 3.91996 16.286065 3.969998 16.265951 3.969998 C 16.365998 3.967046 16.413922 3.938935 16.445056 3.889038 C 16.423017 3.908997 16.442082 3.946947 16.435086 3.955942 C 16.508022 3.931064 16.543003 3.867955 16.516942 3.82607 C 16.534083 3.849964 16.580958 3.863035 16.59705 3.865003 C 16.544927 3.824945 16.580958 3.732038 16.498927 3.684953 C 16.526037 3.682985 16.579034 3.715031 16.594076 3.751013 C 16.580958 3.667946 16.569065 3.614956 16.501026 3.568995 C 16.508022 3.577007 16.547026 3.585018 16.562943 3.568995 C 16.527262 3.54749 16.506623 3.507573 16.509946 3.465968 C 16.515018 3.426051 16.488083 3.415931 16.435961 3.429986 C 16.365298 3.442355 16.293761 3.448399 16.22205 3.447977 C 16.092968 3.447977 15.981028 3.447977 15.873985 3.374046 C 16.034025 3.44095 16.237966 3.300957 16.237966 3.185 C 16.237966 3.056954 16.080025 2.95196 15.760996 3.021956 C 15.440916 3.091952 15.051924 3.062014 15.051924 2.956036 C 15.051924 2.848933 15.331075 2.835018 15.473974 2.855961 C 15.617047 2.879012 15.720067 2.893067 15.988024 2.798052 C 15.922085 2.824055 15.709048 2.830942 15.539913 2.783013 C 15.370954 2.734943 14.956075 2.734943 14.952927 2.958988 C 14.949079 3.183032 15.394916 3.162932 15.779011 3.106008 C 16.003066 3.072977 16.120954 3.096028 16.120954 3.168976 C 16.120954 3.238973 15.914913 3.268067 15.756973 3.248952 C 15.586963 3.227025 15.41433 3.241081 15.249918 3.289994 C 15.094076 3.335955 14.985984 3.289994 14.813001 3.319932 C 14.72992 3.333988 14.527029 3.319932 14.426982 3.153937 C 14.365065 3.197931 14.180014 3.289994 14.149055 3.379949 C 14.103929 3.463017 14.134013 3.54496 14.192957 3.62606 C 14.266942 3.727962 14.156052 3.711939 14.076994 3.716015 C 13.969076 3.720935 13.824079 3.704068 13.747994 3.619032 C 13.681005 3.542992 13.591977 3.481992 13.520965 3.537932 C 13.48406 3.567027 13.519041 3.604977 13.548076 3.594998 C 13.576935 3.584034 13.611042 3.604977 13.642001 3.619032 C 13.601073 3.601604 13.554023 3.606945 13.517992 3.632947 C 13.488083 3.65895 13.523939 3.708004 13.55892 3.690997 C 13.58708 3.676941 13.64305 3.667946 13.679081 3.700976 C 13.640077 3.693948 13.598974 3.694932 13.579034 3.716999 C 13.55892 3.737942 13.573962 3.769004 13.616989 3.767037 C 13.686077 3.763944 13.703043 3.812014 13.771956 3.802035 C 13.741173 3.804846 13.713013 3.820869 13.694997 3.846028 C 13.759013 3.81595 13.830025 3.896066 13.912931 3.877934 C 13.880923 3.891006 13.828976 3.923052 13.828976 3.947931 C 13.878999 3.890022 14.210972 3.99094 14.219018 3.866971 C 14.229163 3.900423 14.222166 3.936827 14.199953 3.963954 C 14.241931 3.937951 14.379932 3.928956 14.422085 3.830005 C 14.425933 3.859943 14.419986 3.898034 14.394974 3.907029 C 14.439051 3.920944 14.496945 3.888054 14.556063 3.800067 C 14.580025 3.765069 14.585972 3.742018 14.581075 3.716015 C 14.635296 3.720232 14.688817 3.701679 14.729046 3.664994 C 14.775921 3.624936 14.828043 3.698024 14.909025 3.646019 C 14.988957 3.594998 15.05892 3.638991 15.102996 3.612989 C 15.147073 3.586986 15.207941 3.622968 15.25604 3.59303 C 15.302915 3.562951 15.37795 3.606945 15.455958 3.54496 C 15.581017 3.589938 15.726014 3.674973 16.081949 3.609053 C 16.286065 3.571947 16.350081 3.640959 16.350081 3.734006 C 16.350081 3.798943 16.311952 3.804003 16.283967 3.80597 C 16.170977 3.812998 16.122003 3.762961 16.077052 3.778984 C 16.046968 3.789947 16.028953 3.839001 16.07198 3.856008 C 16.035949 3.873999 16.041021 3.908013 16.059037 3.920944 C 16.077052 3.934016 16.124976 3.922068 16.156984 3.907029 C 16.116056 3.926004 16.073029 3.959034 16.096991 3.995016 C 16.112033 4.014975 16.148939 4.03395 16.18392 3.988973 C 16.219076 3.943011 16.283967 3.905061 16.32402 3.910965 Z M 14.063001 2.940997 C 13.959981 2.898971 13.926049 2.897987 13.948962 2.981055 C 13.958932 3.017037 13.983943 3.068058 14.008955 3.090968 C 14.008955 3.05597 14.022948 2.958988 14.063001 2.940997 Z M 14.063001 2.940997 " transform="matrix(22.333334,0,0,27.791667,163.633331,124.284337)"/>
<path style="fill-rule:nonzero;fill:rgb(97.647059%,86.666667%,8.627451%);fill-opacity:1;stroke-width:0.015;stroke-linecap:butt;stroke-linejoin:miter;stroke:rgb(0%,0%,0%);stroke-opacity:1;stroke-miterlimit:4;" d="M 14.383955 2.940997 C 14.486975 2.898971 14.521956 2.897987 14.497994 2.981055 C 14.4868 3.021815 14.466161 3.059484 14.438001 3.090968 C 14.438001 3.05597 14.425058 2.958988 14.383955 2.940997 Z M 14.383955 2.940997 " transform="matrix(22.333334,0,0,27.791667,163.633331,124.284337)"/>
<path style="fill-rule:nonzero;fill:rgb(97.647059%,86.666667%,8.627451%);fill-opacity:1;stroke-width:0.015;stroke-linecap:butt;stroke-linejoin:miter;stroke:rgb(0%,0%,0%);stroke-opacity:1;stroke-miterlimit:4;" d="M 14.223915 2.885056 C 14.418936 2.885056 14.443948 2.975995 14.442024 3.089985 C 14.442024 3.21297 14.375035 3.16996 14.337955 3.329068 C 14.323087 3.390069 14.273939 3.394004 14.223915 3.394004 C 14.174067 3.394004 14.125968 3.390069 14.110926 3.329068 C 14.072971 3.170944 14.007031 3.21297 14.005982 3.089001 C 14.005982 2.975995 14.029944 2.885056 14.223915 2.885056 Z M 14.223915 2.885056 " transform="matrix(22.333334,0,0,27.791667,163.633331,124.284337)"/>
<path style="fill-rule:nonzero;fill:rgb(97.647059%,86.666667%,8.627451%);fill-opacity:1;stroke-width:0.015;stroke-linecap:butt;stroke-linejoin:miter;stroke:rgb(0%,0%,0%);stroke-opacity:1;stroke-miterlimit:4;" d="M 13.722983 3.335955 C 13.672959 3.306017 13.640951 3.325976 13.621012 3.33202 C 13.685028 3.349027 13.688001 3.431954 13.834923 3.470044 C 13.80204 3.460065 13.782976 3.480024 13.752017 3.463017 C 13.81201 3.509962 13.880049 3.566043 14.023997 3.567027 C 14.103929 3.568011 14.047959 3.609053 13.996012 3.586002 C 14.050058 3.641943 14.157976 3.595982 14.226014 3.698024 C 14.238957 3.618049 14.099032 3.493939 14.163048 3.403984 C 13.965053 3.394988 13.948962 3.286058 13.834923 3.197931 C 13.742047 3.127934 13.732952 3.054986 13.692024 2.920054 C 13.674009 2.858069 13.601947 2.819979 13.562068 2.835018 C 13.527087 2.846965 13.515018 2.878028 13.544927 2.899955 C 13.575011 2.923006 13.612966 2.925957 13.621012 2.983022 C 13.582008 2.935937 13.523939 2.91907 13.495954 2.949008 C 13.478988 2.966015 13.485984 3.007057 13.522015 3.010993 C 13.582008 3.017037 13.538981 3.074945 13.607019 3.13201 C 13.547026 3.064966 13.495079 3.057938 13.463071 3.095044 C 13.442957 3.116971 13.463071 3.156045 13.503999 3.151969 C 13.563992 3.146066 13.633955 3.297022 13.722983 3.335955 Z M 15.320056 3.902953 C 15.288922 3.908997 15.298017 3.960018 15.25604 3.96297 C 15.356086 3.96297 15.408034 3.940059 15.455958 3.900985 C 15.43392 3.914057 15.425 3.946947 15.423076 3.966062 C 15.476072 3.91996 15.603055 3.916025 15.668995 3.928956 C 15.734934 3.942027 15.745954 3.910965 15.769041 3.868939 C 15.794053 3.82607 15.760996 3.802035 15.727938 3.769004 C 15.695056 3.735974 15.688059 3.690013 15.695056 3.612989 C 15.51805 3.377981 15.201994 3.491971 15.19902 3.594998 C 15.313059 3.726979 15.327052 3.711939 15.423076 3.731055 C 15.51805 3.749046 15.576994 3.749046 15.512978 3.802035 C 15.49094 3.82101 15.398939 3.812014 15.327052 3.814966 C 15.167012 3.821994 15.094076 3.705052 15.047026 3.765069 C 15.006973 3.814966 15.047026 3.838017 15.126959 3.835065 C 15.072038 3.835065 14.998927 3.832957 15.012045 3.883978 C 15.031984 3.969998 15.115065 3.867955 15.147073 3.903937 C 15.119962 3.89705 15.076935 3.914057 15.076061 3.940059 C 15.073962 3.966062 15.136054 3.999936 15.206017 3.944979 C 15.238724 3.919538 15.278603 3.90478 15.320056 3.902953 Z M 15.320056 3.902953 " transform="matrix(22.333334,0,0,27.791667,163.633331,124.284337)"/>
<path style="fill-rule:nonzero;fill:rgb(97.647059%,86.666667%,8.627451%);fill-opacity:1;stroke-width:0.015;stroke-linecap:butt;stroke-linejoin:miter;stroke:rgb(0%,0%,0%);stroke-opacity:1;stroke-miterlimit:4;" d="M 15.457008 3.54496 C 15.401387 3.520785 15.339645 3.513757 15.280002 3.525001 M 14.592969 3.517974 C 14.545919 3.619032 14.574079 3.66907 14.581075 3.716015 M 14.089937 3.036995 C 14.122994 3.054003 14.14101 3.007057 14.188934 3.056954 C 14.175991 3.042055 14.159025 3.094061 14.122994 3.060046 M 14.35492 3.036995 C 14.323087 3.054003 14.305072 3.007057 14.256973 3.056954 C 14.269916 3.042055 14.287057 3.094061 14.323087 3.060046 " transform="matrix(22.333334,0,0,27.791667,163.633331,124.284337)"/>
<path style="fill-rule:nonzero;fill:rgb(97.647059%,86.666667%,8.627451%);fill-opacity:1;stroke-width:0.015;stroke-linecap:butt;stroke-linejoin:miter;stroke:rgb(0%,0%,0%);stroke-opacity:1;stroke-miterlimit:4;" d="M 14.256973 3.05597 C 14.245954 3.06595 14.245079 3.048943 14.25295 3.091952 C 14.269041 3.172068 14.287057 3.209034 14.223041 3.209034 C 14.156926 3.209034 14.17704 3.172068 14.192957 3.091952 C 14.201003 3.048943 14.199953 3.06595 14.188934 3.05597 " transform="matrix(22.333334,0,0,27.791667,163.633331,124.284337)"/>
<path style="fill-rule:nonzero;fill:rgb(100%,0%,8.627451%);fill-opacity:1;stroke-width:0.008;stroke-linecap:butt;stroke-linejoin:miter;stroke:rgb(0%,0%,0%);stroke-opacity:1;stroke-miterlimit:4;" d="M 14.223915 3.361958 C 14.276038 3.361958 14.305947 3.360974 14.298076 3.287042 C 14.294927 3.256964 14.333932 3.246 14.319939 3.197931 C 14.334981 3.256964 14.223915 3.25106 14.223915 3.225058 C 14.223915 3.25106 14.113024 3.256964 14.127017 3.197931 C 14.114074 3.246 14.153078 3.257947 14.149055 3.288026 C 14.14101 3.360974 14.171968 3.361958 14.223915 3.361958 Z M 14.17704 3.21297 L 14.050933 3.177972 M 14.17704 3.219998 L 14.03694 3.21803 M 14.177915 3.227025 L 14.057929 3.258931 M 14.269916 3.21297 L 14.396024 3.177972 M 14.269916 3.219998 L 14.411066 3.21803 M 14.269916 3.227025 L 14.390077 3.258931 " transform="matrix(22.333334,0,0,27.791667,163.633331,124.284337)"/>
<path style="fill-rule:nonzero;fill:rgb(0%,31.764707%,72.941178%);fill-opacity:1;stroke-width:0.002;stroke-linecap:butt;stroke-linejoin:miter;stroke:rgb(0%,0%,0%);stroke-opacity:1;stroke-miterlimit:4;" d="M 13.572913 2.836986 C 13.537057 2.792008 13.445056 2.829958 13.442957 2.887023 C 13.473915 2.850058 13.524988 2.903047 13.552973 2.891943 C 13.570989 2.883931 13.587955 2.855961 13.572913 2.836986 Z M 13.526038 2.944932 C 13.488957 2.898971 13.398006 2.938045 13.396082 2.99497 C 13.425991 2.958004 13.477064 3.010009 13.505049 2.999046 C 13.524988 2.992018 13.54108 2.963064 13.524988 2.944932 Z M 13.502075 3.089985 C 13.460972 3.047959 13.374044 3.097012 13.378941 3.152953 C 13.405002 3.113035 13.460972 3.159981 13.487033 3.146066 C 13.505923 3.135946 13.519041 3.106008 13.502075 3.089985 Z M 13.545977 3.537932 C 13.499976 3.50195 13.420044 3.56 13.430014 3.614956 C 13.452052 3.572931 13.51292 3.612989 13.537931 3.594998 C 13.554023 3.584034 13.563992 3.551988 13.545977 3.537932 Z M 13.543004 3.63604 C 13.488957 3.61594 13.430014 3.696056 13.457999 3.74497 C 13.464995 3.698024 13.534958 3.716999 13.552973 3.692964 C 13.565916 3.676941 13.565916 3.644051 13.543004 3.63604 Z M 13.614016 3.709971 C 13.55892 3.689029 13.499976 3.769004 13.527962 3.818058 C 13.534958 3.770972 13.60597 3.789947 13.623985 3.767037 C 13.636054 3.750029 13.636054 3.716999 13.614016 3.708988 Z M 15.048076 3.850948 C 14.99298 3.830989 14.934037 3.910965 14.962022 3.961002 C 14.969018 3.912932 15.04003 3.932048 15.058045 3.908997 C 15.069939 3.89199 15.069939 3.858959 15.048076 3.850948 Z M 15.121012 3.917992 C 15.065042 3.903937 15.016068 3.989956 15.04895 4.036058 C 15.051049 3.987989 15.122936 3.998952 15.137978 3.973933 C 15.147948 3.955942 15.144974 3.924036 15.122061 3.917992 Z M 15.069939 3.757057 C 15.019041 3.726979 14.948029 3.796975 14.966045 3.849964 C 14.981961 3.804986 15.048076 3.836049 15.069939 3.814966 C 15.084981 3.801051 15.090053 3.769004 15.069939 3.757057 Z M 16.089995 3.872031 C 16.032975 3.857976 15.984002 3.943995 16.017059 3.989956 C 16.018983 3.942027 16.091044 3.952991 16.106961 3.927972 C 16.116931 3.909981 16.113083 3.877934 16.089995 3.872031 Z M 16.091044 3.781935 C 16.039972 3.753965 15.971058 3.82607 15.990998 3.877934 C 16.00604 3.832957 16.073029 3.861068 16.094018 3.839985 C 16.10801 3.82607 16.112033 3.793039 16.091044 3.781935 Z M 16.130923 3.952007 C 16.074079 3.942027 16.028953 4.029031 16.063934 4.074008 C 16.063934 4.025938 16.135996 4.03395 16.149988 4.007947 C 16.159958 3.988973 16.15506 3.957067 16.130923 3.952007 Z M 14.227938 3.317964 C 14.263969 3.317964 14.277962 3.327944 14.277962 3.39302 C 14.277962 3.530061 14.277087 3.588954 14.23301 3.588954 C 14.188059 3.588954 14.191033 3.533013 14.191033 3.431954 C 14.191033 3.379949 14.191033 3.352962 14.181063 3.358022 C 14.181063 3.323024 14.19593 3.317964 14.227938 3.317964 Z M 14.227938 3.317964 " transform="matrix(22.333334,0,0,27.791667,163.633331,124.284337)"/>
</g>
</svg>
