<?xml version="1.0" encoding="UTF-8"?>
<svg xmlns="http://www.w3.org/2000/svg" xmlns:xlink="http://www.w3.org/1999/xlink" width="1000px" height="667px" viewBox="0 0 1000 667" version="1.1">
<g id="surface1">
<rect x="0" y="0" width="1000" height="667" style="fill:rgb(100%,100%,100%);fill-opacity:1;stroke:none;"/>
<path style=" stroke:none;fill-rule:nonzero;fill:rgb(0%,0%,0%);fill-opacity:1;" d="M 0 0 L 1000 0 L 1000 200.101562 L 0 200.101562 Z M 0 0 "/>
<path style=" stroke:none;fill-rule:nonzero;fill:rgb(0%,40.000001%,0%);fill-opacity:1;" d="M 0 466.898438 L 1000 466.898438 L 1000 667 L 0 667 Z M 0 466.898438 "/>
<path style="fill-rule:nonzero;fill:rgb(0%,0%,0%);fill-opacity:1;stroke-width:1;stroke-linecap:butt;stroke-linejoin:miter;stroke:rgb(0%,0%,0%);stroke-opacity:1;stroke-miterlimit:10;" d="M -0.999924 55.425582 L 0.99956 55.425664 L 0.999582 -37.999923 C 3.000356 -40.000106 3.0002 -43.000376 3.000513 -45.999835 C 2.999711 -47.999973 2.999878 -56.000309 0.0000481722 -64.663042 C -3.000196 -55.999617 -2.999551 -47.99975 -3.00003 -45.999954 C -2.999874 -42.999684 -3.000186 -40.000225 -0.999901 -38.000005 Z M -0.999924 55.425582 " transform="matrix(3.608439,2.084375,-2.083333,3.610243,500,333.5)"/>
<path style=" stroke:none;fill-rule:nonzero;fill:rgb(100%,100%,100%);fill-opacity:1;" d="M 380.921875 531.515625 L 388.136719 535.683594 L 582.773438 198.394531 C 594.160156 195.34375 600.410156 184.511719 606.660156 173.683594 C 610.824219 166.460938 627.492188 137.578125 634.714844 100.050781 C 605.839844 125.074219 589.175781 153.957031 585.007812 161.175781 C 578.757812 172.007812 572.507812 182.835938 575.558594 194.226562 Z M 380.921875 531.515625 "/>
<path style="fill-rule:nonzero;fill:rgb(0%,0%,0%);fill-opacity:1;stroke-width:1;stroke-linecap:butt;stroke-linejoin:miter;stroke:rgb(0%,0%,0%);stroke-opacity:1;stroke-miterlimit:10;" d="M -0.999924 55.425582 L 0.99956 55.425664 L 0.999582 -37.999923 C 3.000356 -40.000106 3.0002 -43.000376 3.000513 -45.999835 C 2.999711 -47.999973 2.999878 -56.000309 0.0000481722 -64.663042 C -3.000196 -55.999617 -2.999551 -47.99975 -3.00003 -45.999954 C -2.999874 -42.999684 -3.000186 -40.000225 -0.999901 -38.000005 Z M -0.999924 55.425582 " transform="matrix(-3.608439,2.084375,2.083333,3.610243,500,333.5)"/>
<path style=" stroke:none;fill-rule:nonzero;fill:rgb(100%,100%,100%);fill-opacity:1;" d="M 619.078125 531.515625 L 611.863281 535.683594 L 417.226562 198.394531 C 405.839844 195.34375 399.589844 184.511719 393.339844 173.683594 C 389.175781 166.460938 372.507812 137.578125 365.285156 100.050781 C 394.160156 125.074219 410.824219 153.957031 414.992188 161.175781 C 421.242188 172.007812 427.492188 182.835938 424.441406 194.226562 Z M 619.078125 531.515625 "/>
<path style=" stroke:none;fill-rule:nonzero;fill:rgb(73.333335%,0%,0%);fill-opacity:1;" d="M 0 233.449219 L 0 433.550781 L 420.832031 433.550781 C 433.332031 466.898438 475 533.601562 500 533.601562 C 525 533.601562 566.667969 466.898438 579.167969 433.550781 L 1000 433.550781 L 1000 233.449219 L 579.167969 233.449219 C 566.667969 200.101562 525 133.398438 500 133.398438 C 475 133.398438 433.332031 200.101562 420.832031 233.449219 Z M 0 233.449219 "/>
<path style=" stroke:none;fill-rule:nonzero;fill:rgb(0%,0%,0%);fill-opacity:1;" d="M 579.167969 433.550781 C 591.667969 400.199219 600 366.851562 600 333.5 C 600 300.148438 591.667969 266.800781 579.167969 233.449219 C 566.667969 266.800781 558.332031 300.148438 558.332031 333.5 C 558.332031 366.851562 566.667969 400.199219 579.167969 433.550781 "/>
<path style=" stroke:none;fill-rule:nonzero;fill:rgb(0%,0%,0%);fill-opacity:1;" d="M 420.832031 433.550781 C 408.332031 400.199219 400 366.851562 400 333.5 C 400 300.148438 408.332031 266.800781 420.832031 233.449219 C 433.332031 266.800781 441.667969 300.148438 441.667969 333.5 C 441.667969 366.851562 433.332031 400.199219 420.832031 433.550781 "/>
<path style=" stroke:none;fill-rule:nonzero;fill:rgb(100%,100%,100%);fill-opacity:1;" d="M 516.667969 333.5 C 516.667969 347.3125 509.203125 358.511719 500 358.511719 C 490.796875 358.511719 483.332031 347.3125 483.332031 333.5 C 483.332031 319.6875 490.796875 308.488281 500 308.488281 C 509.203125 308.488281 516.667969 319.6875 516.667969 333.5 Z M 516.667969 333.5 "/>
<path style=" stroke:none;fill-rule:nonzero;fill:rgb(100%,100%,100%);fill-opacity:1;" d="M 504.167969 357.886719 C 504.167969 357.886719 520.832031 391.238281 520.832031 445.429688 C 520.832031 499.625 504.167969 532.976562 504.167969 532.976562 Z M 504.167969 357.886719 "/>
<path style=" stroke:none;fill-rule:nonzero;fill:rgb(100%,100%,100%);fill-opacity:1;" d="M 495.832031 309.113281 C 495.832031 309.113281 479.167969 275.761719 479.167969 221.570312 C 479.167969 167.375 495.832031 134.023438 495.832031 134.023438 Z M 495.832031 309.113281 "/>
<path style=" stroke:none;fill-rule:nonzero;fill:rgb(100%,100%,100%);fill-opacity:1;" d="M 495.832031 357.886719 C 495.832031 357.886719 479.167969 391.238281 479.167969 445.429688 C 479.167969 499.625 495.832031 532.976562 495.832031 532.976562 Z M 495.832031 357.886719 "/>
<path style=" stroke:none;fill-rule:nonzero;fill:rgb(100%,100%,100%);fill-opacity:1;" d="M 504.167969 309.113281 C 504.167969 309.113281 520.832031 275.761719 520.832031 221.570312 C 520.832031 167.375 504.167969 134.023438 504.167969 134.023438 Z M 504.167969 309.113281 "/>
</g>
</svg>
