<?xml version="1.0" encoding="UTF-8"?>
<svg xmlns="http://www.w3.org/2000/svg" xmlns:xlink="http://www.w3.org/1999/xlink" width="1000px" height="667px" viewBox="0 0 1000 667" version="1.1">
<g id="surface1">
<rect x="0" y="0" width="1000" height="667" style="fill:rgb(93.333334%,15.294118%,21.568628%);fill-opacity:1;stroke:none;"/>
<path style=" stroke:none;fill-rule:nonzero;fill:rgb(99.607843%,86.666667%,0%);fill-opacity:1;" d="M 454.867188 288.222656 C 443.691406 280.566406 431.898438 274.074219 419.644531 268.832031 C 408.792969 286.675781 403.011719 307.726562 403.042969 329.261719 C 403.03125 340.117188 404.515625 350.914062 407.445312 361.269531 C 412.65625 347.988281 419.128906 335.367188 426.75 323.617188 C 434.890625 310.675781 444.320312 298.804688 454.863281 288.222656 Z M 425.0625 260.925781 C 438.273438 266.074219 451.027344 272.5625 463.164062 280.316406 C 465.871094 277.683594 468.75 275.425781 471.464844 273.164062 C 458.527344 265.265625 444.910156 258.832031 430.820312 253.960938 C 428.769531 256.144531 426.847656 258.46875 425.0625 260.925781 Z M 436.917969 247.558594 C 452.023438 251.976562 466.625 258.289062 480.441406 266.386719 C 483.65625 264.125 486.875 262.050781 489.925781 259.984375 C 475.332031 251.804688 459.929688 245.550781 444.03125 241.34375 C 441.515625 243.203125 439.136719 245.28125 436.917969 247.558594 Z M 451.3125 236.265625 C 468.027344 239.980469 484.246094 246.050781 499.578125 254.335938 C 514.925781 246.109375 531.140625 240.039062 547.839844 236.265625 C 518.011719 216.9375 481.140625 216.9375 451.3125 236.265625 Z M 555.121094 241.535156 C 539.230469 245.675781 523.828125 251.871094 509.230469 259.988281 C 512.429688 262.054688 515.589844 264.1875 518.714844 266.390625 C 532.554688 258.359375 547.148438 252.042969 562.234375 247.566406 C 560.054688 245.292969 557.671875 243.273438 555.121094 241.539062 Z M 568.332031 254.148438 C 554.230469 258.90625 540.609375 265.277344 527.6875 273.160156 C 530.582031 275.4375 533.40625 277.820312 536.15625 280.3125 C 548.21875 272.527344 560.921875 266.03125 574.089844 260.921875 C 572.394531 258.4375 570.464844 256.164062 568.332031 254.140625 Z M 579.507812 269.023438 C 567.285156 274.125 555.542969 280.558594 544.453125 288.226562 C 554.949219 298.855469 564.375 310.722656 572.566406 323.617188 C 580.0625 335.457031 586.523438 348.066406 591.867188 361.269531 C 594.644531 350.882812 596.070312 340.105469 596.101562 329.265625 C 596.160156 307.785156 590.371094 286.785156 579.5 269.023438 Z M 571.210938 342.820312 C 561.304688 324.988281 549.222656 308.769531 535.308594 294.628906 C 532.261719 297.074219 529.042969 299.519531 526.164062 301.964844 C 549.726562 326.378906 567.871094 356.539062 579.171875 390.070312 C 581.886719 385.617188 584.316406 380.964844 586.453125 376.136719 C 582.121094 364.628906 577.023438 353.488281 571.210938 342.816406 Z M 517.523438 293.875 C 520.574219 291.429688 523.625 288.984375 526.839844 286.71875 C 524.128906 284.085938 521.25 281.636719 518.371094 279.191406 C 515.15625 281.449219 511.9375 283.707031 508.71875 286.15625 L 508.890625 286.15625 C 511.769531 288.601562 514.648438 291.238281 517.523438 293.875 Z M 499.578125 278.804688 C 502.792969 276.546875 506.175781 274.289062 509.230469 272.21875 C 506.011719 269.957031 502.792969 267.699219 499.578125 265.628906 C 496.359375 267.699219 493.3125 269.964844 490.09375 272.21875 C 493.3125 274.292969 496.359375 276.550781 499.578125 278.804688 Z M 490.433594 286.144531 C 487.214844 283.699219 484.164062 281.4375 480.949219 279.175781 L 472.3125 286.515625 C 475.527344 288.960938 478.578125 291.21875 481.625 293.667969 C 484.488281 291.0625 487.421875 288.558594 490.433594 286.152344 Z M 499.578125 293.671875 C 496.695312 296.117188 493.820312 298.757812 490.769531 301.582031 C 493.820312 304.214844 496.699219 307.039062 499.578125 309.863281 C 502.457031 307.039062 505.335938 304.214844 508.382812 301.582031 C 505.5 298.953125 502.625 296.128906 499.578125 293.683594 Z M 499.578125 328.878906 C 486.34375 344.742188 475.117188 362.539062 466.214844 381.777344 C 460.082031 394.769531 455.09375 408.386719 451.316406 422.441406 C 481.261719 441.269531 517.894531 441.269531 547.84375 422.441406 C 544.066406 408.386719 539.078125 394.765625 532.945312 381.777344 C 524.097656 362.5 512.871094 344.695312 499.582031 328.878906 Z M 443.691406 400.226562 C 454.339844 369.90625 470.414062 342.300781 490.941406 319.085938 C 488.058594 316.074219 485.183594 313.253906 482.132812 310.242188 C 458.21875 335.917969 440.011719 367.4375 428.957031 402.296875 C 432.148438 406.222656 435.601562 409.871094 439.289062 413.21875 C 440.644531 408.886719 442.167969 404.558594 443.6875 400.226562 Z M 508.214844 319.085938 C 528.738281 342.339844 544.859375 369.929688 555.632812 400.226562 C 557.15625 404.558594 558.511719 408.886719 559.863281 413.21875 C 563.605469 409.875 567.113281 406.226562 570.363281 402.296875 C 559.183594 367.460938 540.929688 335.960938 517.019531 310.242188 C 513.972656 313.253906 511.09375 316.078125 508.214844 319.089844 Z M 419.984375 390.0625 C 431.28125 356.539062 449.496094 326.429688 473.15625 302.152344 C 470.125 299.535156 467.019531 297.027344 463.84375 294.621094 C 449.96875 308.875 437.890625 325.148438 427.945312 343.003906 C 422.097656 353.589844 417 364.667969 412.703125 376.136719 C 414.800781 380.984375 417.234375 385.640625 419.984375 390.066406 Z M 500.082031 213.097656 C 559.847656 213.097656 608.296875 266.953125 608.300781 333.390625 C 608.300781 399.828125 559.855469 453.691406 500.089844 453.695312 C 440.328125 453.699219 391.875 399.84375 391.871094 333.40625 C 391.980469 267.015625 440.363281 213.226562 500.085938 213.105469 Z M 547.839844 186.742188 C 543.84375 191.902344 540.535156 197.667969 538.015625 203.871094 C 537.214844 201.589844 537.097656 199.082031 537.675781 196.71875 C 538.523438 188.0625 540.726562 182.789062 544.789062 175.445312 C 546.144531 172.8125 547.5 170.554688 548.175781 167.726562 C 551.027344 158.089844 549.714844 147.53125 544.621094 139.113281 C 545.398438 147.289062 543.667969 155.515625 539.710938 162.457031 C 539.238281 163.292969 538.671875 164.054688 538.015625 164.71875 C 533.601562 169.25 529.785156 174.445312 526.671875 180.15625 C 523.421875 185.953125 520.914062 192.226562 519.21875 198.792969 C 518.195312 196.726562 517.78125 194.355469 518.035156 192.011719 C 517.695312 183.164062 519.050781 177.703125 521.933594 169.609375 C 523.054688 166.976562 523.851562 164.191406 524.304688 161.324219 C 525.488281 152.664062 523.457031 141.558594 516.683594 133.839844 C 518.621094 141.773438 518.082031 150.199219 515.160156 157.75 C 514.746094 158.589844 514.292969 159.40625 513.804688 160.195312 C 510.132812 165.464844 507.0625 171.21875 504.660156 177.324219 C 502.402344 183.679688 500.867188 190.320312 500.089844 197.09375 C 498.714844 195.230469 497.941406 192.910156 497.886719 190.503906 C 496.363281 181.84375 496.871094 176.195312 498.566406 167.726562 C 499.382812 164.996094 499.785156 162.132812 499.75 159.253906 C 499.71875 149.128906 495.539062 139.570312 488.398438 133.289062 C 491.433594 140.863281 492.089844 149.347656 490.261719 157.386719 C 489.925781 158.140625 489.585938 159.082031 489.246094 159.832031 C 487.214844 164.539062 484.847656 169.058594 482.644531 178.46875 C 481.265625 185.136719 480.640625 191.964844 480.78125 198.800781 C 479.34375 197.097656 478.296875 195.03125 477.734375 192.777344 C 475.023438 184.304688 474.6875 178.847656 475.363281 170 C 475.617188 167.183594 475.617188 164.34375 475.363281 161.527344 C 474.007812 152.679688 468.929688 142.890625 460.464844 137.808594 C 464.449219 144.742188 466.238281 152.957031 465.542969 161.152344 L 465.035156 163.976562 C 463.015625 170.296875 461.707031 176.875 461.140625 183.554688 C 460.625 190.351562 460.964844 197.195312 462.15625 203.886719 C 460.464844 202.460938 459.121094 200.582031 458.257812 198.425781 C 454.363281 190.519531 453.347656 185.058594 452.667969 176.398438 C 452.644531 173.511719 452.1875 170.648438 451.3125 167.929688 C 448.945312 159.457031 442.507812 150.609375 433.363281 147.21875 C 439.289062 154.558594 441.664062 163.035156 441.664062 169.246094 C 441.691406 170.191406 441.636719 171.136719 441.492188 172.070312 C 440.429688 178.652344 440.089844 185.351562 440.476562 192.027344 C 441.007812 198.835938 442.316406 205.542969 444.378906 211.980469 C 442.457031 210.894531 440.824219 209.273438 439.636719 207.273438 C 434.726562 200.308594 433.035156 195.039062 431.167969 186.566406 C 430.65625 183.691406 429.800781 180.90625 428.628906 178.285156 C 425.070312 170.5625 417.453125 162.847656 407.96875 160.964844 C 414.742188 167.363281 418.300781 175.460938 419.316406 181.484375 C 419.457031 182.414062 419.511719 183.363281 419.484375 184.304688 C 419.453125 191.015625 420.078125 197.707031 421.347656 204.261719 C 422.75 210.847656 424.96875 217.183594 427.945312 223.089844 C 425.929688 222.363281 424.121094 221.066406 422.695312 219.324219 C 416.769531 213.296875 414.230469 208.402344 411.351562 200.3125 C 410.441406 197.597656 409.246094 195.003906 407.796875 192.59375 C 403.054688 185.628906 394.585938 179.417969 384.765625 179.226562 C 392.554688 184.3125 397.125 191.464844 398.988281 197.300781 L 399.496094 200.125 C 400.34375 205.207031 400.851562 210.480469 404.070312 219.515625 C 406.425781 225.804688 409.558594 231.699219 413.382812 237.023438 C 411.265625 236.6875 409.277344 235.710938 407.625 234.199219 C 401.027344 229.308594 397.804688 224.789062 393.570312 217.445312 C 392.398438 214.863281 390.851562 212.507812 388.996094 210.480469 C 383.410156 204.269531 374.097656 199.5625 364.441406 201.066406 C 372.742188 204.832031 378.328125 211.230469 381.042969 216.691406 C 381.382812 217.445312 381.71875 218.386719 382.058594 219.328125 C 383.582031 224.035156 384.769531 229.117188 389.171875 237.589844 C 392.398438 243.429688 396.328125 248.75 400.855469 253.402344 C 398.71875 253.308594 396.628906 252.664062 394.757812 251.519531 C 387.472656 247.753906 383.75 243.988281 378.667969 237.402344 C 376.976562 235.148438 375.109375 233.066406 373.078125 231.1875 C 366.644531 226.105469 356.820312 223.09375 347.507812 226.296875 C 356.3125 228.554688 362.75 233.828125 365.96875 238.722656 C 366.574219 239.417969 367.035156 240.253906 367.320312 241.167969 C 369.957031 247.183594 373.257812 252.8125 377.144531 257.921875 C 381.027344 263.21875 385.59375 267.851562 390.691406 271.664062 C 388.566406 271.972656 386.402344 271.644531 384.425781 270.722656 C 376.804688 268.464844 372.570312 265.265625 366.644531 259.617188 C 364.699219 257.714844 362.601562 256.011719 360.378906 254.535156 C 352.175781 250.066406 342.601562 249.925781 334.300781 254.15625 C 341.738281 254.566406 348.839844 257.75 354.449219 263.195312 C 355 263.914062 355.507812 264.667969 355.976562 265.453125 C 358.855469 269.40625 361.394531 273.925781 368 280.324219 C 372.667969 284.773438 377.851562 288.507812 383.410156 291.433594 C 381.378906 292.160156 379.207031 292.222656 377.144531 291.621094 C 369.183594 290.679688 364.613281 288.230469 357.839844 283.714844 C 355.46875 282.207031 353.4375 280.703125 350.894531 279.949219 C 342.28125 276.78125 332.832031 278.242188 325.324219 283.902344 C 332.675781 283.066406 340.066406 284.988281 346.324219 289.359375 C 347.019531 289.886719 347.648438 290.523438 348.183594 291.246094 C 351.570312 294.820312 354.789062 298.773438 362.070312 303.859375 C 367.269531 307.511719 372.917969 310.300781 378.835938 312.140625 C 376.964844 313.253906 374.855469 313.777344 372.738281 313.648438 C 364.777344 313.835938 359.867188 312.328125 352.585938 309.128906 C 350.21875 307.886719 347.710938 307 345.132812 306.496094 C 337.34375 305.175781 327.351562 307.433594 320.40625 314.964844 C 329.046875 312.519531 337.007812 314.023438 341.914062 316.660156 C 342.671875 317.121094 343.40625 317.621094 344.117188 318.164062 C 353.691406 326.578125 365.183594 331.855469 377.308594 333.414062 C 375.679688 334.90625 373.660156 335.765625 371.550781 335.859375 C 363.589844 337.742188 358.679688 336.988281 350.890625 335.105469 C 348.414062 334.289062 345.851562 333.84375 343.269531 333.789062 C 335.308594 333.789062 325.828125 337.742188 320.070312 346.402344 C 326.820312 343.027344 334.402344 342.296875 341.574219 344.332031 C 342.421875 344.707031 343.101562 345.085938 343.945312 345.460938 C 349.238281 348.671875 354.871094 351.136719 360.710938 352.796875 C 366.648438 354.34375 372.738281 355.039062 378.832031 354.871094 C 377.300781 356.472656 375.441406 357.632812 373.414062 358.257812 C 365.960938 361.269531 360.882812 361.648438 353.09375 360.894531 C 350.5 360.609375 347.890625 360.609375 345.300781 360.894531 C 337.511719 362.398438 328.703125 368.046875 324.132812 377.648438 C 330.3125 373.050781 337.734375 370.988281 345.132812 371.8125 C 345.980469 372 346.65625 372.1875 347.503906 372.378906 C 358.980469 377.078125 371.398438 378.1875 383.402344 375.578125 C 382.121094 377.460938 380.433594 378.953125 378.492188 379.914062 C 371.550781 384.242188 366.46875 385.371094 358.679688 386.125 C 356.097656 386.335938 353.542969 386.839844 351.058594 387.632812 C 342.421875 390.75 335.550781 398.109375 332.429688 407.585938 C 337.953125 402.074219 345 398.816406 352.410156 398.359375 C 353.261719 398.328125 354.113281 398.390625 354.953125 398.550781 C 360.871094 399.746094 366.898438 400.125 372.902344 399.679688 C 378.988281 399.199219 384.976562 397.738281 390.683594 395.34375 C 389.8125 397.554688 388.332031 399.402344 386.449219 400.613281 C 380.183594 406.074219 375.445312 407.953125 367.824219 410.027344 C 365.292969 410.597656 362.84375 411.546875 360.539062 412.851562 C 352.464844 417.457031 346.722656 425.917969 344.960938 435.816406 C 349.601562 429.4375 356.046875 424.992188 363.25 423.203125 C 364.089844 423.046875 364.941406 422.984375 365.789062 423.015625 C 371.824219 423.058594 377.84375 422.363281 383.742188 420.945312 C 389.710938 419.363281 395.460938 416.894531 400.839844 413.609375 C 400.164062 415.882812 398.933594 417.902344 397.285156 419.445312 C 391.863281 426.035156 387.460938 428.859375 380.183594 432.058594 C 377.839844 433.1875 375.578125 434.507812 373.410156 436.011719 C 366.976562 441.28125 361.386719 450.695312 361.21875 461.613281 C 364.898438 454.402344 370.699219 448.820312 377.644531 445.800781 C 378.492188 445.613281 379.167969 445.421875 380.015625 445.234375 C 384.585938 444.292969 389.328125 443.730469 397.457031 440.152344 C 403.121094 437.503906 408.464844 434.089844 413.375 429.988281 C 412.96875 432.28125 412.035156 434.421875 410.664062 436.199219 C 406.265625 443.535156 402.367188 447.117188 395.59375 451.824219 C 393.324219 453.222656 391.21875 454.929688 389.328125 456.910156 C 382.964844 464.125 379.910156 474.175781 381.027344 484.207031 C 383.625 476.472656 388.527344 469.957031 394.914062 465.75 C 395.761719 465.375 396.441406 465 397.285156 464.621094 C 403.058594 462.832031 408.585938 460.171875 413.714844 456.714844 C 418.964844 453.128906 423.753906 448.757812 427.9375 443.726562 C 428.019531 446.125 427.425781 448.496094 426.246094 450.507812 C 422.859375 458.601562 419.472656 462.742188 413.546875 468.390625 C 411.527344 470.222656 409.710938 472.308594 408.125 474.601562 C 403.554688 481.757812 400.84375 492.675781 403.726562 503.03125 C 405.585938 493.242188 410.324219 486.085938 414.902344 482.511719 C 415.539062 481.945312 416.21875 481.441406 416.933594 481.003906 C 422.382812 478.039062 427.496094 474.375 432.175781 470.085938 C 436.835938 465.703125 440.9375 460.636719 444.367188 455.023438 C 444.628906 457.371094 444.398438 459.757812 443.691406 461.988281 C 441.492188 470.460938 438.78125 475.167969 433.53125 481.757812 C 431.777344 483.910156 430.296875 486.316406 429.128906 488.910156 C 425.574219 496.816406 424.386719 507.921875 428.621094 517.714844 C 429.300781 507.738281 433.023438 499.828125 436.921875 495.5 C 437.460938 494.777344 438.085938 494.144531 438.785156 493.617188 C 442.511719 490.417969 446.40625 487.59375 452.164062 480.25 C 456.164062 475.058594 459.523438 469.296875 462.15625 463.121094 C 462.78125 465.375 462.898438 467.769531 462.492188 470.085938 C 461.476562 478.933594 459.445312 484.015625 455.382812 491.546875 C 453.898438 493.9375 452.703125 496.53125 451.824219 499.265625 C 449.453125 507.734375 449.960938 519.03125 455.550781 527.878906 C 454.703125 517.902344 457.242188 509.425781 460.460938 504.347656 C 460.925781 503.621094 461.4375 502.929688 461.984375 502.277344 C 465.203125 498.511719 468.757812 494.933594 473.5 486.839844 C 476.652344 481.007812 479.097656 474.742188 480.78125 468.203125 C 481.785156 470.28125 482.253906 472.628906 482.136719 474.984375 C 482.476562 483.832031 481.121094 489.292969 478.074219 497.386719 C 477.03125 500.050781 476.234375 502.824219 475.703125 505.671875 C 474.515625 514.332031 476.550781 525.4375 483.324219 533.15625 C 481.121094 523.554688 482.476562 514.703125 485.015625 509.246094 C 485.308594 508.375 485.707031 507.550781 486.203125 506.800781 C 489.964844 501.535156 493.042969 495.703125 495.347656 489.480469 C 497.773438 483.246094 499.371094 476.648438 500.089844 469.902344 C 501.292969 471.796875 502.050781 473.996094 502.289062 476.300781 C 503.8125 485.152344 503.304688 490.609375 501.441406 499.269531 C 500.707031 502.023438 500.308594 504.871094 500.257812 507.742188 C 500.320312 517.851562 504.570312 527.363281 511.773438 533.535156 C 508.214844 524.496094 508.214844 515.648438 509.910156 509.625 C 510.117188 508.71875 510.398438 507.835938 510.757812 506.988281 C 513.648438 501.105469 515.863281 494.847656 517.355469 488.351562 C 518.746094 481.753906 519.375 474.984375 519.21875 468.207031 C 520.71875 469.863281 521.773438 471.949219 522.269531 474.234375 C 525.148438 482.515625 525.316406 488.164062 524.808594 497.011719 C 524.386719 499.816406 524.386719 502.679688 524.808594 505.484375 C 526.203125 515.527344 531.703125 524.289062 539.707031 529.203125 C 534.964844 520.734375 533.78125 511.882812 534.628906 505.859375 C 534.632812 504.890625 534.804688 503.929688 535.136719 503.035156 C 537.15625 496.710938 538.464844 490.136719 539.03125 483.457031 C 539.375 476.65625 539.035156 469.835938 538.015625 463.125 C 539.660156 464.601562 540.988281 466.464844 541.910156 468.582031 C 545.804688 476.300781 546.820312 481.949219 547.496094 490.609375 C 547.546875 493.480469 547.945312 496.328125 548.683594 499.082031 C 551.558594 508.699219 558.234375 516.328125 566.804688 519.789062 C 560.878906 512.257812 558.503906 503.789062 558.335938 497.574219 C 558.308594 496.628906 558.363281 495.683594 558.507812 494.75 C 559.667969 488.183594 560.011719 481.46875 559.523438 474.796875 C 559.082031 468.050781 557.828125 461.402344 555.796875 455.027344 C 557.667969 456.117188 559.246094 457.742188 560.367188 459.734375 C 565.277344 466.699219 567.140625 471.972656 569.003906 480.445312 C 569.460938 483.25 570.257812 485.972656 571.375 488.539062 C 575.101562 496.445312 582.554688 503.976562 592.207031 505.859375 C 586.371094 500.761719 582.300781 493.578125 580.691406 485.527344 C 580.550781 484.59375 580.492188 483.648438 580.519531 482.703125 C 580.714844 476 580.144531 469.292969 578.828125 462.746094 C 577.328125 456.109375 575.050781 449.71875 572.054688 443.738281 C 574.121094 444.445312 575.949219 445.820312 577.304688 447.691406 C 583.230469 453.714844 585.769531 458.613281 588.820312 466.703125 C 589.699219 469.375 590.894531 471.910156 592.375 474.234375 C 597.117188 481.386719 605.585938 487.597656 615.238281 487.785156 C 608.835938 483.636719 603.878906 477.199219 601.179688 469.527344 C 600.878906 468.675781 600.652344 467.792969 600.503906 466.890625 C 599.761719 460.230469 598.222656 453.707031 595.933594 447.5 C 593.648438 441.210938 590.566406 435.316406 586.785156 429.992188 C 588.925781 430.242188 590.9375 431.230469 592.546875 432.816406 C 599.144531 437.707031 602.367188 442.042969 606.429688 449.570312 C 607.703125 452.085938 609.238281 454.421875 611.003906 456.535156 C 617.496094 463.609375 626.535156 467.003906 635.558594 465.761719 C 627.257812 462.183594 621.671875 455.785156 619.132812 450.324219 C 618.652344 449.523438 618.308594 448.628906 618.117188 447.691406 C 616.355469 441.300781 613.910156 435.171875 610.835938 429.429688 C 607.621094 423.632812 603.75 418.316406 599.320312 413.617188 C 601.460938 413.667969 603.558594 414.3125 605.417969 415.496094 C 612.53125 419.261719 616.425781 423.027344 621.507812 429.617188 C 623.050781 431.894531 624.875 433.925781 626.925781 435.640625 C 634.320312 441.546875 643.722656 443.414062 652.496094 440.722656 C 643.859375 438.464844 637.425781 433.191406 634.039062 428.109375 C 633.53125 427.402344 633.074219 426.644531 632.683594 425.851562 C 630.484375 421.332031 628.621094 416.4375 623.03125 408.90625 C 618.980469 403.777344 614.371094 399.222656 609.3125 395.351562 C 611.425781 395.050781 613.574219 395.308594 615.578125 396.105469 C 623.199219 398.550781 627.433594 401.753906 633.53125 407.402344 C 635.4375 409.304688 637.539062 410.945312 639.796875 412.292969 C 646.910156 416.246094 656.898438 417.5625 665.707031 412.859375 C 656.730469 412.105469 649.789062 407.964844 645.722656 403.628906 C 645.074219 403.03125 644.503906 402.335938 644.03125 401.558594 C 640.648438 396.074219 636.667969 391.078125 632.175781 386.6875 C 627.449219 382.328125 622.277344 378.597656 616.765625 375.578125 C 618.792969 374.875 620.945312 374.746094 623.03125 375.203125 C 630.820312 376.332031 635.5625 378.59375 642.167969 383.300781 C 644.359375 384.816406 646.6875 386.078125 649.109375 387.066406 C 656.730469 389.699219 666.890625 389.132812 674.851562 382.921875 C 665.875 383.863281 658.425781 381.039062 653.851562 377.464844 L 651.816406 375.769531 C 647.714844 370.84375 643.046875 366.535156 637.933594 362.960938 C 632.703125 359.421875 627.0625 356.699219 621.167969 354.863281 C 623.046875 353.773438 625.152344 353.25 627.269531 353.359375 C 635.398438 352.980469 640.308594 354.488281 647.421875 357.875 C 649.816406 359.035156 652.3125 359.917969 654.871094 360.511719 C 662.660156 361.828125 672.652344 359.570312 679.597656 352.039062 C 670.960938 354.484375 663.171875 352.980469 658.089844 350.15625 C 657.320312 349.792969 656.585938 349.351562 655.890625 348.839844 C 651.148438 344.757812 645.972656 341.34375 640.480469 338.671875 C 634.757812 336.152344 628.789062 334.382812 622.695312 333.402344 C 624.449219 332.03125 626.492188 331.1875 628.625 330.957031 C 636.414062 329.261719 641.492188 329.828125 649.113281 331.898438 C 651.589844 332.71875 654.152344 333.160156 656.734375 333.214844 C 665.828125 333.097656 674.394531 328.472656 680.101562 320.605469 C 671.800781 324.371094 663.84375 324.371094 658.59375 322.488281 C 657.769531 322.289062 656.972656 321.972656 656.222656 321.546875 C 651.988281 319.285156 647.921875 316.652344 639.457031 314.207031 C 633.460938 312.664062 627.316406 311.96875 621.164062 312.136719 C 622.65625 310.46875 624.53125 309.296875 626.585938 308.75 C 634.207031 305.546875 639.285156 305.359375 647.074219 305.925781 C 649.65625 306.394531 652.285156 306.394531 654.867188 305.925781 C 663.839844 304.316406 671.644531 298.207031 676.035156 289.359375 C 668.414062 294.632812 660.625 295.949219 655.035156 295.199219 C 654.171875 295.035156 653.320312 294.78125 652.496094 294.445312 C 646.863281 292.210938 641.003906 290.757812 635.054688 290.109375 C 628.929688 289.703125 622.785156 290.148438 616.761719 291.425781 C 617.953125 289.40625 619.667969 287.832031 621.675781 286.90625 C 628.617188 282.574219 633.527344 281.449219 641.320312 280.695312 C 643.902344 280.640625 646.464844 280.195312 648.9375 279.378906 C 656.558594 276.554688 664.519531 269.589844 667.566406 259.234375 C 662.132812 264.8125 655.136719 268.136719 647.753906 268.648438 C 646.902344 268.679688 646.054688 268.617188 645.214844 268.457031 C 640.640625 267.707031 635.898438 266.578125 627.261719 267.328125 C 621.125 267.824219 615.082031 269.28125 609.3125 271.664062 C 610.289062 269.53125 611.75 267.714844 613.546875 266.394531 C 619.8125 260.933594 624.554688 258.863281 632.175781 256.792969 C 634.753906 256.289062 637.257812 255.402344 639.625 254.15625 C 646.570312 250.015625 653.511719 241.730469 655.203125 231 C 649.449219 238.71875 642.335938 242.671875 636.746094 243.804688 C 635.90625 243.957031 635.054688 244.023438 634.207031 243.992188 C 628.230469 243.769531 622.253906 244.402344 616.425781 245.875 C 610.433594 247.472656 604.675781 250.007812 599.324219 253.402344 C 599.894531 251.121094 601.074219 249.082031 602.710938 247.566406 C 608.132812 240.976562 612.535156 238.15625 619.8125 234.765625 C 622.285156 233.828125 624.625 232.5 626.753906 230.8125 C 633.019531 225.542969 638.609375 216.128906 638.777344 205.398438 C 634.207031 213.867188 627.769531 218.953125 622.519531 221.023438 C 621.695312 221.363281 620.847656 221.613281 619.980469 221.777344 C 615.410156 222.71875 610.667969 223.28125 602.539062 226.859375 C 596.917969 229.484375 591.625 232.898438 586.789062 237.023438 C 587.125 234.683594 588 232.476562 589.328125 230.625 C 593.730469 223.289062 597.796875 219.707031 604.402344 215.1875 C 606.6875 213.820312 608.796875 212.109375 610.667969 210.105469 C 616.253906 203.890625 620.488281 193.539062 619.132812 182.808594 C 615.746094 192.035156 609.988281 198.242188 605.078125 201.261719 C 604.375 201.65625 603.636719 201.972656 602.878906 202.203125 C 597.085938 204.1875 591.515625 206.902344 586.277344 210.296875 C 581.0625 213.867188 576.28125 218.171875 572.054688 223.097656 C 572.160156 220.789062 572.742188 218.535156 573.746094 216.507812 C 577.132812 208.414062 580.519531 204.273438 586.445312 198.4375 C 588.511719 196.675781 590.386719 194.652344 592.035156 192.410156 C 596.605469 185.257812 599.316406 174.339844 596.433594 163.988281 C 594.402344 173.585938 589.660156 180.742188 585.257812 184.503906 C 584.589844 185.117188 583.847656 185.621094 583.058594 186.011719 C 578.992188 188.457031 574.589844 190.53125 567.984375 196.742188 C 563.285156 201.140625 559.179688 206.273438 555.800781 211.980469 C 555.367188 209.636719 555.601562 207.199219 556.476562 205.011719 C 558.679688 196.542969 561.386719 191.835938 566.46875 185.058594 C 568.164062 182.800781 569.855469 180.914062 571.039062 178.09375 C 575.0625 169.042969 575.1875 158.453125 571.382812 149.289062 C 571.09375 157.523438 568.214844 165.386719 563.25 171.503906 C 562.671875 172.179688 562.050781 172.8125 561.390625 173.386719 C 556.359375 177.152344 551.800781 181.648438 547.839844 186.753906 Z M 547.839844 186.742188 "/>
</g>
</svg>
