<?xml version="1.0" encoding="UTF-8"?>
<svg xmlns="http://www.w3.org/2000/svg" xmlns:xlink="http://www.w3.org/1999/xlink" width="1000px" height="667px" viewBox="0 0 1000 667" version="1.1">
<g id="surface1">
<rect x="0" y="0" width="1000" height="667" style="fill:rgb(1.176471%,18.039216%,63.137257%);fill-opacity:1;stroke:none;"/>
<path style=" stroke:none;fill-rule:nonzero;fill:rgb(87.843138%,0%,14.509805%);fill-opacity:1;" d="M 0 166.75 L 1000 166.75 L 1000 500.25 L 0 500.25 Z M 0 166.75 "/>
<path style="fill-rule:nonzero;fill:rgb(100%,100%,100%);fill-opacity:1;stroke-width:0.96;stroke-linecap:butt;stroke-linejoin:bevel;stroke:rgb(0%,0%,0%);stroke-opacity:1;stroke-miterlimit:4;" d="M 139.019249 623.459643 L 252.820518 623.459643 L 252.820518 667.247124 L 139.019249 667.247124 Z M 139.019249 623.459643 " transform="matrix(1.6,0,0,1.6675,187.428577,-725.251768)"/>
<path style="fill-rule:nonzero;fill:rgb(100%,100%,100%);fill-opacity:1;stroke-width:0.96;stroke-linecap:butt;stroke-linejoin:bevel;stroke:rgb(0%,0%,0%);stroke-opacity:1;stroke-miterlimit:4;" d="M 246.948936 647.639741 L 250.535362 647.639741 L 250.535362 664.13618 L 246.948936 664.13618 Z M 246.948936 647.639741 " transform="matrix(1.6,0,0,1.6675,187.428577,-725.251768)"/>
<path style="fill-rule:nonzero;fill:rgb(100%,100%,100%);fill-opacity:1;stroke-width:0.96;stroke-linecap:butt;stroke-linejoin:bevel;stroke:rgb(0%,0%,0%);stroke-opacity:1;stroke-miterlimit:4;" d="M 139.019249 639.489909 L 252.820518 639.489909 L 252.820518 644.580333 L 139.019249 644.580333 Z M 139.019249 639.489909 " transform="matrix(1.6,0,0,1.6675,187.428577,-725.251768)"/>
<path style="fill-rule:nonzero;fill:rgb(100%,100%,100%);fill-opacity:1;stroke-width:0.96;stroke-linecap:butt;stroke-linejoin:bevel;stroke:rgb(0%,0%,0%);stroke-opacity:1;stroke-miterlimit:4;" d="M 139.019249 632.591015 L 252.820518 632.591015 L 252.820518 637.079396 L 139.019249 637.079396 Z M 139.019249 632.591015 " transform="matrix(1.6,0,0,1.6675,187.428577,-725.251768)"/>
<path style="fill-rule:nonzero;fill:rgb(100%,100%,100%);fill-opacity:1;stroke-width:0.94545;stroke-linecap:butt;stroke-linejoin:bevel;stroke:rgb(0%,0%,0%);stroke-opacity:1;stroke-miterlimit:4;" d="M 139.019249 625.699148 L 252.820518 625.699148 L 252.820518 630.054002 L 139.019249 630.054002 Z M 139.019249 625.699148 " transform="matrix(1.6,0,0,1.6675,187.428577,-725.251768)"/>
<path style="fill-rule:nonzero;fill:rgb(100%,100%,100%);fill-opacity:1;stroke-width:0.96;stroke-linecap:butt;stroke-linejoin:bevel;stroke:rgb(0%,0%,0%);stroke-opacity:1;stroke-miterlimit:4;" d="M 168.980186 647.639741 L 172.566612 647.639741 L 172.566612 664.13618 L 168.980186 664.13618 Z M 168.980186 647.639741 " transform="matrix(1.6,0,0,1.6675,187.428577,-725.251768)"/>
<path style="fill-rule:nonzero;fill:rgb(100%,100%,100%);fill-opacity:1;stroke-width:0.96;stroke-linecap:butt;stroke-linejoin:bevel;stroke:rgb(0%,0%,0%);stroke-opacity:1;stroke-miterlimit:4;" d="M 217.969444 647.639741 L 221.55587 647.639741 L 221.55587 664.13618 L 217.969444 664.13618 Z M 217.969444 647.639741 " transform="matrix(1.6,0,0,1.6675,187.428577,-725.251768)"/>
<path style="fill-rule:nonzero;fill:rgb(100%,100%,100%);fill-opacity:1;stroke-width:0.96;stroke-linecap:butt;stroke-linejoin:bevel;stroke:rgb(0%,0%,0%);stroke-opacity:1;stroke-miterlimit:4;" d="M 139.920128 647.639741 L 143.506554 647.639741 L 143.506554 664.13618 L 139.920128 664.13618 Z M 139.920128 647.639741 " transform="matrix(1.6,0,0,1.6675,187.428577,-725.251768)"/>
<path style="fill-rule:nonzero;fill:rgb(100%,100%,100%);fill-opacity:1;stroke-width:0.96;stroke-linecap:butt;stroke-linejoin:bevel;stroke:rgb(0%,0%,0%);stroke-opacity:1;stroke-miterlimit:4;" d="M 146.948936 647.639741 L 150.535362 647.639741 L 150.535362 664.13618 L 146.948936 664.13618 Z M 146.948936 647.639741 " transform="matrix(1.6,0,0,1.6675,187.428577,-725.251768)"/>
<path style="fill-rule:nonzero;fill:rgb(100%,100%,100%);fill-opacity:1;stroke-width:0.96;stroke-linecap:butt;stroke-linejoin:bevel;stroke:rgb(0%,0%,0%);stroke-opacity:1;stroke-miterlimit:4;" d="M 154.448936 647.639741 L 158.035362 647.639741 L 158.035362 664.13618 L 154.448936 664.13618 Z M 154.448936 647.639741 " transform="matrix(1.6,0,0,1.6675,187.428577,-725.251768)"/>
<path style="fill-rule:nonzero;fill:rgb(100%,100%,100%);fill-opacity:1;stroke-width:0.96;stroke-linecap:butt;stroke-linejoin:bevel;stroke:rgb(0%,0%,0%);stroke-opacity:1;stroke-miterlimit:4;" d="M 161.948936 647.639741 L 165.535362 647.639741 L 165.535362 664.13618 L 161.948936 664.13618 Z M 161.948936 647.639741 " transform="matrix(1.6,0,0,1.6675,187.428577,-725.251768)"/>
<path style="fill-rule:nonzero;fill:rgb(100%,100%,100%);fill-opacity:1;stroke-width:0.96;stroke-linecap:butt;stroke-linejoin:bevel;stroke:rgb(0%,0%,0%);stroke-opacity:1;stroke-miterlimit:4;" d="M 224.771202 647.639741 L 228.355186 647.639741 L 228.355186 664.13618 L 224.771202 664.13618 Z M 224.771202 647.639741 " transform="matrix(1.6,0,0,1.6675,187.428577,-725.251768)"/>
<path style="fill-rule:nonzero;fill:rgb(100%,100%,100%);fill-opacity:1;stroke-width:0.96;stroke-linecap:butt;stroke-linejoin:bevel;stroke:rgb(0%,0%,0%);stroke-opacity:1;stroke-miterlimit:4;" d="M 232.271202 647.639741 L 235.855186 647.639741 L 235.855186 664.13618 L 232.271202 664.13618 Z M 232.271202 647.639741 " transform="matrix(1.6,0,0,1.6675,187.428577,-725.251768)"/>
<path style="fill-rule:nonzero;fill:rgb(100%,100%,100%);fill-opacity:1;stroke-width:0.96;stroke-linecap:butt;stroke-linejoin:bevel;stroke:rgb(0%,0%,0%);stroke-opacity:1;stroke-miterlimit:4;" d="M 239.771202 647.639741 L 243.355186 647.639741 L 243.355186 664.13618 L 239.771202 664.13618 Z M 239.771202 647.639741 " transform="matrix(1.6,0,0,1.6675,187.428577,-725.251768)"/>
<path style="fill-rule:nonzero;fill:rgb(100%,100%,100%);fill-opacity:1;stroke-width:0.96;stroke-linecap:butt;stroke-linejoin:miter;stroke:rgb(0%,0%,0%);stroke-opacity:1;stroke-miterlimit:4;" d="M 94.509972 669.549879 C 96.270226 668.652672 98.277061 666.565434 98.9338 664.229883 L 292.005089 664.229883 C 292.661827 666.565434 294.668663 668.652672 296.428917 669.549879 Z M 94.509972 669.549879 " transform="matrix(1.6,0,0,1.6675,187.428577,-725.251768)"/>
<path style="fill-rule:nonzero;fill:rgb(100%,100%,100%);fill-opacity:1;stroke-width:0.96;stroke-linecap:butt;stroke-linejoin:miter;stroke:rgb(0%,0%,0%);stroke-opacity:1;stroke-miterlimit:4;" d="M 193.001183 556.799223 C 193.001183 556.799223 192.854698 552.687998 195.249718 552.643489 C 197.644737 552.687998 197.500694 556.799223 197.500694 556.799223 Z M 193.001183 556.799223 " transform="matrix(1.6,0,0,1.6675,187.428577,-725.251768)"/>
<path style="fill-rule:nonzero;fill:rgb(100%,100%,100%);fill-opacity:1;stroke-width:0.96;stroke-linecap:butt;stroke-linejoin:miter;stroke:rgb(0%,0%,0%);stroke-opacity:1;stroke-miterlimit:4;" d="M 180.510948 611.339141 L 180.510948 605.803627 C 180.430382 603.037042 177.749718 602.83558 177.671593 600.81862 C 177.671593 600.81862 177.324913 597.792008 178.123253 596.409887 C 179.207237 600.457863 181.179893 599.712923 181.179893 598.049692 C 181.179893 596.597293 180.061729 595.245625 177.77169 591.720044 C 177.039268 590.593264 177.49337 587.060655 178.518761 585.798005 C 178.91671 588.866783 179.370811 590.337923 180.689171 590.337923 C 181.494835 590.337923 182.151573 589.813185 182.151573 588.274111 C 182.151573 586.318058 180.82589 585.32949 180.176476 583.54913 C 179.414757 581.471262 179.939659 579.353571 181.201866 578.170569 C 181.741417 581.199523 181.580284 582.408294 182.925499 582.408294 C 185.640343 581.548568 182.92794 577.620063 182.346886 576.629152 C 181.680382 575.474261 183.245323 573.169163 183.245323 573.169163 C 184.10714 575.860786 184.383018 576.078646 185.313194 575.830333 C 186.487511 575.516427 186.336143 573.773549 184.905479 572.365659 C 183.999718 571.477822 184.094933 570.154265 185.066612 569.093077 C 186.040733 570.997593 187.290733 570.882807 187.410362 569.751341 L 186.626671 565.356663 L 203.880089 565.356663 L 203.023155 569.606101 C 202.779015 570.8219 204.41964 571.086611 205.440147 569.093077 C 206.411827 570.154265 206.507042 571.477822 205.603722 572.365659 C 204.170616 573.773549 204.019249 575.516427 205.193565 575.830333 C 206.123741 576.078646 206.39962 575.860786 207.263878 573.169163 C 207.263878 573.169163 208.665245 574.741034 208.159874 576.629152 C 207.578819 577.620063 204.866417 581.548568 207.581261 582.408294 C 208.926476 582.408294 208.765343 581.199523 209.304893 578.170569 C 210.569542 579.353571 211.092003 581.471262 210.332726 583.54913 C 209.68087 585.32949 208.355186 586.318058 208.355186 588.274111 C 208.355186 589.813185 209.011925 590.337923 209.817589 590.337923 C 211.135948 590.337923 211.59005 588.866783 211.987999 585.798005 C 213.01339 587.060655 213.467491 590.593264 212.735069 591.720044 C 210.44503 595.245625 209.326866 596.597293 209.326866 598.049692 C 209.326866 599.712923 211.299522 600.457863 212.383507 596.409887 C 213.181847 597.792008 212.835167 600.81862 212.835167 600.81862 C 212.757042 602.83558 210.076378 603.037042 209.998253 605.803627 L 209.998253 611.339141 Z M 180.510948 611.339141 " transform="matrix(1.6,0,0,1.6675,187.428577,-725.251768)"/>
<path style="fill-rule:nonzero;fill:rgb(100%,100%,100%);fill-opacity:1;stroke-width:0.96;stroke-linecap:butt;stroke-linejoin:miter;stroke:rgb(0%,0%,0%);stroke-opacity:1;stroke-miterlimit:4;" d="M 187.730186 565.319182 L 187.332237 562.194182 L 203.16964 562.194182 L 202.774132 565.319182 Z M 187.730186 565.319182 " transform="matrix(1.6,0,0,1.6675,187.428577,-725.251768)"/>
<path style="fill-rule:nonzero;fill:rgb(100%,100%,100%);fill-opacity:1;stroke-width:0.96;stroke-linecap:butt;stroke-linejoin:miter;stroke:rgb(0%,0%,0%);stroke-opacity:1;stroke-miterlimit:4;" d="M 188.789757 562.130933 L 188.44796 559.561124 L 202.053917 559.561124 L 201.71212 562.130933 Z M 188.789757 562.130933 " transform="matrix(1.6,0,0,1.6675,187.428577,-725.251768)"/>
<path style="fill-rule:nonzero;fill:rgb(100%,100%,100%);fill-opacity:1;stroke-width:0.96;stroke-linecap:butt;stroke-linejoin:miter;stroke:rgb(0%,0%,0%);stroke-opacity:1;stroke-miterlimit:4;" d="M 190.950401 559.469763 L 190.723351 556.902297 L 199.780968 556.902297 L 199.553917 559.469763 Z M 190.950401 559.469763 " transform="matrix(1.6,0,0,1.6675,187.428577,-725.251768)"/>
<path style="fill-rule:nonzero;fill:rgb(100%,100%,100%);fill-opacity:1;stroke-width:0.96;stroke-linecap:butt;stroke-linejoin:miter;stroke:rgb(0%,0%,0%);stroke-opacity:1;stroke-miterlimit:4;" d="M 223.970421 669.549879 C 221.944054 668.769801 218.992393 666.631026 218.992393 664.480539 L 218.992393 640.183313 L 221.631554 636.824055 L 168.855675 636.824055 L 171.384972 640.183313 L 171.384972 664.480539 C 171.384972 666.631026 169.358604 668.769801 167.332237 669.549879 Z M 223.970421 669.549879 " transform="matrix(1.6,0,0,1.6675,187.428577,-725.251768)"/>
<path style="fill-rule:nonzero;fill:rgb(100%,100%,100%);fill-opacity:1;stroke-width:0.96;stroke-linecap:butt;stroke-linejoin:bevel;stroke:rgb(0%,0%,0%);stroke-opacity:1;stroke-miterlimit:4;" d="M 178.24044 647.639741 L 181.826866 647.639741 L 181.826866 664.13618 L 178.24044 664.13618 Z M 178.24044 647.639741 " transform="matrix(1.6,0,0,1.6675,187.428577,-725.251768)"/>
<path style="fill-rule:nonzero;fill:rgb(100%,100%,100%);fill-opacity:1;stroke-width:0.96;stroke-linecap:butt;stroke-linejoin:bevel;stroke:rgb(0%,0%,0%);stroke-opacity:1;stroke-miterlimit:4;" d="M 208.560265 647.639741 L 212.14669 647.639741 L 212.14669 664.13618 L 208.560265 664.13618 Z M 208.560265 647.639741 " transform="matrix(1.6,0,0,1.6675,187.428577,-725.251768)"/>
<path style="fill-rule:nonzero;fill:rgb(100%,100%,100%);fill-opacity:1;stroke-width:0.96;stroke-linecap:butt;stroke-linejoin:miter;stroke:rgb(0%,0%,0%);stroke-opacity:1;stroke-miterlimit:4;" d="M 167.910851 609.169913 L 167.910851 636.826397 L 221.931847 636.826397 L 221.931847 630.86922 L 222.012413 609.169913 C 219.800499 610.03901 219.414757 612.041915 219.414757 612.041915 L 219.414757 623.818058 L 170.664757 623.818058 L 170.664757 612.041915 C 170.664757 612.041915 170.120323 610.03901 167.910851 609.169913 Z M 167.910851 609.169913 " transform="matrix(1.6,0,0,1.6675,187.428577,-725.251768)"/>
<path style="fill-rule:nonzero;fill:rgb(100%,100%,100%);fill-opacity:1;stroke-width:0.96;stroke-linecap:butt;stroke-linejoin:miter;stroke:rgb(0%,0%,0%);stroke-opacity:1;stroke-miterlimit:4;" d="M 214.600304 669.549879 C 212.835167 668.769801 208.987511 666.631026 208.987511 664.480539 L 208.987511 637.287885 C 209.365929 635.769894 211.424034 634.875029 212.749718 633.928627 L 176.926964 633.928627 C 178.631065 634.832863 180.530479 635.582488 181.211632 637.287885 L 181.211632 664.480539 C 181.211632 666.631026 178.16964 668.769801 176.404503 669.549879 Z M 214.600304 669.549879 " transform="matrix(1.6,0,0,1.6675,187.428577,-725.251768)"/>
<path style="fill-rule:nonzero;fill:rgb(100%,100%,100%);fill-opacity:1;stroke-width:0.96;stroke-linecap:butt;stroke-linejoin:miter;stroke:rgb(0%,0%,0%);stroke-opacity:1;stroke-miterlimit:4;" d="M 219.409874 634.219107 L 219.409874 614.632807 L 214.500206 614.632807 L 214.500206 612.723605 L 175.659874 612.723605 L 175.659874 614.632807 L 170.750206 614.632807 L 170.750206 634.219107 Z M 219.409874 634.219107 " transform="matrix(1.6,0,0,1.6675,187.428577,-725.251768)"/>
<path style="fill-rule:nonzero;fill:rgb(100%,100%,100%);fill-opacity:1;stroke-width:0.96;stroke-linecap:butt;stroke-linejoin:miter;stroke:rgb(0%,0%,0%);stroke-opacity:1;stroke-miterlimit:4;" d="M 206.861046 669.549879 C 205.130089 668.769801 202.610558 666.631026 202.610558 664.480539 L 202.610558 641.265584 L 204.031456 639.157263 L 186.341026 639.157263 L 187.761925 641.265584 L 187.761925 664.480539 C 187.761925 666.631026 185.242393 668.769801 183.511436 669.549879 Z M 206.861046 669.549879 " transform="matrix(1.6,0,0,1.6675,187.428577,-725.251768)"/>
<path style="fill-rule:nonzero;fill:rgb(100%,100%,100%);fill-opacity:1;stroke-width:0.981;stroke-linecap:butt;stroke-linejoin:miter;stroke:rgb(0%,0%,0%);stroke-opacity:1;stroke-miterlimit:4;" d="M 190.711143 639.159606 L 199.675987 639.159606 L 199.675987 669.535824 L 190.711143 669.535824 Z M 190.711143 639.159606 " transform="matrix(1.6,0,0,1.6675,187.428577,-725.251768)"/>
<path style="fill-rule:nonzero;fill:rgb(100%,100%,100%);fill-opacity:1;stroke-width:0.96;stroke-linecap:butt;stroke-linejoin:bevel;stroke:rgb(0%,0%,0%);stroke-opacity:1;stroke-miterlimit:4;" d="M 204.380577 632.480914 C 204.40255 630.478009 210.217979 630.388991 213.211143 628.685936 L 177.258995 628.685936 C 180.254601 630.388991 185.935753 630.529546 185.935753 632.480914 L 187.151573 636.362567 L 202.034386 636.959924 Z M 204.380577 632.480914 " transform="matrix(1.6,0,0,1.6675,187.428577,-725.251768)"/>
<path style="fill-rule:nonzero;fill:rgb(100%,100%,100%);fill-opacity:1;stroke-width:0.96;stroke-linecap:butt;stroke-linejoin:miter;stroke:rgb(0%,0%,0%);stroke-opacity:1;stroke-miterlimit:4;" d="M 211.409386 611.339141 C 211.409386 606.440809 211.614464 604.555033 213.120811 604.555033 L 213.120811 620.133181 C 209.429405 621.473136 206.795128 626.184062 206.795128 626.184062 L 183.584679 626.184062 C 183.584679 626.184062 180.950401 621.473136 177.258995 620.133181 L 177.258995 604.555033 C 179.114464 604.555033 179.126671 606.525142 179.126671 611.339141 Z M 211.409386 611.339141 " transform="matrix(1.6,0,0,1.6675,187.428577,-725.251768)"/>
<path style="fill-rule:nonzero;fill:rgb(100%,100%,100%);fill-opacity:1;stroke-width:0.96;stroke-linecap:butt;stroke-linejoin:miter;stroke:rgb(0%,0%,0%);stroke-opacity:1;stroke-miterlimit:4;" d="M 213.120811 609.329208 C 213.120811 603.711705 217.971886 603.079208 217.971886 603.079208 L 217.971886 608.080614 C 216.123741 608.000966 215.235069 609.657169 215.235069 612.123905 C 215.235069 614.59064 216.721886 614.630464 216.721886 614.630464 L 216.721886 628.819463 L 213.120811 628.819463 Z M 213.120811 609.329208 " transform="matrix(1.6,0,0,1.6675,187.428577,-725.251768)"/>
<path style="fill-rule:nonzero;fill:rgb(100%,100%,100%);fill-opacity:1;stroke-width:0.96;stroke-linecap:butt;stroke-linejoin:miter;stroke:rgb(0%,0%,0%);stroke-opacity:1;stroke-miterlimit:4;" d="M 177.280968 609.329208 C 177.280968 603.711705 172.429893 603.079208 172.429893 603.079208 L 172.429893 608.080614 C 174.275597 608.000966 175.16671 609.657169 175.16671 612.123905 C 175.16671 614.59064 173.679893 614.630464 173.679893 614.630464 L 173.679893 628.819463 L 177.280968 628.819463 Z M 177.280968 609.329208 " transform="matrix(1.6,0,0,1.6675,187.428577,-725.251768)"/>
<path style="fill:none;stroke-width:0.8;stroke-linecap:butt;stroke-linejoin:miter;stroke:rgb(0%,0%,0%);stroke-opacity:1;stroke-miterlimit:4;" d="M 186.839073 570.620438 L 203.967979 570.620438 " transform="matrix(1.6,0,0,1.6675,187.428577,-725.251768)"/>
<path style="fill:none;stroke-width:0.8;stroke-linecap:butt;stroke-linejoin:miter;stroke:rgb(0%,0%,0%);stroke-opacity:1;stroke-miterlimit:4;" d="M 184.810265 575.970888 L 205.730675 575.970888 " transform="matrix(1.6,0,0,1.6675,187.428577,-725.251768)"/>
<path style="fill:none;stroke-width:0.8;stroke-linecap:butt;stroke-linejoin:miter;stroke:rgb(0%,0%,0%);stroke-opacity:1;stroke-miterlimit:4;" d="M 182.779015 582.459831 L 207.6838 582.459831 " transform="matrix(1.6,0,0,1.6675,187.428577,-725.251768)"/>
<path style="fill:none;stroke-width:0.8;stroke-linecap:butt;stroke-linejoin:miter;stroke:rgb(0%,0%,0%);stroke-opacity:1;stroke-miterlimit:4;" d="M 180.659874 590.38946 L 210.196007 590.38946 " transform="matrix(1.6,0,0,1.6675,187.428577,-725.251768)"/>
<path style="fill:none;stroke-width:0.8;stroke-linecap:butt;stroke-linejoin:miter;stroke:rgb(0%,0%,0%);stroke-opacity:1;stroke-miterlimit:4;" d="M 179.981163 599.429471 L 210.405968 599.429471 " transform="matrix(1.6,0,0,1.6675,187.428577,-725.251768)"/>
<path style="fill:none;stroke-width:0.96;stroke-linecap:butt;stroke-linejoin:miter;stroke:rgb(0%,0%,0%);stroke-opacity:1;stroke-miterlimit:4;" d="M 170.750206 628.920194 L 219.409874 628.920194 " transform="matrix(1.6,0,0,1.6675,187.428577,-725.251768)"/>
<path style="fill:none;stroke-width:0.96;stroke-linecap:butt;stroke-linejoin:miter;stroke:rgb(0%,0%,0%);stroke-opacity:1;stroke-miterlimit:4;" d="M 186.189659 628.929565 L 204.226768 628.929565 L 204.226768 635.559062 L 186.189659 635.559062 Z M 186.189659 628.929565 " transform="matrix(1.6,0,0,1.6675,187.428577,-725.251768)"/>
<path style="fill-rule:nonzero;fill:rgb(100%,100%,100%);fill-opacity:1;stroke-width:0.96;stroke-linecap:butt;stroke-linejoin:miter;stroke:rgb(0%,0%,0%);stroke-opacity:1;stroke-miterlimit:4;" d="M 183.928917 614.239253 C 186.91964 617.830427 186.643761 623.921131 186.609581 627.509962 L 203.95089 627.509962 C 203.91671 623.921131 203.640831 617.830427 206.629112 614.239253 Z M 183.928917 614.239253 " transform="matrix(1.6,0,0,1.6675,187.428577,-725.251768)"/>
<path style="fill-rule:nonzero;fill:rgb(100%,100%,100%);fill-opacity:1;stroke-width:0.96;stroke-linecap:butt;stroke-linejoin:miter;stroke:rgb(0%,0%,0%);stroke-opacity:1;stroke-miterlimit:4;" d="M 193.679893 573.110599 L 191.304405 571.88543 L 191.304405 568.38796 C 192.276085 568.680783 193.364952 568.800254 193.472374 570.348699 C 193.809288 568.137304 194.41964 568.247406 195.379112 567.385337 C 196.336143 568.247406 196.946495 568.137304 197.285851 570.348699 C 197.390831 568.800254 198.48214 568.680783 199.453819 568.38796 L 199.453819 571.88543 L 197.078331 573.110599 Z M 193.679893 573.110599 " transform="matrix(1.6,0,0,1.6675,187.428577,-725.251768)"/>
<path style="fill-rule:nonzero;fill:rgb(100%,100%,100%);fill-opacity:1;stroke-width:0.96;stroke-linecap:butt;stroke-linejoin:miter;stroke:rgb(0%,0%,0%);stroke-opacity:1;stroke-miterlimit:4;" d="M 193.521202 578.849917 L 189.573448 576.137211 L 189.573448 572.913822 C 190.957726 573.234756 192.51046 573.36594 192.661827 575.061967 C 193.142784 572.639741 194.011925 571.386461 195.376671 570.442402 C 196.741417 571.386461 197.610558 572.639741 198.091515 575.061967 C 198.242882 573.36594 199.798058 573.234756 201.179893 572.913822 L 201.179893 576.137211 L 197.234581 578.849917 Z M 193.521202 578.849917 " transform="matrix(1.6,0,0,1.6675,187.428577,-725.251768)"/>
<path style="fill-rule:nonzero;fill:rgb(100%,100%,100%);fill-opacity:1;stroke-width:0.96;stroke-linecap:butt;stroke-linejoin:miter;stroke:rgb(0%,0%,0%);stroke-opacity:1;stroke-miterlimit:4;" d="M 193.24044 587.80091 L 188.701866 583.813841 L 188.701866 579.07949 C 190.293663 579.550348 192.078331 579.742439 192.254112 582.237286 C 192.808311 578.676566 193.806847 576.837642 195.374229 575.448493 C 196.944054 576.837642 197.942589 578.676566 198.496788 582.237286 C 198.672569 579.742439 200.457237 579.550348 202.049034 579.07949 L 202.049034 583.813841 L 197.51046 587.80091 Z M 193.24044 587.80091 " transform="matrix(1.6,0,0,1.6675,187.428577,-725.251768)"/>
<path style="fill-rule:nonzero;fill:rgb(100%,100%,100%);fill-opacity:1;stroke-width:0.96;stroke-linecap:butt;stroke-linejoin:miter;stroke:rgb(0%,0%,0%);stroke-opacity:1;stroke-miterlimit:4;" d="M 201.609581 593.090453 L 197.505577 598.766521 L 192.859581 598.766521 L 188.755577 593.090453 Z M 201.609581 593.090453 " transform="matrix(1.6,0,0,1.6675,187.428577,-725.251768)"/>
<path style="fill-rule:nonzero;fill:rgb(100%,100%,100%);fill-opacity:1;stroke-width:0.96;stroke-linecap:butt;stroke-linejoin:miter;stroke:rgb(0%,0%,0%);stroke-opacity:1;stroke-miterlimit:4;" d="M 186.389854 602.620063 C 188.443077 603.742158 189.199913 605.976978 189.41964 610.172537 L 200.969933 610.172537 C 201.189659 605.976978 201.946495 603.742158 203.999718 602.620063 Z M 186.389854 602.620063 " transform="matrix(1.6,0,0,1.6675,187.428577,-725.251768)"/>
<path style="fill-rule:nonzero;fill:rgb(100%,100%,100%);fill-opacity:1;stroke-width:0.96;stroke-linecap:butt;stroke-linejoin:bevel;stroke:rgb(0%,0%,0%);stroke-opacity:1;stroke-miterlimit:4;" d="M 204.170616 593.090453 L 204.170616 587.388616 C 202.219933 587.925067 200.957726 589.079958 200.393761 590.644801 C 200.393761 588.75434 197.903526 584.387773 195.186241 582.216202 C 192.464073 584.647799 189.929893 588.597387 189.981163 590.644801 C 189.517296 589.154921 188.154991 587.925067 186.204308 587.388616 L 186.204308 593.090453 Z M 204.170616 593.090453 " transform="matrix(1.6,0,0,1.6675,187.428577,-725.251768)"/>
<path style="fill-rule:nonzero;fill:rgb(100%,100%,100%);fill-opacity:1;stroke-width:0.96;stroke-linecap:butt;stroke-linejoin:bevel;stroke:rgb(0%,0%,0%);stroke-opacity:1;stroke-miterlimit:4;" d="M 205.039757 602.620063 L 205.039757 596.918226 C 202.903526 597.454677 201.516808 598.609568 200.901573 600.174411 C 200.901573 598.28395 198.172081 593.917383 195.193565 591.745813 C 192.207726 594.177409 189.429405 598.126997 189.485558 600.174411 C 188.977745 598.684531 187.483604 597.454677 185.347374 596.918226 L 185.347374 602.620063 Z M 205.039757 602.620063 " transform="matrix(1.6,0,0,1.6675,187.428577,-725.251768)"/>
<path style="fill-rule:nonzero;fill:rgb(100%,100%,100%);fill-opacity:1;stroke-width:0.96;stroke-linecap:butt;stroke-linejoin:bevel;stroke:rgb(0%,0%,0%);stroke-opacity:1;stroke-miterlimit:4;" d="M 207.439659 614.318901 L 207.439659 607.743283 C 204.780968 608.429658 203.128136 610.397424 202.290733 611.542945 C 202.290733 607.982226 198.269737 602.552128 195.188683 600.774111 C 192.029503 602.59898 188.089073 608.209456 188.089073 611.542945 C 187.229698 610.404452 185.598839 608.429658 182.940147 607.743283 L 182.940147 614.318901 Z M 207.439659 614.318901 " transform="matrix(1.6,0,0,1.6675,187.428577,-725.251768)"/>
<path style="fill-rule:nonzero;fill:rgb(100%,100%,100%);fill-opacity:1;stroke-width:0.96;stroke-linecap:butt;stroke-linejoin:bevel;stroke:rgb(0%,0%,0%);stroke-opacity:1;stroke-miterlimit:4;" d="M 205.999229 628.920194 L 205.999229 622.157169 C 203.653038 623.077803 202.952354 625.338391 202.212608 626.875123 C 202.503136 620.016053 198.352745 612.643957 195.188683 610.77458 C 192.027061 612.643957 187.796104 620.175348 188.167198 626.875123 C 187.407921 625.347762 186.726768 623.077803 184.380577 622.157169 L 184.380577 628.920194 Z M 205.999229 628.920194 " transform="matrix(1.6,0,0,1.6675,187.428577,-725.251768)"/>
<path style="fill-rule:nonzero;fill:rgb(100%,100%,100%);fill-opacity:1;stroke-width:0.96;stroke-linecap:butt;stroke-linejoin:miter;stroke:rgb(0%,0%,0%);stroke-opacity:1;stroke-miterlimit:4;" d="M 204.361046 639.159606 L 204.361046 632.398924 C 201.90255 632.982226 201.751183 633.888804 200.967491 635.404452 C 201.258018 631.307282 198.357628 626.633837 195.193565 624.76446 C 192.031944 626.633837 189.131554 631.307282 189.41964 635.404452 C 188.63839 633.888804 188.543175 632.982226 186.028526 632.398924 L 186.028526 639.159606 Z M 204.361046 639.159606 " transform="matrix(1.6,0,0,1.6675,187.428577,-725.251768)"/>
<path style="fill-rule:nonzero;fill:rgb(100%,100%,100%);fill-opacity:1;stroke-width:0.96;stroke-linecap:butt;stroke-linejoin:miter;stroke:rgb(0%,0%,0%);stroke-opacity:1;stroke-miterlimit:4;" d="M 98.9338 664.229883 L 98.9338 643.790884 C 98.264854 641.188279 96.055382 638.885524 94.395226 638.424036 L 94.395226 620.430689 L 98.13546 622.454677 L 102.407921 641.265584 L 102.407921 664.229883 Z M 98.9338 664.229883 " transform="matrix(1.6,0,0,1.6675,187.428577,-725.251768)"/>
<path style="fill-rule:nonzero;fill:rgb(100%,100%,100%);fill-opacity:1;stroke-width:0.96;stroke-linecap:butt;stroke-linejoin:miter;stroke:rgb(0%,0%,0%);stroke-opacity:1;stroke-miterlimit:4;" d="M 98.9338 664.309531 L 98.9338 643.790884 C 98.264854 641.188279 96.055382 638.885524 94.395226 638.424036 L 94.395226 619.182094 C 96.904991 619.182094 98.13546 622.454677 98.13546 622.454677 L 102.407921 641.265584 L 102.407921 664.152578 Z M 98.9338 664.309531 " transform="matrix(1.6,0,0,1.6675,187.428577,-725.251768)"/>
<path style="fill-rule:nonzero;fill:rgb(100%,100%,100%);fill-opacity:1;stroke-width:0.96;stroke-linecap:butt;stroke-linejoin:miter;stroke:rgb(0%,0%,0%);stroke-opacity:1;stroke-miterlimit:4;" d="M 96.275108 669.549879 C 98.006065 668.769801 100.523155 666.631026 100.523155 664.480539 L 100.523155 638.932376 L 99.339073 636.824055 L 142.859581 636.824055 L 141.162804 638.932376 L 141.162804 664.480539 C 141.162804 666.631026 142.891319 668.769801 144.622276 669.549879 Z M 96.275108 669.549879 " transform="matrix(1.6,0,0,1.6675,187.428577,-725.251768)"/>
<path style="fill-rule:nonzero;fill:rgb(100%,100%,100%);fill-opacity:1;stroke-width:0.96;stroke-linecap:butt;stroke-linejoin:miter;stroke:rgb(0%,0%,0%);stroke-opacity:1;stroke-miterlimit:4;" d="M 135.840538 669.549879 C 134.109581 668.769801 131.592491 666.631026 131.592491 664.480539 L 131.592491 640.183313 L 135.210655 636.824055 L 105.623253 636.824055 L 109.241417 640.183313 L 109.241417 664.480539 C 109.241417 666.631026 106.721886 668.769801 104.99337 669.549879 Z M 135.840538 669.549879 " transform="matrix(1.6,0,0,1.6675,187.428577,-725.251768)"/>
<path style="fill-rule:nonzero;fill:rgb(100%,100%,100%);fill-opacity:1;stroke-width:0.96;stroke-linecap:butt;stroke-linejoin:miter;stroke:rgb(0%,0%,0%);stroke-opacity:1;stroke-miterlimit:4;" d="M 131.690147 669.549879 C 129.95919 668.769801 127.442101 666.631026 127.442101 664.480539 L 127.442101 642.516521 L 129.810265 639.157263 L 111.011436 639.157263 L 113.382042 642.516521 L 113.382042 664.480539 C 113.382042 666.631026 110.862511 668.769801 109.131554 669.549879 Z M 131.690147 669.549879 " transform="matrix(1.6,0,0,1.6675,187.428577,-725.251768)"/>
<path style="fill-rule:nonzero;fill:rgb(100%,100%,100%);fill-opacity:1;stroke-width:0.96;stroke-linecap:butt;stroke-linejoin:miter;stroke:rgb(0%,0%,0%);stroke-opacity:1;stroke-miterlimit:4;" d="M 115.921104 639.159606 L 124.903038 639.159606 L 124.903038 669.552222 L 115.921104 669.552222 Z M 115.921104 639.159606 " transform="matrix(1.6,0,0,1.6675,187.428577,-725.251768)"/>
<path style="fill-rule:nonzero;fill:rgb(100%,100%,100%);fill-opacity:1;stroke-width:0.96;stroke-linecap:butt;stroke-linejoin:bevel;stroke:rgb(0%,0%,0%);stroke-opacity:1;stroke-miterlimit:4;" d="M 103.699425 647.639741 L 107.285851 647.639741 L 107.285851 664.13618 L 103.699425 664.13618 Z M 103.699425 647.639741 " transform="matrix(1.6,0,0,1.6675,187.428577,-725.251768)"/>
<path style="fill-rule:nonzero;fill:rgb(100%,100%,100%);fill-opacity:1;stroke-width:0.96;stroke-linecap:butt;stroke-linejoin:bevel;stroke:rgb(0%,0%,0%);stroke-opacity:1;stroke-miterlimit:4;" d="M 134.448936 647.639741 L 138.035362 647.639741 L 138.035362 664.13618 L 134.448936 664.13618 Z M 134.448936 647.639741 " transform="matrix(1.6,0,0,1.6675,187.428577,-725.251768)"/>
<path style="fill-rule:nonzero;fill:rgb(100%,100%,100%);fill-opacity:1;stroke-width:0.96;stroke-linecap:butt;stroke-linejoin:bevel;stroke:rgb(0%,0%,0%);stroke-opacity:1;stroke-miterlimit:4;" d="M 100.640343 619.819276 L 104.95919 619.819276 L 104.95919 636.728009 L 100.640343 636.728009 Z M 100.640343 619.819276 " transform="matrix(1.6,0,0,1.6675,187.428577,-725.251768)"/>
<path style="fill-rule:nonzero;fill:rgb(100%,100%,100%);fill-opacity:1;stroke-width:0.96;stroke-linecap:butt;stroke-linejoin:bevel;stroke:rgb(0%,0%,0%);stroke-opacity:1;stroke-miterlimit:4;" d="M 100.640343 616.640397 L 104.934776 616.640397 L 104.934776 619.779452 L 100.640343 619.779452 Z M 100.640343 616.640397 " transform="matrix(1.6,0,0,1.6675,187.428577,-725.251768)"/>
<path style="fill-rule:nonzero;fill:rgb(100%,100%,100%);fill-opacity:1;stroke-width:1.0337;stroke-linecap:butt;stroke-linejoin:bevel;stroke:rgb(0%,0%,0%);stroke-opacity:1;stroke-miterlimit:4;" d="M 136.170128 623.459643 L 142.329796 623.459643 L 142.329796 636.514834 L 136.170128 636.514834 Z M 136.170128 623.459643 " transform="matrix(1.6,0,0,1.6675,187.428577,-725.251768)"/>
<path style="fill-rule:nonzero;fill:rgb(100%,100%,100%);fill-opacity:1;stroke-width:0.96;stroke-linecap:butt;stroke-linejoin:miter;stroke:rgb(0%,0%,0%);stroke-opacity:1;stroke-miterlimit:4;" d="M 104.890831 636.599167 L 104.890831 607.65895 C 106.1213 607.65895 106.311729 611.90136 109.138878 611.90136 C 110.611046 611.90136 110.454796 610.144426 109.627159 608.71311 C 108.897179 607.445775 107.991417 605.695869 109.221886 602.434999 C 110.064171 604.929846 112.332237 605.721637 111.914757 604.156795 C 111.192101 601.467514 109.119347 601.027109 110.674522 596.854977 C 111.216515 600.333706 113.44796 600.181439 112.905968 598.157451 C 112.295616 595.878121 111.033409 594.943433 112.591026 591.729415 C 113.462608 595.379152 114.641808 595.165978 114.641808 592.900704 C 114.641808 589.553159 114.514854 585.943245 118.845909 584.605633 C 118.845909 584.605633 119.094933 581.536855 120.657433 581.536855 C 122.219933 581.536855 122.468956 584.605633 122.468956 584.605633 C 126.800011 585.945588 126.673058 589.553159 126.673058 592.900704 C 126.673058 595.165978 127.852257 595.379152 128.723839 591.729415 C 130.281456 594.943433 129.019249 595.878121 128.408897 598.157451 C 127.866905 600.181439 130.098351 600.333706 130.640343 596.854977 C 132.195518 601.027109 130.122765 601.467514 129.400108 604.156795 C 128.982628 605.721637 131.250694 604.929846 132.092979 602.434999 C 133.323448 605.695869 132.417686 607.445775 131.687706 608.71311 C 130.860069 610.144426 130.703819 611.90136 132.175987 611.90136 C 135.003136 611.90136 135.193565 607.65895 136.424034 607.65895 L 136.424034 636.599167 Z M 104.890831 636.599167 " transform="matrix(1.6,0,0,1.6675,187.428577,-725.251768)"/>
<path style="fill-rule:nonzero;fill:rgb(100%,100%,100%);fill-opacity:1;stroke-width:0.96;stroke-linecap:butt;stroke-linejoin:miter;stroke:rgb(0%,0%,0%);stroke-opacity:1;stroke-miterlimit:4;" d="M 98.123253 614.740565 L 98.123253 636.81937 L 100.63546 636.81937 L 100.63546 614.684343 C 99.729698 614.227541 98.880089 614.157263 98.123253 614.740565 Z M 98.123253 614.740565 " transform="matrix(1.6,0,0,1.6675,187.428577,-725.251768)"/>
<path style="fill-rule:nonzero;fill:rgb(100%,100%,100%);fill-opacity:1;stroke-width:0.96;stroke-linecap:butt;stroke-linejoin:miter;stroke:rgb(0%,0%,0%);stroke-opacity:1;stroke-miterlimit:4;" d="M 98.203819 629.030295 C 101.316612 630.620906 104.397667 632.462173 105.178917 636.824055 L 98.203819 636.824055 Z M 98.203819 629.030295 " transform="matrix(1.6,0,0,1.6675,187.428577,-725.251768)"/>
<path style="fill-rule:nonzero;fill:rgb(100%,100%,100%);fill-opacity:1;stroke-width:0.96;stroke-linecap:butt;stroke-linejoin:miter;stroke:rgb(0%,0%,0%);stroke-opacity:1;stroke-miterlimit:4;" d="M 141.370323 622.419538 L 141.370323 636.826397 L 143.406456 636.826397 L 143.406456 622.3844 C 142.769249 622.086892 141.90255 622.040041 141.370323 622.419538 Z M 141.370323 622.419538 " transform="matrix(1.6,0,0,1.6675,187.428577,-725.251768)"/>
<path style="fill-rule:nonzero;fill:rgb(100%,100%,100%);fill-opacity:1;stroke-width:0.96;stroke-linecap:butt;stroke-linejoin:miter;stroke:rgb(0%,0%,0%);stroke-opacity:1;stroke-miterlimit:4;" d="M 143.408897 628.920194 C 140.298546 630.510805 137.21505 632.352072 136.4338 636.713954 L 143.408897 636.713954 Z M 143.408897 628.920194 " transform="matrix(1.6,0,0,1.6675,187.428577,-725.251768)"/>
<path style="fill-rule:nonzero;fill:rgb(100%,100%,100%);fill-opacity:1;stroke-width:0.96;stroke-linecap:butt;stroke-linejoin:miter;stroke:rgb(0%,0%,0%);stroke-opacity:1;stroke-miterlimit:4;" d="M 122.830284 595.269051 L 124.644249 593.746375 L 124.644249 591.792664 C 123.980186 591.855914 123.618858 592.085487 123.128136 592.727353 C 122.710655 591.43425 121.795128 590.422256 120.564659 589.794445 C 119.336632 590.422256 118.421104 591.387398 118.003624 592.682844 C 117.512901 592.038635 117.151573 591.855914 116.487511 591.792664 L 116.487511 593.746375 L 118.301476 595.269051 Z M 122.830284 595.269051 " transform="matrix(1.6,0,0,1.6675,187.428577,-725.251768)"/>
<path style="fill-rule:nonzero;fill:rgb(100%,100%,100%);fill-opacity:1;stroke-width:0.96;stroke-linecap:butt;stroke-linejoin:miter;stroke:rgb(0%,0%,0%);stroke-opacity:1;stroke-miterlimit:4;" d="M 123.799522 600.160355 L 124.644249 598.335487 L 124.644249 595.796131 C 123.980186 595.861723 123.616417 596.093639 123.128136 596.744876 C 122.710655 595.433032 121.792686 594.406982 120.564659 593.769801 C 119.336632 594.406982 118.418663 595.38618 118.001183 596.698024 C 117.512901 596.046787 117.149132 595.861723 116.487511 595.796131 L 116.487511 598.335487 L 117.329796 600.160355 Z M 123.799522 600.160355 " transform="matrix(1.6,0,0,1.6675,187.428577,-725.251768)"/>
<path style="fill-rule:nonzero;fill:rgb(100%,100%,100%);fill-opacity:1;stroke-width:0.96;stroke-linecap:butt;stroke-linejoin:miter;stroke:rgb(0%,0%,0%);stroke-opacity:1;stroke-miterlimit:4;" d="M 123.928917 606.789853 L 126.624229 603.503215 L 126.624229 600.261086 C 125.637901 600.371187 125.100792 600.762398 124.373253 601.865753 C 123.753136 599.642645 122.390831 599.157732 120.567101 598.080145 C 118.740929 599.157732 117.378624 599.56534 116.760948 601.788448 C 116.033409 600.685093 115.493858 600.371187 114.50753 600.261086 L 114.50753 603.503215 L 117.202843 606.789853 Z M 123.928917 606.789853 " transform="matrix(1.6,0,0,1.6675,187.428577,-725.251768)"/>
<path style="fill-rule:nonzero;fill:rgb(100%,100%,100%);fill-opacity:1;stroke-width:0.96;stroke-linecap:butt;stroke-linejoin:miter;stroke:rgb(0%,0%,0%);stroke-opacity:1;stroke-miterlimit:4;" d="M 124.719933 613.299879 C 124.719933 613.299879 127.859581 610.561405 128.047569 609.057469 L 128.047569 605.58811 C 126.829308 605.731008 125.679405 606.047256 124.778526 607.471544 C 124.014366 604.601885 122.820518 603.803065 120.567101 602.409231 C 118.313683 603.800723 117.119835 604.601885 116.355675 607.471544 C 115.457237 606.047256 114.307335 605.731008 113.089073 605.58811 L 113.089073 609.057469 C 113.484581 610.561405 116.41671 613.299879 116.41671 613.299879 Z M 124.719933 613.299879 " transform="matrix(1.6,0,0,1.6675,187.428577,-725.251768)"/>
<path style="fill-rule:nonzero;fill:rgb(100%,100%,100%);fill-opacity:1;stroke-width:0.96;stroke-linecap:butt;stroke-linejoin:miter;stroke:rgb(0%,0%,0%);stroke-opacity:1;stroke-miterlimit:4;" d="M 126.060265 625.319651 C 126.060265 625.319651 130.362022 620.559531 130.459679 618.704208 L 130.459679 613.297537 C 128.850792 613.520082 127.327354 614.628121 126.13839 616.848886 C 125.127647 612.374561 123.548058 609.254246 120.569542 607.085018 C 117.588585 609.254246 116.008995 612.374561 114.998253 616.848886 C 113.809288 614.628121 112.288292 613.520082 110.676964 613.297537 L 110.676964 618.704208 C 110.987022 620.559531 115.076378 625.319651 115.076378 625.319651 Z M 126.060265 625.319651 " transform="matrix(1.6,0,0,1.6675,187.428577,-725.251768)"/>
<path style="fill-rule:nonzero;fill:rgb(100%,100%,100%);fill-opacity:1;stroke-width:0.96;stroke-linecap:butt;stroke-linejoin:miter;stroke:rgb(0%,0%,0%);stroke-opacity:1;stroke-miterlimit:4;" d="M 126.060265 632.429377 C 126.060265 632.429377 129.737022 628.688279 130.459679 627.062529 L 130.459679 621.6582 C 128.850792 621.880745 127.327354 622.986442 126.13839 625.20955 C 125.127647 620.735224 123.548058 618.172443 120.569542 616.003215 C 117.588585 618.172443 116.008995 620.735224 114.998253 625.20955 C 113.809288 622.986442 112.288292 621.880745 110.676964 621.6582 L 110.676964 627.062529 C 111.612022 628.688279 115.076378 632.429377 115.076378 632.429377 Z M 126.060265 632.429377 " transform="matrix(1.6,0,0,1.6675,187.428577,-725.251768)"/>
<path style="fill-rule:nonzero;fill:rgb(100%,100%,100%);fill-opacity:1;stroke-width:0.96;stroke-linecap:butt;stroke-linejoin:miter;stroke:rgb(0%,0%,0%);stroke-opacity:1;stroke-miterlimit:4;" d="M 127.539757 636.559343 C 126.465538 631.892927 125.545128 628.430595 120.376671 624.91907 C 115.210655 628.428253 114.287804 631.892927 113.213585 636.559343 Z M 127.539757 636.559343 " transform="matrix(1.6,0,0,1.6675,187.428577,-725.251768)"/>
<path style="fill-rule:nonzero;fill:rgb(100%,100%,100%);fill-opacity:1;stroke-width:0.96;stroke-linecap:butt;stroke-linejoin:miter;stroke:rgb(0%,0%,0%);stroke-opacity:1;stroke-miterlimit:4;" d="M 130.20089 639.159606 L 130.20089 632.398924 C 127.854698 633.317214 125.733116 634.678253 124.951866 636.193901 C 124.077843 632.438747 122.393272 630.784887 120.298546 628.514928 C 118.201378 630.784887 116.797569 632.438747 115.923546 636.193901 C 115.142296 634.678253 113.020714 633.317214 110.674522 632.398924 L 110.674522 639.159606 Z M 130.20089 639.159606 " transform="matrix(1.6,0,0,1.6675,187.428577,-725.251768)"/>
<path style="fill-rule:nonzero;fill:rgb(100%,100%,100%);fill-opacity:1;stroke-width:0.96;stroke-linecap:butt;stroke-linejoin:miter;stroke:rgb(0%,0%,0%);stroke-opacity:1;stroke-miterlimit:4;" d="M 98.934883 664.229883 L 98.934883 643.790884 C 98.265938 641.188279 96.056465 638.885524 94.393867 638.424036 L 94.393867 620.430689 L 98.136543 622.454677 L 102.406563 641.265584 L 102.406563 664.229883 Z M 98.934883 664.229883 " transform="matrix(-1.6,0,0,1.6675,812.612219,-725.251768)"/>
<path style="fill-rule:nonzero;fill:rgb(100%,100%,100%);fill-opacity:1;stroke-width:0.96;stroke-linecap:butt;stroke-linejoin:miter;stroke:rgb(0%,0%,0%);stroke-opacity:1;stroke-miterlimit:4;" d="M 98.934883 664.309531 L 98.934883 643.790884 C 98.265938 641.188279 96.056465 638.885524 94.393867 638.424036 L 94.393867 619.182094 C 96.906075 619.182094 98.136543 622.454677 98.136543 622.454677 L 102.406563 641.265584 L 102.406563 664.152578 Z M 98.934883 664.309531 " transform="matrix(-1.6,0,0,1.6675,812.612219,-725.251768)"/>
<path style="fill-rule:nonzero;fill:rgb(100%,100%,100%);fill-opacity:1;stroke-width:0.96;stroke-linecap:butt;stroke-linejoin:miter;stroke:rgb(0%,0%,0%);stroke-opacity:1;stroke-miterlimit:4;" d="M 96.276192 669.549879 C 98.004707 668.769801 100.524239 666.631026 100.524239 664.480539 L 100.524239 638.932376 L 99.337715 636.824055 L 142.860664 636.824055 L 141.161446 638.932376 L 141.161446 664.480539 C 141.161446 666.631026 142.892403 668.769801 144.620918 669.549879 Z M 96.276192 669.549879 " transform="matrix(-1.6,0,0,1.6675,812.612219,-725.251768)"/>
<path style="fill-rule:nonzero;fill:rgb(100%,100%,100%);fill-opacity:1;stroke-width:0.96;stroke-linecap:butt;stroke-linejoin:miter;stroke:rgb(0%,0%,0%);stroke-opacity:1;stroke-miterlimit:4;" d="M 135.83918 669.549879 C 134.110664 668.769801 131.591133 666.631026 131.591133 664.480539 L 131.591133 640.183313 L 135.209297 636.824055 L 105.621895 636.824055 L 109.2425 640.183313 L 109.2425 664.480539 C 109.2425 666.631026 106.722969 668.769801 104.992012 669.549879 Z M 135.83918 669.549879 " transform="matrix(-1.6,0,0,1.6675,812.612219,-725.251768)"/>
<path style="fill-rule:nonzero;fill:rgb(100%,100%,100%);fill-opacity:1;stroke-width:0.96;stroke-linecap:butt;stroke-linejoin:miter;stroke:rgb(0%,0%,0%);stroke-opacity:1;stroke-miterlimit:4;" d="M 131.688789 669.549879 C 129.960274 668.769801 127.440742 666.631026 127.440742 664.480539 L 127.440742 642.516521 L 129.811348 639.157263 L 111.01252 639.157263 L 113.380684 642.516521 L 113.380684 664.480539 C 113.380684 666.631026 110.861153 668.769801 109.132637 669.549879 Z M 131.688789 669.549879 " transform="matrix(-1.6,0,0,1.6675,812.612219,-725.251768)"/>
<path style="fill-rule:nonzero;fill:rgb(100%,100%,100%);fill-opacity:1;stroke-width:0.96;stroke-linecap:butt;stroke-linejoin:miter;stroke:rgb(0%,0%,0%);stroke-opacity:1;stroke-miterlimit:4;" d="M 115.919746 639.159606 L 124.90168 639.159606 L 124.90168 669.552222 L 115.919746 669.552222 Z M 115.919746 639.159606 " transform="matrix(-1.6,0,0,1.6675,812.612219,-725.251768)"/>
<path style="fill-rule:nonzero;fill:rgb(100%,100%,100%);fill-opacity:1;stroke-width:0.96;stroke-linecap:butt;stroke-linejoin:bevel;stroke:rgb(0%,0%,0%);stroke-opacity:1;stroke-miterlimit:4;" d="M 103.700508 647.639741 L 107.286934 647.639741 L 107.286934 664.13618 L 103.700508 664.13618 Z M 103.700508 647.639741 " transform="matrix(-1.6,0,0,1.6675,812.612219,-725.251768)"/>
<path style="fill-rule:nonzero;fill:rgb(100%,100%,100%);fill-opacity:1;stroke-width:0.96;stroke-linecap:butt;stroke-linejoin:bevel;stroke:rgb(0%,0%,0%);stroke-opacity:1;stroke-miterlimit:4;" d="M 134.45002 647.639741 L 138.036446 647.639741 L 138.036446 664.13618 L 134.45002 664.13618 Z M 134.45002 647.639741 " transform="matrix(-1.6,0,0,1.6675,812.612219,-725.251768)"/>
<path style="fill-rule:nonzero;fill:rgb(100%,100%,100%);fill-opacity:1;stroke-width:0.96;stroke-linecap:butt;stroke-linejoin:bevel;stroke:rgb(0%,0%,0%);stroke-opacity:1;stroke-miterlimit:4;" d="M 100.638985 619.819276 L 104.960274 619.819276 L 104.960274 636.728009 L 100.638985 636.728009 Z M 100.638985 619.819276 " transform="matrix(-1.6,0,0,1.6675,812.612219,-725.251768)"/>
<path style="fill-rule:nonzero;fill:rgb(100%,100%,100%);fill-opacity:1;stroke-width:0.96;stroke-linecap:butt;stroke-linejoin:bevel;stroke:rgb(0%,0%,0%);stroke-opacity:1;stroke-miterlimit:4;" d="M 100.638985 616.640397 L 104.933418 616.640397 L 104.933418 619.779452 L 100.638985 619.779452 Z M 100.638985 616.640397 " transform="matrix(-1.6,0,0,1.6675,812.612219,-725.251768)"/>
<path style="fill-rule:nonzero;fill:rgb(100%,100%,100%);fill-opacity:1;stroke-width:1.0337;stroke-linecap:butt;stroke-linejoin:bevel;stroke:rgb(0%,0%,0%);stroke-opacity:1;stroke-miterlimit:4;" d="M 136.171211 623.459643 L 142.328438 623.459643 L 142.328438 636.514834 L 136.171211 636.514834 Z M 136.171211 623.459643 " transform="matrix(-1.6,0,0,1.6675,812.612219,-725.251768)"/>
<path style="fill-rule:nonzero;fill:rgb(100%,100%,100%);fill-opacity:1;stroke-width:0.96;stroke-linecap:butt;stroke-linejoin:miter;stroke:rgb(0%,0%,0%);stroke-opacity:1;stroke-miterlimit:4;" d="M 104.889473 636.599167 L 104.889473 607.65895 C 106.122383 607.65895 106.312813 611.90136 109.139961 611.90136 C 110.609688 611.90136 110.453438 610.144426 109.628242 608.71311 C 108.895821 607.445775 107.990059 605.695869 109.220528 602.434999 C 110.062813 604.929846 112.333321 605.721637 111.913399 604.156795 C 111.193184 601.467514 109.117989 601.027109 110.675606 596.854977 C 111.215157 600.333706 113.449043 600.181439 112.907051 598.157451 C 112.294258 595.878121 111.032051 594.943433 112.589668 591.729415 C 113.463692 595.379152 114.642891 595.165978 114.642891 592.900704 C 114.642891 589.553159 114.513496 585.943245 118.844551 584.605633 C 118.844551 584.605633 119.096016 581.536855 120.658516 581.536855 C 122.218575 581.536855 122.470039 584.605633 122.470039 584.605633 C 126.801094 585.945588 126.6717 589.553159 126.6717 592.900704 C 126.6717 595.165978 127.85334 595.379152 128.724922 591.729415 C 130.282539 594.943433 129.020332 595.878121 128.407539 598.157451 C 127.865547 600.181439 130.099434 600.333706 130.638985 596.854977 C 132.196602 601.027109 130.121407 601.467514 129.401192 604.156795 C 128.98127 605.721637 131.251778 604.929846 132.094063 602.434999 C 133.324532 605.695869 132.41877 607.445775 131.686348 608.71311 C 130.861153 610.144426 130.704903 611.90136 132.174629 611.90136 C 135.001778 611.90136 135.192207 607.65895 136.425117 607.65895 L 136.425117 636.599167 Z M 104.889473 636.599167 " transform="matrix(-1.6,0,0,1.6675,812.612219,-725.251768)"/>
<path style="fill-rule:nonzero;fill:rgb(100%,100%,100%);fill-opacity:1;stroke-width:0.96;stroke-linecap:butt;stroke-linejoin:miter;stroke:rgb(0%,0%,0%);stroke-opacity:1;stroke-miterlimit:4;" d="M 98.124336 614.740565 L 98.124336 636.81937 L 100.634102 636.81937 L 100.634102 614.684343 C 99.730782 614.227541 98.881172 614.157263 98.124336 614.740565 Z M 98.124336 614.740565 " transform="matrix(-1.6,0,0,1.6675,812.612219,-725.251768)"/>
<path style="fill-rule:nonzero;fill:rgb(100%,100%,100%);fill-opacity:1;stroke-width:0.96;stroke-linecap:butt;stroke-linejoin:miter;stroke:rgb(0%,0%,0%);stroke-opacity:1;stroke-miterlimit:4;" d="M 98.202461 629.030295 C 101.315254 630.620906 104.39875 632.462173 105.177559 636.824055 L 98.202461 636.824055 Z M 98.202461 629.030295 " transform="matrix(-1.6,0,0,1.6675,812.612219,-725.251768)"/>
<path style="fill-rule:nonzero;fill:rgb(100%,100%,100%);fill-opacity:1;stroke-width:0.96;stroke-linecap:butt;stroke-linejoin:miter;stroke:rgb(0%,0%,0%);stroke-opacity:1;stroke-miterlimit:4;" d="M 141.368965 622.419538 L 141.368965 636.826397 L 143.405098 636.826397 L 143.405098 622.3844 C 142.770332 622.086892 141.901192 622.040041 141.368965 622.419538 Z M 141.368965 622.419538 " transform="matrix(-1.6,0,0,1.6675,812.612219,-725.251768)"/>
<path style="fill-rule:nonzero;fill:rgb(100%,100%,100%);fill-opacity:1;stroke-width:0.96;stroke-linecap:butt;stroke-linejoin:miter;stroke:rgb(0%,0%,0%);stroke-opacity:1;stroke-miterlimit:4;" d="M 143.409981 628.920194 C 140.297188 630.510805 137.216133 632.352072 136.434883 636.713954 L 143.409981 636.713954 Z M 143.409981 628.920194 " transform="matrix(-1.6,0,0,1.6675,812.612219,-725.251768)"/>
<path style="fill-rule:nonzero;fill:rgb(100%,100%,100%);fill-opacity:1;stroke-width:0.96;stroke-linecap:butt;stroke-linejoin:miter;stroke:rgb(0%,0%,0%);stroke-opacity:1;stroke-miterlimit:4;" d="M 122.828926 595.269051 L 124.645332 593.746375 L 124.645332 591.792664 C 123.98127 591.855914 123.6175 592.085487 123.129219 592.727353 C 122.711739 591.43425 121.79377 590.422256 120.565742 589.794445 C 119.337715 590.422256 118.419746 591.387398 118.002266 592.682844 C 117.513985 592.038635 117.150215 591.855914 116.488594 591.792664 L 116.488594 593.746375 L 118.302559 595.269051 Z M 122.828926 595.269051 " transform="matrix(-1.6,0,0,1.6675,812.612219,-725.251768)"/>
<path style="fill-rule:nonzero;fill:rgb(100%,100%,100%);fill-opacity:1;stroke-width:0.96;stroke-linecap:butt;stroke-linejoin:miter;stroke:rgb(0%,0%,0%);stroke-opacity:1;stroke-miterlimit:4;" d="M 123.800606 600.160355 L 124.642891 598.335487 L 124.642891 595.796131 C 123.978828 595.861723 123.6175 596.093639 123.126778 596.744876 C 122.709297 595.433032 121.79377 594.406982 120.565742 593.769801 C 119.335274 594.406982 118.419746 595.38618 118.002266 596.698024 C 117.511543 596.046787 117.150215 595.861723 116.486153 595.796131 L 116.486153 598.335487 L 117.328438 600.160355 Z M 123.800606 600.160355 " transform="matrix(-1.6,0,0,1.6675,812.612219,-725.251768)"/>
<path style="fill-rule:nonzero;fill:rgb(100%,100%,100%);fill-opacity:1;stroke-width:0.96;stroke-linecap:butt;stroke-linejoin:miter;stroke:rgb(0%,0%,0%);stroke-opacity:1;stroke-miterlimit:4;" d="M 123.93 606.789853 L 126.625313 603.503215 L 126.625313 600.261086 C 125.638985 600.371187 125.101875 600.762398 124.371895 601.865753 C 123.754219 599.642645 122.391914 599.157732 120.565742 598.080145 C 118.742012 599.157732 117.379707 599.56534 116.75959 601.788448 C 116.032051 600.685093 115.494942 600.371187 114.508614 600.261086 L 114.508614 603.503215 L 117.203926 606.789853 Z M 123.93 606.789853 " transform="matrix(-1.6,0,0,1.6675,812.612219,-725.251768)"/>
<path style="fill-rule:nonzero;fill:rgb(100%,100%,100%);fill-opacity:1;stroke-width:0.96;stroke-linecap:butt;stroke-linejoin:miter;stroke:rgb(0%,0%,0%);stroke-opacity:1;stroke-miterlimit:4;" d="M 124.721016 613.299879 C 124.721016 613.299879 127.860664 610.561405 128.046211 609.057469 L 128.046211 605.58811 C 126.830391 605.731008 125.678047 606.047256 124.77961 607.471544 C 124.01545 604.601885 122.821602 603.803065 120.568184 602.409231 C 118.314766 603.800723 117.120918 604.601885 116.356758 607.471544 C 115.458321 606.047256 114.305977 605.731008 113.090157 605.58811 L 113.090157 609.057469 C 113.485664 610.561405 116.415352 613.299879 116.415352 613.299879 Z M 124.721016 613.299879 " transform="matrix(-1.6,0,0,1.6675,812.612219,-725.251768)"/>
<path style="fill-rule:nonzero;fill:rgb(100%,100%,100%);fill-opacity:1;stroke-width:0.96;stroke-linecap:butt;stroke-linejoin:miter;stroke:rgb(0%,0%,0%);stroke-opacity:1;stroke-miterlimit:4;" d="M 126.058907 625.319651 C 126.058907 625.319651 130.360664 620.559531 130.460762 618.704208 L 130.460762 613.297537 C 128.849434 613.520082 127.328438 614.628121 126.139473 616.848886 C 125.128731 612.374561 123.549141 609.254246 120.568184 607.085018 C 117.589668 609.254246 116.010078 612.374561 114.999336 616.848886 C 113.810371 614.628121 112.286934 613.520082 110.678047 613.297537 L 110.678047 618.704208 C 110.985664 620.559531 115.077461 625.319651 115.077461 625.319651 Z M 126.058907 625.319651 " transform="matrix(-1.6,0,0,1.6675,812.612219,-725.251768)"/>
<path style="fill-rule:nonzero;fill:rgb(100%,100%,100%);fill-opacity:1;stroke-width:0.96;stroke-linecap:butt;stroke-linejoin:miter;stroke:rgb(0%,0%,0%);stroke-opacity:1;stroke-miterlimit:4;" d="M 126.058907 632.429377 C 126.058907 632.429377 129.735664 628.688279 130.460762 627.062529 L 130.460762 621.6582 C 128.849434 621.880745 127.328438 622.986442 126.139473 625.20955 C 125.128731 620.735224 123.549141 618.172443 120.568184 616.003215 C 117.589668 618.172443 116.010078 620.735224 114.999336 625.20955 C 113.810371 622.986442 112.286934 621.880745 110.678047 621.6582 L 110.678047 627.062529 C 111.610664 628.688279 115.077461 632.429377 115.077461 632.429377 Z M 126.058907 632.429377 " transform="matrix(-1.6,0,0,1.6675,812.612219,-725.251768)"/>
<path style="fill-rule:nonzero;fill:rgb(100%,100%,100%);fill-opacity:1;stroke-width:0.96;stroke-linecap:butt;stroke-linejoin:miter;stroke:rgb(0%,0%,0%);stroke-opacity:1;stroke-miterlimit:4;" d="M 127.54084 636.559343 C 126.466621 631.892927 125.54377 628.430595 120.377754 624.91907 C 115.209297 628.428253 114.286446 631.892927 113.214668 636.559343 Z M 127.54084 636.559343 " transform="matrix(-1.6,0,0,1.6675,812.612219,-725.251768)"/>
<path style="fill-rule:nonzero;fill:rgb(100%,100%,100%);fill-opacity:1;stroke-width:0.96;stroke-linecap:butt;stroke-linejoin:miter;stroke:rgb(0%,0%,0%);stroke-opacity:1;stroke-miterlimit:4;" d="M 130.199532 639.159606 L 130.199532 632.398924 C 127.85334 633.317214 125.7342 634.678253 124.950508 636.193901 C 124.076485 632.438747 122.394356 630.784887 120.297188 628.514928 C 118.20002 630.784887 116.796211 632.438747 115.922188 636.193901 C 115.140938 634.678253 113.021797 633.317214 110.673164 632.398924 L 110.675606 639.159606 Z M 130.199532 639.159606 " transform="matrix(-1.6,0,0,1.6675,812.612219,-725.251768)"/>
<path style="fill-rule:nonzero;fill:rgb(100%,100%,100%);fill-opacity:1;stroke-width:0.96;stroke-linecap:butt;stroke-linejoin:miter;stroke:rgb(0%,0%,0%);stroke-opacity:1;stroke-miterlimit:4;" d="M 72.693565 694.250029 L 318.023155 694.250029 L 318.023155 706.780483 L 72.693565 706.780483 Z M 72.693565 694.250029 " transform="matrix(1.6,0,0,1.6675,187.428577,-725.251768)"/>
<path style="fill-rule:nonzero;fill:rgb(100%,100%,100%);fill-opacity:1;stroke-width:0.96;stroke-linecap:butt;stroke-linejoin:miter;stroke:rgb(0%,0%,0%);stroke-opacity:1;stroke-miterlimit:4;" d="M 66.228722 706.7594 L 324.487999 706.7594 L 324.487999 719.271112 L 66.228722 719.271112 Z M 66.228722 706.7594 " transform="matrix(1.6,0,0,1.6675,187.428577,-725.251768)"/>
<path style="fill-rule:nonzero;fill:rgb(100%,100%,100%);fill-opacity:1;stroke-width:0.96;stroke-linecap:butt;stroke-linejoin:miter;stroke:rgb(0%,0%,0%);stroke-opacity:1;stroke-miterlimit:4;" d="M 85.576866 675.5094 L 305.134972 675.5094 L 305.134972 683.619407 L 85.576866 683.619407 Z M 85.576866 675.5094 " transform="matrix(1.6,0,0,1.6675,187.428577,-725.251768)"/>
<path style="fill-rule:nonzero;fill:rgb(100%,100%,100%);fill-opacity:1;stroke-width:0.96;stroke-linecap:butt;stroke-linejoin:miter;stroke:rgb(0%,0%,0%);stroke-opacity:1;stroke-miterlimit:4;" d="M 79.155968 683.560843 L 311.55587 683.560843 L 311.558311 694.182094 L 79.155968 694.182094 Z M 79.155968 683.560843 " transform="matrix(1.6,0,0,1.6675,187.428577,-725.251768)"/>
<path style="fill-rule:nonzero;fill:rgb(100%,100%,100%);fill-opacity:1;stroke-width:0.96;stroke-linecap:butt;stroke-linejoin:miter;stroke:rgb(0%,0%,0%);stroke-opacity:1;stroke-miterlimit:4;" d="M 89.412315 669.280483 L 301.301964 669.280483 L 301.301964 675.453178 L 89.412315 675.453178 Z M 89.412315 669.280483 " transform="matrix(1.6,0,0,1.6675,187.428577,-725.251768)"/>
<path style="fill-rule:nonzero;fill:rgb(100%,100%,100%);fill-opacity:1;stroke-width:1.0446;stroke-linecap:butt;stroke-linejoin:miter;stroke:rgb(0%,0%,0%);stroke-opacity:1;stroke-miterlimit:4;" d="M 112.410362 669.310936 L 128.41378 669.310936 L 128.41378 719.245344 L 112.410362 719.245344 Z M 112.410362 669.310936 " transform="matrix(1.6,0,0,1.6675,187.428577,-725.251768)"/>
<path style="fill-rule:nonzero;fill:rgb(100%,100%,100%);fill-opacity:1;stroke-width:1.0429;stroke-linecap:butt;stroke-linejoin:miter;stroke:rgb(0%,0%,0%);stroke-opacity:1;stroke-miterlimit:4;" d="M 115.950401 669.310936 L 124.866417 669.310936 L 124.866417 719.245344 L 115.950401 719.245344 Z M 115.950401 669.310936 " transform="matrix(1.6,0,0,1.6675,187.428577,-725.251768)"/>
<path style="fill-rule:nonzero;fill:rgb(100%,100%,100%);fill-opacity:1;stroke-width:1.0446;stroke-linecap:butt;stroke-linejoin:miter;stroke:rgb(0%,0%,0%);stroke-opacity:1;stroke-miterlimit:4;" d="M 187.080772 669.310936 L 203.086632 669.310936 L 203.086632 719.245344 L 187.080772 719.245344 Z M 187.080772 669.310936 " transform="matrix(1.6,0,0,1.6675,187.428577,-725.251768)"/>
<path style="fill-rule:nonzero;fill:rgb(100%,100%,100%);fill-opacity:1;stroke-width:1.0429;stroke-linecap:butt;stroke-linejoin:miter;stroke:rgb(0%,0%,0%);stroke-opacity:1;stroke-miterlimit:4;" d="M 190.730675 669.310936 L 199.64669 669.310936 L 199.64669 719.245344 L 190.730675 719.245344 Z M 190.730675 669.310936 " transform="matrix(1.6,0,0,1.6675,187.428577,-725.251768)"/>
<path style="fill-rule:nonzero;fill:rgb(100%,100%,100%);fill-opacity:1;stroke-width:1.0446;stroke-linecap:butt;stroke-linejoin:miter;stroke:rgb(0%,0%,0%);stroke-opacity:1;stroke-miterlimit:4;" d="M 262.190636 669.310936 L 278.194054 669.310936 L 278.194054 719.245344 L 262.190636 719.245344 Z M 262.190636 669.310936 " transform="matrix(1.6,0,0,1.6675,187.428577,-725.251768)"/>
<path style="fill-rule:nonzero;fill:rgb(100%,100%,100%);fill-opacity:1;stroke-width:1.0429;stroke-linecap:butt;stroke-linejoin:miter;stroke:rgb(0%,0%,0%);stroke-opacity:1;stroke-miterlimit:4;" d="M 265.730675 669.310936 L 274.64669 669.310936 L 274.64669 719.245344 L 265.730675 719.245344 Z M 265.730675 669.310936 " transform="matrix(1.6,0,0,1.6675,187.428577,-725.251768)"/>
<path style="fill:none;stroke-width:0.96;stroke-linecap:butt;stroke-linejoin:miter;stroke:rgb(0%,0%,0%);stroke-opacity:1;stroke-miterlimit:4;" d="M 98.9338 664.229883 L 292.005089 664.229883 " transform="matrix(1.6,0,0,1.6675,187.428577,-725.251768)"/>
<path style="fill:none;stroke-width:0.96;stroke-linecap:butt;stroke-linejoin:miter;stroke:rgb(0%,0%,0%);stroke-opacity:1;stroke-miterlimit:4;" d="M 115.789268 712.969576 L 125.034874 712.969576 M 115.789268 706.719576 L 125.034874 706.719576 M 115.789268 700.469576 L 125.034874 700.469576 M 115.789268 694.219576 L 125.034874 694.219576 M 115.789268 687.969576 L 125.034874 687.969576 M 115.789268 681.719576 L 125.034874 681.719576 M 115.789268 675.469576 L 125.034874 675.469576 " transform="matrix(1.6,0,0,1.6675,187.428577,-725.251768)"/>
<path style="fill:none;stroke-width:0.96;stroke-linecap:butt;stroke-linejoin:miter;stroke:rgb(0%,0%,0%);stroke-opacity:1;stroke-miterlimit:4;" d="M 190.769737 712.978946 L 199.378136 712.978946 M 190.769737 706.726603 L 199.378136 706.726603 M 190.769737 700.474261 L 199.378136 700.474261 M 190.769737 694.219576 L 199.378136 694.219576 M 190.769737 687.967233 L 199.378136 687.967233 M 190.769737 681.712548 L 199.378136 681.712548 M 190.769737 675.460205 L 199.378136 675.460205 " transform="matrix(1.6,0,0,1.6675,187.428577,-725.251768)"/>
<path style="fill:none;stroke-width:0.96;stroke-linecap:butt;stroke-linejoin:miter;stroke:rgb(0%,0%,0%);stroke-opacity:1;stroke-miterlimit:4;" d="M 265.569542 712.969576 L 274.812706 712.969576 M 265.569542 706.719576 L 274.812706 706.719576 M 265.569542 700.469576 L 274.812706 700.469576 M 265.569542 694.219576 L 274.812706 694.219576 M 265.569542 687.969576 L 274.812706 687.969576 M 265.569542 681.719576 L 274.812706 681.719576 M 265.569542 675.469576 L 274.812706 675.469576 " transform="matrix(1.6,0,0,1.6675,187.428577,-725.251768)"/>
</g>
</svg>
