<?xml version="1.0" encoding="UTF-8"?>
<svg xmlns="http://www.w3.org/2000/svg" xmlns:xlink="http://www.w3.org/1999/xlink" width="1000px" height="667px" viewBox="0 0 1000 667" version="1.1">
<g id="surface1">
<rect x="0" y="0" width="1000" height="667" style="fill:rgb(100%,100%,100%);fill-opacity:1;stroke:none;"/>
<path style="fill-rule:nonzero;fill:rgb(0%,0%,0%);fill-opacity:1;stroke-width:2;stroke-linecap:butt;stroke-linejoin:miter;stroke:rgb(0%,0%,0%);stroke-opacity:1;stroke-miterlimit:4;" d="M -6.000041 -25.000085 L 6.000029 -25.000187 M -5.999976 -21.999861 L 6.000094 -21.999964 M -6.000067 -18.999871 L 6.000002 -18.999974 " transform="matrix(7.704155,-11.562041,11.556263,7.708008,500,333.5)"/>
<path style="fill-rule:nonzero;fill:rgb(0%,0%,0%);fill-opacity:1;stroke-width:2;stroke-linecap:butt;stroke-linejoin:miter;stroke:rgb(0%,0%,0%);stroke-opacity:1;stroke-miterlimit:4;" d="M -6.000002 -25.000026 L 6.000067 -25.000129 M -6.000094 -22.000036 L 5.999976 -22.000139 M -6.000029 -18.999813 L 6.000041 -18.999915 " transform="matrix(7.704155,-11.562041,11.556263,7.708008,1008.475588,672.652333)"/>
<path style="fill-rule:nonzero;fill:rgb(0%,0%,0%);fill-opacity:1;stroke-width:1;stroke-linecap:butt;stroke-linejoin:miter;stroke:rgb(100%,100%,100%);stroke-opacity:1;stroke-miterlimit:4;" d="M 0.0000803669 16.999994 L -0.0000420579 27.000064 " transform="matrix(7.704155,-11.562041,11.556263,7.708008,500,333.5)"/>
<path style=" stroke:none;fill-rule:nonzero;fill:rgb(80.392158%,18.039216%,22.745098%);fill-opacity:1;" d="M 592.449219 194.753906 C 669.039062 245.839844 689.734375 349.371094 638.675781 425.996094 C 587.617188 502.621094 484.136719 523.328125 407.550781 472.246094 C 330.960938 421.160156 310.265625 317.628906 361.324219 241.003906 C 412.382812 164.378906 515.863281 143.671875 592.449219 194.753906 Z M 592.449219 194.753906 "/>
<path style=" stroke:none;fill-rule:nonzero;fill:rgb(0%,27.843139%,62.7451%);fill-opacity:1;" d="M 361.324219 241.003906 C 335.796875 279.316406 346.144531 331.082031 384.4375 356.625 C 422.730469 382.167969 474.46875 371.8125 500 333.5 C 525.53125 295.1875 577.269531 284.832031 615.5625 310.375 C 653.855469 335.917969 664.203125 387.683594 638.675781 425.996094 C 587.617188 502.621094 484.136719 523.328125 407.550781 472.246094 C 330.960938 421.160156 310.265625 317.628906 361.324219 241.003906 Z M 361.324219 241.003906 "/>
<path style="fill-rule:nonzero;fill:rgb(0%,0%,0%);fill-opacity:1;stroke-width:2;stroke-linecap:butt;stroke-linejoin:miter;stroke:rgb(0%,0%,0%);stroke-opacity:1;stroke-miterlimit:4;" d="M -6.000183 -24.999954 L 6.000042 -25.000085 M -6.000092 -21.999964 L 5.999977 -21.999861 M -6.000001 -18.999974 L 6.000069 -18.999871 " transform="matrix(-7.704156,-11.562041,11.556263,-7.708008,500,333.5)"/>
<path style="fill-rule:nonzero;fill:rgb(0%,0%,0%);fill-opacity:1;stroke-width:2;stroke-linecap:butt;stroke-linejoin:miter;stroke:rgb(0%,0%,0%);stroke-opacity:1;stroke-miterlimit:4;" d="M -6.000069 -25.000129 L 6.000001 -25.000026 M -5.999977 -22.000139 L 6.000092 -22.000036 M -6.000042 -18.999915 L 6.000183 -19.000046 " transform="matrix(-7.704156,-11.562041,11.556263,-7.708008,1008.475565,-5.652367)"/>
<path style="fill-rule:nonzero;fill:rgb(0%,0%,0%);fill-opacity:1;stroke-width:1;stroke-linecap:butt;stroke-linejoin:miter;stroke:rgb(100%,100%,100%);stroke-opacity:1;stroke-miterlimit:4;" d="M 0.0000140037 -23.499829 L -0.000128774 -20.499995 M -0.0000814987 16.999994 L 0.000128774 20.499995 M -0.0000140037 23.499829 L -0.0000788936 26.500053 " transform="matrix(-7.704156,-11.562041,11.556263,-7.708008,500,333.5)"/>
</g>
</svg>
