<?xml version="1.0" encoding="UTF-8"?>
<svg xmlns="http://www.w3.org/2000/svg" xmlns:xlink="http://www.w3.org/1999/xlink" width="1000px" height="667px" viewBox="0 0 1000 667" version="1.1">
<g id="surface1">
<rect x="0" y="0" width="1000" height="667" style="fill:rgb(92.941177%,10.980392%,14.117648%);fill-opacity:1;stroke:none;"/>
<path style=" stroke:none;fill-rule:nonzero;fill:rgb(100%,100%,100%);fill-opacity:1;" d="M 0 166.75 L 1000 166.75 L 1000 500.25 L 0 500.25 Z M 0 166.75 "/>
<path style=" stroke:none;fill-rule:nonzero;fill:rgb(0%,65.098041%,31.764707%);fill-opacity:1;" d="M 495.453125 166.75 C 488.296875 181.824219 474.824219 192.359375 461.945312 202.328125 C 459.824219 204.179688 454.558594 207.765625 458.378906 210.496094 C 461.652344 206.835938 470.640625 211.683594 465.417969 215.617188 C 460.738281 220 454.296875 221.605469 449.101562 225.21875 C 444.503906 227.71875 439.835938 230.332031 436.1875 234.160156 C 435.941406 240.136719 443.605469 236.828125 446.714844 239.320312 C 450.765625 243.652344 444.996094 250.953125 439.683594 249.285156 C 432.886719 249.492188 428.191406 255.476562 425.621094 261.183594 C 420.304688 269.40625 410.234375 271.84375 402.210938 276.523438 C 397.625 279.199219 393.171875 282.160156 388.898438 285.285156 C 383.390625 289.050781 388.183594 296.511719 394.042969 294.679688 C 400.371094 294.050781 406.0625 289.078125 412.609375 290.507812 C 418.550781 292.597656 420.21875 300.363281 418.191406 305.785156 C 416.695312 310.128906 413.0625 313.183594 410.148438 316.578125 C 405.425781 321.367188 399.246094 324.476562 392.730469 325.957031 C 386.429688 328.074219 380.769531 331.933594 376.640625 337.144531 C 371.84375 341.972656 367.070312 346.882812 361.558594 350.90625 C 359.816406 355.351562 364.730469 359.136719 368.828125 359.019531 C 377.457031 358.476562 383.4375 351.410156 390.785156 347.777344 C 396.886719 345.035156 404.0625 351.613281 402.570312 357.96875 C 402.101562 364.152344 396.3125 367.292969 391.167969 369.195312 C 376.039062 376.804688 362.902344 387.835938 351.242188 400.011719 C 348.828125 404.933594 342.199219 403.484375 338.628906 406.917969 C 336.300781 411.257812 342.140625 413.550781 345.621094 413.101562 C 360.589844 411.300781 374.554688 404.972656 387.785156 398.007812 C 392.703125 395.65625 397.324219 392.558594 402.441406 390.683594 C 407.246094 389.496094 413.945312 391.585938 414.804688 397.054688 C 414.796875 402.832031 409.078125 406.03125 404.550781 408.285156 C 390.582031 415.628906 375.253906 419.6875 360.324219 424.539062 C 354.738281 422.976562 350.527344 432.925781 356.65625 434.714844 C 363.140625 436.9375 370.03125 435.15625 376.664062 434.863281 C 397.167969 431.71875 415.101562 420.617188 434.269531 413.441406 C 442.238281 410.84375 451.644531 414.472656 455.574219 421.941406 C 459.527344 428.601562 459.164062 437.355469 454.996094 443.824219 C 448.410156 457.925781 438.398438 470.882812 424.957031 478.988281 C 416.515625 483.167969 406.667969 484.765625 399.4375 491.164062 C 392.75 493.371094 402.789062 502.414062 404.242188 495.238281 C 408.261719 489.753906 415.347656 488.113281 421.777344 487.886719 C 431.441406 486.835938 441.703125 485.050781 449.210938 478.359375 C 455.941406 473.128906 462.574219 465.914062 471.714844 465.800781 C 476.765625 466.402344 481.761719 470.460938 486.894531 467.984375 C 491.382812 465.929688 498.421875 467.132812 499.597656 472.65625 C 501.738281 479.113281 508.394531 482.054688 513.671875 485.507812 C 515.582031 488.191406 521.929688 495.113281 523.390625 489.011719 C 522.210938 484.660156 523.898438 478 529.605469 479.453125 C 534.589844 479.675781 539.339844 481.515625 544.3125 481.816406 C 550.9375 483.191406 556.464844 487.726562 560.226562 493.207031 C 562.816406 496.785156 568.484375 502.925781 572.695312 498.1875 C 575.308594 493.28125 570.320312 489.191406 566.257812 487.441406 C 560.335938 483.769531 555.273438 478.878906 550.09375 474.25 C 542.460938 467.117188 535.871094 458.046875 534.660156 447.390625 C 533.015625 436.769531 533.878906 425.933594 535.265625 415.339844 C 537.011719 408.519531 545.726562 404.796875 551.824219 408.417969 C 560.398438 412.335938 568.917969 417.9375 578.75 417.332031 C 592.960938 417.636719 607.5625 414.914062 621.445312 419.035156 C 634.960938 423.292969 644.621094 434.703125 657.785156 439.636719 C 660.730469 441.429688 664.5 439.726562 665.578125 436.578125 C 666.882812 433.746094 665.964844 430.125 663.238281 428.515625 C 647.984375 413.109375 627.136719 405.625 609.484375 393.585938 C 603.929688 392.171875 602.917969 383.226562 608.054688 380.644531 C 614.808594 375.734375 624.363281 378.019531 630.355469 383.085938 C 635.414062 386.050781 641.117188 388.273438 647.050781 388.277344 C 653.132812 386.371094 650.183594 377.566406 644.742188 376.90625 C 634.875 371.332031 627.808594 362.1875 619.261719 354.941406 C 614.339844 350.769531 608.953125 346.550781 602.339844 345.742188 C 598.726562 345.082031 595.027344 344.9375 591.367188 345.183594 C 587.929688 341.449219 592.507812 335.730469 596.949219 336.199219 C 601.507812 336.503906 606.039062 336.84375 610.589844 336.210938 C 615.679688 335.835938 620.761719 335.308594 625.867188 335.273438 C 629.988281 338.082031 638.222656 333.234375 634.503906 328.390625 C 630.4375 324.832031 624.566406 325.140625 619.710938 323.3125 C 611.179688 320.511719 602.5 318.25 593.710938 316.476562 C 587.5625 316.109375 588.324219 308.011719 593.726562 307.121094 C 597.261719 305.800781 600.335938 308.519531 603.730469 308.9375 C 609.53125 310.1875 615.515625 310.167969 621.3125 311.433594 C 626.222656 309.007812 622.425781 301.824219 617.980469 301.40625 C 607.492188 297.65625 598.429688 290.882812 589.570312 284.296875 C 579.789062 276.933594 570.914062 268.421875 561.011719 261.230469 C 557.417969 259.003906 551.527344 258.363281 550.582031 253.425781 C 550.25 248.882812 555.59375 246.816406 559.382812 247.878906 C 564.753906 249.464844 569.761719 252.230469 575.238281 253.589844 C 579.535156 254.320312 583.96875 255.589844 588.109375 255.050781 C 593.367188 251.742188 585.855469 249.632812 583.136719 248.484375 C 576.125 244.703125 569.898438 239.664062 563.589844 234.855469 C 558.257812 230.304688 568.109375 228.292969 571.5 230.046875 C 577.164062 232.417969 577.8125 224.15625 573.574219 222.078125 C 568.585938 219.953125 564.292969 216.429688 559.765625 213.355469 C 551.589844 207.53125 542.328125 202.921875 532.277344 201.640625 C 521.007812 200.507812 510.488281 194.023438 504.511719 184.382812 C 500.804688 178.886719 498.082031 172.8125 495.453125 166.75 Z M 458.441406 230.003906 C 464.25 230.175781 463.359375 240.652344 457.640625 239.953125 C 452.085938 239.59375 452.425781 228.878906 458.441406 230.003906 Z M 513.230469 235.644531 C 518.882812 234.632812 520.078125 244.953125 514.433594 245.4375 C 508.546875 246.492188 506.367188 234.992188 513.230469 235.644531 Z M 497.183594 236.988281 C 502.914062 238.117188 501.894531 248.105469 496.109375 248.191406 C 491.878906 249.132812 487.320312 252.023438 483.039062 249.859375 C 479.558594 246.175781 484.589844 240.730469 488.476562 239.53125 C 491.457031 238.929688 494.199219 237.578125 497.183594 236.988281 Z M 534.113281 237.035156 C 539.636719 239.050781 537.6875 248.800781 531.863281 248.675781 C 526.355469 249.414062 523.792969 240.222656 528.925781 238.042969 C 530.589844 237.453125 532.332031 236.957031 534.113281 237.035156 Z M 471.816406 248.097656 C 475.875 251.960938 473.476562 259.421875 468.472656 261.207031 C 464.863281 263.214844 459.941406 267.964844 456.011719 264.058594 C 453.878906 259.28125 459.230469 255.6875 462.382812 253.035156 C 465.191406 250.851562 468.292969 248.867188 471.816406 248.097656 Z M 518.183594 269.660156 C 524 272.40625 521.046875 282.886719 514.667969 282.234375 C 509.425781 280.90625 510.113281 271.914062 515.390625 271.199219 C 516.386719 270.816406 517.300781 270.253906 518.183594 269.660156 Z M 499.738281 270.699219 C 505.175781 273.246094 501.023438 282.324219 495.550781 281.015625 C 489.871094 280.347656 489.976562 270.363281 496.238281 271.265625 C 497.417969 271.207031 498.636719 271.175781 499.738281 270.699219 Z M 539.503906 275.90625 C 545.460938 274.054688 552.636719 280.199219 550.703125 286.425781 C 548.046875 291.257812 541.480469 291.867188 536.773438 290.0625 C 531.375 289.796875 527.738281 281.671875 532.550781 278.230469 C 534.542969 276.726562 537.054688 276.109375 539.503906 275.90625 Z M 451.480469 277.46875 C 456.410156 274.785156 461.640625 282.847656 457.449219 286.402344 C 454.675781 290.484375 447.546875 292.152344 444.402344 287.613281 C 441.792969 283.179688 446.015625 275.730469 451.480469 277.46875 Z M 428.75 281.285156 C 434.335938 282.050781 437.980469 287.128906 440.046875 291.964844 C 440.550781 297.859375 431.855469 301.09375 428.066406 296.804688 C 423.800781 294.128906 420.070312 288.625 422.304688 283.519531 C 423.683594 281.488281 426.425781 280.652344 428.75 281.285156 Z M 564.753906 302.589844 C 570.816406 300.988281 575.222656 310.6875 570.011719 314.195312 C 565.25 318.523438 555.992188 312.789062 558.476562 306.617188 C 559.710938 304.328125 562.179688 302.804688 564.753906 302.589844 Z M 487.546875 313.652344 C 492.632812 314.300781 490.984375 323.117188 486.28125 322.824219 C 481.234375 321.886719 482.390625 313.152344 487.546875 313.652344 Z M 461.746094 318.335938 C 465.894531 315.398438 471.246094 322.566406 467.792969 325.90625 C 463.660156 328.824219 458.292969 321.769531 461.746094 318.335938 Z M 502.769531 319.203125 C 507.578125 322.128906 510.429688 327.578125 511.027344 333.078125 C 508.722656 338.214844 499.824219 336.976562 498.820312 331.507812 C 497.0625 327.179688 498.683594 321.609375 502.769531 319.203125 Z M 517.085938 327.707031 C 523.28125 326.152344 521.058594 339.109375 515.882812 334.613281 C 514.164062 332.570312 515.085938 329.210938 517.085938 327.707031 Z M 427.175781 336.730469 C 431.277344 335.53125 437.257812 336.792969 438.390625 341.503906 C 438.871094 345.933594 434.003906 348.238281 430.4375 349.335938 C 424.722656 351.097656 419.132812 353.996094 412.984375 353.605469 C 408.378906 350.972656 406.722656 345.582031 405.082031 340.878906 C 409.527344 336.707031 416.074219 337.929688 421.585938 336.886719 C 423.449219 336.792969 425.3125 336.746094 427.175781 336.730469 Z M 566.640625 357.035156 C 571.875 354.46875 577.503906 362.78125 573.121094 366.664062 C 567.640625 372.976562 557.089844 374.148438 550.535156 368.847656 C 549.746094 363.261719 555.324219 359.203125 560.277344 358.402344 C 562.359375 357.8125 564.433594 356.933594 566.640625 357.035156 Z M 596.058594 363.414062 C 602.007812 362.390625 606.691406 370.878906 602.445312 375.269531 C 598.425781 381.335938 588.839844 382.925781 583.359375 377.953125 C 581.222656 372.925781 585.554688 367.691406 590.167969 366.078125 C 592.152344 365.230469 594.03125 364.148438 596.058594 363.414062 Z M 448.136719 372.4375 C 453.644531 371.894531 458.691406 377.359375 457.96875 382.792969 C 461.957031 386.71875 454.894531 394.03125 450.921875 389.96875 C 447.421875 385.722656 447.441406 379.96875 446.085938 374.890625 C 446.023438 373.761719 446.859375 372.300781 448.136719 372.4375 Z M 490.417969 375.605469 C 496.113281 373.140625 503.476562 379.957031 500.378906 385.726562 C 498.164062 390.425781 489.53125 388.851562 489.816406 383.40625 C 489.804688 380.804688 489.59375 378.132812 490.417969 375.605469 Z M 469.847656 379.292969 C 475.558594 377.984375 480.796875 385.386719 477.625 390.328125 C 471.929688 390.835938 468.976562 384.078125 469.847656 379.292969 Z M 469.847656 379.292969 "/>
</g>
</svg>
