<?xml version="1.0" encoding="UTF-8"?>
<svg xmlns="http://www.w3.org/2000/svg" xmlns:xlink="http://www.w3.org/1999/xlink" width="1000px" height="667px" viewBox="0 0 1000 667" version="1.1">
<g id="surface1">
<rect x="0" y="0" width="1000" height="667" style="fill:rgb(0%,16.862746%,49.803922%);fill-opacity:1;stroke:none;"/>
<path style=" stroke:none;fill-rule:nonzero;fill:rgb(80.784315%,6.666667%,14.901961%);fill-opacity:1;" d="M 0 333.5 L 1000 333.5 L 1000 667 L 0 667 Z M 0 333.5 "/>
<path style=" stroke:none;fill-rule:nonzero;fill:rgb(100%,84.705883%,23.921569%);fill-opacity:1;" d="M 216.378906 135.945312 L 214.539062 205.421875 L 151.121094 205.421875 C 143.316406 188.5625 136.875 174.238281 136.875 154.847656 C 136.875 138.617188 148.355469 125.726562 164.90625 125.726562 C 182.425781 125.726562 201.675781 132.289062 216.378906 135.945312 Z M 216.378906 135.945312 "/>
<path style="fill:none;stroke-width:1.5;stroke-linecap:round;stroke-linejoin:round;stroke:rgb(0%,0%,0%);stroke-opacity:1;stroke-miterlimit:4;" d="M 144.457031 125.160467 L 144.457031 161.23735 " transform="matrix(1,0,0,1.111667,0,0)"/>
<path style="fill:none;stroke-width:1.5;stroke-linecap:round;stroke-linejoin:round;stroke:rgb(0%,0%,0%);stroke-opacity:1;stroke-miterlimit:4;" d="M 149.550781 121.477933 L 149.550781 169.512509 " transform="matrix(1,0,0,1.111667,0,0)"/>
<path style="fill:none;stroke-width:1.5;stroke-linecap:round;stroke-linejoin:round;stroke:rgb(0%,0%,0%);stroke-opacity:1;stroke-miterlimit:4;" d="M 154.644531 118.951462 L 154.644531 176.178317 " transform="matrix(1,0,0,1.111667,0,0)"/>
<path style="fill:none;stroke-width:1.5;stroke-linecap:round;stroke-linejoin:round;stroke:rgb(0%,0%,0%);stroke-opacity:1;stroke-miterlimit:4;" d="M 159.738281 117.770802 L 159.738281 162.653439 " transform="matrix(1,0,0,1.111667,0,0)"/>
<path style="fill:none;stroke-width:1.5;stroke-linecap:round;stroke-linejoin:round;stroke:rgb(0%,0%,0%);stroke-opacity:1;stroke-miterlimit:4;" d="M 164.828125 117.549428 L 164.828125 162.874813 " transform="matrix(1,0,0,1.111667,0,0)"/>
<path style="fill:none;stroke-width:1.5;stroke-linecap:round;stroke-linejoin:round;stroke:rgb(0%,0%,0%);stroke-opacity:1;stroke-miterlimit:4;" d="M 169.921875 115.964674 L 169.921875 162.850216 " transform="matrix(1,0,0,1.111667,0,0)"/>
<path style="fill:none;stroke-width:1.5;stroke-linecap:round;stroke-linejoin:round;stroke:rgb(0%,0%,0%);stroke-opacity:1;stroke-miterlimit:4;" d="M 175.015625 115.964674 L 175.015625 162.850216 " transform="matrix(1,0,0,1.111667,0,0)"/>
<path style="fill:none;stroke-width:1.5;stroke-linecap:round;stroke-linejoin:round;stroke:rgb(0%,0%,0%);stroke-opacity:1;stroke-miterlimit:4;" d="M 180.109375 116.424991 L 180.109375 163.310532 " transform="matrix(1,0,0,1.111667,0,0)"/>
<path style="fill:none;stroke-width:1.5;stroke-linecap:round;stroke-linejoin:round;stroke:rgb(0%,0%,0%);stroke-opacity:1;stroke-miterlimit:4;" d="M 185.203125 116.885307 L 185.203125 163.767335 " transform="matrix(1,0,0,1.111667,0,0)"/>
<path style="fill:none;stroke-width:1.5;stroke-linecap:round;stroke-linejoin:round;stroke:rgb(0%,0%,0%);stroke-opacity:1;stroke-miterlimit:4;" d="M 190.296875 119.872095 L 190.296875 166.757637 " transform="matrix(1,0,0,1.111667,0,0)"/>
<path style="fill:none;stroke-width:1.5;stroke-linecap:round;stroke-linejoin:round;stroke:rgb(0%,0%,0%);stroke-opacity:1;stroke-miterlimit:4;" d="M 195.390625 120.328898 L 195.390625 173.191529 " transform="matrix(1,0,0,1.111667,0,0)"/>
<path style="fill:none;stroke-width:1.5;stroke-linecap:round;stroke-linejoin:round;stroke:rgb(0%,0%,0%);stroke-opacity:1;stroke-miterlimit:4;" d="M 200.484375 120.328898 L 200.484375 167.21444 " transform="matrix(1,0,0,1.111667,0,0)"/>
<path style="fill:none;stroke-width:1.5;stroke-linecap:round;stroke-linejoin:round;stroke:rgb(0%,0%,0%);stroke-opacity:1;stroke-miterlimit:4;" d="M 205.578125 120.328898 L 205.578125 167.21444 " transform="matrix(1,0,0,1.111667,0,0)"/>
<path style="fill-rule:nonzero;fill:rgb(0%,0%,0%);fill-opacity:1;stroke-width:1.5;stroke-linecap:round;stroke-linejoin:round;stroke:rgb(0%,0%,0%);stroke-opacity:1;stroke-miterlimit:4;" d="M 176.394531 117.921898 C 187.160156 119.699916 210.800781 130.761572 208.105469 145.727136 C 204.285156 166.936844 191.898438 158.422742 175.476562 155.376218 L 163.066406 159.512041 C 158.628906 164.044931 152.089844 168.194809 147.671875 162.730744 L 140.320312 162.730744 L 140.320312 191.453102 L 221.660156 191.453102 L 221.660156 122.057721 Z M 176.394531 117.921898 " transform="matrix(1,0,0,1.111667,0,0)"/>
<path style="fill-rule:nonzero;fill:rgb(100%,84.705883%,23.921569%);fill-opacity:1;stroke-width:2;stroke-linecap:round;stroke-linejoin:round;stroke:rgb(0%,0%,0%);stroke-opacity:1;stroke-miterlimit:4;" d="M 217.753906 112.9814 C 217.753906 115.711675 215.542969 117.921898 212.816406 117.921898 C 210.085938 117.921898 207.875 115.711675 207.875 112.9814 C 207.875 110.254638 210.085938 108.040901 212.816406 108.040901 C 215.542969 108.040901 217.753906 110.254638 217.753906 112.9814 Z M 217.753906 112.9814 " transform="matrix(1,0,0,1.111667,0,0)"/>
<path style="fill-rule:nonzero;fill:rgb(100%,84.705883%,23.921569%);fill-opacity:1;stroke-width:2;stroke-linecap:round;stroke-linejoin:round;stroke:rgb(0%,0%,0%);stroke-opacity:1;stroke-miterlimit:4;" d="M 206.652344 110.31086 C 206.652344 113.037622 204.441406 115.251359 201.714844 115.251359 C 198.984375 115.251359 196.773438 113.037622 196.773438 110.31086 C 196.773438 107.580585 198.984375 105.370362 201.714844 105.370362 C 204.441406 105.370362 206.652344 107.580585 206.652344 110.31086 Z M 206.652344 110.31086 " transform="matrix(1,0,0,1.111667,0,0)"/>
<path style="fill-rule:nonzero;fill:rgb(100%,84.705883%,23.921569%);fill-opacity:1;stroke-width:2;stroke-linecap:round;stroke-linejoin:round;stroke:rgb(0%,0%,0%);stroke-opacity:1;stroke-miterlimit:4;" d="M 195.390625 107.482196 C 195.390625 110.208958 193.179688 112.422695 190.449219 112.422695 C 187.722656 112.422695 185.507812 110.208958 185.507812 107.482196 C 185.507812 104.751921 187.722656 102.541698 190.449219 102.541698 C 193.179688 102.541698 195.390625 104.751921 195.390625 107.482196 Z M 195.390625 107.482196 " transform="matrix(1,0,0,1.111667,0,0)"/>
<path style="fill-rule:nonzero;fill:rgb(100%,84.705883%,23.921569%);fill-opacity:1;stroke-width:2;stroke-linecap:round;stroke-linejoin:round;stroke:rgb(0%,0%,0%);stroke-opacity:1;stroke-miterlimit:4;" d="M 184.082031 105.595249 C 184.082031 108.325525 181.871094 110.535748 179.144531 110.535748 C 176.414062 110.535748 174.203125 108.325525 174.203125 105.595249 C 174.203125 102.868488 176.414062 100.654751 179.144531 100.654751 C 181.871094 100.654751 184.082031 102.868488 184.082031 105.595249 Z M 184.082031 105.595249 " transform="matrix(1,0,0,1.111667,0,0)"/>
<path style="fill-rule:nonzero;fill:rgb(100%,84.705883%,23.921569%);fill-opacity:1;stroke-width:2;stroke-linecap:round;stroke-linejoin:round;stroke:rgb(0%,0%,0%);stroke-opacity:1;stroke-miterlimit:4;" d="M 172.777344 104.481353 C 172.777344 107.208115 170.566406 109.421852 167.835938 109.421852 C 165.109375 109.421852 162.894531 107.208115 162.894531 104.481353 C 162.894531 101.751078 165.109375 99.540855 167.835938 99.540855 C 170.566406 99.540855 172.777344 101.751078 172.777344 104.481353 Z M 172.777344 104.481353 " transform="matrix(1,0,0,1.111667,0,0)"/>
<path style="fill-rule:nonzero;fill:rgb(100%,84.705883%,23.921569%);fill-opacity:1;stroke-width:2;stroke-linecap:round;stroke-linejoin:round;stroke:rgb(0%,0%,0%);stroke-opacity:1;stroke-miterlimit:4;" d="M 161.691406 105.113849 C 161.691406 107.840611 159.476562 110.054348 156.75 110.054348 C 154.019531 110.054348 151.808594 107.840611 151.808594 105.113849 C 151.808594 102.383574 154.019531 100.173351 156.75 100.173351 C 159.476562 100.173351 161.691406 102.383574 161.691406 105.113849 Z M 161.691406 105.113849 " transform="matrix(1,0,0,1.111667,0,0)"/>
<path style="fill-rule:nonzero;fill:rgb(100%,84.705883%,23.921569%);fill-opacity:1;stroke-width:2;stroke-linecap:round;stroke-linejoin:round;stroke:rgb(0%,0%,0%);stroke-opacity:1;stroke-miterlimit:4;" d="M 151.121094 108.733133 C 151.121094 111.459895 148.90625 113.673632 146.179688 113.673632 C 143.449219 113.673632 141.238281 111.459895 141.238281 108.733133 C 141.238281 106.002858 143.449219 103.792635 146.179688 103.792635 C 148.90625 103.792635 151.121094 106.002858 151.121094 108.733133 Z M 151.121094 108.733133 " transform="matrix(1,0,0,1.111667,0,0)"/>
<path style="fill-rule:nonzero;fill:rgb(100%,84.705883%,23.921569%);fill-opacity:1;stroke-width:2;stroke-linecap:round;stroke-linejoin:round;stroke:rgb(0%,0%,0%);stroke-opacity:1;stroke-miterlimit:4;" d="M 142.214844 115.27947 C 142.214844 118.009745 140.003906 120.219968 137.277344 120.219968 C 134.546875 120.219968 132.335938 118.009745 132.335938 115.27947 C 132.335938 112.552708 134.546875 110.338971 137.277344 110.338971 C 140.003906 110.338971 142.214844 112.552708 142.214844 115.27947 Z M 142.214844 115.27947 " transform="matrix(1,0,0,1.111667,0,0)"/>
<path style="fill-rule:nonzero;fill:rgb(100%,84.705883%,23.921569%);fill-opacity:1;stroke-width:2;stroke-linecap:round;stroke-linejoin:round;stroke:rgb(0%,0%,0%);stroke-opacity:1;stroke-miterlimit:4;" d="M 135.898438 124.415527 C 135.898438 127.142288 133.683594 129.356025 130.957031 129.356025 C 128.226562 129.356025 126.015625 127.142288 126.015625 124.415527 C 126.015625 121.685251 128.226562 119.475028 130.957031 119.475028 C 133.683594 119.475028 135.898438 121.685251 135.898438 124.415527 Z M 135.898438 124.415527 " transform="matrix(1,0,0,1.111667,0,0)"/>
<path style="fill-rule:nonzero;fill:rgb(100%,84.705883%,23.921569%);fill-opacity:1;stroke-width:2;stroke-linecap:round;stroke-linejoin:round;stroke:rgb(0%,0%,0%);stroke-opacity:1;stroke-miterlimit:4;" d="M 132.851562 135.157421 C 132.851562 137.884183 130.640625 140.09792 127.910156 140.09792 C 125.183594 140.09792 122.972656 137.884183 122.972656 135.157421 C 122.972656 132.427146 125.183594 130.216923 127.910156 130.216923 C 130.640625 130.216923 132.851562 132.427146 132.851562 135.157421 Z M 132.851562 135.157421 " transform="matrix(1,0,0,1.111667,0,0)"/>
<path style="fill-rule:nonzero;fill:rgb(100%,84.705883%,23.921569%);fill-opacity:1;stroke-width:2;stroke-linecap:round;stroke-linejoin:round;stroke:rgb(0%,0%,0%);stroke-opacity:1;stroke-miterlimit:4;" d="M 132.96875 146.299897 C 132.96875 149.030172 130.753906 151.240395 128.027344 151.240395 C 125.296875 151.240395 123.085938 149.030172 123.085938 146.299897 C 123.085938 143.573135 125.296875 141.359398 128.027344 141.359398 C 130.753906 141.359398 132.96875 143.573135 132.96875 146.299897 Z M 132.96875 146.299897 " transform="matrix(1,0,0,1.111667,0,0)"/>
<path style="fill-rule:nonzero;fill:rgb(100%,84.705883%,23.921569%);fill-opacity:1;stroke-width:2;stroke-linecap:round;stroke-linejoin:round;stroke:rgb(0%,0%,0%);stroke-opacity:1;stroke-miterlimit:4;" d="M 135.09375 157.213971 C 135.09375 159.944247 132.878906 162.15447 130.152344 162.15447 C 127.425781 162.15447 125.210938 159.944247 125.210938 157.213971 C 125.210938 154.48721 127.425781 152.273473 130.152344 152.273473 C 132.878906 152.273473 135.09375 154.48721 135.09375 157.213971 Z M 135.09375 157.213971 " transform="matrix(1,0,0,1.111667,0,0)"/>
<path style="fill-rule:nonzero;fill:rgb(100%,84.705883%,23.921569%);fill-opacity:1;stroke-width:2;stroke-linecap:round;stroke-linejoin:round;stroke:rgb(0%,0%,0%);stroke-opacity:1;stroke-miterlimit:4;" d="M 215 119.53125 L 214.539062 125.965142 C 202.246094 124.081709 184.824219 117.23318 168.582031 117.23318 C 153.578125 117.23318 141.929688 123.234867 141.929688 138.372611 C 141.929688 153.292494 148.246094 166.859539 156.632812 180.651471 L 147.902344 184.787294 C 140.101562 169.621439 133.65625 156.736085 133.65625 139.293244 C 133.65625 124.693122 145.140625 110.338971 164.90625 110.338971 C 182.425781 110.338971 200.296875 116.242269 215 119.53125 Z M 215 119.53125 " transform="matrix(1,0,0,1.111667,0,0)"/>
<path style=" stroke:none;fill-rule:nonzero;fill:rgb(100%,84.705883%,23.921569%);fill-opacity:1;" d="M 227.558594 135.945312 L 229.398438 205.421875 L 292.816406 205.421875 C 300.621094 188.5625 307.0625 174.238281 307.0625 154.847656 C 307.0625 138.617188 295.582031 125.726562 279.03125 125.726562 C 261.511719 125.726562 242.261719 132.289062 227.558594 135.945312 Z M 227.558594 135.945312 "/>
<path style="fill:none;stroke-width:1.5;stroke-linecap:round;stroke-linejoin:round;stroke:rgb(0%,0%,0%);stroke-opacity:1;stroke-miterlimit:4;" d="M 144.457031 125.160467 L 144.457031 161.23735 " transform="matrix(-1,0,0,1.111667,443.9375,0)"/>
<path style="fill:none;stroke-width:1.5;stroke-linecap:round;stroke-linejoin:round;stroke:rgb(0%,0%,0%);stroke-opacity:1;stroke-miterlimit:4;" d="M 149.550781 121.477933 L 149.550781 169.512509 " transform="matrix(-1,0,0,1.111667,443.9375,0)"/>
<path style="fill:none;stroke-width:1.5;stroke-linecap:round;stroke-linejoin:round;stroke:rgb(0%,0%,0%);stroke-opacity:1;stroke-miterlimit:4;" d="M 154.644531 118.951462 L 154.644531 176.178317 " transform="matrix(-1,0,0,1.111667,443.9375,0)"/>
<path style="fill:none;stroke-width:1.5;stroke-linecap:round;stroke-linejoin:round;stroke:rgb(0%,0%,0%);stroke-opacity:1;stroke-miterlimit:4;" d="M 159.738281 117.770802 L 159.738281 162.653439 " transform="matrix(-1,0,0,1.111667,443.9375,0)"/>
<path style="fill:none;stroke-width:1.5;stroke-linecap:round;stroke-linejoin:round;stroke:rgb(0%,0%,0%);stroke-opacity:1;stroke-miterlimit:4;" d="M 164.828125 117.549428 L 164.828125 162.874813 " transform="matrix(-1,0,0,1.111667,443.9375,0)"/>
<path style="fill:none;stroke-width:1.5;stroke-linecap:round;stroke-linejoin:round;stroke:rgb(0%,0%,0%);stroke-opacity:1;stroke-miterlimit:4;" d="M 169.921875 115.964674 L 169.921875 162.850216 " transform="matrix(-1,0,0,1.111667,443.9375,0)"/>
<path style="fill:none;stroke-width:1.5;stroke-linecap:round;stroke-linejoin:round;stroke:rgb(0%,0%,0%);stroke-opacity:1;stroke-miterlimit:4;" d="M 175.015625 115.964674 L 175.015625 162.850216 " transform="matrix(-1,0,0,1.111667,443.9375,0)"/>
<path style="fill:none;stroke-width:1.5;stroke-linecap:round;stroke-linejoin:round;stroke:rgb(0%,0%,0%);stroke-opacity:1;stroke-miterlimit:4;" d="M 180.109375 116.424991 L 180.109375 163.310532 " transform="matrix(-1,0,0,1.111667,443.9375,0)"/>
<path style="fill:none;stroke-width:1.5;stroke-linecap:round;stroke-linejoin:round;stroke:rgb(0%,0%,0%);stroke-opacity:1;stroke-miterlimit:4;" d="M 185.203125 116.885307 L 185.203125 163.767335 " transform="matrix(-1,0,0,1.111667,443.9375,0)"/>
<path style="fill:none;stroke-width:1.5;stroke-linecap:round;stroke-linejoin:round;stroke:rgb(0%,0%,0%);stroke-opacity:1;stroke-miterlimit:4;" d="M 190.296875 119.872095 L 190.296875 166.757637 " transform="matrix(-1,0,0,1.111667,443.9375,0)"/>
<path style="fill:none;stroke-width:1.5;stroke-linecap:round;stroke-linejoin:round;stroke:rgb(0%,0%,0%);stroke-opacity:1;stroke-miterlimit:4;" d="M 195.390625 120.328898 L 195.390625 173.191529 " transform="matrix(-1,0,0,1.111667,443.9375,0)"/>
<path style="fill:none;stroke-width:1.5;stroke-linecap:round;stroke-linejoin:round;stroke:rgb(0%,0%,0%);stroke-opacity:1;stroke-miterlimit:4;" d="M 200.484375 120.328898 L 200.484375 167.21444 " transform="matrix(-1,0,0,1.111667,443.9375,0)"/>
<path style="fill:none;stroke-width:1.5;stroke-linecap:round;stroke-linejoin:round;stroke:rgb(0%,0%,0%);stroke-opacity:1;stroke-miterlimit:4;" d="M 205.578125 120.328898 L 205.578125 167.21444 " transform="matrix(-1,0,0,1.111667,443.9375,0)"/>
<path style="fill-rule:nonzero;fill:rgb(0%,0%,0%);fill-opacity:1;stroke-width:1.5;stroke-linecap:round;stroke-linejoin:round;stroke:rgb(0%,0%,0%);stroke-opacity:1;stroke-miterlimit:4;" d="M 176.394531 117.921898 C 187.160156 119.699916 210.800781 130.761572 208.105469 145.727136 C 204.285156 166.936844 191.898438 158.422742 175.476562 155.376218 L 163.066406 159.512041 C 158.628906 164.044931 152.089844 168.194809 147.671875 162.730744 L 140.320312 162.730744 L 140.320312 191.453102 L 221.660156 191.453102 L 221.660156 122.057721 Z M 176.394531 117.921898 " transform="matrix(-1,0,0,1.111667,443.9375,0)"/>
<path style="fill-rule:nonzero;fill:rgb(100%,84.705883%,23.921569%);fill-opacity:1;stroke-width:2;stroke-linecap:round;stroke-linejoin:round;stroke:rgb(0%,0%,0%);stroke-opacity:1;stroke-miterlimit:4;" d="M 217.753906 112.9814 C 217.753906 115.711675 215.542969 117.921898 212.816406 117.921898 C 210.085938 117.921898 207.875 115.711675 207.875 112.9814 C 207.875 110.254638 210.085938 108.040901 212.816406 108.040901 C 215.542969 108.040901 217.753906 110.254638 217.753906 112.9814 Z M 217.753906 112.9814 " transform="matrix(-1,0,0,1.111667,443.9375,0)"/>
<path style="fill-rule:nonzero;fill:rgb(100%,84.705883%,23.921569%);fill-opacity:1;stroke-width:2;stroke-linecap:round;stroke-linejoin:round;stroke:rgb(0%,0%,0%);stroke-opacity:1;stroke-miterlimit:4;" d="M 206.652344 110.31086 C 206.652344 113.037622 204.441406 115.251359 201.714844 115.251359 C 198.984375 115.251359 196.773438 113.037622 196.773438 110.31086 C 196.773438 107.580585 198.984375 105.370362 201.714844 105.370362 C 204.441406 105.370362 206.652344 107.580585 206.652344 110.31086 Z M 206.652344 110.31086 " transform="matrix(-1,0,0,1.111667,443.9375,0)"/>
<path style="fill-rule:nonzero;fill:rgb(100%,84.705883%,23.921569%);fill-opacity:1;stroke-width:2;stroke-linecap:round;stroke-linejoin:round;stroke:rgb(0%,0%,0%);stroke-opacity:1;stroke-miterlimit:4;" d="M 195.390625 107.482196 C 195.390625 110.208958 193.179688 112.422695 190.449219 112.422695 C 187.722656 112.422695 185.507812 110.208958 185.507812 107.482196 C 185.507812 104.751921 187.722656 102.541698 190.449219 102.541698 C 193.179688 102.541698 195.390625 104.751921 195.390625 107.482196 Z M 195.390625 107.482196 " transform="matrix(-1,0,0,1.111667,443.9375,0)"/>
<path style="fill-rule:nonzero;fill:rgb(100%,84.705883%,23.921569%);fill-opacity:1;stroke-width:2;stroke-linecap:round;stroke-linejoin:round;stroke:rgb(0%,0%,0%);stroke-opacity:1;stroke-miterlimit:4;" d="M 184.082031 105.595249 C 184.082031 108.325525 181.871094 110.535748 179.144531 110.535748 C 176.414062 110.535748 174.203125 108.325525 174.203125 105.595249 C 174.203125 102.868488 176.414062 100.654751 179.144531 100.654751 C 181.871094 100.654751 184.082031 102.868488 184.082031 105.595249 Z M 184.082031 105.595249 " transform="matrix(-1,0,0,1.111667,443.9375,0)"/>
<path style="fill-rule:nonzero;fill:rgb(100%,84.705883%,23.921569%);fill-opacity:1;stroke-width:2;stroke-linecap:round;stroke-linejoin:round;stroke:rgb(0%,0%,0%);stroke-opacity:1;stroke-miterlimit:4;" d="M 172.777344 104.481353 C 172.777344 107.208115 170.566406 109.421852 167.835938 109.421852 C 165.109375 109.421852 162.894531 107.208115 162.894531 104.481353 C 162.894531 101.751078 165.109375 99.540855 167.835938 99.540855 C 170.566406 99.540855 172.777344 101.751078 172.777344 104.481353 Z M 172.777344 104.481353 " transform="matrix(-1,0,0,1.111667,443.9375,0)"/>
<path style="fill-rule:nonzero;fill:rgb(100%,84.705883%,23.921569%);fill-opacity:1;stroke-width:2;stroke-linecap:round;stroke-linejoin:round;stroke:rgb(0%,0%,0%);stroke-opacity:1;stroke-miterlimit:4;" d="M 161.691406 105.113849 C 161.691406 107.840611 159.476562 110.054348 156.75 110.054348 C 154.019531 110.054348 151.808594 107.840611 151.808594 105.113849 C 151.808594 102.383574 154.019531 100.173351 156.75 100.173351 C 159.476562 100.173351 161.691406 102.383574 161.691406 105.113849 Z M 161.691406 105.113849 " transform="matrix(-1,0,0,1.111667,443.9375,0)"/>
<path style="fill-rule:nonzero;fill:rgb(100%,84.705883%,23.921569%);fill-opacity:1;stroke-width:2;stroke-linecap:round;stroke-linejoin:round;stroke:rgb(0%,0%,0%);stroke-opacity:1;stroke-miterlimit:4;" d="M 151.121094 108.733133 C 151.121094 111.459895 148.90625 113.673632 146.179688 113.673632 C 143.449219 113.673632 141.238281 111.459895 141.238281 108.733133 C 141.238281 106.002858 143.449219 103.792635 146.179688 103.792635 C 148.90625 103.792635 151.121094 106.002858 151.121094 108.733133 Z M 151.121094 108.733133 " transform="matrix(-1,0,0,1.111667,443.9375,0)"/>
<path style="fill-rule:nonzero;fill:rgb(100%,84.705883%,23.921569%);fill-opacity:1;stroke-width:2;stroke-linecap:round;stroke-linejoin:round;stroke:rgb(0%,0%,0%);stroke-opacity:1;stroke-miterlimit:4;" d="M 142.214844 115.27947 C 142.214844 118.009745 140.003906 120.219968 137.277344 120.219968 C 134.546875 120.219968 132.335938 118.009745 132.335938 115.27947 C 132.335938 112.552708 134.546875 110.338971 137.277344 110.338971 C 140.003906 110.338971 142.214844 112.552708 142.214844 115.27947 Z M 142.214844 115.27947 " transform="matrix(-1,0,0,1.111667,443.9375,0)"/>
<path style="fill-rule:nonzero;fill:rgb(100%,84.705883%,23.921569%);fill-opacity:1;stroke-width:2;stroke-linecap:round;stroke-linejoin:round;stroke:rgb(0%,0%,0%);stroke-opacity:1;stroke-miterlimit:4;" d="M 135.898438 124.415527 C 135.898438 127.142288 133.683594 129.356025 130.957031 129.356025 C 128.226562 129.356025 126.015625 127.142288 126.015625 124.415527 C 126.015625 121.685251 128.226562 119.475028 130.957031 119.475028 C 133.683594 119.475028 135.898438 121.685251 135.898438 124.415527 Z M 135.898438 124.415527 " transform="matrix(-1,0,0,1.111667,443.9375,0)"/>
<path style="fill-rule:nonzero;fill:rgb(100%,84.705883%,23.921569%);fill-opacity:1;stroke-width:2;stroke-linecap:round;stroke-linejoin:round;stroke:rgb(0%,0%,0%);stroke-opacity:1;stroke-miterlimit:4;" d="M 132.851562 135.157421 C 132.851562 137.884183 130.640625 140.09792 127.910156 140.09792 C 125.183594 140.09792 122.972656 137.884183 122.972656 135.157421 C 122.972656 132.427146 125.183594 130.216923 127.910156 130.216923 C 130.640625 130.216923 132.851562 132.427146 132.851562 135.157421 Z M 132.851562 135.157421 " transform="matrix(-1,0,0,1.111667,443.9375,0)"/>
<path style="fill-rule:nonzero;fill:rgb(100%,84.705883%,23.921569%);fill-opacity:1;stroke-width:2;stroke-linecap:round;stroke-linejoin:round;stroke:rgb(0%,0%,0%);stroke-opacity:1;stroke-miterlimit:4;" d="M 132.96875 146.299897 C 132.96875 149.030172 130.753906 151.240395 128.027344 151.240395 C 125.296875 151.240395 123.085938 149.030172 123.085938 146.299897 C 123.085938 143.573135 125.296875 141.359398 128.027344 141.359398 C 130.753906 141.359398 132.96875 143.573135 132.96875 146.299897 Z M 132.96875 146.299897 " transform="matrix(-1,0,0,1.111667,443.9375,0)"/>
<path style="fill-rule:nonzero;fill:rgb(100%,84.705883%,23.921569%);fill-opacity:1;stroke-width:2;stroke-linecap:round;stroke-linejoin:round;stroke:rgb(0%,0%,0%);stroke-opacity:1;stroke-miterlimit:4;" d="M 135.09375 157.213971 C 135.09375 159.944247 132.878906 162.15447 130.152344 162.15447 C 127.425781 162.15447 125.210938 159.944247 125.210938 157.213971 C 125.210938 154.48721 127.425781 152.273473 130.152344 152.273473 C 132.878906 152.273473 135.09375 154.48721 135.09375 157.213971 Z M 135.09375 157.213971 " transform="matrix(-1,0,0,1.111667,443.9375,0)"/>
<path style="fill-rule:nonzero;fill:rgb(100%,84.705883%,23.921569%);fill-opacity:1;stroke-width:2;stroke-linecap:round;stroke-linejoin:round;stroke:rgb(0%,0%,0%);stroke-opacity:1;stroke-miterlimit:4;" d="M 215 119.53125 L 214.539062 125.965142 C 202.246094 124.081709 184.824219 117.23318 168.582031 117.23318 C 153.578125 117.23318 141.929688 123.234867 141.929688 138.372611 C 141.929688 153.292494 148.246094 166.859539 156.632812 180.651471 L 147.902344 184.787294 C 140.101562 169.621439 133.65625 156.736085 133.65625 139.293244 C 133.65625 124.693122 145.140625 110.338971 164.90625 110.338971 C 182.425781 110.338971 200.296875 116.242269 215 119.53125 Z M 215 119.53125 " transform="matrix(-1,0,0,1.111667,443.9375,0)"/>
<path style="fill-rule:nonzero;fill:rgb(100%,84.705883%,23.921569%);fill-opacity:1;stroke-width:2;stroke-linecap:round;stroke-linejoin:round;stroke:rgb(0%,0%,0%);stroke-opacity:1;stroke-miterlimit:4;" d="M 221.96875 53.126171 L 216.8125 62.782281 L 221.96875 72.406765 L 227.125 62.782281 Z M 221.96875 77.49836 L 216.8125 87.126359 L 221.96875 96.782468 L 227.125 87.126359 Z M 221.96875 77.49836 " transform="matrix(1,0,0,1.111667,0,0)"/>
<path style="fill-rule:nonzero;fill:rgb(100%,84.705883%,23.921569%);fill-opacity:1;stroke-width:2;stroke-linecap:round;stroke-linejoin:round;stroke:rgb(0%,0%,0%);stroke-opacity:1;stroke-miterlimit:4;" d="M 203.585938 74.95432 L 211.71875 80.109164 L 219.824219 74.95432 L 211.71875 69.795961 Z M 224.113281 74.95432 L 232.21875 80.109164 L 240.351562 74.95432 L 232.21875 69.795961 Z M 224.113281 74.95432 " transform="matrix(1,0,0,1.111667,0,0)"/>
<path style="fill-rule:nonzero;fill:rgb(100%,84.705883%,23.921569%);fill-opacity:1;stroke-width:2;stroke-linecap:round;stroke-linejoin:round;stroke:rgb(0%,0%,0%);stroke-opacity:1;stroke-miterlimit:4;" d="M 225.875 75.070277 C 225.875 77.227792 224.125 78.974185 221.96875 78.974185 C 219.8125 78.974185 218.0625 77.227792 218.0625 75.070277 C 218.0625 72.912762 219.8125 71.162856 221.96875 71.162856 C 224.125 71.162856 225.875 72.912762 225.875 75.070277 Z M 225.875 75.070277 " transform="matrix(1,0,0,1.111667,0,0)"/>
<path style="fill-rule:nonzero;fill:rgb(100%,84.705883%,23.921569%);fill-opacity:1;stroke-width:2;stroke-linecap:round;stroke-linejoin:round;stroke:rgb(0%,0%,0%);stroke-opacity:1;stroke-miterlimit:4;" d="M 232.421875 100.001171 C 232.421875 105.774457 227.742188 110.454929 221.96875 110.454929 C 216.195312 110.454929 211.515625 105.774457 211.515625 100.001171 C 211.515625 94.224372 216.195312 89.5439 221.96875 89.5439 C 227.742188 89.5439 232.421875 94.224372 232.421875 100.001171 Z M 232.421875 100.001171 " transform="matrix(1,0,0,1.111667,0,0)"/>
<path style="fill:none;stroke-width:1.5;stroke-linecap:round;stroke-linejoin:round;stroke:rgb(0%,0%,0%);stroke-opacity:1;stroke-miterlimit:4;" d="M 219.34375 89.874204 C 219.34375 92.991004 219.320312 94.800647 219.3125 96.501359 C 216.792969 96.610289 214.308594 96.877343 211.875 97.281437 M 232.0625 97.281437 C 229.628906 96.877343 227.144531 96.610289 224.625 96.501359 C 224.625 94.800647 224.625 92.998032 224.625 89.874204 M 211.84375 102.562781 C 215.136719 102.011104 218.519531 101.719453 221.96875 101.719453 C 225.417969 101.719453 228.800781 102.011104 232.09375 102.562781 " transform="matrix(1,0,0,1.111667,0,0)"/>
<path style="fill-rule:nonzero;fill:rgb(100%,84.705883%,23.921569%);fill-opacity:1;stroke-width:2;stroke-linecap:round;stroke-linejoin:round;stroke:rgb(0%,0%,0%);stroke-opacity:1;stroke-miterlimit:4;" d="M 211.75 117.686469 C 210.757812 134.770896 208.742188 152.168057 202.09375 164.810954 L 212.90625 160.436188 C 216.683594 146.110148 217.476562 127.595577 218.625 118.842532 Z M 232.1875 117.686469 L 225.3125 118.842532 C 226.460938 127.595577 227.253906 146.110148 231.03125 160.436188 L 241.84375 164.810954 C 235.195312 152.168057 233.179688 134.770896 232.1875 117.686469 Z M 232.1875 117.686469 " transform="matrix(1,0,0,1.111667,0,0)"/>
<path style="fill-rule:nonzero;fill:rgb(100%,84.705883%,23.921569%);fill-opacity:1;stroke-width:2;stroke-linecap:round;stroke-linejoin:round;stroke:rgb(0%,0%,0%);stroke-opacity:1;stroke-miterlimit:4;" d="M 221.953125 154.6875 C 209.039062 154.6875 199.554688 160.773519 198.984375 176.280219 C 195.828125 170.724794 182.472656 153.253842 170.015625 155.594078 C 162.605469 156.98557 156.058594 167.26012 157.171875 179.031578 C 151.035156 161.402502 133.066406 158.510588 119.953125 168.936235 C 131.59375 178.511525 136.773438 206.773566 146.578125 219.029938 L 297.328125 219.029938 C 307.132812 206.773566 312.34375 178.511525 323.984375 168.936235 C 310.871094 158.510588 292.902344 161.402502 286.765625 179.031578 C 287.878906 167.26012 281.300781 156.98557 273.890625 155.594078 C 261.433594 153.253842 248.109375 170.724794 244.953125 176.280219 C 244.382812 160.773519 234.867188 154.6875 221.953125 154.6875 Z M 221.953125 154.6875 " transform="matrix(1,0,0,1.111667,0,0)"/>
<path style="fill-rule:nonzero;fill:rgb(0%,0%,0%);fill-opacity:1;stroke-width:1.5;stroke-linecap:round;stroke-linejoin:round;stroke:rgb(0%,0%,0%);stroke-opacity:1;stroke-miterlimit:4;" d="M 297.105469 219.026424 C 297.105469 224.606447 263.445312 230.745174 221.96875 230.745174 C 180.492188 230.745174 146.832031 224.606447 146.832031 219.026424 C 146.832031 213.446402 180.492188 210.522864 221.96875 210.522864 C 263.445312 210.522864 297.105469 213.446402 297.105469 219.026424 Z M 297.105469 219.026424 " transform="matrix(1,0,0,1.111667,0,0)"/>
<path style="fill-rule:nonzero;fill:rgb(100%,84.705883%,23.921569%);fill-opacity:1;stroke-width:1.5;stroke-linecap:round;stroke-linejoin:round;stroke:rgb(0%,0%,0%);stroke-opacity:1;stroke-miterlimit:4;" d="M 225.472656 114.443169 C 225.472656 116.37931 223.902344 117.950009 221.96875 117.950009 C 220.035156 117.950009 218.464844 116.37931 218.464844 114.443169 C 218.464844 112.510542 220.035156 110.939843 221.96875 110.939843 C 223.902344 110.939843 225.472656 112.510542 225.472656 114.443169 Z M 225.472656 114.443169 " transform="matrix(1,0,0,1.111667,0,0)"/>
<path style="fill-rule:nonzero;fill:rgb(100%,84.705883%,23.921569%);fill-opacity:1;stroke-width:1.5;stroke-linecap:round;stroke-linejoin:round;stroke:rgb(0%,0%,0%);stroke-opacity:1;stroke-miterlimit:4;" d="M 225.703125 122.026096 C 225.703125 124.088737 224.03125 125.761338 221.96875 125.761338 C 219.90625 125.761338 218.234375 124.088737 218.234375 122.026096 C 218.234375 119.963456 219.90625 118.294368 221.96875 118.294368 C 224.03125 118.294368 225.703125 119.963456 225.703125 122.026096 Z M 225.703125 122.026096 " transform="matrix(1,0,0,1.111667,0,0)"/>
<path style="fill-rule:nonzero;fill:rgb(100%,84.705883%,23.921569%);fill-opacity:1;stroke-width:1.5;stroke-linecap:round;stroke-linejoin:round;stroke:rgb(0%,0%,0%);stroke-opacity:1;stroke-miterlimit:4;" d="M 226.046875 130.185298 C 226.046875 132.437687 224.222656 134.261385 221.96875 134.261385 C 219.714844 134.261385 217.890625 132.437687 217.890625 130.185298 C 217.890625 127.932909 219.714844 126.105697 221.96875 126.105697 C 224.222656 126.105697 226.046875 127.932909 226.046875 130.185298 Z M 226.046875 130.185298 " transform="matrix(1,0,0,1.111667,0,0)"/>
<path style="fill-rule:nonzero;fill:rgb(100%,84.705883%,23.921569%);fill-opacity:1;stroke-width:1.5;stroke-linecap:round;stroke-linejoin:round;stroke:rgb(0%,0%,0%);stroke-opacity:1;stroke-miterlimit:4;" d="M 226.621094 139.261619 C 226.621094 141.830257 224.539062 143.913981 221.96875 143.913981 C 219.398438 143.913981 217.316406 141.830257 217.316406 139.261619 C 217.316406 136.689468 219.398438 134.609258 221.96875 134.609258 C 224.539062 134.609258 226.621094 136.689468 226.621094 139.261619 Z M 226.621094 139.261619 " transform="matrix(1,0,0,1.111667,0,0)"/>
<path style="fill-rule:nonzero;fill:rgb(100%,84.705883%,23.921569%);fill-opacity:1;stroke-width:1.5;stroke-linecap:round;stroke-linejoin:round;stroke:rgb(0%,0%,0%);stroke-opacity:1;stroke-miterlimit:4;" d="M 227.082031 149.371018 C 227.082031 152.196168 224.792969 154.483696 221.96875 154.483696 C 219.144531 154.483696 216.855469 152.196168 216.855469 149.371018 C 216.855469 146.545868 219.144531 144.25834 221.96875 144.25834 C 224.792969 144.25834 227.082031 146.545868 227.082031 149.371018 Z M 227.082031 149.371018 " transform="matrix(1,0,0,1.111667,0,0)"/>
<path style=" stroke:none;fill-rule:nonzero;fill:rgb(0%,0%,0%);fill-opacity:1;" d="M 219.9375 176.984375 C 219.382812 176.976562 218.863281 177.496094 219 178.476562 C 219.164062 179.636719 219.367188 181.808594 219.5625 183.273438 C 219.785156 184.933594 220.652344 184.527344 220.875 183.238281 C 221.097656 181.945312 221.007812 181.117188 221.0625 178.722656 C 221.089844 177.523438 220.492188 176.992188 219.9375 176.984375 Z M 224 176.984375 C 223.445312 176.992188 222.847656 177.523438 222.875 178.722656 C 222.929688 181.117188 222.839844 181.945312 223.0625 183.238281 C 223.285156 184.527344 224.152344 184.933594 224.375 183.273438 C 224.570312 181.808594 224.773438 179.636719 224.9375 178.476562 C 225.074219 177.496094 224.554688 176.976562 224 176.984375 Z M 216.3125 177.609375 C 215.808594 177.6875 215.28125 178.253906 215.3125 178.859375 C 215.367188 179.964844 215.644531 181.292969 215.75 182.960938 C 215.859375 184.679688 216.953125 184.011719 217.0625 183.027344 C 217.171875 182.046875 217.296875 180.589844 217.1875 178.6875 C 217.144531 177.972656 216.867188 177.65625 216.53125 177.609375 C 216.460938 177.597656 216.386719 177.597656 216.3125 177.609375 Z M 227.40625 177.609375 C 227.070312 177.65625 226.792969 177.972656 226.75 178.6875 C 226.640625 180.589844 226.765625 182.046875 226.875 183.027344 C 226.984375 184.011719 228.078125 184.679688 228.1875 182.960938 C 228.292969 181.292969 228.570312 179.964844 228.625 178.859375 C 228.65625 178.253906 228.132812 177.6875 227.625 177.609375 C 227.554688 177.597656 227.476562 177.597656 227.40625 177.609375 Z M 211.96875 179.554688 C 211.503906 179.6875 211.082031 180.308594 211.21875 181.011719 C 211.496094 182.425781 211.75 183.992188 211.75 185.425781 C 211.75 186.65625 212.695312 186.214844 212.75 185.355469 C 212.804688 184.496094 212.90625 182.671875 212.90625 181.011719 C 212.90625 179.773438 212.433594 179.421875 211.96875 179.554688 Z M 231.65625 179.554688 C 231.328125 179.65625 231.03125 180.085938 231.03125 181.011719 C 231.03125 182.671875 231.132812 184.496094 231.1875 185.355469 C 231.242188 186.214844 232.1875 186.65625 232.1875 185.425781 C 232.1875 183.992188 232.441406 182.425781 232.71875 181.011719 C 232.855469 180.308594 232.433594 179.6875 231.96875 179.554688 C 231.851562 179.519531 231.765625 179.519531 231.65625 179.554688 Z M 172.5625 179.746094 C 172.007812 179.722656 171.621094 180.558594 172 181.480469 C 172.609375 182.957031 173.253906 183.886719 173.875 185.476562 C 174.429688 186.890625 175.277344 186.007812 175 185.023438 C 174.722656 184.042969 174.421875 182.945312 173.59375 180.855469 C 173.28125 180.074219 172.894531 179.757812 172.5625 179.746094 Z M 271.375 179.746094 C 271.042969 179.757812 270.65625 180.074219 270.34375 180.855469 C 269.515625 182.945312 269.214844 184.042969 268.9375 185.023438 C 268.660156 186.007812 269.507812 186.890625 270.0625 185.476562 C 270.683594 183.886719 271.328125 182.957031 271.9375 181.480469 C 272.316406 180.558594 271.929688 179.722656 271.375 179.746094 Z M 176.5625 179.8125 C 176.15625 179.953125 175.90625 180.527344 176.15625 181.203125 C 176.652344 182.554688 177.371094 183.941406 177.875 185.40625 C 178.316406 186.699219 179.300781 186.332031 178.96875 185.164062 C 178.636719 183.996094 178.539062 183.3125 177.875 181.097656 C 177.542969 179.992188 176.96875 179.675781 176.5625 179.8125 Z M 267.0625 179.8125 C 266.714844 179.898438 266.3125 180.269531 266.0625 181.097656 C 265.398438 183.3125 265.300781 183.996094 264.96875 185.164062 C 264.636719 186.332031 265.621094 186.699219 266.0625 185.40625 C 266.566406 183.941406 267.285156 182.554688 267.78125 181.203125 C 268.03125 180.527344 267.78125 179.953125 267.375 179.8125 C 267.273438 179.78125 267.179688 179.785156 267.0625 179.8125 Z M 181.5625 180.890625 C 181.046875 181 180.648438 181.871094 181 182.941406 C 181.441406 184.292969 182.070312 185.574219 182.625 187.109375 C 183.179688 188.644531 184.097656 188.335938 183.875 187.351562 C 183.652344 186.367188 183.382812 184.738281 182.71875 182.28125 C 182.429688 181.203125 181.960938 180.804688 181.5625 180.890625 Z M 262.375 180.890625 C 261.976562 180.804688 261.507812 181.203125 261.21875 182.28125 C 260.554688 184.738281 260.285156 186.367188 260.0625 187.351562 C 259.839844 188.335938 260.757812 188.644531 261.3125 187.109375 C 261.867188 185.574219 262.496094 184.292969 262.9375 182.941406 C 263.289062 181.871094 262.890625 181 262.375 180.890625 Z M 169.1875 181.65625 C 168.628906 181.71875 168.125 182.726562 168.46875 183.496094 C 169.023438 184.726562 169.371094 185.144531 169.90625 186.449219 C 170.460938 187.800781 171.066406 186.753906 170.84375 185.894531 C 170.621094 185.03125 170.339844 184.03125 170.0625 182.800781 C 169.859375 181.902344 169.523438 181.617188 169.1875 181.65625 Z M 274.75 181.65625 C 274.414062 181.617188 274.078125 181.902344 273.875 182.800781 C 273.597656 184.03125 273.316406 185.03125 273.09375 185.894531 C 272.871094 186.753906 273.476562 187.800781 274.03125 186.449219 C 274.566406 185.144531 274.914062 184.726562 275.46875 183.496094 C 275.8125 182.726562 275.308594 181.71875 274.75 181.65625 Z M 207.71875 184.765625 C 207.136719 184.765625 206.511719 185.625 206.71875 186.433594 C 207.050781 187.722656 207.5625 188.867188 207.9375 190.53125 C 208.269531 192.007812 209.210938 191.273438 209.15625 190.289062 C 209.101562 189.304688 208.949219 187.96875 208.5625 185.878906 C 208.417969 185.09375 208.070312 184.765625 207.71875 184.765625 Z M 236.21875 184.765625 C 235.867188 184.765625 235.519531 185.09375 235.375 185.878906 C 234.988281 187.96875 234.835938 189.304688 234.78125 190.289062 C 234.726562 191.273438 235.667969 192.007812 236 190.53125 C 236.375 188.867188 236.886719 187.722656 237.21875 186.433594 C 237.425781 185.625 236.800781 184.765625 236.21875 184.765625 Z M 221.96875 186.085938 C 221.25 186.085938 221.148438 187.160156 221.125 188.03125 C 221.042969 190.890625 219.976562 193.664062 219.0625 195.046875 C 218.148438 196.433594 216.808594 196.0625 215.5625 195.328125 C 214.316406 194.589844 213.578125 194.035156 212.25 192.929688 C 210.921875 191.824219 209.917969 192.46875 211.5 194.980469 C 216.117188 202.292969 221.125 208.546875 221.125 220.476562 C 221.125 222.019531 221.367188 222.492188 221.96875 222.492188 C 222.570312 222.492188 222.84375 222.019531 222.84375 220.476562 C 222.84375 208.546875 227.820312 202.292969 232.4375 194.980469 C 234.019531 192.46875 233.015625 191.824219 231.6875 192.929688 C 230.359375 194.035156 229.621094 194.589844 228.375 195.328125 C 227.128906 196.0625 225.789062 196.433594 224.875 195.046875 C 223.960938 193.664062 222.894531 190.890625 222.8125 188.03125 C 222.789062 187.160156 222.6875 186.085938 221.96875 186.085938 Z M 186.6875 184.296875 C 186.625 184.292969 186.554688 184.3125 186.5 184.332031 C 186.230469 184.425781 186.050781 184.785156 186.15625 185.40625 C 186.339844 186.519531 187.035156 188.703125 187.3125 189.75 C 187.589844 190.792969 188.746094 190.574219 188.46875 189.160156 C 188.191406 187.746094 188.207031 187.316406 187.875 185.71875 C 187.695312 184.847656 187.128906 184.308594 186.6875 184.296875 Z M 257.25 184.296875 C 256.808594 184.308594 256.242188 184.847656 256.0625 185.71875 C 255.730469 187.316406 255.746094 187.746094 255.46875 189.160156 C 255.191406 190.574219 256.347656 190.792969 256.625 189.75 C 256.902344 188.703125 257.597656 186.519531 257.78125 185.40625 C 257.886719 184.785156 257.707031 184.425781 257.4375 184.332031 C 257.382812 184.3125 257.3125 184.292969 257.25 184.296875 Z M 165.71875 184.746094 C 165.140625 184.796875 164.726562 185.605469 165.3125 186.796875 C 165.945312 188.082031 167.035156 189.695312 167.53125 190.617188 C 168.027344 191.539062 168.890625 190.917969 168.28125 189.75 C 167.671875 188.582031 167.46875 187.242188 166.75 185.582031 C 166.480469 184.957031 166.066406 184.71875 165.71875 184.746094 Z M 278.21875 184.746094 C 277.871094 184.71875 277.457031 184.957031 277.1875 185.582031 C 276.46875 187.242188 276.265625 188.582031 275.65625 189.75 C 275.046875 190.917969 275.910156 191.539062 276.40625 190.617188 C 276.902344 189.695312 277.992188 188.082031 278.625 186.796875 C 279.210938 185.605469 278.796875 184.796875 278.21875 184.746094 Z M 134.03125 188.449219 C 133.363281 188.410156 133.152344 189.75 133.78125 190.636719 C 134.695312 191.925781 135.328125 192.613281 136.375 193.660156 C 137.203125 194.488281 137.445312 193.410156 137.03125 192.582031 C 136.617188 191.753906 136.015625 190.90625 135.1875 189.523438 C 134.734375 188.765625 134.335938 188.464844 134.03125 188.449219 Z M 309.90625 188.449219 C 309.601562 188.464844 309.203125 188.765625 308.75 189.523438 C 307.921875 190.90625 307.320312 191.753906 306.90625 192.582031 C 306.492188 193.410156 306.734375 194.488281 307.5625 193.660156 C 308.609375 192.613281 309.242188 191.925781 310.15625 190.636719 C 310.785156 189.75 310.574219 188.410156 309.90625 188.449219 Z M 139.0625 189.558594 C 138.53125 189.566406 138.179688 190.003906 138.59375 191.019531 C 139.1875 192.46875 139.972656 194.117188 140.46875 195.222656 C 140.964844 196.328125 142.484375 196.699219 141.875 194.980469 C 141.265625 193.257812 141.148438 192.375 140.59375 190.777344 C 140.316406 189.976562 139.59375 189.550781 139.0625 189.558594 Z M 304.875 189.558594 C 304.34375 189.550781 303.621094 189.976562 303.34375 190.777344 C 302.789062 192.375 302.671875 193.257812 302.0625 194.980469 C 301.453125 196.699219 302.972656 196.328125 303.46875 195.222656 C 303.964844 194.117188 304.75 192.46875 305.34375 191.019531 C 305.757812 190.003906 305.40625 189.566406 304.875 189.558594 Z M 129.3125 189.941406 C 128.539062 189.949219 128.472656 190.8125 129.15625 191.367188 C 130.070312 192.105469 131.15625 192.921875 132.21875 193.867188 C 133.460938 194.972656 133.945312 193.957031 133.28125 193.035156 C 132.617188 192.113281 131.972656 191.175781 130.3125 190.253906 C 129.898438 190.023438 129.570312 189.9375 129.3125 189.941406 Z M 314.625 189.941406 C 314.367188 189.9375 314.039062 190.023438 313.625 190.253906 C 311.964844 191.175781 311.320312 192.113281 310.65625 193.035156 C 309.992188 193.957031 310.476562 194.972656 311.71875 193.867188 C 312.78125 192.921875 313.867188 192.105469 314.78125 191.367188 C 315.464844 190.8125 315.398438 189.949219 314.625 189.941406 Z M 204.96875 190.742188 C 204.535156 190.808594 204.164062 191.355469 204.34375 192.0625 C 204.675781 193.351562 205.050781 194.71875 205.28125 196.054688 C 205.503906 197.347656 206.847656 197.363281 206.625 196.195312 C 206.402344 195.027344 206.292969 193.566406 205.90625 191.78125 C 205.761719 191.113281 205.457031 190.792969 205.15625 190.742188 C 205.09375 190.730469 205.03125 190.730469 204.96875 190.742188 Z M 238.78125 190.742188 C 238.480469 190.792969 238.175781 191.113281 238.03125 191.78125 C 237.644531 193.566406 237.535156 195.027344 237.3125 196.195312 C 237.089844 197.363281 238.433594 197.347656 238.65625 196.054688 C 238.886719 194.71875 239.261719 193.351562 239.59375 192.0625 C 239.773438 191.355469 239.402344 190.808594 238.96875 190.742188 C 238.90625 190.730469 238.84375 190.730469 238.78125 190.742188 Z M 174.875 188.535156 C 174.535156 188.636719 174.339844 189.359375 174.59375 190.375 C 176.003906 196 176.4375 198.960938 176.1875 200.34375 C 175.9375 201.726562 175.257812 201.917969 174.34375 201.457031 C 173.429688 200.996094 172.359375 200.332031 171.53125 199.683594 C 170.703125 199.039062 169.839844 199.8125 171.03125 200.902344 C 177.085938 206.433594 181.28125 212.757812 182.90625 220.425781 C 183.238281 221.992188 184.125 222.175781 183.875 220.425781 C 182.503906 210.765625 182.238281 202.824219 184.3125 197.84375 C 185.09375 195.972656 184.308594 194.175781 183.0625 197.21875 C 182.234375 199.246094 180.890625 200.046875 179.8125 198.296875 C 178.734375 196.542969 176.507812 191.871094 175.84375 189.75 C 175.59375 188.953125 175.289062 188.585938 175.03125 188.535156 C 174.976562 188.523438 174.921875 188.519531 174.875 188.535156 Z M 268.90625 188.535156 C 268.648438 188.585938 268.34375 188.953125 268.09375 189.75 C 267.429688 191.871094 265.203125 196.542969 264.125 198.296875 C 263.046875 200.046875 261.703125 199.246094 260.875 197.21875 C 259.628906 194.175781 258.84375 195.972656 259.625 197.84375 C 261.699219 202.824219 261.433594 210.765625 260.0625 220.425781 C 259.8125 222.175781 260.699219 221.992188 261.03125 220.425781 C 262.65625 212.757812 266.851562 206.433594 272.90625 200.902344 C 274.097656 199.8125 273.234375 199.039062 272.40625 199.683594 C 271.578125 200.332031 270.507812 200.996094 269.59375 201.457031 C 268.679688 201.917969 268 201.726562 267.75 200.34375 C 267.5 198.960938 267.933594 196 269.34375 190.375 C 269.597656 189.359375 269.402344 188.636719 269.0625 188.535156 C 269.015625 188.519531 268.960938 188.523438 268.90625 188.535156 Z M 144.4375 191.226562 C 143.890625 191.234375 143.4375 191.660156 143.6875 192.582031 C 144.085938 194.058594 144.910156 195.65625 145.1875 196.578125 C 145.464844 197.5 146.351562 197.070312 146.1875 195.777344 C 146.023438 194.488281 145.941406 193.71875 145.71875 192.304688 C 145.609375 191.597656 144.984375 191.21875 144.4375 191.226562 Z M 299.5 191.226562 C 298.953125 191.21875 298.328125 191.597656 298.21875 192.304688 C 297.996094 193.71875 297.914062 194.488281 297.75 195.777344 C 297.585938 197.070312 298.472656 197.5 298.75 196.578125 C 299.027344 195.65625 299.851562 194.058594 300.25 192.582031 C 300.5 191.660156 300.046875 191.234375 299.5 191.226562 Z M 163.21875 189.296875 C 162.582031 189.171875 162.492188 190.992188 163.03125 191.730469 C 163.75 192.714844 164.75 193.902344 165.75 195.238281 C 166.578125 196.34375 167.089844 195.363281 166.59375 194.441406 C 166.097656 193.515625 165.359375 192.535156 164.03125 190.203125 C 163.699219 189.617188 163.429688 189.339844 163.21875 189.296875 Z M 280.71875 189.296875 C 280.507812 189.339844 280.238281 189.617188 279.90625 190.203125 C 278.578125 192.535156 277.839844 193.515625 277.34375 194.441406 C 276.847656 195.363281 277.359375 196.34375 278.1875 195.238281 C 279.1875 193.902344 280.1875 192.714844 280.90625 191.730469 C 281.445312 190.992188 281.355469 189.171875 280.71875 189.296875 Z M 148.71875 193.695312 C 148.324219 193.664062 147.992188 194.019531 148.15625 194.910156 C 148.386719 196.152344 148.722656 197.179688 149 198.347656 C 149.277344 199.515625 150 199.316406 150 198.210938 C 150 197.101562 149.820312 195.867188 149.65625 194.699219 C 149.574219 194.117188 149.113281 193.722656 148.71875 193.695312 Z M 295.21875 193.695312 C 294.824219 193.722656 294.363281 194.117188 294.28125 194.699219 C 294.117188 195.867188 293.9375 197.101562 293.9375 198.210938 C 293.9375 199.316406 294.660156 199.515625 294.9375 198.347656 C 295.214844 197.179688 295.550781 196.152344 295.78125 194.910156 C 295.945312 194.019531 295.613281 193.664062 295.21875 193.695312 Z M 161.8125 195.273438 C 161.195312 195.378906 160.648438 196.042969 161.375 197.078125 C 162.535156 198.738281 163.808594 199.902344 164.25 200.519531 C 164.691406 201.132812 165.8125 200.90625 165.09375 199.617188 C 164.359375 198.296875 163.246094 196.707031 162.75 195.726562 C 162.5625 195.355469 162.183594 195.210938 161.8125 195.273438 Z M 281.875 195.273438 C 281.601562 195.304688 281.328125 195.449219 281.1875 195.726562 C 280.691406 196.707031 279.578125 198.296875 278.84375 199.617188 C 278.125 200.90625 279.246094 201.132812 279.6875 200.519531 C 280.128906 199.902344 281.402344 198.738281 282.5625 197.078125 C 283.289062 196.042969 282.742188 195.378906 282.125 195.273438 C 282.03125 195.257812 281.964844 195.261719 281.875 195.273438 Z M 141.15625 199.910156 C 140.667969 199.863281 140.5 200.300781 141.15625 201.300781 C 142.648438 203.574219 144.296875 207.019531 144.40625 208.492188 C 144.515625 209.96875 143.859375 209.953125 143.25 209.953125 C 141.425781 209.953125 140.535156 208.472656 138.875 208.042969 C 137.214844 207.609375 136.976562 208.582031 138.15625 209.535156 C 144.238281 214.453125 150.335938 219.9375 152.78125 224.925781 C 153.777344 226.953125 155.121094 227.695312 154.375 225.757812 C 152.089844 219.824219 151.535156 214.800781 152.03125 211.757812 C 152.527344 208.714844 153.207031 206.667969 153.125 204.914062 C 153.042969 203.164062 152.148438 203.28125 151.78125 204.914062 C 151.53125 206.019531 151.050781 207.488281 150.71875 208.042969 C 150.386719 208.59375 149.054688 208.90625 147.78125 207 C 146.507812 205.09375 143.300781 201.425781 142.25 200.503906 C 141.855469 200.15625 141.449219 199.941406 141.15625 199.910156 Z M 302.78125 199.910156 C 302.488281 199.941406 302.082031 200.15625 301.6875 200.503906 C 300.636719 201.425781 297.429688 205.09375 296.15625 207 C 294.882812 208.90625 293.550781 208.59375 293.21875 208.042969 C 292.886719 207.488281 292.40625 206.019531 292.15625 204.914062 C 291.789062 203.28125 290.894531 203.164062 290.8125 204.914062 C 290.730469 206.667969 291.410156 208.714844 291.90625 211.757812 C 292.402344 214.800781 291.847656 219.824219 289.5625 225.757812 C 288.816406 227.695312 290.160156 226.953125 291.15625 224.925781 C 293.601562 219.9375 299.699219 214.453125 305.78125 209.535156 C 306.960938 208.582031 306.722656 207.609375 305.0625 208.042969 C 303.402344 208.472656 302.511719 209.953125 300.6875 209.953125 C 300.078125 209.953125 299.421875 209.96875 299.53125 208.492188 C 299.640625 207.019531 301.289062 203.574219 302.78125 201.300781 C 303.4375 200.300781 303.269531 199.863281 302.78125 199.910156 Z M 302.78125 199.910156 "/>
<path style="fill-rule:nonzero;fill:rgb(100%,84.705883%,23.921569%);fill-opacity:1;stroke-width:1.5;stroke-linecap:round;stroke-linejoin:round;stroke:rgb(0%,0%,0%);stroke-opacity:1;stroke-miterlimit:4;" d="M 150.125 212.652268 L 152.078125 218.826134 M 154.136719 211.48215 L 155.863281 217.719265 M 158.46875 210.768834 L 159.65625 217.132449 M 162.488281 209.964159 L 163.761719 216.313718 M 167.644531 209.454648 L 168.679688 215.846374 M 173.128906 209.461675 L 174.242188 215.839346 M 178.484375 207.652033 L 179.289062 214.075384 M 183.519531 207.975309 L 184.324219 214.402174 M 188.394531 207.325244 L 189.199219 213.752108 M 193.289062 206.82276 L 193.730469 213.28125 M 198.515625 206.819247 L 198.898438 213.284764 M 203.257812 206.492457 L 203.582031 212.957974 M 208.484375 206.165667 L 208.753906 212.634698 M 214.496094 206.004029 L 214.765625 212.47306 M 293.8125 212.652268 L 291.859375 218.826134 M 289.800781 211.48215 L 288.074219 217.719265 M 285.46875 210.768834 L 284.28125 217.132449 M 281.449219 209.964159 L 280.175781 216.313718 M 276.292969 209.454648 L 275.257812 215.846374 M 270.808594 209.461675 L 269.695312 215.839346 M 265.453125 207.652033 L 264.648438 214.075384 M 260.417969 207.975309 L 259.613281 214.402174 M 255.542969 207.325244 L 254.738281 213.752108 M 250.648438 206.82276 L 250.207031 213.28125 M 245.421875 206.819247 L 245.039062 213.284764 M 240.679688 206.492457 L 240.355469 212.957974 M 235.453125 206.165667 L 235.183594 212.634698 M 229.441406 206.004029 L 229.171875 212.47306 M 221.96875 205.582365 L 221.96875 212.70849 " transform="matrix(1,0,0,1.111667,0,0)"/>
</g>
</svg>
