<?xml version="1.0" encoding="UTF-8"?>
<svg xmlns="http://www.w3.org/2000/svg" xmlns:xlink="http://www.w3.org/1999/xlink" width="1000px" height="667px" viewBox="0 0 1000 667" version="1.1">
<g id="surface1">
<rect x="0" y="0" width="1000" height="667" style="fill:rgb(0%,58.431375%,26.274511%);fill-opacity:1;stroke:none;"/>
<path style=" stroke:none;fill-rule:nonzero;fill:rgb(100%,100%,100%);fill-opacity:1;" d="M 0 0 L 1000 0 L 1000 466.898438 L 0 466.898438 Z M 0 0 "/>
<path style=" stroke:none;fill-rule:nonzero;fill:rgb(0%,12.54902%,62.352943%);fill-opacity:1;" d="M 0 0 L 1000 0 L 1000 200.101562 L 0 200.101562 Z M 0 0 "/>
<path style="fill-rule:nonzero;fill:rgb(0%,0%,0%);fill-opacity:1;stroke-width:1;stroke-linecap:butt;stroke-linejoin:miter;stroke:rgb(0%,0%,0%);stroke-opacity:1;stroke-miterlimit:4;" d="M 224.75918 95.568427 C 223.050586 95.605322 221.382422 97.499297 221.382422 97.499297 L 221.530078 117.73215 L 215.142187 124.424311 L 220.311914 124.424311 L 220.267969 136.027104 L 189.678516 177.220179 L 185.155664 175.658265 L 177.250781 192.519561 C 177.250781 192.519561 196.801172 204.76012 225.175781 204.426302 C 256.320703 204.055589 273.239648 191.955585 273.239648 191.955585 L 265.072852 175.310392 L 261.073828 177.049756 L 230.090625 136.071027 L 230.04668 124.122119 L 235.218164 124.122119 L 228.179883 117.512533 L 228.22207 97.353472 C 228.22207 97.353472 226.469531 95.533288 224.760937 95.570184 Z M 224.75918 95.568427 " transform="matrix(2.222222,0,0,2.223333,0,0)"/>
<path style="fill:none;stroke-width:5;stroke-linecap:butt;stroke-linejoin:miter;stroke:rgb(0%,0%,0%);stroke-opacity:1;stroke-miterlimit:4;" d="M 235.430859 144.010612 L 214.277344 144.010612 C 214.277344 144.010612 206.599219 127.83452 207.84375 116.525136 C 209.111133 105.01019 215.692383 99.561938 224.442773 99.465306 C 234.7875 99.351106 240.208594 104.535818 241.846875 116.064819 C 243.469336 127.488404 235.429102 144.010612 235.429102 144.010612 Z M 235.430859 144.010612 " transform="matrix(2.222222,0,0,2.223333,0,0)"/>
<path style=" stroke:none;fill-rule:nonzero;fill:rgb(100%,100%,100%);fill-opacity:1;" d="M 417.3125 405.914062 C 416.542969 406.9375 410.90625 418.214844 410.90625 418.214844 L 420.640625 416.164062 Z M 417.3125 405.914062 "/>
<path style=" stroke:none;fill-rule:nonzero;fill:rgb(100%,100%,100%);fill-opacity:1;" d="M 422.933594 420.519531 L 412.6875 423.851562 L 424.984375 428.722656 Z M 422.933594 420.519531 "/>
<path style=" stroke:none;fill-rule:nonzero;fill:rgb(100%,100%,100%);fill-opacity:1;" d="M 427.554688 406.160156 L 432.679688 421.277344 L 445.230469 417.691406 L 441.898438 410.515625 Z M 427.554688 406.160156 "/>
<path style=" stroke:none;fill-rule:nonzero;fill:rgb(100%,100%,100%);fill-opacity:1;" d="M 435.488281 426.679688 L 437.28125 432.832031 L 453.929688 436.929688 L 447.269531 422.835938 Z M 435.488281 426.679688 "/>
<path style=" stroke:none;fill-rule:nonzero;fill:rgb(100%,100%,100%);fill-opacity:1;" d="M 453.933594 413.851562 L 459.824219 427.945312 L 472.375 423.078125 L 468.277344 416.925781 Z M 453.933594 413.851562 "/>
<path style=" stroke:none;fill-rule:nonzero;fill:rgb(100%,100%,100%);fill-opacity:1;" d="M 462.132812 433.082031 L 464.183594 438.464844 L 483.648438 441.285156 L 475.453125 428.46875 Z M 462.132812 433.082031 "/>
<path style=" stroke:none;fill-rule:nonzero;fill:rgb(100%,100%,100%);fill-opacity:1;" d="M 480.820312 417.964844 L 487.996094 430.523438 L 506.179688 423.859375 L 504.132812 418.988281 Z M 480.820312 417.964844 "/>
<path style=" stroke:none;fill-rule:nonzero;fill:rgb(100%,100%,100%);fill-opacity:1;" d="M 491.332031 435.128906 L 495.175781 441.792969 L 517.714844 441.023438 L 509.261719 428.464844 Z M 491.332031 435.128906 "/>
<path style=" stroke:none;fill-rule:nonzero;fill:rgb(100%,100%,100%);fill-opacity:1;" d="M 515.15625 418.476562 L 521.304688 428.984375 L 535.648438 422.0625 L 531.804688 416.425781 Z M 515.15625 418.476562 "/>
<path style=" stroke:none;fill-rule:nonzero;fill:rgb(100%,100%,100%);fill-opacity:1;" d="M 538.710938 426.414062 L 524.367188 433.589844 L 528.210938 439.738281 L 547.421875 436.664062 Z M 538.710938 426.414062 "/>
<path style=" stroke:none;fill-rule:nonzero;fill:rgb(100%,100%,100%);fill-opacity:1;" d="M 543.332031 415.386719 L 550.761719 424.609375 L 562.800781 415.128906 L 558.703125 410.773438 Z M 543.332031 415.386719 "/>
<path style=" stroke:none;fill-rule:nonzero;fill:rgb(100%,100%,100%);fill-opacity:1;" d="M 565.355469 420.253906 L 553.828125 428.96875 L 556.902344 434.347656 L 572.785156 430.25 Z M 565.355469 420.253906 "/>
<path style=" stroke:none;fill-rule:nonzero;fill:rgb(100%,100%,100%);fill-opacity:1;" d="M 581.246094 402.066406 L 584.0625 406.167969 L 576.121094 417.957031 L 567.925781 407.449219 Z M 581.246094 402.066406 "/>
<path style=" stroke:none;fill-rule:nonzero;fill:rgb(100%,100%,100%);fill-opacity:1;" d="M 586.621094 412.316406 L 591.488281 422.054688 L 581.753906 425.386719 L 580.988281 420.773438 Z M 586.621094 412.316406 "/>
</g>
</svg>
