<?xml version="1.0" encoding="UTF-8"?>
<svg xmlns="http://www.w3.org/2000/svg" xmlns:xlink="http://www.w3.org/1999/xlink" width="1000px" height="667px" viewBox="0 0 1000 667" version="1.1">
<g id="surface1">
<rect x="0" y="0" width="1000" height="667" style="fill:rgb(78.431374%,6.27451%,18.039216%);fill-opacity:1;stroke:none;"/>
<path style=" stroke:none;fill-rule:nonzero;fill:rgb(100%,81.960785%,0%);fill-opacity:1;" d="M 0 0 L 666.667969 0 L 666.667969 667 L 0 667 Z M 0 0 "/>
<path style=" stroke:none;fill-rule:nonzero;fill:rgb(0%,23.921569%,64.705884%);fill-opacity:1;" d="M 0 0 L 333.332031 0 L 333.332031 667 L 0 667 Z M 0 0 "/>
<path style=" stroke:none;fill-rule:nonzero;fill:rgb(0%,0%,0%);fill-opacity:1;" d="M 470.9375 135.800781 C 469.148438 135.800781 467.585938 136.410156 466.671875 137.359375 C 468.121094 137.921875 469.175781 139.703125 469.175781 141.871094 L 469.175781 147.375 L 465.050781 147.375 C 463.4375 147.375 462.097656 145.988281 461.667969 144.074219 C 460.957031 145.289062 460.5 147.375 460.5 149.765625 C 460.5 152.152344 460.957031 154.238281 461.667969 155.453125 C 462.089844 153.519531 463.425781 152.117188 465.050781 152.117188 L 469.175781 152.117188 L 469.175781 178.558594 C 469.175781 180.636719 468.199219 182.363281 466.84375 182.996094 C 468.8125 183.355469 470.503906 186.875 470.96875 188.800781 C 471.433594 186.878906 473.125 183.355469 475.089844 182.996094 C 473.671875 182.351562 472.71875 180.5625 472.730469 178.558594 L 472.730469 152.113281 L 476.855469 152.113281 C 478.46875 152.113281 479.808594 153.5 480.238281 155.417969 C 480.949219 154.199219 481.40625 152.113281 481.40625 149.722656 C 481.40625 147.335938 480.949219 145.25 480.238281 144.035156 C 479.816406 145.96875 478.480469 147.371094 476.855469 147.371094 L 472.730469 147.371094 L 472.730469 141.871094 C 472.730469 139.714844 473.769531 137.933594 475.203125 137.355469 C 474.292969 136.410156 472.730469 135.800781 470.9375 135.800781 Z M 470.9375 135.800781 "/>
<path style=" stroke:none;fill-rule:nonzero;fill:rgb(100%,81.960785%,0%);fill-opacity:1;" d="M 470.9375 136.941406 C 470.007812 136.941406 469.1875 137.175781 468.492188 137.472656 C 469.417969 138.546875 470.03125 140.101562 470.03125 141.875 L 470.03125 147.375 C 470.03125 147.453125 470.011719 147.527344 470 147.605469 L 470 148.476562 L 469.347656 148.476562 C 469.289062 148.492188 469.234375 148.515625 469.175781 148.515625 L 465.050781 148.515625 C 463.734375 148.515625 462.585938 147.710938 461.78125 146.503906 C 461.550781 147.4375 461.355469 148.503906 461.355469 149.765625 C 461.355469 151.011719 461.527344 152.105469 461.753906 153.03125 C 462.554688 151.796875 463.71875 150.980469 465.050781 150.980469 L 470.027344 150.980469 C 470.023438 151.097656 470 151.207031 470 151.324219 L 470 151.890625 C 470.011719 151.964844 470.027344 152.039062 470.027344 152.117188 L 470.027344 178.5625 C 470.027344 180.28125 469.363281 181.628906 468.492188 182.699219 C 469.105469 183.207031 469.652344 183.851562 470.113281 184.597656 C 470.523438 185.25 470.6875 185.894531 470.964844 186.566406 C 471.25 185.894531 471.410156 185.25 471.820312 184.597656 C 472.273438 183.867188 472.8125 183.238281 473.414062 182.738281 C 472.53125 181.671875 471.875 180.289062 471.875 178.5625 L 471.875 151.019531 L 472.558594 151.019531 C 472.613281 151.003906 472.671875 150.980469 472.730469 150.980469 L 476.855469 150.980469 C 478.167969 150.980469 479.320312 151.785156 480.125 152.992188 C 480.355469 152.058594 480.550781 150.992188 480.550781 149.726562 C 480.550781 148.484375 480.375 147.390625 480.152344 146.464844 C 479.347656 147.699219 478.183594 148.511719 476.855469 148.511719 L 472.730469 148.511719 C 472.671875 148.511719 472.613281 148.492188 472.558594 148.476562 L 471.90625 148.476562 L 471.90625 147.601562 C 471.894531 147.527344 471.875 147.453125 471.875 147.375 L 471.875 141.875 C 471.875 140.121094 472.476562 138.585938 473.382812 137.511719 C 472.683594 137.203125 471.886719 136.941406 470.9375 136.941406 "/>
<path style=" stroke:none;fill-rule:nonzero;fill:rgb(0%,0%,0%);fill-opacity:1;" d="M 522.5625 232.699219 C 520.042969 230.3125 517.972656 227.613281 516.503906 224.464844 C 512.960938 216.890625 511.46875 207.589844 511.46875 198.136719 C 511.46875 194.140625 514.824219 189.644531 514.824219 186.410156 C 514.824219 181.527344 514.484375 178.597656 514.484375 178.597656 C 515.675781 178.8125 517.753906 181.632812 517.753906 181.632812 C 517.753906 181.632812 517.683594 173.527344 515.761719 172.109375 C 515.761719 172.109375 516.539062 171.042969 519.347656 170.933594 C 518.558594 168.269531 514.652344 165.015625 514.652344 165.015625 C 514.847656 164.550781 515.210938 164.144531 515.675781 163.800781 C 516.65625 163.078125 518.035156 162.601562 519.089844 162.320312 C 517.964844 162.011719 516.671875 161.535156 515.25 160.917969 C 512.003906 159.507812 508.183594 157.4375 504.613281 155.152344 C 498.097656 150.980469 493.132812 150.710938 490.394531 150.710938 C 488.40625 150.710938 485.484375 150.785156 483.769531 152.304688 C 482.199219 153.695312 482.324219 155.503906 481.777344 156.136719 C 480.480469 157.632812 478.265625 157.578125 477.195312 157.578125 C 470.285156 157.578125 470.03125 167.445312 470.03125 167.445312 C 470.03125 167.445312 471.796875 163.878906 474.921875 163.878906 C 480.117188 163.878906 484.050781 167.652344 484.050781 169.074219 C 484.050781 169.652344 483.515625 169.757812 483.484375 169.757812 C 480.089844 169.757812 474.96875 167.152344 472.246094 167.027344 L 472.246094 168.808594 C 478.320312 171.628906 484.476562 175.617188 484.476562 193.203125 C 484.476562 204.277344 483.484375 215.578125 479.328125 224.464844 C 477.859375 227.613281 475.765625 230.308594 473.242188 232.699219 L 497.902344 238.628906 Z M 522.5625 232.699219 "/>
<path style=" stroke:none;fill-rule:nonzero;fill:rgb(0%,0%,0%);fill-opacity:1;" d="M 497.902344 225.289062 L 473.242188 232.699219 C 472.121094 232.246094 466.847656 230.0625 463.148438 227.3125 C 456.632812 222.472656 453.253906 217.65625 445.515625 217.183594 L 445.515625 209.328125 C 445.515625 205.132812 446.652344 201.351562 446.652344 197.339844 C 443.390625 196.171875 434.332031 181.398438 425.976562 174.839844 C 413.679688 185.464844 404.160156 202.902344 404.160156 210.921875 C 404.160156 210.921875 404.53125 383.238281 404.160156 443.269531 C 404.160156 446.726562 402.597656 451.617188 402.597656 451.617188 C 407.085938 449.082031 415.3125 434.066406 417.046875 428.359375 L 417.046875 431.089844 C 423.824219 426.964844 428.789062 416.132812 431.011719 410.527344 C 431.050781 411.335938 431.152344 413.371094 431.152344 413.371094 C 437.207031 406.289062 444.917969 364.429688 444.917969 364.429688 L 457.765625 381.273438 C 457.765625 381.273438 453.117188 393.851562 451.308594 396.105469 C 451.308594 396.105469 452.519531 396.3125 453.894531 396.296875 C 453.050781 397.917969 446.589844 410.320312 444.566406 415 C 442.671875 419.375 441.335938 417.429688 438.425781 417.429688 C 436.007812 417.429688 430.535156 422.558594 429.636719 424.636719 C 428.691406 426.820312 427.988281 429.472656 427.988281 431.65625 C 427.988281 434.058594 429.894531 437.347656 429.894531 437.347656 C 430.097656 436.195312 430.460938 435.792969 430.460938 435.792969 C 430.460938 435.792969 435.46875 444.113281 436.207031 445.199219 C 436.78125 446.046875 439.34375 446.597656 440.246094 445.503906 C 442.503906 442.765625 444.691406 440.847656 446.699219 436.890625 C 447.734375 434.851562 447.816406 432.515625 449.003906 430.328125 C 452.984375 423.003906 460.902344 408.984375 462.710938 405.78125 C 462.832031 406.671875 462.9375 407.414062 463.054688 408.324219 C 465.105469 402.796875 474.96875 392.234375 474.96875 392.234375 L 485.292969 398.574219 C 485.292969 398.574219 466.019531 457.664062 448.914062 466.75 C 448.914062 466.75 456.355469 470.96875 465.496094 477.296875 C 466.867188 478.253906 468.234375 479.230469 469.589844 480.222656 C 470.816406 478.25 472 476.238281 473.148438 474.1875 C 478.609375 464.433594 483.953125 453.132812 483.953125 453.132812 C 484.328125 456.066406 481.441406 465.132812 476.5625 476.3125 C 475.601562 478.511719 474.597656 480.808594 473.488281 483.140625 C 474.730469 484.082031 475.960938 485.046875 477.1875 486.027344 C 486.238281 493.292969 494.742188 501.644531 497.890625 509.320312 L 500.113281 501.902344 L 497.890625 494.484375 L 497.890625 235.128906 L 499 231.421875 Z M 497.902344 225.289062 "/>
<path style=" stroke:none;fill-rule:nonzero;fill:rgb(67.843139%,48.627451%,34.901962%);fill-opacity:1;" d="M 497.890625 494.484375 C 494.695312 489.863281 488.019531 484.21875 480.511719 479.007812 C 489.585938 457.28125 494.085938 422.9375 491.972656 416.101562 C 491.972656 416.101562 488.25 433.910156 483.699219 444.0625 C 479.484375 453.460938 474.296875 464.035156 469.277344 471.871094 C 465.152344 469.523438 461.152344 467.554688 457.730469 466.179688 C 472.765625 450.734375 488.136719 399.671875 488.136719 399.671875 L 472.238281 389.84375 C 472.238281 389.84375 466.292969 399.09375 464.363281 400.8125 C 464.363281 400.8125 463.535156 396.210938 463.054688 394.589844 C 463.054688 394.589844 460.773438 396.886719 459.527344 396.941406 C 459.527344 396.941406 459.15625 393.820312 458.875 391.78125 C 457.304688 393.175781 454.691406 392.882812 454.691406 392.882812 C 456.984375 391.433594 459.699219 382.5625 459.699219 382.5625 L 444.519531 355.628906 C 444.519531 355.628906 439.1875 389.804688 433.113281 396.832031 L 433.113281 249.660156 L 437.921875 255.617188 L 445.203125 246.546875 L 445.203125 239.644531 L 438.746094 247.6875 L 438.746094 226.855469 C 439.492188 225.363281 440.195312 223.832031 440.851562 222.265625 C 441.894531 224.695312 445.273438 232.144531 449.238281 236.722656 C 449.894531 233.179688 454.1875 229.816406 454.1875 229.816406 C 454.1875 229.816406 455.726562 235.378906 458.085938 236.757812 C 458.914062 234.8125 463.859375 230.5 463.859375 230.5 C 463.859375 230.5 459.628906 231.355469 457.914062 233.496094 C 456.441406 233.058594 456.066406 225.300781 456.066406 225.300781 C 456.066406 225.300781 449.839844 229.347656 448.757812 232.246094 C 447.570312 231.816406 445.722656 225.582031 445 223.027344 C 446.542969 222.796875 448.089844 222.683594 449.636719 222.683594 C 451.414062 222.683594 453.683594 223.808594 456.066406 225.300781 C 458.679688 226.945312 461.414062 229.023438 463.859375 230.5 C 466.988281 232.390625 471.722656 232.773438 473.101562 232.851562 C 471.519531 234.335938 469.78125 235.6875 467.898438 236.949219 C 467.898438 236.949219 475.347656 236.859375 480.582031 233.382812 C 482.449219 231.78125 484.386719 230.183594 486.042969 228.300781 C 485.324219 230.960938 484.207031 234.109375 482.457031 236.796875 C 490.144531 235.929688 493.972656 230.074219 495.058594 228.109375 C 495.566406 229.871094 496.476562 232.695312 497.902344 235.128906 L 500.679688 235.128906 L 500.679688 487.105469 Z M 441.25 198.097656 L 441.390625 202.800781 L 441.390625 216.652344 C 438.601562 215.371094 435.097656 209.261719 433.398438 206.027344 L 433.398438 204.132812 C 433.398438 202.347656 434.1875 201.042969 434.765625 200.335938 L 433.085938 199.542969 C 432.445312 200.515625 431.75 201.960938 431.75 203.828125 L 431.75 204.929688 L 426.746094 212.097656 L 421.824219 202.160156 L 421.824219 199.730469 C 421.824219 198.09375 422.769531 196.269531 423.558594 195.027344 L 421.910156 194.230469 C 421.078125 195.667969 420.203125 197.609375 420.203125 199.425781 L 420.203125 201.398438 C 418.316406 203.992188 416.429688 206.585938 414.542969 209.179688 L 411.671875 200.945312 C 415.117188 194.574219 420.707031 187.441406 425.976562 182.324219 C 425.976562 182.324219 437.402344 196.316406 441.25 198.097656 Z M 412.292969 211.527344 L 412.292969 222.949219 L 408.3125 227.882812 L 408.3125 210.921875 C 408.3125 209.296875 408.820312 207.34375 409.675781 205.191406 Z M 412.292969 211.527344 "/>
<path style=" stroke:none;fill-rule:nonzero;fill:rgb(67.843139%,48.627451%,34.901962%);fill-opacity:1;" d="M 424.691406 215.929688 L 424.691406 222.984375 L 420.113281 228.714844 L 420.113281 206.636719 Z M 418.492188 228.679688 L 413.914062 222.988281 L 413.914062 214.71875 L 418.492188 208.304688 Z M 439.394531 220.101562 C 438.332031 222.109375 435.546875 227.011719 432.542969 229.171875 L 432.542969 209.785156 C 433.230469 211.3125 436.394531 218.140625 439.394531 220.101562 Z M 430.921875 210.769531 L 430.921875 228.675781 L 426.339844 222.984375 L 426.339844 216.652344 Z M 412.292969 229.851562 L 412.292969 247.722656 L 408.3125 242.753906 L 408.3125 234.824219 Z M 418.488281 235.582031 L 418.488281 241.996094 L 413.910156 247.683594 L 413.910156 229.890625 Z M 424.6875 229.894531 L 424.6875 247.6875 L 420.109375 241.957031 L 420.109375 235.621094 Z M 430.917969 235.621094 L 430.917969 241.957031 L 426.335938 247.6875 L 426.335938 229.890625 Z M 437.117188 247.722656 L 432.535156 241.996094 L 432.535156 236.039062 C 434.117188 234.753906 435.703125 232.390625 437.117188 229.894531 Z M 425.515625 255.613281 L 430.347656 249.621094 L 430.347656 396.828125 C 430.347656 396.828125 430.6875 404.132812 430.917969 408.890625 L 420.679688 422.703125 L 420.679688 249.582031 Z M 417.917969 417.199219 C 417.917969 421.933594 411.441406 432.964844 408.304688 435.488281 L 408.304688 249.660156 L 413.082031 255.617188 L 417.917969 249.621094 Z M 417.917969 417.199219 "/>
<path style=" stroke:none;fill-rule:nonzero;fill:rgb(78.431374%,6.27451%,18.039216%);fill-opacity:1;" d="M 458.074219 401.230469 L 461.601562 398.003906 C 461.601562 398.003906 461.835938 399.558594 462.140625 401.683594 C 460.632812 404.4375 451.957031 420.230469 447.664062 427.9375 C 446.597656 429.851562 445.703125 434.730469 445.703125 434.730469 C 445.703125 434.730469 444.140625 433.742188 444.140625 431.960938 C 444.140625 430.210938 444.308594 428.128906 444.308594 428.128906 C 444.308594 428.128906 443.144531 429.910156 441.125 429.910156 C 441.125 427.757812 444.242188 425.425781 444.367188 422.363281 C 441.988281 424.714844 439.921875 423.507812 437.171875 424.640625 C 434.175781 425.871094 433.339844 427.550781 432.421875 427.484375 C 431.878906 427.445312 431.390625 426.199219 431.597656 425.4375 C 431.953125 424.109375 435.660156 420.445312 438.25 419.78125 C 438.871094 419.625 443.753906 421.199219 444.734375 419.175781 C 448.789062 410.835938 455.363281 397.300781 456 395.996094 C 456.417969 395.863281 456.800781 395.722656 457.105469 395.460938 C 457.105469 395.460938 457.070312 399.726562 458.074219 401.230469 Z M 458.074219 401.230469 "/>
<path style=" stroke:none;fill-rule:nonzero;fill:rgb(78.431374%,6.27451%,18.039216%);fill-opacity:1;" d="M 435.398438 427.214844 C 435.597656 427.515625 435.578125 427.960938 435.371094 428.199219 L 433.777344 430.058594 C 433.570312 430.300781 433.234375 430.25 433.039062 429.945312 C 432.84375 429.644531 432.859375 429.199219 433.066406 428.957031 L 434.660156 427.101562 C 434.761719 426.980469 434.894531 426.925781 435.03125 426.949219 C 435.164062 426.96875 435.300781 427.0625 435.398438 427.214844 Z M 437.816406 429.453125 C 438.292969 430.183594 438.261719 431.222656 437.761719 431.804688 L 433.890625 436.320312 C 433.390625 436.902344 432.578125 436.789062 432.101562 436.054688 C 431.625 435.324219 431.652344 434.25 432.15625 433.664062 L 436.023438 429.1875 C 436.21875 428.972656 436.457031 428.839844 436.707031 428.808594 C 437.101562 428.765625 437.519531 428.996094 437.816406 429.453125 Z M 440.035156 432.945312 C 440.511719 433.675781 440.480469 434.710938 439.976562 435.296875 L 436.082031 439.8125 C 435.578125 440.394531 434.792969 440.277344 434.316406 439.546875 C 433.839844 438.8125 433.871094 437.738281 434.375 437.15625 L 438.242188 432.679688 C 438.425781 432.464844 438.652344 432.328125 438.898438 432.300781 C 439.292969 432.257812 439.734375 432.484375 440.035156 432.945312 Z M 441.367188 435.714844 C 441.789062 435.667969 442.203125 435.890625 442.476562 436.320312 C 442.953125 437.050781 442.925781 438.128906 442.421875 438.710938 L 438.554688 443.1875 C 438.050781 443.769531 437.265625 443.65625 436.789062 442.921875 C 436.3125 442.191406 436.316406 441.152344 436.816406 440.570312 L 440.714844 436.054688 C 440.902344 435.835938 441.132812 435.738281 441.367188 435.714844 Z M 441.367188 435.714844 "/>
<path style=" stroke:none;fill-rule:nonzero;fill:rgb(0%,0%,0%);fill-opacity:1;" d="M 497.875 225.289062 L 522.535156 232.699219 C 523.65625 232.246094 528.929688 230.0625 532.628906 227.3125 C 539.144531 222.472656 542.523438 217.65625 550.265625 217.183594 L 550.265625 209.328125 C 550.265625 205.132812 549.125 201.351562 549.125 197.339844 C 552.390625 196.171875 561.445312 181.398438 569.800781 174.839844 C 582.097656 185.464844 591.617188 202.902344 591.617188 210.921875 C 591.617188 210.921875 591.246094 383.238281 591.617188 443.269531 C 591.617188 446.726562 593.179688 451.617188 593.179688 451.617188 C 588.691406 449.082031 580.464844 434.066406 578.730469 428.359375 L 578.730469 431.089844 C 571.953125 426.964844 566.992188 416.132812 564.769531 410.527344 C 564.726562 411.335938 564.625 413.371094 564.625 413.371094 C 558.570312 406.289062 550.859375 364.429688 550.859375 364.429688 L 538.015625 381.273438 C 538.015625 381.273438 542.660156 393.851562 544.46875 396.105469 C 544.46875 396.105469 543.257812 396.3125 541.882812 396.296875 C 542.726562 397.917969 549.1875 410.320312 551.210938 415 C 553.105469 419.375 554.441406 417.429688 557.355469 417.429688 C 559.769531 417.429688 565.242188 422.558594 566.140625 424.636719 C 567.085938 426.820312 567.789062 429.472656 567.789062 431.65625 C 567.789062 434.058594 565.886719 437.347656 565.886719 437.347656 C 565.679688 436.195312 565.316406 435.792969 565.316406 435.792969 C 565.316406 435.792969 560.308594 444.113281 559.570312 445.199219 C 558.996094 446.046875 556.4375 446.597656 555.53125 445.503906 C 553.273438 442.765625 551.085938 440.847656 549.078125 436.890625 C 548.042969 434.851562 547.960938 432.515625 546.773438 430.328125 C 542.792969 423.003906 534.875 408.984375 533.066406 405.78125 C 532.945312 406.671875 532.839844 407.414062 532.726562 408.324219 C 530.671875 402.796875 520.808594 392.234375 520.808594 392.234375 L 510.488281 398.574219 C 510.488281 398.574219 529.757812 457.664062 546.863281 466.75 C 546.863281 466.75 539.421875 470.96875 530.28125 477.296875 C 528.910156 478.253906 527.542969 479.230469 526.1875 480.222656 C 524.964844 478.25 523.777344 476.238281 522.632812 474.1875 C 517.167969 464.433594 511.824219 453.132812 511.824219 453.132812 C 511.449219 456.066406 514.335938 465.132812 519.21875 476.3125 C 520.175781 478.511719 521.179688 480.808594 522.289062 483.140625 C 521.046875 484.082031 519.816406 485.046875 518.589844 486.027344 C 509.539062 493.292969 501.039062 501.644531 497.886719 509.320312 L 495.664062 501.902344 L 497.886719 494.484375 L 497.886719 235.128906 L 496.777344 231.421875 Z M 497.875 225.289062 "/>
<path style=" stroke:none;fill-rule:nonzero;fill:rgb(67.843139%,48.627451%,34.901962%);fill-opacity:1;" d="M 497.886719 494.484375 C 501.082031 489.863281 507.757812 484.21875 515.265625 479.007812 C 506.191406 457.28125 501.691406 422.9375 503.804688 416.101562 C 503.804688 416.101562 507.527344 433.910156 512.078125 444.0625 C 516.292969 453.460938 521.484375 464.035156 526.5 471.871094 C 530.625 469.523438 534.628906 467.554688 538.046875 466.179688 C 523.015625 450.734375 507.644531 399.671875 507.644531 399.671875 L 523.539062 389.84375 C 523.539062 389.84375 529.484375 399.09375 531.417969 400.8125 C 531.417969 400.8125 532.242188 396.210938 532.722656 394.589844 C 532.722656 394.589844 535.003906 396.886719 536.25 396.941406 C 536.25 396.941406 536.621094 393.820312 536.90625 391.78125 C 538.472656 393.175781 541.085938 392.882812 541.085938 392.882812 C 538.792969 391.433594 536.078125 382.5625 536.078125 382.5625 L 551.257812 355.628906 C 551.257812 355.628906 556.589844 389.804688 562.664062 396.832031 L 562.664062 249.660156 L 557.855469 255.617188 L 550.574219 246.546875 L 550.574219 239.644531 L 557.03125 247.6875 L 557.03125 226.855469 C 556.285156 225.363281 555.585938 223.832031 554.925781 222.265625 C 553.882812 224.695312 550.503906 232.144531 546.539062 236.722656 C 545.886719 233.179688 541.589844 229.816406 541.589844 229.816406 C 541.589844 229.816406 540.050781 235.378906 537.691406 236.757812 C 536.863281 234.8125 531.917969 230.5 531.917969 230.5 C 531.917969 230.5 536.148438 231.355469 537.863281 233.496094 C 539.335938 233.058594 539.710938 225.300781 539.710938 225.300781 C 539.710938 225.300781 545.9375 229.347656 547.019531 232.246094 C 548.207031 231.816406 550.058594 225.582031 550.777344 223.027344 C 549.238281 222.796875 547.6875 222.683594 546.140625 222.683594 C 544.363281 222.683594 542.09375 223.808594 539.710938 225.300781 C 537.097656 226.945312 534.363281 229.023438 531.917969 230.5 C 528.789062 232.390625 524.058594 232.773438 522.675781 232.851562 C 524.257812 234.335938 525.996094 235.6875 527.878906 236.949219 C 527.878906 236.949219 520.429688 236.859375 515.195312 233.382812 C 513.328125 231.78125 511.390625 230.183594 509.734375 228.300781 C 510.453125 230.960938 511.570312 234.109375 513.320312 236.796875 C 505.632812 235.929688 501.804688 230.074219 500.71875 228.109375 C 500.210938 229.871094 499.300781 232.695312 497.875 235.128906 L 495.097656 235.128906 L 495.097656 487.105469 Z M 554.53125 198.097656 L 554.386719 202.800781 L 554.386719 216.652344 C 557.175781 215.371094 560.679688 209.261719 562.378906 206.027344 L 562.378906 204.132812 C 562.378906 202.347656 561.589844 201.042969 561.015625 200.335938 L 562.691406 199.542969 C 563.332031 200.515625 564.027344 201.960938 564.027344 203.828125 L 564.027344 204.929688 L 569.035156 212.097656 L 573.953125 202.160156 L 573.953125 199.730469 C 573.953125 198.09375 573.011719 196.269531 572.21875 195.027344 L 573.867188 194.230469 C 574.699219 195.667969 575.574219 197.609375 575.574219 199.425781 L 575.574219 201.398438 C 577.460938 203.992188 579.347656 206.585938 581.234375 209.179688 L 584.105469 200.945312 C 580.660156 194.574219 575.070312 187.441406 569.800781 182.324219 C 569.800781 182.324219 558.378906 196.316406 554.53125 198.097656 Z M 583.484375 211.527344 L 583.484375 222.949219 L 587.464844 227.882812 L 587.464844 210.921875 C 587.464844 209.296875 586.957031 207.34375 586.101562 205.191406 Z M 583.484375 211.527344 "/>
<path style=" stroke:none;fill-rule:nonzero;fill:rgb(67.843139%,48.627451%,34.901962%);fill-opacity:1;" d="M 571.085938 215.929688 L 571.085938 222.984375 L 575.664062 228.714844 L 575.664062 206.636719 Z M 577.285156 228.679688 L 581.863281 222.988281 L 581.863281 214.71875 L 577.285156 208.304688 Z M 556.382812 220.101562 C 557.445312 222.109375 560.230469 227.011719 563.234375 229.171875 L 563.234375 209.785156 C 562.546875 211.3125 559.382812 218.140625 556.382812 220.101562 Z M 564.859375 210.769531 L 564.859375 228.675781 L 569.4375 222.984375 L 569.4375 216.652344 Z M 583.484375 229.851562 L 583.484375 247.722656 L 587.46875 242.753906 L 587.46875 234.824219 Z M 577.289062 235.582031 L 577.289062 241.996094 L 581.867188 247.683594 L 581.867188 229.890625 Z M 571.089844 229.894531 L 571.089844 247.6875 L 575.667969 241.957031 L 575.667969 235.621094 Z M 564.859375 235.621094 L 564.859375 241.957031 L 569.441406 247.6875 L 569.441406 229.890625 Z M 558.660156 247.722656 L 563.242188 241.996094 L 563.242188 236.039062 C 561.660156 234.753906 560.074219 232.390625 558.660156 229.894531 Z M 570.265625 255.613281 L 565.429688 249.621094 L 565.429688 396.828125 C 565.429688 396.828125 565.089844 404.132812 564.859375 408.890625 L 575.097656 422.703125 L 575.097656 249.582031 Z M 577.859375 417.199219 C 577.859375 421.933594 584.335938 432.964844 587.472656 435.488281 L 587.472656 249.660156 L 582.695312 255.617188 L 577.859375 249.621094 Z M 577.859375 417.199219 "/>
<path style=" stroke:none;fill-rule:nonzero;fill:rgb(78.431374%,6.27451%,18.039216%);fill-opacity:1;" d="M 537.703125 401.230469 L 534.175781 398.003906 C 534.175781 398.003906 533.941406 399.558594 533.636719 401.683594 C 535.144531 404.4375 543.820312 420.230469 548.113281 427.9375 C 549.179688 429.851562 550.074219 434.730469 550.074219 434.730469 C 550.074219 434.730469 551.640625 433.742188 551.640625 431.960938 C 551.640625 430.210938 551.46875 428.128906 551.46875 428.128906 C 551.46875 428.128906 552.636719 429.910156 554.652344 429.910156 C 554.652344 427.757812 551.535156 425.425781 551.410156 422.363281 C 553.789062 424.714844 555.855469 423.507812 558.605469 424.640625 C 561.601562 425.871094 562.4375 427.550781 563.355469 427.484375 C 563.898438 427.445312 564.386719 426.199219 564.179688 425.4375 C 563.824219 424.109375 560.117188 420.445312 557.527344 419.78125 C 556.90625 419.625 552.023438 421.199219 551.042969 419.175781 C 546.992188 410.835938 540.414062 397.300781 539.78125 395.996094 C 539.363281 395.863281 538.976562 395.722656 538.671875 395.460938 C 538.671875 395.460938 538.707031 399.726562 537.703125 401.230469 Z M 537.703125 401.230469 "/>
<path style=" stroke:none;fill-rule:nonzero;fill:rgb(78.431374%,6.27451%,18.039216%);fill-opacity:1;" d="M 560.378906 427.214844 C 560.183594 427.515625 560.199219 427.960938 560.40625 428.199219 L 562 430.058594 C 562.207031 430.300781 562.542969 430.25 562.738281 429.945312 C 562.933594 429.644531 562.917969 429.199219 562.710938 428.957031 L 561.117188 427.101562 C 561.015625 426.980469 560.882812 426.925781 560.746094 426.949219 C 560.617188 426.96875 560.476562 427.0625 560.378906 427.214844 Z M 557.960938 429.453125 C 557.484375 430.183594 557.515625 431.222656 558.019531 431.804688 L 561.886719 436.320312 C 562.390625 436.902344 563.199219 436.789062 563.679688 436.054688 C 564.152344 435.324219 564.125 434.25 563.621094 433.664062 L 559.753906 429.1875 C 559.558594 428.972656 559.320312 428.839844 559.070312 428.808594 C 558.675781 428.765625 558.257812 428.996094 557.960938 429.453125 Z M 555.742188 432.945312 C 555.269531 433.675781 555.296875 434.710938 555.800781 435.296875 L 559.695312 439.8125 C 560.199219 440.394531 560.984375 440.277344 561.460938 439.546875 C 561.9375 438.8125 561.90625 437.738281 561.402344 437.15625 L 557.535156 432.679688 C 557.351562 432.464844 557.125 432.328125 556.882812 432.300781 C 556.484375 432.257812 556.042969 432.484375 555.742188 432.945312 Z M 554.410156 435.714844 C 553.988281 435.667969 553.574219 435.890625 553.300781 436.320312 C 552.824219 437.050781 552.851562 438.128906 553.355469 438.710938 L 557.222656 443.1875 C 557.726562 443.769531 558.511719 443.65625 558.988281 442.921875 C 559.464844 442.191406 559.460938 441.152344 558.960938 440.570312 L 555.0625 436.054688 C 554.875 435.835938 554.648438 435.738281 554.410156 435.714844 Z M 554.410156 435.714844 "/>
<path style=" stroke:none;fill-rule:nonzero;fill:rgb(67.843139%,48.627451%,34.901962%);fill-opacity:1;" d="M 492.1875 153.140625 C 498.550781 153.140625 503.027344 157.011719 509.050781 160.578125 C 510.628906 161.511719 512.078125 162.265625 513.375 162.851562 C 512.5625 163.8125 511.933594 164.773438 511.753906 165.585938 C 511.753906 165.585938 514.453125 166.253906 515.675781 169.265625 C 515.675781 169.265625 513.109375 169.65625 512.691406 171.65625 C 514.128906 171.800781 515.558594 174.21875 515.5625 176.550781 L 511.921875 175.03125 C 511.921875 175.03125 512.804688 180.484375 512.804688 186.414062 C 512.804688 189.441406 509.535156 193.003906 509.535156 198.136719 C 509.535156 214.246094 512.574219 220.4375 514.738281 225.414062 C 515.585938 227.363281 516.273438 229.605469 517.695312 231.296875 C 511.464844 226.871094 506.832031 221.335938 506.832031 216.195312 L 506.832031 196.734375 L 505.210938 196.734375 L 505.210938 216.195312 C 505.210938 219.925781 505.894531 221.660156 505.894531 221.660156 C 506.871094 225.785156 508.851562 232.148438 510.074219 234.710938 C 504.339844 230.578125 501.429688 225.402344 501.429688 223.480469 L 501.429688 196.734375 L 499.808594 196.734375 L 499.808594 223.859375 L 500.121094 225.71875 C 499.425781 227.113281 498.523438 228.761719 497.902344 229.324219 C 497.285156 228.761719 496.40625 227.109375 495.710938 225.71875 L 496.023438 223.859375 L 496.023438 196.734375 L 494.402344 196.734375 L 494.402344 223.480469 C 494.402344 225.398438 491.492188 230.578125 485.757812 234.710938 C 486.980469 232.148438 488.960938 225.785156 489.9375 221.660156 C 489.9375 221.660156 490.621094 219.925781 490.621094 216.195312 L 490.621094 196.734375 L 489 196.734375 L 489 216.195312 C 489 221.332031 484.382812 226.871094 478.164062 231.296875 C 479.570312 229.605469 480.25 227.351562 481.089844 225.414062 C 483.457031 219.96875 486.382812 213.050781 486.382812 193.355469 C 486.382812 185.964844 485.5625 180.9375 484.136719 177.421875 C 483.699219 176.261719 483.117188 173.171875 486.4375 173.171875 C 488.160156 173.171875 492.097656 177.230469 492.097656 177.230469 C 492.097656 177.230469 491.9375 173.992188 489.9375 172.148438 C 489.605469 171.84375 489.054688 170.878906 489.054688 169.984375 C 489.054688 169.316406 489.917969 167.660156 490.589844 167.253906 C 491.054688 166.972656 483.820312 165.292969 483.820312 160.917969 C 483.820312 160.007812 484.25 159.398438 485.753906 159.398438 C 487.722656 159.398438 490.929688 162.546875 493.777344 162.546875 C 495.882812 162.546875 496.710938 161.867188 498.867188 161.867188 C 501.5 161.867188 506.996094 168.519531 508.878906 168.277344 C 506.777344 166.515625 503.378906 159.855469 498.242188 159.855469 C 496.457031 159.855469 494.84375 160.386719 493.179688 160.386719 C 491.042969 160.386719 488.941406 157.765625 486.636719 157.765625 C 485.089844 157.765625 483.363281 157.882812 483.109375 157.347656 C 482.664062 156.417969 483.066406 155.878906 483.480469 155.109375 C 484.261719 153.660156 486.460938 153.238281 488.628906 153.140625 C 489.261719 153.109375 489.898438 153.09375 490.535156 153.101562 C 491.140625 153.109375 491.699219 153.140625 492.1875 153.140625 Z M 492.1875 153.140625 "/>
<path style=" stroke:none;fill-rule:nonzero;fill:rgb(78.431374%,6.27451%,18.039216%);fill-opacity:1;" d="M 471.515625 163.554688 C 471.515625 163.554688 472.859375 160.160156 476.257812 160.160156 C 477.679688 160.160156 482.363281 160.03125 482.363281 160.03125 C 482.988281 162.195312 485.835938 165.8125 485.835938 169.574219 C 485.835938 169.574219 482.945312 162.625 474.878906 162.625 C 472.851562 162.625 471.515625 163.554688 471.515625 163.554688 Z M 484.632812 170.898438 C 484.632812 170.898438 482.914062 173.316406 482.542969 174.605469 C 480.839844 173.742188 477.875 169.667969 477.875 169.667969 C 477.875 169.667969 480.390625 171.625 484.632812 170.898438 Z M 484.632812 170.898438 "/>
<path style=" stroke:none;fill-rule:nonzero;fill:rgb(0%,0%,0%);fill-opacity:1;" d="M 481.910156 164.503906 C 481.910156 164.503906 479.929688 163.65625 479.929688 162.769531 C 479.929688 161.636719 480.890625 161.636719 481.46875 162.519531 C 481.863281 163.125 481.910156 164.503906 481.910156 164.503906 Z M 481.910156 164.503906 "/>
<path style=" stroke:none;fill-rule:nonzero;fill:rgb(0%,0%,0%);fill-opacity:1;" d="M 495.253906 165.953125 C 495.253906 168.246094 493.417969 170.101562 491.15625 170.101562 C 488.894531 170.101562 487.058594 168.246094 487.058594 165.953125 C 487.058594 163.664062 488.894531 161.808594 491.15625 161.808594 C 493.417969 161.808594 495.253906 163.664062 495.253906 165.953125 Z M 495.253906 165.953125 "/>
<path style=" stroke:none;fill-rule:nonzero;fill:rgb(100%,81.960785%,0%);fill-opacity:1;" d="M 493.996094 165.953125 C 493.996094 168.050781 492.722656 169.75 491.152344 169.75 C 489.582031 169.75 488.308594 168.050781 488.308594 165.953125 C 488.308594 163.859375 489.582031 162.160156 491.152344 162.160156 C 492.722656 162.160156 493.996094 163.859375 493.996094 165.953125 Z M 493.996094 165.953125 "/>
<path style=" stroke:none;fill-rule:nonzero;fill:rgb(0%,0%,0%);fill-opacity:1;" d="M 492.457031 165.957031 C 492.457031 166.914062 491.871094 167.695312 491.152344 167.695312 C 490.433594 167.695312 489.847656 166.914062 489.847656 165.957031 C 489.847656 164.996094 490.433594 164.21875 491.152344 164.21875 C 491.871094 164.21875 492.457031 164.996094 492.457031 165.957031 Z M 492.457031 165.957031 "/>
<path style=" stroke:none;fill-rule:nonzero;fill:rgb(0%,0%,0%);fill-opacity:1;" d="M 445.207031 438.703125 L 454.207031 445.253906 L 452.027344 458.613281 L 443.023438 452.0625 Z M 445.207031 438.703125 "/>
<path style=" stroke:none;fill-rule:nonzero;fill:rgb(0%,0%,0%);fill-opacity:1;" d="M 403.277344 310.324219 L 400.035156 312.300781 L 436.667969 419.332031 L 440.5625 419.332031 Z M 446.480469 436.550781 L 443.835938 440.195312 L 445.484375 445.050781 L 448.695312 443.078125 Z M 446.480469 436.550781 "/>
<path style=" stroke:none;fill-rule:nonzero;fill:rgb(0%,0%,0%);fill-opacity:1;" d="M 414.660156 394.714844 C 414.660156 394.714844 417.746094 403.21875 420.089844 404.382812 C 418.878906 403.941406 414.941406 405.871094 414.941406 405.871094 C 414.941406 405.871094 421.886719 414.144531 427.773438 414.6875 C 432.769531 415.148438 435.195312 411.820312 435.195312 411.820312 L 434.191406 404.761719 C 434.191406 404.761719 431.136719 399.839844 426.246094 397.570312 C 421.308594 395.273438 414.660156 394.71875 414.660156 394.71875 Z M 437.921875 379.484375 C 437.921875 379.484375 433.660156 384.351562 432.496094 389.988281 C 431.328125 395.621094 433.253906 402.027344 433.253906 402.027344 L 436.835938 410.9375 C 436.835938 410.9375 441.796875 407.414062 443.90625 402.148438 C 446.019531 396.878906 445.246094 389.773438 445.246094 389.773438 C 445.246094 389.773438 441.3125 391.722656 440.8125 392.589844 C 441.644531 386.746094 437.921875 379.484375 437.921875 379.484375 Z M 424.226562 377.210938 C 424.226562 377.210938 419.382812 379.394531 414.675781 379.015625 C 410.195312 378.65625 406.46875 373.636719 406.46875 373.636719 C 406.46875 373.636719 410.183594 370.28125 412.015625 370.726562 C 410 369.746094 407.074219 363.003906 407.074219 363.003906 C 407.074219 363.003906 411.230469 361.328125 414.917969 363.179688 C 418.601562 365.035156 421.816406 370.421875 421.816406 370.421875 Z M 425.894531 345.640625 C 425.894531 345.640625 428.316406 352.332031 427.742188 354.660156 C 428.496094 353.109375 431.339844 350.699219 431.339844 350.699219 C 431.339844 350.699219 433.058594 361.535156 431.414062 368.230469 C 429.769531 374.921875 424.761719 377.472656 424.761719 377.472656 L 419.238281 363.140625 C 419.238281 363.140625 418.417969 357.832031 420.140625 353.628906 C 421.863281 349.421875 425.894531 345.636719 425.894531 345.636719 Z M 394.367188 327.917969 C 394.367188 327.917969 399.605469 327.1875 404.394531 329.832031 C 408.402344 332.050781 409.628906 336.082031 409.628906 336.082031 L 411.601562 343.140625 C 411.601562 343.140625 405.902344 345.992188 401.398438 343.808594 C 396.890625 341.628906 393.582031 334.414062 393.582031 334.414062 C 393.582031 334.414062 396.730469 332.820312 397.929688 333.417969 C 396.183594 332.386719 394.367188 327.917969 394.367188 327.917969 L 394.367188 327.921875 Z M 410.839844 314.824219 C 410.839844 314.824219 413.136719 318.761719 413.207031 323.289062 C 413.820312 320.882812 416.6875 318.222656 416.6875 318.222656 C 416.6875 318.222656 419.640625 327.75 418.992188 334.511719 C 418.34375 341.277344 414.097656 345.277344 414.097656 345.277344 L 408.804688 331.871094 C 408.804688 331.871094 407.078125 326.375 407.585938 322.113281 C 408.09375 317.851562 410.839844 314.824219 410.839844 314.824219 Z M 392.699219 289.179688 C 392.699219 289.179688 391.75 296.484375 393.367188 300.691406 C 394.808594 304.445312 395.726562 305.269531 395.726562 305.269531 C 392.976562 302.84375 388.816406 302.636719 388.816406 302.636719 C 388.816406 302.636719 390.296875 310.582031 393.835938 314.207031 C 397.375 317.832031 402.832031 316.984375 402.832031 316.984375 C 402.832031 316.984375 406.421875 310.609375 406.171875 303.746094 C 405.921875 296.878906 401.832031 289.515625 401.832031 289.515625 C 401.832031 289.515625 400.222656 293.980469 400.078125 297.308594 C 399.035156 293.875 392.699219 289.183594 392.699219 289.183594 Z M 435.476562 411.515625 L 435.625 414.136719 C 438.890625 414.179688 439.375 413.746094 440.210938 415.117188 C 440.769531 416.03125 442.09375 416.832031 443.425781 416.019531 C 444.761719 415.207031 445.355469 413.070312 444.75 411.292969 C 444.140625 409.515625 442.902344 409.128906 441.707031 409.441406 C 440.972656 409.636719 440.492188 410.417969 439.871094 410.84375 C 438.6875 411.660156 435.476562 411.515625 435.476562 411.515625 Z M 435.476562 411.515625 "/>
<path style=" stroke:none;fill-rule:nonzero;fill:rgb(0%,0%,0%);fill-opacity:1;" d="M 435.195312 409.515625 L 436.78125 411.070312 C 435.078125 414.785156 434.546875 415.105469 434.976562 416.777344 C 435.261719 417.894531 435.070312 419.816406 433.847656 420.894531 C 432.625 421.972656 430.949219 421.515625 430.140625 419.886719 C 429.332031 418.257812 429.742188 416.652344 430.574219 415.46875 C 431.085938 414.738281 431.835938 414.605469 432.4375 414.128906 C 433.585938 413.222656 435.195312 409.515625 435.195312 409.515625 Z M 424.140625 378.390625 L 424.285156 381.011719 C 427.550781 381.050781 428.035156 380.617188 428.871094 381.988281 C 429.429688 382.902344 430.753906 383.703125 432.085938 382.890625 C 433.421875 382.078125 434.019531 379.941406 433.410156 378.164062 C 432.800781 376.386719 431.5625 376 430.367188 376.316406 C 429.632812 376.507812 429.152344 377.289062 428.53125 377.71875 C 427.347656 378.53125 424.136719 378.390625 424.136719 378.390625 Z M 424.140625 378.390625 "/>
<path style=" stroke:none;fill-rule:nonzero;fill:rgb(0%,0%,0%);fill-opacity:1;" d="M 424.800781 379.316406 L 426.1875 381.179688 C 424.074219 384.496094 423.507812 384.703125 423.738281 386.445312 C 423.890625 387.605469 423.476562 389.464844 422.140625 390.277344 C 420.808594 391.089844 419.207031 390.292969 418.597656 388.515625 C 417.992188 386.734375 418.582031 385.234375 419.542969 384.238281 C 420.132812 383.625 420.890625 383.648438 421.539062 383.304688 C 422.777344 382.648438 424.800781 379.316406 424.800781 379.316406 Z M 413.148438 347.375 L 413.296875 349.996094 C 416.5625 350.035156 417.046875 349.601562 417.882812 350.976562 C 418.441406 351.886719 419.765625 352.6875 421.101562 351.875 C 422.433594 351.0625 423.03125 348.929688 422.421875 347.148438 C 421.8125 345.371094 420.574219 344.984375 419.378906 345.300781 C 418.644531 345.492188 418.164062 346.273438 417.542969 346.699219 C 416.359375 347.515625 413.148438 347.371094 413.148438 347.371094 Z M 413.148438 347.375 "/>
<path style=" stroke:none;fill-rule:nonzero;fill:rgb(0%,0%,0%);fill-opacity:1;" d="M 414.054688 346.824219 L 415.445312 348.691406 C 413.328125 352.007812 412.765625 352.214844 412.992188 353.957031 C 413.148438 355.117188 412.730469 356.976562 411.398438 357.785156 C 410.0625 358.597656 408.464844 357.800781 407.855469 356.023438 C 407.246094 354.246094 407.839844 352.742188 408.800781 351.746094 C 409.390625 351.132812 410.148438 351.160156 410.796875 350.8125 C 412.035156 350.15625 414.054688 346.824219 414.054688 346.824219 Z M 401.445312 314.632812 L 401.589844 317.25 C 404.855469 317.292969 405.339844 316.859375 406.179688 318.230469 C 406.734375 319.144531 408.0625 319.945312 409.394531 319.132812 C 410.726562 318.320312 411.324219 316.183594 410.714844 314.40625 C 410.105469 312.628906 408.867188 312.242188 407.671875 312.558594 C 406.941406 312.75 406.457031 313.53125 405.835938 313.957031 C 404.65625 314.773438 401.441406 314.632812 401.441406 314.632812 Z M 401.445312 314.632812 "/>
<path style=" stroke:none;fill-rule:nonzero;fill:rgb(0%,0%,0%);fill-opacity:1;" d="M 402.351562 314.082031 L 403.738281 315.949219 C 401.621094 319.265625 401.058594 319.472656 401.289062 321.214844 C 401.441406 322.375 401.023438 324.234375 399.691406 325.042969 C 398.359375 325.855469 396.757812 325.058594 396.148438 323.28125 C 395.542969 321.503906 396.132812 320 397.09375 319.003906 C 397.683594 318.394531 398.441406 318.417969 399.089844 318.070312 C 400.328125 317.414062 402.347656 314.082031 402.347656 314.082031 Z M 402.351562 314.082031 "/>
<path style=" stroke:none;fill-rule:nonzero;fill:rgb(100%,81.960785%,0%);fill-opacity:1;" d="M 446.503906 442.488281 L 452.085938 446.550781 L 450.734375 454.839844 L 445.152344 450.777344 Z M 422.066406 370.621094 C 420.898438 371.269531 419.160156 364.476562 417.886719 360.753906 C 416.578125 356.933594 413.925781 351.042969 414.679688 350.585938 C 415.507812 350.082031 416.597656 353.171875 417.933594 357.082031 C 419.273438 360.988281 423.164062 370.011719 422.066406 370.621094 Z M 410.050781 334.835938 C 408.878906 335.484375 407.601562 331.035156 406.324219 327.3125 C 405.019531 323.492188 403.746094 320.792969 404.5 320.332031 C 405.328125 319.828125 406.550781 323.175781 407.621094 326.304688 C 408.65625 329.332031 411.144531 334.226562 410.050781 334.835938 Z M 437.851562 415.976562 C 436.933594 416.304688 432.921875 405.113281 429.683594 395.640625 C 426.441406 386.171875 424.027344 378.507812 424.78125 378.050781 C 425.609375 377.546875 428.234375 386.492188 431.476562 395.964844 C 434.71875 405.4375 438.539062 415.730469 437.851562 415.976562 Z M 437.851562 415.976562 "/>
<path style=" stroke:none;fill-rule:nonzero;fill:rgb(100%,81.960785%,0%);fill-opacity:1;" d="M 443.777344 412.785156 C 443.777344 413.855469 443.128906 414.71875 442.332031 414.71875 C 441.53125 414.71875 440.882812 413.855469 440.882812 412.785156 C 440.882812 411.71875 441.53125 410.855469 442.332031 410.855469 C 443.128906 410.855469 443.777344 411.71875 443.777344 412.785156 Z M 443.777344 412.785156 "/>
<path style=" stroke:none;fill-rule:nonzero;fill:rgb(100%,81.960785%,0%);fill-opacity:1;" d="M 433.820312 417.9375 C 433.820312 419.003906 433.171875 419.867188 432.371094 419.867188 C 431.574219 419.867188 430.925781 419.003906 430.925781 417.9375 C 430.925781 416.871094 431.574219 416.003906 432.371094 416.003906 C 433.171875 416.003906 433.820312 416.871094 433.820312 417.9375 Z M 433.820312 417.9375 "/>
<path style=" stroke:none;fill-rule:nonzero;fill:rgb(100%,81.960785%,0%);fill-opacity:1;" d="M 432.433594 379.632812 C 432.433594 380.699219 431.785156 381.566406 430.988281 381.566406 C 430.1875 381.566406 429.539062 380.699219 429.539062 379.632812 C 429.539062 378.566406 430.1875 377.703125 430.988281 377.703125 C 431.785156 377.703125 432.433594 378.566406 432.433594 379.632812 Z M 432.433594 379.632812 "/>
<path style=" stroke:none;fill-rule:nonzero;fill:rgb(100%,81.960785%,0%);fill-opacity:1;" d="M 422.472656 387.039062 C 422.472656 388.105469 421.824219 388.96875 421.023438 388.96875 C 420.226562 388.96875 419.578125 388.105469 419.578125 387.039062 C 419.578125 385.972656 420.226562 385.105469 421.023438 385.105469 C 421.824219 385.105469 422.472656 385.972656 422.472656 387.039062 Z M 422.472656 387.039062 "/>
<path style=" stroke:none;fill-rule:nonzero;fill:rgb(100%,81.960785%,0%);fill-opacity:1;" d="M 421.449219 348.628906 C 421.449219 349.695312 420.800781 350.558594 420 350.558594 C 419.199219 350.558594 418.554688 349.695312 418.554688 348.628906 C 418.554688 347.5625 419.199219 346.699219 420 346.699219 C 420.800781 346.699219 421.449219 347.5625 421.449219 348.628906 Z M 421.449219 348.628906 "/>
<path style=" stroke:none;fill-rule:nonzero;fill:rgb(100%,81.960785%,0%);fill-opacity:1;" d="M 411.726562 354.550781 C 411.726562 355.617188 411.078125 356.480469 410.277344 356.480469 C 409.480469 356.480469 408.832031 355.617188 408.832031 354.550781 C 408.832031 353.480469 409.480469 352.617188 410.277344 352.617188 C 411.078125 352.617188 411.726562 353.480469 411.726562 354.550781 Z M 411.726562 354.550781 "/>
<path style=" stroke:none;fill-rule:nonzero;fill:rgb(100%,81.960785%,0%);fill-opacity:1;" d="M 409.742188 315.890625 C 409.742188 316.957031 409.09375 317.820312 408.296875 317.820312 C 407.496094 317.820312 406.847656 316.957031 406.847656 315.890625 C 406.847656 314.824219 407.496094 313.960938 408.296875 313.960938 C 409.09375 313.960938 409.742188 314.824219 409.742188 315.890625 Z M 409.742188 315.890625 "/>
<path style=" stroke:none;fill-rule:nonzero;fill:rgb(100%,81.960785%,0%);fill-opacity:1;" d="M 400.023438 321.808594 C 400.023438 322.875 399.375 323.738281 398.574219 323.738281 C 397.777344 323.738281 397.128906 322.875 397.128906 321.808594 C 397.128906 320.742188 397.777344 319.875 398.574219 319.875 C 399.375 319.875 400.023438 320.742188 400.023438 321.808594 Z M 400.023438 321.808594 "/>
<path style=" stroke:none;fill-rule:nonzero;fill:rgb(0%,46.666667%,28.627452%);fill-opacity:1;" d="M 394.3125 293.621094 C 394.3125 293.621094 394.167969 298.957031 395.492188 301.984375 C 396.816406 305.011719 399.773438 306.21875 399.773438 306.21875 C 399.773438 306.21875 399.914062 300.882812 398.589844 297.859375 C 397.265625 294.828125 394.3125 293.621094 394.3125 293.621094 Z M 391.542969 305.695312 C 391.542969 305.695312 395.019531 305.964844 397.027344 308.019531 C 399.03125 310.070312 399.808594 314.34375 399.808594 314.34375 C 399.808594 314.34375 397.507812 314.65625 395.5 312.605469 C 393.496094 310.550781 391.542969 305.695312 391.542969 305.695312 Z M 402.449219 294.917969 C 402.449219 294.917969 401.292969 298.453125 401.429688 302.261719 C 401.5625 306.074219 403.226562 310.371094 403.226562 310.371094 C 403.226562 310.371094 404.734375 305.792969 404.601562 301.980469 C 404.46875 298.167969 402.855469 295.996094 402.449219 294.917969 Z M 396.601562 329.277344 C 396.601562 329.277344 398.304688 332.453125 400.933594 334.1875 C 403.558594 335.917969 407.472656 335.984375 407.472656 335.984375 C 407.472656 335.984375 405.519531 332.601562 402.894531 330.867188 C 400.265625 329.136719 396.601562 329.273438 396.601562 329.273438 Z M 397.445312 336.65625 C 397.445312 336.65625 398.699219 339.933594 400.992188 341.339844 C 403.285156 342.742188 407.976562 342.628906 407.976562 342.628906 C 407.976562 342.628906 406.175781 339.566406 403.882812 338.160156 C 401.589844 336.753906 397.445312 336.65625 397.445312 336.65625 Z M 410.648438 319.183594 C 410.648438 319.183594 409.265625 322.238281 409.398438 325.605469 C 409.535156 328.972656 411.191406 332.652344 411.191406 332.652344 C 411.191406 332.652344 412.355469 328.433594 412.222656 325.066406 C 412.085938 321.699219 410.648438 319.183594 410.648438 319.183594 Z M 415.753906 323.503906 C 415.753906 323.503906 413.382812 327.75 413.042969 332.113281 C 412.703125 336.480469 414.390625 340.964844 414.390625 340.964844 C 414.390625 340.964844 417.257812 337.128906 417.597656 332.761719 C 417.9375 328.394531 415.753906 323.503906 415.753906 323.503906 Z M 409.214844 363.820312 C 409.214844 363.820312 409.5 365.386719 410.492188 367.054688 C 411.484375 368.722656 413.179688 370.488281 413.179688 370.488281 C 413.179688 370.488281 414.816406 369.785156 416.855469 370.375 C 418.890625 370.960938 421.597656 373.382812 421.597656 373.382812 C 421.597656 373.382812 418.683594 367.578125 415.65625 365.320312 C 412.628906 363.066406 409.21875 363.816406 409.21875 363.816406 Z M 408.917969 373.792969 C 408.917969 373.792969 412.691406 371.644531 415.796875 372.199219 C 418.90625 372.753906 421.707031 376.03125 421.707031 376.03125 C 421.707031 376.03125 417.507812 377.96875 414.402344 377.414062 C 411.292969 376.859375 408.917969 373.792969 408.917969 373.792969 Z M 424.867188 350.390625 C 424.867188 350.390625 421.53125 355.105469 421.25 359.199219 C 420.96875 363.292969 423.957031 367.105469 423.957031 367.105469 C 423.957031 367.105469 423.808594 364.480469 424.324219 362.753906 C 424.835938 361.023438 425.929688 359.179688 425.929688 359.179688 C 425.929688 359.179688 426.394531 357.074219 426.214844 355.382812 C 425.964844 353.023438 424.867188 350.390625 424.867188 350.390625 Z M 429.65625 355.851562 C 429.65625 355.851562 426.511719 360.097656 425.679688 364.644531 C 424.847656 369.191406 426.328125 374.039062 426.328125 374.039062 C 426.328125 374.039062 429.1875 371.027344 430.019531 366.480469 C 430.851562 361.9375 429.65625 355.851562 429.65625 355.851562 Z M 437.535156 383.257812 C 437.535156 383.257812 438.957031 387.226562 439.320312 390.546875 C 439.683594 393.863281 439.347656 395.011719 439.347656 395.011719 C 439.347656 395.011719 437.871094 396.945312 437.210938 398.082031 C 436.363281 399.539062 436.238281 402.210938 436.238281 402.210938 C 436.238281 402.210938 433.28125 396.347656 433.738281 392.058594 C 434.191406 387.769531 437.535156 383.257812 437.535156 383.257812 Z M 443.765625 392.441406 C 443.765625 392.441406 439.980469 395.777344 438.476562 399.203125 C 436.972656 402.625 437.75 406.128906 437.75 406.128906 C 437.75 406.128906 440.449219 405.8125 441.953125 402.390625 C 443.457031 398.96875 443.765625 392.441406 443.765625 392.441406 Z M 418.878906 406.535156 C 418.878906 406.535156 424.335938 406.335938 427.671875 407.433594 C 431.011719 408.527344 432.222656 410.910156 432.222656 410.910156 C 432.222656 410.910156 428.472656 413.253906 425.136719 412.160156 C 421.800781 411.070312 418.878906 406.535156 418.878906 406.535156 Z M 417.957031 397.894531 C 417.957031 397.894531 420.417969 402.988281 423.601562 404.835938 C 427.988281 407.382812 433.070312 406.148438 433.070312 406.148438 C 433.070312 406.148438 430.3125 401.636719 426.511719 399.644531 C 422.714844 397.652344 417.957031 397.894531 417.957031 397.894531 Z M 417.957031 397.894531 "/>
<path style=" stroke:none;fill-rule:nonzero;fill:rgb(0%,0%,0%);fill-opacity:1;" d="M 604.855469 297.886719 L 605.566406 299.894531 C 605.566406 299.894531 604.410156 300.425781 603.886719 301.792969 C 603.367188 303.160156 604.230469 305.09375 604.230469 305.09375 C 604.230469 305.09375 598.226562 304.394531 597.289062 305.207031 C 596.441406 305.941406 597.648438 311.488281 597.089844 316.171875 C 596.3125 322.703125 594.382812 322.152344 594.304688 323.417969 C 594.226562 324.648438 595.042969 326.566406 595.042969 326.566406 C 595.042969 326.566406 593.917969 327.039062 593.679688 327.667969 C 593.292969 328.675781 593.945312 330.539062 593.480469 331.765625 C 590.867188 338.597656 587.011719 348.6875 584.464844 355.363281 C 584.105469 356.296875 583.152344 356.652344 582.671875 357.90625 C 582.230469 359.0625 582.585938 360.75 582.585938 360.75 C 582.585938 360.75 580.898438 360.886719 580.3125 362.421875 C 579.6875 364.050781 580.054688 366.25 580.054688 366.25 C 580.054688 366.25 578.984375 366.433594 578.460938 367.808594 C 577.902344 369.277344 578.851562 370.046875 578.605469 370.691406 C 575.179688 379.660156 571.140625 390.234375 568.679688 396.679688 C 567.773438 399.050781 564.601562 399.527344 562.761719 404.34375 C 560.976562 409.019531 563.53125 412.464844 563.53125 412.464844 C 563.53125 412.464844 560.878906 412.785156 560.175781 414.625 C 559.457031 416.503906 560.023438 419.359375 561.9375 420.660156 C 563.851562 421.957031 565.941406 420.90625 566.660156 419.027344 C 567.363281 417.183594 565.949219 414.132812 565.949219 414.132812 C 565.949219 414.132812 569.539062 414.824219 571.324219 410.148438 C 573.164062 405.332031 571.613281 401.667969 572.519531 399.296875 C 574.980469 392.851562 579.019531 382.277344 582.445312 373.308594 C 582.691406 372.664062 583.703125 373.222656 584.265625 371.753906 C 584.789062 370.378906 584.265625 369.136719 584.265625 369.136719 C 584.265625 369.136719 585.832031 368.226562 586.453125 366.59375 C 587.042969 365.058594 586.140625 363.140625 586.140625 363.140625 C 586.140625 363.140625 587.375 362.554688 587.820312 361.398438 C 588.296875 360.140625 587.945312 358.914062 588.300781 357.980469 C 590.851562 351.308594 594.707031 341.21875 597.316406 334.382812 C 597.785156 333.15625 599.292969 332.738281 599.679688 331.726562 C 599.917969 331.097656 599.539062 329.601562 599.539062 329.601562 C 599.539062 329.601562 601.195312 329.382812 601.898438 328.578125 C 602.617188 327.75 601.15625 325.972656 604.65625 321.292969 C 607.167969 317.9375 611.222656 315.964844 611.167969 314.617188 C 611.109375 313.125 607.160156 307.066406 607.160156 307.066406 C 607.160156 307.066406 608.824219 306.878906 609.347656 305.511719 C 609.871094 304.144531 609.519531 302.550781 609.519531 302.550781 L 611.167969 302.171875 L 611.167969 291.738281 Z M 550.335938 443.199219 C 550.0625 443.925781 550.0625 444.78125 550.335938 445.511719 C 550.335938 445.511719 548.34375 444.679688 547.664062 445.132812 C 547.019531 445.554688 547.664062 458.070312 547.664062 458.070312 C 547.664062 458.070312 555.605469 451.386719 555.484375 450.445312 C 555.355469 449.441406 553.691406 447.75 553.691406 447.75 C 554.335938 447.613281 554.835938 447.074219 555.085938 446.421875 C 555.347656 445.738281 555.382812 443.777344 553.578125 442.550781 C 552.902344 442.09375 552.300781 441.957031 551.8125 442.019531 C 551.003906 442.128906 550.5 442.769531 550.335938 443.199219 Z M 550.335938 443.199219 "/>
<path style=" stroke:none;fill-rule:nonzero;fill:rgb(100%,81.960785%,0%);fill-opacity:1;" d="M 606.300781 298.304688 L 610.054688 300.847656 L 609.996094 294.816406 Z M 604.851562 301.945312 C 604.367188 303.210938 604.835938 304.828125 605.902344 305.550781 C 606.96875 306.273438 608.207031 305.828125 608.691406 304.566406 C 609.171875 303.300781 608.703125 301.6875 607.636719 300.960938 C 607.261719 300.703125 606.835938 300.582031 606.414062 300.617188 C 605.742188 300.679688 605.152344 301.15625 604.851562 301.945312 Z M 598.394531 306.539062 C 598 306.878906 598.535156 311.390625 598.421875 315.226562 C 598.316406 318.84375 597.445312 319.863281 596.972656 321.105469 C 596.535156 322.253906 594.953125 323.609375 594.953125 323.609375 L 596.261719 325.355469 C 596.261719 325.355469 597.113281 323.585938 598.449219 320.082031 C 600.03125 315.945312 599.980469 308.453125 600.441406 308.054688 C 600.84375 307.707031 604.140625 306.613281 604.140625 306.613281 C 604.140625 306.613281 601.117188 306.394531 599.445312 306.421875 C 598.890625 306.433594 598.484375 306.460938 598.394531 306.539062 Z M 598.394531 306.539062 "/>
<path style=" stroke:none;fill-rule:nonzero;fill:rgb(100%,81.960785%,0%);fill-opacity:1;" d="M 598.738281 327.367188 C 598.738281 327.367188 599.175781 325.746094 600.703125 321.75 C 602.542969 316.933594 606.46875 313.441406 606.558594 312.570312 C 606.65625 311.671875 605.195312 307.449219 605.195312 307.449219 C 605.195312 307.449219 601.730469 308.335938 601.242188 308.96875 C 600.765625 309.578125 600.976562 315.835938 599.136719 320.652344 C 597.613281 324.644531 596.863281 326.117188 596.863281 326.117188 Z M 598.738281 327.367188 "/>
<path style=" stroke:none;fill-rule:nonzero;fill:rgb(100%,81.960785%,0%);fill-opacity:1;" d="M 607.582031 312.910156 C 607.613281 313.644531 603.046875 317.996094 601.46875 322.128906 C 600.128906 325.636719 599.5625 327.59375 599.5625 327.59375 L 601.382812 327.972656 C 601.382812 327.972656 601.257812 325.480469 601.695312 324.332031 C 602.171875 323.089844 602.296875 321.566406 604.425781 319.324219 C 606.6875 316.945312 609.742188 314.867188 609.714844 314.238281 C 609.695312 313.660156 606.304688 308.054688 606.304688 308.054688 C 606.304688 308.054688 607.558594 312.273438 607.582031 312.910156 Z M 594.214844 339.960938 C 596.957031 332.78125 597.796875 332.292969 598.140625 331.386719 C 598.511719 330.417969 598.425781 329.109375 597.203125 328.277344 C 596.746094 327.964844 596.351562 327.886719 596.007812 327.9375 C 595.433594 328.019531 595.019531 328.503906 594.785156 329.113281 C 594.441406 330.015625 594.628906 331.226562 591.882812 338.410156 L 585.65625 354.683594 C 585.65625 354.683594 585.003906 356.28125 586.222656 357.113281 C 587.445312 357.941406 587.988281 356.277344 587.988281 356.277344 Z M 583.210938 358.628906 C 582.871094 359.519531 583.453125 360.828125 584.519531 361.550781 C 585.585938 362.273438 586.738281 362.136719 587.078125 361.246094 C 587.417969 360.359375 586.808594 359.050781 585.742188 358.324219 C 585.210938 357.964844 584.667969 357.816406 584.207031 357.871094 C 583.746094 357.925781 583.382812 358.1875 583.210938 358.628906 Z M 580.90625 363.257812 C 580.464844 364.410156 581.152344 366.0625 582.441406 366.941406 C 583.730469 367.816406 585.128906 367.597656 585.570312 366.445312 C 586.011719 365.292969 585.324219 363.640625 584.035156 362.765625 C 583.550781 362.4375 583.070312 362.261719 582.613281 362.234375 C 581.847656 362.183594 581.179688 362.539062 580.90625 363.257812 Z M 579.457031 368.417969 C 579.117188 369.308594 579.699219 370.613281 580.765625 371.339844 C 581.828125 372.066406 582.984375 371.925781 583.324219 371.035156 C 583.664062 370.148438 583.082031 368.839844 582.015625 368.113281 C 581.480469 367.75 580.914062 367.605469 580.449219 367.660156 C 579.992188 367.714844 579.625 367.972656 579.457031 368.417969 Z M 578.515625 373.351562 C 578.515625 373.351562 571.601562 391.507812 569.160156 397.898438 C 568.382812 399.9375 565.097656 401.210938 563.8125 404.574219 C 562.519531 407.960938 563.433594 411.128906 565.121094 412.277344 C 566.808594 413.425781 569.289062 412.589844 570.582031 409.203125 C 571.867188 405.839844 570.714844 401.53125 571.492188 399.492188 C 573.933594 393.101562 580.847656 374.945312 580.847656 374.945312 C 580.847656 374.945312 581.53125 373.347656 580.308594 372.515625 C 580.066406 372.34375 579.785156 372.277344 579.511719 372.328125 C 578.839844 372.441406 578.515625 373.351562 578.515625 373.351562 Z M 561.023438 415.5 C 560.503906 416.855469 561.097656 418.664062 562.359375 419.523438 C 563.621094 420.378906 565.082031 419.96875 565.601562 418.613281 C 566.121094 417.257812 565.496094 415.449219 564.234375 414.589844 C 563.761719 414.269531 563.28125 414.117188 562.8125 414.136719 C 562.035156 414.164062 561.34375 414.652344 561.023438 415.5 Z M 551.808594 443.234375 C 551.414062 443.253906 551.089844 443.421875 550.957031 443.765625 C 550.691406 444.460938 551.238281 445.554688 552.179688 446.195312 C 553.121094 446.832031 554.105469 446.773438 554.371094 446.082031 C 554.632812 445.386719 554.085938 444.292969 553.148438 443.652344 C 552.675781 443.332031 552.203125 443.21875 551.808594 443.234375 Z M 548.566406 446.648438 L 548.566406 455.601562 L 554.027344 450.367188 C 554.027344 450.367188 553.289062 448.621094 551.667969 447.519531 C 550.046875 446.421875 548.566406 446.648438 548.566406 446.648438 Z M 548.566406 446.648438 "/>
<path style=" stroke:none;fill-rule:nonzero;fill:rgb(100%,81.960785%,0%);fill-opacity:1;" d="M 552.023438 247.234375 C 552.023438 242.320312 556.859375 237.480469 556.859375 237.480469 L 438.945312 237.480469 C 438.945312 237.480469 443.78125 242.320312 443.78125 247.234375 L 443.78125 364.316406 C 443.78125 367.402344 444.492188 369.410156 445.628906 371.375 C 446.761719 373.488281 449.179688 376.410156 451.6875 378.582031 C 459.429688 385.292969 472.378906 392.367188 482.175781 398.3125 C 490.335938 403.265625 493.660156 405.265625 497.902344 412.273438 C 502.144531 405.265625 505.496094 403.265625 513.65625 398.3125 C 523.453125 392.367188 536.402344 385.292969 544.144531 378.582031 C 546.65625 376.410156 549.070312 373.488281 550.203125 371.375 C 551.339844 369.410156 552.023438 367.402344 552.023438 364.316406 Z M 552.023438 247.234375 "/>
<path style=" stroke:none;fill-rule:nonzero;fill:rgb(78.431374%,6.27451%,18.039216%);fill-opacity:1;" d="M 446.566406 313.476562 L 446.566406 247.230469 C 446.566406 243.480469 445.144531 241.199219 445.144531 241.199219 L 550.660156 241.199219 C 550.660156 241.199219 549.238281 243.484375 549.238281 247.230469 L 549.269531 313.476562 L 497.917969 334.226562 Z M 446.566406 313.476562 "/>
<path style=" stroke:none;fill-rule:nonzero;fill:rgb(0%,23.921569%,64.705884%);fill-opacity:1;" d="M 549.265625 313.476562 L 517.46875 312.679688 L 478.363281 312.679688 L 446.566406 313.476562 L 446.566406 364.316406 C 446.566406 366.871094 448.554688 372.859375 460.019531 380.476562 C 478.96875 393.074219 493.535156 398.957031 497.902344 406.125 C 502.269531 398.957031 516.832031 393.074219 535.785156 380.476562 C 547.25 372.859375 549.238281 366.871094 549.238281 364.316406 Z M 549.265625 313.476562 "/>
<path style=" stroke:none;fill-rule:nonzero;fill:rgb(0%,0%,0%);fill-opacity:1;" d="M 516.703125 310.824219 C 516.703125 310.824219 535.046875 304.652344 535.046875 278.496094 C 535.046875 258.070312 516.65625 247.9375 516.132812 243.0625 C 514.335938 251.496094 522.277344 263.144531 522.277344 276.941406 C 522.277344 294.792969 512.40625 295.648438 512.40625 295.648438 C 510.097656 295.648438 509.160156 297.847656 508.253906 297.847656 C 506.3125 297.574219 505.398438 294.28125 503.476562 294.28125 C 501.671875 294.28125 500.285156 297.996094 497.902344 297.996094 C 495.515625 297.996094 494.160156 294.28125 492.355469 294.28125 C 490.4375 294.28125 489.519531 297.574219 487.578125 297.847656 C 486.671875 297.847656 485.734375 295.648438 483.425781 295.648438 C 483.425781 295.648438 473.554688 294.792969 473.554688 276.941406 C 473.554688 263.144531 481.496094 251.496094 479.699219 243.0625 C 479.179688 247.9375 460.789062 258.070312 460.789062 278.496094 C 460.789062 304.652344 479.132812 310.824219 479.132812 310.824219 L 473.898438 323.53125 C 473.898438 323.53125 481.480469 324.039062 485.503906 328.617188 C 490.355469 334.136719 489.882812 345.832031 489.882812 354.339844 C 489.882812 361.042969 489.246094 368.117188 486.667969 371.03125 C 483.207031 374.949219 480.867188 375.238281 480.867188 379.835938 C 480.867188 383.671875 483.074219 384.4375 486.667969 386.96875 C 491.273438 390.210938 491.058594 394.554688 497.902344 394.554688 C 504.746094 394.554688 504.558594 390.210938 509.164062 386.96875 C 512.757812 384.4375 514.964844 383.671875 514.964844 379.835938 C 514.964844 375.238281 512.625 374.949219 509.164062 371.03125 C 506.585938 368.117188 505.949219 361.042969 505.949219 354.339844 C 505.949219 345.832031 505.480469 334.136719 510.332031 328.617188 C 514.355469 324.039062 521.933594 323.53125 521.933594 323.53125 Z M 516.703125 310.824219 "/>
<path style=" stroke:none;fill-rule:nonzero;fill:rgb(0%,0%,0%);fill-opacity:1;" d="M 497.898438 244.878906 L 494.714844 256.945312 L 486.039062 251.441406 L 490.164062 263.015625 L 481.121094 267.300781 L 490.164062 271.589844 L 486.039062 283.121094 L 494.714844 277.621094 L 497.898438 289.683594 L 501.113281 277.621094 L 509.789062 283.121094 L 505.664062 271.589844 L 514.707031 267.300781 L 505.664062 263.015625 L 509.789062 251.441406 L 501.113281 256.945312 Z M 478.359375 312.683594 C 478.359375 312.683594 467.035156 308.988281 462.804688 301.527344 C 455.410156 310.402344 446.5625 313.480469 446.5625 313.480469 C 446.5625 313.480469 455.789062 319.035156 462.804688 326.113281 C 466.035156 319.933594 478.359375 312.683594 478.359375 312.683594 Z M 517.464844 312.683594 C 517.464844 312.683594 529.792969 319.933594 533.023438 326.113281 C 540.039062 319.035156 549.261719 313.480469 549.261719 313.480469 C 549.261719 313.480469 540.421875 310.402344 533.023438 301.527344 C 528.792969 308.988281 517.464844 312.683594 517.464844 312.683594 Z M 483 328.765625 L 478.589844 334.644531 L 483 340.523438 L 487.410156 334.644531 Z M 512.832031 328.765625 L 508.425781 334.644531 L 512.832031 340.523438 L 517.242188 334.644531 Z M 481.890625 363.101562 C 481.890625 370.53125 481.351562 374.445312 481.351562 374.445312 C 481.351562 374.445312 487.566406 372.003906 488.804688 363.59375 C 489.382812 359.652344 490.027344 345.125 487.039062 342.652344 L 478.933594 340.527344 C 479.808594 343.414062 481.890625 352.367188 481.890625 363.101562 Z M 508.792969 342.652344 C 505.804688 345.125 506.449219 359.652344 507.03125 363.59375 C 508.269531 372.003906 514.480469 374.445312 514.480469 374.445312 C 514.480469 374.445312 513.941406 370.53125 513.941406 363.101562 C 513.941406 352.367188 516.023438 343.414062 516.898438 340.527344 Z M 462.78125 343.070312 C 459.984375 344.007812 458.296875 347.804688 459 351.53125 C 459.105469 352.101562 459.28125 352.628906 459.480469 353.125 C 459.066406 352.9375 458.636719 352.824219 458.203125 352.785156 C 458.023438 352.769531 457.839844 352.769531 457.660156 352.785156 C 455.015625 352.902344 452.8125 355.675781 452.628906 359.273438 C 452.429688 363.105469 454.617188 366.410156 457.492188 366.671875 C 457.910156 366.710938 458.328125 366.6875 458.742188 366.59375 C 458.488281 367.050781 458.277344 367.546875 458.117188 368.074219 C 457.042969 371.640625 458.34375 375.746094 461.019531 377.179688 C 463.691406 378.613281 466.738281 376.839844 467.816406 373.273438 C 467.96875 372.75 468.074219 372.199219 468.128906 371.640625 C 468.382812 372.105469 468.675781 372.527344 469.007812 372.890625 C 471.21875 375.359375 474.527344 374.96875 476.375 372.019531 C 477.261719 370.605469 477.695312 368.78125 477.570312 366.945312 C 477.449219 365.109375 476.78125 363.414062 475.722656 362.230469 C 475.386719 361.859375 475.015625 361.5625 474.640625 361.320312 C 475.050781 361.148438 475.441406 360.90625 475.804688 360.601562 C 478.246094 358.558594 478.988281 354.222656 477.457031 350.964844 C 476.402344 348.726562 474.554688 347.574219 472.707031 347.738281 C 471.835938 347.816406 470.996094 348.183594 470.261719 348.800781 C 469.898438 349.101562 469.5625 349.457031 469.265625 349.863281 C 469.269531 349.289062 469.222656 348.714844 469.121094 348.15625 C 468.507812 344.894531 466.261719 342.742188 463.832031 342.882812 C 463.476562 342.898438 463.125 342.960938 462.78125 343.070312 Z M 518.234375 363.328125 C 518.800781 370.433594 523.128906 376.386719 528.472656 378.089844 C 527.5625 376.097656 526.953125 373.878906 526.769531 371.523438 C 526.097656 363.097656 530.984375 356.273438 537.660156 356.273438 C 538.710938 356.273438 539.730469 356.445312 540.730469 356.765625 C 538.378906 351.617188 533.945312 348.039062 529.128906 348.039062 C 522.449219 348.039062 517.566406 354.90625 518.234375 363.328125 Z M 518.234375 363.328125 "/>
<path style=" stroke:none;fill-rule:nonzero;fill:rgb(100%,81.960785%,0%);fill-opacity:1;" d="M 470.882812 276.941406 C 470.882812 290.375 476.253906 298.300781 483.425781 298.300781 C 484.792969 298.300781 486.289062 300.765625 487.578125 300.765625 C 489.679688 300.765625 491.078125 297.65625 492.359375 297.65625 C 493.984375 297.65625 495.078125 301.070312 497.902344 301.070312 C 500.726562 301.070312 501.851562 297.65625 503.476562 297.65625 C 504.757812 297.65625 506.15625 300.765625 508.253906 300.765625 C 509.546875 300.765625 511.039062 298.300781 512.410156 298.300781 C 519.578125 298.300781 524.949219 290.375 524.949219 276.941406 C 524.949219 265.984375 518.054688 252.625 518.808594 250.457031 C 518.808594 250.457031 532.261719 263.332031 532.261719 278.496094 C 532.261719 302.925781 513.6875 308.960938 513.6875 308.960938 L 517.867188 321.519531 C 517.867188 321.519531 512.113281 322.671875 508.597656 326.453125 C 503.910156 331.496094 503.847656 345.121094 503.847656 354.335938 C 503.847656 365.195312 504.148438 369.792969 507.089844 372.738281 C 510.191406 375.847656 512.523438 376.515625 512.523438 379.683594 C 512.523438 382.441406 510.109375 383.570312 506.976562 385.410156 C 503.414062 387.507812 503.058594 391.140625 497.902344 391.140625 C 492.75 391.140625 492.421875 387.507812 488.859375 385.410156 C 485.726562 383.570312 483.3125 382.441406 483.3125 379.683594 C 483.3125 376.515625 485.644531 375.847656 488.746094 372.738281 C 491.683594 369.792969 491.988281 365.195312 491.988281 354.335938 C 491.988281 345.121094 491.925781 331.496094 487.238281 326.453125 C 483.722656 322.671875 477.964844 321.519531 477.964844 321.519531 L 482.144531 308.960938 C 482.144531 308.960938 463.574219 302.925781 463.574219 278.496094 C 463.574219 263.332031 477.027344 250.457031 477.027344 250.457031 C 477.78125 252.625 470.882812 265.984375 470.882812 276.941406 Z M 490.878906 377.824219 C 487.230469 377.824219 484.90625 378.851562 484.90625 380.328125 C 484.90625 381.808594 487.230469 382.796875 490.878906 382.796875 C 491.851562 382.796875 492.953125 382.042969 492.953125 380.328125 C 492.953125 378.617188 491.847656 377.824219 490.878906 377.824219 Z M 504.957031 377.824219 C 503.984375 377.824219 502.878906 378.621094 502.878906 380.328125 C 502.878906 382.042969 503.984375 382.796875 504.957031 382.796875 C 508.605469 382.796875 510.929688 381.808594 510.929688 380.328125 C 510.929688 378.851562 508.605469 377.824219 504.957031 377.824219 Z M 504.957031 377.824219 "/>
<path style=" stroke:none;fill-rule:nonzero;fill:rgb(100%,81.960785%,0%);fill-opacity:1;" d="M 497.933594 253 L 499.980469 260.703125 L 505.5 257.175781 L 502.882812 264.574219 L 508.628906 267.304688 L 502.882812 270.039062 L 505.5 277.398438 L 499.980469 273.90625 L 497.90625 281.570312 L 495.855469 273.90625 L 490.339844 277.398438 L 492.957031 270.039062 L 487.210938 267.304688 L 492.957031 264.574219 L 490.339844 257.175781 L 495.855469 260.703125 Z M 451.964844 313.695312 C 451.964844 313.695312 458.96875 318.351562 462.488281 322.5 L 462.6875 322.726562 L 462.800781 322.539062 C 466.125 317.445312 472.300781 313.128906 472.300781 313.128906 C 472.300781 313.128906 466.367188 310.945312 462.628906 305.238281 C 458.679688 310.609375 451.964844 313.695312 451.964844 313.695312 Z M 543.859375 313.707031 C 543.859375 313.707031 536.855469 318.363281 533.335938 322.511719 L 533.136719 322.738281 L 533.023438 322.550781 C 529.699219 317.457031 523.527344 313.140625 523.527344 313.140625 C 523.527344 313.140625 529.457031 310.957031 533.195312 305.25 C 537.144531 310.621094 543.859375 313.707031 543.859375 313.707031 Z M 483 331.574219 L 485.304688 334.644531 L 483 337.757812 L 480.667969 334.644531 Z M 512.832031 331.574219 L 515.167969 334.644531 L 512.832031 337.757812 L 510.53125 334.644531 Z M 486.128906 345 C 487.738281 347.964844 487.464844 352.753906 487.464844 359.417969 C 487.464844 366.140625 483.683594 368.714844 483.683594 368.714844 C 483.683594 352.5625 482.433594 348.679688 481.777344 343.785156 Z M 514.054688 343.785156 C 513.398438 348.679688 512.152344 352.5625 512.152344 368.714844 C 512.152344 368.714844 508.367188 366.136719 508.367188 359.417969 C 508.367188 352.753906 508.09375 347.964844 509.703125 345 Z M 514.054688 343.785156 "/>
<path style=" stroke:none;fill-rule:nonzero;fill:rgb(100%,81.960785%,0%);fill-opacity:1;" d="M 468.238281 349.898438 C 468.351562 350.503906 468.367188 351.097656 468.324219 351.683594 C 468.292969 352.167969 468.195312 352.609375 468.070312 353.046875 C 467.441406 352.742188 466.757812 352.59375 466.050781 352.59375 C 464.296875 352.59375 462.722656 353.621094 461.640625 355.25 C 461.355469 354.917969 461.109375 354.535156 460.902344 354.109375 C 460.667969 353.628906 460.472656 353.105469 460.363281 352.519531 C 459.816406 349.617188 461.144531 346.679688 463.320312 345.953125 C 463.589844 345.863281 463.875 345.816406 464.144531 345.800781 C 466.066406 345.699219 467.777344 347.410156 468.238281 349.898438 Z M 468.238281 349.898438 "/>
<path style=" stroke:none;fill-rule:nonzero;fill:rgb(100%,81.960785%,0%);fill-opacity:1;" d="M 474.304688 360.019531 C 473.90625 360.351562 473.488281 360.550781 473.058594 360.679688 C 472.703125 360.789062 472.359375 360.800781 472.003906 360.777344 C 472.03125 359.882812 471.925781 358.972656 471.707031 358.074219 C 471.164062 355.847656 469.945312 354.171875 468.449219 353.304688 C 468.597656 352.839844 468.796875 352.40625 469.035156 352.015625 C 469.304688 351.570312 469.617188 351.15625 470.003906 350.835938 C 471.902344 349.246094 474.40625 350.027344 475.597656 352.558594 C 475.746094 352.875 475.867188 353.222656 475.957031 353.558594 C 476.625 355.964844 475.933594 358.664062 474.304688 360.019531 Z M 474.304688 360.019531 "/>
<path style=" stroke:none;fill-rule:nonzero;fill:rgb(100%,81.960785%,0%);fill-opacity:1;" d="M 468.960938 370.84375 C 468.601562 370.441406 468.332031 369.96875 468.105469 369.464844 C 467.917969 369.046875 467.804688 368.613281 467.710938 368.160156 C 468.355469 367.914062 468.972656 367.5 469.546875 366.945312 C 470.964844 365.570312 471.78125 363.503906 471.941406 361.339844 C 472.316406 361.386719 472.6875 361.5 473.042969 361.679688 C 473.441406 361.886719 473.832031 362.160156 474.179688 362.546875 C 475.898438 364.464844 476.117188 367.882812 474.679688 370.175781 C 474.5 370.464844 474.289062 370.722656 474.078125 370.945312 C 472.570312 372.535156 470.433594 372.492188 468.960938 370.84375 Z M 468.960938 370.84375 "/>
<path style=" stroke:none;fill-rule:nonzero;fill:rgb(100%,81.960785%,0%);fill-opacity:1;" d="M 459.59375 367.40625 C 459.769531 366.828125 460.023438 366.339844 460.3125 365.898438 C 460.554688 365.53125 460.824219 365.25 461.121094 364.992188 C 461.496094 365.734375 461.980469 366.390625 462.554688 366.945312 C 463.972656 368.320312 465.699219 368.71875 467.292969 368.253906 C 467.375 368.746094 467.40625 369.25 467.386719 369.753906 C 467.363281 370.324219 467.292969 370.90625 467.121094 371.464844 C 466.285156 374.238281 463.917969 375.574219 461.835938 374.457031 C 461.578125 374.320312 461.328125 374.132812 461.105469 373.933594 C 459.503906 372.511719 458.875 369.785156 459.59375 367.40625 Z M 459.59375 367.40625 "/>
<path style=" stroke:none;fill-rule:nonzero;fill:rgb(100%,81.960785%,0%);fill-opacity:1;" d="M 459.148438 354.464844 C 459.617188 354.507812 460.042969 354.675781 460.449219 354.90625 C 460.785156 355.101562 461.066406 355.359375 461.34375 355.652344 C 460.929688 356.359375 460.613281 357.175781 460.394531 358.074219 C 459.851562 360.300781 460.101562 362.613281 460.925781 364.488281 C 460.601562 364.746094 460.25 364.945312 459.886719 365.074219 C 459.46875 365.222656 459.035156 365.308594 458.582031 365.269531 C 456.347656 365.0625 454.664062 362.46875 454.816406 359.488281 C 454.835938 359.113281 454.890625 358.738281 454.964844 358.394531 C 455.484375 355.925781 457.230469 354.28125 459.148438 354.464844 Z M 459.148438 354.464844 "/>
<path style=" stroke:none;fill-rule:nonzero;fill:rgb(100%,81.960785%,0%);fill-opacity:1;" d="M 469.976562 360.527344 C 469.976562 363.417969 468.21875 365.761719 466.050781 365.761719 C 463.882812 365.761719 462.125 363.417969 462.125 360.527344 C 462.125 357.636719 463.882812 355.289062 466.050781 355.289062 C 468.21875 355.289062 469.976562 357.636719 469.976562 360.527344 Z M 469.976562 360.527344 "/>
<path style=" stroke:none;fill-rule:nonzero;fill:rgb(100%,81.960785%,0%);fill-opacity:1;" d="M 534.957031 353.46875 C 528.441406 355.148438 523.753906 362.824219 524.433594 371.792969 C 522.359375 369.496094 520.839844 366.40625 520.566406 362.992188 C 520.039062 356.335938 523.664062 351.191406 529.128906 351.191406 C 531.21875 351.191406 533.226562 352.042969 534.957031 353.46875 Z M 534.957031 353.46875 "/>
</g>
</svg>
