<?xml version="1.0" encoding="UTF-8"?>
<svg xmlns="http://www.w3.org/2000/svg" xmlns:xlink="http://www.w3.org/1999/xlink" width="1000px" height="667px" viewBox="0 0 1000 667" version="1.1">
<g id="surface1">
<rect x="0" y="0" width="1000" height="667" style="fill:rgb(0%,18.82353%,52.941179%);fill-opacity:1;stroke:none;"/>
<path style=" stroke:none;fill-rule:nonzero;fill:rgb(100%,100%,100%);fill-opacity:1;" d="M 0 656.328125 L 0 640.320312 L 1000 77.816406 L 1000 272.136719 Z M 0 656.328125 "/>
<path style=" stroke:none;fill-rule:nonzero;fill:rgb(89.803922%,44.705883%,0%);fill-opacity:1;" d="M 0 645.65625 L 0 634.984375 L 1000 10.671875 L 1000 141.402344 Z M 0 645.65625 "/>
<path style=" stroke:none;fill-rule:nonzero;fill:rgb(100%,100%,100%);fill-opacity:1;" d="M 192.167969 36.765625 L 201.976562 243.535156 L 182.363281 243.535156 Z M 192.167969 36.765625 "/>
<path style=" stroke:none;fill-rule:nonzero;fill:rgb(100%,100%,100%);fill-opacity:1;" d="M 222.402344 100.53125 L 203.730469 247.460938 L 180.605469 239.609375 Z M 222.402344 100.53125 "/>
<path style=" stroke:none;fill-rule:nonzero;fill:rgb(100%,100%,100%);fill-opacity:1;" d="M 250.578125 115.324219 L 202.535156 251.121094 L 181.800781 235.949219 Z M 250.578125 115.324219 "/>
<path style=" stroke:none;fill-rule:nonzero;fill:rgb(100%,100%,100%);fill-opacity:1;" d="M 274.773438 138.851562 L 200.632812 254.261719 L 183.703125 232.808594 Z M 274.773438 138.851562 "/>
<path style=" stroke:none;fill-rule:nonzero;fill:rgb(100%,100%,100%);fill-opacity:1;" d="M 293.339844 169.511719 L 198.15625 256.675781 L 186.183594 230.394531 Z M 293.339844 169.511719 "/>
<path style=" stroke:none;fill-rule:nonzero;fill:rgb(100%,100%,100%);fill-opacity:1;" d="M 305.007812 205.21875 L 195.265625 258.191406 L 189.070312 228.878906 Z M 305.007812 205.21875 "/>
<path style=" stroke:none;fill-rule:nonzero;fill:rgb(100%,100%,100%);fill-opacity:1;" d="M 355.328125 243.535156 L 192.167969 255.964844 L 192.167969 231.105469 Z M 355.328125 243.535156 "/>
<path style=" stroke:none;fill-rule:nonzero;fill:rgb(100%,100%,100%);fill-opacity:1;" d="M 305.007812 281.851562 L 189.070312 258.191406 L 195.265625 228.878906 Z M 305.007812 281.851562 "/>
<path style=" stroke:none;fill-rule:nonzero;fill:rgb(100%,100%,100%);fill-opacity:1;" d="M 293.339844 317.558594 L 186.183594 256.675781 L 198.15625 230.394531 Z M 293.339844 317.558594 "/>
<path style=" stroke:none;fill-rule:nonzero;fill:rgb(100%,100%,100%);fill-opacity:1;" d="M 274.773438 348.21875 L 183.703125 254.261719 L 200.632812 232.808594 Z M 274.773438 348.21875 "/>
<path style=" stroke:none;fill-rule:nonzero;fill:rgb(100%,100%,100%);fill-opacity:1;" d="M 250.578125 371.746094 L 181.800781 251.121094 L 202.535156 235.949219 Z M 250.578125 371.746094 "/>
<path style=" stroke:none;fill-rule:nonzero;fill:rgb(100%,100%,100%);fill-opacity:1;" d="M 222.402344 386.539062 L 180.605469 247.460938 L 203.730469 239.609375 Z M 222.402344 386.539062 "/>
<path style=" stroke:none;fill-rule:nonzero;fill:rgb(100%,100%,100%);fill-opacity:1;" d="M 192.167969 450.304688 L 182.363281 243.535156 L 201.976562 243.535156 Z M 192.167969 450.304688 "/>
<path style=" stroke:none;fill-rule:nonzero;fill:rgb(100%,100%,100%);fill-opacity:1;" d="M 161.933594 386.539062 L 180.605469 239.609375 L 203.730469 247.460938 Z M 161.933594 386.539062 "/>
<path style=" stroke:none;fill-rule:nonzero;fill:rgb(100%,100%,100%);fill-opacity:1;" d="M 133.757812 371.746094 L 181.800781 235.949219 L 202.535156 251.121094 Z M 133.757812 371.746094 "/>
<path style=" stroke:none;fill-rule:nonzero;fill:rgb(100%,100%,100%);fill-opacity:1;" d="M 109.5625 348.21875 L 183.703125 232.808594 L 200.632812 254.261719 Z M 109.5625 348.21875 "/>
<path style=" stroke:none;fill-rule:nonzero;fill:rgb(100%,100%,100%);fill-opacity:1;" d="M 91 317.558594 L 186.183594 230.394531 L 198.15625 256.675781 Z M 91 317.558594 "/>
<path style=" stroke:none;fill-rule:nonzero;fill:rgb(100%,100%,100%);fill-opacity:1;" d="M 79.328125 281.851562 L 189.070312 228.878906 L 195.265625 258.191406 Z M 79.328125 281.851562 "/>
<path style=" stroke:none;fill-rule:nonzero;fill:rgb(100%,100%,100%);fill-opacity:1;" d="M 29.011719 243.535156 L 192.167969 231.105469 L 192.167969 255.964844 Z M 29.011719 243.535156 "/>
<path style=" stroke:none;fill-rule:nonzero;fill:rgb(100%,100%,100%);fill-opacity:1;" d="M 79.328125 205.21875 L 195.265625 228.878906 L 189.070312 258.191406 Z M 79.328125 205.21875 "/>
<path style=" stroke:none;fill-rule:nonzero;fill:rgb(100%,100%,100%);fill-opacity:1;" d="M 91 169.511719 L 198.15625 230.394531 L 186.183594 256.675781 Z M 91 169.511719 "/>
<path style=" stroke:none;fill-rule:nonzero;fill:rgb(100%,100%,100%);fill-opacity:1;" d="M 109.5625 138.851562 L 200.632812 232.808594 L 183.703125 254.261719 Z M 109.5625 138.851562 "/>
<path style=" stroke:none;fill-rule:nonzero;fill:rgb(100%,100%,100%);fill-opacity:1;" d="M 133.757812 115.324219 L 202.535156 235.949219 L 181.800781 251.121094 Z M 133.757812 115.324219 "/>
<path style=" stroke:none;fill-rule:nonzero;fill:rgb(100%,100%,100%);fill-opacity:1;" d="M 161.933594 100.53125 L 203.730469 239.609375 L 180.605469 247.460938 Z M 161.933594 100.53125 "/>
</g>
</svg>
