<?xml version="1.0" encoding="UTF-8"?>
<svg xmlns="http://www.w3.org/2000/svg" xmlns:xlink="http://www.w3.org/1999/xlink" width="1000px" height="667px" viewBox="0 0 1000 667" version="1.1">
<g id="surface1">
<rect x="0" y="0" width="1000" height="667" style="fill:rgb(84.705883%,12.941177%,14.901961%);fill-opacity:1;stroke:none;"/>
<path style=" stroke:none;fill-rule:nonzero;fill:rgb(97.254902%,91.37255%,18.039216%);fill-opacity:1;" d="M 0 400.199219 L 0 266.800781 L 1000 400.199219 L 1000 266.800781 Z M 450 0 L 550 0 L 500 262.035156 Z M 550 667 L 450 667 L 500 404.964844 Z M 0 0 L 150 0 L 545.929688 370.28125 Z M 0 667 L 150 667 L 545.929688 296.71875 Z M 1000 0 L 850 0 L 454.070312 370.28125 Z M 1000 667 L 850 667 L 454.070312 296.71875 Z M 1000 667 "/>
<path style=" stroke:none;fill-rule:nonzero;fill:rgb(84.705883%,12.941177%,14.901961%);fill-opacity:1;" d="M 589.285156 333.5 C 589.285156 399.28125 549.3125 452.605469 500 452.605469 C 450.6875 452.605469 410.714844 399.28125 410.714844 333.5 C 410.714844 267.71875 450.6875 214.394531 500 214.394531 C 549.3125 214.394531 589.285156 267.71875 589.285156 333.5 Z M 589.285156 333.5 "/>
<path style=" stroke:none;fill-rule:nonzero;fill:rgb(97.254902%,91.37255%,18.039216%);fill-opacity:1;" d="M 571.429688 333.5 C 571.429688 386.125 539.449219 428.785156 500 428.785156 C 460.550781 428.785156 428.570312 386.125 428.570312 333.5 C 428.570312 280.875 460.550781 238.214844 500 238.214844 C 539.449219 238.214844 571.429688 280.875 571.429688 333.5 Z M 571.429688 333.5 "/>
</g>
</svg>
