<?xml version="1.0" encoding="UTF-8"?>
<svg xmlns="http://www.w3.org/2000/svg" xmlns:xlink="http://www.w3.org/1999/xlink" width="1000px" height="667px" viewBox="0 0 1000 667" version="1.1">
<g id="surface1">
<rect x="0" y="0" width="1000" height="667" style="fill:rgb(0%,47.058824%,36.862746%);fill-opacity:1;stroke:none;"/>
<path style=" stroke:none;fill-rule:nonzero;fill:rgb(98.431373%,81.960785%,8.627451%);fill-opacity:1;" d="M 500 125.757812 L 478.472656 192.054688 L 534.839844 151.085938 L 465.160156 151.085938 L 521.527344 192.054688 Z M 500 125.757812 "/>
<path style=" stroke:none;fill-rule:nonzero;fill:rgb(100%,100%,100%);fill-opacity:1;" d="M 500 460.820312 L 357.671875 460.820312 C 355.878906 459.003906 354.109375 457.148438 352.386719 455.261719 L 500 455.261719 C 501.136719 455.671875 501.917969 456.714844 501.980469 457.894531 C 502.042969 459.171875 501.238281 460.371094 500 460.820312 Z M 500 417.277344 C 500.824219 415.589844 502.433594 411.675781 501.703125 406.785156 C 501.375 404.566406 500.65625 402.777344 500 401.492188 C 492.011719 409.054688 477.007812 421.167969 454.871094 427.871094 C 444.535156 431 433.574219 432.679688 422.222656 432.679688 L 334.539062 432.679688 C 337.121094 436.480469 339.832031 440.191406 342.664062 443.796875 L 427.429688 443.796875 C 455.070312 443.796875 480.390625 433.820312 500 417.277344 Z M 347.785156 382.960938 C 343.566406 384.585938 339.039062 385.601562 334.320312 385.878906 C 354.972656 409.25 385.148438 423.996094 418.75 423.996094 C 450.667969 423.996094 479.492188 410.695312 500 389.332031 C 503.480469 365.320312 506.011719 337.839844 506.3125 307.476562 C 506.664062 272.125 503.917969 240.472656 500 213.441406 C 490.839844 221.65625 473.679688 239.40625 465.589844 266.617188 C 462.5625 276.804688 460.9375 287.59375 460.9375 298.761719 C 460.9375 321.941406 467.941406 343.488281 479.945312 361.410156 C 465.203125 342.355469 456.421875 318.453125 456.421875 292.507812 C 456.421875 275.273438 460.296875 258.9375 467.21875 244.328125 C 462.441406 239.273438 458.808594 233.121094 456.757812 226.285156 C 447.484375 242.664062 442.1875 261.582031 442.1875 281.738281 C 442.1875 306.808594 450.382812 329.972656 464.234375 348.699219 C 440.109375 323.394531 406.085938 307.617188 368.402344 307.617188 C 366.378906 307.617188 364.359375 307.671875 362.359375 307.761719 C 366.148438 311.296875 369.332031 315.472656 371.734375 320.125 C 409.222656 320.183594 443.0625 335.855469 467.132812 360.976562 C 444.148438 341.769531 414.5625 330.199219 382.292969 330.199219 C 364.257812 330.199219 347.066406 333.8125 331.390625 340.351562 C 347.496094 382.925781 388.636719 413.226562 436.808594 413.226562 C 439.925781 413.226562 443.019531 413.085938 446.074219 412.835938 C 439.574219 414.003906 432.878906 414.617188 426.042969 414.617188 C 395.648438 414.617188 368.0625 402.554688 347.785156 382.960938 Z M 500 506.328125 L 426.238281 506.328125 C 449.066406 515.40625 473.953125 520.398438 500 520.398438 C 500.628906 519.203125 501.703125 516.765625 501.738281 513.511719 C 501.769531 510.089844 500.632812 507.53125 500 506.328125 Z M 500 472.285156 L 369.953125 472.285156 C 373.472656 475.300781 377.09375 478.199219 380.816406 480.96875 L 500 480.96875 C 500.296875 480.664062 501.769531 479.09375 501.769531 476.625 C 501.769531 474.15625 500.296875 472.589844 500 472.285156 Z M 500 489.652344 L 393.480469 489.652344 C 399.929688 493.726562 406.621094 497.445312 413.542969 500.769531 L 500 500.769531 C 500.5 499.976562 501.683594 497.863281 501.609375 494.941406 C 501.542969 492.335938 500.507812 490.457031 500 489.652344 Z M 500 489.652344 "/>
<path style=" stroke:none;fill-rule:nonzero;fill:rgb(98.431373%,81.960785%,8.627451%);fill-opacity:1;" d="M 360.058594 228.402344 L 339.691406 272.121094 L 381.847656 248.722656 L 334.007812 242.851562 L 369.261719 275.746094 Z M 360.058594 228.402344 "/>
<path style=" stroke:none;fill-rule:nonzero;fill:rgb(98.431373%,81.960785%,8.627451%);fill-opacity:1;" d="M 394.945312 170.191406 L 409.039062 216.320312 L 424.738281 170.703125 L 385.242188 198.375 L 433.453125 199.210938 Z M 394.945312 170.191406 "/>
<path style=" stroke:none;fill-rule:nonzero;fill:rgb(100%,100%,100%);fill-opacity:1;" d="M 500 460.820312 L 642.328125 460.820312 C 644.121094 459.003906 645.890625 457.148438 647.613281 455.261719 L 500 455.261719 C 498.863281 455.671875 498.082031 456.714844 498.019531 457.894531 C 497.957031 459.171875 498.761719 460.371094 500 460.820312 Z M 500 417.277344 C 499.175781 415.589844 497.566406 411.675781 498.296875 406.785156 C 498.625 404.566406 499.34375 402.777344 500 401.492188 C 507.988281 409.054688 522.992188 421.167969 545.128906 427.871094 C 555.464844 431 566.425781 432.679688 577.777344 432.679688 L 665.460938 432.679688 C 662.878906 436.480469 660.167969 440.191406 657.335938 443.796875 L 572.570312 443.796875 C 544.929688 443.796875 519.609375 433.820312 500 417.277344 Z M 652.214844 382.960938 C 656.433594 384.585938 660.960938 385.601562 665.679688 385.878906 C 645.027344 409.25 614.851562 423.996094 581.25 423.996094 C 549.332031 423.996094 520.507812 410.695312 500 389.332031 C 496.519531 365.320312 493.988281 337.839844 493.6875 307.476562 C 493.335938 272.125 496.082031 240.472656 500 213.441406 C 509.160156 221.65625 526.320312 239.40625 534.410156 266.617188 C 537.4375 276.804688 539.0625 287.59375 539.0625 298.761719 C 539.0625 321.941406 532.058594 343.488281 520.054688 361.410156 C 534.796875 342.355469 543.578125 318.453125 543.578125 292.507812 C 543.578125 275.273438 539.703125 258.9375 532.78125 244.328125 C 537.558594 239.273438 541.191406 233.121094 543.242188 226.285156 C 552.515625 242.664062 557.8125 261.582031 557.8125 281.738281 C 557.8125 306.808594 549.617188 329.972656 535.765625 348.699219 C 559.890625 323.394531 593.914062 307.617188 631.597656 307.617188 C 633.621094 307.617188 635.640625 307.671875 637.640625 307.761719 C 633.851562 311.296875 630.667969 315.472656 628.265625 320.125 C 590.777344 320.183594 556.9375 335.855469 532.867188 360.976562 C 555.851562 341.769531 585.4375 330.199219 617.707031 330.199219 C 635.742188 330.199219 652.933594 333.8125 668.609375 340.351562 C 652.503906 382.925781 611.363281 413.226562 563.191406 413.226562 C 560.074219 413.226562 556.980469 413.085938 553.925781 412.835938 C 560.425781 414.003906 567.121094 414.617188 573.957031 414.617188 C 604.351562 414.617188 631.9375 402.554688 652.214844 382.960938 Z M 500 506.328125 L 573.761719 506.328125 C 550.933594 515.40625 526.046875 520.398438 500 520.398438 C 499.371094 519.203125 498.296875 516.765625 498.261719 513.511719 C 498.230469 510.089844 499.367188 507.53125 500 506.328125 Z M 500 472.285156 L 630.046875 472.285156 C 626.527344 475.300781 622.90625 478.199219 619.183594 480.96875 L 500 480.96875 C 499.703125 480.664062 498.230469 479.09375 498.230469 476.625 C 498.230469 474.15625 499.703125 472.589844 500 472.285156 Z M 500 489.652344 L 606.519531 489.652344 C 600.070312 493.726562 593.378906 497.445312 586.457031 500.769531 L 500 500.769531 C 499.5 499.976562 498.316406 497.863281 498.390625 494.941406 C 498.457031 492.335938 499.492188 490.457031 500 489.652344 Z M 500 489.652344 "/>
<path style=" stroke:none;fill-rule:nonzero;fill:rgb(98.431373%,81.960785%,8.627451%);fill-opacity:1;" d="M 639.941406 228.402344 L 660.308594 272.121094 L 618.152344 248.722656 L 665.992188 242.851562 L 630.738281 275.746094 Z M 639.941406 228.402344 "/>
<path style=" stroke:none;fill-rule:nonzero;fill:rgb(98.431373%,81.960785%,8.627451%);fill-opacity:1;" d="M 605.054688 170.191406 L 590.960938 216.320312 L 575.261719 170.703125 L 614.757812 198.375 L 566.546875 199.210938 Z M 605.054688 170.191406 "/>
</g>
</svg>
