<?xml version="1.0" encoding="UTF-8"?>
<svg xmlns="http://www.w3.org/2000/svg" xmlns:xlink="http://www.w3.org/1999/xlink" width="1000px" height="667px" viewBox="0 0 1000 667" version="1.1">
<g id="surface1">
<rect x="0" y="0" width="1000" height="667" style="fill:rgb(82.352942%,6.27451%,20.392157%);fill-opacity:1;stroke:none;"/>
<path style=" stroke:none;fill-rule:nonzero;fill:rgb(0%,49.411765%,22.745098%);fill-opacity:1;" d="M 166.667969 166.75 L 833.332031 166.75 L 833.332031 500.25 L 166.667969 500.25 Z M 166.667969 166.75 "/>
<path style=" stroke:none;fill-rule:nonzero;fill:rgb(100%,100%,100%);fill-opacity:1;" d="M 652.777344 333.5 C 652.777344 394.894531 603.03125 444.667969 541.667969 444.667969 C 480.300781 444.667969 430.554688 394.894531 430.554688 333.5 C 430.554688 272.105469 480.300781 222.332031 541.667969 222.332031 C 603.03125 222.332031 652.777344 272.105469 652.777344 333.5 Z M 652.777344 333.5 "/>
<path style=" stroke:none;fill-rule:nonzero;fill:rgb(0%,49.411765%,22.745098%);fill-opacity:1;" d="M 694.445312 333.5 C 694.445312 394.894531 644.699219 444.667969 583.332031 444.667969 C 521.96875 444.667969 472.222656 394.894531 472.222656 333.5 C 472.222656 272.105469 521.96875 222.332031 583.332031 222.332031 C 644.699219 222.332031 694.445312 272.105469 694.445312 333.5 Z M 694.445312 333.5 "/>
</g>
</svg>
