<?xml version="1.0" encoding="UTF-8"?>
<svg xmlns="http://www.w3.org/2000/svg" xmlns:xlink="http://www.w3.org/1999/xlink" width="1000px" height="667px" viewBox="0 0 1000 667" version="1.1">
<g id="surface1">
<rect x="0" y="0" width="1000" height="667" style="fill:rgb(0%,0%,0%);fill-opacity:1;stroke:none;"/>
<path style=" stroke:none;fill-rule:nonzero;fill:rgb(80.784315%,6.666667%,14.901961%);fill-opacity:1;" d="M 643.332031 253.460938 C 643.332031 332.660156 579.160156 396.863281 500 396.863281 C 420.839844 396.863281 356.667969 332.660156 356.667969 253.460938 C 356.667969 174.257812 420.839844 110.054688 500 110.054688 C 579.160156 110.054688 643.332031 174.257812 643.332031 253.460938 Z M 643.332031 253.460938 "/>
<path style=" stroke:none;fill-rule:nonzero;fill:rgb(80.784315%,6.666667%,14.901961%);fill-opacity:1;" d="M 0 222.332031 L 1000 222.332031 L 1000 444.667969 L 0 444.667969 Z M 0 222.332031 "/>
<path style=" stroke:none;fill-rule:nonzero;fill:rgb(80.784315%,6.666667%,14.901961%);fill-opacity:1;" d="M 500 26.679688 C 495.109375 26.679688 493.332031 34.015625 493.332031 41.132812 C 493.332031 58.917969 495.554688 67.8125 500 93.378906 C 504.535156 67.8125 506.667969 58.695312 506.667969 41.132812 C 506.667969 33.792969 504.445312 26.679688 500 26.679688 "/>
<path style=" stroke:none;fill-rule:nonzero;fill:rgb(80.784315%,6.666667%,14.901961%);fill-opacity:1;" d="M 519.753906 27.542969 C 514.886719 27.117188 512.476562 34.269531 511.855469 41.359375 C 510.304688 59.078125 511.746094 68.128906 513.945312 93.988281 C 520.6875 68.914062 523.609375 60.019531 525.136719 42.519531 C 525.777344 35.210938 524.183594 27.929688 519.753906 27.542969 "/>
<path style=" stroke:none;fill-rule:nonzero;fill:rgb(80.784315%,6.666667%,14.901961%);fill-opacity:1;" d="M 539.359375 30.125 C 534.546875 29.277344 531.519531 36.191406 530.285156 43.199219 C 527.199219 60.714844 527.84375 69.859375 527.785156 95.8125 C 536.6875 71.417969 540.367188 62.8125 543.417969 45.515625 C 544.691406 38.289062 543.738281 30.898438 539.359375 30.125 "/>
<path style=" stroke:none;fill-rule:nonzero;fill:rgb(80.784315%,6.666667%,14.901961%);fill-opacity:1;" d="M 558.664062 34.40625 C 553.941406 33.140625 550.328125 39.769531 548.488281 46.640625 C 543.886719 63.820312 543.730469 72.988281 541.410156 98.835938 C 552.402344 75.3125 556.824219 67.058594 561.367188 50.09375 C 563.265625 43.007812 562.957031 35.558594 558.664062 34.40625 "/>
<path style=" stroke:none;fill-rule:nonzero;fill:rgb(80.784315%,6.666667%,14.901961%);fill-opacity:1;" d="M 577.523438 40.355469 C 572.929688 38.683594 568.75 44.96875 566.320312 51.65625 C 560.238281 68.371094 559.289062 77.488281 554.722656 103.035156 C 567.722656 80.558594 572.84375 72.722656 578.847656 56.21875 C 581.355469 49.324219 581.699219 41.878906 577.523438 40.355469 "/>
<path style=" stroke:none;fill-rule:nonzero;fill:rgb(80.784315%,6.666667%,14.901961%);fill-opacity:1;" d="M 595.792969 47.925781 C 591.363281 45.859375 586.652344 51.757812 583.648438 58.207031 C 576.132812 74.328125 574.390625 83.328125 567.617188 108.378906 C 582.527344 87.121094 588.3125 79.761719 595.730469 63.84375 C 598.832031 57.195312 599.820312 49.808594 595.792969 47.925781 "/>
<path style=" stroke:none;fill-rule:nonzero;fill:rgb(80.784315%,6.666667%,14.901961%);fill-opacity:1;" d="M 613.332031 57.0625 C 609.097656 54.617188 603.894531 60.082031 600.335938 66.242188 C 591.449219 81.648438 588.929688 90.460938 580 114.828125 C 596.703125 94.953125 603.105469 88.125 611.882812 72.914062 C 615.550781 66.558594 617.183594 59.285156 613.332031 57.0625 "/>
<path style=" stroke:none;fill-rule:nonzero;fill:rgb(80.784315%,6.666667%,14.901961%);fill-opacity:1;" d="M 630.011719 67.691406 C 626.007812 64.886719 620.34375 69.878906 616.265625 75.703125 C 606.066406 90.273438 602.789062 98.835938 591.773438 122.332031 C 610.144531 103.988281 617.117188 97.746094 627.1875 83.355469 C 631.394531 77.347656 633.652344 70.242188 630.011719 67.691406 "/>
<path style=" stroke:none;fill-rule:nonzero;fill:rgb(80.784315%,6.666667%,14.901961%);fill-opacity:1;" d="M 645.699219 79.738281 C 641.953125 76.59375 635.878906 81.070312 631.308594 86.519531 C 619.878906 100.144531 615.867188 108.386719 602.847656 130.832031 C 622.746094 114.160156 630.234375 108.550781 641.519531 95.09375 C 646.234375 89.472656 649.101562 82.59375 645.699219 79.738281 "/>
<path style=" stroke:none;fill-rule:nonzero;fill:rgb(80.784315%,6.666667%,14.901961%);fill-opacity:1;" d="M 660.277344 93.101562 C 656.820312 89.644531 650.378906 93.574219 645.351562 98.605469 C 632.777344 111.183594 628.066406 119.042969 613.136719 140.265625 C 634.414062 125.394531 642.363281 120.457031 654.777344 108.039062 C 659.964844 102.847656 663.421875 96.246094 660.277344 93.101562 "/>
<path style=" stroke:none;fill-rule:nonzero;fill:rgb(80.784315%,6.666667%,14.901961%);fill-opacity:1;" d="M 673.636719 107.6875 C 670.496094 103.941406 663.734375 107.296875 658.285156 111.867188 C 644.667969 123.300781 639.285156 130.722656 622.566406 150.5625 C 645.058594 137.601562 653.410156 133.378906 666.855469 122.085938 C 672.472656 117.371094 676.492188 111.09375 673.636719 107.6875 "/>
<path style=" stroke:none;fill-rule:nonzero;fill:rgb(80.784315%,6.666667%,14.901961%);fill-opacity:1;" d="M 685.675781 123.382812 C 682.871094 119.378906 675.84375 122.128906 670.019531 126.210938 C 655.457031 136.410156 649.449219 143.335938 631.0625 161.640625 C 654.597656 150.691406 663.285156 147.210938 677.667969 137.136719 C 683.671875 132.929688 688.222656 127.027344 685.675781 123.382812 "/>
<path style=" stroke:none;fill-rule:nonzero;fill:rgb(80.784315%,6.666667%,14.901961%);fill-opacity:1;" d="M 696.300781 140.070312 C 693.855469 135.832031 686.613281 137.960938 680.457031 141.519531 C 665.058594 150.414062 658.472656 156.785156 638.5625 173.421875 C 662.960938 164.5625 671.917969 161.855469 687.125 153.070312 C 693.472656 149.402344 698.519531 143.921875 696.300781 140.070312 "/>
<path style=" stroke:none;fill-rule:nonzero;fill:rgb(80.784315%,6.666667%,14.901961%);fill-opacity:1;" d="M 705.429688 157.617188 C 703.363281 153.1875 695.964844 154.675781 689.519531 157.679688 C 673.410156 165.199219 666.292969 170.972656 645.007812 185.808594 C 670.085938 179.113281 679.246094 177.195312 695.15625 169.769531 C 701.800781 166.671875 707.308594 161.648438 705.429688 157.617188 "/>
<path style=" stroke:none;fill-rule:nonzero;fill:rgb(80.784315%,6.666667%,14.901961%);fill-opacity:1;" d="M 712.996094 175.898438 C 711.324219 171.300781 703.824219 172.136719 697.144531 174.570312 C 680.4375 180.65625 672.84375 185.785156 650.351562 198.710938 C 675.914062 194.226562 685.207031 193.113281 701.703125 187.105469 C 708.59375 184.597656 714.515625 180.074219 712.996094 175.898438 "/>
<path style=" stroke:none;fill-rule:nonzero;fill:rgb(80.784315%,6.666667%,14.901961%);fill-opacity:1;" d="M 718.941406 194.765625 C 717.679688 190.039062 710.132812 190.222656 703.265625 192.0625 C 686.09375 196.667969 678.082031 201.117188 654.546875 212.027344 C 680.40625 209.792969 689.757812 209.492188 706.714844 204.949219 C 713.800781 203.050781 720.09375 199.058594 718.941406 194.765625 "/>
<path style=" stroke:none;fill-rule:nonzero;fill:rgb(80.784315%,6.666667%,14.901961%);fill-opacity:1;" d="M 276.777344 214.078125 C 275.929688 218.898438 282.839844 221.921875 289.84375 223.160156 C 307.351562 226.246094 316.492188 225.601562 342.429688 225.664062 C 318.050781 216.753906 309.449219 213.070312 292.160156 210.019531 C 284.9375 208.746094 277.546875 209.699219 276.777344 214.078125 "/>
<path style=" stroke:none;fill-rule:nonzero;fill:rgb(80.784315%,6.666667%,14.901961%);fill-opacity:1;" d="M 281.058594 194.765625 C 279.792969 199.488281 286.414062 203.105469 293.285156 204.949219 C 310.457031 209.550781 319.617188 209.707031 345.453125 212.027344 C 321.941406 201.03125 313.691406 196.609375 296.734375 192.0625 C 289.652344 190.164062 282.207031 190.46875 281.058594 194.765625 "/>
<path style=" stroke:none;fill-rule:nonzero;fill:rgb(80.784315%,6.666667%,14.901961%);fill-opacity:1;" d="M 287.003906 175.898438 C 285.332031 180.492188 291.613281 184.671875 298.296875 187.105469 C 315 193.191406 324.113281 194.144531 349.648438 198.710938 C 327.183594 185.703125 319.351562 180.578125 302.855469 174.570312 C 295.964844 172.0625 288.523438 171.71875 287.003906 175.898438 "/>
<path style=" stroke:none;fill-rule:nonzero;fill:rgb(80.784315%,6.666667%,14.901961%);fill-opacity:1;" d="M 294.570312 157.617188 C 292.503906 162.050781 298.398438 166.765625 304.84375 169.769531 C 320.957031 177.289062 329.953125 179.03125 354.992188 185.808594 C 333.746094 170.890625 326.390625 165.105469 310.480469 157.679688 C 303.832031 154.582031 296.449219 153.589844 294.570312 157.617188 "/>
<path style=" stroke:none;fill-rule:nonzero;fill:rgb(80.784315%,6.666667%,14.901961%);fill-opacity:1;" d="M 303.699219 140.070312 C 301.257812 144.304688 306.71875 149.515625 312.875 153.070312 C 328.273438 161.964844 337.082031 164.488281 361.4375 173.421875 C 341.570312 156.707031 334.746094 150.300781 319.542969 141.519531 C 313.191406 137.851562 305.921875 136.21875 303.699219 140.070312 "/>
<path style=" stroke:none;fill-rule:nonzero;fill:rgb(80.784315%,6.666667%,14.901961%);fill-opacity:1;" d="M 314.324219 123.382812 C 311.519531 127.390625 316.507812 133.054688 322.332031 137.136719 C 336.898438 147.339844 345.453125 150.617188 368.9375 161.640625 C 350.601562 143.261719 344.363281 136.285156 329.980469 126.210938 C 323.972656 122 316.875 119.742188 314.324219 123.382812 "/>
<path style=" stroke:none;fill-rule:nonzero;fill:rgb(80.784315%,6.666667%,14.901961%);fill-opacity:1;" d="M 326.363281 107.6875 C 323.222656 111.4375 327.695312 117.515625 333.144531 122.085938 C 346.761719 133.519531 355 137.535156 377.433594 150.5625 C 360.769531 130.652344 355.160156 123.160156 341.714844 111.867188 C 336.097656 107.152344 329.21875 104.28125 326.363281 107.6875 "/>
<path style=" stroke:none;fill-rule:nonzero;fill:rgb(80.784315%,6.666667%,14.901961%);fill-opacity:1;" d="M 339.722656 93.101562 C 336.265625 96.5625 340.195312 103.007812 345.222656 108.039062 C 357.792969 120.613281 365.648438 125.332031 386.863281 140.265625 C 371.996094 118.980469 367.0625 111.023438 354.648438 98.605469 C 349.464844 93.417969 342.863281 89.957031 339.722656 93.101562 "/>
<path style=" stroke:none;fill-rule:nonzero;fill:rgb(80.784315%,6.666667%,14.901961%);fill-opacity:1;" d="M 354.300781 79.738281 C 350.554688 82.878906 353.910156 89.644531 358.480469 95.09375 C 369.90625 108.71875 377.324219 114.101562 397.152344 130.832031 C 384.199219 108.328125 379.976562 99.976562 368.691406 86.519531 C 363.980469 80.898438 357.707031 76.878906 354.300781 79.738281 "/>
<path style=" stroke:none;fill-rule:nonzero;fill:rgb(80.784315%,6.666667%,14.901961%);fill-opacity:1;" d="M 369.988281 67.691406 C 365.984375 70.5 368.734375 77.527344 372.8125 83.355469 C 383.011719 97.925781 389.929688 103.9375 408.226562 122.332031 C 397.28125 98.785156 393.804688 90.09375 383.734375 75.703125 C 379.527344 69.695312 373.628906 65.140625 369.988281 67.691406 "/>
<path style=" stroke:none;fill-rule:nonzero;fill:rgb(80.784315%,6.666667%,14.901961%);fill-opacity:1;" d="M 386.667969 57.0625 C 382.433594 59.507812 384.558594 66.75 388.117188 72.914062 C 397.003906 88.316406 403.375 94.90625 420 114.828125 C 411.148438 90.417969 408.441406 81.453125 399.664062 66.242188 C 395.996094 59.890625 390.515625 54.839844 386.667969 57.0625 "/>
<path style=" stroke:none;fill-rule:nonzero;fill:rgb(80.784315%,6.666667%,14.901961%);fill-opacity:1;" d="M 404.207031 47.925781 C 399.777344 49.996094 401.265625 57.394531 404.269531 63.84375 C 411.78125 79.964844 417.554688 87.085938 432.382812 108.378906 C 425.6875 83.289062 423.773438 74.125 416.351562 58.207031 C 413.253906 51.558594 408.234375 46.046875 404.207031 47.925781 "/>
<path style=" stroke:none;fill-rule:nonzero;fill:rgb(80.784315%,6.666667%,14.901961%);fill-opacity:1;" d="M 422.476562 40.355469 C 417.882812 42.03125 418.71875 49.53125 421.152344 56.21875 C 427.230469 72.933594 432.359375 80.527344 445.277344 103.035156 C 440.796875 77.457031 439.683594 68.160156 433.679688 51.65625 C 431.171875 44.761719 426.652344 38.835938 422.476562 40.355469 "/>
<path style=" stroke:none;fill-rule:nonzero;fill:rgb(80.784315%,6.666667%,14.901961%);fill-opacity:1;" d="M 441.335938 34.40625 C 436.613281 35.671875 436.792969 43.21875 438.632812 50.09375 C 443.234375 67.273438 447.683594 75.289062 458.589844 98.835938 C 456.355469 72.964844 456.054688 63.605469 451.511719 46.640625 C 449.613281 39.554688 445.628906 33.257812 441.335938 34.40625 "/>
<path style=" stroke:none;fill-rule:nonzero;fill:rgb(80.784315%,6.666667%,14.901961%);fill-opacity:1;" d="M 460.640625 30.125 C 455.824219 30.976562 455.347656 38.507812 456.582031 45.515625 C 459.667969 63.03125 463.402344 71.402344 472.214844 95.8125 C 472.242188 69.84375 472.761719 60.496094 469.714844 43.199219 C 468.441406 35.972656 465.015625 29.351562 460.640625 30.125 "/>
<path style=" stroke:none;fill-rule:nonzero;fill:rgb(80.784315%,6.666667%,14.901961%);fill-opacity:1;" d="M 480.246094 27.542969 C 475.375 27.96875 474.242188 35.433594 474.863281 42.519531 C 476.410156 60.238281 479.398438 68.90625 486.054688 93.988281 C 488.34375 68.121094 489.675781 58.855469 488.144531 41.359375 C 487.503906 34.050781 484.671875 27.15625 480.246094 27.542969 "/>
<path style=" stroke:none;fill-rule:nonzero;fill:rgb(0%,0%,0%);fill-opacity:1;" d="M 0 205.660156 L 1000 205.660156 L 1000 222.332031 L 0 222.332031 Z M 0 205.660156 "/>
<path style=" stroke:none;fill-rule:nonzero;fill:rgb(20%,61.960787%,20.784314%);fill-opacity:1;" d="M 0 444.667969 L 1000 444.667969 L 1000 667 L 0 667 Z M 0 444.667969 "/>
</g>
</svg>
