<?xml version="1.0" encoding="UTF-8"?>
<svg xmlns="http://www.w3.org/2000/svg" xmlns:xlink="http://www.w3.org/1999/xlink" width="1000px" height="667px" viewBox="0 0 1000 667" version="1.1">
<g id="surface1">
<rect x="0" y="0" width="1000" height="667" style="fill:rgb(100%,100%,100%);fill-opacity:1;stroke:none;"/>
<path style="fill-rule:nonzero;fill:rgb(0%,0%,0%);fill-opacity:1;stroke-width:1;stroke-linecap:butt;stroke-linejoin:miter;stroke:rgb(80.000001%,0%,0%);stroke-opacity:1;stroke-miterlimit:4;" d="M 1.000016 0.499977 L 28 0.499977 M 28 2.499965 L 1.000016 2.499965 M 1.000016 4.500035 L 28 4.500035 M 28 6.500023 L 1.000016 6.500023 " transform="matrix(35.714286,0,0,47.642857,0,0)"/>
<path style=" stroke:none;fill-rule:nonzero;fill:rgb(0%,0%,40.000001%);fill-opacity:1;" d="M 0 0 L 500 0 L 500 404.964844 L 0 404.964844 Z M 0 0 "/>
<path style="fill-rule:nonzero;fill:rgb(0%,0%,0%);fill-opacity:1;stroke-width:1;stroke-linecap:butt;stroke-linejoin:miter;stroke:rgb(80.000001%,0%,0%);stroke-opacity:1;stroke-miterlimit:4;" d="M 0 8.500012 L 28 8.500012 M 28 10.5 L 0 10.5 M 0 12.499988 L 28 12.499988 " transform="matrix(35.714286,0,0,47.642857,0,0)"/>
<path style=" stroke:none;fill-rule:nonzero;fill:rgb(100%,80.000001%,0%);fill-opacity:1;" d="M 312.5 71.464844 L 320.460938 144.121094 L 351.265625 83.277344 L 334.746094 153.351562 L 382.292969 116.328125 L 344.644531 169.925781 L 399.554688 164.070312 L 348.214844 190.570312 L 399.554688 217.074219 L 344.644531 211.214844 L 382.292969 264.816406 L 334.746094 227.792969 L 351.265625 297.867188 L 320.460938 237.023438 L 312.5 309.679688 L 304.539062 237.023438 L 273.734375 297.867188 L 290.253906 227.792969 L 242.707031 264.816406 L 280.355469 211.214844 L 225.445312 217.074219 L 276.785156 190.570312 L 225.445312 164.070312 L 280.355469 169.925781 L 242.707031 116.328125 L 290.253906 153.351562 L 273.734375 83.277344 L 304.539062 144.121094 Z M 267.855469 74.441406 C 227.917969 50.800781 181.042969 66.449219 154.15625 112.394531 C 127.273438 158.34375 127.273438 222.800781 154.15625 268.746094 C 181.042969 314.695312 227.917969 330.339844 267.855469 306.699219 C 223.433594 349.21875 162.136719 340.296875 125.632812 286 C 89.128906 231.699219 89.128906 149.445312 125.632812 95.144531 C 162.136719 40.84375 223.433594 31.921875 267.855469 74.441406 Z M 267.855469 74.441406 "/>
</g>
</svg>
