<?xml version="1.0" encoding="UTF-8"?>
<svg xmlns="http://www.w3.org/2000/svg" xmlns:xlink="http://www.w3.org/1999/xlink" width="1000px" height="667px" viewBox="0 0 1000 667" version="1.1">
<g id="surface1">
<rect x="0" y="0" width="1000" height="667" style="fill:rgb(0%,47.450981%,20.392157%);fill-opacity:1;stroke:none;"/>
<path style=" stroke:none;fill-rule:nonzero;fill:rgb(100%,100%,100%);fill-opacity:1;" d="M 304.347656 0 L 695.652344 0 L 695.652344 667 L 304.347656 667 Z M 304.347656 0 "/>
<path style=" stroke:none;fill-rule:nonzero;fill:rgb(0%,47.450981%,20.392157%);fill-opacity:1;" d="M 503.609375 44.332031 C 502.734375 56.953125 501.859375 69.582031 500.984375 82.203125 C 497.78125 82.847656 494.578125 83.488281 491.375 84.132812 C 491.375 84.132812 498.046875 89.132812 499.214844 94.152344 C 499.402344 94.957031 499.328125 95.625 499.054688 96.125 C 498.96875 96.28125 498.832031 96.457031 498.707031 96.585938 C 496.773438 98.566406 491.058594 97.632812 491.058594 97.632812 C 491.058594 97.632812 498.632812 106.160156 499.214844 109.25 C 499.226562 109.324219 499.246094 109.390625 499.246094 109.460938 C 499.246094 109.519531 499.253906 109.613281 499.246094 109.667969 C 499.238281 109.714844 499.195312 109.792969 499.183594 109.835938 C 499.128906 109.988281 499.039062 110.160156 498.929688 110.300781 C 497.148438 112.492188 488.75 113.109375 488.75 113.109375 C 488.75 113.109375 498.0625 121.964844 498.644531 126.988281 C 499.171875 131.539062 498.730469 134.207031 498.644531 134.664062 C 497.996094 133.921875 482.976562 117.085938 473.289062 122 C 472.808594 122.332031 472.523438 122.652344 472.40625 122.964844 C 472.351562 123.117188 472.34375 123.3125 472.371094 123.464844 C 473.050781 126.265625 486.75 129.136719 496.304688 140.15625 C 496.070312 142.914062 469.070312 131.382812 468.074219 138.605469 C 468.917969 140.640625 497.128906 146.066406 499.214844 150.976562 C 488.824219 151.492188 467.363281 147.925781 468.074219 152.488281 C 465.902344 157.75 488.34375 154.777344 497.757812 159.070312 C 500.519531 163.230469 500.253906 166.726562 495.453125 167.164062 C 486.378906 161.410156 466.066406 157.132812 466.019531 164.480469 C 466.019531 164.488281 466.015625 164.515625 466.019531 164.523438 C 466.019531 164.53125 466.046875 164.558594 466.050781 164.5625 C 466.058594 164.585938 466.066406 164.625 466.082031 164.648438 C 466.113281 164.6875 466.1875 164.734375 466.238281 164.773438 C 468.53125 166.300781 487.445312 165.554688 494.566406 171.820312 C 484.472656 174.863281 450.238281 165.640625 450.019531 170.140625 C 450.996094 172.246094 456.414062 181.472656 465.734375 181.085938 C 475.054688 180.699219 496.617188 186.113281 498.078125 189.976562 C 498.121094 190.097656 498.121094 190.222656 498.109375 190.3125 C 497.476562 193.007812 469.710938 182.09375 459.03125 188.800781 C 447.964844 195.757812 490.769531 191.542969 497.761719 200.042969 C 504.75 208.539062 483.785156 199.246094 483.785156 199.246094 C 483.785156 199.246094 454.675781 193.855469 450.304688 196.5625 C 445.9375 199.265625 440.980469 205.449219 440.980469 205.449219 C 440.980469 205.449219 443.882812 213.160156 446.796875 211.617188 C 447.238281 211.378906 447.542969 211.332031 447.714844 211.40625 C 447.71875 211.410156 447.742188 211.402344 447.746094 211.40625 C 447.75 211.410156 447.773438 211.445312 447.777344 211.449219 C 447.785156 211.453125 447.800781 211.484375 447.808594 211.488281 C 447.8125 211.5 447.835938 211.523438 447.839844 211.53125 C 447.84375 211.535156 447.871094 211.570312 447.871094 211.574219 C 447.886719 211.613281 447.898438 211.695312 447.902344 211.742188 C 447.972656 212.898438 445.910156 216.269531 445.910156 216.269531 C 445.910156 216.269531 486.707031 229.378906 495.738281 240.96875 C 504.765625 252.5625 443.890625 222.8125 443.890625 222.8125 C 443.890625 222.8125 419.421875 234.785156 445.34375 235.558594 C 442.453125 241.167969 446.539062 244.617188 446.796875 244.828125 C 446.796875 244.828125 489.914062 256.816406 494.28125 266.089844 C 498.652344 275.363281 464.867188 257.1875 457.292969 252.167969 C 449.988281 247.320312 429.652344 254.730469 428.492188 256.988281 C 428.484375 257.007812 428.46875 257.054688 428.460938 257.074219 C 428.460938 257.082031 428.464844 257.105469 428.460938 257.113281 C 428.460938 257.132812 428.460938 257.183594 428.460938 257.199219 C 428.460938 257.207031 428.460938 257.234375 428.460938 257.242188 C 428.464844 257.25 428.460938 257.273438 428.460938 257.28125 C 428.464844 257.289062 428.492188 257.316406 428.492188 257.324219 C 428.496094 257.332031 428.492188 257.359375 428.492188 257.367188 C 428.507812 257.398438 428.539062 257.460938 428.554688 257.492188 C 428.558594 257.5 428.582031 257.527344 428.585938 257.535156 C 429.890625 259.4375 438.96875 262.0625 439.242188 265.332031 C 439.242188 265.347656 439.242188 265.363281 439.242188 265.375 C 439.246094 265.550781 439.207031 265.757812 439.148438 265.921875 C 438.003906 268.863281 427.171875 270.113281 426.722656 272.882812 C 426.714844 272.929688 426.691406 273 426.691406 273.050781 C 426.691406 276.140625 481.175781 291.210938 495.738281 307.4375 C 510.300781 323.664062 452.929688 288.105469 452.929688 288.105469 C 452.929688 288.105469 456.132812 293.898438 452.929688 295.441406 C 449.726562 296.988281 438.34375 273.808594 419.703125 288.105469 C 416.308594 293.984375 435.980469 298.652344 440.980469 299.300781 C 439.273438 305.125 437.785156 307.050781 444.773438 312.847656 C 445.539062 313.480469 445.96875 313.863281 446.132812 314.0625 C 446.136719 314.066406 446.160156 314.097656 446.164062 314.105469 L 446.195312 314.144531 C 446.199219 314.148438 446.195312 314.183594 446.195312 314.1875 C 446.195312 314.191406 446.199219 314.226562 446.195312 314.230469 C 446.195312 314.230469 446.167969 314.230469 446.164062 314.230469 C 446.160156 314.230469 446.140625 314.230469 446.132812 314.230469 C 445.050781 314.003906 432.492188 305.445312 431.179688 305.089844 C 431.167969 305.085938 431.125 305.089844 431.117188 305.089844 C 431.113281 305.089844 431.085938 305.085938 431.085938 305.089844 C 431.085938 305.859375 432.539062 315.152344 432.539062 315.152344 C 426.085938 308.199219 418.285156 306.101562 410.976562 313.222656 C 410.96875 313.636719 410.914062 320.304688 418.25 324.421875 C 414.113281 335.625 422.921875 332.148438 436.902344 342.578125 C 416.125 335.375 414.460938 348.757812 429.316406 351.847656 C 444.171875 354.9375 484.957031 356.875 494.570312 373.484375 C 496.597656 376.988281 497.144531 378.75 496.75 379.3125 C 495.148438 381.242188 480.398438 367.089844 478.253906 366.566406 C 478.25 366.570312 478.226562 366.558594 478.222656 366.566406 C 478.21875 366.570312 478.195312 366.601562 478.191406 366.609375 C 478.164062 366.652344 478.125 366.742188 478.097656 366.816406 C 477.574219 368.355469 477.085938 375.035156 477.085938 375.035156 C 470.871094 370.265625 465.171875 365.988281 457.738281 363.964844 C 457.15625 365.511719 457.277344 367.703125 456.695312 369.25 C 449.949219 362.796875 444.074219 358.261719 434.277344 357.632812 C 433.890625 359.695312 433.496094 361.777344 433.109375 363.839844 C 433.109375 363.839844 424.945312 350.316406 408.921875 363.839844 C 399.976562 372.347656 442.714844 366.921875 449.707031 376.964844 C 456.695312 387.011719 451.160156 388.539062 451.160156 388.539062 C 445.335938 385.707031 439.535156 382.902344 433.710938 380.070312 C 433.710938 380.070312 413.007812 375.019531 407.183594 381.199219 C 401.359375 387.382812 492.230469 402.457031 494.851562 419.070312 C 496.617188 428.078125 473.5 409.636719 453.5 401.707031 C 452.726562 404.65625 451.933594 407.609375 451.160156 410.558594 C 450.683594 409.933594 442.949219 399.953125 434.277344 398.226562 C 434.273438 398.234375 434.246094 398.261719 434.246094 398.269531 C 434.246094 398.285156 434.246094 398.335938 434.246094 398.355469 C 434.257812 399.621094 436.015625 408.671875 436.015625 408.671875 C 436.015625 408.671875 413.609375 394.746094 402.25 402.085938 C 390.890625 409.425781 441.851562 413.289062 446.511719 420.246094 C 447.023438 421.003906 447.234375 421.558594 447.207031 421.921875 C 447.199219 421.984375 447.167969 422.082031 447.144531 422.132812 C 446.019531 424.316406 430.820312 416.242188 429.316406 420.246094 C 427.566406 424.878906 402.816406 411.757812 403.105469 417.9375 C 403.398438 424.121094 406.613281 427.582031 406.613281 427.582031 C 406.613281 427.582031 458.167969 434.148438 459.917969 442.261719 C 461.664062 450.375 431.371094 437.648438 431.371094 437.648438 C 431.371094 437.648438 428.4375 443.414062 430.769531 446.117188 C 430.859375 446.222656 430.933594 446.324219 430.957031 446.371094 C 430.960938 446.371094 430.957031 446.410156 430.957031 446.410156 C 430.957031 446.410156 430.929688 446.414062 430.925781 446.410156 C 429.875 445.949219 413.460938 431.691406 415.054688 442.636719 C 408.632812 439.246094 392.050781 428.738281 394.378906 436.851562 C 396.675781 444.84375 439.929688 456.226562 441.203125 456.558594 C 440.058594 456.679688 421.765625 458.710938 422.613281 465.074219 C 398.097656 445.261719 398.152344 457.140625 398.710938 458.070312 C 398.710938 458.070312 398.710938 458.109375 398.710938 458.113281 C 397.335938 457.824219 367.171875 447.855469 391.15625 465.074219 C 404.015625 474.304688 407.152344 477.90625 407.214844 479.289062 C 407.214844 479.320312 407.21875 479.386719 407.214844 479.414062 C 407.210938 479.453125 407.195312 479.507812 407.183594 479.539062 C 407.183594 479.550781 407.15625 479.574219 407.152344 479.582031 C 407.140625 479.605469 407.132812 479.644531 407.121094 479.667969 C 407.117188 479.671875 407.09375 479.703125 407.089844 479.707031 C 407.085938 479.714844 407.0625 479.746094 407.058594 479.75 C 407.054688 479.757812 407.03125 479.785156 407.027344 479.792969 C 407.019531 479.796875 407 479.828125 406.996094 479.835938 C 406.496094 480.257812 405.292969 480.082031 404.941406 480.085938 C 404.925781 480.085938 404.886719 480.085938 404.875 480.085938 C 404.871094 480.089844 404.847656 480.125 404.84375 480.128906 L 404.875 480.171875 C 405.21875 480.84375 407.101562 487.660156 406.996094 488.851562 C 406.992188 488.871094 406.96875 488.917969 406.964844 488.933594 C 406.960938 488.941406 406.964844 488.972656 406.964844 488.976562 C 406.960938 488.980469 406.933594 488.972656 406.929688 488.976562 C 406.929688 488.976562 406.933594 489.015625 406.929688 489.019531 C 406.929688 489.019531 406.902344 489.019531 406.898438 489.019531 C 406.898438 489.019531 406.871094 489.019531 406.867188 489.019531 C 405.816406 488.667969 389.933594 477.40625 384.484375 476.648438 C 378.949219 475.875 352.730469 486.296875 380.691406 502.523438 C 408.652344 518.75 425.828125 498.652344 441.265625 500.96875 C 456.699219 503.289062 463.996094 506.773438 462.542969 513.339844 C 461.085938 519.910156 446.75 491.808594 431.683594 516.109375 C 414.546875 511.609375 402.921875 509.007812 411.765625 525.710938 C 383.78125 511.839844 366.691406 529.945312 401.933594 537.285156 C 436.566406 538.640625 457.859375 526.089844 457.859375 526.089844 C 457.859375 526.089844 463.703125 540.414062 472.152344 530.367188 C 480.203125 520.792969 480.835938 532.976562 481.128906 534.140625 C 481.132812 534.160156 481.15625 534.171875 481.160156 534.183594 C 481.164062 534.1875 481.160156 534.222656 481.160156 534.226562 C 481.164062 534.226562 481.191406 534.226562 481.191406 534.226562 C 481.816406 534.019531 489.316406 529.570312 489.316406 529.570312 C 490 529.570312 490.695312 529.570312 491.375 529.570312 L 491.375 622.289062 C 500.792969 622.417969 510.1875 622.539062 519.605469 622.667969 C 519.605469 622.667969 510.574219 541.9375 515.527344 531.121094 C 520.324219 520.644531 524.859375 521.773438 525.136719 521.855469 C 525.136719 521.855469 543.492188 529.179688 545.527344 528.019531 C 545.550781 528.003906 545.601562 527.992188 545.625 527.976562 C 545.640625 527.964844 545.671875 527.945312 545.6875 527.933594 C 545.722656 527.90625 545.78125 527.84375 545.8125 527.808594 C 545.820312 527.804688 545.839844 527.773438 545.84375 527.765625 C 547.335938 525.960938 545.816406 518.832031 555.140625 519.925781 C 558.019531 518.535156 556.921875 512.449219 558.777344 510.949219 C 558.808594 510.925781 558.867188 510.890625 558.902344 510.867188 C 558.972656 510.824219 559.078125 510.773438 559.15625 510.742188 C 559.265625 510.699219 559.410156 510.675781 559.535156 510.65625 C 562.445312 510.269531 618.65625 531.503906 630.890625 511.414062 C 627.683594 500.207031 616.601562 510.648438 613.691406 511.035156 C 611.070312 511.035156 599.992188 504.082031 593.582031 511.035156 C 587.757812 505.242188 561.273438 501.390625 561.273438 501.390625 C 557.777344 496.753906 624.476562 503.691406 628.265625 500.214844 C 636.128906 489.785156 613.707031 490.953125 610.210938 494.429688 C 603.996094 489.40625 596.191406 489.777344 591.433594 493.253906 C 589.152344 486.015625 567.492188 489.152344 555.457031 487.089844 C 551.601562 484.09375 552.242188 482.371094 554.855469 480.507812 C 580 481.921875 605.019531 486.277344 630.289062 484.785156 C 637.117188 472.972656 621.6875 468.519531 612.234375 478.578125 C 606.683594 466.46875 595.339844 478.183594 587.765625 477.027344 C 580.191406 475.867188 583.6875 463.519531 593.296875 465.453125 C 602.910156 467.382812 620.097656 464.664062 623.300781 458.867188 C 626.503906 453.074219 621.386719 447.203125 605.53125 452.703125 C 600.167969 445.746094 588.367188 452.691406 582.832031 455.007812 C 575.46875 449.5625 558.339844 454.25 552.515625 456.183594 C 546.8125 451.480469 582.515625 443.8125 582.515625 443.8125 C 596.296875 443.488281 604.070312 440.328125 608.441406 438.78125 C 629.273438 423.96875 608.148438 422.394531 597.21875 433.160156 C 590.429688 426.132812 583.984375 433.769531 577.871094 436.472656 C 572.136719 439.007812 561.53125 440.855469 560.226562 440.121094 C 560.214844 440.113281 560.175781 440.089844 560.164062 440.082031 C 560.164062 440.078125 560.136719 440.042969 560.132812 440.039062 L 560.101562 439.996094 C 560.101562 439.992188 560.101562 439.957031 560.101562 439.953125 C 560.101562 439.953125 560.101562 439.917969 560.101562 439.914062 C 560.105469 439.894531 560.125 439.847656 560.132812 439.828125 C 560.992188 438.0625 576.699219 425.277344 576.699219 425.277344 C 576.699219 425.277344 597.089844 423.324219 601.167969 422.550781 C 603.65625 422.078125 612.363281 416.609375 612.359375 414.582031 C 612.289062 413.324219 608.660156 413.441406 597.660156 417.140625 C 587.757812 418.300781 581.941406 417.550781 578.152344 417.9375 C 572.0625 417.101562 569.496094 416.25 568.984375 415.503906 C 568.964844 415.472656 568.933594 415.410156 568.921875 415.378906 C 568.878906 415.246094 568.90625 415.089844 568.984375 414.960938 C 569.003906 414.929688 569.054688 414.863281 569.078125 414.835938 C 570.574219 413.253906 580.207031 412.109375 580.207031 412.109375 C 580.207031 412.109375 609.625 408.53125 611.570312 406.488281 C 611.578125 406.480469 611.59375 406.457031 611.601562 406.445312 C 611.613281 406.429688 611.625 406.378906 611.632812 406.363281 C 611.636719 406.355469 611.664062 406.328125 611.664062 406.320312 C 612.269531 390.367188 586.710938 397.734375 586.027344 397.851562 C 586.097656 386.632812 562.957031 397.683594 561.871094 397.851562 C 561.871094 397.851562 561.84375 397.851562 561.839844 397.851562 C 560.84375 397.070312 560.410156 396.25 560.324219 395.5 C 560.292969 395.214844 560.320312 394.894531 560.386719 394.621094 C 560.964844 392.308594 564.464844 390.511719 564.464844 390.511719 C 570.871094 388.453125 580.453125 387.808594 582.960938 385.101562 C 582.960938 385.101562 601.046875 384.890625 603.191406 378.519531 C 598.753906 362.277344 564.917969 381.394531 560.386719 384.304688 C 559.476562 384.304688 558.921875 384.003906 558.648438 383.507812 C 557.160156 380.625 564.503906 371.128906 564.75 370.800781 C 564.75 370.800781 564.773438 370.761719 564.78125 370.761719 C 565.898438 370.339844 592.914062 368.503906 605.816406 345.304688 C 606.726562 330.960938 590.386719 353.398438 590.386719 353.398438 C 589.167969 334.792969 572.621094 354.578125 563.011719 356.125 C 553.398438 357.667969 553.117188 350.324219 559.816406 349.164062 C 566.515625 348.003906 574.082031 348.761719 577.867188 335.242188 C 581.65625 321.71875 593.027344 336.027344 595.066406 331.003906 C 597.042969 326.140625 591.347656 321.992188 590.988281 321.738281 C 590.988281 321.738281 599.429688 310.113281 585.742188 310.5 C 572.191406 310.882812 554.671875 308.246094 554.316406 308.191406 C 555.167969 307.761719 568.96875 300.855469 581.949219 301.230469 C 595.347656 301.617188 588.0625 288.484375 575.246094 288.484375 C 562.429688 288.484375 555.738281 282.695312 555.738281 282.695312 C 563.019531 279.089844 570.304688 275.480469 577.585938 271.875 C 577.097656 269.171875 576.617188 266.488281 576.128906 263.78125 C 576.128906 263.78125 588.941406 250.25 570.882812 253.339844 C 552.824219 256.433594 550.777344 256.820312 550.777344 256.820312 C 550.777344 256.820312 515.226562 264.046875 514.386719 264.160156 C 514.382812 264.160156 514.359375 264.160156 514.355469 264.160156 C 514.011719 264.089844 510.488281 262.636719 509.835938 260.847656 C 509.816406 260.789062 509.785156 260.699219 509.769531 260.636719 C 509.753906 260.566406 509.746094 260.457031 509.738281 260.386719 C 509.734375 260.300781 509.726562 260.179688 509.738281 260.09375 C 509.886719 259.148438 510.984375 258.128906 513.785156 257.199219 C 523.105469 254.109375 556.035156 245.234375 560.988281 247.554688 C 561.625 247.851562 562.089844 247.785156 562.378906 247.46875 C 564.234375 245.242188 558.058594 231.03125 542.902344 229.019531 C 525.425781 226.703125 514.671875 234.804688 514.671875 234.804688 C 514.671875 234.804688 503.300781 229.378906 513.785156 224.742188 C 524.269531 220.105469 540.878906 226.292969 540.878906 226.292969 C 540.878906 226.292969 559.511719 218.941406 544.074219 215.851562 C 528.636719 212.757812 523.769531 218.632812 516.695312 218.953125 C 513.871094 214.28125 540.929688 213.175781 542.617188 209.308594 C 539.765625 202.351562 523.023438 209.308594 513.214844 209.308594 C 509.046875 206.960938 508.769531 203.144531 513.5 200.796875 C 523.5 200.28125 532.902344 201.0625 542.902344 200.546875 C 542.613281 193.460938 542.910156 185.066406 542.617188 177.984375 C 529.933594 174.910156 515.058594 180.234375 507.9375 179.789062 C 509.84375 172.058594 537.230469 170.066406 540.28125 167.960938 C 546.570312 157.527344 514.011719 167.800781 513.21875 167.960938 C 507.4375 166.828125 507.789062 161.984375 511.445312 159.070312 C 519.894531 157.785156 538.835938 160.714844 537.402344 153.117188 C 536.304688 146 524.269531 149.808594 519.320312 151.355469 C 514.367188 152.902344 507.085938 151.734375 507.085938 151.734375 C 503.914062 146.070312 535.636719 148.386719 535.347656 144.015625 C 534.933594 139.003906 515.238281 142.457031 508.539062 142.84375 C 503.386719 138.128906 532.761719 134.992188 534.144531 134.371094 C 534.152344 134.367188 534.175781 134.335938 534.179688 134.332031 C 535.277344 121.488281 513.785156 134.332031 509.707031 134.332031 C 509.007812 134.332031 508.476562 134.097656 508.097656 133.699219 C 508.011719 133.609375 507.914062 133.472656 507.84375 133.367188 C 506.441406 131.199219 507.683594 126.238281 507.683594 126.238281 C 507.683594 126.238281 515.34375 121.671875 515.808594 120.574219 C 515.8125 120.566406 515.839844 120.542969 515.839844 120.535156 C 515.84375 120.53125 515.839844 120.496094 515.839844 120.492188 C 515.839844 120.488281 515.84375 120.453125 515.839844 120.449219 C 515.839844 120.445312 515.8125 120.414062 515.808594 120.40625 C 515.792969 120.375 515.75 120.320312 515.714844 120.28125 C 514.816406 119.363281 509.546875 117.046875 508.855469 116.96875 C 508.851562 116.96875 508.828125 116.96875 508.824219 116.96875 C 508.820312 116.964844 508.796875 116.929688 508.792969 116.925781 C 508.78125 116.917969 508.765625 116.898438 508.757812 116.882812 C 508.753906 116.878906 508.730469 116.851562 508.726562 116.84375 C 508.332031 115.761719 508.824219 108.078125 508.824219 108.078125 C 508.824219 108.078125 514.890625 102.046875 515.273438 99.648438 C 515.273438 99.628906 515.269531 99.585938 515.273438 99.566406 C 515.273438 99.546875 515.273438 99.5 515.273438 99.480469 C 515.273438 99.464844 515.273438 99.414062 515.273438 99.398438 C 515.269531 99.378906 515.273438 99.332031 515.273438 99.3125 C 515.269531 99.304688 515.273438 99.28125 515.273438 99.273438 C 515.269531 99.25 515.246094 99.210938 515.242188 99.1875 C 515.238281 99.179688 515.242188 99.152344 515.242188 99.144531 C 515.238281 99.140625 515.210938 99.109375 515.207031 99.105469 C 515.203125 99.089844 515.183594 99.074219 515.175781 99.0625 C 515.167969 99.042969 515.15625 98.996094 515.144531 98.976562 C 515.140625 98.972656 515.117188 98.941406 515.113281 98.9375 C 515.089844 98.910156 515.046875 98.875 515.019531 98.851562 C 515.003906 98.84375 514.96875 98.820312 514.957031 98.808594 C 513.421875 97.832031 507.082031 100.738281 507.082031 100.738281 C 507.082031 98.164062 507.082031 95.597656 507.082031 93.023438 C 507.082031 93.023438 512.632812 92.222656 513.214844 88.746094 C 513.25 88.542969 513.234375 88.339844 513.214844 88.160156 C 513.207031 88.085938 513.203125 87.976562 513.183594 87.90625 C 513.148438 87.757812 513.09375 87.582031 513.027344 87.445312 C 513.015625 87.425781 512.976562 87.382812 512.964844 87.363281 C 511.695312 85.1875 506.515625 84.886719 506.515625 84.886719 C 505.542969 71.367188 504.578125 57.859375 503.605469 44.335938 Z M 498.425781 176.765625 L 498.425781 182.089844 C 498.425781 182.089844 491.890625 181.648438 490.679688 180.289062 C 490.671875 180.28125 490.652344 180.253906 490.648438 180.246094 C 490.640625 180.238281 490.621094 180.210938 490.613281 180.203125 C 490.609375 180.199219 490.585938 180.167969 490.582031 180.160156 C 490.578125 180.15625 490.554688 180.128906 490.550781 180.121094 C 490.539062 180.101562 490.527344 180.058594 490.519531 180.035156 C 490.515625 180.03125 490.523438 180 490.519531 179.996094 C 490.515625 179.988281 490.488281 179.960938 490.488281 179.953125 C 490.488281 179.945312 490.488281 179.917969 490.488281 179.910156 C 490.488281 179.894531 490.488281 179.839844 490.488281 179.828125 C 490.488281 179.816406 490.488281 179.792969 490.488281 179.785156 C 490.488281 179.777344 490.488281 179.75 490.488281 179.742188 C 490.496094 179.710938 490.507812 179.648438 490.519531 179.617188 C 490.523438 179.609375 490.546875 179.582031 490.550781 179.574219 C 490.566406 179.542969 490.59375 179.480469 490.613281 179.449219 C 490.621094 179.441406 490.640625 179.414062 490.644531 179.40625 C 490.660156 179.390625 490.695312 179.339844 490.710938 179.324219 C 490.753906 179.273438 490.808594 179.207031 490.867188 179.15625 C 493.058594 177.121094 497.433594 177.167969 498.296875 176.847656 C 498.304688 176.847656 498.320312 176.851562 498.328125 176.847656 C 498.335938 176.847656 498.355469 176.808594 498.359375 176.808594 C 498.363281 176.804688 498.386719 176.808594 498.390625 176.808594 C 498.394531 176.804688 498.421875 176.769531 498.421875 176.765625 Z M 507.6875 183.851562 C 507.914062 183.851562 520.699219 183.996094 521.820312 186.199219 C 521.828125 186.21875 521.84375 186.265625 521.851562 186.285156 C 521.859375 186.3125 521.875 186.382812 521.882812 186.410156 C 521.882812 186.429688 521.882812 186.472656 521.882812 186.496094 C 521.882812 186.523438 521.886719 186.589844 521.882812 186.621094 C 521.875 186.652344 521.859375 186.714844 521.851562 186.746094 C 520.875 189.496094 507.941406 191.148438 507.941406 191.148438 Z M 506.960938 194.378906 C 506.964844 194.378906 506.988281 194.375 506.992188 194.378906 C 506.996094 194.378906 507.015625 194.375 507.023438 194.378906 C 507.78125 194.644531 513.078125 194.871094 513.726562 196.054688 C 513.730469 196.066406 513.753906 196.085938 513.757812 196.097656 C 513.757812 196.101562 513.753906 196.132812 513.757812 196.140625 C 513.761719 196.152344 513.785156 196.167969 513.789062 196.179688 C 513.789062 196.1875 513.789062 196.21875 513.789062 196.222656 C 513.789062 196.230469 513.789062 196.257812 513.789062 196.265625 C 513.789062 196.269531 513.789062 196.300781 513.789062 196.308594 C 513.789062 196.3125 513.789062 196.34375 513.789062 196.347656 C 513.789062 196.355469 513.789062 196.382812 513.789062 196.390625 C 513.785156 196.394531 513.757812 196.425781 513.757812 196.433594 C 513.753906 196.4375 513.757812 196.46875 513.757812 196.472656 C 513.75 196.496094 513.734375 196.539062 513.726562 196.558594 C 513.722656 196.5625 513.699219 196.59375 513.695312 196.601562 C 513.691406 196.605469 513.699219 196.636719 513.695312 196.640625 C 512.597656 198.421875 507.710938 198.90625 507.464844 198.90625 C 507.464844 198.90625 507.4375 198.90625 507.433594 198.90625 C 507.433594 198.90625 507.4375 198.867188 507.433594 198.863281 C 507.429688 198.855469 507.40625 198.832031 507.402344 198.824219 C 507.179688 198.222656 506.960938 194.378906 506.960938 194.378906 Z M 467.976562 208.382812 C 472.152344 208.097656 480.4375 209.402344 495.988281 215.09375 C 495.988281 215.53125 496.304688 220.882812 496.179688 221.761719 C 496.179688 221.765625 496.148438 221.796875 496.148438 221.804688 C 496.144531 221.808594 496.148438 221.839844 496.148438 221.84375 C 496.144531 221.847656 496.117188 221.886719 496.117188 221.886719 C 495.871094 221.726562 467.820312 211.03125 465.257812 211.195312 C 465.1875 211.195312 465.105469 211.203125 465.039062 211.195312 C 464.980469 211.183594 464.902344 211.167969 464.847656 211.152344 C 464.777344 211.128906 464.6875 211.0625 464.625 211.027344 C 464.605469 211.011719 464.554688 211 464.53125 210.984375 C 464.523438 210.976562 464.507812 210.949219 464.5 210.941406 C 464.414062 210.867188 464.332031 210.75 464.277344 210.648438 C 464.273438 210.640625 464.25 210.613281 464.246094 210.605469 C 464.242188 210.589844 464.222656 210.539062 464.214844 210.523438 C 464.214844 210.515625 464.21875 210.488281 464.214844 210.480469 C 464.210938 210.464844 464.1875 210.414062 464.183594 210.398438 C 464.183594 210.386719 464.183594 210.363281 464.183594 210.355469 C 464.183594 210.335938 464.183594 210.289062 464.183594 210.269531 C 464.183594 210.253906 464.183594 210.207031 464.183594 210.1875 C 464.1875 210.140625 464.203125 210.066406 464.214844 210.019531 C 464.25 209.90625 464.320312 209.757812 464.40625 209.640625 C 464.832031 209.085938 465.90625 208.527344 467.976562 208.382812 Z M 482.519531 224.195312 C 486.992188 223.980469 497.703125 227.398438 498.296875 227.214844 C 498.296875 228.347656 498.769531 233.703125 498.234375 234.804688 C 498.230469 234.8125 498.207031 234.835938 498.203125 234.84375 C 498.199219 234.855469 498.175781 234.878906 498.171875 234.886719 C 498.164062 234.894531 498.144531 234.921875 498.136719 234.929688 C 498.128906 234.9375 498.085938 234.964844 498.074219 234.972656 C 498.070312 234.972656 498.050781 234.96875 498.042969 234.972656 C 498.03125 234.972656 497.996094 234.972656 497.980469 234.972656 C 497.972656 234.96875 497.957031 234.972656 497.949219 234.972656 C 497.039062 234.667969 481.230469 228.007812 480.625 225.285156 C 480.613281 225.238281 480.621094 225.160156 480.625 225.117188 C 480.628906 225.019531 480.664062 224.90625 480.71875 224.824219 C 480.726562 224.8125 480.742188 224.789062 480.75 224.78125 C 480.757812 224.773438 480.773438 224.746094 480.78125 224.738281 C 481.085938 224.417969 481.710938 224.230469 482.519531 224.195312 Z M 526.527344 238.871094 C 530.796875 238.757812 533.8125 239.246094 532.691406 240.96875 C 529.644531 245.660156 508.570312 249.523438 508.570312 249.523438 L 508.191406 240.96875 C 508.644531 240.878906 519.351562 239.054688 526.527344 238.871094 Z M 466.207031 265.542969 C 469.792969 265.289062 478.136719 267.898438 496.714844 278.332031 L 496.84375 284.496094 C 496.84375 284.496094 465.378906 271.839844 464.28125 269.734375 C 463.738281 268.699219 462.734375 265.789062 466.207031 265.542969 Z M 527.855469 274.726562 C 528.8125 274.660156 529.488281 274.789062 529.722656 275.101562 C 529.726562 275.113281 529.75 275.136719 529.753906 275.144531 C 529.765625 275.175781 529.777344 275.242188 529.785156 275.269531 C 529.789062 275.300781 529.816406 275.363281 529.816406 275.398438 C 529.804688 275.574219 529.703125 275.8125 529.53125 276.066406 C 526.605469 280.4375 510.878906 284.789062 510.878906 284.789062 C 510.878906 284.789062 510.878906 279.292969 510.878906 279.128906 C 510.882812 279.128906 510.90625 279.128906 510.910156 279.128906 C 511.628906 279.097656 523.171875 275.042969 527.855469 274.726562 Z M 458.871094 275.480469 C 463.570312 275.148438 474.175781 278.453125 497.949219 293.386719 C 497.949219 293.542969 498.160156 298.691406 498.074219 299.171875 C 498.074219 299.171875 498.046875 299.175781 498.042969 299.171875 C 496.632812 298.570312 455.269531 279.296875 455.269531 279.296875 C 455.222656 279.085938 454.601562 275.78125 458.871094 275.480469 Z M 537.625 299.59375 C 538.828125 299.527344 539.617188 299.664062 539.804688 300.011719 C 539.824219 300.054688 539.835938 300.132812 539.839844 300.179688 C 539.832031 300.347656 539.730469 300.5625 539.523438 300.808594 C 535.769531 305.304688 511.855469 310.746094 511.003906 310.832031 C 511 310.832031 510.976562 310.832031 510.972656 310.832031 C 510.972656 310.832031 510.945312 310.835938 510.941406 310.832031 C 510.941406 310.828125 510.914062 310.792969 510.910156 310.789062 C 510.902344 310.777344 510.886719 310.726562 510.878906 310.707031 C 510.875 310.699219 510.882812 310.671875 510.878906 310.664062 C 510.875 310.648438 510.851562 310.601562 510.847656 310.582031 C 510.695312 309.539062 511.191406 305.890625 511.226562 305.382812 C 511.226562 305.371094 511.226562 305.34375 511.226562 305.339844 C 511.226562 305.339844 511.257812 305.335938 511.257812 305.339844 C 511.261719 305.339844 511.285156 305.378906 511.289062 305.382812 C 511.296875 305.382812 511.316406 305.382812 511.320312 305.382812 C 512.851562 305.347656 531.179688 299.953125 537.625 299.59375 Z M 467.3125 313.640625 C 474.433594 313.15625 496.007812 326.277344 497.0625 326.683594 C 497.066406 326.683594 497.09375 326.683594 497.097656 326.683594 C 496.984375 327.269531 496.96875 332.007812 496.875 332.765625 C 496.871094 332.785156 496.875 332.835938 496.875 332.847656 C 496.875 332.851562 496.84375 332.847656 496.84375 332.847656 C 496.261719 332.433594 466.695312 316.160156 465.386719 317.457031 C 464.570312 314.894531 465.417969 313.773438 467.316406 313.640625 Z M 530.921875 317.082031 C 532.40625 316.996094 533.488281 317.082031 533.832031 317.332031 C 533.875 317.367188 533.910156 317.414062 533.925781 317.457031 C 533.929688 317.464844 533.925781 317.492188 533.925781 317.5 C 533.925781 317.507812 533.925781 317.535156 533.925781 317.542969 C 533.925781 317.558594 533.933594 317.609375 533.925781 317.625 C 533.921875 317.636719 533.898438 317.660156 533.894531 317.667969 C 533.875 317.707031 533.835938 317.753906 533.800781 317.792969 C 531.605469 320.382812 511.226562 325.71875 511.226562 325.71875 C 511.226562 325.71875 511.132812 320.710938 511.132812 320.226562 C 511.710938 320.0625 524.867188 317.4375 530.921875 317.082031 Z M 529.277344 334.398438 C 530.710938 334.335938 531.730469 334.445312 531.964844 334.777344 L 531.996094 334.820312 C 532.003906 334.832031 531.996094 334.886719 531.996094 334.902344 C 532 334.910156 532.027344 334.9375 532.03125 334.945312 C 532.027344 334.953125 532 334.980469 531.996094 334.988281 C 531.996094 335.003906 532.003906 335.050781 531.996094 335.070312 C 531.992188 335.078125 531.96875 335.101562 531.964844 335.113281 C 531.949219 335.152344 531.929688 335.199219 531.902344 335.238281 C 531.882812 335.269531 531.832031 335.335938 531.808594 335.363281 C 529.609375 337.882812 512.332031 342.703125 512.332031 342.703125 C 512.332031 342.703125 511.859375 337.203125 511.859375 337.042969 C 512.339844 337.054688 523.886719 334.636719 529.277344 334.398438 Z M 456.375 335.785156 C 460.542969 335.433594 470.871094 337.710938 496.367188 350 L 497.222656 356.625 C 497.222656 356.625 454.769531 338.449219 453.5625 337.878906 C 453.5625 337.878906 453.5625 337.84375 453.5625 337.839844 C 453.5625 337.804688 453.554688 337.71875 453.5625 337.628906 C 453.578125 337.460938 453.640625 337.199219 453.78125 336.957031 C 454.082031 336.46875 454.765625 335.917969 456.375 335.78125 Z M 512.300781 350.167969 C 512.8125 350.3125 519.929688 350.625 521.25 352.097656 C 521.253906 352.101562 521.273438 352.132812 521.28125 352.136719 C 521.285156 352.144531 521.308594 352.171875 521.3125 352.179688 C 521.316406 352.1875 521.339844 352.214844 521.34375 352.222656 C 521.355469 352.246094 521.367188 352.285156 521.375 352.304688 C 521.378906 352.316406 521.40625 352.339844 521.40625 352.347656 C 521.417969 352.378906 521.433594 352.441406 521.4375 352.472656 C 521.441406 352.484375 521.4375 352.507812 521.4375 352.515625 C 521.441406 352.523438 521.4375 352.550781 521.4375 352.558594 C 521.4375 352.574219 521.441406 352.625 521.4375 352.640625 C 521.4375 352.652344 521.441406 352.675781 521.4375 352.683594 C 521.4375 352.703125 521.410156 352.75 521.40625 352.769531 C 521.40625 352.777344 521.410156 352.800781 521.40625 352.808594 C 521.402344 352.828125 521.382812 352.875 521.375 352.894531 C 520.277344 355.160156 512.839844 355.996094 512.839844 355.996094 C 512.839844 355.996094 512.472656 351.558594 512.300781 350.167969 Z M 529.53125 363.082031 C 531.191406 363.03125 532.378906 363.28125 532.628906 363.921875 C 532.773438 364.355469 532.5 364.996094 531.714844 365.851562 C 525.617188 372.484375 512.332031 373.777344 512.332031 373.777344 L 512.332031 366.480469 C 512.335938 366.480469 512.359375 366.480469 512.363281 366.480469 C 513.121094 366.363281 524.027344 363.257812 529.53125 363.082031 Z M 546.445312 369.878906 C 548.550781 369.769531 549.457031 370.238281 549.734375 370.882812 C 549.757812 370.941406 549.785156 371.03125 549.796875 371.09375 C 549.816406 371.203125 549.835938 371.355469 549.828125 371.472656 C 549.761719 372.300781 549.082031 373.296875 548.566406 373.945312 C 546.492188 376.535156 513.441406 390.425781 513.441406 390.425781 C 513.441406 390.425781 513.191406 381.210938 513.3125 380.402344 C 532.636719 372.636719 542.089844 370.097656 546.445312 369.878906 Z M 525.074219 395.960938 C 527.175781 395.855469 528.820312 396.023438 529.3125 396.675781 C 529.339844 396.71875 529.386719 396.792969 529.40625 396.84375 C 529.417969 396.871094 529.429688 396.9375 529.4375 396.96875 C 529.445312 397 529.433594 397.0625 529.4375 397.09375 C 529.4375 397.148438 529.449219 397.242188 529.4375 397.304688 C 529.414062 397.425781 529.351562 397.578125 529.277344 397.722656 C 526.453125 401.402344 512.714844 401.957031 512.714844 401.957031 L 512.714844 397.386719 C 515.292969 397.273438 521.035156 396.160156 525.074219 395.960938 Z M 538.828125 403.46875 C 539.480469 403.445312 539.878906 403.585938 539.933594 403.84375 C 539.933594 403.867188 539.933594 403.90625 539.933594 403.929688 C 539.898438 404.144531 539.707031 404.46875 539.300781 404.851562 C 533.8125 410.027344 513.1875 415.335938 513.1875 415.335938 C 513.1875 415.335938 513.441406 411.71875 513.566406 410.847656 C 514.140625 410.835938 533.890625 403.628906 538.824219 403.46875 Z M 550.398438 409.210938 C 552.828125 409.183594 554.683594 409.65625 555.742188 410.679688 C 555.742188 410.679688 555.769531 410.679688 555.773438 410.679688 C 555.773438 410.683594 555.773438 410.71875 555.773438 410.722656 C 555.773438 410.726562 555.773438 410.757812 555.773438 410.765625 C 555.773438 410.777344 555.773438 410.832031 555.773438 410.847656 C 555.667969 411.851562 554.125 416.570312 548.691406 418.605469 C 541.914062 417.804688 513.15625 429.082031 512.585938 429.257812 C 512.582031 429.253906 512.554688 429.261719 512.554688 429.257812 C 512.550781 429.242188 512.554688 429.195312 512.554688 429.175781 C 512.539062 428.453125 512.933594 424.5625 512.933594 424.5625 C 522.847656 416.699219 540.863281 409.332031 550.398438 409.214844 Z M 476.765625 431.355469 C 476.832031 431.351562 476.890625 431.355469 476.957031 431.355469 C 489.398438 433.132812 494.042969 439.3125 495.355469 441.796875 C 492.875 447.570312 473.214844 434.621094 475.28125 431.859375 C 475.519531 431.578125 476.003906 431.375 476.765625 431.355469 Z M 548.058594 432.445312 C 548.550781 432.417969 549.003906 432.554688 549.324219 432.820312 C 549.453125 432.9375 549.582031 433.105469 549.671875 433.285156 C 549.789062 433.539062 549.871094 433.890625 549.890625 434.289062 C 548.59375 436.953125 541.871094 435.789062 541.449219 435.714844 C 541.789062 435.554688 545.671875 432.566406 548.058594 432.445312 Z M 521.40625 450.394531 C 522.328125 450.34375 523.097656 450.464844 523.523438 450.8125 C 523.578125 450.855469 523.640625 450.925781 523.683594 450.980469 C 523.695312 450.996094 523.734375 451.042969 523.746094 451.0625 C 523.765625 451.09375 523.796875 451.160156 523.808594 451.191406 C 523.824219 451.222656 523.832031 451.28125 523.839844 451.316406 C 523.917969 451.628906 523.890625 452.0625 523.683594 452.574219 C 521.730469 457.425781 513.1875 455.632812 513.1875 455.632812 L 513.1875 452.238281 C 513.191406 452.238281 513.21875 452.238281 513.21875 452.238281 C 513.699219 452.292969 518.410156 450.554688 521.40625 450.394531 Z M 471.078125 463.183594 C 473.707031 463.007812 476.003906 465.292969 478.410156 467.125 C 483.777344 465.667969 494.789062 468.257812 494.789062 468.257812 L 494.789062 474.714844 C 494.789062 474.722656 494.761719 474.753906 494.753906 474.757812 C 494.75 474.761719 494.730469 474.753906 494.722656 474.757812 C 493.722656 474.988281 480.820312 474.242188 477.9375 471.820312 C 475.585938 471.820312 468.933594 467.164062 468.421875 464.777344 C 468.417969 464.757812 468.394531 464.710938 468.390625 464.691406 C 468.386719 464.664062 468.390625 464.597656 468.390625 464.566406 C 468.390625 464.546875 468.390625 464.5 468.390625 464.484375 C 468.390625 464.464844 468.386719 464.417969 468.390625 464.398438 C 468.390625 464.390625 468.386719 464.367188 468.390625 464.355469 C 468.390625 464.339844 468.417969 464.289062 468.421875 464.273438 C 468.421875 464.265625 468.417969 464.238281 468.421875 464.230469 C 469.339844 463.582031 470.238281 463.238281 471.078125 463.183594 Z M 527.507812 466.371094 C 529.527344 466.226562 530.382812 467.054688 528.804688 470.019531 C 524.414062 478.269531 513.0625 474.882812 513.0625 474.882812 L 512.585938 469.765625 C 516.589844 469.972656 523.910156 466.628906 527.507812 466.371094 Z M 485.082031 483.101562 C 489.671875 482.816406 494.660156 485.242188 494.660156 485.242188 C 494.777344 485.550781 497.128906 491.695312 495.039062 493.753906 C 494.964844 493.828125 494.878906 493.898438 494.789062 493.960938 C 492.226562 495.742188 479.984375 492.570312 479.265625 486.039062 C 480.707031 484.019531 482.839844 483.238281 485.082031 483.101562 Z M 437.753906 486.289062 C 441.953125 485.953125 446.644531 489.386719 447.175781 489.726562 C 447.183594 489.730469 447.203125 489.726562 447.207031 489.726562 C 447.207031 489.921875 447.050781 495.933594 447.050781 495.933594 C 447.050781 495.933594 438.738281 492.859375 436.109375 486.667969 C 436.636719 486.476562 437.199219 486.332031 437.753906 486.289062 Z M 517.710938 487.128906 C 522.390625 487.089844 528.050781 488.546875 528.871094 490.648438 C 529.023438 491.082031 528.976562 491.554688 528.679688 492.035156 C 526.363281 495.753906 513.1875 492.371094 513.1875 492.371094 L 513.1875 487.839844 C 514.359375 487.386719 515.976562 487.140625 517.710938 487.128906 Z M 517.710938 487.128906 "/>
</g>
</svg>
