<?xml version="1.0" encoding="UTF-8"?>
<svg xmlns="http://www.w3.org/2000/svg" xmlns:xlink="http://www.w3.org/1999/xlink" width="1000px" height="667px" viewBox="0 0 1000 667" version="1.1">
<g id="surface1">
<rect x="0" y="0" width="1000" height="667" style="fill:rgb(0%,16.862746%,49.803922%);fill-opacity:1;stroke:none;"/>
<path style=" stroke:none;fill-rule:nonzero;fill:rgb(100%,77.64706%,11.764706%);fill-opacity:1;" d="M 0 305.707031 L 1000 305.707031 L 1000 361.292969 L 0 361.292969 Z M 0 305.707031 "/>
<path style=" stroke:none;fill-rule:nonzero;fill:rgb(100%,100%,100%);fill-opacity:1;" d="M 250 583.625 L 239.214844 526.148438 L 208.332031 568.730469 L 220.535156 511.761719 L 177.832031 528.042969 L 209.753906 486.84375 L 166.667969 472.457031 L 209.753906 458.074219 L 177.832031 416.875 L 220.535156 433.152344 L 208.332031 376.1875 L 239.214844 418.773438 L 250 361.292969 L 260.785156 418.769531 L 291.667969 376.1875 L 279.464844 433.152344 L 322.167969 416.875 L 290.246094 458.074219 L 333.332031 472.457031 L 290.246094 486.84375 L 322.167969 528.042969 L 279.464844 511.761719 L 291.667969 568.730469 L 260.785156 526.144531 Z M 250 583.625 "/>
</g>
</svg>
