<?xml version="1.0" encoding="UTF-8"?>
<svg xmlns="http://www.w3.org/2000/svg" xmlns:xlink="http://www.w3.org/1999/xlink" width="1000px" height="667px" viewBox="0 0 1000 667" version="1.1">
<g id="surface1">
<rect x="0" y="0" width="1000" height="667" style="fill:rgb(85.882354%,8.627451%,10.588235%);fill-opacity:1;stroke:none;"/>
<path style=" stroke:none;fill-rule:nonzero;fill:rgb(100%,100%,100%);fill-opacity:1;" d="M 250 0 L 1000 0 L 1000 222.332031 L 250 222.332031 Z M 250 0 "/>
<path style=" stroke:none;fill-rule:nonzero;fill:rgb(0%,50.196081%,0%);fill-opacity:1;" d="M 250 444.667969 L 1000 444.667969 L 1000 667 L 250 667 Z M 250 444.667969 "/>
<path style="fill-rule:evenodd;fill:rgb(100%,100%,100%);fill-opacity:1;stroke-width:0.378;stroke-linecap:butt;stroke-linejoin:miter;stroke:rgb(85.882354%,8.627451%,10.588235%);stroke-opacity:1;stroke-miterlimit:4;" d="M 69.070312 102.640086 L 101.30625 102.640086 C 103.082813 102.640086 104.521875 103.989412 104.521875 105.654985 L 104.521875 120.841923 C 104.521875 122.507496 103.082813 123.856822 101.30625 123.856822 L 69.070312 123.856822 C 67.29375 123.856822 65.854687 122.507496 65.854687 120.841923 L 65.854687 105.654985 C 65.854687 103.989412 67.29375 102.640086 69.070312 102.640086 Z M 69.070312 102.640086 " transform="matrix(0.833333,0,0,1.111667,0,0)"/>
<path style="fill-rule:evenodd;fill:rgb(100%,100%,100%);fill-opacity:1;stroke-width:0.352;stroke-linecap:butt;stroke-linejoin:miter;stroke:rgb(85.882354%,8.627451%,10.588235%);stroke-opacity:1;stroke-miterlimit:4;" d="M 69.895313 103.518553 L 100.48125 103.518553 C 102.16875 103.518553 103.532812 104.758949 103.532812 106.283967 L 103.532812 120.205913 C 103.532812 121.730931 102.16875 122.967813 100.48125 122.967813 L 69.895313 122.967813 C 68.2125 122.967813 66.84375 121.730931 66.84375 120.205913 L 66.84375 106.283967 C 66.84375 104.758949 68.2125 103.518553 69.895313 103.518553 Z M 69.895313 103.518553 " transform="matrix(0.833333,0,0,1.111667,0,0)"/>
<path style="fill-rule:evenodd;fill:rgb(100%,100%,100%);fill-opacity:1;stroke-width:0.222;stroke-linecap:butt;stroke-linejoin:miter;stroke:rgb(85.882354%,8.627451%,10.588235%);stroke-opacity:1;stroke-miterlimit:4;" d="M 83.90625 108.831522 L 85.757812 108.891257 L 85.842187 109.731072 L 87.35625 110.500609 L 88.5375 109.541323 L 89.967187 110.31086 L 88.621875 111.150675 L 88.959375 112.310251 L 90.642187 112.250515 L 90.642187 113.800131 L 89.296875 113.729854 L 88.621875 114.699681 L 90.135937 115.799522 L 88.959375 116.699072 L 87.69375 115.729245 L 85.842187 116.119284 L 85.926563 117.538887 L 83.90625 117.6689 L 83.653125 116.309033 L 81.965625 115.599232 L 81.042187 116.569059 L 79.607812 115.859258 L 80.451562 114.759417 L 79.439062 114.049616 L 78.009375 114.049616 L 77.925 112.050225 L 79.354687 112.180238 L 80.367188 111.020662 L 79.185937 110.121111 L 80.704687 109.081006 L 81.796875 109.920821 L 83.653125 109.671336 Z M 83.90625 108.831522 " transform="matrix(0.833333,0,0,1.111667,0,0)"/>
<path style="fill-rule:evenodd;fill:rgb(100%,100%,100%);fill-opacity:1;stroke-width:1.333;stroke-linecap:butt;stroke-linejoin:miter;stroke:rgb(85.882354%,8.627451%,10.588235%);stroke-opacity:1;stroke-miterlimit:4;" d="M 79.989348 426.772489 C 79.989348 432.267922 75.051923 436.720426 68.943768 436.720426 C 62.835613 436.720426 57.898188 432.267922 57.898188 426.772489 C 57.898188 421.297112 62.835613 416.844608 68.943768 416.844608 C 75.051923 416.844608 79.989348 421.297112 79.989348 426.772489 Z M 79.989348 426.772489 " transform="matrix(0.153483,0,0,0.194764,59.804999,42.516802)"/>
<path style="fill-rule:evenodd;fill:rgb(100%,100%,100%);fill-opacity:1;stroke-width:0.352;stroke-linecap:butt;stroke-linejoin:miter;stroke:rgb(85.882354%,8.627451%,10.588235%);stroke-opacity:1;stroke-miterlimit:4;" d="M 71.803125 104.411076 L 68.83125 107.060532 M 73.785938 104.411076 L 70.814062 107.060532 M 75.76875 104.411076 L 72.796875 107.060532 M 77.751562 104.411076 L 74.779687 107.060532 M 79.734375 104.411076 L 76.7625 107.060532 M 81.717187 104.411076 L 78.745312 107.060532 M 83.7 104.411076 L 80.728125 107.060532 M 85.682812 104.411076 L 82.710938 107.060532 M 87.670312 104.411076 L 84.69375 107.060532 M 89.653125 104.411076 L 86.676563 107.060532 M 91.635937 104.411076 L 88.659375 107.060532 M 93.61875 104.411076 L 90.642187 107.060532 M 85.682812 104.411076 L 82.710938 107.060532 M 95.601562 104.411076 L 92.625 107.060532 M 97.584375 104.411076 L 94.607812 107.060532 M 99.567188 104.411076 L 96.590625 107.060532 M 101.55 104.411076 L 98.573437 107.060532 M 98.573437 104.411076 L 101.55 107.060532 M 96.590625 104.411076 L 99.567188 107.060532 M 94.607812 104.411076 L 97.584375 107.060532 M 92.625 104.411076 L 95.601562 107.060532 M 90.642187 104.411076 L 93.61875 107.060532 M 88.659375 104.411076 L 91.635937 107.060532 M 86.676563 104.411076 L 89.653125 107.060532 M 84.69375 104.411076 L 87.670312 107.060532 M 82.710938 104.411076 L 85.682812 107.060532 M 80.728125 104.411076 L 83.7 107.060532 M 78.745312 104.411076 L 81.717187 107.060532 M 76.7625 104.411076 L 79.734375 107.060532 M 84.69375 104.411076 L 87.670312 107.060532 M 74.779687 104.411076 L 77.751562 107.060532 M 72.796875 104.411076 L 75.76875 107.060532 M 70.814062 104.411076 L 73.785938 107.060532 M 68.83125 104.411076 L 71.803125 107.060532 M 71.803125 119.429348 L 68.83125 122.089346 M 73.785938 119.429348 L 70.814062 122.089346 M 75.76875 119.429348 L 72.796875 122.089346 M 77.751562 119.429348 L 74.779687 122.089346 M 79.734375 119.429348 L 76.7625 122.089346 M 81.717187 119.429348 L 78.745312 122.089346 M 83.7 119.429348 L 80.728125 122.089346 M 85.682812 119.429348 L 82.710938 122.089346 M 87.670312 119.429348 L 84.69375 122.089346 M 89.653125 119.429348 L 86.676563 122.089346 M 91.635937 119.429348 L 88.659375 122.089346 M 93.61875 119.429348 L 90.642187 122.089346 M 85.682812 119.429348 L 82.710938 122.089346 M 95.601562 119.429348 L 92.625 122.089346 M 97.584375 119.429348 L 94.607812 122.089346 M 99.567188 119.429348 L 96.590625 122.089346 M 101.55 119.429348 L 98.573437 122.089346 M 98.573437 119.429348 L 101.55 122.089346 M 96.590625 119.429348 L 99.567188 122.089346 M 94.607812 119.429348 L 97.584375 122.089346 M 92.625 119.429348 L 95.601562 122.089346 M 90.642187 119.429348 L 93.61875 122.089346 M 88.659375 119.429348 L 91.635937 122.089346 M 86.676563 119.429348 L 89.653125 122.089346 M 84.69375 119.429348 L 87.670312 122.089346 M 82.710938 119.429348 L 85.682812 122.089346 M 80.728125 119.429348 L 83.7 122.089346 M 78.745312 119.429348 L 81.717187 122.089346 M 76.7625 119.429348 L 79.734375 122.089346 M 84.69375 119.429348 L 87.670312 122.089346 M 74.779687 119.429348 L 77.751562 122.089346 M 72.796875 119.429348 L 75.76875 122.089346 M 70.814062 119.429348 L 73.785938 122.089346 M 68.83125 119.429348 L 71.803125 122.089346 " transform="matrix(0.833333,0,0,1.111667,0,0)"/>
<path style="fill-rule:evenodd;fill:rgb(100%,100%,100%);fill-opacity:1;stroke-width:0.378;stroke-linecap:butt;stroke-linejoin:miter;stroke:rgb(85.882354%,8.627451%,10.588235%);stroke-opacity:1;stroke-miterlimit:4;" d="M 69.070312 102.640086 L 101.30625 102.640086 C 103.082813 102.640086 104.521875 103.989412 104.521875 105.654985 L 104.521875 120.841923 C 104.521875 122.507496 103.082813 123.856822 101.30625 123.856822 L 69.070312 123.856822 C 67.29375 123.856822 65.854688 122.507496 65.854688 120.841923 L 65.854688 105.654985 C 65.854688 103.989412 67.29375 102.640086 69.070312 102.640086 Z M 69.070312 102.640086 " transform="matrix(-0.833333,0,0,1.111667,250,0)"/>
<path style="fill-rule:evenodd;fill:rgb(100%,100%,100%);fill-opacity:1;stroke-width:0.352;stroke-linecap:butt;stroke-linejoin:miter;stroke:rgb(85.882354%,8.627451%,10.588235%);stroke-opacity:1;stroke-miterlimit:4;" d="M 69.895313 103.518553 L 100.48125 103.518553 C 102.16875 103.518553 103.532813 104.758949 103.532813 106.283967 L 103.532813 120.205913 C 103.532813 121.730931 102.16875 122.967813 100.48125 122.967813 L 69.895313 122.967813 C 68.2125 122.967813 66.84375 121.730931 66.84375 120.205913 L 66.84375 106.283967 C 66.84375 104.758949 68.2125 103.518553 69.895313 103.518553 Z M 69.895313 103.518553 " transform="matrix(-0.833333,0,0,1.111667,250,0)"/>
<path style="fill-rule:evenodd;fill:rgb(100%,100%,100%);fill-opacity:1;stroke-width:0.222;stroke-linecap:butt;stroke-linejoin:miter;stroke:rgb(85.882354%,8.627451%,10.588235%);stroke-opacity:1;stroke-miterlimit:4;" d="M 83.90625 108.831522 L 85.757812 108.891257 L 85.842187 109.731072 L 87.35625 110.500609 L 88.5375 109.541323 L 89.967187 110.31086 L 88.621875 111.150675 L 88.959375 112.310251 L 90.642188 112.250515 L 90.642188 113.800131 L 89.296875 113.729854 L 88.621875 114.699681 L 90.135938 115.799522 L 88.959375 116.699072 L 87.69375 115.729245 L 85.842187 116.119284 L 85.926563 117.538887 L 83.90625 117.6689 L 83.653125 116.309033 L 81.965625 115.599232 L 81.042188 116.569059 L 79.607812 115.859258 L 80.451562 114.759417 L 79.439063 114.049616 L 78.009375 114.049616 L 77.925 112.050225 L 79.354688 112.180238 L 80.367188 111.020662 L 79.185937 110.121111 L 80.704688 109.081006 L 81.796875 109.920821 L 83.653125 109.671336 Z M 83.90625 108.831522 " transform="matrix(-0.833333,0,0,1.111667,250,0)"/>
<path style="fill-rule:evenodd;fill:rgb(100%,100%,100%);fill-opacity:1;stroke-width:1.333;stroke-linecap:butt;stroke-linejoin:miter;stroke:rgb(85.882354%,8.627451%,10.588235%);stroke-opacity:1;stroke-miterlimit:4;" d="M 79.989348 426.772489 C 79.989348 432.267922 75.051923 436.720426 68.943768 436.720426 C 62.835613 436.720426 57.898188 432.267922 57.898188 426.772489 C 57.898188 421.297112 62.835613 416.844608 68.943768 416.844608 C 75.051923 416.844608 79.989348 421.297112 79.989348 426.772489 Z M 79.989348 426.772489 " transform="matrix(-0.153483,0,0,0.194764,190.195001,42.516802)"/>
<path style="fill-rule:evenodd;fill:rgb(100%,100%,100%);fill-opacity:1;stroke-width:0.352;stroke-linecap:butt;stroke-linejoin:miter;stroke:rgb(85.882354%,8.627451%,10.588235%);stroke-opacity:1;stroke-miterlimit:4;" d="M 71.803125 104.411076 L 68.83125 107.060532 M 73.785938 104.411076 L 70.814063 107.060532 M 75.76875 104.411076 L 72.796875 107.060532 M 77.751563 104.411076 L 74.779687 107.060532 M 79.734375 104.411076 L 76.7625 107.060532 M 81.717187 104.411076 L 78.745313 107.060532 M 83.7 104.411076 L 80.728125 107.060532 M 85.682813 104.411076 L 82.710938 107.060532 M 87.670312 104.411076 L 84.69375 107.060532 M 89.653125 104.411076 L 86.676563 107.060532 M 91.635938 104.411076 L 88.659375 107.060532 M 93.61875 104.411076 L 90.642188 107.060532 M 85.682813 104.411076 L 82.710938 107.060532 M 95.601562 104.411076 L 92.625 107.060532 M 97.584375 104.411076 L 94.607812 107.060532 M 99.567188 104.411076 L 96.590625 107.060532 M 101.55 104.411076 L 98.573438 107.060532 M 98.573438 104.411076 L 101.55 107.060532 M 96.590625 104.411076 L 99.567188 107.060532 M 94.607812 104.411076 L 97.584375 107.060532 M 92.625 104.411076 L 95.601562 107.060532 M 90.642188 104.411076 L 93.61875 107.060532 M 88.659375 104.411076 L 91.635938 107.060532 M 86.676563 104.411076 L 89.653125 107.060532 M 84.69375 104.411076 L 87.670312 107.060532 M 82.710938 104.411076 L 85.682813 107.060532 M 80.728125 104.411076 L 83.7 107.060532 M 78.745313 104.411076 L 81.717187 107.060532 M 76.7625 104.411076 L 79.734375 107.060532 M 84.69375 104.411076 L 87.670312 107.060532 M 74.779687 104.411076 L 77.751563 107.060532 M 72.796875 104.411076 L 75.76875 107.060532 M 70.814063 104.411076 L 73.785938 107.060532 M 68.83125 104.411076 L 71.803125 107.060532 M 71.803125 119.429348 L 68.83125 122.089346 M 73.785938 119.429348 L 70.814063 122.089346 M 75.76875 119.429348 L 72.796875 122.089346 M 77.751563 119.429348 L 74.779687 122.089346 M 79.734375 119.429348 L 76.7625 122.089346 M 81.717187 119.429348 L 78.745313 122.089346 M 83.7 119.429348 L 80.728125 122.089346 M 85.682813 119.429348 L 82.710938 122.089346 M 87.670312 119.429348 L 84.69375 122.089346 M 89.653125 119.429348 L 86.676563 122.089346 M 91.635938 119.429348 L 88.659375 122.089346 M 93.61875 119.429348 L 90.642188 122.089346 M 85.682813 119.429348 L 82.710938 122.089346 M 95.601562 119.429348 L 92.625 122.089346 M 97.584375 119.429348 L 94.607812 122.089346 M 99.567188 119.429348 L 96.590625 122.089346 M 101.55 119.429348 L 98.573438 122.089346 M 98.573438 119.429348 L 101.55 122.089346 M 96.590625 119.429348 L 99.567188 122.089346 M 94.607812 119.429348 L 97.584375 122.089346 M 92.625 119.429348 L 95.601562 122.089346 M 90.642188 119.429348 L 93.61875 122.089346 M 88.659375 119.429348 L 91.635938 122.089346 M 86.676563 119.429348 L 89.653125 122.089346 M 84.69375 119.429348 L 87.670312 122.089346 M 82.710938 119.429348 L 85.682813 122.089346 M 80.728125 119.429348 L 83.7 122.089346 M 78.745313 119.429348 L 81.717187 122.089346 M 76.7625 119.429348 L 79.734375 122.089346 M 84.69375 119.429348 L 87.670312 122.089346 M 74.779687 119.429348 L 77.751563 122.089346 M 72.796875 119.429348 L 75.76875 122.089346 M 70.814063 119.429348 L 73.785938 122.089346 M 68.83125 119.429348 L 71.803125 122.089346 " transform="matrix(-0.833333,0,0,1.111667,250,0)"/>
<path style="fill-rule:evenodd;fill:rgb(100%,100%,100%);fill-opacity:1;stroke-width:0.565;stroke-linecap:butt;stroke-linejoin:miter;stroke:rgb(85.882354%,8.627451%,10.588235%);stroke-opacity:1;stroke-miterlimit:4;" d="M 126.510937 147.118628 C 78.39375 194.169322 57.871875 200.1183 67.504688 203.909764 C 77.1375 207.701228 108.121875 183.420399 140.357812 151.159576 C 172.598437 118.909295 192.342187 90.204507 182.709375 86.413043 C 173.08125 82.62158 177.679688 97.074119 126.510937 147.118628 Z M 126.510937 147.118628 " transform="matrix(0.833333,0,0,1.111667,0,0)"/>
<path style="fill-rule:evenodd;fill:rgb(100%,100%,100%);fill-opacity:1;stroke-width:0.33;stroke-linecap:butt;stroke-linejoin:miter;stroke:rgb(85.882354%,8.627451%,10.588235%);stroke-opacity:1;stroke-miterlimit:4;" d="M 86.00625 181.308564 L 102.857812 185.72901 C 87 200.761338 69.15 206.94926 64.195312 204.299803 C 59.235937 201.650347 73.120312 195.458911 86.00625 181.308564 Z M 86.00625 181.308564 " transform="matrix(0.833333,0,0,1.111667,0,0)"/>
<path style="fill-rule:evenodd;fill:rgb(100%,100%,100%);fill-opacity:1;stroke-width:0.33;stroke-linecap:butt;stroke-linejoin:miter;stroke:rgb(85.882354%,8.627451%,10.588235%);stroke-opacity:1;stroke-miterlimit:4;" d="M 86.00625 183.079554 L 99.890625 186.621533 C 84.435937 201.070558 69.15 205.17827 65.198437 203.421336 C 61.21875 201.650347 73.453125 196.681737 86.00625 183.079554 Z M 86.00625 183.079554 " transform="matrix(0.833333,0,0,1.111667,0,0)"/>
<path style="fill:none;stroke-width:0.33;stroke-linecap:butt;stroke-linejoin:miter;stroke:rgb(85.882354%,8.627451%,10.588235%);stroke-opacity:1;stroke-miterlimit:4;" d="M 137.789062 145.059501 C 137.751563 145.291417 137.639062 146.299897 137.540625 146.700478 C 137.540625 147.259183 137.479687 147.680847 137.41875 148.120081 C 137.259375 148.499578 137.292187 148.850965 136.8 148.99152 C 136.471875 149.448323 136.260937 149.571308 135.820312 149.761057 C 135.520312 149.989458 135.060937 150.221374 134.578125 150.411123 C 134.090625 150.600871 133.640625 150.618441 133.110938 150.520052 C 132.670312 150.249485 132.360938 149.978917 132 149.761057 C 131.910937 149.40967 131.840625 148.900159 131.751563 148.559314 C 131.878125 148.910701 131.98125 149.469406 132 149.968375 C 131.948437 150.520052 131.751563 150.758996 131.507812 151.170118 M 133.228125 152.368347 C 133.190625 152.340236 133.148438 152.301584 133.110938 152.259417 C 133.401562 152.519443 133.279687 152.399972 132.609375 152.048585 C 132.140625 151.830725 131.629687 151.711254 131.010937 151.609352 L 129.290625 151.609352 C 128.620312 151.609352 128.170312 151.700712 127.692187 151.830725 C 127.340625 152.139946 126.820312 152.308611 126.459375 152.589721 C 126.079687 152.821636 125.920312 153.08869 125.71875 153.46116 C 125.38125 153.759839 125.160937 154.220156 124.851562 154.448557 C 124.720312 154.95104 124.429688 154.929957 124.242188 155.319996 C 124.81875 155.358649 125.292187 155.428926 125.592187 155.748688 C 126.107812 155.991145 125.160937 155.520287 124.978125 155.319996 C 124.570312 155.211066 124.471875 155.098623 123.871875 155.098623 C 123.309375 154.940499 122.971875 155.228636 122.390625 155.319996 C 122.057812 155.488662 121.959375 155.54137 121.528125 155.54137 M 126.58125 157.828898 C 126.328125 157.83944 125.179688 158.029189 124.729687 157.828898 C 124.228125 157.709427 123.928125 157.470484 123.61875 157.059361 C 123.46875 156.771224 123.61875 157.589955 123.61875 157.941342 C 123.571875 158.580866 123.351562 158.591407 123.009375 159.030641 C 122.648438 159.230931 122.26875 159.519069 121.898438 159.680707 C 121.589062 159.91965 121.209375 160.081287 120.792187 160.22887 C 120.421875 160.379966 119.98125 160.541604 119.68125 160.770006 C 119.26875 161.030032 119.310937 161.349794 119.071875 161.750375 C 119.109375 162.29151 119.207812 162.590189 119.559375 162.850216 C 119.7 163.20863 120.028125 163.5811 120.3 163.830585 C 120.6 164.329554 120.942187 164.561469 120.16875 164.69851 C 119.751562 164.860148 119.521875 164.730135 119.071875 164.69851 M 118.81875 165.461019 C 118.51875 165.401284 117.440625 165.081522 116.971875 164.919884 L 115.251562 164.919884 C 114.58125 164.958536 114.45 165.141257 113.892187 165.348576 C 113.53125 165.678879 113.278125 165.910795 112.78125 166.121627 C 112.51875 166.420305 111.998437 166.929816 111.801563 167.319856 C 111.651562 167.688812 111.548437 168.191295 111.548437 168.739458 C 111.557812 169.368441 111.75 169.480885 111.801563 170.050131 C 111.942188 170.510448 112.157812 170.93914 112.542187 171.350262 C 112.589062 171.490817 112.63125 171.52947 112.78125 171.571636 M 112.95 172.998266 C 112.898438 172.998266 112.78125 173.279376 112.598438 173.518319 C 112.209375 173.9189 112.157812 173.950525 111.548437 173.950525 C 111.009375 173.929442 111.060937 173.739693 110.68125 173.599138 C 110.498437 173.32857 110.26875 173.11071 110.071875 172.741754 C 109.93125 172.52038 109.8 172.168994 109.63125 171.968703 C 109.471875 171.708677 109.270313 171.518928 109.101562 171.279985 C 108.942188 171.209708 108.88125 171.13943 108.670312 171.111319 C 109.171875 171.188624 109.209375 171.360804 109.542187 171.62083 C 109.692188 171.870315 109.851562 172.119799 109.978125 172.400909 C 110.029687 172.769865 110.151562 173.061516 110.151562 173.518319 C 110.151562 173.989177 110.151562 174.330022 109.978125 174.720062 C 109.771875 174.941436 109.621875 175.159295 109.36875 175.331475 C 109.157812 175.521224 108.909375 175.78125 108.75 176.009651 C 108.478125 176.178317 108.28125 176.318872 107.971875 176.529704 C 107.7 176.6808 107.41875 176.838924 107.010937 176.881091 C 106.490625 176.838924 106.340625 176.69837 105.960938 176.529704 C 105.628125 176.290761 105.370312 176.139665 105.079687 175.928832 C 104.85 175.770708 104.620312 175.461488 104.470312 175.240114 C 104.001562 175.120643 103.701562 175.169837 103.420312 175.40878 C 103.18125 175.570418 102.970312 175.78125 102.810937 176.009651 C 102.660938 176.079929 102.43125 176.290761 102.28125 176.361038 M 103.321875 176.561329 C 103.457813 176.621064 103.959375 176.968937 104.189062 177.098951 C 104.329687 177.548726 104.55 177.801724 104.620312 178.27961 C 104.742188 178.750469 104.728125 179.259979 104.728125 179.790573 C 104.610937 180.338737 104.38125 180.739318 104.189062 181.178551 C 103.842187 181.421008 103.66875 181.579132 103.209375 181.828617 C 102.778125 181.888353 102.351562 181.941061 101.798437 181.941061 C 101.460938 182.049991 100.81875 182.099185 100.490625 181.941061 C 100.007812 181.870783 99.646875 181.681034 99.295312 181.508855 C 98.892187 181.280454 98.648438 181.069621 98.207813 180.858789 C 97.996875 180.549569 97.664062 180.26846 97.340625 179.888962 C 97.06875 179.530547 96.867188 179.330257 96.684375 178.929676 C 96.848438 179.389993 97.092187 179.790573 97.228125 180.219265 C 97.476562 180.66904 97.621875 180.84122 97.664062 181.399925 C 97.814062 181.8497 97.771875 182.390836 97.771875 182.900347 C 97.725 183.251734 97.701562 183.908827 97.55625 184.189936 L 97.55625 184.52024 M 87.24375 186.231494 L 87.24375 186.389618 C 87.24375 185.971467 87.229687 186.178786 87.417187 187.011572 C 87.745312 187.380528 88.51875 187.478917 89.165625 187.320793 C 89.732812 186.90967 89.714062 186.589908 90.740625 186.389618 C 91.729687 186.449353 92.109375 186.70938 92.6625 187.011572 C 93.323437 187.29971 93.628125 187.450806 94.064062 188.100871 C 94.279687 188.631466 94.401562 188.98988 93.7125 189.190171 C 93.164062 189.541557 92.517187 189.731306 91.790625 189.819153 C 90.979687 189.819153 90.398438 189.731306 90.042187 190.128373 C 89.484375 190.641398 89.517187 190.950618 89.517187 191.839627 C 89.329687 192.120737 89.292187 192.939468 89.165625 193.248688 C 88.678125 193.448979 88.396875 193.561422 87.590625 193.561422 C 87.403125 193.080022 87.192188 192.208583 87.065625 191.688531 C 86.929688 191.129826 86.8875 190.349747 86.540625 189.970249 C 86.203125 189.53453 85.790625 189.165573 85.317188 188.88095 C 85.10625 188.610382 84.69375 188.389009 84.267187 188.258996 C 84.95625 188.57173 85.054688 188.909061 85.14375 189.661029 C 84.539062 189.931597 84.379688 190.121346 83.395313 190.128373 C 82.425 190.06161 82.190625 189.840236 81.820312 189.348295 C 81.754688 190.128373 81.473438 190.3884 81.295312 191.07009 C 80.934375 191.540948 80.784375 192.018834 80.41875 192.619706 C 80.573437 193.378701 80.90625 193.410326 80.94375 194.341501 C 81.173437 194.9494 81.15 195.529189 81.646875 195.901659 C 81.867188 196.140602 82.03125 196.189796 82.51875 196.210879 C 81.50625 196.210879 80.915625 196.108977 80.245312 195.740021 C 79.725 195.458911 79.335938 195.100497 78.848438 194.808846 C 78.229687 194.408265 77.460938 194.039308 76.748437 193.870643 C 75.942188 193.870643 75.35625 193.789824 75 194.179863 C 74.503125 194.499625 74.170312 195.040761 73.95 195.740021 C 73.785938 196.551724 73.725 197.089346 74.123437 197.609398 C 74.41875 198.220811 74.489063 198.449213 74.123437 199.169556 C 73.720312 199.679067 73.110937 199.738802 72.201562 199.949635 C 71.60625 199.925037 71.020313 199.819621 70.453125 199.640414 " transform="matrix(0.833333,0,0,1.111667,0,0)"/>
<path style="fill-rule:evenodd;fill:rgb(100%,100%,100%);fill-opacity:1;stroke-width:0.447;stroke-linecap:butt;stroke-linejoin:miter;stroke:rgb(85.882354%,8.627451%,10.588235%);stroke-opacity:1;stroke-miterlimit:4;" d="M 181.410937 104.66056 C 202.757812 67.803598 216.928125 36.438812 213.028125 34.646739 C 209.142188 32.854666 188.657813 61.30997 167.310937 98.163418 Z M 181.410937 104.66056 " transform="matrix(0.833333,0,0,1.111667,0,0)"/>
<path style="fill-rule:evenodd;fill:rgb(100%,100%,100%);fill-opacity:1;stroke-width:0.393;stroke-linecap:butt;stroke-linejoin:miter;stroke:rgb(85.882354%,8.627451%,10.588235%);stroke-opacity:1;stroke-miterlimit:4;" d="M 180 104.010495 C 200.592187 68.453664 214.78125 38.434689 211.66875 37.004545 C 208.560937 35.570886 189.31875 63.260167 168.721875 98.813484 " transform="matrix(0.833333,0,0,1.111667,0,0)"/>
<path style="fill-rule:evenodd;fill:rgb(100%,100%,100%);fill-opacity:1;stroke-width:0.446;stroke-linecap:butt;stroke-linejoin:miter;stroke:rgb(85.882354%,8.627451%,10.588235%);stroke-opacity:1;stroke-miterlimit:4;" d="M 176.460938 85.460785 C 173.948437 89.617691 171.3 94.368441 168.721875 98.813484 L 180 104.010495 C 182.56875 99.561938 185.38125 94.881466 187.729687 90.654282 Z M 176.460938 85.460785 " transform="matrix(0.833333,0,0,1.111667,0,0)"/>
<path style="fill-rule:evenodd;fill:rgb(100%,100%,100%);fill-opacity:1;stroke-width:0.446;stroke-linecap:butt;stroke-linejoin:miter;stroke:rgb(85.882354%,8.627451%,10.588235%);stroke-opacity:1;stroke-miterlimit:4;" d="M 177.407813 86.894443 C 174.909375 91.051349 173.160937 94.2314 170.592187 98.676443 L 179.039062 102.569809 C 181.621875 98.12828 183.520312 95.014993 185.86875 90.791323 Z M 177.407813 86.894443 " transform="matrix(0.833333,0,0,1.111667,0,0)"/>
<path style="fill-rule:nonzero;fill:rgb(100%,100%,100%);fill-opacity:1;stroke-width:0.447;stroke-linecap:butt;stroke-linejoin:miter;stroke:rgb(85.882354%,8.627451%,10.588235%);stroke-opacity:1;stroke-miterlimit:4;" d="M -205.688712 6.55845 L -199.484537 6.556452 L -199.483728 16.542515 L -205.691976 16.542544 Z M -205.688712 6.55845 " transform="matrix(-0.756933,-0.464977,-0.417708,0.961925,0,0)"/>
<path style="fill-rule:evenodd;fill:rgb(100%,100%,100%);fill-opacity:1;stroke-width:0.446;stroke-linecap:butt;stroke-linejoin:miter;stroke:rgb(85.882354%,8.627451%,10.588235%);stroke-opacity:1;stroke-miterlimit:4;" d="M 183.548438 91.711957 L 172.907813 97.75581 M 178.542187 100.349044 L 177.909375 89.115208 M 209.029687 47.725356 L 203.390625 45.128608 " transform="matrix(0.833333,0,0,1.111667,0,0)"/>
<path style="fill-rule:nonzero;fill:rgb(85.882354%,8.627451%,10.588235%);fill-opacity:1;stroke-width:1.333;stroke-linecap:butt;stroke-linejoin:miter;stroke:rgb(85.882354%,8.627451%,10.588235%);stroke-opacity:1;stroke-miterlimit:4;" d="M 549.217109 92.124258 C 549.209651 94.080186 547.626269 95.668274 545.673811 95.667371 C 543.711548 95.669287 542.131472 94.080409 542.129126 92.127299 C 542.12489 90.165811 543.710162 88.586101 545.672424 88.584186 C 547.624883 88.585088 549.214763 90.171148 549.217109 92.124258 Z M 549.217109 92.124258 " transform="matrix(-0.374167,0.125841,0.08445,0.437852,370.289154,-62.028777)"/>
<path style="fill-rule:evenodd;fill:rgb(100%,100%,100%);fill-opacity:1;stroke-width:0.565;stroke-linecap:butt;stroke-linejoin:miter;stroke:rgb(85.882354%,8.627451%,10.588235%);stroke-opacity:1;stroke-miterlimit:4;" d="M 126.510938 147.118628 C 78.39375 194.169322 57.871875 200.1183 67.504688 203.909764 C 77.1375 207.701228 108.121875 183.420399 140.357812 151.159576 C 172.598437 118.909295 192.342188 90.204507 182.709375 86.413043 C 173.08125 82.62158 177.679688 97.074119 126.510938 147.118628 Z M 126.510938 147.118628 " transform="matrix(-0.833333,0,0,1.111667,250,0)"/>
<path style="fill-rule:evenodd;fill:rgb(100%,100%,100%);fill-opacity:1;stroke-width:0.33;stroke-linecap:butt;stroke-linejoin:miter;stroke:rgb(85.882354%,8.627451%,10.588235%);stroke-opacity:1;stroke-miterlimit:4;" d="M 86.00625 181.308564 L 102.857812 185.72901 C 87 200.761338 69.15 206.94926 64.195312 204.299803 C 59.235938 201.650347 73.120313 195.458911 86.00625 181.308564 Z M 86.00625 181.308564 " transform="matrix(-0.833333,0,0,1.111667,250,0)"/>
<path style="fill-rule:evenodd;fill:rgb(100%,100%,100%);fill-opacity:1;stroke-width:0.33;stroke-linecap:butt;stroke-linejoin:miter;stroke:rgb(85.882354%,8.627451%,10.588235%);stroke-opacity:1;stroke-miterlimit:4;" d="M 86.00625 183.079554 L 99.890625 186.621533 C 84.435937 201.070558 69.15 205.17827 65.198438 203.421336 C 61.21875 201.650347 73.453125 196.681737 86.00625 183.079554 Z M 86.00625 183.079554 " transform="matrix(-0.833333,0,0,1.111667,250,0)"/>
<path style="fill:none;stroke-width:0.33;stroke-linecap:butt;stroke-linejoin:miter;stroke:rgb(85.882354%,8.627451%,10.588235%);stroke-opacity:1;stroke-miterlimit:4;" d="M 137.789062 145.059501 C 137.751563 145.291417 137.639062 146.299897 137.540625 146.700478 C 137.540625 147.259183 137.479688 147.680847 137.41875 148.120081 C 137.259375 148.499578 137.292188 148.850965 136.8 148.99152 C 136.471875 149.448323 136.260938 149.571308 135.820312 149.761057 C 135.520313 149.989458 135.060937 150.221374 134.578125 150.411123 C 134.090625 150.600871 133.640625 150.618441 133.110938 150.520052 C 132.670312 150.249485 132.360938 149.978917 132 149.761057 C 131.910938 149.40967 131.840625 148.900159 131.751563 148.559314 C 131.878125 148.910701 131.98125 149.469406 132 149.968375 C 131.948438 150.520052 131.751563 150.758996 131.507812 151.170118 M 133.228125 152.368347 C 133.190625 152.340236 133.148438 152.301584 133.110938 152.259417 C 133.401563 152.519443 133.279687 152.399972 132.609375 152.048585 C 132.140625 151.830725 131.629688 151.711254 131.010938 151.609352 L 129.290625 151.609352 C 128.620313 151.609352 128.170312 151.700712 127.692188 151.830725 C 127.340625 152.139946 126.820312 152.308611 126.459375 152.589721 C 126.079688 152.821636 125.920312 153.08869 125.71875 153.46116 C 125.38125 153.759839 125.160938 154.220156 124.851562 154.448557 C 124.720313 154.95104 124.429688 154.929957 124.242188 155.319996 C 124.81875 155.358649 125.292188 155.428926 125.592187 155.748688 C 126.107812 155.991145 125.160938 155.520287 124.978125 155.319996 C 124.570312 155.211066 124.471875 155.098623 123.871875 155.098623 C 123.309375 154.940499 122.971875 155.228636 122.390625 155.319996 C 122.057813 155.488662 121.959375 155.54137 121.528125 155.54137 M 126.58125 157.828898 C 126.328125 157.83944 125.179688 158.029189 124.729688 157.828898 C 124.228125 157.709427 123.928125 157.470484 123.61875 157.059361 C 123.46875 156.771224 123.61875 157.589955 123.61875 157.941342 C 123.571875 158.580866 123.351562 158.591407 123.009375 159.030641 C 122.648438 159.230931 122.26875 159.519069 121.898438 159.680707 C 121.589063 159.91965 121.209375 160.081287 120.792188 160.22887 C 120.421875 160.379966 119.98125 160.541604 119.68125 160.770006 C 119.26875 161.030032 119.310937 161.349794 119.071875 161.750375 C 119.109375 162.29151 119.207813 162.590189 119.559375 162.850216 C 119.7 163.20863 120.028125 163.5811 120.3 163.830585 C 120.6 164.329554 120.942188 164.561469 120.16875 164.69851 C 119.751563 164.860148 119.521875 164.730135 119.071875 164.69851 M 118.81875 165.461019 C 118.51875 165.401284 117.440625 165.081522 116.971875 164.919884 L 115.251563 164.919884 C 114.58125 164.958536 114.45 165.141257 113.892188 165.348576 C 113.53125 165.678879 113.278125 165.910795 112.78125 166.121627 C 112.51875 166.420305 111.998437 166.929816 111.801563 167.319856 C 111.651563 167.688812 111.548438 168.191295 111.548438 168.739458 C 111.557813 169.368441 111.75 169.480885 111.801563 170.050131 C 111.942188 170.510448 112.157813 170.93914 112.542188 171.350262 C 112.589063 171.490817 112.63125 171.52947 112.78125 171.571636 M 112.95 172.998266 C 112.898438 172.998266 112.78125 173.279376 112.598438 173.518319 C 112.209375 173.9189 112.157813 173.950525 111.548438 173.950525 C 111.009375 173.929442 111.060937 173.739693 110.68125 173.599138 C 110.498437 173.32857 110.26875 173.11071 110.071875 172.741754 C 109.93125 172.52038 109.8 172.168994 109.63125 171.968703 C 109.471875 171.708677 109.270313 171.518928 109.101562 171.279985 C 108.942188 171.209708 108.88125 171.13943 108.670312 171.111319 C 109.171875 171.188624 109.209375 171.360804 109.542188 171.62083 C 109.692188 171.870315 109.851562 172.119799 109.978125 172.400909 C 110.029687 172.769865 110.151563 173.061516 110.151563 173.518319 C 110.151563 173.989177 110.151563 174.330022 109.978125 174.720062 C 109.771875 174.941436 109.621875 175.159295 109.36875 175.331475 C 109.157813 175.521224 108.909375 175.78125 108.75 176.009651 C 108.478125 176.178317 108.28125 176.318872 107.971875 176.529704 C 107.7 176.6808 107.41875 176.838924 107.010938 176.881091 C 106.490625 176.838924 106.340625 176.69837 105.960938 176.529704 C 105.628125 176.290761 105.370313 176.139665 105.079688 175.928832 C 104.85 175.770708 104.620313 175.461488 104.470313 175.240114 C 104.001563 175.120643 103.701562 175.169837 103.420312 175.40878 C 103.18125 175.570418 102.970313 175.78125 102.810937 176.009651 C 102.660938 176.079929 102.43125 176.290761 102.28125 176.361038 M 103.321875 176.561329 C 103.457813 176.621064 103.959375 176.968937 104.189063 177.098951 C 104.329688 177.548726 104.55 177.801724 104.620313 178.27961 C 104.742188 178.750469 104.728125 179.259979 104.728125 179.790573 C 104.610938 180.338737 104.38125 180.739318 104.189063 181.178551 C 103.842187 181.421008 103.66875 181.579132 103.209375 181.828617 C 102.778125 181.888353 102.351562 181.941061 101.798438 181.941061 C 101.460938 182.049991 100.81875 182.099185 100.490625 181.941061 C 100.007812 181.870783 99.646875 181.681034 99.295312 181.508855 C 98.892188 181.280454 98.648438 181.069621 98.207813 180.858789 C 97.996875 180.549569 97.664062 180.26846 97.340625 179.888962 C 97.06875 179.530547 96.867188 179.330257 96.684375 178.929676 C 96.848438 179.389993 97.092187 179.790573 97.228125 180.219265 C 97.476562 180.66904 97.621875 180.84122 97.664062 181.399925 C 97.814063 181.8497 97.771875 182.390836 97.771875 182.900347 C 97.725 183.251734 97.701562 183.908827 97.55625 184.189936 L 97.55625 184.52024 M 87.24375 186.231494 L 87.24375 186.389618 C 87.24375 185.971467 87.229688 186.178786 87.417188 187.011572 C 87.745313 187.380528 88.51875 187.478917 89.165625 187.320793 C 89.732812 186.90967 89.714063 186.589908 90.740625 186.389618 C 91.729688 186.449353 92.109375 186.70938 92.6625 187.011572 C 93.323438 187.29971 93.628125 187.450806 94.064063 188.100871 C 94.279687 188.631466 94.401563 188.98988 93.7125 189.190171 C 93.164062 189.541557 92.517188 189.731306 91.790625 189.819153 C 90.979688 189.819153 90.398438 189.731306 90.042188 190.128373 C 89.484375 190.641398 89.517188 190.950618 89.517188 191.839627 C 89.329688 192.120737 89.292188 192.939468 89.165625 193.248688 C 88.678125 193.448979 88.396875 193.561422 87.590625 193.561422 C 87.403125 193.080022 87.192188 192.208583 87.065625 191.688531 C 86.929688 191.129826 86.8875 190.349747 86.540625 189.970249 C 86.203125 189.53453 85.790625 189.165573 85.317188 188.88095 C 85.10625 188.610382 84.69375 188.389009 84.267188 188.258996 C 84.95625 188.57173 85.054688 188.909061 85.14375 189.661029 C 84.539062 189.931597 84.379688 190.121346 83.395313 190.128373 C 82.425 190.06161 82.190625 189.840236 81.820312 189.348295 C 81.754688 190.128373 81.473438 190.3884 81.295312 191.07009 C 80.934375 191.540948 80.784375 192.018834 80.41875 192.619706 C 80.573438 193.378701 80.90625 193.410326 80.94375 194.341501 C 81.173438 194.9494 81.15 195.529189 81.646875 195.901659 C 81.867188 196.140602 82.03125 196.189796 82.51875 196.210879 C 81.50625 196.210879 80.915625 196.108977 80.245313 195.740021 C 79.725 195.458911 79.335938 195.100497 78.848438 194.808846 C 78.229688 194.408265 77.460938 194.039308 76.748437 193.870643 C 75.942188 193.870643 75.35625 193.789824 75 194.179863 C 74.503125 194.499625 74.170312 195.040761 73.95 195.740021 C 73.785938 196.551724 73.725 197.089346 74.123437 197.609398 C 74.41875 198.220811 74.489063 198.449213 74.123437 199.169556 C 73.720313 199.679067 73.110938 199.738802 72.201562 199.949635 C 71.60625 199.925037 71.020313 199.819621 70.453125 199.640414 " transform="matrix(-0.833333,0,0,1.111667,250,0)"/>
<path style="fill-rule:evenodd;fill:rgb(100%,100%,100%);fill-opacity:1;stroke-width:0.447;stroke-linecap:butt;stroke-linejoin:miter;stroke:rgb(85.882354%,8.627451%,10.588235%);stroke-opacity:1;stroke-miterlimit:4;" d="M 181.410937 104.66056 C 202.757812 67.803598 216.928125 36.438812 213.028125 34.646739 C 209.142188 32.854666 188.657813 61.30997 167.310937 98.163418 Z M 181.410937 104.66056 " transform="matrix(-0.833333,0,0,1.111667,250,0)"/>
<path style="fill-rule:evenodd;fill:rgb(100%,100%,100%);fill-opacity:1;stroke-width:0.393;stroke-linecap:butt;stroke-linejoin:miter;stroke:rgb(85.882354%,8.627451%,10.588235%);stroke-opacity:1;stroke-miterlimit:4;" d="M 180 104.010495 C 200.592188 68.453664 214.78125 38.434689 211.66875 37.004545 C 208.560938 35.570886 189.31875 63.260167 168.721875 98.813484 " transform="matrix(-0.833333,0,0,1.111667,250,0)"/>
<path style="fill-rule:evenodd;fill:rgb(100%,100%,100%);fill-opacity:1;stroke-width:0.446;stroke-linecap:butt;stroke-linejoin:miter;stroke:rgb(85.882354%,8.627451%,10.588235%);stroke-opacity:1;stroke-miterlimit:4;" d="M 176.460938 85.460785 C 173.948438 89.617691 171.3 94.368441 168.721875 98.813484 L 180 104.010495 C 182.56875 99.561938 185.38125 94.881466 187.729688 90.654282 Z M 176.460938 85.460785 " transform="matrix(-0.833333,0,0,1.111667,250,0)"/>
<path style="fill-rule:evenodd;fill:rgb(100%,100%,100%);fill-opacity:1;stroke-width:0.446;stroke-linecap:butt;stroke-linejoin:miter;stroke:rgb(85.882354%,8.627451%,10.588235%);stroke-opacity:1;stroke-miterlimit:4;" d="M 177.407813 86.894443 C 174.909375 91.051349 173.160937 94.2314 170.592187 98.676443 L 179.039062 102.569809 C 181.621875 98.12828 183.520312 95.014993 185.86875 90.791323 Z M 177.407813 86.894443 " transform="matrix(-0.833333,0,0,1.111667,250,0)"/>
<path style="fill-rule:nonzero;fill:rgb(100%,100%,100%);fill-opacity:1;stroke-width:0.447;stroke-linecap:butt;stroke-linejoin:miter;stroke:rgb(85.882354%,8.627451%,10.588235%);stroke-opacity:1;stroke-miterlimit:4;" d="M -205.688712 6.55845 L -199.484537 6.556452 L -199.483728 16.542515 L -205.691976 16.542544 Z M -205.688712 6.55845 " transform="matrix(0.756933,-0.464977,0.417708,0.961925,250,0)"/>
<path style="fill-rule:evenodd;fill:rgb(100%,100%,100%);fill-opacity:1;stroke-width:0.446;stroke-linecap:butt;stroke-linejoin:miter;stroke:rgb(85.882354%,8.627451%,10.588235%);stroke-opacity:1;stroke-miterlimit:4;" d="M 183.548438 91.711957 L 172.907813 97.75581 M 178.542188 100.349044 L 177.909375 89.115208 M 209.029688 47.725356 L 203.390625 45.128608 " transform="matrix(-0.833333,0,0,1.111667,250,0)"/>
<path style="fill-rule:nonzero;fill:rgb(85.882354%,8.627451%,10.588235%);fill-opacity:1;stroke-width:1.333;stroke-linecap:butt;stroke-linejoin:miter;stroke:rgb(85.882354%,8.627451%,10.588235%);stroke-opacity:1;stroke-miterlimit:4;" d="M 549.217109 92.124258 C 549.209651 94.080186 547.626269 95.668274 545.673811 95.667371 C 543.711548 95.669287 542.131472 94.080409 542.129126 92.127299 C 542.12489 90.165811 543.710162 88.586101 545.672424 88.584186 C 547.624883 88.585088 549.214763 90.171148 549.217109 92.124258 Z M 549.217109 92.124258 " transform="matrix(0.374167,0.125841,-0.08445,0.437852,-120.289154,-62.028777)"/>
<path style="fill-rule:evenodd;fill:rgb(100%,100%,100%);fill-opacity:1;stroke-width:0.407;stroke-linecap:butt;stroke-linejoin:miter;stroke:rgb(85.882354%,8.627451%,10.588235%);stroke-opacity:1;stroke-miterlimit:4;" d="M 135.257812 84.958302 C 135.257812 115.901424 135.440625 127.560439 133.157813 129.159249 C 131.001563 130.870502 70.814062 129.159249 70.814062 138.000141 C 70.814062 146.841033 120.389062 155.678411 135.257812 155.678411 C 155.090625 155.678411 165.009375 146.841033 165.009375 129.159249 L 165.009375 84.958302 Z M 135.257812 84.958302 " transform="matrix(0.833333,0,0,1.111667,0,0)"/>
<path style="fill-rule:evenodd;fill:rgb(100%,100%,100%);fill-opacity:1;stroke-width:0.352;stroke-linecap:butt;stroke-linejoin:miter;stroke:rgb(85.882354%,8.627451%,10.588235%);stroke-opacity:1;stroke-miterlimit:4;" d="M 135.257812 93.799194 L 135.257812 98.21964 C 145.120312 99.691951 155.146875 99.691951 165.009375 98.21964 L 165.009375 93.799194 C 155.146875 95.271505 145.120312 95.271505 135.257812 93.799194 Z M 135.257812 84.958302 L 135.257812 89.378748 C 145.120312 90.851059 155.146875 90.851059 165.009375 89.378748 L 165.009375 84.958302 C 155.146875 86.430613 145.120312 86.430613 135.257812 84.958302 Z M 135.257812 84.958302 " transform="matrix(0.833333,0,0,1.111667,0,0)"/>
<path style="fill-rule:evenodd;fill:rgb(100%,100%,100%);fill-opacity:1;stroke-width:0.352;stroke-linecap:butt;stroke-linejoin:miter;stroke:rgb(85.882354%,8.627451%,10.588235%);stroke-opacity:1;stroke-miterlimit:4;" d="M 135.257812 89.378748 L 135.257812 93.799194 C 145.120312 95.271505 155.146875 95.271505 165.009375 93.799194 L 165.009375 89.378748 C 155.146875 90.851059 145.120312 90.851059 135.257812 89.378748 Z M 135.257812 98.21964 L 135.257812 102.640086 C 145.18125 104.108883 155.090625 104.108883 165.009375 102.640086 L 165.009375 98.21964 C 155.146875 99.691951 145.120312 99.691951 135.257812 98.21964 Z M 135.257812 98.21964 " transform="matrix(0.833333,0,0,1.111667,0,0)"/>
<path style="fill-rule:nonzero;fill:rgb(100%,100%,100%);fill-opacity:1;stroke-width:4.463;stroke-linecap:butt;stroke-linejoin:miter;stroke:rgb(85.882354%,8.627451%,10.588235%);stroke-opacity:1;stroke-miterlimit:4;" d="M 265.737403 210.846363 C 265.737403 225.536448 261.775616 237.386449 256.892484 237.386449 C 252.009351 237.386449 248.016853 225.536448 248.016853 210.846363 C 248.016853 196.156279 252.009351 184.208344 256.892484 184.208344 C 261.775616 184.208344 265.737403 196.156279 265.737403 210.846363 Z M 265.737403 210.846363 " transform="matrix(0.127192,0,0,0.0398866,81.169167,93.742399)"/>
<path style="fill-rule:nonzero;fill:rgb(100%,100%,100%);fill-opacity:1;stroke-width:4.463;stroke-linecap:butt;stroke-linejoin:miter;stroke:rgb(85.882354%,8.627451%,10.588235%);stroke-opacity:1;stroke-miterlimit:4;" d="M 301.178502 246.252435 C 301.178502 260.942519 297.216715 272.79252 292.333583 272.79252 C 287.419739 272.79252 283.457952 260.942519 283.457952 246.252435 C 283.457952 231.56235 287.419739 219.712349 292.333583 219.712349 C 297.216715 219.712349 301.178502 231.56235 301.178502 246.252435 Z M 301.178502 246.252435 " transform="matrix(0.127192,0,0,0.0398866,81.169167,92.857515)"/>
<path style="fill-rule:nonzero;fill:rgb(100%,100%,100%);fill-opacity:1;stroke-width:4.463;stroke-linecap:butt;stroke-linejoin:miter;stroke:rgb(85.882354%,8.627451%,10.588235%);stroke-opacity:1;stroke-miterlimit:4;" d="M 336.619601 263.974932 C 336.619601 278.665016 332.657814 290.515017 327.774682 290.515017 C 322.860838 290.515017 318.899051 278.665016 318.899051 263.974932 C 318.899051 249.284848 322.860838 237.434846 327.774682 237.434846 C 332.657814 237.434846 336.619601 249.284848 336.619601 263.974932 Z M 336.619601 263.974932 " transform="matrix(0.127192,0,0,0.0398866,81.169167,92.681875)"/>
<path style="fill-rule:nonzero;fill:rgb(100%,100%,100%);fill-opacity:1;stroke-width:4.463;stroke-linecap:butt;stroke-linejoin:miter;stroke:rgb(85.882354%,8.627451%,10.588235%);stroke-opacity:1;stroke-miterlimit:4;" d="M 372.0607 263.974932 C 372.0607 278.665016 368.068202 290.515017 363.185069 290.515017 C 358.301937 290.515017 354.34015 278.665016 354.34015 263.974932 C 354.34015 249.284848 358.301937 237.434846 363.185069 237.434846 C 368.068202 237.434846 372.0607 249.284848 372.0607 263.974932 Z M 372.0607 263.974932 " transform="matrix(0.127192,0,0,0.0398866,81.169167,92.681875)"/>
<path style="fill-rule:nonzero;fill:rgb(100%,100%,100%);fill-opacity:1;stroke-width:4.463;stroke-linecap:butt;stroke-linejoin:miter;stroke:rgb(85.882354%,8.627451%,10.588235%);stroke-opacity:1;stroke-miterlimit:4;" d="M 407.471088 246.252435 C 407.471088 260.942519 403.509301 272.79252 398.626169 272.79252 C 393.743036 272.79252 389.750538 260.942519 389.750538 246.252435 C 389.750538 231.56235 393.743036 219.712349 398.626169 219.712349 C 403.509301 219.712349 407.471088 231.56235 407.471088 246.252435 Z M 407.471088 246.252435 " transform="matrix(0.127192,0,0,0.0398866,81.169167,92.857515)"/>
<path style="fill-rule:nonzero;fill:rgb(100%,100%,100%);fill-opacity:1;stroke-width:4.463;stroke-linecap:butt;stroke-linejoin:miter;stroke:rgb(85.882354%,8.627451%,10.588235%);stroke-opacity:1;stroke-miterlimit:4;" d="M 442.912187 210.846363 C 442.912187 225.536448 438.9504 237.386449 434.067268 237.386449 C 429.153424 237.386449 425.191637 225.536448 425.191637 210.846363 C 425.191637 196.156279 429.153424 184.208344 434.067268 184.208344 C 438.9504 184.208344 442.912187 196.156279 442.912187 210.846363 Z M 442.912187 210.846363 " transform="matrix(0.127192,0,0,0.0398866,81.169167,93.742399)"/>
<path style="fill-rule:evenodd;fill:rgb(100%,100%,100%);fill-opacity:1;stroke-width:0.352;stroke-linecap:butt;stroke-linejoin:miter;stroke:rgb(85.882354%,8.627451%,10.588235%);stroke-opacity:1;stroke-miterlimit:4;" d="M 135.257812 107.060532 L 165.009375 130.930238 M 138.229687 107.060532 L 165.009375 128.27024 M 142.2 107.938999 L 165.009375 125.620783 M 145.18125 107.938999 L 165.009375 122.971327 M 148.148438 107.938999 L 165.009375 120.318356 M 151.120312 107.938999 L 165.009375 117.6689 M 154.101562 107.938999 L 165.009375 115.008902 M 157.06875 107.938999 L 165.009375 113.248454 M 160.05 107.938999 L 165.009375 111.480978 M 163.021875 107.938999 L 165.009375 109.709989 M 135.257812 109.709989 L 165.009375 133.579695 M 165.009375 107.060532 L 132.290625 133.579695 M 162.028125 107.060532 L 133.279687 130.041229 M 158.071875 107.938999 L 135.257812 125.620783 M 155.090625 107.938999 L 135.257812 122.971327 M 152.11875 107.938999 L 135.257812 120.318356 M 149.142188 107.938999 L 135.257812 117.6689 M 146.170312 107.938999 L 135.257812 115.008902 M 143.189063 107.938999 L 135.257812 113.248454 M 140.221875 107.938999 L 135.257812 111.480978 M 137.240625 107.938999 L 135.257812 109.709989 M 165.009375 109.709989 L 132.290625 136.229151 M 165.009375 112.359445 L 132.290625 138.878608 M 165.009375 115.008902 L 132.290625 141.538606 M 165.009375 117.6689 L 132.290625 144.191576 M 165.009375 120.318356 L 132.290625 146.841033 M 165.009375 122.971327 L 132.290625 149.490489 M 165.009375 125.620783 L 132.290625 152.139946 M 165.009375 128.280781 L 132.290625 154.799944 M 165.009375 130.930238 L 134.26875 155.678411 M 165.009375 133.579695 L 137.240625 155.678411 M 164.010937 137.121674 L 142.2 154.799944 M 163.021875 140.649597 L 145.18125 154.799944 M 161.039062 145.070043 L 152.11875 152.139946 M 135.257812 112.359445 L 164.010937 135.350684 M 135.257812 115.008902 L 164.010937 138.000141 M 135.257812 117.6689 L 163.021875 139.77113 M 135.257812 120.318356 L 163.021875 142.420587 M 135.257812 122.971327 L 162.028125 144.191576 M 134.26875 124.738802 L 161.039062 145.959052 M 134.26875 127.388259 L 159.060937 146.841033 M 133.279687 129.159249 L 158.071875 148.608508 M 132.290625 130.930238 L 156.079688 149.490489 M 132.290625 133.579695 L 155.090625 151.261479 M 132.290625 136.229151 L 152.11875 152.139946 M 135.257812 102.640086 L 135.257812 107.060532 C 145.18125 108.529329 155.090625 108.529329 165.009375 107.060532 L 165.009375 102.640086 C 155.090625 104.108883 145.18125 104.108883 135.257812 102.640086 Z M 132.290625 138.878608 L 150.13125 153.028954 M 132.290625 141.538606 L 148.148438 153.910935 M 132.290625 144.191576 L 146.170312 154.799944 M 132.290625 146.841033 L 142.2 154.799944 M 132.290625 149.490489 L 140.221875 155.678411 M 132.290625 152.139946 L 137.240625 155.678411 " transform="matrix(0.833333,0,0,1.111667,0,0)"/>
<path style="fill-rule:nonzero;fill:rgb(100%,100%,100%);fill-opacity:1;stroke-width:4.463;stroke-linecap:butt;stroke-linejoin:miter;stroke:rgb(85.882354%,8.627451%,10.588235%);stroke-opacity:1;stroke-miterlimit:4;" d="M 265.737403 210.785663 C 265.737403 225.475747 261.775616 237.423682 256.892484 237.423682 C 252.009351 237.423682 248.016853 225.475747 248.016853 210.785663 C 248.016853 196.193513 252.009351 184.245578 256.892484 184.245578 C 261.775616 184.245578 265.737403 196.193513 265.737403 210.785663 Z M 265.737403 210.785663 " transform="matrix(0.127192,0,0,0.0398866,81.169167,108.483102)"/>
<path style="fill-rule:nonzero;fill:rgb(100%,100%,100%);fill-opacity:1;stroke-width:4.463;stroke-linecap:butt;stroke-linejoin:miter;stroke:rgb(85.882354%,8.627451%,10.588235%);stroke-opacity:1;stroke-miterlimit:4;" d="M 301.178502 246.261813 C 301.178502 260.951897 297.216715 272.801898 292.333583 272.801898 C 287.419739 272.801898 283.457952 260.951897 283.457952 246.261813 C 283.457952 231.571729 287.419739 219.721728 292.333583 219.721728 C 297.216715 219.721728 301.178502 231.571729 301.178502 246.261813 Z M 301.178502 246.261813 " transform="matrix(0.127192,0,0,0.0398866,81.169167,107.599329)"/>
<path style="fill-rule:nonzero;fill:rgb(100%,100%,100%);fill-opacity:1;stroke-width:4.463;stroke-linecap:butt;stroke-linejoin:miter;stroke:rgb(85.882354%,8.627451%,10.588235%);stroke-opacity:1;stroke-miterlimit:4;" d="M 336.619601 264.012165 C 336.619601 278.70225 332.657814 290.552251 327.774682 290.552251 C 322.860838 290.552251 318.899051 278.70225 318.899051 264.012165 C 318.899051 249.322081 322.860838 237.374146 327.774682 237.374146 C 332.657814 237.374146 336.619601 249.322081 336.619601 264.012165 Z M 336.619601 264.012165 " transform="matrix(0.127192,0,0,0.0398866,81.169167,107.422578)"/>
<path style="fill-rule:nonzero;fill:rgb(100%,100%,100%);fill-opacity:1;stroke-width:4.463;stroke-linecap:butt;stroke-linejoin:miter;stroke:rgb(85.882354%,8.627451%,10.588235%);stroke-opacity:1;stroke-miterlimit:4;" d="M 372.0607 264.012165 C 372.0607 278.70225 368.068202 290.552251 363.185069 290.552251 C 358.301937 290.552251 354.34015 278.70225 354.34015 264.012165 C 354.34015 249.322081 358.301937 237.374146 363.185069 237.374146 C 368.068202 237.374146 372.0607 249.322081 372.0607 264.012165 Z M 372.0607 264.012165 " transform="matrix(0.127192,0,0,0.0398866,81.169167,107.422578)"/>
<path style="fill-rule:nonzero;fill:rgb(100%,100%,100%);fill-opacity:1;stroke-width:4.463;stroke-linecap:butt;stroke-linejoin:miter;stroke:rgb(85.882354%,8.627451%,10.588235%);stroke-opacity:1;stroke-miterlimit:4;" d="M 407.471088 246.261813 C 407.471088 260.951897 403.509301 272.801898 398.626169 272.801898 C 393.743036 272.801898 389.750538 260.951897 389.750538 246.261813 C 389.750538 231.571729 393.743036 219.721728 398.626169 219.721728 C 403.509301 219.721728 407.471088 231.571729 407.471088 246.261813 Z M 407.471088 246.261813 " transform="matrix(0.127192,0,0,0.0398866,81.169167,107.599329)"/>
<path style="fill-rule:nonzero;fill:rgb(100%,100%,100%);fill-opacity:1;stroke-width:4.463;stroke-linecap:butt;stroke-linejoin:miter;stroke:rgb(85.882354%,8.627451%,10.588235%);stroke-opacity:1;stroke-miterlimit:4;" d="M 442.912187 210.785663 C 442.912187 225.475747 438.9504 237.423682 434.067268 237.423682 C 429.153424 237.423682 425.191637 225.475747 425.191637 210.785663 C 425.191637 196.193513 429.153424 184.245578 434.067268 184.245578 C 438.9504 184.245578 442.912187 196.193513 442.912187 210.785663 Z M 442.912187 210.785663 " transform="matrix(0.127192,0,0,0.0398866,81.169167,108.483102)"/>
<path style="fill-rule:evenodd;fill:rgb(100%,100%,100%);fill-opacity:1;stroke-width:0.352;stroke-linecap:butt;stroke-linejoin:miter;stroke:rgb(85.882354%,8.627451%,10.588235%);stroke-opacity:1;stroke-miterlimit:4;" d="M 92.625 148.608508 L 128.320312 130.041229 M 90.642187 147.7195 L 124.35 130.041229 M 89.653125 145.959052 L 120.389062 130.041229 M 88.659375 144.191576 L 115.429688 130.041229 M 86.676563 142.420587 L 111.459375 130.041229 M 87.670312 139.77113 L 104.521875 130.930238 M 86.676563 138.000141 L 99.567188 130.930238 M 86.676563 135.350684 L 95.601562 130.930238 M 95.601562 149.490489 L 129.309375 131.808705 M 98.573437 150.379498 L 130.298438 133.579695 M 101.55 151.261479 L 131.292187 135.350684 M 104.521875 152.139946 L 129.309375 138.878608 M 108.492188 152.139946 L 130.298438 140.649597 M 111.459375 153.028954 L 130.298438 143.299054 M 114.440625 153.910935 L 129.309375 145.959052 M 118.401562 153.910935 L 130.298438 147.7195 M 122.371875 154.799944 L 130.298438 150.379498 M 126.342187 154.799944 L 131.292187 152.139946 M 133.279687 129.159249 L 128.320312 129.159249 C 126.670312 137.922835 126.670312 146.918338 128.320312 155.678411 L 133.279687 155.678411 C 131.620312 146.918338 131.620312 137.922835 133.279687 129.159249 Z M 74.779687 141.538606 L 86.676563 132.701228 M 74.779687 135.350684 L 86.676563 145.959052 " transform="matrix(0.833333,0,0,1.111667,0,0)"/>
<path style="fill-rule:evenodd;fill:rgb(100%,100%,100%);fill-opacity:1;stroke-width:0.251;stroke-linecap:butt;stroke-linejoin:miter;stroke:rgb(85.882354%,8.627451%,10.588235%);stroke-opacity:1;stroke-miterlimit:4;" d="M 92.625 130.930238 L 86.676563 131.808705 C 85.354687 137.409811 85.354687 142.118394 86.676563 147.7195 L 92.625 149.490489 C 91.303125 143.889383 91.303125 136.531344 92.625 130.930238 Z M 92.625 130.930238 " transform="matrix(0.833333,0,0,1.111667,0,0)"/>
<path style="fill-rule:evenodd;fill:rgb(100%,100%,100%);fill-opacity:1;stroke-width:0.431;stroke-linecap:butt;stroke-linejoin:miter;stroke:rgb(85.882354%,8.627451%,10.588235%);stroke-opacity:1;stroke-miterlimit:4;" d="M 164.971875 86.725778 L 164.971875 82.270193 C 160.51875 82.305332 157.542187 79.652361 157.542187 76.964252 L 142.692187 76.999391 C 142.692187 79.652361 139.720313 82.305332 135.257812 82.305332 L 135.257812 86.725778 Z M 164.971875 86.725778 " transform="matrix(0.833333,0,0,1.111667,0,0)"/>
<path style="fill-rule:nonzero;fill:rgb(100%,100%,100%);fill-opacity:1;stroke-width:0.364;stroke-linecap:butt;stroke-linejoin:miter;stroke:rgb(85.882354%,8.627451%,10.588235%);stroke-opacity:1;stroke-miterlimit:4;" d="M 143.751563 71.696964 L 156.482812 71.696964 L 156.482812 76.999391 L 143.751563 76.999391 Z M 144.810937 66.394537 L 155.423438 66.394537 L 155.423438 71.696964 L 144.810937 71.696964 Z M 144.810937 61.088596 L 155.423438 61.088596 L 155.423438 66.394537 L 144.810937 66.394537 Z M 144.810937 61.088596 " transform="matrix(0.833333,0,0,1.111667,0,0)"/>
<path style="fill-rule:nonzero;fill:rgb(100%,100%,100%);fill-opacity:1;stroke-width:0.364;stroke-linecap:butt;stroke-linejoin:miter;stroke:rgb(85.882354%,8.627451%,10.588235%);stroke-opacity:1;stroke-miterlimit:4;" d="M 145.870312 54.018694 L 154.359375 54.018694 L 154.359375 61.088596 L 145.870312 61.088596 Z M 145.870312 54.018694 " transform="matrix(0.833333,0,0,1.111667,0,0)"/>
<path style="fill-rule:nonzero;fill:rgb(100%,100%,100%);fill-opacity:1;stroke-width:0.38;stroke-linecap:butt;stroke-linejoin:miter;stroke:rgb(85.882354%,8.627451%,10.588235%);stroke-opacity:1;stroke-miterlimit:4;" d="M 145.509375 47.827258 L 154.729687 47.827258 L 154.729687 54.018694 L 145.509375 54.018694 Z M 145.509375 47.827258 " transform="matrix(0.833333,0,0,1.111667,0,0)"/>
<path style="fill-rule:nonzero;fill:rgb(100%,100%,100%);fill-opacity:1;stroke-width:1.333;stroke-linecap:butt;stroke-linejoin:miter;stroke:rgb(85.882354%,8.627451%,10.588235%);stroke-opacity:1;stroke-miterlimit:4;" d="M 279.915729 161.224837 C 279.915729 179.81524 260.884311 194.884734 237.394938 194.884734 C 213.921775 194.884734 194.874147 179.81524 194.874147 161.224837 C 194.874147 142.634433 213.921775 127.564939 237.394938 127.564939 C 260.884311 127.564939 279.915729 142.634433 279.915729 161.224837 Z M 279.915729 161.224837 " transform="matrix(0.240967,0,0,0.277361,68.319168,2.0677)"/>
<path style="fill-rule:evenodd;fill:rgb(100%,100%,100%);fill-opacity:1;stroke-width:0.358;stroke-linecap:butt;stroke-linejoin:miter;stroke:rgb(85.882354%,8.627451%,10.588235%);stroke-opacity:1;stroke-miterlimit:4;" d="M 156.778125 41.639337 C 156.778125 43.95849 159.848437 47.827258 159.848437 47.827258 C 157.621875 49.348763 154.021875 50.480229 150.628125 50.480229 C 147.239062 50.480229 143.010937 49.851246 141.407813 47.827258 C 141.407813 47.827258 144.478125 43.95849 144.478125 41.639337 C 144.478125 39.323698 141.407813 36.33691 141.407813 36.33691 C 143.629687 34.815405 147.239062 33.683939 150.628125 33.683939 C 154.021875 33.683939 157.621875 34.815405 159.848437 36.33691 C 159.848437 36.33691 156.778125 39.323698 156.778125 41.639337 Z M 156.778125 41.639337 " transform="matrix(0.833333,0,0,1.111667,0,0)"/>
<path style="fill-rule:evenodd;fill:rgb(100%,100%,100%);fill-opacity:1;stroke-width:0.358;stroke-linecap:butt;stroke-linejoin:miter;stroke:rgb(85.882354%,8.627451%,10.588235%);stroke-opacity:1;stroke-miterlimit:4;" d="M 154.729687 41.639337 C 154.729687 43.95849 157.8 48.712753 157.8 48.712753 C 155.578125 50.234258 154.021875 50.480229 150.628125 50.480229 C 147.239062 50.480229 145.059375 50.733227 143.460938 48.712753 C 143.460938 48.712753 146.53125 43.95849 146.53125 41.639337 C 146.53125 39.323698 143.460938 35.451415 143.460938 35.451415 C 145.678125 33.933424 147.239062 33.683939 150.628125 33.683939 C 154.021875 33.683939 155.578125 33.933424 157.8 35.451415 C 157.8 35.451415 154.729687 39.323698 154.729687 41.639337 Z M 154.729687 41.639337 " transform="matrix(0.833333,0,0,1.111667,0,0)"/>
<path style="fill-rule:nonzero;fill:rgb(100%,100%,100%);fill-opacity:1;stroke-width:1.333;stroke-linecap:butt;stroke-linejoin:miter;stroke:rgb(85.882354%,8.627451%,10.588235%);stroke-opacity:1;stroke-miterlimit:4;" d="M 205.508397 166.546469 C 205.508397 172.405263 200.758648 177.165533 194.874147 177.165533 C 189.005856 177.165533 184.256107 172.405263 184.256107 166.546469 C 184.256107 160.673592 189.005856 155.913322 194.874147 155.913322 C 200.758648 155.913322 205.508397 160.673592 205.508397 166.546469 Z M 205.508397 166.546469 " transform="matrix(0.240967,0,0,0.277361,68.319168,1.083875)"/>
<path style="fill-rule:nonzero;fill:rgb(100%,100%,100%);fill-opacity:1;stroke-width:1.333;stroke-linecap:butt;stroke-linejoin:miter;stroke:rgb(85.882354%,8.627451%,10.588235%);stroke-opacity:1;stroke-miterlimit:4;" d="M 205.514027 166.546469 C 205.514027 172.405263 200.748068 177.165533 194.879777 177.165533 C 189.011486 177.165533 184.245527 172.405263 184.245527 166.546469 C 184.245527 160.673592 189.011486 155.913322 194.879777 155.913322 C 200.748068 155.913322 205.514027 160.673592 205.514027 166.546469 Z M 205.514027 166.546469 " transform="matrix(0.240967,0,0,0.277361,88.809999,1.083875)"/>
<path style="fill-rule:nonzero;fill:rgb(100%,100%,100%);fill-opacity:1;stroke-width:1.333;stroke-linecap:butt;stroke-linejoin:miter;stroke:rgb(85.882354%,8.627451%,10.588235%);stroke-opacity:1;stroke-miterlimit:4;" d="M 205.509484 166.546469 C 205.509484 172.405263 200.743524 177.165533 194.875234 177.165533 C 189.006943 177.165533 184.257194 172.405263 184.257194 166.546469 C 184.257194 160.673592 189.006943 155.913322 194.875234 155.913322 C 200.743524 155.913322 205.509484 160.673592 205.509484 166.546469 Z M 205.509484 166.546469 " transform="matrix(0.240967,0,0,0.277361,78.565,1.083875)"/>
<path style="fill-rule:nonzero;fill:rgb(100%,100%,100%);fill-opacity:1;stroke-width:1.333;stroke-linecap:butt;stroke-linejoin:miter;stroke:rgb(85.882354%,8.627451%,10.588235%);stroke-opacity:1;stroke-miterlimit:4;" d="M 205.509484 166.542893 C 205.509484 172.415771 200.743524 177.176041 194.875234 177.176041 C 189.006943 177.176041 184.257194 172.415771 184.257194 166.542893 C 184.257194 160.670016 189.006943 155.909746 194.875234 155.909746 C 200.743524 155.909746 205.509484 160.670016 205.509484 166.542893 Z M 205.509484 166.542893 " transform="matrix(0.240967,0,0,0.277361,78.565,-8.743258)"/>
<path style="fill-rule:nonzero;fill:rgb(100%,100%,100%);fill-opacity:1;stroke-width:1.333;stroke-linecap:butt;stroke-linejoin:miter;stroke:rgb(85.882354%,8.627451%,10.588235%);stroke-opacity:1;stroke-miterlimit:4;" d="M 205.512687 166.542372 C 205.512687 172.41525 200.754439 177.17552 194.88489 177.17552 C 189.015341 177.17552 184.257093 172.41525 184.257093 166.542372 C 184.257093 160.669495 189.015341 155.909225 194.88489 155.909225 C 200.754439 155.909225 205.512687 160.669495 205.512687 166.542372 Z M 205.512687 166.542372 " transform="matrix(0.249567,0,0,0.277361,69.386667,47.272511)"/>
<path style="fill-rule:nonzero;fill:rgb(100%,100%,100%);fill-opacity:1;stroke-width:1.333;stroke-linecap:butt;stroke-linejoin:miter;stroke:rgb(85.882354%,8.627451%,10.588235%);stroke-opacity:1;stroke-miterlimit:4;" d="M 205.513115 166.542372 C 205.513115 172.41525 200.754867 177.17552 194.885318 177.17552 C 189.015769 177.17552 184.257521 172.41525 184.257521 166.542372 C 184.257521 160.669495 189.015769 155.909225 194.885318 155.909225 C 200.754867 155.909225 205.513115 160.669495 205.513115 166.542372 Z M 205.513115 166.542372 " transform="matrix(0.249567,0,0,0.277361,83.534997,47.272511)"/>
<path style="fill-rule:evenodd;fill:rgb(100%,100%,100%);fill-opacity:1;stroke-width:0.364;stroke-linecap:butt;stroke-linejoin:miter;stroke:rgb(85.882354%,8.627451%,10.588235%);stroke-opacity:1;stroke-miterlimit:4;" d="M 142.692187 76.999391 L 157.542187 76.999391 L 150.121875 84.958302 Z M 142.692187 76.999391 " transform="matrix(0.833333,0,0,1.111667,0,0)"/>
<path style="fill-rule:nonzero;fill:rgb(100%,100%,100%);fill-opacity:1;stroke-width:1.333;stroke-linecap:butt;stroke-linejoin:miter;stroke:rgb(85.882354%,8.627451%,10.588235%);stroke-opacity:1;stroke-miterlimit:4;" d="M 205.507951 166.53889 C 205.507951 172.411886 200.753656 177.16521 194.884156 177.16521 C 189.014656 177.16521 184.248622 172.411886 184.248622 166.53889 C 184.248622 160.665895 189.014656 155.912571 194.884156 155.912571 C 200.753656 155.912571 205.507951 160.665895 205.507951 166.53889 Z M 205.507951 166.53889 " transform="matrix(0.332758,0,0,0.369807,60.24833,30.893218)"/>
<path style="fill-rule:nonzero;fill:rgb(100%,100%,100%);fill-opacity:1;stroke-width:0.33;stroke-linecap:butt;stroke-linejoin:miter;stroke:rgb(85.882354%,8.627451%,10.588235%);stroke-opacity:1;stroke-miterlimit:4;" d="M 135.009375 109.72053 L 155.339062 109.72053 C 156.01875 109.72053 156.576562 110.138681 156.576562 110.658733 L 156.576562 114.084754 C 156.576562 114.604807 156.01875 115.022957 155.339062 115.022957 L 135.009375 115.022957 C 134.325 115.022957 133.771875 114.604807 133.771875 114.084754 L 133.771875 110.658733 C 133.771875 110.138681 134.325 109.72053 135.009375 109.72053 Z M 135.009375 109.72053 " transform="matrix(0.833333,0,0,1.111667,0,0)"/>
<path style="fill-rule:evenodd;fill:rgb(100%,100%,100%);fill-opacity:1;stroke-width:0.33;stroke-linecap:butt;stroke-linejoin:miter;stroke:rgb(85.882354%,8.627451%,10.588235%);stroke-opacity:1;stroke-miterlimit:4;" d="M 163.51875 105.300084 C 160.771875 105.300084 158.559375 107.359211 158.559375 109.920821 L 158.559375 113.940686 C 158.559375 116.498782 160.771875 118.561422 163.51875 118.561422 C 166.270312 118.561422 168.478125 116.498782 168.478125 113.940686 L 168.478125 109.920821 C 168.478125 107.359211 166.270312 105.300084 163.51875 105.300084 Z M 163.51875 107.071074 C 161.86875 107.071074 160.542187 108.719078 160.542187 110.771177 L 160.542187 113.100871 C 160.542187 115.149457 161.86875 116.790433 163.51875 116.790433 C 165.16875 116.790433 166.490625 115.149457 166.490625 113.100871 L 166.490625 110.771177 C 166.490625 108.719078 165.16875 107.071074 163.51875 107.071074 Z M 137.742188 106.189093 C 136.092187 106.189093 134.770312 107.830069 134.770312 109.878654 L 134.770312 113.979338 C 134.770312 116.031437 136.092187 117.679442 137.742188 117.679442 C 139.392188 117.679442 140.709375 116.031437 140.709375 113.979338 L 140.709375 109.878654 C 140.709375 107.830069 139.392188 106.189093 137.742188 106.189093 Z M 137.742188 104.421617 C 134.990625 104.421617 132.778125 106.480744 132.778125 109.03884 L 132.778125 114.829695 C 132.778125 117.391304 134.990625 119.450431 137.742188 119.450431 C 140.489062 119.450431 142.701562 117.391304 142.701562 114.829695 L 142.701562 109.03884 C 142.701562 106.480744 140.489062 104.421617 137.742188 104.421617 Z M 137.742188 104.421617 " transform="matrix(0.833333,0,0,1.111667,0,0)"/>
<path style="fill-rule:evenodd;fill:rgb(100%,100%,100%);fill-opacity:1;stroke-width:0.33;stroke-linecap:butt;stroke-linejoin:miter;stroke:rgb(85.882354%,8.627451%,10.588235%);stroke-opacity:1;stroke-miterlimit:4;" d="M 129.810937 107.949541 C 128.160937 107.949541 126.829687 109.601059 126.829687 111.649644 L 126.829687 112.60893 C 126.829687 114.661029 128.160937 116.309033 129.810937 116.309033 C 131.460938 116.309033 132.778125 114.661029 132.778125 112.60893 L 132.778125 111.649644 C 132.778125 109.601059 131.460938 107.949541 129.810937 107.949541 Z M 129.810937 106.189093 C 127.059375 106.189093 124.851562 108.251734 124.851562 110.809829 L 124.851562 113.459286 C 124.851562 116.020896 127.059375 118.080022 129.810937 118.080022 C 132.548438 118.080022 134.770312 116.020896 134.770312 113.459286 L 134.770312 110.809829 C 134.770312 108.251734 132.548438 106.189093 129.810937 106.189093 Z M 129.810937 106.189093 " transform="matrix(0.833333,0,0,1.111667,0,0)"/>
<path style="fill-rule:evenodd;fill:rgb(100%,100%,100%);fill-opacity:1;stroke-width:0.33;stroke-linecap:butt;stroke-linejoin:miter;stroke:rgb(85.882354%,8.627451%,10.588235%);stroke-opacity:1;stroke-miterlimit:4;" d="M 117.909375 105.510916 C 114.942188 105.510916 112.560937 107.348669 112.560937 109.639711 L 112.560937 114.218281 C 112.560937 116.509323 114.942188 118.35059 117.909375 118.35059 C 120.88125 118.35059 123.257812 116.509323 123.257812 114.218281 L 123.257812 109.639711 C 123.257812 107.348669 120.88125 105.510916 117.909375 105.510916 Z M 117.909375 103.529095 C 112.96875 103.529095 108.989063 105.84122 108.989063 108.701509 L 108.989063 115.17054 C 108.989063 118.030828 112.96875 120.328898 117.909375 120.328898 C 122.85 120.328898 126.829687 118.030828 126.829687 115.17054 L 126.829687 108.701509 C 126.829687 105.84122 122.85 103.529095 117.909375 103.529095 Z M 182.357812 106.389383 C 179.390625 106.389383 177 108.241192 177 110.52872 L 177 115.110804 C 177 117.398332 179.390625 119.239599 182.357812 119.239599 C 185.320312 119.239599 187.710938 117.398332 187.710938 115.110804 L 187.710938 110.52872 C 187.710938 108.241192 185.320312 106.389383 182.357812 106.389383 Z M 182.357812 104.421617 C 177.407813 104.421617 173.428125 106.719687 173.428125 109.579976 L 173.428125 116.049007 C 173.428125 118.909295 177.407813 121.210879 182.357812 121.210879 C 187.298438 121.210879 191.278125 118.909295 191.278125 116.049007 L 191.278125 109.579976 C 191.278125 106.719687 187.298438 104.421617 182.357812 104.421617 Z M 182.357812 104.421617 " transform="matrix(0.833333,0,0,1.111667,0,0)"/>
<path style="fill-rule:nonzero;fill:rgb(100%,100%,100%);fill-opacity:1;stroke-width:0.33;stroke-linecap:butt;stroke-linejoin:miter;stroke:rgb(85.882354%,8.627451%,10.588235%);stroke-opacity:1;stroke-miterlimit:4;" d="M 166.14375 109.72053 L 176.751563 109.72053 C 177.107812 109.72053 177.398438 110.138681 177.398438 110.658733 L 177.398438 114.084754 C 177.398438 114.604807 177.107812 115.022957 176.751563 115.022957 L 166.14375 115.022957 C 165.7875 115.022957 165.501563 114.604807 165.501563 114.084754 L 165.501563 110.658733 C 165.501563 110.138681 165.7875 109.72053 166.14375 109.72053 Z M 166.14375 109.72053 " transform="matrix(0.833333,0,0,1.111667,0,0)"/>
<path style="fill-rule:nonzero;fill:rgb(100%,100%,100%);fill-opacity:1;stroke-width:0.33;stroke-linecap:butt;stroke-linejoin:miter;stroke:rgb(85.882354%,8.627451%,10.588235%);stroke-opacity:1;stroke-miterlimit:4;" d="M 154.978125 108.838549 L 161.165625 108.838549 C 161.371875 108.838549 161.540625 109.400768 161.540625 110.089487 L 161.540625 114.661029 C 161.540625 115.353261 161.371875 115.911966 161.165625 115.911966 L 154.978125 115.911966 C 154.767188 115.911966 154.598437 115.353261 154.598437 114.661029 L 154.598437 110.089487 C 154.598437 109.400768 154.767188 108.838549 154.978125 108.838549 Z M 154.978125 108.838549 " transform="matrix(0.833333,0,0,1.111667,0,0)"/>
<path style="fill-rule:nonzero;fill:rgb(100%,100%,100%);fill-opacity:1;stroke-width:0.33;stroke-linecap:butt;stroke-linejoin:miter;stroke:rgb(85.882354%,8.627451%,10.588235%);stroke-opacity:1;stroke-miterlimit:4;" d="M 122.254687 108.838549 L 128.442187 108.838549 C 128.653125 108.838549 128.821875 109.400768 128.821875 110.089487 L 128.821875 114.661029 C 128.821875 115.353261 128.653125 115.911966 128.442187 115.911966 L 122.254687 115.911966 C 122.048437 115.911966 121.879687 115.353261 121.879687 114.661029 L 121.879687 110.089487 C 121.879687 109.400768 122.048437 108.838549 122.254687 108.838549 Z M 122.254687 108.838549 " transform="matrix(0.833333,0,0,1.111667,0,0)"/>
<path style="fill-rule:nonzero;fill:rgb(100%,100%,100%);fill-opacity:1;stroke-width:0.33;stroke-linecap:butt;stroke-linejoin:miter;stroke:rgb(85.882354%,8.627451%,10.588235%);stroke-opacity:1;stroke-miterlimit:4;" d="M 100.814062 107.949541 L 113.189062 107.949541 C 113.601562 107.949541 113.939062 108.648801 113.939062 109.513212 L 113.939062 115.226762 C 113.939062 116.091173 113.601562 116.790433 113.189062 116.790433 L 100.814062 116.790433 C 100.396875 116.790433 100.059375 116.091173 100.059375 115.226762 L 100.059375 109.513212 C 100.059375 108.648801 100.396875 107.949541 100.814062 107.949541 Z M 100.814062 107.949541 " transform="matrix(0.833333,0,0,1.111667,0,0)"/>
<path style="fill-rule:nonzero;fill:rgb(100%,100%,100%);fill-opacity:1;stroke-width:0.33;stroke-linecap:butt;stroke-linejoin:miter;stroke:rgb(85.882354%,8.627451%,10.588235%);stroke-opacity:1;stroke-miterlimit:4;" d="M 187.021875 108.838549 L 198.510937 108.838549 C 198.895312 108.838549 199.209375 109.541323 199.209375 110.402221 L 199.209375 116.11577 C 199.209375 116.980182 198.895312 117.679442 198.510937 117.679442 L 187.021875 117.679442 C 186.632812 117.679442 186.31875 116.980182 186.31875 116.11577 L 186.31875 110.402221 C 186.31875 109.541323 186.632812 108.838549 187.021875 108.838549 Z M 187.021875 108.838549 " transform="matrix(0.833333,0,0,1.111667,0,0)"/>
</g>
</svg>
