<?xml version="1.0" encoding="UTF-8"?>
<svg xmlns="http://www.w3.org/2000/svg" xmlns:xlink="http://www.w3.org/1999/xlink" width="1000px" height="667px" viewBox="0 0 1000 667" version="1.1">
<defs>
<clipPath id="clip1">
  <path d="M 356 186 L 644 186 L 644 357 L 356 357 Z M 356 186 "/>
</clipPath>
<clipPath id="clip2">
  <path d="M 643.332031 334.179688 C 643.332031 415.539062 579.160156 481.492188 500 481.492188 C 420.839844 481.492188 356.667969 415.539062 356.667969 334.179688 C 356.667969 252.820312 420.839844 186.863281 500 186.863281 C 579.160156 186.863281 643.332031 252.820312 643.332031 334.179688 Z M 643.332031 334.179688 "/>
</clipPath>
<clipPath id="clip3">
  <path d="M 440 458 L 557 458 L 557 482 L 440 482 Z M 440 458 "/>
</clipPath>
<clipPath id="clip4">
  <path d="M 643.332031 334.179688 C 643.332031 415.539062 579.160156 481.492188 500 481.492188 C 420.839844 481.492188 356.667969 415.539062 356.667969 334.179688 C 356.667969 252.820312 420.839844 186.863281 500 186.863281 C 579.160156 186.863281 643.332031 252.820312 643.332031 334.179688 Z M 643.332031 334.179688 "/>
</clipPath>
<clipPath id="clip5">
  <path d="M 421 439 L 576 439 L 576 482 L 421 482 Z M 421 439 "/>
</clipPath>
<clipPath id="clip6">
  <path d="M 643.332031 334.179688 C 643.332031 415.539062 579.160156 481.492188 500 481.492188 C 420.839844 481.492188 356.667969 415.539062 356.667969 334.179688 C 356.667969 252.820312 420.839844 186.863281 500 186.863281 C 579.160156 186.863281 643.332031 252.820312 643.332031 334.179688 Z M 643.332031 334.179688 "/>
</clipPath>
<clipPath id="clip7">
  <path d="M 358 366 L 638 366 L 638 451 L 358 451 Z M 358 366 "/>
</clipPath>
<clipPath id="clip8">
  <path d="M 643.332031 334.179688 C 643.332031 415.539062 579.160156 481.492188 500 481.492188 C 420.839844 481.492188 356.667969 415.539062 356.667969 334.179688 C 356.667969 252.820312 420.839844 186.863281 500 186.863281 C 579.160156 186.863281 643.332031 252.820312 643.332031 334.179688 Z M 643.332031 334.179688 "/>
</clipPath>
<clipPath id="clip9">
  <path d="M 356 348 L 644 348 L 644 469 L 356 469 Z M 356 348 "/>
</clipPath>
<clipPath id="clip10">
  <path d="M 643.332031 334.179688 C 643.332031 415.539062 579.160156 481.492188 500 481.492188 C 420.839844 481.492188 356.667969 415.539062 356.667969 334.179688 C 356.667969 252.820312 420.839844 186.863281 500 186.863281 C 579.160156 186.863281 643.332031 252.820312 643.332031 334.179688 Z M 643.332031 334.179688 "/>
</clipPath>
<clipPath id="clip11">
  <path d="M 415 189 L 581 189 L 581 406 L 415 406 Z M 415 189 "/>
</clipPath>
<clipPath id="clip12">
  <path d="M 643.332031 334.179688 C 643.332031 415.539062 579.160156 481.492188 500 481.492188 C 420.839844 481.492188 356.667969 415.539062 356.667969 334.179688 C 356.667969 252.820312 420.839844 186.863281 500 186.863281 C 579.160156 186.863281 643.332031 252.820312 643.332031 334.179688 Z M 643.332031 334.179688 "/>
</clipPath>
<clipPath id="clip13">
  <path d="M 414 187 L 583 187 L 583 407 L 414 407 Z M 414 187 "/>
</clipPath>
<clipPath id="clip14">
  <path d="M 643.332031 334.179688 C 643.332031 415.539062 579.160156 481.492188 500 481.492188 C 420.839844 481.492188 356.667969 415.539062 356.667969 334.179688 C 356.667969 252.820312 420.839844 186.863281 500 186.863281 C 579.160156 186.863281 643.332031 252.820312 643.332031 334.179688 Z M 643.332031 334.179688 "/>
</clipPath>
<clipPath id="clip15">
  <path d="M 437 355 L 558 355 L 558 373 L 437 373 Z M 437 355 "/>
</clipPath>
<clipPath id="clip16">
  <path d="M 643.332031 334.179688 C 643.332031 415.539062 579.160156 481.492188 500 481.492188 C 420.839844 481.492188 356.667969 415.539062 356.667969 334.179688 C 356.667969 252.820312 420.839844 186.863281 500 186.863281 C 579.160156 186.863281 643.332031 252.820312 643.332031 334.179688 Z M 643.332031 334.179688 "/>
</clipPath>
<clipPath id="clip17">
  <path d="M 411 328 L 585 328 L 585 399 L 411 399 Z M 411 328 "/>
</clipPath>
<clipPath id="clip18">
  <path d="M 643.332031 334.179688 C 643.332031 415.539062 579.160156 481.492188 500 481.492188 C 420.839844 481.492188 356.667969 415.539062 356.667969 334.179688 C 356.667969 252.820312 420.839844 186.863281 500 186.863281 C 579.160156 186.863281 643.332031 252.820312 643.332031 334.179688 Z M 643.332031 334.179688 "/>
</clipPath>
<clipPath id="clip19">
  <path d="M 443 325 L 459 325 L 459 346 L 443 346 Z M 443 325 "/>
</clipPath>
<clipPath id="clip20">
  <path d="M 643.332031 334.179688 C 643.332031 415.539062 579.160156 481.492188 500 481.492188 C 420.839844 481.492188 356.667969 415.539062 356.667969 334.179688 C 356.667969 252.820312 420.839844 186.863281 500 186.863281 C 579.160156 186.863281 643.332031 252.820312 643.332031 334.179688 Z M 643.332031 334.179688 "/>
</clipPath>
<clipPath id="clip21">
  <path d="M 417 299 L 486 299 L 486 373 L 417 373 Z M 417 299 "/>
</clipPath>
<clipPath id="clip22">
  <path d="M 643.332031 334.179688 C 643.332031 415.539062 579.160156 481.492188 500 481.492188 C 420.839844 481.492188 356.667969 415.539062 356.667969 334.179688 C 356.667969 252.820312 420.839844 186.863281 500 186.863281 C 579.160156 186.863281 643.332031 252.820312 643.332031 334.179688 Z M 643.332031 334.179688 "/>
</clipPath>
<clipPath id="clip23">
  <path d="M 466 325 L 482 325 L 482 346 L 466 346 Z M 466 325 "/>
</clipPath>
<clipPath id="clip24">
  <path d="M 643.332031 334.179688 C 643.332031 415.539062 579.160156 481.492188 500 481.492188 C 420.839844 481.492188 356.667969 415.539062 356.667969 334.179688 C 356.667969 252.820312 420.839844 186.863281 500 186.863281 C 579.160156 186.863281 643.332031 252.820312 643.332031 334.179688 Z M 643.332031 334.179688 "/>
</clipPath>
<clipPath id="clip25">
  <path d="M 439 299 L 508 299 L 508 373 L 439 373 Z M 439 299 "/>
</clipPath>
<clipPath id="clip26">
  <path d="M 643.332031 334.179688 C 643.332031 415.539062 579.160156 481.492188 500 481.492188 C 420.839844 481.492188 356.667969 415.539062 356.667969 334.179688 C 356.667969 252.820312 420.839844 186.863281 500 186.863281 C 579.160156 186.863281 643.332031 252.820312 643.332031 334.179688 Z M 643.332031 334.179688 "/>
</clipPath>
<clipPath id="clip27">
  <path d="M 489 325 L 505 325 L 505 346 L 489 346 Z M 489 325 "/>
</clipPath>
<clipPath id="clip28">
  <path d="M 643.332031 334.179688 C 643.332031 415.539062 579.160156 481.492188 500 481.492188 C 420.839844 481.492188 356.667969 415.539062 356.667969 334.179688 C 356.667969 252.820312 420.839844 186.863281 500 186.863281 C 579.160156 186.863281 643.332031 252.820312 643.332031 334.179688 Z M 643.332031 334.179688 "/>
</clipPath>
<clipPath id="clip29">
  <path d="M 462 299 L 531 299 L 531 373 L 462 373 Z M 462 299 "/>
</clipPath>
<clipPath id="clip30">
  <path d="M 643.332031 334.179688 C 643.332031 415.539062 579.160156 481.492188 500 481.492188 C 420.839844 481.492188 356.667969 415.539062 356.667969 334.179688 C 356.667969 252.820312 420.839844 186.863281 500 186.863281 C 579.160156 186.863281 643.332031 252.820312 643.332031 334.179688 Z M 643.332031 334.179688 "/>
</clipPath>
<clipPath id="clip31">
  <path d="M 513 325 L 529 325 L 529 346 L 513 346 Z M 513 325 "/>
</clipPath>
<clipPath id="clip32">
  <path d="M 643.332031 334.179688 C 643.332031 415.539062 579.160156 481.492188 500 481.492188 C 420.839844 481.492188 356.667969 415.539062 356.667969 334.179688 C 356.667969 252.820312 420.839844 186.863281 500 186.863281 C 579.160156 186.863281 643.332031 252.820312 643.332031 334.179688 Z M 643.332031 334.179688 "/>
</clipPath>
<clipPath id="clip33">
  <path d="M 486 299 L 555 299 L 555 373 L 486 373 Z M 486 299 "/>
</clipPath>
<clipPath id="clip34">
  <path d="M 643.332031 334.179688 C 643.332031 415.539062 579.160156 481.492188 500 481.492188 C 420.839844 481.492188 356.667969 415.539062 356.667969 334.179688 C 356.667969 252.820312 420.839844 186.863281 500 186.863281 C 579.160156 186.863281 643.332031 252.820312 643.332031 334.179688 Z M 643.332031 334.179688 "/>
</clipPath>
<clipPath id="clip35">
  <path d="M 536 325 L 552 325 L 552 346 L 536 346 Z M 536 325 "/>
</clipPath>
<clipPath id="clip36">
  <path d="M 643.332031 334.179688 C 643.332031 415.539062 579.160156 481.492188 500 481.492188 C 420.839844 481.492188 356.667969 415.539062 356.667969 334.179688 C 356.667969 252.820312 420.839844 186.863281 500 186.863281 C 579.160156 186.863281 643.332031 252.820312 643.332031 334.179688 Z M 643.332031 334.179688 "/>
</clipPath>
<clipPath id="clip37">
  <path d="M 509 299 L 579 299 L 579 373 L 509 373 Z M 509 299 "/>
</clipPath>
<clipPath id="clip38">
  <path d="M 643.332031 334.179688 C 643.332031 415.539062 579.160156 481.492188 500 481.492188 C 420.839844 481.492188 356.667969 415.539062 356.667969 334.179688 C 356.667969 252.820312 420.839844 186.863281 500 186.863281 C 579.160156 186.863281 643.332031 252.820312 643.332031 334.179688 Z M 643.332031 334.179688 "/>
</clipPath>
</defs>
<g id="surface1">
<rect x="0" y="0" width="1000" height="667" style="fill:rgb(80.784315%,6.666667%,14.901961%);fill-opacity:1;stroke:none;"/>
<path style=" stroke:none;fill-rule:nonzero;fill:rgb(100%,100%,100%);fill-opacity:1;" d="M 0 166.75 L 1000 166.75 L 1000 500.25 L 0 500.25 Z M 0 166.75 "/>
<g clip-path="url(#clip1)" clip-rule="nonzero">
<g clip-path="url(#clip2)" clip-rule="nonzero">
<path style=" stroke:none;fill-rule:nonzero;fill:rgb(100%,61.176473%,6.27451%);fill-opacity:1;" d="M 437.75 316.804688 L 437.75 307.179688 L 462.082031 317.507812 Z M 437.75 302.367188 L 437.75 286.328125 C 437.75 286.328125 434.910156 286.730469 435.316406 283.519531 C 435.449219 276.835938 453.125 295.71875 462.183594 301.867188 L 461.984375 314.699219 Z M 408.132812 356.914062 L 408.132812 325.230469 L 349.730469 322.441406 L 357.03125 356.519531 Z M 408.941406 318.007812 L 408.539062 295.554688 L 355.40625 274.699219 L 354.59375 312.796875 Z M 407.320312 287.945312 L 413.289062 281.789062 C 413.289062 281.789062 409.445312 279.171875 409.636719 276.761719 C 409.707031 274.328125 413.5 273.957031 413.574219 271.3125 C 413.640625 268.878906 409.277344 268.585938 409.230469 266.148438 C 408.945312 263.507812 412.59375 260.675781 412.59375 260.675781 L 374.875 228.191406 L 365.546875 267.894531 Z M 585.773438 356.914062 L 585.367188 326.035156 L 644.578125 321.625 L 639.710938 356.914062 Z M 641.03125 312.3125 C 640.351562 307.300781 639.636719 302.296875 638.476562 297.382812 C 636.921875 290.800781 634.933594 284.332031 632.527344 278.015625 C 632.347656 277.550781 632.082031 277.121094 631.898438 276.660156 L 585.777344 295.972656 L 586.195312 318.835938 Z M 609.507812 238.078125 L 581.910156 258.957031 C 581.953125 260.957031 583.945312 262.492188 584.492188 264.402344 C 585.765625 267.089844 583.234375 269.460938 581.667969 271.355469 C 580.398438 273.105469 583.136719 273.996094 584.046875 275.03125 C 586.050781 277.085938 584.304688 280.3125 582.167969 281.507812 C 584.742188 283.046875 586.039062 285.929688 586.605469 288.765625 L 627.925781 267.257812 C 622.984375 256.84375 616.820312 246.992188 609.507812 238.078125 Z M 555.773438 317.207031 L 556.175781 307.980469 L 532.65625 318.207031 Z M 532.539062 302.773438 C 532.539062 302.773438 554.4375 283.222656 559.105469 279.613281 C 559.105469 283.621094 556.570312 286.730469 556.570312 286.730469 L 556.570312 301.96875 L 532.640625 313.199219 Z M 390.707031 225.382812 L 415.28125 252.34375 C 415.960938 249.828125 421.53125 249.445312 427.207031 249.847656 C 432.890625 250.246094 437.414062 249.46875 437.414062 253.480469 C 437.414062 257.488281 434.535156 256.921875 434.535156 259.726562 C 434.535156 262.535156 438.851562 262.300781 438.851562 265.90625 C 438.851562 269.515625 435.71875 268.777344 435.703125 271.574219 C 435.695312 273.882812 438.96875 274.007812 438.96875 274.007812 L 461.984375 296.0625 L 462.085938 272.503906 L 414.636719 198.917969 Z M 428.675781 197.519531 L 460.816406 262.511719 C 460.816406 262.511719 461.175781 202.519531 466.589844 199.304688 L 457.566406 182.878906 Z M 532.40625 190.621094 L 520.40625 232.121094 C 524.148438 232.566406 527.921875 232.6875 531.6875 232.480469 C 535.066406 232.769531 532.433594 235.941406 532.613281 237.816406 L 532.5625 263.335938 L 566.476562 203.410156 C 558.679688 199.335938 550.402344 196.3125 542.074219 193.546875 C 538.898438 192.425781 535.671875 191.449219 532.40625 190.621094 Z M 574.613281 207.960938 L 532.664062 272.480469 L 532.613281 297.328125 C 541.953125 288.4375 551.34375 279.59375 560.652344 270.671875 C 562.417969 268.167969 555.042969 266.941406 558.730469 263.894531 C 562.070312 262.839844 562.636719 257.441406 559.117188 256.402344 C 556.222656 252.148438 561.738281 249.890625 565.21875 250.355469 C 570.0625 250.578125 575.050781 249.300781 579.785156 250.648438 C 582.394531 253.140625 584.796875 246.878906 587.351562 245.46875 C 592.414062 240.378906 597.476562 235.292969 602.476562 230.148438 C 594.214844 221.546875 584.84375 214.085938 574.613281 207.960938 Z M 574.613281 207.960938 "/>
</g>
</g>
<g clip-path="url(#clip3)" clip-rule="nonzero">
<g clip-path="url(#clip4)" clip-rule="nonzero">
<path style=" stroke:none;fill-rule:nonzero;fill:rgb(3.137255%,23.921569%,61.176473%);fill-opacity:1;" d="M 466.40625 458.476562 C 456.09375 459.058594 445.816406 466.023438 440.996094 469.75 C 449.648438 473.539062 458.878906 476.496094 468.703125 478.519531 C 484.355469 481.148438 500.007812 481.132812 515.660156 481.132812 C 518.214844 480.808594 520.746094 480.445312 523.226562 480.035156 L 556.199219 468.914062 C 556.199219 468.914062 540.339844 458.441406 527.765625 458.894531 C 515.191406 459.34375 506.703125 471.652344 496.5625 470.742188 C 486.425781 469.835938 482.363281 458.476562 467.761719 458.476562 C 467.308594 458.476562 466.863281 458.449219 466.40625 458.476562 Z M 466.40625 458.476562 "/>
</g>
</g>
<g clip-path="url(#clip5)" clip-rule="nonzero">
<g clip-path="url(#clip6)" clip-rule="nonzero">
<path style="fill:none;stroke-width:2.053;stroke-linecap:butt;stroke-linejoin:miter;stroke:rgb(3.137255%,23.921569%,61.176473%);stroke-opacity:1;stroke-miterlimit:4;" d="M 279.879161 275.410739 C 273.702532 275.75917 267.54696 279.928649 264.659853 282.159543 C 269.842139 284.427852 275.37069 286.198069 281.254865 287.409392 C 290.629771 288.983178 300.004677 288.973824 309.379584 288.973824 C 310.909703 288.779732 312.425785 288.562255 313.911451 288.316716 L 333.660287 281.659112 C 333.660287 281.659112 324.16138 275.389693 316.630104 275.660954 C 309.098828 275.929878 304.014807 283.298374 297.941122 282.753513 C 291.869776 282.210989 289.436559 275.410739 280.691013 275.410739 C 280.419616 275.410739 280.152898 275.39437 279.879161 275.410739 Z M 279.879161 275.410739 " transform="matrix(1.6696,0,0,1.670435,-0.88,-1.579123)"/>
</g>
</g>
<g clip-path="url(#clip7)" clip-rule="nonzero">
<g clip-path="url(#clip8)" clip-rule="nonzero">
<path style=" stroke:none;fill-rule:nonzero;fill:rgb(3.137255%,23.921569%,61.176473%);fill-opacity:1;" d="M 593.898438 450.757812 C 593.898438 450.757812 577.675781 433.515625 558.613281 433.113281 C 539.550781 432.710938 544.824219 441.132812 530.226562 442.332031 C 515.625 443.539062 511.972656 433.515625 498.589844 433.914062 C 485.207031 434.3125 477.5 442.332031 467.363281 442.738281 C 457.222656 443.140625 444.246094 432.710938 436.539062 433.113281 C 428.832031 433.515625 401.253906 445.144531 401.253906 445.144531 L 406.519531 449.957031 Z M 382.59375 427.890625 L 613.765625 428.691406 C 617.417969 423.480469 602.410156 411.046875 588.621094 409.84375 C 577.261719 410.246094 569.15625 421.472656 559.828125 421.875 C 550.5 422.277344 539.957031 410.246094 529.410156 410.648438 C 518.863281 411.050781 507.914062 421.875 497.367188 421.875 C 486.824219 421.875 479.117188 410.246094 465.738281 410.246094 C 452.351562 410.246094 446.269531 423.078125 436.128906 422.277344 C 425.988281 421.476562 417.066406 409.445312 407.332031 409.445312 C 397.601562 409.445312 381.378906 423.878906 378.132812 423.078125 C 374.890625 422.273438 382.59375 427.890625 382.59375 427.890625 Z M 471.96875 405.773438 L 523.570312 405.742188 C 523.570312 405.742188 512.019531 388.121094 497.777344 389.335938 C 481.914062 389.746094 471.96875 405.769531 471.96875 405.773438 Z M 636.523438 404.535156 L 565.910156 404.535156 C 565.910156 404.535156 575.046875 399.195312 577.539062 394.269531 C 582.109375 396.734375 580.863281 399.195312 590 399.609375 C 599.140625 400.019531 607.859375 389.339844 616.585938 389.753906 C 625.308594 390.160156 636.523438 404.535156 636.523438 404.535156 Z M 358.25 404.535156 L 428.863281 404.535156 C 428.863281 404.535156 419.726562 399.195312 417.234375 394.269531 C 412.667969 396.734375 413.910156 399.195312 404.773438 399.609375 C 395.636719 400.019531 386.914062 389.339844 378.1875 389.753906 C 369.464844 390.160156 358.25 404.535156 358.25 404.535156 Z M 413.816406 382.988281 C 413.816406 382.988281 410.574219 376.171875 410.167969 367.75 C 397.1875 363.339844 386.640625 377.375 377.316406 377.773438 C 367.988281 378.175781 358.257812 367.75 358.257812 367.75 L 363.527344 382.585938 Z M 632.015625 382.585938 L 581.722656 382.988281 C 581.722656 382.988281 584.96875 376.171875 585.375 367.75 C 598.355469 363.339844 608.898438 377.375 618.226562 377.773438 C 627.554688 378.175781 637.285156 367.75 637.285156 367.75 Z M 484.789062 382.988281 L 510.339844 383 C 510.339844 383 510.746094 374.566406 497.359375 374.566406 C 483.976562 374.566406 484.789062 382.988281 484.789062 382.988281 Z M 484.789062 382.988281 "/>
</g>
</g>
<g clip-path="url(#clip9)" clip-rule="nonzero">
<g clip-path="url(#clip10)" clip-rule="nonzero">
<path style="fill:none;stroke-width:1.929;stroke-linecap:butt;stroke-linejoin:miter;stroke:rgb(3.137255%,23.921569%,61.176473%);stroke-opacity:1;stroke-miterlimit:4;" d="M 356.240078 270.789936 C 356.240078 270.789936 346.523585 260.46796 335.10618 260.227098 C 323.688775 259.986237 326.847278 265.027963 318.104072 265.745871 C 309.358527 266.468456 307.170971 260.46796 299.155391 260.706483 C 291.139811 260.945007 286.523717 265.745871 280.452371 265.989071 C 274.378686 266.229933 266.606427 259.986237 261.990333 260.227098 C 257.374239 260.46796 240.856435 267.429565 240.856435 267.429565 L 244.010259 270.310551 Z M 229.680012 257.100573 L 368.139447 257.579958 C 370.327004 254.460449 361.338136 247.017121 353.079235 246.296874 C 346.275584 246.537736 341.420847 253.258479 335.833806 253.49934 C 330.246764 253.740202 323.932096 246.537736 317.615089 246.778598 C 311.298082 247.019459 304.740093 253.49934 298.423086 253.49934 C 292.108419 253.49934 287.492324 246.537736 279.479084 246.537736 C 271.461164 246.537736 267.818357 254.219587 261.744672 253.740202 C 255.670986 253.260817 250.327266 246.058351 244.496903 246.058351 C 238.668879 246.058351 228.952386 254.698972 227.008152 254.219587 C 225.066257 253.737864 229.680012 257.100573 229.680012 257.100573 Z M 283.210797 243.860196 L 314.117339 243.841488 C 314.117339 243.841488 307.199047 233.292682 298.668747 234.019944 C 289.167501 234.265482 283.210797 243.857857 283.210797 243.860196 Z M 381.770145 243.118903 L 339.476613 243.118903 C 339.476613 243.118903 344.949013 239.922224 346.441698 236.973422 C 349.179068 238.448993 348.432725 239.922224 353.905125 240.170101 C 359.379864 240.41564 364.601923 234.022282 369.828662 234.270159 C 375.053061 234.513359 381.770145 243.118903 381.770145 243.118903 Z M 215.099424 243.118903 L 257.392956 243.118903 C 257.392956 243.118903 251.920556 239.922224 250.42787 236.973422 C 247.69284 238.448993 248.436843 239.922224 242.964444 240.170101 C 237.492044 240.41564 232.267645 234.022282 227.040907 234.270159 C 221.816508 234.513359 215.099424 243.118903 215.099424 243.118903 Z M 248.380692 230.219941 C 248.380692 230.219941 246.438797 226.139323 246.195476 221.097597 C 238.420878 218.457472 232.103871 226.85957 226.519169 227.098093 C 220.932127 227.338955 215.104103 221.097597 215.104103 221.097597 L 218.260267 229.97908 Z M 379.070209 229.97908 L 348.947444 230.219941 C 348.947444 230.219941 350.891679 226.139323 351.135 221.097597 C 358.909598 218.457472 365.224266 226.85957 370.811307 227.098093 C 376.398349 227.338955 382.226373 221.097597 382.226373 221.097597 Z M 290.88947 230.219941 L 306.193005 230.226957 C 306.193005 230.226957 306.436326 225.178215 298.418407 225.178215 C 290.402827 225.178215 290.88947 230.219941 290.88947 230.219941 Z M 290.88947 230.219941 " transform="matrix(1.6696,0,0,1.670435,-0.88,-1.579123)"/>
</g>
</g>
<g clip-path="url(#clip11)" clip-rule="nonzero">
<g clip-path="url(#clip12)" clip-rule="nonzero">
<path style=" stroke:none;fill-rule:nonzero;fill:rgb(80.784315%,6.666667%,14.901961%);fill-opacity:1;" d="M 471.398438 300.769531 L 524.53125 314.804688 L 524.53125 239.8125 C 500.195312 241.015625 479.917969 194.09375 522.910156 190.886719 C 480.730469 184.875 475.859375 195.699219 470.996094 207.332031 L 471.402344 300.769531 Z M 483.203125 368.554688 C 471.648438 387.480469 440.753906 381.871094 433.53125 368.65625 C 431.367188 368.050781 432.644531 287.140625 432.644531 287.140625 C 432.644531 287.140625 429.195312 285.585938 429.035156 283.097656 C 428.875 280.585938 433.730469 280.355469 433.730469 277.140625 C 433.730469 273.925781 428.773438 275.1875 428.675781 271.953125 C 428.695312 268.859375 433.964844 269.285156 433.730469 266.425781 C 433.449219 263.207031 427.828125 263.683594 427.589844 260.714844 C 427.40625 258.355469 431.609375 256.296875 432.777344 255.234375 L 428.855469 255.179688 L 420.007812 255.359375 C 413.71875 255.367188 420.113281 256.714844 420.023438 260.300781 C 419.964844 262.644531 416.832031 264.203125 416.554688 266.238281 C 416.453125 268.332031 421.03125 269.800781 421.089844 272.308594 C 421.144531 274.546875 416.589844 274.703125 416.753906 276.78125 C 417.039062 280.304688 420.785156 281.082031 420.730469 283.214844 C 420.671875 285.339844 415.6875 286.152344 415.671875 287.855469 C 415.847656 291.140625 416.394531 371.054688 416.394531 371.054688 C 424.339844 411.761719 470.203125 422.117188 483.203125 368.554688 Z M 513.441406 368.554688 C 524.996094 387.480469 555.886719 381.871094 563.113281 368.65625 C 565.277344 368.050781 563.996094 287.140625 563.996094 287.140625 C 563.996094 287.140625 567.449219 285.585938 567.609375 283.097656 C 567.765625 280.585938 563.21875 280.355469 563.21875 277.140625 C 563.21875 273.925781 567.871094 275.1875 567.96875 271.953125 C 567.949219 268.859375 563.085938 269.085938 563.320312 266.226562 C 563.597656 263.007812 567.417969 263.382812 567.632812 260.414062 C 567.816406 257.855469 565.234375 256.296875 564.066406 255.238281 L 567.789062 255.179688 L 576.636719 255.359375 C 582.925781 255.367188 576.53125 256.714844 576.621094 260.300781 C 576.679688 262.644531 579.808594 264.203125 580.089844 266.238281 C 580.1875 268.332031 575.609375 269.800781 575.554688 272.308594 C 575.503906 274.546875 580.050781 274.703125 579.886719 276.785156 C 579.601562 280.304688 575.855469 281.082031 575.914062 283.210938 C 575.96875 285.339844 580.957031 286.152344 580.96875 287.855469 C 580.796875 291.140625 580.25 371.054688 580.25 371.054688 C 572.300781 411.761719 526.441406 422.117188 513.441406 368.554688 Z M 513.441406 368.554688 "/>
</g>
</g>
<g clip-path="url(#clip13)" clip-rule="nonzero">
<g clip-path="url(#clip14)" clip-rule="nonzero">
<path style="fill:none;stroke-width:1.929;stroke-linecap:butt;stroke-linejoin:round;stroke:rgb(38.82353%,3.137255%,6.27451%);stroke-opacity:1;stroke-miterlimit:4;" d="M 282.869211 180.999972 L 314.692889 189.40207 L 314.692889 144.508257 C 300.11698 145.228503 287.971949 117.138886 313.721941 115.219008 C 288.458592 111.620113 285.541071 118.099994 282.628229 125.063937 L 282.871551 180.999972 Z M 289.93958 221.57932 C 283.018947 232.909174 264.514796 229.551141 260.188816 221.64012 C 258.89266 221.277659 259.65772 172.841075 259.65772 172.841075 C 259.65772 172.841075 257.591824 171.910366 257.495899 170.420765 C 257.399975 168.917134 260.308137 168.779164 260.308137 166.854609 C 260.308137 164.930054 257.339144 165.685378 257.280653 163.74913 C 257.292351 161.897068 260.448515 162.15196 260.308137 160.440205 C 260.139684 158.513312 256.772953 158.798604 256.630236 157.021372 C 256.520273 155.608941 259.037717 154.376571 259.737267 153.740509 L 257.388276 153.70777 L 252.089009 153.81534 C 248.322201 153.820017 252.152179 154.626786 252.098368 156.773495 C 252.063273 158.176573 250.186888 159.10962 250.020774 160.327959 C 249.959944 161.581375 252.701993 162.460637 252.737087 163.961931 C 252.769842 165.30187 250.041831 165.395408 250.140096 166.639471 C 250.310889 168.748764 252.554596 169.214118 252.521841 170.490919 C 252.486747 171.763043 249.501376 172.249443 249.492018 173.269013 C 249.597301 175.235661 249.92485 223.075937 249.92485 223.075937 C 254.683661 247.44506 282.153284 253.644325 289.93958 221.57932 Z M 308.050673 221.57932 C 314.971305 232.909174 333.473117 229.551141 337.801436 221.64012 C 339.097592 221.277659 338.330193 172.841075 338.330193 172.841075 C 338.330193 172.841075 340.398428 171.910366 340.494353 170.420765 C 340.587938 168.917134 337.864606 168.779164 337.864606 166.854609 C 337.864606 164.930054 340.651108 165.685378 340.709599 163.74913 C 340.697901 161.897068 337.785059 162.032699 337.925437 160.320944 C 338.091551 158.39405 340.379711 158.618543 340.508391 156.841311 C 340.618353 155.309617 339.071857 154.376571 338.372306 153.742847 L 340.601976 153.70777 L 345.901243 153.81534 C 349.668051 153.820017 345.838073 154.626786 345.891884 156.773495 C 345.926979 158.176573 347.801024 159.10962 347.969478 160.327959 C 348.027969 161.581375 345.28592 162.460637 345.253165 163.961931 C 345.22275 165.30187 347.946082 165.395408 347.847817 166.641809 C 347.677024 168.748764 345.433317 169.214118 345.468411 170.488581 C 345.501166 171.763043 348.488876 172.249443 348.495895 173.269013 C 348.392951 175.235661 348.065403 223.075937 348.065403 223.075937 C 343.304251 247.44506 315.836969 253.644325 308.050673 221.57932 Z M 308.050673 221.57932 " transform="matrix(1.6696,0,0,1.670435,-0.88,-1.579123)"/>
</g>
</g>
<g clip-path="url(#clip15)" clip-rule="nonzero">
<g clip-path="url(#clip16)" clip-rule="nonzero">
<path style=" stroke:none;fill-rule:nonzero;fill:rgb(38.82353%,3.137255%,6.27451%);fill-opacity:1;" d="M 469.378906 372.148438 C 473.839844 369.738281 477.894531 367.335938 480.734375 361.71875 L 463.296875 362.121094 C 463.296875 362.121094 455.1875 366.933594 451.128906 372.148438 Z M 525.746094 372.148438 C 521.285156 369.738281 517.230469 367.335938 514.390625 361.71875 L 531.828125 362.121094 C 531.828125 362.121094 539.9375 366.933594 543.992188 372.148438 Z M 437.742188 355.308594 L 557.789062 355.710938 "/>
</g>
</g>
<g clip-path="url(#clip17)" clip-rule="nonzero">
<g clip-path="url(#clip18)" clip-rule="nonzero">
<path style="fill:none;stroke-width:2.787;stroke-linecap:round;stroke-linejoin:miter;stroke:rgb(38.82353%,3.137255%,6.27451%);stroke-opacity:1;stroke-miterlimit:4;" d="M 281.659621 223.730706 C 284.331481 222.287875 286.760019 220.84972 288.460932 217.48701 L 278.016814 217.727872 C 278.016814 217.727872 273.159737 220.608858 270.728859 223.730706 Z M 315.420514 223.730706 C 312.748654 222.287875 310.320116 220.84972 308.619203 217.48701 L 319.063322 217.727872 C 319.063322 217.727872 323.920398 220.608858 326.348936 223.730706 Z M 262.71094 213.649592 L 334.612517 213.890454 " transform="matrix(1.6696,0,0,1.670435,-0.88,-1.579123)"/>
</g>
</g>
<g clip-path="url(#clip19)" clip-rule="nonzero">
<g clip-path="url(#clip20)" clip-rule="nonzero">
<path style=" stroke:none;fill-rule:nonzero;fill:rgb(38.82353%,3.137255%,6.27451%);fill-opacity:1;" d="M 443.417969 326.84375 L 457.613281 345.695312 M 443.417969 345.6875 L 458.832031 327.242188 M 451.53125 325.625 L 451.125 337.253906 "/>
</g>
</g>
<g clip-path="url(#clip21)" clip-rule="nonzero">
<g clip-path="url(#clip22)" clip-rule="nonzero">
<path style="fill:none;stroke-width:2.787;stroke-linecap:round;stroke-linejoin:miter;stroke:rgb(38.82353%,3.137255%,6.27451%);stroke-opacity:1;stroke-miterlimit:4;" d="M 266.110425 196.609213 L 274.612649 207.894635 M 266.110425 207.889958 L 275.342614 196.847736 M 270.969841 195.879612 L 270.72652 202.841216 " transform="matrix(1.6696,0,0,1.670435,-0.88,-1.579123)"/>
</g>
</g>
<g clip-path="url(#clip23)" clip-rule="nonzero">
<g clip-path="url(#clip24)" clip-rule="nonzero">
<path style=" stroke:none;fill-rule:nonzero;fill:rgb(38.82353%,3.137255%,6.27451%);fill-opacity:1;" d="M 466.128906 326.84375 L 480.324219 345.695312 M 466.128906 345.6875 L 481.542969 327.242188 M 474.246094 325.625 L 473.839844 337.253906 "/>
</g>
</g>
<g clip-path="url(#clip25)" clip-rule="nonzero">
<g clip-path="url(#clip26)" clip-rule="nonzero">
<path style="fill:none;stroke-width:2.787;stroke-linecap:round;stroke-linejoin:miter;stroke:rgb(38.82353%,3.137255%,6.27451%);stroke-opacity:1;stroke-miterlimit:4;" d="M 266.109047 196.609213 L 274.611271 207.894635 M 266.109047 207.889958 L 275.341236 196.847736 M 270.970803 195.879612 L 270.727481 202.841216 " transform="matrix(1.6696,0,0,1.670435,21.833239,-1.579123)"/>
</g>
</g>
<g clip-path="url(#clip27)" clip-rule="nonzero">
<g clip-path="url(#clip28)" clip-rule="nonzero">
<path style=" stroke:none;fill-rule:nonzero;fill:rgb(38.82353%,3.137255%,6.27451%);fill-opacity:1;" d="M 489.246094 326.84375 L 503.441406 345.695312 M 489.246094 345.6875 L 504.660156 327.242188 M 497.363281 325.625 L 496.957031 337.253906 "/>
</g>
</g>
<g clip-path="url(#clip29)" clip-rule="nonzero">
<g clip-path="url(#clip30)" clip-rule="nonzero">
<path style="fill:none;stroke-width:2.787;stroke-linecap:round;stroke-linejoin:miter;stroke:rgb(38.82353%,3.137255%,6.27451%);stroke-opacity:1;stroke-miterlimit:4;" d="M 266.10899 196.609213 L 274.611213 207.894635 M 266.10899 207.889958 L 275.341179 196.847736 M 270.970746 195.879612 L 270.727424 202.841216 " transform="matrix(1.6696,0,0,1.670435,44.950522,-1.579123)"/>
</g>
</g>
<g clip-path="url(#clip31)" clip-rule="nonzero">
<g clip-path="url(#clip32)" clip-rule="nonzero">
<path style=" stroke:none;fill-rule:nonzero;fill:rgb(38.82353%,3.137255%,6.27451%);fill-opacity:1;" d="M 513.175781 326.84375 L 527.371094 345.695312 M 513.175781 345.6875 L 528.589844 327.242188 M 521.289062 325.625 L 520.886719 337.253906 "/>
</g>
</g>
<g clip-path="url(#clip33)" clip-rule="nonzero">
<g clip-path="url(#clip34)" clip-rule="nonzero">
<path style="fill:none;stroke-width:2.787;stroke-linecap:round;stroke-linejoin:miter;stroke:rgb(38.82353%,3.137255%,6.27451%);stroke-opacity:1;stroke-miterlimit:4;" d="M 266.109576 196.609213 L 274.6118 207.894635 M 266.109576 207.889958 L 275.341765 196.847736 M 270.968992 195.879612 L 270.72801 202.841216 " transform="matrix(1.6696,0,0,1.670435,68.87923,-1.579123)"/>
</g>
</g>
<g clip-path="url(#clip35)" clip-rule="nonzero">
<g clip-path="url(#clip36)" clip-rule="nonzero">
<path style=" stroke:none;fill-rule:nonzero;fill:rgb(38.82353%,3.137255%,6.27451%);fill-opacity:1;" d="M 536.292969 326.84375 L 550.488281 345.695312 M 536.292969 345.6875 L 551.707031 327.242188 M 544.40625 325.625 L 544.003906 337.253906 "/>
</g>
</g>
<g clip-path="url(#clip37)" clip-rule="nonzero">
<g clip-path="url(#clip38)" clip-rule="nonzero">
<path style="fill:none;stroke-width:2.787;stroke-linecap:round;stroke-linejoin:miter;stroke:rgb(38.82353%,3.137255%,6.27451%);stroke-opacity:1;stroke-miterlimit:4;" d="M 266.109523 196.609213 L 274.611746 207.894635 M 266.109523 207.889958 L 275.341712 196.847736 M 270.968939 195.879612 L 270.727957 202.841216 " transform="matrix(1.6696,0,0,1.670435,91.996507,-1.579123)"/>
</g>
</g>
</g>
</svg>
