<?xml version="1.0" encoding="UTF-8"?>
<svg xmlns="http://www.w3.org/2000/svg" xmlns:xlink="http://www.w3.org/1999/xlink" width="1000px" height="667px" viewBox="0 0 1000 667" version="1.1">
<g id="surface1">
<rect x="0" y="0" width="1000" height="667" style="fill:rgb(100%,100%,100%);fill-opacity:1;stroke:none;"/>
<path style=" stroke:none;fill-rule:nonzero;fill:rgb(0.392157%,25.490198%,10.980392%);fill-opacity:1;" d="M 250 0 L 1000 0 L 1000 667 L 250 667 Z M 250 0 "/>
<path style=" stroke:none;fill-rule:nonzero;fill:rgb(100%,100%,100%);fill-opacity:1;" d="M 825 333.5 C 825 444.011719 735.457031 533.601562 625 533.601562 C 514.542969 533.601562 425 444.011719 425 333.5 C 425 222.988281 514.542969 133.398438 625 133.398438 C 735.457031 133.398438 825 222.988281 825 333.5 Z M 825 333.5 "/>
<path style=" stroke:none;fill-rule:nonzero;fill:rgb(0.392157%,25.490198%,10.980392%);fill-opacity:1;" d="M 859.457031 288.035156 C 859.457031 389.339844 777.378906 471.460938 676.125 471.460938 C 574.871094 471.460938 492.792969 389.339844 492.792969 288.035156 C 492.792969 186.734375 574.871094 104.609375 676.125 104.609375 C 777.378906 104.609375 859.457031 186.734375 859.457031 288.035156 Z M 859.457031 288.035156 "/>
<path style=" stroke:none;fill-rule:nonzero;fill:rgb(100%,100%,100%);fill-opacity:1;" d="M 697.925781 183.765625 L 782.175781 278.589844 L 658.332031 251.425781 L 774.5 200.566406 L 710.375 310.03125 Z M 697.925781 183.765625 "/>
</g>
</svg>
