<?xml version="1.0" encoding="UTF-8"?>
<svg xmlns="http://www.w3.org/2000/svg" xmlns:xlink="http://www.w3.org/1999/xlink" width="1000px" height="667px" viewBox="0 0 1000 667" version="1.1">
<g id="surface1">
<rect x="0" y="0" width="1000" height="667" style="fill:rgb(100%,0%,0%);fill-opacity:1;stroke:none;"/>
<path style=" stroke:none;fill-rule:nonzero;fill:rgb(0%,40.000001%,0%);fill-opacity:1;" d="M 0 0 L 400 0 L 400 667 L 0 667 Z M 0 0 "/>
<path style="fill-rule:evenodd;fill:rgb(100%,100%,0%);fill-opacity:1;stroke-width:0.573;stroke-linecap:round;stroke-linejoin:round;stroke:rgb(0%,0%,0%);stroke-opacity:1;stroke-miterlimit:4;" d="M 318.239062 261.867504 C 288.030469 260.958583 149.500781 174.486975 148.549219 160.717298 L 156.199219 147.961957 C 169.940625 167.927755 311.559375 252.021645 325.469531 249.041885 L 318.239062 261.865161 " transform="matrix(1.666667,0,0,1.6675,0,0)"/>
<path style="fill-rule:evenodd;fill:rgb(100%,100%,0%);fill-opacity:1;stroke-width:0.573;stroke-linecap:round;stroke-linejoin:round;stroke:rgb(0%,0%,0%);stroke-opacity:1;stroke-miterlimit:4;" d="M 154.589062 146.228448 C 151.879687 153.520896 190.739062 177.546383 237.492188 205.982946 C 284.245313 234.417166 324.557813 251.988849 327.546094 249.468235 C 327.728906 249.142616 329.015625 246.928879 328.898438 246.945277 C 328.338281 247.788606 326.974219 248.05566 324.848437 247.441904 C 312.215625 243.799194 279.271875 228.677849 238.471875 203.935532 C 197.674219 179.193216 162.178125 156.392897 156.663281 146.703992 C 156.278906 146.034014 156.004687 144.808846 156.060937 143.855416 L 155.927344 143.853073 L 154.753125 145.907515 L 154.591406 146.228448 Z M 318.949219 262.268085 C 318.438281 263.198088 317.482031 263.228542 315.667969 263.029423 C 304.36875 261.778486 270.079687 245.10401 229.507031 220.816154 C 182.296875 192.555285 143.30625 166.80566 147.536719 160.075431 L 148.6875 158.042073 L 148.914844 158.11235 C 145.110938 169.516023 225.8625 215.690592 230.615625 218.632871 C 277.340625 247.580116 316.732031 264.484164 320.217187 260.091829 L 318.949219 262.27277 Z M 318.949219 262.268085 " transform="matrix(1.666667,0,0,1.6675,0,0)"/>
<path style="fill-rule:evenodd;fill:rgb(100%,100%,0%);fill-opacity:1;stroke-width:0.573;stroke-linecap:round;stroke-linejoin:round;stroke:rgb(0%,0%,0%);stroke-opacity:1;stroke-miterlimit:4;" d="M 240.171094 169.056878 C 270.407812 168.817935 307.720312 164.926912 329.19375 156.367129 L 324.564844 148.852136 C 311.873437 155.875187 274.357031 160.494753 239.913281 161.185813 C 199.178906 160.811001 170.423438 157.018366 156.016406 147.350543 L 151.65 155.355135 C 178.134375 166.562031 205.272656 168.942091 240.171094 169.05922 " transform="matrix(1.666667,0,0,1.6675,0,0)"/>
<path style="fill-rule:evenodd;fill:rgb(100%,100%,0%);fill-opacity:1;stroke-width:0.573;stroke-linecap:round;stroke-linejoin:round;stroke:rgb(0%,0%,0%);stroke-opacity:1;stroke-miterlimit:4;" d="M 330.440625 156.538137 C 329.7 157.721139 315.696094 162.549194 295.066406 166.112256 C 281.078906 168.246346 262.832812 170.068872 240.063281 170.089955 C 218.430469 170.111038 200.758594 168.571964 187.378125 166.758808 C 165.721875 163.362069 154.546875 158.637088 150.414844 156.966829 C 150.808594 156.182065 151.064063 155.631559 151.44375 154.898332 C 163.338281 159.635026 174.567187 162.49063 187.725 164.514618 C 201.014062 166.313718 218.475 167.876218 240 167.855135 C 262.664062 167.831709 280.708594 165.870971 294.614062 163.802474 C 315.771094 160.389337 327.325781 155.997001 328.95 153.958958 L 330.442969 156.538137 Z M 326.378906 148.915386 C 324.086719 150.756653 312.660937 154.809314 292.560937 158.018647 C 279.145312 159.941904 262.089844 161.661357 240.295312 161.68244 C 219.592969 161.703523 202.675781 160.307346 189.810937 158.433283 C 169.396875 155.767429 158.53125 150.958115 154.614844 149.557253 C 155.003906 148.88259 155.4 148.214955 155.810156 147.542635 C 158.857031 149.077024 169.342969 153.33349 190.035937 156.266398 C 202.755469 158.067841 219.696094 159.412481 240.297656 159.391398 C 261.986719 159.370315 278.85 157.615723 292.178906 155.704179 C 312.384375 152.923538 323.257031 147.758152 324.907031 146.462706 L 326.38125 148.913043 L 326.38125 148.915386 Z M 140.880469 205.488662 C 159.478125 215.491473 200.784375 220.532702 239.873437 220.879404 C 275.465625 220.935626 321.832031 215.379029 339.171094 206.189093 L 338.692969 196.176912 C 333.269531 204.654704 283.582031 212.788137 239.489062 212.453148 C 195.396094 212.120502 154.450781 205.310626 140.800781 196.49316 L 140.880469 205.486319 " transform="matrix(1.666667,0,0,1.6675,0,0)"/>
<path style="fill-rule:evenodd;fill:rgb(100%,100%,0%);fill-opacity:1;stroke-width:0.573;stroke-linecap:round;stroke-linejoin:round;stroke:rgb(0%,0%,0%);stroke-opacity:1;stroke-miterlimit:4;" d="M 340.120313 204.047976 L 340.120313 206.435064 C 337.514062 209.550693 321.175781 214.261619 300.684375 217.578711 C 285.089063 219.968141 264.757031 221.771927 239.421094 221.771927 C 215.353125 221.771927 196.160156 220.057159 181.275 217.770802 C 157.74375 214.343609 142.694531 208.344265 139.673438 206.554535 L 139.6875 203.766867 C 148.7625 209.801349 173.348437 214.214768 181.603125 215.566436 C 196.392188 217.836394 215.472656 219.539449 239.421094 219.539449 C 264.6375 219.539449 284.854688 217.747376 300.351562 215.372001 C 315.053906 213.249625 335.995313 207.728167 340.117969 204.047976 Z M 340.129687 195.556128 L 340.129687 197.943216 C 337.525781 201.058846 321.185156 205.767429 300.69375 209.082178 C 285.098437 211.473951 264.766406 213.277736 239.432812 213.277736 C 215.3625 213.277736 196.169531 211.562969 181.284375 209.276612 C 157.753125 205.851762 142.703906 199.852418 139.685156 198.060345 L 139.696875 195.275019 C 148.771875 201.307159 173.357812 205.72292 181.614844 207.069903 C 196.401562 209.342204 215.482031 211.047601 239.430469 211.047601 C 264.646875 211.047601 284.864062 209.255528 300.360937 206.877811 C 315.063281 204.753092 336.007031 199.231634 340.129687 195.553786 Z M 239.789062 260.148051 C 197.017969 259.89271 160.36875 248.489037 152.629687 246.603261 L 158.273438 255.437125 C 171.942187 261.188156 207.696094 269.757309 240.199219 268.808564 C 272.704687 267.862163 301.110937 265.343891 321.128906 255.598763 L 326.915625 246.443966 C 313.272656 252.867316 266.847656 260.082459 239.789062 260.148051 " transform="matrix(1.666667,0,0,1.6675,0,0)"/>
<path style="fill-rule:evenodd;fill:rgb(100%,100%,0%);fill-opacity:1;stroke-width:0.55;stroke-linecap:round;stroke-linejoin:round;stroke:rgb(0%,0%,0%);stroke-opacity:1;stroke-miterlimit:4;" d="M 323.299219 253.549007 C 322.457812 254.839768 321.590625 256.116473 320.704687 257.379123 C 311.261719 260.707927 296.383594 264.203055 290.107031 265.222076 C 277.282031 267.864505 257.442187 269.815873 239.833594 269.822901 C 201.942187 269.270052 170.927344 261.851106 156.3375 255.526143 L 155.158594 253.502155 L 155.353125 253.19762 L 157.347656 253.970671 C 183.295312 263.25431 212.439844 266.957927 240.046875 267.62322 C 257.585156 267.684127 275.139844 265.613287 289.338281 263.073932 C 311.109375 258.71205 319.9125 255.42307 322.6125 253.93319 Z M 328.317187 245.272676 L 328.382812 245.349981 C 327.735937 246.441623 327.082031 247.530922 326.421094 248.613193 C 321.384375 250.412294 307.717969 254.411076 287.760938 257.201087 C 274.6125 258.99316 266.439844 260.72901 240.28125 261.235007 C 191.266406 259.988756 159.532031 250.405266 151.992188 248.041604 L 150.876563 245.898145 C 179.282813 253.312406 208.298438 258.489505 240.283594 259.018928 C 264.213281 258.508246 274.396875 256.746627 287.435156 254.968609 C 310.70625 251.349325 322.432031 247.519209 325.95 246.413512 C 325.903125 246.343235 325.851562 246.277642 325.797656 246.21205 L 328.319531 245.270334 Z M 328.317187 245.272676 " transform="matrix(1.666667,0,0,1.6675,0,0)"/>
<path style="fill-rule:evenodd;fill:rgb(100%,100%,0%);fill-opacity:1;stroke-width:0.573;stroke-linecap:round;stroke-linejoin:round;stroke:rgb(0%,0%,0%);stroke-opacity:1;stroke-miterlimit:4;" d="M 328.830469 197.587144 C 328.96875 225.723857 314.571094 250.974513 302.971875 262.113475 C 286.563281 277.872001 264.808594 288.00834 239.402344 288.476855 C 211.033594 288.996908 184.282031 270.502249 177.107812 262.375843 C 163.080469 246.49316 151.659375 226.318872 151.29375 199.133246 C 153.030469 168.424382 165.086719 147.034295 182.561719 132.365067 C 200.036719 117.69584 223.303125 110.550975 242.68125 111.063999 C 265.040625 111.651987 291.157031 122.61994 309.203906 144.394209 C 321.025781 158.660513 326.146875 174.142616 328.830469 197.587144 Z M 239.64375 101.246252 C 294.128906 101.246252 338.939062 145.584239 338.939062 199.948463 C 338.939062 254.312687 294.128906 298.653017 239.64375 298.653017 C 185.158594 298.653017 140.721094 254.31503 140.721094 199.948463 C 140.721094 145.584239 185.158594 101.246252 239.64375 101.246252 " transform="matrix(1.666667,0,0,1.6675,0,0)"/>
<path style="fill-rule:evenodd;fill:rgb(100%,100%,0%);fill-opacity:1;stroke-width:0.573;stroke-linecap:round;stroke-linejoin:round;stroke:rgb(0%,0%,0%);stroke-opacity:1;stroke-miterlimit:4;" d="M 239.910937 100.908921 C 294.442969 100.908921 338.920312 145.392148 338.920312 199.929723 C 338.920312 254.467298 294.442969 298.950525 239.910937 298.950525 C 185.376563 298.950525 140.899219 254.46964 140.899219 199.929723 C 140.899219 145.392148 185.376563 100.908921 239.910937 100.908921 Z M 143.078906 199.932065 C 143.078906 253.190592 186.813281 296.771927 239.910937 296.771927 C 293.00625 296.771927 336.742969 253.190592 336.742969 199.929723 C 336.742969 146.668853 293.00625 103.085176 239.910937 103.085176 C 186.813281 103.085176 143.078906 146.671196 143.078906 199.929723 Z M 143.078906 199.932065 " transform="matrix(1.666667,0,0,1.6675,0,0)"/>
<path style="fill-rule:evenodd;fill:rgb(100%,100%,0%);fill-opacity:1;stroke-width:0.573;stroke-linecap:round;stroke-linejoin:round;stroke:rgb(0%,0%,0%);stroke-opacity:1;stroke-miterlimit:4;" d="M 239.990625 109.1384 C 289.720312 109.1384 330.682031 149.957834 330.682031 199.843047 C 330.682031 249.725918 289.720312 290.545352 239.990625 290.545352 C 190.260937 290.545352 149.296875 249.725918 149.296875 199.843047 C 149.296875 149.957834 190.260937 109.1384 239.990625 109.1384 Z M 151.474219 199.843047 C 151.474219 248.526518 191.453906 288.364412 239.990625 288.364412 C 288.525 288.364412 328.504687 248.526518 328.504687 199.840705 C 328.504687 151.154891 288.527344 111.316998 239.990625 111.316998 C 191.453906 111.316998 151.474219 151.154891 151.474219 199.840705 Z M 151.474219 199.843047 " transform="matrix(1.666667,0,0,1.6675,0,0)"/>
<path style="fill-rule:evenodd;fill:rgb(100%,100%,0%);fill-opacity:1;stroke-width:0.573;stroke-linecap:round;stroke-linejoin:round;stroke:rgb(0%,0%,0%);stroke-opacity:1;stroke-miterlimit:4;" d="M 243.979687 100.50834 L 235.495312 100.50834 L 235.504687 299.468235 L 244.019531 299.468235 Z M 243.979687 100.50834 " transform="matrix(1.666667,0,0,1.6675,0,0)"/>
<path style="fill-rule:evenodd;fill:rgb(100%,100%,0%);fill-opacity:1;stroke-width:0.573;stroke-linecap:round;stroke-linejoin:round;stroke:rgb(0%,0%,0%);stroke-opacity:1;stroke-miterlimit:4;" d="M 243.128906 99.374531 L 245.289844 99.374531 L 245.308594 300.623126 L 243.147656 300.623126 L 243.13125 99.374531 Z M 234.710156 99.376874 L 236.885156 99.376874 L 236.8875 300.625469 L 234.710156 300.625469 Z M 234.710156 99.376874 " transform="matrix(1.666667,0,0,1.6675,0,0)"/>
<path style="fill-rule:evenodd;fill:rgb(100%,100%,0%);fill-opacity:1;stroke-width:0.573;stroke-linecap:round;stroke-linejoin:round;stroke:rgb(0%,0%,0%);stroke-opacity:1;stroke-miterlimit:4;" d="M 338.990625 203.762181 L 338.990625 196.408827 L 333 190.828804 L 298.999219 181.828617 L 250.000781 176.827211 L 190.999219 179.828055 L 148.999219 189.828523 L 140.519531 196.108977 L 140.519531 203.464674 L 162 193.827305 L 213 185.827399 L 262.000781 185.827399 L 298.000781 189.828523 L 322.999219 195.827867 Z M 338.990625 203.762181 " transform="matrix(1.666667,0,0,1.6675,0,0)"/>
<path style="fill-rule:evenodd;fill:rgb(100%,100%,0%);fill-opacity:1;stroke-width:0.573;stroke-linecap:round;stroke-linejoin:round;stroke:rgb(0%,0%,0%);stroke-opacity:1;stroke-miterlimit:4;" d="M 239.950781 184.597545 C 263.332031 184.555379 286.019531 186.813624 304.014844 190.318122 C 322.584375 194.031109 335.653125 198.6741 340.120313 203.888681 L 340.115625 206.470202 C 334.727344 199.981259 317.142187 195.223482 303.597656 192.503748 C 285.738281 189.029704 263.203125 186.785513 239.950781 186.830022 C 215.411719 186.874531 192.5625 189.19837 174.965625 192.63259 C 160.846875 195.434314 142.014844 201.000281 139.664062 206.488943 L 139.664062 203.802005 C 140.955469 200 154.978125 194.321589 174.646875 190.383714 C 192.377344 186.926068 215.26875 184.642054 239.950781 184.597545 Z M 239.960156 176.105697 C 263.34375 176.063531 286.028906 178.324119 304.024219 181.826274 C 322.59375 185.539262 335.6625 190.17991 340.129687 195.396833 L 340.125 197.978355 C 334.736719 191.489412 317.151563 186.731634 303.607031 184.0119 C 285.75 180.537856 263.214844 178.293666 239.960156 178.338175 C 215.421094 178.382684 192.684375 180.708864 175.085156 184.140742 C 161.458594 186.724606 141.860156 192.510776 139.673438 197.999438 L 139.673438 195.310157 C 140.964844 191.550319 155.271094 185.668103 174.658594 181.891867 C 192.386719 178.43422 215.278125 176.152549 239.960156 176.105697 Z M 239.479687 132.789074 C 276.328125 132.60401 308.470312 137.940405 323.175 145.474138 L 328.539844 154.753092 C 315.757031 147.863568 281.083594 140.702305 239.533594 141.772864 C 205.680469 141.981353 169.507031 145.499906 151.357031 155.184127 L 157.760156 144.473857 C 172.657031 136.750375 207.782813 132.831241 239.482031 132.789074 " transform="matrix(1.666667,0,0,1.6675,0,0)"/>
<path style="fill-rule:evenodd;fill:rgb(100%,100%,0%);fill-opacity:1;stroke-width:0.573;stroke-linecap:round;stroke-linejoin:round;stroke:rgb(0%,0%,0%);stroke-opacity:1;stroke-miterlimit:4;" d="M 239.969531 140.446964 C 260.985937 140.393085 281.294531 141.57843 297.445312 144.492597 C 312.4875 147.291979 326.83125 151.492223 328.882031 153.752811 L 330.471094 156.561563 C 325.483594 153.305379 313.071094 149.679067 297.133594 146.65714 C 281.128125 143.646927 260.833594 142.651331 239.932031 142.70521 C 216.210938 142.625562 197.782031 143.876499 181.964062 146.636057 C 165.236719 149.765742 153.630469 154.237725 150.766406 156.360101 L 152.325 153.392054 C 157.889062 150.552849 166.715625 147.130341 181.546875 144.462144 C 197.903906 141.473013 216.532031 140.578148 239.971875 140.446964 Z M 239.960156 131.964487 C 260.074219 131.910607 279.932813 133.032702 295.413281 135.813343 C 307.621875 138.191061 319.696875 141.901705 324.117188 145.204741 L 326.442187 148.898988 C 322.488281 144.50431 307.607812 140.339205 294.46875 138.005997 C 279.107812 135.35654 260.074219 134.309408 239.960156 134.140742 C 218.852344 134.201649 199.345313 135.49241 184.209375 138.249625 C 169.767188 140.99747 160.448437 144.251312 156.50625 146.79301 L 158.55 143.705491 C 163.992188 140.840517 172.783594 138.209801 183.853125 136.059314 C 199.103906 133.281016 218.730469 132.023051 239.9625 131.964487 Z M 289.150781 241.088831 C 270.932813 237.687406 252.682031 237.193122 239.932031 237.343047 C 178.525781 238.062219 158.688281 249.953148 156.267188 253.553692 L 151.678125 246.071496 C 167.313281 234.7381 200.751563 228.385026 240.264844 229.033921 C 260.784375 229.368909 278.489062 230.73229 293.385938 233.616004 L 289.148438 241.088831 " transform="matrix(1.666667,0,0,1.6675,0,0)"/>
<path style="fill-rule:evenodd;fill:rgb(100%,100%,0%);fill-opacity:1;stroke-width:0.55;stroke-linecap:round;stroke-linejoin:round;stroke:rgb(0%,0%,0%);stroke-opacity:1;stroke-miterlimit:4;" d="M 239.580469 236.288887 C 256.661719 236.541885 273.428906 237.247001 289.6125 240.266585 L 288.440625 242.335082 C 273.410156 239.561469 257.385938 238.497939 239.639062 238.586957 C 216.975 238.408921 194.053125 240.524269 174.096094 246.251874 C 167.800781 248.004123 157.375781 252.052099 156.314063 255.397301 L 155.146875 253.476387 C 155.482031 251.496908 161.782031 247.395052 173.561719 244.084989 C 196.417969 237.539824 217.8 236.436469 239.580469 236.286544 Z M 240.353906 227.691623 C 258.053906 228.021927 276.330469 228.841829 294.096094 232.360382 L 292.875 234.513212 C 276.832031 231.329648 261.503906 230.266117 240.459375 229.942841 C 217.725 229.985007 193.610156 231.606072 171.682031 237.980229 C 164.601562 240.04404 152.385937 244.501968 151.978125 248.029891 L 150.810937 245.966079 C 151.078125 242.759089 161.653125 238.577586 171.171094 235.808658 C 193.265625 229.385307 217.446094 227.733789 240.35625 227.691623 Z M 240.353906 227.691623 " transform="matrix(1.666667,0,0,1.6675,0,0)"/>
<path style="fill-rule:evenodd;fill:rgb(100%,100%,0%);fill-opacity:1;stroke-width:0.573;stroke-linecap:round;stroke-linejoin:round;stroke:rgb(0%,0%,0%);stroke-opacity:1;stroke-miterlimit:4;" d="M 327.578906 247.207646 L 320.200781 258.658171 L 298.999219 239.826181 L 244.000781 202.827493 L 181.999219 168.827305 L 149.810156 157.817185 L 156.670312 145.096983 L 159 143.827305 L 178.999219 148.826368 L 244.999219 182.826555 L 283.000781 206.826274 L 315 229.828055 L 328.000781 244.827586 Z M 327.578906 247.207646 " transform="matrix(1.666667,0,0,1.6675,0,0)"/>
<path style="fill-rule:evenodd;fill:rgb(100%,100%,0%);fill-opacity:1;stroke-width:0.573;stroke-linecap:round;stroke-linejoin:round;stroke:rgb(0%,0%,0%);stroke-opacity:1;stroke-miterlimit:4;" d="M 148.65 158.117035 C 154.296094 154.286919 195.789844 172.772208 239.205469 198.952867 C 282.50625 225.206147 323.882812 254.872564 320.146875 260.424475 L 318.91875 262.357103 L 318.353906 262.802193 C 318.475781 262.715517 319.096875 261.954179 318.295312 259.895052 C 316.448438 253.825431 287.1 230.404329 238.399219 201.000281 C 190.924219 172.690217 151.359375 155.629217 147.403125 160.506466 Z M 329.090625 247.046008 C 332.660156 239.992504 294.173437 211.00075 246.457031 182.772676 C 197.646094 155.106822 162.464062 138.823557 156.0375 143.67738 L 154.610156 146.277642 C 154.598437 146.42054 154.661719 146.099606 154.964062 145.867691 C 156.13125 144.848669 158.069531 144.916604 158.94375 144.900206 C 170.008594 145.066529 201.609375 159.609258 245.948437 185.028579 C 265.378125 196.343235 328.019531 236.51846 327.780469 247.819059 C 327.796875 248.788887 327.860156 248.988006 327.496875 249.468235 L 329.090625 247.046008 L 329.090625 247.043666 Z M 329.090625 247.046008 " transform="matrix(1.666667,0,0,1.6675,0,0)"/>
<path style="fill-rule:nonzero;fill:rgb(100%,100%,100%);fill-opacity:1;stroke-width:0.67;stroke-linecap:butt;stroke-linejoin:miter;stroke:rgb(0%,0%,0%);stroke-opacity:1;stroke-miterlimit:4;" d="M 180.6 211.011112 C 180.6 227.280321 187.263281 241.9964 198.05625 252.751179 C 208.872656 263.529384 223.567969 270.32989 239.866406 270.32989 C 256.246875 270.32989 271.113281 263.676966 281.882812 252.940928 C 292.65 242.207232 299.325 227.390422 299.327344 211.062648 L 299.325 211.062648 L 299.325 131.874118 L 180.585938 131.73122 L 180.597656 211.011112 Z M 180.6 211.011112 " transform="matrix(1.666667,0,0,1.6675,0,-0.28681)"/>
<path style="fill-rule:nonzero;fill:rgb(100%,0%,0%);fill-opacity:1;stroke-width:0.507;stroke-linecap:butt;stroke-linejoin:miter;stroke:rgb(0%,0%,0%);stroke-opacity:1;stroke-miterlimit:4;" d="M 182.819531 211.11887 L 182.819531 211.165722 C 182.819531 226.722787 189.260156 240.888361 199.596094 251.174624 C 209.948437 261.479627 224.210156 267.88658 239.810156 267.88658 C 255.489844 267.88658 269.721094 261.526479 280.03125 251.258957 C 290.339063 240.996119 296.728125 226.825861 296.730469 211.214916 L 296.728125 211.214916 L 296.728125 134.390047 L 182.8875 134.371307 L 182.817187 211.11887 M 273.839063 157.373087 L 273.84375 206.262705 L 273.803906 211.435118 C 273.803906 212.796157 273.721875 214.346944 273.5625 215.668158 C 272.639062 223.398668 269.083594 230.135924 263.817187 235.376273 C 257.653125 241.511487 249.147656 245.318177 239.770312 245.318177 C 230.444531 245.318177 222.13125 241.380302 215.941406 235.216978 C 209.592187 228.899043 205.910156 220.231502 205.910156 211.271138 L 205.898438 157.24893 L 273.839063 157.370744 L 273.841406 157.373087 Z M 273.839063 157.373087 " transform="matrix(1.666667,0,0,1.6675,0,-0.28681)"/>
<path style=" stroke:none;fill-rule:nonzero;fill:rgb(100%,100%,0%);fill-opacity:1;" d="M 316.984375 257.226562 C 317.207031 248.019531 323.738281 245.839844 323.785156 245.808594 C 323.832031 245.777344 330.835938 248.152344 330.8125 257.308594 L 316.984375 257.226562 "/>
<path style="fill-rule:nonzero;fill:rgb(100%,100%,0%);fill-opacity:1;stroke-width:0.5;stroke-linecap:butt;stroke-linejoin:miter;stroke:rgb(0%,0%,0%);stroke-opacity:1;stroke-miterlimit:4;" d="M 186.810937 147.688867 L 186.128906 154.034912 L 190.267969 154.044283 C 190.307812 148.794564 194.242969 147.920782 194.339062 147.941865 C 194.428125 147.934837 198.328125 149.101442 198.43125 154.044283 L 202.582031 154.044283 L 201.832031 147.649043 Z M 185.85 154.060681 L 202.795312 154.060681 C 203.153906 154.060681 203.446875 154.412067 203.446875 154.843102 C 203.446875 155.274136 203.153906 155.625523 202.795312 155.625523 L 185.85 155.625523 C 185.49375 155.625523 185.200781 155.274136 185.200781 154.843102 C 185.200781 154.412067 185.49375 154.060681 185.85 154.060681 Z M 185.85 154.060681 " transform="matrix(1.666667,0,0,1.6675,0,-0.28681)"/>
<path style="fill-rule:nonzero;fill:rgb(100%,100%,0%);fill-opacity:1;stroke-width:0.5;stroke-linecap:butt;stroke-linejoin:miter;stroke:rgb(0%,0%,0%);stroke-opacity:1;stroke-miterlimit:4;" d="M 192.009375 154.030227 C 192.028125 150.717821 194.271094 149.780789 194.285156 149.783132 C 194.285156 149.783132 196.626563 150.748274 196.642969 154.030227 L 192.009375 154.030227 M 186.210938 145.051123 L 202.455469 145.051123 C 202.797656 145.051123 203.078906 145.367371 203.078906 145.753897 C 203.078906 146.142765 202.797656 146.459013 202.455469 146.459013 L 186.210938 146.459013 C 185.86875 146.459013 185.5875 146.145107 185.5875 145.753897 C 185.5875 145.367371 185.866406 145.051123 186.210938 145.051123 Z M 186.550781 146.470726 L 202.0875 146.470726 C 202.415625 146.470726 202.682812 146.786974 202.682812 147.173499 C 202.682812 147.562367 202.415625 147.878615 202.0875 147.878615 L 186.550781 147.878615 C 186.222656 147.878615 185.955469 147.562367 185.955469 147.173499 C 185.955469 146.786974 186.222656 146.470726 186.550781 146.470726 Z M 191.571094 135.879927 L 192.796875 135.88227 L 192.796875 136.753709 L 193.692187 136.753709 L 193.692187 135.863529 L 194.948437 135.865872 L 194.948437 136.753709 L 195.846094 136.753709 L 195.846094 135.863529 L 197.104687 135.863529 L 197.102344 137.873462 C 197.102344 138.192052 196.846875 138.395857 196.553906 138.395857 L 192.142969 138.395857 C 191.845313 138.395857 191.573437 138.156914 191.571094 137.868777 L 191.56875 135.879927 Z M 196.190625 138.569208 L 196.467187 145.020669 L 192.164062 145.006614 L 192.45 138.55281 L 196.190625 138.569208 " transform="matrix(1.666667,0,0,1.6675,0,-0.28681)"/>
<path style="fill-rule:nonzero;fill:rgb(100%,100%,0%);fill-opacity:1;stroke-width:0.5;stroke-linecap:butt;stroke-linejoin:miter;stroke:rgb(0%,0%,0%);stroke-opacity:1;stroke-miterlimit:4;" d="M 190.940625 141.560681 L 191.071875 145.037067 L 186.946875 145.03941 L 187.061719 141.560681 Z M 190.940625 141.560681 " transform="matrix(1.666667,0,0,1.6675,0,-0.28681)"/>
<path style="fill-rule:nonzero;fill:rgb(100%,100%,0%);fill-opacity:1;stroke-width:0.5;stroke-linecap:butt;stroke-linejoin:miter;stroke:rgb(0%,0%,0%);stroke-opacity:1;stroke-miterlimit:4;" d="M 190.939437 141.560681 L 191.070687 145.037067 L 186.945687 145.03941 L 187.062875 141.560681 L 190.941781 141.560681 Z M 190.939437 141.560681 " transform="matrix(1.666667,0,0,1.6675,17.681667,-0.28681)"/>
<path style="fill-rule:nonzero;fill:rgb(100%,100%,0%);fill-opacity:1;stroke-width:0.5;stroke-linecap:butt;stroke-linejoin:miter;stroke:rgb(0%,0%,0%);stroke-opacity:1;stroke-miterlimit:4;" d="M 186.3 139.040066 L 187.5 139.042409 L 187.5 139.913848 L 188.376563 139.913848 L 188.376563 139.023668 L 189.607031 139.026011 L 189.607031 139.91619 L 190.485938 139.91619 L 190.485938 139.023668 L 191.716406 139.026011 L 191.714062 141.035943 C 191.714062 141.349849 191.465625 141.555996 191.177344 141.555996 L 186.860156 141.555996 C 186.571875 141.555996 186.302344 141.319395 186.3 141.028915 Z M 186.3 139.040066 " transform="matrix(1.666667,0,0,1.6675,0,-0.28681)"/>
<path style="fill-rule:nonzero;fill:rgb(100%,100%,0%);fill-opacity:1;stroke-width:0.5;stroke-linecap:butt;stroke-linejoin:miter;stroke:rgb(0%,0%,0%);stroke-opacity:1;stroke-miterlimit:4;" d="M 186.301156 139.040066 L 187.501156 139.042409 L 187.501156 139.913848 L 188.377719 139.913848 L 188.377719 139.023668 L 189.605844 139.026011 L 189.605844 139.91619 L 190.487094 139.91619 L 190.487094 139.023668 L 191.715219 139.026011 L 191.712875 141.035943 C 191.712875 141.349849 191.464437 141.555996 191.1785 141.555996 L 186.861312 141.555996 C 186.570687 141.555996 186.301156 141.319395 186.301156 141.028915 L 186.298812 139.040066 Z M 186.301156 139.040066 " transform="matrix(1.666667,0,0,1.6675,17.681667,-0.28681)"/>
<path style=" stroke:none;fill-rule:nonzero;fill:rgb(0%,0%,0%);fill-opacity:1;" d="M 323.167969 234.179688 C 323.125 233.136719 324.628906 233.125 324.609375 234.179688 L 324.609375 236.742188 L 323.167969 236.742188 L 323.167969 234.179688 "/>
<path style=" stroke:none;fill-rule:nonzero;fill:rgb(0%,0%,0%);fill-opacity:1;" d="M 314.285156 237.898438 C 314.277344 236.886719 315.679688 236.867188 315.660156 237.898438 L 315.660156 239.878906 L 314.285156 239.878906 L 314.285156 237.898438 "/>
<path style=" stroke:none;fill-rule:nonzero;fill:rgb(0%,0%,0%);fill-opacity:1;" d="M 332.019531 237.898438 C 332.011719 236.886719 333.414062 236.867188 333.394531 237.898438 L 333.394531 239.878906 L 332.019531 239.878906 L 332.019531 237.898438 "/>
<path style=" stroke:none;fill-rule:nonzero;fill:rgb(100%,100%,0%);fill-opacity:1;" d="M 316.984375 334.464844 C 317.207031 325.257812 323.738281 323.078125 323.785156 323.046875 C 323.832031 323.015625 330.835938 325.394531 330.8125 334.550781 L 316.984375 334.464844 "/>
<path style="fill-rule:nonzero;fill:rgb(100%,100%,0%);fill-opacity:1;stroke-width:0.5;stroke-linecap:butt;stroke-linejoin:miter;stroke:rgb(0%,0%,0%);stroke-opacity:1;stroke-miterlimit:4;" d="M 186.810937 147.691018 L 186.128906 154.034721 L 190.267969 154.044092 C 190.307812 148.794373 194.242969 147.920591 194.339062 147.941674 C 194.428125 147.936989 198.328125 149.101251 198.43125 154.044092 L 202.582031 154.044092 L 201.832031 147.648852 L 186.810937 147.688676 Z M 185.85 154.06049 L 202.795312 154.06049 C 203.153906 154.06049 203.446875 154.411877 203.446875 154.842911 C 203.446875 155.273946 203.153906 155.625332 202.795312 155.625332 L 185.85 155.625332 C 185.49375 155.625332 185.200781 155.273946 185.200781 154.842911 C 185.200781 154.411877 185.49375 154.06049 185.85 154.06049 Z M 185.85 154.06049 " transform="matrix(1.666667,0,0,1.6675,0,76.951789)"/>
<path style="fill-rule:nonzero;fill:rgb(100%,100%,0%);fill-opacity:1;stroke-width:0.5;stroke-linecap:butt;stroke-linejoin:miter;stroke:rgb(0%,0%,0%);stroke-opacity:1;stroke-miterlimit:4;" d="M 192.009375 154.030036 C 192.028125 150.71763 194.271094 149.780599 194.285156 149.782941 C 194.285156 149.782941 196.626563 150.748084 196.642969 154.030036 L 192.009375 154.030036 M 186.210938 145.050932 L 202.455469 145.050932 C 202.797656 145.050932 203.078906 145.36718 203.078906 145.756048 C 203.078906 146.142574 202.797656 146.458822 202.455469 146.458822 L 186.210938 146.458822 C 185.86875 146.458822 185.5875 146.144916 185.5875 145.756048 C 185.5875 145.36718 185.866406 145.050932 186.210938 145.050932 Z M 186.550781 146.470535 L 202.0875 146.470535 C 202.415625 146.470535 202.682812 146.786783 202.682812 147.173308 C 202.682812 147.562176 202.415625 147.878425 202.0875 147.878425 L 186.550781 147.878425 C 186.222656 147.878425 185.955469 147.562176 185.955469 147.173308 C 185.955469 146.786783 186.222656 146.470535 186.550781 146.470535 Z M 191.571094 135.879736 L 192.796875 135.882079 L 192.796875 136.753518 L 193.692187 136.753518 L 193.692187 135.863338 L 194.948437 135.868024 L 194.948437 136.753518 L 195.846094 136.753518 L 195.846094 135.863338 L 197.104687 135.863338 L 197.102344 137.873271 C 197.102344 138.191862 196.846875 138.395666 196.553906 138.395666 L 192.142969 138.395666 C 191.845313 138.395666 191.573437 138.159066 191.571094 137.868586 L 191.56875 135.882079 Z M 196.190625 138.569017 L 196.467187 145.020479 L 192.164062 145.006423 L 192.45 138.552619 L 196.190625 138.569017 " transform="matrix(1.666667,0,0,1.6675,0,76.951789)"/>
<path style="fill-rule:nonzero;fill:rgb(100%,100%,0%);fill-opacity:1;stroke-width:0.5;stroke-linecap:butt;stroke-linejoin:miter;stroke:rgb(0%,0%,0%);stroke-opacity:1;stroke-miterlimit:4;" d="M 190.940625 141.56049 L 191.071875 145.036877 L 186.946875 145.039219 L 187.061719 141.56049 Z M 190.940625 141.56049 " transform="matrix(1.666667,0,0,1.6675,0,76.951789)"/>
<path style="fill-rule:nonzero;fill:rgb(100%,100%,0%);fill-opacity:1;stroke-width:0.5;stroke-linecap:butt;stroke-linejoin:miter;stroke:rgb(0%,0%,0%);stroke-opacity:1;stroke-miterlimit:4;" d="M 190.939437 141.56049 L 191.070687 145.036877 L 186.945687 145.039219 L 187.062875 141.56049 L 190.941781 141.56049 Z M 190.939437 141.56049 " transform="matrix(1.666667,0,0,1.6675,17.681667,76.951789)"/>
<path style="fill-rule:nonzero;fill:rgb(100%,100%,0%);fill-opacity:1;stroke-width:0.5;stroke-linecap:butt;stroke-linejoin:miter;stroke:rgb(0%,0%,0%);stroke-opacity:1;stroke-miterlimit:4;" d="M 186.3 139.039875 L 187.5 139.042218 L 187.5 139.916 L 188.376563 139.916 L 188.376563 139.023477 L 189.607031 139.028162 L 189.607031 139.916 L 190.485938 139.916 L 190.485938 139.023477 L 191.716406 139.02582 L 191.714062 141.038095 C 191.714062 141.352 191.465625 141.555805 191.177344 141.555805 L 186.860156 141.555805 C 186.571875 141.555805 186.302344 141.319204 186.3 141.031067 Z M 186.3 139.039875 " transform="matrix(1.666667,0,0,1.6675,0,76.951789)"/>
<path style="fill-rule:nonzero;fill:rgb(100%,100%,0%);fill-opacity:1;stroke-width:0.5;stroke-linecap:butt;stroke-linejoin:miter;stroke:rgb(0%,0%,0%);stroke-opacity:1;stroke-miterlimit:4;" d="M 186.301156 139.039875 L 187.501156 139.042218 L 187.501156 139.916 L 188.377719 139.916 L 188.377719 139.023477 L 189.605844 139.028162 L 189.605844 139.916 L 190.487094 139.916 L 190.487094 139.023477 L 191.715219 139.02582 L 191.712875 141.038095 C 191.712875 141.352 191.464437 141.555805 191.1785 141.555805 L 186.861312 141.555805 C 186.570687 141.555805 186.301156 141.319204 186.301156 141.031067 L 186.298812 139.039875 Z M 186.301156 139.039875 " transform="matrix(1.666667,0,0,1.6675,17.681667,76.951789)"/>
<path style=" stroke:none;fill-rule:nonzero;fill:rgb(0%,0%,0%);fill-opacity:1;" d="M 323.167969 311.417969 C 323.125 310.375 324.628906 310.363281 324.609375 311.417969 L 324.609375 313.980469 L 323.167969 313.980469 L 323.167969 311.417969 "/>
<path style=" stroke:none;fill-rule:nonzero;fill:rgb(0%,0%,0%);fill-opacity:1;" d="M 314.285156 315.136719 C 314.277344 314.128906 315.679688 314.105469 315.660156 315.136719 L 315.660156 317.117188 L 314.285156 317.117188 L 314.285156 315.136719 "/>
<path style=" stroke:none;fill-rule:nonzero;fill:rgb(0%,0%,0%);fill-opacity:1;" d="M 332.019531 315.136719 C 332.011719 314.128906 333.414062 314.105469 333.394531 315.136719 L 333.394531 317.117188 L 332.019531 317.117188 L 332.019531 315.136719 "/>
<path style=" stroke:none;fill-rule:nonzero;fill:rgb(100%,100%,0%);fill-opacity:1;" d="M 347.085938 414.859375 C 340.714844 408.214844 343.769531 402.042969 343.777344 401.988281 C 343.789062 401.929688 350.410156 398.632812 356.890625 405.101562 L 347.085938 414.859375 "/>
<path style="fill-rule:nonzero;fill:rgb(100%,100%,0%);fill-opacity:1;stroke-width:0.5;stroke-linecap:butt;stroke-linejoin:miter;stroke:rgb(0%,0%,0%);stroke-opacity:1;stroke-miterlimit:4;" d="M 186.809842 147.690679 L 186.127965 154.035608 L 190.268474 154.042956 C 190.308864 148.794116 194.241835 147.920878 194.337867 147.941123 C 194.42901 147.936496 198.325482 149.101081 198.430243 154.043947 L 202.582377 154.043055 L 201.832873 147.649643 L 186.809853 147.687365 Z M 185.849526 154.061067 L 202.796063 154.058774 C 203.153944 154.060125 203.446051 154.414143 203.446302 154.843275 C 203.444891 155.274059 203.152134 155.624212 202.795905 155.624524 L 185.85103 155.625166 C 185.49315 155.623815 185.199369 155.274761 185.20078 154.843978 C 185.198878 154.413182 185.491646 154.059716 185.849526 154.061067 Z M 185.849526 154.061067 " transform="matrix(1.174349,-1.18325,1.182659,1.174936,-58.903127,458.457059)"/>
<path style="fill-rule:nonzero;fill:rgb(100%,100%,0%);fill-opacity:1;stroke-width:0.5;stroke-linecap:butt;stroke-linejoin:miter;stroke:rgb(0%,0%,0%);stroke-opacity:1;stroke-miterlimit:4;" d="M 192.009889 154.031305 C 192.027371 150.717613 194.272196 149.780011 194.283789 149.781711 C 194.283789 149.781711 196.626759 150.748233 196.644174 154.030576 L 192.009889 154.031305 M 186.210422 145.049007 L 202.45443 145.050689 C 202.797405 145.050327 203.078028 145.369507 203.07842 145.755562 C 203.078813 146.141616 202.797756 146.460333 202.456444 146.459044 L 186.210774 146.459013 C 185.867799 146.459375 185.587165 146.143508 185.586783 145.75414 C 185.586391 145.368086 185.867447 145.049369 186.210422 145.049007 Z M 186.54874 146.47023 L 202.088579 146.47091 C 202.414985 146.470486 202.682364 146.786302 202.684408 147.17402 C 202.683138 147.561724 202.415348 147.877177 202.088942 147.877602 L 186.550754 147.878585 C 186.222697 147.877346 185.955317 147.56153 185.954925 147.175475 C 185.954543 146.786107 186.222334 146.470655 186.54874 146.47023 Z M 191.568969 135.880187 L 192.796705 135.883166 L 192.795512 136.753023 L 193.693539 136.7531 L 193.691483 135.863348 L 194.949042 135.866439 L 194.949446 136.754527 L 195.845821 136.752941 L 195.845417 135.864852 L 197.102986 135.86463 L 197.101374 137.874418 C 197.101994 138.190884 196.847828 138.393721 196.552896 138.395921 L 192.142292 138.395837 C 191.847372 138.394724 191.573105 138.158412 191.570735 137.870106 L 191.567307 135.881838 Z M 196.191127 138.570184 L 196.466575 145.021454 L 192.163716 145.006866 L 192.449957 138.552746 L 196.191127 138.570184 " transform="matrix(1.174349,-1.18325,1.182659,1.174936,-58.903127,458.457059)"/>
<path style="fill-rule:nonzero;fill:rgb(100%,100%,0%);fill-opacity:1;stroke-width:0.5;stroke-linecap:butt;stroke-linejoin:miter;stroke:rgb(0%,0%,0%);stroke-opacity:1;stroke-miterlimit:4;" d="M 190.940631 141.56091 L 191.071734 145.037537 L 186.946109 145.03853 L 187.061883 141.561178 Z M 190.940631 141.56091 " transform="matrix(1.174349,-1.18325,1.182659,1.174936,-58.903127,458.457059)"/>
<path style="fill-rule:nonzero;fill:rgb(100%,100%,0%);fill-opacity:1;stroke-width:0.5;stroke-linecap:butt;stroke-linejoin:miter;stroke:rgb(0%,0%,0%);stroke-opacity:1;stroke-miterlimit:4;" d="M 190.940613 141.559543 L 191.070054 145.03782 L 186.94608 145.040476 L 187.061865 141.55981 Z M 190.940613 141.559543 " transform="matrix(1.174349,-1.18325,1.182659,1.174936,-46.444457,445.903957)"/>
<path style="fill-rule:nonzero;fill:rgb(100%,100%,0%);fill-opacity:1;stroke-width:0.5;stroke-linecap:butt;stroke-linejoin:miter;stroke:rgb(0%,0%,0%);stroke-opacity:1;stroke-miterlimit:4;" d="M 186.301351 139.03985 L 187.499263 139.042716 L 187.499722 139.914236 L 188.377867 139.914238 L 188.377473 139.022836 L 189.60686 139.027477 L 189.607264 139.915566 L 190.485409 139.915567 L 190.486677 139.022514 L 191.716075 139.023842 L 191.714451 141.036944 C 191.71342 141.351747 191.465881 141.554609 191.17924 141.555184 L 186.86142 141.55545 C 186.571464 141.556013 186.302162 141.321376 186.299804 141.029756 L 186.299689 139.041501 Z M 186.301351 139.03985 " transform="matrix(1.174349,-1.18325,1.182659,1.174936,-58.903127,458.457059)"/>
<path style="fill-rule:nonzero;fill:rgb(100%,100%,0%);fill-opacity:1;stroke-width:0.5;stroke-linecap:butt;stroke-linejoin:miter;stroke:rgb(0%,0%,0%);stroke-opacity:1;stroke-miterlimit:4;" d="M 186.299671 139.040133 L 187.500897 139.043012 L 187.499694 139.916182 L 188.376187 139.914521 L 188.375793 139.023119 L 189.606842 139.026109 L 189.605584 139.915849 L 190.487042 139.915863 L 190.484997 139.022797 L 191.716046 139.025788 L 191.712771 141.037227 C 191.713402 141.35038 191.464201 141.554892 191.17756 141.555467 L 186.861402 141.554083 C 186.571447 141.554645 186.302144 141.320008 186.301437 141.030052 Z M 186.299671 139.040133 " transform="matrix(1.174349,-1.18325,1.182659,1.174936,-46.444457,445.903957)"/>
<path style=" stroke:none;fill-rule:nonzero;fill:rgb(0%,0%,0%);fill-opacity:1;" d="M 335.097656 394.234375 C 334.324219 393.527344 335.375 392.449219 336.113281 393.207031 L 337.929688 395.011719 L 336.914062 396.039062 L 335.097656 394.234375 "/>
<path style=" stroke:none;fill-rule:nonzero;fill:rgb(0%,0%,0%);fill-opacity:1;" d="M 331.476562 403.160156 C 330.753906 402.449219 331.726562 401.441406 332.445312 402.183594 L 333.847656 403.578125 L 332.878906 404.554688 L 331.476562 403.160156 "/>
<path style=" stroke:none;fill-rule:nonzero;fill:rgb(0%,0%,0%);fill-opacity:1;" d="M 343.972656 390.570312 C 343.25 389.859375 344.222656 388.851562 344.941406 389.589844 L 346.34375 390.984375 L 345.375 391.964844 L 343.972656 390.570312 "/>
<path style=" stroke:none;fill-rule:nonzero;fill:rgb(100%,100%,0%);fill-opacity:1;" d="M 393.171875 257.226562 C 393.398438 248.019531 399.925781 245.839844 399.972656 245.808594 C 400.023438 245.777344 407.027344 248.152344 407.003906 257.308594 L 393.171875 257.226562 "/>
<path style="fill-rule:nonzero;fill:rgb(100%,100%,0%);fill-opacity:1;stroke-width:0.5;stroke-linecap:butt;stroke-linejoin:miter;stroke:rgb(0%,0%,0%);stroke-opacity:1;stroke-miterlimit:4;" d="M 186.809437 147.688867 L 186.127406 154.034912 L 190.268812 154.044283 C 190.308656 148.794564 194.243812 147.920782 194.337562 147.941865 C 194.428968 147.934837 198.326624 149.101442 198.432093 154.044283 L 202.582874 154.044283 L 201.832874 147.649043 Z M 185.850843 154.060681 L 202.796156 154.060681 C 203.152406 154.060681 203.445374 154.412067 203.445374 154.843102 C 203.445374 155.274136 203.152406 155.625523 202.796156 155.625523 L 185.850843 155.625523 C 185.492249 155.625523 185.199281 155.274136 185.199281 154.843102 C 185.199281 154.412067 185.492249 154.060681 185.850843 154.060681 Z M 185.850843 154.060681 " transform="matrix(1.666667,0,0,1.6675,76.190001,-0.28681)"/>
<path style="fill-rule:nonzero;fill:rgb(100%,100%,0%);fill-opacity:1;stroke-width:0.5;stroke-linecap:butt;stroke-linejoin:miter;stroke:rgb(0%,0%,0%);stroke-opacity:1;stroke-miterlimit:4;" d="M 192.010218 154.030227 C 192.028968 150.717821 194.271937 149.780789 194.283656 149.783132 C 194.283656 149.783132 196.625062 150.748274 196.643812 154.030227 L 192.010218 154.030227 M 186.209437 145.051123 L 202.453968 145.051123 C 202.796156 145.051123 203.077406 145.367371 203.077406 145.753897 C 203.077406 146.142765 202.798499 146.459013 202.453968 146.459013 L 186.209437 146.459013 C 185.867249 146.459013 185.585999 146.145107 185.585999 145.753897 C 185.585999 145.367371 185.867249 145.051123 186.209437 145.051123 Z M 186.549281 146.470726 L 202.088343 146.470726 C 202.414124 146.470726 202.683656 146.786974 202.683656 147.173499 C 202.683656 147.562367 202.414124 147.878615 202.088343 147.878615 L 186.549281 147.878615 C 186.223499 147.878615 185.953968 147.562367 185.953968 147.173499 C 185.953968 146.786974 186.223499 146.470726 186.549281 146.470726 Z M 191.569593 135.879927 L 192.797718 135.88227 L 192.797718 136.753709 L 193.693031 136.753709 L 193.693031 135.863529 L 194.949281 135.865872 L 194.949281 136.753709 L 195.846937 136.753709 L 195.846937 135.863529 L 197.103187 135.863529 L 197.100843 137.873462 C 197.100843 138.192052 196.847718 138.395857 196.552406 138.395857 L 192.143812 138.395857 C 191.846156 138.395857 191.571937 138.156914 191.571937 137.868777 L 191.567249 135.879927 Z M 196.189124 138.569208 L 196.468031 145.020669 L 192.164906 145.006614 L 192.448499 138.55281 L 196.189124 138.569208 " transform="matrix(1.666667,0,0,1.6675,76.190001,-0.28681)"/>
<path style="fill-rule:nonzero;fill:rgb(100%,100%,0%);fill-opacity:1;stroke-width:0.5;stroke-linecap:butt;stroke-linejoin:miter;stroke:rgb(0%,0%,0%);stroke-opacity:1;stroke-miterlimit:4;" d="M 190.939124 141.560681 L 191.070374 145.037067 L 186.945374 145.03941 L 187.062562 141.560681 L 190.941468 141.560681 Z M 190.939124 141.560681 " transform="matrix(1.666667,0,0,1.6675,76.190001,-0.28681)"/>
<path style="fill-rule:nonzero;fill:rgb(100%,100%,0%);fill-opacity:1;stroke-width:0.5;stroke-linecap:butt;stroke-linejoin:miter;stroke:rgb(0%,0%,0%);stroke-opacity:1;stroke-miterlimit:4;" d="M 190.94028 141.560681 L 191.07153 145.037067 L 186.94653 145.03941 L 187.061374 141.560681 Z M 190.94028 141.560681 " transform="matrix(1.666667,0,0,1.6675,93.871668,-0.28681)"/>
<path style="fill-rule:nonzero;fill:rgb(100%,100%,0%);fill-opacity:1;stroke-width:0.5;stroke-linecap:butt;stroke-linejoin:miter;stroke:rgb(0%,0%,0%);stroke-opacity:1;stroke-miterlimit:4;" d="M 186.300843 139.040066 L 187.500843 139.042409 L 187.500843 139.913848 L 188.377406 139.913848 L 188.377406 139.023668 L 189.607874 139.026011 L 189.607874 139.91619 L 190.486781 139.91619 L 190.486781 139.023668 L 191.714906 139.026011 L 191.714906 141.035943 C 191.714906 141.349849 191.464124 141.555996 191.178187 141.555996 L 186.860999 141.555996 C 186.570374 141.555996 186.300843 141.319395 186.300843 141.028915 L 186.298499 139.040066 Z M 186.300843 139.040066 " transform="matrix(1.666667,0,0,1.6675,76.190001,-0.28681)"/>
<path style="fill-rule:nonzero;fill:rgb(100%,100%,0%);fill-opacity:1;stroke-width:0.5;stroke-linecap:butt;stroke-linejoin:miter;stroke:rgb(0%,0%,0%);stroke-opacity:1;stroke-miterlimit:4;" d="M 186.299655 139.040066 L 187.499655 139.042409 L 187.499655 139.913848 L 188.376218 139.913848 L 188.376218 139.023668 L 189.606687 139.026011 L 189.606687 139.91619 L 190.485593 139.91619 L 190.485593 139.023668 L 191.716062 139.026011 L 191.713718 141.035943 C 191.713718 141.349849 191.46528 141.555996 191.176999 141.555996 L 186.862155 141.555996 C 186.57153 141.555996 186.301999 141.319395 186.301999 141.028915 Z M 186.299655 139.040066 " transform="matrix(1.666667,0,0,1.6675,93.871668,-0.28681)"/>
<path style=" stroke:none;fill-rule:nonzero;fill:rgb(0%,0%,0%);fill-opacity:1;" d="M 399.355469 234.179688 C 399.3125 233.136719 400.816406 233.125 400.800781 234.179688 L 400.800781 236.742188 L 399.355469 236.742188 L 399.355469 234.179688 "/>
<path style=" stroke:none;fill-rule:nonzero;fill:rgb(0%,0%,0%);fill-opacity:1;" d="M 390.472656 237.898438 C 390.46875 236.886719 391.867188 236.867188 391.851562 237.898438 L 391.851562 239.878906 L 390.472656 239.878906 L 390.472656 237.898438 "/>
<path style=" stroke:none;fill-rule:nonzero;fill:rgb(0%,0%,0%);fill-opacity:1;" d="M 408.207031 237.898438 C 408.203125 236.886719 409.601562 236.867188 409.585938 237.898438 L 409.585938 239.878906 L 408.207031 239.878906 L 408.207031 237.898438 "/>
<path style=" stroke:none;fill-rule:nonzero;fill:rgb(100%,100%,0%);fill-opacity:1;" d="M 482.671875 257.226562 C 482.445312 248.019531 475.917969 245.839844 475.871094 245.808594 C 475.820312 245.777344 468.816406 248.152344 468.839844 257.308594 L 482.671875 257.226562 "/>
<path style="fill-rule:nonzero;fill:rgb(100%,100%,0%);fill-opacity:1;stroke-width:0.5;stroke-linecap:butt;stroke-linejoin:miter;stroke:rgb(0%,0%,0%);stroke-opacity:1;stroke-miterlimit:4;" d="M 186.80918 147.688867 L 186.127148 154.034912 L 190.268555 154.044283 C 190.308398 148.794564 194.243555 147.920782 194.337305 147.941865 C 194.428711 147.934837 198.326367 149.101442 198.431836 154.044283 L 202.582617 154.044283 L 201.832617 147.649043 Z M 185.850586 154.060681 L 202.795898 154.060681 C 203.152148 154.060681 203.445117 154.412067 203.445117 154.843102 C 203.445117 155.274136 203.152148 155.625523 202.795898 155.625523 L 185.850586 155.625523 C 185.491992 155.625523 185.199023 155.274136 185.199023 154.843102 C 185.199023 154.412067 185.491992 154.060681 185.850586 154.060681 Z M 185.850586 154.060681 " transform="matrix(-1.666667,0,0,1.6675,799.65332,-0.28681)"/>
<path style="fill-rule:nonzero;fill:rgb(100%,100%,0%);fill-opacity:1;stroke-width:0.5;stroke-linecap:butt;stroke-linejoin:miter;stroke:rgb(0%,0%,0%);stroke-opacity:1;stroke-miterlimit:4;" d="M 192.009961 154.030227 C 192.028711 150.717821 194.27168 149.780789 194.283398 149.783132 C 194.283398 149.783132 196.627148 150.748274 196.643555 154.030227 L 192.009961 154.030227 M 186.20918 145.051123 L 202.456055 145.051123 C 202.795898 145.051123 203.077148 145.367371 203.077148 145.753897 C 203.077148 146.142765 202.798242 146.459013 202.456055 146.459013 L 186.20918 146.459013 C 185.866992 146.459013 185.588086 146.145107 185.588086 145.753897 C 185.588086 145.367371 185.866992 145.051123 186.20918 145.051123 Z M 186.549023 146.470726 L 202.088086 146.470726 C 202.413867 146.470726 202.683398 146.786974 202.683398 147.173499 C 202.683398 147.562367 202.413867 147.878615 202.088086 147.878615 L 186.549023 147.878615 C 186.223242 147.878615 185.956055 147.562367 185.956055 147.173499 C 185.956055 146.786974 186.223242 146.470726 186.549023 146.470726 Z M 191.569336 135.879927 L 192.797461 135.88227 L 192.797461 136.753709 L 193.692773 136.753709 L 193.692773 135.863529 L 194.949023 135.865872 L 194.949023 136.753709 L 195.84668 136.753709 L 195.84668 135.863529 L 197.10293 135.863529 L 197.10293 137.873462 C 197.10293 138.192052 196.847461 138.395857 196.552148 138.395857 L 192.143555 138.395857 C 191.845898 138.395857 191.574023 138.156914 191.57168 137.868777 L 191.566992 135.879927 Z M 196.188867 138.569208 L 196.467773 145.020669 L 192.164648 145.006614 L 192.448242 138.55281 L 196.188867 138.569208 " transform="matrix(-1.666667,0,0,1.6675,799.65332,-0.28681)"/>
<path style="fill-rule:nonzero;fill:rgb(100%,100%,0%);fill-opacity:1;stroke-width:0.5;stroke-linecap:butt;stroke-linejoin:miter;stroke:rgb(0%,0%,0%);stroke-opacity:1;stroke-miterlimit:4;" d="M 190.938867 141.560681 L 191.070117 145.037067 L 186.945117 145.03941 L 187.062305 141.560681 L 190.941211 141.560681 Z M 190.938867 141.560681 " transform="matrix(-1.666667,0,0,1.6675,799.65332,-0.28681)"/>
<path style="fill-rule:nonzero;fill:rgb(100%,100%,0%);fill-opacity:1;stroke-width:0.5;stroke-linecap:butt;stroke-linejoin:miter;stroke:rgb(0%,0%,0%);stroke-opacity:1;stroke-miterlimit:4;" d="M 190.940023 141.560681 L 191.071273 145.037067 L 186.946273 145.03941 L 187.061117 141.560681 Z M 190.940023 141.560681 " transform="matrix(-1.666667,0,0,1.6675,781.971653,-0.28681)"/>
<path style="fill-rule:nonzero;fill:rgb(100%,100%,0%);fill-opacity:1;stroke-width:0.5;stroke-linecap:butt;stroke-linejoin:miter;stroke:rgb(0%,0%,0%);stroke-opacity:1;stroke-miterlimit:4;" d="M 186.300586 139.040066 L 187.500586 139.042409 L 187.500586 139.913848 L 188.377148 139.913848 L 188.377148 139.023668 L 189.607617 139.026011 L 189.607617 139.91619 L 190.486523 139.91619 L 190.486523 139.023668 L 191.716992 139.026011 L 191.714648 141.035943 C 191.714648 141.349849 191.463867 141.555996 191.17793 141.555996 L 186.860742 141.555996 C 186.570117 141.555996 186.30293 141.319395 186.300586 141.028915 L 186.298242 139.040066 Z M 186.300586 139.040066 " transform="matrix(-1.666667,0,0,1.6675,799.65332,-0.28681)"/>
<path style="fill-rule:nonzero;fill:rgb(100%,100%,0%);fill-opacity:1;stroke-width:0.5;stroke-linecap:butt;stroke-linejoin:miter;stroke:rgb(0%,0%,0%);stroke-opacity:1;stroke-miterlimit:4;" d="M 186.299398 139.040066 L 187.499398 139.042409 L 187.499398 139.913848 L 188.375961 139.913848 L 188.375961 139.023668 L 189.606429 139.026011 L 189.606429 139.91619 L 190.485336 139.91619 L 190.485336 139.023668 L 191.715804 139.026011 L 191.713461 141.035943 C 191.713461 141.349849 191.465023 141.555996 191.179086 141.555996 L 186.861898 141.555996 C 186.571273 141.555996 186.301742 141.319395 186.301742 141.028915 Z M 186.299398 139.040066 " transform="matrix(-1.666667,0,0,1.6675,781.971653,-0.28681)"/>
<path style=" stroke:none;fill-rule:nonzero;fill:rgb(0%,0%,0%);fill-opacity:1;" d="M 476.488281 234.179688 C 476.53125 233.136719 475.023438 233.125 475.042969 234.179688 L 475.042969 236.742188 L 476.488281 236.742188 L 476.488281 234.179688 "/>
<path style=" stroke:none;fill-rule:nonzero;fill:rgb(0%,0%,0%);fill-opacity:1;" d="M 485.371094 237.898438 C 485.375 236.886719 483.976562 236.867188 483.992188 237.898438 L 483.992188 239.878906 L 485.371094 239.878906 L 485.371094 237.898438 "/>
<path style=" stroke:none;fill-rule:nonzero;fill:rgb(0%,0%,0%);fill-opacity:1;" d="M 467.636719 237.898438 C 467.640625 236.886719 466.238281 236.867188 466.257812 237.898438 L 466.257812 239.878906 L 467.636719 239.878906 L 467.636719 237.898438 "/>
<path style=" stroke:none;fill-rule:nonzero;fill:rgb(100%,100%,0%);fill-opacity:1;" d="M 482.671875 334.464844 C 482.445312 325.257812 475.917969 323.078125 475.871094 323.046875 C 475.820312 323.015625 468.816406 325.394531 468.839844 334.550781 L 482.671875 334.464844 "/>
<path style="fill-rule:nonzero;fill:rgb(100%,100%,0%);fill-opacity:1;stroke-width:0.5;stroke-linecap:butt;stroke-linejoin:miter;stroke:rgb(0%,0%,0%);stroke-opacity:1;stroke-miterlimit:4;" d="M 186.80918 147.691018 L 186.127148 154.034721 L 190.268555 154.044092 C 190.308398 148.794373 194.243555 147.920591 194.337305 147.941674 C 194.428711 147.936989 198.326367 149.101251 198.431836 154.044092 L 202.582617 154.044092 L 201.832617 147.648852 L 186.80918 147.688676 Z M 185.850586 154.06049 L 202.795898 154.06049 C 203.152148 154.06049 203.445117 154.411877 203.445117 154.842911 C 203.445117 155.273946 203.152148 155.625332 202.795898 155.625332 L 185.850586 155.625332 C 185.491992 155.625332 185.199023 155.273946 185.199023 154.842911 C 185.199023 154.411877 185.491992 154.06049 185.850586 154.06049 Z M 185.850586 154.06049 " transform="matrix(-1.666667,0,0,1.6675,799.65332,76.951789)"/>
<path style="fill-rule:nonzero;fill:rgb(100%,100%,0%);fill-opacity:1;stroke-width:0.5;stroke-linecap:butt;stroke-linejoin:miter;stroke:rgb(0%,0%,0%);stroke-opacity:1;stroke-miterlimit:4;" d="M 192.009961 154.030036 C 192.028711 150.71763 194.27168 149.780599 194.283398 149.782941 C 194.283398 149.782941 196.627148 150.748084 196.643555 154.030036 L 192.009961 154.030036 M 186.20918 145.050932 L 202.456055 145.050932 C 202.795898 145.050932 203.077148 145.36718 203.077148 145.756048 C 203.077148 146.142574 202.798242 146.458822 202.456055 146.458822 L 186.20918 146.458822 C 185.866992 146.458822 185.588086 146.144916 185.588086 145.756048 C 185.588086 145.36718 185.866992 145.050932 186.20918 145.050932 Z M 186.549023 146.470535 L 202.088086 146.470535 C 202.413867 146.470535 202.683398 146.786783 202.683398 147.173308 C 202.683398 147.562176 202.413867 147.878425 202.088086 147.878425 L 186.549023 147.878425 C 186.223242 147.878425 185.956055 147.562176 185.956055 147.173308 C 185.956055 146.786783 186.223242 146.470535 186.549023 146.470535 Z M 191.569336 135.879736 L 192.797461 135.882079 L 192.797461 136.753518 L 193.692773 136.753518 L 193.692773 135.863338 L 194.949023 135.868024 L 194.949023 136.753518 L 195.84668 136.753518 L 195.84668 135.863338 L 197.10293 135.863338 L 197.10293 137.873271 C 197.10293 138.191862 196.847461 138.395666 196.552148 138.395666 L 192.143555 138.395666 C 191.845898 138.395666 191.574023 138.159066 191.57168 137.868586 L 191.566992 135.882079 L 191.569336 135.882079 Z M 196.188867 138.569017 L 196.467773 145.020479 L 192.164648 145.006423 L 192.448242 138.552619 L 196.188867 138.569017 " transform="matrix(-1.666667,0,0,1.6675,799.65332,76.951789)"/>
<path style="fill-rule:nonzero;fill:rgb(100%,100%,0%);fill-opacity:1;stroke-width:0.5;stroke-linecap:butt;stroke-linejoin:miter;stroke:rgb(0%,0%,0%);stroke-opacity:1;stroke-miterlimit:4;" d="M 190.938867 141.56049 L 191.070117 145.036877 L 186.945117 145.039219 L 187.062305 141.56049 L 190.941211 141.56049 Z M 190.938867 141.56049 " transform="matrix(-1.666667,0,0,1.6675,799.65332,76.951789)"/>
<path style="fill-rule:nonzero;fill:rgb(100%,100%,0%);fill-opacity:1;stroke-width:0.5;stroke-linecap:butt;stroke-linejoin:miter;stroke:rgb(0%,0%,0%);stroke-opacity:1;stroke-miterlimit:4;" d="M 190.940023 141.56049 L 191.071273 145.036877 L 186.946273 145.039219 L 187.061117 141.56049 Z M 190.940023 141.56049 " transform="matrix(-1.666667,0,0,1.6675,781.971653,76.951789)"/>
<path style="fill-rule:nonzero;fill:rgb(100%,100%,0%);fill-opacity:1;stroke-width:0.5;stroke-linecap:butt;stroke-linejoin:miter;stroke:rgb(0%,0%,0%);stroke-opacity:1;stroke-miterlimit:4;" d="M 186.300586 139.039875 L 187.500586 139.042218 L 187.500586 139.916 L 188.377148 139.916 L 188.377148 139.023477 L 189.607617 139.028162 L 189.607617 139.916 L 190.486523 139.916 L 190.486523 139.023477 L 191.716992 139.02582 L 191.714648 141.038095 C 191.714648 141.352 191.463867 141.555805 191.17793 141.555805 L 186.860742 141.555805 C 186.570117 141.555805 186.30293 141.319204 186.300586 141.031067 L 186.298242 139.039875 Z M 186.300586 139.039875 " transform="matrix(-1.666667,0,0,1.6675,799.65332,76.951789)"/>
<path style="fill-rule:nonzero;fill:rgb(100%,100%,0%);fill-opacity:1;stroke-width:0.5;stroke-linecap:butt;stroke-linejoin:miter;stroke:rgb(0%,0%,0%);stroke-opacity:1;stroke-miterlimit:4;" d="M 186.299398 139.039875 L 187.499398 139.042218 L 187.499398 139.916 L 188.375961 139.916 L 188.375961 139.023477 L 189.606429 139.028162 L 189.606429 139.916 L 190.485336 139.916 L 190.485336 139.023477 L 191.715804 139.02582 L 191.713461 141.038095 C 191.713461 141.352 191.465023 141.555805 191.179086 141.555805 L 186.861898 141.555805 C 186.571273 141.555805 186.301742 141.319204 186.301742 141.031067 Z M 186.299398 139.039875 " transform="matrix(-1.666667,0,0,1.6675,781.971653,76.951789)"/>
<path style=" stroke:none;fill-rule:nonzero;fill:rgb(0%,0%,0%);fill-opacity:1;" d="M 476.488281 311.417969 C 476.53125 310.375 475.023438 310.363281 475.042969 311.417969 L 475.042969 313.980469 L 476.488281 313.980469 L 476.488281 311.417969 "/>
<path style=" stroke:none;fill-rule:nonzero;fill:rgb(0%,0%,0%);fill-opacity:1;" d="M 485.371094 315.136719 C 485.375 314.128906 483.976562 314.105469 483.992188 315.136719 L 483.992188 317.117188 L 485.371094 317.117188 L 485.371094 315.136719 "/>
<path style=" stroke:none;fill-rule:nonzero;fill:rgb(0%,0%,0%);fill-opacity:1;" d="M 467.636719 315.136719 C 467.640625 314.128906 466.238281 314.105469 466.257812 315.136719 L 466.257812 317.117188 L 467.636719 317.117188 L 467.636719 315.136719 "/>
<path style=" stroke:none;fill-rule:nonzero;fill:rgb(100%,100%,0%);fill-opacity:1;" d="M 452.570312 414.859375 C 458.941406 408.214844 455.886719 402.042969 455.875 401.988281 C 455.863281 401.929688 449.242188 398.632812 442.765625 405.101562 L 452.570312 414.859375 "/>
<path style="fill-rule:nonzero;fill:rgb(100%,100%,0%);fill-opacity:1;stroke-width:0.5;stroke-linecap:butt;stroke-linejoin:miter;stroke:rgb(0%,0%,0%);stroke-opacity:1;stroke-miterlimit:4;" d="M 186.810255 147.691095 L 186.128378 154.036024 L 190.268887 154.043372 C 190.307625 148.792868 194.242247 147.921293 194.33828 147.941539 C 194.427772 147.935249 198.325895 149.101497 198.430656 154.044363 L 202.58279 154.043471 L 201.833285 147.650058 L 186.810266 147.687781 Z M 185.849939 154.061483 L 202.796476 154.059189 C 203.152705 154.058877 203.444813 154.412896 203.446715 154.843691 C 203.445304 155.274474 203.152547 155.624628 202.796318 155.624939 L 185.849792 155.623919 C 185.493562 155.624231 185.199782 155.275177 185.201193 154.844394 C 185.19929 154.413598 185.492058 154.060131 185.849939 154.061483 Z M 185.849939 154.061483 " transform="matrix(-1.174349,-1.18325,-1.182659,1.174936,858.556447,458.457059)"/>
<path style="fill-rule:nonzero;fill:rgb(100%,100%,0%);fill-opacity:1;stroke-width:0.5;stroke-linecap:butt;stroke-linejoin:miter;stroke:rgb(0%,0%,0%);stroke-opacity:1;stroke-miterlimit:4;" d="M 192.008651 154.030058 C 192.027784 150.718029 194.272609 149.780426 194.284201 149.782127 C 194.284201 149.782127 196.625521 150.746986 196.644587 154.030992 L 192.008651 154.030058 M 186.210835 145.049423 L 202.454843 145.051105 C 202.797817 145.050743 203.076789 145.36826 203.077182 145.754314 C 203.079225 146.142032 202.796518 146.459085 202.455206 146.457797 L 186.211187 146.459429 C 185.868212 146.45979 185.587578 146.143924 185.587196 145.754556 C 185.586804 145.368502 185.86786 145.049785 186.210835 145.049423 Z M 186.549153 146.470646 L 202.08734 146.469663 C 202.415398 146.470901 202.682777 146.786718 202.683169 147.172772 C 202.683551 147.56214 202.415761 147.877593 202.089355 147.878018 L 186.549515 147.877337 C 186.223109 147.877762 185.95573 147.561945 185.953686 147.174228 C 185.954956 146.786523 186.222747 146.47107 186.549153 146.470646 Z M 191.569382 135.880603 L 192.795466 135.881918 L 192.795925 136.753439 L 193.6923 136.751852 L 193.691896 135.863764 L 194.949454 135.866855 L 194.948208 136.75328 L 195.846234 136.753357 L 195.84583 135.865268 L 197.103399 135.865046 L 197.101787 137.874834 C 197.102407 138.1913 196.84824 138.394137 196.553309 138.396337 L 192.142705 138.396253 C 191.846133 138.393477 191.573518 138.158827 191.569497 137.868858 L 191.56772 135.882254 Z M 196.189888 138.568937 L 196.466988 145.02187 L 192.164129 145.007282 L 192.45037 138.553161 L 196.189888 138.568937 " transform="matrix(-1.174349,-1.18325,-1.182659,1.174936,858.556447,458.457059)"/>
<path style="fill-rule:nonzero;fill:rgb(100%,100%,0%);fill-opacity:1;stroke-width:0.5;stroke-linecap:butt;stroke-linejoin:miter;stroke:rgb(0%,0%,0%);stroke-opacity:1;stroke-miterlimit:4;" d="M 190.939392 141.559663 L 191.072147 145.037953 L 186.946522 145.038946 L 187.060644 141.559931 L 190.941044 141.561326 Z M 190.939392 141.559663 " transform="matrix(-1.174349,-1.18325,-1.182659,1.174936,858.556447,458.457059)"/>
<path style="fill-rule:nonzero;fill:rgb(100%,100%,0%);fill-opacity:1;stroke-width:0.5;stroke-linecap:butt;stroke-linejoin:miter;stroke:rgb(0%,0%,0%);stroke-opacity:1;stroke-miterlimit:4;" d="M 190.941026 141.559958 L 191.070467 145.038236 L 186.944842 145.039229 L 187.062278 141.560226 Z M 190.941026 141.559958 " transform="matrix(-1.174349,-1.18325,-1.182659,1.174936,846.097778,445.903957)"/>
<path style="fill-rule:nonzero;fill:rgb(100%,100%,0%);fill-opacity:1;stroke-width:0.5;stroke-linecap:butt;stroke-linejoin:miter;stroke:rgb(0%,0%,0%);stroke-opacity:1;stroke-miterlimit:4;" d="M 186.300113 139.038603 L 187.499676 139.043132 L 187.500135 139.914652 L 188.37828 139.914654 L 188.377886 139.023251 L 189.607273 139.027893 L 189.607677 139.915982 L 190.485822 139.915983 L 190.48709 139.02293 L 191.716488 139.024258 L 191.714864 141.03736 C 191.713833 141.352163 191.466294 141.555025 191.178001 141.553936 L 186.860181 141.554203 C 186.570226 141.554765 186.300924 141.320128 186.300217 141.030172 L 186.29845 139.040254 Z M 186.300113 139.038603 " transform="matrix(-1.174349,-1.18325,-1.182659,1.174936,858.556447,458.457059)"/>
<path style="fill-rule:nonzero;fill:rgb(100%,100%,0%);fill-opacity:1;stroke-width:0.5;stroke-linecap:butt;stroke-linejoin:miter;stroke:rgb(0%,0%,0%);stroke-opacity:1;stroke-miterlimit:4;" d="M 186.300084 139.040549 L 187.499658 139.041764 L 187.498455 139.914935 L 188.376599 139.914937 L 188.376206 139.023534 L 189.607255 139.026525 L 189.605997 139.916265 L 190.485804 139.914616 L 190.48541 139.023213 L 191.714808 139.024541 L 191.713184 141.037643 C 191.713815 141.350796 191.464614 141.555308 191.177972 141.555882 L 186.861815 141.554499 C 186.571859 141.555061 186.302557 141.320424 186.30185 141.030467 Z M 186.300084 139.040549 " transform="matrix(-1.174349,-1.18325,-1.182659,1.174936,846.097778,445.903957)"/>
<path style=" stroke:none;fill-rule:nonzero;fill:rgb(0%,0%,0%);fill-opacity:1;" d="M 464.554688 394.234375 C 465.328125 393.527344 464.277344 392.449219 463.539062 393.207031 L 461.722656 395.011719 L 462.738281 396.039062 L 464.554688 394.234375 "/>
<path style=" stroke:none;fill-rule:nonzero;fill:rgb(0%,0%,0%);fill-opacity:1;" d="M 468.179688 403.160156 C 468.898438 402.449219 467.925781 401.441406 467.207031 402.183594 L 465.804688 403.578125 L 466.773438 404.554688 L 468.179688 403.160156 "/>
<path style=" stroke:none;fill-rule:nonzero;fill:rgb(0%,0%,0%);fill-opacity:1;" d="M 455.683594 390.570312 C 456.402344 389.859375 455.429688 388.851562 454.710938 389.589844 L 453.308594 390.984375 L 454.277344 391.964844 L 455.683594 390.570312 "/>
<path style=" stroke:none;fill-rule:nonzero;fill:rgb(0%,20%,60.000002%);fill-opacity:1;" d="M 387.726562 337.226562 L 387.726562 337.234375 C 387.726562 340.921875 389.144531 344.28125 391.414062 346.722656 C 393.6875 349.167969 396.820312 350.683594 400.25 350.683594 C 403.695312 350.683594 406.824219 349.175781 409.089844 346.742188 C 411.351562 344.308594 412.757812 340.953125 412.757812 337.25 L 412.757812 319.292969 L 387.773438 319.269531 L 387.726562 337.222656 "/>
<path style=" stroke:none;fill-rule:nonzero;fill:rgb(100%,100%,100%);fill-opacity:1;" d="M 395.933594 326.101562 C 395.933594 327.46875 394.824219 328.578125 393.457031 328.578125 C 392.089844 328.578125 390.980469 327.46875 390.980469 326.101562 C 390.980469 324.734375 392.089844 323.625 393.457031 323.625 C 394.824219 323.625 395.933594 324.734375 395.933594 326.101562 Z M 395.933594 326.101562 "/>
<path style=" stroke:none;fill-rule:nonzero;fill:rgb(100%,100%,100%);fill-opacity:1;" d="M 409.796875 326.113281 C 409.796875 327.480469 408.6875 328.589844 407.320312 328.589844 C 405.953125 328.589844 404.84375 327.480469 404.84375 326.113281 C 404.84375 324.746094 405.953125 323.636719 407.320312 323.636719 C 408.6875 323.636719 409.796875 324.746094 409.796875 326.113281 Z M 409.796875 326.113281 "/>
<path style=" stroke:none;fill-rule:nonzero;fill:rgb(100%,100%,100%);fill-opacity:1;" d="M 402.851562 332.769531 C 402.851562 334.140625 401.742188 335.25 400.375 335.25 C 399.007812 335.25 397.898438 334.140625 397.898438 332.769531 C 397.898438 331.402344 399.007812 330.292969 400.375 330.292969 C 401.742188 330.292969 402.851562 331.402344 402.851562 332.769531 Z M 402.851562 332.769531 "/>
<path style=" stroke:none;fill-rule:nonzero;fill:rgb(100%,100%,100%);fill-opacity:1;" d="M 395.933594 339.742188 C 395.933594 341.113281 394.824219 342.222656 393.457031 342.222656 C 392.089844 342.222656 390.980469 341.113281 390.980469 339.742188 C 390.980469 338.375 392.089844 337.265625 393.457031 337.265625 C 394.824219 337.265625 395.933594 338.375 395.933594 339.742188 Z M 395.933594 339.742188 "/>
<path style=" stroke:none;fill-rule:nonzero;fill:rgb(100%,100%,100%);fill-opacity:1;" d="M 409.78125 339.726562 C 409.78125 341.09375 408.671875 342.203125 407.304688 342.203125 C 405.9375 342.203125 404.828125 341.09375 404.828125 339.726562 C 404.828125 338.355469 405.9375 337.246094 407.304688 337.246094 C 408.671875 337.246094 409.78125 338.355469 409.78125 339.726562 Z M 409.78125 339.726562 "/>
<path style=" stroke:none;fill-rule:nonzero;fill:rgb(0%,20%,60.000002%);fill-opacity:1;" d="M 387.726562 293.84375 L 387.726562 293.851562 C 387.726562 297.539062 389.144531 300.898438 391.414062 303.339844 C 393.6875 305.785156 396.820312 307.304688 400.25 307.304688 C 403.695312 307.304688 406.824219 305.792969 409.089844 303.359375 C 411.351562 300.925781 412.757812 297.570312 412.757812 293.867188 L 412.757812 275.910156 L 387.773438 275.890625 L 387.726562 293.84375 "/>
<path style=" stroke:none;fill-rule:nonzero;fill:rgb(100%,100%,100%);fill-opacity:1;" d="M 395.933594 282.71875 C 395.933594 284.089844 394.824219 285.199219 393.457031 285.199219 C 392.089844 285.199219 390.980469 284.089844 390.980469 282.71875 C 390.980469 281.351562 392.089844 280.242188 393.457031 280.242188 C 394.824219 280.242188 395.933594 281.351562 395.933594 282.71875 Z M 395.933594 282.71875 "/>
<path style=" stroke:none;fill-rule:nonzero;fill:rgb(100%,100%,100%);fill-opacity:1;" d="M 409.796875 282.730469 C 409.796875 284.101562 408.6875 285.210938 407.320312 285.210938 C 405.953125 285.210938 404.84375 284.101562 404.84375 282.730469 C 404.84375 281.363281 405.953125 280.253906 407.320312 280.253906 C 408.6875 280.253906 409.796875 281.363281 409.796875 282.730469 Z M 409.796875 282.730469 "/>
<path style=" stroke:none;fill-rule:nonzero;fill:rgb(100%,100%,100%);fill-opacity:1;" d="M 402.851562 289.390625 C 402.851562 290.757812 401.742188 291.867188 400.375 291.867188 C 399.007812 291.867188 397.898438 290.757812 397.898438 289.390625 C 397.898438 288.019531 399.007812 286.910156 400.375 286.910156 C 401.742188 286.910156 402.851562 288.019531 402.851562 289.390625 Z M 402.851562 289.390625 "/>
<path style=" stroke:none;fill-rule:nonzero;fill:rgb(100%,100%,100%);fill-opacity:1;" d="M 395.933594 296.363281 C 395.933594 297.730469 394.824219 298.839844 393.457031 298.839844 C 392.089844 298.839844 390.980469 297.730469 390.980469 296.363281 C 390.980469 294.992188 392.089844 293.882812 393.457031 293.882812 C 394.824219 293.882812 395.933594 294.992188 395.933594 296.363281 Z M 395.933594 296.363281 "/>
<path style=" stroke:none;fill-rule:nonzero;fill:rgb(100%,100%,100%);fill-opacity:1;" d="M 409.78125 296.34375 C 409.78125 297.710938 408.671875 298.820312 407.304688 298.820312 C 405.9375 298.820312 404.828125 297.710938 404.828125 296.34375 C 404.828125 294.972656 405.9375 293.863281 407.304688 293.863281 C 408.671875 293.863281 409.78125 294.972656 409.78125 296.34375 Z M 409.78125 296.34375 "/>
<path style=" stroke:none;fill-rule:nonzero;fill:rgb(0%,20%,60.000002%);fill-opacity:1;" d="M 353.0625 337.226562 L 353.0625 337.234375 C 353.0625 340.921875 354.476562 344.28125 356.75 346.722656 C 359.023438 349.167969 362.15625 350.683594 365.585938 350.683594 C 369.03125 350.683594 372.160156 349.175781 374.421875 346.742188 C 376.6875 344.308594 378.09375 340.953125 378.09375 337.25 L 378.09375 319.292969 L 353.105469 319.269531 L 353.058594 337.222656 "/>
<path style=" stroke:none;fill-rule:nonzero;fill:rgb(100%,100%,100%);fill-opacity:1;" d="M 361.269531 326.101562 C 361.269531 327.46875 360.160156 328.578125 358.792969 328.578125 C 357.425781 328.578125 356.316406 327.46875 356.316406 326.101562 C 356.316406 324.734375 357.425781 323.625 358.792969 323.625 C 360.160156 323.625 361.269531 324.734375 361.269531 326.101562 Z M 361.269531 326.101562 "/>
<path style=" stroke:none;fill-rule:nonzero;fill:rgb(100%,100%,100%);fill-opacity:1;" d="M 375.132812 326.113281 C 375.132812 327.480469 374.023438 328.589844 372.65625 328.589844 C 371.289062 328.589844 370.179688 327.480469 370.179688 326.113281 C 370.179688 324.746094 371.289062 323.636719 372.65625 323.636719 C 374.023438 323.636719 375.132812 324.746094 375.132812 326.113281 Z M 375.132812 326.113281 "/>
<path style=" stroke:none;fill-rule:nonzero;fill:rgb(100%,100%,100%);fill-opacity:1;" d="M 368.1875 332.769531 C 368.1875 334.140625 367.078125 335.25 365.710938 335.25 C 364.34375 335.25 363.234375 334.140625 363.234375 332.769531 C 363.234375 331.402344 364.34375 330.292969 365.710938 330.292969 C 367.078125 330.292969 368.1875 331.402344 368.1875 332.769531 Z M 368.1875 332.769531 "/>
<path style=" stroke:none;fill-rule:nonzero;fill:rgb(100%,100%,100%);fill-opacity:1;" d="M 361.269531 339.742188 C 361.269531 341.113281 360.160156 342.222656 358.792969 342.222656 C 357.425781 342.222656 356.316406 341.113281 356.316406 339.742188 C 356.316406 338.375 357.425781 337.265625 358.792969 337.265625 C 360.160156 337.265625 361.269531 338.375 361.269531 339.742188 Z M 361.269531 339.742188 "/>
<path style=" stroke:none;fill-rule:nonzero;fill:rgb(100%,100%,100%);fill-opacity:1;" d="M 375.117188 339.726562 C 375.117188 341.09375 374.007812 342.203125 372.640625 342.203125 C 371.273438 342.203125 370.164062 341.09375 370.164062 339.726562 C 370.164062 338.355469 371.273438 337.246094 372.640625 337.246094 C 374.007812 337.246094 375.117188 338.355469 375.117188 339.726562 Z M 375.117188 339.726562 "/>
<path style=" stroke:none;fill-rule:nonzero;fill:rgb(0%,20%,60.000002%);fill-opacity:1;" d="M 422.300781 337.226562 L 422.300781 337.234375 C 422.300781 340.921875 423.71875 344.28125 425.988281 346.722656 C 428.261719 349.167969 431.398438 350.683594 434.824219 350.683594 C 438.269531 350.683594 441.398438 349.175781 443.664062 346.742188 C 445.925781 344.308594 447.332031 340.953125 447.332031 337.25 L 447.332031 319.292969 L 422.347656 319.269531 L 422.300781 337.222656 "/>
<path style=" stroke:none;fill-rule:nonzero;fill:rgb(100%,100%,100%);fill-opacity:1;" d="M 430.507812 326.101562 C 430.507812 327.46875 429.398438 328.578125 428.03125 328.578125 C 426.664062 328.578125 425.554688 327.46875 425.554688 326.101562 C 425.554688 324.734375 426.664062 323.625 428.03125 323.625 C 429.398438 323.625 430.507812 324.734375 430.507812 326.101562 Z M 430.507812 326.101562 "/>
<path style=" stroke:none;fill-rule:nonzero;fill:rgb(100%,100%,100%);fill-opacity:1;" d="M 444.371094 326.113281 C 444.371094 327.480469 443.261719 328.589844 441.894531 328.589844 C 440.527344 328.589844 439.417969 327.480469 439.417969 326.113281 C 439.417969 324.746094 440.527344 323.636719 441.894531 323.636719 C 443.261719 323.636719 444.371094 324.746094 444.371094 326.113281 Z M 444.371094 326.113281 "/>
<path style=" stroke:none;fill-rule:nonzero;fill:rgb(100%,100%,100%);fill-opacity:1;" d="M 437.425781 332.769531 C 437.425781 334.140625 436.316406 335.25 434.949219 335.25 C 433.582031 335.25 432.472656 334.140625 432.472656 332.769531 C 432.472656 331.402344 433.582031 330.292969 434.949219 330.292969 C 436.316406 330.292969 437.425781 331.402344 437.425781 332.769531 Z M 437.425781 332.769531 "/>
<path style=" stroke:none;fill-rule:nonzero;fill:rgb(100%,100%,100%);fill-opacity:1;" d="M 430.507812 339.742188 C 430.507812 341.113281 429.398438 342.222656 428.03125 342.222656 C 426.664062 342.222656 425.554688 341.113281 425.554688 339.742188 C 425.554688 338.375 426.664062 337.265625 428.03125 337.265625 C 429.398438 337.265625 430.507812 338.375 430.507812 339.742188 Z M 430.507812 339.742188 "/>
<path style=" stroke:none;fill-rule:nonzero;fill:rgb(100%,100%,100%);fill-opacity:1;" d="M 444.355469 339.726562 C 444.355469 341.09375 443.246094 342.203125 441.878906 342.203125 C 440.511719 342.203125 439.402344 341.09375 439.402344 339.726562 C 439.402344 338.355469 440.511719 337.246094 441.878906 337.246094 C 443.246094 337.246094 444.355469 338.355469 444.355469 339.726562 Z M 444.355469 339.726562 "/>
<path style=" stroke:none;fill-rule:nonzero;fill:rgb(0%,20%,60.000002%);fill-opacity:1;" d="M 387.726562 380.21875 L 387.726562 380.226562 C 387.726562 383.917969 389.144531 387.277344 391.414062 389.714844 C 393.6875 392.160156 396.820312 393.679688 400.25 393.679688 C 403.695312 393.679688 406.824219 392.171875 409.089844 389.738281 C 411.351562 387.304688 412.757812 383.945312 412.757812 380.242188 L 412.757812 362.289062 L 387.773438 362.265625 L 387.726562 380.21875 "/>
<path style=" stroke:none;fill-rule:nonzero;fill:rgb(100%,100%,100%);fill-opacity:1;" d="M 395.933594 369.097656 C 395.933594 370.464844 394.824219 371.574219 393.457031 371.574219 C 392.089844 371.574219 390.980469 370.464844 390.980469 369.097656 C 390.980469 367.726562 392.089844 366.617188 393.457031 366.617188 C 394.824219 366.617188 395.933594 367.726562 395.933594 369.097656 Z M 395.933594 369.097656 "/>
<path style=" stroke:none;fill-rule:nonzero;fill:rgb(100%,100%,100%);fill-opacity:1;" d="M 409.796875 369.109375 C 409.796875 370.476562 408.6875 371.585938 407.320312 371.585938 C 405.953125 371.585938 404.84375 370.476562 404.84375 369.109375 C 404.84375 367.738281 405.953125 366.628906 407.320312 366.628906 C 408.6875 366.628906 409.796875 367.738281 409.796875 369.109375 Z M 409.796875 369.109375 "/>
<path style=" stroke:none;fill-rule:nonzero;fill:rgb(100%,100%,100%);fill-opacity:1;" d="M 402.851562 375.765625 C 402.851562 377.132812 401.742188 378.242188 400.375 378.242188 C 399.007812 378.242188 397.898438 377.132812 397.898438 375.765625 C 397.898438 374.398438 399.007812 373.289062 400.375 373.289062 C 401.742188 373.289062 402.851562 374.398438 402.851562 375.765625 Z M 402.851562 375.765625 "/>
<path style=" stroke:none;fill-rule:nonzero;fill:rgb(100%,100%,100%);fill-opacity:1;" d="M 395.933594 382.738281 C 395.933594 384.105469 394.824219 385.214844 393.457031 385.214844 C 392.089844 385.214844 390.980469 384.105469 390.980469 382.738281 C 390.980469 381.371094 392.089844 380.261719 393.457031 380.261719 C 394.824219 380.261719 395.933594 381.371094 395.933594 382.738281 Z M 395.933594 382.738281 "/>
<path style=" stroke:none;fill-rule:nonzero;fill:rgb(100%,100%,100%);fill-opacity:1;" d="M 409.78125 382.71875 C 409.78125 384.089844 408.671875 385.199219 407.304688 385.199219 C 405.9375 385.199219 404.828125 384.089844 404.828125 382.71875 C 404.828125 381.351562 405.9375 380.242188 407.304688 380.242188 C 408.671875 380.242188 409.78125 381.351562 409.78125 382.71875 Z M 409.78125 382.71875 "/>
</g>
</svg>
