<?xml version="1.0" encoding="UTF-8"?>
<svg xmlns="http://www.w3.org/2000/svg" xmlns:xlink="http://www.w3.org/1999/xlink" width="1000px" height="667px" viewBox="0 0 1000 667" version="1.1">
<g id="surface1">
<rect x="0" y="0" width="1000" height="667" style="fill:rgb(0%,21.960784%,65.882355%);fill-opacity:1;stroke:none;"/>
<path style=" stroke:none;fill-rule:nonzero;fill:rgb(100%,100%,100%);fill-opacity:1;" d="M 0 0 L 1000 0 L 1000 444.667969 L 0 444.667969 Z M 0 0 "/>
<path style=" stroke:none;fill-rule:nonzero;fill:rgb(83.529413%,16.862746%,11.764706%);fill-opacity:1;" d="M 0 0 L 1000 0 L 1000 222.332031 L 0 222.332031 Z M 0 0 "/>
<path style="fill-rule:nonzero;fill:rgb(100%,100%,100%);fill-opacity:1;stroke-width:3.687;stroke-linecap:butt;stroke-linejoin:miter;stroke:rgb(0%,0%,0%);stroke-opacity:1;stroke-miterlimit:10;" d="M 683.657812 329.976808 C 683.667187 376.182065 646.21875 413.647981 600.014063 413.655711 C 553.809375 413.663442 516.346875 376.212987 516.342188 330.007731 C 516.342188 283.802474 553.795313 246.344289 600 246.344289 C 646.195312 246.344289 683.64375 283.783147 683.657812 329.976808 Z M 683.657812 329.976808 " transform="matrix(0.833333,0,0,1.010606,0,0)"/>
<path style="fill-rule:nonzero;fill:rgb(0%,60.784316%,22.745098%);fill-opacity:1;stroke-width:0.985;stroke-linecap:butt;stroke-linejoin:miter;stroke:rgb(0%,0%,0%);stroke-opacity:1;stroke-miterlimit:4;" d="M 640.448437 317.020474 C 638.41875 316.939304 638.404688 319.177286 638.404688 319.177286 C 638.404688 319.177286 638.475 318.516328 638.41875 319.266187 C 638.376562 320.012181 638.751562 321.821121 640.251562 321.968 C 641.83125 322.10715 642.360937 320.255692 642.370312 319.358953 C 642.370312 319.00335 642.257812 317.059127 640.448437 317.020474 " transform="matrix(0.833333,0,0,1.010606,0,0)"/>
<path style=" stroke:none;fill-rule:nonzero;fill:rgb(0%,0%,0%);fill-opacity:1;" d="M 456.261719 367.324219 L 455.664062 366.125 C 455.527344 365.878906 455.375 365.648438 455.199219 365.441406 C 455.082031 365.28125 454.917969 365.179688 454.738281 365.164062 C 454.550781 365.132812 454.359375 365.179688 454.195312 365.296875 C 453.976562 365.433594 453.828125 365.6875 453.789062 365.980469 C 453.78125 366.417969 453.894531 366.847656 454.113281 367.195312 L 454.71875 368.441406 Z M 462.164062 366.910156 L 454.578125 372.378906 L 452.265625 367.664062 C 451.914062 367 451.648438 366.277344 451.472656 365.519531 C 451.359375 364.976562 451.40625 364.40625 451.601562 363.902344 C 451.820312 363.339844 452.179688 362.875 452.628906 362.574219 C 453 362.296875 453.425781 362.140625 453.863281 362.113281 C 454.277344 362.113281 454.6875 362.238281 455.050781 362.480469 C 455.34375 362.695312 455.609375 362.957031 455.847656 363.257812 C 455.777344 362.949219 455.746094 362.632812 455.75 362.3125 C 455.800781 362.0625 455.863281 361.816406 455.9375 361.574219 C 456.011719 361.324219 456.097656 361.078125 456.195312 360.839844 L 457.730469 357.878906 L 459.292969 361.09375 L 457.730469 364.285156 C 457.570312 364.566406 457.457031 364.878906 457.394531 365.214844 C 457.386719 365.5 457.441406 365.78125 457.558594 366.03125 L 457.6875 366.289062 L 460.761719 364.074219 Z M 448.8125 359.421875 L 446.5 351.035156 L 448.285156 350.304688 L 449.734375 355.5625 L 451.070312 355.015625 L 449.707031 350.132812 L 451.421875 349.457031 L 452.769531 354.3125 L 454.410156 353.667969 L 452.929688 348.257812 L 454.824219 347.476562 L 457.175781 356.023438 Z M 449.0625 342.34375 L 448.96875 341.558594 C 448.96875 341.082031 448.828125 340.625 448.578125 340.261719 C 448.375 340.039062 448.101562 339.933594 447.828125 339.976562 C 447.574219 340.015625 447.339844 340.164062 447.171875 340.394531 C 446.972656 340.78125 446.914062 341.25 447.011719 341.691406 L 447.085938 342.632812 Z M 445.632812 346.171875 L 445.109375 340.722656 C 444.960938 339.765625 445.117188 338.78125 445.542969 337.957031 C 446.019531 337.265625 446.710938 336.84375 447.453125 336.792969 C 448.222656 336.628906 449.011719 336.871094 449.621094 337.457031 C 450.246094 338.222656 450.613281 339.238281 450.652344 340.308594 L 450.816406 342.101562 L 454.066406 341.644531 L 454.386719 344.945312 Z M 445.328125 325.3125 L 445.609375 322.03125 L 450.84375 322.710938 C 451.335938 322.78125 451.820312 322.945312 452.269531 323.199219 C 452.714844 323.441406 453.105469 323.816406 453.402344 324.285156 C 453.6875 324.699219 453.898438 325.179688 454.015625 325.699219 C 454.160156 326.464844 454.1875 327.257812 454.101562 328.035156 C 454.050781 328.597656 453.96875 329.15625 453.855469 329.707031 C 453.769531 330.234375 453.601562 330.738281 453.363281 331.191406 C 453.136719 331.601562 452.847656 331.953125 452.511719 332.230469 C 452.191406 332.507812 451.824219 332.695312 451.4375 332.789062 C 450.941406 332.921875 450.433594 332.957031 449.929688 332.902344 L 444.71875 332.234375 L 445 328.945312 L 450.34375 329.652344 C 450.75 329.75 451.171875 329.628906 451.496094 329.316406 C 451.820312 329.003906 452.015625 328.535156 452.03125 328.035156 C 452.097656 327.546875 451.996094 327.042969 451.75 326.648438 C 451.476562 326.269531 451.085938 326.042969 450.671875 326.019531 Z M 454.097656 316.328125 L 454.566406 314.746094 C 454.707031 314.351562 454.738281 313.914062 454.648438 313.496094 C 454.554688 313.210938 454.359375 312.996094 454.113281 312.910156 C 453.890625 312.796875 453.632812 312.824219 453.425781 312.980469 C 453.144531 313.242188 452.949219 313.609375 452.863281 314.023438 L 452.398438 315.613281 Z M 450.828125 314.9375 L 451.222656 313.59375 C 451.355469 313.246094 451.382812 312.851562 451.296875 312.484375 C 451.207031 312.214844 451.015625 312.019531 450.785156 311.957031 C 450.578125 311.851562 450.339844 311.863281 450.140625 311.992188 C 449.898438 312.214844 449.726562 312.535156 449.660156 312.894531 L 449.242188 314.277344 Z M 446.660156 316.710938 L 448.332031 310.863281 C 448.53125 310.03125 448.980469 309.320312 449.589844 308.871094 C 450.113281 308.53125 450.730469 308.476562 451.289062 308.71875 C 451.753906 308.921875 452.140625 309.3125 452.390625 309.824219 C 452.195312 310.234375 452.265625 310.761719 452.5625 311.074219 C 452.855469 311.386719 453.292969 311.402344 453.605469 311.109375 C 453.914062 310.816406 454.007812 310.296875 453.828125 309.871094 C 454.3125 309.675781 454.835938 309.691406 455.3125 309.914062 C 455.71875 310.082031 456.078125 310.371094 456.363281 310.761719 C 456.621094 311.15625 456.804688 311.617188 456.886719 312.109375 C 456.925781 312.542969 456.902344 312.980469 456.8125 313.402344 C 456.675781 314.15625 456.59375 314.632812 456.523438 314.851562 L 454.972656 320.238281 Z M 451.152344 303.011719 L 452.578125 300.191406 L 458.253906 304.363281 L 460.464844 299.960938 L 462.3125 301.332031 L 458.710938 308.550781 Z M 456.976562 292.496094 L 458.726562 289.96875 L 465.449219 296.863281 L 463.695312 299.390625 Z M 469.1875 286.75 L 471.480469 285.5625 C 471.761719 286.234375 471.925781 286.964844 471.964844 287.71875 C 471.988281 288.386719 471.878906 289.054688 471.640625 289.660156 C 471.3125 290.359375 470.878906 290.984375 470.363281 291.492188 C 469.757812 292.140625 469.046875 292.625 468.277344 292.921875 C 467.5625 293.121094 466.8125 293.070312 466.121094 292.769531 C 465.246094 292.363281 464.476562 291.675781 463.902344 290.78125 C 463.0625 289.691406 462.613281 288.242188 462.652344 286.75 C 463.0625 284.167969 464.742188 282.164062 466.875 281.703125 C 467.726562 281.644531 468.574219 281.929688 469.277344 282.519531 L 467.773438 284.886719 C 467.597656 284.730469 467.398438 284.613281 467.191406 284.542969 C 466.953125 284.457031 466.699219 284.453125 466.457031 284.53125 C 466.210938 284.597656 465.984375 284.738281 465.792969 284.9375 C 465.332031 285.359375 465.097656 286.046875 465.175781 286.742188 C 465.292969 287.453125 465.578125 288.113281 465.988281 288.644531 C 466.386719 289.34375 466.957031 289.878906 467.617188 290.167969 C 468.554688 290.3125 469.414062 289.523438 469.558594 288.394531 C 469.558594 287.816406 469.433594 287.25 469.195312 286.75 M 478.113281 280.328125 L 475.8125 277.4375 L 476.394531 281.402344 Z M 479.484375 282.082031 L 476.726562 283.785156 L 477.007812 285.597656 L 474.527344 287.125 L 473.476562 275.777344 L 476.128906 274.132812 L 483.082031 281.835938 L 480.546875 283.410156 Z M 490.199219 270.945312 L 490.875 276.714844 L 491.539062 276.597656 C 491.957031 276.5625 492.363281 276.417969 492.726562 276.167969 C 492.957031 275.9375 493.117188 275.617188 493.179688 275.261719 C 493.28125 274.648438 493.28125 274.015625 493.179688 273.398438 C 493.152344 272.582031 492.898438 271.800781 492.460938 271.183594 C 492 270.792969 491.421875 270.664062 490.875 270.828125 Z M 487.234375 269.011719 L 491.234375 268.3125 C 491.878906 268.175781 492.539062 268.195312 493.175781 268.371094 C 493.683594 268.539062 494.148438 268.847656 494.527344 269.28125 C 494.910156 269.726562 495.210938 270.261719 495.410156 270.855469 C 495.640625 271.5 495.792969 272.179688 495.867188 272.875 C 496.015625 273.757812 496.011719 274.664062 495.859375 275.542969 C 495.734375 276.175781 495.496094 276.769531 495.164062 277.277344 C 494.867188 277.730469 494.484375 278.085938 494.046875 278.316406 C 493.542969 278.597656 493.011719 278.796875 492.464844 278.902344 L 488.453125 279.585938 Z M 499.226562 266.941406 L 506.5 267.59375 L 506.363281 269.867188 L 501.8125 269.457031 L 501.703125 271.152344 L 505.929688 271.53125 L 505.777344 273.699219 L 501.574219 273.332031 L 501.453125 275.417969 L 506.136719 275.839844 L 505.988281 278.25 L 498.578125 277.585938 Z M 510.433594 268.1875 L 513.050781 269.070312 L 511.238281 276.839844 L 515.328125 278.238281 L 514.730469 280.753906 L 508.023438 278.453125 Z M 525.296875 280.042969 L 525.863281 280.484375 C 526.164062 280.777344 526.539062 280.941406 526.929688 280.945312 C 527.199219 280.921875 527.441406 280.738281 527.578125 280.457031 C 527.722656 280.1875 527.78125 279.867188 527.746094 279.550781 C 527.613281 279.128906 527.359375 278.78125 527.027344 278.578125 L 526.375 278.046875 Z M 525.082031 274.414062 L 528.867188 277.445312 C 529.566406 277.917969 530.089844 278.703125 530.316406 279.632812 C 530.464844 280.519531 530.285156 281.441406 529.832031 282.160156 C 529.441406 282.972656 528.78125 283.542969 528.019531 283.722656 C 527.136719 283.820312 526.257812 283.511719 525.558594 282.855469 L 524.316406 281.855469 L 522.527344 285.160156 L 520.242188 283.328125 Z M 534.640625 290.707031 L 536.175781 287.144531 L 533.261719 289.058594 Z M 533.710938 292.832031 L 531.5 290.195312 L 530.167969 291.082031 L 528.1875 288.722656 L 532.257812 286.441406 L 536.742188 283.929688 L 538.847656 286.457031 L 535.015625 296.898438 L 532.988281 294.460938 Z M 541.894531 297.464844 L 542.515625 298.65625 C 542.660156 298.894531 542.820312 299.117188 543 299.316406 C 543.128906 299.46875 543.296875 299.558594 543.476562 299.570312 C 543.660156 299.597656 543.847656 299.539062 544 299.414062 C 544.210938 299.265625 544.359375 299.007812 544.402344 298.714844 C 544.394531 298.28125 544.265625 297.863281 544.039062 297.527344 L 543.410156 296.308594 Z M 536.003906 298.097656 L 543.429688 292.347656 L 545.871094 296.984375 C 546.234375 297.636719 546.53125 298.34375 546.746094 299.085938 C 546.851562 299.628906 546.8125 300.195312 546.632812 300.703125 C 546.429688 301.269531 546.089844 301.742188 545.65625 302.0625 C 545.292969 302.371094 544.859375 302.546875 544.414062 302.570312 C 544.003906 302.582031 543.59375 302.480469 543.21875 302.273438 C 542.925781 302.054688 542.65625 301.800781 542.414062 301.511719 C 542.484375 301.816406 542.523438 302.128906 542.53125 302.445312 C 542.492188 302.695312 542.441406 302.941406 542.375 303.183594 C 542.308594 303.445312 542.222656 303.699219 542.113281 303.9375 L 540.675781 306.957031 L 539.007812 303.804688 L 540.507812 300.574219 C 540.667969 300.285156 540.769531 299.957031 540.804688 299.613281 C 540.824219 299.328125 540.757812 299.039062 540.617188 298.804688 L 540.5 298.5625 L 537.476562 300.894531 Z M 546.421875 312.492188 L 549.0625 310.070312 L 545.757812 310.292969 Z M 544.816406 313.921875 L 543.757812 310.382812 L 542.257812 310.511719 L 541.296875 307.339844 L 550.714844 307.476562 L 551.734375 310.847656 L 544.582031 318.277344 L 543.601562 315.015625 Z M 549.035156 325.285156 L 550.847656 324.996094 L 551.371094 330.089844 L 547.644531 330.636719 C 547.09375 329.921875 546.632812 329.113281 546.277344 328.234375 C 545.96875 327.410156 545.777344 326.53125 545.703125 325.632812 C 545.546875 324.574219 545.625 323.484375 545.925781 322.476562 C 546.195312 321.617188 546.679688 320.882812 547.304688 320.371094 C 548.007812 319.816406 548.804688 319.472656 549.636719 319.359375 C 550.503906 319.199219 551.386719 319.316406 552.203125 319.703125 C 552.953125 320.070312 553.59375 320.714844 554.027344 321.546875 C 554.441406 322.417969 554.6875 323.386719 554.746094 324.390625 C 554.882812 325.269531 554.882812 326.167969 554.753906 327.046875 C 554.660156 327.640625 554.425781 328.1875 554.085938 328.625 C 553.730469 329.097656 553.285156 329.464844 552.792969 329.695312 L 552 326.613281 C 552.296875 326.457031 552.539062 326.179688 552.6875 325.828125 C 552.828125 325.445312 552.878906 325.023438 552.828125 324.609375 C 552.773438 323.953125 552.484375 323.355469 552.039062 322.980469 C 551.414062 322.582031 550.695312 322.460938 550.007812 322.636719 C 549.285156 322.671875 548.59375 323.003906 548.046875 323.582031 C 547.691406 324.121094 547.542969 324.816406 547.628906 325.496094 C 547.667969 325.847656 547.746094 326.191406 547.867188 326.511719 C 548.027344 326.898438 548.214844 327.265625 548.429688 327.609375 L 549.265625 327.472656 Z M 554.613281 341.3125 L 554.300781 344.582031 L 549.089844 343.875 C 548.59375 343.808594 548.105469 343.640625 547.652344 343.378906 C 547.214844 343.125 546.828125 342.753906 546.527344 342.292969 C 546.246094 341.882812 546.042969 341.40625 545.925781 340.894531 C 545.792969 340.121094 545.765625 339.324219 545.851562 338.542969 C 545.910156 338.03125 545.992188 337.464844 546.09375 336.863281 C 546.1875 336.335938 546.363281 335.832031 546.609375 335.382812 C 546.835938 334.984375 547.121094 334.636719 547.449219 334.355469 C 547.777344 334.089844 548.144531 333.902344 548.535156 333.808594 C 549.027344 333.675781 549.539062 333.640625 550.046875 333.707031 L 555.261719 334.429688 L 554.953125 337.695312 L 549.621094 336.949219 C 549.207031 336.863281 548.785156 336.980469 548.449219 337.28125 C 548.136719 337.601562 547.953125 338.0625 547.929688 338.554688 C 547.859375 339.042969 547.957031 339.542969 548.203125 339.941406 C 548.476562 340.316406 548.855469 340.550781 549.269531 340.59375 Z M 546.5 353.46875 L 549.820312 353.613281 L 547.140625 351.242188 Z M 544.53125 353.347656 L 545.535156 349.804688 L 544.304688 348.738281 L 545.222656 345.546875 L 552.464844 352.847656 L 551.464844 356.261719 L 542.082031 356.542969 L 543.003906 353.269531 Z M 549.394531 363.183594 L 547.863281 366.347656 L 544.390625 366.359375 L 546.054688 370.058594 L 544.53125 373.179688 L 541.851562 366.449219 L 538.675781 364.179688 L 540.070312 361.320312 L 543.246094 363.609375 Z M 549.394531 363.183594 "/>
<path style="fill:none;stroke-width:1.475;stroke-linecap:butt;stroke-linejoin:miter;stroke:rgb(0%,0%,0%);stroke-opacity:1;stroke-miterlimit:10;" d="M 670.007812 330 C 670.017187 368.679606 638.671875 400.038418 599.990625 400.046149 C 561.314062 400.050014 529.954687 368.698932 529.954687 330.019326 C 529.954687 291.343586 561.309375 259.988638 599.985937 259.988638 C 638.653125 259.992504 669.998438 291.33199 670.007812 330 Z M 670.007812 330 " transform="matrix(0.833333,0,0,1.010606,0,0)"/>
<path style="fill:none;stroke-width:1.475;stroke-linecap:butt;stroke-linejoin:miter;stroke:rgb(0%,0%,0%);stroke-opacity:1;stroke-miterlimit:10;" d="M 652.092188 329.752624 C 652.101562 358.537177 628.771875 381.875586 599.985937 381.879451 C 571.204687 381.883316 547.865625 358.552638 547.865625 329.768085 C 547.865625 300.983532 571.2 277.652853 599.985937 277.652853 C 628.7625 277.648988 652.092188 300.975801 652.092188 329.752624 Z M 652.092188 329.752624 " transform="matrix(0.833333,0,0,1.010606,0,0)"/>
<path style="fill-rule:nonzero;fill:rgb(99.607843%,87.450981%,0%);fill-opacity:1;stroke-width:0.602;stroke-linecap:butt;stroke-linejoin:miter;stroke:rgb(0%,0%,0%);stroke-opacity:1;stroke-miterlimit:4;" d="M 599.990625 311.013868 L 604.36875 323.541159 L 617.610937 323.842649 L 607.054688 331.866918 L 610.89375 344.568146 L 599.995312 337.019303 L 589.0875 344.568146 L 592.903125 331.866918 L 582.332812 323.842649 L 595.603125 323.541159 Z M 599.990625 311.013868 " transform="matrix(0.833333,0,0,1.010606,0,0)"/>
<path style="fill-rule:nonzero;fill:rgb(0%,60.784316%,22.745098%);fill-opacity:1;stroke-width:0.754;stroke-linecap:butt;stroke-linejoin:miter;stroke:rgb(0%,0%,0%);stroke-opacity:1;stroke-miterlimit:4;" d="M 624.051562 365.730416 C 623.19375 366.086019 622.289062 366.302474 621.360937 366.375914 C 620.8875 366.437758 619.017187 366.457084 618.229687 366.488006 C 617.79375 366.518928 616.954687 366.638751 616.51875 366.638751 C 612.69375 366.201977 622.739062 366.263821 624.051562 365.726551 M 614.020312 362.769631 C 614.26875 362.321261 615.520312 359.526682 615.975 358.734305 C 616.434375 357.941927 617.475 355.877881 618.098437 355.01593 C 618.417187 354.548234 619.664062 353.191529 619.964062 353.798374 C 617.789062 355.676888 616.073437 358.962355 615.164062 361.169415 C 614.83125 361.783991 614.465625 362.383105 614.0625 362.955163 C 613.809375 363.272114 613.9125 363.867363 613.514063 363.917612 C 613.0875 363.971725 613.382812 364.045165 613.382812 364.045165 C 613.382812 364.045165 613.748438 363.237327 614.020312 362.765766 Z M 628.453125 364.903251 C 627.50625 364.760237 626.56875 364.547648 625.65 364.265484 C 624.229687 363.840306 622.748438 363.635448 621.2625 363.66637 C 619.8375 363.732079 618.435938 364.052895 617.128125 364.613357 C 616.214062 364.910982 615.2625 365.077188 614.301562 365.111975 C 614.301562 365.111975 613.401562 365.25499 613.823437 365.046266 C 614.221875 364.845273 615.623438 363.755271 615.623438 363.755271 L 616.523438 362.522254 C 616.78125 362.448815 621.360937 356.442209 620.859375 354.830397 C 621.5625 353.647629 622.382812 351.533335 622.073437 351.158405 C 620.545313 351.486952 619.082812 352.086066 617.760937 352.924827 C 616.926562 353.833162 616.326563 354.938624 616.021875 356.136853 C 615.76875 357.029727 614.45625 357.767991 614.45625 357.767991 C 613.3875 358.537177 612.614062 360.968422 612.248438 362.959028 C 611.882812 364.922578 607.040625 366.01258 607.040625 366.01258 C 607.040625 366.01258 605.7 366.511198 606.890625 366.893858 C 607.092188 366.951837 607.626562 367.848576 608.053125 367.864037 C 608.648438 367.933611 611.653125 366.646481 612.117188 366.746978 C 613.139063 366.978893 614.146875 367.253326 615.145312 367.574143 C 616.05 367.995455 617.071875 368.095952 618.042187 367.867902 C 618.975 367.632121 619.954687 367.628256 620.8875 367.856306 C 621.675 368.018647 622.485937 367.999321 623.259375 367.794462 C 624 367.489107 624.717188 367.141234 625.410937 366.746978 C 625.410937 366.746978 627.098437 366.016445 628.073437 365.560345 C 629.04375 365.104245 628.453125 364.903251 628.453125 364.903251 " transform="matrix(0.833333,0,0,1.010606,0,0)"/>
<path style="fill-rule:nonzero;fill:rgb(0%,60.784316%,22.745098%);fill-opacity:1;stroke-width:0.602;stroke-linecap:butt;stroke-linejoin:miter;stroke:rgb(0%,0%,0%);stroke-opacity:1;stroke-miterlimit:4;" d="M 615.3 370.743652 C 615.3 370.743652 608.634375 367.257192 608.278125 367.176021 C 608.067187 367.145099 605.254687 365.595132 603.965625 365.193146 C 603.098437 364.941904 602.19375 364.825946 601.289062 364.845273 C 600.314062 364.96123 599.348437 365.146763 598.401562 365.405735 L 600.05625 366.082154 C 600.05625 366.082154 601.6125 366.847475 602.371875 367.253326 C 603.459375 367.829249 603.50625 368.528861 603.50625 368.528861 L 609.54375 371.184291 L 610.767187 372.061704 C 610.767187 372.061704 611.878125 370.527197 615.3 370.743652 " transform="matrix(0.833333,0,0,1.010606,0,0)"/>
<path style="fill-rule:nonzero;fill:rgb(0%,60.784316%,22.745098%);fill-opacity:1;stroke-width:0.794;stroke-linecap:butt;stroke-linejoin:miter;stroke:rgb(0%,0%,0%);stroke-opacity:1;stroke-miterlimit:4;" d="M 621.998438 356.898309 C 624.098437 355.031391 625.120312 352.372095 626.845312 350.899433 C 627.126562 351.100426 627.126562 351.432838 626.784375 352.024222 C 626.45625 352.60401 626.025 352.801138 625.832812 353.106494 C 625.242188 353.697878 624.679688 354.324049 624.15 354.973412 C 623.85 355.692349 623.325 356.295329 622.654688 356.689585 C 621.745312 357.234586 622.03125 358.100403 621.95625 358.463737 C 621.88125 358.861858 620.479687 359.862959 619.804688 361.107571 C 619.673437 362.402432 619.617188 361.857431 618.829687 362.317396 C 619.992188 360.574166 621.046875 358.765227 621.998438 356.898309 M 617.2875 362.816014 C 617.15625 363.098177 613.021875 365.448252 614.310938 365.100379 C 615.604687 364.752507 619.410937 363.380341 620.503125 362.897184 C 621.829687 362.321261 622.626562 361.099841 623.625 360.114201 C 624.642187 359.105369 627.7875 356.098201 628.33125 354.938624 C 628.860937 353.744261 629.34375 352.086066 627.210938 348.356095 C 626.929688 348.893366 626.55 349.372657 626.085938 349.766913 C 625.4625 350.308049 624.810938 350.806667 624.13125 351.266632 L 622.7625 352.561493 C 622.7625 352.561493 617.929688 361.436118 617.2875 362.816014 " transform="matrix(0.833333,0,0,1.010606,0,0)"/>
<path style="fill-rule:nonzero;fill:rgb(0%,60.784316%,22.745098%);fill-opacity:1;stroke-width:0.754;stroke-linecap:butt;stroke-linejoin:miter;stroke:rgb(0%,0%,0%);stroke-opacity:1;stroke-miterlimit:4;" d="M 634.0875 359.700618 C 634.0875 359.700618 631.439062 359.464838 631.209375 359.464838 C 630.960938 359.464838 629.507812 359.263845 627.403125 359.263845 C 626.11875 359.128561 624.848437 359.615583 623.98125 360.570301 C 623.390625 361.223529 621.740625 362.730978 621.740625 362.730978 L 622.63125 362.653673 C 623.878125 361.668033 625.485937 361.269912 627.051562 361.559806 C 628.29375 361.567537 629.526562 361.324025 630.679688 360.852464 C 632.83125 360.09874 632.704687 360.806081 632.470312 360.879521 C 631.439062 361.24672 630.365625 361.463175 629.278125 361.521153 C 627.675 361.610054 626.278125 361.92314 625.65 361.92314 C 625.026562 361.92314 620.3625 363.198674 620.3625 363.198674 C 620.3625 363.198674 625.401562 363.496299 625.945312 363.670235 C 626.64375 363.871228 627.39375 363.790058 628.035937 363.453781 C 629.175 362.889454 630.384375 362.472006 631.635937 362.213034 C 632.245312 362.058424 632.835938 361.826509 633.384375 361.517288 C 633.796875 361.208068 634.134375 360.806081 634.364062 360.342251 C 634.846875 359.464838 634.0875 359.704484 634.0875 359.704484 M 636.5625 345.893928 C 636.998438 344.657046 637.664062 343.512931 638.517187 342.523426 C 639.09375 342.144631 639.726562 341.854737 640.3875 341.665339 C 640.589062 341.59963 642.0375 341.52619 640.228125 342.024808 C 639.346875 342.21034 638.559375 342.708958 638.015625 343.42403 C 637.584375 345.055168 636.773438 346.562617 635.657812 347.826555 C 635.090625 348.448862 634.617188 349.148473 634.246875 349.909928 L 633.323437 350.226879 C 635.020312 349.19099 635.75625 347.266094 636.5625 345.890063 Z M 644.75625 344.904423 C 644.296875 345.035841 643.85625 345.232969 643.453125 345.491942 C 641.296875 346.141304 640.410937 347.494144 639.464062 348.599606 C 638.985937 349.179395 638.310938 349.612303 636.028125 350.586347 C 634.696875 351.193192 633.445312 351.958513 632.296875 352.866848 C 632.296875 352.866848 631.635937 353.002132 631.7625 353.322948 C 631.814062 353.473693 632.376562 353.35387 632.376562 353.35387 C 632.376562 353.35387 636.665625 352.739294 638.45625 351.653158 C 639.651562 350.953547 640.640625 349.94858 641.325 348.742621 C 641.807812 348.004357 642.351562 346.612865 642.379687 347.505739 C 642.464062 349.879006 638.779688 352.182698 637.171875 352.890039 C 636.032812 353.268834 634.860937 353.523941 633.670313 353.65536 C 632.189062 353.925928 631.289062 353.844757 631.396875 353.520076 C 631.546875 353.048515 631.720312 352.948018 632.109375 352.484188 C 632.817187 351.641562 634.51875 351.343937 635.775 350.756419 C 637.129687 350.180496 638.353125 349.334005 639.375 348.274925 C 639.91875 347.764711 640.321875 347.119214 640.542187 346.404142 C 641.090625 344.533358 641.11875 343.505201 641.634375 342.832646 C 643.448437 340.602394 643.710938 339.879591 643.8 338.886221 C 643.81875 338.654306 642.857813 339.415761 642.360937 339.690194 C 641.315625 340.23906 640.190625 340.610125 639.023438 340.791792 C 636.99375 341.29814 637.040625 342.604596 636.721875 343.223037 C 636.389063 343.795095 635.94375 344.289847 635.414062 344.687969 C 634.692187 345.368253 634.10625 346.187687 633.703125 347.099888 C 633.435938 347.699002 632.967188 348.12418 632.5875 348.077797 C 632.189062 348.004357 633.346875 343.675272 633.604687 342.964065 C 633.834375 342.12917 633.942187 341.267218 633.932812 340.401401 C 633.932812 339.953031 633.946875 338.777994 633.164062 338.646575 C 632.38125 338.511291 632.348437 337.43675 632.348437 337.43675 C 630.473437 339.060157 631.51875 341.924311 631.720312 343.621158 C 631.771875 345.229104 631.645312 346.840915 631.335938 348.421805 C 633.145312 349.194856 631.720312 351.398051 631.157812 352.109258 C 630.567187 352.832061 629.442187 352.963479 628.940625 353.601246 C 628.40625 354.25834 624.609375 359.546008 624.609375 359.546008 L 629.329687 358.20863 C 629.329687 358.20863 629.770312 358.285935 629.067187 357.75253 C 628.35 357.238451 629.296875 355.25171 629.90625 354.768553 C 630.717188 354.242879 631.739062 354.150112 632.634375 354.521177 C 634.29375 354.679652 635.967188 354.428411 637.509375 353.790644 C 639.754687 352.9055 640.720312 351.471491 641.779688 350.389219 C 642.642187 349.221912 643.410937 347.985031 644.08125 346.697901 C 644.479687 346.029212 645.201563 344.757543 644.760937 344.908288 " transform="matrix(0.833333,0,0,1.010606,0,0)"/>
<path style="fill-rule:nonzero;fill:rgb(0%,60.784316%,22.745098%);fill-opacity:1;stroke-width:0.84;stroke-linecap:butt;stroke-linejoin:miter;stroke:rgb(0%,0%,0%);stroke-opacity:1;stroke-miterlimit:4;" d="M 631.359375 357.601785 C 631.720312 357.454905 631.771875 357.389196 632.432812 356.666393 C 632.728125 356.31852 632.784375 355.831498 632.582812 355.421781 C 632.385937 355.012064 631.959375 354.760823 631.504687 354.780149 C 631.0125 354.814936 630.492188 354.698979 629.521875 356.00157 C 628.589062 357.300295 629.971875 357.779587 630.496875 357.8337 C 630.796875 357.814374 631.092188 357.737069 631.359375 357.601785 " transform="matrix(0.833333,0,0,1.010606,0,0)"/>
<path style="fill-rule:nonzero;fill:rgb(0%,60.784316%,22.745098%);fill-opacity:1;stroke-width:0.858;stroke-linecap:butt;stroke-linejoin:miter;stroke:rgb(0%,0%,0%);stroke-opacity:1;stroke-miterlimit:4;" d="M 628.917187 349.364927 C 628.29375 350.408546 627.95625 351.61064 628.448437 351.981704 C 628.710938 352.205889 629.025 352.356634 629.3625 352.426209 C 630.182812 352.240677 630.890625 351.734328 631.340625 351.026987 C 631.926562 350.149574 632.404688 349.187125 631.204687 348.591876 C 630.80625 348.35223 630.323437 348.301982 629.8875 348.448862 C 629.446875 348.595741 629.090625 348.928153 628.917187 349.357196 " transform="matrix(0.833333,0,0,1.010606,0,0)"/>
<path style="fill-rule:nonzero;fill:rgb(0%,60.784316%,22.745098%);fill-opacity:1;stroke-width:0.754;stroke-linecap:butt;stroke-linejoin:miter;stroke:rgb(0%,0%,0%);stroke-opacity:1;stroke-miterlimit:4;" d="M 632.489062 336.578664 C 632.489062 336.578664 632.592188 336.420188 632.179688 335.991145 C 631.645312 335.407492 631.157812 334.785186 630.707812 334.135823 C 629.723437 334.70015 629.076563 335.716712 628.978125 336.849232 C 629.090625 337.912177 629.1 338.982852 629.001562 340.045797 C 628.851562 340.934806 628.589062 341.804488 628.214062 342.627788 C 627.834375 343.814421 627.923437 345.101551 628.457812 346.22634 C 628.570312 346.744284 629.104687 348.348365 629.104687 348.348365 C 629.320312 348.20535 629.545313 348.081662 629.784375 347.985031 C 630.079687 347.950244 630.379687 347.942513 630.675 347.961839 C 631.064062 347.277689 631.340625 346.531695 631.485937 345.758644 C 631.4625 344.726621 631.345312 343.698463 631.134375 342.689632 C 630.782812 341.367715 630.745312 339.980088 631.035937 338.64271 C 631.270312 337.81168 631.785937 337.081147 632.489062 336.578664 " transform="matrix(0.833333,0,0,1.010606,0,0)"/>
<path style="fill-rule:nonzero;fill:rgb(0%,60.784316%,22.745098%);fill-opacity:1;stroke-width:0.828;stroke-linecap:butt;stroke-linejoin:miter;stroke:rgb(0%,0%,0%);stroke-opacity:1;stroke-miterlimit:4;" d="M 634.429688 338.770263 C 634.89375 338.638845 635.2875 338.337355 635.535937 337.927638 C 635.817187 337.421289 635.939062 336.841501 635.882812 336.265578 C 635.71875 335.708981 635.25 335.295399 634.678125 335.206498 C 634.10625 335.113732 633.534375 335.361109 633.20625 335.836535 C 631.832812 338.646575 634.425 338.770263 634.425 338.770263 " transform="matrix(0.833333,0,0,1.010606,0,0)"/>
<path style="fill-rule:nonzero;fill:rgb(0%,60.784316%,22.745098%);fill-opacity:1;stroke-width:0.984;stroke-linecap:butt;stroke-linejoin:miter;stroke:rgb(0%,0%,0%);stroke-opacity:1;stroke-miterlimit:4;" d="M 638.315625 334.715611 C 636.614062 334.800647 635.775 337.865794 635.775 337.865794 C 635.521875 338.42239 635.109375 338.890086 634.589062 339.207037 C 633.623438 339.806152 634.190625 340.660373 634.190625 342.187149 C 634.03125 343.632754 633.670313 345.055168 633.126562 346.404142 L 632.728125 347.320207 C 632.728125 347.320207 632.760937 348.004357 633.384375 346.759745 C 634.439062 344.660912 635.596875 345.171125 636.032812 342.917682 C 636.309375 341.240161 639.089062 340.706756 639.089062 340.706756 L 638.30625 340.559876 C 635.41875 339.207037 638.475 335.83267 638.967188 335.233555 C 639.492188 334.634441 639.989062 334.634441 638.30625 334.715611 " transform="matrix(0.833333,0,0,1.010606,0,0)"/>
<path style="fill-rule:nonzero;fill:rgb(0%,60.784316%,22.745098%);fill-opacity:1;stroke-width:0.838;stroke-linecap:butt;stroke-linejoin:miter;stroke:rgb(0%,0%,0%);stroke-opacity:1;stroke-miterlimit:4;" d="M 637.828125 338.345085 C 637.05 340.018741 639.267187 340.099911 639.782812 339.806152 C 640.026562 339.605158 640.25625 339.377108 640.457812 339.129732 C 641.357813 337.838737 640.532812 336.961324 640.064062 336.837636 C 639.614062 336.686891 638.648438 336.570933 637.828125 338.345085 " transform="matrix(0.833333,0,0,1.010606,0,0)"/>
<path style="fill-rule:nonzero;fill:rgb(0%,60.784316%,22.745098%);fill-opacity:1;stroke-width:0.754;stroke-linecap:butt;stroke-linejoin:miter;stroke:rgb(0%,0%,0%);stroke-opacity:1;stroke-miterlimit:4;" d="M 633.614062 331.855322 C 634.195312 332.937594 635.821875 335.952493 636.20625 335.770826 C 636.445312 335.654868 636.253125 335.036427 636.253125 335.036427 C 636.20625 334.425717 636.098437 333.822737 635.939062 333.231353 C 635.68125 332.230252 635.742188 330.958583 635.221875 330.143014 C 634.70625 329.32358 633.510937 328.357267 633.032812 327.066272 C 632.75625 325.736624 632.7375 324.364458 632.971875 323.02708 C 633.01875 322.744917 633.164062 322.926584 632.910937 322.636689 C 632.179688 322.10715 631.40625 321.635588 630.6 321.225871 C 630.689062 321.971866 630.7125 322.721725 630.670313 323.471585 C 630.651562 323.819457 630.553125 324.229174 630.501562 324.836019 C 630.45 325.415808 630.801562 326.142476 631.645312 327.8084 C 632.620312 329.733297 633.09375 330.916065 633.614062 331.855322 M 645.946875 317.492035 C 645.703125 317.909483 645.435938 318.311469 645.15 318.697995 C 644.929688 318.918314 641.578125 321.797929 641.385937 321.917752 C 641.221875 322.045305 639.473437 322.601902 637.884375 326.907796 C 636.928125 329.563226 636.614062 332.408054 636.979687 335.206498 L 637.753125 335.106002 L 637.884375 334.688554 C 637.884375 334.688554 638.146875 333.262275 638.34375 332.187734 C 638.56875 331.120924 639.764063 329.632801 640.55625 328.535068 C 641.095312 327.707904 641.554688 326.830491 641.920313 325.914426 C 642.557812 324.302614 643.298437 322.737186 644.142187 321.225871 C 644.175 322.72559 638.460938 331.967415 637.851562 335.109867 L 639.54375 334.850895 C 641.132812 333.142452 642.576563 331.302591 643.860937 329.350637 C 644.859375 327.676982 645.515625 325.821659 645.796875 323.889032 C 646.003125 322.741051 645.95625 317.48817 645.95625 317.48817 " transform="matrix(0.833333,0,0,1.010606,0,0)"/>
<path style="fill-rule:nonzero;fill:rgb(0%,60.784316%,22.745098%);fill-opacity:1;stroke-width:0.754;stroke-linecap:butt;stroke-linejoin:miter;stroke:rgb(0%,0%,0%);stroke-opacity:1;stroke-miterlimit:4;" d="M 634.560938 318.442888 C 634.115625 318.006114 633.595312 317.654376 633.028125 317.403134 C 633.135937 318.241895 633.20625 319.080655 633.229687 319.923281 C 633.229687 320.881864 633.314062 322.48981 633.267187 323.344031 C 633.229687 324.198252 632.807812 325.616801 633.4125 327.000562 C 633.951563 328.017124 634.55625 328.995034 635.23125 329.922695 C 635.775 331.631138 636.201563 333.374368 636.50625 335.140789 C 636.35625 332.612912 636.342188 330.08117 636.464062 327.549428 C 636.754687 325.728893 636.740625 323.873571 636.417187 322.060766 C 636.084375 320.727254 635.451563 319.490372 634.560938 318.442888 M 638.503125 312.664332 C 639.05625 311.690288 639.435938 310.627343 639.623438 309.52188 C 639.73125 308.683119 639.773438 307.840494 639.754687 306.994003 C 639.735937 306.487655 639.539062 305.610242 639.754687 305.548398 C 639.95625 305.502015 639.792187 305.822831 639.9 306.57269 C 639.95625 306.839393 639.76875 307.581522 639.735937 308.528509 C 639.721875 309.351808 639.58125 310.167377 639.323437 310.948159 C 639.028125 311.848763 639.295313 312.857595 639.117188 313.139758 C 638.934375 313.421922 638.4 314.508058 638.4 314.508058 C 638.2125 315.045329 638.123438 315.613521 638.1375 316.181714 C 638.165625 316.997283 638.2125 317.882426 638.2125 317.882426 C 638.479687 317.441787 638.925 317.144162 639.435938 317.066857 C 639.435938 317.066857 639.623438 315.698557 639.623438 315.265648 C 639.80625 313.885752 640.082812 312.521317 640.453125 311.180074 C 640.978125 309.224255 640.996875 307.167939 640.5 305.20439 C 640.35 304.268998 640.25625 303.322011 640.209375 302.375023 C 640.209375 302.375023 639.398438 303.024386 638.920313 305.467227 C 638.770312 306.213222 639.084375 308.207693 638.9625 310.333583 C 638.6625 312.432417 638.217188 314.511924 637.635937 316.552778 " transform="matrix(0.833333,0,0,1.010606,0,0)"/>
<path style="fill-rule:nonzero;fill:rgb(0%,60.784316%,22.745098%);fill-opacity:1;stroke-width:0.754;stroke-linecap:butt;stroke-linejoin:miter;stroke:rgb(0%,0%,0%);stroke-opacity:1;stroke-miterlimit:4;" d="M 638.498438 312.664332 L 638.446875 312.764829 C 638.470312 312.737772 638.489062 312.702984 638.498438 312.664332 " transform="matrix(0.833333,0,0,1.010606,0,0)"/>
<path style="fill-rule:nonzero;fill:rgb(0%,60.784316%,22.745098%);fill-opacity:1;stroke-width:0.754;stroke-linecap:butt;stroke-linejoin:miter;stroke:rgb(0%,0%,0%);stroke-opacity:1;stroke-miterlimit:4;" d="M 635.315625 300.334169 C 635.746875 300.334169 635.746875 300.801865 635.657812 301.172929 C 635.610937 301.578781 635.592188 301.988498 635.601562 302.40208 C 635.671875 302.974138 635.779688 303.54233 635.925 304.102792 C 636.210938 304.651659 636.31875 305.27783 636.234375 305.896271 C 636.154688 306.576555 635.45625 307.376663 635.7 308.53624 C 635.910937 309.14695 636.173437 309.738334 636.482813 310.306526 C 636.604687 310.959754 636.651562 311.628444 636.614062 312.293267 C 636.628125 312.722311 636.773438 313.135893 637.026562 313.483766 C 637.026562 313.483766 636.54375 314.388236 636.379687 313.255716 C 636.328125 312.416956 636.164062 311.585926 635.896875 310.789683 C 635.320312 309.514149 635.26875 308.068544 635.746875 306.754357 C 635.8875 306.333044 635.953125 305.892405 635.939062 305.447901 C 635.939062 304.868113 635.582812 303.878608 635.517187 303.267897 C 635.45625 302.780875 635.49375 301.756583 635.49375 301.385518 M 633.229687 306.823932 C 633.45 307.801841 633.84375 308.733368 634.396875 309.572128 C 634.757812 310.314257 635.067187 311.083443 635.315625 311.871955 C 635.404688 312.223693 635.470312 312.583162 635.507812 312.946496 C 635.507812 313.08951 635.601562 314.094476 635.601562 314.094476 L 635.601562 314.511924 C 635.601562 314.511924 633.309375 313.174546 632.301562 312.459473 C 631.29375 311.744401 630.164062 310.754896 629.442187 310.155781 C 628.617188 309.479362 626.657812 307.156344 626.629687 305.293291 L 625.729687 304.473857 C 625.396875 307.032656 626.357813 309.587589 628.289062 311.292166 C 629.526562 312.362842 630.923437 313.240255 632.423437 313.893483 C 634.6125 314.902314 634.326563 315.802919 635.235937 317.739412 C 635.840625 318.906719 636.365625 320.112678 636.80625 321.353425 C 636.885937 321.940944 636.557812 330.208724 636.557812 330.208724 L 636.6375 330.958583 C 636.6375 330.958583 638.634375 323.297648 639.595312 322.443427 C 639.595312 322.443427 637.692187 322.149667 637.842188 319.154095 L 637.504687 317.182815 C 637.298437 315.89182 637.410937 314.569903 637.842188 313.333021 C 638.329687 311.705749 638.521875 309.997306 638.4 308.300459 C 638.217188 306.901237 638.151562 306.487655 637.982813 305.146411 C 637.692187 303.322011 637.298437 301.513072 636.796875 299.731189 C 636.614062 299.035443 636.375 298.355158 636.079687 297.698065 C 635.98125 297.404306 635.79375 296.441857 635.489062 296.426396 C 635.310938 296.418666 635.039062 297.667143 635.039062 297.667143 C 635.039062 297.667143 634.640625 299.031578 634.55625 299.398777 C 634.0125 300.852113 633.628125 302.359562 633.4125 303.894069 C 633.360937 304.342438 633.309375 305.548398 633.257812 305.706873 C 633.201563 306.077938 633.192187 306.452867 633.229687 306.827797 " transform="matrix(0.833333,0,0,1.010606,0,0)"/>
<path style="fill-rule:nonzero;fill:rgb(0%,60.784316%,22.745098%);fill-opacity:1;stroke-width:0.754;stroke-linecap:butt;stroke-linejoin:miter;stroke:rgb(0%,0%,0%);stroke-opacity:1;stroke-miterlimit:4;" d="M 634.93125 317.271716 C 634.753125 316.873594 634.528125 316.498665 634.260937 316.154657 C 633.58125 315.354549 632.6625 314.670399 630.060938 313.39873 C 627.459375 312.10387 626.775 309.97798 625.453125 309.096702 C 624.9 308.791347 624.295313 308.582623 623.671875 308.478261 C 623.671875 308.478261 624.825 310.070746 625.101562 310.619612 C 625.504687 311.597522 626.146875 312.463339 626.967188 313.128162 C 628.2 314.175647 629.6625 314.910045 631.242188 315.265648 C 632.55 315.775862 633.792187 316.448416 634.935938 317.263985 M 626.751562 304.972475 C 627.220312 306.506981 627.942187 307.952586 628.898438 309.243581 C 631.045313 311.964721 635.189062 313.905079 635.189062 313.905079 C 634.85625 312.335785 634.317187 310.820605 633.585938 309.390461 C 631.70625 306.352371 626.732813 304.860382 626.732813 304.860382 C 626.732813 304.860382 626.64375 304.744425 626.746875 304.972475 M 632.68125 306.255739 C 633.796875 303.816763 630.46875 301.486015 629.53125 299.785303 C 629.878125 299.51087 630.290625 300.233672 630.675 300.716829 C 631.21875 301.439632 632.751562 303.5346 632.751562 303.5346 L 633.225 301.304348 L 629.264063 297.70193 C 629.217188 298.227605 627.99375 298.656648 627.99375 298.656648 C 627.403125 301.992363 632.685938 306.259605 632.685938 306.259605 " transform="matrix(0.833333,0,0,1.010606,0,0)"/>
<path style="fill-rule:nonzero;fill:rgb(0%,60.784316%,22.745098%);fill-opacity:1;stroke-width:0.754;stroke-linecap:butt;stroke-linejoin:miter;stroke:rgb(0%,0%,0%);stroke-opacity:1;stroke-miterlimit:4;" d="M 625.785937 300.608602 C 625.382812 300.825056 624.946875 300.971936 624.492188 301.037645 L 625.026562 302.452329 L 625.335938 302.834989 C 625.335938 302.834989 626.578125 304.636198 627.304688 304.860382 C 629.728125 305.312617 631.945312 306.518577 633.642187 308.30819 C 633.642187 308.30819 629.760937 303.928856 628.270312 300.643389 L 627.76875 298.749414 L 626.3625 298.84218 C 626.3625 298.84218 626.746875 300.171828 625.790625 300.612467 " transform="matrix(0.833333,0,0,1.010606,0,0)"/>
<path style="fill-rule:nonzero;fill:rgb(0%,60.784316%,22.745098%);fill-opacity:1;stroke-width:0.754;stroke-linecap:butt;stroke-linejoin:miter;stroke:rgb(0%,0%,0%);stroke-opacity:1;stroke-miterlimit:4;" d="M 611.25 297.810157 C 611.901562 298.397676 612.609375 298.919486 613.364062 299.375586 C 614.9625 300.399878 616.70625 301.184525 618.539062 301.694739 C 618.970312 301.764313 621.290625 302.054207 621.290625 302.054207 C 621.379687 301.451228 621.88125 300.991262 622.490625 300.948744 L 619.204687 300.589276 C 616.790625 300.457857 614.540625 299.344664 612.965625 297.512533 C 615.070312 298.788067 618.098437 300.801865 620.554688 300.693638 C 630.628125 299.700267 617.517187 299.452891 616.378125 298.722358 C 615.548437 298.169626 614.79375 297.504802 614.146875 296.743347 L 611.19375 296.611928 C 611.19375 296.611928 609.740625 296.519162 611.254687 297.810157 " transform="matrix(0.833333,0,0,1.010606,0,0)"/>
<path style="fill-rule:nonzero;fill:rgb(0%,60.784316%,22.745098%);fill-opacity:1;stroke-width:0.754;stroke-linecap:butt;stroke-linejoin:miter;stroke:rgb(0%,0%,0%);stroke-opacity:1;stroke-miterlimit:4;" d="M 623.114062 303.546196 C 623.765625 303.499813 624.220312 303.376124 624.370312 302.661052 C 624.46875 302.297718 624.398438 301.907328 624.178125 301.598107 C 623.957812 301.292752 623.610937 301.099489 623.235937 301.076298 C 622.509375 300.80573 621.69375 301.153603 621.384375 301.86481 C 620.967188 302.834989 622.485937 303.465025 622.485937 303.465025 C 622.682812 303.54233 622.903125 303.573252 623.114062 303.550061 M 624.24375 297.77537 C 623.395312 297.77537 623.104687 298.474981 623.2875 299.82782 C 623.5125 301.192255 625.603125 300.597006 625.603125 300.597006 L 625.992188 300.396013 C 625.992188 300.396013 626.273438 300.175693 626.11875 299.089557 C 625.96875 297.972498 625.101562 297.77537 624.24375 297.77537 M 627.670313 298.733953 L 627.6375 298.733953 C 627.623438 298.745549 627.670313 298.733953 627.670313 298.733953 " transform="matrix(0.833333,0,0,1.010606,0,0)"/>
<path style="fill-rule:nonzero;fill:rgb(0%,60.784316%,22.745098%);fill-opacity:1;stroke-width:0.754;stroke-linecap:butt;stroke-linejoin:miter;stroke:rgb(0%,0%,0%);stroke-opacity:1;stroke-miterlimit:4;" d="M 627.6375 298.730088 C 627.73125 298.68757 627.834375 298.656648 627.9375 298.629591 C 628.36875 298.463385 628.814062 297.419767 628.814062 297.419767 C 629.025 296.71629 628.6875 295.962566 628.021875 295.653345 C 626.310938 295.313203 626.26875 296.812922 626.26875 296.812922 C 625.8 298.76101 627.379687 298.741684 627.632812 298.730088 M 620.029688 292.031601 C 620.282812 292.69256 620.676562 293.291674 621.1875 293.778697 C 621.80625 294.381676 622.3875 295.023309 622.93125 295.699728 C 623.329687 296.248594 624.646875 298.741684 624.646875 298.741684 C 624.782812 298.714627 624.9 298.633457 624.975 298.513634 C 625.204687 298.123243 624.089062 295.104479 623.971875 294.895755 C 623.526562 294.029938 622.935938 293.249157 622.228125 292.580468 C 621.759375 292.085715 621.323437 291.563906 620.920313 291.015039 C 622.828125 293.481072 624.548437 296.086254 626.071875 298.811258 C 626.071875 298.811258 625.964062 296.754943 625.846875 295.64948 C 625.776562 293.983555 625.260937 292.367879 624.360937 290.968656 C 623.746875 290.040995 622.85625 289.337519 621.815625 288.954859 C 620.953125 288.641773 619.935938 288.21273 618.84375 287.864857 C 617.714062 287.520849 618.58125 288.533546 618.998438 289.410959 C 619.4625 290.234258 619.809375 291.115536 620.029688 292.031601 " transform="matrix(0.833333,0,0,1.010606,0,0)"/>
<path style="fill-rule:nonzero;fill:rgb(0%,60.784316%,22.745098%);fill-opacity:1;stroke-width:0.754;stroke-linecap:butt;stroke-linejoin:miter;stroke:rgb(0%,0%,0%);stroke-opacity:1;stroke-miterlimit:4;" d="M 615.834375 297.330866 C 616.85625 298.440194 618.253125 299.132075 619.753125 299.267359 C 622.082812 299.634558 622.279688 299.479948 622.279688 299.479948 C 622.279688 299.479948 623.484375 298.896294 622.870312 298.38608 C 619.453125 296.886362 616.214062 295.092883 614.573437 293.079085 C 614.573437 293.079085 614.854687 292.800787 616.040625 293.98742 C 616.528125 294.486038 617.053125 294.942138 617.610937 295.359586 C 618.576563 296.028275 619.584375 296.627389 620.634375 297.153064 C 621.379687 297.47388 622.153125 297.721257 622.945312 297.902924 C 622.945312 297.902924 623.179688 297.40044 623.390625 297.342462 C 623.601562 297.284483 623.264063 296.511432 621.829687 295.344125 C 621.028125 294.683166 620.325 293.917846 619.729687 293.06749 C 619.729687 293.06749 618.028125 292.69256 616.185938 292.387205 C 614.8125 292.170751 612.229687 290.164683 612.276562 290.709684 C 612.4125 291.900183 612.782812 293.055894 613.359375 294.107243 C 614.020312 295.297742 614.854687 296.383878 615.834375 297.323135 " transform="matrix(0.833333,0,0,1.010606,0,0)"/>
<path style="fill-rule:nonzero;fill:rgb(0%,60.784316%,22.745098%);fill-opacity:1;stroke-width:0.602;stroke-linecap:butt;stroke-linejoin:miter;stroke:rgb(0%,0%,0%);stroke-opacity:1;stroke-miterlimit:4;" d="M 596.610937 366.913184 C 595.603125 367.214674 588.0375 370.051771 588.0375 370.051771 L 585.928125 370.898262 C 587.685938 370.515602 589.523438 370.805496 591.075 371.709965 L 599.503125 367.809923 C 599.503125 367.809923 599.475 367.68237 599.26875 367.531625 C 598.48125 367.017546 597.539062 366.797226 596.610937 366.913184 " transform="matrix(0.833333,0,0,1.010606,0,0)"/>
<path style="fill-rule:nonzero;fill:rgb(0%,60.784316%,22.745098%);fill-opacity:1;stroke-width:0.644;stroke-linecap:butt;stroke-linejoin:miter;stroke:rgb(0%,0%,0%);stroke-opacity:1;stroke-miterlimit:4;" d="M 585.604687 371.153369 C 585.553125 371.199752 585.492188 371.400745 585.642187 371.466454 C 586.059375 371.69837 585.946875 371.791136 587.854687 372.019186 C 589.78125 372.227909 591.0375 371.864576 591.365625 371.497376 C 591.75 371.076064 586.598437 370.287552 585.604687 371.153369 " transform="matrix(0.833333,0,0,1.010606,0,0)"/>
<path style="fill-rule:nonzero;fill:rgb(0%,60.784316%,22.745098%);fill-opacity:1;stroke-width:0.836;stroke-linecap:butt;stroke-linejoin:miter;stroke:rgb(0%,0%,0%);stroke-opacity:1;stroke-miterlimit:4;" d="M 573.501562 343.94584 L 573.15 341.580304 C 573.15 341.580304 572.709375 335.187172 571.982813 333.907773 C 571.846875 333.621744 571.907812 332.95692 571.448437 332.945324 C 570.567187 332.879615 570.567187 334.959122 570.459375 336.845366 C 569.025 346.346163 576.6 353.601246 576.6 353.601246 Z M 573.501562 343.94584 " transform="matrix(0.833333,0,0,1.010606,0,0)"/>
<path style="fill-rule:nonzero;fill:rgb(0%,60.784316%,22.745098%);fill-opacity:1;stroke-width:0.77;stroke-linecap:butt;stroke-linejoin:miter;stroke:rgb(0%,0%,0%);stroke-opacity:1;stroke-miterlimit:4;" d="M 611.001562 372.092626 C 611.001562 372.092626 610.204687 371.914824 610.70625 371.292518 C 611.334375 370.774574 612.098437 370.461488 612.909375 370.384183 C 613.476562 370.391913 614.04375 370.469219 614.592188 370.612233 C 615.192187 370.759113 616.03125 371.292518 615.7875 371.679043 C 615.210938 372.258832 614.414062 372.556456 613.598437 372.502343 C 612.970312 372.53713 612.342188 372.490747 611.728125 372.359328 C 611.320312 372.204718 610.996875 372.08876 610.996875 372.08876 " transform="matrix(0.833333,0,0,1.010606,0,0)"/>
<path style="fill-rule:nonzero;fill:rgb(0%,60.784316%,22.745098%);fill-opacity:1;stroke-width:0.602;stroke-linecap:butt;stroke-linejoin:miter;stroke:rgb(0%,0%,0%);stroke-opacity:1;stroke-miterlimit:4;" d="M 602.784375 367.570277 C 602.784375 367.570277 600.182812 366.372048 597.717188 365.173819 C 594.46875 363.5852 590.564062 361.382004 587.845312 357.338948 C 585.876562 354.285396 583.490625 351.517874 580.7625 349.117551 C 580.026562 348.576415 579.923437 348.375422 579.651562 348.758082 C 579.407812 349.086629 579.576563 349.372657 579.782812 349.724396 C 580.485937 350.864646 582.20625 353.002132 582.820312 354.150112 C 583.884375 356.202563 586.0875 358.444411 586.064062 359.774058 C 586.064062 359.959591 585.421875 359.64264 585.421875 359.64264 C 581.953125 358.166112 579.304688 355.240114 578.189062 351.641562 C 576.670313 347.115349 577.3125 345.789566 576.960938 343.528392 C 576.360937 339.508527 576.234375 339.183846 574.246875 334.680824 C 574.195312 334.568731 573.032812 332.686352 572.873438 333.1038 C 572.8125 333.961886 572.878125 334.823838 573.075 335.658733 L 573.285937 337.977886 C 573.285937 337.977886 573.117188 343.126406 573.117188 343.439491 C 573.117188 343.752577 571.81875 346.964604 577.33125 352.36823 C 577.33125 352.36823 577.415625 353.288161 576.675 352.480322 C 576.15 351.900534 572.207812 348.870174 571.007812 343.887861 C 569.770312 338.901682 569.592188 333.911638 570.525 331.839861 C 571.373438 329.969078 573.075 325.388751 572.348437 321.392077 C 572.264063 320.97463 572.151562 319.749344 571.884375 320.07016 C 571.771875 320.22477 571.275 322.250164 570.975 322.949775 C 570.5625 323.908358 569.915625 324.851481 569.714062 325.512439 C 569.325 326.633363 567.426562 328.372728 567.796875 331.565428 C 567.9 333.459403 568.270312 335.330186 568.898438 337.123665 C 569.048437 337.599091 569.41875 338.812781 569.175 338.936469 C 568.954687 339.052427 568.176562 337.483133 568.176562 337.483133 C 568.176562 337.483133 564.689062 330.622306 566.840625 325.060204 C 569.015625 319.521294 574.471875 314.268413 574.471875 314.268413 C 574.471875 314.268413 578.90625 310.58869 579.810938 309.734469 C 580.1625 309.405922 580.078125 309.15468 579.960938 309.193333 C 573.80625 310.58869 568.935938 315.29657 567.328125 321.399808 C 567.328125 321.399808 567.173437 321.828851 566.953125 321.720624 C 566.676562 321.600801 566.953125 321.12151 566.953125 321.12151 C 566.953125 321.12151 568.828125 313.916674 574.092188 310.646669 C 579.84375 307.063578 579.16875 307.585387 581.067187 306.460598 C 582.590625 305.471093 583.832812 304.110523 584.685938 302.506442 C 584.976562 301.953711 585.178125 301.362327 585.290625 300.747751 C 585.229687 300.531297 584.971875 300.832787 584.85 301.196121 C 583.851562 302.684244 582.440625 303.851551 580.785937 304.558892 C 578.34375 305.405383 576.35625 304.195558 573.904688 306.912833 C 572.198437 308.915035 570.717188 311.095038 569.489062 313.418057 C 569.489062 313.418057 568.846875 314.395966 568.70625 314.368909 C 568.434375 314.283874 568.8375 313.32529 568.8375 313.32529 C 568.8375 313.32529 572.11875 306.360101 574.757812 304.945418 C 577.0125 303.789707 579.182812 302.46779 581.25 300.995127 C 583.396875 299.070231 585.435938 297.021645 587.348437 294.860968 C 587.5875 294.601996 589.275 292.893553 589.65 292.340822 C 589.875 292.039332 590.409375 291.598693 590.320312 291.525253 C 590.08125 291.343586 588.482813 292.112772 588.482813 292.112772 C 582.745312 293.98742 577.790625 297.70193 574.382812 302.680379 C 574.026562 303.198323 573.6375 303.68921 573.220312 304.156906 C 572.821875 304.624602 572.526562 305.169603 572.353125 305.753256 C 571.996875 305.463362 575.409375 301.199986 575.409375 301.199986 L 576.009375 298.440194 C 576.65625 295.927778 577.715625 293.539051 579.140625 291.374508 C 579.351562 291.107805 580.603125 289.843867 580.81875 289.58103 C 581.235937 289.12493 580.017187 289.979151 580.232813 289.789754 C 580.232813 289.789754 572.123438 295.610827 572.123438 302.947081 C 572.123438 304.261268 571.303125 305.467227 570.173437 307.10223 C 568.921875 308.849325 568.115625 310.874719 567.834375 313.004474 C 567.595312 314.194973 567.346875 315.381606 567.089062 316.568239 C 567.089062 316.568239 567.16875 317.615723 566.83125 317.538418 C 566.49375 317.457248 566.601562 316.591431 566.601562 316.591431 C 566.94375 314.187242 567.417187 311.798515 568.017187 309.444575 C 568.589062 307.809572 568.96875 306.696378 568.96875 306.696378 C 568.96875 306.696378 568.63125 302.587612 569.540625 300.334169 C 570.435938 298.53296 571.453125 296.797461 572.578125 295.131536 C 573.225 293.798023 573.660937 292.375609 573.871875 290.906812 C 573.904688 290.624649 573.684375 290.860429 573.31875 291.679863 C 572.428125 293.689796 571.682812 294.21547 570.220312 296.10558 C 570.220312 296.10558 566.460938 298.830585 565.096875 306.932159 C 565.096875 306.932159 565.054688 309.950923 564.6 314.68586 C 564.314062 317.577071 564.426562 320.495338 564.942187 323.355627 C 565.190625 324.557721 565.66875 324.561586 565.373438 324.708466 C 565.190625 324.801232 565.490625 324.723927 565.064062 323.819457 C 564.39375 322.219242 564.079687 320.491473 564.145312 318.759839 C 564.145312 314.53125 564.510937 311.141421 564.510937 311.141421 C 564.510937 311.141421 564.7875 304.311516 561.95625 301.230908 C 561.820312 301.072433 562.457812 302.614669 562.734375 304.149175 C 562.884375 306.023824 562.725 307.910068 562.265625 309.734469 C 562.082812 310.770357 560.198437 315.281109 560.864062 319.517429 C 560.864062 319.517429 562.467188 326.702938 564.520312 330.185532 C 564.520312 330.185532 565.8 331.685251 564.670313 330.278298 C 563.535937 328.871346 561.24375 323.278322 561.042187 322.806761 C 560.207812 320.854807 559.06875 319.049733 557.6625 317.457248 C 556.70625 316.695793 555.698437 316.003912 554.648438 315.381606 C 554.648438 315.381606 553.448437 314.465541 554.357813 315.679231 C 555.079687 316.641679 556.045313 318.361718 556.504687 319.111577 C 557.460938 320.657679 558.314062 322.26949 559.054688 323.935415 C 559.795313 325.558822 561.510937 330.340142 561.510937 330.340142 L 562.6125 333.374368 C 563.653125 333.954156 564.614062 334.676958 565.4625 335.515719 C 567.1875 337.475403 568.523438 339.740442 569.404688 342.194879 C 569.892187 343.323534 570.534375 344.378748 571.317187 345.325736 C 571.317187 345.325736 571.045313 345.84368 569.915625 343.883996 C 568.8 341.897254 567.703125 338.175014 565.017187 335.276073 C 562.96875 333.053551 557.470312 330.811704 557.470312 330.811704 C 557.470312 330.811704 561.004687 336.969055 561.88125 338.070652 C 563.367188 339.829343 565.514063 342.299241 566.067187 342.952469 C 566.639063 343.617293 569.967188 347.722194 570.454687 348.379287 C 570.965625 349.059572 571.528125 349.693474 572.142187 350.280992 C 573.01875 351.212519 575.615625 352.917096 575.817187 353.179933 C 575.854687 353.454367 575.90625 353.230182 575.685938 353.067841 C 574.5375 352.379826 573.159375 351.297554 571.739062 350.373758 C 570.323437 349.434501 564.857813 347.099888 561.173437 342.024808 C 560.296875 340.521224 559.884375 339.922109 559.589062 340.076719 C 559.139063 340.316365 562.06875 350.01429 568.096875 353.098763 C 568.096875 353.098763 574.74375 356.055683 576.220312 356.944692 C 577.317187 357.489693 578.385937 358.096538 579.421875 358.757496 C 579.853125 359.1131 579.028125 359.093773 578.971875 359.086043 C 575.442187 358.807745 570.375 358.340049 567.257812 356.534975 C 567.257812 356.534975 565.921875 355.595718 567.01875 356.917635 C 568.48125 359.020334 570.45 360.721046 572.742188 361.865161 C 575.798437 363.090447 579.014063 363.871228 582.290625 364.176584 C 583.964062 364.26935 589.921875 364.300272 591.060938 364.667471 C 592.18125 365.046266 594.079687 366.267686 595.167187 366.615559 C 596.15625 366.936376 599.142187 368.080491 599.142187 368.080491 C 599.5875 368.327867 600.046875 368.548187 600.520312 368.745315 C 601.059375 368.961769 603.295313 368.942443 603.45 368.52113 C 603.6 368.1462 602.8125 367.578008 602.8125 367.578008 " transform="matrix(0.833333,0,0,1.010606,0,0)"/>
<path style="fill-rule:nonzero;fill:rgb(0%,60.784316%,22.745098%);fill-opacity:1;stroke-width:0.754;stroke-linecap:butt;stroke-linejoin:miter;stroke:rgb(0%,0%,0%);stroke-opacity:1;stroke-miterlimit:4;" d="M 641.423437 317.074588 C 642.098437 317.321964 642.398438 319.324166 642.398438 319.324166 C 642.398438 319.324166 642.3375 318.180051 642.3375 317.615723 C 642.3375 317.047531 642.060938 314.91391 642.060938 314.91391 L 641.460938 315.342954 C 640.978125 315.775862 640.59375 316.316998 640.35 316.916112 C 640.715625 316.889055 641.08125 316.943169 641.423437 317.078453 " transform="matrix(0.833333,0,0,1.010606,0,0)"/>
</g>
</svg>
