<?xml version="1.0" encoding="UTF-8"?>
<svg xmlns="http://www.w3.org/2000/svg" xmlns:xlink="http://www.w3.org/1999/xlink" width="1000px" height="667px" viewBox="0 0 1000 667" version="1.1">
<g id="surface1">
<rect x="0" y="0" width="1000" height="667" style="fill:rgb(12.54902%,37.64706%,23.921569%);fill-opacity:1;stroke:none;"/>
<path style=" stroke:none;fill-rule:nonzero;fill:rgb(98.039216%,82.352942%,0.392157%);fill-opacity:1;" d="M 0 0 L 1000 0 L 1000 500.25 L 0 500.25 Z M 0 0 "/>
<path style=" stroke:none;fill-rule:nonzero;fill:rgb(0%,63.137257%,87.058824%);fill-opacity:1;" d="M 0 0 L 1000 0 L 1000 333.5 L 0 333.5 Z M 0 0 "/>
<path style=" stroke:none;fill-rule:nonzero;fill:rgb(89.803922%,74.509805%,0.392157%);fill-opacity:1;" d="M 928.332031 174.253906 L 853.882812 178.605469 L 924.671875 202.089844 L 851.628906 187.015625 L 913.929688 228.03125 L 847.277344 194.554688 L 896.847656 250.304688 L 841.125 200.710938 L 874.582031 267.398438 L 833.589844 205.066406 L 848.65625 278.144531 L 825.183594 207.320312 L 820.832031 281.808594 L 819.90625 173.328125 Z M 928.332031 174.253906 "/>
<path style=" stroke:none;fill-rule:nonzero;fill:rgb(89.803922%,74.509805%,0.392157%);fill-opacity:1;" d="M 928.332031 174.253906 L 853.882812 169.902344 L 924.671875 146.417969 L 851.628906 161.492188 L 913.929688 120.476562 L 847.277344 153.953125 L 896.847656 98.203125 L 841.125 147.796875 L 874.582031 81.109375 L 833.589844 143.441406 L 848.65625 70.363281 L 825.183594 141.1875 L 820.832031 66.699219 L 819.90625 175.179688 Z M 928.332031 174.253906 "/>
<path style=" stroke:none;fill-rule:nonzero;fill:rgb(89.803922%,74.509805%,0.392157%);fill-opacity:1;" d="M 713.332031 174.253906 L 787.785156 178.605469 L 716.996094 202.089844 L 790.039062 187.015625 L 727.734375 228.03125 L 794.386719 194.554688 L 744.820312 250.304688 L 800.542969 200.710938 L 767.082031 267.398438 L 808.078125 205.066406 L 793.011719 278.144531 L 816.484375 207.320312 L 820.832031 281.808594 L 821.757812 173.328125 Z M 713.332031 174.253906 "/>
<path style=" stroke:none;fill-rule:nonzero;fill:rgb(89.803922%,74.509805%,0.392157%);fill-opacity:1;" d="M 713.332031 174.253906 L 787.785156 169.902344 L 716.996094 146.417969 L 790.039062 161.492188 L 727.734375 120.476562 L 794.386719 153.953125 L 744.820312 98.203125 L 800.542969 147.796875 L 767.082031 81.109375 L 808.078125 143.441406 L 793.011719 70.363281 L 816.484375 141.1875 L 820.832031 66.699219 L 821.757812 175.179688 Z M 713.332031 174.253906 "/>
<path style="fill-rule:nonzero;fill:rgb(89.803922%,74.509805%,0.392157%);fill-opacity:1;stroke-width:3.4;stroke-linecap:butt;stroke-linejoin:miter;stroke:rgb(0%,63.137257%,87.058824%);stroke-opacity:1;stroke-miterlimit:4;" d="M 34.30125 0.000162562 C 34.30125 18.941317 18.945 34.298326 -0.00140625 34.298326 C -18.943594 34.298326 -34.299844 18.941317 -34.299844 0.000162562 C -34.299844 -18.945209 -18.943594 -34.298001 -0.00140625 -34.298001 C 18.945 -34.298001 34.30125 -18.945209 34.30125 0.000162562 Z M 34.30125 0.000162562 " transform="matrix(0.925926,0,0,0.926389,820.833333,174.253756)"/>
</g>
</svg>
