<?xml version="1.0" encoding="UTF-8"?>
<svg xmlns="http://www.w3.org/2000/svg" xmlns:xlink="http://www.w3.org/1999/xlink" width="1000px" height="667px" viewBox="0 0 1000 667" version="1.1">
<g id="surface1">
<rect x="0" y="0" width="1000" height="667" style="fill:rgb(0%,42.352942%,20.784314%);fill-opacity:1;stroke:none;"/>
<path style=" stroke:none;fill-rule:nonzero;fill:rgb(100%,100%,100%);fill-opacity:1;" d="M 707.679688 178.507812 C 713.34375 174.464844 718.617188 169.933594 724.921875 166.75 C 723.121094 173.976562 717.714844 179.488281 712.183594 184.140625 C 709.351562 186.34375 710.640625 190.386719 710.253906 193.449219 C 708.738281 193.097656 707.234375 192.6875 705.75 192.226562 C 707.164062 210.59375 709.222656 228.84375 710.125 247.214844 C 710.253906 249.296875 710.382812 251.5 712.183594 252.847656 C 720.675781 260.441406 729.425781 267.910156 735.601562 277.585938 C 738.046875 281.382812 739.335938 285.667969 740.621094 289.953125 C 741.996094 282.808594 742.210938 275.492188 741.265625 268.277344 C 738.179688 240.355469 735.390625 212.351562 732.902344 184.261719 C 732.644531 180.832031 732.128906 177.28125 732.515625 173.855469 C 732.953125 170.527344 735.855469 168.082031 739.207031 168.21875 C 740.972656 169.894531 742.335938 171.945312 743.195312 174.222656 C 745.769531 179.980469 748.085938 186.230469 747.441406 192.714844 C 745.898438 192.226562 744.355469 191.613281 742.679688 191 C 744.996094 209.984375 747.3125 228.964844 748.730469 248.070312 C 749.375 260.929688 751.304688 273.914062 748.601562 286.648438 C 746.285156 298.402344 740.488281 310.28125 730.199219 317.019531 C 721.578125 322.652344 711.539062 325.835938 701.503906 327.917969 C 697.453125 328.9375 693.21875 328.980469 689.148438 328.039062 C 693.394531 325.714844 698.15625 324 702.660156 322.039062 C 709.203125 319.34375 715.492188 316.066406 721.449219 312.242188 C 726.980469 308.566406 732.773438 304.890625 736.890625 299.503906 C 731.746094 285.789062 723.25 272.925781 711.15625 264.476562 C 711.542969 277.949219 712.183594 291.664062 710.125 305.015625 C 709.753906 308.121094 708.347656 311.011719 706.136719 313.21875 C 704.71875 307.585938 704.59375 301.707031 703.949219 295.953125 C 702.792969 283.429688 701.761719 270.894531 700.859375 258.355469 C 700.859375 255.78125 699.1875 253.824219 697.257812 252.351562 C 689.664062 245.980469 682.589844 238.878906 675.257812 232.265625 C 675.515625 239.980469 676.671875 247.574219 677.1875 255.164062 C 678.085938 265.453125 678.214844 275.738281 679.246094 286.027344 C 679.890625 293.253906 680.019531 300.847656 677.316406 307.703125 C 674.613281 314.195312 668.566406 319.710938 661.359375 320.199219 C 657.53125 320.484375 653.679688 320.28125 649.90625 319.585938 C 645.917969 318.972656 642.828125 315.917969 641.027344 312.480469 C 638.839844 308.316406 637.679688 303.664062 635.878906 299.378906 C 632.535156 300.113281 629.058594 300.847656 626.613281 303.417969 C 621.464844 308.316406 619.921875 315.789062 617.476562 322.15625 C 616.0625 325.953125 614.390625 330.117188 610.65625 332.199219 C 606.796875 334.402344 602.035156 333.546875 598.304688 331.464844 C 592.636719 328.402344 589.167969 322.523438 587.492188 316.523438 C 585.820312 311.871094 588.136719 306.480469 585.304688 302.070312 C 583.246094 298.03125 584.40625 293.253906 585.433594 289.089844 C 587.621094 281.621094 592.253906 275.25 597.789062 269.859375 L 575.789062 250.753906 C 576.429688 268.386719 577.847656 286.023438 575.53125 303.539062 C 575.25 307.078125 573.75 310.410156 571.285156 312.96875 C 570.507812 309.625 569.992188 306.226562 569.738281 302.800781 C 567.9375 283.453125 566.394531 264.101562 565.105469 244.753906 C 564.976562 242.546875 564.59375 240.097656 562.789062 238.628906 C 555.257812 231.476562 548.125 223.914062 541.429688 215.972656 C 537.566406 211.074219 533.578125 206.050781 531.519531 200.171875 C 530.746094 197.726562 530.105469 194.292969 532.421875 192.457031 C 535.0625 192.851562 537.601562 193.765625 539.882812 195.152344 C 544.214844 197.675781 548.160156 200.808594 551.59375 204.457031 C 553.023438 206.117188 554.039062 208.089844 554.554688 210.214844 C 552.367188 210.214844 550.308594 210.09375 548.121094 210.09375 C 552.488281 216.390625 557.683594 222.074219 563.5625 226.988281 C 563.050781 210.578125 561.246094 194.046875 560.476562 177.632812 C 560.476562 175.425781 560.476562 172.980469 562.019531 171.140625 C 563.4375 169.550781 565.625 168.9375 567.554688 168.203125 C 571.148438 173.488281 573.761719 179.378906 575.273438 185.59375 C 575.792969 188.089844 575.921875 190.648438 575.660156 193.183594 C 574.117188 192.820312 572.570312 192.328125 571.15625 191.839844 C 572.1875 205.1875 573.601562 218.414062 574.503906 231.761719 C 574.570312 233.664062 574.828125 235.550781 575.273438 237.394531 C 576.09375 238.601562 577.09375 239.675781 578.234375 240.582031 C 587.371094 248.296875 596.507812 256.011719 605.773438 263.480469 C 611.308594 258.703125 616.710938 253.808594 622.246094 249.152344 C 623.535156 248.148438 624.738281 247.042969 625.847656 245.847656 C 626.878906 244.746094 626.492188 243.152344 626.492188 241.804688 C 624.691406 225.761719 623.402344 209.71875 621.988281 193.671875 C 621.601562 187.792969 620.699219 182.035156 620.699219 176.277344 C 620.570312 172.851562 623.273438 169.421875 626.75 169.300781 C 628.292969 169.175781 628.9375 170.890625 629.707031 171.871094 C 632.304688 176.421875 634.214844 181.332031 635.375 186.445312 C 635.910156 188.953125 635.867188 191.550781 635.246094 194.035156 C 633.832031 193.425781 632.285156 192.691406 630.871094 192.078125 C 632.800781 207.140625 634.34375 222.203125 635.761719 237.269531 C 639.75 234.328125 643.351562 230.902344 647.085938 227.714844 C 651.203125 224.164062 655.578125 220.734375 659.566406 216.941406 C 654.804688 211.796875 649.789062 207.019531 644.898438 201.996094 C 641.8125 198.8125 638.078125 195.753906 636.789062 191.214844 C 635.757812 188.03125 636.402344 184.601562 637.046875 181.542969 C 642.835938 182.523438 647.855469 185.953125 652.492188 189.382812 C 655.625 191.875 658.59375 194.578125 661.371094 197.464844 C 661.113281 191.09375 660.339844 184.726562 659.824219 178.359375 C 659.824219 175.914062 659.566406 173.214844 661.242188 171.253906 C 662.65625 169.664062 664.84375 169.050781 666.644531 168.195312 C 670.242188 173.195312 672.824219 178.855469 674.238281 184.851562 C 674.898438 187.488281 675.117188 190.222656 674.882812 192.933594 C 673.335938 192.566406 671.660156 192.199219 670.121094 191.832031 C 670.636719 196.730469 671.148438 201.5 671.792969 206.402344 C 677.839844 201.875 683.375 196.734375 689.421875 192.199219 C 691.480469 190.238281 695.214844 188.769531 695.214844 185.339844 C 695.34375 181.664062 694.570312 177.867188 695.085938 174.195312 C 695.574219 170.914062 698.464844 168.53125 701.777344 168.683594 C 704.867188 171.625 706.023438 175.296875 707.695312 178.480469 Z M 676.28125 213.898438 C 675.25 215.003906 673.320312 215.980469 673.449219 217.820312 C 674.222656 219.410156 675.765625 220.636719 677.050781 221.984375 C 684.515625 228.71875 691.59375 235.824219 699.441406 241.945312 C 699.1875 234.71875 698.414062 227.617188 698.027344 220.390625 C 697.382812 212.796875 697.125 205.203125 696.355469 197.613281 C 689.40625 202.632812 683.101562 208.511719 676.28125 213.898438 Z M 657.363281 200.550781 C 659.03125 202.390625 660.585938 204.226562 662.253906 206.0625 C 662.253906 204.226562 662.125 202.390625 662.125 200.550781 Z M 639.347656 245.253906 C 638.058594 246.355469 636.515625 247.578125 636.644531 249.417969 C 636.515625 258.726562 637.546875 268.277344 635.230469 277.339844 C 634.714844 279.667969 633.042969 281.257812 631.367188 282.726562 C 629.308594 273.789062 629.179688 264.609375 627.636719 255.539062 C 622.101562 259.949219 616.828125 264.726562 611.679688 269.5 C 614.640625 272.808594 617.597656 276.359375 618.628906 280.890625 C 620.386719 287.320312 618.28125 294.1875 613.222656 298.527344 C 606.917969 303.792969 598.421875 304.648438 590.574219 305.628906 C 591.730469 310.773438 592.761719 316.164062 595.851562 320.570312 C 597.78125 323.144531 600.867188 325.59375 604.214844 324.613281 C 607.816406 323.632812 610.003906 320.203125 611.292969 317.019531 C 613.734375 310.472656 616.835938 304.195312 620.554688 298.28125 C 623.644531 293.382812 628.667969 289.339844 634.582031 289.21875 C 636.511719 289.339844 639.085938 288.730469 640.25 290.8125 C 642.820312 295.097656 643.722656 300.242188 646.941406 304.28125 C 652.34375 311.386719 663.796875 311.507812 670.230469 305.628906 C 672.421875 303.671875 672.421875 300.488281 672.164062 297.792969 C 669.203125 273.421875 667.015625 248.804688 664.441406 224.433594 C 655.820312 231.167969 647.710938 238.273438 639.347656 245.253906 Z M 593.921875 286.890625 C 592.570312 288.855469 591.609375 291.058594 591.089844 293.382812 C 596.902344 294.007812 602.761719 292.761719 607.820312 289.832031 C 609.363281 288.851562 611.164062 287.261719 610.777344 285.179688 C 610.390625 281.015625 606.917969 278.074219 603.828125 275.625 C 600.234375 279.113281 596.921875 282.882812 593.921875 286.890625 Z M 352.25 168.097656 C 353.792969 167.117188 355.207031 168.832031 356.238281 169.933594 C 359.328125 173.730469 362.671875 177.527344 364.472656 182.179688 C 362.929688 182.425781 361.257812 182.671875 359.714844 182.914062 C 360.097656 190.265625 366.277344 195.285156 368.078125 202.265625 C 369.339844 206.566406 369.515625 211.109375 368.59375 215.496094 C 367.277344 221.578125 362.472656 226.292969 356.371094 227.5 C 349.292969 228.722656 341.3125 227.011719 336.035156 221.746094 C 332.5625 218.316406 331.273438 213.417969 329.730469 209.007812 C 328.058594 215.011719 325.613281 220.765625 321.367188 225.417969 C 318.828125 228.105469 315.820312 230.308594 312.488281 231.910156 C 313.386719 248.320312 315.058594 264.730469 313.644531 281.019531 C 313.128906 285.671875 312.875 291.183594 308.625 294.25 C 307.082031 287.757812 306.824219 281.019531 306.050781 274.285156 C 304.636719 260.691406 303.609375 247.097656 302.191406 233.503906 C 298.203125 232.523438 293.828125 231.667969 290.738281 228.722656 C 285.589844 224.070312 283.917969 216.84375 284.304688 210.230469 C 284.433594 205.085938 286.105469 200.0625 287.265625 195.042969 C 285.320312 196.980469 283.824219 199.320312 282.890625 201.902344 C 280.1875 210.105469 278.386719 218.679688 274.652344 226.519531 C 273.277344 229.679688 270.523438 232.027344 267.191406 232.886719 C 263.070312 233.742188 258.179688 233.5 254.96875 230.316406 C 251.492188 226.886719 250.722656 221.742188 250.207031 217.085938 C 249.949219 212.304688 249.5625 207.164062 251.75 202.757812 C 253.039062 200.0625 255.738281 198.59375 258.058594 197.246094 C 256.511719 199.816406 254.710938 202.390625 254.324219 205.328125 C 253.808594 209.492188 254.582031 213.777344 255.351562 217.820312 C 255.867188 220.265625 256.382812 222.964844 258.3125 224.679688 C 261.472656 227.304688 266.085938 227.199219 269.125 224.433594 C 270.523438 222.648438 271.570312 220.609375 272.210938 218.429688 C 274.785156 210.59375 276.84375 202.511719 280.0625 194.917969 C 282.890625 188.546875 287.910156 182.300781 295.117188 180.953125 C 294.34375 189.648438 290.355469 197.734375 290.097656 206.550781 C 289.96875 210.472656 290.355469 214.757812 292.929688 217.820312 C 294.859375 220.390625 298.078125 221.246094 301.042969 222.105469 C 300.269531 210.226562 299.109375 198.347656 298.339844 186.34375 C 298.082031 181.933594 297.308594 177.402344 298.082031 172.996094 C 298.726562 169.933594 302.070312 168.832031 304.644531 167.851562 C 309.535156 175.078125 313.136719 183.648438 313.007812 192.46875 C 311.34375 192.101562 309.792969 191.734375 308.121094 191.367188 C 309.148438 201.53125 310.179688 211.820312 311.34375 221.980469 C 315.652344 220.71875 319.382812 217.988281 321.898438 214.265625 C 326.917969 207.042969 327.6875 197.609375 325.242188 189.285156 C 324.214844 185.730469 322.542969 182.425781 321.769531 178.75 C 320.992188 175.320312 323.441406 171.769531 326.53125 170.667969 C 327.945312 170.054688 328.589844 171.769531 329.230469 172.75 C 331.164062 176.914062 331.808594 181.566406 332.707031 186.097656 C 333.867188 192.101562 332.707031 198.347656 334.894531 204.101562 C 336.582031 209.125 340.003906 213.382812 344.546875 216.109375 C 348.332031 218.117188 352.695312 218.765625 356.898438 217.945312 C 359.003906 217.5 360.65625 215.875 361.148438 213.78125 C 362.175781 209.863281 360.761719 205.820312 359.085938 202.269531 C 355.226562 194.1875 350.464844 186.472656 348.664062 177.652344 C 348.019531 174.46875 348.921875 170.058594 352.269531 168.101562 Z M 352.25 168.097656 "/>
<path style=" stroke:none;fill-rule:nonzero;fill:rgb(100%,100%,100%);fill-opacity:1;" d="M 528.933594 177.53125 C 531.476562 173.394531 535.195312 170.113281 539.617188 168.101562 C 538.351562 171.023438 536.796875 173.8125 534.984375 176.429688 C 533.695312 178.390625 533.695312 180.839844 533.566406 183.042969 C 536.523438 182.90625 539.457031 182.453125 542.316406 181.695312 C 541.546875 184.023438 540.773438 186.476562 538.585938 187.941406 C 536.140625 189.65625 532.539062 190.761719 529.964844 188.675781 C 527.269531 185.566406 526.851562 181.085938 528.933594 177.53125 Z M 369.363281 172.136719 C 370.652344 170.179688 373.097656 169.445312 375.03125 168.582031 C 378.882812 173.84375 381.601562 179.847656 383.011719 186.21875 C 383.503906 188.636719 383.546875 191.128906 383.140625 193.566406 C 381.722656 193.074219 380.179688 192.585938 378.761719 192.097656 C 380.429688 203.976562 382.496094 215.730469 383.910156 227.613281 C 390.730469 224.304688 397.035156 220.261719 404.113281 217.324219 C 406.324219 216.378906 408.667969 215.800781 411.0625 215.609375 C 410.164062 217.570312 409.132812 219.527344 407.074219 220.390625 C 399.609375 224.1875 392.019531 227.492188 384.683594 231.65625 C 385.328125 237.535156 385.96875 243.539062 386.742188 249.414062 C 390.085938 245.128906 393.046875 239.746094 398.835938 238.394531 C 399.09375 241.578125 398.066406 245.375 400.382812 247.945312 C 403.984375 250.761719 408.875 249.046875 412.222656 246.476562 C 411.964844 241.824219 413.25 237.289062 414.152344 232.757812 C 415.566406 233.371094 417.367188 233.617188 417.882812 235.332031 C 419.429688 239.617188 419.042969 244.394531 417.882812 248.679688 C 416.726562 253.578125 412.738281 257.253906 408.359375 259.457031 C 405.660156 260.804688 402.3125 261.539062 399.351562 260.316406 C 396.265625 259.09375 394.335938 256.152344 392.277344 253.578125 C 390.472656 257.988281 387.511719 262.027344 387.386719 267.050781 C 386.71875 277.566406 382.910156 287.636719 376.449219 295.953125 C 365.511719 310.285156 348.78125 318.855469 331.792969 323.878906 C 322.015625 326.570312 311.847656 329.023438 301.554688 328.53125 C 295.949219 328.539062 290.441406 327.058594 285.59375 324.246094 C 283.535156 322.898438 281.734375 321.0625 279.675781 319.835938 C 277.101562 319.347656 274.398438 320.082031 271.699219 320.082031 C 265.261719 320.328125 258.828125 320.570312 252.523438 319.46875 C 260.246094 316.898438 268.09375 314.9375 275.6875 312.121094 C 273.609375 298.242188 276.335938 284.070312 283.410156 271.953125 C 285.34375 268.839844 287.679688 266 290.359375 263.503906 C 288.171875 267.910156 285.46875 272.199219 284.308594 277.097656 C 281.582031 287.394531 281.757812 298.246094 284.824219 308.445312 C 290.101562 306.730469 295.246094 304.40625 300.269531 302.199219 C 311.980469 297.058594 323.433594 291.546875 334.113281 284.441406 C 338.101562 281.625 342.222656 278.6875 344.921875 274.402344 C 346.207031 272.316406 345.953125 269.871094 345.953125 267.542969 C 340.417969 268.644531 335.011719 271.214844 329.222656 271.09375 C 325.621094 270.847656 321.757812 270.113281 319.1875 267.296875 C 316.613281 264.480469 316.484375 260.4375 316.996094 256.886719 C 317.628906 252.109375 319.960938 247.71875 323.558594 244.519531 C 327.808594 240.964844 334.117188 241.089844 339.003906 243.292969 C 343.765625 245.5 346.46875 250.152344 348.78125 254.5625 C 355.988281 251.867188 360.878906 245.5 367.957031 242.4375 C 368.214844 246.113281 367.828125 250.398438 370.65625 253.335938 C 372.332031 255.417969 375.164062 255.296875 377.480469 255.542969 C 377.09375 249.664062 376.191406 243.90625 375.421875 238.152344 C 372.976562 218.917969 370.53125 199.578125 368.472656 180.222656 C 368.34375 177.40625 367.957031 174.46875 369.371094 172.140625 Z M 325.355469 255.785156 C 324.710938 257.132812 326.253906 257.988281 327.285156 258.480469 C 331.144531 259.828125 335.394531 258.96875 339.382812 258.234375 C 337.320312 256.03125 334.875 253.582031 331.53125 253.453125 C 329.34375 253.332031 326.253906 253.453125 325.355469 255.78125 Z M 353.40625 263.746094 C 353.664062 267.664062 353.792969 271.582031 352.507812 275.257812 C 350.449219 281.503906 345.6875 286.527344 340.796875 290.6875 C 331.402344 298.40625 320.335938 303.425781 309.65625 309.058594 C 304.796875 311.789062 299.769531 314.203125 294.597656 316.285156 C 301.160156 316.773438 307.722656 315.671875 314.15625 315.183594 C 324.0625 314.570312 333.585938 311.753906 342.722656 308.078125 C 352.246094 304.160156 361.511719 299.140625 368.972656 291.792969 C 373.625 287.398438 376.964844 281.804688 378.625 275.625 C 379.25 272.523438 379.550781 269.363281 379.527344 266.195312 C 375.664062 266.074219 371.546875 266.195312 368.074219 264.234375 C 365.242188 262.644531 363.699219 259.582031 362.027344 256.886719 C 359.355469 259.417969 356.472656 261.714844 353.402344 263.746094 Z M 458.027344 171.769531 C 459.445312 170.179688 462.019531 170.425781 463.695312 171.527344 C 467.445312 174.070312 469.59375 178.390625 469.363281 182.914062 C 469.078125 184.902344 468.515625 186.839844 467.6875 188.671875 C 467.175781 185.855469 467.304688 182.914062 466.023438 180.34375 C 464.09375 177.648438 460.488281 177.160156 458.171875 174.957031 C 457.257812 174.21875 456.871094 172.507812 458.027344 171.769531 Z M 458.027344 171.769531 "/>
<path style=" stroke:none;fill-rule:nonzero;fill:rgb(100%,100%,100%);fill-opacity:1;" d="M 510.789062 173.242188 C 511.046875 171.527344 512.71875 169.6875 514.523438 170.667969 C 519.542969 173.113281 523.144531 177.773438 525.460938 182.792969 C 523.660156 182.792969 521.855469 182.671875 520.183594 182.550781 C 521.003906 185.972656 522.078125 189.328125 523.402344 192.589844 C 525.332031 197.246094 528.035156 201.652344 528.804688 206.796875 C 529.707031 212.429688 528.679688 218.804688 524.6875 223.085938 C 517.222656 231.414062 502.296875 229.945312 495.863281 221.003906 C 493.417969 217.820312 492.132812 214.144531 490.84375 210.347656 C 488.785156 218.433594 484.410156 226.269531 477.074219 230.433594 C 469.425781 234.824219 459.953125 234.492188 452.628906 229.578125 C 448.1875 226.789062 445.4375 221.960938 445.296875 216.71875 C 444.78125 209.125 447.742188 202.019531 448.769531 194.671875 C 446.847656 196.457031 445.390625 198.6875 444.523438 201.164062 C 441.4375 209.367188 440.148438 218.1875 435.773438 225.902344 C 433.714844 229.570312 430.242188 232.882812 425.867188 233.25 C 421.617188 233.496094 416.984375 231.902344 414.542969 228.230469 C 412.351562 224.800781 411.839844 220.636719 411.839844 216.59375 C 411.917969 210.417969 413.417969 204.34375 416.214844 198.835938 C 416.214844 206.550781 413.898438 215.003906 417.757812 222.230469 C 419.6875 226.269531 424.835938 228.597656 428.824219 226.390625 C 432.429688 224.1875 434.101562 220.023438 435.386719 216.226562 C 438.089844 208.144531 440.921875 199.9375 444.910156 192.347656 C 446.578125 189.285156 448.386719 186.101562 451.214844 183.898438 C 452.632812 182.675781 454.691406 182.675781 456.492188 182.304688 C 456.878906 189.164062 453.019531 195.164062 451.730469 201.777344 C 450.445312 207.535156 450.058594 214.394531 454.175781 219.167969 C 458.808594 224.191406 466.527344 225.414062 472.964844 223.699219 C 481.84375 220.882812 488.277344 211.945312 488.664062 202.636719 C 488.921875 197.125 489.179688 191.125 486.21875 186.226562 C 484.933594 183.652344 482.488281 180.957031 483.515625 177.777344 C 484.265625 174.6875 486.339844 172.089844 489.183594 170.671875 C 491.265625 173.667969 492.632812 177.105469 493.171875 180.714844 C 494.203125 189.164062 494.328125 197.859375 497.289062 205.945312 C 499.09375 210.597656 501.792969 215.375 506.554688 217.578125 C 510.929688 219.660156 516.332031 220.152344 520.582031 217.945312 C 523.285156 216.597656 523.929688 213.292969 523.285156 210.597656 C 521.484375 201.78125 515.4375 194.800781 512.605469 186.351562 C 511.058594 182.0625 509.902344 177.65625 510.800781 173.246094 Z M 597.265625 171.402344 C 599.96875 170.179688 603.828125 171.160156 605.117188 173.976562 C 605.464844 175.273438 604.878906 176.640625 603.699219 177.28125 C 601.867188 176.792969 600.097656 176.09375 598.425781 175.199219 C 596.238281 179.363281 595.078125 184.019531 593.792969 188.671875 C 593.023438 186.394531 591.988281 184.214844 590.703125 182.179688 C 588.902344 179.734375 586.070312 178.507812 584.011719 176.300781 C 583.367188 174.34375 585.679688 172.136719 587.617188 172.75 C 590.445312 173.609375 592.117188 176.179688 593.792969 178.507812 C 594.5625 175.9375 594.949219 172.875 597.265625 171.402344 Z M 251.101562 181.691406 C 253.289062 177.039062 257.535156 173.609375 262.171875 171.402344 C 261.011719 174.464844 259.082031 177.039062 257.535156 179.851562 C 256.25 181.8125 256.378906 184.261719 256.25 186.464844 C 259.273438 186.207031 262.253906 185.589844 265.128906 184.628906 C 264.230469 186.957031 263.328125 189.527344 261.140625 191.117188 C 258.824219 192.835938 255.347656 193.8125 252.90625 192.097656 C 250.074219 189.648438 249.554688 185.121094 251.101562 181.691406 Z M 251.101562 181.691406 "/>
<path style=" stroke:none;fill-rule:nonzero;fill:rgb(100%,100%,100%);fill-opacity:1;" d="M 415.691406 175.445312 C 416.464844 171.402344 422.511719 171.527344 424.441406 174.589844 C 425.730469 176.792969 426.371094 179.121094 427.660156 181.324219 C 428.816406 183.527344 430.234375 185.855469 429.460938 188.425781 C 428.300781 192.46875 425.34375 195.652344 424.957031 199.9375 C 426.371094 199.328125 427.789062 198.589844 429.203125 197.855469 C 428.816406 200.0625 429.203125 203 426.886719 204.226562 C 424.054688 205.574219 420.582031 202.878906 420.839844 199.816406 C 421.222656 194.304688 426.628906 190.019531 424.957031 184.140625 C 419.550781 191.367188 412.085938 197.859375 402.949219 199.207031 C 406.941406 196.019531 411.445312 193.816406 415.046875 190.144531 C 417.214844 187.847656 419.035156 185.246094 420.453125 182.425781 C 418.523438 180.46875 415.175781 178.628906 415.691406 175.445312 Z M 419.421875 175.078125 C 420.277344 176.382812 421.425781 177.472656 422.769531 178.261719 C 422.238281 176.71875 420.992188 175.53125 419.421875 175.078125 Z M 387.125 178.015625 C 389.054688 177.527344 391.371094 176.792969 392.914062 178.507812 C 397.628906 182.910156 399.636719 189.488281 398.191406 195.777344 C 397.160156 193.449219 396.390625 190.996094 395.230469 188.792969 C 393.300781 184.628906 389.054688 182.179688 387.117188 178.011719 Z M 345.6875 180.589844 C 347.613281 182.566406 348.515625 185.324219 348.132812 188.058594 C 345.042969 188.550781 341.953125 189.40625 338.867188 190.140625 C 338.03125 190.335938 337.152344 190.1875 336.425781 189.726562 C 335.699219 189.265625 335.1875 188.535156 335.003906 187.695312 C 335.054688 185.867188 335.355469 184.050781 335.90625 182.308594 C 336.550781 184.144531 337.191406 185.976562 337.835938 187.941406 C 338.609375 187.574219 339.511719 187.328125 340.28125 186.960938 L 340.28125 181.941406 L 342.082031 181.941406 C 342.339844 183.410156 342.597656 185 342.855469 186.472656 C 343.882812 186.347656 344.785156 186.226562 345.8125 186.101562 C 345.6875 184.265625 345.6875 182.429688 345.6875 180.59375 Z M 607.046875 184.628906 C 609.558594 183.9375 612.160156 183.605469 614.769531 183.652344 C 613.5625 185.171875 612.023438 186.386719 610.265625 187.203125 C 601.382812 190.753906 592.246094 193.324219 583.753906 197.855469 C 584.527344 199.449219 585.300781 200.917969 586.070312 202.511719 C 584.011719 202.144531 581.566406 202.144531 580.023438 200.429688 C 579.304688 199.757812 578.90625 198.8125 578.929688 197.828125 C 578.953125 196.84375 579.398438 195.917969 580.152344 195.285156 C 581.585938 194.277344 583.140625 193.453125 584.785156 192.839844 C 592.117188 190.144531 599.449219 187.082031 607.046875 184.632812 Z M 472.570312 191 C 473.585938 190.21875 474.664062 189.523438 475.792969 188.917969 C 475.664062 192.222656 476.820312 195.164062 478.238281 198.101562 C 479.652344 201.042969 478.496094 205.203125 475.019531 205.941406 C 472.058594 206.921875 469.351562 205.082031 467.300781 203.367188 C 465.625 204.839844 463.824219 206.796875 461.378906 206.429688 C 456.875 206.183594 454.6875 200.917969 455.589844 197 C 455.972656 194.429688 458.035156 192.835938 459.835938 191.242188 C 459.578125 193.9375 458.546875 196.632812 459.191406 199.328125 C 459.707031 201.164062 461.894531 201.164062 463.4375 201.773438 C 463.953125 198.832031 464.082031 195.769531 464.851562 192.707031 C 465.109375 191.117188 467.042969 190.996094 468.074219 190.261719 C 468.332031 192.835938 468.203125 195.40625 468.976562 197.855469 C 469.621094 199.691406 471.808594 200.300781 473.351562 201.164062 C 474.125 197.609375 472.578125 194.304688 472.578125 190.996094 Z M 339 195.652344 C 340.929688 195.652344 343.246094 195.285156 344.792969 196.875 C 349.328125 201.28125 351.1875 207.757812 349.679688 213.898438 C 348.136719 209.859375 346.847656 205.449219 343.503906 202.386719 C 341.445312 200.550781 339.382812 198.46875 339 195.652344 Z M 605.375 211.085938 C 606.328125 210.054688 607.410156 209.148438 608.589844 208.390625 C 608.707031 211.386719 609.5 214.316406 610.90625 216.960938 C 612.195312 219.65625 612.195312 223.941406 608.976562 225.167969 C 606.019531 226.515625 602.929688 224.921875 600.484375 223.207031 C 598.554688 224.679688 596.238281 226.515625 593.535156 225.78125 C 589.546875 224.921875 587.867188 220.269531 588.515625 216.59375 C 588.773438 213.898438 591.089844 212.1875 592.890625 210.472656 C 592.503906 213.289062 591.347656 216.105469 592.117188 218.921875 C 592.761719 220.757812 594.949219 220.390625 596.496094 220.757812 C 597.007812 217.574219 596.753906 214.265625 598.039062 211.328125 C 599.027344 210.609375 600.109375 210.035156 601.253906 209.613281 C 601.382812 212.429688 600.871094 215.492188 602.285156 218.0625 C 603.1875 219.652344 605.117188 219.777344 606.660156 220.265625 C 606.53125 217.207031 605.632812 214.144531 605.375 211.082031 Z M 712.3125 215.492188 C 711.972656 214.582031 712.113281 213.5625 712.679688 212.777344 C 713.25 211.988281 714.171875 211.539062 715.140625 211.574219 C 718.363281 211.574219 720.808594 214.269531 722.347656 216.839844 C 725.050781 222.105469 726.335938 228.472656 724.152344 234.109375 C 722.992188 229.085938 723.121094 222.71875 718.484375 219.410156 C 716.425781 218.1875 713.980469 217.453125 712.308594 215.492188 Z M 534.597656 226.515625 C 536.097656 224.972656 538.3125 224.363281 540.386719 224.921875 C 542.960938 227.367188 542.445312 231.78125 540.386719 234.351562 C 536.65625 239.25 530.480469 241.578125 524.429688 241.578125 C 528.164062 239.375 532.410156 238.148438 535.753906 235.332031 C 537.300781 234.230469 537.042969 232.148438 537.300781 230.433594 C 535.496094 230.679688 533.695312 231.046875 532.023438 231.292969 C 532.703125 229.609375 533.566406 228.003906 534.597656 226.511719 Z M 621.074219 230.3125 C 622.230469 230.066406 623.777344 229.332031 624.546875 230.554688 C 623.648438 233.496094 620.558594 234.71875 618.113281 235.945312 C 608.847656 240.230469 599.839844 245.007812 590.703125 249.660156 C 590.316406 248.804688 589.804688 248.070312 589.417969 247.214844 C 594.5625 243.417969 600.226562 240.601562 605.761719 237.542969 C 610.90625 234.972656 615.796875 232.15625 621.074219 230.320312 Z M 446.703125 237.539062 C 446.960938 235.699219 448.25 234.351562 449.277344 233.003906 C 456.355469 240.722656 462.40625 249.660156 465.621094 259.828125 C 468.710938 269.496094 469.480469 279.667969 471.414062 289.585938 C 472.441406 294.609375 473.34375 299.875 476.6875 303.914062 C 478.875 306.730469 482.09375 308.445312 485.183594 310.160156 C 485.824219 306.976562 486.597656 303.546875 489.558594 301.714844 C 498.5625 295.710938 508.988281 292.042969 519.285156 288.730469 C 510.917969 288.488281 502.425781 288.730469 494.0625 288.609375 C 487.242188 288.488281 480.421875 289.097656 473.726562 287.875 C 473.984375 285.300781 473.984375 282.609375 475.527344 280.28125 C 478.617188 275.136719 484.023438 272.199219 489.171875 269.503906 C 496.910156 265.359375 505.0625 262.035156 513.492188 259.585938 C 511.304688 257.257812 507.957031 254.683594 508.859375 250.890625 C 510.402344 246.480469 514.261719 242.070312 519.152344 242.191406 C 524.558594 242.191406 529.835938 244.398438 534.464844 247.09375 C 537.296875 248.929688 540.773438 250.890625 541.800781 254.316406 C 541.507812 256.75 540.523438 259.042969 538.96875 260.929688 C 536.007812 264.605469 530.734375 264.359375 526.359375 264.851562 C 526.101562 267.789062 525.714844 271.339844 522.753906 272.6875 C 521.867188 270.378906 520.921875 268.09375 519.921875 265.828125 C 509.242188 267.789062 499.71875 273.300781 491.355469 279.914062 C 515.035156 280.035156 538.582031 279.425781 562.261719 279.546875 C 563.804688 279.667969 565.347656 279.789062 566.894531 280.035156 C 565.863281 286.28125 559.558594 289.34375 554.027344 290.691406 C 542.828125 293.136719 531.632812 295.34375 520.4375 297.550781 C 512.074219 299.265625 503.578125 301.222656 495.992188 305.019531 C 493.167969 306.503906 490.738281 308.644531 488.914062 311.265625 C 494.480469 313.222656 500.207031 314.699219 506.027344 315.675781 C 507.957031 316.164062 510.660156 316.53125 511.175781 318.859375 C 511.945312 321.921875 512.074219 326.207031 509.113281 328.167969 C 505.382812 329.023438 501.523438 328.167969 497.792969 327.554688 C 487.496094 325.960938 477.585938 320.574219 471.667969 311.753906 C 467.164062 305.386719 465.875 297.425781 464.71875 289.832031 C 461.875 294.082031 458.601562 298.023438 454.941406 301.589844 C 444.902344 311.019531 432.808594 317.878906 420.195312 323.390625 C 415.820312 325.351562 410.285156 325.960938 405.910156 323.269531 C 402.824219 321.429688 401.664062 317.632812 400.378906 314.449219 C 388.667969 320.453125 376.699219 326.207031 363.703125 328.65625 C 355.738281 330.265625 347.636719 331.082031 339.511719 331.101562 C 343.757812 329.019531 348.132812 327.429688 352.378906 325.714844 C 366.535156 319.835938 380.429688 313.222656 394.070312 306.117188 C 395.746094 305.140625 397.804688 304.28125 398.960938 302.691406 C 400.246094 299.136719 400.375 295.34375 402.308594 291.914062 C 404.382812 287.863281 407.546875 284.46875 411.441406 282.113281 C 409 287.503906 406.425781 293.015625 405.652344 298.894531 C 413.984375 293.96875 421.714844 288.089844 428.6875 281.378906 C 430.488281 279.421875 433.0625 276.96875 432.035156 274.03125 C 430.746094 269.867188 428.558594 266.195312 427.015625 262.152344 C 424.699219 256.273438 421.867188 250.144531 422.511719 243.660156 C 422.640625 241.578125 424.179688 239.984375 425.214844 238.394531 C 430.878906 242.0625 434.480469 248.066406 437.695312 253.824219 C 436.539062 254.070312 435.25 254.3125 434.09375 254.558594 C 436.28125 260.5625 439.882812 265.949219 440.914062 272.316406 C 441.824219 277.316406 440.402344 282.457031 437.050781 286.277344 C 428.300781 295.707031 417.496094 302.8125 407.324219 310.527344 C 409.128906 311.507812 411.058594 312.855469 413.246094 312.730469 C 417.492188 312.609375 421.609375 311.140625 425.46875 309.546875 C 439.625 303.300781 451.207031 292.890625 463.171875 283.21875 C 460.214844 271.703125 454.9375 260.929688 449.402344 250.394531 C 447.203125 246.488281 446.261719 242 446.699219 237.535156 Z M 515.039062 252.722656 C 516.449219 254.722656 518.421875 256.257812 520.703125 257.132812 C 524.179688 257.867188 527.523438 255.785156 530.097656 253.582031 C 526.875 251.136719 523.148438 249.171875 519.03125 249.171875 C 517.101562 249.171875 515.042969 250.765625 515.042969 252.722656 Z M 269.632812 237.539062 C 269.683594 235.925781 270.984375 234.636719 272.59375 234.597656 C 276.96875 234.109375 280.058594 237.660156 282.757812 240.476562 C 284.175781 241.945312 285.332031 243.90625 284.433594 245.988281 C 283.917969 248.3125 281.210938 248.191406 279.414062 248.683594 C 275.554688 248.925781 274.007812 253.089844 271.050781 254.925781 C 265.128906 258.96875 257.792969 262.152344 250.457031 261.175781 C 252.261719 258.601562 255.222656 257.5 258.050781 256.644531 C 263.328125 254.925781 267.574219 251.132812 271.4375 247.210938 C 270.40625 244.027344 269.117188 240.84375 269.632812 237.539062 Z M 272.078125 238.027344 C 272.269531 240.183594 272.925781 242.273438 274.007812 244.152344 C 274.792969 242.417969 275.519531 240.660156 276.195312 238.882812 C 274.839844 238.527344 273.464844 238.242188 272.078125 238.027344 Z M 277.867188 245.988281 C 279.285156 245.863281 280.699219 245.621094 282.113281 245.5 C 281.902344 243.644531 281.425781 241.828125 280.699219 240.109375 C 278.898438 241.457031 278.640625 243.90625 277.867188 245.988281 Z M 277.867188 245.988281 "/>
<path style=" stroke:none;fill-rule:nonzero;fill:rgb(100%,100%,100%);fill-opacity:1;" d="M 488.140625 238.515625 C 489.03125 237.605469 490.078125 236.859375 491.230469 236.3125 C 491.230469 240.597656 494.316406 243.90625 494.703125 248.070312 C 495.089844 252.355469 489.558594 254.5625 486.210938 252.601562 C 485.183594 251.867188 484.28125 251.007812 483.378906 250.273438 C 481.578125 251.867188 479.648438 254.191406 476.945312 253.582031 C 472.828125 252.847656 470.640625 248.070312 471.414062 244.152344 C 471.800781 241.457031 473.984375 239.742188 475.917969 238.148438 C 475.53125 240.71875 474.628906 243.167969 474.886719 245.863281 C 475.144531 247.824219 477.332031 248.4375 478.875 249.292969 C 479.746094 246.25 480.347656 243.136719 480.679688 239.984375 C 480.9375 238.269531 482.996094 238.027344 484.152344 237.167969 C 484.28125 239.742188 484.152344 242.433594 484.925781 244.882812 C 485.695312 246.597656 487.496094 247.457031 488.914062 248.4375 C 490.457031 245.128906 488.269531 241.824219 488.140625 238.515625 Z M 282.757812 254.191406 C 284.945312 253.214844 287.261719 251.988281 289.707031 251.746094 C 292.023438 251.625 293.183594 255.175781 291.375 256.644531 C 288.671875 258.726562 285.457031 259.585938 282.367188 260.933594 C 275.160156 264.359375 267.953125 267.667969 260.878906 271.464844 C 259.332031 272.445312 257.402344 272.199219 255.730469 271.953125 C 256.691406 269.800781 258.253906 267.972656 260.234375 266.6875 C 267.703125 262.152344 275.167969 257.988281 282.757812 254.191406 Z M 553.382812 257.988281 C 553.898438 255.542969 556.730469 255.171875 558.789062 254.4375 C 559.304688 257.988281 559.691406 261.664062 561.878906 264.601562 C 560.71875 264.726562 559.5625 264.847656 558.53125 264.96875 C 556.988281 267.296875 555.316406 269.871094 552.742188 271.09375 C 548.496094 273.175781 543.734375 273.175781 539.101562 272.929688 C 543.988281 271.582031 550.039062 271.214844 553.257812 266.808594 C 555.445312 264.234375 553.128906 260.929688 553.382812 257.988281 Z M 650.542969 261.539062 C 651.1875 259.582031 653.503906 259.582031 655.175781 259.828125 C 658.777344 260.4375 661.351562 263.5 663.667969 266.074219 C 665.464844 267.726562 665.738281 270.460938 664.3125 272.441406 C 661.996094 274.277344 658.261719 273.175781 656.199219 275.625 C 650.023438 282.726562 640.503906 287.261719 630.980469 286.28125 C 632.78125 283.707031 635.738281 282.605469 638.699219 281.75 C 643.976562 280.035156 648.09375 276.113281 651.953125 272.316406 C 650.925781 268.890625 649.382812 265.214844 650.539062 261.539062 Z M 652.988281 263.011719 C 653.242188 265.226562 653.761719 267.40625 654.53125 269.5 C 655.484375 267.832031 656.261719 266.066406 656.847656 264.234375 C 655.5625 263.746094 654.144531 263.378906 652.988281 263.011719 Z M 660.449219 265.703125 C 659.714844 267.453125 659.113281 269.253906 658.648438 271.09375 C 660.0625 270.972656 661.480469 270.726562 662.894531 270.605469 C 662.621094 268.882812 662.144531 267.195312 661.480469 265.582031 C 661.222656 265.582031 660.707031 265.703125 660.449219 265.703125 Z M 407.070312 265.339844 C 409.515625 263.011719 413.890625 264.234375 415.433594 267.050781 C 416.207031 268.644531 414.535156 269.871094 413.890625 271.09375 C 412.65625 270.230469 411.3125 269.53125 409.902344 269.011719 C 408.613281 268.644531 408.226562 270.113281 407.839844 270.972656 C 406.296875 274.640625 405.527344 278.566406 404.367188 282.359375 C 403.644531 280.007812 402.652344 277.75 401.40625 275.625 C 399.863281 273.421875 397.289062 272.195312 395.359375 270.359375 C 393.558594 268.890625 395.488281 265.703125 397.546875 266.074219 C 400.507812 266.441406 402.308594 269.132812 404.367188 271.09375 C 405.140625 269.132812 405.65625 266.929688 407.070312 265.339844 Z M 252.390625 286.648438 C 254.933594 282.511719 258.652344 279.226562 263.070312 277.21875 C 261.804688 280.179688 260.253906 283.007812 258.4375 285.667969 C 257.152344 287.625 257.152344 289.953125 257.023438 292.15625 C 260.011719 291.992188 262.980469 291.582031 265.902344 290.933594 C 265.128906 293.261719 264.234375 295.832031 262.042969 297.179688 C 259.597656 298.773438 256.121094 299.996094 253.546875 297.914062 C 250.824219 294.777344 250.363281 290.273438 252.390625 286.648438 Z M 457.769531 305.507812 C 459.957031 305.140625 462.535156 304.160156 464.464844 305.753906 C 465.449219 306.410156 466.101562 307.460938 466.25 308.636719 C 466.398438 309.8125 466.027344 310.996094 465.234375 311.875 C 462.535156 313.34375 459.058594 312.488281 456.742188 314.570312 C 457.128906 317.753906 459.574219 320.328125 460.085938 323.386719 C 460.214844 325.347656 458.671875 326.941406 457.773438 328.53125 C 457.128906 325.46875 456.613281 322.164062 454.941406 319.46875 C 453.910156 317.511719 452.367188 315.550781 452.882812 313.222656 C 453.398438 310.652344 456.101562 309.425781 458.027344 308.203125 C 457.867188 307.3125 457.78125 306.410156 457.769531 305.507812 Z M 556.472656 309.304688 C 557.503906 306.730469 559.949219 305.507812 562.140625 304.160156 C 561.238281 306.242188 559.695312 308.324219 559.4375 310.652344 C 560.464844 312.488281 562.140625 313.835938 563.042969 315.796875 C 563.296875 318.980469 558.664062 319.46875 556.992188 317.511719 C 555.0625 315.304688 555.324219 311.875 556.476562 309.304688 Z M 532.667969 305.753906 C 536.269531 304.53125 540.128906 305.753906 543.347656 307.589844 C 541.03125 312.371094 535.625 313.59375 531.636719 316.527344 C 531.785156 317.171875 531.871094 317.828125 531.894531 318.488281 C 534.726562 318.613281 537.6875 318.980469 540.128906 317.511719 C 543.308594 315.679688 546.730469 314.320312 550.296875 313.46875 C 547.464844 315.914062 544.761719 318.367188 541.933594 320.695312 C 538.585938 323.386719 533.953125 323.386719 529.964844 322.285156 C 528.035156 321.675781 525.589844 319.957031 526.230469 317.503906 C 527.261719 314.445312 530.351562 312.851562 532.796875 311.015625 C 530.992188 310.890625 529.320312 310.769531 527.519531 310.644531 C 528.933594 308.691406 530.222656 306.242188 532.667969 305.753906 Z M 625.964844 314.449219 C 625.425781 313.710938 625.304688 312.75 625.644531 311.902344 C 625.984375 311.054688 626.738281 310.441406 627.636719 310.285156 C 631.109375 309.671875 634.070312 312.488281 635.617188 315.304688 C 637.820312 319.285156 637.914062 324.097656 635.871094 328.164062 C 635.230469 325.347656 635.230469 322.410156 633.8125 319.835938 C 631.882812 317.265625 628.28125 316.773438 625.964844 314.449219 Z M 684.257812 316.285156 C 689.019531 314.570312 693.78125 312.367188 698.925781 312.855469 C 697.890625 314.800781 696.207031 316.320312 694.164062 317.140625 C 686.1875 320.082031 678.078125 322.777344 670.226562 326.082031 C 667.746094 327.195312 665.160156 328.058594 662.507812 328.652344 C 662.25 327.917969 661.863281 327.183594 661.605469 326.449219 C 668.8125 322.285156 676.535156 319.347656 684.253906 316.285156 Z M 668.707031 473.601562 L 629.070312 473.601562 L 629.070312 469.839844 C 630.859375 468.292969 633.292969 466.191406 633.292969 464.976562 C 633.292969 462.875 628.308594 458.5625 627.15625 458.5625 C 625.875 458.5625 621.019531 462.984375 621.019531 464.976562 C 621.019531 466.304688 623.191406 468.183594 624.980469 469.730469 L 625.109375 469.839844 L 625.109375 473.710938 L 312.5 473.710938 C 323.625 484.769531 340.117188 484.660156 373.230469 484.988281 C 402.765625 485.433594 402.636719 485.433594 624.980469 484.988281 L 624.980469 488.972656 C 623.1875 490.519531 621.015625 492.621094 621.015625 493.835938 C 621.015625 495.9375 625.746094 500.25 627.152344 500.25 C 628.046875 500.25 630.988281 497.816406 632.523438 495.714844 L 646.203125 495.714844 C 647.097656 497.265625 649.144531 498.148438 651.570312 498.148438 C 653.65625 498.28125 655.667969 497.371094 656.941406 495.714844 L 673.308594 495.714844 C 675.011719 497.457031 677.402344 498.351562 679.828125 498.148438 C 686.09375 497.925781 687.496094 494.722656 687.496094 483.664062 C 687.367188 474.375 681.101562 473.378906 668.699219 473.601562 Z M 671.519531 492.289062 L 656.941406 492.289062 C 655.625 490.679688 653.652344 489.746094 651.574219 489.746094 C 649.492188 489.746094 647.523438 490.679688 646.203125 492.289062 L 632.777344 492.289062 C 631.769531 490.964844 630.5625 489.808594 629.199219 488.859375 L 629.199219 484.878906 L 671.640625 484.878906 C 670.835938 487.277344 670.792969 489.867188 671.519531 492.289062 Z M 671.519531 492.289062 "/>
</g>
</svg>
