<?xml version="1.0" encoding="UTF-8"?>
<svg xmlns="http://www.w3.org/2000/svg" xmlns:xlink="http://www.w3.org/1999/xlink" width="1000px" height="667px" viewBox="0 0 1000 667" version="1.1">
<g id="surface1">
<path style=" stroke:none;fill-rule:nonzero;fill:rgb(92.941177%,16.078432%,22.352941%);fill-opacity:1;" d="M 0 0 L 1000 0 L 1000 333.5 L 0 333.5 Z M 0 0 "/>
<path style=" stroke:none;fill-rule:nonzero;fill:rgb(100%,100%,100%);fill-opacity:1;" d="M 0 333.5 L 1000 333.5 L 1000 667 L 0 667 Z M 0 333.5 "/>
<path style=" stroke:none;fill-rule:nonzero;fill:rgb(100%,100%,100%);fill-opacity:1;" d="M 342.980469 166.75 C 342.980469 236.011719 286.859375 292.160156 217.632812 292.160156 C 148.40625 292.160156 92.285156 236.011719 92.285156 166.75 C 92.285156 97.488281 148.40625 41.339844 217.632812 41.339844 C 286.859375 41.339844 342.980469 97.488281 342.980469 166.75 Z M 342.980469 166.75 "/>
<path style=" stroke:none;fill-rule:nonzero;fill:rgb(92.941177%,16.078432%,22.352941%);fill-opacity:1;" d="M 382.371094 166.75 C 382.371094 232.203125 329.335938 285.265625 263.910156 285.265625 C 198.488281 285.265625 145.453125 232.203125 145.453125 166.75 C 145.453125 101.296875 198.488281 48.234375 263.910156 48.234375 C 329.335938 48.234375 382.371094 101.296875 382.371094 166.75 Z M 382.371094 166.75 "/>
<path style=" stroke:none;fill-rule:nonzero;fill:rgb(100%,100%,100%);fill-opacity:1;" d="M 233.148438 169.777344 L 216.117188 156.707031 L 199.09375 169.78125 L 205.648438 148.707031 L 188.566406 135.71875 L 209.644531 135.761719 L 216.113281 114.65625 L 222.585938 135.757812 L 243.664062 135.707031 L 226.585938 148.703125 Z M 233.148438 169.777344 "/>
<path style=" stroke:none;fill-rule:nonzero;fill:rgb(100%,100%,100%);fill-opacity:1;" d="M 366.753906 169.777344 L 349.726562 156.707031 L 332.703125 169.78125 L 339.257812 148.707031 L 322.175781 135.71875 L 343.253906 135.761719 L 349.722656 114.65625 L 356.195312 135.757812 L 377.273438 135.707031 L 360.195312 148.703125 Z M 366.753906 169.777344 "/>
<path style=" stroke:none;fill-rule:nonzero;fill:rgb(100%,100%,100%);fill-opacity:1;" d="M 300.019531 120.164062 L 282.992188 107.097656 L 265.96875 120.171875 L 272.523438 99.097656 L 255.441406 86.105469 L 276.519531 86.152344 L 282.984375 65.046875 L 289.457031 86.148438 L 310.535156 86.097656 L 293.457031 99.09375 Z M 300.019531 120.164062 "/>
<path style=" stroke:none;fill-rule:nonzero;fill:rgb(100%,100%,100%);fill-opacity:1;" d="M 258.148438 249.15625 L 241.117188 236.085938 L 224.09375 249.160156 L 230.648438 228.085938 L 213.566406 215.097656 L 234.644531 215.140625 L 241.113281 194.039062 L 247.585938 215.140625 L 268.664062 215.085938 L 251.585938 228.082031 Z M 258.148438 249.15625 "/>
<path style=" stroke:none;fill-rule:nonzero;fill:rgb(100%,100%,100%);fill-opacity:1;" d="M 341.753906 249.15625 L 324.726562 236.085938 L 307.703125 249.160156 L 314.257812 228.085938 L 297.175781 215.097656 L 318.253906 215.140625 L 324.722656 194.039062 L 331.195312 215.140625 L 352.273438 215.085938 L 335.195312 228.082031 Z M 341.753906 249.15625 "/>
</g>
</svg>
