<?xml version="1.0" encoding="UTF-8"?>
<svg xmlns="http://www.w3.org/2000/svg" xmlns:xlink="http://www.w3.org/1999/xlink" width="1000px" height="667px" viewBox="0 0 1000 667" version="1.1">
<g id="surface1">
<rect x="0" y="0" width="1000" height="667" style="fill:rgb(93.333334%,10.980392%,14.509805%);fill-opacity:1;stroke:none;"/>
<path style=" stroke:none;fill-rule:nonzero;fill:rgb(4.313726%,30.588236%,63.529414%);fill-opacity:1;" d="M 0 0 L 1000 0 L 1000 444.667969 L 0 444.667969 Z M 0 0 "/>
<path style=" stroke:none;fill-rule:nonzero;fill:rgb(100%,100%,100%);fill-opacity:1;" d="M 0 0 L 1000 0 L 1000 222.332031 L 0 222.332031 Z M 0 0 "/>
<path style=" stroke:none;fill-rule:nonzero;fill:rgb(100%,100%,100%);fill-opacity:1;" d="M 437.199219 156.746094 L 162.621094 156.746094 L 161.679688 165.703125 C 161.472656 167.652344 156.667969 214.585938 156.667969 317.65625 C 156.667969 366.085938 173.027344 408.8125 205.300781 444.644531 C 227.910156 469.75 257.4375 490.886719 295.570312 509.261719 L 299.902344 511.355469 L 304.242188 509.261719 C 342.375 490.886719 371.910156 469.75 394.515625 444.644531 C 426.785156 408.808594 443.148438 366.085938 443.148438 317.65625 C 443.148438 214.585938 438.339844 167.652344 438.136719 165.703125 Z M 437.199219 156.746094 "/>
<path style=" stroke:none;fill-rule:nonzero;fill:rgb(93.333334%,10.980392%,14.509805%);fill-opacity:1;" d="M 299.90625 500.25 C 245.085938 473.832031 166.667969 421.390625 166.667969 317.65625 C 166.667969 213.925781 171.625 166.75 171.625 166.75 L 428.195312 166.75 C 428.195312 166.75 433.15625 213.925781 433.15625 317.65625 C 433.15625 421.390625 354.734375 473.832031 299.90625 500.25 Z M 299.90625 500.25 "/>
<path style=" stroke:none;fill-rule:nonzero;fill:rgb(100%,100%,100%);fill-opacity:1;" d="M 311.648438 290.460938 C 326.492188 290.699219 355.453125 291.28125 381.242188 282.648438 C 381.242188 282.648438 380.5625 291.882812 380.5625 302.636719 C 380.5625 313.390625 381.242188 322.625 381.242188 322.625 C 357.589844 314.707031 328.375 314.542969 311.648438 314.753906 L 311.648438 372.046875 L 288.203125 372.046875 L 288.203125 314.753906 C 271.476562 314.542969 242.265625 314.707031 218.609375 322.625 C 218.609375 322.625 219.292969 313.394531 219.292969 302.636719 C 219.292969 291.878906 218.609375 282.648438 218.609375 282.648438 C 244.398438 291.28125 273.359375 290.699219 288.203125 290.460938 L 288.203125 254.476562 C 274.675781 254.359375 255.179688 255.003906 233.132812 262.386719 C 233.132812 262.386719 233.816406 253.152344 233.816406 242.394531 C 233.816406 231.636719 233.132812 222.40625 233.132812 222.40625 C 255.144531 229.773438 274.617188 230.433594 288.144531 230.316406 C 287.449219 207.527344 280.8125 178.808594 280.8125 178.808594 C 280.8125 178.808594 294.464844 179.875 299.921875 179.875 C 305.378906 179.875 319.035156 178.808594 319.035156 178.808594 C 319.035156 178.808594 312.402344 207.527344 311.699219 230.3125 C 325.226562 230.429688 344.699219 229.773438 366.710938 222.40625 C 366.710938 222.40625 366.027344 231.636719 366.027344 242.394531 C 366.027344 253.148438 366.710938 262.382812 366.710938 262.382812 C 344.667969 255.003906 325.171875 254.355469 311.640625 254.476562 L 311.640625 290.460938 Z M 311.648438 290.460938 "/>
<path style=" stroke:none;fill-rule:nonzero;fill:rgb(4.313726%,30.588236%,63.529414%);fill-opacity:1;" d="M 299.890625 365.84375 C 272.277344 365.84375 257.484375 404.160156 257.484375 404.160156 C 251.523438 392.753906 239.613281 385.710938 226.75 385.992188 C 211.507812 385.992188 200.273438 399.554688 193.132812 412.117188 C 220.867188 456.25 265.109375 483.492188 299.886719 500.25 C 334.671875 483.492188 378.945312 456.261719 406.679688 412.117188 C 399.539062 399.554688 388.304688 385.992188 373.0625 385.992188 C 360.191406 385.71875 348.273438 392.753906 342.292969 404.160156 C 342.292969 404.160156 327.503906 365.84375 299.890625 365.84375 Z M 299.890625 365.84375 "/>
</g>
</svg>
