<?xml version="1.0" encoding="UTF-8"?>
<svg xmlns="http://www.w3.org/2000/svg" xmlns:xlink="http://www.w3.org/1999/xlink" width="1000px" height="667px" viewBox="0 0 1000 667" version="1.1">
<g id="surface1">
<path style=" stroke:none;fill-rule:nonzero;fill:rgb(0%,52.156866%,24.705882%);fill-opacity:1;" d="M 0 0 L 333.332031 0 L 333.332031 667 L 0 667 Z M 0 0 "/>
<path style=" stroke:none;fill-rule:nonzero;fill:rgb(99.215686%,93.725491%,25.882354%);fill-opacity:1;" d="M 333.332031 0 L 666.667969 0 L 666.667969 667 L 333.332031 667 Z M 333.332031 0 "/>
<path style=" stroke:none;fill-rule:nonzero;fill:rgb(89.019608%,10.588235%,13.725491%);fill-opacity:1;" d="M 666.667969 0 L 1000 0 L 1000 667 L 666.667969 667 Z M 666.667969 0 "/>
<path style=" stroke:none;fill-rule:nonzero;fill:rgb(0%,52.156866%,24.705882%);fill-opacity:1;" d="M 500 222.332031 L 465.664062 328.058594 L 518.5 345.234375 Z M 500 222.332031 "/>
<path style=" stroke:none;fill-rule:nonzero;fill:rgb(0%,52.156866%,24.705882%);fill-opacity:1;" d="M 500 222.332031 L 534.335938 328.058594 L 481.5 345.234375 Z M 500 222.332031 "/>
<path style=" stroke:none;fill-rule:nonzero;fill:rgb(0%,52.156866%,24.705882%);fill-opacity:1;" d="M 605.671875 299.148438 L 494.5625 299.148438 L 494.5625 354.730469 Z M 605.671875 299.148438 "/>
<path style=" stroke:none;fill-rule:nonzero;fill:rgb(0%,52.156866%,24.705882%);fill-opacity:1;" d="M 605.671875 299.148438 L 515.78125 364.488281 L 483.128906 319.523438 Z M 605.671875 299.148438 "/>
<path style=" stroke:none;fill-rule:nonzero;fill:rgb(0%,52.156866%,24.705882%);fill-opacity:1;" d="M 565.308594 423.4375 L 530.972656 317.710938 L 478.136719 334.886719 Z M 565.308594 423.4375 "/>
<path style=" stroke:none;fill-rule:nonzero;fill:rgb(0%,52.156866%,24.705882%);fill-opacity:1;" d="M 565.308594 423.4375 L 475.417969 358.09375 L 508.074219 313.125 Z M 565.308594 423.4375 "/>
<path style=" stroke:none;fill-rule:nonzero;fill:rgb(0%,52.156866%,24.705882%);fill-opacity:1;" d="M 434.691406 423.4375 L 524.582031 358.09375 L 491.925781 313.125 Z M 434.691406 423.4375 "/>
<path style=" stroke:none;fill-rule:nonzero;fill:rgb(0%,52.156866%,24.705882%);fill-opacity:1;" d="M 434.691406 423.4375 L 469.027344 317.710938 L 521.863281 334.886719 Z M 434.691406 423.4375 "/>
<path style=" stroke:none;fill-rule:nonzero;fill:rgb(0%,52.156866%,24.705882%);fill-opacity:1;" d="M 394.328125 299.148438 L 484.21875 364.488281 L 516.871094 319.523438 Z M 394.328125 299.148438 "/>
<path style=" stroke:none;fill-rule:nonzero;fill:rgb(0%,52.156866%,24.705882%);fill-opacity:1;" d="M 394.328125 299.148438 L 505.4375 299.148438 L 505.4375 354.730469 Z M 394.328125 299.148438 "/>
</g>
</svg>
