<?xml version="1.0" encoding="UTF-8"?>
<svg xmlns="http://www.w3.org/2000/svg" xmlns:xlink="http://www.w3.org/1999/xlink" width="1000px" height="667px" viewBox="0 0 1000 667" version="1.1">
<g id="surface1">
<rect x="0" y="0" width="1000" height="667" style="fill:rgb(25.490198%,53.725493%,86.666667%);fill-opacity:1;stroke:none;"/>
<path style=" stroke:none;fill-rule:nonzero;fill:rgb(100%,100%,100%);fill-opacity:1;" d="M 500 172.917969 L 450.40625 325.636719 L 526.726562 350.445312 Z M 500 172.917969 "/>
<path style=" stroke:none;fill-rule:nonzero;fill:rgb(100%,100%,100%);fill-opacity:1;" d="M 500 172.917969 L 549.59375 325.636719 L 473.273438 350.445312 Z M 500 172.917969 "/>
<path style=" stroke:none;fill-rule:nonzero;fill:rgb(100%,100%,100%);fill-opacity:1;" d="M 652.644531 283.878906 L 492.152344 283.878906 L 492.152344 364.164062 Z M 652.644531 283.878906 "/>
<path style=" stroke:none;fill-rule:nonzero;fill:rgb(100%,100%,100%);fill-opacity:1;" d="M 652.644531 283.878906 L 522.800781 378.261719 L 475.632812 313.304688 Z M 652.644531 283.878906 "/>
<path style=" stroke:none;fill-rule:nonzero;fill:rgb(100%,100%,100%);fill-opacity:1;" d="M 347.355469 283.878906 L 477.199219 378.261719 L 524.367188 313.304688 Z M 347.355469 283.878906 "/>
<path style=" stroke:none;fill-rule:nonzero;fill:rgb(100%,100%,100%);fill-opacity:1;" d="M 347.355469 283.878906 L 507.847656 283.878906 L 507.847656 364.164062 Z M 347.355469 283.878906 "/>
<path style=" stroke:none;fill-rule:nonzero;fill:rgb(100%,100%,100%);fill-opacity:1;" d="M 594.339844 463.414062 L 544.742188 310.699219 L 468.425781 335.507812 Z M 594.339844 463.414062 "/>
<path style=" stroke:none;fill-rule:nonzero;fill:rgb(100%,100%,100%);fill-opacity:1;" d="M 594.339844 463.410156 L 464.5 369.027344 L 511.667969 304.074219 Z M 594.339844 463.410156 "/>
<path style=" stroke:none;fill-rule:nonzero;fill:rgb(100%,100%,100%);fill-opacity:1;" d="M 405.660156 463.410156 L 535.5 369.027344 L 488.332031 304.074219 Z M 405.660156 463.410156 "/>
<path style=" stroke:none;fill-rule:nonzero;fill:rgb(100%,100%,100%);fill-opacity:1;" d="M 405.660156 463.414062 L 455.257812 310.699219 L 531.574219 335.507812 Z M 405.660156 463.414062 "/>
</g>
</svg>
