<?xml version="1.0" encoding="UTF-8"?>
<svg xmlns="http://www.w3.org/2000/svg" xmlns:xlink="http://www.w3.org/1999/xlink" width="1000px" height="667px" viewBox="0 0 1000 667" version="1.1">
<g id="surface1">
<rect x="0" y="0" width="1000" height="667" style="fill:rgb(7.058824%,67.843139%,16.862746%);fill-opacity:1;stroke:none;"/>
<path style=" stroke:none;fill-rule:nonzero;fill:rgb(100%,80.784315%,0%);fill-opacity:1;" d="M 0 190.570312 L 1000 190.570312 L 1000 476.429688 L 0 476.429688 Z M 0 190.570312 "/>
<path style=" stroke:none;fill-rule:nonzero;fill:rgb(82.352942%,6.27451%,20.392157%);fill-opacity:1;" d="M 0 0 L 0 667 L 250 333.5 "/>
<path style=" stroke:none;fill-rule:nonzero;fill:rgb(0%,0%,0%);fill-opacity:1;" d="M 500 238.214844 L 477.925781 328.835938 L 511.894531 343.558594 "/>
<path style=" stroke:none;fill-rule:nonzero;fill:rgb(0%,0%,0%);fill-opacity:1;" d="M 500 238.214844 L 522.074219 328.835938 L 488.105469 343.558594 "/>
<path style=" stroke:none;fill-rule:nonzero;fill:rgb(0%,0%,0%);fill-opacity:1;" d="M 567.933594 304.054688 L 496.503906 304.054688 L 496.503906 351.699219 "/>
<path style=" stroke:none;fill-rule:nonzero;fill:rgb(0%,0%,0%);fill-opacity:1;" d="M 567.933594 304.054688 L 510.144531 360.0625 L 489.152344 321.519531 "/>
<path style=" stroke:none;fill-rule:nonzero;fill:rgb(0%,0%,0%);fill-opacity:1;" d="M 541.984375 410.585938 L 519.910156 319.964844 L 485.945312 334.6875 "/>
<path style=" stroke:none;fill-rule:nonzero;fill:rgb(0%,0%,0%);fill-opacity:1;" d="M 541.984375 410.585938 L 484.199219 354.582031 L 505.191406 316.035156 "/>
<path style=" stroke:none;fill-rule:nonzero;fill:rgb(0%,0%,0%);fill-opacity:1;" d="M 458.015625 410.585938 L 515.800781 354.582031 L 494.808594 316.035156 "/>
<path style=" stroke:none;fill-rule:nonzero;fill:rgb(0%,0%,0%);fill-opacity:1;" d="M 458.015625 410.585938 L 480.089844 319.964844 L 514.054688 334.6875 "/>
<path style=" stroke:none;fill-rule:nonzero;fill:rgb(0%,0%,0%);fill-opacity:1;" d="M 432.066406 304.054688 L 489.855469 360.0625 L 510.847656 321.519531 "/>
<path style=" stroke:none;fill-rule:nonzero;fill:rgb(0%,0%,0%);fill-opacity:1;" d="M 432.066406 304.054688 L 503.496094 304.054688 L 503.496094 351.699219 "/>
<path style=" stroke:none;fill-rule:nonzero;fill:rgb(0%,0%,0%);fill-opacity:1;" d="M 750 238.214844 L 727.925781 328.835938 L 761.894531 343.558594 "/>
<path style=" stroke:none;fill-rule:nonzero;fill:rgb(0%,0%,0%);fill-opacity:1;" d="M 750 238.214844 L 772.074219 328.835938 L 738.105469 343.558594 "/>
<path style=" stroke:none;fill-rule:nonzero;fill:rgb(0%,0%,0%);fill-opacity:1;" d="M 817.933594 304.054688 L 746.503906 304.054688 L 746.503906 351.699219 "/>
<path style=" stroke:none;fill-rule:nonzero;fill:rgb(0%,0%,0%);fill-opacity:1;" d="M 817.933594 304.054688 L 760.144531 360.0625 L 739.152344 321.519531 "/>
<path style=" stroke:none;fill-rule:nonzero;fill:rgb(0%,0%,0%);fill-opacity:1;" d="M 791.984375 410.585938 L 769.910156 319.964844 L 735.945312 334.6875 "/>
<path style=" stroke:none;fill-rule:nonzero;fill:rgb(0%,0%,0%);fill-opacity:1;" d="M 791.984375 410.585938 L 734.199219 354.582031 L 755.191406 316.035156 "/>
<path style=" stroke:none;fill-rule:nonzero;fill:rgb(0%,0%,0%);fill-opacity:1;" d="M 708.015625 410.585938 L 765.800781 354.582031 L 744.808594 316.035156 "/>
<path style=" stroke:none;fill-rule:nonzero;fill:rgb(0%,0%,0%);fill-opacity:1;" d="M 708.015625 410.585938 L 730.089844 319.964844 L 764.054688 334.6875 "/>
<path style=" stroke:none;fill-rule:nonzero;fill:rgb(0%,0%,0%);fill-opacity:1;" d="M 682.066406 304.054688 L 739.855469 360.0625 L 760.847656 321.519531 "/>
<path style=" stroke:none;fill-rule:nonzero;fill:rgb(0%,0%,0%);fill-opacity:1;" d="M 682.066406 304.054688 L 753.496094 304.054688 L 753.496094 351.699219 "/>
</g>
</svg>
