<?xml version="1.0" encoding="UTF-8"?>
<svg xmlns="http://www.w3.org/2000/svg" xmlns:xlink="http://www.w3.org/1999/xlink" width="1000px" height="667px" viewBox="0 0 1000 667" version="1.1">
<g id="surface1">
<path style=" stroke:none;fill-rule:nonzero;fill:rgb(86.274511%,9.019608%,11.372549%);fill-opacity:1;" d="M 0 0 L 442.328125 333.855469 L 1000 333.855469 L 1000 0 Z M 0 0 "/>
<path style="fill-rule:nonzero;fill:rgb(100%,100%,100%);fill-opacity:1;stroke-width:1;stroke-linecap:butt;stroke-linejoin:miter;stroke:rgb(100%,100%,100%);stroke-opacity:1;stroke-miterlimit:4;" d="M 0 0 L 299.003906 225.745818 L 0 450 Z M 0 0 " transform="matrix(1.481481,0,0,1.482222,0,0)"/>
<path style=" stroke:none;fill-rule:nonzero;fill:rgb(0.392157%,16.470589%,52.941179%);fill-opacity:1;" d="M 0 667 L 442.328125 333.855469 L 1000 333.855469 L 1000 667 Z M 0 667 "/>
<path style=" stroke:none;fill-rule:nonzero;fill:rgb(100%,100%,0%);fill-opacity:1;" d="M 223.449219 252.402344 L 223.585938 247.238281 C 223.585938 247.238281 220.8125 242.820312 224.03125 238.078125 C 224.03125 238.078125 217.195312 234.460938 218.789062 228.796875 C 218.789062 228.796875 212.609375 227.214844 213.0625 220.414062 C 213.0625 220.414062 206.394531 219.953125 205.703125 214.273438 C 205.703125 214.273438 199.035156 215.371094 196.097656 209.835938 C 196.097656 209.835938 189.59375 211.109375 187.757812 206.546875 C 187.757812 206.546875 181.433594 208.738281 177.679688 203.375 C 177.679688 203.375 171.003906 206.074219 168.203125 201.011719 C 165.441406 206.058594 158.765625 203.375 158.765625 203.375 C 155.054688 208.71875 148.6875 206.5 148.6875 206.5 C 146.914062 211.082031 140.429688 209.785156 140.429688 209.785156 C 137.503906 215.320312 130.84375 214.21875 130.84375 214.21875 C 130.1875 219.882812 123.527344 220.34375 123.527344 220.34375 C 124.054688 227.164062 117.886719 228.707031 117.886719 228.707031 C 119.511719 234.371094 112.6875 237.976562 112.6875 237.976562 C 115.988281 242.75 113.242188 247.132812 113.242188 247.132812 L 113.089844 251.894531 L 223.46875 252.40625 "/>
<path style="fill-rule:nonzero;fill:rgb(97.647059%,85.09804%,5.882353%);fill-opacity:1;stroke-width:0.271;stroke-linecap:butt;stroke-linejoin:miter;stroke:rgb(0%,0%,0%);stroke-opacity:1;stroke-miterlimit:4;" d="M 377.174335 843.107983 L 377.26593 839.649403 C 377.26593 839.649403 375.407869 836.693128 377.564266 833.514479 C 377.564266 833.514479 372.987157 831.091904 374.05227 827.298454 C 374.05227 827.298454 369.912197 826.238904 370.215768 821.686764 C 370.215768 821.686764 365.748571 821.37544 365.285365 817.571525 C 365.285365 817.571525 360.818168 818.309286 358.852811 814.60217 C 358.852811 814.60217 354.492912 815.452426 353.262928 812.396737 C 353.262928 812.396737 349.026026 813.864409 346.513719 810.272405 C 346.513719 810.272405 342.038672 812.08018 340.164909 808.689621 C 338.312083 812.069715 333.839652 810.272405 333.839652 810.272405 C 331.356132 813.851328 327.087827 812.367959 327.087827 812.367959 C 325.899715 815.434113 321.555517 814.565543 321.555517 814.565543 C 319.595394 818.27266 315.133432 817.534899 315.133432 817.534899 C 314.693778 821.328349 310.231815 821.639673 310.231815 821.639673 C 310.585109 826.204894 306.452887 827.240898 306.452887 827.240898 C 307.54417 831.031732 302.972294 833.449075 302.972294 833.449075 C 305.181031 836.643421 303.341289 839.578766 303.341289 839.578766 L 303.239227 842.76788 L 377.18742 843.110599 L 377.176952 843.110599 Z M 377.174335 843.107983 " transform="matrix(1.492652,0,0,1.493117,-339.540744,-1006.46001)"/>
<path style=" stroke:none;fill-rule:nonzero;fill:rgb(86.274511%,9.019608%,11.372549%);fill-opacity:1;" d="M 220.867188 245.957031 C 203.53125 244.21875 183.570312 240.101562 168.160156 248.785156 C 157.828125 242.691406 143.441406 243.066406 131.195312 244.257812 C 124.542969 245.445312 116.722656 245.445312 109.769531 246.585938 L 108.679688 246.738281 C 96.070312 247.574219 84.628906 243.847656 73.671875 238.949219 C 77.152344 258.707031 81.011719 278.957031 82.914062 299.644531 C 87.046875 330.285156 68.417969 356.007812 76.0625 386.277344 C 80.625 400.796875 96.585938 409.242188 111.195312 410.917969 C 125.34375 411.75 139.980469 414.070312 153.078125 416.914062 C 155.566406 417.433594 158.519531 418.589844 160.238281 419.332031 C 163.84375 420.84375 166.488281 423.058594 168.804688 425.433594 C 176.710938 417.195312 188.292969 414.90625 199.722656 413.695312 C 220.324219 411.289062 245.71875 412.597656 258.332031 393.929688 L 258.332031 392.875 C 265.183594 382.550781 264.273438 366.796875 261.300781 355.097656 C 261.101562 351.019531 260.011719 347.417969 259.421875 343.527344 C 246.835938 310.28125 257.613281 272.890625 263.03125 239.375 C 256.414062 242.992188 249.035156 244.703125 241.675781 246.511719 C 235.808594 247.292969 229.265625 246.9375 223.324219 246.617188 L 220.859375 245.957031 M 246.765625 341.375 "/>
<path style=" stroke:none;fill-rule:nonzero;fill:rgb(38.431373%,68.627453%,88.235295%);fill-opacity:1;" d="M 246.765625 341.375 C 246.679688 343.5625 247.863281 345.285156 248.289062 347.308594 C 250.699219 361.84375 253.027344 381.09375 238.070312 390.109375 C 221.523438 400.632812 199.824219 396.128906 180.679688 401.699219 C 176.855469 402.761719 171.585938 406.28125 168.894531 408.769531 C 167.167969 407.632812 165.433594 405.886719 163.207031 404.863281 C 147.453125 396.480469 126.972656 399.289062 109.191406 394.761719 C 100.257812 391.9375 90.945312 384.976562 88.683594 375.828125 C 82.867188 351.835938 96.796875 331.386719 95.152344 307.582031 C 94.089844 289.402344 91.035156 271.953125 86.835938 254.910156 C 100.742188 261.390625 116.832031 262.46875 132.460938 259.363281 C 144.035156 257.746094 157.511719 257.710938 168.359375 262.609375 C 174.335938 260.035156 181.335938 258.882812 187.777344 258.171875 C 200.027344 259.363281 213.191406 261.582031 225.804688 261.488281 C 234.226562 261.050781 241.878906 258.617188 249.203125 255.371094 C 244.859375 283.539062 236.515625 313.046875 246.757812 341.375 "/>
<path style=" stroke:none;fill-rule:nonzero;fill:rgb(100%,100%,100%);fill-opacity:1;" d="M 221.757812 346.988281 L 221.621094 320.503906 L 224.882812 320.503906 L 184.414062 294.355469 L 184.339844 280.765625 L 188.25 280.765625 L 168.011719 266.269531 L 147.878906 280.757812 L 151.773438 280.757812 L 151.847656 294.335938 L 111.597656 320.449219 L 114.8125 320.46875 L 114.949219 346.9375 L 221.75 347.011719 "/>
<path style="fill:none;stroke-width:1.164;stroke-linecap:butt;stroke-linejoin:miter;stroke:rgb(0%,0%,0%);stroke-opacity:1;stroke-miterlimit:4;" d="M 376.04118 906.458594 L 375.952203 888.71833 L 378.134769 888.71833 L 351.022787 871.205673 L 350.973064 862.10401 L 353.592668 862.10401 L 340.03406 852.395394 L 326.546111 862.098777 L 329.155246 862.098777 L 329.204969 871.192592 L 302.236921 888.681704 L 304.393318 888.694785 L 304.484913 906.421968 L 376.035946 906.471675 Z M 376.04118 906.458594 " transform="matrix(1.492652,0,0,1.493117,-339.540744,-1006.46001)"/>
<path style=" stroke:none;fill-rule:nonzero;fill:rgb(100%,100%,100%);fill-opacity:1;" d="M 234.195312 381.785156 L 234.207031 390.074219 L 103.828125 389.929688 L 103.773438 381.675781 L 234.207031 381.785156 "/>
<path style="fill:none;stroke-width:1.164;stroke-linecap:butt;stroke-linejoin:miter;stroke:rgb(0%,0%,0%);stroke-opacity:1;stroke-miterlimit:4;" d="M 384.376283 929.760841 L 384.381517 935.312358 L 297.034351 935.21556 L 296.997714 929.687588 L 384.384134 929.760841 Z M 384.376283 929.760841 " transform="matrix(1.492652,0,0,1.493117,-339.540744,-1006.46001)"/>
<path style=" stroke:none;fill-rule:nonzero;fill:rgb(100%,100%,100%);fill-opacity:1;" d="M 112.488281 381.285156 L 112.378906 353.234375 L 117.65625 353.222656 L 117.367188 381.601562 L 117.683594 353.453125 L 110.078125 353.234375 L 110.078125 347.214844 L 226.601562 347.34375 L 226.65625 353.308594 L 219.472656 353.308594 L 219.605469 381.710938 L 219.351562 353.308594 L 224.703125 353.308594 L 224.820312 381.390625 "/>
<path style="fill:none;stroke-width:1.164;stroke-linecap:butt;stroke-linejoin:miter;stroke:rgb(0%,0%,0%);stroke-opacity:1;stroke-miterlimit:4;" d="M 302.836211 929.425971 L 302.762935 910.639238 L 306.301101 910.634005 L 306.104827 929.637881 L 306.316803 910.785743 L 301.224147 910.639238 L 301.224147 906.610332 L 379.286244 906.696666 L 379.322881 910.688945 L 374.510243 910.688945 L 374.59922 929.711133 L 374.429116 910.688945 L 378.014388 910.688945 L 378.092898 929.499223 M 319.618947 924.800578 L 319.56399 911.698787 L 309.082958 911.698787 L 309.143149 924.787497 L 319.618947 924.800578 M 319.618947 924.800578 L 319.56399 911.698787 L 309.082958 911.698787 L 309.143149 924.787497 L 319.618947 924.800578 M 319.618947 924.800578 L 319.56399 911.698787 L 309.082958 911.698787 L 309.143149 924.787497 L 319.618947 924.800578 M 319.618947 924.800578 L 319.56399 911.698787 L 309.082958 911.698787 L 309.143149 924.787497 L 319.618947 924.800578 M 319.618947 924.800578 L 319.56399 911.698787 L 309.082958 911.698787 L 309.143149 924.787497 L 319.618947 924.800578 M 311.938091 914.432687 L 311.966878 922.040516 L 316.763814 922.040516 L 316.740261 914.432687 L 311.938091 914.432687 M 370.862163 924.837204 L 370.801973 911.748495 L 360.354962 911.73803 L 360.404685 924.837204 L 370.862163 924.837204 M 363.181307 914.479778 L 363.236264 922.066678 L 368.02535 922.066678 L 367.983478 914.479778 L 363.181307 914.479778 M 370.783654 903.504936 L 370.720846 890.405761 L 360.263367 890.405761 L 360.300005 903.504936 L 370.788888 903.504936 Z M 363.100181 893.163207 L 363.131585 900.760571 L 367.923287 900.760571 L 367.915436 893.163207 L 363.100181 893.163207 M 319.535203 903.457845 L 319.461928 890.382216 L 308.996598 890.369135 L 309.04632 903.449996 L 319.535203 903.449996 Z M 311.85173 893.116116 L 311.875283 900.700399 L 316.677454 900.710864 L 316.640816 893.116116 L 311.85173 893.116116 M 338.503123 903.48139 L 338.4534 890.405761 L 327.982836 890.39268 L 328.024708 903.478774 L 338.503123 903.478774 M 330.824884 893.12658 L 330.851054 900.710864 L 335.64799 900.737026 L 335.616586 893.12658 L 330.824884 893.12658 M 353.124228 903.504936 L 353.050952 890.405761 L 342.588239 890.39268 L 342.635345 903.478774 L 353.124228 903.504936 M 345.435521 893.139661 L 345.472158 900.750106 L 350.269095 900.750106 L 350.245542 893.139661 L 345.435521 893.139661 " transform="matrix(1.492652,0,0,1.493117,-339.540744,-1006.46001)"/>
<path style=" stroke:none;fill-rule:nonzero;fill:rgb(100%,100%,100%);fill-opacity:1;" d="M 191.417969 336.582031 L 191.59375 381.671875 L 146.316406 381.597656 L 146.152344 336.546875 L 191.410156 336.582031 "/>
<path style="fill:none;stroke-width:1.164;stroke-linecap:butt;stroke-linejoin:miter;stroke:rgb(0%,0%,0%);stroke-opacity:1;stroke-miterlimit:4;" d="M 355.717661 899.489111 L 355.832809 929.687588 L 325.499316 929.637881 L 325.389402 899.46295 L 355.70981 899.489111 Z M 325.206213 908.106783 L 355.746448 908.132945 M 325.206213 908.106783 L 355.746448 908.132945 M 325.206213 908.106783 L 355.746448 908.132945 M 325.206213 908.106783 L 355.746448 908.132945 M 325.206213 908.106783 L 355.746448 908.132945 M 329.019163 929.674507 L 328.914484 908.331774 M 352.142857 929.687588 L 352.040795 908.357935 M 366.790132 886.625392 L 349.70906 874.151483 L 330.516079 874.127937 L 313.568473 886.578301 L 366.790132 886.625392 M 331.994677 863.799289 L 332.023464 871.407118 L 348.167655 871.420199 L 348.138868 863.809754 L 331.994677 863.799289 M 331.994677 863.799289 L 332.023464 871.407118 L 348.167655 871.420199 L 348.138868 863.809754 L 331.994677 863.799289 " transform="matrix(1.492652,0,0,1.493117,-339.540744,-1006.46001)"/>
<path style="fill:none;stroke-width:1.164;stroke-linecap:butt;stroke-linejoin:miter;stroke:rgb(0%,0%,0%);stroke-opacity:1;stroke-miterlimit:4;" d="M 331.994677 863.799289 L 332.023464 871.407118 L 348.167655 871.420199 L 348.138868 863.809754 L 331.994677 863.799289 " transform="matrix(1.492652,0,0,1.493117,-339.540744,-1006.46001)"/>
<path style="fill:none;stroke-width:1.164;stroke-linecap:butt;stroke-linejoin:miter;stroke:rgb(0%,0%,0%);stroke-opacity:1;stroke-miterlimit:4;" d="M 336.370279 865.68555 L 336.393832 869.478999 L 343.807755 869.478999 L 343.784202 865.68555 L 336.370279 865.68555 M 340.036677 855.142375 L 349.015558 861.489209 L 331.12322 861.465664 L 340.036677 855.139759 M 340.036677 855.142375 L 349.015558 861.489209 L 331.12322 861.465664 L 340.036677 855.139759 M 340.036677 855.142375 L 349.015558 861.489209 L 331.12322 861.465664 L 340.036677 855.139759 M 340.036677 855.142375 L 349.015558 861.489209 L 331.12322 861.465664 L 340.036677 855.139759 M 340.036677 855.142375 L 349.015558 861.489209 L 331.12322 861.465664 L 340.036677 855.139759 " transform="matrix(1.492652,0,0,1.493117,-339.540744,-1006.46001)"/>
<path style=" stroke:none;fill-rule:nonzero;fill:rgb(100%,100%,100%);fill-opacity:1;" d="M 222.203125 263.945312 C 226.011719 263.851562 226.992188 279.632812 227 287.449219 C 230.273438 288.367188 237.523438 292.929688 240.730469 297.054688 L 203.949219 297 C 207.109375 292.929688 214.308594 288.347656 217.550781 287.429688 C 217.550781 279.605469 218.351562 263.835938 222.203125 263.925781 "/>
<path style="fill:none;stroke-width:1.164;stroke-linecap:butt;stroke-linejoin:miter;stroke:rgb(0%,0%,0%);stroke-opacity:1;stroke-miterlimit:4;" d="M 376.342134 850.838772 C 378.891079 850.775984 379.547942 861.34532 379.555793 866.58028 C 381.746211 867.195081 386.603338 870.25077 388.751884 873.013448 L 364.110338 872.976822 C 366.230097 870.25077 371.050586 867.182 373.225302 866.569816 C 373.225302 861.327007 373.759168 850.765519 376.342134 850.828307 M 326.807809 900.334135 L 329.019163 900.334135 L 328.372767 901.521877 M 326.807809 900.334135 L 329.019163 900.334135 L 328.372767 901.521877 M 326.807809 900.334135 L 329.019163 900.334135 L 328.372767 901.521877 M 326.807809 900.334135 L 329.019163 900.334135 L 328.372767 901.521877 M 326.807809 900.334135 L 329.019163 900.334135 L 328.372767 901.521877 C 328.372767 901.521877 329.437881 902.890135 328.391086 904.459839 L 328.96944 905.550783 L 326.839213 905.550783 L 327.41495 904.514778 C 327.41495 904.514778 326.326284 902.696539 327.464673 901.521877 L 326.807809 900.334135 M 331.31426 900.334135 L 333.522997 900.334135 L 332.884452 901.521877 C 332.884452 901.521877 333.949566 902.856125 332.889686 904.459839 L 333.462806 905.550783 L 331.337813 905.550783 L 331.910933 904.514778 C 331.910933 904.514778 330.84582 902.696539 331.96589 901.521877 L 331.31426 900.334135 M 336.223727 900.334135 L 338.429847 900.334135 L 337.772984 901.521877 C 337.772984 901.521877 338.848565 902.890135 337.791302 904.459839 L 338.367039 905.574328 L 336.255131 905.550783 L 336.823017 904.514778 C 336.823017 904.514778 335.744819 902.707003 336.864889 901.521877 L 336.22111 900.334135 L 336.226344 900.334135 Z M 341.771739 900.347216 L 343.993561 900.347216 L 343.341931 901.545423 C 343.341931 901.545423 344.407045 902.890135 343.347165 904.467687 L 343.943838 905.574328 L 341.803143 905.574328 L 342.373646 904.54094 C 342.373646 904.54094 341.308533 902.707003 342.446922 901.545423 L 341.776973 900.347216 Z M 346.702142 900.347216 L 348.905645 900.347216 L 348.254015 901.545423 C 348.254015 901.545423 349.324363 902.890135 348.2671 904.459839 L 348.850688 905.574328 L 346.725695 905.574328 L 347.280496 904.54094 C 347.280496 904.54094 346.210149 902.720084 347.36424 901.545423 L 346.702142 900.347216 M 351.601141 900.360297 L 353.807261 900.347216 L 353.155631 901.545423 C 353.155631 901.545423 354.244298 902.892751 353.184418 904.467687 L 353.739219 905.576944 L 351.608992 905.576944 L 352.179495 904.54094 C 352.179495 904.54094 351.114382 902.720084 352.252771 901.545423 L 351.601141 900.360297 " transform="matrix(1.492652,0,0,1.493117,-339.540744,-1006.46001)"/>
<path style=" stroke:none;fill-rule:nonzero;fill:rgb(97.647059%,85.09804%,5.882353%);fill-opacity:1;" d="M 169.003906 439.472656 C 185.957031 439.527344 206.808594 436.0625 216.578125 431.011719 L 238.03125 429.109375 L 238.457031 455.296875 C 220.285156 465.320312 178.324219 467.476562 169.09375 467.402344 C 159.851562 467.476562 117.375 465.285156 99.117188 455.222656 L 99.355469 429.019531 L 120.851562 430.957031 C 130.621094 435.984375 152.109375 439.472656 169.046875 439.472656 L 169 439.472656 "/>
<path style="fill:none;stroke-width:0.271;stroke-linecap:butt;stroke-linejoin:miter;stroke:rgb(0%,0%,0%);stroke-opacity:1;stroke-miterlimit:4;" d="M 340.698775 968.396473 C 352.059114 968.433099 366.028589 966.115171 372.571056 962.729844 L 386.943547 961.455768 L 387.228798 978.994587 C 375.054576 985.710301 346.942905 987.151812 340.758965 987.102104 C 334.567175 987.151812 306.110061 985.684139 293.880883 978.947495 L 294.037902 961.398212 L 308.441797 962.693217 C 314.984263 966.060231 329.380307 968.399089 340.727561 968.399089 L 340.698775 968.399089 " transform="matrix(1.492652,0,0,1.493117,-339.540744,-1006.46001)"/>
<path style=" stroke:none;fill-rule:nonzero;fill:rgb(97.647059%,85.09804%,5.882353%);fill-opacity:1;" d="M 43.894531 327.777344 L 62.796875 333.792969 L 57.078125 364.40625 L 39.191406 367.1875 C 39.191406 367.1875 36.171875 351.089844 43.894531 327.757812 "/>
<path style="fill:none;stroke-width:0.271;stroke-linecap:butt;stroke-linejoin:miter;stroke:rgb(0%,0%,0%);stroke-opacity:1;stroke-miterlimit:4;" d="M 256.881925 893.589643 L 269.545523 897.618548 L 265.716872 918.12149 L 253.731073 919.984205 C 253.731073 919.984205 251.708142 909.202959 256.881925 893.576562 Z M 256.881925 893.589643 " transform="matrix(1.492652,0,0,1.493117,-339.540744,-1006.46001)"/>
<path style=" stroke:none;fill-rule:nonzero;fill:rgb(49.411765%,49.411765%,49.411765%);fill-opacity:1;" d="M 57.070312 364.070312 L 39.1875 367.1875 L 50.5 351.089844 L 57.070312 364.070312 "/>
<path style="fill-rule:nonzero;fill:rgb(97.647059%,71.372551%,5.882353%);fill-opacity:1;stroke-width:0.271;stroke-linecap:butt;stroke-linejoin:miter;stroke:rgb(0%,0%,0%);stroke-opacity:1;stroke-miterlimit:4;" d="M 265.709021 917.896499 L 253.728456 919.984205 L 261.307249 909.202959 L 265.709021 917.896499 " transform="matrix(1.492652,0,0,1.493117,-339.540744,-1006.46001)"/>
<path style=" stroke:none;fill-rule:nonzero;fill:rgb(97.647059%,85.09804%,5.882353%);fill-opacity:1;" d="M 32.59375 349.828125 L 50.808594 351.144531 C 51.21875 366.585938 53.09375 425.523438 123.4375 428.722656 L 121.246094 450.160156 C 35.617188 451.050781 29.109375 377.875 32.59375 349.828125 "/>
<path style="fill:none;stroke-width:0.271;stroke-linecap:butt;stroke-linejoin:miter;stroke:rgb(0%,0%,0%);stroke-opacity:1;stroke-miterlimit:4;" d="M 249.310982 908.357935 L 261.513991 909.239585 C 261.788775 919.583931 263.042311 959.054122 310.171625 961.196767 L 308.703495 975.556936 C 251.33653 976.150807 246.979247 927.142052 249.310982 908.357935 Z M 294.105943 978.494898 L 308.491519 975.355491 M 294.105943 978.494898 L 308.491519 975.355491 M 294.105943 978.494898 L 308.491519 975.355491 M 294.105943 978.494898 L 308.491519 975.355491 M 294.105943 978.494898 L 308.491519 975.355491 " transform="matrix(1.492652,0,0,1.493117,-339.540744,-1006.46001)"/>
<path style=" stroke:none;fill-rule:nonzero;fill:rgb(100%,100%,0%);fill-opacity:1;" d="M 292.621094 327.992188 L 273.796875 333.953125 L 279.765625 364.523438 L 297.691406 367.402344 C 297.691406 367.402344 300.574219 351.316406 292.621094 327.976562 "/>
<path style="fill-rule:nonzero;fill:rgb(97.647059%,85.09804%,5.882353%);fill-opacity:1;stroke-width:0.271;stroke-linecap:butt;stroke-linejoin:miter;stroke:rgb(0%,0%,0%);stroke-opacity:1;stroke-miterlimit:4;" d="M 423.518553 893.736149 L 410.904677 897.728427 L 414.903433 918.199975 L 426.912785 920.128094 C 426.912785 920.128094 428.844121 909.354697 423.515936 893.723068 L 423.515936 893.736149 Z M 423.518553 893.736149 " transform="matrix(1.492652,0,0,1.493117,-339.540744,-1006.46001)"/>
<path style=" stroke:none;fill-rule:nonzero;fill:rgb(49.411765%,49.411765%,49.411765%);fill-opacity:1;" d="M 279.765625 364.203125 L 297.691406 367.421875 L 286.226562 351.316406 L 279.765625 364.203125 "/>
<path style="fill-rule:nonzero;fill:rgb(97.647059%,71.372551%,5.882353%);fill-opacity:1;stroke-width:0.271;stroke-linecap:butt;stroke-linejoin:miter;stroke:rgb(0%,0%,0%);stroke-opacity:1;stroke-miterlimit:4;" d="M 414.903433 917.988065 L 426.912785 920.141175 L 419.231929 909.354697 L 414.903433 917.988065 " transform="matrix(1.492652,0,0,1.493117,-339.540744,-1006.46001)"/>
<path style=" stroke:none;fill-rule:nonzero;fill:rgb(97.647059%,85.09804%,5.882353%);fill-opacity:1;" d="M 304.132812 350.070312 L 285.890625 351.320312 C 285.625 366.742188 284.28125 425.703125 213.933594 428.828125 L 216.324219 450.253906 C 301.933594 451.242188 307.824219 378.101562 304.136719 350.0625 "/>
<path style="fill:none;stroke-width:0.271;stroke-linecap:butt;stroke-linejoin:miter;stroke:rgb(0%,0%,0%);stroke-opacity:1;stroke-miterlimit:4;" d="M 431.230813 908.522754 L 419.006868 909.357313 C 418.828913 919.685961 417.931286 959.174465 370.801973 961.270019 L 372.400952 975.617108 C 429.757449 976.279 433.701248 927.29379 431.230813 908.514906 Z M 387.035141 978.575999 L 372.615544 975.415663 " transform="matrix(1.492652,0,0,1.493117,-339.540744,-1006.46001)"/>
<path style=" stroke:none;fill-rule:nonzero;fill:rgb(0.392157%,16.470589%,52.941179%);fill-opacity:1;" d="M 157.621094 452.378906 C 157.136719 452.6875 156.484375 452.769531 155.730469 452.734375 L 152.332031 452.558594 L 152.621094 448.316406 L 155.992188 448.496094 C 156.65625 448.542969 157.183594 448.671875 157.507812 448.871094 C 158.191406 449.222656 158.492188 449.878906 158.429688 450.789062 C 158.382812 451.570312 158.109375 452.078125 157.609375 452.378906 M 151.902344 459.058594 L 152.238281 453.886719 L 156.203125 454.160156 C 157.480469 454.261719 158.4375 453.925781 159.082031 453.269531 C 159.753906 452.632812 160.097656 451.796875 160.144531 450.851562 C 160.226562 449.75 159.945312 448.851562 159.289062 448.1875 C 158.664062 447.550781 157.773438 447.214844 156.65625 447.105469 L 150.996094 446.753906 L 150.214844 458.929688 L 151.894531 459.042969 M 164.222656 448.871094 L 168.367188 448.914062 M 164.222656 448.871094 L 168.367188 448.914062 M 164.222656 448.871094 L 168.367188 448.914062 M 164.222656 448.871094 L 168.367188 448.914062 M 164.222656 448.871094 L 168.367188 448.914062 C 168.96875 448.972656 169.441406 449.042969 169.785156 449.207031 C 170.421875 449.507812 170.722656 450.105469 170.722656 450.980469 C 170.722656 451.796875 170.484375 452.34375 170.019531 452.667969 C 169.578125 452.96875 168.933594 453.105469 168.160156 453.105469 L 164.179688 453.0625 L 164.214844 448.871094 M 164.152344 459.664062 L 164.1875 454.460938 L 168.074219 454.515625 C 168.765625 454.515625 169.277344 454.570312 169.628906 454.746094 C 170.203125 455.007812 170.484375 455.5625 170.507812 456.324219 L 170.609375 458.371094 C 170.636719 458.863281 170.644531 459.164062 170.675781 459.363281 C 170.730469 459.507812 170.753906 459.664062 170.828125 459.773438 L 172.917969 459.773438 L 172.882812 459.507812 C 172.644531 459.382812 172.453125 459.136719 172.371094 458.765625 C 172.296875 458.527344 172.265625 458.171875 172.246094 457.726562 L 172.207031 456.101562 C 172.183594 455.363281 172.054688 454.855469 171.773438 454.574219 C 171.5 454.203125 171.113281 453.929688 170.675781 453.789062 C 171.257812 453.484375 171.691406 453.128906 172.007812 452.691406 C 172.308594 452.207031 172.464844 451.601562 172.464844 450.855469 C 172.464844 449.457031 171.890625 448.5 170.726562 447.980469 C 170.101562 447.699219 169.300781 447.550781 168.355469 447.539062 L 162.515625 447.480469 L 162.46875 459.695312 L 164.148438 459.695312 M 177.117188 457.105469 C 176.375 456.195312 175.972656 455.058594 175.882812 453.714844 C 175.800781 452.023438 176.125 450.734375 176.898438 449.859375 C 177.679688 448.914062 178.6875 448.460938 180.007812 448.386719 C 181.335938 448.3125 182.421875 448.742188 183.234375 449.578125 C 184.058594 450.398438 184.53125 451.53125 184.613281 452.949219 C 184.65625 454.3125 184.421875 455.523438 183.796875 456.585938 C 183.179688 457.667969 182.152344 458.277344 180.632812 458.3125 C 179.054688 458.394531 177.871094 458.023438 177.117188 457.105469 M 175.117188 449.414062 C 174.335938 450.625 174.019531 452.023438 174.101562 453.714844 C 174.21875 455.539062 174.78125 457.050781 175.847656 458.1875 C 177.027344 459.324219 178.589844 459.894531 180.515625 459.785156 C 182.578125 459.695312 184.132812 458.914062 185.1875 457.476562 C 186.039062 456.175781 186.449219 454.667969 186.355469 452.804688 C 186.238281 451.140625 185.757812 449.789062 184.859375 448.777344 C 183.722656 447.421875 182.0625 446.824219 179.808594 446.917969 C 177.679688 447.050781 176.117188 447.832031 175.109375 449.414062 M 232.5 431.847656 C 233.667969 431.648438 234.6875 431.703125 235.617188 432.019531 C 236.980469 432.445312 237.898438 433.457031 238.46875 435.003906 L 236.789062 435.238281 C 236.425781 434.402344 235.90625 433.832031 235.207031 433.511719 C 234.527344 433.210938 233.671875 433.136719 232.6875 433.28125 C 231.59375 433.429688 230.609375 434.035156 229.980469 434.949219 C 229.347656 435.925781 229.15625 437.238281 229.4375 438.910156 C 229.675781 440.292969 230.183594 441.464844 231.019531 442.242188 C 231.789062 443.042969 232.925781 443.324219 234.410156 443.117188 C 235.515625 442.933594 236.40625 442.492188 237.035156 441.726562 C 237.6875 441 237.878906 439.898438 237.660156 438.480469 L 233.742188 439.082031 L 233.542969 437.734375 L 238.996094 436.898438 L 240.058594 443.359375 L 238.976562 443.523438 L 238.304688 442.035156 C 237.851562 442.707031 237.398438 443.226562 236.996094 443.523438 C 236.324219 444.054688 235.417969 444.390625 234.28125 444.550781 C 232.808594 444.78125 231.464844 444.515625 230.246094 443.734375 C 228.910156 442.742188 228.046875 441.269531 227.71875 439.226562 C 227.367188 437.21875 227.683594 435.5 228.609375 434.144531 C 229.492188 432.835938 230.773438 432.074219 232.5 431.828125 M 244.828125 430.902344 L 248.734375 429.484375 C 249.273438 429.285156 249.734375 429.21875 250.136719 429.265625 C 250.851562 429.320312 251.378906 429.746094 251.679688 430.601562 C 251.960938 431.328125 251.960938 431.964844 251.644531 432.410156 C 251.308594 432.871094 250.78125 433.210938 250.015625 433.492188 L 246.347656 434.808594 L 244.828125 430.902344 M 248.734375 441 L 246.828125 436.101562 L 250.464844 434.792969 C 251.144531 434.574219 251.617188 434.457031 251.972656 434.492188 C 252.617188 434.574219 253.109375 434.96875 253.4375 435.710938 L 254.261719 437.574219 C 254.445312 438.039062 254.589844 438.320312 254.707031 438.445312 C 254.761719 438.609375 254.878906 438.710938 254.96875 438.816406 L 256.941406 438.09375 L 256.835938 437.828125 C 256.542969 437.828125 256.261719 437.664062 256.050781 437.347656 C 255.898438 437.121094 255.75 436.792969 255.542969 436.414062 L 254.898438 434.886719 C 254.605469 434.222656 254.308594 433.8125 253.960938 433.566406 C 253.558594 433.355469 253.117188 433.234375 252.664062 433.210938 C 253.0625 432.75 253.355469 432.28125 253.464844 431.738281 C 253.582031 431.183594 253.527344 430.566406 253.265625 429.878906 C 252.761719 428.578125 251.847656 427.867188 250.554688 427.777344 C 249.875 427.722656 249.09375 427.867188 248.191406 428.183594 L 242.703125 430.140625 L 247.140625 441.625 L 248.746094 441.035156 M 263.027344 434.949219 L 256.058594 424.773438 L 263.710938 419.894531 L 264.554688 421.121094 L 258.289062 425.128906 L 260.429688 428.238281 L 266.21875 424.511719 L 267.011719 425.703125 L 261.222656 429.429688 L 263.585938 432.855469 L 269.964844 428.773438 L 270.808594 429.972656 L 263.019531 434.945312 M 269.125 416.96875 L 271.125 414.769531 C 272.050781 413.789062 273.03125 413.339844 274.105469 413.46875 C 275.175781 413.5625 276.269531 414.125 277.429688 415.140625 C 277.75 415.386719 278.03125 415.707031 278.320312 416.0625 C 278.832031 416.722656 279.128906 417.304688 279.320312 417.890625 C 279.484375 418.617188 279.449219 419.277344 279.195312 419.917969 C 279.042969 420.230469 278.765625 420.605469 278.359375 421.050781 L 276.351562 423.234375 L 269.128906 416.953125 M 279.6875 421.742188 C 281.105469 420.179688 281.414062 418.496094 280.589844 416.597656 C 280.058594 415.484375 279.292969 414.496094 278.351562 413.699219 C 277.074219 412.5625 275.734375 411.980469 274.328125 411.871094 C 272.765625 411.753906 271.4375 412.316406 270.28125 413.578125 L 266.875 417.234375 L 276.269531 425.433594 L 279.679688 421.761719 M 286.960938 412.257812 L 276.148438 405.90625 L 277.03125 404.507812 L 287.859375 410.824219 L 286.96875 412.277344 M 291.207031 404.878906 L 279.527344 400.207031 L 282.972656 391.988281 L 284.390625 392.535156 L 281.582031 399.304688 L 285.097656 400.6875 L 287.726562 394.453125 L 289.070312 395.007812 L 286.472656 401.234375 L 290.40625 402.832031 L 293.289062 395.980469 L 294.707031 396.515625 L 291.195312 404.878906 M 296.566406 390.539062 L 284.28125 387.820312 L 284.691406 385.921875 L 296.039062 382.085938 L 286.070312 379.882812 L 286.4375 378.394531 L 298.71875 381.039062 L 298.328125 382.882812 L 286.964844 386.804688 L 296.929688 388.957031 L 296.578125 390.539062 M 295.59375 374.929688 L 295.746094 373.386719 C 296.457031 373.40625 297.054688 373.292969 297.507812 373.050781 C 298.402344 372.566406 298.917969 371.652344 299.054688 370.292969 C 299.109375 369.660156 299.082031 369.105469 298.9375 368.574219 C 298.671875 367.558594 298.101562 366.996094 297.183594 366.90625 C 296.5 366.832031 296.011719 366.996094 295.65625 367.367188 C 295.335938 367.796875 295 368.414062 294.746094 369.285156 L 294.183594 370.894531 C 293.820312 371.949219 293.484375 372.675781 293.121094 373.082031 C 292.539062 373.847656 291.722656 374.109375 290.675781 374.039062 C 289.558594 373.921875 288.652344 373.476562 288.007812 372.621094 C 287.34375 371.835938 287.070312 370.71875 287.234375 369.339844 C 287.34375 368.074219 287.761719 367.011719 288.507812 366.15625 C 289.195312 365.375 290.269531 365 291.640625 365.148438 L 291.515625 366.691406 C 290.839844 366.691406 290.304688 366.8125 289.914062 367.085938 C 289.207031 367.476562 288.816406 368.300781 288.699219 369.511719 C 288.597656 370.511719 288.734375 371.183594 289.117188 371.695312 C 289.496094 372.121094 289.976562 372.394531 290.542969 372.441406 C 291.140625 372.496094 291.613281 372.304688 291.941406 371.839844 C 292.179688 371.519531 292.460938 370.832031 292.839844 369.710938 L 293.394531 368.023438 C 293.667969 367.238281 293.992188 366.640625 294.375 366.214844 C 295.054688 365.503906 295.945312 365.207031 297.066406 365.289062 C 298.429688 365.433594 299.398438 365.996094 299.898438 367.035156 C 300.390625 368.078125 300.582031 369.234375 300.460938 370.542969 C 300.308594 372.023438 299.824219 373.1875 298.9375 373.96875 C 298.042969 374.769531 296.9375 375.042969 295.589844 374.933594 M 40.933594 374.1875 L 41.214844 375.714844 C 40.535156 375.851562 39.988281 376.125 39.589844 376.476562 C 38.871094 377.148438 38.625 378.160156 38.871094 379.53125 C 38.980469 380.113281 39.1875 380.683594 39.453125 381.140625 C 39.996094 382.066406 40.707031 382.4375 41.605469 382.292969 C 42.269531 382.171875 42.707031 381.921875 42.914062 381.445312 C 43.117188 380.984375 43.257812 380.273438 43.308594 379.367188 L 43.386719 377.648438 C 43.441406 376.582031 43.5625 375.75 43.796875 375.285156 C 44.171875 374.449219 44.871094 373.929688 45.914062 373.757812 C 46.949219 373.550781 48.023438 373.800781 48.859375 374.449219 C 49.710938 375.039062 50.277344 376.066406 50.484375 377.429688 C 50.75 378.675781 50.628906 379.792969 50.140625 380.800781 C 49.664062 381.785156 48.757812 382.382812 47.367188 382.636719 L 47.09375 381.09375 C 47.738281 380.855469 48.222656 380.628906 48.539062 380.3125 C 49.085938 379.703125 49.25 378.820312 49.039062 377.609375 C 48.875 376.628906 48.539062 375.992188 48.03125 375.675781 C 47.53125 375.300781 47.03125 375.15625 46.484375 375.25 C 45.878906 375.339844 45.476562 375.675781 45.285156 376.21875 C 45.167969 376.582031 45.078125 377.335938 44.992188 378.492188 L 44.914062 380.273438 C 44.867188 381.109375 44.738281 381.800781 44.460938 382.273438 C 44.015625 383.144531 43.257812 383.683594 42.160156 383.855469 C 40.769531 384.09375 39.695312 383.773438 38.933594 382.882812 C 38.152344 382.011719 37.671875 380.964844 37.425781 379.667969 C 37.152344 378.121094 37.351562 376.921875 37.972656 375.957031 C 38.597656 374.964844 39.589844 374.394531 40.933594 374.203125 M 40.160156 390.304688 L 52.171875 386.683594 L 54.972656 395.148438 L 53.507812 395.609375 L 51.21875 388.65625 L 47.566406 389.757812 L 49.683594 396.183594 L 48.285156 396.625 L 46.183594 390.183594 L 42.117188 391.398438 L 44.441406 398.507812 L 43.003906 398.917969 L 40.160156 390.300781 M 45.484375 404.972656 L 56.535156 399.109375 L 57.714844 401.171875 L 50.117188 409.203125 L 61.214844 407.308594 L 62.359375 409.351562 L 51.335938 415.179688 L 50.554688 413.824219 L 57.0625 410.398438 C 57.296875 410.261719 57.660156 410.058594 58.1875 409.78125 C 58.707031 409.542969 59.289062 409.222656 59.867188 408.921875 L 48.820312 410.804688 L 48.011719 409.367188 L 55.554688 401.359375 L 55.191406 401.542969 C 54.953125 401.679688 54.546875 401.878906 53.992188 402.195312 C 53.601562 402.445312 53.195312 402.664062 52.773438 402.851562 L 46.285156 406.332031 L 45.484375 404.949219 M 66.074219 421.246094 C 65.519531 421.121094 64.972656 420.804688 64.4375 420.246094 L 62.105469 417.839844 L 65.246094 414.957031 L 67.601562 417.359375 C 68.054688 417.804688 68.34375 418.238281 68.5 418.613281 C 68.71875 419.328125 68.5 419.984375 67.839844 420.601562 C 67.238281 421.15625 66.636719 421.386719 66.074219 421.246094 M 57.199219 422.367188 L 61.050781 418.828125 L 63.785156 421.601562 C 64.667969 422.503906 65.566406 422.910156 66.511719 422.894531 C 67.457031 422.851562 68.351562 422.457031 69.027344 421.792969 C 69.847656 421.066406 70.238281 420.214844 70.238281 419.296875 C 70.226562 418.40625 69.820312 417.570312 69.066406 416.789062 L 65.140625 412.777344 L 56 421.179688 L 57.179688 422.367188 M 68.214844 432.183594 L 74.839844 421.792969 L 82.671875 426.554688 L 81.855469 427.792969 L 75.421875 423.9375 L 73.433594 427.082031 L 79.347656 430.671875 L 78.585938 431.863281 L 72.660156 428.292969 L 70.40625 431.808594 L 76.921875 435.726562 L 76.140625 436.953125 L 68.214844 432.183594 M 87.824219 430.171875 L 91.804688 431.4375 C 92.367188 431.609375 92.777344 431.828125 93.050781 432.074219 C 93.558594 432.554688 93.695312 433.246094 93.394531 434.082031 C 93.148438 434.808594 92.777344 435.28125 92.195312 435.480469 C 91.675781 435.570312 91.023438 435.570312 90.257812 435.335938 L 86.507812 434.136719 L 87.824219 430.171875 M 84.390625 440.378906 L 86.042969 435.425781 L 89.75 436.632812 C 90.414062 436.808594 90.894531 437.046875 91.132812 437.289062 C 91.585938 437.695312 91.722656 438.304688 91.496094 439.0625 L 90.941406 441.035156 C 90.816406 441.515625 90.75 441.835938 90.699219 441.976562 C 90.699219 442.132812 90.699219 442.296875 90.722656 442.40625 L 92.679688 443.042969 L 92.796875 442.757812 C 92.589844 442.597656 92.46875 442.296875 92.480469 441.925781 C 92.523438 441.695312 92.589844 441.332031 92.714844 440.914062 L 93.1875 439.332031 C 93.378906 438.644531 93.453125 438.125 93.277344 437.753906 C 93.117188 437.324219 92.839844 436.953125 92.480469 436.671875 C 93.097656 436.5625 93.632812 436.371094 94.085938 436.035156 C 94.570312 435.601562 94.921875 435.042969 95.09375 434.417969 C 95.539062 433.097656 95.292969 432 94.3125 431.164062 C 93.820312 430.726562 93.121094 430.351562 92.207031 430.007812 L 86.644531 428.292969 L 82.757812 439.878906 L 84.382812 440.378906 M 101.265625 229.484375 "/>
<path style=" stroke:none;fill-rule:nonzero;fill:rgb(73.725492%,44.313726%,37.254903%);fill-opacity:1;" d="M 101.265625 229.488281 C 102.703125 226.023438 116.003906 216.578125 159.652344 220.714844 C 159.652344 220.714844 167.03125 225.21875 171.367188 224.640625 C 173.839844 224.320312 169.914062 224.796875 166.6875 222.113281 C 163.398438 219.433594 162.699219 213.933594 170.214844 214.078125 C 177.691406 214.269531 205.683594 215.851562 206.214844 218.367188 C 206.703125 220.914062 191.410156 221.976562 185.722656 221.832031 C 180.007812 221.675781 180.671875 224.570312 186.359375 224.351562 C 204.132812 223.714844 223.527344 217.449219 244.019531 231.949219 C 246.464844 233.710938 237.839844 233.992188 231.171875 231.15625 C 231.171875 231.15625 213.097656 232.09375 205.28125 230.8125 C 205.28125 230.8125 199.277344 235.699219 191.453125 235.21875 C 192.472656 237.753906 188.566406 247.21875 163.96875 240.097656 C 159.90625 241.347656 145.105469 243.824219 146.722656 239.429688 C 142.828125 239.429688 135.992188 240.683594 134.976562 238.464844 C 133.992188 236.28125 147.003906 232.980469 149.285156 230.617188 C 149.285156 230.617188 121.761719 230.882812 116.546875 228.984375 C 116.546875 228.984375 100.308594 232.628906 101.265625 229.464844 "/>
<path style=" stroke:none;fill-rule:nonzero;fill:rgb(0%,53.333336%,18.82353%);fill-opacity:1;" d="M 110.089844 268.042969 C 110.679688 267.242188 110.914062 265.808594 112.167969 265.84375 C 114.894531 266.570312 116.75 271.558594 120.101562 268.320312 C 121.289062 268.058594 121.746094 269.679688 122.726562 269.867188 C 123.355469 272.640625 125.578125 269.304688 127.242188 269.496094 C 130.792969 267.914062 135.191406 267.539062 139.398438 268.324219 C 139.527344 271.039062 137.398438 274.039062 134.730469 275.585938 C 134.785156 278.320312 137.265625 280.078125 137.21875 282.832031 C 136.792969 283.855469 137.144531 285.472656 135.59375 285.8125 C 133.621094 285.457031 131.675781 285.246094 130.042969 284.148438 C 129.839844 283.949219 129.679688 283.554688 129.257812 283.683594 C 129.058594 284.605469 130.496094 285.511719 131.058594 286.449219 C 130.066406 288.136719 128.421875 286.59375 127.039062 286.613281 C 126.632812 287.585938 127.023438 288.8125 126.023438 289.441406 C 124.277344 289.386719 123.925781 287.484375 122.851562 286.539062 C 121.753906 287.730469 123.625 288.4375 123.890625 289.382812 C 123.214844 292.964844 123.308594 296.464844 119.726562 298.8125 L 117.328125 300 C 116.675781 298.203125 117.082031 295.476562 116.644531 293.59375 C 115.226562 295.902344 114.121094 297.921875 112.039062 299.871094 C 109.605469 299.074219 108.1875 296.203125 107.652344 293.820312 C 106.632812 291.046875 107.214844 287.730469 109.40625 285.722656 C 108.660156 284.269531 106.105469 284.601562 105.742188 282.53125 C 101.917969 280.039062 99.800781 286.894531 97.328125 283.332031 C 96.527344 280.007812 97.484375 275.867188 99.890625 273.386719 C 99.355469 272.023438 97.578125 272.378906 96.519531 271.597656 C 94.113281 269.550781 90.644531 267.390625 90.816406 263.695312 C 97.402344 261.207031 105.28125 263.035156 110.070312 268.042969 "/>
<path style=" stroke:none;fill-rule:nonzero;fill:rgb(97.647059%,85.09804%,5.882353%);fill-opacity:1;" d="M 113.503906 267.671875 C 113.351562 270.6875 115.539062 268.484375 117.167969 270.3125 C 115.894531 269.8125 114.96875 272.515625 113.722656 270.96875 L 112.941406 271.714844 C 113.394531 272.75 114.277344 272.886719 113.359375 274.023438 C 111.996094 274.542969 111.722656 272.832031 111.085938 272.160156 C 110.976562 271.863281 111.296875 271.296875 110.796875 271.097656 C 110.023438 271.75 109.214844 271.988281 108.152344 271.878906 C 107.863281 271.296875 107.300781 270.535156 107.871094 270.089844 C 108.914062 268.679688 110.535156 270.597656 111.324219 269.605469 C 111.449219 268.734375 110.6875 267.671875 111.675781 267.070312 C 112.359375 267.1875 113.230469 266.816406 113.515625 267.671875 M 121.65625 270.140625 C 121.738281 270.726562 121.355469 271.542969 122.117188 271.953125 C 123.109375 271.414062 124.164062 271.824219 124.734375 272.804688 C 124.726562 273.332031 124.890625 274.023438 124.199219 274.277344 L 122.652344 273.988281 C 122.761719 273.6875 122.269531 273.5 122.078125 273.207031 C 121.398438 273 121 273.550781 120.492188 273.886719 C 120.871094 274.46875 121.753906 274.789062 121.546875 275.535156 C 120.636719 276.441406 120.191406 274.75 119.191406 275.175781 C 118.507812 274.914062 119.4375 273.496094 118.363281 273.066406 C 117.09375 273.066406 117.9375 275.160156 116.308594 274.339844 C 115.726562 273.6875 115.15625 272.804688 115.785156 272.070312 C 116.464844 271.613281 117.621094 271.730469 118.199219 272.320312 C 119.191406 271.222656 119.289062 266.976562 121.660156 270.140625 M 111.507812 274.523438 C 112.167969 275.476562 111.363281 276.777344 112.207031 277.839844 C 113.535156 275.359375 114.816406 278.378906 116.394531 278.140625 C 116.878906 278.734375 116.558594 279.550781 116.648438 280.222656 C 114.695312 280.742188 112.34375 281.359375 110.617188 279.796875 L 110.132812 280.347656 C 111.160156 281.304688 112.132812 282.386719 111.3125 283.984375 C 109.851562 284.304688 107.589844 284.339844 106.851562 282.832031 C 106.472656 281.585938 107.742188 280.6875 106.398438 279.6875 C 105.425781 280.894531 105.472656 282.515625 103.445312 281.414062 C 102.191406 280.722656 101.820312 279.296875 102.445312 278.097656 C 103.753906 276.03125 106.046875 278.160156 107.460938 277.152344 C 107.664062 275.378906 107.007812 273.832031 108.632812 272.851562 C 110.023438 272.605469 110.667969 273.652344 111.515625 274.523438 "/>
<path style=" stroke:none;fill-rule:nonzero;fill:rgb(100%,100%,100%);fill-opacity:1;" d="M 117.050781 275.605469 C 116.394531 278.621094 114.121094 275.449219 113.0625 275.324219 C 114.480469 272.804688 115.367188 276.140625 117.050781 275.605469 M 124.128906 278.886719 C 122.546875 279.332031 122.792969 277.359375 122.011719 276.585938 L 122.621094 276.03125 C 123.191406 276.722656 123.628906 277.96875 124.128906 278.886719 "/>
<path style=" stroke:none;fill-rule:nonzero;fill:rgb(97.647059%,85.09804%,5.882353%);fill-opacity:1;" d="M 121.980469 278.289062 C 122.4375 279.332031 120.957031 280.167969 122.21875 280.929688 C 122.621094 280.59375 123.109375 280.128906 123.320312 279.9375 C 124.398438 280.257812 125.652344 280.449219 126.40625 281.519531 C 127.214844 283.738281 124.972656 283.683594 123.699219 284.300781 L 122.4375 284.25 C 122.738281 283.628906 121.890625 283.367188 121.683594 282.941406 C 121.101562 282.792969 120.621094 282.976562 120.292969 283.464844 C 120.574219 284.875 122.292969 285.972656 120.519531 287.226562 C 119.023438 287.128906 116.695312 287.710938 116.832031 285.636719 C 116.269531 284.464844 118.359375 282.65625 116.121094 282.585938 C 115.386719 284.164062 114.578125 285.691406 112.664062 284.191406 L 112.898438 281.9375 C 114.734375 281.992188 116.90625 282.308594 117.730469 280.257812 C 118.257812 278.765625 116.8125 277.394531 118.105469 276.210938 C 119.976562 275.785156 121.03125 277.039062 121.984375 278.28125 "/>
<path style=" stroke:none;fill-rule:nonzero;fill:rgb(0%,0%,0%);fill-opacity:1;" d="M 120.636719 281.675781 C 121.109375 282.792969 119.835938 282.867188 119.238281 283.421875 C 118.429688 283.484375 117.867188 283.167969 117.375 282.621094 C 117.011719 281.265625 118.019531 281.128906 118.792969 280.59375 C 119.691406 280.222656 120.066406 281.265625 120.636719 281.675781 "/>
<path style=" stroke:none;fill-rule:nonzero;fill:rgb(100%,100%,100%);fill-opacity:1;" d="M 119.539062 282.402344 C 119.339844 282.667969 119.054688 282.585938 118.757812 282.65625 L 118.476562 281.304688 C 119.074219 281.355469 119.855469 281.546875 119.539062 282.402344 "/>
</g>
</svg>
