<?xml version="1.0" encoding="UTF-8"?>
<svg xmlns="http://www.w3.org/2000/svg" xmlns:xlink="http://www.w3.org/1999/xlink" width="1000px" height="667px" viewBox="0 0 1000 667" version="1.1">
<g id="surface1">
<rect x="0" y="0" width="1000" height="667" style="fill:rgb(24.313726%,36.862746%,72.549021%);fill-opacity:1;stroke:none;"/>
<path style=" stroke:none;fill-rule:nonzero;fill:rgb(100%,85.09804%,0%);fill-opacity:1;" d="M 0 125.0625 L 1000 125.0625 L 1000 541.9375 L 0 541.9375 Z M 0 125.0625 "/>
<path style=" stroke:none;fill-rule:nonzero;fill:rgb(69.411767%,4.705882%,4.705882%);fill-opacity:1;" d="M 0 166.75 L 1000 166.75 L 1000 500.25 L 0 500.25 Z M 0 166.75 "/>
<path style="fill-rule:nonzero;fill:rgb(100%,100%,100%);fill-opacity:1;stroke-width:1.008;stroke-linecap:butt;stroke-linejoin:miter;stroke:rgb(0%,0%,0%);stroke-opacity:1;stroke-miterlimit:4;" d="M 492.850781 154.279891 L 468.564844 162.851387 L 492.850781 171.422882 L 517.134375 162.851387 Z M 492.850781 154.279891 " transform="matrix(1.666667,0,0,1.6675,0,0)"/>
<path style="fill-rule:nonzero;fill:rgb(100%,85.09804%,0%);fill-opacity:1;stroke-width:1.008;stroke-linecap:butt;stroke-linejoin:miter;stroke:rgb(0%,0%,0%);stroke-opacity:1;stroke-miterlimit:4;" d="M 125.955469 160.000469 L 476.873437 160.000469 C 478.589062 160.000469 479.978906 161.279516 479.978906 162.856072 C 479.978906 164.43497 478.589062 165.714018 476.873437 165.714018 L 125.955469 165.714018 C 124.239844 165.714018 122.85 164.43497 122.85 162.856072 C 122.85 161.279516 124.239844 160.000469 125.955469 160.000469 Z M 125.955469 160.000469 " transform="matrix(1.666667,0,0,1.6675,0,0)"/>
<path style="fill-rule:nonzero;fill:rgb(100%,85.09804%,0%);fill-opacity:1;stroke-width:1.008;stroke-linecap:butt;stroke-linejoin:miter;stroke:rgb(0%,0%,0%);stroke-opacity:1;stroke-miterlimit:4;" d="M 471.440625 165.709333 C 472.867969 165.709333 474.3 164.28036 474.3 162.853729 C 474.3 161.424756 472.867969 159.995783 471.440625 159.995783 M 468.578906 165.709333 C 470.00625 165.709333 471.438281 164.28036 471.438281 162.853729 C 471.438281 161.424756 470.008594 159.995783 468.58125 159.995783 M 465.719531 165.709333 C 467.146875 165.709333 468.578906 164.28036 468.578906 162.853729 C 468.578906 161.424756 467.146875 159.995783 465.721875 159.995783 " transform="matrix(1.666667,0,0,1.6675,0,0)"/>
<path style="fill-rule:nonzero;fill:rgb(100%,100%,100%);fill-opacity:1;stroke-width:1.008;stroke-linecap:butt;stroke-linejoin:miter;stroke:rgb(0%,0%,0%);stroke-opacity:1;stroke-miterlimit:4;" d="M 492.849688 154.27991 L 468.566094 162.851406 L 492.849688 171.422901 L 517.135625 162.851406 Z M 492.849688 154.27991 " transform="matrix(1.666667,0,0,1.6675,-38.783334,28.597624)"/>
<path style="fill-rule:nonzero;fill:rgb(100%,85.09804%,0%);fill-opacity:1;stroke-width:1.008;stroke-linecap:butt;stroke-linejoin:miter;stroke:rgb(0%,0%,0%);stroke-opacity:1;stroke-miterlimit:4;" d="M 125.956719 160.000488 L 476.874688 160.000488 C 478.590313 160.000488 479.980157 161.279536 479.980157 162.856091 C 479.980157 164.434989 478.590313 165.714037 476.874688 165.714037 L 125.956719 165.714037 C 124.241094 165.714037 122.848907 164.434989 122.848907 162.856091 C 122.848907 161.279536 124.241094 160.000488 125.956719 160.000488 Z M 125.956719 160.000488 " transform="matrix(1.666667,0,0,1.6675,-38.783334,28.597624)"/>
<path style="fill-rule:nonzero;fill:rgb(100%,85.09804%,0%);fill-opacity:1;stroke-width:1.008;stroke-linecap:butt;stroke-linejoin:miter;stroke:rgb(0%,0%,0%);stroke-opacity:1;stroke-miterlimit:4;" d="M 471.439532 165.709352 C 472.866875 165.709352 474.298907 164.280379 474.298907 162.853749 C 474.298907 161.424775 472.866875 159.995802 471.441875 159.995802 M 468.580157 165.709352 C 470.0075 165.709352 471.439532 164.280379 471.439532 162.853749 C 471.439532 161.424775 470.0075 159.995802 468.580157 159.995802 M 465.720782 165.709352 C 467.148125 165.709352 468.580157 164.280379 468.580157 162.853749 C 468.580157 161.424775 467.148125 159.995802 465.720782 159.995802 " transform="matrix(1.666667,0,0,1.6675,-38.783334,28.597624)"/>
<path style="fill-rule:nonzero;fill:rgb(100%,85.09804%,0%);fill-opacity:1;stroke-width:1.08;stroke-linecap:butt;stroke-linejoin:miter;stroke:rgb(0%,0%,0%);stroke-opacity:1;stroke-miterlimit:4;" d="M 64.035938 195.720109 L 541.289062 195.720109 C 543.621094 195.720109 545.5125 197.638681 545.5125 200.004685 C 545.5125 202.373032 543.621094 204.291604 541.289062 204.291604 L 64.035938 204.291604 C 61.703906 204.291604 59.8125 202.373032 59.8125 200.004685 C 59.8125 197.638681 61.703906 195.720109 64.035938 195.720109 Z M 64.035938 195.720109 " transform="matrix(1.666667,0,0,1.6675,0,0)"/>
<path style="fill-rule:nonzero;fill:rgb(100%,100%,100%);fill-opacity:1;stroke-width:1.512;stroke-linecap:butt;stroke-linejoin:miter;stroke:rgb(0%,0%,0%);stroke-opacity:1;stroke-miterlimit:4;" d="M 664.273828 300 C 621.418359 342.851621 564.271875 428.565405 449.985937 428.565405 C 349.983984 428.565405 278.564062 342.855135 235.694531 300 C 278.553516 257.137837 349.976953 171.427567 449.985937 171.427567 C 564.268359 171.427567 621.404297 257.137837 664.273828 300 Z M 664.273828 300 " transform="matrix(1.111111,0,0,1.111667,0,0)"/>
<path style=" stroke:none;fill-rule:nonzero;fill:rgb(0%,0%,0%);fill-opacity:1;" d="M 483.367188 240.285156 C 496.035156 254.542969 485.457031 260.289062 498.867188 261.226562 C 513.007812 262.265625 504.992188 276.289062 516.886719 276.777344 C 525.203125 277.140625 516.058594 310.378906 524.0625 321.347656 C 532.214844 332.78125 539.046875 324.699219 539.191406 332.957031 C 539.332031 341.5 516.996094 340.640625 516.601562 366.957031 C 515.949219 382.125 497.753906 383.097656 496.882812 392.855469 C 495.804688 402.035156 532.730469 407.1875 532.238281 415.40625 C 531.730469 423.597656 492.367188 422.316406 490.652344 431.660156 C 489.777344 440.050781 544.730469 446.929688 549.148438 471.199219 C 540.949219 473.882812 517.617188 476.410156 499.984375 476.421875 C 388.890625 476.503906 309.519531 381.128906 261.902344 333.492188 C 309.519531 285.84375 388.882812 190.558594 500 190.558594 C 500 190.558594 467.019531 220.710938 483.382812 240.277344 Z M 483.367188 240.285156 "/>
<path style="fill-rule:nonzero;fill:rgb(0%,0%,0%);fill-opacity:1;stroke-width:6.927;stroke-linecap:butt;stroke-linejoin:miter;stroke:rgb(100%,100%,100%);stroke-opacity:1;stroke-miterlimit:4;" d="M 213.932812 192.377249 L 213.932812 169.520708 M 227.782031 169.520708 L 227.782031 192.377249 M 241.642969 169.520708 L 241.642969 192.377249 " transform="matrix(1.666667,0,0,1.6675,0,0)"/>
<path style="fill-rule:nonzero;fill:rgb(0%,0%,0%);fill-opacity:1;stroke-width:6.927;stroke-linecap:butt;stroke-linejoin:miter;stroke:rgb(100%,100%,100%);stroke-opacity:1;stroke-miterlimit:4;" d="M 213.932812 192.376951 L 213.932812 169.52041 M 227.782031 169.52041 L 227.782031 192.376951 M 241.642969 169.52041 L 241.642969 192.376951 " transform="matrix(1.666667,0,0,1.6675,0,63.531747)"/>
<path style="fill-rule:nonzero;fill:rgb(0%,0%,0%);fill-opacity:1;stroke-width:6.927;stroke-linecap:butt;stroke-linejoin:miter;stroke:rgb(100%,100%,100%);stroke-opacity:1;stroke-miterlimit:4;" d="M 213.932186 192.377249 L 213.932186 169.520708 M 227.783749 169.520708 L 227.783749 192.377249 M 241.642342 169.520708 L 241.642342 192.377249 " transform="matrix(1.666667,0,0,1.6675,69.266669,0)"/>
<path style="fill-rule:nonzero;fill:rgb(0%,0%,0%);fill-opacity:1;stroke-width:6.927;stroke-linecap:butt;stroke-linejoin:miter;stroke:rgb(100%,100%,100%);stroke-opacity:1;stroke-miterlimit:4;" d="M 213.932186 192.376951 L 213.932186 169.52041 M 227.783749 169.52041 L 227.783749 192.376951 M 241.642342 169.52041 L 241.642342 192.376951 " transform="matrix(1.666667,0,0,1.6675,69.266669,63.531747)"/>
<path style="fill-rule:nonzero;fill:rgb(0%,0%,0%);fill-opacity:1;stroke-width:6.927;stroke-linecap:butt;stroke-linejoin:miter;stroke:rgb(0%,0%,0%);stroke-opacity:1;stroke-miterlimit:4;" d="M 213.933748 192.377249 L 213.933748 169.520708 M 227.782967 169.520708 L 227.782967 192.377249 M 241.643904 169.520708 L 241.643904 192.377249 " transform="matrix(1.666667,0,0,1.6675,174.600004,0)"/>
<path style="fill-rule:nonzero;fill:rgb(0%,0%,0%);fill-opacity:1;stroke-width:6.927;stroke-linecap:butt;stroke-linejoin:miter;stroke:rgb(0%,0%,0%);stroke-opacity:1;stroke-miterlimit:4;" d="M 213.933748 192.376951 L 213.933748 169.52041 M 227.782967 169.52041 L 227.782967 192.376951 M 241.643904 169.52041 L 241.643904 192.376951 " transform="matrix(1.666667,0,0,1.6675,174.600004,63.531747)"/>
<path style="fill-rule:nonzero;fill:rgb(0%,0%,0%);fill-opacity:1;stroke-width:6.927;stroke-linecap:butt;stroke-linejoin:miter;stroke:rgb(0%,0%,0%);stroke-opacity:1;stroke-miterlimit:4;" d="M 213.933121 192.377249 L 213.933121 169.520708 M 227.78234 169.520708 L 227.78234 192.377249 M 241.643278 169.520708 L 241.643278 192.377249 " transform="matrix(1.666667,0,0,1.6675,243.866673,0)"/>
<path style="fill-rule:nonzero;fill:rgb(0%,0%,0%);fill-opacity:1;stroke-width:6.927;stroke-linecap:butt;stroke-linejoin:miter;stroke:rgb(0%,0%,0%);stroke-opacity:1;stroke-miterlimit:4;" d="M 213.933121 192.376951 L 213.933121 169.52041 M 227.78234 169.52041 L 227.78234 192.376951 M 241.643278 169.52041 L 241.643278 192.376951 " transform="matrix(1.666667,0,0,1.6675,243.866673,63.531747)"/>
<path style="fill-rule:nonzero;fill:rgb(23.921569%,36.470589%,65.490198%);fill-opacity:1;stroke-width:1.282;stroke-linecap:butt;stroke-linejoin:miter;stroke:rgb(0%,0%,0%);stroke-opacity:1;stroke-miterlimit:4;" d="M 767.025 294.901377 C 760.531641 306.145755 772.006641 291.159108 800.001562 309.982899 C 805.190625 313.482712 809.722266 322.717157 809.722266 329.122939 C 808.407422 328.240958 807.430078 326.283733 805.978125 325.008199 C 803.949609 327.042729 807.91875 336.375562 808.498828 340.781953 C 804.121875 338.332787 804.54375 337.17321 803.088281 334.165339 C 803.380078 337.802193 802.339453 347.823744 804.079687 351.685485 C 800.627344 350.698088 800.859375 347.922133 799.059375 347.363428 C 800.282812 351.731166 797.990625 356.485429 798.598828 361.397817 C 796.584375 359.40194 794.436328 357.838268 793.497656 357.033593 C 793.339453 359.370315 789.619922 365.51607 789.535547 367.726293 C 787.826953 366.69673 787.362891 365.083864 787.078125 363.998079 C 784.951172 366.668619 777.396094 376.53556 776.910937 379.543431 C 771.089062 374.402642 756.175781 361.882731 754.235156 355.234492 C 752.519531 359.008386 750.0375 360.280407 745.126172 363.035279 C 743.185547 352.504217 735.932812 340.662481 739.810547 331.635354 C 737.061328 333.265789 734.797266 334.896224 732.051562 336.902642 C 734.656641 321.645427 747.931641 303.759839 767.028516 294.901377 Z M 767.025 294.901377 " transform="matrix(1.111111,0,0,1.111667,0,0)"/>
<path style=" stroke:none;fill-rule:nonzero;fill:rgb(65.490198%,0%,0%);fill-opacity:1;" d="M 825.351562 389.726562 C 828.34375 383.738281 831.101562 381.839844 833.039062 377.980469 C 836.457031 371.203125 836.945312 365.8125 839.921875 366.601562 C 842.902344 367.390625 842.898438 370.167969 839.039062 376.832031 C 835.179688 383.5 833.347656 384.921875 825.351562 389.726562 Z M 845.601562 404 C 845.214844 399.441406 846.535156 397.535156 846.296875 394.601562 C 845.886719 389.433594 843.773438 385.886719 846.519531 385.632812 C 849.265625 385.382812 850.550781 387.144531 850.558594 392.351562 C 850.566406 397.5625 849.761719 398.929688 845.601562 404.003906 Z M 860.964844 412.941406 C 859.765625 406.574219 860.664062 403.75 859.898438 399.648438 C 858.558594 392.429688 855.914062 387.679688 858.460938 387.019531 C 861.003906 386.359375 862.542969 388.695312 863.503906 396.011719 C 864.46875 403.332031 863.960938 405.34375 860.964844 412.941406 Z M 876.949219 368.335938 C 873.195312 365.484375 871.007812 365.292969 868.585938 363.460938 C 864.324219 360.25 862.167969 356.808594 860.792969 358.515625 C 859.421875 360.222656 860.398438 362.089844 864.863281 365.054688 C 869.332031 368.019531 870.84375 368.253906 876.949219 368.335938 Z M 874.300781 389.460938 C 872.320312 385.351562 870.238281 384.308594 868.960938 381.664062 C 866.699219 377.015625 866.695312 372.996094 864.242188 374.027344 C 861.789062 375.058594 861.59375 377.160156 864.214844 381.660156 C 866.835938 386.160156 868.210938 386.972656 874.300781 389.460938 Z M 874.300781 389.460938 "/>
<path style="fill-rule:nonzero;fill:rgb(23.921569%,36.470589%,65.490198%);fill-opacity:1;stroke-width:1.6;stroke-linecap:butt;stroke-linejoin:miter;stroke:rgb(0%,0%,0%);stroke-opacity:1;stroke-miterlimit:4;" d="M 121.173047 305.731119 C 120.810937 302.456194 121.510547 302.062641 119.496094 299.595905 C 122.431641 300.822245 122.540625 304.083115 126.105469 301.767476 C 127.416797 301.089299 127.986328 301.068216 126.397266 297.431362 C 130.113281 297.603542 142.291406 301.781531 144.239062 301.876406 C 149.361328 302.111835 158.705859 296.496674 165.192187 303.401424 C 171.418359 309.694762 169.340625 316.227043 169.340625 324.944949 C 166.8375 323.74672 168.043359 323.152877 165.389062 320.036076 C 167.378906 327.657656 165.283594 341.393366 165.283594 349.471749 C 164.260547 347.525066 164.411719 348.368394 163.413281 346.351434 C 160.758984 353.727043 157.577344 355.245034 157.577344 363.96294 C 156.617578 360.543947 157.542187 361.267804 156.476953 359.468703 C 153.896484 365.069809 136.585547 369.855697 143.258203 375.498969 C 137.235937 371.967532 134.595703 372.340002 131.867578 369.163465 C 130.689844 369.922461 129.754687 371.359633 128.661328 373.327399 C 118.075781 368.460692 121.862109 357.954226 113.56875 350.937031 C 112.134375 353.878139 112.788281 353.452961 111.237891 358.242363 C 109.557422 351.590611 109.100391 347.363428 107.2125 342.475637 C 105.58125 345.184829 105.725391 344.144725 102.76875 348.241895 C 101.545312 340.138915 99.551953 338.227371 100.339453 332.868722 C 97.196484 335.085973 99.256641 334.186422 96.113672 336.916698 C 99.091406 316.156765 111.948047 300.815217 121.176562 305.727605 Z M 121.173047 305.731119 " transform="matrix(1.111111,0,0,1.111667,0,0)"/>
<path style=" stroke:none;fill-rule:nonzero;fill:rgb(65.490198%,0%,0%);fill-opacity:1;" d="M 120.167969 377.539062 C 123.199219 370.109375 125.929688 367.773438 127.890625 362.992188 C 131.347656 354.582031 131.910156 347.863281 134.8125 348.886719 C 137.71875 349.914062 137.671875 353.375 133.785156 361.636719 C 129.898438 369.898438 128.082031 371.648438 120.167969 377.535156 Z M 131.640625 396.132812 C 132.855469 389.46875 134.773438 387.042969 135.5625 382.753906 C 136.960938 375.210938 136.179688 369.589844 138.878906 369.886719 C 141.578125 370.183594 142.191406 373.03125 140.394531 380.535156 C 138.597656 388.039062 137.355469 389.816406 131.640625 396.132812 Z M 145.363281 409.054688 C 145.707031 402.59375 147.21875 400.074219 147.445312 395.914062 C 147.855469 388.597656 146.449219 383.359375 149.023438 383.332031 C 151.597656 383.300781 152.515625 385.933594 151.726562 393.257812 C 150.9375 400.582031 149.984375 402.410156 145.363281 409.054688 Z M 174.832031 366.816406 C 169.199219 361.199219 165.792969 360.152344 162.15625 356.539062 C 155.753906 350.195312 152.660156 344.238281 150.378906 346.351562 C 148.101562 348.464844 149.472656 351.625 156.214844 357.664062 C 162.957031 363.699219 165.300781 364.578125 174.832031 366.816406 Z M 171.398438 388.527344 C 167.730469 382.886719 165.035156 381.425781 162.667969 377.796875 C 158.488281 371.421875 157.050781 365.941406 154.683594 367.300781 C 152.3125 368.65625 152.84375 371.519531 157.371094 377.703125 C 161.898438 383.882812 163.722656 385.019531 171.398438 388.53125 Z M 171.398438 388.527344 "/>
<path style="fill-rule:nonzero;fill:rgb(23.921569%,36.470589%,65.490198%);fill-opacity:1;stroke-width:1.239;stroke-linecap:butt;stroke-linejoin:miter;stroke:rgb(0%,0%,0%);stroke-opacity:1;stroke-miterlimit:4;" d="M 380.7 194.250141 C 374.762109 205.733461 391.095703 190.430566 416.696484 209.654938 C 421.442578 213.225028 428.241797 227.333208 428.241797 233.872517 C 422.792578 232.71294 413.138672 227.333208 413.138672 227.333208 C 413.138672 227.333208 424.466016 238.679488 424.466016 251.761619 C 420.465234 249.259745 418.461328 249.632215 417.132422 246.561094 C 417.132422 250.795305 420.69375 253.493956 420.69375 260.033265 C 418.257422 258.079554 415.652344 256.340189 412.913672 254.843281 C 416.689453 261.38259 406.033594 274.071168 411.363281 278.305379 C 402.036328 276.956053 392.494922 270.996533 388.719141 264.457225 C 386.71875 265.80655 386.500781 267.925412 386.423437 270.181316 C 386.71875 270.427286 372.223828 259.425365 373.55625 255.198182 C 371.612109 257.924944 371.341406 259.425365 370.894922 262.5 C 365.572266 257.250281 360.692578 252.000562 358.917187 245.211769 C 356.551172 248.28289 356.403516 248.28289 354.0375 251.357524 C 352.262109 240.601574 352.262109 240.984586 355.812891 231.76771 C 353.299219 233.429769 351.228516 235.095343 348.714844 237.147442 C 351.094922 221.566951 363.237891 203.301865 380.703516 194.253654 Z M 380.7 194.250141 " transform="matrix(1.111111,0,0,1.111667,0,0)"/>
<path style=" stroke:none;fill-rule:nonzero;fill:rgb(65.490198%,0%,0%);fill-opacity:1;" d="M 406.734375 278.304688 C 407.789062 269.511719 410.085938 266.195312 410.773438 260.53125 C 412 250.570312 410.542969 243.289062 414.074219 243.472656 C 417.601562 243.65625 418.617188 247.332031 416.875 257.273438 C 415.128906 267.214844 413.660156 269.628906 406.734375 278.308594 Z M 425.148438 294.414062 C 424.4375 286.992188 425.804688 283.835938 425.351562 279.054688 C 424.566406 270.640625 421.96875 264.945312 425.046875 264.421875 C 428.121094 263.898438 429.675781 266.71875 430.007812 275.210938 C 430.339844 283.703125 429.515625 285.964844 425.148438 294.414062 Z M 453.898438 307.554688 C 450.773438 301.132812 448.085938 299.21875 446.070312 295.085938 C 442.503906 287.820312 441.757812 281.886719 439.007812 282.960938 C 436.257812 284.039062 436.410156 287.105469 440.382812 294.21875 C 444.351562 301.328125 446.148438 302.777344 453.898438 307.554688 Z M 463.851562 250.042969 C 455.886719 245.847656 451.796875 245.796875 446.664062 243.097656 C 437.628906 238.375 432.367188 233.035156 430.503906 235.972656 C 428.632812 238.914062 431.125 241.835938 440.441406 246.128906 C 449.761719 250.425781 452.621094 250.628906 463.851562 250.042969 Z M 466.765625 274.070312 C 460.96875 269.246094 457.539062 268.535156 453.800781 265.429688 C 447.210938 259.980469 443.933594 254.628906 441.730469 256.800781 C 439.53125 258.96875 441.003906 261.835938 447.917969 266.964844 C 454.832031 272.097656 457.195312 272.734375 466.765625 274.070312 Z M 466.765625 274.070312 "/>
</g>
</svg>
