<?xml version="1.0" encoding="UTF-8"?>
<svg xmlns="http://www.w3.org/2000/svg" xmlns:xlink="http://www.w3.org/1999/xlink" width="1000px" height="667px" viewBox="0 0 1000 667" version="1.1">
<defs>
<clipPath id="clip1">
  <path d="M 0 0 L 542 0 L 542 390 L 0 390 Z M 0 0 "/>
</clipPath>
<clipPath id="clip2">
  <path d="M 0 0 L 0 166.75 L 541.667969 166.75 L 541.667969 333.5 L 500 333.5 Z M 500 0 L 250 0 L 250 389.082031 L 0 389.082031 L 0 333.5 Z M 500 0 "/>
</clipPath>
</defs>
<g id="surface1">
<path style=" stroke:none;fill-rule:nonzero;fill:rgb(0.392157%,12.941177%,41.176471%);fill-opacity:1;" d="M 0 0 L 500 0 C 568.929688 184.164062 512.945312 408.003906 374.929688 500.0625 C 236.914062 592.117188 69.085938 517.5625 0 333.5 Z M 0 0 "/>
<path style="fill:none;stroke-width:480;stroke-linecap:butt;stroke-linejoin:miter;stroke:rgb(100%,100%,100%);stroke-opacity:1;stroke-miterlimit:4;" d="M 0 0 L 4800 2400 M 0 2400 L 4800 0 " transform="matrix(0.104167,0,0,0.138958,0,0)"/>
<g clip-path="url(#clip1)" clip-rule="nonzero">
<g clip-path="url(#clip2)" clip-rule="nonzero">
<path style="fill:none;stroke-width:4;stroke-linecap:butt;stroke-linejoin:miter;stroke:rgb(80.784315%,6.666667%,14.901961%);stroke-opacity:1;stroke-miterlimit:4;" d="M 0 0 L 60 30 M 0 30 L 60 0 " transform="matrix(8.333333,0,0,11.116667,0,0)"/>
</g>
</g>
<path style="fill:none;stroke-width:800;stroke-linecap:butt;stroke-linejoin:miter;stroke:rgb(100%,100%,100%);stroke-opacity:1;stroke-miterlimit:4;" d="M 2400 -399.99063 L 2400 2799.99063 M -400.0125 1200 L 5200.0125 1200 " transform="matrix(0.104167,0,0,0.138958,0,0)"/>
<path style="fill:none;stroke-width:480;stroke-linecap:butt;stroke-linejoin:miter;stroke:rgb(80.784315%,6.666667%,14.901961%);stroke-opacity:1;stroke-miterlimit:4;" d="M 2400 0 L 2400 2799.99063 M 0 1200 L 5200.0125 1200 " transform="matrix(0.104167,0,0,0.138958,0,0)"/>
<path style=" stroke:none;fill-rule:nonzero;fill:rgb(0.392157%,12.941177%,41.176471%);fill-opacity:1;" d="M 0 333.5 L 500 333.5 L 500 0 L 1000 0 L 1000 667 L 0 667 "/>
<path style="fill-rule:nonzero;fill:rgb(98.823529%,81.960785%,8.627451%);fill-opacity:1;stroke-width:64;stroke-linecap:butt;stroke-linejoin:miter;stroke:rgb(0%,0%,0%);stroke-opacity:1;stroke-miterlimit:4;" d="M 840 -999.99063 L 840 -280.013118 C 840 200.00937 600 716.997751 0 997.01087 C -600 716.997751 -840 200.00937 -840 -280.013118 L -840 -999.99063 Z M 840 -999.99063 " transform="matrix(0.104167,0,0,0.138958,750,333.5)"/>
<path style="fill:none;stroke-width:56;stroke-linecap:butt;stroke-linejoin:miter;stroke:rgb(100%,100%,100%);stroke-opacity:1;stroke-miterlimit:4;" d="M 840 -999.99063 L 840 -280.013118 C 840 200.00937 600 716.997751 0 997.01087 C -600 716.997751 -840 200.00937 -840 -280.013118 L -840 -999.99063 Z M 840 -999.99063 " transform="matrix(0.104167,0,0,0.138958,750,333.5)"/>
<path style="fill-rule:nonzero;fill:rgb(98.823529%,67.843139%,33.725491%);fill-opacity:1;stroke-width:2.2;stroke-linecap:round;stroke-linejoin:round;stroke:rgb(0%,0%,0%);stroke-opacity:1;stroke-miterlimit:4;" d="M -303 -207.008996 C -325.0125 -169.986882 -361.9875 -162.003373 -391.0125 -174.006747 C -421.0125 -186.01012 -448.0125 -256.006372 -478.0125 -294.012369 C -507 -331.006372 -514.9875 -315.011244 -535.0125 -336.994003 C -553.9875 -357.992879 -583.9875 -373.988006 -631.0125 -395.998876 C -657 -408.002249 -684 -418.993628 -702 -465.011244 C -694.9875 -483.986132 -676.0125 -500.00937 -661.0125 -505.997001 C -646.0125 -511.00075 -634.0125 -533.011619 -631.9875 -551.986507 C -630 -570.005622 -613.9875 -589.992504 -592.0125 -605.003748 C -601.9875 -603.007871 -622.9875 -606.999625 -633 -613.99925 C -642 -622.01087 -657 -619.986882 -666 -612.987256 C -675 -606.999625 -685.9875 -605.003748 -702 -606.999625 C -696 -612.003373 -685.0125 -622.994753 -684 -633.002249 C -682.9875 -643.009745 -670.9875 -648.013493 -648 -648.013493 C -625.9875 -648.013493 -610.9875 -673.988006 -592.9875 -673.988006 C -606 -673.988006 -603 -695.998876 -595.9875 -697.01087 C -628.0125 -702.998501 -624 -729.001124 -610.9875 -729.001124 C -612 -732.992879 -616.0125 -737.012744 -631.0125 -741.988381 C -645 -746.992129 -637.9875 -760.007496 -627 -767.991004 C -637.0125 -788.005997 -628.0125 -802.98913 -612 -816.004498 C -634.0125 -816.988381 -610.0125 -847.994753 -604.0125 -865.001874 C -598.0125 -880.997001 -595.0125 -882.992879 -588 -873.013493 C -580.0125 -863.98988 -562.0125 -842.991004 -541.0125 -837.003373 C -520.9875 -830.987631 -508.9875 -819.996252 -505.0125 -802.98913 C -501 -784.998126 -493.0125 -776.002624 -471 -767.991004 C -448.0125 -760.991379 -417 -741.988381 -421.0125 -699.006747 C -403.0125 -697.994753 -390 -692.991004 -379.0125 -683.995502 " transform="matrix(0.104167,0,0,0.138958,750,333.5)"/>
<path style="fill-rule:nonzero;fill:rgb(100%,63.137257%,63.137257%);fill-opacity:1;stroke-width:2.2;stroke-linecap:round;stroke-linejoin:round;stroke:rgb(0%,0%,0%);stroke-opacity:1;stroke-miterlimit:4;" d="M -247.9875 -748.988006 C -247.9875 -725.00937 -237 -709.998126 -223.0125 -697.994753 C -208.0125 -685.991379 -195 -676.011994 -198 -661.00075 C -201 -645.005622 -195 -634.998126 -181.9875 -624.99063 C -168 -615.011244 -157.9875 -603.007871 -162 -582.992879 C -166.0125 -563.005997 -163.0125 -551.002624 -154.9875 -535.991379 C -147 -521.008246 -133.0125 -509.004873 -139.0125 -484.998126 C -145.0125 -460.991379 -142.0125 -429.001124 -133.9875 -413.005997 C -127.0125 -397.994753 -133.9875 -385.991379 -148.0125 -359.004873 C -162 -333.002249 -169.9875 -322.994753 -199.0125 -312.987256 C -229.0125 -303.991754 -231 -286.00075 -231 -254.994378 C -231 -223.004123 -252 -207.008996 -291 -212.996627 C -331.0125 -179.994378 -355.9875 -219.012369 -366 -268.009745 C -376.0125 -317.007121 -378 -369.996252 -436.9875 -413.005997 C -495 -456.999625 -472.0125 -530.987631 -423 -561.01012 C -373.9875 -589.992504 -379.9875 -676.011994 -385.9875 -729.001124 C -391.0125 -781.990255 -355.9875 -812.012744 -328.9875 -840.995127 C -292.9875 -826.995877 -247.9875 -772.01087 -247.9875 -748.988006 Z M -247.9875 -748.988006 " transform="matrix(0.104167,0,0,0.138958,750,333.5)"/>
<path style="fill-rule:nonzero;fill:rgb(94.509804%,69.803923%,86.274511%);fill-opacity:1;stroke-width:2.2;stroke-linecap:round;stroke-linejoin:round;stroke:rgb(0%,0%,0%);stroke-opacity:1;stroke-miterlimit:4;" d="M -333 -408.002249 C -343.9875 -434.004873 -355.9875 -460.007496 -327 -516.004498 C -297 -573.013493 -316.0125 -615.995127 -325.0125 -645.005622 C -334.0125 -673.004123 -336 -699.006747 -325.0125 -711.01012 C -313.0125 -722.001499 -307.9875 -729.001124 -307.0125 -748.004123 C -306 -765.995127 -291 -760.007496 -289.0125 -751.011994 C -286.9875 -741.988381 -285 -727.005247 -301.0125 -699.99063 C -316.9875 -671.992129 -256.0125 -603.991754 -283.9875 -530.987631 C -303 -479.994378 -277.9875 -415.001874 -268.0125 -369.996252 C -258 -324.99063 -252 -216.988381 -318 -200.993253 C -273 -223.004123 -315 -366.004498 -333 -408.002249 Z M -333 -408.002249 " transform="matrix(0.104167,0,0,0.138958,750,333.5)"/>
<path style="fill:none;stroke-width:2.2;stroke-linecap:round;stroke-linejoin:round;stroke:rgb(0%,0%,0%);stroke-opacity:1;stroke-miterlimit:4;" d="M -630 -416.013868 C -619.0125 -413.98988 -613.0125 -420.005622 -610.0125 -427.005247 C -607.0125 -434.004873 -604.9875 -437.996627 -595.0125 -439.008621 C -585 -439.008621 -568.9875 -441.988381 -565.0125 -450 C -562.0125 -458.011619 -550.0125 -451.011994 -538.9875 -470.998876 C -529.0125 -491.997751 -522 -516.004498 -495 -525 M -421.0125 -699.006747 C -430.9875 -699.006747 -460.0125 -697.994753 -472.0125 -671.992129 M -555 -823.004123 C -531 -816.004498 -541.0125 -800.00937 -529.0125 -791.013868 C -507 -774.006747 -526.9875 -755.987631 -508.9875 -751.011994 C -490.9875 -746.008246 -492 -743.000375 -496.0125 -723.013493 C -502.0125 -699.99063 -480 -699.006747 -487.9875 -683.995502 M -592.0125 -605.003748 C -577.9875 -617.991004 -543 -627.998501 -535.0125 -641.997751 M -592.9875 -673.988006 C -571.9875 -675 -544.0125 -666.988381 -540 -675 M -595.9875 -697.01087 C -586.0125 -697.01087 -565.0125 -704.010495 -561 -718.009745 M -610.9875 -729.001124 C -598.9875 -729.001124 -583.9875 -730.013118 -568.9875 -741.004498 M -627 -767.991004 C -618 -774.99063 -601.9875 -767.007121 -586.9875 -776.986507 M -612 -816.004498 C -604.9875 -816.004498 -589.9875 -818.000375 -589.9875 -809.004873 " transform="matrix(0.104167,0,0,0.138958,750,333.5)"/>
<path style="fill-rule:nonzero;fill:rgb(61.960787%,32.941177%,3.921569%);fill-opacity:1;stroke-width:2.2;stroke-linecap:round;stroke-linejoin:round;stroke:rgb(0%,0%,0%);stroke-opacity:1;stroke-miterlimit:4;" d="M -55 -233.002249 C -55 -233.002249 -125.0125 -292.007121 -182.9875 -332.008996 C -241 -372.01087 -311.0125 -421.008246 -311.0125 -430.987631 C -299.9875 -438.99925 -241 -400.993253 -160 -351.995877 C -77.9875 -301.986507 -32.0125 -252.98913 -32.0125 -252.98913 Z M -59.9875 -193.000375 C -59.9875 -193.000375 -128.0125 -233.986132 -194.9875 -262.996627 C -265 -292.007121 -370 -292.007121 -380.9875 -301.986507 C -380.9875 -311.994003 -259 -318.009745 -172 -283.011619 C -83.0125 -241.997751 -37 -212.987256 -37 -212.987256 Z M -61 -125 C -61 -125 -134.9875 -158.986132 -206.9875 -175.00937 C -277 -191.004498 -377.0125 -184.988756 -389.0125 -194.012369 C -389.0125 -203.991754 -265 -224.006747 -172 -194.012369 C -77.9875 -165.001874 -38.0125 -144.986882 -38.0125 -144.986882 Z M -65.0125 -55.987631 C -65.0125 -55.987631 -121 -93.993628 -194.9875 -102.005247 C -265 -109.004873 -358 -55.987631 -370 -65.995127 C -370 -76.002624 -289 -135.007496 -188.0125 -125 C -89.0125 -114.992504 -41.9875 -76.002624 -41.9875 -76.002624 Z M -41.9875 -273.988006 C -41.9875 -273.988006 -113.0125 -339.008621 -113.0125 -383.002249 C -113.0125 -421.992129 -70 -482.008996 -50.9875 -482.008996 C -61 -461.994003 -94 -421.992129 -94 -383.002249 C -94 -343.000375 -19 -294.002999 -19 -294.002999 Z M -41.9875 -273.988006 " transform="matrix(0.104167,0,0,0.138958,791.666667,277.916667)"/>
<path style="fill-rule:nonzero;fill:rgb(61.960787%,32.941177%,3.921569%);fill-opacity:1;stroke-width:2.2;stroke-linecap:round;stroke-linejoin:round;stroke:rgb(0%,0%,0%);stroke-opacity:1;stroke-miterlimit:4;" d="M -41.9875 -273.988006 C -41.9875 -273.988006 -28 -339.008621 -28 -383.002249 C -28 -442.007121 -70 -496.008246 -65.9875 -510.991379 C -50.9875 -496.008246 -8.9875 -451.986507 -8.9875 -383.002249 C -8.9875 -323.013493 -19 -294.002999 -19 -294.002999 Z M -41.9875 -273.988006 " transform="matrix(0.104167,0,0,0.138958,791.666667,277.916667)"/>
<path style="fill-rule:nonzero;fill:rgb(61.960787%,32.941177%,3.921569%);fill-opacity:1;stroke-width:12;stroke-linecap:round;stroke-linejoin:round;stroke:rgb(98.823529%,81.960785%,8.627451%);stroke-opacity:1;stroke-miterlimit:4;" d="M -25 -294.986882 C -25 -313.98988 -32.0125 -330.997001 -44.0125 -344.012369 C -59.9875 -362.987256 -83.9875 -369.002999 -109 -365.011244 C -139 -360.007496 -163 -341.988381 -178 -313.98988 C -197.9875 -276.995877 -200.0125 -236.994003 -200.9875 -198.004123 C -200.9875 -62.987256 -196 -8.002249 -191.9875 124.99063 C -191.0125 164.008621 -184 244.012369 -202 307.008996 C -209.0125 333.995502 -217 358.986132 -229 384.988756 C -221.0125 351.986507 -217 335.007496 -212.9875 309.988756 C -202 244.996252 -205 183.995502 -206.9875 124.006747 C -211 0.993253 -218.0125 -62.003373 -221.9875 -210.991379 C -223 -255.997001 -218.9875 -290.011244 -197.9875 -325.993253 C -176.0125 -362.987256 -137.9875 -390.001874 -95.0125 -390.001874 C -77.0125 -390.001874 -62.0125 -386.994003 -47.0125 -377.998501 C -17.0125 -362.003373 -2.9875 -329.001124 -2.9875 -295.998876 Z M -25 -294.986882 " transform="matrix(0.104167,0,0,0.138958,791.666667,277.916667)"/>
<path style=" stroke:none;fill-rule:nonzero;fill:rgb(61.960787%,32.941177%,3.921569%);fill-opacity:1;" d="M 789.0625 236.925781 C 789.0625 234.285156 788.332031 231.921875 787.082031 230.113281 C 785.417969 227.476562 782.917969 226.640625 780.3125 227.195312 C 777.1875 227.890625 774.6875 230.394531 773.125 234.285156 C 771.042969 239.425781 770.832031 244.984375 770.730469 250.402344 C 770.730469 269.164062 771.25 276.804688 771.667969 295.285156 C 771.769531 300.707031 772.5 311.824219 770.625 320.578125 C 769.894531 324.328125 769.0625 327.800781 767.8125 331.414062 C 768.644531 326.828125 769.0625 324.46875 769.480469 320.992188 C 770.625 311.960938 770.3125 303.484375 770.105469 295.148438 C 769.6875 278.054688 768.957031 269.300781 768.542969 248.597656 C 768.4375 242.34375 768.855469 237.617188 771.042969 232.617188 C 773.332031 227.476562 777.292969 223.722656 781.769531 223.722656 C 783.644531 223.722656 785.207031 224.140625 786.769531 225.390625 C 789.894531 227.613281 791.355469 232.199219 791.355469 236.785156 Z M 789.0625 236.925781 "/>
<path style="fill-rule:nonzero;fill:rgb(61.960787%,32.941177%,3.921569%);fill-opacity:1;stroke-width:2.2;stroke-linecap:round;stroke-linejoin:round;stroke:rgb(0%,0%,0%);stroke-opacity:1;stroke-miterlimit:4;" d="M -19 187.003373 C -19 187.003373 -47.0125 237.012744 -68.0125 272.994753 C -89.0125 309.004873 -106 316.988381 -122.0125 305.997001 C -137.0125 295.005622 -124 265.995127 -112 251.995877 C -100 237.996627 -32.9875 173.004123 -32.9875 173.004123 Z M -19 187.003373 " transform="matrix(0.104167,0,0,0.138958,791.666667,277.916667)"/>
<path style="fill-rule:nonzero;fill:rgb(61.960787%,32.941177%,3.921569%);fill-opacity:1;stroke-width:2.2;stroke-linecap:round;stroke-linejoin:round;stroke:rgb(0%,0%,0%);stroke-opacity:1;stroke-miterlimit:4;" d="M -11.9875 190.995127 C -11.9875 190.995127 -23.0125 248.004123 -32.0125 288.98988 C -40 330.003748 -53.9875 344.002999 -71.0125 338.99925 C -89.0125 335.007496 -86.0125 302.005247 -79 284.998126 C -71.9875 267.991004 -29.9875 181.999625 -29.9875 181.999625 Z M -11.9875 190.995127 " transform="matrix(0.104167,0,0,0.138958,791.666667,277.916667)"/>
<path style="fill-rule:nonzero;fill:rgb(61.960787%,32.941177%,3.921569%);fill-opacity:1;stroke-width:2.2;stroke-linecap:round;stroke-linejoin:round;stroke:rgb(0%,0%,0%);stroke-opacity:1;stroke-miterlimit:4;" d="M 0.0125 192.991004 L 0.0125 293.009745 C 0.0125 335.007496 -10 351.986507 -29.0125 351.002624 C -47.0125 349.99063 -50.9875 318.000375 -47.0125 298.997376 C -44.0125 281.006372 -19 187.987256 -19 187.987256 Z M 0.0125 192.991004 " transform="matrix(0.104167,0,0,0.138958,791.666667,277.916667)"/>
<path style="fill-rule:nonzero;fill:rgb(61.960787%,32.941177%,3.921569%);fill-opacity:1;stroke-width:2.2;stroke-linecap:round;stroke-linejoin:round;stroke:rgb(0%,0%,0%);stroke-opacity:1;stroke-miterlimit:4;" d="M -54.9875 -233.002249 C -54.9875 -233.002249 -125 -292.007121 -183.0125 -332.008996 C -240.9875 -372.01087 -311 -421.008246 -311 -430.987631 C -300.0125 -438.99925 -240.9875 -400.993253 -159.9875 -351.995877 C -78.0125 -301.986507 -32 -252.98913 -32 -252.98913 Z M -60.0125 -193.000375 C -60.0125 -193.000375 -128 -233.986132 -195.0125 -262.996627 C -264.9875 -292.007121 -369.9875 -292.007121 -381.0125 -301.986507 C -381.0125 -311.994003 -258.9875 -318.009745 -171.9875 -283.011619 C -83 -241.997751 -36.9875 -212.987256 -36.9875 -212.987256 Z M -60.9875 -125 C -60.9875 -125 -135.0125 -158.986132 -207.0125 -175.00937 C -276.9875 -191.004498 -377 -184.988756 -389 -194.012369 C -389 -203.991754 -264.9875 -224.006747 -171.9875 -194.012369 C -78.0125 -165.001874 -38 -144.986882 -38 -144.986882 Z M -65 -55.987631 C -65 -55.987631 -120.9875 -93.993628 -195.0125 -102.005247 C -264.9875 -109.004873 -357.9875 -55.987631 -369.9875 -65.995127 C -369.9875 -76.002624 -288.9875 -135.007496 -188 -125 C -89 -114.992504 -42.0125 -76.002624 -42.0125 -76.002624 Z M -42.0125 -273.988006 C -42.0125 -273.988006 -113 -339.008621 -113 -383.002249 C -113 -421.992129 -69.9875 -482.008996 -51.0125 -482.008996 C -60.9875 -461.994003 -93.9875 -421.992129 -93.9875 -383.002249 C -93.9875 -343.000375 -18.9875 -294.002999 -18.9875 -294.002999 Z M -42.0125 -273.988006 " transform="matrix(-0.104167,0,0,0.138958,791.666667,277.916667)"/>
<path style="fill-rule:nonzero;fill:rgb(61.960787%,32.941177%,3.921569%);fill-opacity:1;stroke-width:2.2;stroke-linecap:round;stroke-linejoin:round;stroke:rgb(0%,0%,0%);stroke-opacity:1;stroke-miterlimit:4;" d="M -42.0125 -273.988006 C -42.0125 -273.988006 -27.9875 -339.008621 -27.9875 -383.002249 C -27.9875 -442.007121 -69.9875 -496.008246 -66.0125 -510.991379 C -51.0125 -496.008246 -9.0125 -451.986507 -9.0125 -383.002249 C -9.0125 -323.013493 -18.9875 -294.002999 -18.9875 -294.002999 Z M -42.0125 -273.988006 " transform="matrix(-0.104167,0,0,0.138958,791.666667,277.916667)"/>
<path style="fill-rule:nonzero;fill:rgb(61.960787%,32.941177%,3.921569%);fill-opacity:1;stroke-width:12;stroke-linecap:round;stroke-linejoin:round;stroke:rgb(98.823529%,81.960785%,8.627451%);stroke-opacity:1;stroke-miterlimit:4;" d="M -24.9875 -294.986882 C -24.9875 -313.98988 -32 -330.997001 -44 -344.012369 C -60.0125 -362.987256 -84.0125 -369.002999 -108.9875 -365.011244 C -138.9875 -360.007496 -162.9875 -341.988381 -177.9875 -313.98988 C -198.0125 -276.995877 -200 -236.994003 -201.0125 -198.004123 C -201.0125 -62.987256 -195.9875 -8.002249 -192.0125 124.99063 C -191 164.008621 -183.9875 244.012369 -201.9875 307.008996 C -209 333.995502 -216.9875 358.986132 -228.9875 384.988756 C -221 351.986507 -216.9875 335.007496 -213.0125 309.988756 C -201.9875 244.996252 -204.9875 183.995502 -207.0125 124.006747 C -210.9875 0.993253 -218 -62.003373 -222.0125 -210.991379 C -222.9875 -255.997001 -219.0125 -290.011244 -198.0125 -325.993253 C -176 -362.987256 -138.0125 -390.001874 -95 -390.001874 C -77 -390.001874 -62 -386.994003 -47 -377.998501 C -17 -362.003373 -3.0125 -329.001124 -3.0125 -295.998876 Z M -24.9875 -294.986882 " transform="matrix(-0.104167,0,0,0.138958,791.666667,277.916667)"/>
<path style=" stroke:none;fill-rule:nonzero;fill:rgb(61.960787%,32.941177%,3.921569%);fill-opacity:1;" d="M 794.269531 236.925781 C 794.269531 234.285156 795 231.921875 796.25 230.113281 C 797.917969 227.476562 800.417969 226.640625 803.019531 227.195312 C 806.144531 227.890625 808.644531 230.394531 810.207031 234.285156 C 812.292969 239.425781 812.5 244.984375 812.605469 250.402344 C 812.605469 269.164062 812.082031 276.804688 811.667969 295.285156 C 811.5625 300.707031 810.832031 311.824219 812.707031 320.578125 C 813.4375 324.328125 814.269531 327.800781 815.519531 331.414062 C 814.6875 326.828125 814.269531 324.46875 813.855469 320.992188 C 812.707031 311.960938 813.019531 303.484375 813.230469 295.148438 C 813.644531 278.054688 814.375 269.300781 814.792969 248.597656 C 814.894531 242.34375 814.480469 237.617188 812.292969 232.617188 C 810 227.476562 806.042969 223.722656 801.5625 223.722656 C 799.6875 223.722656 798.125 224.140625 796.5625 225.390625 C 793.4375 227.613281 791.980469 232.199219 791.980469 236.785156 Z M 794.269531 236.925781 "/>
<path style="fill-rule:nonzero;fill:rgb(61.960787%,32.941177%,3.921569%);fill-opacity:1;stroke-width:2.2;stroke-linecap:round;stroke-linejoin:round;stroke:rgb(0%,0%,0%);stroke-opacity:1;stroke-miterlimit:4;" d="M -18.9875 187.003373 C -18.9875 187.003373 -47 237.012744 -68 272.994753 C -89 309.004873 -105.9875 316.988381 -122 305.997001 C -137 295.005622 -123.9875 265.995127 -111.9875 251.995877 C -99.9875 237.996627 -33.0125 173.004123 -33.0125 173.004123 Z M -18.9875 187.003373 " transform="matrix(-0.104167,0,0,0.138958,791.666667,277.916667)"/>
<path style="fill-rule:nonzero;fill:rgb(61.960787%,32.941177%,3.921569%);fill-opacity:1;stroke-width:2.2;stroke-linecap:round;stroke-linejoin:round;stroke:rgb(0%,0%,0%);stroke-opacity:1;stroke-miterlimit:4;" d="M -12.0125 190.995127 C -12.0125 190.995127 -23 248.004123 -32 288.98988 C -39.9875 330.003748 -54.0125 344.002999 -71 338.99925 C -89 335.007496 -86 302.005247 -78.9875 284.998126 C -72.0125 267.991004 -30.0125 181.999625 -30.0125 181.999625 Z M -12.0125 190.995127 " transform="matrix(-0.104167,0,0,0.138958,791.666667,277.916667)"/>
<path style="fill-rule:nonzero;fill:rgb(61.960787%,32.941177%,3.921569%);fill-opacity:1;stroke-width:2.2;stroke-linecap:round;stroke-linejoin:round;stroke:rgb(0%,0%,0%);stroke-opacity:1;stroke-miterlimit:4;" d="M -0.0125 192.991004 L -0.0125 293.009745 C -0.0125 335.007496 -9.9875 351.986507 -29 351.002624 C -47 349.99063 -51.0125 318.000375 -47 298.997376 C -44 281.006372 -18.9875 187.987256 -18.9875 187.987256 Z M -0.0125 192.991004 " transform="matrix(-0.104167,0,0,0.138958,791.666667,277.916667)"/>
<path style="fill-rule:nonzero;fill:rgb(61.960787%,32.941177%,3.921569%);fill-opacity:1;stroke-width:2.2;stroke-linecap:round;stroke-linejoin:round;stroke:rgb(0%,0%,0%);stroke-opacity:1;stroke-miterlimit:4;" d="M 0.0125 192.007121 C -53.0125 190.995127 -58 171.992129 -58 171.992129 C -58 171.992129 -65.0125 148.013493 -65.9875 133.002249 C -67 131.006372 -80.9875 101.011994 -77.0125 87.996627 C -82 75.993253 -94 47.01087 -83.0125 42.007121 C -88 28.007871 -95.9875 12.012744 -97 -2.998501 C -101.0125 -13.98988 -110.9875 -37.996627 -103 -46.008246 C -103 -46.008246 -122.0125 -86.01012 -113.0125 -95.989505 C -113.0125 -95.989505 -122.0125 -135.007496 -113.0125 -144.986882 C -113.0125 -144.986882 -113.0125 -184.988756 -103 -194.996252 C -103 -194.996252 -103 -233.986132 -94 -243.993628 C -94 -241.997751 -65.9875 -299.006747 0.0125 -299.006747 L -1 -213.99925 L 0.0125 -213.99925 Z M 0.0125 192.007121 " transform="matrix(0.104167,0,0,0.138958,791.666667,277.916667)"/>
<path style="fill:none;stroke-width:2.2;stroke-linecap:round;stroke-linejoin:round;stroke:rgb(0%,0%,0%);stroke-opacity:1;stroke-miterlimit:4;" d="M 0.0125 -25.993253 C -85 -27.005247 -103 -46.008246 -103 -46.008246 M 0.0125 -76.002624 C -85 -76.002624 -113.0125 -95.989505 -113.0125 -95.989505 M 0.0125 -125 C -85 -126.011994 -113.0125 -144.986882 -113.0125 -144.986882 M 0.0125 -175.00937 C -85 -175.993253 -103 -194.996252 -103 -194.996252 M -1 -213.99925 C 0.0125 -213.99925 -65.0125 -213.99925 -74.9875 -224.006747 L -94 -243.009745 M 0.0125 152.005247 C -25 152.005247 -53.0125 148.013493 -65.9875 133.002249 M 0.0125 112.003373 C -47.0125 112.003373 -74.9875 93.000375 -74.9875 93.000375 C -74.9875 93.000375 -76 91.004498 -77.0125 87.996627 M 0.0125 63.005997 C -62.0125 61.994003 -79 49.006747 -83.0125 42.007121 M 0.0125 23.004123 C -85 23.004123 -94 2.98913 -94 2.98913 L -97 -2.998501 " transform="matrix(0.104167,0,0,0.138958,791.666667,277.916667)"/>
<path style="fill-rule:nonzero;fill:rgb(61.960787%,32.941177%,3.921569%);fill-opacity:1;stroke-width:2.2;stroke-linecap:round;stroke-linejoin:round;stroke:rgb(0%,0%,0%);stroke-opacity:1;stroke-miterlimit:4;" d="M -0.0125 192.007121 C -53 190.995127 -57.9875 171.992129 -57.9875 171.992129 C -57.9875 171.992129 -65 148.013493 -66.0125 133.002249 C -66.9875 131.006372 -81.0125 101.011994 -77 87.996627 C -81.9875 75.993253 -93.9875 47.01087 -83 42.007121 C -87.9875 28.007871 -96.0125 12.012744 -96.9875 -2.998501 C -101 -13.98988 -111.0125 -37.996627 -102.9875 -46.008246 C -102.9875 -46.008246 -122 -86.01012 -113 -95.989505 C -113 -95.989505 -122 -135.007496 -113 -144.986882 C -113 -144.986882 -113 -184.988756 -102.9875 -194.996252 C -102.9875 -194.996252 -102.9875 -233.986132 -93.9875 -243.993628 C -93.9875 -241.997751 -66.0125 -299.006747 -0.0125 -299.006747 L -0.9875 -213.99925 L -0.0125 -213.99925 Z M -0.0125 192.007121 " transform="matrix(-0.104167,0,0,0.138958,791.666667,277.916667)"/>
<path style="fill:none;stroke-width:2.2;stroke-linecap:round;stroke-linejoin:round;stroke:rgb(0%,0%,0%);stroke-opacity:1;stroke-miterlimit:4;" d="M -0.0125 -25.993253 C -84.9875 -27.005247 -102.9875 -46.008246 -102.9875 -46.008246 M -0.0125 -76.002624 C -84.9875 -76.002624 -113 -95.989505 -113 -95.989505 M -0.0125 -125 C -84.9875 -126.011994 -113 -144.986882 -113 -144.986882 M -0.0125 -175.00937 C -84.9875 -175.993253 -102.9875 -194.996252 -102.9875 -194.996252 M -0.9875 -213.99925 C -0.0125 -213.99925 -65 -213.99925 -75.0125 -224.006747 L -93.9875 -243.009745 M -0.0125 152.005247 C -24.9875 152.005247 -53 148.013493 -66.0125 133.002249 M -0.0125 112.003373 C -47 112.003373 -75.0125 93.000375 -75.0125 93.000375 C -75.0125 93.000375 -75.9875 91.004498 -77 87.996627 M -0.0125 63.005997 C -62 61.994003 -78.9875 49.006747 -83 42.007121 M -0.0125 23.004123 C -84.9875 23.004123 -93.9875 2.98913 -93.9875 2.98913 L -96.9875 -2.998501 " transform="matrix(-0.104167,0,0,0.138958,791.666667,277.916667)"/>
<path style="fill-rule:nonzero;fill:rgb(0%,61.960787%,28.627452%);fill-opacity:1;stroke-width:2.2;stroke-linecap:round;stroke-linejoin:round;stroke:rgb(0%,0%,0%);stroke-opacity:1;stroke-miterlimit:4;" d="M 0 711.994003 C -43.0125 751.995877 -126 725.993253 -151.9875 708.002249 C -178.9875 716.997751 -250.9875 688.99925 -270 657.992879 C -322.0125 664.992504 -340.0125 591.004498 -331.0125 572.001499 C -316.9875 544.002999 -342 526.011994 -324 507.008996 C -298.9875 483.002249 -337.9875 460.007496 -313.9875 444.012369 C -289.9875 427.005247 -319.9875 399.006747 -295.9875 380.987631 C -271.0125 362.012744 -309 336.01012 -283.0125 322.994753 C -256.9875 310.007496 -286.0125 275.993253 -264 263.005997 C -241.9875 249.99063 -277.0125 216.988381 -247.0125 202.005247 C -217.9875 186.994003 -244.0125 160.991379 -220.9875 150 C -196.0125 137.012744 -219 109.998126 -196.0125 101.002624 C -169.9875 90.011244 -189 61.00075 -166.9875 52.98913 C -148.0125 45.989505 -160.0125 27.998501 -148.0125 12.003373 L 0 12.003373 " transform="matrix(0.104167,0,0,0.138958,750,333.5)"/>
<path style="fill:none;stroke-width:2.2;stroke-linecap:round;stroke-linejoin:round;stroke:rgb(0%,0%,0%);stroke-opacity:1;stroke-miterlimit:4;" d="M -99 17.991004 C -118.9875 38.005997 -94.9875 52.98913 -115.0125 76.995877 C -136.0125 101.986507 -117 115.001874 -133.9875 137.012744 C -151.0125 158.995502 -126 169.986882 -145.0125 195.005622 C -163.9875 219.012369 -141 233.995502 -162 254.010495 C -181.9875 275.00937 -157.9875 293.000375 -178.9875 315.011244 C -199.0125 338.005997 -175.0125 352.98913 -195 373.004123 C -216 394.002999 -192 416.013868 -211.9875 436.00075 C -232.0125 456.999625 -208.0125 483.002249 -231 507.008996 C -253.0125 530.987631 -226.9875 549.99063 -244.9875 568.009745 C -264 587.012744 -247.0125 605.987631 -259.9875 619.002999 C -273 631.990255 -274.9875 650.00937 -270 657.992879 M -60 24.99063 C -78 50.00937 -49.9875 61.00075 -67.0125 80.987631 C -84 101.986507 -60 108.986132 -73.0125 132.992879 C -85.9875 156.999625 -63 162.987256 -79.9875 186.994003 C -97.0125 211.00075 -70.9875 230.003748 -88.9875 254.010495 C -108 277.98913 -79.9875 291.004498 -97.0125 315.011244 C -112.9875 340.001874 -88.9875 352.98913 -103.9875 371.008246 C -118.9875 390.011244 -93 408.002249 -112.0125 430.997001 C -130.0125 453.007871 -103.9875 469.986882 -118.9875 490.001874 C -133.9875 511.00075 -112.9875 533.011619 -126 549.99063 C -139.0125 566.013868 -117 591.004498 -136.0125 612.987256 C -154.0125 634.998126 -132 650.00937 -142.9875 664.992504 C -154.0125 680.003748 -163.0125 701.986507 -151.9875 708.002249 " transform="matrix(0.104167,0,0,0.138958,750,333.5)"/>
<path style="fill-rule:nonzero;fill:rgb(0%,61.960787%,28.627452%);fill-opacity:1;stroke-width:2.2;stroke-linecap:round;stroke-linejoin:round;stroke:rgb(0%,0%,0%);stroke-opacity:1;stroke-miterlimit:4;" d="M 0 711.994003 C -43.0125 751.995877 -126 725.993253 -151.9875 708.002249 C -178.9875 716.997751 -250.9875 688.99925 -270 657.992879 C -322.0125 664.992504 -340.0125 591.004498 -331.0125 572.001499 C -316.9875 544.002999 -342 526.011994 -324 507.008996 C -298.9875 483.002249 -337.9875 460.007496 -313.9875 444.012369 C -289.9875 427.005247 -319.9875 399.006747 -295.9875 380.987631 C -271.0125 362.012744 -309 336.01012 -283.0125 322.994753 C -256.9875 310.007496 -286.0125 275.993253 -264 263.005997 C -241.9875 249.99063 -277.0125 216.988381 -247.0125 202.005247 C -217.9875 186.994003 -244.0125 160.991379 -220.9875 150 C -196.0125 137.012744 -219 109.998126 -196.0125 101.002624 C -169.9875 90.011244 -189 61.00075 -166.9875 52.98913 C -148.0125 45.989505 -160.0125 27.998501 -148.0125 12.003373 L 0 12.003373 " transform="matrix(-0.104167,0,0,0.138958,750,333.5)"/>
<path style="fill:none;stroke-width:2.2;stroke-linecap:round;stroke-linejoin:round;stroke:rgb(0%,0%,0%);stroke-opacity:1;stroke-miterlimit:4;" d="M -99 17.991004 C -118.9875 38.005997 -94.9875 52.98913 -115.0125 76.995877 C -136.0125 101.986507 -117 115.001874 -133.9875 137.012744 C -151.0125 158.995502 -126 169.986882 -145.0125 195.005622 C -163.9875 219.012369 -141 233.995502 -162 254.010495 C -181.9875 275.00937 -157.9875 293.000375 -178.9875 315.011244 C -199.0125 338.005997 -175.0125 352.98913 -195 373.004123 C -216 394.002999 -192 416.013868 -211.9875 436.00075 C -232.0125 456.999625 -208.0125 483.002249 -231 507.008996 C -253.0125 530.987631 -226.9875 549.99063 -244.9875 568.009745 C -264 587.012744 -247.0125 605.987631 -259.9875 619.002999 C -273 631.990255 -274.9875 650.00937 -270 657.992879 M -60 24.99063 C -78 50.00937 -49.9875 61.00075 -67.0125 80.987631 C -84 101.986507 -60 108.986132 -73.0125 132.992879 C -85.9875 156.999625 -63 162.987256 -79.9875 186.994003 C -97.0125 211.00075 -70.9875 230.003748 -88.9875 254.010495 C -108 277.98913 -79.9875 291.004498 -97.0125 315.011244 C -112.9875 340.001874 -88.9875 352.98913 -103.9875 371.008246 C -118.9875 390.011244 -93 408.002249 -112.0125 430.997001 C -130.0125 453.007871 -103.9875 469.986882 -118.9875 490.001874 C -133.9875 511.00075 -112.9875 533.011619 -126 549.99063 C -139.0125 566.013868 -117 591.004498 -136.0125 612.987256 C -154.0125 634.998126 -132 650.00937 -142.9875 664.992504 C -154.0125 680.003748 -163.0125 701.986507 -151.9875 708.002249 " transform="matrix(-0.104167,0,0,0.138958,750,333.5)"/>
<path style="fill:none;stroke-width:2.2;stroke-linecap:round;stroke-linejoin:round;stroke:rgb(0%,61.960787%,28.627452%);stroke-opacity:1;stroke-miterlimit:4;" d="M 0 711.994003 L 0 12.003373 " transform="matrix(0.104167,0,0,0.138958,750,333.5)"/>
<path style="fill:none;stroke-width:2.2;stroke-linecap:round;stroke-linejoin:round;stroke:rgb(0%,0%,0%);stroke-opacity:1;stroke-miterlimit:4;" d="M 0 48.013493 C -9 87.003373 13.0125 120.989505 0 153.991754 C -13.0125 186.01012 9 198.997376 1.9875 225 C -6 251.002624 10.9875 270.005622 0 298.004123 C -10.9875 326.002624 15 348.013493 0 385.007496 C -15 420.989505 10.0125 430.013118 0 467.007121 C -10.9875 509.004873 19.0125 530.987631 0 561.01012 C -19.0125 591.004498 16.9875 598.004123 1.9875 631.990255 C -13.0125 664.992504 10.9875 678.007871 0 711.994003 " transform="matrix(0.104167,0,0,0.138958,750,333.5)"/>
<path style="fill-rule:nonzero;fill:rgb(98.823529%,81.960785%,8.627451%);fill-opacity:1;stroke-width:2.2;stroke-linecap:round;stroke-linejoin:round;stroke:rgb(0%,0%,0%);stroke-opacity:1;stroke-miterlimit:4;" d="M 15 174.006747 C 10.0125 184.998126 30 211.00075 19.0125 230.987631 C 7.0125 249.99063 25.0125 280.013118 13.0125 303.991754 C 1.0125 327.998501 31.9875 357.992879 19.9875 385.991379 C 7.0125 413.98988 25.9875 448.988006 19.9875 474.99063 C 15 500.993253 33 551.002624 19.9875 568.993628 C 7.0125 587.996627 33 593.000375 18 638.98988 C 3 685.007496 -7.0125 645.989505 1.9875 631.990255 C 21 601.011994 -19.0125 591.004498 0 561.01012 C 19.0125 530.987631 -10.9875 509.004873 0 467.007121 C 10.0125 430.013118 -15 420.989505 0 385.007496 C 15 348.013493 -10.9875 326.002624 0 298.004123 C 10.9875 270.005622 -6 251.002624 1.9875 225 C 9 198.997376 -13.0125 186.01012 0 153.991754 C 10.0125 122.001499 19.9875 162.987256 15 174.006747 Z M -69 205.997001 C -76.0125 218.000375 -57 240.995127 -73.9875 263.98988 C -85.9875 280.013118 -66 298.988006 -82.9875 322.01087 C -94.0125 338.005997 -72 357.992879 -87 380.987631 C -97.0125 394.002999 -79.9875 418.993628 -91.9875 437.996627 C -103.9875 458.011619 -85.9875 474.006747 -106.9875 500.00937 C -118.9875 514.008621 -97.9875 549.006747 -111 559.998126 C -124.0125 570.989505 -112.0125 613.99925 -121.0125 619.986882 C -129 626.986507 -121.0125 657.992879 -142.9875 664.992504 C -132 650.00937 -154.0125 634.998126 -136.0125 612.987256 C -117 591.004498 -139.0125 566.013868 -126 549.99063 C -112.9875 533.011619 -133.9875 511.00075 -118.9875 490.001874 C -103.9875 469.986882 -130.0125 453.007871 -112.0125 430.997001 C -93 408.002249 -118.9875 390.011244 -103.9875 371.008246 C -88.9875 352.98913 -112.9875 340.001874 -97.0125 315.011244 C -79.9875 291.004498 -108 277.98913 -88.9875 254.010495 C -70.9875 230.003748 -97.0125 211.00075 -79.9875 186.994003 C -63 162.987256 -85.9875 156.999625 -73.0125 132.992879 C -49.0125 141.988381 -61.0125 193.993628 -69 205.997001 Z M -118.9875 141.004498 C -129 156.999625 -115.0125 176.002624 -130.0125 195.989505 C -145.0125 216.988381 -130.0125 242.991004 -145.0125 259.998126 C -160.0125 275.993253 -141 308.011619 -160.0125 320.998876 C -178.9875 333.986132 -166.9875 373.004123 -181.9875 385.991379 C -196.9875 399.006747 -181.9875 436.00075 -199.0125 455.003748 C -216 474.006747 -208.0125 512.996627 -217.9875 521.992129 C -226.9875 530.987631 -205.0125 549.99063 -220.9875 563.005997 C -238.0125 575.993253 -238.0125 601.995877 -259.9875 619.002999 C -247.0125 605.987631 -264 587.012744 -244.9875 568.009745 C -226.9875 549.99063 -253.0125 530.987631 -231 507.008996 C -208.0125 483.002249 -232.0125 456.999625 -211.9875 436.00075 C -192 416.013868 -216 394.002999 -195 373.004123 C -175.0125 352.98913 -199.0125 338.005997 -178.9875 315.011244 C -157.9875 293.000375 -181.9875 275.00937 -162 254.010495 C -141 233.995502 -163.9875 219.012369 -145.0125 195.005622 C -126 169.986882 -151.0125 158.995502 -133.9875 137.012744 C -126 127.005247 -126 118.009745 -126 109.998126 C -114 78.991754 -114 132.992879 -118.9875 141.004498 Z M -118.9875 141.004498 " transform="matrix(0.104167,0,0,0.138958,750,333.5)"/>
<path style="fill-rule:nonzero;fill:rgb(80.784315%,6.666667%,14.901961%);fill-opacity:1;stroke-width:2.2;stroke-linecap:round;stroke-linejoin:round;stroke:rgb(0%,0%,0%);stroke-opacity:1;stroke-miterlimit:4;" d="M -139.0125 34.998126 C -139.0125 -174.99063 -109.9875 -247.994753 0 -247.994753 C 109.9875 -247.994753 139.0125 -174.99063 139.0125 34.998126 Z M -139.0125 34.998126 " transform="matrix(0.104167,0,0,0.138958,750,333.5)"/>
<path style="fill-rule:nonzero;fill:rgb(0%,0%,0%);fill-opacity:1;stroke-width:2.2;stroke-linecap:round;stroke-linejoin:round;stroke:rgb(0%,0%,0%);stroke-opacity:1;stroke-miterlimit:4;" d="M -139.0125 34.998126 C -139.0125 -174.99063 -109.9875 -247.994753 0 -247.994753 C -49.9875 -247.994753 -81 -209.004873 -88.9875 -183.002249 C -97.9875 -156.999625 -93 -158.995502 -82.0125 -169.002999 C -70.9875 -179.010495 -76.0125 -156.999625 -85.9875 -144.996252 C -94.9875 -132.992879 -103.9875 -97.994753 -91.0125 -108.986132 C -78 -120.989505 -67.9875 -108.002249 -82.0125 -87.987256 C -96 -69.012369 -108 -22.994753 -94.0125 -38.98988 C -79.9875 -55.013118 -76.9875 -29.010495 -85.9875 -15.995127 C -94.0125 -3.007871 -93 8.995502 -85.9875 3.007871 C -78 -3.007871 -79.0125 24.006747 -85.9875 34.998126 Z M 52.0125 31.006372 C 52.0125 0 52.9875 -73.004123 36 -97.01087 C 24 -116.013868 24 -136.00075 37.9875 -113.98988 C 52.0125 -92.007121 58.9875 -102.998501 49.0125 -125.00937 C 37.0125 -153.007871 21 -183.986132 25.0125 -190.001874 C 30 -197.001499 33 -193.993628 43.0125 -179.010495 C 52.9875 -163.99925 55.0125 -186.01012 43.9875 -200.993253 C 33 -214.992504 34.0125 -218.000375 57 -207.992879 C 97.9875 -191.013868 118.0125 -141.988381 118.0125 22.994753 Z M 52.0125 31.006372 " transform="matrix(0.104167,0,0,0.138958,750,333.5)"/>
<path style="fill-rule:nonzero;fill:rgb(80.784315%,6.666667%,14.901961%);fill-opacity:1;stroke-width:2.2;stroke-linecap:round;stroke-linejoin:round;stroke:rgb(0%,0%,0%);stroke-opacity:1;stroke-miterlimit:4;" d="M 0 64.992504 C -43.9875 64.992504 -91.9875 57.992879 -124.0125 45.005622 C -162 29.994378 -163.9875 17.007121 -151.0125 1.011994 C -141 -10.991379 -121.0125 -3.991754 -100.9875 5.003748 C -82.0125 12.987256 -28.0125 19.002999 0 19.002999 C 28.0125 19.002999 82.0125 12.987256 100.9875 3.991754 C 121.0125 -3.991754 141 -10.991379 151.0125 1.011994 C 163.9875 17.007121 162 29.994378 124.0125 45.005622 C 91.9875 57.992879 43.9875 64.992504 0 64.992504 Z M 0 64.992504 " transform="matrix(0.104167,0,0,0.138958,750,333.5)"/>
</g>
</svg>
