<?xml version="1.0" encoding="UTF-8"?>
<svg xmlns="http://www.w3.org/2000/svg" xmlns:xlink="http://www.w3.org/1999/xlink" width="1000px" height="667px" viewBox="0 0 1000 667" version="1.1">
<g id="surface1">
<rect x="0" y="0" width="1000" height="667" style="fill:rgb(0%,13.725491%,58.431375%);fill-opacity:1;stroke:none;"/>
<path style=" stroke:none;fill-rule:nonzero;fill:rgb(100%,100%,100%);fill-opacity:1;" d="M 0 0 L 406.667969 0 L 406.667969 273.46875 L 0 273.46875 Z M 0 0 "/>
<path style=" stroke:none;fill-rule:nonzero;fill:rgb(0%,13.725491%,58.431375%);fill-opacity:1;" d="M 0 0 L 133.332031 0 L 133.332031 266.800781 L 0 266.800781 Z M 0 0 "/>
<path style=" stroke:none;fill-rule:nonzero;fill:rgb(92.941177%,16.078432%,22.352941%);fill-opacity:1;" d="M 266.667969 0 L 400 0 L 400 266.800781 L 266.667969 266.800781 Z M 266.667969 0 "/>
<path style=" stroke:none;fill-rule:nonzero;fill:rgb(100%,100%,100%);fill-opacity:1;" d="M 591.667969 305.152344 L 613.125 339.335938 L 674.167969 339.335938 L 674.167969 458.5625 L 628.332031 386.859375 L 566.667969 485.242188 L 596.667969 485.242188 L 628.332031 428.546875 L 693.332031 545.273438 L 758.332031 428.546875 L 790 485.242188 L 820 485.242188 L 758.332031 386.859375 L 712.5 458.5625 L 712.5 392.695312 L 740 392.695312 L 760.417969 360.179688 L 712.5 360.179688 L 712.5 339.335938 L 773.542969 339.335938 L 795 305.152344 Z M 663.332031 451.058594 L 596.667969 451.058594 L 596.667969 474.402344 L 663.332031 474.402344 Z M 790 451.058594 L 723.332031 451.058594 L 723.332031 474.402344 L 790 474.402344 Z M 790 451.058594 "/>
<path style=" stroke:none;fill-rule:nonzero;fill:rgb(100%,100%,100%);fill-opacity:1;" d="M 693.332031 568.617188 L 713.914062 631.964844 L 660.011719 592.816406 L 726.652344 592.816406 L 672.753906 631.964844 Z M 693.332031 568.617188 "/>
<path style=" stroke:none;fill-rule:nonzero;fill:rgb(100%,100%,100%);fill-opacity:1;" d="M 618.332031 511.921875 L 638.914062 575.269531 L 585.011719 536.121094 L 651.652344 536.121094 L 597.753906 575.269531 Z M 618.332031 511.921875 "/>
<path style=" stroke:none;fill-rule:nonzero;fill:rgb(100%,100%,100%);fill-opacity:1;" d="M 768.332031 511.921875 L 788.914062 575.269531 L 735.011719 536.121094 L 801.652344 536.121094 L 747.753906 575.269531 Z M 768.332031 511.921875 "/>
<path style=" stroke:none;fill-rule:nonzero;fill:rgb(100%,100%,100%);fill-opacity:1;" d="M 555 343.503906 L 575.578125 406.851562 L 521.679688 367.703125 L 588.320312 367.703125 L 534.421875 406.851562 Z M 555 343.503906 "/>
<path style=" stroke:none;fill-rule:nonzero;fill:rgb(100%,100%,100%);fill-opacity:1;" d="M 831.667969 343.503906 L 852.246094 406.851562 L 798.347656 367.703125 L 864.988281 367.703125 L 811.085938 406.851562 Z M 831.667969 343.503906 "/>
</g>
</svg>
