<?xml version="1.0" encoding="UTF-8"?>
<svg xmlns="http://www.w3.org/2000/svg" xmlns:xlink="http://www.w3.org/1999/xlink" width="1000px" height="667px" viewBox="0 0 1000 667" version="1.1">
<g id="surface1">
<rect x="0" y="0" width="1000" height="667" style="fill:rgb(0%,40.000001%,0%);fill-opacity:1;stroke:none;"/>
<path style=" stroke:none;fill-rule:nonzero;fill:rgb(100%,100%,100%);fill-opacity:1;" d="M 0 0 L 1000 0 L 1000 476.429688 L 0 476.429688 Z M 0 0 "/>
<path style=" stroke:none;fill-rule:nonzero;fill:rgb(80.000001%,0%,0%);fill-opacity:1;" d="M 0 0 L 1000 0 L 1000 190.570312 L 0 190.570312 Z M 0 0 "/>
<path style=" stroke:none;fill-rule:nonzero;fill:rgb(97.254902%,76.47059%,0%);fill-opacity:1;" d="M 480 324.636719 C 482.003906 320.042969 486.046875 317.773438 489.910156 319.078125 C 493.773438 320.382812 496.519531 324.945312 496.644531 330.261719 L 496.644531 377.902344 L 503.355469 377.902344 L 503.355469 330.261719 C 503.480469 324.945312 506.226562 320.382812 510.089844 319.078125 C 513.953125 317.773438 517.996094 320.042969 520 324.636719 C 522.882812 313.039062 519.820312 300.285156 512.421875 293.082031 C 505.019531 285.878906 494.980469 285.878906 487.578125 293.082031 C 480.179688 300.285156 477.117188 313.039062 480 324.636719 "/>
<path style=" stroke:none;fill-rule:nonzero;fill:rgb(100%,100%,100%);fill-opacity:1;" d="M 484.785156 312.203125 C 490.796875 310.566406 496.917969 314.226562 500 321.304688 C 503.082031 314.226562 509.203125 310.566406 515.214844 312.203125 C 514.171875 302.0625 507.675781 294.503906 500 294.503906 C 492.324219 294.503906 485.828125 302.0625 484.785156 312.203125 "/>
<path style=" stroke:none;fill-rule:nonzero;fill:rgb(97.254902%,76.47059%,0%);fill-opacity:1;" d="M 496.644531 358.871094 C 495.714844 372.664062 488.96875 384.542969 479.269531 389.46875 C 469.570312 394.398438 458.609375 391.515625 451.039062 382.042969 C 447.828125 392.800781 441.078125 400.988281 432.746094 404.238281 C 424.414062 407.488281 415.425781 405.441406 408.371094 398.683594 C 410.980469 433.394531 449.980469 426.308594 452.886719 392.558594 C 465.140625 421.253906 492.082031 413.035156 499.964844 377.886719 Z M 496.644531 358.871094 "/>
<path style=" stroke:none;fill-rule:nonzero;fill:rgb(97.254902%,76.47059%,0%);fill-opacity:1;" d="M 503.355469 358.871094 C 504.285156 372.664062 511.03125 384.542969 520.730469 389.46875 C 530.429688 394.398438 541.390625 391.515625 548.960938 382.042969 C 552.171875 392.800781 558.921875 400.988281 567.253906 404.238281 C 575.585938 407.488281 584.574219 405.441406 591.628906 398.683594 C 589.019531 433.394531 550.019531 426.308594 547.113281 392.558594 C 534.859375 421.253906 507.917969 413.035156 500.035156 377.886719 Z M 503.355469 358.871094 "/>
<path style=" stroke:none;fill-rule:nonzero;fill:rgb(97.254902%,76.47059%,0%);fill-opacity:1;" d="M 470.601562 420.503906 C 465.160156 436.175781 454.28125 438.867188 444.769531 426.21875 C 444.769531 426.21875 448.59375 422.613281 452.6875 421.621094 C 451.917969 417.261719 453.496094 411.230469 455.710938 407.96875 C 458.039062 410.09375 461.285156 414.34375 462.113281 419.285156 C 467.847656 418.292969 470.601562 420.507812 470.601562 420.507812 Z M 470.601562 420.503906 "/>
<path style=" stroke:none;fill-rule:nonzero;fill:rgb(97.254902%,76.47059%,0%);fill-opacity:1;" d="M 513.171875 418.730469 C 505.890625 433.011719 494.828125 433.304688 486.988281 418.757812 C 486.988281 418.757812 491.199219 416.03125 495.359375 415.941406 C 495.136719 411.472656 497.425781 405.867188 500.011719 403.128906 C 502.046875 405.730469 504.734375 410.628906 504.945312 415.683594 C 510.726562 415.953125 513.171875 418.730469 513.171875 418.730469 Z M 513.171875 418.730469 "/>
<path style=" stroke:none;fill-rule:nonzero;fill:rgb(97.254902%,76.47059%,0%);fill-opacity:1;" d="M 555.390625 426.226562 C 546.460938 438.734375 535.515625 436.621094 529.550781 420.566406 C 529.550781 420.566406 534.042969 418.789062 538.15625 419.605469 C 538.480469 415.148438 541.425781 410.113281 544.308594 407.976562 C 546.003906 410.980469 548.054688 416.398438 547.644531 421.433594 C 553.316406 422.953125 555.390625 426.226562 555.390625 426.226562 Z M 555.390625 426.226562 "/>
<path style="fill:none;stroke-width:16;stroke-linecap:butt;stroke-linejoin:miter;stroke:rgb(97.254902%,76.47059%,0%);stroke-opacity:1;stroke-miterlimit:4;" d="M 603.000781 477.999086 C 666.296094 459.157726 733.703906 459.157726 796.999219 477.999086 " transform="matrix(0.714286,0,0,0.952857,0,0)"/>
<path style=" stroke:none;fill-rule:nonzero;fill:rgb(97.254902%,76.47059%,0%);fill-opacity:1;" d="M 500 204.210938 L 510.785156 248.484375 L 482.550781 221.125 L 517.449219 221.125 L 489.214844 248.484375 Z M 500 204.210938 "/>
<path style=" stroke:none;fill-rule:nonzero;fill:rgb(97.254902%,76.47059%,0%);fill-opacity:1;" d="M 450 222.085938 L 460.785156 266.355469 L 432.550781 238.996094 L 467.449219 238.996094 L 439.214844 266.355469 Z M 450 222.085938 "/>
<path style=" stroke:none;fill-rule:nonzero;fill:rgb(97.254902%,76.47059%,0%);fill-opacity:1;" d="M 413.398438 270.914062 L 424.179688 315.183594 L 395.949219 287.824219 L 430.84375 287.824219 L 402.613281 315.183594 Z M 413.398438 270.914062 "/>
<path style=" stroke:none;fill-rule:nonzero;fill:rgb(97.254902%,76.47059%,0%);fill-opacity:1;" d="M 400 337.613281 L 410.785156 381.882812 L 382.550781 354.523438 L 417.449219 354.523438 L 389.214844 381.882812 Z M 400 337.613281 "/>
<path style=" stroke:none;fill-rule:nonzero;fill:rgb(97.254902%,76.47059%,0%);fill-opacity:1;" d="M 550 222.085938 L 539.214844 266.355469 L 567.449219 238.996094 L 532.550781 238.996094 L 560.785156 266.355469 Z M 550 222.085938 "/>
<path style=" stroke:none;fill-rule:nonzero;fill:rgb(97.254902%,76.47059%,0%);fill-opacity:1;" d="M 586.601562 270.914062 L 575.820312 315.183594 L 604.050781 287.824219 L 569.15625 287.824219 L 597.386719 315.183594 Z M 586.601562 270.914062 "/>
<path style=" stroke:none;fill-rule:nonzero;fill:rgb(97.254902%,76.47059%,0%);fill-opacity:1;" d="M 600 337.613281 L 589.214844 381.882812 L 617.449219 354.523438 L 582.550781 354.523438 L 610.785156 381.882812 Z M 600 337.613281 "/>
</g>
</svg>
