<?xml version="1.0" encoding="UTF-8"?>
<svg xmlns="http://www.w3.org/2000/svg" xmlns:xlink="http://www.w3.org/1999/xlink" width="1000px" height="667px" viewBox="0 0 1000 667" version="1.1">
<g id="surface1">
<rect x="0" y="0" width="1000" height="667" style="fill:rgb(90.588236%,0%,7.450981%);fill-opacity:1;stroke:none;"/>
<path style=" stroke:none;fill-rule:nonzero;fill:rgb(100%,100%,100%);fill-opacity:1;" d="M 666.667969 333.5 C 666.667969 425.59375 592.046875 500.25 500 500.25 C 407.953125 500.25 333.332031 425.59375 333.332031 333.5 C 333.332031 241.40625 407.953125 166.75 500 166.75 C 592.046875 166.75 666.667969 241.40625 666.667969 333.5 Z M 666.667969 333.5 "/>
<path style=" stroke:none;fill-rule:nonzero;fill:rgb(90.588236%,0%,7.450981%);fill-opacity:1;" d="M 625 333.5 C 625 402.570312 569.035156 458.5625 500 458.5625 C 430.964844 458.5625 375 402.570312 375 333.5 C 375 264.429688 430.964844 208.4375 500 208.4375 C 569.035156 208.4375 625 264.429688 625 333.5 Z M 625 333.5 "/>
<path style=" stroke:none;fill-rule:nonzero;fill:rgb(100%,100%,100%);fill-opacity:1;" d="M 633.332031 333.5 C 633.332031 388.757812 588.5625 433.550781 533.332031 433.550781 C 478.105469 433.550781 433.332031 388.757812 433.332031 333.5 C 433.332031 278.242188 478.105469 233.449219 533.332031 233.449219 C 588.5625 233.449219 633.332031 278.242188 633.332031 333.5 Z M 633.332031 333.5 "/>
<path style=" stroke:none;fill-rule:nonzero;fill:rgb(90.588236%,0%,7.450981%);fill-opacity:1;" d="M 458.332031 333.5 L 594.011719 289.394531 L 510.15625 404.863281 L 510.15625 262.136719 L 594.011719 377.605469 Z M 458.332031 333.5 "/>
</g>
</svg>
