<?xml version="1.0" encoding="UTF-8"?>
<svg xmlns="http://www.w3.org/2000/svg" xmlns:xlink="http://www.w3.org/1999/xlink" width="1000px" height="667px" viewBox="0 0 1000 667" version="1.1">
<g id="surface1">
<rect x="0" y="0" width="1000" height="667" style="fill:rgb(89.019608%,3.921569%,9.019608%);fill-opacity:1;stroke:none;"/>
<path style=" stroke:none;fill-rule:nonzero;fill:rgb(100%,100%,100%);fill-opacity:1;" d="M 520.832031 333.5 C 520.832031 425.59375 446.214844 500.25 354.167969 500.25 C 262.121094 500.25 187.5 425.59375 187.5 333.5 C 187.5 241.40625 262.121094 166.75 354.167969 166.75 C 446.214844 166.75 520.832031 241.40625 520.832031 333.5 Z M 520.832031 333.5 "/>
<path style=" stroke:none;fill-rule:nonzero;fill:rgb(89.019608%,3.921569%,9.019608%);fill-opacity:1;" d="M 529.167969 333.5 C 529.167969 407.175781 469.472656 466.898438 395.832031 466.898438 C 322.195312 466.898438 262.5 407.175781 262.5 333.5 C 262.5 259.824219 322.195312 200.101562 395.832031 200.101562 C 469.472656 200.101562 529.167969 259.824219 529.167969 333.5 Z M 529.167969 333.5 "/>
<path style=" stroke:none;fill-rule:nonzero;fill:rgb(100%,100%,100%);fill-opacity:1;" d="M 486.113281 333.5 L 636.863281 382.507812 L 543.691406 254.207031 L 543.691406 412.792969 L 636.863281 284.492188 Z M 486.113281 333.5 "/>
</g>
</svg>
