<?xml version="1.0" encoding="UTF-8"?>
<svg xmlns="http://www.w3.org/2000/svg" xmlns:xlink="http://www.w3.org/1999/xlink" width="1000px" height="667px" viewBox="0 0 1000 667" version="1.1">
<g id="surface1">
<rect x="0" y="0" width="1000" height="667" style="fill:rgb(99.607843%,0%,0%);fill-opacity:1;stroke:none;"/>
<path style=" stroke:none;fill-rule:evenodd;fill:rgb(0%,0%,58.431375%);fill-opacity:1;" d="M 0 0 L 500 0 L 500 333.5 L 0 333.5 Z M 0 0 "/>
<path style=" stroke:none;fill-rule:nonzero;fill:rgb(100%,100%,100%);fill-opacity:1;" d="M 250 41.6875 L 187.5 275.058594 L 358.253906 104.21875 L 125 166.75 L 358.253906 229.28125 L 187.5 58.441406 L 250 291.8125 L 312.5 58.441406 L 141.746094 229.28125 L 375 166.75 L 141.746094 104.21875 L 312.5 275.058594 L 250 41.6875 "/>
<path style="fill-rule:nonzero;fill:rgb(100%,100%,100%);fill-opacity:1;stroke-width:7.5;stroke-linecap:butt;stroke-linejoin:miter;stroke:rgb(0%,0%,58.431375%);stroke-opacity:1;stroke-miterlimit:4;" d="M 285.001172 150 C 285.001172 183.135776 258.138281 209.999297 225 209.999297 C 191.861719 209.999297 164.998828 183.135776 164.998828 150 C 164.998828 116.864224 191.861719 90.000703 225 90.000703 C 258.138281 90.000703 285.001172 116.864224 285.001172 150 Z M 285.001172 150 " transform="matrix(1.111111,0,0,1.111667,0,0)"/>
</g>
</svg>
