<?xml version="1.0" encoding="UTF-8"?>
<svg xmlns="http://www.w3.org/2000/svg" xmlns:xlink="http://www.w3.org/1999/xlink" width="1000px" height="667px" viewBox="0 0 1000 667" version="1.1">
<g id="surface1">
<rect x="0" y="0" width="1000" height="667" style="fill:rgb(0%,0%,0%);fill-opacity:1;stroke:none;"/>
<path style=" stroke:none;fill-rule:nonzero;fill:rgb(98.823529%,86.274511%,1.568628%);fill-opacity:1;" d="M 0 111.167969 L 1000 111.167969 L 1000 222.332031 L 0 222.332031 Z M 0 111.167969 "/>
<path style=" stroke:none;fill-rule:nonzero;fill:rgb(85.09804%,0%,0%);fill-opacity:1;" d="M 0 222.332031 L 1000 222.332031 L 1000 333.5 L 0 333.5 Z M 0 222.332031 "/>
<path style=" stroke:none;fill-rule:nonzero;fill:rgb(98.823529%,86.274511%,1.568628%);fill-opacity:1;" d="M 0 444.667969 L 1000 444.667969 L 1000 555.832031 L 0 555.832031 Z M 0 444.667969 "/>
<path style=" stroke:none;fill-rule:nonzero;fill:rgb(85.09804%,0%,0%);fill-opacity:1;" d="M 0 555.832031 L 1000 555.832031 L 1000 667 L 0 667 Z M 0 555.832031 "/>
<path style=" stroke:none;fill-rule:nonzero;fill:rgb(100%,100%,100%);fill-opacity:1;" d="M 603.890625 333.5 C 603.890625 390.90625 557.375 437.441406 500 437.441406 C 442.625 437.441406 396.109375 390.90625 396.109375 333.5 C 396.109375 276.09375 442.625 229.558594 500 229.558594 C 557.375 229.558594 603.890625 276.09375 603.890625 333.5 Z M 603.890625 333.5 "/>
<path style="fill-rule:nonzero;fill:rgb(85.09804%,0%,0%);fill-opacity:1;stroke-width:1;stroke-linecap:butt;stroke-linejoin:miter;stroke:rgb(0%,0%,0%);stroke-opacity:1;stroke-miterlimit:4;" d="M 433.51875 228.390883 L 427.454297 217.220296 C 429.795703 214.88006 433.733203 213.070418 440.008594 213.070418 C 440.008594 213.495596 439.372266 225.305707 439.372266 225.305707 Z M 433.51875 228.390883 " transform="matrix(1.111111,0,0,1.111667,0,0)"/>
<path style="fill-rule:nonzero;fill:rgb(98.823529%,86.274511%,1.568628%);fill-opacity:1;stroke-width:1;stroke-linecap:butt;stroke-linejoin:miter;stroke:rgb(0%,0%,0%);stroke-opacity:1;stroke-miterlimit:4;" d="M 439.372266 225.411123 L 440.223047 213.070418 C 440.223047 213.070418 452.777344 212.325478 459.583594 220.516304 C 459.692578 220.410888 452.882812 230.091595 452.882812 230.091595 Z M 439.372266 225.411123 " transform="matrix(1.111111,0,0,1.111667,0,0)"/>
<path style="fill-rule:nonzero;fill:rgb(85.09804%,0%,0%);fill-opacity:1;stroke-width:1;stroke-linecap:butt;stroke-linejoin:miter;stroke:rgb(0%,0%,0%);stroke-opacity:1;stroke-miterlimit:4;" d="M 453.09375 229.986179 L 459.263672 220.410888 C 463.415625 224.775112 465.113672 227.860289 465.753516 232.540761 C 465.8625 232.646177 455.966016 234.986413 455.966016 234.880997 C 455.966016 234.772067 453.202734 230.091595 453.09375 229.986179 Z M 453.09375 229.986179 " transform="matrix(1.111111,0,0,1.111667,0,0)"/>
<path style="fill-rule:nonzero;fill:rgb(0%,0%,0%);fill-opacity:1;stroke-width:1;stroke-linecap:butt;stroke-linejoin:miter;stroke:rgb(0%,0%,0%);stroke-opacity:1;stroke-miterlimit:4;" d="M 436.605469 388.071589 C 436.605469 388.071589 448.2 374.775112 470.75625 377.649457 C 467.349609 372.115114 456.391406 372.754638 456.391406 372.754638 C 456.391406 372.754638 452.988281 346.903111 455.649609 345.627577 C 458.307422 344.348529 469.585547 345.732993 469.585547 345.732993 C 471.072656 345.732993 473.628516 341.688531 471.607031 339.137463 C 469.585547 336.58288 463.626562 326.796758 466.073437 324.8817 C 468.520312 322.966642 481.816406 325.946402 481.816406 325.946402 L 444.266016 277.859117 C 444.266016 277.859117 440.433984 259.773238 448.094531 251.048304 C 457.351172 243.391585 456.391406 235.091829 456.075 235.197245 C 454.795312 226.795587 442.030078 220.73065 433.413281 228.496299 C 428.308594 234.666651 431.711719 239.347123 431.711719 239.347123 C 431.711719 239.347123 418.306641 242.966407 417.775781 245.306644 C 417.241406 247.64688 432.882422 244.881466 432.882422 244.881466 L 431.391797 255.62336 C 431.391797 255.62336 400.967578 283.28453 424.265625 307.220999 C 424.476562 307.115583 425.007422 306.156297 425.007422 306.156297 C 425.007422 306.156297 433.202344 316.265695 441.819141 318.497001 C 449.901562 326.796758 449.15625 325.51771 449.15625 325.51771 C 449.15625 325.51771 450.752344 338.603355 449.265234 341.157937 C 447.24375 340.518413 426.603516 339.773473 423.520312 340.943591 C 420.753516 341.797461 410.115234 341.263353 412.776562 358.604292 C 414.794531 353.923819 416.605078 349.773941 416.605078 349.773941 C 416.605078 349.773941 416.285156 356.04971 418.8375 358.28453 C 418.415625 351.688999 421.284375 347.222873 421.284375 347.222873 C 421.284375 347.222873 421.81875 354.454413 423.411328 355.519115 C 425.007422 356.583817 425.007422 343.817935 433.838672 344.882637 C 442.669922 345.943825 449.050781 345.627577 449.050781 345.627577 C 449.050781 345.627577 452.032031 370.625234 451.072266 372.96547 C 444.691406 371.47559 429.479297 373.604994 428.519531 377.435111 C 437.45625 376.904516 441.604687 377.965705 441.604687 377.965705 C 441.604687 377.965705 434.373047 384.350403 436.605469 388.071589 Z M 436.605469 388.071589 " transform="matrix(1.111111,0,0,1.111667,0,0)"/>
<path style="fill-rule:nonzero;fill:rgb(61.176473%,65.098041%,61.176473%);fill-opacity:1;stroke-width:1;stroke-linecap:butt;stroke-linejoin:miter;stroke:rgb(61.176473%,65.098041%,61.176473%);stroke-opacity:1;stroke-miterlimit:4;" d="M 440.191406 251.659717 C 440.191406 251.659717 418.053516 276.063531 427.605469 294.736226 C 428.111719 292.132449 427.890234 290.494987 428.210156 290.600403 C 427.679297 290.280641 430.955859 292.849278 430.70625 292.350309 C 430.776562 290.99747 429.707812 288.105557 429.707812 288.105557 L 432.703125 288.85401 L 430.955859 285.61071 L 435.199219 286.10968 C 435.199219 286.10968 433.701562 282.114412 434.200781 282.114412 C 434.7 282.114412 437.695312 282.363896 437.695312 282.363896 C 431.398828 271.063296 437.340234 261.681269 440.191406 251.659717 Z M 447.883594 230.731119 C 447.883594 230.731119 449.050781 239.136291 444.476953 241.581943 C 443.731641 242.112537 440.859375 243.071823 441.284766 244.772536 C 441.819141 247.112772 443.095312 246.687594 444.902344 246.262416 C 449.690625 245.41206 455.224219 235.197245 447.883594 230.731119 Z M 447.883594 230.731119 " transform="matrix(1.111111,0,0,1.111667,0,0)"/>
<path style=" stroke:none;fill-rule:nonzero;fill:rgb(100%,100%,100%);fill-opacity:1;" d="M 488.667969 264.578125 C 488.667969 265.683594 487.769531 266.578125 486.667969 266.578125 C 485.5625 266.578125 484.667969 265.683594 484.667969 264.578125 C 484.667969 263.472656 485.5625 262.574219 486.667969 262.574219 C 487.769531 262.574219 488.667969 263.472656 488.667969 264.578125 Z M 488.667969 264.578125 "/>
<path style="fill-rule:nonzero;fill:rgb(85.09804%,0%,0%);fill-opacity:1;stroke-width:1;stroke-linecap:butt;stroke-linejoin:miter;stroke:rgb(0%,0%,0%);stroke-opacity:1;stroke-miterlimit:4;" d="M 432.5625 244.986882 C 431.391797 245.942654 425.221875 252.327352 431.286328 254.667588 C 437.561719 252.963362 435.860156 251.793244 437.245312 250.412294 C 437.280469 247.541464 434.123437 246.796524 432.5625 244.986882 Z M 432.5625 244.986882 " transform="matrix(1.111111,0,0,1.111667,0,0)"/>
<path style="fill-rule:nonzero;fill:rgb(61.176473%,65.098041%,61.176473%);fill-opacity:1;stroke-width:1;stroke-linecap:butt;stroke-linejoin:miter;stroke:rgb(61.176473%,65.098041%,61.176473%);stroke-opacity:1;stroke-miterlimit:4;" d="M 445.967578 305.305941 C 445.647656 306.690405 444.266016 311.796055 446.178516 315.731587 C 451.497656 313.496767 453.944531 314.136291 455.755078 315.306409 C 451.395703 311.796055 449.690625 310.306175 445.967578 305.305941 Z M 445.967578 305.305941 " transform="matrix(1.111111,0,0,1.111667,0,0)"/>
<path style="fill-rule:nonzero;fill:rgb(100%,100%,100%);fill-opacity:1;stroke-width:1;stroke-linecap:butt;stroke-linejoin:miter;stroke:rgb(100%,100%,100%);stroke-opacity:1;stroke-miterlimit:4;" d="M 455.115234 329.456756 L 455.435156 341.368769 C 455.435156 341.368769 459.583594 342.113709 461.499609 341.368769 C 463.415625 340.623829 461.390625 333.072526 455.115234 329.456756 Z M 455.115234 329.456756 " transform="matrix(1.111111,0,0,1.111667,0,0)"/>
<path style="fill-rule:nonzero;fill:rgb(61.176473%,65.098041%,61.176473%);fill-opacity:1;stroke-width:1;stroke-linecap:butt;stroke-linejoin:miter;stroke:rgb(0%,0%,0%);stroke-opacity:1;stroke-miterlimit:4;" d="M 485.223047 330.946636 C 485.223047 330.946636 477.5625 312.435579 457.9875 307.751593 C 438.4125 303.071121 440.964844 282.219828 442.560937 280.944293 C 443.415234 279.134651 444.051562 276.369237 449.690625 279.029235 C 455.329687 281.689234 481.285547 294.774878 485.008594 295.410888 C 488.731641 296.050412 485.542969 331.371814 485.223047 330.946636 Z M 485.223047 330.946636 " transform="matrix(1.111111,0,0,1.111667,0,0)"/>
<path style="fill-rule:nonzero;fill:rgb(85.09804%,0%,0%);fill-opacity:1;stroke-width:1;stroke-linecap:butt;stroke-linejoin:miter;stroke:rgb(0%,0%,0%);stroke-opacity:1;stroke-miterlimit:4;" d="M 466.604297 307.646177 C 466.284375 307.860523 492.774609 323.28289 484.797656 336.58288 C 492.352734 331.582646 489.902344 322.861226 489.902344 322.861226 C 489.902344 322.861226 496.072266 338.923117 481.074609 346.797695 C 482.670703 348.178645 483.732422 347.858883 483.732422 347.858883 L 481.180078 350.413465 C 481.180078 350.413465 480.009375 352.328523 490.116797 347.433705 C 487.35 349.668525 487.139062 351.263821 487.139062 351.263821 C 487.139062 351.263821 487.880859 353.393225 494.479687 347.648051 C 489.157031 353.393225 487.986328 356.369472 487.986328 356.264055 C 502.351172 354.988521 533.629687 308.285701 478.093359 294.455116 C 481.074609 297.540292 480.649219 297.115114 480.649219 297.115114 Z M 466.604297 307.646177 " transform="matrix(1.111111,0,0,1.111667,0,0)"/>
<path style="fill-rule:nonzero;fill:rgb(100%,100%,100%);fill-opacity:1;stroke-width:1;stroke-linecap:butt;stroke-linejoin:miter;stroke:rgb(0%,0%,0%);stroke-opacity:1;stroke-miterlimit:4;" d="M 467.775 303.071121 C 471.392578 305.625703 472.66875 306.476059 473.094141 307.751593 C 469.796484 307.010167 466.81875 307.220999 466.81875 307.220999 C 466.81875 307.220999 459.692578 300.414636 458.412891 299.880528 C 457.456641 299.880528 451.923047 296.370174 451.923047 296.370174 C 449.159766 294.98571 446.607422 285.413934 456.820312 288.179348 C 467.349609 293.179582 468.840234 293.60476 468.840234 293.60476 C 473.023828 294.915433 477.207422 296.22962 481.394531 297.540292 L 488.626172 305.625703 C 488.626172 305.625703 475.755469 299.241004 474.159375 299.135588 C 477.667969 302.006419 479.689453 305.945465 479.689453 305.945465 C 475.611328 304.775347 472.067578 303.710645 467.775 303.071121 Z M 467.775 303.071121 " transform="matrix(1.111111,0,0,1.111667,0,0)"/>
<path style="fill-rule:nonzero;fill:rgb(0%,0%,0%);fill-opacity:1;stroke-width:1;stroke-linecap:butt;stroke-linejoin:miter;stroke:rgb(100%,100%,100%);stroke-opacity:1;stroke-miterlimit:4;" d="M 417.670312 245.942654 C 417.670312 245.942654 430.010156 242.966407 431.497266 243.391585 " transform="matrix(1.111111,0,0,1.111667,0,0)"/>
</g>
</svg>
