<?xml version="1.0" encoding="UTF-8"?>
<svg xmlns="http://www.w3.org/2000/svg" xmlns:xlink="http://www.w3.org/1999/xlink" width="1000px" height="667px" viewBox="0 0 1000 667" version="1.1">
<g id="surface1">
<rect x="0" y="0" width="1000" height="667" style="fill:rgb(81.176472%,7.843138%,16.862746%);fill-opacity:1;stroke:none;"/>
<path style=" stroke:none;fill-rule:nonzero;fill:rgb(0%,14.117648%,49.019608%);fill-opacity:1;" d="M 0 0 L 1000 0 L 1000 444.667969 L 0 444.667969 Z M 0 0 "/>
<path style=" stroke:none;fill-rule:nonzero;fill:rgb(100%,80.000001%,0%);fill-opacity:1;" d="M 0 0 L 1000 0 L 1000 222.332031 L 0 222.332031 Z M 0 0 "/>
<path style=" stroke:none;fill-rule:nonzero;fill:rgb(100%,100%,100%);fill-opacity:1;" d="M 539.554688 242.46875 L 526.511719 267.007812 L 541.226562 274.835938 Z M 539.554688 242.46875 "/>
<path style=" stroke:none;fill-rule:nonzero;fill:rgb(100%,100%,100%);fill-opacity:1;" d="M 539.554688 242.46875 L 543.417969 269.992188 L 526.914062 272.3125 Z M 539.554688 242.46875 "/>
<path style=" stroke:none;fill-rule:nonzero;fill:rgb(100%,100%,100%);fill-opacity:1;" d="M 562.238281 265.972656 L 534.882812 261.144531 L 531.988281 277.566406 Z M 562.238281 265.972656 "/>
<path style=" stroke:none;fill-rule:nonzero;fill:rgb(100%,100%,100%);fill-opacity:1;" d="M 562.238281 265.972656 L 537.269531 278.15625 L 529.964844 263.167969 Z M 562.238281 265.972656 "/>
<path style=" stroke:none;fill-rule:nonzero;fill:rgb(100%,100%,100%);fill-opacity:1;" d="M 510.203125 256.792969 L 529.5 276.785156 L 541.488281 265.199219 Z M 510.203125 256.792969 "/>
<path style=" stroke:none;fill-rule:nonzero;fill:rgb(100%,100%,100%);fill-opacity:1;" d="M 510.203125 256.792969 L 537.558594 261.617188 L 534.664062 278.039062 Z M 510.203125 256.792969 "/>
<path style=" stroke:none;fill-rule:nonzero;fill:rgb(100%,100%,100%);fill-opacity:1;" d="M 546.90625 294.820312 L 543.039062 267.296875 L 526.535156 269.617188 Z M 546.90625 294.820312 "/>
<path style=" stroke:none;fill-rule:nonzero;fill:rgb(100%,100%,100%);fill-opacity:1;" d="M 546.90625 294.820312 L 527.609375 274.828125 L 539.597656 263.242188 Z M 546.90625 294.820312 "/>
<path style=" stroke:none;fill-rule:nonzero;fill:rgb(100%,100%,100%);fill-opacity:1;" d="M 514.746094 289.144531 L 539.714844 276.960938 L 532.410156 261.976562 Z M 514.746094 289.144531 "/>
<path style=" stroke:none;fill-rule:nonzero;fill:rgb(100%,100%,100%);fill-opacity:1;" d="M 514.746094 289.144531 L 527.789062 264.605469 L 542.503906 272.433594 Z M 514.746094 289.144531 "/>
<path style=" stroke:none;fill-rule:nonzero;fill:rgb(100%,100%,100%);fill-opacity:1;" d="M 613.890625 269.539062 L 593.246094 288.136719 L 604.398438 300.527344 Z M 613.890625 269.539062 "/>
<path style=" stroke:none;fill-rule:nonzero;fill:rgb(100%,100%,100%);fill-opacity:1;" d="M 613.890625 269.539062 L 608.113281 296.722656 L 591.8125 293.257812 Z M 613.890625 269.539062 "/>
<path style=" stroke:none;fill-rule:nonzero;fill:rgb(100%,100%,100%);fill-opacity:1;" d="M 627.171875 299.386719 L 603.113281 285.492188 L 594.78125 299.933594 Z M 627.171875 299.386719 "/>
<path style=" stroke:none;fill-rule:nonzero;fill:rgb(100%,100%,100%);fill-opacity:1;" d="M 627.171875 299.386719 L 599.546875 302.292969 L 597.804688 285.707031 Z M 627.171875 299.386719 "/>
<path style=" stroke:none;fill-rule:nonzero;fill:rgb(100%,100%,100%);fill-opacity:1;" d="M 581.414062 272.957031 L 592.710938 298.34375 L 607.9375 291.5625 Z M 581.414062 272.957031 "/>
<path style=" stroke:none;fill-rule:nonzero;fill:rgb(100%,100%,100%);fill-opacity:1;" d="M 581.414062 272.957031 L 605.46875 286.851562 L 597.136719 301.292969 Z M 581.414062 272.957031 "/>
<path style=" stroke:none;fill-rule:nonzero;fill:rgb(100%,100%,100%);fill-opacity:1;" d="M 602.902344 321.246094 L 608.679688 294.0625 L 592.375 290.597656 Z M 602.902344 321.246094 "/>
<path style=" stroke:none;fill-rule:nonzero;fill:rgb(100%,100%,100%);fill-opacity:1;" d="M 602.902344 321.246094 L 591.605469 295.859375 L 606.832031 289.078125 Z M 602.902344 321.246094 "/>
<path style=" stroke:none;fill-rule:nonzero;fill:rgb(100%,100%,100%);fill-opacity:1;" d="M 574.625 304.914062 L 602.25 302.007812 L 600.507812 285.421875 Z M 574.625 304.914062 "/>
<path style=" stroke:none;fill-rule:nonzero;fill:rgb(100%,100%,100%);fill-opacity:1;" d="M 574.625 304.914062 L 595.265625 286.316406 L 606.417969 298.707031 Z M 574.625 304.914062 "/>
<path style=" stroke:none;fill-rule:nonzero;fill:rgb(100%,100%,100%);fill-opacity:1;" d="M 674.488281 320.414062 L 648.734375 330.824219 L 654.976562 346.285156 Z M 674.488281 320.414062 "/>
<path style=" stroke:none;fill-rule:nonzero;fill:rgb(100%,100%,100%);fill-opacity:1;" d="M 674.488281 320.414062 L 659.769531 343.984375 L 645.632812 335.144531 Z M 674.488281 320.414062 "/>
<path style=" stroke:none;fill-rule:nonzero;fill:rgb(100%,100%,100%);fill-opacity:1;" d="M 676.765625 353.003906 L 658.910156 331.714844 L 646.144531 342.433594 Z M 676.765625 353.003906 "/>
<path style=" stroke:none;fill-rule:nonzero;fill:rgb(100%,100%,100%);fill-opacity:1;" d="M 676.765625 353.003906 L 649.8125 346.28125 L 653.84375 330.101562 Z M 676.765625 353.003906 "/>
<path style=" stroke:none;fill-rule:nonzero;fill:rgb(100%,100%,100%);fill-opacity:1;" d="M 642.804688 312.511719 L 644.742188 340.234375 L 661.367188 339.070312 Z M 642.804688 312.511719 "/>
<path style=" stroke:none;fill-rule:nonzero;fill:rgb(100%,100%,100%);fill-opacity:1;" d="M 642.804688 312.511719 L 660.660156 333.800781 L 647.890625 344.519531 Z M 642.804688 312.511719 "/>
<path style=" stroke:none;fill-rule:nonzero;fill:rgb(100%,100%,100%);fill-opacity:1;" d="M 646.488281 365.246094 L 661.207031 341.675781 L 647.074219 332.839844 Z M 646.488281 365.246094 "/>
<path style=" stroke:none;fill-rule:nonzero;fill:rgb(100%,100%,100%);fill-opacity:1;" d="M 646.488281 365.246094 L 644.550781 337.519531 L 661.175781 336.355469 Z M 646.488281 365.246094 "/>
<path style=" stroke:none;fill-rule:nonzero;fill:rgb(100%,100%,100%);fill-opacity:1;" d="M 625.5 340.21875 L 652.453125 346.941406 L 656.484375 330.761719 Z M 625.5 340.21875 "/>
<path style=" stroke:none;fill-rule:nonzero;fill:rgb(100%,100%,100%);fill-opacity:1;" d="M 625.5 340.21875 L 651.253906 329.804688 L 657.496094 345.265625 Z M 625.5 340.21875 "/>
<path style=" stroke:none;fill-rule:nonzero;fill:rgb(100%,100%,100%);fill-opacity:1;" d="M 714.042969 388.957031 L 686.28125 389.925781 L 686.863281 406.589844 Z M 714.042969 388.957031 "/>
<path style=" stroke:none;fill-rule:nonzero;fill:rgb(100%,100%,100%);fill-opacity:1;" d="M 714.042969 388.957031 L 692.152344 406.066406 L 681.890625 392.925781 Z M 714.042969 388.957031 "/>
<path style=" stroke:none;fill-rule:nonzero;fill:rgb(100%,100%,100%);fill-opacity:1;" d="M 705.039062 420.363281 L 695.539062 394.246094 L 679.878906 399.949219 Z M 705.039062 420.363281 "/>
<path style=" stroke:none;fill-rule:nonzero;fill:rgb(100%,100%,100%);fill-opacity:1;" d="M 705.039062 420.363281 L 682.011719 404.820312 L 691.332031 390.996094 Z M 705.039062 420.363281 "/>
<path style=" stroke:none;fill-rule:nonzero;fill:rgb(100%,100%,100%);fill-opacity:1;" d="M 686.96875 370.6875 L 679.3125 397.402344 L 695.332031 402 Z M 686.96875 370.6875 "/>
<path style=" stroke:none;fill-rule:nonzero;fill:rgb(100%,100%,100%);fill-opacity:1;" d="M 686.96875 370.6875 L 696.46875 396.800781 L 680.808594 402.503906 Z M 686.96875 370.6875 "/>
<path style=" stroke:none;fill-rule:nonzero;fill:rgb(100%,100%,100%);fill-opacity:1;" d="M 672.40625 421.503906 L 694.292969 404.390625 L 684.035156 391.25 Z M 672.40625 421.503906 "/>
<path style=" stroke:none;fill-rule:nonzero;fill:rgb(100%,100%,100%);fill-opacity:1;" d="M 672.40625 421.503906 L 680.0625 394.785156 L 696.082031 399.382812 Z M 672.40625 421.503906 "/>
<path style=" stroke:none;fill-rule:nonzero;fill:rgb(100%,100%,100%);fill-opacity:1;" d="M 661.238281 390.800781 L 684.265625 406.34375 L 693.585938 392.519531 Z M 661.238281 390.800781 "/>
<path style=" stroke:none;fill-rule:nonzero;fill:rgb(100%,100%,100%);fill-opacity:1;" d="M 661.238281 390.800781 L 688.996094 389.832031 L 689.578125 406.496094 Z M 661.238281 390.800781 "/>
<path style=" stroke:none;fill-rule:nonzero;fill:rgb(100%,100%,100%);fill-opacity:1;" d="M 285.957031 388.957031 L 307.847656 406.066406 L 318.109375 392.925781 Z M 285.957031 388.957031 "/>
<path style=" stroke:none;fill-rule:nonzero;fill:rgb(100%,100%,100%);fill-opacity:1;" d="M 285.957031 388.957031 L 313.71875 389.925781 L 313.136719 406.589844 Z M 285.957031 388.957031 "/>
<path style=" stroke:none;fill-rule:nonzero;fill:rgb(100%,100%,100%);fill-opacity:1;" d="M 313.03125 370.6875 L 303.53125 396.800781 L 319.191406 402.503906 Z M 313.03125 370.6875 "/>
<path style=" stroke:none;fill-rule:nonzero;fill:rgb(100%,100%,100%);fill-opacity:1;" d="M 313.03125 370.6875 L 320.6875 397.402344 L 304.667969 402 Z M 313.03125 370.6875 "/>
<path style=" stroke:none;fill-rule:nonzero;fill:rgb(100%,100%,100%);fill-opacity:1;" d="M 294.960938 420.363281 L 317.988281 404.820312 L 308.667969 390.996094 Z M 294.960938 420.363281 "/>
<path style=" stroke:none;fill-rule:nonzero;fill:rgb(100%,100%,100%);fill-opacity:1;" d="M 294.960938 420.363281 L 304.460938 394.246094 L 320.121094 399.949219 Z M 294.960938 420.363281 "/>
<path style=" stroke:none;fill-rule:nonzero;fill:rgb(100%,100%,100%);fill-opacity:1;" d="M 338.761719 390.800781 L 311.003906 389.832031 L 310.421875 406.496094 Z M 338.761719 390.800781 "/>
<path style=" stroke:none;fill-rule:nonzero;fill:rgb(100%,100%,100%);fill-opacity:1;" d="M 338.761719 390.800781 L 315.734375 406.34375 L 306.414062 392.519531 Z M 338.761719 390.800781 "/>
<path style=" stroke:none;fill-rule:nonzero;fill:rgb(100%,100%,100%);fill-opacity:1;" d="M 327.59375 421.503906 L 319.9375 394.785156 L 303.917969 399.382812 Z M 327.59375 421.503906 "/>
<path style=" stroke:none;fill-rule:nonzero;fill:rgb(100%,100%,100%);fill-opacity:1;" d="M 327.59375 421.503906 L 305.707031 404.390625 L 315.964844 391.25 Z M 327.59375 421.503906 "/>
<path style=" stroke:none;fill-rule:nonzero;fill:rgb(100%,100%,100%);fill-opacity:1;" d="M 325.511719 320.414062 L 340.230469 343.984375 L 354.367188 335.144531 Z M 325.511719 320.414062 "/>
<path style=" stroke:none;fill-rule:nonzero;fill:rgb(100%,100%,100%);fill-opacity:1;" d="M 325.511719 320.414062 L 351.265625 330.824219 L 345.023438 346.285156 Z M 325.511719 320.414062 "/>
<path style=" stroke:none;fill-rule:nonzero;fill:rgb(100%,100%,100%);fill-opacity:1;" d="M 357.195312 312.511719 L 339.339844 333.800781 L 352.109375 344.519531 Z M 357.195312 312.511719 "/>
<path style=" stroke:none;fill-rule:nonzero;fill:rgb(100%,100%,100%);fill-opacity:1;" d="M 357.195312 312.511719 L 355.257812 340.234375 L 338.632812 339.070312 Z M 357.195312 312.511719 "/>
<path style=" stroke:none;fill-rule:nonzero;fill:rgb(100%,100%,100%);fill-opacity:1;" d="M 323.234375 353.003906 L 350.1875 346.28125 L 346.15625 330.101562 Z M 323.234375 353.003906 "/>
<path style=" stroke:none;fill-rule:nonzero;fill:rgb(100%,100%,100%);fill-opacity:1;" d="M 323.234375 353.003906 L 341.089844 331.714844 L 353.855469 342.433594 Z M 323.234375 353.003906 "/>
<path style=" stroke:none;fill-rule:nonzero;fill:rgb(100%,100%,100%);fill-opacity:1;" d="M 374.5 340.21875 L 348.746094 329.804688 L 342.503906 345.265625 Z M 374.5 340.21875 "/>
<path style=" stroke:none;fill-rule:nonzero;fill:rgb(100%,100%,100%);fill-opacity:1;" d="M 374.5 340.21875 L 347.546875 346.941406 L 343.515625 330.761719 Z M 374.5 340.21875 "/>
<path style=" stroke:none;fill-rule:nonzero;fill:rgb(100%,100%,100%);fill-opacity:1;" d="M 353.511719 365.246094 L 355.449219 337.519531 L 338.824219 336.355469 Z M 353.511719 365.246094 "/>
<path style=" stroke:none;fill-rule:nonzero;fill:rgb(100%,100%,100%);fill-opacity:1;" d="M 353.511719 365.246094 L 338.792969 341.675781 L 352.925781 332.839844 Z M 353.511719 365.246094 "/>
<path style=" stroke:none;fill-rule:nonzero;fill:rgb(100%,100%,100%);fill-opacity:1;" d="M 386.109375 269.539062 L 391.886719 296.722656 L 408.1875 293.257812 Z M 386.109375 269.539062 "/>
<path style=" stroke:none;fill-rule:nonzero;fill:rgb(100%,100%,100%);fill-opacity:1;" d="M 386.109375 269.539062 L 406.753906 288.136719 L 395.601562 300.527344 Z M 386.109375 269.539062 "/>
<path style=" stroke:none;fill-rule:nonzero;fill:rgb(100%,100%,100%);fill-opacity:1;" d="M 418.585938 272.957031 L 394.53125 286.851562 L 402.863281 301.292969 Z M 418.585938 272.957031 "/>
<path style=" stroke:none;fill-rule:nonzero;fill:rgb(100%,100%,100%);fill-opacity:1;" d="M 418.585938 272.957031 L 407.289062 298.34375 L 392.0625 291.5625 Z M 418.585938 272.957031 "/>
<path style=" stroke:none;fill-rule:nonzero;fill:rgb(100%,100%,100%);fill-opacity:1;" d="M 372.828125 299.386719 L 400.453125 302.292969 L 402.195312 285.707031 Z M 372.828125 299.386719 "/>
<path style=" stroke:none;fill-rule:nonzero;fill:rgb(100%,100%,100%);fill-opacity:1;" d="M 372.828125 299.386719 L 396.886719 285.492188 L 405.21875 299.933594 Z M 372.828125 299.386719 "/>
<path style=" stroke:none;fill-rule:nonzero;fill:rgb(100%,100%,100%);fill-opacity:1;" d="M 425.375 304.914062 L 404.734375 286.316406 L 393.582031 298.707031 Z M 425.375 304.914062 "/>
<path style=" stroke:none;fill-rule:nonzero;fill:rgb(100%,100%,100%);fill-opacity:1;" d="M 425.375 304.914062 L 397.75 302.007812 L 399.492188 285.421875 Z M 425.375 304.914062 "/>
<path style=" stroke:none;fill-rule:nonzero;fill:rgb(100%,100%,100%);fill-opacity:1;" d="M 397.097656 321.246094 L 408.394531 295.859375 L 393.167969 289.078125 Z M 397.097656 321.246094 "/>
<path style=" stroke:none;fill-rule:nonzero;fill:rgb(100%,100%,100%);fill-opacity:1;" d="M 397.097656 321.246094 L 391.320312 294.0625 L 407.625 290.597656 Z M 397.097656 321.246094 "/>
<path style=" stroke:none;fill-rule:nonzero;fill:rgb(100%,100%,100%);fill-opacity:1;" d="M 460.445312 242.46875 L 456.582031 269.992188 L 473.085938 272.3125 Z M 460.445312 242.46875 "/>
<path style=" stroke:none;fill-rule:nonzero;fill:rgb(100%,100%,100%);fill-opacity:1;" d="M 460.445312 242.46875 L 473.488281 267.007812 L 458.773438 274.835938 Z M 460.445312 242.46875 "/>
<path style=" stroke:none;fill-rule:nonzero;fill:rgb(100%,100%,100%);fill-opacity:1;" d="M 489.796875 256.792969 L 462.441406 261.617188 L 465.335938 278.039062 Z M 489.796875 256.792969 "/>
<path style=" stroke:none;fill-rule:nonzero;fill:rgb(100%,100%,100%);fill-opacity:1;" d="M 489.796875 256.792969 L 470.5 276.785156 L 458.511719 265.199219 Z M 489.796875 256.792969 "/>
<path style=" stroke:none;fill-rule:nonzero;fill:rgb(100%,100%,100%);fill-opacity:1;" d="M 437.761719 265.972656 L 462.730469 278.15625 L 470.035156 263.167969 Z M 437.761719 265.972656 "/>
<path style=" stroke:none;fill-rule:nonzero;fill:rgb(100%,100%,100%);fill-opacity:1;" d="M 437.761719 265.972656 L 465.117188 261.144531 L 468.011719 277.566406 Z M 437.761719 265.972656 "/>
<path style=" stroke:none;fill-rule:nonzero;fill:rgb(100%,100%,100%);fill-opacity:1;" d="M 485.253906 289.144531 L 472.210938 264.605469 L 457.496094 272.433594 Z M 485.253906 289.144531 "/>
<path style=" stroke:none;fill-rule:nonzero;fill:rgb(100%,100%,100%);fill-opacity:1;" d="M 485.253906 289.144531 L 460.285156 276.960938 L 467.589844 261.976562 Z M 485.253906 289.144531 "/>
<path style=" stroke:none;fill-rule:nonzero;fill:rgb(100%,100%,100%);fill-opacity:1;" d="M 453.09375 294.820312 L 472.390625 274.828125 L 460.402344 263.242188 Z M 453.09375 294.820312 "/>
<path style=" stroke:none;fill-rule:nonzero;fill:rgb(100%,100%,100%);fill-opacity:1;" d="M 453.09375 294.820312 L 456.960938 267.296875 L 473.464844 269.617188 Z M 453.09375 294.820312 "/>
</g>
</svg>
