<?xml version="1.0" encoding="UTF-8"?>
<svg xmlns="http://www.w3.org/2000/svg" xmlns:xlink="http://www.w3.org/1999/xlink" width="1000px" height="667px" viewBox="0 0 1000 667" version="1.1">
<defs>
<clipPath id="clip1">
  <path d="M 0 0 L 500 0 L 500 334 L 0 334 Z M 0 0 "/>
</clipPath>
<clipPath id="clip2">
  <path d="M 0 0 L 0 166.75 L 583.332031 166.75 L 583.332031 333.5 L 500 333.5 Z M 500 0 L 250 0 L 250 389.082031 L 0 389.082031 L 0 333.5 Z M 500 0 "/>
</clipPath>
<clipPath id="clip3">
  <path d="M 0 0 L 584 0 L 584 390 L 0 390 Z M 0 0 "/>
</clipPath>
<clipPath id="clip4">
  <path d="M 0 0 L 0 166.75 L 583.332031 166.75 L 583.332031 333.5 L 500 333.5 Z M 500 0 L 250 0 L 250 389.082031 L 0 389.082031 L 0 333.5 Z M 500 0 "/>
</clipPath>
<linearGradient id="linear0" gradientUnits="userSpaceOnUse" x1="103.083" y1="111.276001" x2="92.551003" y2="107.764" gradientTransform="matrix(0.99614,0,0,2.25255,703.84198,-75.046997)">
<stop offset="0" style="stop-color:rgb(100%,0%,0%);stop-opacity:1;"/>
<stop offset="1" style="stop-color:rgb(100%,100%,0%);stop-opacity:1;"/>
</linearGradient>
<linearGradient id="linear1" gradientUnits="userSpaceOnUse" x1="103.083" y1="111.276001" x2="92.551003" y2="107.764" gradientTransform="matrix(0.99614,0,0,2.25255,703.84198,-75.046997)">
<stop offset="0" style="stop-color:rgb(100%,0%,0%);stop-opacity:1;"/>
<stop offset="1" style="stop-color:rgb(100%,100%,0%);stop-opacity:1;"/>
</linearGradient>
<linearGradient id="linear2" gradientUnits="userSpaceOnUse" x1="103.083" y1="111.276001" x2="92.551003" y2="107.764" gradientTransform="matrix(0.99614,0,0,2.25255,703.84198,-75.046997)">
<stop offset="0" style="stop-color:rgb(100%,0%,0%);stop-opacity:1;"/>
<stop offset="1" style="stop-color:rgb(100%,100%,0%);stop-opacity:1;"/>
</linearGradient>
<linearGradient id="linear3" gradientUnits="userSpaceOnUse" x1="103.083" y1="111.276001" x2="92.551003" y2="107.764" gradientTransform="matrix(0.99614,0,0,2.25255,703.84198,-75.046997)">
<stop offset="0" style="stop-color:rgb(100%,0%,0%);stop-opacity:1;"/>
<stop offset="1" style="stop-color:rgb(100%,100%,0%);stop-opacity:1;"/>
</linearGradient>
<linearGradient id="linear4" gradientUnits="userSpaceOnUse" x1="103.083" y1="111.276001" x2="92.551003" y2="107.764" gradientTransform="matrix(0.99614,0,0,2.25255,703.84198,-75.046997)">
<stop offset="0" style="stop-color:rgb(100%,0%,0%);stop-opacity:1;"/>
<stop offset="1" style="stop-color:rgb(100%,100%,0%);stop-opacity:1;"/>
</linearGradient>
<linearGradient id="linear5" gradientUnits="userSpaceOnUse" x1="103.083" y1="111.276001" x2="92.551003" y2="107.764" gradientTransform="matrix(0.99614,0,0,2.25255,703.84198,-75.046997)">
<stop offset="0" style="stop-color:rgb(100%,0%,0%);stop-opacity:1;"/>
<stop offset="1" style="stop-color:rgb(100%,100%,0%);stop-opacity:1;"/>
</linearGradient>
<linearGradient id="linear6" gradientUnits="userSpaceOnUse" x1="103.083" y1="111.276001" x2="92.551003" y2="107.764" gradientTransform="matrix(0.99614,0,0,2.25255,703.84198,-75.046997)">
<stop offset="0" style="stop-color:rgb(100%,0%,0%);stop-opacity:1;"/>
<stop offset="1" style="stop-color:rgb(100%,100%,0%);stop-opacity:1;"/>
</linearGradient>
<linearGradient id="linear7" gradientUnits="userSpaceOnUse" x1="103.083" y1="111.276001" x2="92.551003" y2="107.764" gradientTransform="matrix(0.99614,0,0,2.25255,703.84198,-75.046997)">
<stop offset="0" style="stop-color:rgb(100%,0%,0%);stop-opacity:1;"/>
<stop offset="1" style="stop-color:rgb(100%,100%,0%);stop-opacity:1;"/>
</linearGradient>
<linearGradient id="linear8" gradientUnits="userSpaceOnUse" x1="103.083" y1="111.276001" x2="92.551003" y2="107.764" gradientTransform="matrix(0.99614,0,0,2.25255,703.84198,-75.046997)">
<stop offset="0" style="stop-color:rgb(100%,0%,0%);stop-opacity:1;"/>
<stop offset="1" style="stop-color:rgb(100%,100%,0%);stop-opacity:1;"/>
</linearGradient>
<linearGradient id="linear9" gradientUnits="userSpaceOnUse" x1="103.083" y1="111.276001" x2="92.551003" y2="107.764" gradientTransform="matrix(0.99614,0,0,2.25255,703.84198,-75.046997)">
<stop offset="0" style="stop-color:rgb(100%,0%,0%);stop-opacity:1;"/>
<stop offset="1" style="stop-color:rgb(100%,100%,0%);stop-opacity:1;"/>
</linearGradient>
<linearGradient id="linear10" gradientUnits="userSpaceOnUse" x1="103.083" y1="111.276001" x2="92.551003" y2="107.764" gradientTransform="matrix(0.99614,0,0,2.25255,703.84198,-75.046997)">
<stop offset="0" style="stop-color:rgb(100%,0%,0%);stop-opacity:1;"/>
<stop offset="1" style="stop-color:rgb(100%,100%,0%);stop-opacity:1;"/>
</linearGradient>
<linearGradient id="linear11" gradientUnits="userSpaceOnUse" x1="103.083" y1="111.276001" x2="92.551003" y2="107.764" gradientTransform="matrix(0.99614,0,0,2.25255,703.84198,-75.046997)">
<stop offset="0" style="stop-color:rgb(100%,0%,0%);stop-opacity:1;"/>
<stop offset="1" style="stop-color:rgb(100%,100%,0%);stop-opacity:1;"/>
</linearGradient>
</defs>
<g id="surface1">
<rect x="0" y="0" width="1000" height="667" style="fill:rgb(0.392157%,12.941177%,41.176471%);fill-opacity:1;stroke:none;"/>
<path style="fill-rule:nonzero;fill:rgb(0%,0%,0%);fill-opacity:1;stroke-width:60;stroke-linecap:butt;stroke-linejoin:miter;stroke:rgb(100%,100%,100%);stroke-opacity:1;stroke-miterlimit:4;" d="M 0 0 L 600 300 M 600 0 L 0 300 " transform="matrix(0.833333,0,0,1.111667,0,0)"/>
<g clip-path="url(#clip1)" clip-rule="nonzero">
<g clip-path="url(#clip2)" clip-rule="nonzero">
<path style=" stroke:none;fill-rule:nonzero;fill:rgb(0%,0%,0%);fill-opacity:1;" d="M 0 0 L 500 333.5 M 500 0 L 0 333.5 "/>
</g>
</g>
<g clip-path="url(#clip3)" clip-rule="nonzero">
<g clip-path="url(#clip4)" clip-rule="nonzero">
<path style="fill:none;stroke-width:40;stroke-linecap:butt;stroke-linejoin:miter;stroke:rgb(78.431374%,6.27451%,18.039216%);stroke-opacity:1;stroke-miterlimit:4;" d="M 0 0 L 600 300 M 600 0 L 0 300 " transform="matrix(0.833333,0,0,1.111667,0,0)"/>
</g>
</g>
<path style="fill-rule:nonzero;fill:rgb(0%,0%,0%);fill-opacity:1;stroke-width:100;stroke-linecap:butt;stroke-linejoin:miter;stroke:rgb(100%,100%,100%);stroke-opacity:1;stroke-miterlimit:4;" d="M 300 0 L 300 349.998829 M 0 150 L 699.998438 150 " transform="matrix(0.833333,0,0,1.111667,0,0)"/>
<path style="fill-rule:nonzero;fill:rgb(0%,0%,0%);fill-opacity:1;stroke-width:60;stroke-linecap:butt;stroke-linejoin:miter;stroke:rgb(78.431374%,6.27451%,18.039216%);stroke-opacity:1;stroke-miterlimit:4;" d="M 300 0 L 300 349.998829 M 0 150 L 699.998438 150 " transform="matrix(0.833333,0,0,1.111667,0,0)"/>
<path style=" stroke:none;fill-rule:nonzero;fill:rgb(0.392157%,12.941177%,41.176471%);fill-opacity:1;" d="M 0 333.5 L 500 333.5 L 500 0 L 1000 0 L 1000 667 L 0 667 Z M 0 333.5 "/>
<path style=" stroke:none;fill-rule:nonzero;fill:rgb(100%,100%,100%);fill-opacity:1;" d="M 646.882812 160.15625 L 855.550781 159.121094 L 855.164062 407.015625 C 855.164062 407.015625 862.519531 444.714844 767.671875 502.039062 C 801.738281 497.394531 838.902344 448.847656 838.902344 448.847656 C 838.902344 448.847656 854.003906 423.027344 861.359375 437.488281 C 868.714844 451.945312 875.683594 459.175781 881.101562 464.855469 C 886.523438 470.539062 890.78125 486.03125 882.652344 497.394531 C 874.523438 508.753906 861.746094 510.304688 858.261719 496.359375 C 852.839844 499.976562 819.546875 553.6875 751.410156 556.265625 C 682.113281 554.71875 644.171875 495.84375 644.171875 495.84375 C 644.171875 495.84375 634.882812 515.46875 621.71875 499.976562 C 608.945312 479.835938 618.621094 466.921875 618.621094 466.921875 C 618.621094 466.921875 629.460938 458.660156 632.558594 452.980469 C 637.59375 445.234375 639.140625 434.902344 647.65625 434.902344 C 657.722656 435.9375 661.59375 446.78125 661.59375 446.78125 C 661.59375 446.78125 696.4375 495.84375 733.988281 502.039062 C 649.210938 447.808594 646.113281 414.242188 646.5 405.976562 L 646.886719 160.152344 Z M 646.882812 160.15625 "/>
<path style="fill-rule:nonzero;fill:rgb(0%,38.039216%,16.078432%);fill-opacity:1;stroke-width:1.887;stroke-linecap:butt;stroke-linejoin:miter;stroke:rgb(0%,0%,0%);stroke-opacity:1;stroke-miterlimit:4;" d="M 782.296875 150.105416 L 1021.0875 148.713924 L 1021.0875 363.3445 C 1021.551562 391.216501 974.629687 419.555847 901.228125 455.790855 C 825.50625 416.76935 781.832812 393.075337 781.36875 362.880669 L 782.301562 150.10893 Z M 782.296875 150.105416 " transform="matrix(0.833333,0,0,1.111667,0,0)"/>
<path style="fill:none;stroke-width:1.887;stroke-linecap:butt;stroke-linejoin:miter;stroke:rgb(100%,78.039217%,17.254902%);stroke-opacity:1;stroke-miterlimit:4;" d="M 814.795313 181.828617 L 828.890625 161.12842 L 843.051562 181.870783 " transform="matrix(0.833333,0,0,1.111667,0,0)"/>
<path style="fill-rule:nonzero;fill:rgb(100%,78.039217%,17.254902%);fill-opacity:1;stroke-width:0.944;stroke-linecap:butt;stroke-linejoin:miter;stroke:rgb(0%,0%,0%);stroke-opacity:1;stroke-miterlimit:4;" d="M 831.717188 174.091079 C 831.745312 175.106587 831.220312 176.058846 830.34375 176.578898 C 829.467188 177.095437 828.375 177.095437 827.498438 176.578898 C 826.621875 176.062359 826.092188 175.110101 826.120312 174.091079 C 826.1625 172.576602 827.4 171.367832 828.91875 171.364318 C 830.4375 171.364318 831.679688 172.573088 831.717188 174.091079 Z M 831.717188 174.091079 " transform="matrix(0.833333,0,0,1.111667,0,0)"/>
<path style="fill-rule:nonzero;fill:rgb(100%,78.039217%,17.254902%);fill-opacity:1;stroke-width:0.944;stroke-linecap:butt;stroke-linejoin:miter;stroke:rgb(0%,0%,0%);stroke-opacity:1;stroke-miterlimit:4;" d="M 817.44375 197.117457 L 839.296875 197.180707 C 839.296875 197.180707 839.639063 194.345015 837.014063 192.619706 C 848.460938 191.049007 845.484375 180.953664 855.070312 180.380903 C 856.93125 180.665527 850.064062 184.671336 850.064062 184.671336 C 850.064062 184.671336 844.284375 188.750937 846.914062 190.824119 C 849.004687 192.468609 849.91875 189.822667 850.204687 187.819762 C 850.490625 185.816857 859.504687 184.530781 858.220312 178.80669 C 856.073437 174.087566 843.482813 181.955116 843.482813 181.955116 L 834.501562 181.902408 C 833.939062 180.897442 831.464062 176.85298 828.909375 176.83541 C 825.876562 176.94434 823.739062 181.955116 823.739062 181.955116 L 803.423437 181.955116 C 803.423437 181.955116 802.725 187.166183 813.028125 188.167635 C 815.348437 191.196589 817.14375 192.043431 819.159375 192.827024 C 817.81875 193.947948 817.439062 195.300787 817.44375 197.117457 Z M 819.01875 192.682955 L 837.215625 192.62322 M 810.679688 181.951602 C 810.679688 181.951602 812.1375 190.465705 818.854687 192.482665 " transform="matrix(0.833333,0,0,1.111667,0,0)"/>
<path style="fill-rule:nonzero;fill:url(#linear0);stroke-width:0.944;stroke-linecap:butt;stroke-linejoin:miter;stroke:rgb(0%,0%,0%);stroke-opacity:1;stroke-miterlimit:4;" d="M 809.559375 181.842672 C 810.234375 178.592344 811.467188 178.033639 812.807812 173.887275 C 813.032812 169.856868 809.559375 170.30313 810.567187 167.727464 C 812.3625 164.930425 811.467188 162.238802 808.10625 160.112912 C 808.776562 163.809501 803.7375 167.281203 803.7375 170.30313 C 803.7375 173.32857 806.310938 172.657421 805.978125 177.250047 C 806.203125 179.938156 805.303125 179.263493 805.082812 181.842672 Z M 809.559375 181.842672 " transform="matrix(0.833333,0,0,1.111667,0,0)"/>
<path style="fill-rule:nonzero;fill:rgb(100%,78.039217%,17.254902%);fill-opacity:1;stroke-width:0.944;stroke-linecap:butt;stroke-linejoin:miter;stroke:rgb(0%,0%,0%);stroke-opacity:1;stroke-miterlimit:4;" d="M 831.496875 161.6555 C 831.496875 163.078617 830.34375 164.231166 828.91875 164.23468 C 827.498438 164.23468 826.345312 163.082131 826.345312 161.659014 C 826.345312 160.235898 827.498438 159.083349 828.91875 159.083349 C 830.339062 159.083349 831.492188 160.235898 831.496875 161.6555 Z M 831.496875 161.6555 " transform="matrix(0.833333,0,0,1.111667,0,0)"/>
<path style="fill:none;stroke-width:1.887;stroke-linecap:butt;stroke-linejoin:miter;stroke:rgb(100%,78.039217%,17.254902%);stroke-opacity:1;stroke-miterlimit:4;" d="M 814.793875 181.830135 L 828.889188 161.126425 L 843.054813 181.872302 " transform="matrix(0.833333,0,0,1.111667,-0.643333,45.916281)"/>
<path style="fill-rule:nonzero;fill:rgb(100%,78.039217%,17.254902%);fill-opacity:1;stroke-width:0.944;stroke-linecap:butt;stroke-linejoin:miter;stroke:rgb(0%,0%,0%);stroke-opacity:1;stroke-miterlimit:4;" d="M 831.720438 174.089084 C 831.748563 175.108106 831.218875 176.060364 830.342313 176.576902 C 829.46575 177.093441 828.37825 177.096955 827.497 176.576902 C 826.620438 176.060364 826.095438 175.108106 826.118875 174.092598 C 826.161063 172.574607 827.40325 171.365836 828.917313 171.365836 C 830.436063 171.365836 831.67825 172.574607 831.720438 174.089084 Z M 831.720438 174.089084 " transform="matrix(0.833333,0,0,1.111667,-0.643333,45.916281)"/>
<path style="fill-rule:nonzero;fill:rgb(100%,78.039217%,17.254902%);fill-opacity:1;stroke-width:0.944;stroke-linecap:butt;stroke-linejoin:miter;stroke:rgb(0%,0%,0%);stroke-opacity:1;stroke-miterlimit:4;" d="M 817.442313 197.118975 L 839.295438 197.182225 C 839.295438 197.182225 839.637625 194.346533 837.012625 192.621224 C 848.4595 191.047011 845.482938 180.951668 855.068875 180.378908 C 856.929813 180.667045 850.062625 184.672854 850.062625 184.672854 C 850.062625 184.672854 844.282938 188.748941 846.917313 190.825637 C 849.007938 192.470128 849.922 189.824185 850.207938 187.82128 C 850.493875 185.818375 859.507938 184.528786 858.218875 178.804695 C 856.072 174.08557 843.481375 181.953121 843.481375 181.953121 L 834.500125 181.903926 C 833.942313 180.895446 831.467313 176.854498 828.907938 176.833415 C 825.875125 176.945859 823.737625 181.953121 823.737625 181.953121 L 803.422 181.953121 C 803.422 181.953121 802.72825 187.167701 813.026688 188.169153 C 815.347 191.198107 817.147 192.041436 819.162625 192.828542 C 817.817313 193.945952 817.437625 195.302305 817.442313 197.118975 Z M 819.017313 192.684474 L 837.218875 192.621224 M 810.682938 181.953121 C 810.682938 181.953121 812.136063 190.467223 818.857938 192.480669 " transform="matrix(0.833333,0,0,1.111667,-0.643333,45.916281)"/>
<path style="fill-rule:nonzero;fill:url(#linear1);stroke-width:0.944;stroke-linecap:butt;stroke-linejoin:miter;stroke:rgb(0%,0%,0%);stroke-opacity:1;stroke-miterlimit:4;" d="M 809.562625 181.840677 C 810.232938 178.593863 811.46575 178.031644 812.811063 173.888793 C 813.031375 169.854873 809.562625 170.304648 810.570438 167.728983 C 812.361063 164.92843 811.46575 162.240321 808.104813 160.110917 C 808.775125 163.807506 803.736063 167.279208 803.736063 170.304648 C 803.736063 173.330088 806.314188 172.655426 805.976688 177.248051 C 806.201688 179.93616 805.306375 179.265012 805.081375 181.840677 Z M 809.562625 181.840677 " transform="matrix(0.833333,0,0,1.111667,-0.643333,45.916281)"/>
<path style="fill-rule:nonzero;fill:rgb(100%,78.039217%,17.254902%);fill-opacity:1;stroke-width:0.944;stroke-linecap:butt;stroke-linejoin:miter;stroke:rgb(0%,0%,0%);stroke-opacity:1;stroke-miterlimit:4;" d="M 831.495438 161.657019 C 831.495438 163.080135 830.342313 164.232684 828.922 164.232684 C 827.497 164.232684 826.343875 163.080135 826.343875 161.660533 C 826.343875 160.237416 827.497 159.084867 828.917313 159.081353 C 830.342313 159.081353 831.495438 160.233902 831.495438 161.657019 Z M 831.495438 161.657019 " transform="matrix(0.833333,0,0,1.111667,-0.643333,45.916281)"/>
<path style="fill:none;stroke-width:1.887;stroke-linecap:butt;stroke-linejoin:miter;stroke:rgb(100%,78.039217%,17.254902%);stroke-opacity:1;stroke-miterlimit:4;" d="M 814.792125 181.829297 L 828.887437 161.1291 L 843.053062 181.871464 " transform="matrix(0.833333,0,0,1.111667,-0.9075,91.171119)"/>
<path style="fill-rule:nonzero;fill:rgb(100%,78.039217%,17.254902%);fill-opacity:1;stroke-width:0.944;stroke-linecap:butt;stroke-linejoin:miter;stroke:rgb(0%,0%,0%);stroke-opacity:1;stroke-miterlimit:4;" d="M 831.718687 174.088246 C 831.746812 175.107268 831.217125 176.059526 830.340562 176.576064 C 829.464 177.096117 828.3765 177.096117 827.499937 176.579578 C 826.623375 176.06304 826.093687 175.110781 826.121812 174.09176 C 826.159312 172.573769 827.4015 171.364998 828.92025 171.364998 C 830.434312 171.364998 831.6765 172.573769 831.718687 174.088246 Z M 831.718687 174.088246 " transform="matrix(0.833333,0,0,1.111667,-0.9075,91.171119)"/>
<path style="fill-rule:nonzero;fill:rgb(100%,78.039217%,17.254902%);fill-opacity:1;stroke-width:0.944;stroke-linecap:butt;stroke-linejoin:miter;stroke:rgb(0%,0%,0%);stroke-opacity:1;stroke-miterlimit:4;" d="M 817.44525 197.118137 L 839.293687 197.181387 C 839.293687 197.181387 839.635875 194.345695 837.010875 192.620386 C 848.45775 191.049687 845.485875 180.95083 855.071812 180.381583 C 856.93275 180.666207 850.060875 184.672016 850.060875 184.672016 C 850.060875 184.672016 844.285875 188.751617 846.915562 190.824799 C 849.006187 192.46929 849.92025 189.823347 850.206187 187.820442 C 850.492125 185.817537 859.506187 184.531462 858.217125 178.807371 C 856.07025 174.084732 843.484312 181.952282 843.484312 181.952282 L 834.498375 181.903088 C 833.940562 180.894608 831.465562 176.85366 828.906187 176.832577 C 825.873375 176.945021 823.735875 181.952282 823.735875 181.952282 L 803.424937 181.952282 C 803.424937 181.952282 802.7265 187.166863 813.029625 188.168315 C 815.34525 191.197269 817.14525 192.044112 819.160875 192.827704 C 817.815562 193.948628 817.435875 195.301467 817.44525 197.118137 Z M 819.015562 192.683636 L 837.217125 192.620386 M 810.681187 181.952282 C 810.681187 181.952282 812.139 190.466385 818.856187 192.483345 " transform="matrix(0.833333,0,0,1.111667,-0.9075,91.171119)"/>
<path style="fill-rule:nonzero;fill:url(#linear2);stroke-width:0.944;stroke-linecap:butt;stroke-linejoin:miter;stroke:rgb(0%,0%,0%);stroke-opacity:1;stroke-miterlimit:4;" d="M 809.560875 181.839839 C 810.231187 178.593025 811.464 178.03432 812.809312 173.887955 C 813.034312 169.857549 809.560875 170.30381 810.568687 167.728145 C 812.359312 164.927592 811.464 162.239483 808.103062 160.113592 C 808.778062 163.806668 803.739 167.278369 803.739 170.30381 C 803.739 173.32925 806.312437 172.658101 805.974937 177.250727 C 806.199937 179.935322 805.304625 179.264173 805.079625 181.839839 Z M 809.560875 181.839839 " transform="matrix(0.833333,0,0,1.111667,-0.9075,91.171119)"/>
<path style="fill-rule:nonzero;fill:rgb(100%,78.039217%,17.254902%);fill-opacity:1;stroke-width:0.944;stroke-linecap:butt;stroke-linejoin:miter;stroke:rgb(0%,0%,0%);stroke-opacity:1;stroke-miterlimit:4;" d="M 831.493687 161.656181 C 831.493687 163.079297 830.34525 164.231846 828.92025 164.231846 C 827.499937 164.231846 826.346812 163.082811 826.346812 161.659694 C 826.342125 160.236578 827.49525 159.084029 828.92025 159.084029 C 830.340562 159.084029 831.493687 160.236578 831.493687 161.656181 Z M 831.493687 161.656181 " transform="matrix(0.833333,0,0,1.111667,-0.9075,91.171119)"/>
<path style="fill:none;stroke-width:1.887;stroke-linecap:butt;stroke-linejoin:miter;stroke:rgb(100%,78.039217%,17.254902%);stroke-opacity:1;stroke-miterlimit:4;" d="M 814.794874 181.828287 L 828.890187 161.128091 L 843.051124 181.870454 " transform="matrix(0.833333,0,0,1.111667,21.355834,140.180054)"/>
<path style="fill-rule:nonzero;fill:rgb(100%,78.039217%,17.254902%);fill-opacity:1;stroke-width:0.944;stroke-linecap:butt;stroke-linejoin:miter;stroke:rgb(0%,0%,0%);stroke-opacity:1;stroke-miterlimit:4;" d="M 831.716749 174.09075 C 831.744874 175.106258 831.219874 176.06203 830.343312 176.578568 C 829.466749 177.095107 828.374562 177.095107 827.497999 176.578568 C 826.621437 176.06203 826.096437 175.109772 826.119874 174.09075 C 826.162062 172.576273 827.399562 171.367502 828.918312 171.367502 C 830.437062 171.363988 831.679249 172.572759 831.716749 174.09075 Z M 831.716749 174.09075 " transform="matrix(0.833333,0,0,1.111667,21.355834,140.180054)"/>
<path style="fill-rule:nonzero;fill:rgb(100%,78.039217%,17.254902%);fill-opacity:1;stroke-width:0.944;stroke-linecap:butt;stroke-linejoin:miter;stroke:rgb(0%,0%,0%);stroke-opacity:1;stroke-miterlimit:4;" d="M 817.443312 197.120641 L 839.296437 197.180377 C 839.296437 197.180377 839.638624 194.344685 837.013624 192.619376 C 848.460499 191.048677 845.483937 180.953334 855.069874 180.380574 C 856.930812 180.665197 850.063624 184.671007 850.063624 184.671007 C 850.063624 184.671007 844.283937 188.750607 846.918312 190.82379 C 849.004249 192.46828 849.918312 189.822337 850.204249 187.819432 C 850.490187 185.816528 859.504249 184.530452 858.219874 178.806361 C 856.072999 174.087236 843.482374 181.954787 843.482374 181.954787 L 834.501124 181.905592 C 833.938624 180.897112 831.463624 176.85265 828.908937 176.835081 C 825.876124 176.944011 823.738624 181.954787 823.738624 181.954787 L 803.422999 181.954787 C 803.422999 181.954787 802.729249 187.165853 813.027687 188.167305 C 815.347999 191.19626 817.143312 192.043102 819.158937 192.826694 C 817.818312 193.947618 817.438624 195.300457 817.443312 197.120641 Z M 819.018312 192.682626 L 837.215187 192.62289 M 810.679249 181.951273 C 810.679249 181.951273 812.137062 190.465375 818.858937 192.482335 " transform="matrix(0.833333,0,0,1.111667,21.355834,140.180054)"/>
<path style="fill-rule:nonzero;fill:url(#linear3);stroke-width:0.944;stroke-linecap:butt;stroke-linejoin:miter;stroke:rgb(0%,0%,0%);stroke-opacity:1;stroke-miterlimit:4;" d="M 809.558937 181.842343 C 810.233937 178.592015 811.466749 178.03331 812.807374 173.890459 C 813.032374 169.856539 809.558937 170.3028 810.566749 167.730649 C 812.362062 164.930096 811.466749 162.238473 808.105812 160.112583 C 808.776124 163.809172 803.737062 167.280874 803.737062 170.3028 C 803.737062 173.32824 806.315187 172.657092 805.977687 177.249717 C 806.202687 179.937826 805.302687 179.266678 805.082374 181.842343 Z M 809.558937 181.842343 " transform="matrix(0.833333,0,0,1.111667,21.355834,140.180054)"/>
<path style="fill-rule:nonzero;fill:rgb(100%,78.039217%,17.254902%);fill-opacity:1;stroke-width:0.944;stroke-linecap:butt;stroke-linejoin:miter;stroke:rgb(0%,0%,0%);stroke-opacity:1;stroke-miterlimit:4;" d="M 831.496437 161.658685 C 831.496437 163.078287 830.343312 164.230836 828.922999 164.23435 C 827.497999 164.23435 826.344874 163.081801 826.344874 161.658685 C 826.344874 160.235568 827.497999 159.083019 828.918312 159.083019 C 830.343312 159.083019 831.496437 160.235568 831.496437 161.658685 Z M 831.496437 161.658685 " transform="matrix(0.833333,0,0,1.111667,21.355834,140.180054)"/>
<path style="fill:none;stroke-width:1.887;stroke-linecap:butt;stroke-linejoin:miter;stroke:rgb(100%,78.039217%,17.254902%);stroke-opacity:1;stroke-miterlimit:4;" d="M 814.794312 181.830634 L 828.889625 161.126923 L 843.05525 181.8728 " transform="matrix(0.833333,0,0,1.111667,-3.811667,180.271195)"/>
<path style="fill-rule:nonzero;fill:rgb(100%,78.039217%,17.254902%);fill-opacity:1;stroke-width:0.944;stroke-linecap:butt;stroke-linejoin:miter;stroke:rgb(0%,0%,0%);stroke-opacity:1;stroke-miterlimit:4;" d="M 831.720875 174.089582 C 831.744312 175.108604 831.219312 176.060862 830.34275 176.577401 C 829.466187 177.09394 828.378687 177.09394 827.497437 176.577401 C 826.620875 176.060862 826.095875 175.108604 826.119312 174.093096 C 826.1615 172.575105 827.403687 171.366335 828.91775 171.366335 C 830.4365 171.366335 831.678687 172.571591 831.720875 174.089582 Z M 831.720875 174.089582 " transform="matrix(0.833333,0,0,1.111667,-3.811667,180.271195)"/>
<path style="fill-rule:nonzero;fill:rgb(100%,78.039217%,17.254902%);fill-opacity:1;stroke-width:0.944;stroke-linecap:butt;stroke-linejoin:miter;stroke:rgb(0%,0%,0%);stroke-opacity:1;stroke-miterlimit:4;" d="M 817.44275 197.119474 L 839.295875 197.182723 C 839.295875 197.182723 839.638062 194.343518 837.013062 192.621723 C 848.459937 191.04751 845.483375 180.952167 855.069312 180.379406 C 856.93025 180.667543 850.063062 184.673353 850.063062 184.673353 C 850.063062 184.673353 844.283375 188.74944 846.91775 190.822622 C 849.003687 192.470626 849.91775 189.824684 850.203687 187.818265 C 850.494312 185.81536 859.503687 184.529284 858.219312 178.805193 C 856.072437 174.086069 843.481812 181.953619 843.481812 181.953619 L 834.500562 181.904425 C 833.938062 180.895945 831.463062 176.854997 828.908375 176.833913 C 825.875562 176.946357 823.738062 181.953619 823.738062 181.953619 L 803.422437 181.953619 C 803.422437 181.953619 802.728687 187.164686 813.027125 188.169652 C 815.347437 191.198606 817.14275 192.041934 819.163062 192.825527 C 817.81775 193.946451 817.438062 195.302804 817.44275 197.119474 Z M 819.01775 192.684972 L 837.219312 192.621723 M 810.678687 181.953619 C 810.678687 181.953619 812.1365 190.467722 818.858375 192.481168 " transform="matrix(0.833333,0,0,1.111667,-3.811667,180.271195)"/>
<path style="fill-rule:nonzero;fill:url(#linear4);stroke-width:0.944;stroke-linecap:butt;stroke-linejoin:miter;stroke:rgb(0%,0%,0%);stroke-opacity:1;stroke-miterlimit:4;" d="M 809.563062 181.841175 C 810.233375 178.594361 811.466187 178.032142 812.806812 173.889292 C 813.031812 169.855371 809.563062 170.305147 810.570875 167.729481 C 812.3615 164.928928 811.466187 162.237305 808.10525 160.111415 C 808.775562 163.808004 803.7365 167.279706 803.7365 170.305147 C 803.7365 173.330587 806.314625 172.655924 805.977125 177.24855 C 806.202125 179.936659 805.306812 179.26551 805.081812 181.841175 Z M 809.563062 181.841175 " transform="matrix(0.833333,0,0,1.111667,-3.811667,180.271195)"/>
<path style="fill-rule:nonzero;fill:rgb(100%,78.039217%,17.254902%);fill-opacity:1;stroke-width:0.944;stroke-linecap:butt;stroke-linejoin:miter;stroke:rgb(0%,0%,0%);stroke-opacity:1;stroke-miterlimit:4;" d="M 831.495875 161.657517 C 831.495875 163.080634 830.34275 164.233183 828.922437 164.233183 C 827.497437 164.233183 826.344312 163.080634 826.344312 161.657517 C 826.344312 160.237915 827.497437 159.081852 828.91775 159.081852 C 830.34275 159.081852 831.495875 160.234401 831.495875 161.657517 Z M 831.495875 161.657517 " transform="matrix(0.833333,0,0,1.111667,-3.811667,180.271195)"/>
<path style="fill:none;stroke-width:1.887;stroke-linecap:butt;stroke-linejoin:miter;stroke:rgb(100%,78.039217%,17.254902%);stroke-opacity:1;stroke-miterlimit:4;" d="M 814.7945 181.829797 L 828.889813 161.129601 L 843.05075 181.871964 " transform="matrix(0.833333,0,0,1.111667,-3.151667,227.639313)"/>
<path style="fill-rule:nonzero;fill:rgb(100%,78.039217%,17.254902%);fill-opacity:1;stroke-width:0.944;stroke-linecap:butt;stroke-linejoin:miter;stroke:rgb(0%,0%,0%);stroke-opacity:1;stroke-miterlimit:4;" d="M 831.721063 174.088746 C 831.7445 175.107768 831.2195 176.060026 830.342938 176.576565 C 829.466375 177.093103 828.378875 177.096617 827.497625 176.580078 C 826.621063 176.06354 826.096063 175.111282 826.1195 174.09226 C 826.161688 172.574269 827.403875 171.365498 828.917938 171.365498 C 830.436688 171.365498 831.678875 172.574269 831.721063 174.088746 Z M 831.721063 174.088746 " transform="matrix(0.833333,0,0,1.111667,-3.151667,227.639313)"/>
<path style="fill-rule:nonzero;fill:rgb(100%,78.039217%,17.254902%);fill-opacity:1;stroke-width:0.944;stroke-linecap:butt;stroke-linejoin:miter;stroke:rgb(0%,0%,0%);stroke-opacity:1;stroke-miterlimit:4;" d="M 817.442938 197.118637 L 839.296063 197.181887 C 839.296063 197.181887 839.63825 194.346195 837.01325 192.620886 C 848.460125 191.046673 845.483563 180.95133 855.0695 180.37857 C 856.930438 180.666707 850.06325 184.672517 850.06325 184.672517 C 850.06325 184.672517 844.283563 188.748604 846.917938 190.8253 C 849.003875 192.46979 849.917938 189.823847 850.203875 187.820942 C 850.489813 185.818038 859.503875 184.528448 858.2195 178.804357 C 856.072625 174.085232 843.482 181.952783 843.482 181.952783 L 834.50075 181.903589 C 833.93825 180.895108 831.46325 176.85416 828.908563 176.833077 C 825.87575 176.945521 823.73825 181.952783 823.73825 181.952783 L 803.422625 181.952783 C 803.422625 181.952783 802.728875 187.167363 813.027313 188.168815 C 815.347625 191.19777 817.142938 192.044612 819.16325 192.828204 C 817.817938 193.945614 817.43825 195.301968 817.442938 197.118637 Z M 819.017938 192.684136 L 837.214813 192.620886 M 810.678875 181.952783 C 810.678875 181.952783 812.136688 190.466885 818.858563 192.480331 " transform="matrix(0.833333,0,0,1.111667,-3.151667,227.639313)"/>
<path style="fill-rule:nonzero;fill:url(#linear5);stroke-width:0.944;stroke-linecap:butt;stroke-linejoin:miter;stroke:rgb(0%,0%,0%);stroke-opacity:1;stroke-miterlimit:4;" d="M 809.56325 181.840339 C 810.233563 178.593525 811.466375 178.031306 812.807 173.888456 C 813.032 169.854535 809.56325 170.30431 810.571063 167.728645 C 812.361688 164.928092 811.466375 162.239983 808.105438 160.110579 C 808.77575 163.807168 803.736688 167.27887 803.736688 170.30431 C 803.736688 173.329751 806.314813 172.658602 805.977313 177.247713 C 806.202313 179.935822 805.307 179.264674 805.082 181.840339 Z M 809.56325 181.840339 " transform="matrix(0.833333,0,0,1.111667,-3.151667,227.639313)"/>
<path style="fill-rule:nonzero;fill:rgb(100%,78.039217%,17.254902%);fill-opacity:1;stroke-width:0.944;stroke-linecap:butt;stroke-linejoin:miter;stroke:rgb(0%,0%,0%);stroke-opacity:1;stroke-miterlimit:4;" d="M 831.496063 161.656681 C 831.496063 163.079797 830.342938 164.232346 828.922625 164.232346 C 827.497625 164.232346 826.3445 163.079797 826.3445 161.660195 C 826.3445 160.237078 827.497625 159.084529 828.917938 159.084529 C 830.342938 159.081015 831.496063 160.233564 831.496063 161.656681 Z M 831.496063 161.656681 " transform="matrix(0.833333,0,0,1.111667,-3.151667,227.639313)"/>
<path style="fill:none;stroke-width:1.887;stroke-linecap:butt;stroke-linejoin:miter;stroke:rgb(100%,78.039217%,17.254902%);stroke-opacity:1;stroke-miterlimit:4;" d="M 814.793439 181.827766 L 828.888751 161.127569 L 843.054376 181.873446 " transform="matrix(0.833333,0,0,1.111667,121.899999,0.74704)"/>
<path style="fill-rule:nonzero;fill:rgb(100%,78.039217%,17.254902%);fill-opacity:1;stroke-width:0.944;stroke-linecap:butt;stroke-linejoin:miter;stroke:rgb(0%,0%,0%);stroke-opacity:1;stroke-miterlimit:4;" d="M 831.720001 174.090228 C 831.748126 175.10925 831.218439 176.061508 830.341876 176.578047 C 829.465314 177.094585 828.377814 177.094585 827.501251 176.578047 C 826.620001 176.061508 826.095001 175.10925 826.123126 174.093742 C 826.160626 172.575751 827.402814 171.366981 828.916876 171.366981 C 830.435626 171.366981 831.677814 172.572237 831.720001 174.090228 Z M 831.720001 174.090228 " transform="matrix(0.833333,0,0,1.111667,121.899999,0.74704)"/>
<path style="fill-rule:nonzero;fill:rgb(100%,78.039217%,17.254902%);fill-opacity:1;stroke-width:0.944;stroke-linecap:butt;stroke-linejoin:miter;stroke:rgb(0%,0%,0%);stroke-opacity:1;stroke-miterlimit:4;" d="M 817.441876 197.12012 L 839.295001 197.179855 C 839.295001 197.179855 839.637189 194.344164 837.012189 192.622368 C 848.459064 191.048156 845.487189 180.952813 855.073126 180.380052 C 856.929376 180.664675 850.062189 184.670485 850.062189 184.670485 C 850.062189 184.670485 844.282501 188.750086 846.916876 190.823268 C 849.007501 192.471272 849.921564 189.821816 850.207501 187.818911 C 850.493439 185.816006 859.507501 184.52993 858.218439 178.805839 C 856.071564 174.086714 843.480939 181.954265 843.480939 181.954265 L 834.499689 181.905071 C 833.941876 180.896591 831.466876 176.855642 828.907501 176.834559 C 825.874689 176.943489 823.737189 181.954265 823.737189 181.954265 L 803.421564 181.954265 C 803.421564 181.954265 802.727814 187.165331 813.026251 188.166784 C 815.346564 191.195738 817.146564 192.04258 819.162189 192.826173 C 817.816876 193.947097 817.437189 195.30345 817.441876 197.12012 Z M 819.016876 192.685618 L 837.218439 192.622368 M 810.682501 181.954265 C 810.682501 181.954265 812.135626 190.464853 818.857501 192.481814 " transform="matrix(0.833333,0,0,1.111667,121.899999,0.74704)"/>
<path style="fill-rule:nonzero;fill:url(#linear6);stroke-width:0.944;stroke-linecap:butt;stroke-linejoin:miter;stroke:rgb(0%,0%,0%);stroke-opacity:1;stroke-miterlimit:4;" d="M 809.562189 181.841821 C 810.232501 178.591493 811.465314 178.032788 812.810626 173.889938 C 813.030939 169.856017 809.562189 170.302278 810.570001 167.730127 C 812.360626 164.929574 811.465314 162.237951 808.104376 160.112061 C 808.774689 163.80865 803.735626 167.280352 803.735626 170.302278 C 803.735626 173.327719 806.313751 172.65657 805.976251 177.249196 C 806.201251 179.937305 805.305939 179.266156 805.080939 181.841821 Z M 809.562189 181.841821 " transform="matrix(0.833333,0,0,1.111667,121.899999,0.74704)"/>
<path style="fill-rule:nonzero;fill:rgb(100%,78.039217%,17.254902%);fill-opacity:1;stroke-width:0.944;stroke-linecap:butt;stroke-linejoin:miter;stroke:rgb(0%,0%,0%);stroke-opacity:1;stroke-miterlimit:4;" d="M 831.495001 161.658163 C 831.495001 163.077766 830.341876 164.233828 828.921564 164.233828 C 827.496564 164.233828 826.343439 163.08128 826.343439 161.658163 C 826.343439 160.23856 827.496564 159.082498 828.916876 159.082498 C 830.341876 159.082498 831.495001 160.235046 831.495001 161.658163 Z M 831.495001 161.658163 " transform="matrix(0.833333,0,0,1.111667,121.899999,0.74704)"/>
<path style="fill:none;stroke-width:1.887;stroke-linecap:butt;stroke-linejoin:miter;stroke:rgb(100%,78.039217%,17.254902%);stroke-opacity:1;stroke-miterlimit:4;" d="M 814.79212 181.828291 L 828.887433 161.128094 L 843.053058 181.870457 " transform="matrix(0.833333,0,0,1.111667,120.780004,45.820675)"/>
<path style="fill-rule:nonzero;fill:rgb(100%,78.039217%,17.254902%);fill-opacity:1;stroke-width:0.944;stroke-linecap:butt;stroke-linejoin:miter;stroke:rgb(0%,0%,0%);stroke-opacity:1;stroke-miterlimit:4;" d="M 831.718683 174.090753 C 831.746808 175.106261 831.21712 176.062033 830.340558 176.578572 C 829.463995 177.095111 828.376495 177.095111 827.499933 176.578572 C 826.62337 176.062033 826.093683 175.109775 826.121808 174.090753 C 826.159308 172.576276 827.401495 171.367506 828.920245 171.367506 C 830.434308 171.363992 831.676495 172.572762 831.718683 174.090753 Z M 831.718683 174.090753 " transform="matrix(0.833333,0,0,1.111667,120.780004,45.820675)"/>
<path style="fill-rule:nonzero;fill:rgb(100%,78.039217%,17.254902%);fill-opacity:1;stroke-width:0.944;stroke-linecap:butt;stroke-linejoin:miter;stroke:rgb(0%,0%,0%);stroke-opacity:1;stroke-miterlimit:4;" d="M 817.445245 197.120645 L 839.293683 197.18038 C 839.293683 197.18038 839.63587 194.344689 837.01087 192.61938 C 848.457745 191.048681 845.48587 180.953338 855.071808 180.380577 C 856.932745 180.665201 850.06087 184.67101 850.06087 184.67101 C 850.06087 184.67101 844.28587 188.750611 846.915558 190.823793 C 849.006183 192.468283 849.920245 189.822341 850.206183 187.819436 C 850.49212 185.816531 859.506183 184.530455 858.21712 178.806364 C 856.070245 174.08724 843.484308 181.95479 843.484308 181.95479 L 834.49837 181.905596 C 833.940558 180.897116 831.465558 176.852654 828.906183 176.835084 C 825.87337 176.944014 823.73587 181.95479 823.73587 181.95479 L 803.424933 181.95479 C 803.424933 181.95479 802.726495 187.165856 813.02962 188.167309 C 815.345245 191.196263 817.145245 192.043105 819.16087 192.826698 C 817.815558 193.947622 817.43587 195.300461 817.445245 197.120645 Z M 819.015558 192.682629 L 837.21712 192.622894 M 810.681183 181.951276 C 810.681183 181.951276 812.138995 190.465379 818.856183 192.482339 " transform="matrix(0.833333,0,0,1.111667,120.780004,45.820675)"/>
<path style="fill-rule:nonzero;fill:url(#linear7);stroke-width:0.944;stroke-linecap:butt;stroke-linejoin:miter;stroke:rgb(0%,0%,0%);stroke-opacity:1;stroke-miterlimit:4;" d="M 809.56087 181.842346 C 810.231183 178.592018 811.463995 178.033313 812.809308 173.890463 C 813.034308 169.856542 809.56087 170.302804 810.568683 167.730652 C 812.359308 164.930099 811.463995 162.238476 808.103058 160.112586 C 808.778058 163.809175 803.738995 167.280877 803.738995 170.302804 C 803.738995 173.328244 806.312433 172.657095 805.974933 177.249721 C 806.199933 179.93783 805.30462 179.266681 805.07962 181.842346 Z M 809.56087 181.842346 " transform="matrix(0.833333,0,0,1.111667,120.780004,45.820675)"/>
<path style="fill-rule:nonzero;fill:rgb(100%,78.039217%,17.254902%);fill-opacity:1;stroke-width:0.944;stroke-linecap:butt;stroke-linejoin:miter;stroke:rgb(0%,0%,0%);stroke-opacity:1;stroke-miterlimit:4;" d="M 831.493683 161.658688 C 831.493683 163.078291 830.345245 164.23084 828.920245 164.234353 C 827.499933 164.234353 826.346808 163.081805 826.346808 161.658688 C 826.34212 160.235572 827.495245 159.083023 828.920245 159.083023 C 830.340558 159.083023 831.493683 160.235572 831.493683 161.658688 Z M 831.493683 161.658688 " transform="matrix(0.833333,0,0,1.111667,120.780004,45.820675)"/>
<path style="fill:none;stroke-width:1.887;stroke-linecap:butt;stroke-linejoin:miter;stroke:rgb(100%,78.039217%,17.254902%);stroke-opacity:1;stroke-miterlimit:4;" d="M 814.793503 181.827846 L 828.888815 161.127649 L 843.05444 181.873526 " transform="matrix(0.833333,0,0,1.111667,119.286664,91.891482)"/>
<path style="fill-rule:nonzero;fill:rgb(100%,78.039217%,17.254902%);fill-opacity:1;stroke-width:0.944;stroke-linecap:butt;stroke-linejoin:miter;stroke:rgb(0%,0%,0%);stroke-opacity:1;stroke-miterlimit:4;" d="M 831.720065 174.090309 C 831.74819 175.10933 831.218503 176.061589 830.34194 176.578127 C 829.465378 177.094666 828.377878 177.094666 827.501315 176.578127 C 826.620065 176.061589 826.095065 175.10933 826.12319 174.090309 C 826.16069 172.575832 827.402878 171.367061 828.91694 171.367061 C 830.43569 171.363547 831.677878 172.572318 831.720065 174.090309 Z M 831.720065 174.090309 " transform="matrix(0.833333,0,0,1.111667,119.286664,91.891482)"/>
<path style="fill-rule:nonzero;fill:rgb(100%,78.039217%,17.254902%);fill-opacity:1;stroke-width:0.944;stroke-linecap:butt;stroke-linejoin:miter;stroke:rgb(0%,0%,0%);stroke-opacity:1;stroke-miterlimit:4;" d="M 817.44194 197.1202 L 839.295065 197.179936 C 839.295065 197.179936 839.637253 194.344244 837.012253 192.622449 C 848.459128 191.048236 845.487253 180.952893 855.07319 180.380133 C 856.92944 180.664756 850.062253 184.670565 850.062253 184.670565 C 850.062253 184.670565 844.282565 188.750166 846.91694 190.823348 C 849.007565 192.471353 849.921628 189.821896 850.207565 187.818991 C 850.493503 185.816086 859.507565 184.530011 858.218503 178.80592 C 856.071628 174.086795 843.481003 181.954345 843.481003 181.954345 L 834.499753 181.905151 C 833.94194 180.896671 831.46694 176.855723 828.907565 176.83464 C 825.874753 176.94357 823.737253 181.954345 823.737253 181.954345 L 803.421628 181.954345 C 803.421628 181.954345 802.727878 187.165412 813.026315 188.166864 C 815.346628 191.195818 817.146628 192.042661 819.162253 192.826253 C 817.81694 193.947177 817.437253 195.30353 817.44194 197.1202 Z M 819.01694 192.685699 L 837.218503 192.622449 M 810.682565 181.954345 C 810.682565 181.954345 812.13569 190.464934 818.857565 192.481894 " transform="matrix(0.833333,0,0,1.111667,119.286664,91.891482)"/>
<path style="fill-rule:nonzero;fill:url(#linear8);stroke-width:0.944;stroke-linecap:butt;stroke-linejoin:miter;stroke:rgb(0%,0%,0%);stroke-opacity:1;stroke-miterlimit:4;" d="M 809.562253 181.841902 C 810.232565 178.591574 811.465378 178.032869 812.81069 173.890018 C 813.031003 169.856098 809.562253 170.302359 810.570065 167.730208 C 812.36069 164.929655 811.465378 162.238032 808.10444 160.112142 C 808.774753 163.808731 803.73569 167.280432 803.73569 170.302359 C 803.73569 173.327799 806.313815 172.656651 805.976315 177.249276 C 806.201315 179.937385 805.306003 179.266236 805.081003 181.841902 Z M 809.562253 181.841902 " transform="matrix(0.833333,0,0,1.111667,119.286664,91.891482)"/>
<path style="fill-rule:nonzero;fill:rgb(100%,78.039217%,17.254902%);fill-opacity:1;stroke-width:0.944;stroke-linecap:butt;stroke-linejoin:miter;stroke:rgb(0%,0%,0%);stroke-opacity:1;stroke-miterlimit:4;" d="M 831.495065 161.658244 C 831.495065 163.077846 830.34194 164.233909 828.921628 164.233909 C 827.496628 164.233909 826.343503 163.08136 826.343503 161.658244 C 826.343503 160.235127 827.496628 159.082578 828.91694 159.082578 C 830.34194 159.082578 831.495065 160.235127 831.495065 161.658244 Z M 831.495065 161.658244 " transform="matrix(0.833333,0,0,1.111667,119.286664,91.891482)"/>
<path style="fill:none;stroke-width:1.887;stroke-linecap:butt;stroke-linejoin:miter;stroke:rgb(100%,78.039217%,17.254902%);stroke-opacity:1;stroke-miterlimit:4;" d="M 814.793121 181.829261 L 828.888434 161.129064 L 843.054059 181.871427 " transform="matrix(0.833333,0,0,1.111667,120.96667,137.214128)"/>
<path style="fill-rule:nonzero;fill:rgb(100%,78.039217%,17.254902%);fill-opacity:1;stroke-width:0.944;stroke-linecap:butt;stroke-linejoin:miter;stroke:rgb(0%,0%,0%);stroke-opacity:1;stroke-miterlimit:4;" d="M 831.719684 174.091723 C 831.747809 175.107231 831.218121 176.059489 830.341559 176.576028 C 829.464996 177.09608 828.377496 177.09608 827.500934 176.579542 C 826.619684 176.063003 826.094684 175.110745 826.122809 174.091723 C 826.160309 172.573732 827.402496 171.364962 828.921246 171.364962 C 830.435309 171.364962 831.677496 172.573732 831.719684 174.091723 Z M 831.719684 174.091723 " transform="matrix(0.833333,0,0,1.111667,120.96667,137.214128)"/>
<path style="fill-rule:nonzero;fill:rgb(100%,78.039217%,17.254902%);fill-opacity:1;stroke-width:0.944;stroke-linecap:butt;stroke-linejoin:miter;stroke:rgb(0%,0%,0%);stroke-opacity:1;stroke-miterlimit:4;" d="M 817.446246 197.118101 L 839.294684 197.18135 C 839.294684 197.18135 839.636871 194.345659 837.011871 192.62035 C 848.458746 191.049651 845.486871 180.950794 855.072809 180.381547 C 856.929059 180.66617 850.061871 184.67198 850.061871 184.67198 C 850.061871 184.67198 844.282184 188.751581 846.916559 190.824763 C 849.007184 192.469253 849.921246 189.823311 850.207184 187.820406 C 850.493121 185.817501 859.507184 184.531425 858.218121 178.807334 C 856.071246 174.084696 843.480621 181.952246 843.480621 181.952246 L 834.499371 181.903052 C 833.941559 180.894572 831.466559 176.853624 828.907184 176.83254 C 825.874371 176.944984 823.736871 181.952246 823.736871 181.952246 L 803.421246 181.952246 C 803.421246 181.952246 802.727496 187.166826 813.025934 188.168279 C 815.346246 191.197233 817.146246 192.044075 819.161871 192.827668 C 817.816559 193.948592 817.436871 195.301431 817.446246 197.118101 Z M 819.016559 192.683599 L 837.218121 192.62035 M 810.682184 181.952246 C 810.682184 181.952246 812.135309 190.466348 818.857184 192.483309 " transform="matrix(0.833333,0,0,1.111667,120.96667,137.214128)"/>
<path style="fill-rule:nonzero;fill:url(#linear9);stroke-width:0.944;stroke-linecap:butt;stroke-linejoin:miter;stroke:rgb(0%,0%,0%);stroke-opacity:1;stroke-miterlimit:4;" d="M 809.561871 181.839802 C 810.232184 178.592988 811.464996 178.034283 812.810309 173.887919 C 813.035309 169.857512 809.561871 170.303773 810.569684 167.728108 C 812.360309 164.927555 811.464996 162.239446 808.104059 160.113556 C 808.779059 163.806631 803.735309 167.278333 803.735309 170.303773 C 803.735309 173.329214 806.313434 172.658065 805.975934 177.250691 C 806.200934 179.935286 805.305621 179.264137 805.080621 181.839802 Z M 809.561871 181.839802 " transform="matrix(0.833333,0,0,1.111667,120.96667,137.214128)"/>
<path style="fill-rule:nonzero;fill:rgb(100%,78.039217%,17.254902%);fill-opacity:1;stroke-width:0.944;stroke-linecap:butt;stroke-linejoin:miter;stroke:rgb(0%,0%,0%);stroke-opacity:1;stroke-miterlimit:4;" d="M 831.494684 161.656144 C 831.494684 163.079261 830.341559 164.231809 828.921246 164.231809 C 827.500934 164.231809 826.347809 163.082775 826.343121 161.659658 C 826.343121 160.236541 827.496246 159.083993 828.921246 159.083993 C 830.341559 159.083993 831.494684 160.236541 831.494684 161.656144 Z M 831.494684 161.656144 " transform="matrix(0.833333,0,0,1.111667,120.96667,137.214128)"/>
<path style="fill:none;stroke-width:1.887;stroke-linecap:butt;stroke-linejoin:miter;stroke:rgb(100%,78.039217%,17.254902%);stroke-opacity:1;stroke-miterlimit:4;" d="M 814.795807 181.830668 L 828.891119 161.126957 L 843.052057 181.872834 " transform="matrix(0.833333,0,0,1.111667,120.593338,182.536783)"/>
<path style="fill-rule:nonzero;fill:rgb(100%,78.039217%,17.254902%);fill-opacity:1;stroke-width:0.944;stroke-linecap:butt;stroke-linejoin:miter;stroke:rgb(0%,0%,0%);stroke-opacity:1;stroke-miterlimit:4;" d="M 831.717682 174.089616 C 831.745807 175.108638 831.220807 176.060896 830.344244 176.577435 C 829.467682 177.093973 828.375494 177.093973 827.498932 176.577435 C 826.622369 176.060896 826.092682 175.108638 826.120807 174.09313 C 826.162994 172.575139 827.400494 171.366369 828.919244 171.366369 C 830.437994 171.366369 831.680182 172.571625 831.717682 174.089616 Z M 831.717682 174.089616 " transform="matrix(0.833333,0,0,1.111667,120.593338,182.536783)"/>
<path style="fill-rule:nonzero;fill:rgb(100%,78.039217%,17.254902%);fill-opacity:1;stroke-width:0.944;stroke-linecap:butt;stroke-linejoin:miter;stroke:rgb(0%,0%,0%);stroke-opacity:1;stroke-miterlimit:4;" d="M 817.444244 197.119508 L 839.297369 197.179243 C 839.297369 197.179243 839.639557 194.343552 837.014557 192.621756 C 848.456744 191.047544 845.484869 180.952201 855.070807 180.37944 C 856.931744 180.667577 850.064557 184.673387 850.064557 184.673387 C 850.064557 184.673387 844.284869 188.749474 846.914557 190.822656 C 849.005182 192.47066 849.919244 189.824717 850.205182 187.818299 C 850.491119 185.815394 859.505182 184.529318 858.216119 178.805227 C 856.073932 174.086102 843.483307 181.953653 843.483307 181.953653 L 834.502057 181.904459 C 833.939557 180.895979 831.464557 176.85503 828.909869 176.833947 C 825.877057 176.946391 823.739557 181.953653 823.739557 181.953653 L 803.423932 181.953653 C 803.423932 181.953653 802.725494 187.164719 813.028619 188.169686 C 815.348932 191.19864 817.144244 192.041968 819.159869 192.825561 C 817.819244 193.946485 817.439557 195.302838 817.444244 197.119508 Z M 819.019244 192.685006 L 837.216119 192.621756 M 810.680182 181.953653 C 810.680182 181.953653 812.137994 190.467755 818.855182 192.481202 " transform="matrix(0.833333,0,0,1.111667,120.593338,182.536783)"/>
<path style="fill-rule:nonzero;fill:url(#linear10);stroke-width:0.944;stroke-linecap:butt;stroke-linejoin:miter;stroke:rgb(0%,0%,0%);stroke-opacity:1;stroke-miterlimit:4;" d="M 809.559869 181.841209 C 810.234869 178.594395 811.462994 178.032176 812.808307 173.889326 C 813.033307 169.855405 809.559869 170.30518 810.567682 167.729515 C 812.362994 164.928962 811.462994 162.237339 808.106744 160.111449 C 808.777057 163.808038 803.737994 167.27974 803.737994 170.30518 C 803.737994 173.330621 806.311432 172.655958 805.978619 177.248584 C 806.198932 179.936693 805.303619 179.265544 805.083307 181.841209 Z M 809.559869 181.841209 " transform="matrix(0.833333,0,0,1.111667,120.593338,182.536783)"/>
<path style="fill-rule:nonzero;fill:rgb(100%,78.039217%,17.254902%);fill-opacity:1;stroke-width:0.944;stroke-linecap:butt;stroke-linejoin:miter;stroke:rgb(0%,0%,0%);stroke-opacity:1;stroke-miterlimit:4;" d="M 831.492682 161.657551 C 831.497369 163.080668 830.344244 164.233216 828.919244 164.233216 C 827.498932 164.233216 826.345807 163.080668 826.345807 161.657551 C 826.345807 160.237948 827.498932 159.081886 828.919244 159.081886 C 830.339557 159.081886 831.492682 160.234435 831.492682 161.657551 Z M 831.492682 161.657551 " transform="matrix(0.833333,0,0,1.111667,120.593338,182.536783)"/>
<path style="fill:none;stroke-width:1.887;stroke-linecap:butt;stroke-linejoin:miter;stroke:rgb(100%,78.039217%,17.254902%);stroke-opacity:1;stroke-miterlimit:4;" d="M 814.79212 181.829449 L 828.887433 161.129252 L 843.053058 181.871616 " transform="matrix(0.833333,0,0,1.111667,120.780004,228.10845)"/>
<path style="fill-rule:nonzero;fill:rgb(100%,78.039217%,17.254902%);fill-opacity:1;stroke-width:0.944;stroke-linecap:butt;stroke-linejoin:miter;stroke:rgb(0%,0%,0%);stroke-opacity:1;stroke-miterlimit:4;" d="M 831.718683 174.088398 C 831.746808 175.10742 831.21712 176.059678 830.340558 176.576216 C 829.463995 177.096269 828.376495 177.096269 827.499933 176.57973 C 826.62337 176.063192 826.093683 175.110933 826.121808 174.091912 C 826.159308 172.573921 827.401495 171.36515 828.920245 171.36515 C 830.434308 171.36515 831.676495 172.573921 831.718683 174.088398 Z M 831.718683 174.088398 " transform="matrix(0.833333,0,0,1.111667,120.780004,228.10845)"/>
<path style="fill-rule:nonzero;fill:rgb(100%,78.039217%,17.254902%);fill-opacity:1;stroke-width:0.944;stroke-linecap:butt;stroke-linejoin:miter;stroke:rgb(0%,0%,0%);stroke-opacity:1;stroke-miterlimit:4;" d="M 817.445245 197.118289 L 839.293683 197.181539 C 839.293683 197.181539 839.63587 194.345847 837.01087 192.620538 C 848.457745 191.046325 845.48587 180.950982 855.071808 180.381736 C 856.932745 180.666359 850.06087 184.672168 850.06087 184.672168 C 850.06087 184.672168 844.28587 188.748255 846.915558 190.824951 C 849.006183 192.469442 849.920245 189.823499 850.206183 187.820594 C 850.49212 185.817689 859.506183 184.531614 858.21712 178.807523 C 856.070245 174.084884 843.484308 181.952435 843.484308 181.952435 L 834.49837 181.90324 C 833.940558 180.89476 831.465558 176.853812 828.906183 176.832729 C 825.87337 176.945173 823.73587 181.952435 823.73587 181.952435 L 803.424933 181.952435 C 803.424933 181.952435 802.726495 187.167015 813.02962 188.168467 C 815.345245 191.197421 817.145245 192.044264 819.16087 192.827856 C 817.815558 193.945266 817.43587 195.301619 817.445245 197.118289 Z M 819.015558 192.683788 L 837.21712 192.620538 M 810.681183 181.952435 C 810.681183 181.952435 812.138995 190.466537 818.856183 192.483497 " transform="matrix(0.833333,0,0,1.111667,120.780004,228.10845)"/>
<path style="fill-rule:nonzero;fill:url(#linear11);stroke-width:0.944;stroke-linecap:butt;stroke-linejoin:miter;stroke:rgb(0%,0%,0%);stroke-opacity:1;stroke-miterlimit:4;" d="M 809.56087 181.839991 C 810.231183 178.593177 811.463995 178.034472 812.809308 173.888107 C 813.034308 169.857701 809.56087 170.303962 810.568683 167.728297 C 812.359308 164.927744 811.463995 162.239635 808.103058 160.113745 C 808.778058 163.80682 803.738995 167.278522 803.738995 170.303962 C 803.738995 173.329402 806.312433 172.658254 805.974933 177.247365 C 806.199933 179.935474 805.30462 179.264326 805.07962 181.839991 Z M 809.56087 181.839991 " transform="matrix(0.833333,0,0,1.111667,120.780004,228.10845)"/>
<path style="fill-rule:nonzero;fill:rgb(100%,78.039217%,17.254902%);fill-opacity:1;stroke-width:0.944;stroke-linecap:butt;stroke-linejoin:miter;stroke:rgb(0%,0%,0%);stroke-opacity:1;stroke-miterlimit:4;" d="M 831.493683 161.656333 C 831.493683 163.079449 830.345245 164.231998 828.920245 164.231998 C 827.499933 164.231998 826.346808 163.079449 826.346808 161.659846 C 826.34212 160.23673 827.495245 159.084181 828.920245 159.084181 C 830.340558 159.084181 831.493683 160.233216 831.493683 161.656333 Z M 831.493683 161.656333 " transform="matrix(0.833333,0,0,1.111667,120.780004,228.10845)"/>
<path style="fill-rule:nonzero;fill:rgb(100%,78.039217%,17.254902%);fill-opacity:1;stroke-width:0.944;stroke-linecap:butt;stroke-linejoin:miter;stroke:rgb(0%,0%,0%);stroke-opacity:1;stroke-miterlimit:4;" d="M 915.84375 406.315592 C 915.84375 406.315592 921.54375 419.460973 928.040625 411.38259 C 934.532812 403.304207 932.15625 399.821964 932.15625 399.821964 L 917.582812 391.901705 L 913.307812 400.928832 Z M 915.84375 406.315592 " transform="matrix(0.833333,0,0,1.111667,0,0)"/>
<path style="fill-rule:nonzero;fill:rgb(100%,77.64706%,70.980394%);fill-opacity:1;stroke-width:0.944;stroke-linecap:butt;stroke-linejoin:miter;stroke:rgb(0%,0%,0%);stroke-opacity:1;stroke-miterlimit:4;" d="M 928.354687 404.572714 C 928.354687 404.572714 929.30625 404.730838 930.098437 403.304207 C 930.890625 401.877577 928.354687 401.245081 927.248437 399.660326 L 925.982812 402.197339 Z M 895.410937 401.086957 L 882.58125 408.058471 C 882.58125 408.058471 876.24375 409.323463 875.765625 408.058471 C 875.292187 406.789964 875.925 405.679582 879.253125 405.521458 C 882.58125 405.363334 891.604687 397.126827 891.604687 397.126827 Z M 895.570312 173.149363 C 895.570312 173.149363 895.884375 176.160748 896.04375 177.741988 C 896.203125 179.326743 893.507812 182.654376 893.348437 182.496252 C 893.189062 182.338128 891.923437 182.654376 892.082812 183.60312 C 892.242188 184.551865 894.145312 184.871627 894.145312 184.871627 C 894.145312 184.871627 893.348437 188.195746 894.145312 188.35387 C 894.932812 188.515508 892.082812 192.630247 894.145312 193.74063 C 896.203125 194.851012 899.685938 196.274129 901.270312 195.95788 C 902.854687 195.641632 901.270312 202.13526 901.270312 202.13526 L 896.835938 211.640274 L 921.229687 209.106775 L 916.157812 201.028392 C 916.157812 201.028392 913.785937 199.443638 914.41875 194.851012 C 915.051562 190.254873 914.1 169.505482 914.1 169.505482 L 896.676562 167.130107 Z M 891.13125 209.264899 C 891.13125 209.264899 883.214062 212.905266 883.528125 222.726527 C 881.470312 232.23154 880.359375 241.736554 880.359375 241.736554 C 880.359375 241.736554 871.017187 252.348435 868.1625 256.15044 C 865.3125 259.952446 861.0375 267.71458 859.453125 269.773707 C 857.86875 271.832834 851.690625 278.64271 851.85 281.179723 C 852.004687 283.713222 850.425 294.957599 856.603125 296.226106 C 858.182812 296.858602 863.254687 283.235335 863.254687 283.235335 C 863.254687 283.235335 863.56875 277.377717 861.829687 276.267335 C 860.085938 275.160467 865.63125 271.358461 865.63125 271.358461 C 865.63125 271.358461 876.24375 263.596327 878.620312 261.695324 C 880.992188 259.794322 887.489062 252.506559 887.489062 252.506559 Z M 891.13125 209.264899 " transform="matrix(0.833333,0,0,1.111667,0,0)"/>
<path style="fill-rule:nonzero;fill:rgb(100%,100%,100%);fill-opacity:1;stroke-width:0.944;stroke-linecap:butt;stroke-linejoin:miter;stroke:rgb(0%,0%,0%);stroke-opacity:1;stroke-miterlimit:4;" d="M 900.159375 201.819012 C 900.159375 201.819012 902.221875 207.363896 906.815625 206.415152 C 911.409375 205.462894 916.795313 201.186516 916.795313 201.186516 C 916.795313 201.186516 921.070312 201.028392 921.703125 201.660888 C 922.335938 202.293385 933.267187 212.90878 932.948437 216.232899 C 932.634375 219.560532 927.88125 218.608274 926.1375 220.829039 C 924.39375 223.046289 921.54375 228.591173 922.335938 232.709427 C 923.128125 236.82768 925.504687 242.210926 925.185937 244.270052 C 924.871875 246.332693 923.128125 246.965189 923.128125 248.072058 C 923.128125 249.18244 924.553125 251.083443 924.553125 253.142569 C 924.553125 255.201696 922.654687 258.209567 922.96875 260.268694 C 923.2875 262.331334 923.446875 268.347076 923.446875 268.347076 L 922.96875 296.226106 C 922.96875 296.226106 924.553125 297.178364 924.7125 298.759605 C 924.871875 300.344359 935.484375 346.43928 935.484375 346.43928 C 935.484375 346.43928 935.010937 347.865911 933.9 347.707787 C 932.79375 347.549663 938.175 354.833911 938.334375 356.893038 C 938.49375 358.955678 943.879687 375.10893 943.720312 377.329695 C 943.560937 379.543431 942.76875 384.455819 942.295312 384.613943 C 941.821875 384.772067 945.778125 394.751452 945.145312 396.336207 C 944.5125 397.920961 938.020312 397.759323 938.020312 397.759323 L 936.276562 397.446589 C 936.276562 397.446589 936.435937 399.505716 935.170312 399.660326 C 933.9 399.81845 924.553125 399.185954 924.553125 399.185954 C 924.553125 399.185954 921.8625 403.304207 920.278125 403.146083 C 918.69375 402.987959 916.635937 400.138212 916.157812 400.612584 C 915.684375 401.086957 917.582812 403.778579 917.109375 404.572714 C 916.635937 405.363334 908.554688 407.106213 906.970312 403.304207 C 905.385937 399.505716 907.921875 400.45446 907.448437 399.660326 C 906.970312 398.869706 903.328125 396.810579 902.221875 397.446589 C 901.110937 398.079085 905.071875 399.02783 904.9125 400.612584 C 904.753125 402.197339 901.429688 404.572714 900.159375 404.572714 C 898.89375 404.572714 895.884375 398.711582 891.45 399.344078 C 887.015625 399.980088 884.160937 401.086957 884.160937 401.086957 C 884.160937 401.086957 878.934375 403.304207 876.717188 402.829835 C 874.5 402.355463 873.548437 400.612584 873.548437 399.660326 C 873.548437 398.711582 875.132812 394.593328 874.973437 393.324822 C 874.814062 392.059829 873.548437 390.791323 873.548437 388.89032 C 873.548437 386.989318 877.195312 380.49569 877.195312 380.49569 L 877.035937 351.351668 C 877.035937 351.351668 873.707812 351.351668 873.548437 349.289027 C 873.39375 347.229901 878.620312 303.19762 879.407812 300.344359 C 880.204687 297.494612 882.2625 287.357103 882.2625 287.357103 C 882.2625 287.357103 879.885937 288.463971 879.726562 287.357103 C 879.567187 286.24672 886.85625 261.062828 886.85625 261.062828 C 886.85625 261.062828 888.121875 248.54643 888.121875 245.222311 C 888.121875 241.894678 887.489062 237.302052 887.489062 237.302052 C 887.489062 237.302052 880.9875 234.550693 880.8375 230.330538 C 880.242188 223.622564 887.015625 219.87678 887.807812 217.65953 L 890.971875 208.790527 C 890.971875 208.790527 894.459375 202.771271 900.159375 201.819012 Z M 900.159375 201.819012 " transform="matrix(0.833333,0,0,1.111667,0,0)"/>
<path style="fill-rule:nonzero;fill:rgb(100%,78.039217%,17.254902%);fill-opacity:1;stroke-width:0.944;stroke-linecap:butt;stroke-linejoin:miter;stroke:rgb(0%,0%,0%);stroke-opacity:1;stroke-miterlimit:4;" d="M 897.782812 402.987959 C 897.782812 402.987959 882.421875 411.066342 880.204687 411.698838 C 877.982813 412.334848 876.557812 409.007215 878.775 408.374719 C 880.996875 407.738709 884.479687 407.422461 884.479687 407.422461 C 884.479687 407.422461 879.253125 403.304207 879.4125 403.146083 C 879.567187 402.987959 886.5375 400.45446 886.696875 400.45446 C 886.85625 400.45446 888.914062 404.572714 890.339062 404.256466 C 891.764063 403.936704 895.884375 400.770708 895.884375 400.770708 C 895.884375 400.770708 898.101562 403.304207 897.782812 402.987959 Z M 897.782812 402.987959 " transform="matrix(0.833333,0,0,1.111667,0,0)"/>
<path style="fill-rule:nonzero;fill:rgb(100%,77.64706%,70.980394%);fill-opacity:1;stroke-width:0.944;stroke-linecap:butt;stroke-linejoin:miter;stroke:rgb(0%,0%,0%);stroke-opacity:1;stroke-miterlimit:4;" d="M 919.429688 407.422461 C 920.882812 409.295352 921.45 412.54568 924.778125 410.644678 C 928.10625 408.743675 923.076562 405.215751 923.076562 405.215751 Z M 919.429688 407.422461 " transform="matrix(0.833333,0,0,1.111667,0,0)"/>
<path style="fill-rule:nonzero;fill:rgb(100%,77.64706%,70.980394%);fill-opacity:1;stroke-width:0.944;stroke-linecap:butt;stroke-linejoin:miter;stroke:rgb(0%,0%,0%);stroke-opacity:1;stroke-miterlimit:4;" d="M 925.504687 407.106213 C 925.504687 407.106213 927.089062 408.374719 928.514062 406.948088 C 929.939062 405.521458 925.664062 402.513587 925.664062 402.513587 L 923.60625 404.888962 Z M 932.315625 216.96027 C 932.475 216.96027 937.542187 232.642663 938.175 236.602792 C 938.8125 240.562922 940.870312 256.403439 940.078125 258.62069 C 939.285937 260.83794 931.209375 271.449822 930.257812 274.141445 C 929.30625 276.836582 923.60625 287.132215 923.60625 287.132215 C 923.60625 287.132215 922.18125 297.269725 921.54375 297.744097 C 920.910937 298.218469 923.179688 300.706287 922.96875 301.546102 C 922.654687 302.487819 918.379687 306.932862 916.476562 306.454976 C 914.578125 305.980603 911.56875 303.763353 911.409375 301.704226 C 911.25 299.645099 911.564062 292.835223 912.99375 291.092344 C 914.41875 289.349466 921.8625 271.76607 922.335938 270.659202 C 922.814062 269.548819 929.146875 255.767429 929.30625 253.392054 C 929.465625 251.016679 927.3375 245.52099 925.096875 243.507543 C 920.109375 228.83363 922.06875 219.98571 932.315625 216.96027 Z M 932.315625 216.96027 " transform="matrix(0.833333,0,0,1.111667,0,0)"/>
<path style="fill-rule:nonzero;fill:rgb(61.176473%,31.764707%,0%);fill-opacity:1;stroke-width:0.944;stroke-linecap:butt;stroke-linejoin:miter;stroke:rgb(0%,0%,0%);stroke-opacity:1;stroke-miterlimit:4;" d="M 895.092188 172.200618 C 895.092188 172.200618 898.575 172.674991 900.478125 171.564608 C 902.376562 170.45774 904.59375 169.979854 906.178125 172.200618 C 907.7625 174.417869 908.873438 174.259745 908.873438 174.259745 C 908.873438 174.259745 906.496875 180.117363 908.873438 180.753373 C 911.25 181.38587 912.35625 181.38587 912.515625 182.17649 C 912.675 182.970624 910.457812 184.713503 911.090625 185.504123 C 911.723437 186.298257 912.834375 187.247001 912.989062 187.879498 C 913.148438 188.515508 911.564062 191.207131 912.042187 191.839627 C 912.515625 192.475637 913.940625 195.009136 914.892187 195.009136 C 915.84375 195.009136 915.210938 198.969265 918.060938 198.020521 C 920.910937 197.068263 920.751562 194.53125 920.751562 194.53125 C 920.751562 194.53125 923.760937 194.056878 924.553125 191.365255 C 925.345312 188.673632 927.248437 188.037622 927.248437 188.037622 C 927.248437 188.037622 931.05 185.978495 925.978125 182.8125 C 925.978125 160.636479 911.404688 163.011853 911.404688 163.011853 C 911.404688 163.011853 909.665625 159.051724 906.815625 159.526096 C 903.960938 160.000469 903.80625 163.328102 901.74375 163.011853 C 899.685938 162.695605 899.2125 161.268975 899.053125 161.427099 C 898.89375 161.585223 897.15 164.754732 897.15 165.545352 C 897.15 166.339487 891.604687 164.438484 892.082812 168.556737 C 892.55625 172.674991 895.251562 172.516867 895.092188 172.200618 Z M 895.092188 172.200618 " transform="matrix(0.833333,0,0,1.111667,0,0)"/>
<path style="fill:none;stroke-width:0.944;stroke-linecap:butt;stroke-linejoin:miter;stroke:rgb(0%,0%,0%);stroke-opacity:1;stroke-miterlimit:4;" d="M 920.751562 207.996392 C 920.751562 207.996392 906.65625 217.027033 906.975 220.193028 M 923.920312 209.581147 C 923.920312 209.581147 920.751562 213.066904 920.596875 213.066904 M 928.2 213.383152 C 928.2 213.383152 921.229687 219.08616 922.335938 222.730041 M 895.251562 207.205772 C 895.251562 207.205772 893.189062 211.48215 893.667187 212.905266 C 894.140625 214.331897 897.628125 219.718656 898.101562 223.046289 C 898.575 226.370409 898.101562 228.749297 898.101562 228.749297 M 891.609375 215.126031 C 891.609375 215.126031 892.242188 220.193028 893.19375 221.145287 C 894.140625 222.094031 896.676562 226.370409 896.995312 228.113287 M 890.339062 236.19167 C 890.339062 236.19167 894.459375 238.250796 898.260937 230.330538 M 904.439062 224.789168 C 904.279688 224.789168 901.429688 232.551302 906.496875 235.401049 C 911.564062 238.250796 915.370312 237.934548 917.582812 237.143928 C 919.804688 236.349794 922.18125 234.926677 922.18125 234.926677 M 902.221875 234.290667 C 902.221875 234.290667 902.535937 244.747939 917.901562 255.043572 M 902.854687 244.111928 C 902.854687 244.111928 902.695312 253.300693 908.714062 257.418947 M 899.685938 233.341923 C 899.685938 233.341923 895.092188 246.961675 891.45 248.388306 M 898.260937 243.321308 C 898.260937 243.321308 898.101562 253.139055 896.835938 256.624813 M 895.570312 259.003701 C 895.570312 259.003701 898.734375 262.960317 902.221875 262.644069 C 905.704687 262.32782 907.129687 258.209567 909.50625 258.845577 C 911.882812 259.478073 914.1 261.379076 919.645312 260.904704 M 911.723437 265.019443 C 911.723437 265.019443 911.723437 273.097826 913.153125 273.89196 C 914.578125 274.682581 913.945312 282.128467 913.945312 282.128467 M 892.401562 261.220952 C 892.401562 261.220952 892.242188 268.821449 891.290625 271.516585 C 890.339062 274.208208 888.440625 278.804348 888.754687 282.764477 M 882.735937 287.195465 C 883.528125 286.879217 886.223437 284.503842 886.223437 284.503842 M 887.648438 286.24672 C 887.648438 286.24672 880.8375 315.394256 882.735937 332.816014 M 889.232813 287.673351 C 889.232813 287.673351 885.745312 309.533124 887.329687 313.651377 M 887.489062 287.037341 C 887.648438 287.037341 900.796875 287.989599 900.796875 287.989599 M 902.695312 286.24672 C 902.695312 286.24672 906.3375 288.147723 911.409375 287.831475 M 901.110937 296.858602 C 901.110937 296.858602 900.478125 334.242644 899.526562 342.479151 M 920.596875 305.411357 C 920.596875 305.411357 924.7125 338.202774 927.089062 341.210645 M 912.675 309.533124 C 912.675 309.533124 915.210938 338.519022 916.635937 341.052521 M 876.717188 351.19003 C 876.717188 351.19003 881.629687 349.605275 886.064062 344.854526 C 891.13125 351.664402 898.89375 345.170774 898.89375 345.170774 C 898.89375 345.170774 910.93125 353.407281 916.317187 344.22203 C 924.553125 349.605275 928.673437 343.427895 928.673437 343.427895 C 928.673437 343.427895 931.682812 348.024035 933.9 347.549663 M 920.751562 350.715658 C 920.751562 350.715658 926.929688 379.701555 936.117188 387.941576 M 888.914062 347.704273 C 888.914062 347.704273 889.70625 371.939421 891.13125 389.048445 M 887.807812 375.10893 C 887.807812 375.10893 887.015625 390.949447 886.064062 392.059829 M 878.460938 393.64107 C 878.460938 393.64107 880.2 400.45446 888.914062 394.115442 C 897.628125 387.779938 897.782812 396.494331 898.101562 397.443075 C 898.420313 398.395334 899.845312 405.20521 903.16875 399.502202 M 910.139063 390.158827 C 910.139063 390.158827 908.714062 404.256466 921.229687 393.957318 C 933.745312 383.665199 935.803125 393.802708 936.117188 396.968703 M 910.298437 166.813859 C 910.298437 166.813859 909.192187 173.781859 916.635937 173.149363 C 915.684375 176.951368 918.534375 178.216361 918.534375 178.216361 M 924.079687 182.496252 C 924.239062 182.496252 927.407812 184.555379 923.920312 187.088877 M 913.307812 188.037622 C 913.307812 188.037622 914.892187 189.938624 916.635937 189.464252 C 918.379687 188.98988 921.229687 191.207131 921.229687 191.207131 C 921.229687 191.207131 923.60625 191.997751 923.920312 191.523379 M 903.646875 194.056878 C 903.646875 194.056878 909.032812 196.119518 912.515625 187.56325 M 893.667187 185.029751 L 896.835938 185.187875 M 858.525 284.925506 L 858.76875 291.865395 M 852.014063 284.408967 C 852.014063 284.408967 856.4625 291.85134 856.092188 295.818497 " transform="matrix(0.833333,0,0,1.111667,0,0)"/>
<path style="fill:none;stroke-width:0.944;stroke-linecap:butt;stroke-linejoin:round;stroke:rgb(0%,0%,0%);stroke-opacity:1;stroke-miterlimit:4;" d="M 894.140625 188.195746 L 896.995312 188.195746 L 894.459375 189.306128 M 911.667187 299.961347 C 911.667187 299.961347 914.995312 299.613475 914.8875 305.1689 C 917.010937 298.267663 921.332812 298.102511 921.332812 298.102511 " transform="matrix(0.833333,0,0,1.111667,0,0)"/>
<path style="fill:none;stroke-width:1.699;stroke-linecap:butt;stroke-linejoin:round;stroke:rgb(0%,0%,0%);stroke-opacity:1;stroke-miterlimit:4;" d="M 898.101562 179.326743 C 898.575 179.326743 900.31875 178.694247 900.6375 179.168619 C 900.951563 179.642991 898.734375 179.962753 898.101562 179.326743 Z M 898.101562 179.326743 " transform="matrix(0.833333,0,0,1.111667,0,0)"/>
<path style="fill-rule:nonzero;fill:rgb(100%,78.039217%,17.254902%);fill-opacity:1;stroke-width:1.887;stroke-linecap:butt;stroke-linejoin:miter;stroke:rgb(0%,0%,0%);stroke-opacity:1;stroke-miterlimit:4;" d="M 900.3 458.577352 C 967.195312 456.72203 1010.4 408.406344 1009.935937 407.942513 C 1009.471875 407.478683 1018.7625 394.470343 1026.196875 396.325665 C 1033.63125 398.184501 1044.314062 420.019678 1057.321875 424.665011 C 1063.828125 434.88334 1055.465625 444.177521 1052.676563 446.036357 C 1049.892187 447.895193 1037.348438 453.004357 1035.4875 445.572526 C 1033.63125 438.137181 1029.914062 439.532187 1029.914062 439.532187 C 1029.914062 439.532187 970.448437 497.602371 901.692187 495.279704 C 830.615625 495.743534 772.078125 439.532187 772.078125 439.532187 L 766.96875 445.105182 C 766.96875 445.105182 761.395312 451.145521 758.60625 450.68169 C 755.821875 450.21786 743.742188 442.318684 742.814062 434.419509 C 741.88125 426.523847 750.24375 421.414683 750.24375 421.414683 C 750.24375 421.414683 770.685938 405.616332 773.010937 397.25684 C 777.65625 392.611507 786.482813 400.507168 786.482813 400.507168 C 786.482813 400.507168 840.370312 462.295024 900.3 458.577352 Z M 900.3 458.577352 " transform="matrix(0.833333,0,0,1.111667,0,0)"/>
<path style="fill:none;stroke-width:1.887;stroke-linecap:butt;stroke-linejoin:miter;stroke:rgb(0%,0%,0%);stroke-opacity:1;stroke-miterlimit:4;" d="M 748.85625 422.644537 C 748.85625 422.644537 754.382812 421.172226 756.407812 423.477324 C 758.4375 425.778907 772.35 439.412716 772.35 439.412716 " transform="matrix(0.833333,0,0,1.111667,0,0)"/>
<path style="fill:none;stroke-width:1.887;stroke-linecap:butt;stroke-linejoin:miter;stroke:rgb(0%,0%,0%);stroke-opacity:1;stroke-miterlimit:4;" d="M 761.475 429.095999 L 755.948437 433.242363 C 755.948437 433.242363 769.860937 436.004263 766.729687 445.126265 M 1052.339062 422.18422 C 1052.339062 422.18422 1049.578125 420.71191 1045.246875 423.934127 C 1040.915625 427.159858 1029.951562 439.412716 1029.951562 439.412716 " transform="matrix(0.833333,0,0,1.111667,0,0)"/>
<path style="fill:none;stroke-width:1.887;stroke-linecap:butt;stroke-linejoin:miter;stroke:rgb(0%,0%,0%);stroke-opacity:1;stroke-miterlimit:4;" d="M 1039.898438 428.727043 L 1045.889062 433.333724 C 1045.889062 433.333724 1033.359375 434.162997 1036.125 446.046898 " transform="matrix(0.833333,0,0,1.111667,0,0)"/>
<path style=" stroke:none;fill-rule:nonzero;fill:rgb(0%,0%,0%);fill-opacity:1;" d="M 683.054688 486.238281 C 682.75 487.40625 681.953125 486.207031 681.289062 486.441406 C 679.542969 486.53125 678.09375 488.046875 676.597656 489.085938 L 661.261719 501.015625 C 660.742188 500.789062 660.867188 500.230469 660.992188 499.671875 C 662.355469 491.15625 663.769531 482.648438 665.097656 474.121094 C 665.316406 472.628906 665.671875 470.773438 664.589844 469.6875 C 664.132812 469.269531 664.839844 468.421875 665.136719 469.195312 L 672.976562 476.652344 C 672.726562 477.636719 672.28125 476.945312 671.835938 476.546875 C 670.75 475.15625 669.441406 476.441406 669.472656 478.203125 C 668.539062 483.820312 667.628906 489.441406 666.707031 495.0625 C 670.179688 492.308594 673.6875 489.640625 677.128906 486.820312 C 678.359375 486.09375 679.261719 483.894531 677.988281 482.535156 C 677.5 482.152344 676.699219 481.113281 677.5 480.953125 Z M 688.5625 521.796875 C 688.421875 522.433594 688.175781 522.574219 687.792969 522.113281 L 678.566406 515.382812 C 678.703125 514.746094 678.953125 514.605469 679.335938 515.0625 C 680.167969 515.820312 681.527344 516.105469 682.136719 514.78125 C 683.359375 512.167969 684.386719 509.402344 685.519531 506.71875 C 687.058594 502.914062 688.660156 499.160156 690.152344 495.324219 C 690.867188 493.96875 690.070312 492.292969 689.070312 491.710938 C 688.734375 491.46875 688.238281 491.292969 688.664062 490.75 C 688.867188 490.414062 689.304688 491.132812 689.605469 491.222656 L 698.453125 497.675781 C 698.3125 498.3125 698.0625 498.453125 697.683594 497.992188 C 696.847656 497.238281 695.480469 496.949219 694.867188 498.265625 C 693.644531 500.878906 692.617188 503.644531 691.484375 506.328125 C 689.945312 510.132812 688.34375 513.890625 686.851562 517.722656 C 686.136719 519.089844 686.933594 520.777344 687.945312 521.347656 Z M 724.070312 510.6875 L 721.5625 520.070312 C 720.539062 519.925781 721.21875 518.171875 720.902344 517.25 C 720.535156 513.023438 718.199219 509.082031 715.015625 508.175781 C 712.585938 507.292969 710.015625 508.964844 708.589844 511.601562 C 706.429688 515.535156 705.117188 520.332031 704.933594 525.203125 C 704.808594 527.972656 705.761719 530.8125 707.574219 532.273438 C 709.011719 533.535156 710.753906 534.042969 712.460938 533.980469 C 713.0625 531.609375 713.78125 529.292969 714.28125 526.886719 C 714.488281 525.316406 713.273438 524.375 712.304688 524.015625 C 712.152344 523.558594 712.527344 523 712.925781 523.488281 L 722.121094 527.859375 C 722.011719 529.371094 720.734375 527.738281 720.023438 528.34375 C 718.890625 528.921875 718.792969 530.738281 718.363281 532.054688 L 717.246094 536.25 C 713.121094 536.640625 708.875 535.476562 705.289062 532.710938 C 701.800781 529.777344 699.441406 524.117188 700.128906 518.566406 C 700.660156 513.816406 702.878906 509.367188 706.164062 507.265625 C 709.179688 505.128906 712.859375 505.136719 715.992188 506.832031 C 717.703125 507.601562 719.183594 509.015625 720.507812 510.621094 C 721.3125 512.066406 722.867188 512.070312 723.527344 510.425781 L 724.070312 510.6875 M 739.03125 542.714844 C 739.011719 543.214844 738.96875 543.671875 738.523438 543.394531 L 727.988281 541.265625 C 728.007812 540.765625 728.050781 540.308594 728.5 540.589844 C 729.410156 540.835938 730.636719 540.816406 731.074219 539.503906 C 731.523438 537.625 731.609375 535.640625 731.867188 533.707031 C 732.46875 528.308594 733.113281 522.914062 733.6875 517.511719 C 733.914062 516.347656 733.613281 515.03125 732.710938 514.578125 C 732.199219 514.253906 731.628906 514.207031 731.078125 514.082031 C 731.097656 513.582031 731.136719 513.128906 731.585938 513.40625 L 742.117188 515.535156 C 742.097656 516.035156 742.058594 516.492188 741.609375 516.210938 C 740.691406 515.957031 739.472656 515.992188 739.015625 517.292969 C 738.570312 519.171875 738.480469 521.160156 738.222656 523.089844 C 737.621094 528.488281 736.976562 533.882812 736.402344 539.285156 C 736.179688 540.445312 736.480469 541.789062 737.390625 542.230469 C 737.90625 542.542969 738.476562 542.59375 739.03125 542.71875 Z M 767.460938 533.503906 L 767.046875 543.46875 L 748.257812 544.746094 C 748.140625 544.136719 748.265625 543.8125 748.761719 543.941406 C 749.707031 543.972656 750.921875 543.4375 751.042969 541.992188 C 751.125 539.515625 750.917969 537.039062 750.855469 534.566406 C 750.652344 529.625 750.507812 524.683594 750.265625 519.753906 C 750.367188 518.28125 749.375 517.195312 748.332031 517.238281 C 748 517.015625 747.101562 517.699219 747.191406 516.894531 C 747.039062 516.238281 747.722656 516.585938 748.007812 516.460938 L 758.460938 515.75 C 758.574219 516.363281 758.453125 516.683594 757.953125 516.558594 C 756.988281 516.550781 755.734375 516.863281 755.464844 518.316406 C 755.3125 520.460938 755.539062 522.613281 755.582031 524.761719 C 755.792969 529.902344 755.941406 535.050781 756.199219 540.1875 C 756.121094 541.53125 756.929688 542.722656 757.972656 542.460938 C 759.496094 542.359375 761.054688 542.449219 762.546875 541.9375 C 764.632812 541.195312 765.773438 538.433594 766.34375 535.855469 C 766.71875 535.160156 766.410156 533.417969 767.238281 533.519531 L 767.460938 533.503906 M 782.109375 509.386719 C 781.609375 509.398438 781.832031 510.246094 781.703125 510.691406 C 780.871094 519 780.085938 527.320312 779.222656 535.628906 C 779.015625 537.46875 778.671875 539.617188 777.308594 540.546875 C 776.808594 540.785156 777.25 541.839844 777.710938 541.253906 L 783.984375 538.742188 C 783.90625 537.332031 782.699219 538.613281 782.027344 538.363281 C 780.585938 538.363281 780.371094 536.03125 780.574219 534.574219 L 780.832031 531.621094 L 788.019531 528.738281 C 788.9375 530.277344 789.949219 531.726562 790.777344 533.351562 C 791.402344 534.921875 789.886719 535.636719 789.007812 535.941406 C 788.597656 535.996094 788.957031 537.144531 789.332031 536.613281 L 798.777344 532.835938 C 798.746094 531.410156 797.378906 532.746094 796.800781 531.792969 C 795.035156 530.023438 793.765625 527.558594 792.300781 525.375 Z M 782.058594 519.355469 L 787.160156 527.484375 L 781.042969 529.917969 Z M 814.25 490.667969 L 816.964844 497.402344 C 816.121094 498.371094 815.683594 496.125 814.914062 495.785156 C 813.660156 494.375 811.765625 494.105469 810.367188 495.304688 C 809.796875 495.699219 809.230469 496.113281 808.660156 496.519531 C 811.390625 503.265625 814.085938 510.039062 816.839844 516.765625 C 817.265625 518.492188 818.855469 518.816406 819.878906 517.84375 C 820.277344 517.457031 820.636719 517.242188 820.765625 518.050781 C 819.378906 519.125 817.863281 520.144531 816.425781 521.195312 L 811.003906 525.085938 C 810.578125 524.496094 810.863281 524.191406 811.339844 523.96875 C 812.625 523.332031 813.121094 521.25 812.261719 519.785156 C 809.589844 513.085938 806.875 506.414062 804.1875 499.726562 C 802.691406 500.832031 800.78125 501.832031 800.402344 504.320312 C 799.976562 505.886719 800.601562 507.804688 800.601562 509.140625 C 800.140625 509.777344 800.023438 508.90625 799.808594 508.445312 L 797.488281 502.6875 Z M 826.960938 480.613281 L 832.152344 489.800781 C 833.359375 488.777344 834.363281 486.953125 834 484.960938 C 834.140625 483.40625 832.472656 481.640625 833.046875 480.546875 C 833.421875 480.234375 833.644531 481.402344 833.957031 481.707031 L 839.890625 492.199219 C 839.117188 493.375 838.554688 490.976562 837.738281 490.71875 C 836.582031 489.621094 834.960938 489.078125 833.71875 490.277344 C 832.796875 490.671875 832.839844 491.363281 833.46875 492.125 C 834.859375 494.523438 836.152344 497.027344 837.636719 499.324219 C 838.546875 500.5 839.675781 499.269531 840.445312 498.453125 C 842.4375 496.644531 844.183594 493.820312 844.082031 490.4375 C 844.210938 488.957031 843.515625 487.308594 843.523438 486.0625 C 843.96875 485.269531 844.09375 486.5 844.351562 486.902344 L 847.15625 493.660156 L 832.535156 508.371094 C 831.902344 507.769531 832.523438 507.417969 832.925781 507.003906 C 834.289062 505.878906 833.855469 503.582031 832.851562 502.320312 C 829.726562 496.832031 826.660156 491.289062 823.496094 485.839844 C 822.6875 484.375 821.191406 485.148438 820.375 486.167969 C 820.035156 486.8125 819.503906 485.527344 820.148438 485.429688 L 833.933594 471.558594 L 837.707031 478.230469 C 836.832031 479.414062 836.058594 476.78125 835.0625 476.640625 C 833.25 475.382812 831.097656 476.398438 829.601562 477.988281 C 828.707031 478.835938 827.839844 479.738281 826.960938 480.613281 "/>
</g>
</svg>
