<?xml version="1.0" encoding="UTF-8"?>
<svg xmlns="http://www.w3.org/2000/svg" xmlns:xlink="http://www.w3.org/1999/xlink" width="1000px" height="667px" viewBox="0 0 1000 667" version="1.1">
<g id="surface1">
<path style=" stroke:none;fill-rule:nonzero;fill:rgb(82.352942%,6.27451%,20.392157%);fill-opacity:1;" d="M 0 0 L 1000 0 L 1000 333.5 L 0 333.5 Z M 0 0 "/>
<path style=" stroke:none;fill-rule:nonzero;fill:rgb(0%,58.431375%,26.274511%);fill-opacity:1;" d="M 0 333.5 L 1000 333.5 L 1000 667 L 0 667 Z M 0 333.5 "/>
<path style=" stroke:none;fill-rule:nonzero;fill:rgb(0%,0%,0%);fill-opacity:1;" d="M 0 0 L 581.910156 333.5 L 0 667 Z M 0 0 "/>
<path style=" stroke:none;fill-rule:nonzero;fill:rgb(0%,0%,0%);fill-opacity:1;" d="M 0 273.820312 L 1000 273.820312 L 1000 393.179688 L 0 393.179688 Z M 0 273.820312 "/>
<path style=" stroke:none;fill-rule:nonzero;fill:rgb(99.215686%,80.784315%,7.058824%);fill-opacity:1;" d="M 0 47.394531 L 499.210938 333.5 L 0 619.601562 Z M 0 47.394531 "/>
<path style=" stroke:none;fill-rule:nonzero;fill:rgb(99.215686%,80.784315%,7.058824%);fill-opacity:1;" d="M 0 315.949219 L 1000 315.949219 L 1000 351.050781 L 0 351.050781 Z M 0 315.949219 "/>
<path style=" stroke:none;fill-rule:nonzero;fill:rgb(0%,0%,0%);fill-opacity:1;" d="M 0 86.890625 L 430.296875 333.5 L 0 580.109375 Z M 0 86.890625 "/>
<path style=" stroke:none;fill-rule:nonzero;fill:rgb(99.215686%,80.784315%,7.058824%);fill-opacity:1;" d="M 121.558594 397.300781 L 121.558594 435.304688 C 151.300781 435.304688 209.664062 409.972656 209.664062 328.402344 C 209.664062 246.835938 147.40625 231.695312 128.785156 231.695312 C 110.164062 231.695312 52.632812 246.527344 52.632812 313.261719 C 52.632812 380 109.050781 386.179688 120.167969 386.179688 C 131.285156 386.179688 172.976562 375.054688 168.253906 325.003906 C 168.253906 339.214844 153.800781 369.1875 123.503906 369.1875 C 93.210938 369.1875 74.308594 344.160156 74.308594 319.441406 C 74.308594 294.722656 92.652344 261.664062 124.617188 261.664062 C 156.578125 261.664062 179.925781 293.179688 179.925781 325.003906 C 179.925781 356.828125 157.414062 397.300781 121.558594 397.300781 Z M 121.558594 397.300781 "/>
<path style="fill-rule:nonzero;fill:rgb(99.215686%,80.784315%,7.058824%);fill-opacity:1;stroke-width:1;stroke-linecap:butt;stroke-linejoin:miter;stroke:rgb(99.215686%,80.784315%,7.058824%);stroke-opacity:1;stroke-miterlimit:4;" d="M 90.728711 297.244425 L 92.409766 298.33267 C 92.409766 298.33267 105.776563 267.838444 141.720703 246.153661 C 137.163672 248.630587 113.105664 260.611296 90.728711 297.244425 Z M 90.728711 297.244425 " transform="matrix(1.052632,0,0,1.170175,0,0)"/>
<path style=" stroke:none;fill-rule:nonzero;fill:rgb(99.215686%,80.784315%,7.058824%);fill-opacity:1;" d="M 99.152344 341.6875 C 99.152344 341.6875 94.773438 331.722656 98.628906 327.320312 C 102.484375 322.917969 100.714844 339.023438 100.714844 339.023438 L 102.382812 336.359375 C 102.382812 336.359375 99.777344 324.191406 102.695312 321.644531 C 105.613281 319.09375 104.152344 333.34375 104.152344 333.34375 L 105.925781 330.796875 C 105.925781 330.796875 104.050781 318.980469 106.863281 316.777344 C 109.679688 314.574219 107.90625 327.902344 107.90625 327.902344 L 109.992188 325.234375 C 109.992188 325.234375 108.425781 313.996094 111.867188 311.332031 C 115.304688 308.667969 112.28125 321.992188 112.28125 321.992188 L 114.574219 319.210938 C 114.574219 319.210938 113.535156 308.898438 116.453125 306.582031 C 119.371094 304.265625 116.871094 316.3125 116.871094 316.3125 L 118.953125 313.878906 C 118.953125 313.878906 118.328125 304.265625 121.140625 302.0625 C 123.957031 299.859375 121.351562 311.214844 121.351562 311.214844 L 123.539062 308.898438 C 123.539062 308.898438 123.019531 299.28125 126.5625 297.429688 C 130.105469 295.574219 125.9375 306.464844 125.9375 306.464844 L 128.332031 304.148438 C 128.332031 304.148438 129.0625 292.910156 132.085938 291.867188 C 135.109375 290.824219 130.730469 301.832031 130.730469 301.832031 L 132.921875 299.859375 C 132.921875 299.859375 134.066406 290.246094 137.402344 289.085938 C 140.738281 287.925781 135.316406 297.890625 135.316406 297.890625 L 137.503906 296.039062 C 137.503906 296.039062 139.902344 286.421875 143.03125 285.378906 C 146.15625 284.335938 139.800781 294.417969 139.800781 294.417969 L 141.882812 292.792969 C 141.882812 292.792969 145.320312 284.101562 148.136719 283.523438 C 150.949219 282.945312 145.007812 290.707031 145.007812 290.707031 L 147.617188 288.96875 C 147.617188 288.96875 152.097656 279.933594 153.660156 282.714844 C 155.222656 285.496094 147.40625 289.550781 147.40625 289.550781 L 144.800781 291.171875 C 144.800781 291.171875 154.285156 286.191406 155.433594 288.738281 C 156.578125 291.285156 142.402344 292.910156 142.402344 292.910156 L 140.113281 294.648438 C 140.113281 294.648438 149.597656 291.75 148.449219 294.417969 C 147.304688 297.082031 137.921875 296.5 137.921875 296.5 L 135.734375 298.238281 C 135.734375 298.238281 145.21875 295.691406 143.96875 298.125 C 142.71875 300.554688 133.441406 300.324219 133.441406 300.324219 L 131.148438 302.410156 C 131.148438 302.410156 140.425781 299.746094 139.070312 302.875 C 137.714844 306.003906 127.1875 305.886719 127.1875 305.886719 L 124.582031 308.550781 C 124.582031 308.550781 134.378906 304.84375 133.546875 307.738281 C 132.710938 310.636719 121.558594 312.144531 121.558594 312.144531 L 119.058594 314.921875 C 119.058594 314.921875 129.585938 310.984375 126.457031 314.574219 C 123.332031 318.167969 115.722656 319.09375 115.722656 319.09375 L 112.699219 323.148438 C 112.699219 323.148438 123.125 316.199219 121.664062 320.136719 C 120.203125 324.078125 109.992188 326.742188 109.992188 326.742188 L 107.90625 329.523438 C 107.90625 329.523438 117.285156 323.496094 116.347656 326.859375 C 115.410156 330.21875 105.402344 333.808594 105.402344 333.808594 L 103.738281 336.359375 C 103.738281 336.359375 114.785156 329.058594 113.847656 332.765625 C 112.910156 336.472656 102.382812 339.140625 102.382812 339.140625 L 101.027344 341.457031 C 101.027344 341.457031 111.242188 334.96875 111.34375 338.097656 C 111.449219 341.222656 99.359375 344.351562 99.359375 344.351562 Z M 99.152344 341.6875 "/>
<path style="fill-rule:nonzero;fill:rgb(99.215686%,80.784315%,7.058824%);fill-opacity:1;stroke-width:1;stroke-linecap:butt;stroke-linejoin:miter;stroke:rgb(99.215686%,80.784315%,7.058824%);stroke-opacity:1;stroke-miterlimit:4;" d="M 90.726758 297.244425 L 92.411523 298.33267 C 92.411523 298.33267 105.77832 267.838444 141.71875 246.153661 C 137.16543 248.630587 113.103711 260.611296 90.726758 297.244425 Z M 90.726758 297.244425 " transform="matrix(-1.052632,0,0,1.170175,251.052632,0)"/>
<path style=" stroke:none;fill-rule:nonzero;fill:rgb(99.215686%,80.784315%,7.058824%);fill-opacity:1;" d="M 151.902344 341.6875 C 151.902344 341.6875 156.277344 331.722656 152.421875 327.320312 C 148.566406 322.917969 150.339844 339.023438 150.339844 339.023438 L 148.671875 336.359375 C 148.671875 336.359375 151.277344 324.191406 148.359375 321.644531 C 145.441406 319.09375 146.898438 333.34375 146.898438 333.34375 L 145.128906 330.796875 C 145.128906 330.796875 147.003906 318.980469 144.191406 316.777344 C 141.375 314.574219 143.144531 327.902344 143.144531 327.902344 L 141.0625 325.234375 C 141.0625 325.234375 142.625 313.996094 139.1875 311.332031 C 135.746094 308.667969 138.769531 321.992188 138.769531 321.992188 L 136.476562 319.210938 C 136.476562 319.210938 137.519531 308.898438 134.601562 306.582031 C 131.683594 304.265625 134.183594 316.3125 134.183594 316.3125 L 132.097656 313.878906 C 132.097656 313.878906 132.722656 304.265625 129.910156 302.0625 C 127.097656 299.859375 129.703125 311.214844 129.703125 311.214844 L 127.511719 308.898438 C 127.511719 308.898438 128.035156 299.28125 124.492188 297.429688 C 120.949219 295.574219 125.117188 306.464844 125.117188 306.464844 L 122.71875 304.148438 C 122.71875 304.148438 121.988281 292.910156 118.964844 291.867188 C 115.945312 290.824219 120.320312 301.832031 120.320312 301.832031 L 118.132812 299.859375 C 118.132812 299.859375 116.984375 290.246094 113.652344 289.085938 C 110.316406 287.925781 115.734375 297.890625 115.734375 297.890625 L 113.546875 296.039062 C 113.546875 296.039062 111.148438 286.421875 108.023438 285.378906 C 104.894531 284.335938 111.253906 294.417969 111.253906 294.417969 L 109.167969 292.792969 C 109.167969 292.792969 105.730469 284.101562 102.914062 283.523438 C 100.101562 282.945312 106.042969 290.707031 106.042969 290.707031 L 103.4375 288.96875 C 103.4375 288.96875 98.957031 279.933594 97.390625 282.714844 C 95.828125 285.496094 103.644531 289.550781 103.644531 289.550781 L 106.25 291.171875 C 106.25 291.171875 96.765625 286.191406 95.621094 288.738281 C 94.472656 291.285156 108.648438 292.910156 108.648438 292.910156 L 110.941406 294.648438 C 110.941406 294.648438 101.457031 291.75 102.601562 294.417969 C 103.75 297.082031 113.128906 296.5 113.128906 296.5 L 115.320312 298.238281 C 115.320312 298.238281 105.835938 295.691406 107.085938 298.125 C 108.335938 300.554688 117.613281 300.324219 117.613281 300.324219 L 119.902344 302.410156 C 119.902344 302.410156 110.628906 299.746094 111.984375 302.875 C 113.339844 306.003906 123.867188 305.886719 123.867188 305.886719 L 126.46875 308.550781 C 126.46875 308.550781 116.671875 304.84375 117.507812 307.738281 C 118.339844 310.636719 129.492188 312.144531 129.492188 312.144531 L 131.996094 314.921875 C 131.996094 314.921875 121.46875 310.984375 124.59375 314.574219 C 127.722656 318.167969 135.328125 319.09375 135.328125 319.09375 L 138.351562 323.148438 C 138.351562 323.148438 127.929688 316.199219 129.390625 320.136719 C 130.847656 324.078125 141.0625 326.742188 141.0625 326.742188 L 143.144531 329.523438 C 143.144531 329.523438 133.765625 323.496094 134.703125 326.859375 C 135.640625 330.21875 145.648438 333.808594 145.648438 333.808594 L 147.316406 336.359375 C 147.316406 336.359375 136.269531 329.058594 137.207031 332.765625 C 138.144531 336.472656 148.671875 339.140625 148.671875 339.140625 L 150.023438 341.457031 C 150.023438 341.457031 139.8125 334.96875 139.707031 338.097656 C 139.601562 341.222656 151.695312 344.351562 151.695312 344.351562 Z M 151.902344 341.6875 "/>
</g>
</svg>
