<?xml version="1.0" encoding="UTF-8"?>
<svg xmlns="http://www.w3.org/2000/svg" xmlns:xlink="http://www.w3.org/1999/xlink" width="1000px" height="667px" viewBox="0 0 1000 667" version="1.1">
<g id="surface1">
<rect x="0" y="0" width="1000" height="667" style="fill:rgb(80.784315%,6.666667%,14.901961%);fill-opacity:1;stroke:none;"/>
<path style=" stroke:none;fill-rule:nonzero;fill:rgb(0%,16.862746%,49.803922%);fill-opacity:1;" d="M 0 0 L 500 0 L 500 333.5 L 0 333.5 Z M 0 0 "/>
<path style=" stroke:none;fill-rule:nonzero;fill:rgb(100%,100%,100%);fill-opacity:1;" d="M 250 13.894531 L 267.167969 84.375 L 222.222656 40.796875 L 277.777344 40.796875 L 232.832031 84.375 Z M 250 13.894531 "/>
<path style=" stroke:none;fill-rule:nonzero;fill:rgb(100%,100%,100%);fill-opacity:1;" d="M 173.609375 97.269531 L 190.777344 167.75 L 145.832031 124.171875 L 201.390625 124.171875 L 156.445312 167.75 Z M 173.609375 97.269531 "/>
<path style=" stroke:none;fill-rule:nonzero;fill:rgb(100%,100%,100%);fill-opacity:1;" d="M 328.125 83.375 L 344.21875 149.449219 L 302.082031 108.597656 L 354.167969 108.597656 L 312.03125 149.449219 Z M 328.125 83.375 "/>
<path style=" stroke:none;fill-rule:nonzero;fill:rgb(100%,100%,100%);fill-opacity:1;" d="M 288.195312 169.015625 L 298.921875 213.066406 L 270.832031 185.832031 L 305.554688 185.832031 L 277.464844 213.066406 Z M 288.195312 169.015625 "/>
<path style=" stroke:none;fill-rule:nonzero;fill:rgb(100%,100%,100%);fill-opacity:1;" d="M 250 231.5 L 271.457031 319.597656 L 215.277344 265.128906 L 284.722656 265.128906 L 228.542969 319.597656 Z M 250 231.5 "/>
</g>
</svg>
