<?xml version="1.0" encoding="UTF-8"?>
<svg xmlns="http://www.w3.org/2000/svg" xmlns:xlink="http://www.w3.org/1999/xlink" width="1000px" height="667px" viewBox="0 0 1000 667" version="1.1">
<g id="surface1">
<rect x="0" y="0" width="1000" height="667" style="fill:rgb(14.117648%,29.019609%,64.705884%);fill-opacity:1;stroke:none;"/>
<path style=" stroke:none;fill-rule:nonzero;fill:rgb(81.568629%,65.098041%,31.37255%);fill-opacity:1;" d="M 505.40625 211.367188 C 509.589844 215.925781 512.390625 220.480469 512.390625 226.023438 C 508.878906 227.644531 504.023438 228.308594 501.222656 231.238281 C 518.664062 228.953125 522.140625 247.839844 541.671875 240.671875 C 542.382812 243.289062 545.1875 245.570312 548.660156 244.585938 L 550.75 239.382812 C 558.40625 237.429688 556.316406 249.148438 564.714844 246.863281 C 568.902344 250.125 566.101562 255.652344 568.902344 259.578125 C 568.902344 264.128906 570.996094 268.035156 573.085938 271.941406 C 575.179688 269.671875 576.5625 266.410156 581.453125 267.390625 C 584.925781 270.964844 587.726562 274.226562 588.433594 278.132812 C 587.015625 285.628906 584.925781 292.136719 593.289062 296.042969 L 593.289062 298.324219 C 598.894531 300.609375 611.445312 296.042969 611.445312 305.160156 C 610.730469 308.421875 614.917969 305.492188 616.335938 307.445312 C 619.8125 306.136719 624.703125 306.800781 628.882812 306.800781 C 632.359375 313.636719 624.703125 318.519531 622.609375 324.710938 C 626.082031 327.953125 624.703125 333.832031 623.992188 337.71875 L 621.898438 338.695312 C 627.464844 339.671875 634.449219 338.066406 639.34375 340.996094 L 648.417969 344.242188 C 652.601562 341.976562 657.457031 341.625 663.058594 341.976562 C 667.242188 344.90625 661.640625 349.785156 665.152344 352.054688 C 670.046875 352.054688 674.230469 352.71875 674.902344 356.625 L 675.609375 357.914062 C 679.085938 352.054688 688.867188 355.960938 693.054688 351.742188 C 700.035156 351.742188 701.417969 358.894531 704.890625 362.800781 C 706.3125 372.910156 693.054688 377.484375 697.234375 387.5625 C 694.433594 392.441406 688.867188 396.351562 684.6875 400.917969 C 686.066406 401.582031 685.359375 403.1875 685.359375 404.164062 C 681.175781 406.464844 684.6875 413.300781 679.082031 413.929688 C 678.410156 418.183594 670.042969 416.546875 672.808594 421.113281 C 678.410156 427.949219 670.042969 432.171875 670.042969 438.378906 C 666.53125 441.96875 659.546875 435.097656 659.546875 441.96875 C 655.367188 442.945312 651.183594 438.378906 648.417969 442.285156 C 647 446.855469 651.183594 448.457031 650.511719 453.027344 C 657.457031 452.363281 659.550781 458.886719 662.351562 462.792969 L 669.335938 469.316406 C 662.351562 474.511719 653.273438 468.652344 644.90625 471.582031 C 642.816406 470.605469 644.90625 468.023438 642.816406 467.046875 C 640.722656 464.746094 636.542969 464.746094 633.066406 464.117188 C 633.738281 467.046875 627.464844 468.023438 630.265625 471.582031 C 630.265625 472.554688 631.648438 475.488281 628.882812 475.488281 C 623.28125 477.125 623.992188 470.953125 619.097656 473.21875 C 612.824219 475.488281 617.714844 484.277344 608.640625 483.300781 C 610.019531 491.148438 594.707031 496.34375 605.164062 503.179688 C 606.546875 504.472656 605.839844 507.085938 605.839844 509.039062 C 599.5625 514.269531 588.429688 512.316406 581.449219 510.363281 C 575.84375 509.039062 579.355469 502.519531 577.265625 498.960938 C 575.171875 495.679688 568.898438 493.414062 568.898438 488.84375 C 564.710938 487.238281 561.203125 486.234375 558.402344 482.984375 C 548.65625 491.773438 536.78125 500.25 522.84375 500.5625 C 516.570312 503.492188 513.0625 515.25 503.3125 510.363281 C 499.484375 516.226562 487.960938 510.363281 487.269531 518.804688 C 482.730469 520.445312 484.824219 525.988281 482.039062 528.570312 C 480.992188 535.09375 482.039062 540.636719 487.960938 544.546875 C 490.40625 549.425781 482.730469 549.425781 485.867188 553.996094 C 486.578125 555.601562 485.867188 557.902344 484.824219 558.566406 C 482.730469 559.542969 482.039062 560.519531 482.730469 562.472656 C 480.992188 562.472656 480.285156 563.449219 478.902344 564.738281 C 477.144531 567.984375 471.582031 569.621094 467.734375 571.890625 C 463.90625 572.863281 461.105469 570.285156 458.675781 567.984375 C 457.964844 571.574219 454.832031 573.527344 451.003906 573.527344 C 445.417969 573.527344 446.464844 568.960938 442.28125 567.007812 C 444.019531 561.148438 438.433594 558.566406 440.1875 553.332031 C 444.726562 550.089844 452.382812 547.789062 450.292969 540.953125 C 445.417969 535.441406 447.15625 527.28125 442.28125 520.757812 C 439.144531 518.179688 433.914062 514.273438 435.648438 508.0625 C 440.1875 503.179688 435.648438 497.320312 433.203125 492.125 C 432.160156 487.871094 429.375 483.964844 429.375 479.082031 C 421.703125 474.859375 421.34375 463.769531 410.535156 462.792969 C 402.859375 462.792969 401.476562 453.6875 393.800781 454.316406 C 393.089844 453.027344 391.355469 452.050781 389.953125 450.757812 C 384.390625 454.316406 377.40625 449.785156 370.4375 451.386719 C 365.898438 444.238281 374.265625 434.472656 362.054688 430.214844 L 362.054688 425.683594 C 363.453125 426.308594 364.144531 425.019531 364.5 424.355469 C 365.191406 419.472656 355.777344 418.847656 359.625 413.300781 C 357.535156 411.660156 355.089844 411 356.488281 407.753906 C 351.242188 397.675781 335.554688 398.652344 332.0625 388.539062 C 334.863281 386.273438 334.863281 383.96875 335.910156 382.015625 C 333.460938 378.109375 332.769531 373.890625 333.460938 369.667969 C 335.910156 369.003906 337.289062 366.078125 338.691406 363.773438 C 335.554688 361.820312 331.722656 358.894531 328.230469 359.867188 C 321.957031 358.894531 317.417969 354.359375 311.835938 351.742188 C 310.4375 350.449219 311.144531 348.152344 311.144531 346.546875 C 318.820312 344.242188 310.101562 334.144531 319.511719 335.453125 C 321.960938 332.523438 327.1875 331.546875 331.019531 329.261719 C 334.863281 328.617188 338 329.925781 341.828125 330.902344 C 344.964844 334.792969 350.550781 333.171875 353.6875 336.429688 C 356.824219 335.769531 360.671875 334.144531 364.5 335.769531 C 364.5 330.238281 367.285156 326.980469 371.484375 323.070312 C 372.175781 320.804688 376.003906 319.167969 379.140625 317.875 C 385.082031 319.167969 392.046875 319.167969 396.25 315.257812 C 399.03125 316.898438 401.480469 313.636719 404.617188 313.636719 C 408.441406 312.976562 411.582031 313.953125 414.382812 315.589844 C 414.71875 309.066406 426.929688 314.613281 429.378906 306.800781 C 432.160156 301.585938 421.703125 299.632812 422.394531 295.066406 C 420.65625 289.851562 424.839844 287.253906 426.929688 283.675781 C 429.378906 282.699219 432.160156 281.394531 435.296875 282.039062 C 443.328125 279.4375 437.050781 264.128906 449.957031 269.671875 C 449.957031 271.296875 449.25 273.25 450.292969 273.578125 C 454.832031 273.578125 455.527344 268.691406 458.679688 267.058594 C 460.0625 262.507812 456.925781 256.960938 461.109375 253.386719 C 463.199219 253.054688 464.953125 252.410156 466.335938 250.769531 C 466.335938 247.195312 464.246094 245.242188 461.105469 242.957031 C 460.0625 244.585938 457.277344 243.289062 455.527344 243.9375 C 455.527344 240.027344 453.09375 237.429688 452.386719 233.839844 C 450.292969 232.863281 449.25 231.238281 449.957031 228.953125 C 453.09375 226.023438 449.957031 218.859375 457.277344 220.484375 C 460.0625 218.210938 464.953125 219.835938 467.738281 215.925781 C 475.058594 212.023438 484.824219 212.023438 490.410156 204.855469 C 492.855469 205.183594 495.636719 202.902344 498.082031 204.855469 C 498.777344 209.089844 505.40625 207.453125 505.40625 211.367188 "/>
<path style=" stroke:none;fill-rule:nonzero;fill:rgb(100%,100%,100%);fill-opacity:1;" d="M 559.40625 123.0625 L 549.761719 95.382812 L 540.238281 123.0625 L 509.046875 123.0625 L 534.285156 140.179688 L 524.644531 167.863281 L 549.761719 150.742188 L 575 167.863281 L 565.355469 140.179688 L 590.59375 123.0625 Z M 657.5 139.179688 L 647.855469 111.613281 L 638.332031 139.179688 L 607.144531 139.179688 L 632.382812 156.300781 L 622.738281 183.980469 L 647.855469 166.859375 L 673.09375 183.980469 L 663.453125 156.300781 L 688.691406 139.179688 Z M 751.070312 170.972656 L 741.546875 143.40625 L 731.90625 170.972656 L 700.714844 170.972656 L 725.953125 188.09375 L 716.308594 215.773438 L 741.546875 198.65625 L 766.667969 215.773438 L 757.023438 188.09375 L 782.261719 170.972656 Z M 459.761719 123.0625 L 450.238281 95.382812 L 440.59375 123.0625 L 409.40625 123.0625 L 434.644531 140.179688 L 425 167.863281 L 450.238281 150.742188 L 475.355469 167.863281 L 465.714844 140.179688 L 490.953125 123.0625 Z M 361.667969 139.179688 L 352.144531 111.613281 L 342.5 139.179688 L 311.308594 139.179688 L 336.546875 156.300781 L 326.90625 183.980469 L 352.144531 166.859375 L 377.261719 183.980469 L 367.617188 156.300781 L 392.855469 139.179688 Z M 268.09375 170.972656 L 258.453125 143.40625 L 248.929688 170.972656 L 217.738281 170.972656 L 242.976562 188.09375 L 233.332031 215.773438 L 258.453125 198.65625 L 283.691406 215.773438 L 274.046875 188.09375 L 299.285156 170.972656 Z M 268.09375 170.972656 "/>
</g>
</svg>
