<?xml version="1.0" encoding="UTF-8"?>
<svg xmlns="http://www.w3.org/2000/svg" xmlns:xlink="http://www.w3.org/1999/xlink" width="1000px" height="667px" viewBox="0 0 1000 667" version="1.1">
<g id="surface1">
<rect x="0" y="0" width="1000" height="667" style="fill:rgb(9.803922%,54.11765%,0%);fill-opacity:1;stroke:none;"/>
<path style=" stroke:none;fill-rule:nonzero;fill:rgb(87.058824%,12.54902%,6.27451%);fill-opacity:1;" d="M 642.855469 238.214844 L 880.953125 238.214844 L 880.953125 667 L 642.855469 667 Z M 642.855469 238.214844 "/>
<path style=" stroke:none;fill-rule:nonzero;fill:rgb(93.725491%,49.019608%,0%);fill-opacity:1;" d="M 761.90625 238.214844 L 1000 238.214844 L 1000 667 L 761.90625 667 Z M 761.90625 238.214844 "/>
<path style=" stroke:none;fill-rule:nonzero;fill:rgb(0%,0%,0%);fill-opacity:1;" d="M 761.90625 238.214844 L 880.953125 238.214844 L 880.953125 667 L 761.90625 667 Z M 761.90625 238.214844 "/>
<path style="fill-rule:nonzero;fill:rgb(93.725491%,49.019608%,0%);fill-opacity:1;stroke-width:2.25;stroke-linecap:round;stroke-linejoin:round;stroke:rgb(0%,0%,0%);stroke-opacity:1;stroke-miterlimit:4;" d="M 1916.422266 168.334192 C 1916.422266 168.334192 2002.423828 134.627999 2010.758203 127.675225 C 2014.548047 131.848529 1976.280469 174.24569 1902.025781 189.881231 C 1969.463672 175.286966 2027.049609 129.413418 2038.796484 130.807253 C 2042.208984 131.50417 2041.446094 175.631325 1886.874609 213.855182 C 1993.712109 188.143038 2055.842578 140.883855 2055.087891 146.098435 C 2055.842578 147.139711 2044.48125 183.272817 1950.9 211.420071 C 1977.043359 205.861132 2047.885547 166.25164 2047.130859 173.893132 C 2049.403125 177.025159 1978.560938 260.417448 1850.501953 233.311469 C 1952.794922 257.637978 2019.092578 198.916557 2028.567188 199.957834 C 2030.462109 200.302193 2009.617969 251.382121 1880.8125 254.514149 C 1942.565625 248.602652 1924.756641 254.161591 1924.756641 254.161591 C 1924.756641 254.161591 1888.392188 280.226293 1844.439844 262.5 C 1878.917578 271.190967 1882.707422 271.535326 1883.462109 274.314796 C 1881.189844 277.791183 1852.774219 283.005763 1825.498828 269.452774 C 1847.475 277.791183 1867.170703 279.185017 1867.548047 282.308846 C 1867.170703 283.350122 1853.159766 290.647254 1840.65 285.440873 C 1828.148438 280.226293 1712.976562 215.249016 1712.976562 215.249016 L 1909.228125 165.899082 Z M 1685.709375 344.104901 C 1668.458203 344.104901 1667.982422 358.190826 1667.982422 358.190826 C 1667.982422 358.190826 1666.555078 359.207506 1667.506641 366.037294 C 1670.353125 361.388446 1671.780469 359.937219 1671.780469 359.937219 C 1673.683594 360.224185 1681.599609 362.405126 1694.101172 353.402596 C 1682.707031 364.290901 1689.515625 368.357618 1689.515625 368.357618 C 1689.515625 368.357618 1686.825 376.9256 1695.528516 378.663793 C 1692.837891 375.179207 1694.421094 372.12917 1694.421094 372.12917 C 1694.421094 372.12917 1706.610938 370.973107 1705.823438 357.32173 C 1706.299219 369.661263 1713.575391 372.711301 1713.575391 372.711301 C 1713.575391 372.711301 1713.575391 379.541089 1721.491406 380.115021 C 1717.217578 376.630435 1718.169141 371.260073 1718.169141 371.260073 C 1718.169141 371.260073 1728.464063 364.438484 1719.752344 352.820465 C 1724.977734 350.057393 1729.251563 342.358508 1729.251563 342.358508 C 1729.251563 342.358508 1722.13125 339.603636 1718.800781 337.283311 C 1717.217578 334.225075 1718.644922 317.531859 1718.644922 317.531859 L 1714.371094 295.894631 L 1702.18125 329.584427 C 1702.648828 324.787997 1702.96875 344.104901 1685.709375 344.104901 Z M 1685.709375 344.104901 " transform="matrix(0.47619,0,0,0.476429,0,0)"/>
<path style="fill-rule:nonzero;fill:rgb(93.725491%,49.019608%,0%);fill-opacity:1;stroke-width:2.25;stroke-linecap:round;stroke-linejoin:round;stroke:rgb(0%,0%,0%);stroke-opacity:1;stroke-miterlimit:4;" d="M 1770.948047 295.517476 C 1771.325391 295.861835 1783.826953 308.717907 1795.951172 308.02099 C 1800.495703 304.552802 1786.476562 296.903111 1786.476562 295.164918 C 1791.398438 299.338222 1812.234375 315.67068 1825.498828 309.759183 C 1830.798047 302.814608 1816.024219 303.855885 1799.732813 285.088315 C 1811.102344 292.041089 1839.517969 307.332271 1852.774219 301.420774 C 1858.458984 295.861835 1823.226562 278.4881 1811.479688 264.935111 L 1781.169141 250.685204 L 1739.874609 281.611928 Z M 1724.346094 189.881231 C 1724.346094 189.881231 1738.365234 182.23154 1794.433594 186.052286 C 1800.495703 186.749204 1832.692969 175.975684 1842.930469 172.851855 C 1859.213672 170.072386 1911.123047 159.643225 1925.142188 149.919181 C 1934.985938 148.877905 1922.484375 166.595999 1909.982813 170.769303 C 1896.726562 176.328242 1848.607031 191.619425 1831.560938 189.528673 C 1852.019531 189.881231 1840.65 205.164215 1806.557813 197.867082 C 1822.849219 206.21369 1816.787109 207.599325 1816.787109 207.599325 C 1816.787109 207.599325 1787.994141 208.99316 1780.414453 203.081662 C 1799.741016 209.681878 1791.783984 212.116988 1791.783984 212.116988 C 1791.783984 212.116988 1772.080078 213.855182 1762.991016 210.034436 C 1777.001953 213.855182 1769.807813 216.290292 1769.807813 216.290292 C 1769.807813 216.290292 1758.438281 218.028486 1748.971875 214.896458 C 1739.497266 211.772629 1725.100781 189.881231 1724.346094 189.881231 Z M 1746.830859 302.71622 L 1748.889844 336.701181 C 1748.889844 336.701181 1747.774219 338.439374 1746.830859 339.456053 C 1745.879297 340.472732 1720.548047 335.823885 1724.026172 353.541979 C 1724.026172 360.806316 1724.190234 362.692091 1729.571484 366.758808 C 1728.144141 361.962378 1728.619922 358.625375 1728.619922 358.625375 C 1728.619922 358.625375 1735.740234 362.544509 1742.712891 351.803786 C 1737.963281 362.405126 1741.285547 366.176677 1742.392969 366.471842 C 1743.500391 368.357618 1740.498047 376.9256 1749.997266 376.778017 C 1746.355078 373.580397 1748.094141 368.939749 1748.094141 368.939749 C 1748.094141 368.939749 1758.069141 367.488521 1754.582813 350.92649 C 1758.225 347.589487 1759.652344 350.787106 1759.652344 350.787106 C 1759.652344 350.787106 1760.759766 360.658733 1769.471484 358.625375 C 1773.425391 360.658733 1768.839844 366.029095 1768.839844 366.029095 C 1768.839844 366.029095 1775.164453 366.176677 1777.067578 361.240864 C 1778.970703 356.305051 1781.185547 347.441904 1770.734766 343.817935 C 1769.471484 340.333349 1774.852734 340.038184 1774.852734 340.038184 C 1774.852734 340.038184 1781.505469 342.071542 1783.400391 345.12158 C 1785.303516 348.171617 1784.671875 337.135729 1776.435938 335.971467 C 1766.305078 335.684501 1765.665234 333.790527 1765.665234 333.355978 C 1765.665234 332.92143 1763.926172 308.668713 1763.138672 301.699541 Z M 1746.830859 302.71622 " transform="matrix(0.47619,0,0,0.476429,0,0)"/>
<path style="fill-rule:nonzero;fill:rgb(93.725491%,49.019608%,0%);fill-opacity:1;stroke-width:2.25;stroke-linecap:round;stroke-linejoin:round;stroke:rgb(0%,0%,0%);stroke-opacity:1;stroke-miterlimit:4;" d="M 1782.071484 331.675178 C 1782.194531 330.117363 1764.779297 308.619518 1769.200781 305.840049 C 1773.614063 306.66815 1780.857422 316.449588 1786.722656 313.276565 C 1784.942578 309.464018 1779.700781 311.612163 1773.753516 301.855322 C 1767.80625 290.819434 1766.936719 274.257403 1746.100781 256.194949 C 1759.586719 275.306878 1790.192578 286.514946 1791.488672 280.939608 C 1792.784766 275.364271 1764.541406 254.292775 1765.985156 249.20938 C 1771.604297 259.63854 1799.9625 282.890976 1820.855859 280.964205 C 1822.283203 276.487537 1803.744141 267.452211 1798.969922 259.023613 C 1785.623438 250.799991 1749.907031 222.554348 1749.193359 216.011525 C 1736.191406 198.621392 1728.078516 193.365817 1724.305078 191.357056 C 1722.844922 189.782843 1722.475781 188.274222 1722.188672 187.314936 C 1714.125 169.86741 1724.813672 164.201883 1731.064453 163.365583 C 1736.216016 162.840845 1737.708984 163.545961 1741.408594 161.906156 C 1737.028125 160.331943 1732.639453 158.856119 1728.258984 157.281906 C 1733.976562 161.127249 1748.578125 157.741051 1745.411719 168.826134 C 1751.818359 166.5878 1765.44375 151.722967 1729.973438 148.361366 C 1718.423438 136.218609 1670.960156 129.23304 1659.082031 182.256138 C 1660.033594 182.99405 1660.525781 183.608977 1663.544531 185.675131 C 1648.557422 179.009323 1608.124219 173.876734 1593.555469 171.712191 C 1554.188672 161.299428 1513.3125 136.194012 1509.383203 139.285045 C 1504.125 141.424991 1533.164062 166.202446 1531.654688 166.75178 C 1506.471094 153.280781 1483.469531 143.745315 1462.067578 135.062547 C 1447.014844 129.897161 1431.929297 117.877389 1430.264063 120.164918 C 1424.726953 130.692466 1454.405859 157.158921 1459.926563 160.27455 C 1465.455469 163.250796 1508.874609 181.7314 1508.234766 181.960973 C 1442.83125 154.732009 1431.863672 149.796196 1428.582422 146.655969 C 1422.815625 145.46711 1408.771875 128.076977 1404.858984 129.192045 C 1402.717969 131.118816 1407.016406 158.601949 1438.229297 170.933283 C 1443.315234 174.335879 1505.125781 194.677661 1504.51875 196.268272 C 1504.371094 196.670024 1433.725781 169.523051 1430.977734 168.555566 C 1417.360547 163.652549 1400.642578 146.483789 1397.517188 148.418759 C 1394.539453 150.165152 1405.228125 168.752343 1418.984766 174.58185 C 1426.203516 177.500703 1453.872656 190.078008 1478.810156 198.072058 C 1480.401562 198.604994 1433.988281 181.936376 1411.683984 173.384792 C 1401.561328 168.235804 1396.803516 161.815967 1395.261328 163.193403 C 1392.980859 164.579039 1398.944531 192.029376 1470.639844 207.525534 C 1472.526562 208.263446 1495.880859 202.450337 1494.724219 203.221046 C 1494.437109 203.417822 1471.533984 207.98468 1469.310938 207.828898 C 1467.325781 207.550131 1454.783203 209.189936 1454.553516 209.788465 C 1453.798828 211.649644 1459.098047 221.480275 1496.11875 219.430519 C 1500.851953 219.16815 1526.535938 210.846139 1524.378516 212.641726 C 1523.295703 213.53542 1489.400391 223.636619 1486.824609 223.833396 C 1484.576953 224.128561 1472.674219 225.268225 1472.23125 226.432487 C 1471.698047 228.014899 1481.049609 235.008668 1500.925781 236.131934 C 1518.529688 236.984633 1551.973828 226.268506 1551.301172 226.957225 C 1550.636719 227.654142 1519.062891 237.574963 1518.234375 238.18169 C 1517.094141 238.780219 1505.527734 239.354151 1505.125781 240.165855 C 1504.182422 242.191014 1521.802734 257.301818 1573.908984 241.174335 C 1568.675391 247.659764 1543.417969 252.095437 1543.450781 253.267897 C 1543.335938 254.112397 1549.020703 259.146599 1557.847266 260.950384 C 1562.26875 261.852277 1568.30625 261.663699 1573.835156 260.868394 C 1583.752734 259.04821 1594.203516 255.448838 1607.484375 244.191576 C 1609.067578 247.725356 1574.310938 263.861038 1575.943359 265.394256 C 1583.473828 271.805894 1608.517969 264.566154 1610.158594 263.729854 C 1611.799219 262.885354 1658.368359 238.796617 1658.2125 236.008949 C 1658.934375 239.583724 1598.165625 269.870924 1598.821875 271.108977 C 1602.718359 276.823698 1623.480469 270.813812 1624.473047 270.289074 C 1625.465625 269.764337 1650.969141 257.129638 1651.666406 256.752483 C 1652.363672 256.383527 1621.692188 273.216126 1624.423828 275.782421 C 1623.103125 286.711722 1672.321875 268.239318 1676.177344 265.935392 C 1678.105078 264.787528 1652.535938 276.249766 1652.470313 281.693919 C 1660.70625 294.468 1687.071094 290.409483 1691.139844 287.605416 C 1693.174219 286.195184 1688.744531 297.091689 1690.171875 296.099606 C 1690.664062 295.894631 1695.905859 290.212706 1697.923828 286.104994 C 1697.275781 289.67157 1694.388281 295.287903 1692.698438 301.740536 C 1691.008594 308.193169 1690.524609 315.465705 1688.211328 323.197386 C 1687.678125 326.591782 1704.461719 316.556175 1702.017188 292.565826 C 1703.460938 305.044743 1696.717969 328.37917 1698.481641 329.592626 C 1702.008984 332.019537 1711.754297 317.974606 1712.738672 308.471936 C 1715.634375 313.268366 1721.704688 323.287575 1726.930078 325.591501 C 1726.364063 318.335364 1727.036719 318.663325 1724.682422 311.530172 C 1726.035938 302.060298 1726.224609 288.950056 1726.552734 274.150815 C 1740.752344 299.10045 1746.420703 309.636198 1742.450391 328.739927 C 1746.675 330.355135 1753.417969 315.408311 1752.868359 307.709427 C 1758.290625 329.092485 1781.694141 332.298304 1782.071484 331.675178 Z M 1782.071484 331.675178 " transform="matrix(0.47619,0,0,0.476429,0,0)"/>
<path style="fill-rule:nonzero;fill:rgb(93.725491%,49.019608%,0%);fill-opacity:1;stroke-width:2.25;stroke-linecap:round;stroke-linejoin:round;stroke:rgb(0%,0%,0%);stroke-opacity:1;stroke-miterlimit:4;" d="M 1545.575391 173.286404 C 1545.575391 173.286404 1535.912109 179.985007 1523.886328 179.591454 C 1526.888672 190.619144 1551.801563 182.14955 1551.801563 182.14955 C 1551.801563 182.14955 1539.775781 194.366098 1531.187109 196.333864 C 1536.338672 200.277596 1558.027734 198.89196 1561.686328 196.924194 C 1565.336719 194.956428 1571.776172 187.273941 1571.776172 187.273941 C 1571.776172 187.273941 1549.439063 210.911732 1546.215234 210.714955 C 1545.788672 213.469828 1569.626953 212.485945 1574.565234 208.353636 C 1579.503516 204.213128 1591.964062 198.104854 1591.964062 198.104854 C 1591.964062 198.104854 1559.323828 218.987772 1557.814453 218.987772 C 1570.053516 221.939421 1594.539844 215.437594 1610.216016 206.574447 C 1587.025781 220.758761 1584.876563 223.316857 1573.064063 228.047695 C 1583.588672 230.212238 1588.953516 236.714065 1624.604297 222.529751 C 1645.013672 213.666604 1656.604688 197.514524 1656.604688 197.514524 C 1643.939063 213.076274 1623.964453 226.276705 1601.840625 239.272161 C 1600.552734 241.641679 1625.465625 251.291932 1657.252734 220.955538 M 1718.242969 239.075384 C 1718.242969 239.075384 1720.392188 248.332084 1728.980859 255.424241 C 1737.569531 262.516398 1738.217578 269.411778 1738.217578 269.411778 M 1713.944531 178.804348 C 1713.944531 178.804348 1716.955078 187.077165 1725.757031 192.398332 C 1734.780469 197.711301 1748.307422 214.453711 1749.382031 217.413559 C 1750.423828 220.988334 1755.608203 246.757871 1755.181641 249.520943 " transform="matrix(0.47619,0,0,0.476429,0,0)"/>
<path style="fill-rule:nonzero;fill:rgb(93.725491%,49.019608%,0%);fill-opacity:1;stroke-width:2.25;stroke-linecap:round;stroke-linejoin:round;stroke:rgb(0%,0%,0%);stroke-opacity:1;stroke-miterlimit:4;" d="M 1659.180469 191.603027 C 1659.828516 194.759651 1646.514844 210.714955 1664.766797 229.425131 C 1648.229297 247.938531 1648.229297 250.308049 1648.229297 250.308049 C 1648.229297 250.308049 1657.466016 255.030688 1674.003516 242.035232 C 1701.278906 272.76518 1692.189844 286.826509 1692.189844 286.826509 " transform="matrix(0.47619,0,0,0.476429,0,0)"/>
<path style="fill-rule:nonzero;fill:rgb(93.725491%,49.019608%,0%);fill-opacity:1;stroke-width:2.25;stroke-linecap:round;stroke-linejoin:round;stroke:rgb(0%,0%,0%);stroke-opacity:1;stroke-miterlimit:4;" d="M 1690.016016 265.131887 C 1690.016016 265.131887 1687.505859 261.82768 1691.984766 249.504545 C 1696.0125 253.956615 1700.499609 254.907702 1702.468359 256.711488 C 1704.428906 258.515274 1725.026953 261.253748 1726.33125 273.872048 M 1714.223438 149.435439 C 1714.223438 148.508949 1710.072656 140.342719 1694.609766 150.542307 C 1702.894922 151.009651 1711.089844 155.363334 1714.223438 149.435439 Z M 1861.871484 186.749204 C 1862.626172 187.101762 1908.087891 196.137088 1923.247266 191.619425 C 1903.920703 215.249016 1865.275781 199.260916 1865.275781 199.260916 C 1884.225 204.475497 1884.979688 204.122939 1891.041797 208.99316 C 1892.936719 213.510823 1856.186719 211.420071 1844.0625 205.164215 C 1877.777344 214.896458 1878.540234 214.199541 1879.672266 218.028486 C 1881.189844 223.234867 1824.358594 216.634651 1819.436719 209.681878 C 1834.596094 220.455397 1842.930469 222.53795 1851.264844 227.408171 C 1841.027344 231.573276 1822.086328 235.74658 1787.23125 213.158265 C 1833.070312 251.382121 1874.373047 248.947011 1880.8125 255.899784 C 1864.898438 277.446823 1803.145313 243.043713 1774.729688 225.669978 C 1746.314063 208.296243 1836.860156 267.71458 1845.202734 266.673304 C 1841.027344 272.576602 1811.102344 267.370221 1809.207422 264.590751 M 1873.610156 226.711254 C 1868.310938 227.408171 1852.396875 227.408171 1850.124609 227.063812 M 1532.261719 166.981353 C 1532.261719 166.981353 1566.837891 183.723763 1581.439453 182.543103 C 1577.575781 185.896505 1571.776172 187.273941 1571.776172 187.273941 C 1575.426563 188.651377 1585.516406 193.578992 1600.766016 190.422367 C 1597.115625 193.775768 1592.390625 197.514524 1592.390625 197.514524 C 1592.390625 197.514524 1605.491016 202.048585 1620.314063 194.956428 C 1615.802344 200.07262 1613.226562 203.819575 1613.226562 203.819575 L 1623.529688 204.409904 " transform="matrix(0.47619,0,0,0.476429,0,0)"/>
</g>
</svg>
