<?xml version="1.0" encoding="UTF-8"?>
<svg xmlns="http://www.w3.org/2000/svg" xmlns:xlink="http://www.w3.org/1999/xlink" width="1000px" height="667px" viewBox="0 0 1000 667" version="1.1">
<g id="surface1">
<rect x="0" y="0" width="1000" height="667" style="fill:rgb(0%,39.215687%,0%);fill-opacity:1;stroke:none;"/>
<path style=" stroke:none;fill-rule:nonzero;fill:rgb(100%,82.352942%,0%);fill-opacity:1;" d="M 0 95.285156 L 1000 95.285156 L 1000 571.714844 L 0 571.714844 Z M 0 95.285156 "/>
<path style=" stroke:none;fill-rule:nonzero;fill:rgb(83.137256%,0%,0%);fill-opacity:1;" d="M 0 190.570312 L 1000 190.570312 L 1000 476.429688 L 0 476.429688 Z M 0 190.570312 "/>
<path style=" stroke:none;fill-rule:nonzero;fill:rgb(0%,0%,0%);fill-opacity:1;" d="M 0 285.855469 L 1000 285.855469 L 1000 381.144531 L 0 381.144531 Z M 0 285.855469 "/>
<path style="fill-rule:nonzero;fill:rgb(0%,0%,0%);fill-opacity:1;stroke-width:30;stroke-linecap:butt;stroke-linejoin:miter;stroke:rgb(0%,0%,0%);stroke-opacity:1;stroke-miterlimit:4;" d="M 0 0 L 0 630 L 419.998359 315 Z M 0 0 " transform="matrix(0.793651,0,0,1.05873,0,0)"/>
<path style=" stroke:none;fill-rule:nonzero;fill:rgb(100%,100%,100%);fill-opacity:1;" d="M 0 0 L 0 667 L 333.332031 333.5 Z M 0 0 "/>
<path style=" stroke:none;fill-rule:nonzero;fill:rgb(83.137256%,0%,0%);fill-opacity:1;" d="M 126.808594 165.816406 L 192.832031 436.851562 L 19.984375 269.363281 L 233.636719 269.363281 L 60.785156 436.886719 Z M 126.808594 165.816406 "/>
<path style=" stroke:none;fill-rule:evenodd;fill:rgb(100%,82.352942%,0%);fill-opacity:1;" d="M 121.332031 231.511719 C 119.007812 227.960938 115.566406 226.074219 112.042969 226.421875 C 108.519531 226.765625 105.324219 229.304688 103.414062 233.269531 C 101.390625 233.207031 99.367188 233.40625 97.371094 233.863281 C 95.507812 234.292969 93.886719 235.828125 92.972656 238.039062 C 92.058594 240.253906 91.945312 242.898438 92.667969 245.234375 L 99.484375 244.695312 C 102.277344 246.792969 104.039062 250.691406 104.136719 254.964844 L 104.929688 291.097656 C 103.613281 294.726562 102.945312 298.714844 102.984375 302.742188 C 103.027344 307.597656 103.316406 312.445312 103.847656 317.25 C 104.390625 322.0625 103.214844 326.9375 100.675781 330.429688 C 96.707031 335.835938 93.257812 341.882812 90.414062 348.429688 C 88.214844 353.421875 88.574219 359.714844 91.316406 364.203125 L 99.078125 404.285156 L 157.371094 404.285156 L 160.609375 370.28125 C 161.984375 355.839844 168.15625 342.988281 177.421875 335.289062 L 179.714844 336.15625 C 181.253906 336.734375 182.882812 335.78125 183.605469 333.878906 C 184.332031 331.980469 183.945312 329.660156 182.691406 328.34375 L 127.546875 270.8125 L 126.09375 246.609375 C 125.761719 241.027344 124.09375 235.734375 121.332031 231.511719 "/>
<path style=" stroke:none;fill-rule:nonzero;fill:rgb(0%,0%,0%);fill-opacity:1;" d="M 120.769531 232.167969 L 120.722656 232.09375 L 121.839844 230.78125 L 121.890625 230.855469 Z M 120.722656 232.09375 C 120.417969 231.644531 120.09375 231.214844 119.753906 230.8125 L 120.730469 229.308594 C 121.125 229.769531 121.496094 230.261719 121.839844 230.78125 Z M 120.722656 229.308594 L 120.230469 230.0625 Z M 119.753906 230.804688 C 119.410156 230.421875 119.050781 230.066406 118.675781 229.746094 L 119.46875 228.082031 C 119.902344 228.464844 120.3125 228.886719 120.707031 229.34375 Z M 118.675781 229.746094 C 116.734375 228.027344 114.417969 227.222656 112.09375 227.457031 L 111.992188 225.457031 C 114.644531 225.199219 117.285156 226.121094 119.5 228.082031 Z M 112.09375 227.457031 L 112.023438 227.457031 L 111.921875 225.46875 L 111.992188 225.46875 Z M 111.914062 225.46875 L 111.96875 226.460938 Z M 112.03125 227.457031 C 111.574219 227.503906 111.121094 227.59375 110.675781 227.722656 L 110.363281 225.761719 C 110.875 225.621094 111.390625 225.519531 111.914062 225.46875 Z M 110.675781 227.722656 C 110.234375 227.847656 109.796875 228.007812 109.371094 228.210938 L 108.871094 226.335938 C 109.359375 226.101562 109.859375 225.910156 110.363281 225.761719 Z M 109.371094 228.210938 C 107.179688 229.246094 105.304688 231.226562 104.046875 233.839844 L 102.785156 232.78125 C 104.21875 229.792969 106.363281 227.527344 108.871094 226.347656 Z M 104.046875 233.839844 L 103.398438 234.308594 L 103.398438 233.300781 Z M 103.398438 234.308594 L 103.175781 234.308594 L 103.175781 232.316406 L 103.398438 232.316406 L 103.355469 234.316406 Z M 103.199219 234.308594 Z M 103.199219 234.308594 L 102.40625 234.308594 L 102.40625 232.304688 L 103.261719 232.304688 Z M 102.40625 234.308594 L 101.609375 234.308594 L 101.554688 232.316406 L 102.414062 232.316406 Z M 101.609375 234.308594 C 100.25 234.371094 98.894531 234.558594 97.554688 234.867188 L 97.308594 232.898438 C 98.714844 232.578125 100.132812 232.386719 101.554688 232.316406 Z M 97.554688 234.867188 L 97.222656 232.921875 L 97.46875 234.890625 Z M 97.269531 232.910156 L 97.398438 233.894531 L 97.261719 232.910156 Z M 97.53125 234.878906 C 97.304688 234.929688 97.078125 235 96.855469 235.089844 L 96.421875 233.183594 C 96.699219 233.070312 96.984375 232.976562 97.269531 232.910156 Z M 96.855469 235.089844 C 96.636719 235.183594 96.421875 235.292969 96.214844 235.417969 L 95.601562 233.597656 C 95.863281 233.441406 96.125 233.304688 96.398438 233.183594 Z M 95.59375 233.597656 L 95.898438 234.507812 Z M 96.222656 235.417969 C 95.148438 236.070312 94.261719 237.164062 93.691406 238.542969 L 92.382812 237.578125 C 93.09375 235.835938 94.207031 234.441406 95.554688 233.597656 Z M 92.371094 237.535156 L 93.023438 238.011719 Z M 93.691406 238.480469 L 93.691406 238.585938 L 92.371094 237.632812 L 92.371094 237.535156 Z M 92.332031 237.640625 L 92.992188 238.117188 L 92.332031 237.652344 Z M 93.652344 238.574219 C 93.542969 238.847656 93.449219 239.125 93.363281 239.410156 L 91.96875 238.703125 C 92.074219 238.339844 92.195312 237.984375 92.332031 237.640625 Z M 91.96875 238.710938 L 92.667969 239.070312 L 91.96875 238.722656 Z M 93.363281 239.410156 C 93.285156 239.699219 93.214844 239.992188 93.160156 240.289062 L 91.714844 239.8125 C 91.78125 239.453125 91.867188 239.097656 91.96875 238.753906 Z M 91.714844 239.8125 L 92.4375 240.046875 Z M 93.160156 240.277344 C 92.886719 241.792969 92.976562 243.382812 93.421875 244.820312 L 92.039062 245.574219 C 91.476562 243.746094 91.359375 241.730469 91.714844 239.8125 Z M 92.769531 246.195312 L 92.039062 245.574219 L 92.730469 245.191406 Z M 92.683594 244.195312 L 99.5 243.65625 L 99.585938 245.65625 L 92.769531 246.195312 Z M 99.5 243.65625 L 99.90625 243.785156 L 99.546875 244.660156 Z M 99.90625 243.785156 L 100.078125 243.921875 L 99.285156 245.636719 L 99.152344 245.53125 L 99.871094 243.785156 Z M 100.078125 243.921875 C 100.488281 244.234375 100.882812 244.589844 101.253906 244.980469 L 100.316406 246.535156 C 100.003906 246.191406 99.667969 245.886719 99.316406 245.613281 Z M 101.253906 244.980469 C 101.617188 245.378906 101.964844 245.8125 102.285156 246.269531 L 101.199219 247.625 C 100.925781 247.246094 100.628906 246.890625 100.316406 246.566406 Z M 102.285156 246.269531 C 103.929688 248.617188 104.871094 251.679688 104.9375 254.890625 L 103.445312 254.890625 C 103.382812 252.167969 102.585938 249.570312 101.199219 247.574219 Z M 104.9375 254.890625 L 105.730469 291.023438 L 104.238281 291.078125 L 103.445312 254.941406 Z M 105.730469 291.023438 L 105.660156 291.480469 L 104.984375 291.042969 L 105.730469 291.042969 Z M 105.660156 291.480469 C 105.609375 291.605469 105.546875 291.777344 105.492188 291.957031 L 104.136719 291.117188 C 104.183594 290.972656 104.238281 290.824219 104.308594 290.621094 Z M 104.136719 291.117188 L 104.808594 291.53125 Z M 105.492188 291.945312 C 105.324219 292.433594 105.167969 292.929688 105.023438 293.425781 L 103.636719 292.71875 C 103.785156 292.1875 103.953125 291.660156 104.136719 291.117188 Z M 103.628906 292.71875 L 104.324219 293.066406 Z M 105.023438 293.425781 C 104.882812 293.925781 104.753906 294.433594 104.636719 294.941406 L 103.207031 294.347656 C 103.332031 293.796875 103.476562 293.289062 103.628906 292.71875 Z M 104.636719 294.941406 C 104.046875 297.449219 103.761719 300.0625 103.785156 302.691406 L 102.292969 302.691406 C 102.261719 299.855469 102.570312 297.03125 103.207031 294.328125 L 104.636719 294.917969 Z M 103.707031 302.796875 L 103.707031 303.316406 L 102.207031 303.316406 L 102.207031 302.796875 Z M 103.707031 303.316406 L 103.707031 305.316406 L 102.214844 305.390625 C 102.214844 304.722656 102.214844 304.046875 102.167969 303.347656 L 103.667969 303.347656 Z M 103.707031 305.316406 C 103.707031 305.953125 103.730469 306.617188 103.777344 307.316406 L 102.277344 307.421875 C 102.277344 306.777344 102.230469 306.089844 102.214844 305.390625 Z M 103.777344 307.316406 C 103.914062 310.628906 104.160156 313.910156 104.515625 317.164062 L 103.039062 317.449219 C 102.667969 314.113281 102.414062 310.757812 102.246094 307.421875 Z M 104.515625 317.164062 L 104.515625 317.214844 L 103.039062 317.503906 Z M 104.515625 317.214844 L 103.777344 317.355469 Z M 104.515625 317.214844 C 104.59375 317.917969 104.632812 318.625 104.644531 319.335938 L 103.152344 319.335938 C 103.140625 318.699219 103.105469 318.066406 103.039062 317.4375 L 104.515625 317.164062 Z M 104.644531 319.335938 C 104.652344 320.042969 104.625 320.75 104.5625 321.453125 L 103.175781 321.21875 C 103.222656 320.59375 103.246094 319.964844 103.246094 319.335938 L 104.738281 319.335938 Z M 104.5625 321.453125 C 104.242188 325.109375 103.019531 328.519531 101.085938 331.148438 L 100.023438 329.753906 C 101.757812 327.457031 102.867188 324.453125 103.175781 321.21875 Z M 101.085938 331.148438 L 100.554688 330.441406 Z M 101.085938 331.148438 C 101.085938 331.148438 101.214844 330.925781 101.175781 331.011719 L 99.929688 329.953125 C 99.957031 329.894531 99.992188 329.839844 100.03125 329.792969 Z M 101.175781 331.011719 L 101.085938 331.148438 L 100.554688 330.449219 Z M 101.085938 331.148438 C 100.558594 331.855469 100.027344 332.617188 99.5 333.4375 L 98.414062 332.082031 C 98.921875 331.339844 99.46875 330.566406 100.070312 329.753906 Z M 98.363281 332.082031 L 98.921875 332.757812 Z M 99.46875 333.425781 C 98.929688 334.21875 98.414062 335.003906 97.882812 335.777344 L 96.824219 334.484375 C 97.355469 333.660156 97.890625 332.855469 98.414062 332.082031 Z M 96.777344 334.484375 L 97.347656 335.128906 Z M 97.921875 335.777344 C 95.304688 339.867188 92.972656 344.257812 90.945312 348.90625 L 89.652344 347.910156 C 91.730469 343.160156 94.121094 338.667969 96.792969 334.484375 Z M 89.683594 347.910156 L 90.332031 348.40625 Z M 90.976562 348.90625 L 90.976562 348.96875 L 89.675781 347.972656 L 89.675781 347.910156 Z M 90.976562 348.96875 C 90.699219 349.613281 90.460938 350.289062 90.269531 350.988281 L 88.863281 350.3125 C 89.078125 349.503906 89.34375 348.722656 89.660156 347.972656 Z M 90.269531 350.988281 C 90.082031 351.679688 89.9375 352.386719 89.839844 353.109375 L 88.371094 352.757812 C 88.484375 351.929688 88.648438 351.113281 88.863281 350.324219 Z M 89.839844 353.109375 C 89.339844 356.832031 90.089844 360.660156 91.898438 363.578125 L 90.746094 364.847656 C 88.65625 361.484375 87.785156 357.058594 88.363281 352.757812 Z M 91.898438 363.578125 L 92.039062 363.960938 L 91.316406 364.214844 Z M 92.039062 363.960938 L 99.808594 404.054688 L 98.363281 404.550781 L 90.59375 364.46875 Z M 99.085938 405.304688 L 98.363281 404.550781 L 99.085938 404.296875 Z M 99.085938 403.300781 L 157.382812 403.300781 L 157.382812 405.304688 L 99.085938 405.304688 Z M 158.117188 404.433594 L 157.382812 405.3125 L 157.382812 404.308594 Z M 156.644531 404.191406 L 159.871094 370.175781 L 161.355469 370.417969 L 158.117188 404.433594 Z M 161.355469 370.417969 L 160.617188 370.300781 Z M 159.871094 370.175781 L 159.871094 370.121094 L 161.355469 370.375 C 161.355469 370.640625 161.355469 370.257812 161.355469 370.375 L 159.871094 370.132812 Z M 161.355469 370.375 L 160.617188 370.25 L 161.355469 370.363281 Z M 159.882812 370.121094 C 160.078125 368.074219 160.367188 366.042969 160.753906 364.042969 L 162.207031 364.53125 C 161.832031 366.453125 161.550781 368.40625 161.355469 370.375 Z M 160.753906 364.042969 C 161.140625 362.0625 161.613281 360.117188 162.175781 358.210938 L 163.570312 358.941406 C 163.03125 360.765625 162.574219 362.632812 162.207031 364.53125 Z M 162.175781 358.210938 C 165.09375 348.382812 170.296875 340.0625 177.023438 334.472656 L 177.816406 336.15625 C 171.347656 341.511719 166.339844 349.5 163.53125 358.941406 Z M 177.023438 334.472656 L 177.628906 334.359375 L 177.421875 335.308594 Z M 177.628906 334.359375 L 179.921875 335.226562 L 179.515625 337.140625 L 177.222656 336.273438 Z M 179.921875 335.226562 L 179.714844 336.1875 Z M 179.921875 335.226562 L 179.515625 337.140625 Z M 179.53125 337.152344 L 179.730469 336.1875 Z M 179.9375 335.226562 C 180.097656 335.289062 180.265625 335.328125 180.4375 335.34375 L 180.324219 337.34375 C 180.058594 337.308594 179.792969 337.242188 179.53125 337.152344 Z M 180.4375 335.34375 C 180.601562 335.359375 180.769531 335.359375 180.9375 335.34375 L 181.109375 337.320312 C 180.847656 337.355469 180.582031 337.355469 180.316406 337.320312 Z M 180.9375 335.34375 C 181.800781 335.203125 182.554688 334.5 182.953125 333.46875 L 184.285156 334.367188 C 183.664062 336 182.472656 337.105469 181.109375 337.320312 Z M 184.285156 334.359375 L 183.617188 333.902344 Z M 182.945312 333.46875 L 184.277344 334.359375 Z M 182.945312 333.46875 C 183.023438 333.265625 183.082031 333.054688 183.128906 332.832031 L 184.5625 333.363281 C 184.492188 333.707031 184.394531 334.039062 184.277344 334.359375 Z M 184.570312 333.351562 L 183.855469 333.085938 Z M 183.128906 332.832031 C 183.167969 332.617188 183.195312 332.398438 183.207031 332.175781 L 184.707031 332.324219 C 184.6875 332.683594 184.644531 333.039062 184.570312 333.382812 Z M 184.714844 332.3125 L 183.96875 332.238281 Z M 183.214844 332.175781 C 183.28125 331.019531 182.914062 329.898438 182.230469 329.179688 L 183.144531 327.613281 C 184.230469 328.726562 184.824219 330.492188 184.730469 332.3125 Z M 182.230469 329.179688 L 127.078125 271.660156 L 128 270.082031 L 183.144531 327.613281 Z M 127.078125 271.660156 L 126.792969 270.949219 L 127.539062 270.867188 Z M 126.792969 270.949219 L 125.347656 246.683594 L 126.847656 246.523438 L 128.300781 270.738281 Z M 125.347656 246.683594 L 125.347656 246.597656 L 126.847656 246.441406 L 126.847656 246.523438 Z M 126.839844 246.441406 L 126.09375 246.523438 Z M 125.347656 246.597656 C 125.300781 245.816406 125.230469 245.074219 125.136719 244.367188 L 126.609375 244.039062 C 126.714844 244.863281 126.792969 245.667969 126.839844 246.441406 Z M 125.136719 244.367188 C 125.039062 243.628906 124.917969 242.902344 124.769531 242.183594 L 126.214844 241.664062 C 126.371094 242.4375 126.507812 243.234375 126.609375 244.039062 Z M 124.769531 242.183594 C 124.035156 238.484375 122.679688 235.058594 120.800781 232.167969 L 121.929688 230.855469 C 123.949219 233.980469 125.40625 237.675781 126.191406 241.664062 "/>
<path style=" stroke:none;fill-rule:nonzero;fill:rgb(0%,0%,0%);fill-opacity:1;" d="M 121.183594 297.207031 L 119.746094 296.625 L 119.746094 296.507812 L 121.160156 297.164062 Z M 121.183594 297.207031 L 120.46875 296.898438 Z M 121.183594 297.207031 C 121.050781 297.726562 120.941406 298.257812 120.855469 298.792969 L 119.398438 298.390625 C 119.488281 297.777344 119.609375 297.175781 119.761719 296.582031 Z M 120.855469 298.792969 C 120.769531 299.328125 120.710938 299.871094 120.675781 300.414062 L 119.191406 300.234375 C 119.230469 299.617188 119.300781 299 119.398438 298.390625 Z M 120.675781 300.414062 C 120.472656 303.207031 120.890625 306.015625 121.871094 308.492188 L 120.546875 309.425781 C 119.4375 306.601562 118.964844 303.410156 119.191406 300.234375 Z M 121.871094 308.492188 L 120.546875 309.425781 Z M 121.871094 308.492188 C 122.0625 308.984375 122.277344 309.457031 122.515625 309.910156 L 121.277344 311.035156 C 121.011719 310.515625 120.769531 309.976562 120.546875 309.425781 Z M 122.515625 309.910156 C 122.746094 310.363281 122.996094 310.796875 123.261719 311.214844 L 122.136719 312.503906 C 121.828125 312.039062 121.539062 311.546875 121.277344 311.035156 Z M 123.261719 311.214844 C 124.644531 313.34375 126.46875 314.882812 128.5 315.648438 L 128.09375 317.578125 C 125.777344 316.703125 123.707031 314.941406 122.136719 312.503906 "/>
<path style=" stroke:none;fill-rule:nonzero;fill:rgb(0%,0%,0%);fill-opacity:1;" d="M 127.96875 271.636719 L 105.332031 292.273438 L 104.484375 290.632812 L 127.128906 269.976562 "/>
<path style=" stroke:none;fill-rule:evenodd;fill:rgb(100%,82.352942%,0%);fill-opacity:1;" d="M 115.507812 238.914062 C 115.507812 236.726562 114.179688 234.953125 112.539062 234.953125 C 110.898438 234.953125 109.570312 236.726562 109.570312 238.914062 C 109.570312 241.101562 110.898438 242.871094 112.539062 242.871094 C 114.179688 242.871094 115.507812 241.101562 115.507812 238.914062 "/>
<path style=" stroke:none;fill-rule:nonzero;fill:rgb(0%,0%,0%);fill-opacity:1;" d="M 114.761719 238.914062 Z M 114.761719 238.914062 C 114.769531 238.117188 114.535156 237.351562 114.109375 236.796875 L 115.167969 235.375 C 115.867188 236.304688 116.261719 237.566406 116.261719 238.882812 Z M 114.109375 236.796875 C 113.691406 236.230469 113.121094 235.914062 112.523438 235.925781 L 112.523438 233.980469 C 113.503906 233.980469 114.441406 234.503906 115.136719 235.429688 L 114.085938 236.847656 Z M 112.523438 233.925781 Z M 112.523438 235.925781 L 112.523438 233.980469 Z M 112.523438 235.925781 L 112.523438 233.980469 Z M 112.523438 235.925781 C 111.929688 235.914062 111.355469 236.230469 110.9375 236.796875 L 109.882812 235.386719 C 110.574219 234.453125 111.515625 233.929688 112.5 233.925781 Z M 110.9375 236.796875 C 110.519531 237.359375 110.285156 238.121094 110.285156 238.914062 L 108.792969 238.914062 C 108.789062 237.605469 109.183594 236.347656 109.882812 235.429688 L 110.9375 236.828125 Z M 108.792969 238.914062 Z M 110.285156 238.914062 L 108.792969 238.914062 Z M 110.285156 238.914062 Z M 110.285156 238.914062 C 110.28125 239.707031 110.515625 240.46875 110.9375 241.03125 L 109.914062 242.449219 C 109.21875 241.519531 108.828125 240.257812 108.824219 238.945312 Z M 110.9375 241.03125 C 111.359375 241.589844 111.929688 241.902344 112.523438 241.898438 L 112.523438 243.890625 C 111.542969 243.886719 110.605469 243.363281 109.914062 242.4375 L 110.96875 241.03125 Z M 112.523438 243.890625 Z M 112.523438 241.898438 L 112.523438 243.890625 Z M 112.523438 241.898438 L 112.523438 243.890625 Z M 112.523438 241.898438 C 113.117188 241.902344 113.6875 241.589844 114.109375 241.03125 L 115.175781 242.429688 C 114.480469 243.363281 113.535156 243.886719 112.546875 243.890625 Z M 114.109375 241.03125 C 114.53125 240.46875 114.765625 239.707031 114.761719 238.914062 L 116.261719 238.914062 C 116.253906 240.21875 115.863281 241.46875 115.175781 242.394531 L 114.109375 240.988281 Z M 116.261719 238.914062 Z M 114.761719 238.914062 L 116.261719 238.914062 "/>
<path style=" stroke:none;fill-rule:nonzero;fill:rgb(0%,0%,0%);fill-opacity:1;" d="M 109.523438 333.5 L 109.578125 333.5 L 110.246094 335.289062 L 110.199219 335.289062 Z M 110.246094 335.246094 L 109.914062 334.359375 Z M 109.523438 333.5 C 110.128906 333.09375 110.703125 332.621094 111.246094 332.082031 L 112.136719 333.679688 C 111.523438 334.289062 110.871094 334.824219 110.191406 335.277344 Z M 111.246094 332.082031 C 111.792969 331.554688 112.304688 330.964844 112.777344 330.324219 L 113.847656 331.710938 C 113.332031 332.429688 112.769531 333.089844 112.167969 333.679688 Z M 112.777344 330.324219 C 115.164062 327.003906 116.359375 322.476562 116.0625 317.894531 L 117.5625 317.726562 C 117.890625 322.882812 116.539062 327.976562 113.847656 331.710938 "/>
<path style=" stroke:none;fill-rule:nonzero;fill:rgb(0%,0%,0%);fill-opacity:1;" d="M 119.777344 312.421875 L 119.722656 312.421875 L 119.054688 310.632812 L 119.109375 310.632812 Z M 119.046875 310.671875 L 119.382812 311.574219 Z M 119.730469 312.453125 C 119.527344 312.585938 119.332031 312.746094 119.152344 312.929688 L 118.253906 311.332031 C 118.503906 311.082031 118.769531 310.859375 119.046875 310.671875 Z M 119.152344 312.929688 C 118.972656 313.105469 118.804688 313.304688 118.652344 313.523438 L 117.570312 312.144531 C 117.785156 311.851562 118.011719 311.578125 118.253906 311.332031 Z M 118.652344 313.523438 C 117.855469 314.640625 117.460938 316.160156 117.5625 317.691406 L 116.0625 317.863281 C 115.925781 315.753906 116.472656 313.671875 117.570312 312.144531 "/>
<path style=" stroke:none;fill-rule:nonzero;fill:rgb(0%,0%,0%);fill-opacity:1;" d="M 128.183594 341.714844 L 127.628906 339.875 Z M 128.183594 341.714844 L 125.800781 343.027344 L 125.230469 341.1875 L 127.609375 339.875 Z M 125.800781 343.027344 C 125.007812 343.460938 124.214844 343.917969 123.421875 344.363281 L 122.832031 342.53125 C 123.628906 342.074219 124.421875 341.621094 125.214844 341.1875 Z M 123.421875 344.363281 C 119.351562 346.675781 115.324219 349.148438 111.332031 351.773438 L 110.675781 349.984375 C 114.675781 347.367188 118.726562 344.894531 122.832031 342.574219 "/>
<path style=" stroke:none;fill-rule:nonzero;fill:rgb(0%,0%,0%);fill-opacity:1;" d="M 127.636719 339.851562 L 128.175781 341.714844 Z M 128.214844 341.695312 L 127.945312 340.773438 Z M 127.652344 339.839844 C 128.488281 339.394531 129.300781 338.863281 130.078125 338.253906 L 130.832031 339.980469 C 129.992188 340.632812 129.117188 341.207031 128.214844 341.695312 Z M 130.078125 338.253906 C 130.851562 337.660156 131.585938 336.992188 132.285156 336.253906 L 133.222656 337.820312 C 132.464844 338.59375 131.667969 339.304688 130.839844 339.9375 Z M 132.285156 336.253906 C 135.910156 332.429688 138.371094 326.984375 139.207031 320.921875 L 140.675781 321.28125 C 139.78125 327.820312 137.132812 333.699219 133.222656 337.820312 "/>
<path style=" stroke:none;fill-rule:nonzero;fill:rgb(0%,0%,0%);fill-opacity:1;" d="M 120.269531 344.085938 L 168.921875 344.085938 L 168.921875 346.089844 L 120.269531 346.089844 "/>
<path style=" stroke:none;fill-rule:evenodd;fill:rgb(100%,82.352942%,0%);fill-opacity:1;" d="M 131.484375 357.257812 C 131.484375 353.101562 128.957031 349.730469 125.839844 349.730469 C 122.726562 349.730469 120.199219 353.101562 120.199219 357.257812 C 120.199219 361.414062 122.726562 364.785156 125.839844 364.785156 C 128.957031 364.785156 131.484375 361.414062 131.484375 357.257812 "/>
<path style=" stroke:none;fill-rule:nonzero;fill:rgb(0%,0%,0%);fill-opacity:1;" d="M 130.738281 357.257812 Z M 130.738281 357.257812 C 130.734375 355.53125 130.21875 353.871094 129.300781 352.652344 L 130.355469 351.234375 C 131.558594 352.828125 132.234375 354.996094 132.230469 357.257812 Z M 130.355469 351.234375 L 129.824219 351.941406 Z M 129.300781 352.652344 C 128.390625 351.433594 127.148438 350.746094 125.855469 350.746094 L 125.855469 348.746094 C 127.546875 348.742188 129.164062 349.640625 130.355469 351.234375 Z M 125.855469 350.746094 L 125.855469 348.746094 Z M 125.855469 350.746094 L 125.855469 348.746094 Z M 125.855469 350.746094 C 124.558594 350.742188 123.3125 351.429688 122.398438 352.652344 L 121.339844 351.246094 C 122.535156 349.640625 124.164062 348.742188 125.855469 348.746094 Z M 122.398438 352.652344 C 121.480469 353.871094 120.96875 355.523438 120.96875 357.246094 L 119.46875 357.246094 C 119.476562 354.996094 120.148438 352.835938 121.339844 351.246094 Z M 120.96875 357.246094 L 119.46875 357.246094 Z M 120.96875 357.246094 Z M 120.96875 357.246094 C 120.96875 358.976562 121.480469 360.632812 122.398438 361.851562 L 121.347656 363.273438 C 120.152344 361.671875 119.476562 359.507812 119.46875 357.246094 Z M 122.398438 361.851562 C 123.3125 363.074219 124.554688 363.757812 125.847656 363.757812 L 125.847656 365.757812 C 124.160156 365.761719 122.542969 364.867188 121.347656 363.273438 Z M 125.847656 363.757812 L 125.847656 365.757812 Z M 125.847656 363.757812 L 125.847656 365.757812 Z M 125.847656 363.757812 C 127.144531 363.761719 128.386719 363.074219 129.300781 361.851562 L 130.363281 363.261719 C 129.167969 364.859375 127.542969 365.757812 125.847656 365.757812 Z M 130.363281 363.261719 L 129.832031 362.550781 L 130.363281 363.25 Z M 129.300781 361.851562 C 130.214844 360.632812 130.730469 358.980469 130.738281 357.257812 L 132.230469 357.257812 C 132.230469 359.511719 131.558594 361.671875 130.363281 363.261719 Z M 130.738281 357.257812 L 132.230469 357.257812 "/>
<path style=" stroke:none;fill-rule:evenodd;fill:rgb(100%,82.352942%,0%);fill-opacity:1;" d="M 153.96875 357.257812 C 153.96875 353.101562 151.441406 349.730469 148.324219 349.730469 C 145.207031 349.730469 142.683594 353.101562 142.683594 357.257812 C 142.683594 361.414062 145.207031 364.785156 148.324219 364.785156 C 151.441406 364.78125 153.964844 361.414062 153.96875 357.257812 "/>
<path style=" stroke:none;fill-rule:nonzero;fill:rgb(0%,0%,0%);fill-opacity:1;" d="M 153.175781 357.257812 Z M 153.175781 357.257812 C 153.175781 355.527344 152.660156 353.871094 151.738281 352.652344 L 152.800781 351.234375 C 154 352.832031 154.671875 355 154.675781 357.257812 Z M 152.800781 351.234375 L 152.269531 351.941406 L 152.792969 351.234375 Z M 151.746094 352.652344 C 150.832031 351.433594 149.59375 350.746094 148.300781 350.746094 L 148.300781 348.746094 C 149.988281 348.742188 151.609375 349.640625 152.800781 351.234375 Z M 148.300781 350.746094 L 148.300781 348.746094 Z M 148.300781 350.746094 L 148.300781 348.746094 Z M 148.300781 350.746094 C 147.007812 350.746094 145.765625 351.429688 144.847656 352.652344 L 143.785156 351.246094 C 144.984375 349.648438 146.609375 348.75 148.300781 348.746094 Z M 144.847656 352.652344 C 143.933594 353.871094 143.421875 355.523438 143.421875 357.246094 L 141.921875 357.246094 C 141.917969 354.996094 142.589844 352.835938 143.785156 351.246094 Z M 143.421875 357.246094 L 141.921875 357.246094 Z M 143.421875 357.246094 Z M 143.421875 357.246094 C 143.417969 358.976562 143.933594 360.632812 144.847656 361.851562 L 143.792969 363.273438 C 142.589844 361.675781 141.917969 359.507812 141.921875 357.246094 Z M 144.847656 361.851562 C 145.761719 363.074219 147 363.757812 148.292969 363.757812 L 148.292969 365.757812 C 146.605469 365.761719 144.984375 364.867188 143.792969 363.273438 Z M 148.292969 363.757812 L 148.292969 365.757812 Z M 148.292969 363.757812 L 148.292969 365.757812 Z M 148.292969 363.757812 C 149.589844 363.757812 150.832031 363.074219 151.746094 361.851562 L 152.800781 363.261719 C 151.609375 364.863281 149.984375 365.761719 148.292969 365.757812 Z M 152.800781 363.261719 L 152.277344 362.550781 L 152.800781 363.25 Z M 151.746094 361.851562 C 152.660156 360.636719 153.175781 358.980469 153.175781 357.257812 L 154.675781 357.257812 C 154.675781 359.511719 154 361.671875 152.800781 363.261719 Z M 153.175781 357.257812 L 154.675781 357.257812 "/>
<path style=" stroke:none;fill-rule:nonzero;fill:rgb(0%,0%,0%);fill-opacity:1;" d="M 136.832031 330.664062 L 137.628906 330.960938 L 137.246094 332.886719 L 136.453125 332.578125 Z M 137.628906 330.960938 C 138.046875 331.105469 138.421875 331.246094 138.824219 331.363281 L 138.5 333.300781 C 138.0625 333.171875 137.644531 333.035156 137.246094 332.886719 Z M 138.824219 331.363281 C 139.230469 331.476562 139.617188 331.59375 140.03125 331.691406 L 139.761719 333.648438 C 139.332031 333.542969 138.914062 333.425781 138.5 333.300781 Z M 140.03125 331.691406 C 141.917969 332.152344 143.835938 332.375 145.753906 332.355469 L 145.753906 334.359375 C 143.742188 334.371094 141.734375 334.132812 139.753906 333.648438 "/>
<path style=" stroke:none;fill-rule:nonzero;fill:rgb(0%,0%,0%);fill-opacity:1;" d="M 145.746094 332.355469 C 146.007812 332.355469 146.261719 332.355469 146.539062 332.304688 L 146.691406 334.292969 C 146.382812 334.292969 146.078125 334.359375 145.792969 334.359375 L 145.792969 332.355469 Z M 146.539062 332.304688 L 146.609375 333.300781 L 146.53125 332.304688 Z M 146.539062 332.304688 C 146.960938 332.246094 147.382812 332.148438 147.792969 332.007812 L 148.175781 333.933594 C 147.683594 334.101562 147.1875 334.222656 146.683594 334.292969 Z M 147.792969 332.007812 C 148.199219 331.863281 148.59375 331.671875 148.976562 331.445312 L 149.578125 333.277344 C 149.125 333.546875 148.65625 333.765625 148.175781 333.933594 Z M 148.976562 331.445312 C 150.820312 330.367188 152.292969 328.402344 153.101562 325.941406 L 154.46875 326.734375 C 153.511719 329.65625 151.765625 331.992188 149.578125 333.277344 "/>
<path style=" stroke:none;fill-rule:nonzero;fill:rgb(0%,0%,0%);fill-opacity:1;" d="M 177.214844 336.253906 L 128.085938 317.617188 L 128.492188 315.691406 L 177.617188 334.292969 "/>
<path style=" stroke:none;fill-rule:nonzero;fill:rgb(0%,0%,0%);fill-opacity:1;" d="M 92.300781 368.3125 L 160.714844 368.3125 L 160.714844 370.300781 L 92.300781 370.300781 "/>
<path style=" stroke:none;fill-rule:nonzero;fill:rgb(0%,0%,0%);fill-opacity:1;" d="M 108.09375 388.140625 L 158.816406 388.140625 L 158.816406 390.132812 L 108.09375 390.132812 "/>
<path style=" stroke:none;fill-rule:nonzero;fill:rgb(0%,0%,0%);fill-opacity:1;" d="M 131.808594 381.355469 L 126.253906 388.636719 L 125.207031 387.21875 L 130.761719 379.9375 "/>
<path style=" stroke:none;fill-rule:nonzero;fill:rgb(0%,0%,0%);fill-opacity:1;" d="M 121.261719 380.644531 L 126.816406 387.929688 L 125.769531 389.347656 L 120.214844 382.0625 "/>
<path style=" stroke:none;fill-rule:nonzero;fill:rgb(0%,0%,0%);fill-opacity:1;" d="M 121.785156 381.355469 L 116.230469 388.636719 L 115.183594 387.21875 L 120.738281 379.9375 "/>
<path style=" stroke:none;fill-rule:nonzero;fill:rgb(0%,0%,0%);fill-opacity:1;" d="M 111.238281 380.644531 L 116.792969 387.929688 L 115.746094 389.347656 L 110.191406 382.0625 "/>
<path style=" stroke:none;fill-rule:nonzero;fill:rgb(0%,0%,0%);fill-opacity:1;" d="M 141.832031 381.355469 L 136.277344 388.636719 L 135.230469 387.21875 L 140.785156 379.9375 "/>
<path style=" stroke:none;fill-rule:nonzero;fill:rgb(0%,0%,0%);fill-opacity:1;" d="M 131.285156 380.644531 L 136.839844 387.21875 L 135.792969 388.636719 L 130.238281 382.0625 "/>
<path style=" stroke:none;fill-rule:nonzero;fill:rgb(0%,0%,0%);fill-opacity:1;" d="M 151.855469 381.355469 L 146.300781 388.636719 L 145.238281 387.21875 L 150.792969 379.9375 "/>
<path style=" stroke:none;fill-rule:nonzero;fill:rgb(0%,0%,0%);fill-opacity:1;" d="M 141.308594 380.644531 L 146.863281 387.21875 L 145.824219 388.636719 L 140.269531 382.0625 "/>
<path style=" stroke:none;fill-rule:nonzero;fill:rgb(0%,0%,0%);fill-opacity:1;" d="M 159.898438 383.980469 L 156.339844 388.636719 L 155.300781 387.21875 L 158.847656 382.5625 "/>
<path style=" stroke:none;fill-rule:nonzero;fill:rgb(0%,0%,0%);fill-opacity:1;" d="M 151.332031 380.644531 L 156.890625 387.929688 L 155.847656 389.347656 L 150.292969 382.0625 "/>
<path style=" stroke:none;fill-rule:nonzero;fill:rgb(0%,0%,0%);fill-opacity:1;" d="M 131.808594 371.222656 L 126.253906 378.507812 L 125.207031 377.089844 L 130.761719 369.804688 "/>
<path style=" stroke:none;fill-rule:nonzero;fill:rgb(0%,0%,0%);fill-opacity:1;" d="M 121.261719 370.554688 L 126.816406 377.839844 L 125.769531 379.257812 L 120.214844 371.972656 "/>
<path style=" stroke:none;fill-rule:nonzero;fill:rgb(0%,0%,0%);fill-opacity:1;" d="M 121.785156 371.222656 L 116.230469 378.507812 L 115.183594 377.089844 L 120.738281 369.804688 "/>
<path style=" stroke:none;fill-rule:nonzero;fill:rgb(0%,0%,0%);fill-opacity:1;" d="M 111.238281 370.554688 L 116.792969 377.839844 L 115.746094 379.257812 L 110.191406 371.972656 "/>
<path style=" stroke:none;fill-rule:nonzero;fill:rgb(0%,0%,0%);fill-opacity:1;" d="M 141.832031 371.222656 L 136.277344 378.507812 L 135.230469 377.089844 L 140.785156 369.804688 "/>
<path style=" stroke:none;fill-rule:nonzero;fill:rgb(0%,0%,0%);fill-opacity:1;" d="M 131.285156 370.554688 L 136.839844 377.839844 L 135.792969 379.257812 L 130.238281 371.972656 "/>
<path style=" stroke:none;fill-rule:nonzero;fill:rgb(0%,0%,0%);fill-opacity:1;" d="M 151.855469 371.222656 L 146.300781 378.507812 L 145.238281 377.089844 L 150.792969 369.804688 "/>
<path style=" stroke:none;fill-rule:nonzero;fill:rgb(0%,0%,0%);fill-opacity:1;" d="M 141.308594 370.554688 L 146.863281 377.839844 L 145.824219 379.257812 L 140.269531 371.972656 "/>
<path style=" stroke:none;fill-rule:nonzero;fill:rgb(0%,0%,0%);fill-opacity:1;" d="M 161 372.410156 L 156.347656 378.507812 L 155.308594 377.089844 L 159.960938 370.988281 "/>
<path style=" stroke:none;fill-rule:nonzero;fill:rgb(0%,0%,0%);fill-opacity:1;" d="M 151.332031 370.554688 L 156.890625 377.839844 L 155.847656 379.257812 L 150.292969 371.972656 "/>
<path style=" stroke:none;fill-rule:nonzero;fill:rgb(0%,0%,0%);fill-opacity:1;" d="M 106.078125 245.171875 L 99.53125 245.6875 L 99.445312 243.6875 L 105.992188 243.167969 "/>
<path style=" stroke:none;fill-rule:nonzero;fill:rgb(0%,0%,0%);fill-opacity:1;" d="M 110.160156 335.289062 L 109.523438 333.5 L 110.167969 335.300781 Z M 109.523438 333.5 L 109.847656 334.398438 Z M 110.191406 335.289062 C 108.941406 336.121094 107.753906 337.109375 106.644531 338.242188 L 105.730469 336.65625 C 106.917969 335.441406 108.1875 334.378906 109.523438 333.480469 Z M 106.644531 338.242188 C 105.554688 339.347656 104.546875 340.589844 103.636719 341.949219 L 102.523438 340.613281 C 103.488281 339.167969 104.550781 337.84375 105.699219 336.65625 Z M 103.636719 341.949219 C 98.84375 349.007812 96.898438 358.71875 98.414062 368.023438 L 96.953125 368.449219 C 95.316406 358.535156 97.363281 348.175781 102.453125 340.625 "/>
<path style=" stroke:none;fill-rule:nonzero;fill:rgb(0%,0%,0%);fill-opacity:1;" d="M 111.308594 351.753906 L 111.214844 351.816406 L 110.5625 350.015625 L 110.652344 349.964844 Z M 110.554688 350.027344 L 110.882812 350.925781 Z M 111.222656 351.816406 C 110.59375 352.234375 109.992188 352.71875 109.421875 353.265625 L 108.539062 351.65625 C 109.175781 351.039062 109.851562 350.492188 110.554688 350.027344 Z M 109.421875 353.265625 C 108.855469 353.808594 108.324219 354.410156 107.832031 355.066406 L 106.769531 353.667969 C 107.3125 352.933594 107.898438 352.261719 108.523438 351.65625 Z M 107.832031 355.066406 C 105.3125 358.542969 103.988281 363.257812 104.167969 368.089844 L 102.691406 368.152344 C 102.484375 362.777344 103.960938 357.53125 106.769531 353.667969 "/>
<path style=" stroke:none;fill-rule:nonzero;fill:rgb(0%,0%,0%);fill-opacity:1;" d="M 93.746094 358.667969 L 92.339844 358.539062 Z M 92.324219 359.269531 L 93.753906 358.675781 L 92.339844 358.539062 Z M 93.753906 358.675781 C 93.855469 359.164062 93.984375 359.640625 94.117188 360.117188 L 92.730469 360.835938 C 92.578125 360.316406 92.445312 359.777344 92.324219 359.269531 Z M 94.117188 360.117188 C 94.253906 360.582031 94.414062 361.046875 94.570312 361.492188 L 93.238281 362.371094 C 93.050781 361.871094 92.878906 361.359375 92.730469 360.835938 Z M 94.570312 361.492188 C 95.429688 363.8125 96.664062 365.847656 98.183594 367.453125 L 97.253906 369.019531 C 95.5625 367.230469 94.191406 364.957031 93.238281 362.371094 "/>
<path style=" stroke:none;fill-rule:nonzero;fill:rgb(0%,0%,0%);fill-opacity:1;" d="M 93.714844 359.332031 L 92 364.625 L 90.628906 363.832031 L 92.339844 358.539062 "/>
<path style=" stroke:none;fill-rule:nonzero;fill:rgb(0%,0%,0%);fill-opacity:1;" d="M 96.984375 368.4375 L 97.054688 367.761719 L 98.390625 368.648438 Z M 98.390625 368.648438 L 97.0625 367.75 Z M 97.0625 367.75 C 97.246094 367.273438 97.421875 366.816406 97.585938 366.363281 L 98.929688 367.242188 L 98.390625 368.671875 Z M 97.585938 366.363281 L 98.085938 364.976562 L 99.4375 365.800781 C 99.246094 366.351562 99.078125 366.859375 98.929688 367.242188 Z M 98.085938 364.976562 C 98.914062 362.570312 99.625 360.09375 100.207031 357.566406 L 101.628906 358.148438 C 101.027344 360.761719 100.296875 363.320312 99.4375 365.800781 "/>
<path style=" stroke:none;fill-rule:nonzero;fill:rgb(0%,0%,0%);fill-opacity:1;" d="M 102.707031 368.152344 L 104.160156 367.707031 Z M 104.160156 367.675781 L 103.429688 367.898438 Z M 102.699219 368.132812 C 102.609375 367.613281 102.515625 367.125 102.4375 366.710938 L 103.882812 366.214844 C 103.984375 366.742188 104.078125 367.273438 104.160156 367.675781 Z M 102.4375 366.710938 C 102.355469 366.308594 102.261719 365.84375 102.144531 365.304688 L 103.585938 364.753906 C 103.675781 365.167969 103.769531 365.652344 103.882812 366.214844 Z M 103.578125 364.753906 L 102.855469 365.027344 L 103.570312 364.753906 Z M 102.152344 365.304688 C 101.628906 362.90625 100.992188 360.558594 100.238281 358.273438 L 100.238281 357.574219 L 101.636719 357.46875 C 102.414062 359.835938 103.074219 362.269531 103.609375 364.753906 "/>
<path style=" stroke:none;fill-rule:nonzero;fill:rgb(0%,0%,0%);fill-opacity:1;" d="M 109.523438 404.074219 L 107.355469 389.199219 L 108.824219 388.820312 L 110.992188 403.695312 "/>
<path style=" stroke:none;fill-rule:nonzero;fill:rgb(0%,0%,0%);fill-opacity:1;" d="M 107.390625 389.453125 L 102.300781 369.625 L 103.714844 368.988281 L 108.800781 388.820312 "/>
<path style=" stroke:none;fill-rule:nonzero;fill:rgb(0%,0%,0%);fill-opacity:1;" d="M 111.761719 381.355469 L 107.792969 386.59375 L 106.746094 385.175781 L 110.714844 379.9375 "/>
<path style=" stroke:none;fill-rule:nonzero;fill:rgb(0%,0%,0%);fill-opacity:1;" d="M 111.761719 371.222656 L 105.839844 379.027344 L 104.761719 377.597656 L 110.683594 369.804688 "/>
</g>
</svg>
