<?xml version="1.0" encoding="UTF-8"?>
<!DOCTYPE svg PUBLIC "-//W3C//DTD SVG 1.1//EN" "http://www.w3.org/Graphics/SVG/1.1/DTD/svg11.dtd">
<!-- Creator: CorelDRAW -->
<svg xmlns="http://www.w3.org/2000/svg" xml:space="preserve" width="2048px" height="2048px" style="shape-rendering:geometricPrecision; text-rendering:geometricPrecision; image-rendering:optimizeQuality; fill-rule:evenodd; clip-rule:evenodd"
viewBox="0 0 2048 2048"
 xmlns:xlink="http://www.w3.org/1999/xlink">
 <defs>
  <style type="text/css">
   <![CDATA[
    .fil0 {fill:none}
    .fil5 {fill:#006064;fill-rule:nonzero}
    .fil4 {fill:#0097A7;fill-rule:nonzero}
    .fil1 {fill:#039BE5;fill-rule:nonzero}
    .fil3 {fill:#424242;fill-rule:nonzero}
    .fil2 {fill:#FFD180;fill-rule:nonzero}
   ]]>
  </style>
 </defs>
 <g id="Layer_x0020_1">
  <metadata id="CorelCorpID_0Corel-Layer"/>
  <g id="_276858776">
   <rect id="_276860096" class="fil0" width="2048" height="2048"/>
   <rect id="_276858368" class="fil0" x="255.999" y="255.999" width="1536" height="1536"/>
  </g>
  <g id="_393202520">
   <path id="_276857888" class="fil1" d="M1558.18 1408.83c-12.9095,-30.8729 -43.9737,-50.6493 -73.6394,-62.8241l-200.467 -92.302 -122.337 -107.235 -269.069 7.3004 -128.72 99.9343 -200.488 92.302c-29.6658,12.1748 -59.002,31.4292 -73.6394,62.8241 0,0 -217.916,372.213 -99.7241,372.213l1267.81 0c118.192,0 -99.7229,-372.213 -99.7229,-372.213z"/>
   <path id="_276859712" class="fil2" d="M1023.99 318.999c-257.895,0 -363.775,133.024 -361.505,355.343 3.46181,320.352 156.476,511.395 361.505,511.395 205.042,0 358.056,-191.043 361.538,-511.395 2.22992,-222.299 -103.649,-355.343 -361.538,-355.343z"/>
   <path id="_276864776" class="fil3" d="M1023.99 318.999c-214.551,0 -323.875,81.2197 -353.261,221.425 50.3752,40.5189 124.289,66.1075 206.679,66.1075 123.545,0 228.047,-57.5221 262.668,-136.678 50.3882,43.9311 127.412,72.0284 213.747,72.0284 7.95001,0 15.815,-0.251575 23.5949,-0.718111 -29.1815,-140.649 -138.508,-222.164 -353.427,-222.164z"/>
   <g>
    <g>
     <path id="_276865184" class="fil4" d="M647.464 554.863c-5.28071,-0.45 -7.66182,-0.758268 -10.063,-0.924804 -12.1394,-0.843308 -25.1835,1.93583 -36.8611,8.29961 -12.7087,6.92481 -24.0555,18.1169 -31.6087,33.6296 -5.45197,11.1992 -8.87009,24.3638 -9.40631,39.4737l-0.0814961 1.37599 0 166.818 0.0814961 0c0.011811,20.3303 6.13701,38.6611 16.0193,51.8339 9.65552,12.8669 22.8874,20.8394 37.3949,20.8394l34.5248 0 0 -321.345z"/>
     <path id="_276860504" class="fil5" d="M1401.46 554.785l-1.89921 0.161811c-15.3425,-83.6835 -52.0122,-150.934 -107.935,-199.693 -62.4036,-54.4052 -148.185,-84.7902 -254.333,-88.1871l-0.728741 -0.114567 -6.06851 0 -0.72756 0.114567c-1.9252,0.0625985 -3.84213,0.137008 -5.75434,0.217323 -1.91221,-0.080315 -3.82914,-0.154725 -5.75434,-0.217323l-0.72756 -0.114567 -6.06851 0 -0.72756 0.114567c-106.149,3.39685 -191.93,33.7819 -254.334,88.1871 -55.9016,48.7406 -92.5642,115.96 -107.917,199.601l-0.0177165 0.0921261 -0.998032 -0.0838583 0 321.345 0.194882 0 3.1004 0c14.5087,0 27.7418,-7.97363 37.3914,-20.8417 9.93544,-13.2484 16.0878,-31.5839 16.0878,-51.8315l0 -166.818c0,-26.4638 -8.91261,-40.4492 -6.29174,-54.2315 11.0079,-77.3611 42.1359,-138.508 91.2851,-181.361 53.2146,-46.3937 128.139,-72.4146 222.227,-75.5469l0 0.0897638 6.06851 0 0 -0.0897638c2.17323,0.0744095 4.33111,0.164173 6.48189,0.262205 2.15197,-0.0980316 4.30985,-0.187795 6.48189,-0.262205l0 0.0897638 6.06851 0 0 -0.0897638c94.089,3.13229 169.012,29.1532 222.227,75.5469 49.1493,42.8528 80.2772,104 91.2863,181.361 2.61969,13.7823 -6.29292,27.7677 -6.29292,54.2315l0 166.818c0,20.2477 6.15355,38.5831 16.0878,51.8315 9.64961,12.8681 22.8839,20.8417 37.3914,20.8417l4.19646 0 0 -321.423z"/>
    </g>
    <path id="_393202616" class="fil4" d="M1410.62 553.939c-2.08819,0.145276 -4.16457,0.398032 -8.14489,0.757087l-1.01693 0.0897638 0 321.423 0.194882 0 33.4288 0c14.5075,0 27.7394,-7.97245 37.3961,-20.8394 9.88229,-13.1728 16.0063,-31.5036 16.0181,-51.8339l0.0814961 0 0 -166.818 -0.0814961 -1.37599c-0.536221,-15.1099 -3.95315,-28.2744 -9.40631,-39.4737 -7.55316,-15.5126 -18.9,-26.7047 -31.6075,-33.6296 -11.6787,-6.36378 -24.7229,-9.14292 -36.8622,-8.29961z"/>
   </g>
  </g>
 </g>
</svg>
