<?xml version="1.0" encoding="UTF-8"?>
<!DOCTYPE svg PUBLIC "-//W3C//DTD SVG 1.1//EN" "http://www.w3.org/Graphics/SVG/1.1/DTD/svg11.dtd">
<!-- Creator: CorelDRAW -->
<svg xmlns="http://www.w3.org/2000/svg" xml:space="preserve" width="2048px" height="2048px" style="shape-rendering:geometricPrecision; text-rendering:geometricPrecision; image-rendering:optimizeQuality; fill-rule:evenodd; clip-rule:evenodd"
viewBox="0 0 2048 2048"
 xmlns:xlink="http://www.w3.org/1999/xlink">
 <defs>
  <style type="text/css">
   <![CDATA[
    .fil0 {fill:none}
    .fil3 {fill:#414242}
    .fil6 {fill:#ECEDEE}
    .fil4 {fill:#F4DCBB}
    .fil2 {fill:#00897B}
    .fil1 {fill:#6D4C41}
    .fil5 {fill:#C6B297;fill-rule:nonzero}
   ]]>
  </style>
 </defs>
 <g id="Layer_x0020_1">
  <metadata id="CorelCorpID_0Corel-Layer"/>
  <rect class="fil0" x="255.999" y="256.012" width="1536" height="1535.97"/>
  <rect class="fil0" width="2048" height="2048"/>
  <g id="_520306304">
   <path id="_520299320" class="fil1" d="M704.098 380.458c17.5158,-58.6701 157.123,-110.414 214.075,98.1863 56.9741,208.592 28.2803,281.671 59.6882,355.29 31.4481,73.6347 -42.6815,643.589 -218.153,641.739 -187.57,-1.98425 -228.482,-547.106 -191.164,-657.56 37.3359,-110.405 4.71615,-437.809 135.554,-437.655z"/>
   <path id="_520282592" class="fil1" d="M1321.41 380.458c-17.5146,-58.6701 -157.123,-110.414 -214.081,98.1863 -56.967,208.592 -28.2839,281.671 -59.6823,355.29 -31.4469,73.6347 42.6827,643.589 218.146,641.739 187.577,-1.98425 228.481,-547.106 191.164,-657.56 -37.3276,-110.405 -4.71851,-437.809 -135.547,-437.655z"/>
   <path id="_520290008" class="fil2" d="M1164.6 1236.19c-2.89134,4.53071 -287.131,9.07678 -290.281,13.5591 -89.2536,127.331 -282.13,150.816 -435.499,185.114 -152.617,34.1209 -158.505,227.999 -158.756,357.116l1487.87 0c-0.226772,-129.117 -3.07677,-322.284 -158.788,-357.116 -155.694,-34.8059 -359.87,-65.543 -444.544,-198.673z"/>
   <path id="_520284032" class="fil3" d="M1173.24 1248.82l0 70.0973 -72.5942 473.084 -154.733 0 -71.9575 -467.987 0 -73.6607 0.405118 -0.564567c3.14173,-4.51536 287.339,-9.04489 290.247,-13.5685 2.74607,4.28032 5.57126,8.47914 8.63268,12.6z"/>
   <path id="_520289792" class="fil4" d="M874.934 931.92l0 365.207c74.6859,152.803 208.769,156.768 298.129,0l0 -365.207c0,-197.189 -298.129,-197.189 -298.129,0z"/>
   <path id="_520278104" class="fil4" d="M1417.22 761.389c-29.7827,-13.4055 -71.843,19.5106 -93.9473,73.4658 -22.1351,54.0119 -15.9331,108.644 13.8496,122.043 29.7921,13.415 71.8772,-19.4728 93.9792,-73.4658 22.1043,-53.987 15.9012,-108.612 -13.8815,-122.043z"/>
   <path id="_520279784" class="fil4" d="M631.052 761.389c29.7756,-13.4055 71.8335,19.4788 93.9709,73.4658 22.1043,54.0119 15.9,108.644 -13.8827,122.043 -29.7851,13.415 -71.8418,-19.4728 -93.9698,-73.4658 -22.1043,-53.987 -15.8788,-108.612 13.8815,-122.043z"/>
   <path id="_520288280" class="fil5" d="M1022.61 1217.15c-54.1406,0 -147.676,-93.404 -147.676,-93.404l0 -10.1693 298.129 0 0 9.12757c0,0 -96.3296,94.4457 -150.454,94.4457z"/>
   <path id="_520298816" class="fil4" d="M1024.3 1184.54c-92.5713,0 -288.147,-152.593 -348.586,-371.111 -61.0536,-220.681 53.915,-537.198 348.586,-537.198 294.647,0 409.64,316.517 348.564,537.198 -60.4725,218.518 -256.012,371.111 -348.564,371.111z"/>
   <path id="_520276904" class="fil1" d="M1391.03 543.309c-29.0233,-114.363 -175.382,-288.342 -312.673,-285.143 -19.7705,-2.07638 -42.2941,-2.87481 -66.8587,-1.4374 -24.5752,-1.4374 -47.0989,-0.638977 -66.8682,1.4374 -137.29,-3.19843 -283.649,170.78 -312.673,285.143 -23.3232,91.9347 -33.815,182.554 22.2331,276.735 10.0854,28.4185 21.9898,48.8103 33.3768,56.8867 -12.5917,-72.3343 -15.1665,-124.618 -10.5945,-164.295 4.17756,-6.23623 38.3811,56.5347 45.7264,29.1532 55.4859,-206.802 269.881,-293.251 288.8,-293.251 87.3473,0.022441 192.717,-9.45473 270.475,257.671 33.9107,-14.1095 53.5359,-9.23977 64.0441,6.42756 4.56851,39.6768 1.9937,91.9607 -10.5969,164.295 11.3953,-8.07638 23.2902,-28.4681 33.3768,-56.8867 56.0563,-94.1812 45.5575,-184.8 22.2331,-276.735z"/>
   <polygon id="_520302416" class="fil6" points="947.115,1791.84 821.384,1791.84 812.743,1792 683.036,1673.69 815.084,1585.66 653.729,1510.15 760.571,1344.27 802.081,1279.92 873.956,1247.69 873.956,1324.01 945.914,1792 "/>
   <polygon id="_520285784" class="fil6" points="1231.47,1580.57 1363.43,1668.6 1233.49,1792 1225.18,1791.84 1099.44,1791.84 1100.65,1792 1173.24,1318.91 1173.24,1243.08 1260.95,1282.01 1299.64,1347.58 1392.75,1505.14 "/>
  </g>
 </g>
</svg>
