<?xml version="1.0" encoding="UTF-8"?>
<!DOCTYPE svg PUBLIC "-//W3C//DTD SVG 1.1//EN" "http://www.w3.org/Graphics/SVG/1.1/DTD/svg11.dtd">
<!-- Creator: CorelDRAW -->
<svg xmlns="http://www.w3.org/2000/svg" xml:space="preserve" width="2048px" height="2048px" style="shape-rendering:geometricPrecision; text-rendering:geometricPrecision; image-rendering:optimizeQuality; fill-rule:evenodd; clip-rule:evenodd"
viewBox="0 0 2048 2048"
 xmlns:xlink="http://www.w3.org/1999/xlink">
 <defs>
  <style type="text/css">
   <![CDATA[
    .fil0 {fill:none}
    .fil2 {fill:#424242}
    .fil4 {fill:#7991BF}
    .fil1 {fill:#E6B683}
    .fil3 {fill:#FAD3A8}
    .fil6 {fill:#B71C1C;fill-rule:nonzero}
    .fil5 {fill:#E53935;fill-rule:nonzero}
   ]]>
  </style>
 </defs>
 <g id="Layer_x0020_1">
  <metadata id="CorelCorpID_0Corel-Layer"/>
  <g id="_392011432">
   <rect id="_392016232" class="fil0" width="2048" height="2048"/>
   <rect id="_392015488" class="fil0" x="255.999" y="255.999" width="1536" height="1536"/>
  </g>
  <g id="_392015848">
   <polygon id="_392014576" class="fil1" points="855.059,1444.71 1195.93,1444.71 1195.93,897.709 855.059,897.709 "/>
   <path id="_392015608" class="fil2" d="M1285.45 346.473c89.7296,67.8603 147.286,172.764 147.286,290.499 0,204.61 -173.843,370.47 -388.302,370.47 -214.458,0 -388.301,-165.86 -388.301,-370.47 0,-131.882 67.2473,-287.452 180.984,-303.373 90.9556,-123.196 319.355,-84.6638 448.333,12.874z"/>
   <path id="_392018608" class="fil3" d="M1057.43 421.426c171.306,0 290.675,118.925 269.211,341.551 -6.11339,63.378 55.5225,29.9173 55.5225,52.8083 0,14.9965 14.1921,3.73465 12.2681,18.2067 -22.3736,168.165 -170.544,298.087 -350.006,298.087 -179.406,0 -327.548,-129.848 -349.979,-297.945 -1.93701,-14.5252 31.774,-20.6599 31.774,-35.7024 41.6079,60.5197 34.5083,7.47993 30.9095,-27.789 -32.7461,-320.211 120.736,-349.217 300.299,-349.217z"/>
   <path id="_392018056" class="fil2" d="M1199.44 398.935c150.726,99.2729 179.889,266.545 171.089,317.831 -8.8004,51.2776 -138.119,12.3697 -288.846,-86.902 -150.728,-99.28 -265.777,-221.334 -256.983,-272.62 8.8004,-51.2776 224.02,-57.5941 374.74,41.6906z"/>
   <path id="_392017192" class="fil3" d="M645.527 673.254c19.5189,-8.37048 50.367,24.6744 68.9067,73.7906 18.5457,49.1221 17.7709,95.7213 -1.74803,104.08 -19.5118,8.36457 -50.3599,-24.6815 -68.8997,-73.7965 -18.5457,-49.1162 -17.7709,-95.7225 1.74095,-104.074z"/>
   <path id="_392017384" class="fil3" d="M1438.63 673.254c-25.3276,-8.37048 -59.0067,24.6744 -75.2245,73.7906 -16.213,49.1221 -8.82757,95.7213 16.5047,104.08 25.3205,8.36457 59.0103,-24.6815 75.2174,-73.7965 16.2201,-49.1162 8.83347,-95.7225 -16.4977,-104.074z"/>
   <path id="_392015824" class="fil4" d="M1688.3 1581.22c-89.0469,-76.5792 -405.142,-279.742 -492.372,-314.385 -16.1622,64.4847 -81.8717,113.08 -167.436,113.08 -85.5792,0 -156.914,-48.5953 -173.078,-113.08 -87.2221,34.6429 -406.675,228.548 -495.724,305.129 506.613,319.527 970.139,262.74 1328.61,9.25631z"/>
   <g>
    <path id="_392011888" class="fil5" d="M610.624 819.741c0,19.552 13.4138,35.4048 29.9587,35.4048 16.5449,0 29.9587,-15.8528 29.9587,-35.4048l0 -114.85c-0.186614,-468.956 747.549,-418.497 747.76,0l0 113.418c0,19.5532 13.4138,35.4048 29.9587,35.4048 16.5449,0 29.9587,-15.8516 29.9587,-35.4048l0 -113.418c-16.7232,-555.098 -883.697,-532.591 -867.595,0l0 114.85z"/>
    <g>
     <path id="_392013472" class="fil6" d="M1424.38 676.223c0,-19.5532 -13.4138,-35.4048 -29.9587,-35.4048 -16.5449,0 -29.9575,15.8516 -29.9575,35.4048l0 212.42c0,19.552 13.4126,35.4048 29.9575,35.4048 16.5449,0 29.9587,-15.8528 29.9587,-35.4048l0 -212.42z"/>
     <path id="_392012920" class="fil6" d="M724.387 676.223c0,-19.5532 -13.4138,-35.4048 -29.9587,-35.4048 -16.5449,0 -29.9587,15.8516 -29.9587,35.4048l0 212.42c0,19.552 13.4138,35.4048 29.9587,35.4048 16.5449,0 29.9587,-15.8528 29.9587,-35.4048l0 -212.42z"/>
    </g>
   </g>
  </g>
 </g>
</svg>
