<svg width="35" height="37" viewBox="0 0 35 37" fill="none" xmlns="http://www.w3.org/2000/svg">
<g clip-path="url(#clip0_1414_8476)">
<mask id="mask0_1414_8476" style="mask-type:luminance" maskUnits="userSpaceOnUse" x="0" y="11" width="35" height="26">
<path d="M0.835938 11.8184H34.8359V37.0007H0.835938V11.8184Z" fill="white"/>
</mask>
<g mask="url(#mask0_1414_8476)">
<path d="M33.6015 36.9902H2.06511C1.38281 36.9902 0.835938 36.4434 0.835938 35.7663V12.7246H34.8307V35.7663C34.8359 36.4434 34.2786 36.9902 33.6015 36.9902Z" fill="#F0F0F1"/>
</g>
<mask id="mask1_1414_8476" style="mask-type:luminance" maskUnits="userSpaceOnUse" x="0" y="3" width="35" height="12">
<path d="M0.835938 3.81836H34.8359V14.485H0.835938V3.81836Z" fill="white"/>
</mask>
<g mask="url(#mask1_1414_8476)">
<path d="M0.835938 5.40168V13.933H34.8307V5.40168C34.8307 4.7246 34.2786 4.17773 33.6015 4.17773H2.06511C1.38802 4.17773 0.835938 4.7246 0.835938 5.40168ZM10.1797 10.7663C8.58073 10.8913 7.25261 9.57356 7.38282 7.99023C7.48177 6.74023 8.4974 5.72981 9.75782 5.63085C11.3567 5.50585 12.6849 6.81835 12.5599 8.40689C12.4609 9.65689 11.4401 10.6673 10.1797 10.7663ZM25.9505 10.7663C24.3515 10.8913 23.0234 9.57356 23.1484 7.99023C23.2526 6.74023 24.2682 5.72981 25.5286 5.63085C27.1276 5.50585 28.4557 6.81835 28.3307 8.40689C28.2265 9.65689 27.2109 10.6673 25.9505 10.7663Z" fill="#E41D21"/>
</g>
<mask id="mask2_1414_8476" style="mask-type:luminance" maskUnits="userSpaceOnUse" x="8" y="0" width="4" height="10">
<path d="M8.39844 0H11.0651V9.15104H8.39844V0Z" fill="white"/>
</mask>
<g mask="url(#mask2_1414_8476)">
<path d="M9.95605 8.34375H9.82584C9.25813 8.34375 8.7998 7.88542 8.7998 7.32813V1.03125C8.7998 0.473959 9.25813 0.015625 9.82584 0.015625H9.95605C10.5186 0.015625 10.9821 0.473959 10.9821 1.03125V7.32813C10.9821 7.88542 10.5186 8.34375 9.95605 8.34375Z" fill="#171613"/>
</g>
<mask id="mask3_1414_8476" style="mask-type:luminance" maskUnits="userSpaceOnUse" x="24" y="0" width="4" height="10">
<path d="M24.3984 0H27.0651V9.15104H24.3984V0Z" fill="white"/>
</mask>
<g mask="url(#mask3_1414_8476)">
<path d="M25.8047 8.34375H25.6744C25.1119 8.34375 24.6484 7.88542 24.6484 7.32813V1.03125C24.6484 0.473959 25.1119 0.015625 25.6744 0.015625H25.8047C26.3724 0.015625 26.8307 0.473959 26.8307 1.03125V7.32813C26.8307 7.88542 26.3671 8.34375 25.8047 8.34375Z" fill="#171613"/>
</g>
<mask id="mask4_1414_8476" style="mask-type:luminance" maskUnits="userSpaceOnUse" x="9" y="16" width="18" height="18">
<path d="M9.22168 16.6348H26.2216V33.6348H9.22168V16.6348Z" fill="white"/>
</mask>
<g mask="url(#mask4_1414_8476)">
<path d="M17.7164 16.6348C13.0185 16.6348 9.22168 20.4369 9.22168 25.1348C9.22168 29.8276 13.0185 33.6348 17.7164 33.6348C22.4144 33.6348 26.2216 29.8276 26.2216 25.1348C26.2216 20.4369 22.4144 16.6348 17.7164 16.6348ZM17.7216 31.9317C13.9612 31.9317 10.9196 28.8901 10.9196 25.1348C10.9196 21.3744 13.9612 18.3328 17.7216 18.3328C21.4769 18.3328 24.5185 21.3744 24.5185 25.1348C24.5185 28.8901 21.4769 31.9317 17.7216 31.9317Z" fill="black"/>
</g>
<path d="M18.1433 20.8848H16.8672V25.9838L21.3256 28.6609L21.9714 27.614L18.1433 25.3432V20.8848Z" fill="black"/>
</g>
<defs>
<clipPath id="clip0_1414_8476">
<rect width="34" height="37" fill="white" transform="translate(0.835938)"/>
</clipPath>
</defs>
</svg>
