<svg width="35" height="36" viewBox="0 0 35 36" fill="none" xmlns="http://www.w3.org/2000/svg">
<path d="M34.7752 18.0831C34.7752 27.6315 27.0361 35.3706 17.4877 35.3706C7.93926 35.3706 0.200195 27.6315 0.200195 18.0831C0.200195 8.53936 7.93926 0.800293 17.4877 0.800293C27.0361 0.800293 34.7752 8.53936 34.7752 18.0831Z" fill="#00DD6C"/>
<path d="M15.8235 19.7331C18.1953 22.105 20.5204 23.0706 21.3594 22.2315L22.5125 21.0784C23.3047 20.2862 24.5891 20.2862 25.3813 21.0784L27.9641 23.6659C28.761 24.4581 28.761 25.7425 27.9641 26.5347L25.9532 28.5503C24.05 30.4487 18.425 27.9128 13.0344 22.5222C10.3391 19.8222 8.57191 17.2862 7.42816 14.8956C6.2891 12.5097 6.05473 10.5503 7.00629 9.59873L9.02191 7.58779C9.8141 6.79561 11.0985 6.79561 11.8907 7.58779L14.4735 10.1706C15.2657 10.9628 15.2657 12.2472 14.4735 13.0394L13.3204 14.1972C12.486 15.0315 13.4469 17.3612 15.8235 19.7331Z" fill="#1B1B1B"/>
</svg>
