<svg width="181" height="55" viewBox="0 0 181 55" fill="none" xmlns="http://www.w3.org/2000/svg">
<rect x="0.5" y="0.667969" width="179.235" height="53" rx="7.5" stroke="white"/>
<mask id="mask0_941_4161" style="mask-type:luminance" maskUnits="userSpaceOnUse" x="12" y="13" width="28" height="28">
<path d="M12 13.5508H39.2352V40.786H12V13.5508Z" fill="white"/>
</mask>
<g mask="url(#mask0_941_4161)">
<path d="M12 17.4219L23.1326 15.9246V26.6001L12.021 26.6526L12 17.4219ZM23.1326 27.8242V38.5208L12 37.0024V27.7559L23.1326 27.8242ZM24.4723 15.7249L39.2352 13.5762V26.453L24.4723 26.5791V15.7249ZM39.2352 27.9345V40.7588L24.4723 38.6836L24.4565 27.8978L39.2352 27.9345Z" fill="#00ADEF"/>
</g>
<path d="M50.3135 11.7129H53.5068C55.1064 11.7129 56.2139 12.8379 56.2139 14.4492C56.2139 16.0312 55.083 17.1504 53.4951 17.1504H51.3682V20.168H50.3135V11.7129ZM51.3682 12.6504V16.2129H53.2314C54.4326 16.2129 55.1299 15.5684 55.1299 14.4492C55.1299 13.2891 54.4561 12.6504 53.2314 12.6504H51.3682ZM63.0752 19.2188V20.168H57.9424V11.7129H58.9971V19.2188H63.0752ZM70.2588 20.168L69.4092 17.748H66.0459L65.1963 20.168H64.0889L67.2061 11.7129H68.249L71.3662 20.168H70.2588ZM67.6807 13.0781L66.3564 16.8516H69.0986L67.7744 13.0781H67.6807ZM75.3564 20.168H74.3018V16.5293L71.3018 11.7129H72.5029L74.7822 15.4688H74.876L77.1553 11.7129H78.3564L75.3564 16.5293V20.168ZM84.4619 20.168L83.6123 17.748H80.249L79.3994 20.168H78.292L81.4092 11.7129H82.4521L85.5693 20.168H84.4619ZM81.8838 13.0781L80.5596 16.8516H83.3018L81.9775 13.0781H81.8838ZM90.3506 20.168H87.0518V11.7129H90.2861C91.8389 11.7129 92.7881 12.5273 92.7881 13.8223C92.7881 14.7012 92.1436 15.498 91.3291 15.6445V15.7383C92.4834 15.8848 93.2158 16.6758 93.2158 17.7949C93.2158 19.2832 92.1494 20.168 90.3506 20.168ZM88.1064 12.6445V15.3574H89.7939C91.0713 15.3574 91.7217 14.9004 91.7217 14.0039C91.7217 13.1426 91.1123 12.6445 90.0635 12.6445H88.1064ZM88.1064 19.2363H90.1924C91.4639 19.2363 92.1318 18.7207 92.1318 17.7422C92.1318 16.7637 91.4404 16.2656 90.0928 16.2656H88.1064V19.2363ZM100.071 19.2188V20.168H94.9385V11.7129H95.9932V19.2188H100.071ZM106.997 19.2188V20.168H101.759V11.7129H106.997V12.6621H102.813V15.375H106.78V16.3125H102.813V19.2188H106.997ZM115.851 11.5137C118.253 11.5137 119.718 13.2246 119.718 15.9375C119.718 18.6387 118.265 20.3672 115.851 20.3672C113.425 20.3672 111.966 18.6445 111.966 15.9375C111.966 13.2188 113.46 11.5137 115.851 11.5137ZM115.851 12.4863C114.128 12.4863 113.05 13.8223 113.05 15.9375C113.05 18.0352 114.093 19.3945 115.851 19.3945C117.585 19.3945 118.634 18.0352 118.634 15.9375C118.634 13.8223 117.579 12.4863 115.851 12.4863ZM122.595 20.168H121.552V11.7129H122.577L127.165 18.293H127.259V11.7129H128.302V20.168H127.276L122.688 13.6113H122.595V20.168Z" fill="white"/>
<path d="M58.8545 30.0449L55.6123 41.168H53.9521L50.1143 27.0762H51.9502L54.7529 38.5312H54.8701L58.0244 27.0762H59.8018L62.9561 38.5312H63.0732L65.876 27.0762H67.7119L63.874 41.168H62.2139L58.9717 30.0449H58.8545ZM70.4319 41.168V30.6406H72.1116V41.168H70.4319ZM71.2718 28.502C70.6272 28.502 70.0999 27.9746 70.0999 27.3301C70.0999 26.6855 70.6272 26.1582 71.2718 26.1582C71.9163 26.1582 72.4436 26.6855 72.4436 27.3301C72.4436 27.9746 71.9163 28.502 71.2718 28.502ZM75.5347 41.168V30.6406H77.1363V32.3008H77.2925C77.8199 31.1387 78.8453 30.4551 80.4566 30.4551C82.8199 30.4551 84.1382 31.8516 84.1382 34.3516V41.168H82.4586V34.7617C82.4586 32.8672 81.6578 31.9688 79.9781 31.9688C78.2984 31.9688 77.2144 33.0918 77.2144 34.9375V41.168H75.5347ZM91.3309 41.3535C88.6356 41.3535 86.9071 39.2148 86.9071 35.9043C86.9071 32.6035 88.6551 30.4551 91.3309 30.4551C92.7957 30.4551 94.036 31.1484 94.6317 32.3008H94.7782V26.4609H96.4579V41.168H94.8563V39.4883H94.7C94.036 40.6602 92.786 41.3535 91.3309 41.3535ZM91.7215 31.9688C89.8075 31.9688 88.6454 33.4531 88.6454 35.9043C88.6454 38.3652 89.7977 39.8398 91.7215 39.8398C93.6356 39.8398 94.8172 38.3359 94.8172 35.9043C94.8172 33.4922 93.6258 31.9688 91.7215 31.9688ZM104.266 41.3535C101.268 41.3535 99.4122 39.2832 99.4122 35.9043C99.4122 32.5156 101.268 30.4551 104.266 30.4551C107.264 30.4551 109.119 32.5156 109.119 35.9043C109.119 39.2832 107.264 41.3535 104.266 41.3535ZM104.266 39.8398C106.258 39.8398 107.381 38.3945 107.381 35.9043C107.381 33.4043 106.258 31.9688 104.266 31.9688C102.274 31.9688 101.151 33.4043 101.151 35.9043C101.151 38.3945 102.274 39.8398 104.266 39.8398ZM124.828 30.6406L121.878 41.168H120.169L117.816 33.0234H117.66L115.316 41.168H113.617L110.667 30.6406H112.367L114.437 39.0586H114.593L116.947 30.6406H118.558L120.912 39.0586H121.068L123.138 30.6406H124.828ZM126.757 33.5215C126.757 31.7734 128.446 30.4551 130.682 30.4551C132.889 30.4551 134.423 31.5488 134.647 33.2773H132.987C132.762 32.4375 131.942 31.8809 130.673 31.8809C129.423 31.8809 128.446 32.5156 128.446 33.4531C128.446 34.1758 129.032 34.625 130.272 34.9277L131.893 35.3184C133.876 35.7969 134.833 36.6562 134.833 38.1699C134.833 40.0547 133.007 41.3535 130.614 41.3535C128.27 41.3535 126.659 40.2305 126.473 38.4824H128.202C128.485 39.3711 129.325 39.9375 130.673 39.9375C132.089 39.9375 133.104 39.2637 133.104 38.2969C133.104 37.5742 132.557 37.0859 131.434 36.8125L129.628 36.373C127.655 35.8945 126.757 35.0449 126.757 33.5215ZM143.769 27.0762H149.091C151.757 27.0762 153.603 28.9512 153.603 31.6367C153.603 34.2734 151.718 36.1387 149.072 36.1387H145.527V41.168H143.769V27.0762ZM145.527 28.6387V34.5762H148.632C150.634 34.5762 151.796 33.502 151.796 31.6367C151.796 29.7031 150.673 28.6387 148.632 28.6387H145.527ZM162.377 41.5C158.549 41.5 156.157 38.668 156.157 34.127C156.157 29.5762 158.54 26.7441 162.368 26.7441C165.336 26.7441 167.651 28.6094 168.071 31.3242H166.284C165.815 29.5078 164.311 28.3652 162.368 28.3652C159.663 28.3652 157.963 30.5918 157.963 34.127C157.963 37.6621 159.663 39.8789 162.377 39.8789C164.34 39.8789 165.834 38.873 166.284 37.2422H168.071C167.602 39.8301 165.376 41.5 162.377 41.5Z" fill="white"/>
</svg>
