<svg width="182" height="55" viewBox="0 0 182 55" fill="none" xmlns="http://www.w3.org/2000/svg">
<g clip-path="url(#clip0_957_5621)">
<rect x="0.5" width="181" height="55" rx="9" fill="white"/>
<path d="M172.735 0.667969H8.5C4.35786 0.667969 1 4.02583 1 8.16797V46.168C1 50.3101 4.35786 53.668 8.5 53.668H172.735C176.877 53.668 180.235 50.3101 180.235 46.168V8.16797C180.235 4.02583 176.877 0.667969 172.735 0.667969Z" stroke="white"/>
<mask id="mask0_957_5621" style="mask-type:luminance" maskUnits="userSpaceOnUse" x="12" y="13" width="28" height="28">
<path d="M12.5 13.5508H39.7352V40.786H12.5V13.5508Z" fill="white"/>
</mask>
<g mask="url(#mask0_957_5621)">
<path d="M12.5 17.4219L23.6326 15.9246V26.6001L12.521 26.6526L12.5 17.4219ZM23.6326 27.8242V38.5208L12.5 37.0024V27.7559L23.6326 27.8242ZM24.9723 15.7249L39.7352 13.5762V26.453L24.9723 26.5791V15.7249ZM39.7352 27.9345V40.7588L24.9723 38.6836L24.9565 27.8978L39.7352 27.9345Z" fill="black"/>
</g>
<path d="M50.8135 11.7129H54.0068C55.6064 11.7129 56.7139 12.8379 56.7139 14.4492C56.7139 16.0312 55.583 17.1504 53.9951 17.1504H51.8682V20.168H50.8135V11.7129ZM51.8682 12.6504V16.2129H53.7314C54.9326 16.2129 55.6299 15.5684 55.6299 14.4492C55.6299 13.2891 54.9561 12.6504 53.7314 12.6504H51.8682ZM63.5752 19.2188V20.168H58.4424V11.7129H59.4971V19.2188H63.5752ZM70.7588 20.168L69.9092 17.748H66.5459L65.6963 20.168H64.5889L67.7061 11.7129H68.749L71.8662 20.168H70.7588ZM68.1807 13.0781L66.8564 16.8516H69.5986L68.2744 13.0781H68.1807ZM75.8564 20.168H74.8018V16.5293L71.8018 11.7129H73.0029L75.2822 15.4688H75.376L77.6553 11.7129H78.8564L75.8564 16.5293V20.168ZM84.9619 20.168L84.1123 17.748H80.749L79.8994 20.168H78.792L81.9092 11.7129H82.9521L86.0693 20.168H84.9619ZM82.3838 13.0781L81.0596 16.8516H83.8018L82.4775 13.0781H82.3838ZM90.8506 20.168H87.5518V11.7129H90.7861C92.3389 11.7129 93.2881 12.5273 93.2881 13.8223C93.2881 14.7012 92.6436 15.498 91.8291 15.6445V15.7383C92.9834 15.8848 93.7158 16.6758 93.7158 17.7949C93.7158 19.2832 92.6494 20.168 90.8506 20.168ZM88.6064 12.6445V15.3574H90.2939C91.5713 15.3574 92.2217 14.9004 92.2217 14.0039C92.2217 13.1426 91.6123 12.6445 90.5635 12.6445H88.6064ZM88.6064 19.2363H90.6924C91.9639 19.2363 92.6318 18.7207 92.6318 17.7422C92.6318 16.7637 91.9404 16.2656 90.5928 16.2656H88.6064V19.2363ZM100.571 19.2188V20.168H95.4385V11.7129H96.4932V19.2188H100.571ZM107.497 19.2188V20.168H102.259V11.7129H107.497V12.6621H103.313V15.375H107.28V16.3125H103.313V19.2188H107.497ZM116.351 11.5137C118.753 11.5137 120.218 13.2246 120.218 15.9375C120.218 18.6387 118.765 20.3672 116.351 20.3672C113.925 20.3672 112.466 18.6445 112.466 15.9375C112.466 13.2188 113.96 11.5137 116.351 11.5137ZM116.351 12.4863C114.628 12.4863 113.55 13.8223 113.55 15.9375C113.55 18.0352 114.593 19.3945 116.351 19.3945C118.085 19.3945 119.134 18.0352 119.134 15.9375C119.134 13.8223 118.079 12.4863 116.351 12.4863ZM123.095 20.168H122.052V11.7129H123.077L127.665 18.293H127.759V11.7129H128.802V20.168H127.776L123.188 13.6113H123.095V20.168Z" fill="black"/>
<path d="M59.3545 30.0449L56.1123 41.168H54.4521L50.6143 27.0762H52.4502L55.2529 38.5312H55.3701L58.5244 27.0762H60.3018L63.4561 38.5312H63.5732L66.376 27.0762H68.2119L64.374 41.168H62.7139L59.4717 30.0449H59.3545ZM70.9319 41.168V30.6406H72.6116V41.168H70.9319ZM71.7718 28.502C71.1272 28.502 70.5999 27.9746 70.5999 27.3301C70.5999 26.6855 71.1272 26.1582 71.7718 26.1582C72.4163 26.1582 72.9436 26.6855 72.9436 27.3301C72.9436 27.9746 72.4163 28.502 71.7718 28.502ZM76.0347 41.168V30.6406H77.6363V32.3008H77.7925C78.3199 31.1387 79.3453 30.4551 80.9566 30.4551C83.3199 30.4551 84.6382 31.8516 84.6382 34.3516V41.168H82.9586V34.7617C82.9586 32.8672 82.1578 31.9688 80.4781 31.9688C78.7984 31.9688 77.7144 33.0918 77.7144 34.9375V41.168H76.0347ZM91.8309 41.3535C89.1356 41.3535 87.4071 39.2148 87.4071 35.9043C87.4071 32.6035 89.1551 30.4551 91.8309 30.4551C93.2957 30.4551 94.536 31.1484 95.1317 32.3008H95.2782V26.4609H96.9579V41.168H95.3563V39.4883H95.2C94.536 40.6602 93.286 41.3535 91.8309 41.3535ZM92.2215 31.9688C90.3075 31.9688 89.1454 33.4531 89.1454 35.9043C89.1454 38.3652 90.2977 39.8398 92.2215 39.8398C94.1356 39.8398 95.3172 38.3359 95.3172 35.9043C95.3172 33.4922 94.1258 31.9688 92.2215 31.9688ZM104.766 41.3535C101.768 41.3535 99.9122 39.2832 99.9122 35.9043C99.9122 32.5156 101.768 30.4551 104.766 30.4551C107.764 30.4551 109.619 32.5156 109.619 35.9043C109.619 39.2832 107.764 41.3535 104.766 41.3535ZM104.766 39.8398C106.758 39.8398 107.881 38.3945 107.881 35.9043C107.881 33.4043 106.758 31.9688 104.766 31.9688C102.774 31.9688 101.651 33.4043 101.651 35.9043C101.651 38.3945 102.774 39.8398 104.766 39.8398ZM125.328 30.6406L122.378 41.168H120.669L118.316 33.0234H118.16L115.816 41.168H114.117L111.167 30.6406H112.867L114.937 39.0586H115.093L117.447 30.6406H119.058L121.412 39.0586H121.568L123.638 30.6406H125.328ZM127.257 33.5215C127.257 31.7734 128.946 30.4551 131.182 30.4551C133.389 30.4551 134.923 31.5488 135.147 33.2773H133.487C133.262 32.4375 132.442 31.8809 131.173 31.8809C129.923 31.8809 128.946 32.5156 128.946 33.4531C128.946 34.1758 129.532 34.625 130.772 34.9277L132.393 35.3184C134.376 35.7969 135.333 36.6562 135.333 38.1699C135.333 40.0547 133.507 41.3535 131.114 41.3535C128.77 41.3535 127.159 40.2305 126.973 38.4824H128.702C128.985 39.3711 129.825 39.9375 131.173 39.9375C132.589 39.9375 133.604 39.2637 133.604 38.2969C133.604 37.5742 133.057 37.0859 131.934 36.8125L130.128 36.373C128.155 35.8945 127.257 35.0449 127.257 33.5215ZM144.269 27.0762H149.591C152.257 27.0762 154.103 28.9512 154.103 31.6367C154.103 34.2734 152.218 36.1387 149.572 36.1387H146.027V41.168H144.269V27.0762ZM146.027 28.6387V34.5762H149.132C151.134 34.5762 152.296 33.502 152.296 31.6367C152.296 29.7031 151.173 28.6387 149.132 28.6387H146.027ZM162.877 41.5C159.049 41.5 156.657 38.668 156.657 34.127C156.657 29.5762 159.04 26.7441 162.868 26.7441C165.836 26.7441 168.151 28.6094 168.571 31.3242H166.784C166.315 29.5078 164.811 28.3652 162.868 28.3652C160.163 28.3652 158.463 30.5918 158.463 34.127C158.463 37.6621 160.163 39.8789 162.877 39.8789C164.84 39.8789 166.334 38.873 166.784 37.2422H168.571C168.102 39.8301 165.876 41.5 162.877 41.5Z" fill="black"/>
</g>
<defs>
<clipPath id="clip0_957_5621">
<rect x="0.5" width="181" height="55" rx="9" fill="white"/>
</clipPath>
</defs>
</svg>
