<svg width="39" height="45" viewBox="0 0 39 45" fill="none" xmlns="http://www.w3.org/2000/svg">
<path d="M3.88672 17.484V28.7653V17.484ZM35.7149 17.484V28.7653V17.484ZM24.3242 35.7913V41.7496V35.7913ZM15.2773 35.7913V41.7496V35.7913Z" fill="black"/>
<path d="M3.88672 17.484V28.7653M35.7149 17.484V28.7653M24.3242 35.7913V41.7496M15.2773 35.7913V41.7496" stroke="white" stroke-width="6.17383" stroke-linecap="round"/>
<path d="M14.1042 4.28088L12.2969 0.874634L14.1042 4.28088ZM25.3854 4.28088L27.3021 0.874634L25.3854 4.28088Z" fill="black"/>
<path d="M14.1042 4.28088L12.2969 0.874634M25.3854 4.28088L27.3021 0.874634" stroke="white" stroke-width="0.851563" stroke-linecap="round"/>
<path d="M19.8542 3.00452C11.7604 3.00452 7.60938 9.38993 7.60938 14.1816H31.9844C31.9844 9.1816 27.5156 3.11389 19.8542 3.00452ZM7.60938 15.2441V32.7024C7.60938 34.4056 8.99479 35.791 10.5938 35.791H28.901C30.6042 35.791 31.9844 34.4056 31.9844 32.7024V15.2441H7.60938Z" fill="white"/>
<path d="M15.1667 8.75484C15.1667 9.02047 15.0729 9.24442 14.8854 9.43193C14.7031 9.61942 14.474 9.71318 14.2083 9.71318C13.9479 9.71318 13.7188 9.61942 13.5312 9.43193C13.3438 9.24442 13.25 9.02047 13.25 8.75484C13.25 8.48922 13.3438 8.26526 13.5312 8.07776C13.7188 7.89026 13.9479 7.79651 14.2083 7.79651C14.474 7.79651 14.7031 7.89026 14.8854 8.07776C15.0729 8.26526 15.1667 8.48922 15.1667 8.75484Z" fill="black"/>
<path d="M26.3464 8.75484C26.3464 9.02047 26.2526 9.24442 26.0651 9.43193C25.8828 9.61942 25.6536 9.71318 25.388 9.71318C25.1276 9.71318 24.8984 9.61942 24.7109 9.43193C24.5234 9.24442 24.4297 9.02047 24.4297 8.75484C24.4297 8.48922 24.5234 8.26526 24.7109 8.07776C24.8984 7.89026 25.1276 7.79651 25.388 7.79651C25.6536 7.79651 25.8828 7.89026 26.0651 8.07776C26.2526 8.26526 26.3464 8.48922 26.3464 8.75484Z" fill="black"/>
</svg>
