<svg width="38" height="49" viewBox="0 0 38 49" fill="none" xmlns="http://www.w3.org/2000/svg">
<mask id="mask0_572_4377" style="mask-type:luminance" maskUnits="userSpaceOnUse" x="0" y="13" width="38" height="36">
<path d="M0.539062 13.6256H37.0859V48.2246H0.539062V13.6256Z" fill="white"/>
</mask>
<g mask="url(#mask0_572_4377)">
<path fill-rule="evenodd" clip-rule="evenodd" d="M8.76821 14.5839C5.28905 15.7402 2.56509 18.5995 1.47655 22.2454C0.622379 25.1048 0.0859203 29.86 2.40884 36.235C2.42967 36.3027 4.71613 42.5943 10.3255 45.9902C13.0859 47.6725 16.539 47.5943 19.1172 45.8131L19.2213 45.7454C19.3203 45.6673 19.4245 45.5995 19.513 45.5318C19.6588 45.4068 19.8255 45.3548 19.9922 45.3548C20.164 45.3548 20.3203 45.4068 20.4661 45.511C20.6015 45.6204 20.7318 45.7245 20.8463 45.787L20.8672 45.8027C23.4505 47.5943 26.9036 47.662 29.664 45.9798C34.6849 42.9277 37.0338 37.5995 37.4922 36.4485C37.388 36.4485 37.289 36.4485 37.1901 36.4485H37.164C34.4974 36.4485 31.9713 35.4016 30.0911 33.5214C28.1953 31.6256 27.138 29.11 27.138 26.4329C27.1276 21.7089 30.4349 17.6725 34.914 16.636C33.8359 15.7193 32.5911 15.011 31.2422 14.5631C25.289 12.5891 21.0234 16.761 20.5651 17.2454L20.5443 17.2662C20.2526 17.5579 19.7682 17.5579 19.4765 17.2662L19.4557 17.2454C18.9713 16.7818 14.7213 12.61 8.76821 14.5839Z" fill="white"/>
</g>
<path fill-rule="evenodd" clip-rule="evenodd" d="M22.3494 2.67239C20.7452 4.27656 19.9692 6.65677 20.115 9.41718C22.8858 9.56302 25.2608 8.77656 26.865 7.16198C28.4692 5.55781 29.2556 3.1776 29.0994 0.417184C26.3285 0.27135 23.9535 1.05781 22.3494 2.67239Z" fill="white"/>
</svg>
