<svg width="18" height="16" viewBox="0 0 18 16" fill="none" xmlns="http://www.w3.org/2000/svg">
    <path
        d="M2.18724 5.9984C2.84642 6.33491 3.32419 6.66505 3.58908 7.23134C3.89223 7.90339 4.26872 8.61289 4.57197 9.28495C4.6835 9.42817 4.93813 9.47187 5.08123 9.37246C5.11616 9.30415 5.18939 9.34149 5.22433 9.27306C5.40225 9.10535 5.65352 8.97485 5.7582 8.76968C6.56807 7.54503 7.63594 6.53815 8.59227 5.38818C8.66214 5.25144 8.69708 5.18301 8.84006 5.0836C10.3755 3.8844 11.6529 2.46727 13.3383 1.51701C13.7325 1.2872 14.0536 1.02 14.4862 0.895959C15.4911 0.374321 16.6178 0.518383 17.5035 1.31538C17.9081 1.60811 17.995 2.3422 17.639 2.67776C17.4261 2.91402 17.2132 3.15017 16.8922 3.4174C16.1419 3.98285 15.3917 4.54817 14.7147 5.15095C13.7166 6.02097 12.7569 6.99675 11.9819 8.1531C11.2419 9.24101 10.3171 10.1485 9.53876 11.1306C9.11294 11.603 8.76034 12.1128 8.40787 12.6225C8.12515 12.9955 7.88072 13.4743 7.52477 13.81C5.99615 15.3574 6.24741 15.227 4.2417 14.6343C3.91384 14.5532 3.65583 14.3353 3.36286 14.1857C2.40731 13.5254 1.73789 12.6665 1.46276 11.5776C1.11099 10.2772 0.685965 8.93944 0.260933 7.6017C0.219191 7.32174 0.250692 7.07911 0.320526 6.94237C0.599827 6.39517 1.02904 6.09696 1.56981 5.94198C1.78612 5.87991 2.07908 6.02949 2.18724 5.9984Z"
        fill="url(#paint0_linear_1024_1236)" />
    <defs>
        <linearGradient id="paint0_linear_1024_1236" x1="6.19843" y1="-4.57243" x2="18.847" y2="3.07249"
            gradientUnits="userSpaceOnUse">
            <stop stop-color="#17FFBA" />
            <stop offset="0.130208" stop-color="#76B4C8" />
            <stop offset="1" stop-color="#2F57A7" />
        </linearGradient>
    </defs>
</svg>