<svg width="37" height="38" viewBox="0 0 37 38" fill="none" xmlns="http://www.w3.org/2000/svg">
<mask id="mask0_958_3636" style="mask-type:luminance" maskUnits="userSpaceOnUse" x="0" y="0" width="37" height="38">
<path d="M0 0.169922H37V37.1699H0V0.169922Z" fill="white"/>
</mask>
<g mask="url(#mask0_958_3636)">
<mask id="mask1_958_3636" style="mask-type:luminance" maskUnits="userSpaceOnUse" x="0" y="0" width="37" height="38">
<path d="M18.5041 0.169922C8.28787 0.169922 0 8.45779 0 18.674C0 28.8903 8.28787 37.1699 18.5041 37.1699C28.7203 37.1699 37 28.8903 37 18.674C37 8.45779 28.7203 0.169922 18.5041 0.169922Z" fill="white"/>
</mask>
<g mask="url(#mask1_958_3636)">
<path d="M0 0.169922H37V37.1699H0V0.169922Z" fill="#555555"/>
</g>
</g>
<mask id="mask2_958_3636" style="mask-type:luminance" maskUnits="userSpaceOnUse" x="7" y="7" width="23" height="23">
<path d="M7.74658 7.58789H29.7956V29.6451H7.74658V7.58789Z" fill="white"/>
</mask>
<g mask="url(#mask2_958_3636)">
<path fill-rule="evenodd" clip-rule="evenodd" d="M25.9065 7.58789C26.2183 7.58789 26.4645 7.84227 26.4645 8.15409V10.0743C26.4645 10.3861 26.2183 10.6405 25.9065 10.6405C25.5947 10.6405 25.3403 10.3861 25.3403 10.0743V8.15409C25.3403 7.84227 25.5947 7.58789 25.9065 7.58789ZM7.78809 12.0272V26.8305C7.78809 28.4306 9.10102 29.7436 10.7011 29.7436H26.2922C27.8923 29.7436 29.2053 28.4306 29.2053 26.8305V12.0272C29.2053 10.5994 28.1631 9.39317 26.7927 9.1552V10.0743C26.7927 10.5666 26.3907 10.9605 25.9065 10.9605C25.4142 10.9605 25.0121 10.5666 25.0121 10.0743V9.11417H11.973V10.0743C11.973 10.5666 11.5792 10.9605 11.0868 10.9605C10.5945 10.9605 10.2006 10.5666 10.2006 10.0743V9.1552C8.83022 9.39317 7.78809 10.5994 7.78809 12.0272ZM9.00255 15.3916H27.9908V27.4624C27.9908 28.1517 27.4246 28.7179 26.7353 28.7179H10.258C9.56875 28.7179 9.00255 28.1517 9.00255 27.4624V15.3916ZM11.0868 7.58789C11.3986 7.58789 11.653 7.84227 11.653 8.15409V10.0743C11.653 10.3861 11.3986 10.6405 11.0868 10.6405C10.775 10.6405 10.5206 10.3861 10.5206 10.0743V8.15409C10.5206 7.84227 10.775 7.58789 11.0868 7.58789ZM22.0498 23.1133H25.0531V26.1166H22.0498V23.1133ZM17.0196 23.1133H20.0229V26.1166H17.0196V23.1133ZM12.0223 23.1133H15.0256V26.1166H12.0223V23.1133ZM22.0498 18.1242H25.0531V21.1275H22.0498V18.1242ZM17.0196 18.1242H20.0229V21.1275H17.0196V18.1242ZM12.0223 18.1242H15.0256V21.1275H12.0223V18.1242Z" fill="white"/>
</g>
</svg>
