<svg width="40" height="40" viewBox="0 0 40 40" fill="none" xmlns="http://www.w3.org/2000/svg">
<path d="M40 20.0039C40 20.659 39.9677 21.3122 39.9032 21.9654C39.8386 22.6166 39.7418 23.2641 39.6145 23.9059C39.4873 24.5477 39.3278 25.1838 39.1379 25.8104C38.9481 26.437 38.7278 27.0522 38.4772 27.6579C38.2265 28.2637 37.9455 28.8542 37.6379 29.4314C37.3284 30.0106 36.9923 30.5707 36.6277 31.1157C36.2651 31.6606 35.8758 32.1866 35.46 32.6917C35.0441 33.1986 34.6036 33.6828 34.1422 34.1461C33.6789 34.6094 33.1928 35.0481 32.6877 35.4639C32.1808 35.8797 31.6548 36.269 31.1098 36.6335C30.5668 36.9981 30.0047 37.3342 29.4275 37.6418C28.8503 37.9513 28.2579 38.2304 27.6521 38.4811C27.0483 38.7317 26.4312 38.952 25.8046 39.1438C25.178 39.3336 24.5438 39.4912 23.9001 39.6203C23.2583 39.7476 22.6108 39.8444 21.9596 39.9071C21.3083 39.9716 20.6551 40.0039 20 40.0039C19.3449 40.0039 18.6898 39.9716 18.0385 39.9071C17.3873 39.8444 16.7398 39.7476 16.098 39.6203C15.4543 39.4912 14.8201 39.3336 14.1935 39.1438C13.5669 38.952 12.9498 38.7317 12.346 38.4811C11.7402 38.2304 11.1497 37.9513 10.5706 37.6418C9.99335 37.3342 9.43321 36.9981 8.88826 36.6335C8.3433 36.269 7.81734 35.8797 7.31226 35.4639C6.80528 35.0481 6.32109 34.6094 5.85778 34.1461C5.39447 33.6828 4.95395 33.1986 4.53812 32.6917C4.12418 32.1866 3.73303 31.6606 3.37036 31.1157C3.00579 30.5707 2.6697 30.0106 2.3602 29.4314C2.0526 28.8542 1.77158 28.2637 1.52093 27.6579C1.27029 27.0522 1.05003 26.437 0.860154 25.8104C0.670274 25.1838 0.510776 24.5477 0.383556 23.9059C0.256337 23.2641 0.159498 22.6166 0.0949397 21.9654C0.0303805 21.3122 0 20.659 0 20.0039C0 19.3488 0.0303805 18.6956 0.0949397 18.0444C0.159498 17.3912 0.256337 16.7456 0.383556 16.1019C0.510776 15.4601 0.670274 14.8259 0.860154 14.1993C1.05003 13.5708 1.27029 12.9556 1.52093 12.3499C1.77158 11.7461 2.0526 11.1536 2.3602 10.5764C2.6697 9.99916 3.00579 9.43712 3.37036 8.89216C3.73303 8.34911 4.12418 7.82314 4.53812 7.31616C4.95395 6.80919 5.39447 6.32499 5.85778 5.86169C6.32109 5.39838 6.80528 4.95976 7.31226 4.54392C7.81734 4.12809 8.3433 3.73883 8.88826 3.37427C9.43321 3.0116 9.99335 2.67551 10.5706 2.36601C11.1497 2.0565 11.7402 1.77738 12.346 1.52674C12.9498 1.2761 13.5669 1.05584 14.1935 0.865959C14.8201 0.67608 15.4543 0.51658 16.098 0.389362C16.7398 0.260243 17.3873 0.165304 18.0385 0.100745C18.6898 0.0361855 19.3449 0.00390625 20 0.00390625C20.6551 0.00390625 21.3083 0.0361855 21.9596 0.100745C22.6108 0.165304 23.2583 0.260243 23.9001 0.389362C24.5438 0.51658 25.178 0.67608 25.8046 0.865959C26.4312 1.05584 27.0483 1.2761 27.6521 1.52674C28.2579 1.77738 28.8503 2.0565 29.4275 2.36601C30.0047 2.67551 30.5668 3.0116 31.1098 3.37427C31.6548 3.73883 32.1808 4.12809 32.6877 4.54392C33.1928 4.95976 33.6789 5.39838 34.1422 5.86169C34.6036 6.32499 35.0441 6.80919 35.46 7.31616C35.8758 7.82314 36.2651 8.34911 36.6277 8.89216C36.9923 9.43712 37.3284 9.99916 37.6379 10.5764C37.9455 11.1536 38.2265 11.7461 38.4772 12.3499C38.7278 12.9556 38.9481 13.5708 39.1379 14.1993C39.3278 14.8259 39.4873 15.4601 39.6145 16.1019C39.7418 16.7456 39.8386 17.3912 39.9032 18.0444C39.9677 18.6956 40 19.3488 40 20.0039Z" fill="#555555"/>
<path fill-rule="evenodd" clip-rule="evenodd" d="M31.3895 26.6664C27.9979 23.7742 26.9944 25.1554 25.4862 26.7883C24.353 27.9236 21.5879 25.5291 19.1978 23.1346C16.8177 20.6202 14.4277 17.85 15.5509 16.7127C17.1928 15.0798 18.5694 14.0644 15.6826 10.5446C12.9194 7.02487 11.1558 9.79311 9.52586 11.3061C7.89592 13.071 9.52586 19.7368 15.9359 26.4126C22.4677 33.0883 29.0014 34.7213 30.7631 32.9564C32.2713 31.4554 34.9048 29.5686 31.3895 26.6664Z" fill="white"/>
</svg>
