<svg width="17" height="16" viewBox="0 0 17 16" fill="none" xmlns="http://www.w3.org/2000/svg">
    <path
        d="M2.20268 6.06533C2.79758 6.40183 3.22877 6.73193 3.46783 7.29823C3.74148 7.97032 4.08123 8.67979 4.35487 9.35188C4.45556 9.49504 4.68538 9.53881 4.81449 9.43941C4.84601 9.37101 4.91211 9.4084 4.94361 9.34C5.10424 9.17221 5.33097 9.04179 5.4255 8.83661C6.15637 7.61188 7.12015 6.60509 7.98323 5.45513C8.04626 5.31834 8.07776 5.24994 8.20689 5.15053C9.59261 3.95132 10.7454 2.53417 12.2664 1.58391C12.6223 1.35409 12.9121 1.08689 13.3025 0.962857C14.2094 0.441214 15.2262 0.585276 16.0256 1.38228C16.3907 1.675 16.4691 2.4091 16.1478 2.74469C15.9558 2.98089 15.7636 3.21708 15.4739 3.48428C14.7968 4.04969 14.1197 4.6151 13.5086 5.2179C12.6079 6.0879 11.7417 7.06368 11.0423 8.22001C10.3745 9.30796 9.53984 10.2154 8.83738 11.1975C8.4531 11.6699 8.13493 12.1797 7.81675 12.6894C7.5616 13.0624 7.34102 13.5412 7.01977 13.8768C5.64021 15.4243 5.86694 15.2939 4.05688 14.7012C3.76096 14.6201 3.52807 14.4022 3.26367 14.2526C2.40128 13.5923 1.79713 12.7333 1.54884 11.6445C1.23135 10.3441 0.847767 9.00633 0.464184 7.66854C0.426512 7.38858 0.45494 7.146 0.517959 7.00922C0.770035 6.46206 1.15739 6.16385 1.64544 6.00881C1.84066 5.94679 2.10506 6.09634 2.20268 6.06533Z"
        fill="url(#paint0_linear_1094_611)" />
    <defs>
        <linearGradient id="paint0_linear_1094_611" x1="0.447266" y1="7.88446" x2="16.3496" y2="7.88446"
            gradientUnits="userSpaceOnUse">
            <stop stop-color="#BFD34E" />
            <stop offset="1" stop-color="#52D34E" />
        </linearGradient>
    </defs>
</svg>