<svg width="119" height="119" viewBox="0 0 119 119" fill="none" xmlns="http://www.w3.org/2000/svg">
<circle cx="59.4502" cy="59.376" r="58.5" fill="#1A1A1A" stroke="white"/>
<mask id="mask0_60_2131" style="mask-type:luminance" maskUnits="userSpaceOnUse" x="38" y="41" width="43" height="37">
<path d="M38.4502 41.376H80.4502V77.376H38.4502V41.376Z" fill="white"/>
</mask>
<g mask="url(#mask0_60_2131)">
<path d="M41.7314 41.376C39.9346 41.376 38.4814 42.8343 38.4814 44.6312V73.9229C38.4814 75.7197 39.9346 77.1729 41.7314 77.1729H77.5283C79.3304 77.1729 80.7835 75.7197 80.7835 73.9229V47.8864C80.7835 46.0895 79.3304 44.6312 77.5283 44.6312H53.4502L52.445 42.9593C51.8564 41.9801 50.7992 41.376 49.6533 41.376H41.7314ZM59.6325 51.1416C60.5335 51.1416 61.2575 51.8708 61.2575 52.7666V65.1104L64.9919 61.3812C65.6273 60.7458 66.6533 60.7458 67.2887 61.3812C67.9294 62.0166 67.9294 63.0426 67.2887 63.6833L60.7835 70.1885C60.4658 70.5062 60.0492 70.6676 59.6325 70.6676C59.2158 70.6676 58.7992 70.5062 58.4814 70.1885L51.971 63.6833C51.3356 63.0426 51.3356 62.0166 51.971 61.3812C52.6117 60.7458 53.6377 60.7458 54.2731 61.3812L58.0075 65.1104V52.7666C58.0075 51.8708 58.7314 51.1416 59.6325 51.1416Z" fill="#CFD4D4"/>
</g>
</svg>
