<svg width="40" height="40" viewBox="0 0 40 40" fill="none" xmlns="http://www.w3.org/2000/svg">
<path d="M40 20.0039C40 31.0492 31.0453 40.0039 20 40.0039C8.95282 40.0039 0 31.0492 0 20.0039C0 8.95862 8.95282 0.00390625 20 0.00390625C31.0453 0.00390625 40 8.95862 40 20.0039Z" fill="#555555"/>
<path d="M17.5573 20.8535L8.7998 27.2828V12.7969L17.5573 20.8535Z" fill="white"/>
<path d="M31.0686 27.4529H9.1748L17.9162 21.0977L19.9921 22.9889C20.0631 23.0534 20.1803 23.0534 20.2513 22.9889L22.3272 21.0977L31.0686 27.4529Z" fill="white"/>
<path d="M31.2136 12.7969V27.2828L22.4561 20.8535L31.2136 12.7969Z" fill="white"/>
<path d="M30.9798 12.5625L22.0851 20.733C22.0832 20.7349 22.0813 20.7368 22.0794 20.7387L20.0338 22.6185L17.9863 20.7387C17.9844 20.7368 17.9825 20.7349 17.9806 20.733L9.08594 12.5625H30.9798Z" fill="white"/>
</svg>
