<svg width="57" height="58" viewBox="0 0 57 58" fill="none" xmlns="http://www.w3.org/2000/svg">
<mask id="mask0_988_5046" style="mask-type:luminance" maskUnits="userSpaceOnUse" x="0" y="0" width="57" height="58">
<path d="M0 0.5H57V57.5H0V0.5Z" fill="white"/>
</mask>
<g mask="url(#mask0_988_5046)">
<mask id="mask1_988_5046" style="mask-type:luminance" maskUnits="userSpaceOnUse" x="0" y="0" width="57" height="58">
<path d="M28.4966 0.5C12.7624 0.5 0 13.2624 0 28.9966C0 44.7376 12.7624 57.5 28.4966 57.5C44.2376 57.5 57 44.7376 57 28.9966C57 13.2624 44.2376 0.5 28.4966 0.5Z" fill="white"/>
</mask>
<g mask="url(#mask1_988_5046)">
<path d="M0 0.5H57V57.5H0V0.5Z" fill="white"/>
</g>
</g>
<mask id="mask2_988_5046" style="mask-type:luminance" maskUnits="userSpaceOnUse" x="0" y="0" width="57" height="58">
<path d="M54.9238 2.5V55.4238H2V2.5H54.9238Z" fill="white" stroke="white" stroke-width="4"/>
</mask>
<g mask="url(#mask2_988_5046)">
<mask id="mask3_988_5046" style="mask-type:luminance" maskUnits="userSpaceOnUse" x="0" y="0" width="57" height="58">
<path d="M28.4893 2.5C43.1259 2.5 54.9861 14.3602 54.9863 28.9893C54.9863 43.6257 43.1257 55.4863 28.4893 55.4863C13.8602 55.4861 2 43.6259 2 28.9893C2.00022 14.36 13.86 2.50022 28.4893 2.5Z" fill="white" stroke="white" stroke-width="4"/>
</mask>
<g mask="url(#mask3_988_5046)">
<path d="M28.4897 0.5C12.7555 0.5 0 13.2555 0 28.9897C0 44.7307 12.7555 57.4862 28.4897 57.4862C44.2307 57.4862 56.9862 44.7307 56.9862 28.9897C56.9862 13.2555 44.2307 0.5 28.4897 0.5Z" stroke="#828284" stroke-width="4"/>
</g>
</g>
<mask id="mask4_988_5046" style="mask-type:luminance" maskUnits="userSpaceOnUse" x="21" y="13" width="15" height="32">
<path d="M21.3362 13.8545H35.8982V44.3023H21.3362V13.8545Z" fill="white"/>
</mask>
<g mask="url(#mask4_988_5046)">
<path d="M32.5404 18.9151H35.8982V13.9163H31.6096V13.93C25.9695 14.1369 24.8112 17.2534 24.7147 20.5491H24.7009V24.0173H21.3362V29.0229H24.7009V44.24H30.727V29.0229H35.0501L35.8982 24.0173H30.727V20.9146C30.727 19.8114 31.4786 18.9151 32.5404 18.9151Z" fill="black"/>
</g>
</svg>
