<svg width="179" height="55" viewBox="0 0 179 55" fill="none" xmlns="http://www.w3.org/2000/svg">
<g clip-path="url(#clip0_957_5644)">
<rect x="0.5" width="178" height="55" rx="9" fill="white"/>
<path d="M170.328 0.667969H8.5C4.35786 0.667969 1 4.02583 1 8.16797V46.168C1 50.3101 4.35786 53.668 8.5 53.668H170.328C174.47 53.668 177.828 50.3101 177.828 46.168V8.16797C177.828 4.02583 174.47 0.667969 170.328 0.667969Z" stroke="white"/>
<path d="M62.1396 17.4443C62.1396 19.1825 60.9482 20.3349 59.1465 20.3349C57.1982 20.3349 55.9531 18.8993 55.9531 16.6435C55.9531 14.4169 57.2178 12.957 59.1465 12.957C60.709 12.957 61.8418 13.8261 62.0957 15.2226H61.2021C60.8994 14.2704 60.1914 13.7675 59.1465 13.7675C57.75 13.7675 56.8564 14.8905 56.8564 16.6435C56.8564 18.4208 57.7354 19.5243 59.1514 19.5243C60.4111 19.5243 61.2656 18.7187 61.2656 17.5273V17.3564H59.2832V16.5849H62.1396V17.4443ZM68.0625 19.3779V20.1689H63.6973V13.123H68.0625V13.914H64.5762V16.1747H67.8818V16.956H64.5762V19.3779H68.0625ZM72.3643 20.1689H71.4854V13.914H69.2148V13.123H74.6348V13.914H72.3643V20.1689ZM79.6934 20.1689H78.8145V13.123H79.6934V20.1689ZM84.2002 20.1689H83.3213V13.914H81.0508V13.123H86.4707V13.914H84.2002V20.1689ZM93.6143 12.957C95.6162 12.957 96.8369 14.3827 96.8369 16.6435C96.8369 18.8945 95.626 20.3349 93.6143 20.3349C91.5928 20.3349 90.377 18.8993 90.377 16.6435C90.377 14.3779 91.6221 12.957 93.6143 12.957ZM93.6143 13.7675C92.1787 13.7675 91.2803 14.8808 91.2803 16.6435C91.2803 18.3915 92.1494 19.5243 93.6143 19.5243C95.0596 19.5243 95.9336 18.3915 95.9336 16.6435C95.9336 14.8808 95.0547 13.7675 93.6143 13.7675ZM99.2344 20.1689H98.3652V13.123H99.2197L103.043 18.6064H103.121V13.123H103.99V20.1689H103.136L99.3125 14.705H99.2344V20.1689Z" fill="black"/>
<path d="M67.9512 34.7188C67.9512 38.1953 65.5684 40.5 61.9648 40.5C58.0684 40.5 55.5781 37.6289 55.5781 33.1172C55.5781 28.6641 58.1074 25.7441 61.9648 25.7441C65.0898 25.7441 67.3555 27.4824 67.8633 30.2754H66.0762C65.4707 28.3711 64.0547 27.3652 61.9648 27.3652C59.1719 27.3652 57.3848 29.6113 57.3848 33.1172C57.3848 36.6719 59.1426 38.8789 61.9746 38.8789C64.4941 38.8789 66.2031 37.2676 66.2031 34.8848V34.543H62.2383V33H67.9512V34.7188ZM75.3977 40.3535C72.3997 40.3535 70.5442 38.2832 70.5442 34.9043C70.5442 31.5156 72.3997 29.4551 75.3977 29.4551C78.3958 29.4551 80.2513 31.5156 80.2513 34.9043C80.2513 38.2832 78.3958 40.3535 75.3977 40.3535ZM75.3977 38.8398C77.3899 38.8398 78.513 37.3945 78.513 34.9043C78.513 32.4043 77.3899 30.9688 75.3977 30.9688C73.4055 30.9688 72.2825 32.4043 72.2825 34.9043C72.2825 37.3945 73.4055 38.8398 75.3977 38.8398ZM87.4341 40.3535C84.4361 40.3535 82.5806 38.2832 82.5806 34.9043C82.5806 31.5156 84.4361 29.4551 87.4341 29.4551C90.4322 29.4551 92.2877 31.5156 92.2877 34.9043C92.2877 38.2832 90.4322 40.3535 87.4341 40.3535ZM87.4341 38.8398C89.4263 38.8398 90.5494 37.3945 90.5494 34.9043C90.5494 32.4043 89.4263 30.9688 87.4341 30.9688C85.442 30.9688 84.3189 32.4043 84.3189 34.9043C84.3189 37.3945 85.442 38.8398 87.4341 38.8398ZM99.4022 38.5273C101.355 38.5273 102.527 37.043 102.527 34.748C102.527 32.4531 101.346 30.9688 99.4022 30.9688C97.4491 30.9688 96.3553 32.4531 96.3553 34.748C96.3553 37.043 97.4491 38.5273 99.4022 38.5273ZM99.4803 44.2109C96.9412 44.2109 95.3202 43.0684 95.0662 41.3301H96.8436C97.0291 42.1895 97.9666 42.7461 99.4803 42.7461C101.365 42.7461 102.488 41.8184 102.488 40.2656V38.1953H102.332C101.668 39.3574 100.476 40.0117 99.0311 40.0117C96.3065 40.0117 94.617 37.9023 94.617 34.748C94.617 31.5938 96.326 29.4551 99.0311 29.4551C100.506 29.4551 101.805 30.1777 102.41 31.3105H102.566V29.6406H104.168V40.3535C104.168 42.707 102.351 44.2109 99.4803 44.2109ZM107.65 40.168V25.4609H109.329V40.168H107.65ZM117.01 30.9395C115.33 30.9395 114.159 32.1699 114.032 34.0352H119.832C119.793 32.1699 118.68 30.9395 117.01 30.9395ZM119.784 37.4434H121.463C120.955 39.25 119.334 40.3535 117.03 40.3535C114.11 40.3535 112.284 38.2441 112.284 34.9141C112.284 31.6035 114.139 29.4551 117.03 29.4551C119.871 29.4551 121.6 31.4766 121.6 34.748V35.3926H114.032V35.4707C114.12 37.5508 115.282 38.8691 117.069 38.8691C118.426 38.8691 119.344 38.3711 119.784 37.4434ZM130.536 26.0762H135.858C138.524 26.0762 140.37 27.9512 140.37 30.6367C140.37 33.2734 138.485 35.1387 135.839 35.1387H132.294V40.168H130.536V26.0762ZM132.294 27.6387V33.5762H135.399C137.401 33.5762 138.563 32.502 138.563 30.6367C138.563 28.7031 137.44 27.6387 135.399 27.6387H132.294ZM143.354 40.168V25.4609H145.033V40.168H143.354ZM151.757 38.8789C153.486 38.8789 154.765 37.7461 154.765 36.2422V35.2754L151.933 35.4609C150.332 35.5684 149.628 36.125 149.628 37.1797C149.628 38.2539 150.537 38.8789 151.757 38.8789ZM151.445 40.3535C149.404 40.3535 147.89 39.1426 147.89 37.2188C147.89 35.334 149.277 34.25 151.728 34.1035L154.765 33.918V32.9609C154.765 31.6621 153.955 30.9492 152.382 30.9492C151.123 30.9492 150.244 31.4277 150.009 32.2578H148.31C148.535 30.5684 150.195 29.4551 152.441 29.4551C155.009 29.4551 156.445 30.7734 156.445 32.9609V40.168H154.843V38.6152H154.687C154.003 39.7383 152.851 40.3535 151.445 40.3535ZM160.278 43.9766C160.054 43.9766 159.761 43.957 159.526 43.918V42.4824C159.731 42.5215 159.995 42.5312 160.229 42.5312C161.196 42.5312 161.723 42.0723 162.163 40.8027L162.358 40.1777L158.462 29.6406H160.278L163.169 38.3027H163.325L166.206 29.6406H167.993L163.882 40.8125C162.983 43.2539 162.143 43.9766 160.278 43.9766Z" fill="black"/>
<g clip-path="url(#clip1_957_5644)">
<path d="M16.6116 13.1048C16.2563 13.5743 16.0586 14.1518 16.0586 14.7698V39.2299C16.0586 39.8039 16.2298 40.3432 16.5391 40.7936L29.848 26.9114L16.6116 13.1048ZM31.0666 25.6402L35.3842 21.1367L20.2073 12.3746C19.5487 11.9941 18.7929 11.9039 18.0877 12.1021L31.0666 25.6402ZM31.0666 28.1825L17.9564 41.8572C18.2361 41.9515 18.5292 41.9998 18.8244 42C19.2994 42 19.7745 41.8751 20.2073 41.6251L35.4934 32.7996L31.0666 28.1825ZM41.3903 24.6045L36.9532 22.0427L32.2854 26.9113L37.0622 31.894L41.3903 29.3951C42.2564 28.8952 42.7735 27.9996 42.7735 26.9998C42.7735 25.9998 42.2564 25.1044 41.3903 24.6045Z" fill="black"/>
</g>
</g>
<defs>
<clipPath id="clip0_957_5644">
<rect x="0.5" width="178" height="55" rx="9" fill="white"/>
</clipPath>
<clipPath id="clip1_957_5644">
<rect width="30" height="30" fill="white" transform="translate(16 12)"/>
</clipPath>
</defs>
</svg>
