<svg width="41" height="41" viewBox="0 0 41 41" fill="none" xmlns="http://www.w3.org/2000/svg">
<mask id="mask0_1620_6913" style="mask-type:luminance" maskUnits="userSpaceOnUse" x="4" y="4" width="33" height="33">
<path d="M4.2793 4.27856H36.777V36.7763H4.2793V4.27856Z" fill="white"/>
</mask>
<g mask="url(#mask0_1620_6913)">
<mask id="mask1_1620_6913" style="mask-type:luminance" maskUnits="userSpaceOnUse" x="4" y="4" width="33" height="33">
<path d="M20.5251 4.27856C11.5564 4.27856 4.2793 11.5557 4.2793 20.5305C4.2793 29.5052 11.5564 36.7763 20.5251 36.7763C29.4999 36.7763 36.777 29.5052 36.777 20.5305C36.777 11.5557 29.4999 4.27856 20.5251 4.27856Z" fill="white"/>
</mask>
<g mask="url(#mask1_1620_6913)">
<path d="M4.2793 4.27856H36.777V36.7763H4.2793V4.27856Z" fill="black"/>
</g>
</g>
<mask id="mask2_1620_6913" style="mask-type:luminance" maskUnits="userSpaceOnUse" x="0" y="0" width="41" height="41">
<path d="M0.5 0.5H40.5V40.5H0.5V0.5Z" fill="white"/>
</mask>
<g mask="url(#mask2_1620_6913)">
<path d="M20.5 0.5C19.1857 0.5 17.8836 0.627775 16.5937 0.883328C15.3099 1.13888 14.0564 1.52221 12.8456 2.02114C11.6287 2.52616 10.4787 3.14071 9.38348 3.87086C8.29434 4.601 7.2843 5.42851 6.35336 6.35945C5.42851 7.29039 4.59492 8.30043 3.87086 9.38957C3.14071 10.4787 2.52008 11.6348 2.02114 12.8456C1.51612 14.0625 1.13888 15.3099 0.883328 16.5998C0.627775 17.8897 0.5 19.1857 0.5 20.5C0.5 21.8143 0.627775 23.1164 0.883328 24.4063C1.13888 25.6901 1.51612 26.9436 2.02114 28.1544C2.52008 29.3713 3.14071 30.5213 3.87086 31.6165C4.59492 32.7057 5.42851 33.7157 6.35336 34.6466C7.2843 35.5715 8.29434 36.4051 9.38348 37.1291C10.4787 37.8593 11.6287 38.4799 12.8456 38.9789C14.0564 39.4839 15.3099 39.8611 16.5937 40.1167C17.8836 40.3722 19.1857 40.5 20.5 40.5C21.8143 40.5 23.1103 40.3722 24.4002 40.1167C25.6901 39.8611 26.9375 39.4839 28.1544 38.9789C29.3652 38.4799 30.5213 37.8593 31.6104 37.1291C32.6996 36.4051 33.7157 35.5715 34.6406 34.6466C35.5715 33.7157 36.399 32.7057 37.1291 31.6165C37.8593 30.5213 38.4738 29.3713 38.9789 28.1544C39.4778 26.9436 39.8611 25.6901 40.1167 24.4063C40.3722 23.1164 40.5 21.8143 40.5 20.5C40.5 19.1857 40.3722 17.8897 40.1167 16.5998C39.8611 15.3099 39.4778 14.0625 38.9789 12.8456C38.4738 11.6348 37.8593 10.4848 37.1291 9.38957C36.399 8.30043 35.5715 7.29039 34.6406 6.35945C33.7096 5.42851 32.6996 4.601 31.6104 3.87086C30.5152 3.14071 29.3652 2.52616 28.1544 2.02114C26.9375 1.52221 25.6901 1.13888 24.4002 0.883328C23.1103 0.627775 21.8143 0.5 20.5 0.5ZM11.288 10.6308H29.712C30.1075 10.6308 30.4848 10.6977 30.8559 10.8377C31.221 10.9716 31.5557 11.1723 31.8538 11.4279C32.152 11.6834 32.3953 11.9816 32.5901 12.3284C32.7787 12.6692 32.9004 13.0403 32.9612 13.4236C32.6996 13.5697 22.5748 19.4048 21.9055 19.7881C21.4674 20.0376 20.9989 20.1593 20.5 20.1593C19.995 20.1593 19.5265 20.0376 19.0945 19.7881C18.4373 19.4169 8.28826 13.6305 8.0327 13.4784C8.08747 13.0829 8.20916 12.7117 8.39778 12.3588C8.5864 12.012 8.82979 11.7078 9.12793 11.4462C9.42607 11.1845 9.76073 10.9837 10.1319 10.8438C10.503 10.7038 10.8864 10.6308 11.288 10.6308ZM32.9977 27.0835C32.9977 27.5216 32.9125 27.9354 32.7483 28.343C32.5779 28.7446 32.3406 29.0975 32.0364 29.4078C31.726 29.712 31.3731 29.9554 30.9716 30.1197C30.5639 30.284 30.1501 30.3692 29.712 30.3692H11.288C10.8499 30.3692 10.43 30.284 10.0284 30.1197C9.62686 29.9554 9.26787 29.712 8.96364 29.4078C8.65333 29.0975 8.41603 28.7446 8.25175 28.343C8.08138 27.9354 7.9962 27.5216 7.9962 27.0835V14.9691L18.4495 20.932C19.0823 21.2971 19.7699 21.4796 20.5 21.4796C21.2362 21.4796 21.9177 21.2971 22.5566 20.932L32.9977 14.9204V27.0835Z" fill="#00DD6C"/>
</g>
</svg>
