<svg width="48" height="48" viewBox="0 0 48 48" fill="none" xmlns="http://www.w3.org/2000/svg">
    <mask id="mask0_1050_3799" style="mask-type:luminance" maskUnits="userSpaceOnUse" x="0" y="0" width="48"
        height="48">
        <path d="M0 0.259277H47.5079V47.7729H0V0.259277Z" fill="white" />
    </mask>
    <g mask="url(#mask0_1050_3799)">
        <mask id="mask1_1050_3799" style="mask-type:luminance" maskUnits="userSpaceOnUse" x="0" y="0" width="48"
            height="48">
            <path
                d="M23.7511 0.259277C10.6371 0.259277 0 10.8964 0 24.0161C0 37.1358 10.6371 47.7729 23.7511 47.7729C36.8708 47.7729 47.5079 37.1358 47.5079 24.0161C47.5079 10.8964 36.8708 0.259277 23.7511 0.259277Z"
                fill="white" />
        </mask>
        <g mask="url(#mask1_1050_3799)">
            <path d="M0 0.259277H47.5079V47.7729H0V0.259277Z" fill="black" />
        </g>
    </g>
    <mask id="mask2_1050_3799" style="mask-type:luminance" maskUnits="userSpaceOnUse" x="0" y="0" width="48"
        height="48">
        <path d="M0 0.259277H47.4447V47.7039H0V0.259277Z" fill="white" />
    </mask>
    <g mask="url(#mask2_1050_3799)">
        <mask id="mask3_1050_3799" style="mask-type:luminance" maskUnits="userSpaceOnUse" x="0" y="0" width="48"
            height="48">
            <path
                d="M23.7453 0.259277C10.6314 0.259277 0 10.8964 0 24.0103C0 37.1243 10.6314 47.7557 23.7453 47.7557C36.865 47.7557 47.4964 37.1243 47.4964 24.0103C47.4964 10.8964 36.865 0.259277 23.7453 0.259277Z"
                fill="white" />
        </mask>
        <g mask="url(#mask3_1050_3799)">
            <path
                d="M23.7453 0.259277C10.6314 0.259277 0 10.8964 0 24.0103C0 37.1243 10.6314 47.7557 23.7453 47.7557C36.865 47.7557 47.4964 37.1243 47.4964 24.0103C47.4964 10.8964 36.865 0.259277 23.7453 0.259277Z"
                stroke="#828284" stroke-width="3.16719" />
        </g>
    </g>
    <path
        d="M20.5889 24.0043C20.5889 22.2573 22.0026 20.8494 23.7438 20.8494C25.485 20.8494 26.8987 22.2573 26.8987 24.0043C26.8987 25.7455 25.485 27.1592 23.7438 27.1592C22.0026 27.1592 20.5889 25.7455 20.5889 24.0043Z"
        fill="white" />
    <mask id="mask4_1050_3799" style="mask-type:luminance" maskUnits="userSpaceOnUse" x="11" y="11" width="26"
        height="26">
        <path d="M11.1284 11.3911H36.5058V36.7685H11.1284V11.3911Z" fill="white" />
    </mask>
    <g mask="url(#mask4_1050_3799)">
        <path fill-rule="evenodd" clip-rule="evenodd"
            d="M23.7423 36.6246C13.3523 36.6246 11.1226 34.3949 11.1226 24.0049C11.1226 13.6091 13.3523 11.3794 23.7423 11.3794C34.138 11.3794 36.3678 13.6091 36.3678 24.0049C36.3678 34.3949 34.138 36.6246 23.7423 36.6246ZM27.9489 17.695C27.9489 18.2754 28.4201 18.7467 29.0005 18.7467C29.5809 18.7467 30.0522 18.2754 30.0522 17.695C30.0522 17.1088 29.5809 16.6434 29.0005 16.6434C28.4201 16.6434 27.9489 17.1088 27.9489 17.695ZM18.4841 24.0049C18.4841 21.097 20.8402 18.7467 23.7423 18.7467C26.6501 18.7467 29.0005 21.097 29.0005 24.0049C29.0005 26.9069 26.6501 29.2631 23.7423 29.2631C20.8402 29.2631 18.4841 26.9069 18.4841 24.0049Z"
            fill="white" />
    </g>
</svg>