<svg width="57" height="58" viewBox="0 0 57 58" fill="none" xmlns="http://www.w3.org/2000/svg">
<mask id="mask0_988_5157" style="mask-type:luminance" maskUnits="userSpaceOnUse" x="0" y="0" width="57" height="58">
<path d="M0 0.5H57V57.5H0V0.5Z" fill="white"/>
</mask>
<g mask="url(#mask0_988_5157)">
<mask id="mask1_988_5157" style="mask-type:luminance" maskUnits="userSpaceOnUse" x="0" y="0" width="57" height="58">
<path d="M28.4966 0.5C12.7624 0.5 0 13.2609 0 29C0 44.7391 12.7624 57.5 28.4966 57.5C44.2376 57.5 57 44.7391 57 29C57 13.2609 44.2376 0.5 28.4966 0.5Z" fill="white"/>
</mask>
<g mask="url(#mask1_988_5157)">
<path d="M0 0.5H57V57.5H0V0.5Z" fill="white"/>
</g>
</g>
<mask id="mask2_988_5157" style="mask-type:luminance" maskUnits="userSpaceOnUse" x="0" y="0" width="57" height="58">
<path d="M54.9238 2.5V55.417H2V2.5H54.9238Z" fill="white" stroke="white" stroke-width="4"/>
</mask>
<g mask="url(#mask2_988_5157)">
<mask id="mask3_988_5157" style="mask-type:luminance" maskUnits="userSpaceOnUse" x="0" y="0" width="57" height="58">
<path d="M28.4893 2.5C43.1256 2.5 54.9863 14.3654 54.9863 28.9932C54.9863 43.6202 43.1262 55.4795 28.4893 55.4795C13.8597 55.4793 2.00003 43.6204 2 28.9932C2 14.3652 13.8603 2.50022 28.4893 2.5Z" fill="white" stroke="white" stroke-width="4"/>
</mask>
<g mask="url(#mask3_988_5157)">
<path d="M28.4897 0.5C12.7555 0.5 0 13.2609 0 28.9931C0 44.7253 12.7555 57.4793 28.4897 57.4793C44.2307 57.4793 56.9862 44.7253 56.9862 28.9931C56.9862 13.2609 44.2307 0.5 28.4897 0.5Z" stroke="#828284" stroke-width="4"/>
</g>
</g>
<path d="M24.7029 28.9855C24.7029 26.8897 26.399 25.2007 28.4882 25.2007C30.5773 25.2007 32.2735 26.8897 32.2735 28.9855C32.2735 31.0744 30.5773 32.7703 28.4882 32.7703C26.399 32.7703 24.7029 31.0744 24.7029 28.9855Z" fill="black"/>
<mask id="mask4_988_5157" style="mask-type:luminance" maskUnits="userSpaceOnUse" x="13" y="13" width="31" height="32">
<path d="M13.3521 13.8545H43.7999V44.2986H13.3521V13.8545Z" fill="white"/>
</mask>
<g mask="url(#mask4_988_5157)">
<path fill-rule="evenodd" clip-rule="evenodd" d="M28.4861 44.1261C16.0202 44.1261 13.345 41.4512 13.345 28.9868C13.345 16.5155 16.0202 13.8406 28.4861 13.8406C40.959 13.8406 43.6342 16.5155 43.6342 28.9868C43.6342 41.4512 40.959 44.1261 28.4861 44.1261ZM33.5332 21.4171C33.5332 22.1134 34.0986 22.6787 34.795 22.6787C35.4913 22.6787 36.0567 22.1134 36.0567 21.4171C36.0567 20.7139 35.4913 20.1555 34.795 20.1555C34.0986 20.1555 33.5332 20.7139 33.5332 21.4171ZM22.1773 28.9868C22.1773 25.4984 25.0042 22.6787 28.4861 22.6787C31.9749 22.6787 34.795 25.4984 34.795 28.9868C34.795 32.4683 31.9749 35.2949 28.4861 35.2949C25.0042 35.2949 22.1773 32.4683 22.1773 28.9868Z" fill="black"/>
</g>
</svg>
