<svg width="26" height="26" viewBox="0 0 26 26" fill="none" xmlns="http://www.w3.org/2000/svg">
    <g clip-path="url(#clip0_592_877)">
        <path
            d="M18.3348 0H6.80517C3.05274 0 0 3.05274 0 6.80517V18.335C0 22.0872 3.05274 25.1399 6.80517 25.1399H18.335C22.0872 25.1399 25.1399 22.0872 25.1399 18.335V6.80517C25.1399 3.05274 22.0872 0 18.3348 0ZM12.57 19.444C8.77959 19.444 5.69597 16.3604 5.69597 12.57C5.69597 8.77954 8.77954 5.69597 12.57 5.69597C16.3604 5.69597 19.444 8.77954 19.444 12.57C19.444 16.3604 16.3604 19.444 12.57 19.444ZM19.6084 7.3171C18.4882 7.3171 17.5772 6.40602 17.5772 5.28587C17.5772 4.16572 18.4882 3.25454 19.6084 3.25454C20.7285 3.25454 21.6397 4.16577 21.6397 5.28587C21.6397 6.40597 20.7285 7.3171 19.6084 7.3171Z"
            fill="white" />
        <path
            d="M12.5701 7.16789C9.59259 7.16789 7.16992 9.59032 7.16992 12.5681C7.16992 15.5456 9.59259 17.9683 12.5701 17.9683C15.5479 17.9683 17.9703 15.5456 17.9703 12.5681C17.9703 9.59032 15.5479 7.16789 12.5701 7.16789ZM19.6085 4.72656C19.3012 4.72656 19.0511 4.97673 19.0511 5.28396C19.0511 5.59124 19.3012 5.84136 19.6085 5.84136C19.916 5.84136 20.1661 5.59144 20.1661 5.28396C20.1661 4.97654 19.916 4.72656 19.6085 4.72656Z"
            fill="white" />
    </g>
    <defs>
        <clipPath id="clip0_592_877">
            <rect width="25.14" height="25.14" fill="white" />
        </clipPath>
    </defs>
</svg>