<svg width="119" height="119" viewBox="0 0 119 119" fill="none" xmlns="http://www.w3.org/2000/svg">
<circle cx="59.4502" cy="59.376" r="58.5" fill="#1A1A1A" stroke="white"/>
<mask id="mask0_60_2241" style="mask-type:luminance" maskUnits="userSpaceOnUse" x="25" y="44" width="70" height="31">
<path d="M25.1484 44.3027H94.1484V74.3027H25.1484V44.3027Z" fill="white"/>
</mask>
<g mask="url(#mask0_60_2241)">
<path d="M29.6431 44.3081H90.1327C90.7265 44.3081 91.289 44.4175 91.8359 44.6466C92.3775 44.8706 92.8619 45.1935 93.2786 45.6102C93.6952 46.0269 94.0129 46.506 94.2421 47.0477C94.4661 47.5946 94.5754 48.1623 94.5754 48.7508V69.3966C94.5754 69.9852 94.4661 70.5477 94.2421 71.0946C94.0129 71.6362 93.6952 72.1206 93.2786 72.5373C92.8619 72.9539 92.3775 73.2716 91.8359 73.5008C91.289 73.7248 90.7265 73.8394 90.1327 73.8394H29.6431C29.0546 73.8394 28.4869 73.7248 27.94 73.5008C27.3984 73.2716 26.9192 72.9539 26.5025 72.5373C26.0859 72.1206 25.7629 71.6362 25.539 71.0946C25.3098 70.5477 25.2004 69.9852 25.2004 69.3966V48.7508C25.2004 48.1623 25.3098 47.5946 25.539 47.0477C25.7629 46.506 26.0859 46.0269 26.5025 45.6102C26.9192 45.1935 27.3984 44.8706 27.94 44.6466C28.4869 44.4175 29.0546 44.3081 29.6431 44.3081Z" fill="#CFD4D4"/>
</g>
<path d="M54.07 52.3081H52.0283V65.8394H60.2002V64.0789H54.07V52.3081Z" fill="black"/>
<path d="M62.5234 52.3081H64.5651V65.8394H62.5234V52.3081Z" fill="black"/>
<path d="M72.6426 63.3289H72.4863L68.7207 52.3081H66.5176L71.3874 65.8394H73.7415L78.6113 52.3081H76.4082L72.6426 63.3289Z" fill="black"/>
<path d="M82.6009 64.0789V59.9383H88.6009V58.1883H82.6009V54.0633H89.0436V52.3081H80.5645V65.8394H89.127V64.0789H82.6009Z" fill="black"/>
<path d="M42.2005 54.2873C42.513 54.5998 42.7943 54.9435 43.0443 55.3133C43.2891 55.6831 43.4974 56.0737 43.6693 56.4852C43.8359 56.8914 43.9661 57.3185 44.0547 57.7508C44.138 58.1883 44.1849 58.6258 44.1849 59.0737C44.1849 59.5164 44.138 59.9539 44.0547 60.3914C43.9661 60.8289 43.8359 61.2508 43.6693 61.6623C43.4974 62.0737 43.2891 62.4591 43.0443 62.8289C42.7943 63.1987 42.513 63.5425 42.2005 63.855C41.888 64.1727 41.5443 64.4487 41.1745 64.6987C40.8047 64.9435 40.4141 65.1519 40.0078 65.3237C39.5964 65.4956 39.1745 65.6206 38.737 65.7091C38.2995 65.7925 37.862 65.8394 37.4193 65.8394C36.9714 65.8394 36.5339 65.7925 36.0964 65.7091C35.6589 65.6206 35.237 65.4956 34.8255 65.3237C34.4193 65.1519 34.0286 64.9435 33.6589 64.6987C33.2891 64.4487 32.9453 64.1727 32.6328 63.855C32.3203 63.5425 32.0391 63.1987 31.7891 62.8289C31.5443 62.4591 31.3359 62.0737 31.1641 61.6623C30.9974 61.2508 30.8672 60.8289 30.7786 60.3914C30.6953 59.9539 30.6484 59.5164 30.6484 59.0737C30.6484 58.6258 30.6953 58.1883 30.7786 57.7508C30.8672 57.3185 30.9974 56.8914 31.1641 56.4852C31.3359 56.0737 31.5443 55.6831 31.7891 55.3133C32.0391 54.9435 32.3203 54.5998 32.6328 54.2873C32.9453 53.9748 33.2891 53.6935 33.6589 53.4487C34.0286 53.1987 34.4193 52.9904 34.8255 52.8237C35.237 52.6519 35.6589 52.5216 36.0964 52.4383C36.5339 52.3498 36.9714 52.3081 37.4193 52.3081C37.862 52.3081 38.2995 52.3498 38.737 52.4383C39.1745 52.5216 39.5964 52.6519 40.0078 52.8237C40.4141 52.9904 40.8047 53.1987 41.1745 53.4487C41.5443 53.6935 41.888 53.9748 42.2005 54.2873Z" fill="black"/>
</svg>
