<svg width="35" height="35" viewBox="0 0 35 35" fill="none" xmlns="http://www.w3.org/2000/svg">
<mask id="mask0_1442_7516" style="mask-type:luminance" maskUnits="userSpaceOnUse" x="0" y="0" width="35" height="35">
<path d="M0.200195 0.000488281H34.2455V34.0458H0.200195V0.000488281Z" fill="white"/>
</mask>
<g mask="url(#mask0_1442_7516)">
<mask id="mask1_1442_7516" style="mask-type:luminance" maskUnits="userSpaceOnUse" x="0" y="0" width="35" height="35">
<path d="M17.2252 0.000488281C7.82207 0.000488281 0.200195 7.62236 0.200195 17.0255C0.200195 26.4239 7.82207 34.0458 17.2252 34.0458C26.6236 34.0458 34.2455 26.4239 34.2455 17.0255C34.2455 7.62236 26.6236 0.000488281 17.2252 0.000488281Z" fill="white"/>
</mask>
<g mask="url(#mask1_1442_7516)">
<path d="M0.200195 0.000488281H34.2455V34.0458H0.200195V0.000488281Z" fill="#00DD6C"/>
</g>
</g>
<mask id="mask2_1442_7516" style="mask-type:luminance" maskUnits="userSpaceOnUse" x="12" y="8" width="10" height="11">
<path d="M12.1992 8.34912H21.7992V18.0007H12.1992V8.34912Z" fill="white"/>
</mask>
<g mask="url(#mask2_1442_7516)">
<path d="M13.0244 12.6567C13.0244 10.2896 14.9416 8.36768 17.3088 8.36768C19.6807 8.36768 21.5979 10.2896 21.5979 12.6567C21.5979 15.0239 19.6807 16.9458 17.3088 16.9458C14.9416 16.9458 13.0244 15.0239 13.0244 12.6567Z" fill="#1B1B1B"/>
</g>
<mask id="mask3_1442_7516" style="mask-type:luminance" maskUnits="userSpaceOnUse" x="9" y="16" width="16" height="10">
<path d="M9.86035 16.6973H24.8088V25.6738H9.86035V16.6973Z" fill="white"/>
</mask>
<g mask="url(#mask3_1442_7516)">
<path d="M24.6782 23.3255L24.0688 20.9724C23.5719 19.0505 22.2266 17.5271 20.4969 16.7583C19.6157 17.4427 18.5141 17.8505 17.3094 17.8505C16.1094 17.8505 15.0079 17.4427 14.1266 16.7583C12.3969 17.5271 11.0516 19.0505 10.5547 20.9724L9.94536 23.3255C9.63599 24.5161 10.5313 25.6739 11.7594 25.6739H22.8641C24.0922 25.6739 24.9875 24.5161 24.6782 23.3255Z" fill="#1B1B1B"/>
</g>
<path d="M5.23828 12.1085C5.23828 10.2147 6.77109 8.67725 8.66953 8.67725C10.5633 8.67725 12.1008 10.2147 12.1008 12.1085C12.1008 14.0022 10.5633 15.5397 8.66953 15.5397C6.77109 15.5397 5.23828 14.0022 5.23828 12.1085Z" fill="#1B1B1B"/>
<path d="M9.76705 20.9396C10.2452 19.1021 11.3795 17.574 12.8842 16.585C12.4155 16.0787 11.8483 15.6709 11.2155 15.3896C10.5124 15.9381 9.63111 16.2662 8.67017 16.2662C7.70923 16.2662 6.8233 15.9381 6.12017 15.3896C4.73736 16.0084 3.65923 17.2271 3.2608 18.7646L2.76861 20.649C2.52486 21.6006 3.24205 22.524 4.22173 22.524H9.35923L9.76705 20.9396Z" fill="#1B1B1B"/>
<path d="M29.4074 12.1085C29.4074 10.2147 27.8699 8.67725 25.9762 8.67725C24.0824 8.67725 22.5449 10.2147 22.5449 12.1085C22.5449 14.0022 24.0824 15.5397 25.9762 15.5397C27.8699 15.5397 29.4074 14.0022 29.4074 12.1085Z" fill="#1B1B1B"/>
<mask id="mask4_1442_7516" style="mask-type:luminance" maskUnits="userSpaceOnUse" x="21" y="15" width="11" height="8">
<path d="M21.7578 15.3613H31.925V22.5707H21.7578V15.3613Z" fill="white"/>
</mask>
<g mask="url(#mask4_1442_7516)">
<path d="M24.875 20.9396C24.4016 19.1021 23.2625 17.574 21.7578 16.585C22.2266 16.0787 22.7937 15.6709 23.4266 15.3896C24.1297 15.9381 25.0156 16.2662 25.9766 16.2662C26.9375 16.2662 27.8234 15.9381 28.5266 15.3896C29.9094 16.0084 30.9875 17.2271 31.3859 18.7646L31.8734 20.649C32.1219 21.6006 31.4047 22.524 30.4203 22.524H25.2875L24.875 20.9396Z" fill="#1B1B1B"/>
</g>
</svg>
