<svg width="33" height="33" viewBox="0 0 33 33" fill="none" xmlns="http://www.w3.org/2000/svg">
    <mask id="mask0_1385_3130" style="mask-type:luminance" maskUnits="userSpaceOnUse" x="0" y="-1" width="33"
        height="34">
        <path d="M0.0722656 -0.000244141H32.9994V32.9841H0.0722656V-0.000244141Z" fill="white" />
    </mask>
    <g mask="url(#mask0_1385_3130)">
        <path
            d="M16.3588 7.52043C17.4317 7.48397 18.3327 8.32251 18.3744 9.39543C18.3744 9.41105 18.3744 9.43188 18.3744 9.45272V14.6611H23.5827C24.6556 14.6611 25.5254 15.5308 25.5254 16.6038C25.5254 17.6767 24.6556 18.5465 23.5827 18.5465H18.3744V23.7548C18.3588 24.8277 17.4734 25.6871 16.4004 25.6715C15.3484 25.6611 14.4994 24.8069 14.4838 23.7548V18.5465H9.27544C8.20252 18.5465 7.33273 17.6767 7.33273 16.6038C7.33273 15.5308 8.20252 14.6611 9.27544 14.6611H14.4838V9.45272C14.489 8.41105 15.3171 7.56209 16.3588 7.52043ZM16.0827 -0.000406901C7.16085 0.244385 0.0618937 7.55689 0.0723097 16.484C0.0514764 25.5725 7.41085 32.9631 16.5046 32.984C25.5931 32.9996 32.9786 25.6454 32.9994 16.5569C32.9994 16.5361 32.9994 16.5048 32.9994 16.484C33.015 7.39543 25.6556 0.0100101 16.5619 -0.00561523C16.4004 -0.00561523 16.2442 -0.0056149 16.0827 -0.000406901Z"
            fill="#FAFAFA" />
    </g>
</svg>