<svg width="119" height="119" viewBox="0 0 119 119" fill="none" xmlns="http://www.w3.org/2000/svg">
<circle cx="59.4502" cy="59.376" r="58.5" fill="#1A1A1A" stroke="white"/>
<mask id="mask0_60_2151" style="mask-type:luminance" maskUnits="userSpaceOnUse" x="38" y="64" width="42" height="16">
<path d="M38.4502 64.4336H79.4502V79.3763H38.4502V64.4336Z" fill="white"/>
</mask>
<g mask="url(#mask0_60_2151)">
<path d="M38.4918 66.3817C38.4918 65.4858 39.1949 64.7827 40.0907 64.7827H45.1324C46.9814 64.7827 48.4137 65.3035 49.3668 66.2567C50.1793 67.0692 50.6116 68.2046 50.6116 69.5796V69.6213C50.6116 71.9025 49.4657 73.3192 47.7105 74.0431L49.9345 76.7358C50.247 77.1317 50.4553 77.465 50.4553 77.9598C50.4553 78.8556 49.7105 79.439 48.9397 79.439C48.2053 79.439 47.7366 79.0796 47.3616 78.6108L44.2522 74.6629H41.6845V77.84C41.6845 78.7306 40.9814 79.439 40.0855 79.439C39.1897 79.439 38.4866 78.7306 38.4866 77.84V66.3817H38.4918ZM44.9241 71.8348C46.4814 71.8348 47.372 71.0067 47.372 69.7827V69.7463C47.372 68.3817 46.4189 67.6733 44.8564 67.6733H41.6845V71.8452H44.9241V71.8348ZM53.4866 77.715V66.3817C53.4866 65.4858 54.1949 64.7827 55.0855 64.7827H63.1376C63.9241 64.7827 64.5699 65.4285 64.5699 66.215C64.5699 67.0015 63.9241 67.6265 63.1376 67.6265H56.6637V70.5744H62.2001C62.9866 70.5744 63.6324 71.2202 63.6324 72.0119C63.6324 72.7983 62.9866 73.4181 62.2001 73.4181H56.6637V76.4702H63.247C64.0334 76.4702 64.6793 77.116 64.6793 77.9025C64.6793 78.689 64.0334 79.314 63.247 79.314H55.0855C54.2001 79.3035 53.4866 78.6004 53.4866 77.715ZM66.7522 72.0848V72.0431C66.7522 67.9129 69.8616 64.5327 74.3303 64.5327C76.5074 64.5327 77.9814 65.1108 79.1845 66.0067C79.5178 66.2567 79.8095 66.715 79.8095 67.2775C79.8095 68.1473 79.1012 68.8348 78.2314 68.8348C77.7939 68.8348 77.5022 68.6681 77.2782 68.5223C76.3824 67.8556 75.4553 67.4858 74.3095 67.4858C71.8668 67.4858 70.1012 69.5171 70.1012 72.0119V72.0535C70.1012 74.5379 71.8251 76.6213 74.3095 76.6213C75.6637 76.6213 76.5491 76.2046 77.4605 75.4754C77.7105 75.2671 78.0439 75.1213 78.4137 75.1213C79.2262 75.1213 79.9084 75.7827 79.9084 76.5952C79.9084 77.09 79.6584 77.491 79.3668 77.7358C78.0595 78.8817 76.523 79.564 74.2053 79.564C69.9241 79.564 66.7522 76.2619 66.7522 72.0848Z" fill="#CFD4D4"/>
</g>
<mask id="mask1_60_2151" style="mask-type:luminance" maskUnits="userSpaceOnUse" x="38" y="39" width="42" height="23">
<path d="M38.4502 39.376H79.4502V61.7666H38.4502V39.376Z" fill="white"/>
</mask>
<g mask="url(#mask1_60_2151)">
<path d="M79.9085 42.8812V57.9489C79.9085 59.5114 78.1481 60.4281 76.8668 59.5322L70.872 55.3656C69.9918 54.751 69.4606 53.7406 69.4606 52.6676V48.0426C69.4606 46.9489 70.0022 45.9333 70.9137 45.3187L76.8877 41.2718C78.1741 40.4124 79.9085 41.3291 79.9085 42.8812ZM67.7887 43.7614V57.0791C67.7887 59.501 65.8304 61.4593 63.4085 61.4593H42.8356C40.4137 61.4593 38.4606 59.4906 38.4606 57.0791V43.7614C38.4606 41.3395 40.4137 39.376 42.8356 39.376H63.4085C65.8252 39.376 67.7887 41.3395 67.7887 43.7614ZM47.7002 44.3499C47.7002 43.6156 47.1116 43.027 46.3824 43.027H44.5283C43.7991 43.027 43.2106 43.6156 43.2106 44.3499C43.2106 45.0791 43.7991 45.6676 44.5283 45.6676H46.3824C47.1116 45.6729 47.7002 45.0843 47.7002 44.3499ZM53.122 44.3499C53.122 43.6156 52.5335 43.027 51.8043 43.027H49.9502C49.221 43.027 48.6324 43.6156 48.6324 44.3499C48.6324 45.0791 49.221 45.6676 49.9502 45.6676H51.8043C52.5283 45.6729 53.122 45.0843 53.122 44.3499Z" fill="#CFD4D4"/>
</g>
</svg>
