<svg width="27" height="28" viewBox="0 0 27 28" fill="none" xmlns="http://www.w3.org/2000/svg">
<path d="M12.7864 1.78554C13.06 1.16533 13.94 1.16533 14.2136 1.78554L17.0225 8.15227C17.1357 8.40896 17.3781 8.58505 17.6572 8.61343L24.5803 9.31739C25.2547 9.38596 25.5267 10.2229 25.0214 10.6748L19.8342 15.3136C19.6251 15.5006 19.5325 15.7856 19.5918 16.0598L21.0617 22.8616C21.2048 23.5242 20.4929 24.0415 19.907 23.7005L13.8923 20.2007C13.6498 20.0596 13.3502 20.0596 13.1077 20.2007L7.09303 23.7005C6.50711 24.0415 5.79515 23.5242 5.93834 22.8616L7.4082 16.0598C7.46746 15.7856 7.37488 15.5006 7.16575 15.3136L1.97861 10.6748C1.47331 10.2229 1.74525 9.38596 2.41966 9.31739L9.34277 8.61343C9.62189 8.58505 9.86426 8.40896 9.9775 8.15228L12.7864 1.78554Z" fill="#F1CD5A"/>
</svg>
