<svg width="26" height="26" viewBox="0 0 26 26" fill="none" xmlns="http://www.w3.org/2000/svg">
    <g clip-path="url(#clip0_592_882)">
        <path
            d="M23.5845 6.30453C22.1498 6.30453 20.826 5.82923 19.763 5.0274C18.5438 4.10822 17.6678 2.75989 17.3584 1.20582C17.2809 0.815069 17.2401 0.4179 17.2367 0.0195312H13.1382V11.2186L13.1333 17.3529C13.1333 18.9929 12.0653 20.3834 10.5849 20.8725C10.1415 21.0191 9.67441 21.081 9.20808 21.0551C8.59137 21.0212 8.01344 20.8352 7.51113 20.5347C6.44219 19.8954 5.71745 18.7356 5.69781 17.4088C5.66688 15.3353 7.3432 13.6447 9.41529 13.6447C9.82431 13.6447 10.2171 13.7115 10.5849 13.8328V9.67143C10.197 9.61398 9.80221 9.58402 9.40301 9.58402C7.13501 9.58402 5.01383 10.5268 3.49757 12.2252C2.35154 13.5087 1.66412 15.1462 1.55806 16.8633C1.4191 19.1191 2.2445 21.2633 3.84521 22.8454C4.0804 23.0776 4.32739 23.2932 4.58566 23.492C5.95805 24.5482 7.63585 25.1207 9.40301 25.1207C9.80221 25.1207 10.197 25.0913 10.5849 25.0338C12.2357 24.7893 13.7588 24.0336 14.9608 22.8454C16.4378 21.3856 17.2539 19.4475 17.2627 17.3848L17.2416 8.2244C17.9479 8.76916 18.7216 9.22038 19.5435 9.56684C20.8294 10.1094 22.193 10.3844 23.5963 10.3839V6.30355C23.5973 6.30453 23.5855 6.30453 23.5845 6.30453Z"
            fill="white" />
    </g>
    <defs>
        <clipPath id="clip0_592_882">
            <rect width="25.14" height="25.14" fill="white" />
        </clipPath>
    </defs>
</svg>