<svg width="57" height="58" viewBox="0 0 57 58" fill="none" xmlns="http://www.w3.org/2000/svg">
    <mask id="mask0_988_5101" style="mask-type:luminance" maskUnits="userSpaceOnUse" x="0" y="0" width="57" height="58">
        <path d="M0 0.5H57V57.5H0V0.5Z" fill="white" />
    </mask>
    <g mask="url(#mask0_988_5101)">
        <mask id="mask1_988_5101" style="mask-type:luminance" maskUnits="userSpaceOnUse" x="0" y="0" width="57"
            height="58">
            <path
                d="M28.4966 0.5C12.7624 0.5 0 13.2624 0 29.0034C0 44.7376 12.7624 57.5 28.4966 57.5C44.2376 57.5 57 44.7376 57 29.0034C57 13.2624 44.2376 0.5 28.4966 0.5Z"
                fill="white" />
        </mask>
        <g mask="url(#mask1_988_5101)">
            <path d="M0 0.5H57V57.5H0V0.5Z" fill="white" />
        </g>
    </g>
    <mask id="mask2_988_5101" style="mask-type:luminance" maskUnits="userSpaceOnUse" x="0" y="0" width="57" height="58">
        <path d="M0 0.5H56.9242V57.4242H0V0.5Z" fill="white" />
    </mask>
    <g mask="url(#mask2_988_5101)">
        <mask id="mask3_988_5101" style="mask-type:luminance" maskUnits="userSpaceOnUse" x="0" y="0" width="57"
            height="58">
            <path
                d="M28.4897 0.5C12.7555 0.5 0 13.2555 0 28.9897C0 44.7307 12.7555 57.4862 28.4897 57.4862C44.2307 57.4862 56.9862 44.7307 56.9862 28.9897C56.9862 13.2555 44.2307 0.5 28.4897 0.5Z"
                fill="white" />
        </mask>
        <g mask="url(#mask3_988_5101)">
            <path
                d="M28.4897 0.5C12.7555 0.5 0 13.2555 0 28.9897C0 44.7307 12.7555 57.4862 28.4897 57.4862C44.2307 57.4862 56.9862 44.7307 56.9862 28.9897C56.9862 13.2555 44.2307 0.5 28.4897 0.5Z"
                stroke="#828284" stroke-width="4" />
        </g>
    </g>
    <path
        d="M37.4729 22.2871C36.8455 22.1561 36.2525 21.9217 35.694 21.5976C35.1355 21.2735 34.646 20.8736 34.2185 20.391C33.791 19.9084 33.4463 19.3706 33.1912 18.7845C32.9361 18.1915 32.7775 17.571 32.7154 16.9298V16.3782H28.3716V33.6292C28.3716 34.4083 28.1372 35.1185 27.6822 35.7528C27.2202 36.3871 26.6203 36.8284 25.8757 37.0766C25.1379 37.3248 24.3933 37.3386 23.6417 37.1042C22.8971 36.8767 22.2835 36.4492 21.8077 35.8286C21.3251 35.1943 21.0769 34.4772 21.0631 33.6774C21.0493 32.8845 21.2768 32.1606 21.7319 31.5124C22.1938 30.8574 22.8006 30.4093 23.5521 30.1542C24.3106 29.899 25.069 29.8921 25.8274 30.1335V25.7207C25 25.6035 24.1796 25.6173 23.3591 25.7621C22.5386 25.9069 21.7594 26.1689 21.0217 26.555C20.2839 26.948 19.622 27.4376 19.0429 28.0305C18.4568 28.6235 17.9742 29.2923 17.6018 30.03C17.2295 30.7747 16.9744 31.5607 16.8434 32.3812C16.7124 33.2017 16.7124 34.0291 16.8365 34.8496C16.9675 35.6701 17.2157 36.4561 17.588 37.2007C17.9604 37.9454 18.4361 38.6142 19.0222 39.2071C19.5738 39.7794 20.2012 40.2552 20.8976 40.6344C21.594 41.0136 22.3317 41.2894 23.1039 41.448C23.8831 41.6066 24.6691 41.6548 25.4551 41.579C26.248 41.51 27.0133 41.3239 27.7442 41.0274C28.482 40.724 29.1577 40.3241 29.7713 39.8208C30.3849 39.3243 30.9159 38.7452 31.3571 38.0833C31.8053 37.4283 32.1362 36.7181 32.3707 35.9596C32.6051 35.2012 32.7154 34.4221 32.7154 33.6292V24.8106C34.5219 26.1 36.5283 26.7412 38.7415 26.7412V22.4181C38.3141 22.4181 37.8935 22.3767 37.4729 22.2871Z"
        fill="black" />
</svg>