<svg width="52" height="52" viewBox="0 0 52 52" fill="none" xmlns="http://www.w3.org/2000/svg">
    <mask id="mask0_1050_4473" style="mask-type:luminance" maskUnits="userSpaceOnUse" x="0" y="0" width="52"
        height="52">
        <path d="M0.668701 0.0424805H51.8077V51.1815H0.668701V0.0424805Z" fill="white" />
    </mask>
    <g mask="url(#mask0_1050_4473)">
        <mask id="mask1_1050_4473" style="mask-type:luminance" maskUnits="userSpaceOnUse" x="0" y="0" width="52"
            height="52">
            <path
                d="M26.2351 0.0424805C12.1188 0.0424805 0.668701 11.4926 0.668701 25.6151C0.668701 39.7314 12.1188 51.1815 26.2351 51.1815C40.3576 51.1815 51.8077 39.7314 51.8077 25.6151C51.8077 11.4926 40.3576 0.0424805 26.2351 0.0424805Z"
                fill="white" />
        </mask>
        <g mask="url(#mask1_1050_4473)">
            <path d="M0.668701 0.0424805H51.8077V51.1815H0.668701V0.0424805Z" fill="black" />
        </g>
    </g>
    <mask id="mask2_1050_4473" style="mask-type:luminance" maskUnits="userSpaceOnUse" x="0" y="0" width="52"
        height="52">
        <path d="M0.668701 0.0424805H51.7397V51.1134H0.668701V0.0424805Z" fill="white" />
    </mask>
    <g mask="url(#mask2_1050_4473)">
        <mask id="mask3_1050_4473" style="mask-type:luminance" maskUnits="userSpaceOnUse" x="0" y="0" width="52"
            height="52">
            <path
                d="M26.2289 0.0424805C12.1127 0.0424805 0.668701 11.4864 0.668701 25.6027C0.668701 39.7252 12.1127 51.1691 26.2289 51.1691C40.3514 51.1691 51.7953 39.7252 51.7953 25.6027C51.7953 11.4864 40.3514 0.0424805 26.2289 0.0424805Z"
                fill="white" />
        </mask>
        <g mask="url(#mask3_1050_4473)">
            <path
                d="M26.2289 0.0424805C12.1127 0.0424805 0.668701 11.4864 0.668701 25.6027C0.668701 39.7252 12.1127 51.1691 26.2289 51.1691C40.3514 51.1691 51.7954 39.7252 51.7954 25.6027C51.7954 11.4864 40.3514 0.0424805 26.2289 0.0424805Z"
                stroke="#828284" stroke-width="3.16719" />
        </g>
    </g>
    <path
        d="M34.2884 19.5892C33.7255 19.4716 33.1935 19.2613 32.6924 18.9706C32.1914 18.6798 31.7521 18.3211 31.3686 17.888C30.9851 17.455 30.6758 16.9725 30.4469 16.4467C30.218 15.9147 30.0758 15.358 30.0201 14.7827V14.2878H26.123V29.765C26.123 30.464 25.9126 31.1012 25.5044 31.6703C25.0899 32.2394 24.5517 32.6353 23.8837 32.858C23.2218 33.0807 22.5537 33.093 21.8794 32.8827C21.2113 32.6786 20.6608 32.2951 20.234 31.7383C19.8009 31.1692 19.5783 30.5259 19.5659 29.8083C19.5535 29.0969 19.7576 28.4474 20.1659 27.8659C20.5804 27.2783 21.1247 26.8762 21.799 26.6473C22.4795 26.4184 23.1599 26.4122 23.8404 26.6288V22.6698C23.098 22.5646 22.3619 22.577 21.6258 22.7069C20.8897 22.8368 20.1907 23.0719 19.5288 23.4183C18.8669 23.7709 18.273 24.2101 17.7534 24.742C17.2276 25.274 16.7946 25.8741 16.4606 26.536C16.1265 27.204 15.8976 27.9092 15.7801 28.6454C15.6626 29.3815 15.6626 30.1238 15.7739 30.8599C15.8914 31.596 16.1141 32.3012 16.4482 32.9693C16.7822 33.6374 17.209 34.2374 17.7349 34.7694C18.2297 35.2829 18.7926 35.7097 19.4174 36.0499C20.0422 36.3901 20.7041 36.6376 21.3969 36.7799C22.0959 36.9221 22.8011 36.9654 23.5063 36.8974C24.2177 36.8355 24.9043 36.6685 25.56 36.4025C26.2219 36.1303 26.8282 35.7715 27.3787 35.32C27.9293 34.8746 28.4056 34.355 28.8015 33.7611C29.2035 33.1735 29.5005 32.5363 29.7108 31.8559C29.9211 31.1754 30.0201 30.4764 30.0201 29.765V21.8532C31.6408 23.01 33.4409 23.5853 35.4266 23.5853V19.7067C35.0431 19.7067 34.6657 19.6696 34.2884 19.5892Z"
        fill="white" />
</svg>