<svg width="119" height="119" viewBox="0 0 119 119" fill="none" xmlns="http://www.w3.org/2000/svg">
<circle cx="59.4502" cy="59.376" r="58.5" fill="#1A1A1A" stroke="white"/>
<mask id="mask0_60_2317" style="mask-type:luminance" maskUnits="userSpaceOnUse" x="37" y="44" width="45" height="30">
<path d="M37.4502 44.376H81.2314V73.376H37.4502V44.376Z" fill="white"/>
</mask>
<g mask="url(#mask0_60_2317)">
<path d="M79.3722 45.1989C78.8305 44.9749 78.268 44.9176 77.6899 45.0322C77.1117 45.1468 76.6117 45.4124 76.2003 45.8343C76.1482 45.876 76.1065 45.9281 76.0649 45.9801L69.518 54.6156V48.7458C69.518 48.1676 69.4034 47.6104 69.1847 47.0739C68.9607 46.5374 68.6482 46.0635 68.2367 45.6572C67.8253 45.2458 67.3513 44.9281 66.8201 44.7093C66.2836 44.4854 65.7263 44.376 65.143 44.376H41.8305C41.2524 44.376 40.6951 44.4854 40.1586 44.7093C39.6222 44.9281 39.1534 45.2458 38.7419 45.6572C38.3305 46.0635 38.018 46.5374 37.794 47.0739C37.5701 47.6104 37.4607 48.1676 37.4607 48.7458V69.1468C37.4607 69.7249 37.5701 70.2822 37.794 70.8187C38.018 71.3551 38.3305 71.8239 38.7419 72.2354C39.1534 72.6468 39.6222 72.9593 40.1586 73.1833C40.6951 73.4072 41.2524 73.5166 41.8305 73.5166H65.143C65.7263 73.5166 66.2836 73.4072 66.8201 73.1833C67.3513 72.9593 67.8253 72.6468 68.2367 72.2354C68.6482 71.8239 68.9607 71.3551 69.1847 70.8187C69.4034 70.2822 69.518 69.7249 69.518 69.1468V63.277L76.0753 71.9124C76.4711 72.3656 76.9659 72.6676 77.5544 72.8135C78.1378 72.9593 78.7159 72.9281 79.2836 72.7145C79.8513 72.501 80.3044 72.1468 80.6482 71.652C80.9972 71.152 81.169 70.6051 81.1742 70.001V47.8916C81.1742 47.3031 81.0076 46.7614 80.6794 46.2718C80.3565 45.7822 79.919 45.4281 79.3722 45.1989ZM57.8617 60.402H54.9451V63.3187C54.9451 63.5114 54.9086 63.6937 54.8357 63.876C54.7628 64.0531 54.6534 64.2093 54.518 64.3447C54.3826 64.4854 54.2263 64.5895 54.044 64.6624C53.8669 64.7354 53.6794 64.7718 53.4867 64.7718C53.294 64.7718 53.1117 64.7354 52.9294 64.6624C52.7524 64.5895 52.5961 64.4854 52.4607 64.3447C52.3201 64.2093 52.2159 64.0531 52.143 63.876C52.0701 63.6937 52.0336 63.5114 52.0336 63.3187V60.402H49.1169C48.9242 60.402 48.7367 60.3656 48.5597 60.2926C48.3826 60.2197 48.2263 60.1104 48.0857 59.9749C47.9503 59.8395 47.8461 59.6833 47.7732 59.501C47.6951 59.3239 47.6586 59.1364 47.6586 58.9437C47.6586 58.751 47.6951 58.5687 47.7732 58.3864C47.8461 58.2093 47.9503 58.0531 48.0857 57.9176C48.2263 57.777 48.3826 57.6729 48.5597 57.5999C48.7367 57.527 48.9242 57.4906 49.1169 57.4906H52.0336V54.5739C52.0336 54.3812 52.0701 54.1937 52.143 54.0166C52.2159 53.8395 52.3201 53.6833 52.4607 53.5426C52.5961 53.4072 52.7524 53.3031 52.9294 53.2301C53.1117 53.152 53.294 53.1156 53.4867 53.1156C53.6794 53.1156 53.8669 53.152 54.044 53.2301C54.2263 53.3031 54.3826 53.4072 54.518 53.5426C54.6534 53.6833 54.7628 53.8395 54.8357 54.0166C54.9086 54.1937 54.9451 54.3812 54.9451 54.5739V57.4906H57.8617C58.0544 57.4906 58.2367 57.527 58.419 57.5999C58.5961 57.6729 58.7524 57.777 58.8878 57.9176C59.0284 58.0531 59.1326 58.2093 59.2055 58.3864C59.2784 58.5687 59.3149 58.751 59.3149 58.9437C59.3149 59.1364 59.2784 59.3239 59.2055 59.501C59.1326 59.6833 59.0284 59.8395 58.8878 59.9749C58.7524 60.1104 58.5961 60.2197 58.419 60.2926C58.2367 60.3656 58.0544 60.402 57.8617 60.402Z" fill="#CFD4D4"/>
</g>
</svg>
