<svg width="17" height="17" viewBox="0 0 17 17" fill="none" xmlns="http://www.w3.org/2000/svg">
<mask id="mask0_252_6301" style="mask-type:luminance" maskUnits="userSpaceOnUse" x="0" y="0" width="17" height="17">
<path d="M0 0H16.9983V16.9894H0V0Z" fill="white"/>
</mask>
<g mask="url(#mask0_252_6301)">
<path d="M9.68397 8.57457L16.7552 1.50781C17.0746 1.18856 17.0746 0.669788 16.7552 0.348809C16.434 0.0295638 15.9166 0.0295638 15.5954 0.348809L8.52425 7.41557L1.45307 0.348809C1.13363 0.0295638 0.614529 0.0295638 0.295085 0.348809C-0.026096 0.669788 -0.026096 1.18856 0.295085 1.50781L7.36627 8.57457L0.295085 15.6413C-0.026096 15.9606 -0.026096 16.4793 0.295085 16.7986C0.454807 16.9582 0.664877 17.038 0.874946 17.038C1.08328 17.038 1.29335 16.9582 1.45307 16.7986L8.52425 9.73183L15.5954 16.7986C15.7552 16.9582 15.9652 17.038 16.1753 17.038C16.3854 17.038 16.5937 16.9582 16.7552 16.7986C17.0746 16.4793 17.0746 15.9606 16.7552 15.6413L9.68397 8.57457Z" fill="white"/>
</g>
</svg>
