<svg width="119" height="119" viewBox="0 0 119 119" fill="none" xmlns="http://www.w3.org/2000/svg">
<circle cx="59.4502" cy="59.376" r="58.5" fill="#1A1A1A" stroke="white"/>
<path d="M53.502 53.2246C51.9551 53.2246 50.7051 54.4746 50.7051 56.0163V59.7454H56.2936V56.0163C56.2936 54.4746 55.0436 53.2246 53.502 53.2246Z" fill="#CFD4D4"/>
<path d="M67.4714 66.2611C67.9818 66.2611 68.4036 66.6829 68.4036 67.1934C68.4036 67.709 67.9818 68.1257 67.4714 68.1257H61.8828C61.3724 68.1257 60.9505 67.709 60.9505 67.1934C60.9505 66.6829 61.3724 66.2611 61.8828 66.2611H63.7474V53.2246H61.8828C61.3724 53.2246 60.9505 52.8027 60.9505 52.2923C60.9505 51.7767 61.3724 51.36 61.8828 51.36H67.4714C67.9818 51.36 68.4036 51.7767 68.4036 52.2923C68.4036 52.8027 67.9818 53.2246 67.4714 53.2246H65.6068V66.2611H67.4714ZM58.1589 67.1934C58.1589 67.709 57.737 68.1257 57.2266 68.1257C56.7109 68.1257 56.2943 67.709 56.2943 67.1934V61.6048H50.7057V67.1934C50.7057 67.709 50.2891 68.1257 49.7734 68.1257C49.263 68.1257 48.8464 67.709 48.8464 67.1934V56.0163C48.8464 53.4486 50.9297 51.36 53.5026 51.36C56.0703 51.36 58.1589 53.4486 58.1589 56.0163V67.1934ZM72.513 44.1829C72.3411 44.0059 72.0964 43.9121 71.8568 43.9121H46.3203C46.0807 43.9121 45.8411 44.0059 45.6641 44.1829L43.5286 46.3184C43.3516 46.4954 43.2578 46.735 43.2578 46.9746V72.5111C43.2578 72.7507 43.3516 72.9954 43.5286 73.1673L45.6641 75.3027C45.8411 75.4798 46.0807 75.5788 46.3203 75.5788H71.8568C72.0964 75.5788 72.3411 75.4798 72.513 75.3027L74.6484 73.1673C74.8255 72.9954 74.9245 72.7507 74.9245 72.5111V46.9746C74.9245 46.735 74.8255 46.4954 74.6484 46.3184L72.513 44.1829Z" fill="#CFD4D4"/>
<mask id="mask0_60_2182" style="mask-type:luminance" maskUnits="userSpaceOnUse" x="33" y="33" width="53" height="53">
<path d="M33.0127 33.6675H85.0127V85.6675H33.0127V33.6675Z" fill="white"/>
</mask>
<g mask="url(#mask0_60_2182)">
<path d="M76.7835 72.5112C76.7835 73.256 76.4919 73.9591 75.9658 74.4852L73.8304 76.6206C73.3044 77.1466 72.6012 77.4383 71.8564 77.4383H46.32C45.5752 77.4383 44.8721 77.1466 44.346 76.6206L42.2106 74.4852C41.6846 73.9591 41.3929 73.256 41.3929 72.5112V46.9748C41.3929 46.23 41.6846 45.5269 42.2106 45.0008L44.346 42.8654C44.8721 42.3394 45.5752 42.0477 46.32 42.0477H71.8564C72.6012 42.0477 73.3044 42.3394 73.8304 42.8654L75.9658 45.0008C76.4919 45.5269 76.7835 46.23 76.7835 46.9748V72.5112ZM84.2367 46.7039C84.7471 46.7039 85.1689 46.2873 85.1689 45.7716C85.1689 45.2612 84.7471 44.8394 84.2367 44.8394H79.5544C79.5075 44.4279 79.3252 44.0425 79.0335 43.7508L75.0804 39.7977C74.7887 39.506 74.4033 39.3237 73.9919 39.2769V34.5946C73.9919 34.0841 73.57 33.6675 73.0596 33.6675C72.5439 33.6675 72.1273 34.0841 72.1273 34.5946V39.2508H68.4033V34.5946C68.4033 34.0841 67.9814 33.6675 67.471 33.6675C66.9554 33.6675 66.5387 34.0841 66.5387 34.5946V39.2508H62.8148V34.5946C62.8148 34.0841 62.3981 33.6675 61.8825 33.6675C61.3721 33.6675 60.9502 34.0841 60.9502 34.5946V39.2508H57.2262V34.5946C57.2262 34.0841 56.8096 33.6675 56.2939 33.6675C55.7835 33.6675 55.3617 34.0841 55.3617 34.5946V39.2508H51.6377V34.5946C51.6377 34.0841 51.221 33.6675 50.7054 33.6675C50.195 33.6675 49.7731 34.0841 49.7731 34.5946V39.2508H46.0492V34.5946C46.0492 34.0841 45.6325 33.6675 45.1169 33.6675C44.6064 33.6675 44.1846 34.0841 44.1846 34.5946V39.2769C43.7731 39.3237 43.3877 39.506 43.096 39.7977L39.1429 43.7508C38.8512 44.0425 38.6689 44.4279 38.6221 44.8394H33.9398C33.4294 44.8394 33.0127 45.2612 33.0127 45.7716C33.0127 46.2873 33.4294 46.7039 33.9398 46.7039H38.596V50.4279H33.9398C33.4294 50.4279 33.0127 50.8498 33.0127 51.3602C33.0127 51.8758 33.4294 52.2925 33.9398 52.2925H38.596V56.0164H33.9398C33.4294 56.0164 33.0127 56.4383 33.0127 56.9487C33.0127 57.4644 33.4294 57.881 33.9398 57.881H38.596V61.605H33.9398C33.4294 61.605 33.0127 62.0269 33.0127 62.5373C33.0127 63.0529 33.4294 63.4696 33.9398 63.4696H38.596V67.1935H33.9398C33.4294 67.1935 33.0127 67.6102 33.0127 68.1258C33.0127 68.6362 33.4294 69.0581 33.9398 69.0581H38.596V72.7821H33.9398C33.4294 72.7821 33.0127 73.1987 33.0127 73.7144C33.0127 74.2248 33.4294 74.6466 33.9398 74.6466H38.6221C38.6689 75.0581 38.8512 75.4435 39.1429 75.7352L43.096 79.6883C43.3877 79.98 43.7731 80.1623 44.1846 80.2091V84.8914C44.1846 85.4019 44.6064 85.8237 45.1169 85.8237C45.6325 85.8237 46.0492 85.4019 46.0492 84.8914V80.2352H49.7731V84.8914C49.7731 85.4019 50.195 85.8237 50.7054 85.8237C51.221 85.8237 51.6377 85.4019 51.6377 84.8914V80.2352H55.3617V84.8914C55.3617 85.4019 55.7835 85.8237 56.2939 85.8237C56.8096 85.8237 57.2262 85.4019 57.2262 84.8914V80.2352H60.9502V84.8914C60.9502 85.4019 61.3721 85.8237 61.8825 85.8237C62.3981 85.8237 62.8148 85.4019 62.8148 84.8914V80.2352H66.5387V84.8914C66.5387 85.4019 66.9554 85.8237 67.471 85.8237C67.9814 85.8237 68.4033 85.4019 68.4033 84.8914V80.2352H72.1273V84.8914C72.1273 85.4019 72.5439 85.8237 73.0596 85.8237C73.57 85.8237 73.9919 85.4019 73.9919 84.8914V80.2091C74.4033 80.1623 74.7887 79.98 75.0804 79.6883L79.0335 75.7352C79.3252 75.4435 79.5075 75.0581 79.5544 74.6466H84.2367C84.7471 74.6466 85.1689 74.2248 85.1689 73.7144C85.1689 73.1987 84.7471 72.7821 84.2367 72.7821H79.5804V69.0581H84.2367C84.7471 69.0581 85.1689 68.6362 85.1689 68.1258C85.1689 67.6102 84.7471 67.1935 84.2367 67.1935H79.5804V63.4696H84.2367C84.7471 63.4696 85.1689 63.0529 85.1689 62.5373C85.1689 62.0269 84.7471 61.605 84.2367 61.605H79.5804V57.881H84.2367C84.7471 57.881 85.1689 57.4644 85.1689 56.9487C85.1689 56.4383 84.7471 56.0164 84.2367 56.0164H79.5804V52.2925H84.2367C84.7471 52.2925 85.1689 51.8758 85.1689 51.3602C85.1689 50.8498 84.7471 50.4279 84.2367 50.4279H79.5804V46.7039H84.2367Z" fill="#CFD4D4"/>
</g>
</svg>
