<svg width="168" height="55" viewBox="0 0 168 55" fill="none" xmlns="http://www.w3.org/2000/svg">
<g clip-path="url(#clip0_957_5661)">
<rect width="168" height="55" rx="9" fill="white"/>
<mask id="mask0_957_5661" style="mask-type:luminance" maskUnits="userSpaceOnUse" x="12" y="17" width="28" height="28">
<path d="M38.8613 18.5137V43.6075H12.667V18.5137H38.8613Z" fill="white" stroke="white" stroke-width="1.33333"/>
</mask>
<g mask="url(#mask0_957_5661)">
<path d="M27.6416 22.1203C27.9558 21.7902 30.8444 18.9861 34.8467 20.3097C35.3612 20.4813 35.8527 20.7091 36.3154 20.9855C33.4899 22.1739 31.4908 24.9214 31.3613 28.1086L31.3555 28.4631C31.3556 30.4911 32.1037 32.3996 33.4521 33.8849L33.7295 34.176C35.0702 35.5166 36.8044 36.325 38.668 36.5012C37.971 37.9151 36.4483 40.4608 33.8662 42.1515L33.54 42.3566L33.5371 42.3576C31.7128 43.4746 29.4481 43.4207 27.7637 42.2472L27.6846 42.1926L27.6602 42.1838C27.6208 42.1561 27.5695 42.1183 27.5078 42.0676L27.4844 42.049L27.46 42.0324L27.3086 41.9416C27.173 41.871 27.0153 41.8161 26.8408 41.8L26.7344 41.7951C26.4783 41.7951 26.2347 41.878 26.0293 42.0236L25.9805 42.0607C25.9372 42.0922 25.8482 42.1535 25.7686 42.214L25.707 42.258C24.1259 43.3499 22.0291 43.469 20.2705 42.5637L19.9238 42.3683C16.4747 40.277 14.7963 36.6018 14.4219 35.6916L14.3398 35.4836C12.783 31.1998 13.0325 27.9681 13.5576 25.9445L13.666 25.5558C14.3629 23.2113 16.0452 21.3547 18.1973 20.4865L18.6338 20.3263C22.1363 19.1634 24.7768 21.1655 25.623 21.9133L25.873 22.1437L25.8789 22.1496C26.3273 22.5977 27.0383 22.6258 27.5195 22.2336L27.6123 22.1496L27.6416 22.1203Z" fill="black" stroke="black" stroke-width="1.33333"/>
</g>
<mask id="mask1_957_5661" style="mask-type:luminance" maskUnits="userSpaceOnUse" x="26" y="9" width="8" height="8">
<path d="M26.624 9.06055H33.9649V16.3785H26.624V9.06055Z" fill="white"/>
</mask>
<g mask="url(#mask1_957_5661)">
<path fill-rule="evenodd" clip-rule="evenodd" d="M28.4763 10.879C27.2891 12.0662 26.7156 13.8269 26.8246 15.8686C28.872 15.9775 30.6327 15.3925 31.8199 14.1997C33.007 13.0125 33.5863 11.2518 33.4716 9.21014C31.4184 9.10117 29.6635 9.68615 28.4763 10.879Z" fill="black"/>
</g>
<path d="M50.6064 11.7129H53.5068C56.0146 11.7129 57.4971 13.2773 57.4971 15.9375C57.4971 18.6035 56.0205 20.1679 53.5068 20.1679H50.6064V11.7129ZM51.6611 12.6621V19.2188H53.4365C55.3232 19.2188 56.4189 18.0117 56.4189 15.9492C56.4189 13.8809 55.3115 12.6621 53.4365 12.6621H51.6611ZM61.792 20.2793C59.9932 20.2793 58.8799 19.0371 58.8799 17.0098C58.8799 14.9766 59.9932 13.7402 61.792 13.7402C63.5908 13.7402 64.7041 14.9766 64.7041 17.0098C64.7041 19.0371 63.5908 20.2793 61.792 20.2793ZM61.792 19.371C62.9873 19.371 63.6611 18.5039 63.6611 17.0098C63.6611 15.5098 62.9873 14.6484 61.792 14.6484C60.5967 14.6484 59.9229 15.5098 59.9229 17.0098C59.9229 18.5039 60.5967 19.371 61.792 19.371ZM73.9971 13.8516L72.2275 20.1679H71.2021L69.79 15.2812H69.6963L68.29 20.1679H67.2705L65.501 13.8516H66.5205L67.7627 18.9023H67.8564L69.2686 13.8516H70.2354L71.6475 18.9023H71.7412L72.9834 13.8516H73.9971ZM75.3447 20.1679V13.8516H76.3057V14.8477H76.3994C76.7158 14.1504 77.3311 13.7402 78.2979 13.7402C79.7158 13.7402 80.5068 14.5781 80.5068 16.0781V20.1679H79.499V16.3242C79.499 15.1874 79.0186 14.6484 78.0107 14.6484C77.0029 14.6484 76.3525 15.3223 76.3525 16.4297V20.1679H75.3447ZM82.4111 20.1679V11.3438H83.4189V20.1679H82.4111ZM87.9717 20.2793C86.1729 20.2793 85.0596 19.0371 85.0596 17.0098C85.0596 14.9766 86.1729 13.7402 87.9717 13.7402C89.7705 13.7402 90.8838 14.9766 90.8838 17.0098C90.8838 19.0371 89.7705 20.2793 87.9717 20.2793ZM87.9717 19.371C89.167 19.371 89.8408 18.5039 89.8408 17.0098C89.8408 15.5098 89.167 14.6484 87.9717 14.6484C86.7764 14.6484 86.1025 15.5098 86.1025 17.0098C86.1025 18.5039 86.7764 19.371 87.9717 19.371ZM94.4111 19.3945C95.4482 19.3945 96.2158 18.7148 96.2158 17.8125V17.2324L94.5166 17.3438C93.5557 17.4082 93.1338 17.7422 93.1338 18.375C93.1338 19.0195 93.6787 19.3945 94.4111 19.3945ZM94.2236 20.2793C92.999 20.2793 92.0908 19.5526 92.0908 18.3983C92.0908 17.2675 92.9229 16.6172 94.3936 16.5293L96.2158 16.4179V15.8438C96.2158 15.0645 95.7295 14.6367 94.7861 14.6367C94.0303 14.6367 93.5029 14.9238 93.3623 15.4219H92.3428C92.4775 14.4082 93.4736 13.7402 94.8213 13.7402C96.3623 13.7402 97.2236 14.5311 97.2236 15.8438V20.1679H96.2627V19.2362H96.1689C95.7588 19.9101 95.0674 20.2793 94.2236 20.2793ZM101.425 20.2793C99.8076 20.2793 98.7705 18.9961 98.7705 17.0098C98.7705 15.0293 99.8193 13.7402 101.425 13.7402C102.304 13.7402 103.048 14.1562 103.405 14.8477H103.493V11.3438H104.501V20.1679H103.54V19.1602H103.446C103.048 19.8633 102.298 20.2793 101.425 20.2793ZM101.659 14.6484C100.511 14.6484 99.8135 15.5391 99.8135 17.0098C99.8135 18.4863 100.505 19.371 101.659 19.371C102.808 19.371 103.517 18.4688 103.517 17.0098C103.517 15.5625 102.802 14.6484 101.659 14.6484ZM112.44 20.2793C110.642 20.2793 109.528 19.0371 109.528 17.0098C109.528 14.9766 110.642 13.7402 112.44 13.7402C114.239 13.7402 115.353 14.9766 115.353 17.0098C115.353 19.0371 114.239 20.2793 112.44 20.2793ZM112.44 19.371C113.636 19.371 114.31 18.5039 114.31 17.0098C114.31 15.5098 113.636 14.6484 112.44 14.6484C111.245 14.6484 110.571 15.5098 110.571 17.0098C110.571 18.5039 111.245 19.371 112.44 19.371ZM116.935 20.1679V13.8516H117.896V14.8477H117.989C118.306 14.1504 118.921 13.7402 119.888 13.7402C121.306 13.7402 122.097 14.5781 122.097 16.0781V20.1679H121.089V16.3242C121.089 15.1874 120.608 14.6484 119.601 14.6484C118.593 14.6484 117.942 15.3223 117.942 16.4297V20.1679H116.935ZM127.751 12.2168H128.759V13.8516H130.165V14.6953H128.759V18.2695C128.759 19.0137 129.04 19.33 129.696 19.33C129.878 19.33 129.978 19.3242 130.165 19.3066V20.1562C129.966 20.1914 129.772 20.2148 129.573 20.2148C128.272 20.2148 127.751 19.7344 127.751 18.5273V14.6953H126.731V13.8516H127.751V12.2168ZM131.747 20.1679V11.3438H132.755V14.8477H132.849C133.165 14.1504 133.827 13.7402 134.794 13.7402C136.13 13.7402 136.974 14.5957 136.974 16.0781V20.1679H135.966V16.3242C135.966 15.205 135.462 14.6484 134.507 14.6484C133.376 14.6484 132.755 15.3633 132.755 16.4297V20.1679H131.747ZM141.333 14.6309C140.325 14.6309 139.622 15.3691 139.546 16.4883H143.026C143.003 15.3691 142.335 14.6309 141.333 14.6309ZM142.997 18.5331H144.005C143.7 19.6171 142.728 20.2793 141.345 20.2793C139.593 20.2793 138.497 19.0137 138.497 17.0156C138.497 15.0293 139.61 13.7402 141.345 13.7402C143.05 13.7402 144.087 14.9531 144.087 16.916V17.3027H139.546V17.3496C139.599 18.5977 140.296 19.3887 141.368 19.3887C142.183 19.3887 142.733 19.0897 142.997 18.5331Z" fill="black"/>
<path d="M61.5811 42.1689L60.0234 37.7323H53.8574L52.2998 42.1689H50.2695L55.9844 26.6679H57.8965L63.6113 42.1689H61.5811ZM56.8545 29.1708L54.4268 36.0888H59.4541L57.0264 29.1708H56.8545ZM71.9744 30.3847C74.9285 30.3847 76.8406 32.7372 76.8406 36.3788C76.8406 39.9989 74.9178 42.373 71.9744 42.373C70.3201 42.373 68.9881 41.6532 68.3543 40.4286H68.1824V46.0361H66.3348V30.5888H68.0965V32.5224H68.2684C69.0096 31.1904 70.3953 30.3847 71.9744 30.3847ZM71.534 40.7079C73.6609 40.7079 74.9285 39.0859 74.9285 36.3788C74.9285 33.6718 73.6609 32.0497 71.5447 32.0497C69.45 32.0497 68.1287 33.7148 68.1287 36.3788C68.1287 39.0321 69.45 40.7079 71.534 40.7079ZM85.6227 30.3847C88.5768 30.3847 90.4889 32.7372 90.4889 36.3788C90.4889 39.9989 88.566 42.373 85.6227 42.373C83.9684 42.373 82.6363 41.6532 82.0026 40.4286H81.8307V46.0361H79.983V30.5888H81.7447V32.5224H81.9166C82.6578 31.1904 84.0436 30.3847 85.6227 30.3847ZM85.1822 40.7079C87.3092 40.7079 88.5768 39.0859 88.5768 36.3788C88.5768 33.6718 87.3092 32.0497 85.193 32.0497C83.0983 32.0497 81.777 33.7148 81.777 36.3788C81.777 39.0321 83.0983 40.7079 85.1822 40.7079ZM99.5774 38.1191H101.532C101.769 39.7411 103.316 40.7724 105.518 40.7724C107.602 40.7724 109.138 39.6445 109.138 38.1083C109.138 36.787 108.171 35.9491 106.033 35.412L104.046 34.8964C101.242 34.1874 100.029 32.9198 100.029 30.7177C100.029 28.0859 102.231 26.3027 105.507 26.3027C108.504 26.3027 110.739 28.0859 110.9 30.5888H108.955C108.687 28.9989 107.376 28.0536 105.443 28.0536C103.38 28.0536 102.016 29.0849 102.016 30.6532C102.016 31.8671 102.864 32.5654 105.002 33.1132L106.624 33.5429C109.836 34.3486 111.125 35.5947 111.125 37.872C111.125 40.7187 108.88 42.5341 105.335 42.5341C102.048 42.5341 99.7815 40.7939 99.5774 38.1191ZM115.127 27.5917H116.975V30.5888H119.553V32.1357H116.975V38.6884C116.975 40.0527 117.49 40.6327 118.693 40.6327C119.026 40.6327 119.209 40.622 119.553 40.5898V42.1474C119.188 42.2118 118.833 42.2548 118.468 42.2548C116.083 42.2548 115.127 41.3739 115.127 39.1611V32.1357H113.258V30.5888H115.127V27.5917ZM127.175 42.373C123.877 42.373 121.836 40.0956 121.836 36.3788C121.836 32.6513 123.877 30.3847 127.175 30.3847C130.473 30.3847 132.514 32.6513 132.514 36.3788C132.514 40.0956 130.473 42.373 127.175 42.373ZM127.175 40.7079C129.366 40.7079 130.601 39.1181 130.601 36.3788C130.601 33.6288 129.366 32.0497 127.175 32.0497C124.983 32.0497 123.748 33.6288 123.748 36.3788C123.748 39.1181 124.983 40.7079 127.175 40.7079ZM135.656 42.1689V30.5888H137.418V32.3075H137.59C137.933 31.1796 139.265 30.3847 140.801 30.3847C141.102 30.3847 141.489 30.4062 141.725 30.4384V32.2861C141.575 32.2431 140.909 32.1786 140.544 32.1786C138.782 32.1786 137.504 33.3603 137.504 34.9931V42.1689H135.656ZM148.574 32.0175C146.726 32.0175 145.437 33.371 145.297 35.4228H151.678C151.635 33.371 150.411 32.0175 148.574 32.0175ZM151.624 39.1718H153.472C152.914 41.1591 151.13 42.373 148.595 42.373C145.383 42.373 143.374 40.0527 143.374 36.3896C143.374 32.748 145.415 30.3847 148.595 30.3847C151.721 30.3847 153.623 32.6083 153.623 36.207V36.9159H145.297V37.0019C145.394 39.29 146.672 40.7402 148.638 40.7402C150.131 40.7402 151.141 40.1923 151.624 39.1718Z" fill="black"/>
</g>
<rect x="0.5" y="0.5" width="167" height="54" rx="8.5" stroke="black"/>
<defs>
<clipPath id="clip0_957_5661">
<rect width="168" height="55" rx="9" fill="white"/>
</clipPath>
</defs>
</svg>
