<svg width="168" height="55" viewBox="0 0 168 55" fill="none" xmlns="http://www.w3.org/2000/svg">
<rect x="0.5" y="0.667969" width="166.528" height="53" rx="7.5" stroke="white"/>
<mask id="mask0_941_4125" style="mask-type:luminance" maskUnits="userSpaceOnUse" x="12" y="17" width="28" height="28">
<path d="M38.8613 18.5146V43.6084H12.667V18.5146H38.8613Z" fill="white" stroke="white" stroke-width="1.33333"/>
</mask>
<g mask="url(#mask0_941_4125)">
<path d="M27.6416 22.1211C27.9558 21.791 30.8444 18.9869 34.8467 20.3105V20.3096C35.3612 20.4812 35.8527 20.7099 36.3154 20.9863C33.4899 22.1747 31.4908 24.9222 31.3613 28.1094L31.3555 28.4639C31.3556 30.4919 32.1037 32.4004 33.4521 33.8857L33.7295 34.1768C35.0702 35.5174 36.8044 36.3258 38.668 36.502C37.971 37.9159 36.4483 40.4616 33.8662 42.1523L33.54 42.3574L33.5371 42.3584C31.7128 43.4754 29.4481 43.4215 27.7637 42.248L27.6846 42.1934L27.6602 42.1846C27.6208 42.1569 27.5695 42.1191 27.5078 42.0684L27.4844 42.0498L27.46 42.0332L27.3086 41.9424C27.173 41.8718 27.0153 41.8169 26.8408 41.8008L26.7344 41.7959C26.4783 41.7959 26.2347 41.8788 26.0293 42.0244L25.9805 42.0615C25.9372 42.093 25.8482 42.1543 25.7686 42.2148L25.707 42.2588C24.1259 43.3507 22.0291 43.4698 20.2705 42.5645L19.9238 42.3691H19.9229C16.4738 40.2778 14.7963 36.6026 14.4219 35.6924L14.3398 35.4844C12.783 31.2006 13.0325 27.9689 13.5576 25.9453L13.666 25.5566C14.3629 23.2121 16.0452 21.3555 18.1973 20.4873L18.6338 20.3271C22.1363 19.1642 24.7768 21.1663 25.623 21.9141L25.873 22.1445L25.8789 22.1504C26.3273 22.5985 27.0383 22.6266 27.5195 22.2344L27.6123 22.1504L27.6416 22.1211Z" fill="white" stroke="white" stroke-width="1.33333"/>
</g>
<mask id="mask1_941_4125" style="mask-type:luminance" maskUnits="userSpaceOnUse" x="26" y="9" width="8" height="8">
<path d="M26.624 9.06055H33.9649V16.3785H26.624V9.06055Z" fill="white"/>
</mask>
<g mask="url(#mask1_941_4125)">
<path fill-rule="evenodd" clip-rule="evenodd" d="M28.4763 10.879C27.2891 12.0662 26.7156 13.8269 26.8246 15.8686C28.872 15.9775 30.6327 15.3925 31.8199 14.1997C33.007 13.0125 33.5863 11.2518 33.4716 9.21014C31.4184 9.10117 29.6635 9.68615 28.4763 10.879Z" fill="white"/>
</g>
<path d="M50.6064 11.7129H53.5068C56.0146 11.7129 57.4971 13.2773 57.4971 15.9375C57.4971 18.6035 56.0205 20.168 53.5068 20.168H50.6064V11.7129ZM51.6611 12.6621V19.2188H53.4365C55.3232 19.2188 56.4189 18.0117 56.4189 15.9492C56.4189 13.8809 55.3115 12.6621 53.4365 12.6621H51.6611ZM61.792 20.2793C59.9932 20.2793 58.8799 19.0371 58.8799 17.0098C58.8799 14.9766 59.9932 13.7402 61.792 13.7402C63.5908 13.7402 64.7041 14.9766 64.7041 17.0098C64.7041 19.0371 63.5908 20.2793 61.792 20.2793ZM61.792 19.3711C62.9873 19.3711 63.6611 18.5039 63.6611 17.0098C63.6611 15.5098 62.9873 14.6484 61.792 14.6484C60.5967 14.6484 59.9229 15.5098 59.9229 17.0098C59.9229 18.5039 60.5967 19.3711 61.792 19.3711ZM73.9971 13.8516L72.2275 20.168H71.2021L69.79 15.2812H69.6963L68.29 20.168H67.2705L65.501 13.8516H66.5205L67.7627 18.9023H67.8564L69.2686 13.8516H70.2354L71.6475 18.9023H71.7412L72.9834 13.8516H73.9971ZM75.3447 20.168V13.8516H76.3057V14.8477H76.3994C76.7158 14.1504 77.3311 13.7402 78.2979 13.7402C79.7158 13.7402 80.5068 14.5781 80.5068 16.0781V20.168H79.499V16.3242C79.499 15.1875 79.0186 14.6484 78.0107 14.6484C77.0029 14.6484 76.3525 15.3223 76.3525 16.4297V20.168H75.3447ZM82.4111 20.168V11.3438H83.4189V20.168H82.4111ZM87.9717 20.2793C86.1729 20.2793 85.0596 19.0371 85.0596 17.0098C85.0596 14.9766 86.1729 13.7402 87.9717 13.7402C89.7705 13.7402 90.8838 14.9766 90.8838 17.0098C90.8838 19.0371 89.7705 20.2793 87.9717 20.2793ZM87.9717 19.3711C89.167 19.3711 89.8408 18.5039 89.8408 17.0098C89.8408 15.5098 89.167 14.6484 87.9717 14.6484C86.7764 14.6484 86.1025 15.5098 86.1025 17.0098C86.1025 18.5039 86.7764 19.3711 87.9717 19.3711ZM94.4111 19.3945C95.4482 19.3945 96.2158 18.7148 96.2158 17.8125V17.2324L94.5166 17.3438C93.5557 17.4082 93.1338 17.7422 93.1338 18.375C93.1338 19.0195 93.6787 19.3945 94.4111 19.3945ZM94.2236 20.2793C92.999 20.2793 92.0908 19.5527 92.0908 18.3984C92.0908 17.2676 92.9229 16.6172 94.3936 16.5293L96.2158 16.418V15.8438C96.2158 15.0645 95.7295 14.6367 94.7861 14.6367C94.0303 14.6367 93.5029 14.9238 93.3623 15.4219H92.3428C92.4775 14.4082 93.4736 13.7402 94.8213 13.7402C96.3623 13.7402 97.2236 14.5312 97.2236 15.8438V20.168H96.2627V19.2363H96.1689C95.7588 19.9102 95.0674 20.2793 94.2236 20.2793ZM101.425 20.2793C99.8076 20.2793 98.7705 18.9961 98.7705 17.0098C98.7705 15.0293 99.8193 13.7402 101.425 13.7402C102.304 13.7402 103.048 14.1562 103.405 14.8477H103.493V11.3438H104.501V20.168H103.54V19.1602H103.446C103.048 19.8633 102.298 20.2793 101.425 20.2793ZM101.659 14.6484C100.511 14.6484 99.8135 15.5391 99.8135 17.0098C99.8135 18.4863 100.505 19.3711 101.659 19.3711C102.808 19.3711 103.517 18.4688 103.517 17.0098C103.517 15.5625 102.802 14.6484 101.659 14.6484ZM112.44 20.2793C110.642 20.2793 109.528 19.0371 109.528 17.0098C109.528 14.9766 110.642 13.7402 112.44 13.7402C114.239 13.7402 115.353 14.9766 115.353 17.0098C115.353 19.0371 114.239 20.2793 112.44 20.2793ZM112.44 19.3711C113.636 19.3711 114.31 18.5039 114.31 17.0098C114.31 15.5098 113.636 14.6484 112.44 14.6484C111.245 14.6484 110.571 15.5098 110.571 17.0098C110.571 18.5039 111.245 19.3711 112.44 19.3711ZM116.935 20.168V13.8516H117.896V14.8477H117.989C118.306 14.1504 118.921 13.7402 119.888 13.7402C121.306 13.7402 122.097 14.5781 122.097 16.0781V20.168H121.089V16.3242C121.089 15.1875 120.608 14.6484 119.601 14.6484C118.593 14.6484 117.942 15.3223 117.942 16.4297V20.168H116.935ZM127.751 12.2168H128.759V13.8516H130.165V14.6953H128.759V18.2695C128.759 19.0137 129.04 19.3301 129.696 19.3301C129.878 19.3301 129.978 19.3242 130.165 19.3066V20.1562C129.966 20.1914 129.772 20.2148 129.573 20.2148C128.272 20.2148 127.751 19.7344 127.751 18.5273V14.6953H126.731V13.8516H127.751V12.2168ZM131.747 20.168V11.3438H132.755V14.8477H132.849C133.165 14.1504 133.827 13.7402 134.794 13.7402C136.13 13.7402 136.974 14.5957 136.974 16.0781V20.168H135.966V16.3242C135.966 15.2051 135.462 14.6484 134.507 14.6484C133.376 14.6484 132.755 15.3633 132.755 16.4297V20.168H131.747ZM141.333 14.6309C140.325 14.6309 139.622 15.3691 139.546 16.4883H143.026C143.003 15.3691 142.335 14.6309 141.333 14.6309ZM142.997 18.5332H144.005C143.7 19.6172 142.728 20.2793 141.345 20.2793C139.593 20.2793 138.497 19.0137 138.497 17.0156C138.497 15.0293 139.61 13.7402 141.345 13.7402C143.05 13.7402 144.087 14.9531 144.087 16.916V17.3027H139.546V17.3496C139.599 18.5977 140.296 19.3887 141.368 19.3887C142.183 19.3887 142.733 19.0898 142.997 18.5332Z" fill="white"/>
<path d="M61.5811 42.168L60.0234 37.7314H53.8574L52.2998 42.168H50.2695L55.9844 26.667H57.8965L63.6113 42.168H61.5811ZM56.8545 29.1699L54.4268 36.0879H59.4541L57.0264 29.1699H56.8545ZM71.9744 30.3838C74.9285 30.3838 76.8406 32.7363 76.8406 36.3779C76.8406 39.998 74.9178 42.3721 71.9744 42.3721C70.3201 42.3721 68.9881 41.6523 68.3543 40.4277H68.1824V46.0352H66.3348V30.5879H68.0965V32.5215H68.2684C69.0096 31.1895 70.3953 30.3838 71.9744 30.3838ZM71.534 40.707C73.6609 40.707 74.9285 39.085 74.9285 36.3779C74.9285 33.6709 73.6609 32.0488 71.5447 32.0488C69.45 32.0488 68.1287 33.7139 68.1287 36.3779C68.1287 39.0312 69.45 40.707 71.534 40.707ZM85.6227 30.3838C88.5768 30.3838 90.4889 32.7363 90.4889 36.3779C90.4889 39.998 88.566 42.3721 85.6227 42.3721C83.9684 42.3721 82.6363 41.6523 82.0026 40.4277H81.8307V46.0352H79.983V30.5879H81.7447V32.5215H81.9166C82.6578 31.1895 84.0436 30.3838 85.6227 30.3838ZM85.1822 40.707C87.3092 40.707 88.5768 39.085 88.5768 36.3779C88.5768 33.6709 87.3092 32.0488 85.193 32.0488C83.0983 32.0488 81.777 33.7139 81.777 36.3779C81.777 39.0312 83.0983 40.707 85.1822 40.707ZM99.5774 38.1182H101.532C101.769 39.7402 103.316 40.7715 105.518 40.7715C107.602 40.7715 109.138 39.6436 109.138 38.1074C109.138 36.7861 108.171 35.9482 106.033 35.4111L104.046 34.8955C101.242 34.1865 100.029 32.9189 100.029 30.7168C100.029 28.085 102.231 26.3018 105.507 26.3018C108.504 26.3018 110.739 28.085 110.9 30.5879H108.955C108.687 28.998 107.376 28.0527 105.443 28.0527C103.38 28.0527 102.016 29.084 102.016 30.6523C102.016 31.8662 102.864 32.5645 105.002 33.1123L106.624 33.542C109.836 34.3477 111.125 35.5938 111.125 37.8711C111.125 40.7178 108.88 42.5332 105.335 42.5332C102.048 42.5332 99.7815 40.793 99.5774 38.1182ZM115.127 27.5908H116.975V30.5879H119.553V32.1348H116.975V38.6875C116.975 40.0518 117.49 40.6318 118.693 40.6318C119.026 40.6318 119.209 40.6211 119.553 40.5889V42.1465C119.188 42.2109 118.833 42.2539 118.468 42.2539C116.083 42.2539 115.127 41.373 115.127 39.1602V32.1348H113.258V30.5879H115.127V27.5908ZM127.175 42.3721C123.877 42.3721 121.836 40.0947 121.836 36.3779C121.836 32.6504 123.877 30.3838 127.175 30.3838C130.473 30.3838 132.514 32.6504 132.514 36.3779C132.514 40.0947 130.473 42.3721 127.175 42.3721ZM127.175 40.707C129.366 40.707 130.601 39.1172 130.601 36.3779C130.601 33.6279 129.366 32.0488 127.175 32.0488C124.983 32.0488 123.748 33.6279 123.748 36.3779C123.748 39.1172 124.983 40.707 127.175 40.707ZM135.656 42.168V30.5879H137.418V32.3066H137.59C137.933 31.1787 139.265 30.3838 140.801 30.3838C141.102 30.3838 141.489 30.4053 141.725 30.4375V32.2852C141.575 32.2422 140.909 32.1777 140.544 32.1777C138.782 32.1777 137.504 33.3594 137.504 34.9922V42.168H135.656ZM148.574 32.0166C146.726 32.0166 145.437 33.3701 145.297 35.4219H151.678C151.635 33.3701 150.411 32.0166 148.574 32.0166ZM151.624 39.1709H153.472C152.914 41.1582 151.13 42.3721 148.595 42.3721C145.383 42.3721 143.374 40.0518 143.374 36.3887C143.374 32.7471 145.415 30.3838 148.595 30.3838C151.721 30.3838 153.623 32.6074 153.623 36.2061V36.915H145.297V37.001C145.394 39.2891 146.672 40.7393 148.638 40.7393C150.131 40.7393 151.141 40.1914 151.624 39.1709Z" fill="white"/>
</svg>
