<svg width="132" height="132" viewBox="0 0 132 132" fill="none" xmlns="http://www.w3.org/2000/svg">
<mask id="mask0_252_3361" style="mask-type:luminance" maskUnits="userSpaceOnUse" x="65" y="11" width="2" height="15">
<path d="M65.5737 11.8672H66.5428V25.5145H65.5737V11.8672Z" fill="white"/>
</mask>
<g mask="url(#mask0_252_3361)">
<path d="M66.058 25.4146C65.8372 25.4146 65.6567 25.2342 65.6567 25.0134L65.6605 12.2619C65.6605 12.0398 65.841 11.8594 66.063 11.8594C66.2851 11.8594 66.4655 12.0398 66.4655 12.2631L66.4605 25.0134C66.4605 25.2342 66.2813 25.4146 66.058 25.4146Z" fill="#E5E5E7"/>
</g>
<path d="M60.6647 25.7675C60.4654 25.7675 60.2925 25.6199 60.266 25.4168L58.6043 12.7763C58.5765 12.5555 58.7317 12.3549 58.9525 12.3246C59.1809 12.2918 59.374 12.452 59.403 12.6716L61.0635 25.312C61.0925 25.5328 60.9373 25.7347 60.7177 25.7637C60.6988 25.7663 60.6824 25.7675 60.6647 25.7675Z" fill="#E5E5E7"/>
<path d="M55.3585 26.8184C55.1806 26.8184 55.0179 26.6998 54.9699 26.5193L51.6742 14.2057C51.6161 13.9912 51.7436 13.7704 51.9593 13.7136C52.1726 13.6543 52.3934 13.7843 52.4514 13.9975L55.7472 26.3112C55.8039 26.5269 55.6765 26.7477 55.462 26.8045C55.4279 26.8133 55.3926 26.8184 55.3585 26.8184Z" fill="#E5E5E7"/>
<path d="M50.2349 28.5559C50.0759 28.5559 49.9271 28.4625 49.8627 28.3073L44.9885 16.5249C44.904 16.3205 45.0011 16.0845 45.2068 15.9987C45.4125 15.9154 45.6484 16.0113 45.7329 16.217L50.6071 27.9995C50.6917 28.2051 50.5945 28.4398 50.3889 28.5256C50.3384 28.5445 50.2867 28.5559 50.2349 28.5559Z" fill="#E5E5E7"/>
<path d="M45.3859 30.9441C45.2471 30.9441 45.1109 30.8709 45.0364 30.7422L38.6645 19.7017C38.5535 19.5099 38.6203 19.2626 38.8134 19.1528C39.0014 19.0405 39.25 19.1049 39.3635 19.2992L45.7342 30.3397C45.8452 30.5328 45.7796 30.7788 45.5866 30.8898C45.5235 30.9264 45.4541 30.9441 45.3859 30.9441Z" fill="#E5E5E7"/>
<path d="M40.8844 33.9491C40.7645 33.9491 40.6446 33.8949 40.5652 33.7914L32.8078 23.677C32.6728 23.5004 32.7069 23.248 32.8823 23.1143C33.0602 22.9805 33.3113 23.0108 33.4475 23.1875L41.2049 33.3018C41.3399 33.4785 41.3071 33.7309 41.1304 33.8659C41.056 33.9226 40.9702 33.9491 40.8844 33.9491Z" fill="#E5E5E7"/>
<path d="M36.8175 37.5192C36.714 37.5192 36.6106 37.4801 36.5311 37.4006L27.5195 28.3827C27.3631 28.2249 27.3644 27.9701 27.5208 27.8136C27.6785 27.6559 27.9334 27.6559 28.0911 27.8136L37.1014 36.8315C37.2591 36.9892 37.2579 37.2441 37.1014 37.4018C37.0232 37.4801 36.9197 37.5192 36.8175 37.5192Z" fill="#E5E5E7"/>
<path d="M33.2517 41.5807C33.1659 41.5807 33.0788 41.553 33.0057 41.4974L22.8939 33.7337C22.7172 33.5987 22.6844 33.3451 22.8194 33.1685C22.9557 32.9918 23.208 32.9603 23.3847 33.0953L33.4952 40.859C33.6719 40.994 33.7072 41.2476 33.5709 41.423C33.4914 41.5265 33.3716 41.5807 33.2517 41.5807Z" fill="#E5E5E7"/>
<path d="M30.2436 46.0775C30.1742 46.0775 30.1048 46.0611 30.043 46.0245L19.0038 39.6463C18.8108 39.5352 18.7439 39.2892 18.8549 39.0961C18.9685 38.9031 19.2171 38.8375 19.4051 38.9485L30.4443 45.3268C30.6373 45.4378 30.7042 45.6839 30.5919 45.8769C30.5174 46.0056 30.3824 46.0775 30.2436 46.0775Z" fill="#E5E5E7"/>
<path d="M27.8495 50.9269C27.7978 50.9269 27.746 50.9168 27.6956 50.8954L15.917 46.0148C15.7126 45.9303 15.6154 45.6956 15.6999 45.4887C15.7845 45.2843 16.023 45.1896 16.2261 45.2716L28.0034 50.1534C28.2091 50.238 28.3075 50.4739 28.2217 50.6796C28.1586 50.8335 28.0072 50.9269 27.8495 50.9269Z" fill="#E5E5E7"/>
<path d="M26.1095 56.0485C26.0755 56.0485 26.0401 56.0447 26.0061 56.0346L13.6925 52.7288C13.4767 52.672 13.3493 52.4512 13.4061 52.2354C13.4654 52.0209 13.6887 51.8935 13.8994 51.9515L26.2143 55.2561C26.4288 55.3154 26.5562 55.535 26.4982 55.7507C26.4515 55.9299 26.2875 56.0485 26.1095 56.0485Z" fill="#E5E5E7"/>
<path d="M25.0523 61.3547C25.0359 61.3547 25.017 61.3535 24.9993 61.3509L12.3602 59.6803C12.1394 59.6526 11.9842 59.4494 12.0133 59.2286C12.0435 59.0103 12.2378 58.8514 12.4637 58.8829L25.1041 60.5535C25.3249 60.5825 25.4801 60.7844 25.4523 61.0052C25.4246 61.2084 25.2504 61.3547 25.0523 61.3547Z" fill="#E5E5E7"/>
<mask id="mask1_252_3361" style="mask-type:luminance" maskUnits="userSpaceOnUse" x="11" y="65" width="15" height="2">
<path d="M11.5503 65.8906H25.1976V66.8597H11.5503V65.8906Z" fill="white"/>
</mask>
<g mask="url(#mask1_252_3361)">
<path d="M24.6981 66.7527L11.9455 66.7464C11.7234 66.7464 11.543 66.566 11.543 66.3439C11.543 66.1218 11.7234 65.9414 11.9455 65.9414L24.6981 65.9477C24.9202 65.9477 25.0994 66.1281 25.0994 66.3515C25.0994 66.5723 24.919 66.7527 24.6981 66.7527Z" fill="#E5E5E7"/>
</g>
<path d="M12.4081 73.81C12.2087 73.81 12.0359 73.6623 12.0081 73.4592C11.9803 73.2396 12.1355 73.0365 12.3551 73.0087L24.9967 71.347C25.2289 71.3192 25.4194 71.4732 25.4484 71.694C25.4774 71.9148 25.321 72.1167 25.1002 72.1444L12.4598 73.8062C12.4421 73.8087 12.4245 73.81 12.4081 73.81Z" fill="#E5E5E7"/>
<path d="M13.784 80.7519C13.6061 80.7519 13.4446 80.6333 13.3954 80.4541C13.3386 80.2396 13.4648 80.0188 13.6806 79.962L25.9992 76.6663C26.215 76.6082 26.4358 76.7369 26.4913 76.9502C26.5493 77.1647 26.4219 77.3855 26.2074 77.4435L13.8888 80.7393C13.8534 80.7481 13.8181 80.7519 13.784 80.7519Z" fill="#E5E5E7"/>
<path d="M16.0595 87.4486C15.9005 87.4486 15.7516 87.3552 15.6873 87.2013C15.6015 86.9956 15.6999 86.7609 15.9043 86.6751L27.6854 81.8034C27.8911 81.7201 28.127 81.816 28.2116 82.0217C28.2974 82.2274 28.199 82.4633 27.9933 82.5466L16.2134 87.4196C16.163 87.4398 16.11 87.4486 16.0595 87.4486Z" fill="#E5E5E7"/>
<path d="M19.1872 93.798C19.0484 93.798 18.9134 93.726 18.8377 93.5961C18.7266 93.4043 18.7923 93.1582 18.9853 93.0459L30.0295 86.679C30.2226 86.568 30.4661 86.6336 30.5797 86.8254C30.6907 87.0184 30.6238 87.2645 30.4308 87.3755L19.3878 93.745C19.3247 93.7803 19.2553 93.798 19.1872 93.798Z" fill="#E5E5E7"/>
<path d="M23.1153 99.6845C22.9942 99.6845 22.8756 99.629 22.7961 99.5255C22.6611 99.3501 22.6952 99.0978 22.8705 98.9615L32.9886 91.2041C33.1653 91.0691 33.4176 91.1019 33.5552 91.2798C33.6902 91.4552 33.6561 91.7088 33.4795 91.8438L23.3601 99.6012C23.2869 99.6567 23.2011 99.6845 23.1153 99.6845Z" fill="#E5E5E7"/>
<path d="M27.7811 105.007C27.6776 105.007 27.5754 104.968 27.4972 104.89C27.3395 104.732 27.3408 104.477 27.4972 104.321L36.5163 95.3092C36.6715 95.1515 36.9289 95.1528 37.0854 95.3092C37.2431 95.4669 37.2418 95.7206 37.0841 95.8783L28.065 104.89C27.988 104.968 27.8846 105.007 27.7811 105.007Z" fill="#E5E5E7"/>
<path d="M33.0997 109.673C33.0139 109.673 32.9281 109.645 32.8549 109.59C32.6795 109.455 32.6455 109.202 32.7805 109.024L40.5466 98.9187C40.6829 98.7421 40.9353 98.7105 41.1119 98.8443C41.2885 98.9805 41.3214 99.2329 41.1863 99.4108L33.4214 109.516C33.3407 109.62 33.2208 109.673 33.0997 109.673Z" fill="#E5E5E7"/>
<path d="M38.9818 113.608C38.9124 113.608 38.8443 113.59 38.7812 113.554C38.5881 113.443 38.5225 113.196 38.6336 113.003L45.0143 101.967C45.1254 101.774 45.3739 101.709 45.5645 101.819C45.7562 101.93 45.8231 102.177 45.7108 102.369L39.3313 113.406C39.2569 113.535 39.1206 113.608 38.9818 113.608Z" fill="#E5E5E7"/>
<path d="M45.3258 116.742C45.2753 116.742 45.2223 116.732 45.1731 116.712C44.9675 116.626 44.8691 116.39 44.9549 116.185L49.8379 104.408C49.9262 104.203 50.1609 104.107 50.3653 104.19C50.5697 104.275 50.6669 104.511 50.5823 104.716L45.6993 116.494C45.6337 116.649 45.4848 116.742 45.3258 116.742Z" fill="#E5E5E7"/>
<path d="M52.0318 119.018C51.9977 119.018 51.9624 119.014 51.9283 119.004C51.7126 118.948 51.5851 118.725 51.6444 118.511L54.9465 106.2C55.0045 105.985 55.2304 105.859 55.4386 105.916C55.6543 105.973 55.7818 106.194 55.7237 106.408L52.4204 118.72C52.3725 118.9 52.2097 119.018 52.0318 119.018Z" fill="#E5E5E7"/>
<path d="M58.9681 120.4C58.9517 120.4 58.9328 120.398 58.9164 120.396C58.6956 120.368 58.5404 120.165 58.5682 119.944L60.2387 107.306C60.269 107.087 60.4646 106.932 60.6917 106.961C60.9113 106.99 61.0665 107.191 61.0387 107.412L59.3669 120.05C59.3404 120.252 59.1675 120.4 58.9681 120.4Z" fill="#E5E5E7"/>
<mask id="mask2_252_3361" style="mask-type:luminance" maskUnits="userSpaceOnUse" x="65" y="107" width="2" height="14">
<path d="M65.5737 107.238H66.5428V120.765H65.5737V107.238Z" fill="white"/>
</mask>
<g mask="url(#mask2_252_3361)">
<path d="M66.0314 120.865C65.8093 120.865 65.6289 120.685 65.6289 120.461L65.6327 107.711C65.634 107.489 65.8131 107.309 66.0365 107.309C66.2573 107.309 66.4377 107.489 66.4377 107.711L66.4339 120.463C66.4327 120.685 66.2535 120.865 66.0314 120.865Z" fill="#E5E5E7"/>
</g>
<path d="M73.0932 120.406C72.8939 120.406 72.721 120.259 72.6932 120.057L71.0328 107.415C71.0037 107.196 71.1602 106.992 71.3797 106.965C71.6132 106.934 71.8012 107.091 71.8315 107.31L73.4919 119.952C73.521 120.172 73.3645 120.374 73.145 120.404C73.1273 120.405 73.1096 120.406 73.0932 120.406Z" fill="#E5E5E7"/>
<path d="M80.0314 119.025C79.8547 119.025 79.692 118.906 79.644 118.727L76.3508 106.412C76.2915 106.197 76.4215 105.977 76.6347 105.92C76.8505 105.863 77.07 105.99 77.128 106.204L80.42 118.519C80.4793 118.733 80.3519 118.954 80.1361 119.011C80.102 119.021 80.0667 119.025 80.0314 119.025Z" fill="#E5E5E7"/>
<path d="M86.7327 116.753C86.5762 116.753 86.4261 116.66 86.3617 116.505L81.4875 104.725C81.403 104.519 81.5001 104.283 81.7058 104.198C81.9115 104.114 82.1474 104.211 82.232 104.417L87.1062 116.197C87.1907 116.402 87.0935 116.638 86.8879 116.723C86.8374 116.743 86.7857 116.753 86.7327 116.753Z" fill="#E5E5E7"/>
<path d="M93.0836 113.627C92.9448 113.627 92.8085 113.554 92.734 113.427L86.3634 102.385C86.2524 102.193 86.3167 101.946 86.5098 101.835C86.6978 101.725 86.9463 101.789 87.0599 101.982L93.4318 113.024C93.5441 113.216 93.4772 113.463 93.2842 113.573C93.2211 113.61 93.1517 113.627 93.0836 113.627Z" fill="#E5E5E7"/>
<path d="M98.9665 109.695C98.8467 109.695 98.7268 109.642 98.6473 109.538L90.8912 99.4239C90.7562 99.2485 90.7903 98.9949 90.9669 98.8599C91.1436 98.7262 91.3959 98.7577 91.5322 98.9343L99.287 109.049C99.422 109.225 99.388 109.478 99.2126 109.611C99.1381 109.668 99.0536 109.695 98.9665 109.695Z" fill="#E5E5E7"/>
<path d="M104.291 105.03C104.189 105.03 104.085 104.991 104.006 104.912L94.9948 95.8944C94.8383 95.7367 94.8383 95.483 94.9948 95.3253C95.1512 95.1676 95.4086 95.1676 95.5638 95.3253L104.577 104.343C104.732 104.5 104.732 104.755 104.575 104.912C104.497 104.991 104.394 105.03 104.291 105.03Z" fill="#E5E5E7"/>
<path d="M108.958 99.7092C108.872 99.7092 108.786 99.6827 108.713 99.6259L98.6014 91.8622C98.4247 91.7284 98.3919 91.4748 98.5269 91.2982C98.662 91.1215 98.9156 91.0887 99.091 91.2237L109.204 98.9874C109.379 99.1237 109.413 99.376 109.277 99.5527C109.199 99.6562 109.079 99.7092 108.958 99.7092Z" fill="#E5E5E7"/>
<path d="M112.89 93.8327C112.822 93.8327 112.753 93.8138 112.69 93.7785L101.652 87.3989C101.459 87.2891 101.392 87.0418 101.503 86.85C101.615 86.657 101.864 86.5914 102.053 86.7024L113.093 93.0807C113.285 93.193 113.352 93.4378 113.24 93.6308C113.165 93.7595 113.03 93.8327 112.89 93.8327Z" fill="#E5E5E7"/>
<path d="M116.02 87.4834C115.97 87.4834 115.917 87.4733 115.868 87.4519L104.092 82.57C103.886 82.4855 103.79 82.2496 103.873 82.0439C103.959 81.8395 104.196 81.7436 104.401 81.8269L116.177 86.7087C116.381 86.7932 116.478 87.0292 116.392 87.2348C116.329 87.39 116.18 87.4834 116.02 87.4834Z" fill="#E5E5E7"/>
<path d="M118.298 80.7858C118.264 80.7858 118.229 80.7821 118.195 80.772L105.884 77.4661C105.669 77.4093 105.542 77.1873 105.598 76.9728C105.658 76.7595 105.881 76.6333 106.092 76.6889L118.402 79.9947C118.617 80.0515 118.745 80.2723 118.687 80.4868C118.639 80.6672 118.476 80.7858 118.298 80.7858Z" fill="#E5E5E7"/>
<path d="M119.681 73.8464C119.665 73.8464 119.647 73.8451 119.628 73.8426L106.993 72.172C106.772 72.143 106.618 71.9411 106.645 71.7203C106.676 71.5008 106.873 71.3456 107.098 71.3746L119.734 73.0452C119.954 73.0729 120.109 73.2761 120.08 73.4969C120.052 73.6988 119.88 73.8464 119.681 73.8464Z" fill="#E5E5E7"/>
<mask id="mask3_252_3361" style="mask-type:luminance" maskUnits="userSpaceOnUse" x="106" y="65" width="15" height="2">
<path d="M106.923 65.8906H120.449V66.8597H106.923V65.8906Z" fill="white"/>
</mask>
<g mask="url(#mask3_252_3361)">
<path d="M120.149 66.7815L107.401 66.7777C107.178 66.7764 106.998 66.5972 106.998 66.3739C106.998 66.1531 107.18 65.9727 107.401 65.9727L120.149 65.9764C120.372 65.9764 120.551 66.1569 120.551 66.3789C120.551 66.601 120.37 66.7815 120.149 66.7815Z" fill="#E5E5E7"/>
</g>
<path d="M107.05 61.3801C106.849 61.3801 106.676 61.2324 106.649 61.0305C106.621 60.8097 106.776 60.6078 106.997 60.5801L119.634 58.9183C119.864 58.8855 120.056 59.0458 120.085 59.2653C120.113 59.4849 119.958 59.688 119.738 59.7158L107.1 61.3775C107.084 61.3788 107.065 61.3801 107.05 61.3801Z" fill="#E5E5E7"/>
<path d="M105.996 56.0743C105.817 56.0743 105.655 55.9557 105.607 55.7753C105.549 55.5608 105.678 55.34 105.892 55.2819L118.205 51.9862C118.418 51.9294 118.64 52.0568 118.697 52.2713C118.755 52.4858 118.627 52.7066 118.412 52.7647L106.098 56.0604C106.065 56.0705 106.031 56.0743 105.996 56.0743Z" fill="#E5E5E7"/>
<path d="M104.255 50.9517C104.099 50.9517 103.948 50.8583 103.884 50.7031C103.799 50.4974 103.897 50.2615 104.102 50.1782L115.881 45.3027C116.087 45.2207 116.322 45.3166 116.407 45.521C116.492 45.7267 116.393 45.9626 116.189 46.0472L104.41 50.9201C104.36 50.9416 104.307 50.9517 104.255 50.9517Z" fill="#E5E5E7"/>
<path d="M101.865 46.0997C101.726 46.0997 101.591 46.0265 101.515 45.8991C101.404 45.706 101.471 45.46 101.664 45.3489L112.707 38.9795C112.903 38.8685 113.145 38.9353 113.257 39.1271C113.369 39.3202 113.303 39.5662 113.109 39.6773L102.065 46.0454C102.001 46.082 101.933 46.0997 101.865 46.0997Z" fill="#E5E5E7"/>
<path d="M98.8609 41.6029C98.7398 41.6029 98.6212 41.5474 98.5417 41.4439C98.4067 41.2686 98.4408 41.0149 98.6161 40.8799L108.736 33.1225C108.911 32.9875 109.166 33.0191 109.3 33.197C109.436 33.3724 109.402 33.626 109.225 33.7623L99.107 41.5184C99.0338 41.5752 98.9467 41.6029 98.8609 41.6029Z" fill="#E5E5E7"/>
<path d="M95.2977 37.5366C95.1955 37.5366 95.092 37.4975 95.0138 37.418C94.8561 37.2616 94.8561 37.0067 95.0138 36.8502L104.03 27.8361C104.187 27.6796 104.444 27.6796 104.599 27.8361C104.756 27.9938 104.757 28.2487 104.599 28.4064L95.5829 37.4193C95.5046 37.4975 95.4012 37.5366 95.2977 37.5366Z" fill="#E5E5E7"/>
<path d="M91.232 33.9682C91.1462 33.9682 91.0604 33.9404 90.9872 33.8837C90.8105 33.7486 90.7765 33.4963 90.9127 33.3196L98.6789 23.2078C98.8152 23.0311 99.0675 22.9996 99.2442 23.1333C99.4196 23.2683 99.4524 23.522 99.3186 23.6986L91.5524 33.8105C91.4717 33.9127 91.3518 33.9682 91.232 33.9682Z" fill="#E5E5E7"/>
<path d="M86.7328 30.9615C86.6647 30.9615 86.594 30.9438 86.5322 30.9072C86.3391 30.7962 86.2735 30.5501 86.3845 30.3583L92.764 19.3191C92.8763 19.1248 93.1262 19.0604 93.3154 19.1714C93.5085 19.2825 93.5741 19.5285 93.4631 19.7203L87.081 30.7596C87.0066 30.8895 86.8716 30.9615 86.7328 30.9615Z" fill="#E5E5E7"/>
<path d="M81.8858 28.5658C81.8341 28.5658 81.7811 28.5557 81.7306 28.5355C81.525 28.4497 81.4291 28.215 81.5136 28.0081L86.3966 16.2319C86.4824 16.0275 86.7184 15.9316 86.9228 16.0136C87.1285 16.0994 87.2269 16.3354 87.1411 16.5398L82.258 28.3172C82.1924 28.4724 82.0435 28.5658 81.8858 28.5658Z" fill="#E5E5E7"/>
<path d="M76.763 26.8266C76.7289 26.8266 76.6936 26.8215 76.6595 26.8127C76.445 26.7547 76.3176 26.5339 76.3743 26.3194L79.6776 14.0057C79.7357 13.7912 79.9603 13.6638 80.1697 13.7205C80.3855 13.7798 80.5142 13.9994 80.4562 14.2152L77.1516 26.5276C77.1049 26.708 76.9409 26.8266 76.763 26.8266Z" fill="#E5E5E7"/>
<path d="M71.4566 25.7698C71.4402 25.7698 71.4226 25.7698 71.4049 25.766C71.1841 25.7382 71.0302 25.5351 71.0579 25.3155L72.7285 12.6776C72.7575 12.4581 72.9493 12.3016 73.1802 12.3319C73.3998 12.3609 73.5562 12.564 73.5272 12.7836L71.8566 25.4203C71.8289 25.6234 71.656 25.7698 71.4566 25.7698Z" fill="#E5E5E7"/>
<path d="M63.2898 23.2061C63.0778 23.2061 62.9011 23.0433 62.8873 22.8288L62.3699 14.6878C62.3561 14.4658 62.5251 14.2752 62.7472 14.2613C62.9693 14.2298 63.1598 14.414 63.1737 14.6374L63.691 22.7783C63.7061 23.0004 63.5371 23.1909 63.3137 23.2048C63.3062 23.2061 63.2973 23.2061 63.2898 23.2061Z" fill="#E5E5E7"/>
<path d="M57.6288 23.9403C57.4396 23.9403 57.2705 23.8078 57.2326 23.616L55.658 15.6063C55.6151 15.3867 55.7589 15.176 55.9759 15.1318C56.1967 15.0915 56.4062 15.234 56.4491 15.4498L58.0225 23.4608C58.0654 23.6791 57.9241 23.8911 57.7058 23.934C57.6793 23.939 57.6528 23.9403 57.6288 23.9403Z" fill="#E5E5E7"/>
<path d="M52.1097 25.4052C51.9419 25.4052 51.7842 25.2992 51.7274 25.1313L49.1206 17.3992C49.0499 17.1885 49.1635 16.9601 49.373 16.8882C49.5849 16.8175 49.8121 16.9311 49.884 17.1418L52.492 24.8752C52.5627 25.0847 52.4491 25.3143 52.2384 25.385C52.1955 25.3988 52.1526 25.4052 52.1097 25.4052Z" fill="#E5E5E7"/>
<path d="M46.8311 27.5785C46.6823 27.5785 46.5409 27.4952 46.4703 27.3526L42.8742 20.0255C42.7783 19.8249 42.8591 19.5839 43.0597 19.4867C43.2566 19.3883 43.5001 19.4716 43.5985 19.6709L47.1933 26.9981C47.2904 27.1987 47.2084 27.4397 47.0078 27.5368C46.951 27.5659 46.8904 27.5785 46.8311 27.5785Z" fill="#E5E5E7"/>
<path d="M41.8799 30.4229C41.7512 30.4229 41.6225 30.3598 41.5455 30.2437L37.0259 23.4491C36.9035 23.2636 36.954 23.0138 37.1369 22.8914C37.3249 22.769 37.5748 22.8182 37.6971 23.0037L42.2155 29.7971C42.3379 29.9826 42.2887 30.2324 42.1032 30.3548C42.0351 30.4015 41.9581 30.4229 41.8799 30.4229Z" fill="#E5E5E7"/>
<path d="M37.3434 33.8839C37.2311 33.8839 37.1201 33.8385 37.0406 33.7477L31.6731 27.6003C31.5267 27.4337 31.5444 27.1789 31.7109 27.0338C31.8787 26.8861 32.1324 26.9038 32.28 27.0729L37.6463 33.2177C37.7926 33.3855 37.775 33.6391 37.6084 33.7855C37.5314 33.8524 37.4381 33.8852 37.3434 33.8839Z" fill="#E5E5E7"/>
<path d="M33.2959 37.9172C33.2013 37.9172 33.1067 37.8832 33.0297 37.8163L26.9089 32.4197C26.7411 32.272 26.7259 32.0184 26.8723 31.8506C27.0199 31.6841 27.2735 31.6689 27.4413 31.8153L33.5622 37.2119C33.7287 37.3595 33.7451 37.6131 33.5975 37.781C33.5193 37.8718 33.407 37.9172 33.2959 37.9172Z" fill="#E5E5E7"/>
<path d="M29.8102 42.4351C29.732 42.4351 29.655 42.4124 29.5856 42.367L22.8125 37.8196C22.627 37.6959 22.5778 37.4461 22.7014 37.2618C22.8263 37.0738 23.0774 37.0272 23.2616 37.1508L30.0335 41.6982C30.219 41.8219 30.2682 42.0717 30.1446 42.256C30.0676 42.372 29.9402 42.4351 29.8102 42.4351Z" fill="#E5E5E7"/>
<path d="M26.9458 47.3757C26.8852 47.3757 26.8246 47.3618 26.7666 47.334L19.4572 43.7089C19.2566 43.6105 19.1771 43.3683 19.2742 43.1689C19.3739 42.9695 19.6199 42.8888 19.8143 42.9872L27.1237 46.6123C27.3243 46.7107 27.4063 46.953 27.3066 47.1511C27.236 47.2936 27.0934 47.3757 26.9458 47.3757Z" fill="#E5E5E7"/>
<path d="M24.7481 52.6454C24.7052 52.6454 24.6611 52.6391 24.6182 52.624L16.8987 49.9831C16.688 49.9112 16.5757 49.6828 16.6488 49.4721C16.7208 49.2613 16.9466 49.149 17.1586 49.221L24.8793 51.8619C25.0888 51.9338 25.2024 52.1634 25.1292 52.3729C25.0724 52.5407 24.9159 52.6454 24.7481 52.6454Z" fill="#E5E5E7"/>
<path d="M23.2601 58.1582C23.2336 58.1582 23.2084 58.1557 23.1806 58.1507L15.1797 56.5381C14.9614 56.4952 14.8214 56.2832 14.8656 56.065C14.9085 55.8479 15.1179 55.7079 15.34 55.7495L23.3396 57.3608C23.5591 57.4062 23.6979 57.6182 23.6538 57.834C23.6172 58.027 23.4494 58.1582 23.2601 58.1582Z" fill="#E5E5E7"/>
<path d="M22.5032 63.8166C22.4956 63.8166 22.4855 63.8154 22.4755 63.8141L14.3345 63.2615C14.1125 63.2463 13.9459 63.0545 13.9598 62.8325C13.9749 62.6116 14.144 62.4451 14.3888 62.4577L22.531 63.0116C22.7518 63.0268 22.9196 63.2198 22.9045 63.4406C22.8893 63.6526 22.7139 63.8166 22.5032 63.8166Z" fill="#E5E5E7"/>
<path d="M14.3452 70.0401C14.1332 70.0401 13.9566 69.8761 13.944 69.6628C13.9276 69.442 14.0979 69.2502 14.32 69.2363L22.4634 68.7215C22.6855 68.6938 22.876 68.8767 22.8911 69.0976C22.905 69.3209 22.736 69.5114 22.5139 69.5253L14.3692 70.0388C14.3616 70.0401 14.3528 70.0401 14.3452 70.0401Z" fill="#E5E5E7"/>
<path d="M15.2158 76.7606C15.0265 76.7606 14.8574 76.6281 14.8196 76.4363C14.7767 76.2181 14.9205 76.0061 15.1376 75.9632L23.1435 74.3897C23.3643 74.3494 23.5737 74.4894 23.6166 74.7077C23.6595 74.926 23.5169 75.138 23.2987 75.1809L15.2927 76.7543C15.2663 76.7594 15.2398 76.7606 15.2158 76.7606Z" fill="#E5E5E7"/>
<path d="M16.9554 83.3121C16.7888 83.3121 16.6311 83.2074 16.5743 83.0383C16.5024 82.8288 16.616 82.5992 16.8279 82.5285L24.5588 79.923C24.7682 79.8536 24.9979 79.9646 25.0685 80.1753C25.1405 80.3873 25.0269 80.6157 24.8162 80.6864L17.0841 83.2907C17.0412 83.3058 16.9983 83.3121 16.9554 83.3121Z" fill="#E5E5E7"/>
<path d="M19.5348 89.5775C19.3859 89.5775 19.2433 89.4955 19.1726 89.3517C19.0755 89.1536 19.1575 88.9113 19.3581 88.8129L26.6852 85.2219C26.8833 85.1222 27.1243 85.2055 27.224 85.4048C27.3211 85.6042 27.2391 85.8465 27.0398 85.9436L19.7114 89.5359C19.6546 89.5649 19.5941 89.5775 19.5348 89.5775Z" fill="#E5E5E7"/>
<path d="M22.9121 95.4561C22.7821 95.4561 22.6534 95.393 22.5764 95.2757C22.4541 95.0902 22.5033 94.8416 22.6887 94.718L29.4821 90.1957C29.6688 90.0734 29.9161 90.1238 30.0411 90.308C30.1634 90.4935 30.113 90.7434 29.9275 90.867L23.1354 95.3892C23.0647 95.4334 22.9878 95.4561 22.9121 95.4561Z" fill="#E5E5E7"/>
<path d="M27.0225 100.839C26.9102 100.839 26.7992 100.792 26.7184 100.701C26.5733 100.535 26.591 100.28 26.7575 100.133L32.9048 94.7682C33.0727 94.6206 33.3263 94.6383 33.4739 94.8061C33.6203 94.9727 33.6026 95.2275 33.436 95.3726L27.2875 100.739C27.2117 100.807 27.1159 100.839 27.0225 100.839Z" fill="#E5E5E7"/>
<path d="M31.8048 105.64C31.7115 105.64 31.6156 105.608 31.5386 105.54C31.3721 105.392 31.3569 105.138 31.5033 104.972L36.8961 98.8484C37.045 98.6805 37.2973 98.6641 37.4651 98.8118C37.6304 98.9581 37.6468 99.213 37.5004 99.3796L32.1077 105.503C32.0269 105.594 31.9159 105.64 31.8048 105.64Z" fill="#E5E5E7"/>
<path d="M37.1726 109.776C37.0943 109.776 37.0174 109.755 36.948 109.707C36.7638 109.583 36.7145 109.334 36.8382 109.149L41.3843 102.377C41.508 102.191 41.7591 102.145 41.9433 102.267C42.1288 102.391 42.1767 102.641 42.0543 102.826L37.5069 109.597C37.4287 109.714 37.3013 109.776 37.1726 109.776Z" fill="#E5E5E7"/>
<path d="M43.0329 113.176C42.9724 113.176 42.9106 113.162 42.8538 113.134C42.6557 113.036 42.5737 112.793 42.6733 112.594L46.2997 105.286C46.3993 105.085 46.6429 105.007 46.8397 105.104C47.039 105.202 47.1185 105.443 47.0201 105.643L43.3938 112.952C43.3231 113.095 43.1806 113.176 43.0329 113.176Z" fill="#E5E5E7"/>
<path d="M49.2887 115.784C49.2458 115.784 49.2016 115.777 49.16 115.763C48.9467 115.691 48.8357 115.463 48.9076 115.252L51.5472 107.531C51.6179 107.32 51.8463 107.207 52.0582 107.28C52.2689 107.352 52.38 107.582 52.3093 107.791L49.6697 115.512C49.6117 115.68 49.4565 115.784 49.2887 115.784Z" fill="#E5E5E7"/>
<path d="M55.8283 117.554C55.8018 117.554 55.7753 117.55 55.7476 117.547C55.5305 117.501 55.3892 117.289 55.4334 117.072L57.0472 109.072C57.0901 108.855 57.297 108.717 57.5203 108.757C57.7386 108.802 57.8787 109.014 57.8345 109.231L56.222 117.231C56.1841 117.422 56.0176 117.554 55.8283 117.554Z" fill="#E5E5E7"/>
<path d="M62.5449 118.449C62.5361 118.449 62.5272 118.449 62.5172 118.449C62.2951 118.434 62.1285 118.241 62.1424 118.02L62.6963 109.882C62.7127 109.662 62.8831 109.489 63.1253 109.509C63.3474 109.523 63.5152 109.716 63.5013 109.937L62.9462 118.076C62.931 118.288 62.7544 118.45 62.5449 118.449Z" fill="#E5E5E7"/>
<path d="M69.3237 118.466C69.1104 118.466 68.9338 118.302 68.9212 118.089L68.4051 109.944C68.3912 109.722 68.5603 109.532 68.7824 109.518C69.0044 109.493 69.1937 109.673 69.2088 109.894L69.7236 118.039C69.7388 118.261 69.5697 118.453 69.3464 118.465C69.3388 118.466 69.3312 118.466 69.3237 118.466Z" fill="#E5E5E7"/>
<path d="M76.0441 117.6C75.8561 117.6 75.6871 117.467 75.6492 117.275L74.0745 109.266C74.0316 109.047 74.1742 108.835 74.3925 108.792C74.6133 108.751 74.8215 108.893 74.8644 109.11L76.4391 117.12C76.482 117.338 76.3394 117.55 76.1211 117.593C76.0959 117.598 76.0681 117.6 76.0441 117.6Z" fill="#E5E5E7"/>
<path d="M82.5926 115.86C82.4247 115.858 82.267 115.752 82.2115 115.585L79.606 107.851C79.534 107.642 79.6489 107.412 79.8583 107.341C80.0665 107.271 80.2987 107.383 80.3693 107.595L82.9736 115.327C83.0455 115.538 82.932 115.766 82.7225 115.837C82.6784 115.852 82.6355 115.86 82.5926 115.86Z" fill="#E5E5E7"/>
<path d="M88.8602 113.278C88.7113 113.278 88.5675 113.196 88.4981 113.053L84.9083 105.727C84.8099 105.528 84.8919 105.286 85.0913 105.189C85.2919 105.093 85.5317 105.174 85.6313 105.374L89.2223 112.699C89.3182 112.898 89.2375 113.139 89.0368 113.238C88.9801 113.265 88.9195 113.278 88.8602 113.278Z" fill="#E5E5E7"/>
<path d="M94.7336 109.902C94.6037 109.902 94.475 109.839 94.398 109.721L89.8821 102.927C89.761 102.741 89.8102 102.491 89.9957 102.368C90.1837 102.245 90.431 102.296 90.5534 102.48L95.0693 109.276C95.1929 109.461 95.1412 109.712 94.957 109.834C94.8876 109.88 94.8106 109.902 94.7336 109.902Z" fill="#E5E5E7"/>
<path d="M100.121 105.792C100.009 105.792 99.8981 105.745 99.8174 105.653L94.4523 99.508C94.3047 99.3402 94.3224 99.0866 94.4902 98.939C94.6567 98.7939 94.9116 98.809 95.0567 98.9781L100.424 105.124C100.572 105.291 100.553 105.546 100.388 105.692C100.311 105.759 100.215 105.792 100.121 105.792Z" fill="#E5E5E7"/>
<path d="M104.924 101.007C104.828 101.007 104.732 100.973 104.656 100.906L98.5318 95.512C98.3665 95.3657 98.3501 95.1121 98.4965 94.9455C98.6441 94.7777 98.8977 94.7625 99.0656 94.9089L105.19 100.302C105.355 100.449 105.371 100.704 105.224 100.871C105.145 100.96 105.034 101.007 104.924 101.007Z" fill="#E5E5E7"/>
<path d="M109.061 95.6403C108.983 95.6403 108.906 95.6176 108.837 95.5721L102.063 91.0222C101.878 90.8973 101.829 90.6474 101.952 90.4632C102.077 90.2765 102.327 90.2311 102.511 90.3534L109.286 94.9034C109.47 95.0283 109.519 95.2769 109.396 95.4611C109.319 95.5785 109.191 95.6403 109.061 95.6403Z" fill="#E5E5E7"/>
<path d="M112.461 89.7777C112.399 89.7777 112.338 89.7651 112.282 89.7373L104.97 86.1097C104.77 86.0113 104.691 85.7703 104.789 85.5697C104.889 85.3703 105.131 85.2921 105.329 85.3893L112.639 89.0156C112.839 89.114 112.919 89.3563 112.82 89.5544C112.751 89.6957 112.607 89.7777 112.461 89.7777Z" fill="#E5E5E7"/>
<path d="M115.065 83.5243C115.022 83.5243 114.978 83.5168 114.936 83.5029L107.218 80.862C107.007 80.7901 106.895 80.5604 106.967 80.351C107.038 80.1402 107.267 80.0279 107.478 80.0999L115.196 82.7408C115.407 82.8127 115.518 83.0411 115.446 83.2518C115.389 83.4183 115.234 83.5243 115.065 83.5243Z" fill="#E5E5E7"/>
<path d="M116.834 76.9825C116.808 76.9825 116.782 76.9787 116.754 76.9749L108.756 75.3636C108.539 75.3194 108.398 75.1062 108.442 74.8892C108.485 74.6721 108.692 74.5321 108.915 74.5737L116.914 76.185C117.131 76.2292 117.274 76.4412 117.23 76.6594C117.191 76.85 117.024 76.9825 116.834 76.9825Z" fill="#E5E5E7"/>
<path d="M117.738 70.2686C117.729 70.2686 117.718 70.2686 117.71 70.2686L109.567 69.7134C109.346 69.6983 109.18 69.5065 109.195 69.2844C109.209 69.0649 109.379 68.8971 109.623 68.911L117.765 69.4649C117.987 69.4788 118.153 69.6718 118.138 69.8939C118.124 70.1059 117.948 70.2686 117.738 70.2686Z" fill="#E5E5E7"/>
<path d="M109.607 64.0062C109.396 64.0062 109.218 63.8435 109.206 63.629C109.192 63.4081 109.36 63.2176 109.583 63.2025L117.725 62.6864C117.939 62.6586 118.137 62.8403 118.151 63.0624C118.166 63.2832 117.997 63.475 117.775 63.4889L109.632 64.0062C109.624 64.0062 109.615 64.0062 109.607 64.0062Z" fill="#E5E5E7"/>
<path d="M108.876 58.3414C108.687 58.3414 108.519 58.2089 108.48 58.0171C108.437 57.7988 108.581 57.5868 108.798 57.5439L116.802 55.9718C117.026 55.9314 117.231 56.0715 117.276 56.2885C117.318 56.5068 117.175 56.7175 116.958 56.7616L108.953 58.3351C108.928 58.3401 108.901 58.3414 108.876 58.3414Z" fill="#E5E5E7"/>
<path d="M107.41 52.8251C107.241 52.8251 107.085 52.7191 107.028 52.5513C106.956 52.3406 107.071 52.1122 107.281 52.0403L115.011 49.4347C115.219 49.3653 115.45 49.4763 115.521 49.6883C115.591 49.899 115.479 50.1261 115.267 50.1981L107.538 52.8036C107.496 52.8175 107.453 52.8251 107.41 52.8251Z" fill="#E5E5E7"/>
<path d="M105.238 47.5449C105.089 47.5449 104.946 47.4616 104.876 47.3191C104.779 47.121 104.861 46.8787 105.061 46.7803L112.385 43.1893C112.581 43.0921 112.824 43.1741 112.922 43.3735C113.02 43.5729 112.938 43.8139 112.738 43.9123L105.416 47.5033C105.358 47.5323 105.297 47.5449 105.238 47.5449Z" fill="#E5E5E7"/>
<path d="M102.39 42.5968C102.261 42.5968 102.134 42.5337 102.056 42.4177C101.934 42.2322 101.984 41.9823 102.168 41.86L108.962 37.3403C109.148 37.2179 109.397 37.2684 109.519 37.4526C109.643 37.6381 109.593 37.8866 109.408 38.0103L102.614 42.5287C102.546 42.5754 102.469 42.5968 102.39 42.5968Z" fill="#E5E5E7"/>
<path d="M98.9265 38.0587C98.8142 38.0587 98.7019 38.012 98.6237 37.9199C98.4773 37.7533 98.4937 37.4984 98.6615 37.3521L104.809 31.987C104.978 31.8394 105.23 31.857 105.378 32.0249C105.526 32.1914 105.507 32.4463 105.34 32.5926L99.1915 37.959C99.1145 38.0259 99.0199 38.0587 98.9265 38.0587Z" fill="#E5E5E7"/>
<path d="M94.8976 34.0124C94.8042 34.0124 94.7071 33.9783 94.6314 33.9102C94.4648 33.7651 94.4497 33.5089 94.596 33.3424L99.9888 27.2215C100.135 27.055 100.39 27.0398 100.558 27.1874C100.724 27.3338 100.74 27.5874 100.593 27.7552L95.1992 33.8749C95.1197 33.9657 95.0086 34.0124 94.8976 34.0124Z" fill="#E5E5E7"/>
<path d="M90.3778 30.5303C90.2995 30.5303 90.2226 30.5076 90.1544 30.4609C89.9689 30.3386 89.9197 30.0875 90.0447 29.902L94.5908 23.1275C94.7144 22.942 94.963 22.8941 95.1498 23.0177C95.3327 23.1426 95.3832 23.3925 95.2583 23.5767L90.7121 30.3512C90.6352 30.4673 90.5077 30.5303 90.3778 30.5303Z" fill="#E5E5E7"/>
<path d="M85.4374 27.6605C85.3769 27.6605 85.3163 27.6466 85.2583 27.6188C85.0589 27.5204 84.9781 27.2794 85.0766 27.0788L88.7041 19.7706C88.8026 19.57 89.0461 19.4917 89.2429 19.5876C89.4423 19.6873 89.523 19.9283 89.4233 20.1277L85.797 27.4359C85.7276 27.5785 85.5851 27.6605 85.4374 27.6605Z" fill="#E5E5E7"/>
<path d="M80.1695 25.4636C80.1254 25.4636 80.0825 25.456 80.0396 25.4409C79.8276 25.3702 79.7166 25.1406 79.7885 24.9299L82.4306 17.2103C82.5025 16.9996 82.7297 16.8873 82.9416 16.9592C83.1511 17.0312 83.2646 17.2595 83.1915 17.4703L80.5493 25.1911C80.4925 25.3589 80.3373 25.4636 80.1695 25.4636Z" fill="#E5E5E7"/>
<path d="M74.6566 23.9766C74.6301 23.9766 74.6049 23.9741 74.5771 23.9691C74.3601 23.9262 74.2188 23.7129 74.263 23.4946L75.8717 15.4963C75.9146 15.278 76.1228 15.1366 76.3461 15.1795C76.5619 15.2237 76.7032 15.4357 76.6591 15.654L75.0503 23.6536C75.0137 23.8442 74.8459 23.9766 74.6566 23.9766Z" fill="#E5E5E7"/>
<path d="M68.9981 23.2172C68.9905 23.2172 68.9804 23.2172 68.9716 23.216C68.7508 23.2021 68.583 23.009 68.5981 22.787L69.1495 14.6485C69.1647 14.4277 69.335 14.2549 69.5785 14.275C69.7993 14.2902 69.9671 14.482 69.9533 14.7028L69.4006 22.8412C69.3855 23.0545 69.2101 23.2172 68.9981 23.2172Z" fill="#E5E5E7"/>
<mask id="mask4_252_3361" style="mask-type:luminance" maskUnits="userSpaceOnUse" x="21" y="21" width="90" height="91">
<path d="M21.1924 21.5078H110.929V111.245H21.1924V21.5078Z" fill="white"/>
</mask>
<g mask="url(#mask4_252_3361)">
<mask id="mask5_252_3361" style="mask-type:luminance" maskUnits="userSpaceOnUse" x="21" y="21" width="90" height="91">
<path d="M66.0593 21.5078C41.2795 21.5078 21.1909 41.5965 21.1909 66.3765C21.1909 91.1565 41.2795 111.245 66.0593 111.245C90.8392 111.245 110.928 91.1565 110.928 66.3765C110.928 41.5965 90.8392 21.5078 66.0593 21.5078Z" fill="white"/>
</mask>
<g mask="url(#mask5_252_3361)">
<path d="M21.1909 21.5078V111.245H110.928V21.5078H21.1909Z" fill="url(#paint0_linear_252_3361)"/>
</g>
</g>
<mask id="mask6_252_3361" style="mask-type:luminance" maskUnits="userSpaceOnUse" x="37" y="37" width="58" height="58">
<path d="M37.5117 37.8281H94.6091V94.9259H37.5117V37.8281Z" fill="white"/>
</mask>
<g mask="url(#mask6_252_3361)">
<mask id="mask7_252_3361" style="mask-type:luminance" maskUnits="userSpaceOnUse" x="37" y="37" width="58" height="58">
<path d="M66.0638 37.8281C50.2968 37.8281 37.5151 50.6099 37.5151 66.377C37.5151 82.1442 50.2968 94.9259 66.0638 94.9259C81.8309 94.9259 94.6126 82.1442 94.6126 66.377C94.6126 50.6099 81.8309 37.8281 66.0638 37.8281Z" fill="white"/>
</mask>
<g mask="url(#mask7_252_3361)">
<path d="M37.5151 37.8281V94.9259H94.6126V37.8281H37.5151Z" fill="url(#paint1_linear_252_3361)"/>
</g>
</g>
<mask id="mask8_252_3361" style="mask-type:luminance" maskUnits="userSpaceOnUse" x="37" y="37" width="58" height="58">
<path d="M37.5117 37.8281H94.4237V94.7405H37.5117V37.8281Z" fill="white"/>
</mask>
<g mask="url(#mask8_252_3361)">
<mask id="mask9_252_3361" style="mask-type:luminance" maskUnits="userSpaceOnUse" x="37" y="37" width="58" height="58">
<path d="M66.0613 37.8281C50.2956 37.8281 37.5151 50.6086 37.5151 66.3745C37.5151 82.1417 50.2956 94.9222 66.0613 94.9222C81.8284 94.9222 94.6088 82.1417 94.6088 66.3745C94.6088 50.6086 81.8284 37.8281 66.0613 37.8281Z" fill="white"/>
</mask>
<g mask="url(#mask9_252_3361)">
<path d="M66.0613 37.8281C50.2956 37.8281 37.5151 50.6087 37.5151 66.3745C37.5151 82.1417 50.2956 94.9222 66.0613 94.9222C81.8284 94.9222 94.6088 82.1417 94.6088 66.3745C94.6088 50.6087 81.8284 37.8281 66.0613 37.8281Z" stroke="black" stroke-width="1.30654"/>
</g>
</g>
<path d="M33.1313 59.6391L25.9897 57.4789L26.5803 55.5207L32.0109 57.161L32.99 53.9258L34.701 54.4456L33.1313 59.6391Z" fill="black"/>
<path d="M34.906 53.8031L29.7378 47.7415L30.5453 46.293L38.4137 47.4942L37.3589 49.3868L35.8649 49.0739L34.9009 50.8051L35.9608 51.9003L34.906 53.8031ZM32.009 48.0544L33.8562 49.8764L34.5123 48.6954L32.009 48.0544Z" fill="black"/>
<path d="M37.802 42.5978L40.4971 45.081L39.1092 46.5901L33.623 41.5329L34.7031 40.3569L39.5231 40.7304L36.732 38.1564L38.12 36.6523L43.6061 41.7095L42.5059 42.9057L37.802 42.5978Z" fill="black"/>
<path d="M48.5744 37.4639C48.4255 38.0897 48.0962 38.573 47.5852 38.9124C47.1978 39.1685 46.7738 39.3262 46.3133 39.3868C45.8553 39.4449 45.3998 39.412 44.9455 39.2909C44.4951 39.1698 44.0661 38.9666 43.6585 38.6802C43.2523 38.3913 42.9053 38.0317 42.6188 37.6001C42.3261 37.1636 42.1331 36.7043 42.0384 36.2223C41.9451 35.7415 41.9425 35.2734 42.0334 34.8192C42.1217 34.3624 42.2958 33.9309 42.5583 33.5271C42.8182 33.1208 43.1576 32.7776 43.5778 32.4975C43.8402 32.3259 44.1115 32.1934 44.3904 32.0988C44.6692 32.0016 44.9506 31.9449 45.2332 31.9272C45.5184 31.9108 45.796 31.9322 46.066 31.9928C46.3385 32.0534 46.5972 32.1543 46.8432 32.2956L46.2174 34.1075C45.9449 33.9334 45.6521 33.8426 45.3392 33.835C45.0263 33.8249 44.7512 33.8993 44.5165 34.0571C44.3424 34.1719 44.2074 34.3195 44.1128 34.5012C44.0156 34.6804 43.9614 34.8785 43.9513 35.0968C43.9412 35.3125 43.974 35.5434 44.0472 35.7882C44.1178 36.0305 44.2326 36.2702 44.3904 36.5049C44.5544 36.7547 44.7336 36.9579 44.9254 37.1156C45.1171 37.2708 45.3152 37.3831 45.5209 37.4538C45.7253 37.5219 45.931 37.5446 46.1366 37.5244C46.3448 37.5017 46.5429 37.4273 46.7322 37.3024C46.9366 37.1648 47.1019 36.9781 47.2268 36.7421C47.3543 36.5074 47.4388 36.2349 47.4792 35.9245L46.384 36.6513L45.5714 35.4248L48.1302 33.729L50.3207 37.0399L48.9125 37.9736L48.5744 37.4639Z" fill="black"/>
<path d="M54.2024 33.585C54.4244 33.5042 54.596 33.3869 54.7172 33.2317C54.8408 33.0777 54.9241 32.9024 54.9645 32.7068C55.0074 32.5087 55.0149 32.2967 54.9846 32.0708C54.9544 31.8425 54.8963 31.6116 54.813 31.3794L53.516 27.7707L55.4439 27.0742L56.741 30.6829C56.9152 31.1712 57.0161 31.6507 57.0439 32.1213C57.0741 32.5894 57.011 33.0273 56.8571 33.4336C56.7057 33.8411 56.4609 34.2045 56.1253 34.5237C55.7922 34.8442 55.3556 35.0991 54.8181 35.2909C54.2553 35.4928 53.7405 35.5735 53.2737 35.5332C52.8094 35.4903 52.3905 35.3552 52.017 35.1294C51.646 34.9048 51.328 34.6045 51.0631 34.231C50.7943 33.8575 50.576 33.4361 50.407 32.9642L49.1099 29.3555L51.0378 28.659L52.3349 32.2677C52.4182 32.4999 52.5217 32.7156 52.6428 32.9137C52.7639 33.1131 52.9027 33.2758 53.0617 33.4033C53.2194 33.5282 53.3923 33.6102 53.5816 33.6506C53.7696 33.6884 53.9765 33.6657 54.2024 33.585Z" fill="black"/>
<path d="M58.9663 33.8374L60.9195 26.1153L62.5699 25.9336L66.1382 33.045L63.9881 33.2822L63.3825 31.8841L61.4091 32.1012L61.1315 33.6001L58.9663 33.8374ZM61.9744 28.1442L61.5655 30.7031L62.9081 30.5567L61.9744 28.1442Z" fill="black"/>
<path d="M71.9885 33.0634C71.4699 33.4432 70.9046 33.5959 70.2926 33.5227C69.8346 33.4684 69.4119 33.3158 69.0258 33.0634C68.6385 32.811 68.3104 32.4931 68.0416 32.1095C67.7754 31.7234 67.5798 31.2868 67.4562 30.8023C67.3313 30.3178 67.301 29.8181 67.3653 29.3033C67.4259 28.7822 67.5735 28.3078 67.8095 27.88C68.048 27.4535 68.3495 27.0952 68.7129 26.805C69.0763 26.516 69.4876 26.3028 69.9494 26.164C70.4138 26.0227 70.8958 25.9823 71.3979 26.0429C71.7071 26.0807 71.9998 26.1527 72.2761 26.2599C72.5512 26.3684 72.8023 26.5072 73.0281 26.6788C73.2565 26.8504 73.4534 27.0473 73.6187 27.2693C73.7865 27.4914 73.919 27.7337 74.0174 27.9961L72.367 28.9752C72.2723 28.6661 72.1096 28.4087 71.8774 28.203C71.6452 27.9948 71.3878 27.8725 71.1052 27.8346C70.8958 27.8119 70.6977 27.8384 70.5097 27.9154C70.3204 27.9898 70.1513 28.1059 69.9999 28.2636C69.8485 28.4226 69.7223 28.6169 69.6214 28.8491C69.5204 29.0812 69.4523 29.3386 69.4195 29.6213C69.3854 29.9178 69.3905 30.1891 69.4346 30.4339C69.4775 30.6761 69.5558 30.8919 69.6668 31.0799C69.7778 31.2654 69.9192 31.4168 70.0908 31.5341C70.2649 31.6489 70.4655 31.7196 70.6914 31.7461C70.9361 31.7764 71.1834 31.7436 71.4333 31.6452C71.6818 31.5442 71.9203 31.3903 72.15 31.1808L70.8428 31.0244L71.0194 29.5607L74.0678 29.9291L73.5934 33.8709L71.9178 33.669L71.9885 33.0634Z" fill="black"/>
<path d="M80.7777 34.4094L80.1821 36.0951L75.1704 34.3286L77.6485 27.293L82.5694 29.0292L81.9739 30.7149L78.986 29.6601L78.6377 30.6493L81.1916 31.5477L80.6414 33.1123L78.0876 32.2139L77.699 33.3243L80.7777 34.4094Z" fill="black"/>
<path d="M84.5435 38.4308L89.0858 32.5156L90.711 33.7673L88.8537 36.1849L92.6743 35.2764L94.3398 36.5533L90.1558 37.5526L89.9489 42.5846L88.248 41.2824L88.5054 37.7293L87.5162 37.9261L86.1686 39.6825L84.5435 38.4308Z" fill="black"/>
<path d="M90.6401 43.5637L96.1616 38.5469L97.5445 40.061L92.023 45.0778L90.6401 43.5637Z" fill="black"/>
<path d="M97.5873 46.3794L94.4632 48.2973L93.3882 46.551L99.7424 42.6445L100.58 44.0022L98.9147 48.5446L102.145 46.556L103.22 48.3023L96.8656 52.2088L96.0127 50.8208L97.5873 46.3794Z" fill="black"/>
<path d="M99.6081 58.1366C99.0429 57.8237 98.6668 57.3745 98.4826 56.7891C98.3413 56.3474 98.306 55.8983 98.3766 55.4415C98.4473 54.9873 98.6012 54.5583 98.841 54.1545C99.0794 53.7507 99.3924 53.3924 99.7797 53.0795C100.17 52.764 100.61 52.5268 101.102 52.3678C101.603 52.2101 102.096 52.1495 102.581 52.1861C103.068 52.224 103.52 52.3476 103.933 52.5596C104.35 52.7691 104.717 53.053 105.034 53.4126C105.353 53.776 105.59 54.1974 105.745 54.6794C105.839 54.9746 105.894 55.2712 105.912 55.5677C105.928 55.8629 105.907 56.1494 105.846 56.4257C105.786 56.7045 105.687 56.9657 105.554 57.208C105.422 57.4528 105.257 57.6748 105.059 57.8742L103.484 56.7739C103.723 56.5645 103.888 56.3109 103.979 56.0118C104.072 55.7115 104.076 55.4264 103.989 55.1538C103.925 54.9545 103.819 54.7854 103.671 54.6441C103.526 54.5053 103.351 54.4018 103.146 54.3311C102.94 54.263 102.71 54.2315 102.455 54.2352C102.202 54.2378 101.94 54.2819 101.667 54.3665C101.385 54.4573 101.142 54.5734 100.941 54.7147C100.739 54.8586 100.575 55.0201 100.451 55.1992C100.33 55.3771 100.25 55.5689 100.214 55.7746C100.18 55.979 100.199 56.1897 100.269 56.4055C100.342 56.6402 100.476 56.8522 100.668 57.0414C100.862 57.2294 101.102 57.3821 101.385 57.5007L100.986 56.249L102.394 55.7998L103.328 58.7221L99.5425 59.9334L99.0277 58.3234L99.6081 58.1366Z" fill="black"/>
<path d="M27.249 76.9841L35.4858 74.082L36.7325 77.6251C36.8763 78.0289 36.9255 78.4288 36.8788 78.8263C36.8309 79.2263 36.7173 79.5947 36.5356 79.9316C36.3539 80.2673 36.1142 80.565 35.8189 80.825C35.5224 81.0874 35.2007 81.2792 34.855 81.4003C34.4916 81.5278 34.1143 81.5871 33.7244 81.577C33.3333 81.5669 32.9636 81.4912 32.6141 81.3499C32.2633 81.2085 31.9504 80.9966 31.6753 80.7139C31.399 80.4338 31.1883 80.0931 31.0444 79.6894L30.575 78.3468L28.0465 79.2402L27.249 76.9841ZM32.5434 77.6554L32.9623 78.8515C33.009 78.9891 33.1188 79.0951 33.2904 79.1695C33.4645 79.2427 33.7168 79.2212 34.0474 79.1039C34.3868 78.9853 34.5925 78.8339 34.6632 78.6497C34.7363 78.468 34.7502 78.3077 34.7035 78.1702L34.3048 77.0346L32.5434 77.6554Z" fill="black"/>
<path d="M31.0767 86.3898L38.2637 81.4336L40.5349 84.7294C40.7771 85.0801 40.9285 85.4536 40.9891 85.8498C41.0497 86.2498 41.0358 86.6346 40.9487 87.0056C40.8604 87.3791 40.7077 87.7299 40.4894 88.0604C40.2737 88.3898 40.0125 88.661 39.7071 88.873C39.2895 89.1582 38.8365 89.3336 38.3495 89.3979C37.865 89.4648 37.3968 89.4156 36.9464 89.2516L35.4171 92.6937L33.8828 90.4629L35.1496 87.581L34.6399 86.8441L32.4343 88.3633L31.0767 86.3898ZM36.3609 85.658L37.2189 86.8996C37.3022 87.0207 37.4486 87.0863 37.658 87.0964C37.8662 87.1091 38.0896 87.0334 38.3293 86.8693C38.5816 86.6977 38.7305 86.5034 38.7785 86.2889C38.8252 86.0769 38.8062 85.9104 38.723 85.7892L37.9003 84.5981L36.3609 85.658Z" fill="black"/>
<path d="M40.5986 97.5569C40.1166 97.1633 39.757 96.7052 39.5185 96.1841C39.2826 95.6618 39.1551 95.1255 39.1349 94.5741C39.1148 94.0227 39.193 93.4776 39.3722 92.9388C39.5538 92.3975 39.8226 91.9067 40.1797 91.4651C40.5431 91.0209 40.9733 90.6601 41.4717 90.38C41.9689 90.1011 42.4925 89.9245 43.0414 89.85C43.5928 89.7731 44.1429 89.8033 44.6918 89.9409C45.2431 90.0759 45.7579 90.3383 46.2362 90.7282C46.7169 91.1219 47.0752 91.5799 47.3112 92.101C47.5459 92.6196 47.672 93.1559 47.6897 93.7111C47.7099 94.2662 47.6266 94.8126 47.4424 95.3514C47.2569 95.8889 46.9882 96.3734 46.6349 96.8049C46.274 97.2491 45.845 97.6087 45.3479 97.885C44.8533 98.1601 44.3334 98.3392 43.7883 98.42C43.2458 98.5007 42.6982 98.473 42.143 98.3392C41.5903 98.208 41.0755 97.9468 40.5986 97.5569ZM42.0521 93.0246C41.8667 93.2543 41.714 93.4978 41.5929 93.7565C41.4717 94.0164 41.4011 94.2738 41.3809 94.5287C41.3632 94.7836 41.3985 95.0334 41.4869 95.2757C41.5739 95.5179 41.7317 95.7324 41.9613 95.9217C42.196 96.1135 42.442 96.2258 42.6982 96.2598C42.953 96.2964 43.2041 96.275 43.4502 96.1942C43.6987 96.1135 43.9372 95.9873 44.1669 95.8157C44.399 95.6441 44.6034 95.4473 44.7826 95.2252C44.9706 94.9955 45.122 94.752 45.2368 94.4934C45.3542 94.2347 45.4236 93.9785 45.4438 93.7262C45.4665 93.4738 45.4337 93.2291 45.3428 92.9893C45.252 92.7508 45.0917 92.5376 44.8634 92.3483C44.6274 92.1565 44.3839 92.0442 44.1315 92.0102C43.8792 91.9774 43.6281 91.9988 43.3795 92.0758C43.1335 92.1502 42.8963 92.2714 42.6679 92.4392C42.442 92.6083 42.2364 92.8026 42.0521 93.0246Z" fill="black"/>
<path d="M52.2003 99.5263C52.3542 99.0153 52.5952 98.5396 52.922 98.098C53.2475 97.6576 53.6437 97.2943 54.1081 97.0078C54.5724 96.7189 55.0897 96.5271 55.6626 96.4325C56.2341 96.3353 56.8385 96.3807 57.4745 96.5687C58.224 96.7908 58.8271 97.1517 59.2813 97.6488C59.7381 98.1472 60.0207 98.7112 60.1292 99.3396L57.9994 100.071C57.9893 99.843 57.9464 99.6462 57.8732 99.4809C57.8025 99.3169 57.7117 99.1756 57.6006 99.057C57.4896 98.9396 57.3634 98.8425 57.2221 98.7642C57.0808 98.6873 56.947 98.6305 56.8234 98.5926C56.5307 98.5093 56.2606 98.5005 56.0159 98.5674C55.7698 98.6355 55.5477 98.7529 55.3496 98.9207C55.1503 99.0898 54.9812 99.2967 54.8399 99.5415C54.6986 99.7837 54.5888 100.035 54.5118 100.293C54.4273 100.584 54.3819 100.873 54.3756 101.162C54.368 101.452 54.4071 101.721 54.4916 101.969C54.5749 102.215 54.7036 102.431 54.8752 102.615C55.0493 102.797 55.2702 102.928 55.5364 103.009C55.6739 103.049 55.8165 103.073 55.9654 103.079C56.1168 103.083 56.2695 103.064 56.4247 103.024C56.5824 102.981 56.7325 102.91 56.8739 102.812C57.0177 102.711 57.1489 102.577 57.2675 102.408L58.8069 104.084C58.6012 104.356 58.3426 104.578 58.0296 104.75C57.7167 104.922 57.3811 105.044 57.0253 105.119C56.672 105.192 56.3099 105.221 55.9402 105.204C55.5692 105.187 55.2197 105.13 54.8904 105.033C54.3049 104.861 53.8052 104.578 53.3914 104.185C52.9801 103.794 52.6608 103.344 52.4324 102.832C52.2028 102.317 52.0665 101.772 52.0236 101.197C51.9833 100.619 52.0413 100.061 52.2003 99.5263Z" fill="black"/>
<path d="M61.6353 106.379L61.9431 97.6523L64.3405 97.7381L64.1083 104.375L68.0602 104.511L67.9845 106.601L61.6353 106.379Z" fill="black"/>
<path d="M70.541 106.457L71.8028 97.2259L73.6954 96.7969L78.7829 104.605L76.3098 105.16L75.4165 103.605L73.1554 104.115L73.0242 105.902L70.541 106.457ZM73.2967 99.4466L73.1503 102.485L74.6948 102.137L73.2967 99.4466Z" fill="black"/>
<path d="M83.6818 95.7046C83.3954 95.6882 83.1115 95.6895 82.8288 95.7097C82.5828 95.7235 82.3191 95.7551 82.0364 95.8056C81.7538 95.856 81.4964 95.9418 81.2642 96.063C81.075 96.1639 80.9412 96.2737 80.8605 96.391C80.7772 96.5096 80.7722 96.6371 80.8453 96.7746C80.8996 96.8755 80.9753 96.9437 81.0725 96.9765C81.1734 97.0068 81.2996 97.0169 81.451 97.0068C81.6024 96.9941 81.779 96.9664 81.9809 96.926C82.1853 96.8831 82.4213 96.839 82.6875 96.7948C83.0976 96.714 83.4812 96.6661 83.8382 96.6484C84.1941 96.6282 84.5209 96.656 84.8174 96.7292C85.1126 96.7998 85.3801 96.9348 85.6199 97.1329C85.8621 97.3285 86.0766 97.6061 86.2659 97.9657C86.5107 98.4338 86.6305 98.8691 86.6242 99.2729C86.6204 99.6767 86.5283 100.048 86.3466 100.383C86.1675 100.72 85.9239 101.022 85.6148 101.287C85.3082 101.553 84.9751 101.78 84.6155 101.968C84.3329 102.117 84.0313 102.248 83.7121 102.362C83.3954 102.477 83.0686 102.571 82.7329 102.644C82.3961 102.715 82.0629 102.768 81.7336 102.801C81.403 102.835 81.0851 102.845 80.7797 102.831L80.7192 100.484C81.0598 100.515 81.398 100.518 81.7387 100.494C82.0276 100.484 82.3405 100.446 82.6774 100.378C83.0168 100.308 83.3411 100.191 83.6515 100.03C83.8837 99.9088 84.0275 99.7953 84.0856 99.6868C84.1461 99.5795 84.1486 99.4748 84.0956 99.3739C84.0376 99.2628 83.9442 99.1947 83.813 99.1669C83.6818 99.1366 83.5203 99.1354 83.3285 99.1619C83.1367 99.1896 82.9222 99.2275 82.6875 99.278C82.4516 99.3259 82.198 99.3713 81.9254 99.4142C81.5216 99.4786 81.1608 99.5089 80.8453 99.5051C80.5299 99.4988 80.2473 99.4533 79.9974 99.3688C79.7451 99.2817 79.5255 99.1493 79.3363 98.9701C79.1445 98.7884 78.9754 98.5562 78.8265 98.2736C78.6019 97.8471 78.4821 97.4295 78.4682 97.0219C78.4518 96.6118 78.5212 96.2283 78.6751 95.8712C78.8265 95.5116 79.0473 95.1848 79.3363 94.892C79.6265 94.5968 79.9621 94.3495 80.3457 94.1501C80.6283 93.9987 80.9185 93.8814 81.2138 93.7968C81.509 93.7097 81.8043 93.6429 82.097 93.5949C82.3897 93.5482 82.6699 93.5167 82.9399 93.499C83.2124 93.4826 83.4572 93.4725 83.6767 93.4688L83.6818 95.7046Z" fill="black"/>
<path d="M90.3846 90.3438C90.1019 90.4018 89.8243 90.475 89.5518 90.5658C89.3196 90.6403 89.0748 90.7374 88.8149 90.8586C88.5525 90.9772 88.3254 91.1235 88.1336 91.2977C87.9758 91.439 87.8711 91.5778 87.8206 91.7115C87.7677 91.8465 87.7942 91.9727 87.9014 92.09C87.9758 92.1746 88.0654 92.22 88.1689 92.2263C88.2736 92.2301 88.3998 92.2087 88.5474 92.1607C88.6925 92.114 88.8591 92.0446 89.0471 91.9538C89.2326 91.8604 89.4458 91.7595 89.6881 91.6509C90.0716 91.473 90.4325 91.3305 90.7732 91.2219C91.1126 91.1147 91.4343 91.0592 91.7372 91.0554C92.0425 91.0491 92.3378 91.1109 92.6204 91.2421C92.903 91.3734 93.1806 91.5904 93.4532 91.8932C93.8065 92.2806 94.0298 92.673 94.1244 93.0692C94.2216 93.4629 94.2254 93.8452 94.1345 94.2149C94.0437 94.5858 93.8822 94.9391 93.65 95.2748C93.4204 95.6079 93.1567 95.9094 92.8576 96.1782C92.6179 96.394 92.358 96.5958 92.0753 96.7838C91.7952 96.9731 91.5012 97.146 91.1921 97.3037C90.8855 97.4589 90.5776 97.5939 90.2685 97.7075C89.9581 97.8223 89.6553 97.9094 89.355 97.9699L88.7089 95.7189C89.0458 95.6583 89.3739 95.5763 89.6931 95.4716C89.972 95.3883 90.266 95.2722 90.5763 95.1234C90.8893 94.9719 91.1744 94.7801 91.4343 94.548C91.6261 94.3739 91.7372 94.2275 91.7675 94.1089C91.8003 93.9878 91.7788 93.8843 91.7018 93.796C91.6173 93.7051 91.5075 93.6635 91.3738 93.6698C91.2388 93.6736 91.0823 93.7127 90.9044 93.7859C90.7252 93.8565 90.5284 93.9461 90.3139 94.0534C90.0981 94.1619 89.8609 94.2691 89.6023 94.3764C89.2288 94.5379 88.8894 94.6565 88.5828 94.7297C88.2736 94.8041 87.9872 94.8306 87.7248 94.8104C87.4623 94.7902 87.2175 94.7183 86.9879 94.5934C86.7557 94.466 86.5324 94.283 86.3166 94.0433C85.9936 93.6875 85.7753 93.314 85.6605 92.9228C85.5432 92.5291 85.5141 92.1405 85.5747 91.7569C85.6353 91.3708 85.769 90.9999 85.9734 90.6466C86.1791 90.2908 86.4428 89.9652 86.7658 89.6725C87.0018 89.458 87.2529 89.2725 87.5178 89.1173C87.7841 88.9596 88.0528 88.8195 88.3254 88.6984C88.5954 88.5773 88.8591 88.4763 89.1177 88.3956C89.3777 88.3123 89.6111 88.2416 89.8193 88.1836L90.3846 90.3438Z" fill="black"/>
<path d="M99.2094 84.8033L100.951 85.9591L97.5085 91.1374L90.2407 86.2973L93.6223 81.2148L95.3635 82.3757L93.3093 85.4645L94.3339 86.1459L96.0903 83.5062L97.7053 84.5813L95.949 87.2209L97.0946 87.988L99.2094 84.8033Z" fill="black"/>
<path d="M98.7501 75.7826C98.5318 75.968 98.3236 76.1649 98.1242 76.3731C97.9564 76.5522 97.7861 76.7554 97.6145 76.9838C97.4429 77.2134 97.3142 77.4519 97.2259 77.7005C97.1552 77.8998 97.13 78.0714 97.1502 78.2153C97.1703 78.3566 97.2549 78.4525 97.4025 78.5029C97.511 78.5433 97.612 78.5408 97.7053 78.4929C97.8 78.4462 97.8996 78.3667 98.0031 78.2556C98.1078 78.1446 98.2201 78.0058 98.3413 77.8367C98.4624 77.6651 98.6024 77.4721 98.7602 77.2563C99.01 76.9232 99.2586 76.6292 99.5071 76.3731C99.7532 76.1144 100.011 75.9113 100.279 75.7624C100.546 75.611 100.835 75.5252 101.147 75.505C101.458 75.4848 101.804 75.5428 102.187 75.6766C102.682 75.852 103.065 76.0892 103.338 76.3882C103.61 76.6885 103.795 77.0229 103.893 77.3926C103.99 77.7635 104.017 78.1496 103.974 78.5534C103.93 78.9572 103.84 79.3496 103.706 79.7294C103.602 80.0322 103.47 80.335 103.313 80.6379C103.154 80.9382 102.976 81.2309 102.778 81.5161C102.582 81.7987 102.376 82.0649 102.162 82.3135C101.947 82.5596 101.722 82.7804 101.486 82.9747L99.8402 81.3041C100.11 81.0921 100.359 80.8625 100.587 80.6126C100.793 80.4107 100.999 80.171 101.203 79.8909C101.405 79.6083 101.564 79.3042 101.677 78.9774C101.766 78.7288 101.793 78.5458 101.763 78.4272C101.73 78.3061 101.66 78.2279 101.551 78.19C101.434 78.1496 101.318 78.1635 101.203 78.2304C101.089 78.2985 100.971 78.407 100.85 78.5585C100.729 78.7074 100.6 78.8802 100.461 79.0783C100.32 79.2739 100.162 79.4808 99.9866 79.6991C99.738 80.0196 99.4958 80.2846 99.2598 80.4965C99.0251 80.7085 98.7854 80.8688 98.5431 80.976C98.3009 81.0845 98.0511 81.1375 97.7911 81.1375C97.5287 81.135 97.2486 81.0808 96.9483 80.976C96.494 80.8145 96.1205 80.5899 95.8278 80.2997C95.5351 80.0108 95.3256 79.6827 95.1969 79.3155C95.0657 78.9496 95.0051 78.561 95.0152 78.1496C95.0253 77.7396 95.1036 77.3308 95.2474 76.9232C95.3559 76.6204 95.4884 76.3365 95.6461 76.0702C95.8013 75.8053 95.9717 75.5542 96.1559 75.3182C96.3376 75.0835 96.5231 74.8678 96.7111 74.6722C96.8965 74.4779 97.0669 74.3038 97.2208 74.1523L98.7501 75.7826Z" fill="black"/>
<path d="M48.5464 47.5209L49.2732 46.9657L50.2069 47.6572L49.7779 46.5721L50.5047 46.0118L51.0901 47.7531L51.7614 48.1922L50.863 45.7393L51.721 45.0781L52.8162 48.8281L52.1551 49.3379L50.9488 48.6212L51.3374 49.9637L50.6813 50.4735L47.3301 48.4597L48.1881 47.7985L50.3381 49.2874L50.0706 48.5354L48.5464 47.5209Z" fill="black"/>
<path d="M55.9009 47.1305C55.6649 47.2416 55.4277 47.2971 55.1892 47.2971C54.9495 47.2946 54.7249 47.2466 54.5129 47.1558C54.301 47.0649 54.1092 46.9387 53.9376 46.7772C53.766 46.6132 53.6284 46.4239 53.5237 46.212C53.4228 45.9975 53.3647 45.7716 53.3471 45.5357C53.3269 45.2972 53.3521 45.0688 53.4228 44.8492C53.4909 44.6272 53.5994 44.424 53.7508 44.2386C53.8997 44.0543 54.0877 43.9054 54.3161 43.7944C54.5508 43.6834 54.7867 43.6304 55.0227 43.6329C55.2612 43.6367 55.487 43.6834 55.699 43.7742C55.9135 43.8625 56.1053 43.99 56.2744 44.1578C56.446 44.3231 56.5822 44.5098 56.6832 44.718C56.7866 44.9338 56.8472 45.1609 56.8649 45.3994C56.8813 45.6353 56.856 45.8625 56.7892 46.0807C56.7248 46.2965 56.6176 46.4984 56.4661 46.6864C56.3173 46.8719 56.1293 47.0195 55.9009 47.1305ZM54.4473 45.7779C54.5003 45.8927 54.5647 45.9949 54.6391 46.0858C54.7161 46.1741 54.8019 46.246 54.8965 46.3028C54.9899 46.3571 55.0896 46.3886 55.1943 46.3987C55.2978 46.4063 55.4075 46.3823 55.5223 46.328C55.6334 46.2751 55.7167 46.2019 55.7747 46.111C55.8353 46.0202 55.8719 45.9218 55.8857 45.8132C55.9021 45.706 55.8971 45.595 55.8706 45.4801C55.8466 45.3628 55.8075 45.2505 55.7545 45.142C55.704 45.0309 55.6397 44.93 55.5627 44.8392C55.4845 44.7483 55.4012 44.6776 55.3104 44.6272C55.2195 44.5742 55.1198 44.5439 55.0126 44.5363C54.9041 44.5262 54.7968 44.5464 54.6896 44.5969C54.571 44.6549 54.4839 44.7281 54.4271 44.819C54.3691 44.9073 54.3338 45.0044 54.3211 45.1117C54.3073 45.2202 54.3123 45.3325 54.3363 45.4499C54.359 45.5647 54.3969 45.6745 54.4473 45.7779Z" fill="black"/>
<path d="M58.2164 46.0858L57.2222 42.5881L58.8271 42.1288C58.9987 42.0821 59.1653 42.0733 59.3268 42.1036C59.4908 42.1314 59.641 42.1869 59.776 42.2701C59.9135 42.3509 60.0334 42.4569 60.1343 42.5881C60.2353 42.7193 60.3072 42.8594 60.3513 43.007C60.4081 43.2127 60.417 43.4146 60.3766 43.6127C60.3387 43.812 60.2567 43.9899 60.1293 44.1477L61.2851 45.2126L60.1999 45.5205L59.2309 44.6372L58.8726 44.7382L59.1754 45.8132L58.2164 46.0858ZM58.6303 43.9004L59.2359 43.7288C59.2965 43.7124 59.3419 43.6631 59.3722 43.5824C59.405 43.5016 59.405 43.4032 59.3722 43.2846C59.3381 43.161 59.2826 43.0752 59.2057 43.0272C59.1274 42.9805 59.0593 42.9654 58.9987 42.9818L58.4183 43.1483L58.6303 43.9004Z" fill="black"/>
<path d="M61.9894 45.1177L61.5503 41.5039L62.5395 41.3828L62.8726 44.1284L64.5129 43.9266L64.6189 44.7947L61.9894 45.1177Z" fill="black"/>
<path d="M65.3657 44.755L65.502 41.1211L66.9 41.1766C67.2029 41.1867 67.4666 41.2447 67.6924 41.3482C67.917 41.4492 68.1038 41.5854 68.2526 41.757C68.4003 41.9261 68.5075 42.1229 68.5757 42.3475C68.6463 42.5696 68.6766 42.8056 68.6665 43.0541C68.6564 43.3342 68.6034 43.5841 68.51 43.8062C68.4154 44.0257 68.2842 44.2099 68.1164 44.3613C67.9511 44.5127 67.7542 44.6288 67.5259 44.7096C67.2962 44.7865 67.0426 44.8206 66.7638 44.8105L65.3657 44.755ZM67.6571 43.0138C67.6596 42.8762 67.6445 42.7488 67.6117 42.6302C67.5814 42.5128 67.5322 42.4119 67.4653 42.3274C67.3972 42.2441 67.3139 42.1759 67.2129 42.1255C67.112 42.0725 66.9972 42.0435 66.8697 42.0397L66.471 42.0245L66.4004 43.9222L66.7991 43.9374C66.9303 43.9412 67.0477 43.9222 67.1524 43.8819C67.2558 43.839 67.3454 43.7746 67.4199 43.6901C67.4931 43.6068 67.5486 43.5071 67.5864 43.3923C67.6268 43.2787 67.6495 43.1526 67.6571 43.0138Z" fill="black"/>
<path d="M71.3605 41.6665L72.2487 41.8885L72.2841 43.0544L72.8695 42.045L73.7578 42.2671L72.7585 43.8014L72.8292 44.6039L74.1969 42.3781L75.2467 42.6405L72.9856 45.8253L72.1781 45.6234L71.9913 44.2354L71.1788 45.371L70.3712 45.1691L69.8716 41.293L70.9214 41.5554L71.0829 44.1698L71.5119 43.4885L71.3605 41.6665Z" fill="black"/>
<path d="M74.8984 46.5549L76.357 43.2188L77.2706 43.6175L75.812 46.9536L74.8984 46.5549Z" fill="black"/>
<path d="M76.7734 47.3719L78.656 44.2578L79.8521 44.9795C80.1108 45.1385 80.3127 45.3177 80.4578 45.5196C80.6054 45.7189 80.7013 45.9271 80.7455 46.1454C80.7922 46.365 80.7922 46.5896 80.7455 46.8217C80.7013 47.0514 80.6155 47.2709 80.4881 47.4829C80.343 47.7214 80.1752 47.9132 79.9834 48.0583C79.7941 48.2059 79.591 48.3056 79.3727 48.3561C79.1531 48.409 78.9247 48.4141 78.6863 48.3712C78.4465 48.3308 78.2081 48.2374 77.9696 48.0936L76.7734 47.3719ZM79.62 46.958C79.6906 46.8407 79.7386 46.7233 79.7663 46.6047C79.7966 46.4836 79.8017 46.3713 79.7815 46.2666C79.7638 46.1593 79.7234 46.0584 79.6604 45.9637C79.5998 45.8704 79.514 45.7896 79.403 45.7215L79.0648 45.5145L78.0806 47.1397L78.4188 47.3466C78.5323 47.4135 78.6459 47.4539 78.7569 47.4678C78.8705 47.4804 78.9803 47.469 79.085 47.4324C79.1885 47.3946 79.2869 47.3365 79.3777 47.2558C79.4686 47.175 79.5493 47.0766 79.62 46.958Z" fill="black"/>
<path d="M82.7258 50.5716L82.1606 51.2378L80.1821 49.5572L82.5341 46.7812L84.4772 48.4317L83.917 49.0928L82.7359 48.0884L82.4028 48.4821L83.4123 49.3401L82.8924 49.9559L81.883 49.0979L81.5095 49.537L82.7258 50.5716Z" fill="black"/>
<path d="M43.5046 64.2828C43.5715 64.1844 43.6321 64.0835 43.6863 63.98C43.733 63.8854 43.7784 63.7832 43.8226 63.6722C43.8693 63.5611 43.8983 63.4513 43.9084 63.3441C43.9147 63.2532 43.9046 63.1801 43.8781 63.1271C43.8541 63.0728 43.81 63.0425 43.7469 63.0362C43.6989 63.0324 43.6586 63.0438 43.6257 63.0715C43.5955 63.1018 43.5627 63.1447 43.5299 63.2028C43.4996 63.2595 43.4693 63.3289 43.439 63.4097C43.4087 63.493 43.3734 63.5863 43.333 63.6873C43.2725 63.8513 43.2043 63.9977 43.1311 64.1264C43.0605 64.2576 42.9797 64.3661 42.8889 64.4545C42.798 64.5453 42.6895 64.6109 42.5659 64.6513C42.4409 64.6942 42.2933 64.7093 42.1217 64.6967C41.906 64.679 41.7281 64.6273 41.5867 64.5403C41.4454 64.4519 41.3344 64.3384 41.2536 64.197C41.1767 64.0583 41.1249 63.9056 41.0972 63.7378C41.0707 63.5687 41.0618 63.4009 41.0719 63.2331C41.082 63.1018 41.1022 62.9656 41.1325 62.8242C41.1628 62.6854 41.2019 62.5492 41.2486 62.4154C41.2953 62.2842 41.3495 62.1555 41.4101 62.0318C41.4732 61.9069 41.5413 61.7908 41.612 61.6836L42.4548 62.1833C42.3703 62.2943 42.2933 62.4129 42.2227 62.5416C42.1646 62.6425 42.1116 62.7599 42.0612 62.8949C42.0132 63.0324 41.9855 63.1725 41.9754 63.3138C41.9678 63.4248 41.9766 63.5018 42.0006 63.546C42.0271 63.5927 42.0624 63.6179 42.1066 63.6217C42.1571 63.6242 42.2025 63.6065 42.2429 63.5662C42.2832 63.5258 42.3186 63.4677 42.3488 63.3946C42.3816 63.3201 42.4157 63.2356 42.4498 63.1422C42.4826 63.0476 42.5217 62.9466 42.5659 62.8394C42.6365 62.688 42.7072 62.5542 42.7778 62.4407C42.8485 62.3296 42.9255 62.2388 43.01 62.1681C43.0971 62.1 43.193 62.052 43.2977 62.0217C43.4049 61.994 43.5261 61.9864 43.6611 61.9965C43.863 62.0091 44.0358 62.0583 44.1809 62.1429C44.3286 62.2262 44.4484 62.3359 44.5393 62.4709C44.6326 62.6047 44.7008 62.7548 44.7411 62.9201C44.7815 63.0842 44.7941 63.2583 44.7815 63.44C44.7714 63.5737 44.7487 63.7037 44.7159 63.8286C44.6818 63.9523 44.6415 64.0721 44.5948 64.187C44.5468 64.3005 44.4951 64.4065 44.4383 64.5049C44.3841 64.6059 44.3349 64.6929 44.292 64.7674L43.5046 64.2828Z" fill="black"/>
<path d="M44.024 68.5501L43.9382 67.5104L41.1774 67.7325L41.0967 66.7281L43.8574 66.506L43.7767 65.4613L44.6448 65.3906L44.8921 68.4794L44.024 68.5501Z" fill="black"/>
<path d="M42.6841 71.361C42.7143 71.4721 42.7623 71.5591 42.8304 71.6235C42.9011 71.6904 42.9831 71.7396 43.0777 71.7699C43.1711 71.8001 43.2746 71.8128 43.3856 71.8102C43.4992 71.8064 43.614 71.7913 43.7288 71.7648L45.5407 71.3106L45.783 72.2796L43.9711 72.7338C43.725 72.7944 43.4866 72.8196 43.2544 72.8096C43.0247 72.7995 42.8166 72.7465 42.6285 72.6531C42.4393 72.5622 42.2753 72.426 42.1339 72.2443C41.9951 72.0651 41.8917 71.8418 41.821 71.573C41.7504 71.2904 41.7365 71.0355 41.7806 70.8109C41.8273 70.5888 41.9131 70.392 42.038 70.2204C42.1655 70.0513 42.327 69.91 42.5226 69.7964C42.7169 69.6854 42.9326 69.6021 43.1686 69.5441L44.9805 69.0898L45.2278 70.0639L43.4159 70.5182C43.3011 70.5447 43.1913 70.5813 43.0878 70.6292C42.9869 70.6797 42.9011 70.7402 42.8304 70.8109C42.7598 70.8841 42.7106 70.9648 42.6841 71.0532C42.6563 71.144 42.6563 71.2462 42.6841 71.361Z" fill="black"/>
<path d="M42.7461 74.5698L46.0671 73.0859L46.6374 74.3578C46.761 74.6367 46.8266 74.8991 46.8342 75.1452C46.8405 75.3937 46.8001 75.6208 46.7131 75.8265C46.6285 76.0347 46.5011 76.2202 46.3295 76.3817C46.1604 76.5432 45.9623 76.6744 45.734 76.7754C45.4816 76.8889 45.2343 76.952 44.992 76.9621C44.7523 76.9722 44.5277 76.9369 44.3157 76.8561C44.1063 76.7779 43.917 76.6542 43.7454 76.4826C43.5738 76.311 43.43 76.0965 43.3164 75.8417L42.7461 74.5698ZM45.3201 75.8467C45.4475 75.7887 45.5573 75.7205 45.6482 75.6398C45.739 75.559 45.8071 75.4694 45.8551 75.3723C45.9018 75.2739 45.9257 75.1679 45.9257 75.0543C45.9257 74.9433 45.898 74.8284 45.845 74.7111L45.6835 74.3477L43.9523 75.1199L44.1138 75.4833C44.1668 75.6044 44.2362 75.7016 44.3208 75.776C44.4041 75.853 44.4999 75.9047 44.6085 75.9325C44.7157 75.9628 44.8305 75.9691 44.9517 75.9527C45.0728 75.9388 45.1952 75.9035 45.3201 75.8467Z" fill="black"/>
<path d="M46.9031 80.3691L46.1713 80.8486L44.748 78.6783L47.7914 76.6797L49.1895 78.8096L48.4627 79.289L47.6148 77.9919L47.1858 78.2746L47.9075 79.3799L47.2312 79.824L46.5095 78.7187L46.03 79.0316L46.9031 80.3691Z" fill="black"/>
<path d="M48.9955 81.4601L47.6783 82.6764L47.002 81.9446L49.6769 79.4766L50.2018 80.0469L49.8384 82.3736L51.1961 81.1219L51.8724 81.8588L49.1974 84.3268L48.6624 83.7414L48.9955 81.4601Z" fill="black"/>
<path d="M54.2808 84.8888L53.4581 84.2478L51.7623 86.4383L50.9648 85.8276L52.6607 83.6371L51.8329 82.9911L52.3679 82.3047L54.8158 84.2024L54.2808 84.8888Z" fill="black"/>
<path d="M56.7589 86.6752C56.6983 86.5718 56.6302 86.4733 56.557 86.3825C56.4965 86.3017 56.4233 86.2185 56.34 86.1301C56.2592 86.0393 56.1709 85.9674 56.0776 85.9131C55.9993 85.8702 55.9312 85.8475 55.8706 85.8475C55.8126 85.8475 55.7672 85.8765 55.7344 85.9333C55.7142 85.9737 55.7091 86.0166 55.7192 86.0595C55.7293 86.0998 55.752 86.1478 55.7899 86.2008C55.8302 86.2513 55.8807 86.3068 55.9413 86.3673C56.0044 86.4279 56.075 86.4986 56.1533 86.5793C56.2706 86.708 56.3728 86.8304 56.4611 86.9478C56.5482 87.0664 56.6138 87.185 56.658 87.3061C56.7009 87.4272 56.716 87.5522 56.7034 87.6796C56.6895 87.8108 56.6403 87.9521 56.557 88.1035C56.4485 88.2916 56.3249 88.4316 56.1835 88.5225C56.0447 88.6133 55.8959 88.665 55.7344 88.6789C55.5754 88.6953 55.4164 88.6802 55.2549 88.6335C55.0934 88.5855 54.9382 88.5225 54.7906 88.4417C54.6757 88.3774 54.5596 88.3016 54.4423 88.2146C54.3275 88.1263 54.2202 88.0329 54.1193 87.9319C54.0184 87.8335 53.9237 87.7313 53.8367 87.6241C53.7483 87.5168 53.6714 87.407 53.6045 87.296L54.4171 86.7408C54.4802 86.8657 54.5546 86.9856 54.6391 87.0992C54.7098 87.1976 54.7969 87.2985 54.9016 87.402C55.0051 87.5029 55.1199 87.5875 55.2448 87.6544C55.3382 87.7073 55.4113 87.7326 55.4618 87.7301C55.5123 87.7263 55.5489 87.7023 55.5728 87.6594C55.5956 87.6152 55.5981 87.5686 55.5779 87.5181C55.5602 87.4651 55.5249 87.407 55.4719 87.3465C55.4176 87.2859 55.3533 87.2203 55.2801 87.1496C55.2095 87.079 55.135 87.002 55.058 86.9175C54.947 86.7863 54.8562 86.6676 54.7855 86.5591C54.7148 86.4481 54.6656 86.3396 54.6391 86.2311C54.6114 86.1238 54.6063 86.0178 54.624 85.9131C54.6442 85.8059 54.6858 85.6936 54.7502 85.5749C54.8473 85.397 54.9647 85.2595 55.1035 85.1611C55.241 85.0639 55.3912 85.0021 55.5527 84.9743C55.7142 84.9441 55.8769 84.9466 56.0422 84.9794C56.21 85.0097 56.3753 85.069 56.5368 85.156C56.6542 85.2242 56.7614 85.2999 56.8598 85.3832C56.957 85.4639 57.0466 85.5522 57.1273 85.6456C57.2106 85.7365 57.2863 85.8273 57.3545 85.9182C57.4251 86.009 57.4857 86.0923 57.5362 86.1655L56.7589 86.6752Z" fill="black"/>
<path d="M77.1948 85.9078C77.0674 85.7261 76.9752 85.5267 76.9172 85.3072C76.8566 85.0851 76.8402 84.8618 76.8667 84.6359C76.8945 84.4076 76.9664 84.1867 77.0838 83.9748C77.1986 83.7628 77.3689 83.5786 77.5935 83.4196C77.8597 83.2354 78.1335 83.1306 78.4162 83.1067C78.6988 83.084 78.9562 83.1369 79.1884 83.2682L78.8755 84.1514C78.7972 84.0946 78.7215 84.058 78.6483 84.0404C78.5777 84.0202 78.5083 84.0139 78.4414 84.0202C78.3733 84.024 78.3077 84.0391 78.2446 84.0656C78.184 84.0934 78.1323 84.1211 78.0881 84.1514C77.9847 84.2259 77.9115 84.3117 77.8711 84.4088C77.8307 84.5072 77.8131 84.6107 77.8156 84.7217C77.8194 84.8302 77.8433 84.9388 77.8862 85.0498C77.9304 85.1583 77.9847 85.2567 78.0477 85.3476C78.1222 85.4523 78.2055 85.5432 78.3001 85.6201C78.3935 85.6946 78.4919 85.7513 78.5928 85.7917C78.6938 85.8296 78.796 85.8422 78.9007 85.8321C79.0042 85.8195 79.1051 85.7791 79.2035 85.711C79.2464 85.6807 79.2906 85.6428 79.3347 85.5949C79.3776 85.5444 79.4117 85.4889 79.4357 85.4283C79.4622 85.3678 79.4773 85.3009 79.4811 85.2264C79.4836 85.1533 79.4735 85.0738 79.4508 84.9892L80.3997 84.9236C80.4325 85.0586 80.4375 85.1999 80.4148 85.3476C80.3908 85.4965 80.3454 85.639 80.2785 85.7766C80.2104 85.9116 80.1246 86.0378 80.0211 86.1551C79.9202 86.2699 79.8104 86.3696 79.6931 86.4529C79.4874 86.598 79.2666 86.6876 79.0319 86.7204C78.7998 86.7545 78.5689 86.7431 78.3405 86.6851C78.1121 86.6283 77.8989 86.5324 77.6995 86.3974C77.4976 86.2598 77.3298 86.0971 77.1948 85.9078Z" fill="black"/>
<path d="M81.8219 84.7601L79.2983 82.1407L80.015 81.4492L81.9329 83.4378L83.124 82.2921L83.7297 82.923L81.8219 84.7601Z" fill="black"/>
<path d="M84.3444 82.2626L82.27 78.982L82.7596 78.3359L86.4742 79.4564L85.8383 80.2993L85.1368 80.0469L84.5513 80.8191L84.9853 81.4197L84.3444 82.2626ZM83.34 79.2898L84.1122 80.2993L84.5109 79.7693L83.34 79.2898Z" fill="black"/>
<path d="M85.9551 75.357C85.8517 75.4176 85.752 75.4857 85.6573 75.5589C85.5804 75.6232 85.4984 75.6977 85.41 75.781C85.3192 75.8617 85.2485 75.95 85.1981 76.0434C85.1577 76.1242 85.1375 76.1948 85.1375 76.2554C85.1375 76.316 85.1665 76.3614 85.2233 76.3917C85.2637 76.4156 85.3066 76.4219 85.3495 76.4118C85.3898 76.3992 85.4353 76.3715 85.4857 76.3311C85.5362 76.2907 85.5943 76.2402 85.6573 76.1797C85.7179 76.1166 85.7873 76.0434 85.8643 75.9627C85.9892 75.8415 86.1103 75.7381 86.2277 75.6497C86.3463 75.5589 86.4649 75.492 86.586 75.4479C86.7071 75.405 86.832 75.3873 86.9595 75.3974C87.0869 75.4075 87.227 75.4529 87.3784 75.5337C87.5702 75.6384 87.7115 75.7608 87.8023 75.9021C87.8957 76.0409 87.9512 76.1885 87.9689 76.3462C87.9853 76.5052 87.9714 76.6667 87.9285 76.8308C87.8844 76.996 87.8225 77.1525 87.7418 77.3001C87.6812 77.415 87.6068 77.531 87.5197 77.6484C87.4352 77.7632 87.3443 77.873 87.2472 77.9764C87.1525 78.0774 87.0516 78.1733 86.9443 78.2641C86.8409 78.3525 86.7324 78.4307 86.6213 78.5013L86.051 77.6989C86.1721 77.632 86.292 77.5525 86.4094 77.4616C86.504 77.391 86.6011 77.3052 86.7021 77.2042C86.803 77.1008 86.8876 76.986 86.9544 76.861C87.0049 76.7639 87.0264 76.6894 87.02 76.639C87.0163 76.5885 86.9948 76.5519 86.9544 76.5279C86.9115 76.5052 86.8623 76.5027 86.8081 76.5229C86.7551 76.5431 86.6996 76.5809 86.6415 76.6339C86.581 76.6882 86.5179 76.7525 86.4497 76.8257C86.3791 76.9002 86.3021 76.9746 86.2176 77.0478C86.0901 77.1626 85.9728 77.2572 85.8643 77.3304C85.7532 77.4049 85.6447 77.4566 85.5362 77.4869C85.429 77.5146 85.323 77.5197 85.2182 77.502C85.111 77.4818 84.9962 77.4415 84.875 77.3809C84.6971 77.2837 84.5596 77.1676 84.4612 77.0326C84.3602 76.8951 84.2946 76.745 84.2644 76.5834C84.2315 76.4219 84.2315 76.2592 84.2644 76.0939C84.2946 75.9298 84.3527 75.7658 84.436 75.6043C84.5003 75.487 84.5722 75.3797 84.653 75.2813C84.7337 75.1804 84.8221 75.0882 84.9154 75.0037C85.0063 74.9166 85.0959 74.8397 85.1829 74.7715C85.2712 74.7009 85.3533 74.6403 85.4302 74.5898L85.9551 75.357Z" fill="black"/>
<path d="M87.299 71.9431C87.2081 72.0213 87.1223 72.1021 87.0416 72.1853C86.9709 72.2598 86.9003 72.3456 86.8296 72.4427C86.7564 72.5374 86.7022 72.6371 86.6681 72.7405C86.6378 72.8251 86.6277 72.897 86.6378 72.9575C86.6454 73.0156 86.6769 73.0534 86.7337 73.0736C86.7816 73.0913 86.8245 73.0913 86.8649 73.0736C86.9028 73.0534 86.9444 73.0206 86.9911 72.9727C87.0353 72.926 87.0819 72.8667 87.1324 72.796C87.1829 72.7254 87.2409 72.6471 87.304 72.5588C87.4125 72.4175 87.516 72.2939 87.6169 72.1853C87.7179 72.0781 87.8264 71.9935 87.9399 71.933C88.051 71.8724 88.1709 71.8396 88.2983 71.832C88.427 71.8219 88.5734 71.8459 88.7374 71.9027C88.9418 71.9734 89.102 72.073 89.2169 72.2005C89.3304 72.3254 89.4061 72.4655 89.444 72.6194C89.4843 72.7708 89.4944 72.9323 89.4743 73.1039C89.4566 73.273 89.42 73.4358 89.3632 73.5935C89.3191 73.7146 89.2635 73.8395 89.1967 73.967C89.1323 74.0957 89.0604 74.2181 88.9796 74.3354C88.8989 74.454 88.8131 74.565 88.7222 74.6685C88.6289 74.7695 88.533 74.8628 88.4346 74.9461L87.7532 74.2446C87.8642 74.1575 87.9702 74.0616 88.0712 73.9569C88.1519 73.8736 88.2365 73.7727 88.3235 73.654C88.4081 73.5329 88.4737 73.4067 88.5204 73.2755C88.5582 73.172 88.5696 73.0963 88.5557 73.0484C88.5431 72.9979 88.5128 72.9651 88.4648 72.9475C88.4182 72.931 88.3715 72.9374 88.3235 72.9676C88.2768 72.9954 88.2276 73.0383 88.1772 73.0989C88.1267 73.1594 88.0737 73.2326 88.0157 73.3159C87.9551 73.4004 87.8895 73.4862 87.8188 73.5733C87.7116 73.7083 87.6094 73.8193 87.5109 73.9064C87.4138 73.9947 87.3141 74.0616 87.2132 74.1083C87.1122 74.1524 87.0088 74.1739 86.9003 74.1739C86.7892 74.1739 86.6719 74.1524 86.547 74.1083C86.3552 74.0414 86.1987 73.9468 86.0776 73.8256C85.9565 73.7045 85.8707 73.567 85.8202 73.4118C85.7672 73.2578 85.7432 73.0963 85.7495 72.9273C85.7533 72.7594 85.7849 72.5891 85.8454 72.4175C85.8896 72.2901 85.9451 72.1727 86.012 72.0642C86.0763 71.9532 86.1457 71.8497 86.2189 71.7513C86.2933 71.6503 86.3703 71.5595 86.4511 71.4787C86.5318 71.398 86.605 71.3261 86.6681 71.2617L87.299 71.9431Z" fill="black"/>
<path d="M89.7474 68.2752L90.6054 68.4418L90.1158 70.9905L86.5425 70.3041L87.022 67.8008L87.8749 67.9623L87.5822 69.4865L88.0869 69.5875L88.3342 68.2853L89.1266 68.4367L88.8793 69.7389L89.4445 69.8449L89.7474 68.2752Z" fill="black"/>
<path d="M88.384 64.8053C88.3209 64.9062 88.2616 65.0097 88.2074 65.1132C88.1645 65.2078 88.1216 65.3125 88.0812 65.4261C88.0408 65.5371 88.0181 65.6469 88.0105 65.7542C88.008 65.845 88.0194 65.9182 88.0459 65.9712C88.0736 66.0254 88.1191 66.0519 88.1821 66.0519C88.2301 66.0557 88.2705 66.0444 88.3033 66.0166C88.3336 65.9863 88.3638 65.9434 88.3941 65.8854C88.4219 65.8248 88.4484 65.7542 88.4749 65.6734C88.5026 65.5901 88.5342 65.4955 88.5708 65.3908C88.6288 65.2267 88.6906 65.0778 88.7575 64.9466C88.8256 64.8129 88.9039 64.6993 88.9947 64.6085C89.083 64.5151 89.1865 64.4457 89.3076 64.4015C89.4288 64.3548 89.5751 64.3347 89.7467 64.341C89.9663 64.3511 90.148 64.399 90.2918 64.4823C90.4369 64.5668 90.5517 64.6779 90.635 64.8154C90.7196 64.9504 90.7763 65.1018 90.8066 65.2696C90.8394 65.4349 90.8533 65.6015 90.847 65.7693C90.8394 65.9005 90.823 66.0368 90.7965 66.1781C90.7726 66.3194 90.741 66.4595 90.7006 66.597C90.6577 66.732 90.6073 66.8633 90.5492 66.9907C90.4924 67.1156 90.4306 67.2317 90.3625 67.3389L89.4994 66.8696C89.5777 66.756 89.6496 66.6349 89.7165 66.5062C89.7707 66.3989 89.8212 66.2765 89.8679 66.1377C89.912 66.0002 89.9373 65.8601 89.9436 65.7188C89.9474 65.6078 89.936 65.5321 89.9082 65.4917C89.8817 65.4488 89.8452 65.4248 89.7972 65.421C89.7467 65.4185 89.7038 65.4387 89.666 65.4816C89.6256 65.522 89.5928 65.58 89.565 65.6532C89.5348 65.7277 89.5045 65.8135 89.4742 65.9106C89.4414 66.0053 89.4035 66.1062 89.3632 66.2134C89.3001 66.3724 89.2345 66.5087 89.1663 66.6223C89.0995 66.7371 89.025 66.8317 88.9443 66.9049C88.861 66.9756 88.7663 67.026 88.6616 67.0563C88.5582 67.0866 88.4383 67.1005 88.3033 67.0967C88.1014 67.0866 87.9273 67.0437 87.7784 66.9655C87.6308 66.8885 87.5084 66.7838 87.4099 66.6525C87.3128 66.5188 87.2409 66.3699 87.1929 66.2084C87.1462 66.0444 87.1273 65.8702 87.1374 65.6885C87.1412 65.5548 87.1576 65.4248 87.1879 65.2999C87.2182 65.1763 87.256 65.0564 87.2989 64.9416C87.3431 64.8242 87.3898 64.7145 87.4402 64.6135C87.4907 64.5126 87.5386 64.4217 87.5815 64.341L88.384 64.8053Z" fill="black"/>
<mask id="mask10_252_3361" style="mask-type:luminance" maskUnits="userSpaceOnUse" x="46" y="47" width="40" height="39">
<path d="M46.751 47.0664H85.3686V85.6843H46.751V47.0664Z" fill="white"/>
</mask>
<g mask="url(#mask10_252_3361)">
<mask id="mask11_252_3361" style="mask-type:luminance" maskUnits="userSpaceOnUse" x="46" y="47" width="40" height="39">
<path d="M66.0583 47.0664C55.3951 47.0664 46.7495 55.7121 46.7495 66.3753C46.7495 77.0386 55.3951 85.6843 66.0583 85.6843C76.7215 85.6843 85.3671 77.0386 85.3671 66.3753C85.3671 55.7121 76.7215 47.0664 66.0583 47.0664Z" fill="white"/>
</mask>
<g mask="url(#mask11_252_3361)">
<path d="M46.7495 47.0664V85.6843H85.3671V47.0664H46.7495Z" fill="url(#paint2_linear_252_3361)"/>
</g>
</g>
<mask id="mask12_252_3361" style="mask-type:luminance" maskUnits="userSpaceOnUse" x="46" y="47" width="40" height="39">
<path d="M46.751 47.0664H85.2904V85.6061H46.751V47.0664Z" fill="white"/>
</mask>
<g mask="url(#mask12_252_3361)">
<mask id="mask13_252_3361" style="mask-type:luminance" maskUnits="userSpaceOnUse" x="46" y="47" width="40" height="39">
<path d="M66.0583 47.0664C55.3939 47.0664 46.7495 55.7108 46.7495 66.3753C46.7495 77.0386 55.3939 85.683 66.0583 85.683C76.7215 85.683 85.3659 77.0386 85.3659 66.3753C85.3659 55.7108 76.7215 47.0664 66.0583 47.0664Z" fill="white"/>
</mask>
<g mask="url(#mask13_252_3361)">
<path d="M66.0583 47.0664C55.3939 47.0664 46.7495 55.7108 46.7495 66.3753C46.7495 77.0386 55.3939 85.683 66.0583 85.683C76.7215 85.683 85.3659 77.0386 85.3659 66.3753C85.3659 55.7108 76.7215 47.0664 66.0583 47.0664Z" stroke="black" stroke-width="1.30654"/>
</g>
</g>
<path d="M21.1929 66.375L37.5126 66.375" stroke="black" stroke-width="0.604208"/>
<path d="M94.6099 66.375L110.93 66.375" stroke="black" stroke-width="0.604208"/>
<mask id="mask14_252_3361" style="mask-type:luminance" maskUnits="userSpaceOnUse" x="55" y="57" width="23" height="19">
<path d="M55.1494 57.7266H77.1079V75.2047H55.1494V57.7266Z" fill="white"/>
</mask>
<g mask="url(#mask14_252_3361)">
<path d="M56.1626 59.6055L64.2707 67.749V70.1476L57.8521 63.7012V69.4549C57.8521 70.0189 58.3076 70.4731 58.8653 70.4731V71.152H55.1494V70.4731C55.7096 70.4731 56.1626 70.0189 56.1626 69.4549V59.6055ZM76.0947 69.4574V59.6055L66.9747 68.766V60.4445H70.8584C71.4186 60.4445 71.8716 60.9 71.8716 61.4628H72.5479V57.7305H71.8716C71.8716 58.292 71.4186 58.7475 70.8584 58.7475H61.3989C60.84 58.7475 60.3857 58.292 60.3857 57.7305H59.7107V61.4628H60.3857C60.3857 60.9 60.84 60.4445 61.3989 60.4445H65.2839V73.5077C65.2839 74.0705 64.8309 74.526 64.2707 74.526V75.2048H67.9866V74.526C67.4277 74.526 66.9734 74.0705 66.9734 73.5077V71.1646L74.4052 63.6999V69.4561C74.4052 70.0189 73.951 70.4744 73.3908 70.4744V71.1532H77.1079V70.4744C76.549 70.4744 76.0947 70.0189 76.0947 69.4574Z" fill="black"/>
</g>
<mask id="mask15_252_3361" style="mask-type:luminance" maskUnits="userSpaceOnUse" x="86" y="55" width="3" height="3">
<path d="M86.1899 55.6953H88.4586V57.964H86.1899V55.6953Z" fill="white"/>
</mask>
<g mask="url(#mask15_252_3361)">
<mask id="mask16_252_3361" style="mask-type:luminance" maskUnits="userSpaceOnUse" x="86" y="55" width="3" height="3">
<path d="M87.3243 55.6953C86.6972 55.6953 86.1899 56.2038 86.1899 56.8296C86.1899 57.4568 86.6972 57.964 87.3243 57.964C87.9501 57.964 88.4586 57.4568 88.4586 56.8296C88.4586 56.2038 87.9501 55.6953 87.3243 55.6953Z" fill="white"/>
</mask>
<g mask="url(#mask16_252_3361)">
<path d="M86.1899 55.6953H88.4586V57.964H86.1899V55.6953Z" fill="black"/>
</g>
</g>
<mask id="mask17_252_3361" style="mask-type:luminance" maskUnits="userSpaceOnUse" x="64" y="88" width="4" height="3">
<path d="M64.9253 88.2109H67.1939V90.4796H64.9253V88.2109Z" fill="white"/>
</mask>
<g mask="url(#mask17_252_3361)">
<mask id="mask18_252_3361" style="mask-type:luminance" maskUnits="userSpaceOnUse" x="64" y="88" width="4" height="3">
<path d="M66.0596 88.2109C65.4338 88.2109 64.9253 88.7194 64.9253 89.3453C64.9253 89.9724 65.4338 90.4796 66.0596 90.4796C66.6855 90.4796 67.1939 89.9724 67.1939 89.3453C67.1939 88.7194 66.6855 88.2109 66.0596 88.2109Z" fill="white"/>
</mask>
<g mask="url(#mask18_252_3361)">
<path d="M64.9253 88.2109H67.1939V90.4796H64.9253V88.2109Z" fill="black"/>
</g>
</g>
<mask id="mask19_252_3361" style="mask-type:luminance" maskUnits="userSpaceOnUse" x="43" y="55" width="3" height="3">
<path d="M43.2798 55.6953H45.5484V57.964H43.2798V55.6953Z" fill="white"/>
</mask>
<g mask="url(#mask19_252_3361)">
<mask id="mask20_252_3361" style="mask-type:luminance" maskUnits="userSpaceOnUse" x="43" y="55" width="3" height="3">
<path d="M44.4146 55.6953C43.7875 55.6953 43.2803 56.2038 43.2803 56.8296C43.2803 57.4568 43.7875 57.964 44.4146 57.964C45.0404 57.964 45.5489 57.4568 45.5489 56.8296C45.5489 56.2038 45.0404 55.6953 44.4146 55.6953Z" fill="white"/>
</mask>
<g mask="url(#mask20_252_3361)">
<path d="M43.2803 55.6953H45.5489V57.964H43.2803V55.6953Z" fill="black"/>
</g>
</g>
<defs>
<linearGradient id="paint0_linear_252_3361" x1="66.0593" y1="21.5082" x2="66.0593" y2="111.245" gradientUnits="userSpaceOnUse">
<stop stop-color="white"/>
<stop offset="0.015625" stop-color="white"/>
<stop offset="0.03125" stop-color="#FEFEFE"/>
<stop offset="0.046875" stop-color="#FDFDFD"/>
<stop offset="0.0625" stop-color="#FCFCFC"/>
<stop offset="0.078125" stop-color="#FBFBFB"/>
<stop offset="0.09375" stop-color="#FBFBFB"/>
<stop offset="0.109375" stop-color="#FAFAFA"/>
<stop offset="0.125" stop-color="#F9F9F9"/>
<stop offset="0.140625" stop-color="#F8F8F8"/>
<stop offset="0.15625" stop-color="#F7F7F7"/>
<stop offset="0.171875" stop-color="#F6F6F6"/>
<stop offset="0.1875" stop-color="#F6F6F6"/>
<stop offset="0.203125" stop-color="#F5F5F5"/>
<stop offset="0.21875" stop-color="#F4F4F4"/>
<stop offset="0.234375" stop-color="#F3F3F3"/>
<stop offset="0.25" stop-color="#F2F2F2"/>
<stop offset="0.265625" stop-color="#F2F2F2"/>
<stop offset="0.28125" stop-color="#F1F1F1"/>
<stop offset="0.296875" stop-color="#F0F0F0"/>
<stop offset="0.3125" stop-color="#EFEFEF"/>
<stop offset="0.328125" stop-color="#EEEEEE"/>
<stop offset="0.34375" stop-color="#EEEEEE"/>
<stop offset="0.359375" stop-color="#EDEDED"/>
<stop offset="0.375" stop-color="#ECECEC"/>
<stop offset="0.390625" stop-color="#EBEBEB"/>
<stop offset="0.40625" stop-color="#EAEAEA"/>
<stop offset="0.421875" stop-color="#E9E9E9"/>
<stop offset="0.4375" stop-color="#E9E9E9"/>
<stop offset="0.453125" stop-color="#E8E8E8"/>
<stop offset="0.46875" stop-color="#E7E7E7"/>
<stop offset="0.484375" stop-color="#E6E6E6"/>
<stop offset="0.5" stop-color="#E5E5E5"/>
<stop offset="0.515625" stop-color="#E5E5E5"/>
<stop offset="0.53125" stop-color="#E4E4E4"/>
<stop offset="0.546875" stop-color="#E3E3E3"/>
<stop offset="0.5625" stop-color="#E2E2E2"/>
<stop offset="0.578125" stop-color="#E1E1E1"/>
<stop offset="0.59375" stop-color="#E1E1E1"/>
<stop offset="0.609375" stop-color="#E0E0E0"/>
<stop offset="0.625" stop-color="#DFDFDF"/>
<stop offset="0.640625" stop-color="#DEDEDE"/>
<stop offset="0.65625" stop-color="#DDDDDD"/>
<stop offset="0.671875" stop-color="#DCDCDC"/>
<stop offset="0.6875" stop-color="#DCDCDC"/>
<stop offset="0.703125" stop-color="#DBDBDB"/>
<stop offset="0.71875" stop-color="#DADADA"/>
<stop offset="0.734375" stop-color="#D9D9D9"/>
<stop offset="0.75" stop-color="#D8D8D8"/>
<stop offset="0.765625" stop-color="#D8D8D8"/>
<stop offset="0.78125" stop-color="#D7D7D7"/>
<stop offset="0.796875" stop-color="#D6D6D6"/>
<stop offset="0.8125" stop-color="#D5D5D5"/>
<stop offset="0.828125" stop-color="#D4D4D4"/>
<stop offset="0.84375" stop-color="#D4D4D4"/>
<stop offset="0.859375" stop-color="#D3D3D3"/>
<stop offset="0.875" stop-color="#D2D2D2"/>
<stop offset="0.890625" stop-color="#D1D1D1"/>
<stop offset="0.90625" stop-color="#D0D0D0"/>
<stop offset="0.921875" stop-color="#CFCFCF"/>
<stop offset="0.9375" stop-color="#CFCFCF"/>
<stop offset="0.953125" stop-color="#CECECE"/>
<stop offset="0.96875" stop-color="#CDCDCD"/>
<stop offset="0.984375" stop-color="#CCCCCC"/>
<stop offset="1" stop-color="#CBCBCB"/>
</linearGradient>
<linearGradient id="paint1_linear_252_3361" x1="66.0638" y1="37.8275" x2="66.0638" y2="94.9265" gradientUnits="userSpaceOnUse">
<stop stop-color="white"/>
<stop offset="0.015625" stop-color="white"/>
<stop offset="0.03125" stop-color="#FEFEFE"/>
<stop offset="0.046875" stop-color="#FDFDFD"/>
<stop offset="0.0625" stop-color="#FCFCFC"/>
<stop offset="0.078125" stop-color="#FBFBFB"/>
<stop offset="0.09375" stop-color="#FBFBFB"/>
<stop offset="0.109375" stop-color="#FAFAFA"/>
<stop offset="0.125" stop-color="#F9F9F9"/>
<stop offset="0.140625" stop-color="#F8F8F8"/>
<stop offset="0.15625" stop-color="#F7F7F7"/>
<stop offset="0.171875" stop-color="#F6F6F6"/>
<stop offset="0.1875" stop-color="#F6F6F6"/>
<stop offset="0.203125" stop-color="#F5F5F5"/>
<stop offset="0.21875" stop-color="#F4F4F4"/>
<stop offset="0.234375" stop-color="#F3F3F3"/>
<stop offset="0.25" stop-color="#F2F2F2"/>
<stop offset="0.265625" stop-color="#F2F2F2"/>
<stop offset="0.28125" stop-color="#F1F1F1"/>
<stop offset="0.296875" stop-color="#F0F0F0"/>
<stop offset="0.3125" stop-color="#EFEFEF"/>
<stop offset="0.328125" stop-color="#EEEEEE"/>
<stop offset="0.34375" stop-color="#EEEEEE"/>
<stop offset="0.359375" stop-color="#EDEDED"/>
<stop offset="0.375" stop-color="#ECECEC"/>
<stop offset="0.390625" stop-color="#EBEBEB"/>
<stop offset="0.40625" stop-color="#EAEAEA"/>
<stop offset="0.421875" stop-color="#E9E9E9"/>
<stop offset="0.4375" stop-color="#E9E9E9"/>
<stop offset="0.453125" stop-color="#E8E8E8"/>
<stop offset="0.46875" stop-color="#E7E7E7"/>
<stop offset="0.484375" stop-color="#E6E6E6"/>
<stop offset="0.5" stop-color="#E5E5E5"/>
<stop offset="0.515625" stop-color="#E5E5E5"/>
<stop offset="0.53125" stop-color="#E4E4E4"/>
<stop offset="0.546875" stop-color="#E3E3E3"/>
<stop offset="0.5625" stop-color="#E2E2E2"/>
<stop offset="0.578125" stop-color="#E1E1E1"/>
<stop offset="0.59375" stop-color="#E1E1E1"/>
<stop offset="0.609375" stop-color="#E0E0E0"/>
<stop offset="0.625" stop-color="#DFDFDF"/>
<stop offset="0.640625" stop-color="#DEDEDE"/>
<stop offset="0.65625" stop-color="#DDDDDD"/>
<stop offset="0.671875" stop-color="#DCDCDC"/>
<stop offset="0.6875" stop-color="#DCDCDC"/>
<stop offset="0.703125" stop-color="#DBDBDB"/>
<stop offset="0.71875" stop-color="#DADADA"/>
<stop offset="0.734375" stop-color="#D9D9D9"/>
<stop offset="0.75" stop-color="#D8D8D8"/>
<stop offset="0.765625" stop-color="#D8D8D8"/>
<stop offset="0.78125" stop-color="#D7D7D7"/>
<stop offset="0.796875" stop-color="#D6D6D6"/>
<stop offset="0.8125" stop-color="#D5D5D5"/>
<stop offset="0.828125" stop-color="#D4D4D4"/>
<stop offset="0.84375" stop-color="#D4D4D4"/>
<stop offset="0.859375" stop-color="#D3D3D3"/>
<stop offset="0.875" stop-color="#D2D2D2"/>
<stop offset="0.890625" stop-color="#D1D1D1"/>
<stop offset="0.90625" stop-color="#D0D0D0"/>
<stop offset="0.921875" stop-color="#CFCFCF"/>
<stop offset="0.9375" stop-color="#CFCFCF"/>
<stop offset="0.953125" stop-color="#CECECE"/>
<stop offset="0.96875" stop-color="#CDCDCD"/>
<stop offset="0.984375" stop-color="#CCCCCC"/>
<stop offset="1" stop-color="#CBCBCB"/>
</linearGradient>
<linearGradient id="paint2_linear_252_3361" x1="66.0583" y1="47.0667" x2="66.0583" y2="85.684" gradientUnits="userSpaceOnUse">
<stop stop-color="white"/>
<stop offset="0.015625" stop-color="white"/>
<stop offset="0.03125" stop-color="#FEFEFE"/>
<stop offset="0.046875" stop-color="#FDFDFD"/>
<stop offset="0.0625" stop-color="#FCFCFC"/>
<stop offset="0.078125" stop-color="#FBFBFB"/>
<stop offset="0.09375" stop-color="#FBFBFB"/>
<stop offset="0.109375" stop-color="#FAFAFA"/>
<stop offset="0.125" stop-color="#F9F9F9"/>
<stop offset="0.140625" stop-color="#F8F8F8"/>
<stop offset="0.15625" stop-color="#F7F7F7"/>
<stop offset="0.171875" stop-color="#F6F6F6"/>
<stop offset="0.1875" stop-color="#F6F6F6"/>
<stop offset="0.203125" stop-color="#F5F5F5"/>
<stop offset="0.21875" stop-color="#F4F4F4"/>
<stop offset="0.234375" stop-color="#F3F3F3"/>
<stop offset="0.25" stop-color="#F2F2F2"/>
<stop offset="0.265625" stop-color="#F2F2F2"/>
<stop offset="0.28125" stop-color="#F1F1F1"/>
<stop offset="0.296875" stop-color="#F0F0F0"/>
<stop offset="0.3125" stop-color="#EFEFEF"/>
<stop offset="0.328125" stop-color="#EEEEEE"/>
<stop offset="0.34375" stop-color="#EEEEEE"/>
<stop offset="0.359375" stop-color="#EDEDED"/>
<stop offset="0.375" stop-color="#ECECEC"/>
<stop offset="0.390625" stop-color="#EBEBEB"/>
<stop offset="0.40625" stop-color="#EAEAEA"/>
<stop offset="0.421875" stop-color="#E9E9E9"/>
<stop offset="0.4375" stop-color="#E9E9E9"/>
<stop offset="0.453125" stop-color="#E8E8E8"/>
<stop offset="0.46875" stop-color="#E7E7E7"/>
<stop offset="0.484375" stop-color="#E6E6E6"/>
<stop offset="0.5" stop-color="#E5E5E5"/>
<stop offset="0.515625" stop-color="#E5E5E5"/>
<stop offset="0.53125" stop-color="#E4E4E4"/>
<stop offset="0.546875" stop-color="#E3E3E3"/>
<stop offset="0.5625" stop-color="#E2E2E2"/>
<stop offset="0.578125" stop-color="#E1E1E1"/>
<stop offset="0.59375" stop-color="#E1E1E1"/>
<stop offset="0.609375" stop-color="#E0E0E0"/>
<stop offset="0.625" stop-color="#DFDFDF"/>
<stop offset="0.640625" stop-color="#DEDEDE"/>
<stop offset="0.65625" stop-color="#DDDDDD"/>
<stop offset="0.671875" stop-color="#DCDCDC"/>
<stop offset="0.6875" stop-color="#DCDCDC"/>
<stop offset="0.703125" stop-color="#DBDBDB"/>
<stop offset="0.71875" stop-color="#DADADA"/>
<stop offset="0.734375" stop-color="#D9D9D9"/>
<stop offset="0.75" stop-color="#D8D8D8"/>
<stop offset="0.765625" stop-color="#D8D8D8"/>
<stop offset="0.78125" stop-color="#D7D7D7"/>
<stop offset="0.796875" stop-color="#D6D6D6"/>
<stop offset="0.8125" stop-color="#D5D5D5"/>
<stop offset="0.828125" stop-color="#D4D4D4"/>
<stop offset="0.84375" stop-color="#D4D4D4"/>
<stop offset="0.859375" stop-color="#D3D3D3"/>
<stop offset="0.875" stop-color="#D2D2D2"/>
<stop offset="0.890625" stop-color="#D1D1D1"/>
<stop offset="0.90625" stop-color="#D0D0D0"/>
<stop offset="0.921875" stop-color="#CFCFCF"/>
<stop offset="0.9375" stop-color="#CFCFCF"/>
<stop offset="0.953125" stop-color="#CECECE"/>
<stop offset="0.96875" stop-color="#CDCDCD"/>
<stop offset="0.984375" stop-color="#CCCCCC"/>
<stop offset="1" stop-color="#CBCBCB"/>
</linearGradient>
</defs>
</svg>
