<svg width="40" height="40" viewBox="0 0 40 40" fill="none" xmlns="http://www.w3.org/2000/svg">
<path d="M40 20.0039C40 20.659 39.9677 21.3141 39.9032 21.9654C39.8405 22.6166 39.7437 23.2641 39.6164 23.9059C39.4892 24.5496 39.3297 25.1838 39.1398 25.8104C38.9481 26.437 38.7278 27.0541 38.4772 27.6579C38.2265 28.2637 37.9474 28.8542 37.6379 29.4333C37.3303 30.0106 36.9942 30.5726 36.6296 31.1157C36.2651 31.6606 35.8758 32.1866 35.46 32.6936C35.0441 33.1986 34.6055 33.6847 34.1422 34.148C33.6789 34.6094 33.1947 35.05 32.6877 35.4658C32.1808 35.8816 31.6567 36.2709 31.1117 36.6335C30.5668 36.9981 30.0066 37.3342 29.4275 37.6437C28.8503 37.9532 28.2598 38.2323 27.654 38.483C27.0483 38.7336 26.4331 38.9539 25.8065 39.1438C25.178 39.3336 24.5438 39.4931 23.902 39.6203C23.2602 39.7495 22.6127 39.8444 21.9596 39.909C21.3083 39.9735 20.6551 40.0058 20 40.0058C19.3449 40.0058 18.6917 39.9735 18.0385 39.909C17.3873 39.8444 16.7398 39.7495 16.098 39.6203C15.4562 39.4931 14.8201 39.3336 14.1935 39.1438C13.5669 38.9539 12.9517 38.7336 12.346 38.483C11.7402 38.2323 11.1497 37.9532 10.5725 37.6437C9.99335 37.3342 9.43321 36.9981 8.88826 36.6335C8.3433 36.2709 7.81734 35.8816 7.31226 35.4658C6.80528 35.05 6.32109 34.6094 5.85778 34.148C5.39447 33.6847 4.95395 33.1986 4.54002 32.6936C4.12418 32.1866 3.73303 31.6606 3.37036 31.1157C3.00579 30.5726 2.6697 30.0106 2.3602 29.4333C2.0526 28.8542 1.77158 28.2637 1.52093 27.6579C1.27029 27.0541 1.05003 26.437 0.860154 25.8104C0.670274 25.1838 0.510776 24.5496 0.383556 23.9059C0.256337 23.2641 0.159499 22.6166 0.0949397 21.9654C0.0322796 21.3141 0 20.659 0 20.0039C0 19.3488 0.0322796 18.6956 0.0949397 18.0444C0.159499 17.3931 0.256337 16.7456 0.383556 16.1019C0.510776 15.4601 0.670274 14.8259 0.860154 14.1993C1.05003 13.5727 1.27029 12.9556 1.52093 12.3499C1.77158 11.746 2.0526 11.1536 2.3602 10.5764C2.6697 9.99916 3.00579 9.43712 3.37036 8.89216C3.73303 8.34911 4.12418 7.82314 4.54002 7.31616C4.95395 6.80919 5.39447 6.32499 5.85778 5.86169C6.32109 5.39838 6.80528 4.95976 7.31226 4.54392C7.81734 4.12809 8.3433 3.73883 8.88826 3.37427C9.43321 3.0116 9.99335 2.67551 10.5725 2.36601C11.1497 2.0565 11.7402 1.77738 12.346 1.52674C12.9517 1.2761 13.5669 1.05584 14.1935 0.865959C14.8201 0.676079 15.4562 0.516581 16.098 0.389362C16.7398 0.260243 17.3873 0.165304 18.0385 0.100745C18.6917 0.036186 19.3449 0.00390625 20 0.00390625C20.6551 0.00390625 21.3083 0.036186 21.9596 0.100745C22.6127 0.165304 23.2602 0.260243 23.902 0.389362C24.5438 0.516581 25.178 0.676079 25.8065 0.865959C26.4331 1.05584 27.0483 1.2761 27.654 1.52674C28.2598 1.77738 28.8503 2.0565 29.4275 2.36601C30.0066 2.67551 30.5668 3.0116 31.1117 3.37427C31.6567 3.73883 32.1808 4.12809 32.6877 4.54392C33.1947 4.95976 33.6789 5.39838 34.1422 5.86169C34.6055 6.32499 35.0441 6.80919 35.46 7.31616C35.8758 7.82314 36.2651 8.34911 36.6296 8.89216C36.9942 9.43712 37.3303 9.99916 37.6379 10.5764C37.9474 11.1536 38.2265 11.746 38.4772 12.3499C38.7278 12.9556 38.9481 13.5727 39.1398 14.1993C39.3297 14.8259 39.4873 15.4601 39.6164 16.1019C39.7437 16.7456 39.8405 17.3931 39.9032 18.0444C39.9677 18.6956 40 19.3488 40 20.0039Z" fill="#555555"/>
<path d="M28.5307 15.478C28.5269 15.2005 28.5117 14.9249 28.4812 14.6492C28.4508 14.3735 28.407 14.0998 28.3479 13.8297C28.2908 13.5578 28.2203 13.2897 28.1365 13.0253C28.0527 12.7609 27.9556 12.5021 27.8452 12.2471C27.7366 11.9921 27.6147 11.7427 27.4795 11.4989C27.3443 11.257 27.1996 11.0207 27.0415 10.7901C26.8835 10.5613 26.714 10.34 26.535 10.1281C26.3541 9.91435 26.1655 9.70995 25.9656 9.51493C25.7656 9.32179 25.5561 9.13615 25.3371 8.96175C25.12 8.78736 24.8934 8.62234 24.6592 8.47045C24.4249 8.31669 24.1831 8.17605 23.9336 8.04666C23.686 7.91727 23.4309 7.79914 23.1719 7.69413C22.911 7.58912 22.6463 7.49536 22.3778 7.4166C22.1073 7.33597 21.835 7.26846 21.5589 7.21595C21.2828 7.16157 21.0047 7.12219 20.7248 7.09407C20.4448 7.06781 20.1649 7.05469 19.883 7.05469C19.6031 7.05469 19.3213 7.06781 19.0413 7.09407C18.7614 7.12219 18.4833 7.16157 18.2072 7.21595C17.9311 7.26846 17.6588 7.33597 17.3902 7.4166C17.1198 7.49536 16.8551 7.58912 16.5961 7.69413C16.3352 7.79914 16.0819 7.91727 15.8325 8.04666C15.5849 8.17605 15.3431 8.31669 15.1088 8.47045C14.8746 8.62234 14.648 8.78736 14.429 8.96175C14.21 9.13615 14.0024 9.32179 13.8024 9.51493C13.6025 9.70995 13.412 9.91435 13.233 10.1281C13.0521 10.34 12.8826 10.5613 12.7265 10.7901C12.5684 11.0207 12.4218 11.257 12.2866 11.4989C12.1533 11.7427 12.0314 11.9921 11.9209 12.2471C11.8105 12.5021 11.7153 12.7609 11.6296 13.0253C11.5458 13.2897 11.4753 13.5578 11.4182 13.8297C11.361 14.0998 11.3172 14.3735 11.2868 14.6492C11.2563 14.9249 11.2392 15.2005 11.2354 15.478C11.2335 17.0401 11.6391 18.4933 12.4522 19.8341L19.883 32.5685L27.3158 19.8341C28.1289 18.4933 28.5345 17.0401 28.5326 15.478H28.5307ZM19.883 11.482C20.1497 11.482 20.4125 11.5064 20.6753 11.5589C20.9362 11.6095 21.1894 11.6845 21.4351 11.7858C21.6827 11.8852 21.915 12.0089 22.1378 12.1552C22.3587 12.2996 22.5644 12.4665 22.7529 12.6521C22.9414 12.8378 23.109 13.0384 23.2576 13.2578C23.4042 13.4753 23.5299 13.706 23.6327 13.9479C23.7337 14.1898 23.8117 14.4411 23.8632 14.698C23.9146 14.9549 23.9412 15.2155 23.9412 15.478C23.9412 15.7387 23.9146 15.9993 23.8632 16.2562C23.8117 16.5131 23.7337 16.7644 23.6327 17.0063C23.5299 17.2482 23.4042 17.4789 23.2576 17.6964C23.109 17.9158 22.9414 18.1164 22.7529 18.3021C22.5644 18.4877 22.3587 18.6546 22.1378 18.799C21.915 18.9453 21.6827 19.069 21.4351 19.1684C21.1894 19.2697 20.9362 19.3447 20.6753 19.3953C20.4125 19.4478 20.1497 19.4722 19.883 19.4722C19.6164 19.4722 19.3517 19.4478 19.0908 19.3953C18.8299 19.3447 18.5767 19.2697 18.3291 19.1684C18.0834 19.069 17.8492 18.9453 17.6283 18.799C17.4074 18.6546 17.2017 18.4877 17.0132 18.3021C16.8246 18.1164 16.6571 17.9158 16.5085 17.6964C16.36 17.4789 16.2362 17.2482 16.1334 17.0063C16.0324 16.7644 15.9544 16.5131 15.9029 16.2562C15.8515 15.9993 15.8249 15.7387 15.8249 15.478C15.8249 15.2155 15.8515 14.9549 15.9029 14.698C15.9544 14.4411 16.0324 14.1898 16.1334 13.9479C16.2362 13.706 16.36 13.4753 16.5085 13.2578C16.6571 13.0384 16.8246 12.8378 17.0132 12.6521C17.2017 12.4665 17.4074 12.2996 17.6283 12.1552C17.8492 12.0089 18.0834 11.8852 18.3291 11.7858C18.5767 11.6845 18.8299 11.6095 19.0908 11.5589C19.3517 11.5064 19.6164 11.482 19.883 11.482Z" fill="white"/>
</svg>
