<svg width="119" height="119" viewBox="0 0 119 119" fill="none" xmlns="http://www.w3.org/2000/svg">
<circle cx="59.4502" cy="59.376" r="58.5" fill="#1A1A1A" stroke="white"/>
<mask id="mask0_60_2221" style="mask-type:luminance" maskUnits="userSpaceOnUse" x="37" y="35" width="45" height="46">
<path d="M37.5596 35.2666H81.4502V80.0426H37.5596V35.2666Z" fill="white"/>
</mask>
<g mask="url(#mask0_60_2221)">
<path d="M81.2783 57.1154C81.2783 57.8289 81.2418 58.5425 81.1741 59.256C81.1012 59.9696 80.997 60.6727 80.8564 61.3758C80.7158 62.0789 80.5439 62.7716 80.3356 63.4539C80.1272 64.1414 79.8877 64.8133 79.6116 65.4748C79.3408 66.1362 79.0335 66.7821 78.6949 67.4123C78.3616 68.0477 77.9918 68.6571 77.596 69.256C77.1949 69.8498 76.7731 70.4227 76.3147 70.9748C75.8616 71.5269 75.3825 72.0581 74.8772 72.5633C74.372 73.0737 73.8408 73.5529 73.2887 74.006C72.7366 74.4591 72.1585 74.8862 71.5647 75.2821C70.971 75.6779 70.3564 76.0477 69.7262 76.3862C69.096 76.7248 68.4502 77.0269 67.7887 77.3029C67.1272 77.5737 66.4554 77.8185 65.7679 78.0269C65.0856 78.23 64.3877 78.4071 63.6897 78.5477C62.9866 78.6831 62.2783 78.7925 61.5647 78.8602C60.8564 78.9279 60.1429 78.9644 59.4241 78.9644C58.7106 78.9644 57.997 78.9279 57.2835 78.8602C56.5699 78.7925 55.8616 78.6831 55.1637 78.5477C54.4606 78.4071 53.7679 78.23 53.0804 78.0269C52.3981 77.8185 51.721 77.5737 51.0647 77.3029C50.4033 77.0269 49.7574 76.7248 49.122 76.3862C48.4918 76.0477 47.8772 75.6779 47.2835 75.2821C46.6897 74.8862 46.1168 74.4591 45.5595 74.006C45.0074 73.5529 44.4814 73.0737 43.971 72.5633C43.4658 72.0581 42.9866 71.5269 42.5335 70.9748C42.0804 70.4227 41.6533 69.8498 41.2574 69.256C40.8564 68.6571 40.4918 68.0477 40.1533 67.4123C39.8147 66.7821 39.5074 66.1362 39.2366 65.4748C38.9606 64.8133 38.721 64.1414 38.5127 63.4539C38.3043 62.7716 38.1324 62.0789 37.9918 61.3758C37.8512 60.6727 37.747 59.9696 37.6793 59.256C37.6064 58.5425 37.5699 57.8289 37.5699 57.1154C37.5699 56.3966 37.6064 55.6831 37.6793 54.9696C37.747 54.2612 37.8512 53.5529 37.9918 52.8498C38.1324 52.1466 38.3043 51.4539 38.5127 50.7716C38.721 50.0841 38.9606 49.4123 39.2366 48.7508C39.5074 48.0894 39.8147 47.4435 40.1533 46.8133C40.4918 46.1831 40.8564 45.5685 41.2574 44.9748C41.6533 44.3758 42.0804 43.8029 42.5335 43.2508C42.9866 42.6987 43.4658 42.1675 43.971 41.6623C44.4814 41.1571 45.0074 40.6727 45.5595 40.2196C46.1168 39.7664 46.6897 39.3394 47.2835 38.9435C47.8772 38.5477 48.4918 38.1779 49.122 37.8394C49.7574 37.506 50.4033 37.1987 51.0647 36.9227C51.721 36.6519 52.3981 36.4071 53.0804 36.2039C53.7679 35.9956 54.4606 35.8185 55.1637 35.6779C55.8616 35.5425 56.5699 35.4383 57.2835 35.3654C57.997 35.2977 58.7106 35.2612 59.4241 35.2612C60.1429 35.2612 60.8564 35.2977 61.5647 35.3654C62.2783 35.4383 62.9866 35.5425 63.6897 35.6779C64.3877 35.8185 65.0856 35.9956 65.7679 36.2039C66.4554 36.4071 67.1272 36.6519 67.7887 36.9227C68.4502 37.1987 69.096 37.506 69.7262 37.8394C70.3564 38.1779 70.971 38.5477 71.5647 38.9435C72.1585 39.3394 72.7366 39.7664 73.2887 40.2196C73.8408 40.6727 74.372 41.1571 74.8772 41.6623C75.3825 42.1675 75.8616 42.6987 76.3147 43.2508C76.7731 43.8029 77.1949 44.3758 77.596 44.9748C77.9918 45.5685 78.3616 46.1831 78.6949 46.8133C79.0335 47.4435 79.3408 48.0894 79.6116 48.7508C79.8877 49.4123 80.1272 50.0841 80.3356 50.7716C80.5439 51.4539 80.7158 52.1466 80.8564 52.8498C80.997 53.5529 81.1012 54.2612 81.1741 54.9696C81.2418 55.6831 81.2783 56.3966 81.2783 57.1154Z" fill="#CFD4D4"/>
</g>
<path d="M48.3405 45.9697C48.3249 46.0583 48.304 46.1572 48.2884 46.251C48.127 47.1676 48.0436 48.0843 48.0332 49.0062C48.0332 49.0062 48.028 49.0062 48.0332 49.0114C48.028 49.1416 48.028 49.277 48.0332 49.4072C48.1374 57.7458 54.2988 65.9229 63.5645 69.0374C64.8978 69.4854 66.2467 69.2822 67.2051 68.6104H67.2103C68.0801 68.1937 68.7728 67.4958 69.127 66.5843C69.1634 66.4906 69.1947 66.3968 69.2259 66.2926C69.4447 65.5635 69.4238 64.8083 69.2103 64.0895L67.6217 63.5739L63.0957 62.0999L61.3561 61.5322C60.8353 61.9854 60.4342 62.5687 60.2311 63.2666C60.1999 63.376 60.1738 63.4854 60.153 63.5947C56.0228 60.9697 53.179 56.9437 52.2884 52.6416C53.3353 52.7718 54.3457 52.5687 55.1634 52.0999L55.0592 50.7301L54.6895 46.0114L54.6009 44.8916C54.2832 44.7093 53.9447 44.5531 53.5853 44.4333C53.4395 44.3812 53.2936 44.3395 53.1426 44.3031C51.1895 43.8239 49.2728 44.5166 48.3405 45.9697Z" fill="black"/>
<mask id="mask1_60_2221" style="mask-type:luminance" maskUnits="userSpaceOnUse" x="42" y="72" width="13" height="12">
<path d="M42.7832 72.043H54.7832V83.2669H42.7832V72.043Z" fill="white"/>
</mask>
<g mask="url(#mask1_60_2221)">
<path d="M43.8249 82.8763L54.1738 77.7669L45.8353 72.3242L43.8249 82.8763Z" fill="#CFD4D4"/>
</g>
</svg>
