<?xml version="1.0" encoding="UTF-8"?>
<svg xmlns="http://www.w3.org/2000/svg" xmlns:xlink="http://www.w3.org/1999/xlink" width="1000px" height="667px" viewBox="0 0 1000 667" version="1.1">
<defs>
<clipPath id="clip1">
  <path d="M 348 182 L 652 182 L 652 486 L 348 486 Z M 348 182 "/>
</clipPath>
<clipPath id="clip2">
  <path d="M 531.976562 109.054688 L 530.421875 108.386719 Z M 576.46875 548.867188 L 570.464844 545.316406 L 552.667969 549.757812 L 537.09375 539.984375 L 537.09375 543.757812 L 533.3125 538.652344 L 537.761719 534.207031 L 537.09375 520.882812 L 542.207031 520.882812 L 545.328125 511.996094 L 548.886719 510.441406 L 545.992188 505.996094 L 550.441406 504.441406 L 549.773438 497.777344 L 545.324219 495.558594 L 551.109375 494.890625 L 547.550781 478.675781 L 538.652344 469.792969 L 533.3125 472.011719 L 535.539062 479.34375 L 517.074219 479.34375 L 501.503906 472.679688 L 495.496094 469.792969 L 465.910156 463.128906 L 463.683594 466.679688 L 453.230469 467.570312 L 450.335938 467.570312 L 445.890625 474.898438 L 433.210938 466.015625 L 426.535156 468.234375 L 427.425781 474.234375 L 410.964844 465.347656 L 410.296875 471.125 L 394.058594 463.792969 L 393.167969 464.460938 L 385.160156 467.570312 L 383.605469 461.574219 L 364.25 452.023438 L 343.5625 445.355469 L 339.78125 428.253906 L 339.78125 424.476562 L 331.773438 409.816406 L 335.332031 392.046875 L 328.660156 389.828125 L 326.433594 382.273438 L 337.554688 380.9375 L 332.441406 380.9375 L 333.109375 369.832031 L 316.867188 374.945312 L 316.203125 370.5 L 313.976562 378.71875 L 305.078125 382.273438 L 299.074219 376.496094 L 296.847656 370.5 L 294.625 358.726562 L 299.738281 354.949219 L 301.964844 357.839844 L 303.523438 354.285156 L 299.742188 327.628906 L 305.746094 328.960938 L 308.636719 300.972656 L 309.527344 300.082031 L 315.3125 296.53125 L 307.972656 297.195312 L 305.078125 290.53125 L 318.425781 275.648438 L 306.414062 273.429688 L 297.515625 282.3125 L 293.957031 272.09375 L 288.617188 279.425781 L 287.28125 274.316406 L 280.609375 276.539062 L 276.160156 278.761719 L 279.71875 265.429688 L 276.828125 263.878906 L 278.386719 260.101562 L 274.601562 260.988281 L 273.9375 253.4375 L 287.949219 253.4375 L 287.28125 249.882812 L 282.835938 249.882812 L 274.601562 235.667969 L 270.15625 237.222656 L 267.261719 232.113281 L 265.707031 236.554688 L 261.253906 233.445312 L 265.707031 230.558594 L 259.03125 228.335938 L 260.589844 224.5625 L 255.25 221.671875 L 253.914062 209.898438 L 248.578125 208.34375 L 251.691406 206.125 L 245.683594 190.574219 L 246.351562 185.464844 L 248.578125 169.917969 L 253.023438 169.917969 L 251.691406 179.46875 L 262.8125 195.015625 L 270.820312 205.457031 L 287.28125 209.898438 L 287.28125 210.566406 L 289.507812 206.789062 L 298.40625 217.230469 L 302.855469 222.339844 L 305.078125 224.558594 L 330.214844 236.554688 L 334.664062 238.777344 L 336.222656 240.109375 L 348.011719 254.324219 L 354.6875 251.214844 L 403.625 240.109375 L 405.183594 231.226562 L 408.742188 232.777344 L 408.074219 229.886719 L 410.296875 228.335938 L 420.753906 224.558594 L 420.753906 214.339844 L 424.3125 210.5625 L 428.761719 193.460938 L 426.535156 186.796875 L 436.988281 161.695312 L 436.988281 146.144531 L 442.109375 146.144531 L 448.113281 137.261719 L 455.453125 135.039062 L 456.34375 126.820312 L 466.578125 114.378906 L 471.027344 116.605469 L 491.9375 109.050781 L 494.164062 106.832031 L 498.609375 102.386719 L 497.054688 95.058594 L 501.503906 95.058594 L 503.726562 106.828125 L 526.636719 112.160156 L 530.421875 108.386719 L 531.976562 109.050781 L 552 113.492188 L 552.664062 112.828125 L 563.121094 106.828125 L 563.789062 113.492188 L 572.6875 114.382812 L 580.027344 120.15625 L 581.585938 121.710938 L 592.707031 131.261719 L 606.054688 132.152344 L 614.285156 133.484375 L 624.515625 129.933594 L 625.40625 136.59375 L 629.855469 139.484375 L 633.417969 132.820312 L 637.863281 132.820312 L 640.976562 149.921875 L 644.539062 150.589844 L 643.871094 156.585938 L 643.203125 157.253906 L 644.539062 157.253906 L 653.433594 152.808594 L 661.667969 149.921875 L 684.578125 157.917969 L 689.027344 156.585938 L 690.582031 164.582031 L 696.589844 165.472656 L 695.035156 161.695312 L 700.148438 161.695312 L 701.707031 169.914062 L 707.714844 163.25 L 721.726562 172.136719 L 725.507812 188.351562 L 719.503906 189.90625 L 721.0625 202.347656 L 723.285156 206.121094 L 738.855469 245.4375 L 730.625 252.765625 L 729.957031 261.652344 L 723.285156 269.871094 L 730.625 274.980469 L 727.734375 277.199219 L 734.40625 283.867188 L 744.640625 285.421875 L 747.753906 289.863281 L 750.648438 295.640625 L 757.988281 298.75 L 766.882812 292.75 L 772.890625 293.417969 L 765.550781 303.859375 L 772.890625 323.183594 L 763.992188 330.511719 L 767.773438 342.285156 L 765.550781 352.726562 L 770 358.722656 L 781.789062 360.945312 L 770 377.160156 L 772.222656 380.050781 L 775.117188 383.15625 L 770 391.15625 L 775.117188 394.265625 L 749.089844 415.589844 L 755.097656 430.472656 L 753.535156 439.359375 L 744.640625 442.246094 L 742.414062 449.796875 L 732.183594 454.242188 L 729.070312 463.789062 L 726.84375 468.898438 L 737.296875 474.230469 L 721.730469 475.5625 L 725.507812 483.78125 L 717.945312 491.113281 L 706.15625 493.332031 L 702.375 499.996094 L 711.269531 504.441406 L 694.367188 519.992188 L 699.480469 528.207031 L 686.136719 525.320312 L 671.230469 534.207031 L 651.210938 543.757812 L 646.761719 550.421875 L 643.871094 548.203125 L 646.765625 541.535156 L 633.417969 546.644531 L 630.523438 541.535156 L 610.503906 553.308594 L 601.605469 550.421875 L 585.363281 553.308594 L 580.917969 551.089844 M 581.585938 121.714844 L 580.027344 120.160156 L 579.359375 120.160156 L 579.359375 121.050781 L 580.917969 121.050781 Z M 576.46875 548.871094 L 580.917969 551.089844 Z M 576.46875 548.871094 L 580.917969 551.089844 M 264.148438 243.222656 L 265.039062 237.890625 L 256.808594 232.78125 Z M 246.351562 202.351562 L 241.902344 202.351562 L 244.128906 209.015625 L 246.351562 203.238281 Z M 244.128906 195.6875 L 241.902344 197.90625 L 246.351562 201.015625 Z M 264.148438 243.222656 L 265.039062 237.890625 L 256.808594 232.78125 Z M 246.351562 202.351562 L 241.902344 202.351562 L 244.128906 209.015625 L 246.351562 203.238281 Z M 244.128906 195.6875 L 241.902344 197.90625 L 246.351562 201.015625 Z M 264.148438 243.222656 L 265.039062 237.890625 L 256.808594 232.78125 Z M 246.351562 202.351562 L 241.902344 202.351562 L 244.128906 209.015625 L 246.351562 203.238281 Z M 244.128906 195.6875 L 241.902344 197.90625 L 246.351562 201.015625 Z M 257.476562 180.136719 L 257.476562 174.363281 L 252.359375 175.695312 L 253.023438 179.46875 Z M 251.691406 163.921875 L 253.023438 166.8125 L 256.140625 160.148438 L 251.691406 163.253906 Z M 257.476562 180.136719 L 257.476562 174.363281 L 252.359375 175.695312 L 253.023438 179.46875 Z M 251.691406 163.921875 L 253.023438 166.8125 L 256.140625 160.148438 L 251.691406 163.253906 Z M 257.476562 180.136719 L 257.476562 174.363281 L 252.359375 175.695312 L 253.023438 179.46875 Z M 251.691406 163.921875 L 253.023438 166.8125 L 256.140625 160.148438 L 251.691406 163.253906 Z M 330.882812 390.496094 L 325.769531 391.160156 L 321.316406 397.160156 L 328.660156 395.601562 L 330.882812 390.492188 Z M 330.882812 390.496094 L 325.769531 391.160156 L 321.316406 397.160156 L 328.660156 395.601562 L 330.882812 390.492188 Z M 330.882812 390.496094 L 325.769531 391.160156 L 321.316406 397.160156 L 328.660156 395.601562 L 330.882812 390.492188 Z M 336.222656 240.113281 L 334.664062 238.78125 L 330.214844 236.558594 L 334.664062 238.777344 Z M 336.222656 240.113281 "/>
</clipPath>
<clipPath id="clip3">
  <path d="M 241 95 L 759 95 L 759 554 L 241 554 Z M 241 95 "/>
</clipPath>
<clipPath id="clip4">
  <path d="M 531.976562 109.054688 L 530.421875 108.386719 Z M 576.46875 548.867188 L 570.464844 545.316406 L 552.667969 549.757812 L 537.09375 539.984375 L 537.09375 543.757812 L 533.3125 538.652344 L 537.761719 534.207031 L 537.09375 520.882812 L 542.207031 520.882812 L 545.328125 511.996094 L 548.886719 510.441406 L 545.992188 505.996094 L 550.441406 504.441406 L 549.773438 497.777344 L 545.324219 495.558594 L 551.109375 494.890625 L 547.550781 478.675781 L 538.652344 469.792969 L 533.3125 472.011719 L 535.539062 479.34375 L 517.074219 479.34375 L 501.503906 472.679688 L 495.496094 469.792969 L 465.910156 463.128906 L 463.683594 466.679688 L 453.230469 467.570312 L 450.335938 467.570312 L 445.890625 474.898438 L 433.210938 466.015625 L 426.535156 468.234375 L 427.425781 474.234375 L 410.964844 465.347656 L 410.296875 471.125 L 394.058594 463.792969 L 393.167969 464.460938 L 385.160156 467.570312 L 383.605469 461.574219 L 364.25 452.023438 L 343.5625 445.355469 L 339.78125 428.253906 L 339.78125 424.476562 L 331.773438 409.816406 L 335.332031 392.046875 L 328.660156 389.828125 L 326.433594 382.273438 L 337.554688 380.9375 L 332.441406 380.9375 L 333.109375 369.832031 L 316.867188 374.945312 L 316.203125 370.5 L 313.976562 378.71875 L 305.078125 382.273438 L 299.074219 376.496094 L 296.847656 370.5 L 294.625 358.726562 L 299.738281 354.949219 L 301.964844 357.839844 L 303.523438 354.285156 L 299.742188 327.628906 L 305.746094 328.960938 L 308.636719 300.972656 L 309.527344 300.082031 L 315.3125 296.53125 L 307.972656 297.195312 L 305.078125 290.53125 L 318.425781 275.648438 L 306.414062 273.429688 L 297.515625 282.3125 L 293.957031 272.09375 L 288.617188 279.425781 L 287.28125 274.316406 L 280.609375 276.539062 L 276.160156 278.761719 L 279.71875 265.429688 L 276.828125 263.878906 L 278.386719 260.101562 L 274.601562 260.988281 L 273.9375 253.4375 L 287.949219 253.4375 L 287.28125 249.882812 L 282.835938 249.882812 L 274.601562 235.667969 L 270.15625 237.222656 L 267.261719 232.113281 L 265.707031 236.554688 L 261.253906 233.445312 L 265.707031 230.558594 L 259.03125 228.335938 L 260.589844 224.5625 L 255.25 221.671875 L 253.914062 209.898438 L 248.578125 208.34375 L 251.691406 206.125 L 245.683594 190.574219 L 246.351562 185.464844 L 248.578125 169.917969 L 253.023438 169.917969 L 251.691406 179.46875 L 262.8125 195.015625 L 270.820312 205.457031 L 287.28125 209.898438 L 287.28125 210.566406 L 289.507812 206.789062 L 298.40625 217.230469 L 302.855469 222.339844 L 305.078125 224.558594 L 330.214844 236.554688 L 334.664062 238.777344 L 336.222656 240.109375 L 348.011719 254.324219 L 354.6875 251.214844 L 403.625 240.109375 L 405.183594 231.226562 L 408.742188 232.777344 L 408.074219 229.886719 L 410.296875 228.335938 L 420.753906 224.558594 L 420.753906 214.339844 L 424.3125 210.5625 L 428.761719 193.460938 L 426.535156 186.796875 L 436.988281 161.695312 L 436.988281 146.144531 L 442.109375 146.144531 L 448.113281 137.261719 L 455.453125 135.039062 L 456.34375 126.820312 L 466.578125 114.378906 L 471.027344 116.605469 L 491.9375 109.050781 L 494.164062 106.832031 L 498.609375 102.386719 L 497.054688 95.058594 L 501.503906 95.058594 L 503.726562 106.828125 L 526.636719 112.160156 L 530.421875 108.386719 L 531.976562 109.050781 L 552 113.492188 L 552.664062 112.828125 L 563.121094 106.828125 L 563.789062 113.492188 L 572.6875 114.382812 L 580.027344 120.15625 L 581.585938 121.710938 L 592.707031 131.261719 L 606.054688 132.152344 L 614.285156 133.484375 L 624.515625 129.933594 L 625.40625 136.59375 L 629.855469 139.484375 L 633.417969 132.820312 L 637.863281 132.820312 L 640.976562 149.921875 L 644.539062 150.589844 L 643.871094 156.585938 L 643.203125 157.253906 L 644.539062 157.253906 L 653.433594 152.808594 L 661.667969 149.921875 L 684.578125 157.917969 L 689.027344 156.585938 L 690.582031 164.582031 L 696.589844 165.472656 L 695.035156 161.695312 L 700.148438 161.695312 L 701.707031 169.914062 L 707.714844 163.25 L 721.726562 172.136719 L 725.507812 188.351562 L 719.503906 189.90625 L 721.0625 202.347656 L 723.285156 206.121094 L 738.855469 245.4375 L 730.625 252.765625 L 729.957031 261.652344 L 723.285156 269.871094 L 730.625 274.980469 L 727.734375 277.199219 L 734.40625 283.867188 L 744.640625 285.421875 L 747.753906 289.863281 L 750.648438 295.640625 L 757.988281 298.75 L 766.882812 292.75 L 772.890625 293.417969 L 765.550781 303.859375 L 772.890625 323.183594 L 763.992188 330.511719 L 767.773438 342.285156 L 765.550781 352.726562 L 770 358.722656 L 781.789062 360.945312 L 770 377.160156 L 772.222656 380.050781 L 775.117188 383.15625 L 770 391.15625 L 775.117188 394.265625 L 749.089844 415.589844 L 755.097656 430.472656 L 753.535156 439.359375 L 744.640625 442.246094 L 742.414062 449.796875 L 732.183594 454.242188 L 729.070312 463.789062 L 726.84375 468.898438 L 737.296875 474.230469 L 721.730469 475.5625 L 725.507812 483.78125 L 717.945312 491.113281 L 706.15625 493.332031 L 702.375 499.996094 L 711.269531 504.441406 L 694.367188 519.992188 L 699.480469 528.207031 L 686.136719 525.320312 L 671.230469 534.207031 L 651.210938 543.757812 L 646.761719 550.421875 L 643.871094 548.203125 L 646.765625 541.535156 L 633.417969 546.644531 L 630.523438 541.535156 L 610.503906 553.308594 L 601.605469 550.421875 L 585.363281 553.308594 L 580.917969 551.089844 M 581.585938 121.714844 L 580.027344 120.160156 L 579.359375 120.160156 L 579.359375 121.050781 L 580.917969 121.050781 Z M 576.46875 548.871094 L 580.917969 551.089844 Z M 576.46875 548.871094 L 580.917969 551.089844 M 264.148438 243.222656 L 265.039062 237.890625 L 256.808594 232.78125 Z M 246.351562 202.351562 L 241.902344 202.351562 L 244.128906 209.015625 L 246.351562 203.238281 Z M 244.128906 195.6875 L 241.902344 197.90625 L 246.351562 201.015625 Z M 264.148438 243.222656 L 265.039062 237.890625 L 256.808594 232.78125 Z M 246.351562 202.351562 L 241.902344 202.351562 L 244.128906 209.015625 L 246.351562 203.238281 Z M 244.128906 195.6875 L 241.902344 197.90625 L 246.351562 201.015625 Z M 264.148438 243.222656 L 265.039062 237.890625 L 256.808594 232.78125 Z M 246.351562 202.351562 L 241.902344 202.351562 L 244.128906 209.015625 L 246.351562 203.238281 Z M 244.128906 195.6875 L 241.902344 197.90625 L 246.351562 201.015625 Z M 257.476562 180.136719 L 257.476562 174.363281 L 252.359375 175.695312 L 253.023438 179.46875 Z M 251.691406 163.921875 L 253.023438 166.8125 L 256.140625 160.148438 L 251.691406 163.253906 Z M 257.476562 180.136719 L 257.476562 174.363281 L 252.359375 175.695312 L 253.023438 179.46875 Z M 251.691406 163.921875 L 253.023438 166.8125 L 256.140625 160.148438 L 251.691406 163.253906 Z M 257.476562 180.136719 L 257.476562 174.363281 L 252.359375 175.695312 L 253.023438 179.46875 Z M 251.691406 163.921875 L 253.023438 166.8125 L 256.140625 160.148438 L 251.691406 163.253906 Z M 330.882812 390.496094 L 325.769531 391.160156 L 321.316406 397.160156 L 328.660156 395.601562 L 330.882812 390.492188 Z M 330.882812 390.496094 L 325.769531 391.160156 L 321.316406 397.160156 L 328.660156 395.601562 L 330.882812 390.492188 Z M 330.882812 390.496094 L 325.769531 391.160156 L 321.316406 397.160156 L 328.660156 395.601562 L 330.882812 390.492188 Z M 336.222656 240.113281 L 334.664062 238.78125 L 330.214844 236.558594 L 334.664062 238.777344 Z M 336.222656 240.113281 "/>
</clipPath>
<clipPath id="clip5">
  <path d="M 241 95 L 782 95 L 782 554 L 241 554 Z M 241 95 "/>
</clipPath>
<clipPath id="clip6">
  <path d="M 531.976562 109.054688 L 530.421875 108.386719 Z M 576.46875 548.867188 L 570.464844 545.316406 L 552.667969 549.757812 L 537.09375 539.984375 L 537.09375 543.757812 L 533.3125 538.652344 L 537.761719 534.207031 L 537.09375 520.882812 L 542.207031 520.882812 L 545.328125 511.996094 L 548.886719 510.441406 L 545.992188 505.996094 L 550.441406 504.441406 L 549.773438 497.777344 L 545.324219 495.558594 L 551.109375 494.890625 L 547.550781 478.675781 L 538.652344 469.792969 L 533.3125 472.011719 L 535.539062 479.34375 L 517.074219 479.34375 L 501.503906 472.679688 L 495.496094 469.792969 L 465.910156 463.128906 L 463.683594 466.679688 L 453.230469 467.570312 L 450.335938 467.570312 L 445.890625 474.898438 L 433.210938 466.015625 L 426.535156 468.234375 L 427.425781 474.234375 L 410.964844 465.347656 L 410.296875 471.125 L 394.058594 463.792969 L 393.167969 464.460938 L 385.160156 467.570312 L 383.605469 461.574219 L 364.25 452.023438 L 343.5625 445.355469 L 339.78125 428.253906 L 339.78125 424.476562 L 331.773438 409.816406 L 335.332031 392.046875 L 328.660156 389.828125 L 326.433594 382.273438 L 337.554688 380.9375 L 332.441406 380.9375 L 333.109375 369.832031 L 316.867188 374.945312 L 316.203125 370.5 L 313.976562 378.71875 L 305.078125 382.273438 L 299.074219 376.496094 L 296.847656 370.5 L 294.625 358.726562 L 299.738281 354.949219 L 301.964844 357.839844 L 303.523438 354.285156 L 299.742188 327.628906 L 305.746094 328.960938 L 308.636719 300.972656 L 309.527344 300.082031 L 315.3125 296.53125 L 307.972656 297.195312 L 305.078125 290.53125 L 318.425781 275.648438 L 306.414062 273.429688 L 297.515625 282.3125 L 293.957031 272.09375 L 288.617188 279.425781 L 287.28125 274.316406 L 280.609375 276.539062 L 276.160156 278.761719 L 279.71875 265.429688 L 276.828125 263.878906 L 278.386719 260.101562 L 274.601562 260.988281 L 273.9375 253.4375 L 287.949219 253.4375 L 287.28125 249.882812 L 282.835938 249.882812 L 274.601562 235.667969 L 270.15625 237.222656 L 267.261719 232.113281 L 265.707031 236.554688 L 261.253906 233.445312 L 265.707031 230.558594 L 259.03125 228.335938 L 260.589844 224.5625 L 255.25 221.671875 L 253.914062 209.898438 L 248.578125 208.34375 L 251.691406 206.125 L 245.683594 190.574219 L 246.351562 185.464844 L 248.578125 169.917969 L 253.023438 169.917969 L 251.691406 179.46875 L 262.8125 195.015625 L 270.820312 205.457031 L 287.28125 209.898438 L 287.28125 210.566406 L 289.507812 206.789062 L 298.40625 217.230469 L 302.855469 222.339844 L 305.078125 224.558594 L 330.214844 236.554688 L 334.664062 238.777344 L 336.222656 240.109375 L 348.011719 254.324219 L 354.6875 251.214844 L 403.625 240.109375 L 405.183594 231.226562 L 408.742188 232.777344 L 408.074219 229.886719 L 410.296875 228.335938 L 420.753906 224.558594 L 420.753906 214.339844 L 424.3125 210.5625 L 428.761719 193.460938 L 426.535156 186.796875 L 436.988281 161.695312 L 436.988281 146.144531 L 442.109375 146.144531 L 448.113281 137.261719 L 455.453125 135.039062 L 456.34375 126.820312 L 466.578125 114.378906 L 471.027344 116.605469 L 491.9375 109.050781 L 494.164062 106.832031 L 498.609375 102.386719 L 497.054688 95.058594 L 501.503906 95.058594 L 503.726562 106.828125 L 526.636719 112.160156 L 530.421875 108.386719 L 531.976562 109.050781 L 552 113.492188 L 552.664062 112.828125 L 563.121094 106.828125 L 563.789062 113.492188 L 572.6875 114.382812 L 580.027344 120.15625 L 581.585938 121.710938 L 592.707031 131.261719 L 606.054688 132.152344 L 614.285156 133.484375 L 624.515625 129.933594 L 625.40625 136.59375 L 629.855469 139.484375 L 633.417969 132.820312 L 637.863281 132.820312 L 640.976562 149.921875 L 644.539062 150.589844 L 643.871094 156.585938 L 643.203125 157.253906 L 644.539062 157.253906 L 653.433594 152.808594 L 661.667969 149.921875 L 684.578125 157.917969 L 689.027344 156.585938 L 690.582031 164.582031 L 696.589844 165.472656 L 695.035156 161.695312 L 700.148438 161.695312 L 701.707031 169.914062 L 707.714844 163.25 L 721.726562 172.136719 L 725.507812 188.351562 L 719.503906 189.90625 L 721.0625 202.347656 L 723.285156 206.121094 L 738.855469 245.4375 L 730.625 252.765625 L 729.957031 261.652344 L 723.285156 269.871094 L 730.625 274.980469 L 727.734375 277.199219 L 734.40625 283.867188 L 744.640625 285.421875 L 747.753906 289.863281 L 750.648438 295.640625 L 757.988281 298.75 L 766.882812 292.75 L 772.890625 293.417969 L 765.550781 303.859375 L 772.890625 323.183594 L 763.992188 330.511719 L 767.773438 342.285156 L 765.550781 352.726562 L 770 358.722656 L 781.789062 360.945312 L 770 377.160156 L 772.222656 380.050781 L 775.117188 383.15625 L 770 391.15625 L 775.117188 394.265625 L 749.089844 415.589844 L 755.097656 430.472656 L 753.535156 439.359375 L 744.640625 442.246094 L 742.414062 449.796875 L 732.183594 454.242188 L 729.070312 463.789062 L 726.84375 468.898438 L 737.296875 474.230469 L 721.730469 475.5625 L 725.507812 483.78125 L 717.945312 491.113281 L 706.15625 493.332031 L 702.375 499.996094 L 711.269531 504.441406 L 694.367188 519.992188 L 699.480469 528.207031 L 686.136719 525.320312 L 671.230469 534.207031 L 651.210938 543.757812 L 646.761719 550.421875 L 643.871094 548.203125 L 646.765625 541.535156 L 633.417969 546.644531 L 630.523438 541.535156 L 610.503906 553.308594 L 601.605469 550.421875 L 585.363281 553.308594 L 580.917969 551.089844 M 581.585938 121.714844 L 580.027344 120.160156 L 579.359375 120.160156 L 579.359375 121.050781 L 580.917969 121.050781 Z M 576.46875 548.871094 L 580.917969 551.089844 Z M 576.46875 548.871094 L 580.917969 551.089844 M 264.148438 243.222656 L 265.039062 237.890625 L 256.808594 232.78125 Z M 246.351562 202.351562 L 241.902344 202.351562 L 244.128906 209.015625 L 246.351562 203.238281 Z M 244.128906 195.6875 L 241.902344 197.90625 L 246.351562 201.015625 Z M 264.148438 243.222656 L 265.039062 237.890625 L 256.808594 232.78125 Z M 246.351562 202.351562 L 241.902344 202.351562 L 244.128906 209.015625 L 246.351562 203.238281 Z M 244.128906 195.6875 L 241.902344 197.90625 L 246.351562 201.015625 Z M 264.148438 243.222656 L 265.039062 237.890625 L 256.808594 232.78125 Z M 246.351562 202.351562 L 241.902344 202.351562 L 244.128906 209.015625 L 246.351562 203.238281 Z M 244.128906 195.6875 L 241.902344 197.90625 L 246.351562 201.015625 Z M 257.476562 180.136719 L 257.476562 174.363281 L 252.359375 175.695312 L 253.023438 179.46875 Z M 251.691406 163.921875 L 253.023438 166.8125 L 256.140625 160.148438 L 251.691406 163.253906 Z M 257.476562 180.136719 L 257.476562 174.363281 L 252.359375 175.695312 L 253.023438 179.46875 Z M 251.691406 163.921875 L 253.023438 166.8125 L 256.140625 160.148438 L 251.691406 163.253906 Z M 257.476562 180.136719 L 257.476562 174.363281 L 252.359375 175.695312 L 253.023438 179.46875 Z M 251.691406 163.921875 L 253.023438 166.8125 L 256.140625 160.148438 L 251.691406 163.253906 Z M 330.882812 390.496094 L 325.769531 391.160156 L 321.316406 397.160156 L 328.660156 395.601562 L 330.882812 390.492188 Z M 330.882812 390.496094 L 325.769531 391.160156 L 321.316406 397.160156 L 328.660156 395.601562 L 330.882812 390.492188 Z M 330.882812 390.496094 L 325.769531 391.160156 L 321.316406 397.160156 L 328.660156 395.601562 L 330.882812 390.492188 Z M 336.222656 240.113281 L 334.664062 238.78125 L 330.214844 236.558594 L 334.664062 238.777344 Z M 336.222656 240.113281 "/>
</clipPath>
</defs>
<g id="surface1">
<rect x="0" y="0" width="1000" height="667" style="fill:rgb(2.745098%,16.862746%,37.254903%);fill-opacity:1;stroke:none;"/>
<path style="fill:none;stroke-width:2;stroke-linecap:butt;stroke-linejoin:miter;stroke:rgb(100%,100%,100%);stroke-opacity:1;stroke-miterlimit:4;" d="M 183 133.499563 C 183 160.837456 160.8375 182.999813 133.5 182.999813 C 106.1625 182.999813 84 160.837456 84 133.499563 C 84 106.161669 106.1625 83.999313 133.5 83.999313 C 160.8375 83.999313 183 106.161669 183 133.499563 Z M 183 133.499563 " transform="matrix(2.5,0,0,2.50125,166.25,-0.83375)"/>
<path style="fill:none;stroke-width:1.99;stroke-linecap:butt;stroke-linejoin:miter;stroke:rgb(100%,100%,100%);stroke-opacity:1;stroke-miterlimit:4;" d="M 225.559375 133.666667 C 225.559375 184.509995 184.34375 225.726887 133.5 225.726887 C 82.65625 225.726887 41.440625 184.509995 41.440625 133.666667 C 41.440625 82.823338 82.65625 41.606447 133.5 41.606447 C 184.34375 41.606447 225.559375 82.823338 225.559375 133.666667 Z M 225.559375 133.666667 " transform="matrix(2.5,0,0,2.50125,166.25,-0.83375)"/>
<path style="fill:none;stroke-width:1.987;stroke-linecap:butt;stroke-linejoin:miter;stroke:rgb(100%,100%,100%);stroke-opacity:1;stroke-miterlimit:4;" d="M 265.61875 133.666667 C 265.61875 206.633308 206.467187 265.784983 133.5 265.784983 C 60.532812 265.784983 1.38125 206.633308 1.38125 133.666667 C 1.38125 60.700025 60.532812 1.548351 133.5 1.548351 C 206.467187 1.548351 265.61875 60.700025 265.61875 133.666667 Z M 265.61875 133.666667 " transform="matrix(2.5,0,0,2.50125,166.25,-0.83375)"/>
<path style="fill:none;stroke-width:2;stroke-linecap:butt;stroke-linejoin:miter;stroke:rgb(100%,100%,100%);stroke-opacity:1;stroke-miterlimit:4;" d="M -100 133.499563 L 367 133.499563 M 133.5 -99.999313 L 133.5 367 " transform="matrix(2.5,0,0,2.50125,166.25,-0.83375)"/>
<path style="fill:none;stroke-width:2;stroke-linecap:butt;stroke-linejoin:miter;stroke:rgb(100%,100%,100%);stroke-opacity:1;stroke-miterlimit:4;" d="M -100.000159 133.500236 L 367.000503 133.500359 M 133.500208 -99.999641 L 133.500136 367.000236 " transform="matrix(2.165064,1.250625,-1.25,2.166146,377.839021,-123.055809)"/>
<path style="fill:none;stroke-width:2;stroke-linecap:butt;stroke-linejoin:miter;stroke:rgb(100%,100%,100%);stroke-opacity:1;stroke-miterlimit:4;" d="M -99.999641 133.500208 L 367.000236 133.500136 M 133.500236 -100.000159 L 133.500359 367.000503 " transform="matrix(1.25,2.166146,-2.165064,1.250625,622.160979,-123.055809)"/>
<path style=" stroke:none;fill-rule:nonzero;fill:rgb(100%,100%,100%);fill-opacity:1;" d="M 532.238281 108.46875 L 530.679688 107.804688 Z M 576.824219 549.1875 L 570.804688 545.628906 L 552.972656 550.082031 L 537.367188 540.289062 L 537.367188 544.070312 L 533.578125 538.953125 L 538.039062 534.5 L 537.367188 521.144531 L 542.492188 521.144531 L 545.617188 512.242188 L 549.183594 510.683594 L 546.28125 506.230469 L 550.742188 504.671875 L 550.074219 497.996094 L 545.613281 495.773438 L 551.410156 495.101562 L 547.84375 478.855469 L 538.925781 469.949219 L 533.578125 472.175781 L 535.808594 479.519531 L 517.308594 479.519531 L 501.703125 472.84375 L 495.683594 469.949219 L 466.039062 463.273438 L 463.808594 466.832031 L 453.332031 467.726562 L 450.433594 467.726562 L 445.976562 475.070312 L 433.269531 466.167969 L 426.582031 468.390625 L 427.476562 474.402344 L 410.980469 465.5 L 410.308594 471.285156 L 394.039062 463.941406 L 393.148438 464.609375 L 385.121094 467.726562 L 383.5625 461.714844 L 364.171875 452.144531 L 343.441406 445.464844 L 339.648438 428.328125 L 339.648438 424.542969 L 331.625 409.855469 L 335.191406 392.042969 L 328.503906 389.820312 L 326.273438 382.253906 L 337.421875 380.914062 L 332.296875 380.914062 L 332.960938 369.785156 L 316.691406 374.90625 L 316.023438 370.453125 L 313.792969 378.691406 L 304.875 382.253906 L 298.859375 376.464844 L 296.628906 370.453125 L 294.398438 358.65625 L 299.523438 354.871094 L 301.753906 357.769531 L 303.316406 354.207031 L 299.527344 327.496094 L 305.546875 328.828125 L 308.441406 300.785156 L 309.335938 299.894531 L 315.128906 296.335938 L 307.773438 297 L 304.875 290.324219 L 318.25 275.410156 L 306.210938 273.183594 L 297.296875 282.085938 L 293.730469 271.847656 L 288.378906 279.191406 L 287.042969 274.074219 L 280.359375 276.300781 L 275.898438 278.527344 L 279.464844 265.171875 L 276.566406 263.613281 L 278.128906 259.828125 L 274.335938 260.71875 L 273.671875 253.152344 L 287.710938 253.152344 L 287.042969 249.589844 L 282.585938 249.589844 L 274.335938 235.34375 L 269.878906 236.902344 L 266.980469 231.78125 L 265.421875 236.234375 L 260.960938 233.117188 L 265.421875 230.226562 L 258.734375 228 L 260.296875 224.214844 L 254.945312 221.320312 L 253.609375 209.523438 L 248.257812 207.964844 L 251.378906 205.742188 L 245.359375 190.160156 L 246.027344 185.039062 L 248.257812 169.460938 L 252.714844 169.460938 L 251.378906 179.03125 L 262.523438 194.609375 L 270.546875 205.074219 L 287.042969 209.523438 L 287.042969 210.191406 L 289.273438 206.410156 L 298.191406 216.867188 L 302.648438 221.988281 L 304.875 224.214844 L 330.066406 236.234375 L 334.523438 238.460938 L 336.082031 239.796875 L 347.898438 254.039062 L 354.585938 250.925781 L 403.621094 239.796875 L 405.183594 230.894531 L 408.75 232.449219 L 408.082031 229.554688 L 410.308594 227.996094 L 420.789062 224.214844 L 420.789062 213.972656 L 424.355469 210.1875 L 428.8125 193.050781 L 426.582031 186.375 L 437.058594 161.21875 L 437.058594 145.640625 L 442.1875 145.640625 L 448.203125 136.738281 L 455.558594 134.511719 L 456.453125 126.273438 L 466.707031 113.808594 L 471.164062 116.035156 L 492.117188 108.46875 L 494.347656 106.246094 L 498.804688 101.789062 L 497.246094 94.445312 L 501.703125 94.445312 L 503.933594 106.242188 L 526.890625 111.585938 L 530.679688 107.800781 L 532.238281 108.46875 L 552.300781 112.917969 L 552.96875 112.253906 L 563.449219 106.242188 L 564.117188 112.917969 L 573.03125 113.8125 L 580.390625 119.597656 L 581.949219 121.15625 L 593.09375 130.726562 L 606.46875 131.617188 L 614.71875 132.953125 L 624.96875 129.390625 L 625.863281 136.070312 L 630.320312 138.960938 L 633.886719 132.285156 L 638.34375 132.285156 L 641.464844 149.421875 L 645.03125 150.089844 L 644.363281 156.101562 L 643.695312 156.769531 L 645.03125 156.769531 L 653.949219 152.316406 L 662.199219 149.425781 L 685.15625 157.4375 L 689.613281 156.101562 L 691.171875 164.113281 L 697.191406 165.003906 L 695.632812 161.21875 L 700.757812 161.21875 L 702.316406 169.457031 L 708.335938 162.78125 L 722.378906 171.683594 L 726.171875 187.929688 L 720.152344 189.488281 L 721.710938 201.953125 L 723.941406 205.738281 L 739.546875 245.136719 L 731.296875 252.480469 L 730.628906 261.386719 L 723.941406 269.617188 L 731.296875 274.742188 L 728.398438 276.964844 L 735.085938 283.644531 L 745.339844 285.203125 L 748.460938 289.652344 L 751.359375 295.441406 L 758.714844 298.558594 L 767.628906 292.546875 L 773.648438 293.214844 L 766.292969 303.675781 L 773.648438 323.042969 L 764.734375 330.386719 L 768.523438 342.183594 L 766.292969 352.644531 L 770.75 358.65625 L 782.566406 360.878906 L 770.75 377.128906 L 772.980469 380.023438 L 775.878906 383.140625 L 770.75 391.152344 L 775.878906 394.269531 L 749.796875 415.636719 L 755.816406 430.550781 L 754.253906 439.453125 L 745.339844 442.347656 L 743.109375 449.917969 L 732.859375 454.367188 L 729.738281 463.9375 L 727.507812 469.058594 L 737.984375 474.398438 L 722.382812 475.734375 L 726.171875 483.96875 L 718.589844 491.316406 L 706.777344 493.539062 L 702.988281 500.21875 L 711.902344 504.671875 L 694.960938 520.253906 L 700.085938 528.488281 L 686.714844 525.59375 L 671.78125 534.496094 L 651.71875 544.066406 L 647.261719 550.746094 L 644.363281 548.523438 L 647.261719 541.84375 L 633.886719 546.964844 L 630.988281 541.84375 L 610.925781 553.640625 L 602.011719 550.746094 L 585.738281 553.640625 L 581.28125 551.414062 M 581.949219 121.15625 L 580.386719 119.597656 L 579.71875 119.597656 L 579.71875 120.492188 L 581.28125 120.492188 Z M 576.824219 549.191406 L 581.28125 551.414062 Z M 576.824219 549.191406 L 581.28125 551.414062 M 263.859375 242.917969 L 264.753906 237.574219 L 256.503906 232.453125 Z M 246.027344 201.960938 L 241.570312 201.960938 L 243.800781 208.636719 L 246.027344 202.847656 Z M 243.800781 195.28125 L 241.570312 197.503906 L 246.027344 200.625 Z M 263.859375 242.917969 L 264.753906 237.574219 L 256.503906 232.453125 Z M 246.027344 201.960938 L 241.570312 201.960938 L 243.800781 208.636719 L 246.027344 202.847656 Z M 243.800781 195.28125 L 241.570312 197.503906 L 246.027344 200.625 Z M 263.859375 242.917969 L 264.753906 237.574219 L 256.503906 232.453125 Z M 246.027344 201.960938 L 241.570312 201.960938 L 243.800781 208.636719 L 246.027344 202.847656 Z M 243.800781 195.28125 L 241.570312 197.503906 L 246.027344 200.625 Z M 257.175781 179.703125 L 257.175781 173.914062 L 252.046875 175.25 L 252.714844 179.03125 Z M 251.378906 163.453125 L 252.714844 166.347656 L 255.835938 159.667969 L 251.378906 162.785156 Z M 257.175781 179.703125 L 257.175781 173.914062 L 252.046875 175.25 L 252.714844 179.03125 Z M 251.378906 163.453125 L 252.714844 166.347656 L 255.835938 159.667969 L 251.378906 162.785156 Z M 257.175781 179.703125 L 257.175781 173.914062 L 252.046875 175.25 L 252.714844 179.03125 Z M 251.378906 163.453125 L 252.714844 166.347656 L 255.835938 159.667969 L 251.378906 162.785156 Z M 330.734375 390.492188 L 325.609375 391.15625 L 321.148438 397.167969 L 328.503906 395.609375 L 330.734375 390.488281 Z M 330.734375 390.492188 L 325.609375 391.15625 L 321.148438 397.167969 L 328.503906 395.609375 L 330.734375 390.488281 Z M 330.734375 390.492188 L 325.609375 391.15625 L 321.148438 397.167969 L 328.503906 395.609375 L 330.734375 390.488281 Z M 336.082031 239.800781 L 334.523438 238.464844 L 330.066406 236.238281 L 334.523438 238.460938 Z M 336.082031 239.800781 "/>
<g clip-path="url(#clip1)" clip-rule="nonzero">
<g clip-path="url(#clip2)" clip-rule="nonzero">
<path style="fill:none;stroke-width:2;stroke-linecap:butt;stroke-linejoin:miter;stroke:rgb(2.745098%,16.862746%,37.254903%);stroke-opacity:1;stroke-miterlimit:4;" d="M 183.00046 133.500634 C 183.00046 160.838162 160.83784 183.000252 133.500549 183.000252 C 106.161692 183.000252 84.000637 160.838162 84.000637 133.500634 C 84.000637 106.161539 106.161692 83.999448 133.500549 83.999448 C 160.83784 83.999448 183.00046 106.161539 183.00046 133.500634 Z M 183.00046 133.500634 " transform="matrix(2.494875,0,0,2.492996,166.7375,0.804569)"/>
</g>
</g>
<g clip-path="url(#clip3)" clip-rule="nonzero">
<g clip-path="url(#clip4)" clip-rule="nonzero">
<path style="fill:none;stroke-width:2;stroke-linecap:butt;stroke-linejoin:miter;stroke:rgb(2.745098%,16.862746%,37.254903%);stroke-opacity:1;stroke-miterlimit:4;" d="M 225.999545 133.500634 C 225.999545 184.585945 184.586524 226.000412 133.500549 226.000412 C 82.413008 226.000412 40.999987 184.585945 40.999987 133.500634 C 40.999987 82.413755 82.413008 40.999289 133.500549 40.999289 C 184.586524 40.999289 225.999545 82.413755 225.999545 133.500634 Z M 225.999545 133.500634 " transform="matrix(2.494875,0,0,2.492996,166.7375,0.804569)"/>
</g>
</g>
<g clip-path="url(#clip5)" clip-rule="nonzero">
<g clip-path="url(#clip6)" clip-rule="nonzero">
<path style="fill:none;stroke-width:2;stroke-linecap:butt;stroke-linejoin:miter;stroke:rgb(2.745098%,16.862746%,37.254903%);stroke-opacity:1;stroke-miterlimit:4;" d="M 266.499757 133.500634 C 266.499757 206.953298 206.954253 266.499815 133.500549 266.499815 C 60.046845 266.499815 0.499775 206.953298 0.499775 133.500634 C 0.499775 60.046402 60.046845 0.499886 133.500549 0.499886 C 206.954253 0.499886 266.499757 60.046402 266.499757 133.500634 Z M 266.499757 133.500634 " transform="matrix(2.494875,0,0,2.492996,166.7375,0.804569)"/>
<path style="fill:none;stroke-width:2;stroke-linecap:butt;stroke-linejoin:miter;stroke:rgb(2.745098%,16.862746%,37.254903%);stroke-opacity:1;stroke-miterlimit:4;" d="M -99.999998 133.500634 L 366.99953 133.500634 M 133.500549 -100.000432 L 133.500549 367.000133 " transform="matrix(2.494875,0,0,2.492996,166.7375,0.804569)"/>
<path style="fill:none;stroke-width:2;stroke-linecap:butt;stroke-linejoin:miter;stroke:rgb(2.745098%,16.862746%,37.254903%);stroke-opacity:1;stroke-miterlimit:4;" d="M -100.000112 133.500181 L 366.999556 133.499794 M 133.499084 -100.000099 L 133.50036 367.000074 " transform="matrix(2.160625,1.246498,-1.247438,2.158998,377.892768,-121.014156)"/>
<path style="fill:none;stroke-width:2;stroke-linecap:butt;stroke-linejoin:miter;stroke:rgb(2.745098%,16.862746%,37.254903%);stroke-opacity:1;stroke-miterlimit:4;" d="M -100.000333 133.49949 L 366.99984 133.500766 M 133.499947 -99.999706 L 133.49956 366.999962 " transform="matrix(1.247438,2.158998,-2.160625,1.246498,621.713869,-121.014156)"/>
</g>
</g>
</g>
</svg>
