<?xml version="1.0" encoding="UTF-8"?>
<svg xmlns="http://www.w3.org/2000/svg" xmlns:xlink="http://www.w3.org/1999/xlink" width="1000px" height="667px" viewBox="0 0 1000 667" version="1.1">
<g id="surface1">
<rect x="0" y="0" width="1000" height="667" style="fill:rgb(45.490196%,67.450982%,87.450981%);fill-opacity:1;stroke:none;"/>
<path style=" stroke:none;fill-rule:nonzero;fill:rgb(100%,100%,100%);fill-opacity:1;" d="M 0 222.335938 L 1000 222.335938 L 1000 444.675781 L 0 444.675781 Z M 0 222.335938 "/>
<path style="fill-rule:nonzero;fill:rgb(96.470588%,70.588237%,5.490196%);fill-opacity:1;stroke-width:1.112;stroke-linecap:butt;stroke-linejoin:miter;stroke:rgb(52.156866%,20.392157%,3.921569%);stroke-opacity:1;stroke-miterlimit:4;" d="M 396.840625 251.308916 L 425.29375 313.302333 C 425.29375 313.302333 425.784375 314.488264 426.575 314.160303 C 427.3625 313.83527 426.871875 312.649339 426.871875 312.649339 L 403.159375 248.694012 M 402.478125 272.813788 C 402.13125 282.23974 407.93125 287.425623 407.171875 295.844265 C 406.415625 304.265836 411.0375 309.024199 412.1125 312.297953 C 413.184375 315.571706 410.953125 317.530688 411.9125 317.996275 C 412.878125 318.461863 414.984375 315.876242 414.296875 311.223295 C 413.609375 306.567419 410.078125 305.185298 410.90625 294.901377 C 411.7375 284.620385 406.7 282.225098 407.928125 272.843071 " transform="matrix(1.25,0,0,1.334,0,0)"/>
<path style="fill-rule:nonzero;fill:rgb(96.470588%,70.588237%,5.490196%);fill-opacity:1;stroke-width:1.112;stroke-linecap:butt;stroke-linejoin:miter;stroke:rgb(52.156866%,20.392157%,3.921569%);stroke-opacity:1;stroke-miterlimit:4;" d="M 396.8386 251.309495 L 425.293849 313.302243 C 425.293849 313.302243 425.784665 314.487176 426.572849 314.160699 C 427.363921 313.833026 426.873106 312.648094 426.873106 312.648094 L 403.158513 248.691701 M 402.478661 272.81418 C 402.131733 282.241307 407.929614 287.427496 407.171603 295.84585 C 406.413593 304.264205 411.038165 309.026751 412.112977 312.299357 C 413.184902 315.573158 410.951801 317.531392 411.913097 317.99848 C 412.87728 318.464372 414.984941 315.876658 414.298648 311.22287 C 413.611234 306.566378 410.075831 305.184591 410.906805 294.900882 C 411.737779 284.617172 406.701396 282.224827 407.926208 272.842931 " transform="matrix(1.154849,0.5105,-0.478354,1.232455,157.648806,-178.813704)"/>
<path style="fill-rule:nonzero;fill:rgb(96.470588%,70.588237%,5.490196%);fill-opacity:1;stroke-width:1.112;stroke-linecap:butt;stroke-linejoin:miter;stroke:rgb(52.156866%,20.392157%,3.921569%);stroke-opacity:1;stroke-miterlimit:4;" d="M 396.840441 251.308472 L 425.294207 313.301197 C 425.294207 313.301197 425.785863 314.486701 426.574613 314.161758 C 427.363502 313.832534 426.873917 312.649101 426.873917 312.649101 L 403.157349 248.693737 M 402.478081 272.81182 C 402.130958 282.240448 407.93132 287.426512 407.172304 295.846625 C 406.415497 304.264529 411.0389 309.024934 412.11256 312.299463 C 413.184149 315.571923 410.952688 317.530069 411.914521 317.996927 C 412.876354 318.463785 414.982878 315.876889 414.296166 311.22154 C 413.609453 306.56619 410.075563 305.184556 410.907947 294.902106 C 411.736051 284.619794 406.702258 282.224394 407.928614 272.844147 " transform="matrix(0.883883,0.94328,-0.883883,0.94328,367.417479,-279.63229)"/>
<path style="fill-rule:nonzero;fill:rgb(96.470588%,70.588237%,5.490196%);fill-opacity:1;stroke-width:1.112;stroke-linecap:butt;stroke-linejoin:miter;stroke:rgb(52.156866%,20.392157%,3.921569%);stroke-opacity:1;stroke-miterlimit:4;" d="M 396.839785 251.309032 L 425.29351 313.301037 C 425.29351 313.301037 425.784159 314.48857 426.573458 314.159309 C 427.364266 313.834054 426.872422 312.649408 426.872422 312.649408 L 403.159019 248.693855 M 402.47744 272.812715 C 402.131165 282.241689 407.929202 287.427092 407.171906 295.843579 C 406.41612 304.264075 411.040163 309.024078 412.111486 312.298967 C 413.18671 315.572089 410.951929 317.531663 411.912749 317.997298 C 412.876276 318.464053 414.984308 315.876956 414.297499 311.222312 C 413.61069 306.567668 410.075886 305.184684 410.906197 294.900871 C 411.735312 284.619946 406.702509 282.224103 407.925609 272.843751 " transform="matrix(0.478354,1.232455,-1.154849,0.5105,597.370638,-287.107043)"/>
<path style=" stroke:none;fill-rule:nonzero;fill:rgb(52.156866%,20.392157%,3.921569%);fill-opacity:1;" d="M 505.386719 366.0625 C 505.953125 378.140625 512.371094 383.488281 511.109375 394.496094 C 513.878906 385.792969 507.207031 379.042969 507.585938 366.1875 M 498.023438 334.496094 L 522.382812 391.292969 L 501.972656 332.75 "/>
<path style=" stroke:none;fill-rule:nonzero;fill:rgb(52.156866%,20.392157%,3.921569%);fill-opacity:1;" d="M 493.300781 365.785156 C 489.492188 377.175781 493.503906 384.734375 488.394531 394.390625 C 494.070312 387.480469 490.328125 378.519531 495.289062 366.796875 M 497.816406 333.613281 L 499.957031 396.035156 L 502.089844 333.613281 "/>
<path style=" stroke:none;fill-rule:nonzero;fill:rgb(52.156866%,20.392157%,3.921569%);fill-opacity:1;" d="M 482.234375 360.589844 C 474.632812 369.558594 475.625 378.183594 467.441406 385.015625 C 475.164062 380.949219 474.917969 371.140625 483.707031 362.339844 M 497.941406 332.714844 L 477.535156 391.257812 L 501.890625 334.457031 "/>
<path style=" stroke:none;fill-rule:nonzero;fill:rgb(52.156866%,20.392157%,3.921569%);fill-opacity:1;" d="M 473.871094 351.273438 C 463.632812 356.453125 461.457031 364.828125 451.449219 367.796875 C 460.042969 367.195312 463.328125 358.035156 474.605469 353.488281 M 498.382812 331.933594 L 458.53125 377.6875 L 501.40625 335.15625 "/>
<path style="fill-rule:nonzero;fill:rgb(96.470588%,70.588237%,5.490196%);fill-opacity:1;stroke-width:1.112;stroke-linecap:butt;stroke-linejoin:miter;stroke:rgb(52.156866%,20.392157%,3.921569%);stroke-opacity:1;stroke-miterlimit:4;" d="M 396.840447 251.309375 L 425.293994 313.303125 C 425.293994 313.303125 425.783007 314.4875 426.573627 314.1625 C 427.364248 313.834375 426.872306 312.65 426.872306 312.65 L 403.156625 248.69375 M 402.477277 272.8125 C 402.131747 282.240625 407.929629 287.425 407.171219 295.84375 C 406.415737 304.265625 411.039402 309.025 412.111132 312.3 C 413.18579 315.571875 410.951555 317.53125 411.914941 317.996875 C 412.878326 318.4625 414.983719 315.878125 414.295587 311.221875 C 413.610382 306.565625 410.076017 305.184375 410.907632 294.903125 C 411.736319 284.61875 406.699775 282.225 407.926701 272.84375 " transform="matrix(0.000000000000000077,1.334,-1.25,0.000000000000000082,812.5,-200.1)"/>
<path style="fill-rule:nonzero;fill:rgb(96.470588%,70.588237%,5.490196%);fill-opacity:1;stroke-width:1.112;stroke-linecap:butt;stroke-linejoin:miter;stroke:rgb(52.156866%,20.392157%,3.921569%);stroke-opacity:1;stroke-miterlimit:4;" d="M 396.84018 251.30884 L 425.294704 313.301149 C 425.294704 313.301149 425.783508 314.488877 426.573463 314.161667 C 427.363418 313.834457 426.871909 312.647849 426.871909 312.647849 L 403.157115 248.69228 M 402.476886 272.813728 C 402.131751 282.241584 407.930658 287.426491 407.170863 295.845619 C 406.41497 304.266515 411.038811 309.024882 412.112315 312.297562 C 413.18431 315.574251 410.951943 317.530583 411.915483 317.997385 C 412.877828 318.4613 414.983447 315.877591 414.297941 311.223123 C 413.608534 306.566887 410.07602 305.185441 410.907261 294.903416 C 411.737306 284.618504 406.700762 282.222929 407.927644 272.842504 " transform="matrix(-0.478354,1.232455,-1.154849,-0.5105,980.05407,-31.857194)"/>
<path style="fill-rule:nonzero;fill:rgb(96.470588%,70.588237%,5.490196%);fill-opacity:1;stroke-width:1.112;stroke-linecap:butt;stroke-linejoin:miter;stroke:rgb(52.156866%,20.392157%,3.921569%);stroke-opacity:1;stroke-miterlimit:4;" d="M 396.839991 251.308273 L 425.29437 313.301691 C 425.29437 313.301691 425.783994 314.487025 426.572996 314.162062 C 427.364068 313.835029 426.874444 312.649694 426.874444 312.649694 L 403.157939 248.693797 M 402.479681 272.812645 C 402.129815 282.239994 407.929594 287.426886 407.170644 295.844687 C 406.413903 304.264698 411.038996 309.026448 412.111668 312.298062 C 413.18448 315.573957 410.952065 317.532368 411.914269 317.997636 C 412.876473 318.462904 414.983776 315.878304 414.297912 311.221092 C 413.609977 306.565952 410.076086 305.18545 410.90692 294.901483 C 411.735683 284.619586 406.702212 282.224016 407.928021 272.844383 " transform="matrix(-0.883883,0.94328,-0.883883,-0.94328,1074.52426,192.007933)"/>
<path style="fill-rule:nonzero;fill:rgb(96.470588%,70.588237%,5.490196%);fill-opacity:1;stroke-width:1.112;stroke-linecap:butt;stroke-linejoin:miter;stroke:rgb(52.156866%,20.392157%,3.921569%);stroke-opacity:1;stroke-miterlimit:4;" d="M 396.839765 251.308983 L 425.294142 313.303002 C 425.294142 313.303002 425.784027 314.48846 426.573202 314.159264 C 427.364144 313.833968 426.874259 312.648511 426.874259 312.648511 L 403.159114 248.693722 M 402.477113 272.813102 C 402.130208 282.241257 407.931076 287.426864 407.170893 295.84392 C 406.415363 304.266074 411.040091 309.024728 412.112366 312.29923 C 413.18464 315.573731 410.953439 317.5306 411.913295 317.997915 C 412.877159 318.463719 414.983175 315.87815 414.296712 311.223086 C 413.610248 306.568023 410.077266 305.18385 410.905915 294.902971 C 411.735686 284.619386 406.700648 282.223195 407.926466 272.845318 " transform="matrix(-1.154849,0.5105,-0.478354,-1.232455,1081.528339,437.413945)"/>
<path style=" stroke:none;fill-rule:nonzero;fill:rgb(52.156866%,20.392157%,3.921569%);fill-opacity:1;" d="M 469.488281 339.25 C 458.171875 339.855469 453.160156 346.703125 442.84375 345.359375 C 451 348.308594 457.324219 341.191406 469.371094 341.597656 M 499.066406 331.390625 L 445.84375 357.386719 L 500.703125 335.605469 "/>
<path style=" stroke:none;fill-rule:nonzero;fill:rgb(52.156866%,20.392157%,3.921569%);fill-opacity:1;" d="M 469.75 326.351562 C 459.074219 322.285156 451.988281 326.566406 442.945312 321.113281 C 449.421875 327.171875 457.816406 323.175781 468.796875 328.46875 M 499.894531 331.171875 L 441.402344 333.453125 L 499.894531 335.730469 "/>
<path style=" stroke:none;fill-rule:nonzero;fill:rgb(52.156866%,20.392157%,3.921569%);fill-opacity:1;" d="M 474.613281 314.539062 C 466.210938 306.425781 458.128906 307.488281 451.726562 298.753906 C 455.539062 306.996094 464.726562 306.734375 472.976562 316.109375 M 500.734375 331.304688 L 445.878906 309.523438 L 499.101562 335.519531 "/>
<path style=" stroke:none;fill-rule:nonzero;fill:rgb(52.156866%,20.392157%,3.921569%);fill-opacity:1;" d="M 483.347656 305.617188 C 478.492188 294.6875 470.644531 292.367188 467.863281 281.683594 C 468.429688 290.855469 477.011719 294.367188 481.269531 306.398438 M 501.46875 331.773438 L 458.597656 289.246094 L 498.445312 335 "/>
<path style="fill-rule:nonzero;fill:rgb(96.470588%,70.588237%,5.490196%);fill-opacity:1;stroke-width:1.112;stroke-linecap:butt;stroke-linejoin:miter;stroke:rgb(52.156866%,20.392157%,3.921569%);stroke-opacity:1;stroke-miterlimit:4;" d="M 396.840625 251.308916 L 425.29375 313.302333 C 425.29375 313.302333 425.784375 314.488264 426.575 314.160303 C 427.3625 313.83527 426.871875 312.649339 426.871875 312.649339 L 403.159375 248.694012 M 402.478125 272.813788 C 402.13125 282.23974 407.93125 287.425623 407.171875 295.844265 C 406.415625 304.265836 411.0375 309.024199 412.1125 312.297953 C 413.184375 315.571706 410.953125 317.530688 411.9125 317.996275 C 412.878125 318.461863 414.984375 315.876242 414.296875 311.223295 C 413.609375 306.567419 410.078125 305.185298 410.90625 294.901377 C 411.7375 284.620385 406.7 282.225098 407.928125 272.843071 " transform="matrix(-1.25,0.000000000000000163,-0.000000000000000153,-1.334,1000,667)"/>
<path style="fill-rule:nonzero;fill:rgb(96.470588%,70.588237%,5.490196%);fill-opacity:1;stroke-width:1.112;stroke-linecap:butt;stroke-linejoin:miter;stroke:rgb(52.156866%,20.392157%,3.921569%);stroke-opacity:1;stroke-miterlimit:4;" d="M 396.8386 251.309495 L 425.293849 313.302243 C 425.293849 313.302243 425.784665 314.487176 426.572849 314.160699 C 427.363921 313.833026 426.873106 312.648094 426.873106 312.648094 L 403.158513 248.691701 M 402.478661 272.81418 C 402.131733 282.241307 407.929614 287.427496 407.171603 295.84585 C 406.413593 304.264205 411.038165 309.026751 412.112977 312.299357 C 413.184902 315.573158 410.951801 317.531392 411.913097 317.99848 C 412.87728 318.464372 414.984941 315.876658 414.298648 311.22287 C 413.611234 306.566378 410.075831 305.184591 410.906805 294.900882 C 411.737779 284.617172 406.701396 282.224827 407.926208 272.842931 " transform="matrix(-1.154849,-0.5105,0.478354,-1.232455,842.351194,845.813704)"/>
<path style="fill-rule:nonzero;fill:rgb(96.470588%,70.588237%,5.490196%);fill-opacity:1;stroke-width:1.112;stroke-linecap:butt;stroke-linejoin:miter;stroke:rgb(52.156866%,20.392157%,3.921569%);stroke-opacity:1;stroke-miterlimit:4;" d="M 396.840441 251.308472 L 425.294207 313.301197 C 425.294207 313.301197 425.785863 314.486701 426.574613 314.161758 C 427.363502 313.832534 426.873917 312.649101 426.873917 312.649101 L 403.157349 248.693737 M 402.478081 272.81182 C 402.130958 282.240448 407.93132 287.426512 407.172304 295.846625 C 406.415497 304.264529 411.0389 309.024934 412.11256 312.299463 C 413.184149 315.571923 410.952688 317.530069 411.914521 317.996927 C 412.876354 318.463785 414.982878 315.876889 414.296166 311.22154 C 413.609453 306.56619 410.075563 305.184556 410.907947 294.902106 C 411.736051 284.619794 406.702258 282.224394 407.928614 272.844147 " transform="matrix(-0.883883,-0.94328,0.883883,-0.94328,632.582521,946.63229)"/>
<path style="fill-rule:nonzero;fill:rgb(96.470588%,70.588237%,5.490196%);fill-opacity:1;stroke-width:1.112;stroke-linecap:butt;stroke-linejoin:miter;stroke:rgb(52.156866%,20.392157%,3.921569%);stroke-opacity:1;stroke-miterlimit:4;" d="M 396.839785 251.309032 L 425.29351 313.301037 C 425.29351 313.301037 425.784159 314.48857 426.573458 314.159309 C 427.364266 313.834054 426.872422 312.649408 426.872422 312.649408 L 403.159019 248.693855 M 402.47744 272.812715 C 402.131165 282.241689 407.929202 287.427092 407.171906 295.843579 C 406.41612 304.264075 411.040163 309.024078 412.111486 312.298967 C 413.18671 315.572089 410.951929 317.531663 411.912749 317.997298 C 412.876276 318.464053 414.984308 315.876956 414.297499 311.222312 C 413.61069 306.567668 410.075886 305.184684 410.906197 294.900871 C 411.735312 284.619946 406.702509 282.224103 407.925609 272.843751 " transform="matrix(-0.478354,-1.232455,1.154849,-0.5105,402.629362,954.107043)"/>
<path style=" stroke:none;fill-rule:nonzero;fill:rgb(52.156866%,20.392157%,3.921569%);fill-opacity:1;" d="M 494.613281 300.9375 C 494.046875 288.859375 487.628906 283.511719 488.890625 272.503906 C 486.121094 281.207031 492.792969 287.957031 492.414062 300.8125 M 501.976562 332.503906 L 477.617188 275.707031 L 498.027344 334.25 "/>
<path style=" stroke:none;fill-rule:nonzero;fill:rgb(52.156866%,20.392157%,3.921569%);fill-opacity:1;" d="M 506.699219 301.214844 C 510.507812 289.824219 506.496094 282.265625 511.605469 272.609375 C 505.929688 279.519531 509.671875 288.480469 504.710938 300.203125 M 502.183594 333.386719 L 500.042969 270.964844 L 497.910156 333.386719 "/>
<path style=" stroke:none;fill-rule:nonzero;fill:rgb(52.156866%,20.392157%,3.921569%);fill-opacity:1;" d="M 517.765625 306.410156 C 525.367188 297.441406 524.375 288.816406 532.558594 281.984375 C 524.835938 286.050781 525.082031 295.859375 516.292969 304.660156 M 502.058594 334.285156 L 522.464844 275.742188 L 498.109375 332.542969 "/>
<path style=" stroke:none;fill-rule:nonzero;fill:rgb(52.156866%,20.392157%,3.921569%);fill-opacity:1;" d="M 526.128906 315.726562 C 536.367188 310.546875 538.542969 302.171875 548.550781 299.203125 C 539.957031 299.804688 536.671875 308.964844 525.394531 313.511719 M 501.617188 335.066406 L 541.46875 289.3125 L 498.59375 331.84375 "/>
<path style="fill-rule:nonzero;fill:rgb(96.470588%,70.588237%,5.490196%);fill-opacity:1;stroke-width:1.112;stroke-linecap:butt;stroke-linejoin:miter;stroke:rgb(52.156866%,20.392157%,3.921569%);stroke-opacity:1;stroke-miterlimit:4;" d="M 396.840447 251.309375 L 425.293994 313.303125 C 425.293994 313.303125 425.783007 314.4875 426.573627 314.1625 C 427.364248 313.834375 426.872306 312.65 426.872306 312.65 L 403.156625 248.69375 M 402.477277 272.8125 C 402.131747 282.240625 407.929629 287.425 407.171219 295.84375 C 406.415737 304.265625 411.039402 309.025 412.111132 312.3 C 413.18579 315.571875 410.951555 317.53125 411.914941 317.996875 C 412.878326 318.4625 414.983719 315.878125 414.295587 311.221875 C 413.610382 306.565625 410.076017 305.184375 410.907632 294.903125 C 411.736319 284.61875 406.699775 282.225 407.926701 272.84375 " transform="matrix(-0.00000000000000023,-1.334,1.25,-0.000000000000000245,187.5,867.1)"/>
<path style="fill-rule:nonzero;fill:rgb(96.470588%,70.588237%,5.490196%);fill-opacity:1;stroke-width:1.112;stroke-linecap:butt;stroke-linejoin:miter;stroke:rgb(52.156866%,20.392157%,3.921569%);stroke-opacity:1;stroke-miterlimit:4;" d="M 396.84018 251.30884 L 425.294704 313.301149 C 425.294704 313.301149 425.783508 314.488877 426.573463 314.161667 C 427.363418 313.834457 426.871909 312.647849 426.871909 312.647849 L 403.157115 248.69228 M 402.476886 272.813728 C 402.131751 282.241584 407.930658 287.426491 407.170863 295.845619 C 406.41497 304.266515 411.038811 309.024882 412.112315 312.297562 C 413.18431 315.574251 410.951943 317.530583 411.915483 317.997385 C 412.877828 318.4613 414.983447 315.877591 414.297941 311.223123 C 413.608534 306.566887 410.07602 305.185441 410.907261 294.903416 C 411.737306 284.618504 406.700762 282.222929 407.927644 272.842504 " transform="matrix(0.478354,-1.232455,1.154849,0.5105,19.94593,698.857194)"/>
<path style="fill-rule:nonzero;fill:rgb(96.470588%,70.588237%,5.490196%);fill-opacity:1;stroke-width:1.112;stroke-linecap:butt;stroke-linejoin:miter;stroke:rgb(52.156866%,20.392157%,3.921569%);stroke-opacity:1;stroke-miterlimit:4;" d="M 396.839991 251.308273 L 425.29437 313.301691 C 425.29437 313.301691 425.783994 314.487025 426.572996 314.162062 C 427.364068 313.835029 426.874444 312.649694 426.874444 312.649694 L 403.157939 248.693797 M 402.479681 272.812645 C 402.129815 282.239994 407.929594 287.426886 407.170644 295.844687 C 406.413903 304.264698 411.038996 309.026448 412.111668 312.298062 C 413.18448 315.573957 410.952065 317.532368 411.914269 317.997636 C 412.876473 318.462904 414.983776 315.878304 414.297912 311.221092 C 413.609977 306.565952 410.076086 305.18545 410.90692 294.901483 C 411.735683 284.619586 406.702212 282.224016 407.928021 272.844383 " transform="matrix(0.883883,-0.94328,0.883883,0.94328,-74.52426,474.992067)"/>
<path style="fill-rule:nonzero;fill:rgb(96.470588%,70.588237%,5.490196%);fill-opacity:1;stroke-width:1.112;stroke-linecap:butt;stroke-linejoin:miter;stroke:rgb(52.156866%,20.392157%,3.921569%);stroke-opacity:1;stroke-miterlimit:4;" d="M 396.839765 251.308983 L 425.294142 313.303002 C 425.294142 313.303002 425.784027 314.48846 426.573202 314.159264 C 427.364144 313.833968 426.874259 312.648511 426.874259 312.648511 L 403.159114 248.693722 M 402.477113 272.813102 C 402.130208 282.241257 407.931076 287.426864 407.170893 295.84392 C 406.415363 304.266074 411.040091 309.024728 412.112366 312.29923 C 413.18464 315.573731 410.953439 317.5306 411.913295 317.997915 C 412.877159 318.463719 414.983175 315.87815 414.296712 311.223086 C 413.610248 306.568023 410.077266 305.18385 410.905915 294.902971 C 411.735686 284.619386 406.700648 282.223195 407.926466 272.845318 " transform="matrix(1.154849,-0.5105,0.478354,1.232455,-81.528339,229.586055)"/>
<path style=" stroke:none;fill-rule:nonzero;fill:rgb(52.156866%,20.392157%,3.921569%);fill-opacity:1;" d="M 530.511719 327.75 C 541.828125 327.144531 546.839844 320.296875 557.15625 321.640625 C 549 318.691406 542.675781 325.808594 530.628906 325.402344 M 500.933594 335.609375 L 554.15625 309.613281 L 499.296875 331.394531 "/>
<path style=" stroke:none;fill-rule:nonzero;fill:rgb(52.156866%,20.392157%,3.921569%);fill-opacity:1;" d="M 530.25 340.648438 C 540.925781 344.714844 548.011719 340.433594 557.054688 345.886719 C 550.578125 339.828125 542.183594 343.824219 531.203125 338.53125 M 500.105469 335.828125 L 558.597656 333.546875 L 500.105469 331.269531 "/>
<path style=" stroke:none;fill-rule:nonzero;fill:rgb(52.156866%,20.392157%,3.921569%);fill-opacity:1;" d="M 525.386719 352.460938 C 533.789062 360.574219 541.871094 359.511719 548.273438 368.246094 C 544.460938 360.003906 535.273438 360.265625 527.023438 350.890625 M 499.265625 335.695312 L 554.121094 357.476562 L 500.898438 331.480469 "/>
<path style=" stroke:none;fill-rule:nonzero;fill:rgb(52.156866%,20.392157%,3.921569%);fill-opacity:1;" d="M 516.652344 361.382812 C 521.507812 372.3125 529.355469 374.632812 532.136719 385.316406 C 531.570312 376.144531 522.988281 372.632812 518.730469 360.601562 M 498.53125 335.226562 L 541.402344 377.753906 L 501.554688 332 "/>
<path style="fill-rule:nonzero;fill:rgb(96.470588%,70.588237%,5.490196%);fill-opacity:1;stroke-width:1.5;stroke-linecap:butt;stroke-linejoin:miter;stroke:rgb(52.156866%,20.392157%,3.921569%);stroke-opacity:1;stroke-miterlimit:4;" d="M 427.778125 250 C 427.778125 265.340962 415.340625 277.777127 400 277.777127 C 384.659375 277.777127 372.221875 265.340962 372.221875 250 C 372.221875 234.659038 384.659375 222.222873 400 222.222873 C 415.340625 222.222873 427.778125 234.659038 427.778125 250 Z M 427.778125 250 " transform="matrix(1.25,0,0,1.334,0,0)"/>
<path style=" stroke:none;fill-rule:nonzero;fill:rgb(51.764709%,20.784314%,6.666667%);fill-opacity:1;" d="M 511.835938 325.574219 C 509.464844 325.574219 507.195312 326.671875 505.859375 328.953125 C 508.53125 331.519531 514.429688 331.796875 518.4375 328.660156 C 516.726562 326.714844 514.339844 325.597656 511.835938 325.574219 Z M 511.796875 326.160156 C 514.105469 326.113281 516.261719 327.246094 516.5625 328.371094 C 513.894531 331.503906 509.625 331.230469 506.953125 328.953125 C 508.125 326.957031 510.003906 326.195312 511.796875 326.160156 Z M 511.796875 326.160156 "/>
<path style=" stroke:none;fill-rule:nonzero;fill:rgb(52.156866%,20.392157%,3.921569%);fill-opacity:1;" d="M 512.289062 323.816406 C 508.816406 323.816406 508.015625 324.671875 506.414062 326.097656 C 504.808594 327.519531 504.007812 327.234375 503.742188 327.519531 C 503.476562 327.808594 503.742188 328.660156 504.273438 328.375 C 504.804688 328.089844 505.878906 327.519531 507.480469 326.097656 C 509.082031 324.667969 510.683594 324.671875 512.285156 324.671875 C 517.09375 324.671875 519.765625 328.945312 520.296875 328.660156 C 520.832031 328.375 517.628906 323.816406 512.285156 323.816406 Z M 512.289062 323.816406 "/>
<path style=" stroke:none;fill-rule:nonzero;fill:rgb(52.156866%,20.392157%,3.921569%);fill-opacity:1;" d="M 521.898438 325.523438 C 515.757812 319.824219 508.011719 318.964844 503.738281 323.242188 C 502.691406 324.738281 502.019531 326.335938 501.746094 328.003906 C 501.207031 331.25 502.160156 334.757812 504.542969 338.351562 C 504.273438 338.351562 503.738281 338.632812 503.472656 338.921875 C 501.351562 334.59375 500.601562 330.148438 501.296875 325.921875 C 501.480469 324.8125 501.761719 323.722656 502.132812 322.671875 C 508.007812 317.542969 516.019531 316.972656 521.894531 325.523438 Z M 521.898438 325.523438 "/>
<path style=" stroke:none;fill-rule:nonzero;fill:rgb(52.156866%,20.392157%,3.921569%);fill-opacity:1;" d="M 514.15625 328.363281 C 514.15625 329.78125 513.078125 330.929688 511.753906 330.929688 C 510.425781 330.929688 509.347656 329.78125 509.347656 328.363281 C 509.347656 326.949219 510.425781 325.796875 511.753906 325.796875 C 513.078125 325.796875 514.15625 326.949219 514.15625 328.363281 Z M 514.15625 328.363281 "/>
<path style=" stroke:none;fill-rule:nonzero;fill:rgb(52.156866%,20.392157%,3.921569%);fill-opacity:1;" d="M 518.699219 330.085938 C 514.160156 333.789062 509.617188 333.503906 506.949219 331.796875 C 504.277344 330.085938 504.277344 329.515625 504.808594 329.515625 C 505.34375 329.515625 505.875 330.085938 508.015625 331.222656 C 510.152344 332.367188 513.355469 332.367188 518.699219 330.085938 Z M 518.699219 330.085938 "/>
<path style=" stroke:none;fill-rule:nonzero;fill:rgb(52.156866%,20.392157%,3.921569%);fill-opacity:1;" d="M 494.6875 338.621094 C 493.546875 338.84375 492.734375 339.925781 492.734375 341.164062 C 492.734375 342.582031 493.832031 343.707031 495.15625 343.707031 C 495.933594 343.710938 496.664062 343.308594 497.109375 342.625 C 498.035156 343.367188 499.316406 343.445312 500 343.457031 C 500.105469 343.460938 500.242188 343.457031 500.3125 343.457031 C 500.996094 343.445312 502.277344 343.367188 503.203125 342.625 C 503.652344 343.3125 504.371094 343.707031 505.15625 343.707031 C 506.480469 343.707031 507.578125 342.582031 507.578125 341.164062 C 507.578125 339.925781 506.765625 338.84375 505.625 338.621094 C 506.265625 338.863281 506.679688 339.523438 506.679688 340.25 C 506.679688 340.703125 506.511719 341.136719 506.210938 341.457031 C 505.910156 341.777344 505.503906 341.957031 505.078125 341.957031 C 504.230469 341.957031 503.527344 341.238281 503.476562 340.332031 C 503.214844 340.886719 502.183594 342.539062 500.15625 342.625 C 498.128906 342.539062 497.097656 340.886719 496.835938 340.332031 C 496.785156 341.238281 496.085938 341.957031 495.234375 341.957031 C 494.808594 341.957031 494.402344 341.777344 494.101562 341.457031 C 493.800781 341.136719 493.632812 340.703125 493.632812 340.25 C 493.632812 339.527344 494.046875 338.863281 494.6875 338.621094 Z M 497.300781 346.214844 C 494.628906 346.214844 493.570312 348.796875 491.167969 350.507812 C 492.503906 349.9375 493.554688 348.8125 495.425781 347.671875 C 497.296875 346.53125 498.890625 347.921875 499.957031 347.921875 L 499.996094 347.921875 C 501.0625 347.921875 502.65625 346.53125 504.527344 347.671875 C 506.398438 348.8125 507.488281 349.9375 508.824219 350.507812 C 506.417969 348.796875 505.324219 346.214844 502.652344 346.214844 C 502.117188 346.214844 501.0625 346.519531 499.996094 347.089844 L 499.957031 347.089844 C 498.890625 346.519531 497.832031 346.214844 497.300781 346.214844 Z M 497.300781 346.214844 "/>
<path style=" stroke:none;fill-rule:nonzero;fill:rgb(52.156866%,20.392157%,3.921569%);fill-opacity:1;" d="M 496.398438 349.589844 C 495.34375 349.636719 493.949219 349.863281 491.945312 350.503906 C 496.757812 349.367188 497.816406 351.089844 499.953125 351.089844 L 499.992188 351.089844 C 502.128906 351.089844 503.191406 349.367188 508 350.503906 C 502.660156 348.792969 501.597656 349.921875 499.992188 349.921875 L 499.953125 349.921875 C 498.953125 349.921875 498.160156 349.503906 496.398438 349.589844 Z M 496.398438 349.589844 "/>
<path style=" stroke:none;fill-rule:nonzero;fill:rgb(52.156866%,20.392157%,3.921569%);fill-opacity:1;" d="M 492.1875 350.46875 C 491.878906 350.472656 491.539062 350.476562 491.171875 350.511719 C 496.78125 351.082031 494.085938 354.511719 499.960938 354.511719 L 500 354.511719 C 505.875 354.511719 503.21875 351.082031 508.828125 350.511719 C 502.953125 349.941406 504.808594 353.636719 500 353.636719 L 499.960938 353.636719 C 495.453125 353.636719 496.839844 350.40625 492.1875 350.46875 Z M 504.8125 359.726562 C 504.8125 356.894531 502.660156 354.597656 500.003906 354.597656 C 497.351562 354.597656 495.199219 356.894531 495.195312 359.726562 C 495.726562 357.347656 497.714844 355.671875 500.003906 355.671875 C 502.292969 355.671875 504.285156 357.347656 504.8125 359.726562 Z M 504.8125 359.726562 "/>
<path style=" stroke:none;fill-rule:nonzero;fill:rgb(52.156866%,20.392157%,3.921569%);fill-opacity:1;" d="M 478.414062 325.523438 C 484.554688 319.824219 492.300781 318.964844 496.574219 323.242188 C 497.621094 324.738281 498.292969 326.335938 498.566406 328.003906 C 499.105469 331.25 498.152344 334.757812 495.769531 338.351562 C 496.039062 338.351562 496.574219 338.632812 496.839844 338.921875 C 498.960938 334.59375 499.710938 330.148438 499.015625 325.921875 C 498.832031 324.8125 498.550781 323.722656 498.179688 322.671875 C 492.304688 317.542969 484.292969 316.972656 478.417969 325.523438 Z M 478.414062 325.523438 "/>
<path style=" stroke:none;fill-rule:nonzero;fill:rgb(52.156866%,20.392157%,3.921569%);fill-opacity:1;" d="M 488.023438 323.816406 C 491.496094 323.816406 492.296875 324.671875 493.898438 326.097656 C 495.503906 327.519531 496.304688 327.234375 496.570312 327.519531 C 496.835938 327.808594 496.570312 328.660156 496.039062 328.375 C 495.507812 328.089844 494.433594 327.519531 492.832031 326.097656 C 491.230469 324.667969 489.628906 324.671875 488.027344 324.671875 C 483.21875 324.671875 480.546875 328.945312 480.015625 328.660156 C 479.480469 328.375 482.683594 323.816406 488.027344 323.816406 Z M 488.023438 323.816406 "/>
<path style=" stroke:none;fill-rule:nonzero;fill:rgb(51.764709%,20.784314%,6.666667%);fill-opacity:1;" d="M 487.859375 325.574219 C 485.488281 325.574219 483.21875 326.671875 481.886719 328.953125 C 484.554688 331.519531 490.453125 331.796875 494.460938 328.660156 C 492.75 326.714844 490.363281 325.597656 487.859375 325.574219 Z M 487.824219 326.160156 C 490.128906 326.113281 492.285156 327.246094 492.585938 328.371094 C 489.917969 331.503906 485.648438 331.230469 482.980469 328.953125 C 484.148438 326.957031 486.027344 326.195312 487.824219 326.160156 Z M 487.824219 326.160156 "/>
<path style=" stroke:none;fill-rule:nonzero;fill:rgb(52.156866%,20.392157%,3.921569%);fill-opacity:1;" d="M 490.578125 328.363281 C 490.578125 329.78125 489.503906 330.929688 488.175781 330.929688 C 486.847656 330.929688 485.769531 329.78125 485.769531 328.363281 C 485.769531 326.949219 486.847656 325.796875 488.175781 325.796875 C 489.503906 325.796875 490.578125 326.949219 490.578125 328.363281 Z M 490.578125 328.363281 "/>
<path style=" stroke:none;fill-rule:nonzero;fill:rgb(52.156866%,20.392157%,3.921569%);fill-opacity:1;" d="M 481.613281 330.085938 C 486.152344 333.789062 490.695312 333.503906 493.363281 331.796875 C 496.035156 330.085938 496.035156 329.515625 495.503906 329.515625 C 494.96875 329.515625 494.4375 330.085938 492.296875 331.222656 C 490.160156 332.367188 486.957031 332.367188 481.613281 330.085938 Z M 481.613281 330.085938 "/>
</g>
</svg>
