<?xml version="1.0" encoding="UTF-8"?>
<svg xmlns="http://www.w3.org/2000/svg" xmlns:xlink="http://www.w3.org/1999/xlink" width="1000px" height="667px" viewBox="0 0 1000 667" version="1.1">
<g id="surface1">
<rect x="0" y="0" width="1000" height="667" style="fill:rgb(0%,21.960784%,57.647061%);fill-opacity:1;stroke:none;"/>
<path style=" stroke:none;fill-rule:nonzero;fill:rgb(100%,100%,100%);fill-opacity:1;" d="M 0 333.5 L 1000 333.5 L 1000 500.25 L 0 500.25 Z M 0 333.5 "/>
<path style=" stroke:none;fill-rule:nonzero;fill:rgb(81.176472%,12.54902%,15.294118%);fill-opacity:1;" d="M 0 389.082031 L 1000 389.082031 L 1000 444.667969 L 0 444.667969 Z M 0 389.082031 "/>
<path style=" stroke:none;fill-rule:nonzero;fill:rgb(96.862745%,81.960785%,8.627451%);fill-opacity:1;" d="M 375 216.773438 L 365.910156 248.492188 L 379.898438 253.644531 "/>
<path style=" stroke:none;fill-rule:nonzero;fill:rgb(96.862745%,81.960785%,8.627451%);fill-opacity:1;" d="M 375 216.773438 L 384.089844 248.492188 L 370.101562 253.644531 "/>
<path style=" stroke:none;fill-rule:nonzero;fill:rgb(96.862745%,81.960785%,8.627451%);fill-opacity:1;" d="M 402.972656 239.820312 L 373.558594 239.820312 L 373.558594 256.496094 "/>
<path style=" stroke:none;fill-rule:nonzero;fill:rgb(96.862745%,81.960785%,8.627451%);fill-opacity:1;" d="M 402.972656 239.820312 L 379.175781 259.421875 L 370.535156 245.929688 "/>
<path style=" stroke:none;fill-rule:nonzero;fill:rgb(96.862745%,81.960785%,8.627451%);fill-opacity:1;" d="M 392.289062 277.105469 L 383.199219 245.386719 L 369.214844 250.539062 "/>
<path style=" stroke:none;fill-rule:nonzero;fill:rgb(96.862745%,81.960785%,8.627451%);fill-opacity:1;" d="M 392.289062 277.105469 L 368.492188 257.503906 L 377.136719 244.011719 "/>
<path style=" stroke:none;fill-rule:nonzero;fill:rgb(96.862745%,81.960785%,8.627451%);fill-opacity:1;" d="M 357.710938 277.105469 L 381.507812 257.503906 L 372.863281 244.011719 "/>
<path style=" stroke:none;fill-rule:nonzero;fill:rgb(96.862745%,81.960785%,8.627451%);fill-opacity:1;" d="M 357.710938 277.105469 L 366.800781 245.386719 L 380.785156 250.539062 "/>
<path style=" stroke:none;fill-rule:nonzero;fill:rgb(96.862745%,81.960785%,8.627451%);fill-opacity:1;" d="M 347.027344 239.820312 L 370.824219 259.421875 L 379.464844 245.929688 "/>
<path style=" stroke:none;fill-rule:nonzero;fill:rgb(96.862745%,81.960785%,8.627451%);fill-opacity:1;" d="M 347.027344 239.820312 L 376.441406 239.820312 L 376.441406 256.496094 "/>
<path style=" stroke:none;fill-rule:nonzero;fill:rgb(96.862745%,81.960785%,8.627451%);fill-opacity:1;" d="M 375 550.273438 L 365.910156 581.992188 L 379.898438 587.144531 "/>
<path style=" stroke:none;fill-rule:nonzero;fill:rgb(96.862745%,81.960785%,8.627451%);fill-opacity:1;" d="M 375 550.273438 L 384.089844 581.992188 L 370.101562 587.144531 "/>
<path style=" stroke:none;fill-rule:nonzero;fill:rgb(96.862745%,81.960785%,8.627451%);fill-opacity:1;" d="M 402.972656 573.320312 L 373.558594 573.320312 L 373.558594 589.996094 "/>
<path style=" stroke:none;fill-rule:nonzero;fill:rgb(96.862745%,81.960785%,8.627451%);fill-opacity:1;" d="M 402.972656 573.320312 L 379.175781 592.921875 L 370.535156 579.429688 "/>
<path style=" stroke:none;fill-rule:nonzero;fill:rgb(96.862745%,81.960785%,8.627451%);fill-opacity:1;" d="M 392.289062 610.605469 L 383.199219 578.886719 L 369.214844 584.039062 "/>
<path style=" stroke:none;fill-rule:nonzero;fill:rgb(96.862745%,81.960785%,8.627451%);fill-opacity:1;" d="M 392.289062 610.605469 L 368.492188 591.003906 L 377.136719 577.511719 "/>
<path style=" stroke:none;fill-rule:nonzero;fill:rgb(96.862745%,81.960785%,8.627451%);fill-opacity:1;" d="M 357.710938 610.605469 L 381.507812 591.003906 L 372.863281 577.511719 "/>
<path style=" stroke:none;fill-rule:nonzero;fill:rgb(96.862745%,81.960785%,8.627451%);fill-opacity:1;" d="M 357.710938 610.605469 L 366.800781 578.886719 L 380.785156 584.039062 "/>
<path style=" stroke:none;fill-rule:nonzero;fill:rgb(96.862745%,81.960785%,8.627451%);fill-opacity:1;" d="M 347.027344 573.320312 L 370.824219 592.921875 L 379.464844 579.429688 "/>
<path style=" stroke:none;fill-rule:nonzero;fill:rgb(96.862745%,81.960785%,8.627451%);fill-opacity:1;" d="M 347.027344 573.320312 L 376.441406 573.320312 L 376.441406 589.996094 "/>
<path style=" stroke:none;fill-rule:nonzero;fill:rgb(96.862745%,81.960785%,8.627451%);fill-opacity:1;" d="M 542.832031 355.039062 L 513.421875 355.039062 L 513.421875 371.714844 "/>
<path style=" stroke:none;fill-rule:nonzero;fill:rgb(96.862745%,81.960785%,8.627451%);fill-opacity:1;" d="M 542.832031 355.039062 L 519.039062 374.644531 L 510.394531 361.152344 "/>
<path style=" stroke:none;fill-rule:nonzero;fill:rgb(96.862745%,81.960785%,8.627451%);fill-opacity:1;" d="M 532.148438 392.328125 L 523.058594 360.609375 L 509.074219 365.761719 "/>
<path style=" stroke:none;fill-rule:nonzero;fill:rgb(96.862745%,81.960785%,8.627451%);fill-opacity:1;" d="M 532.148438 392.328125 L 508.355469 372.722656 L 517 359.234375 "/>
<path style=" stroke:none;fill-rule:nonzero;fill:rgb(96.862745%,81.960785%,8.627451%);fill-opacity:1;" d="M 497.574219 392.328125 L 521.367188 372.722656 L 512.722656 359.234375 "/>
<path style=" stroke:none;fill-rule:nonzero;fill:rgb(96.862745%,81.960785%,8.627451%);fill-opacity:1;" d="M 497.574219 392.328125 L 506.664062 360.609375 L 520.648438 365.761719 "/>
<path style=" stroke:none;fill-rule:nonzero;fill:rgb(96.862745%,81.960785%,8.627451%);fill-opacity:1;" d="M 486.890625 355.039062 L 510.683594 374.644531 L 519.328125 361.152344 "/>
<path style=" stroke:none;fill-rule:nonzero;fill:rgb(96.862745%,81.960785%,8.627451%);fill-opacity:1;" d="M 486.890625 355.039062 L 516.300781 355.039062 L 516.300781 371.714844 "/>
<path style=" stroke:none;fill-rule:nonzero;fill:rgb(96.862745%,81.960785%,8.627451%);fill-opacity:1;" d="M 514.859375 331.996094 L 505.773438 363.714844 L 519.757812 368.867188 "/>
<path style=" stroke:none;fill-rule:nonzero;fill:rgb(96.862745%,81.960785%,8.627451%);fill-opacity:1;" d="M 514.859375 331.996094 L 523.949219 363.714844 L 509.964844 368.867188 "/>
<path style=" stroke:none;fill-rule:nonzero;fill:rgb(96.862745%,81.960785%,8.627451%);fill-opacity:1;" d="M 263.109375 458.097656 L 233.699219 458.097656 L 233.699219 474.773438 "/>
<path style=" stroke:none;fill-rule:nonzero;fill:rgb(96.862745%,81.960785%,8.627451%);fill-opacity:1;" d="M 263.109375 458.097656 L 239.316406 477.699219 L 230.671875 464.210938 "/>
<path style=" stroke:none;fill-rule:nonzero;fill:rgb(96.862745%,81.960785%,8.627451%);fill-opacity:1;" d="M 252.425781 495.382812 L 243.335938 463.667969 L 229.351562 468.820312 "/>
<path style=" stroke:none;fill-rule:nonzero;fill:rgb(96.862745%,81.960785%,8.627451%);fill-opacity:1;" d="M 252.425781 495.382812 L 228.632812 475.78125 L 237.277344 462.292969 "/>
<path style=" stroke:none;fill-rule:nonzero;fill:rgb(96.862745%,81.960785%,8.627451%);fill-opacity:1;" d="M 217.851562 495.382812 L 241.644531 475.78125 L 233 462.292969 "/>
<path style=" stroke:none;fill-rule:nonzero;fill:rgb(96.862745%,81.960785%,8.627451%);fill-opacity:1;" d="M 217.851562 495.382812 L 226.941406 463.667969 L 240.925781 468.820312 "/>
<path style=" stroke:none;fill-rule:nonzero;fill:rgb(96.862745%,81.960785%,8.627451%);fill-opacity:1;" d="M 207.167969 458.097656 L 230.960938 477.699219 L 239.605469 464.210938 "/>
<path style=" stroke:none;fill-rule:nonzero;fill:rgb(96.862745%,81.960785%,8.627451%);fill-opacity:1;" d="M 207.167969 458.097656 L 236.578125 458.097656 L 236.578125 474.773438 "/>
<path style=" stroke:none;fill-rule:nonzero;fill:rgb(96.862745%,81.960785%,8.627451%);fill-opacity:1;" d="M 235.140625 435.054688 L 226.050781 466.769531 L 240.035156 471.925781 "/>
<path style=" stroke:none;fill-rule:nonzero;fill:rgb(96.862745%,81.960785%,8.627451%);fill-opacity:1;" d="M 235.140625 435.054688 L 244.226562 466.769531 L 230.242188 471.925781 "/>
<path style=" stroke:none;fill-rule:nonzero;fill:rgb(96.862745%,81.960785%,8.627451%);fill-opacity:1;" d="M 478.726562 578.757812 L 469.636719 547.042969 L 455.652344 552.195312 "/>
<path style=" stroke:none;fill-rule:nonzero;fill:rgb(96.862745%,81.960785%,8.627451%);fill-opacity:1;" d="M 478.726562 578.757812 L 454.933594 559.15625 L 463.574219 545.667969 "/>
<path style=" stroke:none;fill-rule:nonzero;fill:rgb(96.862745%,81.960785%,8.627451%);fill-opacity:1;" d="M 444.152344 578.757812 L 467.945312 559.15625 L 459.300781 545.667969 "/>
<path style=" stroke:none;fill-rule:nonzero;fill:rgb(96.862745%,81.960785%,8.627451%);fill-opacity:1;" d="M 444.152344 578.757812 L 453.238281 547.042969 L 467.226562 552.195312 "/>
<path style=" stroke:none;fill-rule:nonzero;fill:rgb(96.862745%,81.960785%,8.627451%);fill-opacity:1;" d="M 433.464844 541.472656 L 457.261719 561.074219 L 465.90625 547.585938 "/>
<path style=" stroke:none;fill-rule:nonzero;fill:rgb(96.862745%,81.960785%,8.627451%);fill-opacity:1;" d="M 433.464844 541.472656 L 462.878906 541.472656 L 462.878906 558.148438 "/>
<path style=" stroke:none;fill-rule:nonzero;fill:rgb(96.862745%,81.960785%,8.627451%);fill-opacity:1;" d="M 461.4375 518.429688 L 452.351562 550.144531 L 466.335938 555.300781 "/>
<path style=" stroke:none;fill-rule:nonzero;fill:rgb(96.862745%,81.960785%,8.627451%);fill-opacity:1;" d="M 461.4375 518.429688 L 470.527344 550.144531 L 456.542969 555.300781 "/>
<path style=" stroke:none;fill-rule:nonzero;fill:rgb(96.862745%,81.960785%,8.627451%);fill-opacity:1;" d="M 489.410156 541.472656 L 460 541.472656 L 460 558.148438 "/>
<path style=" stroke:none;fill-rule:nonzero;fill:rgb(96.862745%,81.960785%,8.627451%);fill-opacity:1;" d="M 489.410156 541.472656 L 465.617188 561.074219 L 456.972656 547.585938 "/>
<path style=" stroke:none;fill-rule:nonzero;fill:rgb(96.862745%,81.960785%,8.627451%);fill-opacity:1;" d="M 305.847656 308.953125 L 296.761719 277.234375 L 282.773438 282.386719 "/>
<path style=" stroke:none;fill-rule:nonzero;fill:rgb(96.862745%,81.960785%,8.627451%);fill-opacity:1;" d="M 305.847656 308.953125 L 282.054688 289.347656 L 290.699219 275.859375 "/>
<path style=" stroke:none;fill-rule:nonzero;fill:rgb(96.862745%,81.960785%,8.627451%);fill-opacity:1;" d="M 271.273438 308.953125 L 295.066406 289.347656 L 286.425781 275.859375 "/>
<path style=" stroke:none;fill-rule:nonzero;fill:rgb(96.862745%,81.960785%,8.627451%);fill-opacity:1;" d="M 271.273438 308.953125 L 280.363281 277.234375 L 294.347656 282.386719 "/>
<path style=" stroke:none;fill-rule:nonzero;fill:rgb(96.862745%,81.960785%,8.627451%);fill-opacity:1;" d="M 260.589844 271.664062 L 284.382812 291.269531 L 293.027344 277.777344 "/>
<path style=" stroke:none;fill-rule:nonzero;fill:rgb(96.862745%,81.960785%,8.627451%);fill-opacity:1;" d="M 260.589844 271.664062 L 290 271.664062 L 290 288.339844 "/>
<path style=" stroke:none;fill-rule:nonzero;fill:rgb(96.862745%,81.960785%,8.627451%);fill-opacity:1;" d="M 288.5625 248.621094 L 279.472656 280.339844 L 293.457031 285.492188 "/>
<path style=" stroke:none;fill-rule:nonzero;fill:rgb(96.862745%,81.960785%,8.627451%);fill-opacity:1;" d="M 288.5625 248.621094 L 297.648438 280.339844 L 283.664062 285.492188 "/>
<path style=" stroke:none;fill-rule:nonzero;fill:rgb(96.862745%,81.960785%,8.627451%);fill-opacity:1;" d="M 316.535156 271.664062 L 287.121094 271.664062 L 287.121094 288.339844 "/>
<path style=" stroke:none;fill-rule:nonzero;fill:rgb(96.862745%,81.960785%,8.627451%);fill-opacity:1;" d="M 316.535156 271.664062 L 292.738281 291.269531 L 284.09375 277.777344 "/>
<path style=" stroke:none;fill-rule:nonzero;fill:rgb(96.862745%,81.960785%,8.627451%);fill-opacity:1;" d="M 271.273438 578.757812 L 295.066406 559.15625 L 286.425781 545.667969 "/>
<path style=" stroke:none;fill-rule:nonzero;fill:rgb(96.862745%,81.960785%,8.627451%);fill-opacity:1;" d="M 271.273438 578.757812 L 280.363281 547.042969 L 294.347656 552.195312 "/>
<path style=" stroke:none;fill-rule:nonzero;fill:rgb(96.862745%,81.960785%,8.627451%);fill-opacity:1;" d="M 260.589844 541.472656 L 284.382812 561.074219 L 293.027344 547.585938 "/>
<path style=" stroke:none;fill-rule:nonzero;fill:rgb(96.862745%,81.960785%,8.627451%);fill-opacity:1;" d="M 260.589844 541.472656 L 290 541.472656 L 290 558.148438 "/>
<path style=" stroke:none;fill-rule:nonzero;fill:rgb(96.862745%,81.960785%,8.627451%);fill-opacity:1;" d="M 288.5625 518.429688 L 279.472656 550.144531 L 293.457031 555.300781 "/>
<path style=" stroke:none;fill-rule:nonzero;fill:rgb(96.862745%,81.960785%,8.627451%);fill-opacity:1;" d="M 288.5625 518.429688 L 297.648438 550.144531 L 283.664062 555.300781 "/>
<path style=" stroke:none;fill-rule:nonzero;fill:rgb(96.862745%,81.960785%,8.627451%);fill-opacity:1;" d="M 316.535156 541.472656 L 287.121094 541.472656 L 287.121094 558.148438 "/>
<path style=" stroke:none;fill-rule:nonzero;fill:rgb(96.862745%,81.960785%,8.627451%);fill-opacity:1;" d="M 316.535156 541.472656 L 292.738281 561.074219 L 284.09375 547.585938 "/>
<path style=" stroke:none;fill-rule:nonzero;fill:rgb(96.862745%,81.960785%,8.627451%);fill-opacity:1;" d="M 305.847656 578.757812 L 296.761719 547.042969 L 282.773438 552.195312 "/>
<path style=" stroke:none;fill-rule:nonzero;fill:rgb(96.862745%,81.960785%,8.627451%);fill-opacity:1;" d="M 305.847656 578.757812 L 282.054688 559.15625 L 290.699219 545.667969 "/>
<path style=" stroke:none;fill-rule:nonzero;fill:rgb(96.862745%,81.960785%,8.627451%);fill-opacity:1;" d="M 444.152344 308.953125 L 467.945312 289.347656 L 459.300781 275.859375 "/>
<path style=" stroke:none;fill-rule:nonzero;fill:rgb(96.862745%,81.960785%,8.627451%);fill-opacity:1;" d="M 444.152344 308.953125 L 453.238281 277.234375 L 467.226562 282.386719 "/>
<path style=" stroke:none;fill-rule:nonzero;fill:rgb(96.862745%,81.960785%,8.627451%);fill-opacity:1;" d="M 433.464844 271.664062 L 457.261719 291.269531 L 465.90625 277.777344 "/>
<path style=" stroke:none;fill-rule:nonzero;fill:rgb(96.862745%,81.960785%,8.627451%);fill-opacity:1;" d="M 433.464844 271.664062 L 462.878906 271.664062 L 462.878906 288.339844 "/>
<path style=" stroke:none;fill-rule:nonzero;fill:rgb(96.862745%,81.960785%,8.627451%);fill-opacity:1;" d="M 461.4375 248.621094 L 452.351562 280.339844 L 466.335938 285.492188 "/>
<path style=" stroke:none;fill-rule:nonzero;fill:rgb(96.862745%,81.960785%,8.627451%);fill-opacity:1;" d="M 461.4375 248.621094 L 470.527344 280.339844 L 456.542969 285.492188 "/>
<path style=" stroke:none;fill-rule:nonzero;fill:rgb(96.862745%,81.960785%,8.627451%);fill-opacity:1;" d="M 489.410156 271.664062 L 460 271.664062 L 460 288.339844 "/>
<path style=" stroke:none;fill-rule:nonzero;fill:rgb(96.862745%,81.960785%,8.627451%);fill-opacity:1;" d="M 489.410156 271.664062 L 465.617188 291.269531 L 456.972656 277.777344 "/>
<path style=" stroke:none;fill-rule:nonzero;fill:rgb(96.862745%,81.960785%,8.627451%);fill-opacity:1;" d="M 478.726562 308.953125 L 469.636719 277.234375 L 455.652344 282.386719 "/>
<path style=" stroke:none;fill-rule:nonzero;fill:rgb(96.862745%,81.960785%,8.627451%);fill-opacity:1;" d="M 478.726562 308.953125 L 454.933594 289.347656 L 463.574219 275.859375 "/>
<path style=" stroke:none;fill-rule:nonzero;fill:rgb(96.862745%,81.960785%,8.627451%);fill-opacity:1;" d="M 207.167969 355.039062 L 230.960938 374.644531 L 239.605469 361.152344 "/>
<path style=" stroke:none;fill-rule:nonzero;fill:rgb(96.862745%,81.960785%,8.627451%);fill-opacity:1;" d="M 207.167969 355.039062 L 236.578125 355.039062 L 236.578125 371.714844 "/>
<path style=" stroke:none;fill-rule:nonzero;fill:rgb(96.862745%,81.960785%,8.627451%);fill-opacity:1;" d="M 235.140625 331.996094 L 226.050781 363.714844 L 240.035156 368.867188 "/>
<path style=" stroke:none;fill-rule:nonzero;fill:rgb(96.862745%,81.960785%,8.627451%);fill-opacity:1;" d="M 235.140625 331.996094 L 244.226562 363.714844 L 230.242188 368.867188 "/>
<path style=" stroke:none;fill-rule:nonzero;fill:rgb(96.862745%,81.960785%,8.627451%);fill-opacity:1;" d="M 263.109375 355.039062 L 233.699219 355.039062 L 233.699219 371.714844 "/>
<path style=" stroke:none;fill-rule:nonzero;fill:rgb(96.862745%,81.960785%,8.627451%);fill-opacity:1;" d="M 263.109375 355.039062 L 239.316406 374.644531 L 230.671875 361.152344 "/>
<path style=" stroke:none;fill-rule:nonzero;fill:rgb(96.862745%,81.960785%,8.627451%);fill-opacity:1;" d="M 252.425781 392.328125 L 243.335938 360.609375 L 229.351562 365.761719 "/>
<path style=" stroke:none;fill-rule:nonzero;fill:rgb(96.862745%,81.960785%,8.627451%);fill-opacity:1;" d="M 252.425781 392.328125 L 228.632812 372.722656 L 237.277344 359.234375 "/>
<path style=" stroke:none;fill-rule:nonzero;fill:rgb(96.862745%,81.960785%,8.627451%);fill-opacity:1;" d="M 217.851562 392.328125 L 241.644531 372.722656 L 233 359.234375 "/>
<path style=" stroke:none;fill-rule:nonzero;fill:rgb(96.862745%,81.960785%,8.627451%);fill-opacity:1;" d="M 217.851562 392.328125 L 226.941406 360.609375 L 240.925781 365.761719 "/>
<path style=" stroke:none;fill-rule:nonzero;fill:rgb(96.862745%,81.960785%,8.627451%);fill-opacity:1;" d="M 486.890625 458.097656 L 510.683594 477.699219 L 519.328125 464.210938 "/>
<path style=" stroke:none;fill-rule:nonzero;fill:rgb(96.862745%,81.960785%,8.627451%);fill-opacity:1;" d="M 486.890625 458.097656 L 516.300781 458.097656 L 516.300781 474.773438 "/>
<path style=" stroke:none;fill-rule:nonzero;fill:rgb(96.862745%,81.960785%,8.627451%);fill-opacity:1;" d="M 514.859375 435.054688 L 505.773438 466.769531 L 519.757812 471.925781 "/>
<path style=" stroke:none;fill-rule:nonzero;fill:rgb(96.862745%,81.960785%,8.627451%);fill-opacity:1;" d="M 514.859375 435.054688 L 523.949219 466.769531 L 509.964844 471.925781 "/>
<path style=" stroke:none;fill-rule:nonzero;fill:rgb(96.862745%,81.960785%,8.627451%);fill-opacity:1;" d="M 542.832031 458.097656 L 513.421875 458.097656 L 513.421875 474.773438 "/>
<path style=" stroke:none;fill-rule:nonzero;fill:rgb(96.862745%,81.960785%,8.627451%);fill-opacity:1;" d="M 542.832031 458.097656 L 519.039062 477.699219 L 510.394531 464.210938 "/>
<path style=" stroke:none;fill-rule:nonzero;fill:rgb(96.862745%,81.960785%,8.627451%);fill-opacity:1;" d="M 532.148438 495.382812 L 523.058594 463.667969 L 509.074219 468.820312 "/>
<path style=" stroke:none;fill-rule:nonzero;fill:rgb(96.862745%,81.960785%,8.627451%);fill-opacity:1;" d="M 532.148438 495.382812 L 508.355469 475.78125 L 517 462.292969 "/>
<path style=" stroke:none;fill-rule:nonzero;fill:rgb(96.862745%,81.960785%,8.627451%);fill-opacity:1;" d="M 497.574219 495.382812 L 521.367188 475.78125 L 512.722656 462.292969 "/>
<path style=" stroke:none;fill-rule:nonzero;fill:rgb(96.862745%,81.960785%,8.627451%);fill-opacity:1;" d="M 497.574219 495.382812 L 506.664062 463.667969 L 520.648438 468.820312 "/>
</g>
</svg>
