<?xml version="1.0" encoding="UTF-8"?>
<svg xmlns="http://www.w3.org/2000/svg" xmlns:xlink="http://www.w3.org/1999/xlink" width="1000px" height="667px" viewBox="0 0 1000 667" version="1.1">
<g id="surface1">
<rect x="0" y="0" width="1000" height="667" style="fill:rgb(91.764706%,1.568628%,21.568628%);fill-opacity:1;stroke:none;"/>
<path style=" stroke:none;fill-rule:nonzero;fill:rgb(25.490198%,53.725493%,86.666667%);fill-opacity:1;" d="M 0 667 L 1000 667 L 1000 333.5 "/>
<path style=" stroke:none;fill-rule:nonzero;fill:rgb(7.058824%,67.843139%,16.862746%);fill-opacity:1;" d="M 0 0 L 1000 0 L 1000 333.5 "/>
<path style=" stroke:none;fill-rule:nonzero;fill:rgb(100%,78.039217%,14.901961%);fill-opacity:1;" d="M 230.25 492.460938 C 219.4375 496.445312 213.242188 507.632812 213.402344 518.1875 L 266.609375 517.902344 C 267.089844 506.558594 260.09375 496.070312 249.445312 491.9375 C 301.542969 490.5 346.800781 464.46875 355.027344 447.765625 C 346.886719 443.054688 337.476562 450.636719 330.769531 448.890625 C 346.695312 439.074219 394.414062 397.871094 386.65625 353.699219 C 380.625 378.234375 362.355469 398.53125 354.574219 403.984375 C 372.402344 367.875 396.742188 330.28125 375.625 301.171875 C 376.691406 318.042969 367.585938 336.613281 363.566406 338.007812 C 373.90625 299.855469 383.773438 251.953125 361.371094 220.378906 C 364.3125 231.789062 363.125 263.988281 359.074219 265.433594 C 357.824219 239.492188 354.507812 184.921875 334.027344 185.699219 C 340.53125 193.425781 343.378906 214.507812 343.523438 235.804688 C 338.855469 221.214844 333.550781 210.230469 322.203125 199.457031 C 313.027344 175.976562 296.695312 156.523438 280.363281 142.585938 C 282.195312 159.675781 283.714844 173.160156 301.601562 190.886719 C 292.277344 190.113281 282.953125 166.527344 272.984375 165.871094 C 265.054688 165.363281 258.832031 175.457031 245.875 169.648438 C 247.308594 175.351562 253.355469 177.878906 254.632812 182.101562 C 251.855469 184.65625 245.265625 181.703125 239.789062 177.898438 C 247.324219 191.585938 259 199.636719 268.910156 196.921875 C 280.695312 193.898438 293.335938 195.496094 305.386719 204.644531 C 302.308594 206.753906 290.328125 206.742188 282.636719 205.457031 C 289.628906 214.898438 294.316406 221.152344 306.46875 221.050781 C 317.324219 220.957031 323.015625 213.324219 325.800781 218.050781 C 332.609375 228.8125 337.191406 239.570312 342.886719 252.238281 C 330.304688 254.09375 334.097656 233.257812 320.089844 222.601562 C 312.214844 244.339844 329.144531 270.105469 340.664062 280.816406 C 340.820312 297.152344 342.609375 310.820312 347.804688 323.261719 C 351.304688 332.03125 355.832031 341.007812 354.125 360.800781 C 347.230469 354.097656 340.488281 331.496094 342.96875 313.554688 C 334.335938 316.695312 330.960938 336.945312 335.027344 347.140625 C 338.070312 354.902344 340.097656 369.753906 336.589844 376.390625 C 333.175781 382.578125 332.816406 381.886719 332.863281 395.160156 C 332.984375 403.105469 329.65625 412.5 324.238281 419.050781 C 325.371094 413.453125 326.660156 403.824219 325.40625 397.800781 C 321.125 407.496094 310.378906 417.523438 306.996094 427.945312 C 303.671875 438.386719 302.832031 456.480469 286.75 460.652344 C 266.0625 466.128906 258.925781 470.910156 245.613281 478.175781 C 244.136719 464.6875 248.558594 436.5625 257.011719 438.167969 C 265.265625 440.128906 290.292969 426.664062 281.339844 398.539062 C 279.570312 407.40625 273.671875 416.054688 267.296875 416.4375 C 274.1875 404.515625 286.480469 392.167969 280.492188 372.1875 C 277.164062 380.679688 271.929688 390.871094 263.992188 396.609375 C 272.5 374.851562 264.980469 368.339844 254.875 386.261719 C 251.054688 393.175781 248.75 407.027344 246.324219 424.621094 C 242.355469 410.3125 242.617188 391.476562 237.914062 376.179688 C 233 359.640625 244.433594 355.273438 249.816406 356.601562 C 262.992188 361.292969 285.015625 361.289062 283.378906 332.25 C 277.6875 342.074219 267.707031 345.109375 256.929688 341.570312 C 269.035156 329.78125 278.589844 307.601562 265.101562 296.023438 C 264.652344 308.300781 257.53125 322.070312 248.019531 328.410156 C 245.792969 318.050781 245.792969 307.054688 247.703125 295 C 242.390625 302.457031 238.515625 317.972656 235.429688 335.609375 C 235.199219 318.175781 237.671875 305.613281 239.503906 296.234375 C 242.28125 282.535156 249.191406 291.449219 259.765625 292.460938 C 269.949219 293.230469 283.96875 285.722656 281.289062 267.300781 C 277.8125 274.589844 270.675781 277.425781 263.382812 276.65625 C 272.160156 269.558594 287.457031 256.953125 279.070312 237.558594 C 275.546875 244.902344 274.402344 251.1875 264.203125 253.441406 C 266.875 245.242188 267.320312 233.652344 275.234375 229.058594 C 261.113281 225.308594 253.027344 237.671875 248.917969 257.035156 C 247.25 243.609375 245.265625 238.667969 244.871094 228.847656 C 252.507812 217.539062 253.304688 195.410156 236.777344 190.464844 C 235.796875 201.875 236.089844 204.597656 237.96875 213.890625 C 230.210938 207.742188 219.277344 204.347656 211.996094 213.042969 C 216.929688 220.144531 224.5625 226.394531 236.328125 218.652344 C 233.550781 230.78125 226.320312 228.703125 216.386719 224.078125 C 222.457031 239.292969 230.121094 241.996094 238.578125 240.242188 C 243.003906 255.8125 243.199219 267.644531 230.261719 290.324219 C 230.859375 276.230469 230.109375 265.730469 221.714844 254.335938 C 214.523438 244.941406 208.679688 254.738281 219.917969 275.632812 C 213.097656 268.933594 205.382812 255.335938 203.058594 241.742188 C 200.808594 258.535156 202.835938 278.328125 209.804688 289.425781 C 206.507812 294.125 202.757812 288.925781 197.214844 277.429688 C 199.3125 314.21875 211.078125 321.316406 226.886719 313.113281 C 227.339844 333.304688 227.339844 352.003906 228.238281 376.390625 C 219.019531 358.699219 207.332031 345.503906 200.808594 342.207031 C 198.789062 352.101562 206.433594 364.996094 210.703125 372.191406 C 204.183594 370.394531 190.019531 356 190.019531 356 C 188.597656 372.394531 204.484375 387.589844 214.75 394.386719 C 202.6875 393.683594 197.363281 387.589844 189.570312 377.59375 C 189.722656 423.074219 226.511719 415.175781 233.40625 408.179688 C 234.308594 430.570312 235.589844 456.457031 236.488281 478.851562 C 226.085938 476.429688 226.90625 472.257812 218.003906 471.15625 C 193.304688 469.875 173.710938 431.601562 167.222656 403.449219 C 165.359375 408.082031 166.835938 412.929688 165.132812 418.625 C 161.125 404.804688 156 386.957031 149.128906 378.652344 C 150.878906 386.710938 151.0625 394.894531 150.457031 409.953125 C 148.097656 400.195312 145.90625 397.203125 145.746094 385.753906 C 145.894531 376.960938 152.105469 370.476562 151.761719 358.109375 C 151.507812 349.082031 145.332031 329.515625 144.425781 314.367188 C 141.4375 329.957031 139.558594 346.390625 134.980469 356.042969 C 137.257812 339.394531 136.527344 327.90625 140.375 316.699219 C 144.820312 304.90625 148.601562 294.375 145.640625 282.46875 C 142.804688 287.066406 143.78125 291.242188 136.648438 302.414062 C 135.101562 290.265625 145.871094 270.820312 156.320312 263.003906 C 163.695312 257.824219 172.984375 239.289062 166.933594 226.585938 C 160 233.230469 156.886719 242.203125 147.09375 257.535156 C 154.078125 221.109375 172.230469 211.582031 193.957031 211.457031 C 198.765625 211.425781 208.457031 209.109375 211.179688 200.621094 C 205.054688 203.777344 197.8125 204.179688 191.367188 202.457031 C 196.058594 193.273438 205.933594 194.46875 215.136719 194.414062 C 222.355469 194.367188 233.628906 193.0625 238.183594 179.347656 C 229.375 184.433594 215.644531 185.492188 206.996094 181.890625 C 220.746094 172.382812 242.289062 171.359375 253.335938 158.886719 C 240.746094 146.347656 209.234375 161.804688 189.332031 180.015625 C 194.894531 173.230469 203.683594 161.191406 208.535156 151.476562 C 197.648438 144.515625 170.121094 185.199219 160.636719 209.371094 C 151.628906 216.15625 148.027344 226.792969 144.527344 234.21875 C 149.328125 212.582031 149.835938 196.882812 153.839844 179.066406 C 122.964844 193.246094 135.800781 269.351562 129.082031 287.558594 C 129.875 267.457031 129.234375 241.632812 123.027344 228.316406 C 113.519531 237.996094 112.75 294.960938 121.679688 342.386719 C 118.457031 329.695312 112.371094 317.847656 110.417969 302.402344 C 96.34375 336.648438 118.667969 377.050781 137.339844 408.964844 C 123.285156 399.199219 109.386719 378.191406 100.257812 360.582031 C 102.777344 421.875 150.757812 434.609375 158.207031 449.675781 C 148.097656 443.394531 128.769531 430.972656 120.566406 443.992188 C 133.917969 448.101562 144.570312 452.855469 153.152344 460.359375 C 165.605469 481.101562 189.183594 490.171875 230.25 492.460938 Z M 230.25 492.460938 "/>
</g>
</svg>
