<?xml version="1.0" encoding="UTF-8"?>
<svg xmlns="http://www.w3.org/2000/svg" xmlns:xlink="http://www.w3.org/1999/xlink" width="1000px" height="667px" viewBox="0 0 1000 667" version="1.1">
<g id="surface1">
<rect x="0" y="0" width="1000" height="667" style="fill:rgb(85.490197%,7.058824%,10.196079%);fill-opacity:1;stroke:none;"/>
<path style=" stroke:none;fill-rule:nonzero;fill:rgb(98.823529%,86.666667%,3.529412%);fill-opacity:1;" d="M 0 0 L 1000 0 L 1000 444.667969 L 0 444.667969 Z M 0 0 "/>
<path style=" stroke:none;fill-rule:nonzero;fill:rgb(2.745098%,53.725493%,18.82353%);fill-opacity:1;" d="M 0 0 L 1000 0 L 1000 222.332031 L 0 222.332031 Z M 0 0 "/>
<path style=" stroke:none;fill-rule:nonzero;fill:rgb(5.882353%,27.843139%,68.627453%);fill-opacity:1;" d="M 666.667969 333.5 C 666.667969 456.292969 592.046875 555.832031 500 555.832031 C 407.953125 555.832031 333.332031 456.292969 333.332031 333.5 C 333.332031 210.707031 407.953125 111.167969 500 111.167969 C 592.046875 111.167969 666.667969 210.707031 666.667969 333.5 Z M 666.667969 333.5 "/>
<path style=" stroke:none;fill-rule:nonzero;fill:rgb(98.823529%,86.666667%,3.529412%);fill-opacity:1;" d="M 500 155.632812 L 494.160156 179.617188 L 518.253906 278.535156 L 486.128906 278.535156 L 482.519531 293.359375 L 585.523438 293.359375 L 600.816406 278.535156 L 529.933594 278.535156 Z M 500 155.632812 "/>
<path style="fill-rule:nonzero;fill:rgb(0%,0%,0%);fill-opacity:1;stroke-width:4;stroke-linecap:butt;stroke-linejoin:miter;stroke:rgb(98.823529%,86.666667%,3.529412%);stroke-opacity:1;stroke-miterlimit:4;" d="M 25.86375 -35.596889 L 56.427188 -77.666323 " transform="matrix(1.388889,0,0,1.852778,500,333.5)"/>
<path style=" stroke:none;fill-rule:nonzero;fill:rgb(98.823529%,86.666667%,3.529412%);fill-opacity:1;" d="M 626.808594 278.535156 L 607.90625 278.535156 L 544.828125 339.671875 L 534.898438 298.914062 L 523.214844 298.914062 L 555.046875 429.597656 L 570.339844 444.421875 L 548.4375 354.492188 Z M 626.808594 278.535156 "/>
<path style="fill-rule:nonzero;fill:rgb(0%,0%,0%);fill-opacity:1;stroke-width:4;stroke-linecap:butt;stroke-linejoin:miter;stroke:rgb(98.823529%,86.666667%,3.529412%);stroke-opacity:1;stroke-miterlimit:4;" d="M 25.86259 -35.597472 L 56.428144 -77.666186 " transform="matrix(0.42919,1.762096,-1.320912,0.57254,500,333.5)"/>
<path style=" stroke:none;fill-rule:nonzero;fill:rgb(98.823529%,86.666667%,3.529412%);fill-opacity:1;" d="M 578.371094 477.398438 L 572.53125 453.414062 L 509.453125 392.28125 L 535.441406 367.089844 L 531.832031 352.269531 L 448.5 433.035156 L 442.65625 457.015625 L 500 401.4375 Z M 578.371094 477.398438 "/>
<path style="fill:none;stroke-width:4;stroke-linecap:butt;stroke-linejoin:miter;stroke:rgb(98.823529%,86.666667%,3.529412%);stroke-opacity:1;stroke-miterlimit:4;" d="M 25.862937 -35.597278 L 56.427549 -77.665859 " transform="matrix(-1.123635,1.089035,-0.816368,-1.498929,500,333.5)"/>
<path style=" stroke:none;fill-rule:nonzero;fill:rgb(98.823529%,86.666667%,3.529412%);fill-opacity:1;" d="M 421.628906 477.398438 L 436.921875 462.574219 L 461.015625 363.65625 L 487.003906 388.84375 L 496.457031 379.683594 L 413.125 298.917969 L 394.21875 298.917969 L 451.5625 354.496094 Z M 421.628906 477.398438 "/>
<path style="fill-rule:nonzero;fill:rgb(0%,0%,0%);fill-opacity:1;stroke-width:4;stroke-linecap:butt;stroke-linejoin:miter;stroke:rgb(98.823529%,86.666667%,3.529412%);stroke-opacity:1;stroke-miterlimit:4;" d="M 25.863228 -35.597009 L 56.427677 -77.666525 " transform="matrix(-1.123635,-1.089035,0.816368,-1.498929,500,333.5)"/>
<path style=" stroke:none;fill-rule:nonzero;fill:rgb(98.823529%,86.666667%,3.529412%);fill-opacity:1;" d="M 373.191406 278.535156 L 388.484375 293.359375 L 466.453125 293.359375 L 456.527344 334.113281 L 465.980469 343.273438 L 497.808594 212.59375 L 491.96875 188.609375 L 470.0625 278.535156 Z M 373.191406 278.535156 "/>
<path style="fill-rule:nonzero;fill:rgb(0%,0%,0%);fill-opacity:1;stroke-width:4;stroke-linecap:butt;stroke-linejoin:miter;stroke:rgb(98.823529%,86.666667%,3.529412%);stroke-opacity:1;stroke-miterlimit:4;" d="M 25.862315 -35.597932 L 56.428103 -77.665658 " transform="matrix(0.42919,-1.762096,1.320912,0.57254,500,333.5)"/>
</g>
</svg>
