<?xml version="1.0" encoding="UTF-8"?>
<svg xmlns="http://www.w3.org/2000/svg" xmlns:xlink="http://www.w3.org/1999/xlink" width="1000px" height="667px" viewBox="0 0 1000 667" version="1.1">
<g id="surface1">
<rect x="0" y="0" width="1000" height="667" style="fill:rgb(45.882353%,69.803923%,86.666667%);fill-opacity:1;stroke:none;"/>
<path style=" stroke:none;fill-rule:nonzero;fill:rgb(100%,100%,100%);fill-opacity:1;" d="M 500 66.699219 L 483.734375 130.136719 L 508.765625 140.441406 "/>
<path style=" stroke:none;fill-rule:nonzero;fill:rgb(100%,100%,100%);fill-opacity:1;" d="M 500 66.699219 L 516.265625 130.136719 L 491.234375 140.441406 "/>
<path style=" stroke:none;fill-rule:nonzero;fill:rgb(100%,100%,100%);fill-opacity:1;" d="M 550.054688 112.789062 L 497.425781 112.789062 L 497.425781 146.136719 "/>
<path style=" stroke:none;fill-rule:nonzero;fill:rgb(100%,100%,100%);fill-opacity:1;" d="M 550.054688 112.789062 L 507.476562 151.992188 L 492.007812 125.011719 "/>
<path style=" stroke:none;fill-rule:nonzero;fill:rgb(100%,100%,100%);fill-opacity:1;" d="M 530.9375 187.363281 L 514.671875 123.925781 L 489.644531 134.230469 "/>
<path style=" stroke:none;fill-rule:nonzero;fill:rgb(100%,100%,100%);fill-opacity:1;" d="M 530.9375 187.363281 L 488.355469 148.15625 L 503.824219 121.175781 "/>
<path style=" stroke:none;fill-rule:nonzero;fill:rgb(100%,100%,100%);fill-opacity:1;" d="M 469.0625 187.363281 L 511.644531 148.15625 L 496.175781 121.175781 "/>
<path style=" stroke:none;fill-rule:nonzero;fill:rgb(100%,100%,100%);fill-opacity:1;" d="M 469.0625 187.363281 L 485.328125 123.925781 L 510.355469 134.230469 "/>
<path style=" stroke:none;fill-rule:nonzero;fill:rgb(100%,100%,100%);fill-opacity:1;" d="M 449.945312 112.789062 L 492.523438 151.992188 L 507.992188 125.011719 "/>
<path style=" stroke:none;fill-rule:nonzero;fill:rgb(100%,100%,100%);fill-opacity:1;" d="M 449.945312 112.789062 L 502.574219 112.789062 L 502.574219 146.136719 "/>
<path style=" stroke:none;fill-rule:nonzero;fill:rgb(100%,100%,100%);fill-opacity:1;" d="M 710.527344 333.5 L 660.472656 312.886719 L 652.339844 344.605469 "/>
<path style=" stroke:none;fill-rule:nonzero;fill:rgb(100%,100%,100%);fill-opacity:1;" d="M 710.527344 333.5 L 660.472656 354.113281 L 652.339844 322.394531 "/>
<path style=" stroke:none;fill-rule:nonzero;fill:rgb(100%,100%,100%);fill-opacity:1;" d="M 674.160156 396.933594 L 674.160156 330.234375 L 647.84375 330.234375 "/>
<path style=" stroke:none;fill-rule:nonzero;fill:rgb(100%,100%,100%);fill-opacity:1;" d="M 674.160156 396.933594 L 643.222656 342.972656 L 664.511719 323.371094 "/>
<path style=" stroke:none;fill-rule:nonzero;fill:rgb(100%,100%,100%);fill-opacity:1;" d="M 615.316406 372.707031 L 665.371094 352.09375 L 657.238281 320.375 "/>
<path style=" stroke:none;fill-rule:nonzero;fill:rgb(100%,100%,100%);fill-opacity:1;" d="M 615.316406 372.707031 L 646.25 318.742188 L 667.539062 338.347656 "/>
<path style=" stroke:none;fill-rule:nonzero;fill:rgb(100%,100%,100%);fill-opacity:1;" d="M 615.316406 294.292969 L 646.25 348.257812 L 667.539062 328.652344 "/>
<path style=" stroke:none;fill-rule:nonzero;fill:rgb(100%,100%,100%);fill-opacity:1;" d="M 615.316406 294.292969 L 665.371094 314.90625 L 657.238281 346.625 "/>
<path style=" stroke:none;fill-rule:nonzero;fill:rgb(100%,100%,100%);fill-opacity:1;" d="M 674.160156 270.066406 L 643.222656 324.027344 L 664.511719 343.628906 "/>
<path style=" stroke:none;fill-rule:nonzero;fill:rgb(100%,100%,100%);fill-opacity:1;" d="M 674.160156 270.066406 L 674.160156 336.765625 L 647.84375 336.765625 "/>
<path style=" stroke:none;fill-rule:nonzero;fill:rgb(100%,100%,100%);fill-opacity:1;" d="M 500 600.300781 L 516.265625 536.863281 L 491.234375 526.558594 "/>
<path style=" stroke:none;fill-rule:nonzero;fill:rgb(100%,100%,100%);fill-opacity:1;" d="M 500 600.300781 L 483.734375 536.863281 L 508.765625 526.558594 "/>
<path style=" stroke:none;fill-rule:nonzero;fill:rgb(100%,100%,100%);fill-opacity:1;" d="M 449.945312 554.210938 L 502.574219 554.210938 L 502.574219 520.863281 "/>
<path style=" stroke:none;fill-rule:nonzero;fill:rgb(100%,100%,100%);fill-opacity:1;" d="M 449.945312 554.210938 L 492.523438 515.007812 L 507.992188 541.988281 "/>
<path style=" stroke:none;fill-rule:nonzero;fill:rgb(100%,100%,100%);fill-opacity:1;" d="M 469.0625 479.636719 L 485.328125 543.074219 L 510.355469 532.769531 "/>
<path style=" stroke:none;fill-rule:nonzero;fill:rgb(100%,100%,100%);fill-opacity:1;" d="M 469.0625 479.636719 L 511.644531 518.84375 L 496.175781 545.824219 "/>
<path style=" stroke:none;fill-rule:nonzero;fill:rgb(100%,100%,100%);fill-opacity:1;" d="M 530.9375 479.636719 L 488.355469 518.84375 L 503.824219 545.824219 "/>
<path style=" stroke:none;fill-rule:nonzero;fill:rgb(100%,100%,100%);fill-opacity:1;" d="M 530.9375 479.636719 L 514.671875 543.074219 L 489.644531 532.769531 "/>
<path style=" stroke:none;fill-rule:nonzero;fill:rgb(100%,100%,100%);fill-opacity:1;" d="M 550.054688 554.210938 L 507.476562 515.007812 L 492.007812 541.988281 "/>
<path style=" stroke:none;fill-rule:nonzero;fill:rgb(100%,100%,100%);fill-opacity:1;" d="M 550.054688 554.210938 L 497.425781 554.210938 L 497.425781 520.863281 "/>
<path style=" stroke:none;fill-rule:nonzero;fill:rgb(100%,100%,100%);fill-opacity:1;" d="M 289.472656 333.5 L 339.527344 354.113281 L 347.660156 322.394531 "/>
<path style=" stroke:none;fill-rule:nonzero;fill:rgb(100%,100%,100%);fill-opacity:1;" d="M 289.472656 333.5 L 339.527344 312.886719 L 347.660156 344.605469 "/>
<path style=" stroke:none;fill-rule:nonzero;fill:rgb(100%,100%,100%);fill-opacity:1;" d="M 325.839844 270.066406 L 325.839844 336.765625 L 352.15625 336.765625 "/>
<path style=" stroke:none;fill-rule:nonzero;fill:rgb(100%,100%,100%);fill-opacity:1;" d="M 325.839844 270.066406 L 356.777344 324.027344 L 335.488281 343.628906 "/>
<path style=" stroke:none;fill-rule:nonzero;fill:rgb(100%,100%,100%);fill-opacity:1;" d="M 384.683594 294.292969 L 334.628906 314.90625 L 342.761719 346.625 "/>
<path style=" stroke:none;fill-rule:nonzero;fill:rgb(100%,100%,100%);fill-opacity:1;" d="M 384.683594 294.292969 L 353.75 348.257812 L 332.460938 328.652344 "/>
<path style=" stroke:none;fill-rule:nonzero;fill:rgb(100%,100%,100%);fill-opacity:1;" d="M 384.683594 372.707031 L 353.75 318.742188 L 332.460938 338.347656 "/>
<path style=" stroke:none;fill-rule:nonzero;fill:rgb(100%,100%,100%);fill-opacity:1;" d="M 384.683594 372.707031 L 334.628906 352.09375 L 342.761719 320.375 "/>
<path style=" stroke:none;fill-rule:nonzero;fill:rgb(100%,100%,100%);fill-opacity:1;" d="M 325.839844 396.933594 L 356.777344 342.972656 L 335.488281 323.371094 "/>
<path style=" stroke:none;fill-rule:nonzero;fill:rgb(100%,100%,100%);fill-opacity:1;" d="M 325.839844 396.933594 L 325.839844 330.234375 L 352.15625 330.234375 "/>
</g>
</svg>
