<?xml version="1.0" encoding="UTF-8"?>
<svg xmlns="http://www.w3.org/2000/svg" xmlns:xlink="http://www.w3.org/1999/xlink" width="1000px" height="667px" viewBox="0 0 1000 667" version="1.1">
<g id="surface1">
<rect x="0" y="0" width="1000" height="667" style="fill:rgb(85.490197%,0%,0%);fill-opacity:1;stroke:none;"/>
<path style=" stroke:none;fill-rule:nonzero;fill:rgb(100%,100%,100%);fill-opacity:1;" d="M 0 0 L 1000 0 L 1000 444.667969 L 0 444.667969 Z M 0 0 "/>
<path style=" stroke:none;fill-rule:nonzero;fill:rgb(13.725491%,62.352943%,25.098041%);fill-opacity:1;" d="M 0 0 L 1000 0 L 1000 222.332031 L 0 222.332031 Z M 0 0 "/>
<path style="fill:none;stroke-width:2;stroke-linecap:butt;stroke-linejoin:miter;stroke:rgb(100%,100%,100%);stroke-opacity:1;stroke-miterlimit:4;" d="M -0.000585665 1.000193 L 25.999219 1.000193 M 0.99961 9.999711 L 0.99961 4.999979 L 8.999414 4.999979 L 8.999414 8.999765 L 16.999219 8.999765 L 16.999219 4.999979 L 12 4.999979 M 4.000196 8.999765 L 6.000586 8.999765 M 25.999219 8.999765 L 21.000001 8.999765 L 21.000001 4.999979 L 28.999805 4.999979 M 28.999805 0.000246554 L 28.999805 8.999765 L 36.99961 8.999765 L 36.99961 0.000246554 M 33.000587 0.000246554 L 33.000587 8.999765 " transform="matrix(2.222222,0,0,2.593889,13.333333,186.018892)"/>
<path style="fill:none;stroke-width:2;stroke-linecap:butt;stroke-linejoin:miter;stroke:rgb(100%,100%,100%);stroke-opacity:1;stroke-miterlimit:4;" d="M -0.000292833 6.999749 L 8.999707 6.999749 M 9.999903 6.999749 L 18.999903 6.999749 " transform="matrix(4.444444,0,0,5.187778,13.333333,186.018892)"/>
<path style="fill:none;stroke-width:2;stroke-linecap:butt;stroke-linejoin:miter;stroke:rgb(100%,100%,100%);stroke-opacity:1;stroke-miterlimit:4;" d="M -0.000292833 7.000251 L 8.999707 7.000251 M 9.999903 7.000251 L 18.999903 7.000251 " transform="matrix(4.444444,0,0,5.187778,13.333333,408.352225)"/>
<path style="fill:none;stroke-width:2;stroke-linecap:butt;stroke-linejoin:miter;stroke:rgb(100%,100%,100%);stroke-opacity:1;stroke-miterlimit:4;" d="M -0.000585665 1.000235 L 25.999219 1.000235 M 0.99961 9.999754 L 0.99961 5.000021 L 8.999414 5.000021 L 8.999414 8.999807 L 16.999219 8.999807 L 16.999219 5.000021 L 12 5.000021 M 4.000196 8.999807 L 6.000586 8.999807 M 25.999219 8.999807 L 21.000001 8.999807 L 21.000001 5.000021 L 28.999805 5.000021 M 28.999805 0.000288892 L 28.999805 8.999807 L 36.99961 8.999807 L 36.99961 0.000288892 M 33.000587 0.000288892 L 33.000587 8.999807 " transform="matrix(2.222222,0,0,2.593889,13.333333,455.042219)"/>
<path style="fill:none;stroke-width:2;stroke-linecap:butt;stroke-linejoin:miter;stroke:rgb(100%,100%,100%);stroke-opacity:1;stroke-miterlimit:4;" d="M 0.000195585 1.000193 L 26.000001 1.000193 M 1.000391 9.999711 L 1.000391 4.999979 L 9.000196 4.999979 L 9.000196 8.999765 L 17.000001 8.999765 L 17.000001 4.999979 L 12.000782 4.999979 M 3.999219 8.999765 L 5.99961 8.999765 M 26.000001 8.999765 L 21.000782 8.999765 L 21.000782 4.999979 L 29.000587 4.999979 M 29.000587 0.000246554 L 29.000587 8.999765 L 37.000392 8.999765 L 37.000392 0.000246554 M 32.99961 0.000246554 L 32.99961 8.999765 " transform="matrix(2.222222,0,0,2.593889,102.222222,186.018892)"/>
<path style="fill:none;stroke-width:2;stroke-linecap:butt;stroke-linejoin:miter;stroke:rgb(100%,100%,100%);stroke-opacity:1;stroke-miterlimit:4;" d="M 0.0000977925 6.999749 L 9.000098 6.999749 M 10.000293 6.999749 L 19.000293 6.999749 " transform="matrix(4.444444,0,0,5.187778,102.222222,186.018892)"/>
<path style="fill:none;stroke-width:2;stroke-linecap:butt;stroke-linejoin:miter;stroke:rgb(100%,100%,100%);stroke-opacity:1;stroke-miterlimit:4;" d="M 0.0000977925 7.000251 L 9.000098 7.000251 M 10.000293 7.000251 L 19.000293 7.000251 " transform="matrix(4.444444,0,0,5.187778,102.222222,408.352225)"/>
<path style="fill:none;stroke-width:2;stroke-linecap:butt;stroke-linejoin:miter;stroke:rgb(100%,100%,100%);stroke-opacity:1;stroke-miterlimit:4;" d="M 0.000195585 1.000235 L 26.000001 1.000235 M 1.000391 9.999754 L 1.000391 5.000021 L 9.000196 5.000021 L 9.000196 8.999807 L 17.000001 8.999807 L 17.000001 5.000021 L 12.000782 5.000021 M 3.999219 8.999807 L 5.99961 8.999807 M 26.000001 8.999807 L 21.000782 8.999807 L 21.000782 5.000021 L 29.000587 5.000021 M 29.000587 0.000288892 L 29.000587 8.999807 L 37.000392 8.999807 L 37.000392 0.000288892 M 32.99961 0.000288892 L 32.99961 8.999807 " transform="matrix(2.222222,0,0,2.593889,102.222222,455.042219)"/>
<path style="fill:none;stroke-width:2;stroke-linecap:butt;stroke-linejoin:miter;stroke:rgb(100%,100%,100%);stroke-opacity:1;stroke-miterlimit:4;" d="M -0.000780978 1.000193 L 26.000782 1.000193 M 0.999414 9.999711 L 0.999414 4.999979 L 8.999219 4.999979 L 8.999219 8.999765 L 17.000782 8.999765 L 17.000782 4.999979 L 11.999805 4.999979 M 4 8.999765 L 6.000391 8.999765 M 26.000782 8.999765 L 20.999805 8.999765 L 20.999805 4.999979 L 28.99961 4.999979 M 28.99961 0.000246554 L 28.99961 8.999765 L 36.999415 8.999765 L 36.999415 0.000246554 M 33.000391 0.000246554 L 33.000391 8.999765 " transform="matrix(2.222222,0,0,2.593889,191.111111,186.018892)"/>
<path style="fill:none;stroke-width:2;stroke-linecap:butt;stroke-linejoin:miter;stroke:rgb(100%,100%,100%);stroke-opacity:1;stroke-miterlimit:4;" d="M -0.000390489 6.999749 L 8.99961 6.999749 M 9.999805 6.999749 L 18.999805 6.999749 " transform="matrix(4.444444,0,0,5.187778,191.111111,186.018892)"/>
<path style="fill:none;stroke-width:2;stroke-linecap:butt;stroke-linejoin:miter;stroke:rgb(100%,100%,100%);stroke-opacity:1;stroke-miterlimit:4;" d="M -0.000390489 7.000251 L 8.99961 7.000251 M 9.999805 7.000251 L 18.999805 7.000251 " transform="matrix(4.444444,0,0,5.187778,191.111111,408.352225)"/>
<path style="fill:none;stroke-width:2;stroke-linecap:butt;stroke-linejoin:miter;stroke:rgb(100%,100%,100%);stroke-opacity:1;stroke-miterlimit:4;" d="M -0.000780978 1.000235 L 26.000782 1.000235 M 0.999414 9.999754 L 0.999414 5.000021 L 8.999219 5.000021 L 8.999219 8.999807 L 17.000782 8.999807 L 17.000782 5.000021 L 11.999805 5.000021 M 4 8.999807 L 6.000391 8.999807 M 26.000782 8.999807 L 20.999805 8.999807 L 20.999805 5.000021 L 28.99961 5.000021 M 28.99961 0.000288892 L 28.99961 8.999807 L 36.999415 8.999807 L 36.999415 0.000288892 M 33.000391 0.000288892 L 33.000391 8.999807 " transform="matrix(2.222222,0,0,2.593889,191.111111,455.042219)"/>
<path style="fill:none;stroke-width:2;stroke-linecap:butt;stroke-linejoin:miter;stroke:rgb(100%,100%,100%);stroke-opacity:1;stroke-miterlimit:4;" d="M 0.000000272478 1.000193 L 25.999805 1.000193 M 1.000196 9.999711 L 1.000196 4.999979 L 9 4.999979 L 9 8.999765 L 16.999805 8.999765 L 16.999805 4.999979 L 12.000586 4.999979 M 4.000782 8.999765 L 5.999414 8.999765 M 25.999805 8.999765 L 21.000587 8.999765 L 21.000587 4.999979 L 29.000391 4.999979 M 29.000391 0.000246554 L 29.000391 8.999765 L 37.000196 8.999765 L 37.000196 0.000246554 M 32.999415 0.000246554 L 32.999415 8.999765 " transform="matrix(2.222222,0,0,2.593889,279.999999,186.018892)"/>
<path style="fill:none;stroke-width:2;stroke-linecap:butt;stroke-linejoin:miter;stroke:rgb(100%,100%,100%);stroke-opacity:1;stroke-miterlimit:4;" d="M 0.000000136239 6.999749 L 9 6.999749 M 10.000196 6.999749 L 19.000196 6.999749 " transform="matrix(4.444444,0,0,5.187778,279.999999,186.018892)"/>
<path style="fill:none;stroke-width:2;stroke-linecap:butt;stroke-linejoin:miter;stroke:rgb(100%,100%,100%);stroke-opacity:1;stroke-miterlimit:4;" d="M 0.000000136239 7.000251 L 9 7.000251 M 10.000196 7.000251 L 19.000196 7.000251 " transform="matrix(4.444444,0,0,5.187778,279.999999,408.352225)"/>
<path style="fill:none;stroke-width:2;stroke-linecap:butt;stroke-linejoin:miter;stroke:rgb(100%,100%,100%);stroke-opacity:1;stroke-miterlimit:4;" d="M 0.000000272478 1.000235 L 25.999805 1.000235 M 1.000196 9.999754 L 1.000196 5.000021 L 9 5.000021 L 9 8.999807 L 16.999805 8.999807 L 16.999805 5.000021 L 12.000586 5.000021 M 4.000782 8.999807 L 5.999414 8.999807 M 25.999805 8.999807 L 21.000587 8.999807 L 21.000587 5.000021 L 29.000391 5.000021 M 29.000391 0.000288892 L 29.000391 8.999807 L 37.000196 8.999807 L 37.000196 0.000288892 M 32.999415 0.000288892 L 32.999415 8.999807 " transform="matrix(2.222222,0,0,2.593889,279.999999,455.042219)"/>
<path style="fill:none;stroke-width:2;stroke-linecap:butt;stroke-linejoin:miter;stroke:rgb(100%,100%,100%);stroke-opacity:1;stroke-miterlimit:4;" d="M 0.000781522 1.000193 L 26.000587 1.000193 M 0.999219 9.999711 L 0.999219 4.999979 L 9.000782 4.999979 L 9.000782 8.999765 L 17.000586 8.999765 L 17.000586 4.999979 L 11.99961 4.999979 M 3.999805 8.999765 L 6.000196 8.999765 M 26.000587 8.999765 L 20.99961 8.999765 L 20.99961 4.999979 L 28.999415 4.999979 M 28.999415 0.000246554 L 28.999415 8.999765 L 36.99922 8.999765 L 36.99922 0.000246554 M 33.000196 0.000246554 L 33.000196 8.999765 " transform="matrix(2.222222,0,0,2.593889,368.888888,186.018892)"/>
<path style="fill:none;stroke-width:2;stroke-linecap:butt;stroke-linejoin:miter;stroke:rgb(100%,100%,100%);stroke-opacity:1;stroke-miterlimit:4;" d="M 0.000390761 6.999749 L 9.000391 6.999749 M 9.999707 6.999749 L 18.999707 6.999749 " transform="matrix(4.444444,0,0,5.187778,368.888888,186.018892)"/>
<path style="fill:none;stroke-width:2;stroke-linecap:butt;stroke-linejoin:miter;stroke:rgb(100%,100%,100%);stroke-opacity:1;stroke-miterlimit:4;" d="M 0.000390761 7.000251 L 9.000391 7.000251 M 9.999707 7.000251 L 18.999707 7.000251 " transform="matrix(4.444444,0,0,5.187778,368.888888,408.352225)"/>
<path style="fill:none;stroke-width:2;stroke-linecap:butt;stroke-linejoin:miter;stroke:rgb(100%,100%,100%);stroke-opacity:1;stroke-miterlimit:4;" d="M 0.000781522 1.000235 L 26.000587 1.000235 M 0.999219 9.999754 L 0.999219 5.000021 L 9.000782 5.000021 L 9.000782 8.999807 L 17.000586 8.999807 L 17.000586 5.000021 L 11.99961 5.000021 M 3.999805 8.999807 L 6.000196 8.999807 M 26.000587 8.999807 L 20.99961 8.999807 L 20.99961 5.000021 L 28.999415 5.000021 M 28.999415 0.000288892 L 28.999415 8.999807 L 36.99922 8.999807 L 36.99922 0.000288892 M 33.000196 0.000288892 L 33.000196 8.999807 " transform="matrix(2.222222,0,0,2.593889,368.888888,455.042219)"/>
<path style="fill:none;stroke-width:2;stroke-linecap:butt;stroke-linejoin:miter;stroke:rgb(100%,100%,100%);stroke-opacity:1;stroke-miterlimit:4;" d="M -0.00019504 1.000193 L 25.99961 1.000193 M 1 9.999711 L 1 4.999979 L 8.999805 4.999979 L 8.999805 8.999765 L 16.99961 8.999765 L 16.99961 4.999979 L 12.000391 4.999979 M 4.000586 8.999765 L 5.999219 8.999765 M 25.99961 8.999765 L 21.000391 8.999765 L 21.000391 4.999979 L 29.000196 4.999979 M 29.000196 0.000246554 L 29.000196 8.999765 L 37.000001 8.999765 L 37.000001 0.000246554 M 32.99922 0.000246554 L 32.99922 8.999765 " transform="matrix(2.222222,0,0,2.593889,457.777777,186.018892)"/>
<path style="fill:none;stroke-width:2;stroke-linecap:butt;stroke-linejoin:miter;stroke:rgb(100%,100%,100%);stroke-opacity:1;stroke-miterlimit:4;" d="M -0.00009752 6.999749 L 8.999903 6.999749 M 10.000098 6.999749 L 19.000098 6.999749 " transform="matrix(4.444444,0,0,5.187778,457.777777,186.018892)"/>
<path style="fill:none;stroke-width:2;stroke-linecap:butt;stroke-linejoin:miter;stroke:rgb(100%,100%,100%);stroke-opacity:1;stroke-miterlimit:4;" d="M -0.00009752 7.000251 L 8.999903 7.000251 M 10.000098 7.000251 L 19.000098 7.000251 " transform="matrix(4.444444,0,0,5.187778,457.777777,408.352225)"/>
<path style="fill:none;stroke-width:2;stroke-linecap:butt;stroke-linejoin:miter;stroke:rgb(100%,100%,100%);stroke-opacity:1;stroke-miterlimit:4;" d="M -0.00019504 1.000235 L 25.99961 1.000235 M 1 9.999754 L 1 5.000021 L 8.999805 5.000021 L 8.999805 8.999807 L 16.99961 8.999807 L 16.99961 5.000021 L 12.000391 5.000021 M 4.000586 8.999807 L 5.999219 8.999807 M 25.99961 8.999807 L 21.000391 8.999807 L 21.000391 5.000021 L 29.000196 5.000021 M 29.000196 0.000288892 L 29.000196 8.999807 L 37.000001 8.999807 L 37.000001 0.000288892 M 32.99922 0.000288892 L 32.99922 8.999807 " transform="matrix(2.222222,0,0,2.593889,457.777777,455.042219)"/>
<path style="fill:none;stroke-width:2;stroke-linecap:butt;stroke-linejoin:miter;stroke:rgb(100%,100%,100%);stroke-opacity:1;stroke-miterlimit:4;" d="M 0.00058621 1.000193 L 26.000391 1.000193 M 1.000782 9.999711 L 1.000782 4.999979 L 9.000586 4.999979 L 9.000586 8.999765 L 17.000391 8.999765 L 17.000391 4.999979 L 11.999415 4.999979 M 3.99961 8.999765 L 6 8.999765 M 26.000391 8.999765 L 20.999415 8.999765 L 20.999415 4.999979 L 28.99922 4.999979 M 28.99922 0.000246554 L 28.99922 8.999765 L 37.000782 8.999765 L 37.000782 0.000246554 M 33.000001 0.000246554 L 33.000001 8.999765 " transform="matrix(2.222222,0,0,2.593889,546.666666,186.018892)"/>
<path style="fill:none;stroke-width:2;stroke-linecap:butt;stroke-linejoin:miter;stroke:rgb(100%,100%,100%);stroke-opacity:1;stroke-miterlimit:4;" d="M 0.000293105 6.999749 L 9.000293 6.999749 M 9.99961 6.999749 L 18.99961 6.999749 " transform="matrix(4.444444,0,0,5.187778,546.666666,186.018892)"/>
<path style="fill:none;stroke-width:2;stroke-linecap:butt;stroke-linejoin:miter;stroke:rgb(100%,100%,100%);stroke-opacity:1;stroke-miterlimit:4;" d="M 0.000293105 7.000251 L 9.000293 7.000251 M 9.99961 7.000251 L 18.99961 7.000251 " transform="matrix(4.444444,0,0,5.187778,546.666666,408.352225)"/>
<path style="fill:none;stroke-width:2;stroke-linecap:butt;stroke-linejoin:miter;stroke:rgb(100%,100%,100%);stroke-opacity:1;stroke-miterlimit:4;" d="M 0.00058621 1.000235 L 26.000391 1.000235 M 1.000782 9.999754 L 1.000782 5.000021 L 9.000586 5.000021 L 9.000586 8.999807 L 17.000391 8.999807 L 17.000391 5.000021 L 11.999415 5.000021 M 3.99961 8.999807 L 6 8.999807 M 26.000391 8.999807 L 20.999415 8.999807 L 20.999415 5.000021 L 28.99922 5.000021 M 28.99922 0.000288892 L 28.99922 8.999807 L 37.000782 8.999807 L 37.000782 0.000288892 M 33.000001 0.000288892 L 33.000001 8.999807 " transform="matrix(2.222222,0,0,2.593889,546.666666,455.042219)"/>
<path style="fill:none;stroke-width:2;stroke-linecap:butt;stroke-linejoin:miter;stroke:rgb(100%,100%,100%);stroke-opacity:1;stroke-miterlimit:4;" d="M -0.000390353 1.000193 L 25.999415 1.000193 M 0.999805 9.999711 L 0.999805 4.999979 L 8.99961 4.999979 L 8.99961 8.999765 L 16.999415 8.999765 L 16.999415 4.999979 L 12.000196 4.999979 M 4.000391 8.999765 L 6.000782 8.999765 M 25.999415 8.999765 L 21.000196 8.999765 L 21.000196 4.999979 L 29.000001 4.999979 M 29.000001 0.000246554 L 29.000001 8.999765 L 36.999806 8.999765 L 36.999806 0.000246554 M 33.000782 0.000246554 L 33.000782 8.999765 " transform="matrix(2.222222,0,0,2.593889,635.555555,186.018892)"/>
<path style="fill:none;stroke-width:2;stroke-linecap:butt;stroke-linejoin:miter;stroke:rgb(100%,100%,100%);stroke-opacity:1;stroke-miterlimit:4;" d="M -0.000195176 6.999749 L 8.999805 6.999749 M 10 6.999749 L 19 6.999749 " transform="matrix(4.444444,0,0,5.187778,635.555555,186.018892)"/>
<path style="fill:none;stroke-width:2;stroke-linecap:butt;stroke-linejoin:miter;stroke:rgb(100%,100%,100%);stroke-opacity:1;stroke-miterlimit:4;" d="M -0.000195176 7.000251 L 8.999805 7.000251 M 10 7.000251 L 19 7.000251 " transform="matrix(4.444444,0,0,5.187778,635.555555,408.352225)"/>
<path style="fill:none;stroke-width:2;stroke-linecap:butt;stroke-linejoin:miter;stroke:rgb(100%,100%,100%);stroke-opacity:1;stroke-miterlimit:4;" d="M -0.000390353 1.000235 L 25.999415 1.000235 M 0.999805 9.999754 L 0.999805 5.000021 L 8.99961 5.000021 L 8.99961 8.999807 L 16.999415 8.999807 L 16.999415 5.000021 L 12.000196 5.000021 M 4.000391 8.999807 L 6.000782 8.999807 M 25.999415 8.999807 L 21.000196 8.999807 L 21.000196 5.000021 L 29.000001 5.000021 M 29.000001 0.000288892 L 29.000001 8.999807 L 36.999806 8.999807 L 36.999806 0.000288892 M 33.000782 0.000288892 L 33.000782 8.999807 " transform="matrix(2.222222,0,0,2.593889,635.555555,455.042219)"/>
<path style="fill:none;stroke-width:2;stroke-linecap:butt;stroke-linejoin:miter;stroke:rgb(100%,100%,100%);stroke-opacity:1;stroke-miterlimit:4;" d="M 0.000390897 1.000193 L 26.000196 1.000193 M 1.000586 9.999711 L 1.000586 4.999979 L 9.000391 4.999979 L 9.000391 8.999765 L 17.000196 8.999765 L 17.000196 4.999979 L 11.999219 4.999979 M 3.999414 8.999765 L 5.999805 8.999765 M 26.000196 8.999765 L 20.999219 8.999765 L 20.999219 4.999979 L 29.000782 4.999979 M 29.000782 0.000246554 L 29.000782 8.999765 L 37.000587 8.999765 L 37.000587 0.000246554 M 32.999806 0.000246554 L 32.999806 8.999765 " transform="matrix(2.222222,0,0,2.593889,724.444444,186.018892)"/>
<path style="fill:none;stroke-width:2;stroke-linecap:butt;stroke-linejoin:miter;stroke:rgb(100%,100%,100%);stroke-opacity:1;stroke-miterlimit:4;" d="M 0.000195449 6.999749 L 9.000196 6.999749 M 10.000391 6.999749 L 19.000391 6.999749 " transform="matrix(4.444444,0,0,5.187778,724.444444,186.018892)"/>
<path style="fill:none;stroke-width:2;stroke-linecap:butt;stroke-linejoin:miter;stroke:rgb(100%,100%,100%);stroke-opacity:1;stroke-miterlimit:4;" d="M 0.000195449 7.000251 L 9.000196 7.000251 M 10.000391 7.000251 L 19.000391 7.000251 " transform="matrix(4.444444,0,0,5.187778,724.444444,408.352225)"/>
<path style="fill:none;stroke-width:2;stroke-linecap:butt;stroke-linejoin:miter;stroke:rgb(100%,100%,100%);stroke-opacity:1;stroke-miterlimit:4;" d="M 0.000390897 1.000235 L 26.000196 1.000235 M 1.000586 9.999754 L 1.000586 5.000021 L 9.000391 5.000021 L 9.000391 8.999807 L 17.000196 8.999807 L 17.000196 5.000021 L 11.999219 5.000021 M 3.999414 8.999807 L 5.999805 8.999807 M 26.000196 8.999807 L 20.999219 8.999807 L 20.999219 5.000021 L 29.000782 5.000021 M 29.000782 0.000288892 L 29.000782 8.999807 L 37.000587 8.999807 L 37.000587 0.000288892 M 32.999806 0.000288892 L 32.999806 8.999807 " transform="matrix(2.222222,0,0,2.593889,724.444444,455.042219)"/>
<path style="fill:none;stroke-width:2;stroke-linecap:butt;stroke-linejoin:miter;stroke:rgb(100%,100%,100%);stroke-opacity:1;stroke-miterlimit:4;" d="M -0.000585665 1.000193 L 25.999219 1.000193 M 0.99961 9.999711 L 0.99961 4.999979 L 8.999414 4.999979 L 8.999414 8.999765 L 16.999219 8.999765 L 16.999219 4.999979 L 12 4.999979 M 4.000196 8.999765 L 6.000586 8.999765 M 25.999219 8.999765 L 21.000001 8.999765 L 21.000001 4.999979 L 28.999805 4.999979 M 28.999805 0.000246554 L 28.999805 8.999765 L 36.99961 8.999765 L 36.99961 0.000246554 M 33.000587 0.000246554 L 33.000587 8.999765 " transform="matrix(2.222222,0,0,2.593889,813.333333,186.018892)"/>
<path style="fill:none;stroke-width:2;stroke-linecap:butt;stroke-linejoin:miter;stroke:rgb(100%,100%,100%);stroke-opacity:1;stroke-miterlimit:4;" d="M -0.000292833 6.999749 L 8.999707 6.999749 M 9.999903 6.999749 L 18.999903 6.999749 " transform="matrix(4.444444,0,0,5.187778,813.333333,186.018892)"/>
<path style="fill:none;stroke-width:2;stroke-linecap:butt;stroke-linejoin:miter;stroke:rgb(100%,100%,100%);stroke-opacity:1;stroke-miterlimit:4;" d="M -0.000292833 7.000251 L 8.999707 7.000251 M 9.999903 7.000251 L 18.999903 7.000251 " transform="matrix(4.444444,0,0,5.187778,813.333333,408.352225)"/>
<path style="fill:none;stroke-width:2;stroke-linecap:butt;stroke-linejoin:miter;stroke:rgb(100%,100%,100%);stroke-opacity:1;stroke-miterlimit:4;" d="M -0.000585665 1.000235 L 25.999219 1.000235 M 0.99961 9.999754 L 0.99961 5.000021 L 8.999414 5.000021 L 8.999414 8.999807 L 16.999219 8.999807 L 16.999219 5.000021 L 12 5.000021 M 4.000196 8.999807 L 6.000586 8.999807 M 25.999219 8.999807 L 21.000001 8.999807 L 21.000001 5.000021 L 28.999805 5.000021 M 28.999805 0.000288892 L 28.999805 8.999807 L 36.99961 8.999807 L 36.99961 0.000288892 M 33.000587 0.000288892 L 33.000587 8.999807 " transform="matrix(2.222222,0,0,2.593889,813.333333,455.042219)"/>
<path style="fill:none;stroke-width:2;stroke-linecap:butt;stroke-linejoin:miter;stroke:rgb(100%,100%,100%);stroke-opacity:1;stroke-miterlimit:4;" d="M 0.000195585 1.000193 L 26.000001 1.000193 M 1.000391 9.999711 L 1.000391 4.999979 L 9.000196 4.999979 L 9.000196 8.999765 L 17.000001 8.999765 L 17.000001 4.999979 L 12.000782 4.999979 M 3.999219 8.999765 L 5.99961 8.999765 M 26.000001 8.999765 L 21.000782 8.999765 L 21.000782 4.999979 L 29.000587 4.999979 M 29.000587 0.000246554 L 29.000587 8.999765 L 37.000392 8.999765 L 37.000392 0.000246554 M 32.99961 0.000246554 L 32.99961 8.999765 " transform="matrix(2.222222,0,0,2.593889,902.222222,186.018892)"/>
<path style="fill:none;stroke-width:2;stroke-linecap:butt;stroke-linejoin:miter;stroke:rgb(100%,100%,100%);stroke-opacity:1;stroke-miterlimit:4;" d="M 0.0000977925 6.999749 L 9.000098 6.999749 M 10.000293 6.999749 L 19.000293 6.999749 " transform="matrix(4.444444,0,0,5.187778,902.222222,186.018892)"/>
<path style="fill:none;stroke-width:2;stroke-linecap:butt;stroke-linejoin:miter;stroke:rgb(100%,100%,100%);stroke-opacity:1;stroke-miterlimit:4;" d="M 0.0000977925 7.000251 L 9.000098 7.000251 M 10.000293 7.000251 L 19.000293 7.000251 " transform="matrix(4.444444,0,0,5.187778,902.222222,408.352225)"/>
<path style="fill:none;stroke-width:2;stroke-linecap:butt;stroke-linejoin:miter;stroke:rgb(100%,100%,100%);stroke-opacity:1;stroke-miterlimit:4;" d="M 0.000195585 1.000235 L 26.000001 1.000235 M 1.000391 9.999754 L 1.000391 5.000021 L 9.000196 5.000021 L 9.000196 8.999807 L 17.000001 8.999807 L 17.000001 5.000021 L 12.000782 5.000021 M 3.999219 8.999807 L 5.99961 8.999807 M 26.000001 8.999807 L 21.000782 8.999807 L 21.000782 5.000021 L 29.000587 5.000021 M 29.000587 0.000288892 L 29.000587 8.999807 L 37.000392 8.999807 L 37.000392 0.000288892 M 32.99961 0.000288892 L 32.99961 8.999807 " transform="matrix(2.222222,0,0,2.593889,902.222222,455.042219)"/>
<path style=" stroke:none;fill-rule:nonzero;fill:rgb(85.490197%,0%,0%);fill-opacity:1;" d="M 460.847656 403.234375 C 490.363281 414.425781 522.546875 399.765625 537.757812 368.191406 C 552.972656 336.617188 546.992188 296.898438 523.46875 273.269531 C 538.609375 299.425781 539.800781 333.316406 526.542969 360.828125 C 513.285156 388.339844 487.855469 404.753906 460.847656 403.234375 "/>
<path style=" stroke:none;fill-rule:nonzero;fill:rgb(85.490197%,0%,0%);fill-opacity:1;" d="M 544.167969 388.644531 C 563.414062 375.660156 573.988281 350.347656 570.898438 324.652344 C 567.8125 298.957031 551.679688 278.019531 530.117188 271.714844 C 545.285156 285.027344 555.292969 304.839844 557.929688 326.777344 C 560.566406 348.714844 555.613281 370.976562 544.167969 388.644531 "/>
<path style=" stroke:none;fill-rule:nonzero;fill:rgb(85.490197%,0%,0%);fill-opacity:1;" d="M 500 416.875 L 496.429688 333.5 L 500 267.859375 C 502.167969 271.398438 505.070312 274.242188 508.429688 276.121094 L 508.429688 325.128906 L 505.558594 407.945312 Z M 500 416.875 "/>
<path style=" stroke:none;fill-rule:nonzero;fill:rgb(85.490197%,0%,0%);fill-opacity:1;" d="M 498.570312 262.632812 L 500 264.199219 C 503.007812 269.1875 508.742188 270.761719 513.339844 267.855469 C 517.9375 264.949219 519.941406 258.484375 518.003906 252.816406 C 517.25 257.488281 514.085938 261.117188 510.070312 261.917969 C 506.058594 262.71875 502.042969 260.523438 500 256.410156 "/>
<path style=" stroke:none;fill-rule:nonzero;fill:rgb(85.490197%,0%,0%);fill-opacity:1;" d="M 539.152344 403.234375 C 509.636719 414.425781 477.453125 399.765625 462.242188 368.191406 C 447.027344 336.617188 453.007812 296.898438 476.53125 273.269531 C 461.390625 299.425781 460.199219 333.316406 473.457031 360.828125 C 486.714844 388.339844 512.144531 404.753906 539.152344 403.234375 "/>
<path style=" stroke:none;fill-rule:nonzero;fill:rgb(85.490197%,0%,0%);fill-opacity:1;" d="M 455.832031 388.644531 C 436.585938 375.660156 426.011719 350.347656 429.101562 324.652344 C 432.1875 298.957031 448.320312 278.019531 469.882812 271.714844 C 454.714844 285.027344 444.707031 304.839844 442.070312 326.777344 C 439.433594 348.714844 444.386719 370.976562 455.832031 388.644531 "/>
<path style=" stroke:none;fill-rule:nonzero;fill:rgb(85.490197%,0%,0%);fill-opacity:1;" d="M 500 416.875 L 503.570312 333.5 L 500 267.859375 C 497.832031 271.398438 494.929688 274.242188 491.570312 276.121094 L 491.570312 325.128906 L 494.441406 407.945312 Z M 500 416.875 "/>
<path style=" stroke:none;fill-rule:nonzero;fill:rgb(85.490197%,0%,0%);fill-opacity:1;" d="M 501.429688 262.632812 L 500 264.199219 C 496.992188 269.1875 491.257812 270.761719 486.660156 267.855469 C 482.0625 264.949219 480.058594 258.484375 481.996094 252.816406 C 482.75 257.488281 485.914062 261.117188 489.929688 261.917969 C 493.941406 262.71875 497.957031 260.523438 500 256.410156 "/>
</g>
</svg>
