<?xml version="1.0" encoding="UTF-8"?>
<svg xmlns="http://www.w3.org/2000/svg" xmlns:xlink="http://www.w3.org/1999/xlink" width="1000px" height="667px" viewBox="0 0 1000 667" version="1.1">
<g id="surface1">
<rect x="0" y="0" width="1000" height="667" style="fill:rgb(0%,68.627453%,79.215688%);fill-opacity:1;stroke:none;"/>
<path style=" stroke:none;fill-rule:nonzero;fill:rgb(99.607843%,77.254903%,4.705882%);fill-opacity:1;" d="M 607.511719 280.140625 C 607.511719 329.703125 577.390625 369.882812 540.234375 369.882812 C 503.082031 369.882812 472.960938 329.703125 472.960938 280.140625 C 472.960938 230.574219 503.082031 190.394531 540.234375 190.394531 C 577.390625 190.394531 607.511719 230.574219 607.511719 280.140625 Z M 607.511719 280.140625 "/>
<path style=" stroke:none;fill-rule:nonzero;fill:rgb(99.607843%,77.254903%,4.705882%);fill-opacity:1;" d="M 540.234375 178.15625 C 544.234375 178.089844 545.734375 174.753906 545.734375 170.753906 C 545.734375 165.414062 540.234375 140.003906 540.234375 140.003906 C 540.234375 140.003906 534.734375 165.414062 534.734375 170.753906 C 534.734375 174.753906 536.234375 178.15625 540.234375 178.15625 Z M 540.234375 178.15625 "/>
<path style=" stroke:none;fill-rule:nonzero;fill:rgb(99.607843%,77.254903%,4.705882%);fill-opacity:1;" d="M 616.6875 280.140625 C 616.734375 285.476562 619.234375 287.476562 622.234375 287.476562 C 626.234375 287.476562 645.285156 280.140625 645.285156 280.140625 C 645.285156 280.140625 626.234375 272.804688 622.234375 272.804688 C 619.234375 272.804688 616.6875 274.804688 616.6875 280.140625 Z M 616.6875 280.140625 "/>
<path style=" stroke:none;fill-rule:nonzero;fill:rgb(99.607843%,77.254903%,4.705882%);fill-opacity:1;" d="M 540.234375 382.125 C 536.234375 382.191406 534.734375 385.527344 534.734375 389.527344 C 534.734375 394.863281 540.234375 420.277344 540.234375 420.277344 C 540.234375 420.277344 545.734375 394.863281 545.734375 389.527344 C 545.734375 385.527344 544.234375 382.125 540.234375 382.125 Z M 540.234375 382.125 "/>
<path style=" stroke:none;fill-rule:nonzero;fill:rgb(99.607843%,77.254903%,4.705882%);fill-opacity:1;" d="M 463.785156 280.140625 C 463.734375 274.804688 461.234375 272.804688 458.234375 272.804688 C 454.234375 272.804688 435.1875 280.140625 435.1875 280.140625 C 435.1875 280.140625 454.234375 287.476562 458.234375 287.476562 C 461.234375 287.476562 463.785156 285.476562 463.785156 280.140625 Z M 463.785156 280.140625 "/>
<path style=" stroke:none;fill-rule:nonzero;fill:rgb(99.607843%,77.254903%,4.705882%);fill-opacity:1;" d="M 569.492188 185.917969 C 573.207031 187.898438 575.550781 185.582031 576.695312 181.886719 C 578.226562 176.957031 580.4375 150.671875 580.4375 150.671875 C 580.4375 150.671875 568.066406 171.339844 566.535156 176.269531 C 565.386719 179.96875 565.796875 183.875 569.492188 185.917969 Z M 569.492188 185.917969 "/>
<path style=" stroke:none;fill-rule:nonzero;fill:rgb(99.607843%,77.254903%,4.705882%);fill-opacity:1;" d="M 610.867188 319.167969 C 609.382812 324.125 611.117188 327.246094 613.890625 328.78125 C 617.585938 330.820312 637.289062 333.769531 637.289062 333.769531 C 637.289062 333.769531 621.792969 317.265625 618.097656 315.222656 C 615.328125 313.691406 612.398438 314.238281 610.867188 319.167969 Z M 610.867188 319.167969 "/>
<path style=" stroke:none;fill-rule:nonzero;fill:rgb(99.607843%,77.254903%,4.705882%);fill-opacity:1;" d="M 510.980469 374.359375 C 507.265625 372.378906 504.921875 374.695312 503.773438 378.394531 C 502.242188 383.324219 500.035156 409.609375 500.035156 409.609375 C 500.035156 409.609375 512.40625 388.9375 513.9375 384.007812 C 515.085938 380.3125 514.675781 376.402344 510.980469 374.359375 Z M 510.980469 374.359375 "/>
<path style=" stroke:none;fill-rule:nonzero;fill:rgb(99.607843%,77.254903%,4.705882%);fill-opacity:1;" d="M 469.605469 241.113281 C 471.089844 236.15625 469.355469 233.03125 466.582031 231.5 C 462.886719 229.457031 443.183594 226.511719 443.183594 226.511719 C 443.183594 226.511719 458.675781 243.015625 462.371094 245.058594 C 465.144531 246.589844 468.074219 246.042969 469.605469 241.113281 Z M 469.605469 241.113281 "/>
<path style=" stroke:none;fill-rule:nonzero;fill:rgb(99.607843%,77.254903%,4.705882%);fill-opacity:1;" d="M 594.292969 208.027344 C 597.15625 211.753906 599.984375 210.808594 602.109375 207.980469 C 604.9375 204.207031 614.515625 181.046875 614.515625 181.046875 C 614.515625 181.046875 597.15625 193.828125 594.328125 197.601562 C 592.207031 200.433594 591.464844 204.253906 594.292969 208.027344 Z M 594.292969 208.027344 "/>
<path style=" stroke:none;fill-rule:nonzero;fill:rgb(99.607843%,77.254903%,4.705882%);fill-opacity:1;" d="M 594.292969 352.253906 C 591.5 356.074219 592.207031 359.847656 594.328125 362.675781 C 597.15625 366.449219 614.515625 379.230469 614.515625 379.230469 C 614.515625 379.230469 604.9375 356.074219 602.109375 352.300781 C 599.984375 349.472656 597.121094 348.480469 594.292969 352.253906 Z M 594.292969 352.253906 "/>
<path style=" stroke:none;fill-rule:nonzero;fill:rgb(99.607843%,77.254903%,4.705882%);fill-opacity:1;" d="M 486.175781 352.253906 C 483.3125 348.527344 480.484375 349.472656 478.363281 352.300781 C 475.535156 356.074219 465.953125 379.230469 465.953125 379.230469 C 465.953125 379.230469 483.3125 366.449219 486.140625 362.675781 C 488.261719 359.847656 489.007812 356.027344 486.175781 352.253906 Z M 486.175781 352.253906 "/>
<path style=" stroke:none;fill-rule:nonzero;fill:rgb(99.607843%,77.254903%,4.705882%);fill-opacity:1;" d="M 486.175781 208.027344 C 488.96875 204.207031 488.261719 200.433594 486.140625 197.601562 C 483.3125 193.828125 465.953125 181.046875 465.953125 181.046875 C 465.953125 181.046875 475.535156 204.207031 478.363281 207.980469 C 480.484375 210.808594 483.347656 211.800781 486.175781 208.027344 Z M 486.175781 208.027344 "/>
<path style=" stroke:none;fill-rule:nonzero;fill:rgb(99.607843%,77.254903%,4.705882%);fill-opacity:1;" d="M 610.867188 241.113281 C 612.441406 246.015625 615.328125 246.589844 618.097656 245.058594 C 621.792969 243.015625 637.289062 226.511719 637.289062 226.511719 C 637.289062 226.511719 617.585938 229.457031 613.890625 231.5 C 611.117188 233.03125 609.335938 236.183594 610.867188 241.113281 Z M 610.867188 241.113281 "/>
<path style=" stroke:none;fill-rule:nonzero;fill:rgb(99.607843%,77.254903%,4.705882%);fill-opacity:1;" d="M 569.492188 374.359375 C 565.816406 376.464844 565.386719 380.3125 566.535156 384.007812 C 568.066406 388.9375 580.4375 409.609375 580.4375 409.609375 C 580.4375 409.609375 578.226562 383.324219 576.695312 378.394531 C 575.550781 374.695312 573.1875 372.320312 569.492188 374.359375 Z M 569.492188 374.359375 "/>
<path style=" stroke:none;fill-rule:nonzero;fill:rgb(99.607843%,77.254903%,4.705882%);fill-opacity:1;" d="M 469.605469 319.167969 C 468.027344 314.261719 465.144531 313.691406 462.371094 315.222656 C 458.675781 317.265625 443.183594 333.769531 443.183594 333.769531 C 443.183594 333.769531 462.886719 330.820312 466.582031 328.78125 C 469.355469 327.246094 471.136719 324.097656 469.605469 319.167969 Z M 469.605469 319.167969 "/>
<path style=" stroke:none;fill-rule:nonzero;fill:rgb(99.607843%,77.254903%,4.705882%);fill-opacity:1;" d="M 510.980469 185.917969 C 514.65625 183.816406 515.085938 179.96875 513.9375 176.269531 C 512.40625 171.339844 500.035156 150.671875 500.035156 150.671875 C 500.035156 150.671875 502.242188 176.957031 503.773438 181.886719 C 504.921875 185.582031 507.285156 187.960938 510.980469 185.917969 Z M 510.980469 185.917969 "/>
<path style=" stroke:none;fill-rule:nonzero;fill:rgb(99.607843%,77.254903%,4.705882%);fill-opacity:1;" d="M 555.152344 180.117188 C 559.082031 181.089844 561.042969 178.210938 561.628906 174.285156 C 562.40625 169.050781 560.730469 142.695312 560.730469 142.695312 C 560.730469 142.695312 551.621094 166.1875 550.839844 171.421875 C 550.253906 175.347656 551.226562 179.074219 555.152344 180.117188 Z M 555.152344 180.117188 "/>
<path style=" stroke:none;fill-rule:nonzero;fill:rgb(99.607843%,77.254903%,4.705882%);fill-opacity:1;" d="M 615.21875 300.035156 C 614.484375 305.28125 616.644531 307.894531 619.585938 308.675781 C 623.511719 309.71875 643.265625 307.480469 643.265625 307.480469 C 643.265625 307.480469 625.65625 295.324219 621.734375 294.285156 C 618.789062 293.503906 615.996094 294.800781 615.21875 300.035156 Z M 615.21875 300.035156 "/>
<path style=" stroke:none;fill-rule:nonzero;fill:rgb(99.607843%,77.254903%,4.705882%);fill-opacity:1;" d="M 525.320312 380.164062 C 521.386719 379.1875 519.429688 382.070312 518.84375 385.996094 C 518.0625 391.226562 519.742188 417.585938 519.742188 417.585938 C 519.742188 417.585938 528.851562 394.089844 529.632812 388.859375 C 530.21875 384.933594 529.246094 381.207031 525.320312 380.164062 Z M 525.320312 380.164062 "/>
<path style=" stroke:none;fill-rule:nonzero;fill:rgb(99.607843%,77.254903%,4.705882%);fill-opacity:1;" d="M 465.253906 260.242188 C 465.984375 254.996094 463.828125 252.382812 460.882812 251.601562 C 456.960938 250.5625 437.203125 252.800781 437.203125 252.800781 C 437.203125 252.800781 454.816406 264.953125 458.738281 265.996094 C 461.679688 266.777344 464.472656 265.476562 465.253906 260.242188 Z M 465.253906 260.242188 "/>
<path style=" stroke:none;fill-rule:nonzero;fill:rgb(99.607843%,77.254903%,4.705882%);fill-opacity:1;" d="M 582.710938 195.34375 C 586.0625 198.253906 588.699219 196.589844 590.367188 193.261719 C 592.589844 188.828125 598.597656 163.621094 598.597656 163.621094 C 598.597656 163.621094 583.441406 180.675781 581.21875 185.109375 C 579.554688 188.4375 579.382812 192.378906 582.710938 195.34375 Z M 582.710938 195.34375 "/>
<path style=" stroke:none;fill-rule:nonzero;fill:rgb(99.607843%,77.254903%,4.705882%);fill-opacity:1;" d="M 603.800781 336.800781 C 601.621094 341.273438 602.867188 344.789062 605.359375 347.011719 C 608.6875 349.976562 627.582031 357.996094 627.582031 357.996094 C 627.582031 357.996094 614.796875 337.777344 611.472656 334.8125 C 608.976562 332.589844 606.023438 332.363281 603.800781 336.800781 Z M 603.800781 336.800781 "/>
<path style=" stroke:none;fill-rule:nonzero;fill:rgb(99.607843%,77.254903%,4.705882%);fill-opacity:1;" d="M 497.761719 364.9375 C 494.410156 362.027344 491.773438 363.6875 490.105469 367.015625 C 487.882812 371.453125 481.875 396.660156 481.875 396.660156 C 481.875 396.660156 497.03125 379.605469 499.253906 375.167969 C 500.917969 371.839844 501.089844 367.902344 497.761719 364.9375 Z M 497.761719 364.9375 "/>
<path style=" stroke:none;fill-rule:nonzero;fill:rgb(99.607843%,77.254903%,4.705882%);fill-opacity:1;" d="M 476.671875 223.480469 C 478.851562 219.007812 477.605469 215.488281 475.109375 213.265625 C 471.785156 210.300781 452.890625 202.285156 452.890625 202.285156 C 452.890625 202.285156 465.671875 222.503906 469 225.46875 C 471.492188 227.691406 474.449219 227.917969 476.671875 223.480469 Z M 476.671875 223.480469 "/>
<path style=" stroke:none;fill-rule:nonzero;fill:rgb(99.607843%,77.254903%,4.705882%);fill-opacity:1;" d="M 603.800781 223.480469 C 606.066406 227.878906 608.976562 227.691406 611.472656 225.46875 C 614.796875 222.503906 627.582031 202.285156 627.582031 202.285156 C 627.582031 202.285156 608.6875 210.300781 605.359375 213.265625 C 602.867188 215.488281 601.578125 219.042969 603.800781 223.480469 Z M 603.800781 223.480469 "/>
<path style=" stroke:none;fill-rule:nonzero;fill:rgb(99.607843%,77.254903%,4.705882%);fill-opacity:1;" d="M 582.710938 364.9375 C 579.410156 367.957031 579.554688 371.839844 581.21875 375.167969 C 583.441406 379.605469 598.597656 396.660156 598.597656 396.660156 C 598.597656 396.660156 592.589844 371.453125 590.367188 367.015625 C 588.699219 363.6875 586.035156 361.972656 582.710938 364.9375 Z M 582.710938 364.9375 "/>
<path style=" stroke:none;fill-rule:nonzero;fill:rgb(99.607843%,77.254903%,4.705882%);fill-opacity:1;" d="M 476.671875 336.800781 C 474.40625 332.398438 471.492188 332.589844 469 334.8125 C 465.671875 337.777344 452.890625 357.996094 452.890625 357.996094 C 452.890625 357.996094 471.785156 349.976562 475.109375 347.011719 C 477.605469 344.789062 478.890625 341.234375 476.671875 336.800781 Z M 476.671875 336.800781 "/>
<path style=" stroke:none;fill-rule:nonzero;fill:rgb(99.607843%,77.254903%,4.705882%);fill-opacity:1;" d="M 497.761719 195.34375 C 501.058594 192.324219 500.917969 188.4375 499.253906 185.109375 C 497.03125 180.675781 481.875 163.621094 481.875 163.621094 C 481.875 163.621094 487.882812 188.828125 490.105469 193.261719 C 491.773438 196.589844 494.4375 198.308594 497.761719 195.34375 Z M 497.761719 195.34375 "/>
<path style=" stroke:none;fill-rule:nonzero;fill:rgb(99.607843%,77.254903%,4.705882%);fill-opacity:1;" d="M 615.21875 260.242188 C 616.046875 265.464844 618.789062 266.777344 621.734375 265.996094 C 625.65625 264.953125 643.265625 252.800781 643.265625 252.800781 C 643.265625 252.800781 623.511719 250.5625 619.585938 251.601562 C 616.644531 252.382812 614.4375 255.011719 615.21875 260.242188 Z M 615.21875 260.242188 "/>
<path style=" stroke:none;fill-rule:nonzero;fill:rgb(99.607843%,77.254903%,4.705882%);fill-opacity:1;" d="M 555.152344 380.164062 C 551.238281 381.269531 550.253906 384.933594 550.839844 388.859375 C 551.621094 394.089844 560.730469 417.585938 560.730469 417.585938 C 560.730469 417.585938 562.40625 391.226562 561.628906 385.996094 C 561.042969 382.070312 559.074219 379.125 555.152344 380.164062 Z M 555.152344 380.164062 "/>
<path style=" stroke:none;fill-rule:nonzero;fill:rgb(99.607843%,77.254903%,4.705882%);fill-opacity:1;" d="M 465.253906 300.035156 C 464.425781 294.816406 461.679688 293.503906 458.738281 294.285156 C 454.816406 295.324219 437.203125 307.480469 437.203125 307.480469 C 437.203125 307.480469 456.960938 309.71875 460.882812 308.675781 C 463.828125 307.894531 466.035156 305.269531 465.253906 300.035156 Z M 465.253906 300.035156 "/>
<path style=" stroke:none;fill-rule:nonzero;fill:rgb(99.607843%,77.254903%,4.705882%);fill-opacity:1;" d="M 525.320312 180.117188 C 529.234375 179.007812 530.21875 175.347656 529.632812 171.421875 C 528.851562 166.1875 519.742188 142.695312 519.742188 142.695312 C 519.742188 142.695312 518.0625 169.050781 518.84375 174.285156 C 519.429688 178.210938 521.398438 181.15625 525.320312 180.117188 Z M 525.320312 180.117188 "/>
<path style=" stroke:none;fill-rule:nonzero;fill:rgb(99.607843%,77.254903%,4.705882%);fill-opacity:1;" d="M 528.234375 474.546875 C 526.433594 474.683594 524.683594 474.992188 522.964844 475.726562 C 520.617188 476.148438 518.367188 477.238281 516.035156 477.75 L 515.101562 477.949219 L 513.535156 478.148438 C 513.632812 478.726562 513.699219 479.304688 513.699219 479.882812 C 513.699219 480.484375 513.648438 481.0625 513.535156 481.550781 C 513.433594 482.019531 513.117188 482.597656 512.867188 482.953125 C 512.535156 483.441406 512.183594 483.863281 511.765625 484.128906 C 511.367188 484.398438 510.917969 484.507812 510.464844 484.554688 C 510.015625 484.574219 509.550781 484.554688 509.117188 484.332031 C 508.667969 484.128906 508.25 483.753906 507.867188 483.308594 C 507.398438 483.464844 506.917969 483.574219 506.464844 483.640625 C 506 483.707031 505.566406 483.707031 505.148438 483.640625 C 504.683594 483.464844 504.199219 483.265625 503.75 483.019531 C 503.300781 482.773438 502.867188 482.464844 502.449219 482.109375 C 500.75 483.441406 498.851562 484.707031 497.816406 487.042969 C 497.234375 488.109375 497.117188 489.332031 496.984375 490.601562 C 496.898438 492.15625 497.199219 493.800781 497.699219 495.246094 C 497.882812 495.667969 498.035156 493.714844 498.601562 493.445312 C 499.550781 492.402344 500.734375 491.644531 501.933594 491.222656 C 502.949219 490.535156 502.816406 491.269531 502.398438 492.335938 C 502.300781 492.890625 501.734375 495.003906 502.5 493.9375 C 505.882812 491.933594 509.632812 491.535156 513.285156 491.15625 C 518.582031 490.421875 523.898438 490.265625 529.214844 490.179688 C 534.214844 490.265625 539.214844 490.355469 544.214844 490.601562 C 546.601562 490.691406 549 491.402344 551.351562 490.867188 C 551.917969 490.667969 552.800781 490.621094 553.132812 490.179688 C 552.066406 489.355469 550.816406 489.332031 549.632812 489.132812 L 540.101562 489.132812 C 537.449219 488.777344 534.683594 488.734375 532.183594 487.398438 C 531.515625 487.042969 530.898438 486.199219 530.265625 487.109375 C 529.316406 487.554688 528.300781 487.867188 527.300781 487.953125 C 525.550781 488.132812 523.800781 487.644531 522.183594 486.777344 C 523.351562 484.621094 524.75 482.730469 526.035156 480.730469 C 525 480.507812 524 480.21875 522.964844 479.882812 C 524.785156 478.214844 526.464844 476.328125 528.234375 474.546875 Z M 528.234375 474.546875 "/>
<path style=" stroke:none;fill-rule:nonzero;fill:rgb(99.607843%,77.254903%,4.705882%);fill-opacity:1;" d="M 606.101562 497.589844 C 602.476562 500.492188 599.710938 495.347656 596.683594 493.804688 C 594.523438 495.371094 594.320312 500.613281 592.300781 503.09375 C 589.882812 506.765625 586.917969 502.070312 587.140625 498.449219 C 584.25 501.699219 582.785156 509.070312 578.113281 508.085938 C 575.894531 505.671875 574.25 500.613281 572.558594 506.375 C 571.179688 509.191406 567.503906 513.199219 565.601562 508.945312 C 565.011719 505.191406 563.601562 500.773438 562.070312 506.738281 C 561.019531 510.957031 557.644531 514.0625 554.378906 512.214844 C 552.59375 510.265625 555.8125 503.058594 553.539062 503.570312 C 550.136719 506.570312 548.160156 514.015625 543.417969 513.417969 C 541.574219 510.660156 544.535156 505.984375 542.511719 502.921875 C 540.128906 507.007812 537.480469 512.988281 533.355469 513.417969 C 531.363281 511.261719 533.433594 505.082031 532.160156 504.164062 C 527.925781 507.550781 523.460938 513.589844 518.136719 511.699219 C 520.210938 501.109375 528.882812 497.394531 536.171875 496.570312 C 548.71875 494.515625 561.914062 498.296875 573.984375 492.253906 C 575.933594 490.671875 580.660156 488.425781 578.976562 484.757812 C 577.488281 481.855469 582.851562 482.992188 583.371094 479.605469 C 583.050781 475.316406 585.832031 475.90625 588.550781 475.53125 C 600.738281 474.828125 612.777344 478.253906 624.929688 478.835938 C 625.847656 486.734375 619.28125 492.28125 613.992188 489.839844 C 611.464844 490.386719 607.679688 482.09375 608.421875 488.125 C 607.914062 491.292969 608.269531 495.476562 606.101562 497.589844 M 502.398438 481.417969 C 505.222656 484.863281 507.199219 480.769531 509.835938 479.273438 C 518.683594 475.210938 526.402344 468.121094 534.011719 461.03125 C 538.621094 455.945312 542.617188 449.34375 548.808594 447.691406 C 560.886719 442.820312 573.726562 443.414062 585.847656 438.917969 C 595.082031 422.054688 610.761719 416.039062 623.898438 406.347656 C 626.847656 405.125 627.988281 401.886719 628.929688 398.3125 C 633.941406 387.753906 640.773438 378.398438 648.851562 372.007812 C 652.671875 369.21875 657.234375 367.617188 661.558594 368.890625 C 661.25 375.765625 658.292969 381.859375 654.722656 386.613281 C 657.644531 386.527344 660.15625 384.066406 663.105469 384.203125 C 664.117188 391.257812 658.40625 394.953125 655.367188 399.34375 C 657.0625 399.871094 663.542969 400.523438 660.011719 402.785156 C 655.507812 406.953125 650.367188 409.816406 646.210938 414.65625 C 650.046875 415.578125 650.484375 416.664062 646.582031 418.515625 C 644.472656 420.421875 640.414062 421.089844 640.019531 424.808594 C 642.917969 427.183594 638.6875 429.542969 637.054688 430.3125 C 633.933594 431.285156 630.65625 433.09375 634.800781 436.253906 C 633.230469 439.414062 629.867188 440.089844 627.121094 439.777344 C 627.957031 443.359375 629.160156 447.367188 625.675781 448.945312 C 617.863281 456.824219 608.695312 462.554688 598.875 463.867188 C 611.144531 465.125 623.777344 462.085938 634.261719 453.1875 C 635.644531 451.003906 642.902344 448.65625 638.84375 446.820312 C 636.933594 445.761719 632.835938 444.582031 632.558594 442.640625 C 638.238281 437.964844 645.390625 439.628906 651.5 436.851562 C 651.65625 434.214844 646.851562 434.949219 645.0625 434.347656 C 640.789062 433.882812 641.042969 432.425781 645.160156 431.886719 C 650.371094 430.046875 656.273438 429.683594 660.65625 425.152344 C 657.085938 422.945312 652.597656 424.886719 648.789062 423.085938 C 655.246094 419.320312 662.859375 418.941406 668.652344 413.28125 C 671.292969 409.363281 665.273438 410.589844 663.519531 410.683594 C 659.945312 411.511719 658.292969 409.230469 662.351562 407.25 C 669.289062 400.425781 678.070312 395.996094 682.941406 386.105469 C 684.09375 383.894531 685.65625 377.222656 681.976562 379.621094 C 677.136719 381.769531 672.878906 389.027344 667.363281 386.78125 C 678.230469 375.546875 688.570312 362.757812 695.996094 347.210938 C 696.378906 342.726562 691.105469 342.238281 689.730469 345.761719 C 682.75 354.734375 676.429688 365.328125 667.492188 370.953125 C 676.054688 359.929688 683.128906 346.878906 689.304688 333.355469 C 690.628906 329.332031 694.1875 324.492188 692.257812 320.023438 C 689.144531 316.585938 685.25 319.734375 683.632812 323.847656 C 678.207031 333.296875 674.085938 344.328125 667.105469 352.027344 C 673.214844 336.472656 679.542969 319.914062 679.695312 301.972656 C 679.675781 298.277344 679.121094 292.835938 675.359375 293.527344 C 672.378906 294.242188 673.085938 300.191406 671.859375 303.203125 C 669.152344 315.460938 667.882812 328.734375 662.332031 339.46875 C 663.582031 329.507812 665.765625 319.125 664.089844 309.066406 C 663.304688 304.570312 657.863281 306.503906 658.566406 310.953125 C 652.0625 354.882812 629.96875 393.300781 601.070312 415.523438 C 587.839844 425.511719 573.058594 431.949219 558.023438 434.867188 C 553.976562 436.050781 549.601562 435.355469 545.738281 437.199219 C 536.367188 446.78125 530.695312 462.816406 518.835938 467.835938 C 513.519531 471.359375 506.585938 472.074219 502.785156 478.664062 C 502.457031 479.507812 502.386719 480.480469 502.398438 481.417969 "/>
<path style=" stroke:none;fill-rule:nonzero;fill:rgb(99.607843%,77.254903%,4.705882%);fill-opacity:1;" d="M 537.898438 436.851562 C 536.148438 441.089844 535.121094 445.960938 532.871094 449.757812 C 526.097656 441.539062 516.285156 441.808594 507.695312 441.261719 C 500.609375 440.757812 492.898438 439.886719 487.414062 433.140625 C 481.644531 426.835938 476.9375 418.652344 470.488281 413.535156 C 464.605469 411.402344 458.671875 408.730469 453.941406 403.351562 C 443.832031 392.355469 438.042969 376.046875 428.164062 364.707031 C 426.277344 362.234375 424.058594 360.320312 421.949219 358.222656 C 419.941406 358.871094 420.851562 364.644531 418.398438 361.703125 C 417.0625 360.433594 413.722656 360.3125 413.421875 362.082031 C 416.441406 367.390625 419.464844 373.453125 419.882812 380.246094 C 417.824219 380.527344 414.160156 379.664062 413.140625 380.6875 C 415.875 386.15625 419.382812 391.007812 423.367188 394.871094 C 421.457031 395.28125 417.691406 395.054688 416.957031 396.082031 C 420.914062 400.382812 425.152344 404.777344 430.332031 405.882812 C 431.390625 407.746094 428.78125 411.34375 430.976562 412.9375 C 432.25 413.628906 436.449219 414.789062 433.554688 416.722656 C 431.570312 418.507812 432.308594 422.664062 434.84375 422.570312 C 436.449219 423.664062 440.054688 423.933594 440.335938 425.824219 C 438.914062 427.757812 434.488281 430.046875 438.253906 431.855469 C 441.773438 434.460938 445.789062 436.148438 449.808594 436.335938 C 447.789062 438.597656 445.304688 439.886719 443.230469 442.015625 C 452.503906 449.269531 462.785156 454.039062 472.945312 458.636719 C 476.992188 460.4375 481.082031 462.121094 485.277344 463.175781 C 473.09375 462.238281 461.316406 457.425781 450.21875 450.839844 C 444.46875 447.476562 438.675781 444.226562 432.78125 441.328125 C 435.367188 439.53125 438.355469 439.09375 441.035156 437.542969 C 435.472656 436.054688 429.394531 435.566406 424.503906 431.488281 C 425.253906 429.703125 428.09375 429.617188 429.664062 428.710938 C 432.621094 427.765625 434.453125 426.617188 430.289062 426.277344 C 426.085938 424.753906 421.265625 425.4375 417.5625 422.054688 C 417.800781 420.027344 421.675781 420.734375 423.253906 419.859375 C 425.242188 419.402344 427.453125 419.023438 429.042969 417.238281 C 422.542969 413.644531 414.046875 416.191406 408.957031 408.535156 C 407.785156 405.621094 412.601562 407.96875 413.972656 407.484375 C 417.460938 407.484375 421.207031 408.960938 424.527344 407.085938 C 415.058594 401.542969 404.917969 396.351562 397.699219 386.09375 C 396.898438 384.445312 394.496094 379.941406 396.433594 379.386719 C 402.054688 380.378906 406.121094 388.558594 412.132812 387.285156 C 412.929688 385.851562 408.640625 383.496094 407.570312 381.445312 C 398.804688 371.410156 390.296875 360.523438 384.15625 347.382812 C 383.734375 342.996094 388.90625 342.335938 390.265625 345.726562 C 396.96875 354.339844 403.023438 364.386719 411.371094 370.265625 C 414.332031 372.183594 409.671875 368 409.050781 366.480469 C 401.335938 354.53125 393.992188 341.914062 388.601562 327.839844 C 387.636719 325.304688 386.039062 320.710938 388.925781 319.363281 C 391.8125 317.433594 394.675781 320.0625 396.140625 323.367188 C 401.808594 332.910156 405.984375 344.25 413.046875 352.199219 C 407.027344 336.621094 400.601562 320.21875 400.449219 302.289062 C 400.589844 298.8125 400.757812 293.558594 404.289062 293.699219 C 407.257812 293.101562 406.789062 298.167969 407.761719 300.582031 C 410.683594 313.753906 411.957031 328.011719 417.820312 339.640625 C 416.523438 329.867188 414.621094 319.804688 415.886719 309.871094 C 416.175781 306.613281 418.929688 305.625 420.726562 307.597656 C 422.179688 312.339844 422.480469 318.195312 423.804688 323.265625 C 431.335938 357.628906 448.242188 387.851562 470.277344 408.132812 C 488.421875 424.734375 509.957031 434.644531 531.9375 436.375 C 533.921875 436.605469 535.914062 436.683594 537.902344 436.847656 "/>
<path style=" stroke:none;fill-rule:nonzero;fill:rgb(99.607843%,77.254903%,4.705882%);fill-opacity:1;" d="M 511.183594 480.832031 C 511.183594 481.703125 510.652344 482.410156 510 482.410156 C 509.347656 482.410156 508.816406 481.703125 508.816406 480.832031 C 508.816406 479.960938 509.347656 479.253906 510 479.253906 C 510.652344 479.253906 511.183594 479.960938 511.183594 480.832031 Z M 511.183594 480.832031 "/>
<path style="fill-rule:nonzero;fill:rgb(99.607843%,77.254903%,4.705882%);fill-opacity:1;stroke-width:0.381274;stroke-linecap:butt;stroke-linejoin:miter;stroke:rgb(0%,68.627453%,79.215688%);stroke-opacity:1;stroke-miterlimit:4;" d="M 1020.765625 720.506934 C 1020.765625 721.039871 1020.335938 721.473248 1019.796875 721.473248 C 1019.265625 721.473248 1018.835938 721.039871 1018.835938 720.506934 C 1018.835938 719.973997 1019.265625 719.54062 1019.796875 719.54062 C 1020.335938 719.54062 1020.765625 719.973997 1020.765625 720.506934 Z M 1020.765625 720.506934 " transform="matrix(0.5,0,0,0.667,0,0)"/>
<path style=" stroke:none;fill-rule:nonzero;fill:rgb(99.607843%,77.254903%,4.705882%);fill-opacity:1;" d="M 60 48.640625 C 60 48.640625 55.195312 43.253906 53.5625 45.953125 C 50.9375 50.300781 61.632812 71.945312 61.632812 79.566406 C 61.632812 92.082031 55.375 95.484375 47.648438 97.269531 C 42.460938 98.46875 34.015625 96.769531 34.015625 96.769531 C 35.605469 93.917969 36.640625 93.078125 39.320312 92.851562 C 36.335938 90.785156 33.300781 86.300781 33.300781 79.320312 C 33.300781 68.558594 36.621094 64.121094 36.621094 51.984375 C 36.621094 45.253906 32.484375 36.683594 32.484375 36.683594 C 39.796875 37.660156 43.421875 46.695312 41.359375 53.914062 C 42.523438 54.140625 43.582031 53.789062 44.488281 52.640625 C 45.023438 54.644531 44.179688 56.964844 43.046875 58.96875 C 43.960938 59.617188 44.628906 59.226562 46.082031 58.828125 C 45.945312 60.890625 45.015625 63.082031 42.75 65.140625 C 49.328125 62.863281 53.375 68.980469 53.375 75.378906 C 53.375 80.214844 50.832031 83.679688 48.351562 83.679688 C 47.550781 83.679688 46.371094 83.238281 45.707031 82.574219 C 45.238281 83.90625 45.476562 85.6875 45.960938 87.015625 C 44.140625 86.375 42.988281 84.933594 43.808594 81.933594 C 42.410156 81.761719 41.300781 81.132812 40.542969 79.933594 C 41.308594 78.625 42.472656 77.871094 43.808594 77.929688 C 42.792969 75.128906 43.925781 73.5625 45.578125 72.292969 C 45.578125 72.292969 44.527344 77.929688 47.210938 77.929688 C 48.417969 77.929688 49.515625 77.40625 49.515625 75.035156 C 49.515625 72.96875 48.164062 70.109375 45.035156 70.289062 C 41.90625 70.472656 39.367188 73.167969 39.367188 79.832031 C 39.367188 85.980469 43.085938 89.035156 47.980469 89.234375 C 52.398438 89.417969 55.734375 86.222656 55.734375 80.144531 C 55.734375 72.058594 46.980469 53.617188 46.980469 46.410156 C 46.980469 41 50.625 37.980469 54.191406 37.980469 C 58.816406 37.980469 62.722656 44.089844 62.722656 44.089844 L 60.003906 48.636719 Z M 60 48.640625 "/>
<path style=" stroke:none;fill-rule:nonzero;fill:rgb(99.607843%,77.254903%,4.705882%);fill-opacity:1;" d="M 61.011719 194.855469 C 61.011719 208.378906 51.910156 215.328125 44.761719 215.328125 C 35.128906 215.328125 30 207.644531 30 197.585938 C 30 191.882812 30.78125 188.308594 32.753906 182.851562 C 32.753906 182.851562 48.644531 138.765625 54.828125 121.71875 C 55.601562 119.589844 55.847656 117.171875 55.847656 113.621094 C 55.847656 108.140625 51.863281 103.660156 47.6875 103.523438 C 43.878906 103.398438 39.726562 108.261719 39.726562 113.804688 C 39.726562 120.535156 42.34375 123.535156 45.03125 123.535156 C 48.339844 123.535156 49.660156 121.722656 49.660156 118.625 C 49.660156 116.464844 48.878906 115.53125 47.753906 115.53125 C 44.917969 115.53125 45.714844 120.625 45.714844 120.625 C 44.304688 120.214844 43.148438 118.292969 43.808594 115.894531 C 42.777344 115.589844 41.8125 114.867188 41.054688 113.710938 C 41.8125 112.730469 42.6875 111.96875 43.808594 111.710938 C 43.144531 108.785156 44.03125 107.355469 45.953125 106.753906 C 45.5625 107.878906 45.550781 108.914062 45.679688 109.890625 C 48.703125 108.746094 53.332031 110.570312 53.332031 117.53125 C 53.332031 124.445312 49.734375 130.269531 42.992188 128.8125 C 44.597656 129.835938 45.414062 131.929688 45.578125 134.269531 C 44.351562 133.632812 42.992188 133.542969 42.992188 133.542969 C 43.78125 135.398438 44.875 136.996094 44.828125 140.640625 C 43.578125 139.878906 42.417969 138.476562 40.816406 139.367188 C 43.328125 145.964844 40.238281 155.046875 32.378906 157.195312 C 35.257812 152.699219 36.664062 147.839844 36.664062 143.003906 C 36.664062 127.332031 33.398438 124.699219 33.398438 113.804688 C 33.398438 109.246094 35.15625 104.320312 38.636719 100.976562 L 38.636719 101.15625 C 36.335938 100.335938 34.863281 98.824219 34.015625 96.769531 C 39.273438 94.78125 46.914062 94.816406 51.019531 96.972656 C 55.734375 97.699219 59.027344 102.527344 60 104.980469 C 60.96875 107.425781 62.851562 116.285156 60 124.261719 C 56.875 132.992188 42.144531 174.660156 37.550781 187.761719 C 36.574219 190.539062 35.984375 193.484375 35.984375 196.675781 C 35.984375 204.699219 41.496094 207.5 44.625 207.5 C 48.367188 207.5 52.175781 203.699219 52.175781 198.949219 C 52.175781 195.941406 50.949219 194.128906 49.183594 194.128906 C 44.953125 194.128906 45.210938 198.925781 46.054688 201.953125 C 43.421875 200.371094 41.890625 197.554688 42.3125 194.582031 C 40.820312 194.3125 39.402344 193.367188 38.09375 191.398438 C 39.125 189.664062 40.378906 188.351562 42.3125 188.304688 C 41.46875 183.695312 43.78125 181.746094 46.054688 180.664062 C 45.335938 184.046875 44.863281 187.941406 49.183594 187.941406 C 52.332031 187.941406 54.8125 188.671875 56.257812 191.398438 C 56.34375 187.761719 56.597656 173.386719 56.597656 173.386719 C 56.777344 167.984375 51.179688 168.140625 47.617188 169.75 C 48.960938 163.527344 51.71875 160.164062 58.09375 161.015625 C 56.546875 160.152344 54.898438 158.207031 54.898438 154.464844 C 54.898438 149.402344 57.976562 143.789062 60 142.132812 L 61.011719 194.859375 Z M 61.011719 194.855469 "/>
<path style=" stroke:none;fill-rule:nonzero;fill:rgb(99.607843%,77.254903%,4.705882%);fill-opacity:1;" d="M 61.011719 235.410156 C 61.011719 221.890625 51.910156 214.941406 44.761719 214.941406 C 35.128906 214.941406 30 222.625 30 232.683594 C 30 238.382812 30.78125 241.960938 32.753906 247.417969 C 32.753906 247.417969 48.644531 291.5 54.828125 308.550781 C 55.601562 310.675781 55.847656 313.097656 55.847656 316.648438 C 55.847656 322.128906 51.863281 326.605469 47.6875 326.746094 C 43.878906 326.871094 39.726562 322.007812 39.726562 316.464844 C 39.726562 309.734375 42.34375 306.730469 45.03125 306.730469 C 48.339844 306.730469 49.660156 308.546875 49.660156 311.644531 C 49.660156 313.800781 48.878906 314.738281 47.753906 314.738281 C 44.917969 314.738281 45.714844 309.640625 45.714844 309.640625 C 44.304688 310.054688 43.148438 311.972656 43.808594 314.371094 C 42.777344 314.679688 41.8125 315.402344 41.054688 316.554688 C 41.8125 317.539062 42.6875 318.300781 43.808594 318.558594 C 43.144531 321.484375 44.03125 322.914062 45.953125 323.515625 C 45.5625 322.390625 45.550781 321.355469 45.679688 320.375 C 48.703125 321.523438 53.332031 319.699219 53.332031 312.734375 C 53.332031 305.820312 49.734375 300 42.992188 301.457031 C 44.597656 300.433594 45.414062 298.339844 45.578125 295.996094 C 44.351562 296.632812 42.992188 296.726562 42.992188 296.726562 C 43.78125 294.871094 44.875 293.269531 44.828125 289.628906 C 43.578125 290.386719 42.417969 291.792969 40.816406 290.902344 C 43.328125 284.300781 40.238281 275.222656 32.378906 273.074219 C 35.257812 277.570312 36.664062 282.429688 36.664062 287.265625 C 36.664062 302.9375 33.398438 305.570312 33.398438 316.464844 C 33.398438 321.023438 35.15625 325.945312 38.636719 329.292969 L 38.636719 329.109375 C 36.335938 329.933594 34.863281 331.445312 34.015625 333.496094 C 39.273438 335.488281 46.914062 335.449219 51.019531 333.296875 C 55.734375 332.566406 59.027344 327.738281 60 325.289062 C 60.96875 322.839844 62.851562 313.980469 60 306.003906 C 56.875 297.277344 42.144531 255.609375 37.550781 242.507812 C 36.574219 239.730469 35.984375 236.785156 35.984375 233.59375 C 35.984375 225.570312 41.496094 222.769531 44.625 222.769531 C 48.367188 222.769531 52.175781 226.570312 52.175781 231.320312 C 52.175781 234.328125 50.949219 236.140625 49.183594 236.140625 C 44.953125 236.140625 45.210938 231.339844 46.054688 228.316406 C 43.421875 229.894531 41.890625 232.714844 42.3125 235.683594 C 40.820312 235.957031 39.402344 236.902344 38.09375 238.871094 C 39.125 240.605469 40.378906 241.914062 42.3125 241.960938 C 41.46875 246.574219 43.78125 248.523438 46.054688 249.601562 C 45.335938 246.21875 44.863281 242.324219 49.183594 242.324219 C 52.332031 242.324219 54.8125 241.597656 56.257812 238.867188 C 56.34375 242.507812 56.597656 256.882812 56.597656 256.882812 C 56.777344 262.28125 51.179688 262.128906 47.617188 260.519531 C 48.960938 266.742188 51.71875 270.105469 58.09375 269.253906 C 56.546875 270.117188 54.898438 272.058594 54.898438 275.804688 C 54.898438 280.867188 57.976562 286.476562 60 288.136719 Z M 61.011719 235.410156 "/>
<path style=" stroke:none;fill-rule:nonzero;fill:rgb(99.607843%,77.254903%,4.705882%);fill-opacity:1;" d="M 60 48.640625 C 60 48.640625 64.804688 43.253906 66.4375 45.953125 C 69.0625 50.300781 58.367188 71.945312 58.367188 79.566406 C 58.367188 92.082031 64.625 95.484375 72.351562 97.269531 C 77.539062 98.46875 85.984375 96.769531 85.984375 96.769531 C 84.394531 93.917969 83.359375 93.078125 80.679688 92.851562 C 83.664062 90.785156 86.699219 86.300781 86.699219 79.320312 C 86.699219 68.558594 83.378906 64.121094 83.378906 51.984375 C 83.378906 45.253906 87.515625 36.683594 87.515625 36.683594 C 80.203125 37.660156 76.578125 46.695312 78.640625 53.914062 C 77.476562 54.140625 76.417969 53.789062 75.511719 52.640625 C 74.976562 54.644531 75.820312 56.964844 76.953125 58.96875 C 76.039062 59.617188 75.371094 59.226562 73.917969 58.828125 C 74.054688 60.890625 74.984375 63.082031 77.25 65.140625 C 70.671875 62.863281 66.625 68.980469 66.625 75.378906 C 66.625 80.214844 69.167969 83.679688 71.648438 83.679688 C 72.449219 83.679688 73.628906 83.238281 74.292969 82.574219 C 74.761719 83.90625 74.523438 85.6875 74.039062 87.015625 C 75.859375 86.375 77.011719 84.933594 76.191406 81.933594 C 77.589844 81.761719 78.699219 81.132812 79.457031 79.933594 C 78.691406 78.625 77.527344 77.871094 76.191406 77.929688 C 77.207031 75.128906 76.074219 73.5625 74.421875 72.292969 C 74.421875 72.292969 75.472656 77.929688 72.789062 77.929688 C 71.582031 77.929688 70.484375 77.40625 70.484375 75.035156 C 70.484375 72.96875 71.835938 70.109375 74.964844 70.289062 C 78.09375 70.472656 80.632812 73.167969 80.632812 79.832031 C 80.632812 85.980469 76.914062 89.035156 72.019531 89.234375 C 67.601562 89.417969 64.265625 86.222656 64.265625 80.144531 C 64.265625 72.058594 73.019531 53.617188 73.019531 46.410156 C 73.019531 41 69.375 37.980469 65.808594 37.980469 C 61.183594 37.980469 57.277344 44.089844 57.277344 44.089844 L 59.996094 48.636719 Z M 60 48.640625 "/>
<path style=" stroke:none;fill-rule:nonzero;fill:rgb(99.607843%,77.254903%,4.705882%);fill-opacity:1;" d="M 58.988281 194.855469 C 58.988281 208.378906 68.089844 215.328125 75.238281 215.328125 C 84.871094 215.328125 90 207.644531 90 197.585938 C 90 191.882812 89.21875 188.308594 87.246094 182.851562 C 87.246094 182.851562 71.355469 138.765625 65.171875 121.71875 C 64.398438 119.589844 64.152344 117.171875 64.152344 113.621094 C 64.152344 108.140625 68.136719 103.660156 72.3125 103.523438 C 76.121094 103.398438 80.273438 108.261719 80.273438 113.804688 C 80.273438 120.535156 77.65625 123.535156 74.96875 123.535156 C 71.660156 123.535156 70.339844 121.722656 70.339844 118.625 C 70.339844 116.464844 71.121094 115.53125 72.246094 115.53125 C 75.082031 115.53125 74.285156 120.625 74.285156 120.625 C 75.695312 120.214844 76.851562 118.292969 76.191406 115.894531 C 77.222656 115.589844 78.1875 114.867188 78.945312 113.710938 C 78.1875 112.730469 77.3125 111.96875 76.191406 111.710938 C 76.855469 108.785156 75.96875 107.355469 74.046875 106.753906 C 74.4375 107.878906 74.449219 108.914062 74.320312 109.890625 C 71.296875 108.746094 66.667969 110.570312 66.667969 117.53125 C 66.667969 124.445312 70.265625 130.269531 77.007812 128.8125 C 75.402344 129.835938 74.585938 131.929688 74.421875 134.269531 C 75.648438 133.632812 77.007812 133.542969 77.007812 133.542969 C 76.21875 135.398438 75.125 136.996094 75.171875 140.640625 C 76.421875 139.878906 77.582031 138.476562 79.183594 139.367188 C 76.671875 145.964844 79.761719 155.046875 87.621094 157.195312 C 84.742188 152.699219 83.335938 147.839844 83.335938 143.003906 C 83.335938 127.332031 86.601562 124.699219 86.601562 113.804688 C 86.601562 109.246094 84.84375 104.320312 81.363281 100.976562 L 81.363281 101.15625 C 83.664062 100.335938 85.136719 98.824219 85.984375 96.769531 C 80.726562 94.78125 73.085938 94.816406 68.980469 96.972656 C 64.265625 97.699219 60.972656 102.527344 60 104.980469 C 59.03125 107.425781 57.148438 116.285156 60 124.261719 C 63.125 132.992188 77.855469 174.660156 82.449219 187.761719 C 83.425781 190.539062 84.015625 193.484375 84.015625 196.675781 C 84.015625 204.699219 78.503906 207.5 75.375 207.5 C 71.632812 207.5 67.824219 203.699219 67.824219 198.949219 C 67.824219 195.941406 69.050781 194.128906 70.816406 194.128906 C 75.046875 194.128906 74.789062 198.925781 73.945312 201.953125 C 76.578125 200.371094 78.109375 197.554688 77.6875 194.582031 C 79.179688 194.3125 80.597656 193.367188 81.90625 191.398438 C 80.875 189.664062 79.621094 188.351562 77.6875 188.304688 C 78.53125 183.695312 76.21875 181.746094 73.945312 180.664062 C 74.664062 184.046875 75.136719 187.941406 70.816406 187.941406 C 67.667969 187.941406 65.1875 188.671875 63.742188 191.398438 C 63.65625 187.761719 63.402344 173.386719 63.402344 173.386719 C 63.222656 167.984375 68.820312 168.140625 72.382812 169.75 C 71.039062 163.527344 68.28125 160.164062 61.90625 161.015625 C 63.453125 160.152344 65.101562 158.207031 65.101562 154.464844 C 65.101562 149.402344 62.023438 143.789062 60 142.132812 L 58.988281 194.859375 Z M 58.988281 194.855469 "/>
<path style=" stroke:none;fill-rule:nonzero;fill:rgb(99.607843%,77.254903%,4.705882%);fill-opacity:1;" d="M 58.988281 235.410156 C 58.988281 221.890625 68.089844 214.941406 75.238281 214.941406 C 84.871094 214.941406 90 222.625 90 232.683594 C 90 238.382812 89.21875 241.960938 87.246094 247.417969 C 87.246094 247.417969 71.355469 291.5 65.171875 308.550781 C 64.398438 310.675781 64.152344 313.097656 64.152344 316.648438 C 64.152344 322.128906 68.136719 326.605469 72.3125 326.746094 C 76.121094 326.871094 80.273438 322.007812 80.273438 316.464844 C 80.273438 309.734375 77.65625 306.730469 74.96875 306.730469 C 71.660156 306.730469 70.339844 308.546875 70.339844 311.644531 C 70.339844 313.800781 71.121094 314.738281 72.246094 314.738281 C 75.082031 314.738281 74.285156 309.640625 74.285156 309.640625 C 75.695312 310.054688 76.851562 311.972656 76.191406 314.371094 C 77.222656 314.679688 78.1875 315.402344 78.945312 316.554688 C 78.1875 317.539062 77.3125 318.300781 76.191406 318.558594 C 76.855469 321.484375 75.96875 322.914062 74.046875 323.515625 C 74.4375 322.390625 74.449219 321.355469 74.320312 320.375 C 71.296875 321.523438 66.667969 319.699219 66.667969 312.734375 C 66.667969 305.820312 70.265625 300 77.007812 301.457031 C 75.402344 300.433594 74.585938 298.339844 74.421875 295.996094 C 75.648438 296.632812 77.007812 296.726562 77.007812 296.726562 C 76.21875 294.871094 75.125 293.269531 75.171875 289.628906 C 76.421875 290.386719 77.582031 291.792969 79.183594 290.902344 C 76.671875 284.300781 79.761719 275.222656 87.621094 273.074219 C 84.742188 277.570312 83.335938 282.429688 83.335938 287.265625 C 83.335938 302.9375 86.601562 305.570312 86.601562 316.464844 C 86.601562 321.023438 84.84375 325.945312 81.363281 329.292969 L 81.363281 329.109375 C 83.664062 329.933594 85.136719 331.445312 85.984375 333.496094 C 80.726562 335.488281 73.085938 335.449219 68.980469 333.296875 C 64.265625 332.566406 60.972656 327.738281 60 325.289062 C 59.03125 322.839844 57.148438 313.980469 60 306.003906 C 63.125 297.277344 77.855469 255.609375 82.449219 242.507812 C 83.425781 239.730469 84.015625 236.785156 84.015625 233.59375 C 84.015625 225.570312 78.503906 222.769531 75.375 222.769531 C 71.632812 222.769531 67.824219 226.570312 67.824219 231.320312 C 67.824219 234.328125 69.050781 236.140625 70.816406 236.140625 C 75.046875 236.140625 74.789062 231.339844 73.945312 228.316406 C 76.578125 229.894531 78.109375 232.714844 77.6875 235.683594 C 79.179688 235.957031 80.597656 236.902344 81.90625 238.871094 C 80.875 240.605469 79.621094 241.914062 77.6875 241.960938 C 78.53125 246.574219 76.21875 248.523438 73.945312 249.601562 C 74.664062 246.21875 75.136719 242.324219 70.816406 242.324219 C 67.667969 242.324219 65.1875 241.597656 63.742188 238.867188 C 63.65625 242.507812 63.402344 256.882812 63.402344 256.882812 C 63.222656 262.28125 68.820312 262.128906 72.382812 260.519531 C 71.039062 266.742188 68.28125 270.105469 61.90625 269.253906 C 63.453125 270.117188 65.101562 272.058594 65.101562 275.804688 C 65.101562 280.867188 62.023438 286.476562 60 288.136719 Z M 58.988281 235.410156 "/>
<path style=" stroke:none;fill-rule:nonzero;fill:rgb(99.607843%,77.254903%,4.705882%);fill-opacity:1;" d="M 60 618.359375 C 60 618.359375 55.195312 623.746094 53.5625 621.046875 C 50.9375 616.699219 61.632812 595.054688 61.632812 587.433594 C 61.632812 574.917969 55.375 571.515625 47.648438 569.730469 C 42.460938 568.53125 34.015625 570.230469 34.015625 570.230469 C 35.605469 573.082031 36.640625 573.921875 39.320312 574.148438 C 36.335938 576.214844 33.300781 580.699219 33.300781 587.679688 C 33.300781 598.441406 36.621094 602.878906 36.621094 615.015625 C 36.621094 621.746094 32.484375 630.316406 32.484375 630.316406 C 39.796875 629.339844 43.421875 620.304688 41.359375 613.085938 C 42.523438 612.859375 43.582031 613.210938 44.488281 614.359375 C 45.023438 612.355469 44.179688 610.035156 43.046875 608.03125 C 43.960938 607.382812 44.628906 607.773438 46.082031 608.171875 C 45.945312 606.109375 45.015625 603.917969 42.75 601.859375 C 49.328125 604.136719 53.375 598.019531 53.375 591.621094 C 53.375 586.785156 50.832031 583.320312 48.351562 583.320312 C 47.550781 583.320312 46.371094 583.761719 45.707031 584.425781 C 45.238281 583.09375 45.476562 581.3125 45.960938 579.984375 C 44.140625 580.625 42.988281 582.066406 43.808594 585.066406 C 42.410156 585.238281 41.300781 585.867188 40.542969 587.066406 C 41.308594 588.375 42.472656 589.128906 43.808594 589.070312 C 42.792969 591.871094 43.925781 593.4375 45.578125 594.707031 C 45.578125 594.707031 44.527344 589.070312 47.210938 589.070312 C 48.417969 589.070312 49.515625 589.59375 49.515625 591.964844 C 49.515625 594.03125 48.164062 596.890625 45.035156 596.710938 C 41.90625 596.527344 39.367188 593.832031 39.367188 587.167969 C 39.367188 581.019531 43.085938 577.964844 47.980469 577.765625 C 52.398438 577.582031 55.734375 580.777344 55.734375 586.855469 C 55.734375 594.941406 46.980469 613.382812 46.980469 620.589844 C 46.980469 626 50.625 629.019531 54.191406 629.019531 C 58.816406 629.019531 62.722656 622.910156 62.722656 622.910156 L 60.003906 618.363281 Z M 60 618.359375 "/>
<path style=" stroke:none;fill-rule:nonzero;fill:rgb(99.607843%,77.254903%,4.705882%);fill-opacity:1;" d="M 61.011719 472.144531 C 61.011719 458.621094 51.910156 451.671875 44.761719 451.671875 C 35.128906 451.671875 30 459.355469 30 469.414062 C 30 475.117188 30.78125 478.691406 32.753906 484.148438 C 32.753906 484.148438 48.644531 528.234375 54.828125 545.28125 C 55.601562 547.410156 55.847656 549.828125 55.847656 553.378906 C 55.847656 558.859375 51.863281 563.339844 47.6875 563.476562 C 43.878906 563.601562 39.726562 558.738281 39.726562 553.195312 C 39.726562 546.464844 42.34375 543.464844 45.03125 543.464844 C 48.339844 543.464844 49.660156 545.277344 49.660156 548.375 C 49.660156 550.535156 48.878906 551.46875 47.753906 551.46875 C 44.917969 551.46875 45.714844 546.375 45.714844 546.375 C 44.304688 546.785156 43.148438 548.707031 43.808594 551.105469 C 42.777344 551.410156 41.8125 552.132812 41.054688 553.289062 C 41.8125 554.269531 42.6875 555.03125 43.808594 555.289062 C 43.144531 558.214844 44.03125 559.644531 45.953125 560.246094 C 45.5625 559.121094 45.550781 558.085938 45.679688 557.109375 C 48.703125 558.253906 53.332031 556.429688 53.332031 549.46875 C 53.332031 542.554688 49.734375 536.730469 42.992188 538.1875 C 44.597656 537.164062 45.414062 535.070312 45.578125 532.730469 C 44.351562 533.367188 42.992188 533.457031 42.992188 533.457031 C 43.78125 531.601562 44.875 530.003906 44.828125 526.359375 C 43.578125 527.121094 42.417969 528.523438 40.816406 527.632812 C 43.328125 521.035156 40.238281 511.953125 32.378906 509.804688 C 35.257812 514.300781 36.664062 519.160156 36.664062 523.996094 C 36.664062 539.667969 33.398438 542.300781 33.398438 553.195312 C 33.398438 557.753906 35.15625 562.679688 38.636719 566.023438 L 38.636719 565.84375 C 36.335938 566.664062 34.863281 568.175781 34.015625 570.230469 C 39.273438 572.21875 46.914062 572.183594 51.019531 570.027344 C 55.734375 569.300781 59.027344 564.472656 60 562.019531 C 60.96875 559.574219 62.851562 550.714844 60 542.738281 C 56.875 534.007812 42.144531 492.339844 37.550781 479.238281 C 36.574219 476.460938 35.984375 473.515625 35.984375 470.324219 C 35.984375 462.300781 41.496094 459.5 44.625 459.5 C 48.367188 459.5 52.175781 463.300781 52.175781 468.050781 C 52.175781 471.058594 50.949219 472.871094 49.183594 472.871094 C 44.953125 472.871094 45.210938 468.074219 46.054688 465.046875 C 43.421875 466.628906 41.890625 469.445312 42.3125 472.417969 C 40.820312 472.6875 39.402344 473.632812 38.09375 475.601562 C 39.125 477.335938 40.378906 478.648438 42.3125 478.695312 C 41.46875 483.304688 43.78125 485.253906 46.054688 486.335938 C 45.335938 482.953125 44.863281 479.058594 49.183594 479.058594 C 52.332031 479.058594 54.8125 478.328125 56.257812 475.601562 C 56.34375 479.238281 56.597656 493.613281 56.597656 493.613281 C 56.777344 499.015625 51.179688 498.859375 47.617188 497.25 C 48.960938 503.472656 51.71875 506.835938 58.09375 505.984375 C 56.546875 506.847656 54.898438 508.792969 54.898438 512.535156 C 54.898438 517.597656 57.976562 523.210938 60 524.867188 L 61.011719 472.140625 Z M 61.011719 472.144531 "/>
<path style=" stroke:none;fill-rule:nonzero;fill:rgb(99.607843%,77.254903%,4.705882%);fill-opacity:1;" d="M 61.011719 431.589844 C 61.011719 445.109375 51.910156 452.058594 44.761719 452.058594 C 35.128906 452.058594 30 444.375 30 434.316406 C 30 428.617188 30.78125 425.039062 32.753906 419.582031 C 32.753906 419.582031 48.644531 375.5 54.828125 358.449219 C 55.601562 356.324219 55.847656 353.902344 55.847656 350.351562 C 55.847656 344.871094 51.863281 340.394531 47.6875 340.253906 C 43.878906 340.128906 39.726562 344.992188 39.726562 350.535156 C 39.726562 357.265625 42.34375 360.269531 45.03125 360.269531 C 48.339844 360.269531 49.660156 358.453125 49.660156 355.355469 C 49.660156 353.199219 48.878906 352.261719 47.753906 352.261719 C 44.917969 352.261719 45.714844 357.359375 45.714844 357.359375 C 44.304688 356.945312 43.148438 355.027344 43.808594 352.628906 C 42.777344 352.320312 41.8125 351.597656 41.054688 350.445312 C 41.8125 349.460938 42.6875 348.699219 43.808594 348.441406 C 43.144531 345.515625 44.03125 344.085938 45.953125 343.484375 C 45.5625 344.609375 45.550781 345.644531 45.679688 346.625 C 48.703125 345.476562 53.332031 347.300781 53.332031 354.265625 C 53.332031 361.179688 49.734375 367 42.992188 365.542969 C 44.597656 366.566406 45.414062 368.660156 45.578125 371.003906 C 44.351562 370.367188 42.992188 370.273438 42.992188 370.273438 C 43.78125 372.128906 44.875 373.730469 44.828125 377.371094 C 43.578125 376.613281 42.417969 375.207031 40.816406 376.097656 C 43.328125 382.699219 40.238281 391.777344 32.378906 393.925781 C 35.257812 389.429688 36.664062 384.570312 36.664062 379.734375 C 36.664062 364.0625 33.398438 361.429688 33.398438 350.535156 C 33.398438 345.976562 35.15625 341.054688 38.636719 337.707031 L 38.636719 337.890625 C 36.335938 337.066406 34.863281 335.554688 34.015625 333.503906 C 39.273438 331.511719 46.914062 331.550781 51.019531 333.703125 C 55.734375 334.433594 59.027344 339.261719 60 341.710938 C 60.96875 344.160156 62.851562 353.019531 60 360.996094 C 56.875 369.722656 42.144531 411.390625 37.550781 424.492188 C 36.574219 427.269531 35.984375 430.214844 35.984375 433.40625 C 35.984375 441.429688 41.496094 444.230469 44.625 444.230469 C 48.367188 444.230469 52.175781 440.429688 52.175781 435.679688 C 52.175781 432.671875 50.949219 430.859375 49.183594 430.859375 C 44.953125 430.859375 45.210938 435.660156 46.054688 438.683594 C 43.421875 437.105469 41.890625 434.285156 42.3125 431.316406 C 40.820312 431.042969 39.402344 430.097656 38.09375 428.128906 C 39.125 426.394531 40.378906 425.085938 42.3125 425.039062 C 41.46875 420.425781 43.78125 418.476562 46.054688 417.398438 C 45.335938 420.78125 44.863281 424.675781 49.183594 424.675781 C 52.332031 424.675781 54.8125 425.402344 56.257812 428.132812 C 56.34375 424.492188 56.597656 410.117188 56.597656 410.117188 C 56.777344 404.71875 51.179688 404.871094 47.617188 406.480469 C 48.960938 400.257812 51.71875 396.894531 58.09375 397.746094 C 56.546875 396.882812 54.898438 394.941406 54.898438 391.195312 C 54.898438 386.132812 57.976562 380.523438 60 378.863281 Z M 61.011719 431.589844 "/>
<path style=" stroke:none;fill-rule:nonzero;fill:rgb(99.607843%,77.254903%,4.705882%);fill-opacity:1;" d="M 60 618.359375 C 60 618.359375 64.804688 623.746094 66.4375 621.046875 C 69.0625 616.699219 58.367188 595.054688 58.367188 587.433594 C 58.367188 574.917969 64.625 571.515625 72.351562 569.730469 C 77.539062 568.53125 85.984375 570.230469 85.984375 570.230469 C 84.394531 573.082031 83.359375 573.921875 80.679688 574.148438 C 83.664062 576.214844 86.699219 580.699219 86.699219 587.679688 C 86.699219 598.441406 83.378906 602.878906 83.378906 615.015625 C 83.378906 621.746094 87.515625 630.316406 87.515625 630.316406 C 80.203125 629.339844 76.578125 620.304688 78.640625 613.085938 C 77.476562 612.859375 76.417969 613.210938 75.511719 614.359375 C 74.976562 612.355469 75.820312 610.035156 76.953125 608.03125 C 76.039062 607.382812 75.371094 607.773438 73.917969 608.171875 C 74.054688 606.109375 74.984375 603.917969 77.25 601.859375 C 70.671875 604.136719 66.625 598.019531 66.625 591.621094 C 66.625 586.785156 69.167969 583.320312 71.648438 583.320312 C 72.449219 583.320312 73.628906 583.761719 74.292969 584.425781 C 74.761719 583.09375 74.523438 581.3125 74.039062 579.984375 C 75.859375 580.625 77.011719 582.066406 76.191406 585.066406 C 77.589844 585.238281 78.699219 585.867188 79.457031 587.066406 C 78.691406 588.375 77.527344 589.128906 76.191406 589.070312 C 77.207031 591.871094 76.074219 593.4375 74.421875 594.707031 C 74.421875 594.707031 75.472656 589.070312 72.789062 589.070312 C 71.582031 589.070312 70.484375 589.59375 70.484375 591.964844 C 70.484375 594.03125 71.835938 596.890625 74.964844 596.710938 C 78.09375 596.527344 80.632812 593.832031 80.632812 587.167969 C 80.632812 581.019531 76.914062 577.964844 72.019531 577.765625 C 67.601562 577.582031 64.265625 580.777344 64.265625 586.855469 C 64.265625 594.941406 73.019531 613.382812 73.019531 620.589844 C 73.019531 626 69.375 629.019531 65.808594 629.019531 C 61.183594 629.019531 57.277344 622.910156 57.277344 622.910156 L 59.996094 618.363281 Z M 60 618.359375 "/>
<path style=" stroke:none;fill-rule:nonzero;fill:rgb(99.607843%,77.254903%,4.705882%);fill-opacity:1;" d="M 58.988281 472.144531 C 58.988281 458.621094 68.089844 451.671875 75.238281 451.671875 C 84.871094 451.671875 90 459.355469 90 469.414062 C 90 475.117188 89.21875 478.691406 87.246094 484.148438 C 87.246094 484.148438 71.355469 528.234375 65.171875 545.28125 C 64.398438 547.410156 64.152344 549.828125 64.152344 553.378906 C 64.152344 558.859375 68.136719 563.339844 72.3125 563.476562 C 76.121094 563.601562 80.273438 558.738281 80.273438 553.195312 C 80.273438 546.464844 77.65625 543.464844 74.96875 543.464844 C 71.660156 543.464844 70.339844 545.277344 70.339844 548.375 C 70.339844 550.535156 71.121094 551.46875 72.246094 551.46875 C 75.082031 551.46875 74.285156 546.375 74.285156 546.375 C 75.695312 546.785156 76.851562 548.707031 76.191406 551.105469 C 77.222656 551.410156 78.1875 552.132812 78.945312 553.289062 C 78.1875 554.269531 77.3125 555.03125 76.191406 555.289062 C 76.855469 558.214844 75.96875 559.644531 74.046875 560.246094 C 74.4375 559.121094 74.449219 558.085938 74.320312 557.109375 C 71.296875 558.253906 66.667969 556.429688 66.667969 549.46875 C 66.667969 542.554688 70.265625 536.730469 77.007812 538.1875 C 75.402344 537.164062 74.585938 535.070312 74.421875 532.730469 C 75.648438 533.367188 77.007812 533.457031 77.007812 533.457031 C 76.21875 531.601562 75.125 530.003906 75.171875 526.359375 C 76.421875 527.121094 77.582031 528.523438 79.183594 527.632812 C 76.671875 521.035156 79.761719 511.953125 87.621094 509.804688 C 84.742188 514.300781 83.335938 519.160156 83.335938 523.996094 C 83.335938 539.667969 86.601562 542.300781 86.601562 553.195312 C 86.601562 557.753906 84.84375 562.679688 81.363281 566.023438 L 81.363281 565.84375 C 83.664062 566.664062 85.136719 568.175781 85.984375 570.230469 C 80.726562 572.21875 73.085938 572.183594 68.980469 570.027344 C 64.265625 569.300781 60.972656 564.472656 60 562.019531 C 59.03125 559.574219 57.148438 550.714844 60 542.738281 C 63.125 534.007812 77.855469 492.339844 82.449219 479.238281 C 83.425781 476.460938 84.015625 473.515625 84.015625 470.324219 C 84.015625 462.300781 78.503906 459.5 75.375 459.5 C 71.632812 459.5 67.824219 463.300781 67.824219 468.050781 C 67.824219 471.058594 69.050781 472.871094 70.816406 472.871094 C 75.046875 472.871094 74.789062 468.074219 73.945312 465.046875 C 76.578125 466.628906 78.109375 469.445312 77.6875 472.417969 C 79.179688 472.6875 80.597656 473.632812 81.90625 475.601562 C 80.875 477.335938 79.621094 478.648438 77.6875 478.695312 C 78.53125 483.304688 76.21875 485.253906 73.945312 486.335938 C 74.664062 482.953125 75.136719 479.058594 70.816406 479.058594 C 67.667969 479.058594 65.1875 478.328125 63.742188 475.601562 C 63.65625 479.238281 63.402344 493.613281 63.402344 493.613281 C 63.222656 499.015625 68.820312 498.859375 72.382812 497.25 C 71.039062 503.472656 68.28125 506.835938 61.90625 505.984375 C 63.453125 506.847656 65.101562 508.792969 65.101562 512.535156 C 65.101562 517.597656 62.023438 523.210938 60 524.867188 L 58.988281 472.140625 Z M 58.988281 472.144531 "/>
<path style=" stroke:none;fill-rule:nonzero;fill:rgb(99.607843%,77.254903%,4.705882%);fill-opacity:1;" d="M 58.988281 431.589844 C 58.988281 445.109375 68.089844 452.058594 75.238281 452.058594 C 84.871094 452.058594 90 444.375 90 434.316406 C 90 428.617188 89.21875 425.039062 87.246094 419.582031 C 87.246094 419.582031 71.355469 375.5 65.171875 358.449219 C 64.398438 356.324219 64.152344 353.902344 64.152344 350.351562 C 64.152344 344.871094 68.136719 340.394531 72.3125 340.253906 C 76.121094 340.128906 80.273438 344.992188 80.273438 350.535156 C 80.273438 357.265625 77.65625 360.269531 74.96875 360.269531 C 71.660156 360.269531 70.339844 358.453125 70.339844 355.355469 C 70.339844 353.199219 71.121094 352.261719 72.246094 352.261719 C 75.082031 352.261719 74.285156 357.359375 74.285156 357.359375 C 75.695312 356.945312 76.851562 355.027344 76.191406 352.628906 C 77.222656 352.320312 78.1875 351.597656 78.945312 350.445312 C 78.1875 349.460938 77.3125 348.699219 76.191406 348.441406 C 76.855469 345.515625 75.96875 344.085938 74.046875 343.484375 C 74.4375 344.609375 74.449219 345.644531 74.320312 346.625 C 71.296875 345.476562 66.667969 347.300781 66.667969 354.265625 C 66.667969 361.179688 70.265625 367 77.007812 365.542969 C 75.402344 366.566406 74.585938 368.660156 74.421875 371.003906 C 75.648438 370.367188 77.007812 370.273438 77.007812 370.273438 C 76.21875 372.128906 75.125 373.730469 75.171875 377.371094 C 76.421875 376.613281 77.582031 375.207031 79.183594 376.097656 C 76.671875 382.699219 79.761719 391.777344 87.621094 393.925781 C 84.742188 389.429688 83.335938 384.570312 83.335938 379.734375 C 83.335938 364.0625 86.601562 361.429688 86.601562 350.535156 C 86.601562 345.976562 84.84375 341.054688 81.363281 337.707031 L 81.363281 337.890625 C 83.664062 337.066406 85.136719 335.554688 85.984375 333.503906 C 80.726562 331.511719 73.085938 331.550781 68.980469 333.703125 C 64.265625 334.433594 60.972656 339.261719 60 341.710938 C 59.03125 344.160156 57.148438 353.019531 60 360.996094 C 63.125 369.722656 77.855469 411.390625 82.449219 424.492188 C 83.425781 427.269531 84.015625 430.214844 84.015625 433.40625 C 84.015625 441.429688 78.503906 444.230469 75.375 444.230469 C 71.632812 444.230469 67.824219 440.429688 67.824219 435.679688 C 67.824219 432.671875 69.050781 430.859375 70.816406 430.859375 C 75.046875 430.859375 74.789062 435.660156 73.945312 438.683594 C 76.578125 437.105469 78.109375 434.285156 77.6875 431.316406 C 79.179688 431.042969 80.597656 430.097656 81.90625 428.128906 C 80.875 426.394531 79.621094 425.085938 77.6875 425.039062 C 78.53125 420.425781 76.21875 418.476562 73.945312 417.398438 C 74.664062 420.78125 75.136719 424.675781 70.816406 424.675781 C 67.667969 424.675781 65.1875 425.402344 63.742188 428.132812 C 63.65625 424.492188 63.402344 410.117188 63.402344 410.117188 C 63.222656 404.71875 68.820312 404.871094 72.382812 406.480469 C 71.039062 400.257812 68.28125 396.894531 61.90625 397.746094 C 63.453125 396.882812 65.101562 394.941406 65.101562 391.195312 C 65.101562 386.132812 62.023438 380.523438 60 378.863281 Z M 58.988281 431.589844 "/>
</g>
</svg>
