<?xml version="1.0" encoding="UTF-8"?>
<svg xmlns="http://www.w3.org/2000/svg" xmlns:xlink="http://www.w3.org/1999/xlink" width="1000px" height="667px" viewBox="0 0 1000 667" version="1.1">
<g id="surface1">
<rect x="0" y="0" width="1000" height="667" style="fill:rgb(100%,74.509805%,16.078432%);fill-opacity:1;stroke:none;"/>
<path style=" stroke:none;fill-rule:nonzero;fill:rgb(92.156863%,45.490196%,0%);fill-opacity:1;" d="M 46.667969 62.253906 L 306.667969 62.253906 L 306.667969 604.746094 L 46.667969 604.746094 Z M 46.667969 62.253906 "/>
<path style=" stroke:none;fill-rule:nonzero;fill:rgb(0%,32.549021%,30.588236%);fill-opacity:1;" d="M 46.667969 62.253906 L 176.667969 62.253906 L 176.667969 604.746094 L 46.667969 604.746094 Z M 46.667969 62.253906 "/>
<path style=" stroke:none;fill-rule:nonzero;fill:rgb(55.29412%,8.235294%,22.745098%);fill-opacity:1;" d="M 353.332031 62.253906 L 953.332031 62.253906 L 953.332031 604.746094 L 353.332031 604.746094 Z M 353.332031 62.253906 "/>
<path style="fill-rule:nonzero;fill:rgb(100%,74.509805%,16.078432%);fill-opacity:1;stroke-width:2.096;stroke-linecap:butt;stroke-linejoin:miter;stroke:rgb(0%,0%,0%);stroke-opacity:1;stroke-miterlimit:4;" d="M 502.25625 449.216407 C 502.25625 449.216407 495.632812 463.032937 488.320312 468.662153 C 477.482812 477.004076 455.264062 476.399691 445.832812 486.133105 C 434.535937 497.605885 446.714063 512.768225 446.610937 514.082412 L 445.992188 522.090517 C 445.992188 522.090517 453.609375 522.181878 456.820312 522.694903 C 461.64375 523.467954 463.523438 527.491332 472.504687 526.893975 C 495.089062 525.390039 494.175 504.535232 495.454687 486.712894 C 496.589062 479.927614 499.214062 471.079695 500.704687 464.294415 C 501.979687 458.47545 502.25625 449.216407 502.25625 449.216407 Z M 502.25625 449.216407 " transform="matrix(0.833333,0,0,1.111667,0,0)"/>
<path style="fill-rule:nonzero;fill:rgb(100%,74.509805%,16.078432%);fill-opacity:1;stroke-width:5.56;stroke-linecap:butt;stroke-linejoin:miter;stroke:rgb(0%,0%,0%);stroke-opacity:1;stroke-miterlimit:4;" d="M 681.541677 479.560216 L 685.898841 477.044345 L 687.762988 479.563667 C 690.247021 482.925065 697.124153 482.887102 701.683454 479.487743 L 705.173677 476.889044 L 708.093426 479.487743 C 711.934019 482.904358 719.107618 482.907809 723.684886 479.498096 C 726.892118 477.109917 727.336819 477.061601 729.457006 478.880344 C 730.723728 479.963998 734.429563 481.19605 737.69519 481.620539 C 743.575116 482.383238 743.664954 482.341824 747.105766 477.178939 C 749.98958 472.854677 750.443264 471.101505 749.756 466.908386 C 749.297824 464.13023 748.808204 459.654118 748.659971 456.965691 C 748.403932 452.0927 748.430883 452.065091 755.523627 449.594085 C 759.440583 448.23089 763.972932 446.401793 765.599008 445.528658 C 768.428919 444.010162 776.24037 434.830165 776.24037 433.021775 C 776.24037 432.542068 773.190356 431.806978 769.462061 431.389392 C 754.629735 429.725949 752.114259 421.760749 761.758415 406.96577 C 777.484633 382.838944 786.976063 359.340223 787.03895 344.372687 C 787.065902 337.684404 787.447715 335.437721 788.305672 336.890645 C 791.818355 342.836936 785.525173 367.767874 775.988823 385.672319 L 772.152722 392.881722 L 775.813638 392.036196 C 777.830511 391.573745 789.675708 386.576514 802.140791 380.930471 C 836.252445 365.479777 847.971868 362.449688 870.049664 363.381492 C 888.547397 364.161447 896.426228 367.771325 909.484245 381.468847 C 916.401804 388.726566 923.067816 393.920511 935.258891 401.550952 C 961.235675 417.809209 962.318228 419.217269 963.553506 438.33651 C 964.802261 457.711134 964.182375 458.760277 949.529727 461.997433 C 937.006249 464.765237 929.15437 470.604543 927.047658 478.71469 C 925.924678 483.049305 928.291921 483.173546 934.603071 479.115021 L 939.22975 476.14015 L 941.28705 479.115021 C 943.995679 483.025147 949.745339 483.042403 954.520252 479.149532 L 958.122773 476.212624 L 961.810641 479.149532 C 967.542333 483.715373 975.160632 482.607561 977.307771 476.899398 C 977.721027 475.80194 978.82604 476.153954 981.058525 478.093488 C 985.244996 481.730975 995.971705 483.290884 997.130621 480.4299 C 997.575321 479.339344 996.735332 476.644014 995.266474 474.442196 C 989.022703 465.082741 987.068717 460.620434 986.987862 455.526571 C 986.875564 448.437957 988.991259 445.021342 997.049767 439.257961 C 1006.842156 432.255625 1009.865219 423.224027 1002.422105 423.224027 C 997.822377 423.224027 993.191206 419.1586 990.235521 412.539339 C 984.22533 399.076494 985.402214 383.984718 994.421992 358.881223 C 1003.581021 333.380849 1004.596195 328.680415 1004.632131 311.624948 C 1004.659082 297.834246 1004.313204 295.449518 1001.177843 287.89155 C 999.259792 283.267041 995.365296 276.385495 992.526401 272.596158 L 987.365183 265.707709 L 993.990768 260.216967 C 1014.226875 243.451394 1010.089815 216.018389 985.730124 205.447589 C 978.278026 202.213883 976.413878 201.927439 963.355862 202.017169 C 955.52195 202.068936 943.57793 203.097371 936.813096 204.305266 C 929.913505 205.537318 918.239 206.527791 910.225412 206.558851 C 897.499797 206.610618 895.343675 206.296566 890.438496 203.687514 C 885.32669 200.964575 884.446273 199.673854 883.449066 193.38245 C 883.242438 192.088278 882.33507 190.797556 881.436685 190.514564 C 879.698312 189.965835 871.666756 196.93711 870.480888 200.025869 C 869.892446 201.547816 869.416303 201.444282 867.700389 199.411568 C 866.559441 198.062178 864.964808 194.963066 864.160754 192.52312 C 862.134898 186.387017 864.623422 181.790116 871.832957 178.342441 L 877.429891 175.667818 L 874.128329 173.6213 C 867.323067 169.397121 855.742893 172.285714 851.556422 179.256989 C 850.375047 181.227582 849.081373 182.84271 848.686084 182.849612 C 848.290795 182.853063 846.040342 180.972199 843.682083 178.670298 C 834.895884 170.080444 837.918948 157.373396 849.674307 153.490878 C 855.94503 151.423654 861.492553 153.000818 862.646977 157.183584 C 864.40781 163.564717 869.887955 155.175028 868.904224 147.596354 C 868.252895 142.561161 868.351717 142.385153 871.837449 142.385153 C 876.684232 142.385153 887.002176 148.749031 890.191441 153.704848 C 893.897276 159.461327 893.627761 168.527437 889.549096 175.284743 L 886.346356 180.592575 L 890.537319 179.7505 C 896.677776 178.521899 902.64754 174.704953 905.666111 170.080444 C 908.859867 165.186746 909.201253 155.665088 906.371343 150.526361 C 903.626779 145.542934 903.945705 144.752626 907.997418 146.436776 C 914.89701 149.29776 918.584878 152.45554 921.34741 157.866907 C 923.840426 162.739898 923.979676 163.951243 922.632099 169.024399 C 921.796602 172.154571 919.94593 176.268314 918.517499 178.173335 C 916.289506 181.134402 916.213143 181.631364 917.987452 181.631364 C 921.293507 181.631364 928.193099 178.504644 930.645688 175.895592 C 931.885458 174.573811 933.691211 171.329752 934.656974 168.679286 L 936.417807 163.864965 L 938.443664 167.533512 C 941.300526 172.727458 946.866017 177.396832 953.644327 180.306132 C 960.939208 183.432852 963.975747 183.60886 960.162105 180.682304 C 957.588234 178.711711 952.853749 164.807122 954.286672 163.447379 C 955.131153 162.646717 965.035841 170.263353 976.342007 180.413117 C 987.032781 190.014151 993.757188 193.161578 1003.581021 193.161578 C 1016.126958 193.161578 1023.430823 182.235311 1017.793461 171.909541 C 1014.505374 165.887325 1007.17905 165.052152 1002.898249 170.208135 C 1000.926295 172.579059 1000.387264 174.463374 1000.96223 176.951637 C 1001.671954 179.998981 1001.393455 180.406214 998.617447 180.406214 C 994.970007 180.406214 987.782932 175.740291 975.012399 165.086664 C 955.539918 148.835309 931.880966 135.065314 914.798188 130.033571 C 903.833407 126.806768 880.417019 125.547107 869.268069 127.586723 C 857.20726 129.791993 842.940916 136.694246 835.169892 144.086559 C 821.39766 157.176682 821.177555 174.60142 834.585942 190.469699 L 838.426535 195.014833 L 835.830204 199.052651 C 832.043514 204.92992 832.366932 212.839902 836.629766 218.665403 C 838.507389 221.22959 840.40298 223.327875 840.838697 223.324424 C 841.278905 223.324424 841.755049 221.674786 841.903282 219.659328 C 842.280604 214.565465 844.46817 211.14885 848.223416 209.799459 C 851.605833 208.581211 853.788907 209.154098 869.272561 215.335066 C 885.564761 221.836988 912.350091 222.285635 940.837858 216.529156 C 954.798751 213.709585 971.266136 213.87524 978.511606 216.90878 C 991.789726 222.471996 994.866693 236.94602 985.105747 247.930956 C 980.878848 252.686609 976.804675 254.622691 963.122282 258.377516 C 952.710007 261.235049 950.243942 261.424861 926.580499 261.190184 C 906.362359 260.986568 899.09443 261.376545 890.842769 263.098657 C 881.881386 264.969168 876.369798 265.15898 850.051628 264.496364 L 819.62335 263.726762 L 822.996784 266.522175 C 824.851947 268.061377 827.47523 269.949144 828.822806 270.725647 C 831.118178 272.040526 831.041815 272.219985 827.627955 273.486548 C 825.624558 274.228541 821.173063 274.835939 817.741235 274.835939 L 811.497464 274.835939 L 810.657475 280.14032 C 810.194807 283.059973 810.230742 286.466235 810.733837 287.712092 C 811.479496 289.551542 811.200997 289.813828 809.264979 289.109798 C 807.953338 288.633543 804.296914 287.694836 801.139093 287.025318 C 797.981272 286.352348 793.731914 284.989153 791.697073 283.991778 C 788.274229 282.31453 787.892415 282.359395 786.630185 284.592274 C 785.502713 286.587025 774.928729 294.455593 773.379016 294.455593 C 773.127469 294.455593 772.80405 292.940549 772.655817 291.083843 C 772.512075 289.230588 770.989314 284.402462 769.268908 280.35429 C 767.548502 276.306119 765.751733 271.892128 765.27559 270.542737 C 764.561374 268.506573 764.237956 268.403039 763.371015 269.928437 C 762.796049 270.943068 761.960551 273.700518 761.511359 276.061089 C 761.062167 278.421659 759.467535 282.255861 757.971725 284.585371 L 755.245128 288.813001 L 753.506755 285.196221 C 751.642607 281.313703 748.547673 277.286239 747.429185 277.286239 C 747.047371 277.286239 746.405026 278.528644 745.996261 280.04714 C 745.138304 283.218725 737.798504 292.005293 736.006228 292.005293 C 735.345915 292.005293 734.802393 289.520482 734.802393 286.486942 C 734.802393 283.449951 734.222935 280.968591 733.508719 280.968591 C 732.798995 280.968591 732.215046 281.751996 732.215046 282.71141 C 732.215046 285.044371 725.944323 292.005293 723.842104 292.005293 C 722.92126 292.005293 721.447909 292.833564 720.558509 293.844744 C 718.249661 296.481404 716.358562 296.112134 717.328817 293.209736 C 717.786993 291.849993 717.490526 288.678407 716.668505 286.159085 L 714.736978 280.202441 C 714.427036 279.246479 712.181075 279.501862 707.42413 281.02726 C 699.742943 283.491364 697.16458 283.053071 701.117472 279.957411 C 702.56387 278.825441 704.76042 274.908412 706.00019 271.246767 C 707.244453 267.588573 709.072665 264.341063 710.069872 264.033913 C 711.466859 263.599071 711.394988 264.133995 709.746453 266.359972 C 708.574062 267.94749 707.608298 270.09064 707.603807 271.122527 C 707.603807 272.150962 706.714406 274.59436 705.636345 276.551149 C 704.558284 278.504486 703.884495 280.299072 704.131551 280.533749 C 704.383099 280.771876 707.30734 279.660614 710.631362 278.066193 L 716.672996 275.170698 L 716.699948 277.762494 C 716.713424 279.187809 717.441115 282.949537 718.31704 286.121123 L 719.911672 291.887955 L 724.026272 289.996738 C 728.230711 288.064107 732.215046 281.175658 732.215046 275.833314 C 732.215046 273.193203 733.724331 273.596984 734.344217 276.40275 C 734.528385 277.227569 735.476181 280.316328 736.45542 283.273943 L 738.234221 288.643896 L 741.050656 285.251439 C 742.600369 283.38783 744.545371 279.729636 745.367392 277.120585 C 746.800315 272.596158 749.046276 270.649722 749.046276 273.938646 C 749.046276 276.306119 755.510152 284.799341 756.758906 284.067702 C 757.360823 283.715687 758.560167 280.526846 759.422616 276.985991 C 761.219384 269.614384 764.116674 264.603349 765.958362 265.683551 C 766.650118 266.087333 766.924125 266.87419 766.560279 267.429821 C 766.196433 267.985453 767.68326 272.779067 769.866334 278.076547 C 771.496901 282.028087 773.118485 285.979626 774.735577 289.934617 C 775.535139 291.894857 776.253846 291.611865 780.929937 287.480866 C 783.840702 284.909777 786.481952 282.031538 786.800878 281.085929 C 787.281514 279.653711 787.932843 279.705478 790.654947 281.39653 C 794.459605 283.757101 807.25709 287.563693 808.245313 286.628438 C 808.618142 286.276423 808.995464 282.915026 809.089794 279.156749 L 809.260487 272.32697 L 812.939371 273.089669 C 814.965228 273.510706 819.223569 273.483097 822.399358 273.031 L 828.175969 272.213083 L 823.028227 268.679129 C 820.193825 266.736145 817.33247 264.220274 816.663174 263.091755 C 815.95345 261.887312 813.433482 260.865779 810.57662 260.620749 C 802.863991 259.968486 789.190581 252.296631 789.190581 248.624633 C 789.190581 247.937859 791.08168 249.10779 793.399511 251.230233 C 798.533778 255.93757 805.66695 258.891734 811.897245 258.891734 L 816.55986 258.891734 L 813.676046 255.057533 C 812.018527 252.852263 810.531701 248.672948 810.185823 245.235626 C 809.628825 239.751786 809.049367 238.882102 803.326658 234.902954 C 799.885846 232.511323 795.631997 228.932505 793.862179 226.944656 L 790.650455 223.327875 L 789.010904 227.621077 C 788.11252 229.981647 787.011999 231.910827 786.562807 231.910827 C 786.118106 231.910827 784.388716 230.530376 782.71323 228.846226 C 781.042235 227.158626 779.339796 225.785077 778.92654 225.795431 C 778.517775 225.802333 777.035441 228.073174 775.633961 230.840978 L 773.087041 235.876171 L 771.11958 232.973774 C 770.037027 231.379353 767.481123 228.552881 765.437299 226.699626 C 763.393474 224.846371 762.319905 223.327875 763.047596 223.327875 C 763.77978 223.327875 766.299748 225.260506 768.653515 227.621077 L 772.929824 231.914278 L 774.668198 228.770302 C 775.70134 226.903242 776.087645 224.035356 775.620485 221.716199 C 774.937713 218.337546 775.036535 218.140832 776.330209 220.259824 C 777.156722 221.612665 779.658723 224.197559 781.891208 226.0094 L 785.951905 229.301775 L 788.754864 224.16995 C 791.544348 219.058832 791.566807 219.048478 792.833529 222.102725 C 794.531476 226.181957 806.81239 236.248893 817.269583 242.133064 C 818.882183 243.04071 818.203903 239.920892 815.225759 232.752902 C 814.439673 230.851331 813.792836 227.431265 813.792836 225.146619 C 813.792836 221.754161 812.813597 220.246019 808.478893 216.946742 C 802.217154 212.184188 800.195789 208.798632 799.014414 201.112974 C 798.53827 198.000057 797.442241 194.538578 796.579792 193.416961 C 795.304086 191.75697 795.092966 192.688774 795.434352 198.46596 C 795.66344 202.35883 795.160345 207.200761 794.311372 209.223121 L 792.76615 212.905473 L 791.571299 209.837422 C 790.915479 208.149821 788.009205 205.216363 785.116408 203.321695 C 782.22361 201.423575 780.193262 199.549613 780.606518 199.159636 C 781.015283 198.77311 783.993427 200.502124 787.218627 203.004191 C 792.13279 206.817686 793.215343 207.231821 793.898115 205.551122 C 794.697677 203.580529 793.898115 194.990675 792.352894 188.989166 C 791.580283 185.993588 791.647662 186.007393 795.344514 189.703549 C 798.07111 192.429939 799.580396 195.684352 800.748295 201.354552 C 802.23063 208.560505 802.98078 209.761497 809.6423 215.614607 C 813.644603 219.127854 817.125842 221.802477 817.381882 221.564349 C 817.637921 221.322771 818.141016 212.232503 818.504862 201.364906 C 819.20111 180.523553 818.415024 175.564284 813.393055 169.124482 L 810.814692 165.818302 L 814.870897 161.445725 C 820.157889 155.737562 822.588019 151.16827 823.639128 144.928634 L 824.497086 139.855477 L 819.919817 144.186641 C 816.173555 147.734399 814.38577 148.521256 810.046573 148.521256 C 805.752296 148.521256 804.072317 147.799971 801.175028 144.714664 C 797.702772 141.011605 791.54884 137.450042 785.628487 135.717577 C 783.440921 135.079118 782.71323 135.355208 782.71323 136.835742 C 782.71323 137.919396 781.504903 141.049567 780.031552 143.789762 L 777.345383 148.773188 L 771.721497 143.213424 C 768.271701 139.803711 764.179561 137.149794 761.134038 136.349133 C 753.354029 134.302615 752.931789 134.506231 752.931789 140.304124 C 752.931789 149.097594 749.176542 150.733428 742.420692 144.890671 C 737.268458 140.435267 732.99664 139.4655 723.231202 140.538801 L 715.684774 141.370522 L 717.041334 144.773333 C 718.17779 147.620512 717.921751 148.818053 715.491621 152.048308 C 711.552206 157.287118 706.431415 159.557959 698.5436 159.557959 C 694.914128 159.557959 690.368303 160.310305 688.44576 161.228304 C 686.523218 162.146304 681.743813 163.202349 677.826857 163.578521 C 673.909902 163.954694 669.732414 164.624213 668.546547 165.065957 C 666.691383 165.759633 666.489247 165.186746 667.086673 160.96947 C 668.003025 154.508961 663.488643 149.746406 656.458786 149.746406 C 647.335693 149.746406 643.126762 157.904869 646.702332 168.668933 C 647.389596 170.739609 648.28798 174.004375 648.701237 175.926652 C 649.12797 177.921403 653.238078 183.208529 658.26903 188.243723 C 663.120306 193.099458 667.706558 198.148456 668.456709 199.466786 C 669.211352 200.788568 671.699876 202.904108 673.986264 204.170672 L 678.145784 206.479475 L 677.597769 202.027522 C 676.995852 197.133825 678.060437 196.367675 680.665752 199.818801 C 681.59558 201.054304 683.958331 203.049056 685.916808 204.253499 C 689.002759 206.148167 689.478902 206.18613 689.478902 204.539942 C 689.478902 203.494251 690.107771 201.085365 690.87589 199.187245 L 692.272878 195.736118 L 694.698515 200.433102 C 696.032616 203.014544 700.371813 208.888362 704.338179 213.47836 C 712.037333 222.39262 716.7269 232.34912 714.305754 234.644119 C 713.326515 235.572472 710.671789 235.499998 705.169185 234.395638 C 700.906351 233.536307 695.628343 233.08421 693.445269 233.387909 C 688.989283 234.009112 688.638913 233.432774 691.378985 229.998903 C 694.271783 226.378671 693.813607 225.781626 688.131326 225.781626 C 681.555152 225.781626 665.227017 222.627296 658.960786 220.149388 C 652.86974 217.73705 651.463769 218.337546 649.667 224.118183 C 648.862946 226.716881 647.385104 231.43112 646.383405 234.592352 L 644.568669 240.335027 L 651.158318 239.700019 C 654.787791 239.351456 659.450406 238.557697 661.525673 237.936494 C 663.600941 237.315291 665.483057 236.983983 665.712145 237.201404 C 665.945724 237.418825 665.020389 239.665508 663.659336 242.188282 L 661.188779 246.781731 L 665.298888 245.946559 C 667.558324 245.484108 670.958709 244.355589 672.8543 243.43759 C 676.155863 241.843169 676.420886 241.960507 679.021709 246.13637 C 682.224449 251.275098 684.784844 251.064579 685.350826 245.61525 C 685.939268 239.983012 687.794432 240.814733 691.280163 248.27952 C 694.631137 255.454412 698.116868 257.99099 698.786164 253.735751 C 699.01076 252.32424 700.812021 250.022339 702.79745 248.624633 C 706.813228 245.79816 709.836292 246.647137 711.570173 251.085286 C 713.366942 255.682186 709.360148 260.417132 697.717087 267.478137 C 674.390537 281.617402 660.833918 300.957516 656.961881 325.605461 C 653.467166 347.837619 664.373552 370.811768 686.249211 387.311604 C 696.71988 395.207781 713.348974 403.542252 712.293373 400.363764 C 707.805943 386.859506 707.954176 361.089944 712.54492 356.741525 C 713.232184 356.089262 712.994113 358.77769 712.014874 362.718876 C 708.371925 377.389615 709.957573 389.082032 719.300771 416.480525 C 727.750075 441.263065 726.582176 451.854572 714.620188 458.853457 C 710.779595 461.103592 708.304546 461.472862 697.977618 461.348622 C 686.770274 461.210577 685.548471 461.438351 681.950442 464.306237 C 678.46471 467.084394 673.941345 476.212624 673.941345 480.471314 C 673.941345 482.776666 676.50174 482.472967 681.537185 479.563667 Z M 681.541677 479.560216 " transform="matrix(0.869617,0,0,1.131877,-33.492502,-6.46323)"/>
<path style="fill-rule:nonzero;fill:rgb(100%,74.509805%,16.078432%);fill-opacity:1;stroke-width:5.56;stroke-linecap:butt;stroke-linejoin:miter;stroke:rgb(0%,0%,0%);stroke-opacity:1;stroke-miterlimit:4;" d="M 863.451031 479.059803 L 868.149581 476.040067 L 871.338845 479.059803 C 875.520824 483.018245 880.417019 482.928516 884.432797 478.821675 C 886.189138 477.030541 887.765803 475.791586 887.936496 476.064225 C 888.107189 476.336864 888.888783 477.665548 889.670378 479.014938 C 890.667584 480.723246 892.706917 481.582577 896.394785 481.841411 C 900.837295 482.155464 902.027654 481.724073 903.79298 479.17369 L 905.899691 476.133248 L 910.52637 479.108119 C 923.19359 487.249326 929.944948 478.707788 924.285127 461.697185 C 921.405805 453.048662 922.986961 448.186025 932.267272 437.176931 C 936.179735 432.531715 939.382476 427.579348 939.386967 426.164387 C 939.386967 423.910801 938.663768 423.610553 933.457631 423.710636 C 928.471598 423.810718 927.016215 423.275794 924.392933 420.390652 C 920.125607 415.693669 920.377155 410.313362 925.147576 404.346365 L 928.956725 399.576908 L 922.196383 394.99036 C 918.481564 392.467587 911.775125 386.497138 907.301171 381.72423 C 897.243758 371.005031 887.36153 365.921522 874.325973 364.768845 L 865.584694 363.995793 L 865.598169 370.611603 C 865.616137 379.128983 869.609455 387.321957 880.520333 401.198937 C 892.927021 416.977488 893.793962 419.420885 894.297057 440.044817 L 894.719298 457.486811 L 891.130252 460.893073 C 887.887085 463.971478 886.422718 464.364906 875.956541 464.965402 C 865.993458 465.54174 863.900223 466.055958 860.975982 468.647754 C 857.09047 472.088527 855.931554 473.959038 854.732211 478.707788 C 854.031471 481.479043 854.314462 482.08299 856.313367 482.08299 C 857.65196 482.08299 860.863684 480.723246 863.451031 479.059803 Z M 598.836414 428.600882 C 598.836414 426.395612 599.820145 425.805469 604.666928 425.118695 L 610.497443 424.290425 L 606.607438 421.191313 C 601.989743 417.508961 601.56301 414.634173 605.632691 414.62727 C 609.688897 414.62727 616.557045 410.413445 617.603663 407.300529 C 618.08879 405.851056 617.78334 403.914974 616.911907 402.921049 C 614.638995 400.325802 610.362685 400.719231 609.572107 403.594019 C 608.718642 406.682777 607.290211 406.693131 604.047043 403.625079 C 599.173308 399.007472 599.065502 389.454753 603.822447 383.891538 C 606.063916 381.272132 606.045948 381.099576 603.184594 378.390442 C 600.11212 375.481142 597.91557 369.717761 599.361969 368.347664 C 599.820145 367.912822 602.250274 368.261385 604.756767 369.120716 C 608.323353 370.342415 609.729324 370.35967 611.198182 369.203543 C 615.649677 365.707552 610.829845 361.210734 603.692181 362.201207 C 600.821843 362.601538 599.635976 362.201207 599.222719 360.710321 C 598.912777 359.581802 596.3973 358.108171 593.56739 357.390337 C 588.513978 356.11342 588.478042 356.130676 588.478042 359.612862 C 588.478042 363.429808 586.294968 364.151094 582.157909 361.704245 C 578.788967 359.712945 575.527832 361.255599 575.527832 364.841319 C 575.527832 368.185461 578.88779 369.831648 584.915948 369.445122 C 589.538136 369.148325 589.708829 372.585647 585.320221 377.524209 L 582.1624 381.075418 L 584.664401 384.671492 C 588.365744 389.989678 588.055802 398.828013 584.00858 403.217846 L 580.837284 406.658619 L 578.757524 403.897718 C 575.864726 400.063516 571.907343 400.322351 570.82479 404.415387 C 570.115066 407.093461 570.699016 408.318611 574.058974 411.158888 C 576.313918 413.067361 579.606497 414.630722 581.376314 414.630722 C 585.751446 414.630722 585.580753 418.071495 581.030436 421.55023 L 577.468342 424.273169 L 582.970946 425.125597 C 585.998502 425.594951 588.478042 426.478439 588.478042 427.089288 C 588.478042 429.429152 589.901982 436.524668 593.517979 436.704127 C 596.743178 436.862879 598.760051 431.955377 598.836414 428.600882 Z M 598.836414 428.600882 " transform="matrix(0.869617,0,0,1.131877,-33.492502,-6.46323)"/>
<path style="fill-rule:nonzero;fill:rgb(100%,74.509805%,16.078432%);fill-opacity:1;stroke-width:5.56;stroke-linecap:butt;stroke-linejoin:miter;stroke:rgb(0%,0%,0%);stroke-opacity:1;stroke-miterlimit:4;" d="M 668.479168 402.921049 C 673.478677 400.950456 684.299717 391.787715 684.299717 389.520325 C 684.299717 388.809393 681.312589 385.52392 677.665148 382.221192 C 669.97947 375.270623 661.624496 363.564402 659.459389 356.720818 C 658.331917 353.152353 652.874232 347.043859 637.507368 332.138444 L 617.06014 312.308271 L 611.166739 313.802609 C 607.928063 314.620526 603.97068 315.314202 602.38054 315.33836 C 599.635976 315.379773 599.685387 315.538525 603.332828 318.361547 L 607.182404 321.339869 L 612.577202 318.344291 C 617.805799 315.441894 617.99446 315.424638 618.636805 317.7576 C 619.018618 319.127697 618.201088 321.498621 616.75469 323.237989 C 615.35321 324.925589 614.55814 326.840965 614.980381 327.493228 C 615.407113 328.14549 614.059537 329.508685 611.988761 330.523317 C 608.148168 332.404181 605.484458 338.595502 608.512013 338.595502 C 611.23861 338.595502 617.248801 331.17558 616.557045 328.670062 C 616.202183 327.382792 616.372876 326.064461 616.938858 325.733153 C 619.27915 324.363056 619.135408 330.185106 616.75469 333.049541 C 615.35321 334.737142 614.55814 336.652517 614.980381 337.30478 C 615.407113 337.957043 614.059537 339.320238 611.988761 340.334869 C 608.175119 342.201929 605.479966 348.403603 608.485062 348.403603 C 611.42727 348.403603 617.343131 341.31844 616.610948 338.664524 C 616.229135 337.280622 616.372876 335.872563 616.938858 335.544706 C 618.515523 334.619804 619.368988 339.216704 618.034887 341.47029 C 617.325164 342.674733 617.329656 344.324372 618.052855 345.628898 C 619.364496 347.99637 618.034887 352.541504 615.622725 353.953015 C 614.585091 354.556962 615.285831 355.747601 617.796815 357.642269 C 621.426288 360.382464 621.498159 360.672358 621.498159 372.772008 C 621.498159 382.883809 621.906924 385.49286 623.762088 387.252935 C 625.850831 389.23043 626.030508 389.237333 626.030508 387.342664 C 626.030508 385.271988 629.659981 382.742312 632.633633 382.742312 C 633.509558 382.742312 638.98521 387.384078 644.797757 393.054278 C 650.650731 398.762442 656.77322 403.614726 658.507102 403.925327 C 660.232 404.232477 662.096148 404.560334 662.653146 404.650064 C 663.210144 404.743244 665.833426 403.963289 668.479168 402.921049 Z M 605.960602 354.001331 C 605.960602 350.740016 599.236195 347.26128 591.191163 346.360536 C 584.700336 345.628898 584.59253 345.670311 584.59253 348.91437 C 584.59253 351.599346 585.616688 352.655391 590.095134 354.608729 C 597.300177 357.742352 605.960602 357.411044 605.960602 354.001331 Z M 605.960602 354.001331 " transform="matrix(0.869617,0,0,1.131877,-33.492502,-6.46323)"/>
<path style="fill-rule:nonzero;fill:rgb(100%,74.509805%,16.078432%);fill-opacity:1;stroke-width:5.56;stroke-linecap:butt;stroke-linejoin:miter;stroke:rgb(0%,0%,0%);stroke-opacity:1;stroke-miterlimit:4;" d="M 613.331845 353.701083 C 616.610948 350.72276 618.165153 347.185356 616.188708 347.185356 C 613.920287 347.185356 607.89662 352.58982 607.89662 354.625984 C 607.89662 357.804472 609.015109 357.61466 613.331845 353.701083 Z M 606.337923 344.058635 C 606.616422 342.219185 605.479966 340.994035 602.070598 339.451381 C 594.71283 336.131397 585.922139 334.592195 583.801952 336.255638 C 579.902964 339.323689 582.499295 343.440883 588.805953 344.179424 C 591.343888 344.479672 594.7847 345.252725 596.451203 345.901537 C 601.297987 347.782401 605.906699 346.926521 606.337923 344.058635 Z M 606.337923 334.20912 C 606.737704 331.586264 605.057725 330.647557 591.361856 325.826333 C 581.138242 322.226808 576.610385 323.924763 579.876012 330.133339 C 581.01696 332.293745 582.926027 333.280767 587.21132 333.922676 C 590.400585 334.402383 594.753257 335.334187 596.891412 335.996803 C 602.600644 337.770682 605.897715 337.146029 606.337923 334.20912 Z M 613.20158 324.980807 C 615.267864 322.885974 616.956826 320.411516 616.956826 319.486614 C 616.956826 316.480683 608.795004 321.798869 607.75737 325.481221 C 606.508616 329.902114 608.529981 329.712302 613.20158 324.980807 Z M 606.337923 324.359605 C 606.791607 321.370929 601.81905 318.672148 592.044628 316.598021 C 584.875521 315.076074 581.713208 315.938856 582.247747 319.272644 C 582.544214 321.091388 584.929424 322.420072 591.707734 324.535612 C 602.551233 327.917716 605.807876 327.879754 606.337923 324.359605 Z M 615.901225 310.451565 C 628.424702 304.874544 629.507255 290.814655 617.697993 287.1254 C 612.792815 285.589649 609.661945 286.417919 607.784322 289.737903 C 606.346907 292.281383 607.308178 296.905893 609.27564 296.905893 C 609.940444 296.905893 610.483967 297.761772 610.483967 298.807464 C 610.483967 303.690808 591.361856 305.90298 583.518961 301.927282 C 580.765413 300.529576 579.56607 296.905893 581.85695 296.905893 C 583.572864 296.905893 584.754239 293.213188 583.878315 290.600685 C 582.687955 287.042573 579.09891 285.80707 573.897264 287.170265 C 562.155381 290.238317 562.487783 304.032469 574.440787 309.889031 C 584.24216 314.689548 605.727022 314.979443 615.901225 310.451565 Z M 615.901225 310.451565 " transform="matrix(0.869617,0,0,1.131877,-33.492502,-6.46323)"/>
<path style="fill-rule:nonzero;fill:rgb(100%,74.509805%,16.078432%);fill-opacity:1;stroke-width:5.56;stroke-linecap:butt;stroke-linejoin:miter;stroke:rgb(0%,0%,0%);stroke-opacity:1;stroke-miterlimit:4;" d="M 608.112232 299.639185 C 608.835432 298.952411 608.520997 297.896366 607.303686 296.940404 C 604.639977 294.849022 604.783718 291.736105 607.703467 288.171092 C 609.895525 285.496469 610.169532 281.493162 610.924175 241.097726 C 612.226833 171.488503 617.406018 119.128011 624.224755 106.569362 C 626.942368 101.56868 626.560555 101.547973 619.544173 106.324332 C 610.501935 112.477691 603.615819 120.487755 597.515789 131.952398 C 586.002994 153.604766 582.000691 182.735725 582.000691 244.914672 C 582.000691 280.219696 582.238763 284.837304 584.251144 288.157287 C 586.160211 291.311617 586.263525 292.474647 584.92044 295.839495 C 584.049008 298.024058 583.65821 300.108538 584.044516 300.474358 C 586.613895 302.910853 605.345208 302.265493 608.112232 299.646087 Z M 713.339991 233.260217 C 713.730788 232.659721 712.863847 229.62273 711.412956 226.516716 C 709.149028 221.667883 708.237167 220.863771 705.011968 220.863771 C 694.914128 220.863771 678.671339 216.349697 661.929946 208.888362 C 652.263331 204.577905 648.925833 203.587431 647.766917 204.68489 C 644.806741 207.487204 649.720903 214.137525 657.33471 217.633516 C 664.090561 220.732628 682.970108 224.542672 691.585614 224.542672 C 696.580631 224.542672 696.697421 224.766995 693.854034 228.877287 L 691.765291 231.900473 L 697.416128 232.045421 C 700.524538 232.124797 704.814323 232.611406 706.952478 233.125623 C 712.504493 234.464661 712.553904 234.464661 713.339991 233.260217 Z M 713.339991 233.260217 " transform="matrix(0.869617,0,0,1.131877,-33.492502,-6.46323)"/>
<path style="fill-rule:nonzero;fill:rgb(0%,0%,0%);fill-opacity:1;stroke-width:5.56;stroke-linecap:butt;stroke-linejoin:miter;stroke:rgb(0%,0%,0%);stroke-opacity:1;stroke-miterlimit:4;" d="M 772.350366 264.630958 C 772.350366 262.82947 767.067866 257.956479 761.713496 254.812503 C 757.509057 252.344947 756.812809 252.272473 756.803825 254.28448 C 756.790349 257.338727 754.072737 265.014033 753.003659 265.014033 C 752.406234 265.014033 751.516833 263.512793 751.027214 261.680244 C 750.542086 259.847696 748.502754 256.234367 746.499357 253.652924 L 742.851916 248.955941 L 740.013022 253.307811 C 737.36728 257.362885 732.781028 261.335132 730.746187 261.335132 C 730.26106 261.335132 730.166729 259.198884 730.535067 256.586382 C 730.93934 253.753007 730.629397 251.502872 729.766948 250.999008 C 728.971878 250.533106 728.32055 250.695309 728.32055 251.357925 C 728.32055 252.886774 721.955496 260.106531 720.60792 260.106531 C 720.050922 260.106531 719.273819 258.039306 718.883022 255.50963 C 718.487733 252.979954 717.813945 248.980099 717.391704 246.619528 C 716.964971 244.258958 717.87234 245.86028 719.404085 250.17764 L 722.193568 258.025501 L 725.252567 253.24224 C 726.932546 250.612482 728.311566 247.737693 728.316058 246.850754 C 728.316058 245.970716 728.886532 245.577288 729.578288 245.984521 C 730.270044 246.388303 731.235807 249.549535 731.720934 253.011015 L 732.601351 259.302418 L 735.9658 255.616615 C 737.816472 253.587353 739.98607 250.871316 740.78114 249.580595 C 742.209571 247.275242 742.290426 247.278693 745.129321 249.684129 C 746.719461 251.033519 749.167558 254.260322 750.564546 256.85557 C 751.961534 259.450817 753.295634 261.379996 753.524722 261.14532 C 753.749318 260.914094 754.261397 258.239471 754.661178 255.20248 C 755.06096 252.16894 755.415821 249.573693 755.451757 249.435647 C 755.649401 248.683302 765.585532 255.14036 769.259924 258.412028 C 771.627167 260.513764 773.868636 261.939079 774.250449 261.580162 C 774.627771 261.221245 774.942205 258.118682 774.942205 254.688262 C 774.942205 249.370076 774.376223 247.944761 771.124072 245.038912 C 767.386793 241.698222 767.278987 241.677515 765.899967 244.124364 C 764.10769 247.295949 761.991995 247.344265 761.991995 244.207191 C 761.991995 241.922545 754.926202 233.129075 753.089006 233.129075 C 752.60837 233.129075 751.121544 235.061705 749.77846 237.422276 C 748.435375 239.779395 746.993468 241.712026 746.571227 241.708575 C 744.760983 241.698222 734.797901 230.592497 734.802393 228.587392 C 734.802393 226.992972 735.476181 227.400204 737.219046 230.061023 C 738.548655 232.086834 741.198889 235.10657 743.107956 236.773464 C 746.984484 240.155568 748.390456 239.330749 749.886266 232.821924 C 750.312998 230.968669 751.054165 229.450174 751.530309 229.450174 C 753.187828 229.450174 761.857237 238.657779 763.07904 241.712026 L 764.300843 244.780078 L 765.23067 241.404876 C 766.362635 237.28078 767.615881 237.12893 769.426125 240.890658 C 770.180768 242.464372 773.918047 245.732589 777.727197 248.155279 L 784.65374 252.558917 L 786.041744 248.131122 C 786.80537 245.694626 787.820545 244.293469 788.292196 245.018205 C 788.997428 246.098408 787.200659 253.442405 785.839607 255.01957 C 785.637471 255.257698 783.39151 253.949721 780.853574 252.113722 L 776.235879 248.779933 L 776.217911 254.750382 C 776.204435 258.032404 775.849573 261.963237 775.418349 263.478281 C 774.578359 266.449701 772.350366 267.281423 772.350366 264.630958 Z M 737.820964 217.029569 C 729.587271 210.158376 728.338517 208.584663 728.522686 205.326799 L 728.715839 201.861868 L 729.250377 205.209461 C 729.564812 207.16625 731.75687 210.096256 734.519401 212.25321 L 739.253887 215.945915 L 742.16016 212.584518 C 743.759284 210.734714 745.088893 208.529445 745.115845 207.68737 C 745.183224 205.489002 745.574021 205.671912 751.148496 210.50694 C 756.103085 214.803593 756.179448 214.824299 756.916123 212.042691 C 757.324888 210.489684 757.181147 207.56658 756.592705 205.547671 C 754.971121 199.99826 755.290048 199.159636 757.742637 202.51068 C 758.96444 204.177574 760.927409 206.534693 762.104293 207.746039 C 764.157101 209.861579 764.282875 209.83397 765.046502 207.135189 C 765.48671 205.582182 765.855047 202.745356 765.864031 200.82653 L 765.881999 197.337441 L 770.346969 202.396793 C 774.515473 207.124836 774.897286 207.297392 776.172992 205.047258 C 776.923143 203.722025 777.543028 200.529733 777.556504 197.958644 C 777.569979 194.631758 777.920349 193.793134 778.76483 195.059698 C 780.175294 197.171787 779.196055 202.928266 776.59074 207.832317 L 774.717609 211.352466 L 772.260528 207.528618 C 769.120675 202.63492 768.074057 202.714296 766.057184 207.99452 C 764.152609 212.981398 762.912839 213.364473 761.057675 209.52682 C 759.85384 207.042009 759.629244 207.345708 758.775779 212.563811 L 757.827983 218.361704 L 752.145702 213.954615 L 746.467913 209.547527 L 743.916502 212.449924 C 742.51053 214.044345 741.342631 216.042547 741.320171 216.884622 C 741.266268 218.710268 739.905216 218.768937 737.820964 217.029569 Z M 811.039288 191.429113 C 808.043176 188.730332 805.981384 186.155791 806.453036 185.707145 C 806.92918 185.258498 807.459226 185.130807 807.638903 185.420701 C 807.814088 185.714047 810.266678 188.288587 813.078621 191.14612 C 819.564955 197.720516 818.230855 197.906877 811.039288 191.429113 Z M 713.510684 181.348372 C 710.784087 177.66602 710.972748 175.222622 714.287786 171.229669 C 716.686472 168.344527 717.782501 167.951099 721.968972 168.482572 C 724.655141 168.824234 730.431753 171.195158 734.811376 173.755894 C 739.864788 176.710058 745.093385 178.691004 749.145099 179.181064 C 752.653289 179.609004 755.519136 179.767756 755.519136 179.539982 C 755.519136 179.308756 754.063753 176.934381 752.284952 174.26666 C 748.058054 167.920039 748.201795 167.240167 752.972216 171.039857 C 757.863919 174.943081 763.721385 176.081953 776.806353 175.685073 L 783.198357 175.49181 L 779.48803 171.826714 C 774.304352 166.69834 775.898984 166.23934 781.626185 171.208962 C 786.998523 175.871434 786.661629 176.199291 775.355462 177.327809 C 770.549106 177.807516 765.383396 177.462403 761.089118 176.368396 C 754.661178 174.732562 754.414123 174.760171 755.631434 176.913674 C 756.332173 178.15608 757.46863 179.170711 758.155894 179.170711 C 758.843158 179.170711 759.404648 179.798816 759.404648 180.568417 C 759.404648 182.932439 745.52461 180.85141 738.894533 177.493464 C 723.743281 169.82506 721.834215 169.158993 718.231693 170.294414 C 716.223804 170.929421 714.215915 172.779225 713.524159 174.63248 C 711.21082 180.82035 719.988035 185.63122 723.608524 180.161184 C 724.655141 178.577117 724.412578 177.493464 722.566398 175.564284 C 720.041938 172.920721 720.28001 172.544548 723.689378 173.783503 C 726.106032 174.66354 726.433942 180.471786 724.18349 182.604582 C 721.605127 185.044528 715.729693 184.354303 713.510684 181.348372 Z M 713.510684 181.348372 " transform="matrix(0.869617,0,0,1.131877,-33.492502,-6.46323)"/>
<path style="fill-rule:nonzero;fill:rgb(0%,0%,0%);fill-opacity:1;stroke-width:5.56;stroke-linecap:butt;stroke-linejoin:miter;stroke:rgb(0%,0%,0%);stroke-opacity:1;stroke-miterlimit:4;" d="M 773.190356 166.070235 C 771.294765 164.275649 772.781591 163.837356 781.275815 163.678604 C 791.78242 163.48189 798.16544 161.732169 805.693901 156.976516 C 811.726552 153.166473 813.366104 153.918818 807.638903 157.866907 C 802.414798 161.469883 794.266452 164.237687 786.396605 165.086664 C 782.587456 165.497348 778.248259 166.063332 776.75245 166.349776 C 775.252148 166.632768 773.653024 166.508528 773.190356 166.070235 Z M 773.190356 166.070235 " transform="matrix(0.869617,0,0,1.131877,-33.492502,-6.46323)"/>
<path style=" stroke:none;fill-rule:nonzero;fill:rgb(100%,74.509805%,16.078432%);fill-opacity:1;" d="M 559.1875 536.339844 L 562.976562 533.492188 L 564.597656 536.34375 C 566.757812 540.148438 572.738281 540.105469 576.703125 536.257812 L 579.738281 533.316406 L 582.277344 536.257812 C 585.617188 540.125 591.855469 540.128906 595.835938 536.269531 C 598.625 533.566406 599.011719 533.511719 600.855469 535.570312 C 601.957031 536.796875 605.179688 538.191406 608.019531 538.671875 C 613.132812 539.535156 613.210938 539.488281 616.203125 533.644531 C 618.710938 528.75 619.105469 526.765625 618.507812 522.019531 C 618.109375 518.875 617.683594 513.808594 617.554688 510.765625 C 617.332031 505.25 617.355469 505.21875 623.523438 502.421875 C 626.929688 500.878906 630.871094 498.808594 632.285156 497.820312 C 634.746094 496.101562 641.539062 485.710938 641.539062 483.664062 C 641.539062 483.121094 638.886719 482.289062 635.644531 481.816406 C 622.746094 479.933594 620.558594 470.917969 628.945312 454.171875 C 642.621094 426.863281 650.875 400.265625 650.929688 383.324219 C 650.953125 375.753906 651.285156 373.210938 652.03125 374.855469 C 655.085938 381.585938 649.613281 409.804688 641.320312 430.070312 L 637.984375 438.230469 L 641.167969 437.273438 C 642.921875 436.75 653.222656 431.09375 664.0625 424.703125 C 693.726562 407.214844 703.917969 403.785156 723.117188 404.839844 C 739.203125 405.722656 746.054688 409.808594 757.410156 425.3125 C 763.425781 433.527344 769.222656 439.40625 779.824219 448.042969 C 802.414062 466.445312 803.355469 468.039062 804.429688 489.679688 C 805.515625 511.609375 804.976562 512.796875 792.234375 516.460938 C 781.34375 519.59375 774.515625 526.203125 772.683594 535.382812 C 771.707031 540.289062 773.765625 540.429688 779.253906 535.835938 L 783.277344 532.46875 L 785.066406 535.835938 C 787.421875 540.261719 792.421875 540.28125 796.574219 535.875 L 799.707031 532.550781 L 802.914062 535.875 C 807.898438 541.042969 814.523438 539.789062 816.390625 533.328125 C 816.75 532.085938 817.710938 532.484375 819.652344 534.679688 C 823.292969 538.796875 832.621094 540.5625 833.628906 537.324219 C 834.015625 536.089844 833.285156 533.039062 832.007812 530.546875 C 826.578125 519.953125 824.878906 514.902344 824.808594 509.136719 C 824.710938 501.113281 826.550781 497.246094 833.558594 490.722656 C 842.074219 482.796875 844.703125 472.574219 838.230469 472.574219 C 834.230469 472.574219 830.203125 467.972656 827.632812 460.480469 C 822.40625 445.242188 823.429688 428.160156 831.273438 399.746094 C 839.238281 370.882812 840.121094 365.5625 840.152344 346.257812 C 840.175781 330.648438 839.875 327.949219 837.148438 319.394531 C 835.480469 314.160156 832.09375 306.371094 829.625 302.082031 L 825.136719 294.285156 L 830.898438 288.070312 C 848.496094 269.09375 844.898438 238.042969 823.714844 226.078125 C 817.234375 222.417969 815.613281 222.09375 804.257812 222.195312 C 797.445312 222.253906 787.058594 223.417969 781.175781 224.785156 C 775.175781 226.179688 765.023438 227.300781 758.054688 227.335938 C 746.988281 227.394531 745.113281 227.039062 740.847656 224.085938 C 736.402344 221.003906 735.636719 219.542969 734.769531 212.421875 C 734.589844 210.957031 733.800781 209.496094 733.019531 209.175781 C 731.507812 208.554688 724.523438 216.445312 723.492188 219.941406 C 722.980469 221.664062 722.566406 221.546875 721.074219 219.246094 C 720.082031 217.71875 718.695312 214.210938 717.996094 211.449219 C 716.234375 204.503906 718.398438 199.300781 724.667969 195.398438 L 729.535156 192.371094 L 726.664062 190.054688 C 720.746094 185.273438 710.675781 188.542969 707.035156 196.433594 C 706.007812 198.664062 704.882812 200.492188 704.539062 200.5 C 704.195312 200.503906 702.238281 198.375 700.1875 195.769531 C 692.546875 186.046875 695.175781 171.664062 705.398438 167.269531 C 710.851562 164.929688 715.675781 166.714844 716.679688 171.449219 C 718.210938 178.671875 722.976562 169.175781 722.121094 160.597656 C 721.554688 154.898438 721.640625 154.699219 724.671875 154.699219 C 728.886719 154.699219 737.859375 161.902344 740.632812 167.511719 C 743.855469 174.027344 743.621094 184.289062 740.074219 191.9375 L 737.289062 197.945312 L 740.933594 196.992188 C 746.273438 195.601562 751.464844 191.28125 754.089844 186.046875 C 756.867188 180.507812 757.164062 169.730469 754.703125 163.914062 C 752.316406 158.273438 752.59375 157.378906 756.117188 159.285156 C 762.117188 162.523438 765.324219 166.097656 767.726562 172.222656 C 769.894531 177.738281 770.015625 179.109375 768.84375 184.851562 C 768.117188 188.394531 766.507812 193.050781 765.265625 195.207031 C 763.328125 198.558594 763.261719 199.121094 764.804688 199.121094 C 767.679688 199.121094 773.679688 195.582031 775.8125 192.628906 C 776.890625 191.132812 778.460938 187.460938 779.300781 184.460938 L 780.832031 179.011719 L 782.59375 183.164062 C 785.078125 189.042969 789.917969 194.328125 795.8125 197.621094 C 802.15625 201.160156 804.796875 201.359375 801.480469 198.046875 C 799.242188 195.816406 795.125 180.078125 796.371094 178.539062 C 797.105469 177.632812 805.71875 186.253906 815.550781 197.742188 C 824.847656 208.609375 830.695312 212.171875 839.238281 212.171875 C 850.148438 212.171875 856.5 199.804688 851.597656 188.117188 C 848.738281 181.300781 842.367188 180.355469 838.644531 186.191406 C 836.929688 188.875 836.460938 191.007812 836.960938 193.824219 C 837.578125 197.273438 837.335938 197.734375 834.921875 197.734375 C 831.75 197.734375 825.5 192.453125 814.394531 180.394531 C 797.460938 162 776.886719 146.414062 762.03125 140.71875 C 752.496094 137.066406 732.132812 135.640625 722.4375 137.949219 C 711.949219 140.445312 699.542969 148.257812 692.785156 156.625 C 680.808594 171.441406 680.617188 191.164062 692.277344 209.125 L 695.617188 214.269531 L 693.359375 218.839844 C 690.066406 225.492188 690.347656 234.445312 694.054688 241.039062 C 695.6875 243.941406 697.335938 246.316406 697.714844 246.3125 C 698.097656 246.3125 698.511719 244.445312 698.640625 242.164062 C 698.96875 236.398438 700.871094 232.53125 704.136719 231.003906 C 707.078125 229.625 708.976562 230.273438 722.441406 237.269531 C 736.609375 244.628906 759.902344 245.136719 784.675781 238.621094 C 796.816406 235.429688 811.136719 235.617188 817.4375 239.050781 C 828.984375 245.347656 831.660156 261.730469 823.171875 274.164062 C 819.496094 279.546875 815.953125 281.738281 804.054688 285.988281 C 795 289.222656 792.855469 289.4375 772.277344 289.171875 C 754.695312 288.941406 748.375 289.382812 741.199219 291.332031 C 733.40625 293.449219 728.613281 293.664062 705.726562 292.914062 L 679.265625 292.042969 L 682.199219 295.207031 C 683.8125 296.949219 686.09375 299.085938 687.265625 299.964844 C 689.261719 301.453125 689.195312 301.65625 686.226562 303.089844 C 684.484375 303.929688 680.613281 304.617188 677.628906 304.617188 L 672.199219 304.617188 L 671.46875 310.621094 C 671.066406 313.925781 671.097656 317.78125 671.535156 319.191406 C 672.183594 321.273438 671.941406 321.570312 670.257812 320.773438 C 669.117188 320.234375 665.9375 319.171875 663.191406 318.414062 C 660.445312 317.652344 656.75 316.109375 654.980469 314.980469 C 652.003906 313.082031 651.671875 313.132812 650.574219 315.660156 C 649.59375 317.917969 640.398438 326.824219 639.050781 326.824219 C 638.832031 326.824219 638.550781 325.109375 638.421875 323.007812 C 638.296875 320.910156 636.972656 315.445312 635.476562 310.863281 C 633.980469 306.28125 632.417969 301.285156 632.003906 299.757812 C 631.382812 297.453125 631.101562 297.335938 630.347656 299.0625 C 629.847656 300.210938 629.121094 303.332031 628.730469 306.003906 C 628.339844 308.675781 626.953125 313.015625 625.652344 315.652344 L 623.28125 320.4375 L 621.769531 316.34375 C 620.148438 311.949219 617.457031 307.390625 616.484375 307.390625 C 616.152344 307.390625 615.59375 308.796875 615.238281 310.515625 C 614.492188 314.105469 608.109375 324.050781 606.550781 324.050781 C 605.976562 324.050781 605.503906 321.238281 605.503906 317.804688 C 605.503906 314.367188 605 311.558594 604.378906 311.558594 C 603.761719 311.558594 603.253906 312.445312 603.253906 313.53125 C 603.253906 316.171875 597.800781 324.050781 595.972656 324.050781 C 595.171875 324.050781 593.890625 324.988281 593.117188 326.132812 C 591.109375 329.117188 589.464844 328.699219 590.308594 325.414062 C 590.707031 323.875 590.449219 320.285156 589.734375 317.433594 L 588.054688 310.691406 C 587.785156 309.609375 585.832031 309.898438 581.695312 311.625 C 575.015625 314.414062 572.773438 313.917969 576.210938 310.414062 C 577.46875 309.132812 579.378906 304.699219 580.457031 300.554688 C 581.539062 296.414062 583.128906 292.738281 583.996094 292.390625 C 585.210938 291.898438 585.148438 292.503906 583.714844 295.023438 C 582.695312 296.820312 581.855469 299.246094 581.851562 300.414062 C 581.851562 301.578125 581.078125 304.34375 580.140625 306.558594 C 579.203125 308.769531 578.617188 310.800781 578.832031 311.066406 C 579.050781 311.335938 581.59375 310.078125 584.484375 308.273438 L 589.738281 304.996094 L 589.761719 307.929688 C 589.773438 309.542969 590.40625 313.800781 591.167969 317.390625 L 592.554688 323.917969 L 596.132812 321.777344 C 599.789062 319.589844 603.253906 311.792969 603.253906 305.746094 C 603.253906 302.757812 604.566406 303.214844 605.105469 306.390625 C 605.265625 307.324219 606.089844 310.820312 606.941406 314.167969 L 608.488281 320.246094 L 610.9375 316.40625 C 612.285156 314.296875 613.976562 310.15625 614.691406 307.203125 C 615.9375 302.082031 617.890625 299.878906 617.890625 303.601562 C 617.890625 306.28125 623.511719 315.894531 624.597656 315.066406 C 625.121094 314.667969 626.164062 311.058594 626.914062 307.050781 C 628.476562 298.707031 630.996094 293.035156 632.597656 294.257812 C 633.199219 294.714844 633.4375 295.605469 633.121094 296.234375 C 632.804688 296.863281 634.097656 302.289062 635.996094 308.285156 C 637.414062 312.757812 638.824219 317.230469 640.230469 321.707031 C 640.925781 323.925781 641.550781 323.605469 645.617188 318.929688 C 648.148438 316.019531 650.445312 312.761719 650.722656 311.691406 C 651.140625 310.070312 651.707031 310.128906 654.074219 312.042969 C 657.382812 314.714844 668.511719 319.023438 669.371094 317.964844 C 669.695312 317.566406 670.023438 313.761719 670.105469 309.507812 L 670.253906 301.777344 L 673.453125 302.640625 C 675.214844 303.117188 678.917969 303.085938 681.679688 302.574219 L 686.703125 301.648438 L 682.226562 297.648438 C 679.761719 295.449219 677.273438 292.601562 676.691406 291.324219 C 676.074219 289.960938 673.882812 288.804688 671.398438 288.527344 C 664.691406 287.789062 652.800781 279.105469 652.800781 274.949219 C 652.800781 274.171875 654.445312 275.496094 656.460938 277.898438 C 660.925781 283.226562 667.128906 286.570312 672.546875 286.570312 L 676.601562 286.570312 L 674.09375 282.230469 C 672.652344 279.734375 671.359375 275.003906 671.058594 271.113281 C 670.574219 264.90625 670.070312 263.921875 665.09375 259.417969 C 662.101562 256.710938 658.402344 252.660156 656.863281 250.410156 L 654.070312 246.316406 L 652.644531 251.175781 C 651.863281 253.847656 650.90625 256.03125 650.515625 256.03125 C 650.128906 256.03125 648.625 254.46875 647.167969 252.5625 C 645.714844 250.652344 644.234375 249.097656 643.875 249.109375 C 643.519531 249.117188 642.230469 251.6875 641.011719 254.820312 L 638.796875 260.519531 L 637.085938 257.234375 C 636.144531 255.429688 633.921875 252.230469 632.144531 250.132812 C 630.367188 248.035156 629.433594 246.316406 630.066406 246.316406 C 630.703125 246.316406 632.894531 248.503906 634.941406 251.175781 L 638.660156 256.035156 L 640.171875 252.476562 C 641.070312 250.363281 641.40625 247.117188 641 244.492188 C 640.40625 240.667969 640.492188 240.445312 641.617188 242.84375 C 642.335938 244.375 644.511719 247.300781 646.453125 249.351562 L 649.984375 253.078125 L 652.421875 247.269531 C 654.847656 241.484375 654.867188 241.472656 655.96875 244.929688 C 657.445312 249.546875 668.125 260.941406 677.21875 267.601562 C 678.621094 268.628906 678.03125 265.097656 675.441406 256.984375 C 674.757812 254.832031 674.195312 250.960938 674.195312 248.375 C 674.195312 244.535156 673.34375 242.828125 669.574219 239.09375 C 664.128906 233.703125 662.371094 229.871094 661.34375 221.171875 C 660.929688 217.648438 659.976562 213.730469 659.226562 212.460938 C 658.117188 210.582031 657.933594 211.636719 658.230469 218.175781 C 658.429688 222.582031 657.992188 228.0625 657.253906 230.351562 L 655.910156 234.519531 L 654.871094 231.046875 C 654.300781 229.136719 651.773438 225.816406 649.257812 223.671875 C 646.742188 221.523438 644.976562 219.402344 645.335938 218.960938 C 645.691406 218.523438 648.28125 220.480469 651.085938 223.3125 C 655.359375 227.628906 656.300781 228.097656 656.894531 226.195312 C 657.589844 223.964844 656.894531 214.242188 655.550781 207.449219 C 654.878906 204.058594 654.9375 204.074219 658.152344 208.257812 C 660.523438 211.34375 661.835938 215.027344 662.851562 221.445312 C 664.140625 229.601562 664.792969 230.960938 670.585938 237.585938 C 674.066406 241.5625 677.09375 244.589844 677.316406 244.320312 C 677.539062 244.046875 677.976562 233.757812 678.292969 221.457031 C 678.898438 197.867188 678.214844 192.253906 673.847656 184.964844 L 671.605469 181.222656 L 675.132812 176.273438 C 679.730469 169.8125 681.84375 164.640625 682.757812 157.578125 L 683.503906 151.835938 L 679.523438 156.738281 C 676.265625 160.753906 674.710938 161.644531 670.9375 161.644531 C 667.203125 161.644531 665.742188 160.828125 663.222656 157.335938 C 660.203125 153.144531 654.851562 149.113281 649.703125 147.152344 C 647.800781 146.429688 647.167969 146.742188 647.167969 148.417969 C 647.167969 149.644531 646.117188 153.1875 644.835938 156.289062 L 642.5 161.929688 L 637.609375 155.636719 C 634.609375 151.777344 631.050781 148.773438 628.402344 147.867188 C 621.636719 145.550781 621.269531 145.78125 621.269531 152.34375 C 621.269531 162.296875 618.003906 164.148438 612.128906 157.535156 C 607.648438 152.492188 603.933594 151.394531 595.441406 152.609375 L 588.878906 153.550781 L 590.058594 157.402344 C 591.046875 160.625 590.824219 161.980469 588.710938 165.636719 C 585.285156 171.566406 580.832031 174.136719 573.972656 174.136719 C 570.816406 174.136719 566.863281 174.988281 565.191406 176.027344 C 563.519531 177.066406 559.363281 178.261719 555.957031 178.6875 C 552.550781 179.113281 548.917969 179.871094 547.886719 180.371094 C 546.273438 181.15625 546.097656 180.507812 546.617188 175.734375 C 547.414062 168.421875 543.488281 163.03125 537.375 163.03125 C 529.441406 163.03125 525.78125 172.265625 528.890625 184.449219 C 529.488281 186.792969 530.269531 190.488281 530.628906 192.664062 C 531 194.921875 534.574219 200.90625 538.949219 206.605469 C 543.167969 212.101562 547.15625 217.816406 547.808594 219.308594 C 548.464844 220.804688 550.628906 223.199219 552.617188 224.632812 L 556.234375 227.246094 L 555.757812 222.207031 C 555.234375 216.667969 556.160156 215.800781 558.425781 219.707031 C 559.234375 221.105469 561.289062 223.363281 562.992188 224.726562 C 565.675781 226.871094 566.089844 226.914062 566.089844 225.050781 C 566.089844 223.867188 566.636719 221.140625 567.304688 218.992188 L 568.519531 215.085938 L 570.628906 220.402344 C 571.789062 223.324219 575.5625 229.972656 579.011719 235.167969 C 585.707031 245.257812 589.785156 256.527344 587.679688 259.125 C 586.828125 260.175781 584.519531 260.09375 579.734375 258.84375 C 576.027344 257.871094 571.4375 257.359375 569.539062 257.703125 C 565.664062 258.40625 565.359375 257.753906 567.742188 253.867188 C 570.257812 249.769531 569.859375 249.09375 564.917969 249.09375 C 559.199219 249.09375 545 245.523438 539.550781 242.71875 C 534.253906 239.988281 533.03125 240.667969 531.46875 247.210938 C 530.769531 250.152344 529.484375 255.488281 528.613281 259.066406 L 527.035156 265.566406 L 532.765625 264.847656 C 535.921875 264.453125 539.976562 263.554688 541.78125 262.851562 C 543.585938 262.148438 545.222656 261.773438 545.421875 262.019531 C 545.625 262.265625 544.820312 264.808594 543.636719 267.664062 L 541.488281 272.863281 L 545.0625 271.917969 C 547.027344 271.394531 549.984375 270.117188 551.632812 269.078125 C 554.503906 267.273438 554.734375 267.40625 556.996094 272.132812 C 559.78125 277.949219 562.007812 277.710938 562.5 271.542969 C 563.011719 265.167969 564.625 266.109375 567.65625 274.558594 C 570.570312 282.679688 573.601562 285.550781 574.183594 280.734375 C 574.378906 279.136719 575.945312 276.53125 577.671875 274.949219 C 581.164062 271.75 583.792969 272.710938 585.300781 277.734375 C 586.863281 282.9375 583.378906 288.296875 573.253906 296.289062 C 552.96875 312.292969 541.179688 334.183594 537.8125 362.082031 C 534.773438 387.246094 544.257812 413.25 563.28125 431.925781 C 572.386719 440.863281 586.847656 450.296875 585.929688 446.699219 C 582.027344 431.414062 582.15625 402.246094 586.148438 397.324219 C 586.746094 396.585938 586.539062 399.628906 585.6875 404.089844 C 582.519531 420.695312 583.898438 433.929688 592.023438 464.941406 C 599.371094 492.992188 598.355469 504.980469 587.953125 512.902344 C 584.613281 515.449219 582.460938 515.867188 573.480469 515.726562 C 563.734375 515.570312 562.671875 515.828125 559.542969 519.074219 C 556.511719 522.21875 552.578125 532.550781 552.578125 537.371094 C 552.578125 539.980469 554.804688 539.636719 559.183594 536.34375 Z M 559.1875 536.339844 "/>
<path style=" stroke:none;fill-rule:nonzero;fill:rgb(100%,74.509805%,16.078432%);fill-opacity:1;" d="M 717.378906 535.773438 L 721.464844 532.355469 L 724.238281 535.773438 C 727.875 540.253906 732.132812 540.152344 735.625 535.503906 C 737.152344 533.476562 738.523438 532.074219 738.671875 532.382812 C 738.820312 532.691406 739.5 534.195312 740.179688 535.722656 C 741.046875 537.65625 742.820312 538.628906 746.027344 538.921875 C 749.890625 539.277344 750.925781 538.789062 752.460938 535.902344 L 754.292969 532.460938 L 758.316406 535.828125 C 769.332031 545.042969 775.203125 535.375 770.28125 516.121094 C 767.777344 506.332031 769.152344 500.828125 777.222656 488.367188 C 780.625 483.109375 783.410156 477.503906 783.414062 475.902344 C 783.414062 473.351562 782.785156 473.011719 778.257812 473.125 C 773.921875 473.238281 772.65625 472.632812 770.375 469.367188 C 766.664062 464.050781 766.882812 457.960938 771.03125 451.207031 L 774.34375 445.808594 L 768.464844 440.617188 C 765.234375 437.761719 759.402344 431.003906 755.511719 425.601562 C 746.765625 413.46875 738.171875 407.714844 726.835938 406.410156 L 719.234375 405.535156 L 719.246094 413.023438 C 719.261719 422.664062 722.734375 431.9375 732.222656 447.644531 C 743.011719 465.503906 743.765625 468.269531 744.203125 491.613281 L 744.570312 511.355469 L 741.449219 515.210938 C 738.628906 518.695312 737.355469 519.140625 728.253906 519.820312 C 719.589844 520.472656 717.769531 521.054688 715.226562 523.988281 C 711.847656 527.882812 710.839844 530 709.796875 535.375 C 709.1875 538.511719 709.433594 539.195312 711.171875 539.195312 C 712.335938 539.195312 715.128906 537.65625 717.378906 535.773438 Z M 487.265625 478.660156 C 487.265625 476.164062 488.121094 475.496094 492.335938 474.71875 L 497.40625 473.78125 L 494.023438 470.273438 C 490.007812 466.105469 489.636719 462.851562 493.175781 462.84375 C 496.703125 462.84375 502.675781 458.074219 503.585938 454.550781 C 504.007812 452.910156 503.742188 450.71875 502.984375 449.59375 C 501.007812 446.65625 497.289062 447.101562 496.601562 450.355469 C 495.859375 453.851562 494.617188 453.863281 491.796875 450.390625 C 487.558594 445.164062 487.464844 434.351562 491.601562 428.054688 C 493.550781 425.089844 493.535156 424.894531 491.046875 421.828125 C 488.375 418.535156 486.464844 412.011719 487.722656 410.460938 C 488.121094 409.96875 490.234375 410.363281 492.414062 411.335938 C 495.515625 412.71875 496.738281 412.738281 498.015625 411.429688 C 501.886719 407.472656 497.695312 402.382812 491.488281 403.503906 C 488.992188 403.957031 487.960938 403.503906 487.601562 401.816406 C 487.332031 400.539062 485.144531 398.871094 482.683594 398.058594 C 478.289062 396.613281 478.257812 396.632812 478.257812 400.574219 C 478.257812 404.894531 476.359375 405.710938 472.761719 402.941406 C 469.832031 400.6875 466.996094 402.433594 466.996094 406.492188 C 466.996094 410.277344 469.917969 412.140625 475.160156 411.703125 C 479.179688 411.367188 479.328125 415.257812 475.511719 420.847656 L 472.765625 424.867188 L 474.941406 428.9375 C 478.160156 434.957031 477.890625 444.960938 474.371094 449.929688 L 471.613281 453.824219 L 469.804688 450.699219 C 467.289062 446.359375 463.847656 446.652344 462.90625 451.285156 C 462.289062 454.316406 462.796875 455.703125 465.71875 458.917969 C 467.679688 461.078125 470.542969 462.847656 472.082031 462.847656 C 475.886719 462.847656 475.738281 466.742188 471.78125 470.679688 L 468.683594 473.761719 L 473.46875 474.726562 C 476.101562 475.257812 478.257812 476.257812 478.257812 476.949219 C 478.257812 479.597656 479.496094 487.628906 482.640625 487.832031 C 485.445312 488.011719 487.199219 482.457031 487.265625 478.660156 Z M 487.265625 478.660156 "/>
<path style=" stroke:none;fill-rule:nonzero;fill:rgb(100%,74.509805%,16.078432%);fill-opacity:1;" d="M 547.828125 449.59375 C 552.175781 447.363281 561.585938 436.992188 561.585938 434.425781 C 561.585938 433.621094 558.988281 429.902344 555.816406 426.164062 C 549.132812 418.296875 541.867188 405.046875 539.984375 397.300781 C 539.003906 393.261719 534.257812 386.347656 520.894531 369.476562 L 503.113281 347.03125 L 497.988281 348.722656 C 495.171875 349.648438 491.730469 350.433594 490.347656 350.460938 C 487.960938 350.507812 488.003906 350.6875 491.175781 353.882812 L 494.523438 357.253906 L 499.214844 353.863281 C 503.761719 350.578125 503.925781 350.558594 504.484375 353.199219 C 504.816406 354.75 504.105469 357.433594 502.847656 359.402344 C 501.628906 361.3125 500.9375 363.480469 501.304688 364.21875 C 501.675781 364.957031 500.503906 366.5 498.703125 367.648438 C 495.363281 369.777344 493.046875 376.785156 495.679688 376.785156 C 498.050781 376.785156 503.277344 368.386719 502.675781 365.550781 C 502.367188 364.09375 502.515625 362.601562 503.007812 362.226562 C 505.042969 360.675781 504.917969 367.265625 502.847656 370.507812 C 501.628906 372.417969 500.9375 374.585938 501.304688 375.324219 C 501.675781 376.0625 500.503906 377.605469 498.703125 378.753906 C 495.386719 380.867188 493.042969 387.886719 495.65625 387.886719 C 498.214844 387.886719 503.359375 379.867188 502.722656 376.863281 C 502.390625 375.296875 502.515625 373.703125 503.007812 373.332031 C 504.378906 372.285156 505.121094 377.488281 503.960938 380.039062 C 503.34375 381.402344 503.347656 383.269531 503.976562 384.746094 C 505.117188 387.425781 503.960938 392.570312 501.863281 394.167969 C 500.960938 394.851562 501.570312 396.199219 503.753906 398.34375 C 506.910156 401.445312 506.972656 401.773438 506.972656 415.46875 C 506.972656 426.914062 507.328125 429.867188 508.941406 431.859375 C 510.757812 434.097656 510.914062 434.105469 510.914062 431.960938 C 510.914062 429.617188 514.070312 426.753906 516.65625 426.753906 C 517.417969 426.753906 522.179688 432.007812 527.234375 438.425781 C 532.324219 444.886719 537.648438 450.378906 539.15625 450.730469 C 540.65625 451.078125 542.277344 451.449219 542.761719 451.550781 C 543.246094 451.65625 545.527344 450.773438 547.828125 449.59375 Z M 493.460938 394.222656 C 493.460938 390.53125 487.613281 386.59375 480.617188 385.574219 C 474.972656 384.746094 474.878906 384.792969 474.878906 388.464844 C 474.878906 391.503906 475.769531 392.699219 479.664062 394.910156 C 485.929688 398.457031 493.460938 398.082031 493.460938 394.222656 Z M 493.460938 394.222656 "/>
<path style=" stroke:none;fill-rule:nonzero;fill:rgb(100%,74.509805%,16.078432%);fill-opacity:1;" d="M 499.871094 393.882812 C 502.722656 390.511719 504.074219 386.507812 502.355469 386.507812 C 500.382812 386.507812 495.144531 392.625 495.144531 394.929688 C 495.144531 398.527344 496.117188 398.3125 499.871094 393.882812 Z M 493.789062 382.96875 C 494.03125 380.886719 493.042969 379.5 490.078125 377.753906 C 483.679688 373.996094 476.035156 372.253906 474.191406 374.136719 C 470.800781 377.609375 473.058594 382.269531 478.542969 383.105469 C 480.75 383.445312 483.742188 384.320312 485.191406 385.054688 C 489.40625 387.183594 493.414062 386.214844 493.789062 382.96875 Z M 493.789062 371.820312 C 494.136719 368.851562 492.675781 367.789062 480.765625 362.332031 C 471.875 358.257812 467.9375 360.179688 470.777344 367.207031 C 471.769531 369.652344 473.429688 370.769531 477.15625 371.496094 C 479.929688 372.039062 483.714844 373.09375 485.574219 373.84375 C 490.539062 375.851562 493.40625 375.144531 493.789062 371.820312 Z M 499.757812 361.375 C 501.554688 359.003906 503.023438 356.203125 503.023438 355.15625 C 503.023438 351.753906 495.925781 357.773438 495.023438 361.941406 C 493.9375 366.945312 495.695312 366.730469 499.757812 361.375 Z M 493.789062 360.671875 C 494.183594 357.289062 489.859375 354.234375 481.359375 351.886719 C 475.125 350.164062 472.375 351.140625 472.839844 354.914062 C 473.097656 356.972656 475.171875 358.476562 481.066406 360.871094 C 490.496094 364.699219 493.328125 364.65625 493.789062 360.671875 Z M 502.105469 344.929688 C 512.996094 338.617188 513.9375 322.703125 503.667969 318.527344 C 499.402344 316.789062 496.679688 317.726562 495.046875 321.484375 C 493.796875 324.363281 494.632812 329.597656 496.34375 329.597656 C 496.921875 329.597656 497.394531 330.566406 497.394531 331.75 C 497.394531 337.277344 480.765625 339.78125 473.945312 335.28125 C 471.550781 333.699219 470.507812 329.597656 472.5 329.597656 C 473.992188 329.597656 475.019531 325.417969 474.257812 322.460938 C 473.222656 318.433594 470.101562 317.035156 465.578125 318.578125 C 455.367188 322.050781 455.65625 337.664062 466.050781 344.292969 C 474.574219 349.726562 493.257812 350.054688 502.105469 344.929688 Z M 502.105469 344.929688 "/>
<path style=" stroke:none;fill-rule:nonzero;fill:rgb(100%,74.509805%,16.078432%);fill-opacity:1;" d="M 495.332031 332.691406 C 495.960938 331.914062 495.6875 330.71875 494.628906 329.636719 C 492.3125 327.269531 492.4375 323.746094 494.976562 319.710938 C 496.882812 316.683594 497.121094 312.152344 497.777344 266.429688 C 498.910156 187.640625 503.414062 128.375 509.34375 114.160156 C 511.707031 108.5 511.375 108.476562 505.273438 113.882812 C 497.410156 120.847656 491.421875 129.914062 486.117188 142.890625 C 476.105469 167.398438 472.625 200.371094 472.625 270.75 C 472.625 310.710938 472.832031 315.9375 474.582031 319.695312 C 476.242188 323.265625 476.332031 324.582031 475.164062 328.390625 C 474.40625 330.863281 474.066406 333.222656 474.402344 333.636719 C 476.636719 336.394531 492.925781 335.664062 495.332031 332.699219 Z M 586.839844 257.558594 C 587.179688 256.878906 586.425781 253.441406 585.164062 249.925781 C 583.195312 244.4375 582.402344 243.527344 579.597656 243.527344 C 570.816406 243.527344 556.691406 238.417969 542.132812 229.972656 C 533.726562 225.09375 530.824219 223.972656 529.816406 225.214844 C 527.242188 228.386719 531.515625 235.914062 538.136719 239.871094 C 544.011719 243.378906 560.429688 247.691406 567.921875 247.691406 C 572.265625 247.691406 572.367188 247.945312 569.894531 252.597656 L 568.078125 256.019531 L 572.992188 256.183594 C 575.695312 256.273438 579.425781 256.824219 581.285156 257.40625 C 586.113281 258.921875 586.15625 258.921875 586.839844 257.558594 Z M 586.839844 257.558594 "/>
<path style=" stroke:none;fill-rule:nonzero;fill:rgb(0%,0%,0%);fill-opacity:1;" d="M 638.15625 293.066406 C 638.15625 291.027344 633.5625 285.511719 628.90625 281.953125 C 625.25 279.160156 624.644531 279.078125 624.636719 281.355469 C 624.625 284.8125 622.261719 293.5 621.332031 293.5 C 620.8125 293.5 620.039062 291.800781 619.613281 289.726562 C 619.191406 287.652344 617.417969 283.5625 615.675781 280.640625 L 612.503906 275.324219 L 610.035156 280.25 C 607.734375 284.839844 603.746094 289.335938 601.976562 289.335938 C 601.554688 289.335938 601.472656 286.917969 601.792969 283.960938 C 602.144531 280.753906 601.875 278.207031 601.125 277.636719 C 600.433594 277.109375 599.867188 277.292969 599.867188 278.042969 C 599.867188 279.773438 594.332031 287.945312 593.160156 287.945312 C 592.675781 287.945312 592 285.605469 591.660156 282.742188 C 591.316406 279.878906 590.730469 275.351562 590.363281 272.679688 C 589.992188 270.007812 590.78125 271.820312 592.113281 276.707031 L 594.539062 285.589844 L 597.199219 280.175781 C 598.660156 277.199219 599.859375 273.945312 599.863281 272.941406 C 599.863281 271.945312 600.359375 271.5 600.960938 271.960938 C 601.5625 272.417969 602.402344 275.996094 602.824219 279.914062 L 603.589844 287.035156 L 606.515625 282.863281 C 608.125 280.566406 610.011719 277.492188 610.703125 276.03125 C 611.945312 273.421875 612.015625 273.425781 614.484375 276.148438 C 615.867188 277.675781 617.996094 281.328125 619.210938 284.265625 C 620.425781 287.203125 621.585938 289.386719 621.785156 289.121094 C 621.980469 288.859375 622.425781 285.832031 622.773438 282.394531 C 623.121094 278.960938 623.429688 276.023438 623.460938 275.867188 C 623.632812 275.015625 632.273438 282.324219 635.46875 286.027344 C 637.527344 288.40625 639.476562 290.019531 639.808594 289.613281 C 640.136719 289.207031 640.410156 285.695312 640.410156 281.8125 C 640.410156 275.792969 639.917969 274.179688 637.089844 270.890625 C 633.839844 267.109375 633.746094 267.085938 632.546875 269.855469 C 630.988281 273.445312 629.148438 273.5 629.148438 269.949219 C 629.148438 267.363281 623.003906 257.410156 621.40625 257.410156 C 620.988281 257.410156 619.695312 259.597656 618.527344 262.269531 C 617.359375 264.9375 616.105469 267.125 615.738281 267.121094 C 614.164062 267.109375 605.5 254.539062 605.503906 252.269531 C 605.503906 250.464844 606.089844 250.925781 607.605469 253.9375 C 608.761719 256.230469 611.066406 259.648438 612.726562 261.535156 C 616.097656 265.363281 617.320312 264.429688 618.621094 257.0625 C 618.992188 254.964844 619.636719 253.246094 620.050781 253.246094 C 621.492188 253.246094 629.03125 263.667969 630.09375 267.125 L 631.15625 270.597656 L 631.964844 266.777344 C 632.949219 262.109375 634.039062 261.9375 635.613281 266.195312 C 636.269531 267.976562 639.519531 271.675781 642.832031 274.417969 L 648.855469 279.402344 L 650.0625 274.390625 C 650.726562 271.632812 651.609375 270.046875 652.019531 270.867188 C 652.632812 272.089844 651.070312 280.402344 649.886719 282.1875 C 649.710938 282.457031 647.757812 280.976562 645.550781 278.898438 L 641.535156 275.125 L 641.519531 281.882812 C 641.507812 285.597656 641.199219 290.046875 640.824219 291.761719 C 640.09375 295.125 638.15625 296.066406 638.15625 293.066406 Z M 608.128906 239.1875 C 600.96875 231.410156 599.882812 229.628906 600.042969 225.941406 L 600.210938 222.019531 L 600.675781 225.808594 C 600.949219 228.023438 602.855469 231.339844 605.257812 233.78125 L 609.375 237.960938 L 611.902344 234.15625 C 613.292969 232.0625 614.449219 229.566406 614.472656 228.613281 C 614.53125 226.125 614.871094 226.332031 619.71875 231.804688 C 624.027344 236.667969 624.09375 236.691406 624.734375 233.542969 C 625.089844 231.785156 624.964844 228.476562 624.453125 226.191406 C 623.042969 219.910156 623.320312 218.960938 625.453125 222.753906 C 626.515625 224.640625 628.222656 227.308594 629.246094 228.679688 C 631.03125 231.074219 631.140625 231.042969 631.804688 227.988281 C 632.1875 226.230469 632.507812 223.019531 632.515625 220.847656 L 632.53125 216.898438 L 636.414062 222.625 C 640.039062 227.976562 640.371094 228.171875 641.480469 225.625 C 642.132812 224.125 642.671875 220.511719 642.683594 217.601562 C 642.695312 213.835938 643 212.886719 643.734375 214.320312 C 644.960938 216.710938 644.109375 223.226562 641.84375 228.777344 L 640.214844 232.761719 L 638.078125 228.433594 C 635.347656 222.894531 634.4375 222.984375 632.683594 228.960938 C 631.027344 234.605469 629.949219 235.039062 628.335938 230.695312 C 627.289062 227.882812 627.09375 228.226562 626.351562 234.132812 L 625.527344 240.695312 L 620.585938 235.707031 L 615.648438 230.71875 L 613.429688 234.003906 C 612.207031 235.808594 611.191406 238.070312 611.171875 239.023438 C 611.125 241.089844 609.941406 241.15625 608.128906 239.1875 Z M 671.800781 210.210938 C 669.195312 207.15625 667.402344 204.242188 667.8125 203.734375 C 668.226562 203.226562 668.6875 203.082031 668.84375 203.410156 C 668.996094 203.742188 671.128906 206.65625 673.574219 209.890625 C 679.214844 217.332031 678.054688 217.542969 671.800781 210.210938 Z M 586.988281 198.800781 C 584.617188 194.632812 584.78125 191.867188 587.664062 187.347656 C 589.75 184.082031 590.703125 183.636719 594.34375 184.238281 C 596.679688 184.625 601.703125 187.308594 605.511719 190.207031 C 609.90625 193.550781 614.453125 195.792969 617.976562 196.347656 C 621.027344 196.832031 623.519531 197.011719 623.519531 196.753906 C 623.519531 196.492188 622.253906 193.804688 620.707031 190.785156 C 617.03125 183.601562 617.15625 182.832031 621.304688 187.132812 C 625.558594 191.550781 630.652344 192.839844 642.03125 192.390625 L 647.589844 192.171875 L 644.363281 188.023438 C 639.855469 182.21875 641.242188 181.699219 646.222656 187.324219 C 650.894531 192.601562 650.601562 192.972656 640.769531 194.25 C 636.589844 194.792969 632.097656 194.402344 628.363281 193.164062 C 622.773438 191.3125 622.558594 191.34375 623.617188 193.78125 C 624.226562 195.1875 625.214844 196.335938 625.8125 196.335938 C 626.410156 196.335938 626.898438 197.046875 626.898438 197.917969 C 626.898438 200.59375 614.828125 198.238281 609.0625 194.4375 C 595.886719 185.757812 594.226562 185.003906 591.09375 186.289062 C 589.347656 187.007812 587.601562 189.101562 587 191.199219 C 584.988281 198.203125 592.621094 203.648438 595.769531 197.457031 C 596.679688 195.664062 596.46875 194.4375 594.863281 192.253906 C 592.667969 189.261719 592.875 188.835938 595.839844 190.238281 C 597.941406 191.234375 598.226562 197.808594 596.269531 200.222656 C 594.027344 202.984375 588.917969 202.203125 586.988281 198.800781 Z M 586.988281 198.800781 "/>
<path style=" stroke:none;fill-rule:nonzero;fill:rgb(0%,0%,0%);fill-opacity:1;" d="M 638.886719 181.507812 C 637.238281 179.476562 638.53125 178.980469 645.917969 178.800781 C 655.054688 178.578125 660.605469 176.597656 667.152344 171.214844 C 672.398438 166.902344 673.824219 167.753906 668.84375 172.222656 C 664.300781 176.300781 657.214844 179.433594 650.371094 180.394531 C 647.058594 180.859375 643.285156 181.5 641.984375 181.824219 C 640.679688 182.144531 639.289062 182.003906 638.886719 181.507812 Z M 638.886719 181.507812 "/>
<path style="fill-rule:nonzero;fill:rgb(100%,74.509805%,16.078432%);fill-opacity:1;stroke-width:2.094;stroke-linecap:butt;stroke-linejoin:miter;stroke:rgb(0%,0%,0%);stroke-opacity:1;stroke-miterlimit:4;" d="M 1065.796875 449.328851 C 1065.796875 449.328851 1072.410938 463.124297 1079.71875 468.746486 C 1090.546875 477.074353 1112.746875 476.473482 1122.16875 486.189327 C 1133.460938 497.651565 1121.292187 512.789308 1121.395313 514.103495 L 1122.014062 522.097545 C 1122.014062 522.097545 1114.401562 522.192419 1111.195312 522.70193 C 1106.376562 523.471467 1104.496875 527.491332 1095.520313 526.893975 C 1072.959375 525.393553 1073.86875 504.570371 1072.59375 486.772629 C 1071.459375 479.994378 1068.839062 471.160513 1067.348438 464.385776 C 1066.06875 458.577352 1065.796875 449.328851 1065.796875 449.328851 Z M 1065.796875 449.328851 " transform="matrix(0.833333,0,0,1.111667,0,0)"/>
<path style="fill-rule:nonzero;fill:rgb(100%,74.509805%,16.078432%);fill-opacity:1;stroke-width:2.096;stroke-linecap:butt;stroke-linejoin:miter;stroke:rgb(0%,0%,0%);stroke-opacity:1;stroke-miterlimit:4;" d="M 1065.75 150.773051 C 1065.75 150.773051 1072.36875 136.956522 1079.68125 131.327305 C 1090.51875 122.988896 1112.7375 123.589768 1122.164062 113.863381 C 1133.465625 102.390602 1121.2875 87.231775 1121.390625 85.914074 L 1122.009375 77.909483 C 1122.009375 77.909483 1114.392187 77.814608 1111.18125 77.301584 C 1106.357812 76.532046 1104.478125 72.508668 1095.496875 73.106025 C 1072.917187 74.609961 1073.83125 95.461254 1072.551563 113.280079 C 1071.417187 120.065358 1068.792187 128.913278 1067.301563 135.695043 C 1066.021875 141.510495 1065.75 150.773051 1065.75 150.773051 Z M 502.25625 150.783593 C 502.25625 150.783593 495.632812 136.967063 488.320312 131.337847 C 477.482812 122.995924 455.264062 123.600309 445.832812 113.866895 C 434.535937 102.394115 446.714063 87.231775 446.610937 85.917588 L 445.992188 77.909483 C 445.992188 77.909483 453.609375 77.818122 456.820312 77.305097 C 461.64375 76.532046 463.523438 72.508668 472.504687 73.106025 C 495.089062 74.609961 494.175 95.464768 495.454687 113.287106 C 496.589062 120.072386 499.214062 128.920305 500.704687 135.705585 C 501.979687 141.52455 502.25625 150.783593 502.25625 150.783593 Z M 502.25625 150.783593 " transform="matrix(0.833333,0,0,1.111667,0,0)"/>
</g>
</svg>
