<?xml version="1.0" encoding="UTF-8"?>
<svg xmlns="http://www.w3.org/2000/svg" xmlns:xlink="http://www.w3.org/1999/xlink" width="1000px" height="667px" viewBox="0 0 1000 667" version="1.1">
<g id="surface1">
<rect x="0" y="0" width="1000" height="667" style="fill:rgb(85.490197%,12.54902%,19.607843%);fill-opacity:1;stroke:none;"/>
<path style=" stroke:none;fill-rule:nonzero;fill:rgb(0%,40.000001%,70.19608%);fill-opacity:1;" d="M 333.332031 0 L 666.667969 0 L 666.667969 667 L 333.332031 667 Z M 333.332031 0 "/>
<path style=" stroke:none;fill-rule:nonzero;fill:rgb(100%,85.09804%,0%);fill-opacity:1;" d="M 75 300.148438 L 116.667969 300.148438 L 116.667969 566.949219 L 75 566.949219 Z M 216.667969 300.148438 L 258.332031 300.148438 L 258.332031 566.949219 L 216.667969 566.949219 Z M 125 533.601562 L 166.667969 566.949219 L 208.332031 533.601562 Z M 125 500.25 L 208.332031 500.25 L 208.332031 522.484375 L 125 522.484375 Z M 125 300.148438 L 166.667969 333.5 L 208.332031 300.148438 Z M 125 344.617188 L 208.332031 344.617188 L 208.332031 366.851562 L 125 366.851562 Z M 186.457031 384.695312 C 189.558594 390.316406 191.234375 397.109375 191.242188 404.085938 C 191.25 422.199219 180.246094 436.886719 166.667969 436.894531 C 155.851562 436.894531 147.085938 448.589844 147.085938 463.011719 C 147.085938 477.4375 155.851562 489.132812 166.667969 489.132812 C 189.675781 489.132812 208.332031 464.246094 208.332031 433.550781 C 208.332031 413.144531 199.917969 394.390625 186.457031 384.695312 Z M 166.667969 451.898438 C 171.269531 451.898438 175 456.875 175 463.011719 C 175 469.152344 171.269531 474.128906 166.667969 474.128906 C 162.0625 474.128906 158.332031 469.152344 158.332031 463.011719 C 158.332031 456.875 162.0625 451.898438 166.667969 451.898438 Z M 166.667969 451.898438 "/>
<path style=" stroke:none;fill-rule:nonzero;fill:rgb(100%,85.09804%,0%);fill-opacity:1;" d="M 146.875 482.402344 C 143.773438 476.785156 142.097656 469.992188 142.089844 463.011719 C 142.082031 444.898438 153.089844 430.210938 166.667969 430.207031 C 177.480469 430.207031 186.246094 418.511719 186.246094 404.085938 C 186.246094 389.660156 177.480469 377.96875 166.667969 377.964844 C 143.65625 377.964844 125 402.851562 125 433.550781 C 125 453.957031 133.414062 472.710938 146.875 482.402344 Z M 166.667969 415.203125 C 162.0625 415.203125 158.332031 410.226562 158.332031 404.085938 C 158.332031 397.945312 162.0625 392.96875 166.667969 392.96875 C 171.269531 392.96875 175 397.945312 175 404.085938 C 175 410.226562 171.269531 415.203125 166.667969 415.203125 Z M 120.917969 226.675781 C 120.886719 227.078125 120.859375 227.484375 120.832031 227.890625 C 120.832031 261.660156 141.351562 289.035156 166.667969 289.035156 C 191.980469 289.035156 212.5 261.660156 212.5 227.890625 C 212.503906 227.519531 212.503906 227.152344 212.5 226.78125 C 204.550781 251.074219 186.570312 266.78125 166.699219 266.796875 C 146.8125 266.753906 128.835938 251 120.914062 226.671875 Z M 120.917969 226.675781 "/>
<path style=" stroke:none;fill-rule:nonzero;fill:rgb(100%,85.09804%,0%);fill-opacity:1;" d="M 200.035156 211.214844 C 200.035156 235.773438 185.109375 255.683594 166.699219 255.683594 C 148.292969 255.683594 133.367188 235.773438 133.367188 211.214844 C 133.367188 186.65625 148.292969 166.75 166.699219 166.75 C 185.109375 166.75 200.035156 186.65625 200.035156 211.214844 Z M 200.035156 211.214844 "/>
<path style=" stroke:none;fill-rule:nonzero;fill:rgb(100%,85.09804%,0%);fill-opacity:1;" d="M 170.167969 66.714844 C 166.027344 69.222656 164.480469 73.742188 164.148438 78.242188 C 163.9375 82.035156 165.191406 86.304688 165.316406 90.011719 C 165.316406 96.390625 160.371094 98.492188 160.371094 107.597656 C 160.371094 110.726562 162.535156 114.175781 162.535156 122.296875 C 162.160156 126.558594 160.378906 127.523438 158.371094 127.855469 C 156.070312 127.855469 154.203125 125.367188 154.203125 122.296875 C 154.207031 120.871094 154.617188 119.503906 155.355469 118.472656 C 155.488281 118.273438 155.628906 118.089844 155.78125 117.917969 C 156.730469 116.640625 158.035156 116.144531 158.027344 112.769531 C 158.027344 111.035156 157.1875 109.457031 156.382812 106.386719 C 155.625 103.40625 156.171875 98.425781 157.976562 95.488281 C 155.0625 96.988281 153.265625 100.71875 152.347656 104.0625 C 151.378906 108.175781 152.222656 110.546875 150.898438 113.964844 C 150.089844 116.175781 149.125 117.09375 148.214844 118.9375 C 147.132812 120.949219 145.867188 125.65625 145.867188 127.839844 C 145.867188 143.191406 155.195312 155.632812 166.703125 155.632812 C 178.207031 155.632812 187.535156 143.191406 187.535156 127.839844 C 187.535156 125.65625 186.285156 120.949219 185.207031 118.9375 C 184.292969 117.09375 183.3125 116.175781 182.503906 113.964844 C 181.195312 110.546875 182.039062 108.175781 181.070312 104.0625 C 180.15625 100.71875 178.355469 96.988281 175.441406 95.488281 C 177.246094 98.425781 177.792969 103.40625 177.035156 106.386719 C 176.226562 109.457031 175.378906 111.035156 175.378906 112.769531 C 175.378906 116.144531 176.671875 116.640625 177.625 117.917969 C 177.773438 118.089844 177.917969 118.273438 178.046875 118.472656 C 178.785156 119.503906 179.199219 120.871094 179.203125 122.296875 C 179.203125 125.367188 177.335938 127.855469 175.035156 127.855469 C 172.730469 127.464844 171.078125 126.03125 170.871094 122.296875 C 170.871094 111.597656 174.304688 110.914062 174.304688 102.996094 C 174.304688 91.6875 166.703125 86.335938 166.703125 78.070312 C 166.703125 75.269531 167.195312 70.492188 170.167969 66.714844 Z M 170.167969 66.714844 "/>
</g>
</svg>
