<?xml version="1.0" encoding="UTF-8"?>
<svg xmlns="http://www.w3.org/2000/svg" xmlns:xlink="http://www.w3.org/1999/xlink" width="1000px" height="667px" viewBox="0 0 1000 667" version="1.1">
<defs>
<clipPath id="clip1">
  <path d="M 0 0 L 500 0 L 500 334 L 0 334 Z M 0 0 "/>
</clipPath>
<clipPath id="clip2">
  <path d="M 0 0 L 0 166.75 L 583.332031 166.75 L 583.332031 333.5 L 500 333.5 Z M 500 0 L 250 0 L 250 389.082031 L 0 389.082031 L 0 333.5 Z M 500 0 "/>
</clipPath>
<clipPath id="clip3">
  <path d="M 0 0 L 584 0 L 584 390 L 0 390 Z M 0 0 "/>
</clipPath>
<clipPath id="clip4">
  <path d="M 0 0 L 0 166.75 L 583.332031 166.75 L 583.332031 333.5 L 500 333.5 Z M 500 0 L 250 0 L 250 389.082031 L 0 389.082031 L 0 333.5 Z M 500 0 "/>
</clipPath>
</defs>
<g id="surface1">
<rect x="0" y="0" width="1000" height="667" style="fill:rgb(0.392157%,12.941177%,41.176471%);fill-opacity:1;stroke:none;"/>
<path style="fill-rule:nonzero;fill:rgb(0%,0%,0%);fill-opacity:1;stroke-width:60;stroke-linecap:butt;stroke-linejoin:miter;stroke:rgb(100%,100%,100%);stroke-opacity:1;stroke-miterlimit:4;" d="M 0 0 L 600 300 M 600 0 L 0 300 " transform="matrix(0.833333,0,0,1.111667,0,0)"/>
<g clip-path="url(#clip1)" clip-rule="nonzero">
<g clip-path="url(#clip2)" clip-rule="nonzero">
<path style=" stroke:none;fill-rule:nonzero;fill:rgb(0%,0%,0%);fill-opacity:1;" d="M 0 0 L 500 333.5 M 500 0 L 0 333.5 "/>
</g>
</g>
<g clip-path="url(#clip3)" clip-rule="nonzero">
<g clip-path="url(#clip4)" clip-rule="nonzero">
<path style="fill:none;stroke-width:40;stroke-linecap:butt;stroke-linejoin:miter;stroke:rgb(78.431374%,6.27451%,18.039216%);stroke-opacity:1;stroke-miterlimit:4;" d="M 0 0 L 600 300 M 600 0 L 0 300 " transform="matrix(0.833333,0,0,1.111667,0,0)"/>
</g>
</g>
<path style="fill-rule:nonzero;fill:rgb(0%,0%,0%);fill-opacity:1;stroke-width:100;stroke-linecap:butt;stroke-linejoin:miter;stroke:rgb(100%,100%,100%);stroke-opacity:1;stroke-miterlimit:4;" d="M 300 0 L 300 349.998829 M 0 150 L 699.998438 150 " transform="matrix(0.833333,0,0,1.111667,0,0)"/>
<path style="fill-rule:nonzero;fill:rgb(0%,0%,0%);fill-opacity:1;stroke-width:60;stroke-linecap:butt;stroke-linejoin:miter;stroke:rgb(78.431374%,6.27451%,18.039216%);stroke-opacity:1;stroke-miterlimit:4;" d="M 300 0 L 300 349.998829 M 0 150 L 699.998438 150 " transform="matrix(0.833333,0,0,1.111667,0,0)"/>
<path style=" stroke:none;fill-rule:nonzero;fill:rgb(0.392157%,12.941177%,41.176471%);fill-opacity:1;" d="M 0 333.5 L 500 333.5 L 500 0 L 1000 0 L 1000 667 L 0 667 Z M 0 333.5 "/>
<path style=" stroke:none;fill-rule:nonzero;fill:rgb(100%,100%,100%);fill-opacity:1;" d="M 641.222656 164 L 855.289062 164 L 855.03125 367.199219 C 856.8125 448.882812 818.648438 499.570312 748.421875 522.425781 C 698.5625 505.90625 641.058594 471.738281 640.972656 369.515625 L 641.226562 164 Z M 641.222656 164 "/>
<path style="fill-rule:nonzero;fill:rgb(0%,63.529414%,74.117649%);fill-opacity:1;stroke-width:1.813;stroke-linecap:butt;stroke-linejoin:miter;stroke:rgb(0%,0%,0%);stroke-opacity:1;stroke-miterlimit:4;" d="M 775.153125 153.035982 L 1020.646875 153.035982 L 1020.35625 328.191763 C 1022.395312 398.602652 978.628125 442.294087 898.092188 461.992832 C 840.904688 447.754638 774.960938 418.301396 774.8625 330.187641 Z M 775.153125 153.035982 " transform="matrix(0.833333,0,0,1.111667,0,0)"/>
<path style=" stroke:none;fill-rule:nonzero;fill:rgb(64.705884%,23.921569%,3.137255%);fill-opacity:1;" d="M 848.949219 387.902344 C 841.507812 462.617188 798.375 495.261719 748.402344 512.589844 C 704.175781 496.761719 656.59375 471.492188 647.367188 388.277344 L 848.953125 387.902344 Z M 848.949219 387.902344 "/>
<path style=" stroke:none;fill-rule:nonzero;fill:rgb(0%,0%,0%);fill-opacity:1;" d="M 740.304688 206.394531 L 740.019531 181.855469 L 754.566406 182.046875 L 754.707031 206.394531 L 794.496094 206.394531 L 794.636719 225.421875 L 754.707031 225.609375 L 754.386719 449.960938 L 740.199219 450.082031 L 740.019531 225.421875 L 700.367188 225.609375 L 700.375 206.207031 Z M 740.304688 206.394531 "/>
<path style="fill-rule:evenodd;fill:rgb(100%,60.392159%,3.137255%);fill-opacity:1;stroke-width:0.968;stroke-linecap:butt;stroke-linejoin:miter;stroke:rgb(0%,0%,0%);stroke-opacity:1;stroke-miterlimit:4;" d="M 849.7125 357.265508 L 893.41875 402.604948 C 908.53125 385.994893 898.045313 323.908358 878.170313 312.474232 C 875.789062 319.825244 871.734375 328.641539 867.43125 331.484258 C 857.953125 337.939234 834.735937 345.490536 842.498438 350.322105 C 844.270312 347.872939 848.896875 345.557299 851.076563 351.003795 C 853.664062 359.581147 841.410937 360.125796 841.410937 360.125796 C 841.410937 360.125796 833.648438 359.173538 832.289062 351.274363 C 830.925 343.378701 843.84375 336.171758 844.95 335.620081 C 846.0375 335.208958 862.921875 330.718235 865.78125 315.742129 C 869.320312 301.036591 872.995312 303.215189 873.675 302.944621 C 895.729687 305.119706 910.1625 344.605041 910.982813 372.378654 C 911.798437 400.152268 899.68125 418.533311 897.501562 419.759651 C 895.321875 420.982478 844.95 359.988756 844.95 359.988756 Z M 849.7125 357.265508 " transform="matrix(0.833333,0,0,1.111667,0,0)"/>
<path style="fill-rule:nonzero;fill:rgb(100%,60.392159%,3.137255%);fill-opacity:1;stroke-width:0.968;stroke-linecap:butt;stroke-linejoin:miter;stroke:rgb(0%,0%,0%);stroke-opacity:1;stroke-miterlimit:4;" d="M 881.573437 315.060439 L 881.845312 396.88437 M 876.670313 316.557346 L 876.942187 390.896739 M 871.364062 327.313296 L 871.63125 386.402502 M 867.004687 331.533452 L 867.276562 380.411357 M 862.378125 333.71205 L 862.378125 374.964861 M 857.339062 336.979948 L 857.339062 369.655407 M 852.979687 339.569668 L 852.979687 364.61652 " transform="matrix(0.833333,0,0,1.111667,0,0)"/>
<path style="fill:none;stroke-width:0.968;stroke-linecap:round;stroke-linejoin:miter;stroke:rgb(100%,87.450981%,0%);stroke-opacity:1;stroke-miterlimit:4;" d="M 849.032812 362.441436 L 894.098437 414.042588 " transform="matrix(0.833333,0,0,1.111667,0,0)"/>
<path style="fill:none;stroke-width:1.813;stroke-linecap:round;stroke-linejoin:miter;stroke:rgb(100%,87.450981%,0%);stroke-opacity:1;stroke-miterlimit:4;" d="M 896.278125 329.899503 C 896.278125 329.899503 916.701563 374.557253 897.773438 411.31934 M 843.721875 353.045352 C 843.721875 353.045352 845.221875 349.099278 847.125 350.733227 M 840.182812 341.611226 C 840.182812 341.611226 832.017187 348.825197 836.507812 353.456475 " transform="matrix(0.833333,0,0,1.111667,0,0)"/>
<path style="fill-rule:nonzero;fill:rgb(0%,50.196081%,12.941177%);fill-opacity:1;stroke-width:0.399;stroke-linecap:butt;stroke-linejoin:miter;stroke:rgb(0%,0%,0%);stroke-opacity:1;stroke-miterlimit:4;" d="M 905.779688 228.04301 C 908.803125 225.449775 910.373438 223.861507 912.248438 224.153158 C 914.11875 224.441295 916.673437 224.293713 918.54375 223.717438 C 920.423437 223.141164 929.723437 221.988615 933.54375 223.285232 C 934.842187 223.429301 936.571875 224.153158 939.234375 226.384464 C 941.90625 228.619284 945.796875 232.51265 944.503125 243.328336 C 943.204687 254.140508 943.626562 258.768272 943.059375 264.812125 C 942.051562 275.480229 939.684375 284.268413 935.41875 283.555097 C 941.184375 293.646927 941.760937 302.29807 945.50625 309.22039 C 949.260937 316.14271 951.567187 330.271973 950.123437 345.553786 C 948.684375 360.839112 944.648438 395.155547 956.75625 418.224091 C 954.735937 419.664777 949.8375 418.224091 945.50625 413.610382 C 941.184375 408.996674 939.285937 409.14777 935.704687 411.881559 C 924.75 420.244565 914.489062 430.322339 899.371875 420.244565 C 895.9125 417.935954 894.815625 415.17054 897.35625 408.132262 C 903.698437 390.541838 906.778125 366.405079 905.779688 355.06934 Z M 905.779688 228.04301 " transform="matrix(0.833333,0,0,1.111667,0,0)"/>
<path style="fill-rule:nonzero;fill:rgb(100%,88.235295%,81.176472%);fill-opacity:1;stroke-width:0.399;stroke-linecap:butt;stroke-linejoin:miter;stroke:rgb(0%,0%,0%);stroke-opacity:1;stroke-miterlimit:4;" d="M 916.171875 217.230838 C 916.964062 219.680004 917.395312 222.853027 916.096875 225.734398 C 914.798437 228.619284 914.5125 232.080444 916.66875 236.261947 C 920.132812 231.360101 925.035937 232.368581 927.91875 229.48721 C 930.80625 226.602324 931.378125 223.861507 933.54375 223.285232 C 931.378125 221.412341 928.064062 219.391867 928.785937 213.913746 C 929.507812 208.435626 937.14375 203.965986 930.229687 195.60298 C 925.757812 190.202165 919.265625 191.709614 916.457812 193.800365 C 915.13125 194.780735 914.00625 196.179254 913.575 197.117457 C 913.139063 198.052146 913.682812 200.185064 912.632812 201.443028 C 911.873438 202.363662 911.001562 203.189421 910.035937 203.892195 C 909.39375 204.363053 908.985937 205.044743 909.679688 205.838877 C 909.95625 206.158639 910.4625 206.225403 911.020312 206.418666 C 910.696875 207.065217 910.33125 207.711769 909.970312 208.182627 C 909.628125 208.621861 909.773438 209.043525 910.185938 209.398426 C 909.6375 211.130763 910.692187 211.316998 909.970312 212.617129 C 909.342188 213.738053 908.49375 215.066295 910.832812 216.366426 C 911.479687 216.724841 914.55 217.438156 916.171875 217.230838 Z M 888.126562 245.92157 C 884.085938 246.933564 877.603125 245.204741 872.695312 245.777502 C 870.529688 246.034014 868.804688 244.91309 869.095312 242.752061 C 869.38125 240.587519 869.671875 237.270427 869.235937 234.244987 C 868.560938 229.525862 870.820312 222.997095 873.99375 215.786638 C 877.1625 208.579695 878.751562 204.54226 878.751562 201.154891 C 878.751562 198.920071 878.967188 196.3936 880.9875 195.096983 C 882.478125 194.137697 882.764063 193.206522 883.298437 192.429957 C 884.517187 190.627343 885.670313 190.195137 885.815625 191.277408 C 885.904688 191.920446 885.670313 192.503748 885.09375 193.36816 C 886.392187 192.285888 888.595312 191.02441 889.092188 190.662481 C 889.603125 190.304067 892.1625 188.501452 892.303125 190.195137 C 893.315625 189.692654 894 189.724278 894.253125 190.265414 C 894.525 190.85223 894.360937 191.098201 893.854687 191.530407 C 894.576563 191.386338 895.40625 192.647817 893.9625 193.765227 C 894.721875 193.512228 895.471875 194.773707 894.145312 195.926256 C 892.767187 197.117457 891.1875 197.94673 890.68125 198.881419 C 890.175 199.819621 886.753125 202.451509 885.384375 203.027783 C 884.010937 203.604057 883.940625 204.394678 883.940625 206.415152 C 883.940625 228.619284 881.278125 226.81667 881.278125 232.154235 C 881.278125 233.594921 880.9875 234.891539 882.43125 234.459333 C 883.875 234.027127 885.960938 233.380575 888.126562 233.380575 Z M 888.989062 293.790995 C 895.504687 290.533639 902.976562 289.321355 906.867188 288.312875 C 910.757812 287.304395 916.964062 284.27544 919.9875 282.690686 C 923.020312 281.102418 925.467187 278.941389 927.196875 278.365114 C 928.93125 277.78884 930.867188 276.594125 931.954687 274.471749 C 937.575 263.515508 940.607812 254.720296 940.607812 247.077633 C 940.607812 242.031719 939.309375 236.406016 934.40625 240.44345 C 929.798437 244.238428 924.778125 251.554301 923.451562 256.881325 C 921.43125 264.956194 919.701563 266.685017 919.265625 268.269771 C 918.834375 269.85804 917.203125 269.854526 915.229687 270.290246 C 906.721875 272.166651 904.701563 273.459754 898.359375 278.221046 C 892.017187 282.978823 885.09375 287.160326 880.48125 289.753561 C 875.86875 292.350309 875.00625 292.638446 873.99375 294.729198 C 872.985937 296.819949 872.048437 298.404704 871.18125 299.342907 C 870.314062 300.281109 870.070312 301.377436 870.24375 302.51593 C 870.39375 303.454132 869.953125 307.779704 869.8875 309.22039 C 869.807812 310.661076 870.16875 311.023004 870.75 311.093281 C 871.326563 311.167073 872.11875 310.878936 872.409375 309.146599 C 872.11875 310.878936 874.5 310.302661 874.645312 309.00253 C 874.570312 310.878936 877.096875 309.796664 877.242188 308.067841 C 877.242188 309.290667 879.15 308.443825 879.328125 307.849981 C 879.759375 306.409295 880.120312 304.824541 880.696875 303.668478 C 881.535937 301.995877 882.435938 299.82782 884.085938 298.622564 C 885.960938 297.252155 885.09375 295.737678 888.989062 293.790995 Z M 935.704687 411.881559 C 936.140625 413.466314 936.932812 415.268928 937.214062 416.351199 C 937.504687 417.429957 936.998437 417.767288 936.717187 418.36816 C 935.203125 421.541183 933.576562 426.597639 933.323437 429.327914 C 933.182812 430.912669 932.1 432.427146 931.59375 433.365349 C 931.035937 434.398426 931.25625 435.196074 932.53125 436.176443 C 933.145312 436.643787 935.128125 436.032374 935.34375 435.02038 C 936.065625 435.740723 937.364062 435.4561 937.935937 434.370315 C 938.5875 435.02038 939.670312 434.588175 940.392187 433.509417 C 941.039062 433.941623 941.976562 433.073698 942.3375 432.497423 C 943.35 433.00342 944.432812 432.392007 944.460938 430.406672 C 944.470312 430.009605 944.714062 429.327914 945.004687 428.857056 C 945.290625 428.389711 945.398438 427.486647 945.365625 426.696027 C 945.328125 425.901893 945.839062 424.317138 946.51875 423.199728 C 947.203125 422.082318 948.39375 420.100497 947.8875 418.224091 C 947.41875 416.477699 946.664062 416.639337 946.0125 414.116379 C 944.432812 412.457834 942.267187 410.149222 940.03125 410.005154 C 937.8 409.861085 936.501562 411.375562 935.704687 411.881559 Z M 894.684375 424.278486 C 896.7 426.29896 901.246875 426.369237 904.415625 422.981868 C 903.267187 422.475871 900.740625 421.323323 899.5875 420.388634 C 897.998438 421.973388 896.19375 423.776003 894.684375 424.278486 Z M 894.684375 424.278486 " transform="matrix(0.833333,0,0,1.111667,0,0)"/>
<path style="fill-rule:nonzero;fill:rgb(52.941179%,5.882353%,0%);fill-opacity:1;stroke-width:0.399;stroke-linecap:butt;stroke-linejoin:miter;stroke:rgb(0%,0%,0%);stroke-opacity:1;stroke-miterlimit:4;" d="M 915.089062 195.026705 C 915.88125 189.907 919.504687 190.026471 921.792187 190.557065 C 922.729687 190.771411 925.040625 190.989271 927.196875 190.412997 C 931.476562 189.27099 934.696875 190.771411 934.265625 194.882637 C 935.41875 195.747048 936.642187 197.764009 936.426562 199.496346 C 936.210938 201.225169 936.571875 201.945512 938.160937 202.163371 C 939.740625 202.381231 943.134375 204.3244 940.89375 207.065217 C 943.059375 208.365349 944.714062 211.678926 943.565625 213.913746 C 942.4125 216.148566 938.948437 216.510495 937.504687 214.490021 C 935.925 215.210364 933.323437 215.354432 931.739062 213.6994 C 930.660937 214.996018 927.91875 214.851949 927.4125 213.6994 C 926.910937 212.543338 926.057812 211.928411 925.040625 211.608649 C 923.878125 211.24672 923.8125 208.073698 925.5375 207.715283 C 925.321875 206.77708 925.396875 205.694809 925.828125 205.192326 C 926.259375 204.686329 925.898438 203.75164 924.895312 202.957506 C 923.878125 202.163371 923.020312 199.134417 924.028125 197.475871 C 922.298437 198.05566 918.478125 196.397114 917.685938 195.241051 C 916.889063 194.088503 915.810938 194.018225 915.089062 195.026705 Z M 915.089062 195.026705 " transform="matrix(0.833333,0,0,1.111667,0,0)"/>
<path style="fill:none;stroke-width:0.399;stroke-linecap:butt;stroke-linejoin:miter;stroke:rgb(0%,0%,0%);stroke-opacity:1;stroke-miterlimit:4;" d="M 916.171875 217.230838 C 918.979687 216.868909 919.917187 215.140086 922.007812 215.284155 M 910.185938 209.40194 C 910.36875 209.563578 910.603125 209.693591 910.870312 209.841173 C 911.4375 210.150394 912.05625 210.185532 912.632812 210.25581 M 911.020312 206.418666 C 911.409375 206.552193 911.83125 206.752483 912.201563 207.135495 M 917.535937 195.026705 C 915.88125 193.438437 920.348437 190.195137 925.035937 194.808846 C 925.9125 195.669743 928.134375 195.673257 928.785937 195.458911 M 924.028125 197.475871 C 926.189062 196.973388 929.432812 196.973388 930.370312 199.422554 C 931.3125 201.875234 933.182812 200.286966 934.696875 203.171852 C 936.210938 206.056737 938.592187 209.300037 940.89375 207.065217 M 931.739062 213.6994 C 931.0875 212.831475 930.80625 210.958583 931.232812 209.658452 C 930.370312 208.649972 930.726562 206.55922 931.232812 205.55074 M 925.5375 207.715283 C 925.617188 208.579695 926.765625 210.164449 928.570312 210.452586 M 937.504687 214.490021 C 936.501562 213.193403 936.642187 212.040855 936.8625 210.452586 " transform="matrix(0.833333,0,0,1.111667,0,0)"/>
<path style="fill:none;stroke-width:0.399;stroke-linecap:butt;stroke-linejoin:miter;stroke:rgb(0%,0%,0%);stroke-opacity:1;stroke-miterlimit:4;" d="M 926.98125 200.146411 C 926.910937 201.443028 927.703125 203.171852 929.071875 203.748126 C 929.3625 204.468469 930.80625 206.488943 933.684375 206.200806 M 934.265625 194.882637 C 932.685937 193.652783 930.539062 192.14182 927.703125 191.765836 M 916.66875 236.261947 C 914.221875 239.579039 912.632812 244.192747 913.790625 250.679348 C 914.94375 257.169462 916.81875 266.685017 912.05625 271.010588 M 935.41875 283.555097 C 932.1 282.834754 927.342187 282.834754 924.745312 284.707646 C 922.153125 286.584052 917.821875 286.72812 914.94375 285.283921 " transform="matrix(0.833333,0,0,1.111667,0,0)"/>
<path style="fill:none;stroke-width:0.399;stroke-linecap:butt;stroke-linejoin:miter;stroke:rgb(0%,0%,0%);stroke-opacity:1;stroke-miterlimit:4;" d="M 928.425 283.340751 C 925.5375 283.843235 924.173437 285.863709 924.173437 291.19776 C 924.173437 296.531812 923.020312 304.318544 924.028125 311.957693 M 923.160937 285.575572 C 921.285937 286.078055 919.340625 286.148332 919.701563 291.19776 M 913.429688 291.341829 C 913.5 288.242597 914.582812 285.357712 916.603125 285.860195 M 934.190625 291.918103 C 934.335938 285.069575 932.821875 283.122892 930.80625 283.196683 C 933.54375 283.26696 935.414062 283.600778 936.571875 294.802989 C 937.439062 303.162481 939.182812 306.124672 941.184375 312.68155 C 946.373437 329.695699 943.78125 355.937266 946.373437 365.164683 M 930.229687 293.935064 C 935.704687 309.796664 938.5875 327.387088 929.653125 355.645615 C 935.7 372.371627 941.760937 384.48393 942.914062 391.40625 M 912.923437 331.424522 C 913.93125 327.819293 910.33125 327.387088 913.5 314.69851 C 914.873438 309.20282 915.089062 305.903298 914.221875 304.174475 M 914.221875 311.67307 C 912.923437 317.295259 918.407812 327.819293 915.665625 335.461957 M 908.8875 336.902642 C 908.8875 341.804488 910.035937 348.150534 909.754687 353.05238 C 909.464062 357.954226 911.460938 360.227699 913.790625 364.876546 C 922.153125 381.602558 927.84375 393.535654 927.051562 409.284811 C 926.910937 412.169696 927.91875 418.224091 924.895312 419.952914 M 909.103125 424.208208 C 909.970312 424.278486 910.903125 423.84628 911.985937 421.253045 C 913.06875 418.656297 916.532812 403.086347 915.089062 392.41473 M 916.81875 404.527033 C 917.245312 407.844125 917.245312 414.618862 915.089062 419.956428 M 922.298437 394.579273 C 923.596875 401.642148 923.451562 407.988193 922.44375 412.457834 M 919.410937 412.45432 C 919.55625 415.339205 920.854687 422.549663 918.689062 423.125937 M 930.229687 379.00581 C 935.559375 387.368816 939.740625 407.988193 944.207812 412.310251 M 934.842187 408.996674 C 934.696875 406.688062 934.551562 403.518553 933.253125 402.074353 M 877.242188 308.067841 C 877.307812 306.479573 877.026562 304.968609 878.751562 302.51593 M 874.645312 309.00253 C 874.860937 303.454132 874.785937 302.948135 876.375 301.433658 M 872.409375 309.146599 C 872.479687 305.182955 871.973437 303.812547 873.5625 301.28959 M 892.303125 190.195137 C 891.689062 190.592204 888.089062 193.329507 886.575 194.48557 M 893.854687 191.530407 C 893.170313 191.635823 891.1875 193.25923 887.657812 196.000047 M 893.9625 193.765227 C 892.846875 194.26771 890.723437 196.323323 888.773438 197.693731 M 885.09375 193.36816 C 884.554688 193.765227 883.514063 194.917775 883.007812 195.314843 M 935.34375 435.02038 C 935.020312 434.661966 935.020312 433.400487 935.596875 431.99494 M 937.935937 434.373829 C 937.546875 433.976762 937.935937 432.244425 938.334375 431.130528 M 940.392187 433.509417 C 939.923437 433.291557 939.778125 432.283077 940.4625 430.912669 M 942.3375 432.497423 C 942.014062 432.388493 941.86875 431.847358 942.445312 430.262603 " transform="matrix(0.833333,0,0,1.111667,0,0)"/>
<path style=" stroke:none;fill-rule:nonzero;fill:rgb(0%,0%,0%);fill-opacity:1;" d="M 761.640625 221.851562 C 762.511719 223.375 763.414062 223.214844 763.570312 224.195312 C 763.730469 225.179688 763.847656 225.246094 764.015625 225.539062 C 764.183594 225.828125 763.601562 225.769531 763.316406 225.613281 C 763.039062 225.457031 762.332031 225.472656 761.898438 225.480469 C 761.472656 225.492188 760.960938 224.816406 761.28125 224.738281 C 761.597656 224.660156 761.558594 224.527344 761.507812 224.226562 C 761.460938 223.925781 761.6875 223.453125 761.820312 223.371094 C 761.957031 223.28125 761.863281 223.296875 761.742188 222.898438 C 761.613281 222.496094 761.457031 221.523438 761.640625 221.851562 Z M 762.167969 220.457031 C 763.144531 220.609375 764.828125 221.3125 765.738281 222.660156 C 766.457031 223.71875 765.871094 223.4375 765.507812 223.480469 C 765.144531 223.519531 764.433594 223.175781 764.074219 222.574219 C 763.71875 221.972656 762.660156 221.210938 762.09375 221.011719 C 761.75 220.894531 761.429688 220.34375 762.167969 220.457031 Z M 762.167969 220.457031 "/>
</g>
</svg>
