<?xml version="1.0" encoding="UTF-8"?>
<svg xmlns="http://www.w3.org/2000/svg" xmlns:xlink="http://www.w3.org/1999/xlink" width="1000px" height="667px" viewBox="0 0 1000 667" version="1.1">
<g id="surface1">
<rect x="0" y="0" width="1000" height="667" style="fill:rgb(78.431374%,6.27451%,18.039216%);fill-opacity:1;stroke:none;"/>
<path style=" stroke:none;fill-rule:nonzero;fill:rgb(100%,100%,100%);fill-opacity:1;" d="M 0 0 L 500 0 L 500 667 L 0 667 Z M 0 0 "/>
<path style=" stroke:none;fill-rule:nonzero;fill:rgb(78.431374%,6.27451%,18.039216%);fill-opacity:1;" d="M 24.691406 92.078125 L 24.691406 142.609375 L 75.195312 142.609375 C 75.195312 151.03125 83.613281 159.453125 92.03125 159.453125 L 92.03125 209.984375 L 142.535156 209.984375 L 142.535156 159.453125 C 150.953125 159.453125 159.371094 151.03125 159.371094 142.609375 L 209.875 142.609375 L 209.875 92.078125 L 159.371094 92.078125 C 159.371094 83.65625 150.953125 75.234375 142.535156 75.234375 L 142.535156 24.703125 L 92.03125 24.703125 L 92.03125 75.234375 C 83.613281 75.234375 75.195312 83.65625 75.195312 92.078125 Z M 24.691406 92.078125 "/>
<path style=" stroke:none;fill-rule:nonzero;fill:rgb(58.823532%,52.941179%,49.019608%);fill-opacity:1;" d="M 28.058594 95.445312 L 28.058594 139.242188 L 78.5625 139.242188 C 78.5625 147.660156 86.980469 156.082031 95.398438 156.082031 L 95.398438 206.613281 L 139.167969 206.613281 L 139.167969 156.082031 C 147.585938 156.082031 156.003906 147.660156 156.003906 139.242188 L 206.503906 139.242188 L 206.503906 95.445312 L 156.003906 95.445312 C 156.003906 87.023438 147.585938 78.601562 139.167969 78.601562 L 139.167969 28.070312 L 95.398438 28.070312 L 95.398438 78.601562 C 86.980469 78.601562 78.5625 87.023438 78.5625 95.445312 Z M 28.058594 95.445312 "/>
<path style=" stroke:none;fill-rule:nonzero;fill:rgb(80.000001%,80.000001%,80.000001%);fill-opacity:1;" d="M 29.746094 97.128906 L 29.746094 137.554688 L 80.246094 137.554688 C 80.246094 145.972656 88.664062 154.398438 97.082031 154.398438 L 97.082031 204.929688 L 137.484375 204.929688 L 137.484375 154.398438 C 145.902344 154.398438 154.320312 145.972656 154.320312 137.554688 L 204.820312 137.554688 L 204.820312 97.128906 L 154.320312 97.128906 C 154.320312 88.710938 145.902344 80.289062 137.484375 80.289062 L 137.484375 29.757812 L 97.082031 29.757812 L 97.082031 80.289062 C 88.664062 80.289062 80.246094 88.710938 80.246094 97.128906 Z M 29.746094 97.128906 "/>
<path style=" stroke:none;fill-rule:nonzero;fill:rgb(58.823532%,52.941179%,49.019608%);fill-opacity:1;" d="M 93.929688 79.683594 C 96.886719 82.644531 96.085938 88.246094 92.144531 92.191406 C 88.199219 96.136719 82.601562 96.9375 79.644531 93.976562 C 76.6875 91.019531 77.484375 85.417969 81.429688 81.472656 C 85.375 77.527344 90.972656 76.726562 93.929688 79.683594 Z M 93.929688 79.683594 "/>
<path style=" stroke:none;fill-rule:nonzero;fill:rgb(81.568629%,81.568629%,81.568629%);fill-opacity:1;" d="M 79.046875 88.617188 L 80.238281 87.425781 L 85 89.804688 L 82.617188 85.042969 L 83.808594 83.851562 L 88.570312 93.378906 L 79.046875 88.613281 Z M 86.191406 81.472656 L 87.382812 80.28125 L 94.523438 87.425781 L 93.332031 88.617188 Z M 86.191406 81.472656 "/>
<path style=" stroke:none;fill-rule:nonzero;fill:rgb(58.823532%,52.941179%,49.019608%);fill-opacity:1;" d="M 154.921875 93.976562 C 151.964844 96.9375 146.367188 96.136719 142.421875 92.191406 C 138.480469 88.246094 137.679688 82.644531 140.636719 79.683594 C 143.59375 76.726562 149.191406 77.527344 153.136719 81.472656 C 157.082031 85.417969 157.882812 91.019531 154.921875 93.976562 Z M 154.921875 93.976562 "/>
<path style=" stroke:none;fill-rule:nonzero;fill:rgb(81.568629%,81.568629%,81.568629%);fill-opacity:1;" d="M 145.996094 79.089844 L 147.1875 80.28125 L 144.808594 85.042969 L 149.570312 82.664062 L 150.761719 83.851562 L 141.238281 88.617188 L 146 79.089844 Z M 153.140625 86.238281 L 154.328125 87.425781 L 147.1875 94.574219 L 145.996094 93.382812 Z M 153.140625 86.238281 "/>
<path style=" stroke:none;fill-rule:nonzero;fill:rgb(58.823532%,52.941179%,49.019608%);fill-opacity:1;" d="M 140.636719 155.003906 C 137.679688 152.042969 138.480469 146.441406 142.421875 142.496094 C 146.367188 138.550781 151.964844 137.75 154.921875 140.710938 C 157.882812 143.667969 157.082031 149.269531 153.136719 153.214844 C 149.191406 157.164062 143.59375 157.964844 140.636719 155.003906 Z M 140.636719 155.003906 "/>
<path style=" stroke:none;fill-rule:nonzero;fill:rgb(81.568629%,81.568629%,81.568629%);fill-opacity:1;" d="M 155.519531 146.070312 L 154.328125 147.261719 L 149.566406 144.882812 L 151.949219 149.644531 L 150.757812 150.835938 L 145.996094 141.3125 L 155.519531 146.074219 Z M 148.375 153.21875 L 147.1875 154.410156 L 140.042969 147.261719 L 141.234375 146.070312 Z M 148.375 153.21875 "/>
<path style=" stroke:none;fill-rule:nonzero;fill:rgb(58.823532%,52.941179%,49.019608%);fill-opacity:1;" d="M 79.644531 140.710938 C 82.601562 137.75 88.199219 138.550781 92.144531 142.496094 C 96.085938 146.441406 96.886719 152.042969 93.929688 155.003906 C 90.972656 157.960938 85.375 157.160156 81.429688 153.214844 C 77.484375 149.269531 76.683594 143.667969 79.644531 140.710938 Z M 79.644531 140.710938 "/>
<path style=" stroke:none;fill-rule:nonzero;fill:rgb(81.568629%,81.568629%,81.568629%);fill-opacity:1;" d="M 88.570312 155.597656 L 87.378906 154.410156 L 89.757812 149.644531 L 84.996094 152.027344 L 83.808594 150.835938 L 93.328125 146.070312 L 88.566406 155.597656 Z M 81.429688 148.453125 L 80.238281 147.261719 L 87.378906 140.113281 L 88.570312 141.304688 Z M 81.429688 148.453125 "/>
<path style="fill:none;stroke-width:0.514;stroke-linecap:butt;stroke-linejoin:miter;stroke:rgb(58.823532%,52.941179%,49.019608%);stroke-opacity:1;stroke-miterlimit:4;" d="M 137.376562 105.556597 C 137.376562 123.132965 123.13125 137.378186 105.556641 137.378186 C 87.978516 137.378186 73.733203 123.132965 73.733203 105.556597 C 73.733203 87.983743 87.978516 73.735007 105.556641 73.735007 C 123.13125 73.735007 137.376562 87.983743 137.376562 105.556597 Z M 137.376562 105.556597 " transform="matrix(1.111111,0,0,1.111667,0,0)"/>
<path style="fill:none;stroke-width:0.514;stroke-linecap:butt;stroke-linejoin:miter;stroke:rgb(58.823532%,52.941179%,49.019608%);stroke-opacity:1;stroke-miterlimit:4;" d="M 129.800391 105.556597 C 129.800391 118.947948 118.944141 129.802286 105.556641 129.802286 C 92.165625 129.802286 81.309375 118.947948 81.309375 105.556597 C 81.309375 92.165246 92.165625 81.310907 105.556641 81.310907 C 118.944141 81.310907 129.800391 92.165246 129.800391 105.556597 Z M 129.800391 105.556597 " transform="matrix(1.111111,0,0,1.111667,0,0)"/>
<path style=" stroke:none;fill-rule:nonzero;fill:rgb(0%,0%,0%);fill-opacity:1;" d="M 105.5 145.972656 C 105.5 146.902344 104.746094 147.65625 103.816406 147.65625 C 102.886719 147.65625 102.132812 146.902344 102.132812 145.972656 C 102.132812 145.042969 102.886719 144.289062 103.816406 144.289062 C 104.746094 144.289062 105.5 145.042969 105.5 145.972656 Z M 105.5 145.972656 "/>
<path style=" stroke:none;fill-rule:nonzero;fill:rgb(0%,0%,0%);fill-opacity:1;" d="M 132.433594 145.972656 C 132.433594 146.902344 131.679688 147.65625 130.75 147.65625 C 129.820312 147.65625 129.066406 146.902344 129.066406 145.972656 C 129.066406 145.042969 129.820312 144.289062 130.75 144.289062 C 131.679688 144.289062 132.433594 145.042969 132.433594 145.972656 Z M 132.433594 145.972656 "/>
<path style=" stroke:none;fill-rule:nonzero;fill:rgb(0%,0%,0%);fill-opacity:1;" d="M 116.167969 145.972656 L 116.167969 147.730469 L 113.921875 147.730469 C 111.679688 147.730469 111.679688 149.484375 113.921875 149.484375 L 116.167969 149.484375 L 116.167969 151.242188 C 116.175781 153.0625 118.125 153.28125 118.269531 151.394531 L 118.410156 149.496094 L 120.65625 149.496094 C 122.898438 149.496094 122.898438 147.738281 120.65625 147.738281 L 118.410156 147.738281 L 118.410156 145.984375 C 118.410156 144.226562 116.167969 144.226562 116.167969 145.984375 Z M 84.394531 126.0625 L 86.707031 125.511719 L 86.453125 124.4375 C 86.394531 124.191406 86.296875 124.023438 86.160156 123.933594 C 86.027344 123.847656 85.792969 123.820312 85.460938 123.859375 L 85.421875 123.699219 L 87.417969 123.226562 L 87.457031 123.386719 C 87.226562 123.441406 87.066406 123.511719 86.972656 123.59375 C 86.882812 123.671875 86.816406 123.773438 86.789062 123.886719 C 86.757812 124 86.765625 124.152344 86.8125 124.351562 L 87.070312 125.425781 L 88.917969 124.984375 C 89.21875 124.914062 89.410156 124.847656 89.496094 124.785156 C 89.570312 124.730469 89.621094 124.648438 89.640625 124.558594 C 89.679688 124.421875 89.683594 124.273438 89.648438 124.132812 L 89.597656 123.921875 L 89.757812 123.882812 L 90.359375 126.410156 L 90.199219 126.449219 L 90.152344 126.242188 C 90.09375 126 89.980469 125.839844 89.8125 125.761719 C 89.703125 125.714844 89.472656 125.734375 89.117188 125.820312 L 85.3125 126.726562 C 85.015625 126.796875 84.820312 126.863281 84.734375 126.921875 C 84.664062 126.976562 84.613281 127.054688 84.589844 127.144531 C 84.550781 127.285156 84.546875 127.429688 84.582031 127.570312 L 84.632812 127.777344 L 84.472656 127.816406 L 83.425781 123.433594 L 84.707031 123.066406 L 84.742188 123.21875 C 84.488281 123.359375 84.304688 123.496094 84.199219 123.625 C 84.097656 123.75 84.03125 123.902344 84.007812 124.0625 C 83.984375 124.222656 84.011719 124.457031 84.082031 124.761719 Z M 82.902344 115.609375 C 82.945312 114.828125 83.28125 114.164062 83.910156 113.621094 C 84.539062 113.078125 85.300781 112.832031 86.191406 112.882812 C 87.109375 112.933594 87.855469 113.269531 88.429688 113.882812 C 89.003906 114.496094 89.265625 115.214844 89.21875 116.039062 C 89.171875 116.871094 88.835938 117.554688 88.214844 118.089844 C 87.589844 118.621094 86.808594 118.859375 85.871094 118.808594 C 84.910156 118.753906 84.144531 118.382812 83.578125 117.695312 C 83.089844 117.113281 82.847656 116.367188 82.902344 115.609375 Z M 83.222656 115.714844 C 83.191406 116.257812 83.367188 116.699219 83.75 117.050781 C 84.226562 117.488281 84.949219 117.730469 85.910156 117.785156 C 86.898438 117.839844 87.667969 117.671875 88.222656 117.28125 C 88.636719 116.996094 88.890625 116.53125 88.902344 116.03125 C 88.941406 115.484375 88.726562 114.949219 88.316406 114.585938 C 87.894531 114.191406 87.207031 113.964844 86.253906 113.910156 C 85.21875 113.855469 84.4375 114.011719 83.90625 114.394531 C 83.484375 114.695312 83.253906 115.136719 83.222656 115.714844 Z M 91.992188 104.652344 L 91.417969 106.164062 L 88.042969 107.074219 C 87.992188 107.230469 87.933594 107.382812 87.875 107.539062 C 87.855469 107.582031 87.835938 107.621094 87.816406 107.664062 L 89.460938 108.289062 C 89.816406 108.425781 90.054688 108.472656 90.171875 108.425781 C 90.332031 108.367188 90.453125 108.230469 90.535156 108.019531 L 90.617188 107.800781 L 90.773438 107.859375 L 89.851562 110.285156 L 89.695312 110.226562 L 89.777344 110.011719 C 89.867188 109.773438 89.855469 109.574219 89.738281 109.410156 C 89.675781 109.320312 89.480469 109.210938 89.160156 109.085938 L 85.503906 107.695312 C 85.148438 107.558594 84.910156 107.515625 84.796875 107.558594 C 84.632812 107.621094 84.507812 107.761719 84.429688 107.976562 L 84.347656 108.1875 L 84.191406 108.128906 L 84.976562 106.066406 C 85.207031 105.464844 85.417969 105.039062 85.613281 104.785156 C 85.808594 104.535156 86.0625 104.351562 86.375 104.246094 C 86.6875 104.136719 87.003906 104.140625 87.328125 104.265625 C 87.675781 104.398438 87.9375 104.625 88.105469 104.953125 C 88.273438 105.277344 88.320312 105.695312 88.246094 106.210938 L 90.3125 105.660156 C 90.789062 105.535156 91.125 105.402344 91.320312 105.257812 C 91.515625 105.109375 91.6875 104.890625 91.839844 104.59375 L 91.996094 104.652344 Z M 87.554688 107.566406 C 87.585938 107.488281 87.617188 107.410156 87.648438 107.332031 C 87.851562 106.792969 87.890625 106.339844 87.761719 105.976562 C 87.644531 105.625 87.375 105.351562 87.027344 105.226562 C 86.671875 105.09375 86.34375 105.09375 86.039062 105.230469 C 85.730469 105.367188 85.511719 105.617188 85.371094 105.984375 C 85.308594 106.144531 85.253906 106.371094 85.199219 106.667969 Z M 100.441406 87.496094 L 101.609375 89.015625 L 101.480469 89.101562 C 101.085938 88.785156 100.722656 88.597656 100.378906 88.53125 C 99.890625 88.433594 99.40625 88.539062 98.929688 88.847656 C 98.285156 89.265625 97.957031 89.839844 97.949219 90.570312 C 97.949219 91.1875 98.140625 91.792969 98.527344 92.390625 C 98.84375 92.875 99.222656 93.257812 99.667969 93.535156 C 100.113281 93.816406 100.550781 93.949219 100.972656 93.9375 C 101.371094 93.9375 101.757812 93.824219 102.089844 93.613281 C 102.460938 93.375 102.757812 93.042969 102.957031 92.652344 L 102.003906 91.179688 C 101.839844 90.925781 101.714844 90.769531 101.625 90.71875 C 101.535156 90.664062 101.429688 90.640625 101.328125 90.652344 C 101.21875 90.664062 101.0625 90.738281 100.859375 90.871094 L 100.765625 90.726562 L 102.734375 89.453125 L 102.824219 89.597656 L 102.730469 89.65625 C 102.539062 89.78125 102.445312 89.933594 102.457031 90.113281 C 102.46875 90.234375 102.558594 90.433594 102.738281 90.707031 L 103.746094 92.265625 C 103.570312 92.585938 103.359375 92.882812 103.113281 93.15625 C 102.882812 93.410156 102.59375 93.648438 102.25 93.867188 C 101.269531 94.503906 100.320312 94.675781 99.402344 94.375 C 98.726562 94.160156 98.148438 93.710938 97.769531 93.109375 C 97.480469 92.660156 97.304688 92.148438 97.261719 91.617188 C 97.195312 90.996094 97.304688 90.371094 97.582031 89.808594 C 97.8125 89.351562 98.183594 88.957031 98.691406 88.628906 C 98.875 88.511719 99.050781 88.417969 99.222656 88.347656 C 99.394531 88.28125 99.648438 88.207031 99.996094 88.128906 C 100.109375 88.113281 100.222656 88.078125 100.328125 88.027344 C 100.375 87.996094 100.40625 87.941406 100.40625 87.882812 C 100.410156 87.816406 100.375 87.71875 100.300781 87.585938 Z M 110.300781 88.179688 L 108.035156 88.78125 L 107.882812 89.8125 C 107.84375 90.066406 107.839844 90.246094 107.871094 90.359375 C 107.894531 90.449219 107.957031 90.515625 108.058594 90.5625 C 108.164062 90.605469 108.359375 90.601562 108.644531 90.546875 L 108.6875 90.707031 L 106.84375 91.195312 L 106.804688 91.035156 C 107.035156 90.929688 107.179688 90.828125 107.234375 90.742188 C 107.34375 90.5625 107.429688 90.242188 107.496094 89.769531 L 108.273438 84.40625 L 108.425781 84.363281 L 111.757812 88.691406 C 112.027344 89.039062 112.242188 89.253906 112.40625 89.335938 C 112.570312 89.417969 112.773438 89.433594 113.019531 89.382812 L 113.058594 89.542969 L 110.75 90.15625 L 110.707031 89.996094 C 110.9375 89.925781 111.085938 89.84375 111.148438 89.753906 C 111.210938 89.679688 111.234375 89.574219 111.207031 89.480469 C 111.175781 89.355469 111.0625 89.167969 110.875 88.925781 Z M 110.09375 87.890625 L 108.472656 85.789062 L 108.082031 88.425781 Z M 120.785156 87.859375 L 120.929688 87.898438 L 120.347656 89.519531 L 115.664062 89.335938 L 115.671875 89.171875 L 115.898438 89.179688 C 116.152344 89.191406 116.339844 89.113281 116.457031 88.953125 C 116.523438 88.859375 116.5625 88.640625 116.574219 88.296875 L 116.726562 84.390625 C 116.742188 84.011719 116.707031 83.773438 116.628906 83.675781 C 116.519531 83.539062 116.347656 83.46875 116.117188 83.457031 L 115.890625 83.449219 L 115.898438 83.285156 L 118.640625 83.390625 L 118.632812 83.554688 C 118.308594 83.539062 118.085938 83.5625 117.953125 83.617188 C 117.839844 83.660156 117.742188 83.742188 117.679688 83.84375 C 117.625 83.9375 117.59375 84.164062 117.578125 84.527344 L 117.433594 88.328125 C 117.421875 88.574219 117.441406 88.746094 117.484375 88.839844 C 117.515625 88.90625 117.570312 88.953125 117.644531 88.984375 C 117.714844 89.019531 117.949219 89.042969 118.335938 89.058594 L 118.777344 89.074219 C 119.242188 89.09375 119.570312 89.070312 119.761719 89.011719 C 119.960938 88.941406 120.144531 88.824219 120.289062 88.664062 C 120.449219 88.496094 120.613281 88.230469 120.785156 87.859375 Z M 128.847656 90.019531 L 128.976562 90.09375 L 127.96875 91.492188 L 123.519531 90.019531 L 123.570312 89.863281 L 123.785156 89.933594 C 124.03125 90.015625 124.230469 89.992188 124.386719 89.871094 C 124.472656 89.800781 124.574219 89.597656 124.683594 89.269531 L 125.910156 85.558594 C 126.027344 85.203125 126.0625 84.964844 126.011719 84.847656 C 125.945312 84.6875 125.800781 84.570312 125.582031 84.496094 L 125.367188 84.425781 L 125.417969 84.269531 L 128.023438 85.128906 L 127.96875 85.285156 C 127.664062 85.183594 127.441406 85.140625 127.300781 85.160156 C 127.179688 85.167969 127.0625 85.21875 126.972656 85.300781 C 126.898438 85.375 126.804688 85.585938 126.691406 85.925781 L 125.496094 89.539062 C 125.417969 89.777344 125.386719 89.945312 125.40625 90.046875 C 125.417969 90.121094 125.460938 90.183594 125.519531 90.230469 C 125.578125 90.28125 125.796875 90.371094 126.164062 90.492188 L 126.585938 90.628906 C 127.027344 90.773438 127.34375 90.847656 127.546875 90.839844 C 127.746094 90.835938 127.945312 90.773438 128.148438 90.65625 C 128.347656 90.539062 128.582031 90.328125 128.847656 90.019531 Z M 135.34375 93.460938 L 133.433594 92.105469 L 132.542969 92.648438 C 132.328125 92.78125 132.183594 92.898438 132.117188 92.992188 C 132.0625 93.066406 132.050781 93.160156 132.082031 93.269531 C 132.113281 93.375 132.242188 93.523438 132.46875 93.707031 L 132.375 93.84375 L 130.816406 92.742188 L 130.914062 92.605469 C 131.144531 92.714844 131.3125 92.761719 131.414062 92.746094 C 131.621094 92.71875 131.925781 92.578125 132.328125 92.328125 L 136.945312 89.488281 L 137.074219 89.582031 L 135.886719 94.910156 C 135.789062 95.339844 135.761719 95.644531 135.808594 95.824219 C 135.851562 96 135.96875 96.167969 136.164062 96.324219 L 136.066406 96.457031 L 134.117188 95.078125 L 134.210938 94.941406 C 134.414062 95.070312 134.570312 95.132812 134.679688 95.125 C 134.777344 95.125 134.871094 95.074219 134.929688 94.996094 C 135.003906 94.886719 135.074219 94.683594 135.140625 94.386719 Z M 135.433594 93.121094 L 136.011719 90.527344 L 133.734375 91.917969 Z M 142.617188 94.445312 L 143.59375 95.765625 L 142.148438 101.445312 L 144.953125 99.367188 C 145.253906 99.144531 145.414062 98.972656 145.441406 98.847656 C 145.472656 98.6875 145.421875 98.507812 145.28125 98.316406 L 145.15625 98.148438 L 145.289062 98.050781 L 146.542969 99.746094 L 146.410156 99.84375 L 146.28125 99.671875 C 146.128906 99.464844 145.960938 99.363281 145.769531 99.371094 C 145.65625 99.375 145.460938 99.480469 145.1875 99.683594 L 141.089844 102.722656 L 140.992188 102.59375 L 142.535156 96.476562 L 139.539062 98.699219 C 139.238281 98.921875 139.074219 99.09375 139.050781 99.210938 C 139.015625 99.378906 139.070312 99.554688 139.210938 99.746094 L 139.335938 99.917969 L 139.203125 100.015625 L 137.949219 98.320312 L 138.082031 98.222656 L 138.207031 98.390625 C 138.363281 98.597656 138.535156 98.699219 138.722656 98.695312 C 138.835938 98.6875 139.03125 98.585938 139.304688 98.382812 L 142.6875 95.875 C 142.734375 95.691406 142.765625 95.503906 142.777344 95.3125 C 142.773438 95.199219 142.742188 95.054688 142.683594 94.882812 C 142.632812 94.761719 142.566406 94.644531 142.480469 94.542969 Z M 150.25 108.519531 L 148.933594 109.058594 L 148.878906 108.898438 C 149.101562 108.78125 149.253906 108.679688 149.335938 108.59375 C 149.460938 108.460938 149.546875 108.296875 149.574219 108.117188 C 149.597656 107.910156 149.566406 107.699219 149.488281 107.507812 L 149.203125 106.699219 L 144.84375 108.242188 C 144.492188 108.367188 144.285156 108.484375 144.226562 108.589844 C 144.144531 108.738281 144.144531 108.925781 144.222656 109.148438 L 144.292969 109.34375 L 144.136719 109.398438 L 143.28125 106.976562 L 143.4375 106.921875 L 143.507812 107.125 C 143.59375 107.367188 143.726562 107.511719 143.910156 107.558594 C 144.019531 107.589844 144.238281 107.550781 144.558594 107.4375 L 148.917969 105.890625 L 148.675781 105.207031 C 148.582031 104.9375 148.496094 104.753906 148.414062 104.65625 C 148.300781 104.523438 148.148438 104.429688 147.976562 104.390625 C 147.785156 104.339844 147.5625 104.351562 147.296875 104.425781 L 147.238281 104.265625 L 148.601562 103.859375 Z M 145.457031 119.265625 L 145.375 117.648438 L 148.09375 115.457031 C 148.078125 115.289062 148.066406 115.125 148.058594 114.960938 L 148.058594 114.820312 L 146.304688 114.914062 C 145.921875 114.933594 145.6875 114.988281 145.601562 115.074219 C 145.476562 115.195312 145.417969 115.367188 145.429688 115.59375 L 145.441406 115.832031 L 145.277344 115.839844 L 145.144531 113.246094 L 145.308594 113.238281 L 145.320312 113.464844 C 145.335938 113.722656 145.425781 113.898438 145.597656 114 C 145.695312 114.058594 145.914062 114.078125 146.257812 114.0625 L 150.164062 113.859375 C 150.546875 113.839844 150.78125 113.785156 150.867188 113.695312 C 150.992188 113.574219 151.050781 113.398438 151.039062 113.167969 L 151.027344 112.941406 L 151.191406 112.933594 L 151.304688 115.136719 C 151.339844 115.777344 151.316406 116.253906 151.238281 116.5625 C 151.160156 116.875 151 117.140625 150.761719 117.367188 C 150.519531 117.59375 150.226562 117.714844 149.878906 117.734375 C 149.523438 117.757812 149.171875 117.644531 148.894531 117.417969 C 148.605469 117.191406 148.394531 116.824219 148.253906 116.324219 L 146.585938 117.664062 C 146.199219 117.96875 145.949219 118.226562 145.828125 118.441406 C 145.707031 118.652344 145.640625 118.925781 145.621094 119.257812 Z M 148.339844 114.808594 C 148.34375 114.863281 148.34375 114.914062 148.347656 114.953125 L 148.351562 115.058594 C 148.378906 115.632812 148.527344 116.0625 148.792969 116.34375 C 149.058594 116.621094 149.382812 116.753906 149.769531 116.730469 C 150.148438 116.710938 150.449219 116.578125 150.671875 116.332031 C 150.898438 116.082031 150.996094 115.761719 150.976562 115.371094 C 150.957031 115.136719 150.917969 114.902344 150.855469 114.675781 L 148.34375 114.808594 Z M 150.003906 127.269531 L 149.464844 129.3125 L 149.304688 129.269531 L 149.335938 129.160156 C 149.355469 129.082031 149.351562 128.964844 149.320312 128.804688 C 149.292969 128.640625 149.234375 128.488281 149.140625 128.335938 C 148.996094 128.121094 148.832031 127.921875 148.648438 127.742188 L 146.796875 125.742188 L 145.328125 125.359375 C 144.96875 125.265625 144.730469 125.246094 144.621094 125.300781 C 144.472656 125.378906 144.367188 125.535156 144.304688 125.773438 L 144.253906 125.964844 L 144.09375 125.921875 L 144.746094 123.433594 L 144.90625 123.472656 L 144.851562 123.683594 C 144.789062 123.929688 144.816406 124.125 144.941406 124.269531 C 145.015625 124.355469 145.21875 124.441406 145.546875 124.527344 L 146.929688 124.890625 L 149.808594 123.929688 C 150.144531 123.8125 150.359375 123.734375 150.449219 123.683594 C 150.535156 123.636719 150.660156 123.515625 150.816406 123.332031 C 150.871094 123.261719 150.910156 123.179688 150.925781 123.089844 L 151.085938 123.132812 L 150.429688 125.640625 L 150.269531 125.597656 L 150.300781 125.46875 C 150.339844 125.335938 150.339844 125.199219 150.308594 125.070312 C 150.28125 124.949219 150.1875 124.851562 150.066406 124.824219 C 149.960938 124.796875 149.753906 124.835938 149.4375 124.941406 L 147.226562 125.667969 L 148.730469 127.289062 C 148.957031 127.535156 149.136719 127.671875 149.269531 127.710938 C 149.425781 127.753906 149.597656 127.695312 149.695312 127.5625 C 149.765625 127.460938 149.816406 127.347656 149.839844 127.226562 Z M 150.003906 127.269531 "/>
<path style="fill-rule:nonzero;fill:rgb(58.823532%,52.941179%,49.019608%);fill-opacity:1;stroke-width:0.203;stroke-linecap:butt;stroke-linejoin:miter;stroke:rgb(0%,0%,0%);stroke-opacity:1;stroke-miterlimit:4;" d="M 122.85 110.191389 C 123.380859 110.054348 124.259766 110.163278 124.259766 110.163278 C 124.259766 110.163278 124.337109 110.52872 124.105078 110.651705 C 124.361719 110.799288 125.286328 110.753608 125.286328 110.753608 C 125.286328 110.753608 124.924219 111.027689 124.744922 111.136619 C 125.078906 111.168244 125.490234 111.60045 125.490234 111.60045 C 125.490234 111.60045 124.720312 111.726949 124.386328 111.547742 C 124.59375 111.958864 124.565625 112.317279 124.565625 112.317279 C 124.565625 112.317279 123.324609 112.008058 122.874609 111.189327 M 120.76875 109.488615 C 120.469922 110.233555 118.258594 108.849091 118.258594 108.849091 C 118.258594 108.849091 119.232422 110.391679 120.691406 110.567373 M 93.181641 123.660045 L 119.056641 123.660045 L 121.057031 122.071777 L 117.727734 120.279704 L 112.601953 118.536825 L 110.552344 117.408874 L 106.758984 117.612678 L 103.584375 119.302849 L 99.228516 119.815873 L 98.201953 120.996533 L 94.974609 121.253045 L 89.901562 121.147629 L 98.356641 122.482899 L 91.388672 122.120971 Z M 93.181641 123.660045 " transform="matrix(1.111111,0,0,1.111667,0,0)"/>
<path style="fill-rule:nonzero;fill:rgb(58.823532%,52.941179%,49.019608%);fill-opacity:1;stroke-width:0.203;stroke-linecap:butt;stroke-linejoin:miter;stroke:rgb(0%,0%,0%);stroke-opacity:1;stroke-miterlimit:4;" d="M 107.121094 116.231728 C 103.879687 114.488849 102.930469 118.779282 101.534766 119.815873 C 103.419141 120.135635 104.839453 118.36816 106.453125 117.510776 C 107.676562 120.845437 109.606641 118.638728 109.606641 118.638728 C 109.606641 118.638728 111.617578 121.82932 114.292969 120.381606 C 115.024219 120.929769 115.829297 120.4308 115.829297 120.4308 C 115.829297 120.4308 116.806641 120.610007 117.010547 120.174288 C 117.520312 120.353495 118.086328 119.713971 118.086328 119.713971 C 118.086328 119.713971 119.200781 119.728027 119.41875 119.151752 C 121.071094 119.443403 123.261328 115.767897 123.261328 115.767897 L 123.925781 114.488849 L 124.899609 114.281531 C 124.899609 114.281531 124.966406 113.642007 124.439062 113.666604 C 124.428516 113.283593 124.094531 113.076274 123.619922 113.153579 C 123.711328 112.925178 123.363281 112.745971 123.363281 112.745971 C 122.442187 112.974372 122.389453 115.307581 122.389453 115.307581 C 122.389453 115.307581 120.775781 116.537434 120.188672 116.846655 C 120.160547 115.511385 117.931641 113.705257 118.392187 112.847873 C 118.852734 111.990489 120.301172 114.169087 121.570312 113.768506 C 122.839453 113.371439 123.461719 111.723435 123.517969 110.440873 C 123.159375 109.569434 122.2875 108.132262 122.2875 108.132262 L 121.468359 108.083068 L 120.751172 106.340189 C 120.751172 106.340189 119.239453 107.327586 119.264062 108.18497 C 119.288672 109.042354 120.853125 109.773238 120.853125 109.773238 C 120.853125 109.773238 119.953125 110.335457 119.109375 110.082459 C 119.035547 110.950384 120.135937 110.785232 120.54375 110.799288 C 120.751172 111.424756 121.366406 111.772629 121.366406 111.772629 C 121.366406 111.772629 121.749609 112.731915 120.751172 112.640555 C 119.752734 112.552708 118.571484 110.251124 117.161719 111.312313 C 115.664062 112.43675 117.829687 114.488849 117.829687 114.488849 C 117.829687 114.488849 116.511328 115.177567 115.727344 116.948557 C 112.538672 114.256934 110.668359 115.511385 107.121094 116.231728 Z M 107.121094 116.231728 " transform="matrix(1.111111,0,0,1.111667,0,0)"/>
<path style="fill-rule:nonzero;fill:rgb(58.823532%,52.941179%,49.019608%);fill-opacity:1;stroke-width:0.203;stroke-linecap:butt;stroke-linejoin:miter;stroke:rgb(0%,0%,0%);stroke-opacity:1;stroke-miterlimit:4;" d="M 102.459375 111.670727 C 103.791797 112.925178 102.863672 115.012416 103.380469 115.409483 C 103.932422 115.834661 104.716406 115.205678 104.716406 115.205678 C 106.112109 115.578148 108.608203 114.794556 108.608203 114.794556 C 109.708594 115.409483 109.272656 114.502905 109.940625 114.541557 C 110.53125 116.052521 112.503516 115.771411 112.503516 115.771411 C 112.503516 115.771411 110.696484 113.92663 109.582031 113.413606 C 108.724219 113.92663 106.224609 114.000422 105.792187 113.92663 C 105.303516 113.838784 105.609375 113.24494 105.380859 112.900581 C 106.298437 112.004545 105.574219 109.787294 105.071484 108.954507 C 103.035937 107.598154 100.606641 109.920821 102.459375 111.670727 Z M 93.6 107.92143 C 91.923047 108.374719 89.015625 105.753373 87.658594 106.75834 C 86.298047 107.763306 86.930859 110.240583 87.837891 111.470437 C 88.723828 112.675693 86.544141 113.111413 85.953516 113.824728 C 85.401562 114.499391 86.132812 115.275956 86.132812 115.275956 L 86.751562 115.673023 L 86.642578 116.579601 L 86.969531 117.665386 C 86.969531 117.665386 87.268359 117.928926 87.366797 117.595109 C 87.648047 117.876218 87.398437 118.687922 88.091016 118.789824 C 87.841406 118.269771 88.270312 116.832599 88.270312 116.832599 C 88.270312 116.832599 89.486719 116.92396 89.796094 116.400394 C 90.101953 115.873313 89.504297 114.731306 89.504297 114.731306 L 89.866406 114.731306 C 89.458594 114.453711 89.321484 113.610382 89.321484 113.610382 C 89.321484 113.610382 91.008984 113.07276 90.991406 111.797226 C 90.970312 110.521692 88.25625 109.161825 89.251172 108.501218 C 90.355078 107.76682 92.274609 110.402221 93.923437 109.186422 C 95.558203 107.988193 94.503516 109.151284 94.503516 109.151284 C 94.503516 109.151284 95.252344 107.475169 93.6 107.92143 Z M 102.248437 89.972592 C 100.008984 89.034389 95.428125 88.978167 92.872266 87.716689 C 91.750781 87.786966 91.251562 88.672461 91.205859 89.023847 C 90.035156 88.964112 89.240625 90.808892 89.412891 91.174335 C 87.282422 90.309923 86.2875 93.68675 86.980078 94.378982 C 85.158984 94.456287 85.383984 96.778954 85.211719 97.425506 C 84.628125 98.841595 85.341797 99.319481 86.491406 98.80997 C 86.667187 99.424897 86.424609 99.769256 85.904297 99.885214 C 89.061328 103.500984 90.847266 97.664449 93.617578 97.682018 C 97.073437 96.670024 98.430469 94.965798 98.430469 94.965798 L 99.791016 95.148519 Z M 102.248437 89.972592 " transform="matrix(1.111111,0,0,1.111667,0,0)"/>
<path style="fill-rule:nonzero;fill:rgb(58.823532%,52.941179%,49.019608%);fill-opacity:1;stroke-width:0.203;stroke-linecap:butt;stroke-linejoin:miter;stroke:rgb(0%,0%,0%);stroke-opacity:1;stroke-miterlimit:4;" d="M 108.45 87.382871 C 108.45 89.210082 106.969922 90.689421 105.145312 90.689421 C 103.320703 90.689421 101.840625 89.210082 101.840625 87.382871 C 101.840625 85.559174 103.320703 84.079835 105.145312 84.079835 C 106.969922 84.079835 108.45 85.559174 108.45 87.382871 Z M 108.45 87.382871 " transform="matrix(1.111111,0,0,1.111667,0,0)"/>
<path style="fill-rule:nonzero;fill:rgb(58.823532%,52.941179%,49.019608%);fill-opacity:1;stroke-width:0.203;stroke-linecap:butt;stroke-linejoin:miter;stroke:rgb(0%,0%,0%);stroke-opacity:1;stroke-miterlimit:4;" d="M 99.330469 113.410092 C 97.280859 113.037622 93.884766 110.911732 93.540234 108.132262 C 95.449219 100.637181 105.296484 104.55163 106.14375 98.915386 C 105.925781 95.197714 106.59375 91.51518 108.657422 88.405407 C 109.617187 87.186094 110.858203 86.866332 110.858203 86.866332 C 110.858203 86.866332 111.083203 87.660467 110.75625 88.198088 C 112.383984 88.018881 114.612891 88.928973 116.138672 89.020334 C 116.585156 89.930425 116.546484 90.260729 116.444531 90.812406 C 116.342578 91.364084 115.727344 91.223529 115.727344 91.223529 C 115.330078 91.599513 114.851953 91.982524 113.779687 91.785748 C 112.974609 92.400675 111.269531 92.555285 111.269531 92.555285 C 111.269531 92.555285 114.830859 96.308096 114.240234 97.4747 C 114.985547 97.819059 116.085937 99.470577 116.085937 99.470577 C 116.085937 99.470577 118.51875 98.191529 119.313281 97.01087 C 120.723047 97.01087 123.029297 98.486694 124.182422 98.651846 C 125.592187 99.790339 126.998437 100.956943 126.998437 100.956943 C 126.998437 100.956943 125.321484 102.060298 124.59375 100.598529 C 123.707812 100.675834 121.798828 98.560485 119.158594 99.217579 C 119.08125 101.561329 116.497266 103.212847 116.497266 103.212847 C 116.497266 103.212847 118.9125 102.875515 120.234375 103.673163 C 121.348828 104.597311 122.477344 105.500375 123.616406 106.389383 L 125.412891 109.464018 C 125.412891 109.464018 123.771094 109.745127 123.155859 107.619237 C 122.540625 109.337519 122.516016 106.554535 120.083203 105.261432 C 119.341406 105.352792 118.96875 105.401987 118.339453 104.903017 C 116.585156 105.377389 114.510937 106.403439 112.039453 106.132871 C 110.281641 106.684548 109.001953 108.142804 107.219531 108.950993 C 105.440625 109.759183 104.913281 109.362116 104.913281 109.362116 L 103.478906 109.41131 C 103.271484 110.275722 103.391016 111.589908 102.610547 111.821823 C 103.109766 112.359445 102.248437 114.650487 101.380078 115.047554 C 101.791406 116.523379 102.990234 116.973154 104.248828 117.71458 C 104.248828 117.71458 105.363281 117.201555 106.094531 117.86919 C 106.822266 118.533311 107.578125 120.4308 107.578125 120.4308 C 107.578125 120.4308 106.059375 120.532702 105.58125 120.325384 C 105.103125 120.12158 105.057422 119.622611 104.505469 119.763165 C 101.032031 116.674475 99.203906 117.904329 98.866406 117.201555 C 98.525391 116.481213 99.689062 114.601293 99.330469 113.410092 Z M 99.330469 113.410092 " transform="matrix(1.111111,0,0,1.111667,0,0)"/>
<path style="fill-rule:nonzero;fill:rgb(58.823532%,52.941179%,49.019608%);fill-opacity:1;stroke-width:0.203;stroke-linecap:butt;stroke-linejoin:miter;stroke:rgb(0%,0%,0%);stroke-opacity:1;stroke-miterlimit:4;" d="M 90.991406 99.653298 C 91.170703 99.428411 92.439844 99.909811 92.439844 99.909811 L 94.756641 101.357524 L 99.467578 104.400534 L 101.133984 106.828617 L 98.128125 105.851762 L 93.962109 102.264102 L 91.715625 100.812875 C 91.715625 100.812875 90.808594 99.8817 90.991406 99.653298 Z M 118.849219 107.369753 C 117.221484 106.95863 113.213672 111.828851 113.213672 111.828851 L 116.237109 115.10729 C 116.237109 115.10729 116.328516 109.523754 118.849219 107.369753 Z M 118.849219 107.369753 " transform="matrix(1.111111,0,0,1.111667,0,0)"/>
<path style="fill-rule:nonzero;fill:rgb(58.823532%,52.941179%,49.019608%);fill-opacity:1;stroke-width:0.203;stroke-linecap:butt;stroke-linejoin:miter;stroke:rgb(0%,0%,0%);stroke-opacity:1;stroke-miterlimit:4;" d="M 99.024609 93.788653 C 98.135156 94.927146 98.054297 97.218188 99.210937 98.142335 C 99.319922 99.533827 100.501172 102.337894 101.429297 102.601434 C 102.445312 102.889571 106.502344 103.831287 108.091406 103.574775 C 107.789062 106.15044 109.810547 108.216595 111.680859 109.569434 C 111.666797 109.801349 111.663281 110.085973 111.877734 110.370596 C 112.088672 110.648192 113.069531 110.697386 113.115234 110.546289 C 113.551172 111.157702 115.660547 111.42827 115.815234 111.154189 C 115.962891 110.887135 112.707422 108.624204 111.986719 107.931972 C 111.375 106.786451 110.211328 104.238896 109.937109 102.190311 C 108.341016 100.292822 105.595312 100.331475 105.595312 100.331475 L 105.683203 96.606775 L 105.837891 92.404189 L 104.350781 91.638165 C 104.350781 91.638165 104.653125 91.501124 104.811328 91.328945 C 105.173437 91.483555 105.851953 90.759698 105.939844 90.555894 C 106.280859 90.675365 106.590234 90.675365 106.65 90.492644 C 106.70625 90.331006 106.766016 89.610663 106.892578 89.241707 C 108.010547 88.25431 106.727344 86.160045 105.011719 86.12842 C 103.317187 86.093281 102.9375 88.148894 102.969141 88.307018 C 103.127344 88.95357 103.095703 89.276846 102.969141 89.431456 C 102.842578 89.593094 102.251953 89.944481 102.251953 89.944481 C 102.251953 89.944481 101.302734 89.49822 100.149609 89.944481 C 99 90.394256 97.702734 90.995127 97.639453 91.740067 C 97.115625 91.817373 96.254297 92.495549 96.103125 93.071823 C 95.642578 92.980463 95.037891 93.366988 94.053516 94.969312 C 92.285156 95.749391 92.183203 99.526799 92.183203 99.526799 C 92.183203 99.526799 91.705078 100.222545 91.680469 100.591501 C 91.659375 100.960457 91.849219 101.294275 92.08125 101.231025 C 92.105859 101.473482 92.425781 101.691342 92.566406 101.617551 C 92.619141 101.860007 92.970703 101.997048 93.181641 101.96191 C 93.202734 102.130575 93.88125 102.088409 93.9375 101.937313 C 93.997266 101.768647 93.870703 100.939374 93.951562 100.872611 C 94.025391 100.812875 94.591406 101.245081 94.742578 101.129123 C 94.897266 101.013165 94.714453 100.644209 94.630078 100.503654 C 94.552734 100.373641 94.064062 100.233087 93.951562 99.632215 C 93.835547 99.031344 94.257422 98.195043 94.257422 98.195043 C 94.257422 98.195043 96.180469 96.68408 96.398437 95.390976 C 97.843359 95.531531 98.609766 94.266539 99.024609 93.788653 Z M 99.024609 93.788653 " transform="matrix(1.111111,0,0,1.111667,0,0)"/>
<path style="fill-rule:nonzero;fill:rgb(58.823532%,52.941179%,49.019608%);fill-opacity:1;stroke-width:0.203;stroke-linecap:butt;stroke-linejoin:miter;stroke:rgb(0%,0%,0%);stroke-opacity:1;stroke-miterlimit:4;" d="M 95.677734 88.370268 C 96.117187 87.298538 97.702734 87.396927 97.702734 87.396927 C 97.702734 87.396927 98.26875 85.903533 100.40625 86.792541 C 101.211328 86.1741 103.327734 87.063109 103.327734 87.063109 C 103.327734 87.063109 104.11875 86.005435 105.159375 86.12842 C 107.082422 86.353308 107.402344 88.117269 107.286328 88.419462 C 106.231641 88.686516 104.407031 87.565592 103.018359 87.88184 C 102.209766 88.342157 100.894922 88.823557 100.40625 89.484164 C 99.123047 89.617691 97.751953 88.303504 95.677734 88.370268 Z M 99.689062 90.151799 C 100.170703 89.856634 101.348437 89.336582 102.15 89.972592 C 102.986719 90.875656 104.273437 91.71547 104.273437 91.71547 L 105.735937 92.330397 L 106.400391 92.738006 L 105.964453 99.424897 C 104.614453 98.043947 103.345312 97.80149 102.378516 96.171055 C 101.861719 95.475309 102.255469 93.79568 101.355469 92.685298 C 100.451953 91.57843 99.488672 90.829976 99.689062 90.151799 Z M 99.689062 90.151799 " transform="matrix(1.111111,0,0,1.111667,0,0)"/>
<path style="fill-rule:nonzero;fill:rgb(58.823532%,52.941179%,49.019608%);fill-opacity:1;stroke-width:0.203;stroke-linecap:butt;stroke-linejoin:miter;stroke:rgb(0%,0%,0%);stroke-opacity:1;stroke-miterlimit:4;" d="M 103.201172 92.080913 C 103.201172 92.080913 103.964062 91.936844 104.178516 92.119565 C 104.445703 92.207412 104.702344 92.284717 104.776172 92.516632 C 105.064453 92.604479 105.264844 92.752061 105.264844 92.969921 C 105.535547 93.043713 105.644531 93.53214 105.644531 93.53214 L 105.391406 93.911638 C 105.391406 93.911638 105.103125 93.64107 105.064453 93.349419 C 104.881641 93.261572 104.477344 93.163184 104.378906 92.89613 C 104.0625 92.864505 103.858594 92.702867 103.798828 92.425272 C 103.503516 92.495549 103.201172 92.080913 103.201172 92.080913 Z M 103.201172 92.080913 " transform="matrix(1.111111,0,0,1.111667,0,0)"/>
<path style="fill-rule:nonzero;fill:rgb(58.823532%,52.941179%,49.019608%);fill-opacity:1;stroke-width:0.203;stroke-linecap:butt;stroke-linejoin:miter;stroke:rgb(0%,0%,0%);stroke-opacity:1;stroke-miterlimit:4;" d="M 109.680469 87.716689 C 109.244531 87.228261 108.474609 87.590189 108.474609 87.590189 L 106.425 91.125141 L 105.528516 91.866567 L 105.451172 94.635495 L 106.196484 97.221702 L 105.939844 99.221093 C 105.939844 99.221093 106.969922 98.251265 107.092969 97.710129 C 107.208984 97.190077 106.70625 95.506934 106.70625 95.506934 C 106.70625 95.506934 106.094531 94.456287 106.836328 92.509605 C 107.578125 90.559408 109.269141 88.946542 109.680469 87.716689 Z M 109.680469 87.716689 " transform="matrix(1.111111,0,0,1.111667,0,0)"/>
<path style="fill-rule:nonzero;fill:rgb(58.823532%,52.941179%,49.019608%);fill-opacity:1;stroke-width:0.203;stroke-linecap:butt;stroke-linejoin:miter;stroke:rgb(0%,0%,0%);stroke-opacity:1;stroke-miterlimit:4;" d="M 114.739453 90.868628 C 114.739453 90.868628 111.540234 95.440171 106.298437 97.067091 C 104.853516 97.414964 105.377344 93.68675 105.377344 93.68675 L 105.01875 93.788653 C 105.01875 93.788653 104.213672 97.439561 106.147266 97.478214 C 111.413672 96.441623 115.361719 90.896739 115.361719 90.896739 L 114.732422 90.868628 Z M 116.908594 117.159389 C 116.908594 117.159389 116.423437 117.517804 115.783594 117.159389 C 115.449609 116.389852 114.553125 116.340658 114.553125 116.340658 C 114.553125 116.340658 113.976562 114.678598 113.066016 115.163512 C 112.925391 114.302614 111.941016 114.752389 111.941016 114.752389 C 111.941016 114.752389 111.912891 113.50848 110.759766 113.677146 C 111.146484 112.254029 109.170703 112.341876 109.170703 112.341876 C 109.170703 112.341876 109.107422 110.743066 106.2 111.062828 C 112.464844 108.255247 117.421875 115.469219 117.421875 115.469219 M 119.879297 117.770802 C 119.879297 117.770802 121.327734 119.397723 122.083594 119.408265 C 122.839453 119.42232 122.902734 117.819996 122.902734 117.819996 C 122.902734 117.819996 123.145312 118.512228 123.517969 118.333021 C 123.479297 118.821449 123.978516 118.947948 123.978516 118.947948 C 123.978516 118.947948 122.674219 121.98393 118.958203 119.102558 M 108.548437 118.389243 L 108.038672 120.490536 C 108.038672 120.490536 107.384766 121.080866 107.574609 121.207365 C 107.767969 121.337378 108.805078 121.003561 108.805078 121.003561 C 108.805078 121.003561 110.41875 120.810298 110.907422 120.335926 C 111.241406 121.091407 111.983203 121.158171 111.983203 121.158171 C 111.983203 121.158171 112.032422 120.838409 111.930469 120.645146 C 112.292578 120.708396 112.598437 120.592438 112.598437 120.592438 C 112.598437 120.592438 112.802344 120.005622 112.341797 119.773707 C 112.394531 119.337987 112.6125 118.951462 111.828516 119.00417 C 111.251953 119.619097 109.831641 120.325384 109.473047 120.079413 C 109.114453 119.836957 110.882812 119.056878 110.394141 118.030828 " transform="matrix(1.111111,0,0,1.111667,0,0)"/>
</g>
</svg>
