<?xml version="1.0" encoding="UTF-8"?>
<svg xmlns="http://www.w3.org/2000/svg" xmlns:xlink="http://www.w3.org/1999/xlink" width="1000px" height="667px" viewBox="0 0 1000 667" version="1.1">
<g id="surface1">
<rect x="0" y="0" width="1000" height="667" style="fill:rgb(0%,0%,0%);fill-opacity:1;stroke:none;"/>
<path style=" stroke:none;fill-rule:nonzero;fill:rgb(100%,100%,100%);fill-opacity:1;" d="M 0 0 L 1000 0 L 1000 229.28125 L 0 229.28125 Z M 0 0 "/>
<path style=" stroke:none;fill-rule:nonzero;fill:rgb(0%,44.313726%,40.784314%);fill-opacity:1;" d="M 0 0 L 1000 0 L 1000 208.4375 L 0 208.4375 Z M 0 0 "/>
<path style=" stroke:none;fill-rule:nonzero;fill:rgb(100%,100%,100%);fill-opacity:1;" d="M 0 437.441406 L 1000 437.441406 L 1000 667 L 0 667 Z M 0 437.441406 "/>
<path style=" stroke:none;fill-rule:nonzero;fill:rgb(98.823529%,88.235295%,0%);fill-opacity:1;" d="M 0 458.5625 L 1000 458.5625 L 1000 667 L 0 667 Z M 0 458.5625 "/>
<path style=" stroke:none;fill-rule:nonzero;fill:rgb(82.352942%,6.27451%,20.392157%);fill-opacity:1;" d="M 0 0 L 0 667 L 437.5 333.5 Z M 0 0 "/>
<path style=" stroke:none;fill-rule:nonzero;fill:rgb(98.823529%,88.235295%,0%);fill-opacity:1;" d="M 227.078125 458.546875 L 145.796875 399.003906 L 64.621094 458.5625 L 96.101562 362.820312 L 14.40625 303.988281 L 115.144531 304.355469 L 145.824219 208.4375 L 176.601562 304.40625 L 277.261719 303.960938 L 195.546875 362.902344 Z M 227.078125 458.546875 "/>
<path style="fill-rule:evenodd;fill:rgb(100%,100%,100%);fill-opacity:1;stroke-width:1.25;stroke-linecap:round;stroke-linejoin:round;stroke:rgb(0%,0%,0%);stroke-opacity:1;stroke-miterlimit:4;" d="M 77.112982 167.912609 L 118.947088 167.912609 C 122.312794 171.689465 129.822839 173.229217 136.975662 167.867978 C 150.086845 160.688047 175.455225 167.912609 175.455225 167.912609 L 180.447968 162.607158 L 168.271704 122.646125 L 163.901309 117.962712 C 163.901309 117.962712 154.538172 112.342058 136.741235 114.216539 C 118.947088 116.088231 112.701275 113.591712 112.701275 113.591712 C 112.701275 113.591712 97.092326 115.466193 92.721931 117.650298 C 92.241914 118.038026 87.726398 122.646125 87.726398 122.646125 Z M 77.112982 167.912609 " transform="matrix(1.399688,0,0,1.400388,-32.684099,156.638508)"/>
<path style="fill:none;stroke-width:1.25;stroke-linecap:round;stroke-linejoin:round;stroke:rgb(0%,0%,0%);stroke-opacity:1;stroke-miterlimit:4;" d="M 85.541201 157.611332 C 85.541201 157.611332 125.502679 152.615505 137.053804 167.912609 C 130.528912 172.375659 124.785443 172.743861 118.634518 168.225022 C 119.614089 166.59322 132.99598 152.615505 167.024216 157.298918 " transform="matrix(1.399688,0,0,1.400388,-32.684099,156.638508)"/>
<path style="fill-rule:nonzero;fill:rgb(0%,0%,0%);fill-opacity:1;stroke-width:1.25;stroke-linecap:round;stroke-linejoin:round;stroke:rgb(0%,0%,0%);stroke-opacity:1;stroke-miterlimit:4;" d="M 128.313016 117.650298 L 128.000446 161.669918 M 163.901309 118.275125 L 171.39461 153.240332 M 93.13497 117.725612 L 88.976677 135.756334 " transform="matrix(1.399688,0,0,1.400388,-32.684099,156.638508)"/>
<path style="fill-rule:evenodd;fill:rgb(0%,0%,0%);fill-opacity:1;stroke-width:1.25;stroke-linecap:round;stroke-linejoin:round;stroke:rgb(0%,0%,0%);stroke-opacity:1;stroke-miterlimit:4;" d="M 49.941744 172.704809 L 59.779317 184.241793 C 60.934709 184.930776 61.961724 184.886146 62.988738 184.241793 L 77.567882 166.743848 L 83.6909 159.162242 C 84.639772 158.0409 84.943969 156.785668 84.857454 155.664326 L 96.564864 145.259841 C 97.522109 145.326787 98.094223 145.435574 99.051468 145.49973 C 97.921194 145.206842 97.089535 144.657329 97.9798 143.416043 L 100.605944 141.374198 L 102.64602 143.999029 C 102.64602 143.999029 99.729633 147.789832 99.439389 147.789832 C 99.146355 147.789832 96.229968 147.789832 96.229968 147.789832 L 90.106951 153.332383 L 92.783329 155.697799 L 96.813246 166.743848 L 101.772499 163.245932 L 98.563078 151.873523 L 105.562407 144.291917 L 102.939054 140.208226 L 104.688886 137.876283 C 104.688886 137.876283 128.910247 153.125967 138.242685 149.042276 C 138.493858 149.134326 138.806427 138.166381 138.806427 138.166381 C 138.806427 138.166381 113.72829 135.544339 113.145013 130.584775 C 112.561735 125.628 118.684753 125.045014 118.684753 125.045014 L 116.058609 121.254211 L 116.644677 119.212366 L 121.017862 124.752126 L 130.933578 116.294647 L 189.252945 182.782934 C 192.437249 181.491438 193.118204 180.713194 193.335887 177.533271 C 193.254953 177.455168 136.183074 111.920858 136.183074 111.920858 L 140.556259 107.25697 C 141.418617 106.286257 141.720023 105.870636 141.722814 104.339252 L 148.429109 98.509393 C 150.446858 99.201165 151.730626 100.408978 152.802294 102.007308 L 171.241116 86.381054 C 171.726715 86.866411 173.203049 87.351768 174.204946 86.805044 L 204.691656 57.544173 L 171.467171 81.011447 L 170.300616 80.135574 C 170.300616 79.16486 171.506242 78.924971 170.300616 77.220644 C 169.008475 75.672524 167.091195 78.679504 166.800951 78.679504 C 166.507917 78.679504 161.992401 77.081174 161.001667 75.058854 L 160.677934 80.428461 L 152.219017 88.302955 L 145.805756 88.010068 L 136.473318 97.050533 L 135.306763 100.548449 L 136.766352 103.466167 C 136.766352 103.466167 131.807099 107.839956 131.807099 107.547069 C 131.807099 107.25697 130.805201 106.258363 130.763339 106.13005 L 135.013729 102.300196 L 135.597006 99.675364 L 134.179279 97.457786 C 133.749496 97.7702 128.307434 103.466167 128.017191 102.883182 C 127.528801 102.339247 112.268701 85.095138 112.268701 85.095138 L 113.145013 81.887321 L 103.229297 71.097898 C 99.61521 69.848244 93.896859 69.639038 92.733095 77.513532 C 91.823294 79.362908 84.274177 77.80363 84.274177 77.80363 L 80.191235 78.679504 L 57.155964 111.337872 L 69.985276 126.793972 L 96.229968 93.549828 L 97.011392 84.132793 L 102.517643 90.291802 C 104.35399 90.526112 106.101031 90.548427 107.767139 89.706026 L 123.314691 107.061712 L 120.724828 109.588914 C 121.60114 110.559627 122.203953 111.181665 123.077473 112.155168 C 123.953785 111.572182 124.788234 110.872041 125.661755 110.286266 C 125.954789 110.676783 126.440388 111.415975 126.733422 111.803703 C 125.430118 112.515001 124.514736 113.457821 123.214222 114.16633 C 121.126703 112.807889 119.114536 111.114719 119.26803 108.422942 L 110.518869 115.711661 L 110.228626 117.17052 L 84.274177 138.749367 L 81.941067 139.042254 L 81.35779 145.747987 L 98.272835 131.750747 L 98.272835 129.708901 L 100.022667 131.167761 L 113.145013 120.671225 C 113.145013 120.671225 114.018533 121.837197 113.72829 121.837197 C 113.435256 121.837197 102.062742 132.333732 102.062742 132.333732 L 101.772499 133.499704 L 99.729633 135.251451 L 98.563078 134.375578 L 82.817379 148.372818 L 80.484269 148.372818 L 71.735108 157.123186 C 69.480141 157.318444 67.52379 157.558333 65.612091 158.872143 Z M 49.941744 172.704809 " transform="matrix(1.399688,0,0,1.400388,-32.684099,156.638508)"/>
</g>
</svg>
