<?xml version="1.0" encoding="UTF-8"?>
<svg xmlns="http://www.w3.org/2000/svg" xmlns:xlink="http://www.w3.org/1999/xlink" width="1000px" height="667px" viewBox="0 0 1000 667" version="1.1">
<g id="surface1">
<rect x="0" y="0" width="1000" height="667" style="fill:rgb(0%,0%,0%);fill-opacity:1;stroke:none;"/>
<path style=" stroke:none;fill-rule:nonzero;fill:rgb(80.784315%,6.666667%,14.901961%);fill-opacity:1;" d="M 0 0 L 1000 0 L 1000 667 Z M 0 0 "/>
<path style=" stroke:none;fill-rule:nonzero;fill:rgb(98.823529%,81.960785%,8.627451%);fill-opacity:1;" d="M 619.121094 193.792969 C 611.734375 202.277344 594.257812 185.257812 573.320312 184.871094 C 552.382812 184.480469 537.550781 202.714844 531.445312 208.921875 C 525.339844 215.128906 505.710938 247.714844 506.144531 251.207031 C 506.582031 254.695312 518.359375 241.507812 522.722656 239.179688 C 523.15625 243.835938 517.921875 249.265625 519.230469 250.816406 C 520.539062 252.371094 534.496094 241.507812 539.296875 241.121094 C 540.605469 244.222656 536.679688 247.328125 537.988281 251.980469 C 539.734375 253.53125 547.585938 244.222656 552.820312 242.285156 C 553.691406 245.777344 548.019531 252.371094 551.074219 256.636719 C 553.253906 257.023438 566.339844 243.449219 570.703125 241.894531 C 575.066406 240.34375 568.519531 254.695312 570.703125 255.859375 C 574.628906 253.53125 586.84375 241.121094 590.769531 239.566406 C 594.695312 238.015625 590.332031 255.472656 592.078125 255.472656 C 596.875 252.371094 609.089844 237.628906 610.398438 235.300781 C 611.707031 232.972656 609.089844 257.800781 622.609375 270.992188 C 636.132812 284.179688 656.636719 299.308594 658.816406 299.308594 C 661.433594 295.042969 657.945312 286.121094 660.125 286.507812 C 666.230469 292.328125 677.570312 300.859375 680.1875 300.859375 C 682.804688 300.859375 678.441406 291.550781 681.933594 291.550781 C 688.914062 297.367188 708.976562 320.257812 748.234375 330.730469 C 745.617188 324.136719 739.945312 318.316406 739.511719 315.214844 C 742.128906 315.601562 751.289062 319.480469 753.035156 319.09375 C 754.777344 318.703125 733.839844 295.816406 735.148438 292.714844 C 739.949219 292.328125 742.128906 295.042969 743.875 293.101562 C 741.691406 290 723.371094 271.765625 723.371094 267.5 C 723.371094 263.230469 729.042969 268.273438 730.789062 267.5 C 732.53125 266.722656 723.808594 250.429688 725.554688 248.492188 C 727.296875 246.550781 746.488281 258.964844 751.289062 258.964844 C 756.085938 258.964844 752.597656 243.835938 754.777344 243.058594 C 756.960938 242.28125 773.101562 251.207031 776.589844 251.207031 C 780.078125 251.207031 779.640625 244.609375 780.949219 245.386719 C 782.257812 246.164062 820.207031 279.914062 807.121094 319.480469 C 794.035156 347.800781 767.867188 362.929688 729.480469 350.515625 C 731.660156 353.617188 752.160156 368.75 774.40625 363.316406 C 796.652344 357.886719 823.695312 342.367188 820.644531 303.578125 C 817.589844 264.785156 803.195312 259.351562 801.015625 253.535156 C 798.835938 247.714844 804.507812 255.085938 809.304688 256.636719 C 814.101562 258.191406 808.429688 248.492188 807.121094 244.222656 C 805.8125 239.957031 821.515625 253.144531 825.441406 254.308594 C 829.367188 255.472656 816.28125 222.5 812.355469 220.171875 C 808.429688 217.84375 816.28125 220.949219 818.898438 221.722656 C 821.515625 222.5 794.90625 185.648438 789.238281 185.648438 C 783.566406 185.648438 794.035156 183.707031 797.089844 183.707031 C 800.144531 183.707031 766.558594 159.65625 760.886719 159.65625 C 755.214844 159.65625 773.097656 153.445312 774.84375 153.058594 C 777.898438 153.445312 736.023438 133.277344 698.507812 153.445312 C 696.328125 151.898438 716.175781 139.675781 716.828125 134.441406 C 717.046875 133.082031 710.289062 130.171875 709.851562 128.621094 C 709.414062 127.070312 720.320312 122.414062 720.753906 118.925781 C 718.136719 115.820312 713.339844 116.984375 710.722656 116.207031 C 710.070312 113.300781 719.882812 106.121094 719.011719 103.019531 C 718.355469 101.273438 711.15625 100.691406 709.414062 101.855469 C 707.667969 103.019531 713.996094 93.710938 712.902344 90.996094 C 712.03125 89.832031 708.542969 90.605469 705.050781 91.382812 C 702.871094 90.996094 716.394531 74.3125 713.777344 71.984375 C 711.160156 69.65625 674.515625 89.054688 660.996094 110.777344 C 647.472656 132.5 657.945312 149.957031 656.199219 157.328125 C 654.453125 164.699219 652.269531 172.070312 646.601562 172.070312 C 640.929688 172.070312 627.847656 164.3125 623.484375 160.433594 C 619.121094 156.554688 618.25 153.835938 612.140625 152.285156 C 606.035156 150.734375 592.078125 155.390625 586.84375 155.777344 C 581.609375 156.164062 561.105469 152.285156 559.796875 153.449219 C 558.488281 154.613281 579.863281 161.597656 584.660156 163.921875 C 589.460938 166.25 589.898438 169.355469 593.386719 171.292969 C 596.875 173.234375 629.589844 181.769531 619.121094 193.792969 Z M 746.925781 248.492188 C 757.394531 257.800781 828.058594 299.695312 828.058594 350.902344 C 828.058594 402.109375 776.585938 400.558594 761.757812 399.007812 C 778.332031 411.417969 841.144531 409.089844 841.144531 350.902344 C 841.144531 299.695312 760.011719 248.492188 749.542969 243.835938 C 739.074219 239.179688 736.457031 239.179688 746.925781 248.492188 Z M 746.925781 248.492188 "/>
<path style=" stroke:none;fill-rule:nonzero;fill:rgb(100%,100%,100%);fill-opacity:1;" d="M 286.789062 484.730469 L 301.703125 442.058594 L 316.621094 485.195312 L 277.34375 458.757812 L 326.066406 458.757812 Z M 286.789062 484.730469 "/>
<path style=" stroke:none;fill-rule:nonzero;fill:rgb(100%,100%,100%);fill-opacity:1;" d="M 250.542969 206.695312 L 220.714844 292.042969 L 299.265625 240.09375 L 201.824219 240.09375 L 280.375 292.96875 Z M 250.542969 206.695312 "/>
<path style=" stroke:none;fill-rule:nonzero;fill:rgb(100%,100%,100%);fill-opacity:1;" d="M 135.960938 336.972656 L 106.132812 422.320312 L 184.683594 370.371094 L 87.238281 370.371094 L 165.789062 423.25 Z M 135.960938 336.972656 "/>
<path style=" stroke:none;fill-rule:nonzero;fill:rgb(100%,100%,100%);fill-opacity:1;" d="M 364.582031 327.710938 L 334.753906 413.054688 L 413.304688 361.105469 L 315.863281 361.105469 L 394.414062 413.984375 Z M 364.582031 327.710938 "/>
<path style=" stroke:none;fill-rule:nonzero;fill:rgb(100%,100%,100%);fill-opacity:1;" d="M 250.542969 512.988281 L 220.714844 598.332031 L 299.265625 546.382812 L 201.824219 546.382812 L 280.375 599.261719 Z M 250.542969 512.988281 "/>
</g>
</svg>
