<?xml version="1.0" encoding="UTF-8"?>
<svg xmlns="http://www.w3.org/2000/svg" xmlns:xlink="http://www.w3.org/1999/xlink" width="1000px" height="667px" viewBox="0 0 1000 667" version="1.1">
<g id="surface1">
<rect x="0" y="0" width="1000" height="667" style="fill:rgb(0%,21.960784%,65.882355%);fill-opacity:1;stroke:none;"/>
<path style=" stroke:none;fill-rule:nonzero;fill:rgb(80.784315%,6.666667%,14.901961%);fill-opacity:1;" d="M 0 333.5 L 1000 333.5 L 1000 667 L 0 667 Z M 0 333.5 "/>
<path style=" stroke:none;fill-rule:nonzero;fill:rgb(100%,100%,100%);fill-opacity:1;" d="M 433.011719 333.5 L 0 667 L 0 0 "/>
<path style=" stroke:none;fill-rule:nonzero;fill:rgb(98.823529%,81.960785%,8.627451%);fill-opacity:1;" d="M 205.554688 333.5 C 205.554688 370.335938 183.167969 400.199219 155.554688 400.199219 C 127.941406 400.199219 105.554688 370.335938 105.554688 333.5 C 105.554688 296.664062 127.941406 266.800781 155.554688 266.800781 C 183.167969 266.800781 205.554688 296.664062 205.554688 333.5 Z M 205.554688 333.5 "/>
<path style=" stroke:none;fill-rule:nonzero;fill:rgb(98.823529%,81.960785%,8.627451%);fill-opacity:1;" d="M 50 333.5 L 56.542969 342.230469 L 155.554688 333.5 L 56.542969 324.769531 Z M 50 333.5 "/>
<path style=" stroke:none;fill-rule:nonzero;fill:rgb(98.823529%,81.960785%,8.627451%);fill-opacity:1;" d="M 61.074219 350.039062 L 66.417969 357.167969 L 155.554688 333.5 Z M 61.074219 350.039062 "/>
<path style=" stroke:none;fill-rule:nonzero;fill:rgb(98.823529%,81.960785%,8.627451%);fill-opacity:1;" d="M 61.074219 316.960938 L 66.417969 309.832031 L 155.554688 333.5 Z M 61.074219 316.960938 "/>
<path style=" stroke:none;fill-rule:nonzero;fill:rgb(98.823529%,81.960785%,8.627451%);fill-opacity:1;" d="M 80.917969 233.929688 L 80.917969 246.277344 L 155.554688 333.5 L 90.171875 233.929688 Z M 80.917969 233.929688 "/>
<path style=" stroke:none;fill-rule:nonzero;fill:rgb(98.823529%,81.960785%,8.627451%);fill-opacity:1;" d="M 79.980469 256.074219 L 79.980469 266.15625 L 155.554688 333.5 Z M 79.980469 256.074219 "/>
<path style=" stroke:none;fill-rule:nonzero;fill:rgb(98.823529%,81.960785%,8.627451%);fill-opacity:1;" d="M 97.515625 232.683594 L 105.070312 232.683594 L 155.554688 333.5 Z M 97.515625 232.683594 "/>
<path style=" stroke:none;fill-rule:nonzero;fill:rgb(98.823529%,81.960785%,8.627451%);fill-opacity:1;" d="M 155.554688 192.6875 L 149.011719 201.417969 L 155.554688 333.5 L 162.101562 201.417969 Z M 155.554688 192.6875 "/>
<path style=" stroke:none;fill-rule:nonzero;fill:rgb(98.823529%,81.960785%,8.627451%);fill-opacity:1;" d="M 143.15625 207.464844 L 137.8125 214.59375 L 155.554688 333.5 Z M 143.15625 207.464844 "/>
<path style=" stroke:none;fill-rule:nonzero;fill:rgb(98.823529%,81.960785%,8.627451%);fill-opacity:1;" d="M 167.953125 207.464844 L 173.296875 214.59375 L 155.554688 333.5 Z M 167.953125 207.464844 "/>
<path style=" stroke:none;fill-rule:nonzero;fill:rgb(98.823529%,81.960785%,8.627451%);fill-opacity:1;" d="M 230.195312 233.929688 L 220.9375 233.929688 L 155.554688 333.5 L 230.195312 246.277344 Z M 230.195312 233.929688 "/>
<path style=" stroke:none;fill-rule:nonzero;fill:rgb(98.823529%,81.960785%,8.627451%);fill-opacity:1;" d="M 213.597656 232.683594 L 206.039062 232.683594 L 155.554688 333.5 Z M 213.597656 232.683594 "/>
<path style=" stroke:none;fill-rule:nonzero;fill:rgb(98.823529%,81.960785%,8.627451%);fill-opacity:1;" d="M 231.128906 256.074219 L 231.128906 266.15625 L 155.554688 333.5 Z M 231.128906 256.074219 "/>
<path style=" stroke:none;fill-rule:nonzero;fill:rgb(98.823529%,81.960785%,8.627451%);fill-opacity:1;" d="M 261.109375 333.5 L 254.566406 324.769531 L 155.554688 333.5 L 254.566406 342.230469 Z M 261.109375 333.5 "/>
<path style=" stroke:none;fill-rule:nonzero;fill:rgb(98.823529%,81.960785%,8.627451%);fill-opacity:1;" d="M 250.035156 316.960938 L 244.691406 309.832031 L 155.554688 333.5 Z M 250.035156 316.960938 "/>
<path style=" stroke:none;fill-rule:nonzero;fill:rgb(98.823529%,81.960785%,8.627451%);fill-opacity:1;" d="M 250.035156 350.039062 L 244.691406 357.167969 L 155.554688 333.5 Z M 250.035156 350.039062 "/>
<path style=" stroke:none;fill-rule:nonzero;fill:rgb(98.823529%,81.960785%,8.627451%);fill-opacity:1;" d="M 230.195312 433.070312 L 230.195312 420.722656 L 155.554688 333.5 L 220.9375 433.070312 Z M 230.195312 433.070312 "/>
<path style=" stroke:none;fill-rule:nonzero;fill:rgb(98.823529%,81.960785%,8.627451%);fill-opacity:1;" d="M 231.128906 410.925781 L 231.128906 400.84375 L 155.554688 333.5 Z M 231.128906 410.925781 "/>
<path style=" stroke:none;fill-rule:nonzero;fill:rgb(98.823529%,81.960785%,8.627451%);fill-opacity:1;" d="M 213.597656 434.316406 L 206.039062 434.316406 L 155.554688 333.5 Z M 213.597656 434.316406 "/>
<path style=" stroke:none;fill-rule:nonzero;fill:rgb(98.823529%,81.960785%,8.627451%);fill-opacity:1;" d="M 155.554688 474.3125 L 162.101562 465.582031 L 155.554688 333.5 L 149.011719 465.582031 Z M 155.554688 474.3125 "/>
<path style=" stroke:none;fill-rule:nonzero;fill:rgb(98.823529%,81.960785%,8.627451%);fill-opacity:1;" d="M 167.953125 459.535156 L 173.296875 452.40625 L 155.554688 333.5 Z M 167.953125 459.535156 "/>
<path style=" stroke:none;fill-rule:nonzero;fill:rgb(98.823529%,81.960785%,8.627451%);fill-opacity:1;" d="M 143.15625 459.535156 L 137.8125 452.40625 L 155.554688 333.5 Z M 143.15625 459.535156 "/>
<path style=" stroke:none;fill-rule:nonzero;fill:rgb(98.823529%,81.960785%,8.627451%);fill-opacity:1;" d="M 80.917969 433.070312 L 90.171875 433.070312 L 155.554688 333.5 L 80.917969 420.722656 Z M 80.917969 433.070312 "/>
<path style=" stroke:none;fill-rule:nonzero;fill:rgb(98.823529%,81.960785%,8.627451%);fill-opacity:1;" d="M 97.515625 434.316406 L 105.070312 434.316406 L 155.554688 333.5 Z M 97.515625 434.316406 "/>
<path style=" stroke:none;fill-rule:nonzero;fill:rgb(98.823529%,81.960785%,8.627451%);fill-opacity:1;" d="M 79.980469 410.925781 L 79.980469 400.84375 L 155.554688 333.5 Z M 79.980469 410.925781 "/>
<path style=" stroke:none;fill-rule:nonzero;fill:rgb(98.823529%,81.960785%,8.627451%);fill-opacity:1;" d="M 383.011719 333.5 L 364.222656 342.214844 L 363.816406 368.746094 L 351.800781 347.597656 L 332.761719 355.28125 L 344.121094 333.5 Z M 383.011719 333.5 "/>
<path style=" stroke:none;fill-rule:nonzero;fill:rgb(98.823529%,81.960785%,8.627451%);fill-opacity:1;" d="M 383.011719 333.5 L 364.222656 324.785156 L 363.816406 298.253906 L 351.800781 319.402344 L 332.761719 311.71875 L 344.121094 333.5 Z M 383.011719 333.5 "/>
<path style=" stroke:none;fill-rule:nonzero;fill:rgb(98.823529%,81.960785%,8.627451%);fill-opacity:1;" d="M 24.996094 609.238281 L 28.730469 583.175781 L 11.710938 569.441406 L 31.449219 566.132812 L 35.980469 540.296875 L 44.4375 564.3125 Z M 24.996094 609.238281 "/>
<path style=" stroke:none;fill-rule:nonzero;fill:rgb(98.823529%,81.960785%,8.627451%);fill-opacity:1;" d="M 24.996094 609.238281 L 40.046875 591.890625 L 57.472656 604.6875 L 49.75 580.230469 L 64.257812 562.078125 L 44.4375 564.3125 Z M 24.996094 609.238281 "/>
<path style=" stroke:none;fill-rule:nonzero;fill:rgb(98.823529%,81.960785%,8.627451%);fill-opacity:1;" d="M 24.996094 57.761719 L 40.046875 75.109375 L 57.472656 62.3125 L 49.75 86.769531 L 64.257812 104.921875 L 44.4375 102.6875 Z M 24.996094 57.761719 "/>
<path style=" stroke:none;fill-rule:nonzero;fill:rgb(98.823529%,81.960785%,8.627451%);fill-opacity:1;" d="M 24.996094 57.761719 L 28.730469 83.824219 L 11.710938 97.558594 L 31.449219 100.867188 L 35.980469 126.703125 L 44.4375 102.6875 Z M 24.996094 57.761719 "/>
</g>
</svg>
