<?xml version="1.0" encoding="UTF-8"?>
<svg xmlns="http://www.w3.org/2000/svg" xmlns:xlink="http://www.w3.org/1999/xlink" width="1000px" height="667px" viewBox="0 0 1000 667" version="1.1">
<defs>
<clipPath id="clip1">
  <path d="M 0 0 L 500 0 L 500 334 L 0 334 Z M 0 0 "/>
</clipPath>
<clipPath id="clip2">
  <path d="M 0 0 L 0 166.75 L 583.332031 166.75 L 583.332031 333.5 L 500 333.5 Z M 500 0 L 250 0 L 250 444.667969 L 0 444.667969 L 0 333.5 Z M 500 0 "/>
</clipPath>
<clipPath id="clip3">
  <path d="M 0 0 L 584 0 L 584 445 L 0 445 Z M 0 0 "/>
</clipPath>
<clipPath id="clip4">
  <path d="M 0 0 L 0 166.75 L 583.332031 166.75 L 583.332031 333.5 L 500 333.5 Z M 500 0 L 250 0 L 250 444.667969 L 0 444.667969 L 0 333.5 Z M 500 0 "/>
</clipPath>
</defs>
<g id="surface1">
<rect x="0" y="0" width="1000" height="667" style="fill:rgb(0.392157%,12.941177%,41.176471%);fill-opacity:1;stroke:none;"/>
<path style="fill-rule:nonzero;fill:rgb(0%,0%,0%);fill-opacity:1;stroke-width:1.5;stroke-linecap:butt;stroke-linejoin:miter;stroke:rgb(100%,100%,100%);stroke-opacity:1;stroke-miterlimit:4;" d="M 0 0 L 15 7.5 M 15 0 L 0 7.5 " transform="matrix(33.333333,0,0,44.466667,0,0)"/>
<g clip-path="url(#clip1)" clip-rule="nonzero">
<g clip-path="url(#clip2)" clip-rule="nonzero">
<path style=" stroke:none;fill-rule:nonzero;fill:rgb(0%,0%,0%);fill-opacity:1;" d="M 0 0 L 500 333.5 M 500 0 L 0 333.5 "/>
</g>
</g>
<g clip-path="url(#clip3)" clip-rule="nonzero">
<g clip-path="url(#clip4)" clip-rule="nonzero">
<path style="fill:none;stroke-width:20;stroke-linecap:butt;stroke-linejoin:miter;stroke:rgb(78.431374%,6.27451%,18.039216%);stroke-opacity:1;stroke-miterlimit:4;" d="M 0 0 L 299.999996 149.999998 M 299.999996 0 L 0 149.999998 " transform="matrix(1.666667,0,0,2.223333,0,0)"/>
</g>
</g>
<path style="fill-rule:nonzero;fill:rgb(0%,0%,0%);fill-opacity:1;stroke-width:2.5;stroke-linecap:butt;stroke-linejoin:miter;stroke:rgb(100%,100%,100%);stroke-opacity:1;stroke-miterlimit:4;" d="M 7.5 0 L 7.5 10.000029 M 0 3.75 L 17.499961 3.75 " transform="matrix(33.333333,0,0,44.466667,0,0)"/>
<path style="fill-rule:nonzero;fill:rgb(0%,0%,0%);fill-opacity:1;stroke-width:1.5;stroke-linecap:butt;stroke-linejoin:miter;stroke:rgb(78.431374%,6.27451%,18.039216%);stroke-opacity:1;stroke-miterlimit:4;" d="M 7.5 0 L 7.5 10.000029 M 0 3.75 L 17.499961 3.75 " transform="matrix(33.333333,0,0,44.466667,0,0)"/>
<path style=" stroke:none;fill-rule:nonzero;fill:rgb(0.392157%,12.941177%,41.176471%);fill-opacity:1;" d="M 500 0 L 500 333.5 L 0 333.5 L 0 667 L 1000 667 L 1000 0 Z M 500 0 "/>
<path style="fill-rule:nonzero;fill:rgb(96.862745%,87.843138%,9.019608%);fill-opacity:1;stroke-width:0.015;stroke-linecap:butt;stroke-linejoin:miter;stroke:rgb(0%,0%,0%);stroke-opacity:1;stroke-miterlimit:4;" d="M 20.017969 7.953992 C 19.698047 8.224999 19.393008 8.621012 19.318008 8.978987 C 19.106953 9.985974 18.826992 10.209983 18.395039 9.993968 C 18.395039 10.535016 18.868945 10.57604 19.076953 10.259968 C 19.076953 10.767019 19.261055 11.207043 19.676016 11.581973 C 19.850977 11.740009 19.884023 11.631957 19.801055 11.456967 C 19.717969 11.281976 19.717969 10.717034 19.552031 10.392968 C 19.818047 10.584034 20.208984 10.475983 20.176055 9.951977 C 19.835039 10.152004 19.496016 10.14401 19.460977 9.669023 C 19.417969 9.111987 19.635 8.303007 20.017969 7.953992 Z M 19.612969 3.948973 C 19.636055 3.749034 19.593047 3.543999 19.447031 3.415041 C 19.164961 3.166961 18.888984 3.24901 18.682969 3.449037 C 18.375 3.283007 18.211992 3.872019 17.863008 3.773016 C 17.921016 3.963995 18.013008 4.04701 18.187031 3.981037 C 18.003984 4.146979 18.187031 4.347006 17.971055 4.545979 C 18.361992 4.670985 18.57 4.45497 18.553008 4.08004 C 18.703008 4.21304 18.935039 4.204958 19.059961 4.055004 C 18.851953 3.987977 18.851016 3.807979 18.935039 3.638962 C 19.059961 3.390004 19.646016 3.400019 19.612969 3.948973 Z M 19.612969 3.948973 " transform="matrix(33.333333,0,0,44.466667,0,0)"/>
<path style="fill-rule:nonzero;fill:rgb(20%,45.09804%,12.941177%);fill-opacity:1;stroke-width:0.015;stroke-linecap:butt;stroke-linejoin:miter;stroke:rgb(0%,0%,0%);stroke-opacity:1;stroke-miterlimit:4;" d="M 20.514961 6.842028 C 20.073984 7.074998 19.267969 6.975028 19.192969 6.401038 C 19.117969 5.82696 19.674961 5.569042 19.824961 5.494987 C 20.058047 5.377975 20.240977 5.585996 20.165977 5.828014 C 20.27625 5.789888 20.362734 5.70292 20.400117 5.592409 C 20.4375 5.48181 20.421563 5.36023 20.356992 5.262984 C 20.698008 5.28802 21.013945 5.030014 21.146953 4.663957 C 21.026953 4.777982 20.701055 4.701028 20.433047 4.683986 C 20.516016 4.592977 20.514961 4.415 20.49 4.323024 C 20.208047 4.613006 19.8 4.480006 19.26 5.319996 C 19.342969 5.02896 19.501055 4.446976 19.593047 4.063964 C 19.601953 4.026014 19.608984 3.987977 19.614023 3.948973 C 19.646016 3.400019 19.061016 3.390004 18.935977 3.640016 C 19.072969 3.794011 19.001016 3.974009 18.952031 4.247037 C 18.894023 4.571015 18.768984 5.319996 18.661055 5.569042 C 18.628008 5.178036 18.369961 5.153 18.320039 4.962021 C 18.245039 5.012006 18.204023 5.145006 18.219961 5.236015 C 18.127969 5.135957 17.812031 5.260963 17.696016 5.111009 C 17.570977 5.359967 17.771016 5.609978 17.979023 5.71803 C 17.857969 5.726024 17.829023 5.872025 17.696016 5.872025 C 17.874961 6.079958 18.058008 6.162973 18.27 6.180015 C 18.481992 6.19697 18.639961 6.276032 18.768984 6.532984 C 18.976992 6.949992 19.768945 7.220033 20.514961 6.842028 Z M 20.514961 6.842028 " transform="matrix(33.333333,0,0,44.466667,0,0)"/>
<path style="fill-rule:nonzero;fill:rgb(96.862745%,87.843138%,9.019608%);fill-opacity:1;stroke-width:0.015;stroke-linecap:butt;stroke-linejoin:miter;stroke:rgb(0%,0%,0%);stroke-opacity:1;stroke-miterlimit:4;" d="M 21.613008 6.334011 C 21.363984 7.023959 20.681953 7.515022 20.373984 7.590043 C 19.850039 7.716981 18.781992 8.23598 18.496055 8.503034 C 18.453984 8.494776 18.413906 8.478437 18.378047 8.454981 C 18.236953 8.355012 18.12 8.031033 18.369961 7.755985 C 19.151953 7.023959 19.991953 7.340031 20.516016 6.840974 C 20.075039 7.074031 19.269023 6.973974 19.194023 6.399984 C 19.923867 6.589732 20.698711 6.359047 21.206016 5.800957 C 21.296953 5.901981 21.562969 6.217965 21.613008 6.334011 Z M 21.613008 6.334011 " transform="matrix(33.333333,0,0,44.466667,0,0)"/>
<path style="fill-rule:nonzero;fill:rgb(20%,45.09804%,12.941177%);fill-opacity:1;stroke-width:0.015;stroke-linecap:butt;stroke-linejoin:miter;stroke:rgb(0%,0%,0%);stroke-opacity:1;stroke-miterlimit:4;" d="M 20.017969 7.953992 C 19.623047 8.289039 19.417969 9.111987 19.460039 9.669023 C 19.471992 9.823984 19.515 9.928961 19.580977 9.993002 C 19.610039 9.677017 19.83 8.860043 20.390977 8.496006 C 20.865 8.188015 21.605039 7.49798 21.879961 6.707974 C 21.827813 6.562676 21.724336 6.441447 21.588984 6.367041 C 21.316055 7.113035 20.587031 7.471011 20.017969 7.953992 Z M 20.017969 7.953992 " transform="matrix(33.333333,0,0,44.466667,0,0)"/>
<path style="fill-rule:nonzero;fill:rgb(19.215687%,42.745098%,22.745098%);fill-opacity:1;stroke-width:0.015;stroke-linecap:butt;stroke-linejoin:miter;stroke:rgb(0%,0%,0%);stroke-opacity:1;stroke-miterlimit:4;" d="M 21.358945 6.013985 C 21.163477 6.286398 20.897695 6.500656 20.589961 6.634007 C 20.6475 6.563642 20.679609 6.475883 20.681016 6.384962 C 20.289961 6.535004 19.507969 6.517962 19.192031 6.402004 C 19.921875 6.591753 20.696719 6.361068 21.204023 5.802977 C 21.271992 5.877032 21.33 5.943005 21.358945 6.013985 Z M 21.358945 6.013985 " transform="matrix(33.333333,0,0,44.466667,0,0)"/>
<path style="fill-rule:nonzero;fill:rgb(20%,45.09804%,12.941177%);fill-opacity:1;stroke-width:0.015;stroke-linecap:butt;stroke-linejoin:miter;stroke:rgb(0%,0%,0%);stroke-opacity:1;stroke-miterlimit:4;" d="M 18.369961 7.755985 C 17.733984 8.350971 18.153984 8.869969 18.403008 8.986981 C 18.337031 9.403023 18.727031 9.353038 18.718945 9.701965 C 18.877031 9.610956 18.918984 9.369026 18.894023 9.17796 C 19.093945 9.393975 19.601016 9.153011 19.708945 9.552011 C 19.775977 9.111021 19.434961 8.670997 19.010977 8.712021 C 19.186055 8.553985 19.085977 8.295979 18.920039 8.230006 C 18.886992 8.553985 18.521016 8.553985 18.378984 8.454981 C 18.236953 8.355012 18.12 8.031033 18.369961 7.755985 Z M 18.369961 7.755985 " transform="matrix(33.333333,0,0,44.466667,0,0)"/>
<path style="fill-rule:nonzero;fill:rgb(96.862745%,87.843138%,9.019608%);fill-opacity:1;stroke-width:0.015;stroke-linecap:butt;stroke-linejoin:miter;stroke:rgb(0%,0%,0%);stroke-opacity:1;stroke-miterlimit:4;" d="M 19.745977 11.539982 C 19.676953 11.58004 19.681992 11.669029 19.725 11.727008 C 19.811953 11.842965 19.663008 12.107032 19.944961 12.163957 C 20.028047 12.180999 20.092031 12.12996 20.124023 12.034998 C 20.210977 11.773039 19.933008 11.743962 19.908047 11.618956 C 19.882969 11.494038 19.803984 11.507039 19.745977 11.539982 Z M 19.745977 11.539982 " transform="matrix(33.333333,0,0,44.466667,0,0)"/>
<path style="fill-rule:nonzero;fill:rgb(96.862745%,87.843138%,9.019608%);fill-opacity:1;stroke-width:0.015;stroke-linecap:butt;stroke-linejoin:miter;stroke:rgb(0%,0%,0%);stroke-opacity:1;stroke-miterlimit:4;" d="M 19.983047 12.030957 C 19.89 12.074002 19.807969 12.134968 19.846055 12.433998 C 19.861055 12.558037 19.854023 12.858034 19.745977 12.861987 C 19.811953 12.895017 19.953984 12.931034 20.011992 12.853993 C 20.068008 12.947989 20.195039 12.92102 20.244961 12.804008 C 20.311055 12.858034 20.403047 12.767025 20.403047 12.687963 C 20.461055 12.725034 20.578008 12.671008 20.548008 12.493031 C 20.619023 12.517979 20.709961 12.467995 20.743008 12.421963 C 20.638945 12.400967 20.377031 12.259974 20.315039 12.147969 C 20.253047 12.034998 20.090977 11.980972 19.983047 12.030957 Z M 19.983047 12.030957 " transform="matrix(33.333333,0,0,44.466667,0,0)"/>
<path style="fill:none;stroke-width:0.015;stroke-linecap:butt;stroke-linejoin:miter;stroke:rgb(0%,0%,0%);stroke-opacity:1;stroke-miterlimit:4;" d="M 18.541992 3.619987 C 18.583945 3.557967 18.631055 3.499988 18.682969 3.449037 M 20.124023 4.72097 C 20.197031 4.678979 20.308945 4.673972 20.433047 4.681966 M 20.011992 12.853993 C 19.983047 12.812002 19.972031 12.637978 19.993008 12.532035 M 20.244961 12.804008 C 20.169609 12.734258 20.117812 12.642634 20.096953 12.541961 M 20.403047 12.687963 C 20.345039 12.660994 20.203008 12.478009 20.171953 12.360031 M 20.548008 12.491977 C 20.399766 12.43066 20.2725 12.327528 20.182031 12.194967 " transform="matrix(33.333333,0,0,44.466667,0,0)"/>
<path style="fill-rule:nonzero;fill:rgb(96.862745%,87.843138%,9.019608%);fill-opacity:1;stroke-width:0.015;stroke-linecap:butt;stroke-linejoin:miter;stroke:rgb(0%,0%,0%);stroke-opacity:1;stroke-miterlimit:4;" d="M 24.382031 7.765033 C 25.404961 8.621978 25.471055 9.302966 25.312969 9.70302 C 25.23 9.328968 24.806016 8.746984 24.365039 8.59703 Z M 24.382031 7.765033 " transform="matrix(33.333333,0,0,44.466667,0,0)"/>
<path style="fill-rule:nonzero;fill:rgb(20%,45.09804%,12.941177%);fill-opacity:1;stroke-width:0.015;stroke-linecap:butt;stroke-linejoin:miter;stroke:rgb(0%,0%,0%);stroke-opacity:1;stroke-miterlimit:4;" d="M 22.552969 7.281964 L 24.448945 7.281964 L 24.448945 9.526975 C 24.448945 11.440012 23.385 12.571039 22.303008 13.169011 C 21.221953 12.569985 20.156953 11.438958 20.156953 9.526975 L 20.156953 7.281964 L 21.487969 7.281964 C 21.482812 7.450015 21.535781 7.61464 21.637969 7.747991 C 21.952031 7.716981 22.306992 7.481991 22.552969 7.281964 Z M 22.552969 7.281964 " transform="matrix(33.333333,0,0,44.466667,0,0)"/>
<path style="fill-rule:nonzero;fill:rgb(0%,43.137255%,78.039217%);fill-opacity:1;stroke-width:0.015;stroke-linecap:butt;stroke-linejoin:miter;stroke:rgb(0%,0%,0%);stroke-opacity:1;stroke-miterlimit:4;" d="M 24.448945 7.281964 L 24.448945 9.526975 C 24.448945 10.10404 24.352031 10.611003 24.187031 11.051994 L 22.303945 7.596983 L 20.420977 11.051994 C 20.242734 10.563566 20.154023 10.046939 20.158945 9.526975 L 20.158945 7.281964 Z M 24.448945 7.281964 " transform="matrix(33.333333,0,0,44.466667,0,0)"/>
<path style=" stroke:none;fill-rule:nonzero;fill:rgb(96.862745%,87.843138%,9.019608%);fill-opacity:1;" d="M 808.132812 484.109375 C 806.769531 489.671875 805.210938 495.144531 803.464844 500.515625 L 743.464844 351.730469 L 683.464844 500.515625 C 681.707031 495.152344 680.152344 489.679688 678.800781 484.109375 L 743.5 324.117188 Z M 808.132812 484.109375 "/>
<path style="fill-rule:nonzero;fill:rgb(96.862745%,87.843138%,9.019608%);fill-opacity:1;stroke-width:0.015;stroke-linecap:butt;stroke-linejoin:miter;stroke:rgb(0%,0%,0%);stroke-opacity:1;stroke-miterlimit:4;" d="M 23.158945 12.118013 C 23.208984 12.142962 23.300977 12.188993 23.341992 12.206036 C 23.441953 12.006009 23.458008 11.724021 23.424961 11.474009 C 23.317031 11.748969 22.951055 11.740009 22.850977 11.906039 C 22.912031 11.936961 22.968984 11.977019 23.017969 12.011982 C 22.893047 12.136988 22.601016 12.345975 22.434961 12.39596 L 22.434961 10.611969 C 22.434961 10.486964 22.393008 10.383041 22.393008 10.27903 L 22.393008 9.909986 C 22.393008 9.826971 22.376016 9.706006 22.301953 9.706006 C 22.226953 9.706006 22.211016 9.826971 22.211016 9.909986 L 22.211016 10.27903 C 22.211016 10.383041 22.168945 10.504006 22.168945 10.611969 L 22.168945 12.39596 C 22.078008 12.12996 21.718945 12.22097 21.553008 11.95497 C 21.618281 11.93784 21.686484 11.935116 21.753047 11.946976 C 21.628008 11.523028 21.286992 11.489997 21.221016 11.364991 C 21.221016 11.539982 21.146016 11.946976 21.262969 12.121966 C 21.295195 12.085246 21.333398 12.054149 21.376055 12.029991 C 21.517031 12.337981 22.153008 12.339036 22.303008 12.845999 C 22.423008 12.658973 22.856016 12.442958 23.158945 12.118013 Z M 23.158945 12.118013 " transform="matrix(33.333333,0,0,44.466667,0,0)"/>
<path style="fill-rule:nonzero;fill:rgb(96.862745%,87.843138%,9.019608%);fill-opacity:1;stroke-width:0.015;stroke-linecap:butt;stroke-linejoin:miter;stroke:rgb(0%,0%,0%);stroke-opacity:1;stroke-miterlimit:4;" d="M 22.303008 10.634019 C 22.443984 10.634019 22.893047 10.587987 23.056055 10.587987 C 23.098008 10.587987 23.133047 10.525001 23.133047 10.446993 C 23.133047 10.368985 23.098945 10.305999 23.056055 10.305999 C 22.893984 10.305999 22.445039 10.259968 22.303008 10.259968 C 22.162031 10.259968 21.712969 10.305999 21.549961 10.305999 C 21.508008 10.305999 21.472969 10.368985 21.472969 10.446993 C 21.472969 10.525001 21.506953 10.587987 21.549961 10.587987 C 21.712969 10.587987 22.162031 10.634019 22.303008 10.634019 Z M 22.303008 10.634019 " transform="matrix(33.333333,0,0,44.466667,0,0)"/>
<path style="fill-rule:nonzero;fill:rgb(96.862745%,87.843138%,9.019608%);fill-opacity:1;stroke-width:0.015;stroke-linecap:butt;stroke-linejoin:miter;stroke:rgb(0%,0%,0%);stroke-opacity:1;stroke-miterlimit:4;" d="M 22.211953 9.902959 C 22.179844 9.877483 22.14 9.863779 22.098984 9.864043 C 22.005 9.864043 21.928008 9.933969 21.928008 10.01997 C 21.928008 10.105972 22.003945 10.175986 22.098984 10.175986 C 22.192969 10.175986 22.269023 10.105972 22.269023 10.01997 C 22.269023 9.953031 22.366055 9.953031 22.366055 10.01997 C 22.366055 10.154991 22.246055 10.264009 22.098984 10.264009 C 21.950977 10.264009 21.832031 10.154991 21.832031 10.01997 C 21.832031 9.885038 21.952031 9.77602 22.098984 9.77602 C 22.143047 9.77602 22.185 9.786035 22.222031 9.802989 C 22.218984 9.825039 22.211953 9.867029 22.211953 9.902959 Z M 21.551016 10.587987 C 21.592969 10.587987 21.626953 10.525001 21.626953 10.446993 C 21.626953 10.368985 21.592969 10.305999 21.551016 10.305999 " transform="matrix(33.333333,0,0,44.466667,0,0)"/>
<path style="fill-rule:nonzero;fill:rgb(96.862745%,87.843138%,9.019608%);fill-opacity:1;stroke-width:0.015;stroke-linecap:butt;stroke-linejoin:miter;stroke:rgb(0%,0%,0%);stroke-opacity:1;stroke-miterlimit:4;" d="M 21.613008 10.587987 C 21.654961 10.587987 21.688945 10.525001 21.688945 10.446993 C 21.688945 10.368985 21.654961 10.305999 21.613008 10.305999 M 22.023984 10.616977 C 22.074961 10.616977 22.115977 10.540989 22.115977 10.446993 C 22.115977 10.352997 22.074961 10.27701 22.023984 10.27701 M 22.119023 10.624004 C 22.171992 10.624004 22.215 10.543976 22.215 10.446027 C 22.215 10.34799 22.171992 10.267962 22.119023 10.267962 M 22.438945 10.626025 C 22.492969 10.626025 22.535977 10.54503 22.535977 10.446027 C 22.535977 10.347024 22.492031 10.266029 22.438945 10.266029 M 22.539023 10.621018 C 22.591992 10.621018 22.635 10.54301 22.635 10.446993 C 22.635 10.350977 22.591992 10.272969 22.539023 10.272969 M 22.985977 10.590008 C 23.028984 10.590008 23.064023 10.525967 23.064023 10.446027 C 23.064023 10.365999 23.028984 10.301958 22.985977 10.301958 M 21.376055 12.029991 C 21.431133 11.99617 21.491133 11.971221 21.553945 11.956024 M 23.068008 12.047033 L 23.019023 12.011982 M 23.158945 12.118013 C 23.274961 11.993007 23.371992 11.852013 23.426016 11.690024 " transform="matrix(33.333333,0,0,44.466667,0,0)"/>
<path style="fill-rule:nonzero;fill:rgb(100%,100%,100%);fill-opacity:1;stroke-width:0.015;stroke-linecap:butt;stroke-linejoin:miter;stroke:rgb(0%,0%,0%);stroke-opacity:1;stroke-miterlimit:4;" d="M 21.922031 8.869969 C 21.922031 8.829033 21.954961 8.81199 21.993984 8.783001 C 22.040977 8.748038 22.059961 8.730996 22.102031 8.730996 L 22.648008 8.730996 C 22.687969 8.730996 22.698047 8.74101 22.698047 8.77896 L 22.698047 9.520035 C 22.698047 9.557018 22.689023 9.567999 22.648008 9.567999 L 21.922031 9.567999 L 21.922031 8.861975 " transform="matrix(33.333333,0,0,44.466667,0,0)"/>
<path style="fill-rule:nonzero;fill:rgb(89.803922%,89.803922%,89.803922%);fill-opacity:1;stroke-width:0.015;stroke-linecap:butt;stroke-linejoin:miter;stroke:rgb(0%,0%,0%);stroke-opacity:1;stroke-miterlimit:4;" d="M 22.513008 9.633006 C 22.584961 9.633006 22.571953 9.630985 22.621992 9.581001 C 22.674961 9.528995 22.670039 9.533036 22.670039 9.484984 L 22.670039 8.806017 C 22.670039 8.770966 22.661016 8.761039 22.623984 8.761039 L 22.119023 8.761039 C 22.078945 8.761039 22.061953 8.777028 22.018945 8.80997 C 21.982969 8.837027 21.952969 8.853981 21.952969 8.892019 L 21.952969 9.633006 Z M 22.513008 9.633006 " transform="matrix(33.333333,0,0,44.466667,0,0)"/>
<path style="fill-rule:nonzero;fill:rgb(100%,100%,100%);fill-opacity:1;stroke-width:0.015;stroke-linecap:butt;stroke-linejoin:miter;stroke:rgb(0%,0%,0%);stroke-opacity:1;stroke-miterlimit:4;" d="M 22.567031 9.617018 C 22.567031 9.654001 22.558008 9.664982 22.516992 9.664982 L 21.971016 9.664982 C 21.93 9.664982 21.922031 9.654967 21.922031 9.617018 L 21.922031 8.874977 C 21.922031 8.837993 21.931055 8.827012 21.971016 8.827012 L 22.516992 8.827012 C 22.558008 8.827012 22.567031 8.837027 22.567031 8.874977 Z M 22.567031 9.617018 " transform="matrix(33.333333,0,0,44.466667,0,0)"/>
<path style="fill-rule:nonzero;fill:rgb(58.823532%,52.941179%,49.019608%);fill-opacity:1;stroke-width:0.015;stroke-linecap:butt;stroke-linejoin:miter;stroke:rgb(0%,0%,0%);stroke-opacity:1;stroke-miterlimit:4;" d="M 23.625 6.847035 C 23.73293 6.964135 23.765039 7.132274 23.707969 7.280998 L 23.55 7.280998 C 23.615977 7.080971 23.574961 6.890959 23.291953 6.86601 C 22.869023 6.829027 22.376953 7.648022 21.637031 7.747025 C 21.421055 7.489019 21.431953 6.997956 21.706992 6.764987 C 21.564961 6.355972 21.266016 5.906022 21.058008 5.711968 C 20.927812 5.690182 20.795859 5.681134 20.664023 5.684999 C 20.771953 5.45203 21.080039 5.207025 21.33 5.106968 C 21.369961 5.048023 21.414023 4.99101 21.453984 4.939971 C 21.478945 4.620034 23.000977 4.769988 23.325 4.968961 C 23.326055 5.32799 23.467031 6.522969 23.625 6.847035 Z M 23.625 6.847035 " transform="matrix(33.333333,0,0,44.466667,0,0)"/>
<path style=" stroke:none;fill-rule:nonzero;fill:rgb(0%,0%,0%);fill-opacity:1;" d="M 726.035156 314.203125 C 724.832031 289.566406 717.367188 269.246094 706.867188 255.417969 C 711.867188 257.285156 722.101562 257.285156 729.035156 250.613281 C 738.167969 242.476562 762.035156 228.246094 770.765625 234.339844 C 771.464844 236.386719 771.867188 241.007812 771.332031 243.945312 C 769.265625 236.5625 746.234375 247.992188 739.734375 251.503906 C 733.5 255.371094 730.734375 260.574219 732.933594 272.226562 C 729.332031 268.179688 730.566406 264.265625 726.832031 261.332031 C 728.332031 266.132812 729.566406 274.804688 730 281.828125 C 728.601562 276.847656 726.132812 266.132812 720.699219 259.820312 C 725.398438 272.003906 729.5 301.304688 727.566406 316.871094 C 731.300781 316.871094 739.566406 311.976562 742.867188 308.464844 C 739.964844 314.023438 731.566406 317.890625 726.167969 319.359375 C 723.734375 323.226562 722.066406 333.234375 722.199219 338.792969 C 721.832031 331.945312 723.433594 315.269531 726.035156 314.203125 Z M 787.5 304.464844 C 782.898438 297.660156 774.332031 293.96875 763.398438 297.925781 C 765.066406 296.816406 768.667969 294.949219 771.867188 294.234375 C 771.464844 290.367188 768.832031 273.691406 768.398438 269.644531 L 771.464844 268 C 773 278.003906 774.933594 289.433594 776.167969 294.058594 C 777.132812 294.414062 779.367188 294.992188 781.300781 296.28125 C 780.464844 292.414062 775.765625 264.488281 775.898438 261.507812 L 780.066406 258.527344 C 781.699219 273.691406 784.332031 295.703125 787.5 304.464844 Z M 787.5 304.464844 "/>
<path style="fill-rule:nonzero;fill:rgb(58.823532%,52.941179%,49.019608%);fill-opacity:1;stroke-width:0.015;stroke-linecap:butt;stroke-linejoin:miter;stroke:rgb(0%,0%,0%);stroke-opacity:1;stroke-miterlimit:4;" d="M 23.551055 7.281964 C 23.617031 7.082025 23.576016 6.892013 23.293008 6.866977 C 23.073984 6.848002 22.835977 7.06103 22.554961 7.281964 Z M 21.712969 5.48998 C 21.52957 5.502542 21.345352 5.48427 21.168047 5.436042 C 21.177773 5.395457 21.191484 5.355926 21.208945 5.317976 C 21.121992 5.376042 20.956055 5.48998 20.893008 5.569042 C 21.093047 5.611032 21.504961 5.632028 21.712969 5.48998 Z M 21.712969 5.48998 " transform="matrix(33.333333,0,0,44.466667,0,0)"/>
<path style="fill:none;stroke-width:0.015;stroke-linecap:butt;stroke-linejoin:miter;stroke:rgb(0%,0%,0%);stroke-opacity:1;stroke-miterlimit:4;" d="M 21.708047 6.766041 C 21.753984 6.899041 21.783984 7.027033 21.787969 7.140971 M 21.331055 5.108022 C 21.256055 5.218006 21.189961 5.335984 21.168047 5.436042 C 21.309023 5.481986 21.588047 5.507022 21.712969 5.48998 " transform="matrix(33.333333,0,0,44.466667,0,0)"/>
<path style="fill:none;stroke-width:0.015;stroke-linecap:butt;stroke-linejoin:miter;stroke:rgb(0%,0%,0%);stroke-opacity:1;stroke-miterlimit:4;" d="M 21.058945 5.713022 C 21.112969 5.721983 21.163008 5.731997 21.206016 5.744032 C 21.356016 5.786023 21.663047 5.786023 21.871055 5.635981 C 22.078945 5.486027 22.644023 5.020966 23.285039 4.970981 " transform="matrix(33.333333,0,0,44.466667,0,0)"/>
<path style="fill:none;stroke-width:0.015;stroke-linecap:butt;stroke-linejoin:miter;stroke:rgb(0%,0%,0%);stroke-opacity:1;stroke-miterlimit:4;" d="M 20.893945 5.569042 C 21.093984 5.611032 21.506016 5.630974 21.712969 5.48998 C 22.194961 5.16196 22.661016 4.970015 23.126953 4.944979 " transform="matrix(33.333333,0,0,44.466667,0,0)"/>
<path style="fill-rule:nonzero;fill:rgb(20%,45.09804%,12.941177%);fill-opacity:1;stroke-width:0.015;stroke-linecap:butt;stroke-linejoin:miter;stroke:rgb(0%,0%,0%);stroke-opacity:1;stroke-miterlimit:4;" d="M 24.382031 7.765033 C 25.08 8.246961 25.595977 8.712987 25.745977 9.461002 C 25.895977 10.209017 26.178984 10.409044 26.527969 10.209017 C 26.445 10.640959 26.011992 10.691031 25.646953 10.358971 C 25.68 10.858028 25.481016 11.456967 24.965039 11.672982 C 24.931992 11.37404 25.130039 11.137029 25.072969 10.890971 C 25.048008 10.783007 25.040039 10.532995 25.181016 10.417038 C 24.907031 10.507959 24.474023 10.334022 24.433008 9.925975 C 24.748945 10.076017 25.156055 10.100965 25.314023 9.700999 C 25.471055 9.302966 25.404961 8.621012 24.382031 7.765033 Z M 25.263984 3.872985 C 25.479961 3.308043 26.045977 3.366022 26.236992 3.606986 C 26.793984 3.291001 26.868984 4.005985 27.343008 3.864991 C 27.335039 3.997991 27.176953 4.122997 27.001992 4.114037 C 27.185039 4.279979 26.926992 4.529991 27.318047 4.678979 C 26.985 4.845009 26.52 4.670985 26.394961 4.21304 C 26.287031 4.428967 25.895977 4.428967 25.738008 4.255031 C 26.079023 4.164022 26.053945 3.848037 25.863047 3.723031 C 25.670039 3.596971 25.329961 3.64801 25.263984 3.872985 Z M 23.576953 5.118037 C 23.731992 5.617972 24.052969 6.083999 24.399023 6.401038 C 24.798047 6.767007 25.400977 6.675032 25.738008 6.326017 C 25.745977 7.022026 25.025039 7.075964 24.624023 6.858016 C 24.446953 6.762 24.303984 6.811985 24.474023 6.96598 C 24.731953 7.199037 25.295977 7.372007 25.961953 7.515022 C 27.125977 7.763979 26.711016 8.688039 26.37 8.678991 C 26.467969 8.67697 26.548008 8.57498 26.407031 8.448042 C 25.396992 7.539004 23.343047 7.896979 23.375977 5.867984 C 23.16 6.399984 22.269961 6.191963 22.685977 5.559993 C 22.818984 5.667957 23.051953 5.676039 23.118984 5.510009 C 23.171016 5.380962 23.137031 5.155986 22.903945 4.962021 C 22.942031 4.959034 23.025 4.962021 23.015977 4.866004 C 23.026055 4.921963 23.077031 5.004978 23.208047 4.977043 C 23.244961 5.035988 23.285039 5.074992 23.338008 5.053996 C 23.347969 5.050043 23.379961 5.033967 23.366953 4.975022 C 23.377031 5.087027 23.508047 5.126031 23.576953 5.118037 Z M 23.576953 5.118037 " transform="matrix(33.333333,0,0,44.466667,0,0)"/>
<path style="fill-rule:nonzero;fill:rgb(96.862745%,87.843138%,9.019608%);fill-opacity:1;stroke-width:0.015;stroke-linecap:butt;stroke-linejoin:miter;stroke:rgb(0%,0%,0%);stroke-opacity:1;stroke-miterlimit:4;" d="M 24.622969 6.858016 C 25.104961 7.174001 25.651055 7.174001 26.152969 6.592016 C 26.311055 6.409032 26.559961 6.250996 26.735039 6.234041 C 26.91 6.216999 26.900977 6.050969 27.033984 6.018026 C 26.951016 5.99299 26.917969 5.89302 26.793047 5.906022 C 27.105 5.79797 27.013008 5.547958 27.166992 5.42796 C 27.041953 5.473992 26.846953 5.286966 26.668008 5.523976 C 26.713945 5.416013 26.651016 5.286966 26.606016 5.236981 C 26.623008 5.361987 26.360977 5.387023 26.311055 5.703008 C 26.283047 5.880019 26.186016 5.869038 26.169961 5.594956 C 26.158008 5.393963 26.062031 4.837981 25.946016 4.555993 C 25.83 4.273039 25.803047 3.88502 25.961016 3.827042 C 25.936641 3.785841 25.903125 3.750966 25.863047 3.724964 C 25.670039 3.598992 25.331016 3.65003 25.263984 3.875006 C 25.048008 4.440036 25.655039 4.764981 25.605 5.379996 C 25.513945 4.923017 24.772969 4.806005 24.781992 4.357021 C 24.541055 4.464984 24.573984 4.665011 24.665977 4.82296 C 24.515977 4.58999 24.174961 4.973002 23.883984 4.657017 C 23.851055 5.072971 24.217031 5.231008 24.515977 5.246996 C 24.365977 5.512995 24.566016 5.737971 24.765 5.812026 C 24.772969 5.345999 25.728047 5.536978 25.738008 6.336031 C 25.745977 7.015965 25.014023 7.074031 24.622969 6.858016 Z M 25.961953 7.515022 C 27.125977 7.763979 26.711016 8.688039 26.37 8.678991 C 26.152969 8.673983 25.946016 8.491965 25.933008 8.334017 C 25.683984 8.467016 25.749961 8.728975 25.940977 8.832986 C 25.417031 8.770966 25.196953 9.116028 25.183945 9.494032 C 25.280039 9.319042 25.571016 9.307007 25.678945 9.34399 C 25.786992 9.380974 26.066016 9.401969 26.178047 9.276963 C 26.086055 9.356025 26.236055 9.53901 26.107031 9.680004 C 26.544023 9.662961 26.735039 9.255968 26.660039 9.077024 C 27.226055 8.563033 27.118008 7.723043 25.961953 7.515022 Z M 25.076016 11.466015 C 25.151953 11.513013 25.141992 11.612983 25.091016 11.675969 C 24.988008 11.802029 25.143047 12.102991 24.826055 12.15403 C 24.731953 12.168964 24.663047 12.108965 24.631992 12.001968 C 24.545977 11.706012 24.858047 11.685983 24.890977 11.54701 C 24.924961 11.409003 25.012031 11.425957 25.076016 11.466015 Z M 25.076016 11.466015 " transform="matrix(33.333333,0,0,44.466667,0,0)"/>
<path style="fill-rule:nonzero;fill:rgb(96.862745%,87.843138%,9.019608%);fill-opacity:1;stroke-width:0.015;stroke-linecap:butt;stroke-linejoin:miter;stroke:rgb(0%,0%,0%);stroke-opacity:1;stroke-miterlimit:4;" d="M 24.789961 12.003022 C 24.892031 12.055027 24.980039 12.126974 24.926016 12.459034 C 24.903047 12.597041 24.898008 12.932001 25.018945 12.940961 C 24.943008 12.974958 24.783984 13.007988 24.721992 12.919966 C 24.654961 13.022044 24.515039 12.986027 24.463945 12.853993 C 24.386953 12.911005 24.288984 12.804974 24.292969 12.71704 C 24.226055 12.756044 24.099023 12.691037 24.138984 12.493031 C 24.058945 12.517979 23.958984 12.45798 23.923945 12.405975 C 24.041016 12.387 24.339023 12.240999 24.414023 12.118013 C 24.487969 11.995994 24.671016 11.943023 24.789961 12.003022 Z M 24.789961 12.003022 " transform="matrix(33.333333,0,0,44.466667,0,0)"/>
<path style="fill:none;stroke-width:0.015;stroke-linecap:butt;stroke-linejoin:miter;stroke:rgb(0%,0%,0%);stroke-opacity:1;stroke-miterlimit:4;" d="M 24.721055 12.92102 C 24.755039 12.876042 24.774961 12.681023 24.755977 12.56199 M 24.463945 12.854959 C 24.55125 12.780553 24.612891 12.680496 24.639961 12.569018 M 24.292031 12.718006 C 24.358008 12.689983 24.523945 12.491977 24.564023 12.360997 M 24.138047 12.493997 C 24.215039 12.480996 24.455977 12.337015 24.558984 12.178013 " transform="matrix(33.333333,0,0,44.466667,0,0)"/>
<path style="fill-rule:nonzero;fill:rgb(96.862745%,87.843138%,9.019608%);fill-opacity:1;stroke-width:0.015;stroke-linecap:butt;stroke-linejoin:miter;stroke:rgb(0%,0%,0%);stroke-opacity:1;stroke-miterlimit:4;" d="M 23.375977 5.869038 C 23.362031 6.720975 23.716055 7.153006 24.206953 7.432973 C 24.024961 7.324043 24.103945 6.949992 23.857969 6.829027 C 23.915977 6.824986 24.007969 6.908001 24.153047 6.874971 C 24.082031 6.717022 23.966016 6.475971 23.696016 6.443028 C 23.767031 6.435034 23.921016 6.459983 24.020039 6.422033 C 23.878945 6.204964 23.505 6.308974 23.375977 5.869038 Z M 23.287969 5.058037 C 23.257969 5.048023 23.233008 5.017979 23.208047 4.978975 C 23.077031 5.006998 23.026055 4.923983 23.015977 4.868025 C 23.023945 4.964041 22.942031 4.96 22.903008 4.962987 C 23.137031 5.157041 23.171016 5.382016 23.118984 5.510975 C 23.051953 5.677005 22.820039 5.669011 22.685977 5.56096 C 22.668984 5.914016 23.126953 6.031027 23.293008 5.585996 C 23.293008 5.661017 23.388984 5.653023 23.413945 5.752026 C 23.531953 5.56096 23.441953 5.286 23.287969 5.058037 Z M 23.287969 5.058037 " transform="matrix(33.333333,0,0,44.466667,0,0)"/>
<path style="fill-rule:nonzero;fill:rgb(20%,45.09804%,12.941177%);fill-opacity:1;stroke-width:0.015;stroke-linecap:butt;stroke-linejoin:miter;stroke:rgb(0%,0%,0%);stroke-opacity:1;stroke-miterlimit:4;" d="M 22.556953 3.369975 C 22.371328 3.186376 22.265391 2.937067 22.261992 2.675986 C 22.269961 2.493002 22.344961 2.292975 22.610977 2.377044 C 22.528008 2.377044 22.586016 2.542986 22.498945 2.560029 C 22.569961 2.584977 22.665 2.526998 22.678008 2.488961 C 22.695 2.547027 22.803047 2.531039 22.811016 2.597012 C 22.852969 2.563982 22.807031 2.401992 22.745039 2.367996 C 22.790977 2.342959 22.816055 2.214 22.794961 2.151981 C 22.753008 2.159975 22.691016 2.219008 22.678945 2.302023 C 22.700039 2.234996 22.674961 2.068966 22.558008 2.044017 C 22.524961 2.089961 22.516055 2.201965 22.561992 2.263985 C 22.453945 2.239037 22.295977 2.310017 22.258008 2.401026 C 22.265977 2.291042 22.282031 2.133972 22.35 2.034969 C 22.372969 2.002026 22.316953 1.94396 22.273008 2.023022 C 22.192031 1.864985 21.976055 1.78197 21.879961 1.861032 C 21.783984 1.940007 21.656016 1.823961 21.577031 1.948001 C 21.498047 2.073006 21.230039 2.086008 21.243984 2.218041 C 21.251953 2.297016 21.232969 2.419035 21.193945 2.462958 C 21.097969 2.571009 21.24 2.649984 21.264961 2.746 C 21.247969 2.430015 21.751055 1.815001 22.254961 2.055964 C 22.209023 2.135026 22.168945 2.292975 22.155 2.484041 C 22.134023 2.766995 22.175977 3.165995 22.449961 3.398965 Z M 22.556953 3.369975 " transform="matrix(33.333333,0,0,44.466667,0,0)"/>
<path style="fill-rule:nonzero;fill:rgb(78.431374%,6.27451%,18.039216%);fill-opacity:1;stroke-width:0.015;stroke-linecap:butt;stroke-linejoin:miter;stroke:rgb(0%,0%,0%);stroke-opacity:1;stroke-miterlimit:4;" d="M 22.706016 2.380031 C 22.702969 2.30501 22.833047 2.208027 23.006953 2.209959 C 23.216953 2.21198 23.379023 2.402959 23.546953 2.385038 C 23.715 2.365975 23.632031 2.459971 23.596992 2.485007 C 23.561953 2.510044 23.540977 2.547027 23.553047 2.592971 C 23.565 2.639003 23.544023 2.668958 23.476055 2.626001 C 23.326055 2.532005 23.176992 2.662985 22.978945 2.591038 C 22.809961 2.526998 22.711055 2.492035 22.706016 2.380031 Z M 22.706016 2.380031 " transform="matrix(33.333333,0,0,44.466667,0,0)"/>
<path style="fill-rule:nonzero;fill:rgb(58.823532%,52.941179%,49.019608%);fill-opacity:1;stroke-width:0.015;stroke-linecap:butt;stroke-linejoin:miter;stroke:rgb(0%,0%,0%);stroke-opacity:1;stroke-miterlimit:4;" d="M 21.849961 4.342965 C 21.766992 4.081006 21.451055 3.794011 21.296953 3.728038 L 21.288984 3.586957 C 21.371953 3.554014 21.571992 3.395978 21.663047 3.308043 C 22.286953 3.606986 23.135039 3.183037 23.525977 2.743013 L 23.675977 2.834022 L 23.600977 2.933992 L 23.521992 2.892001 C 23.349375 3.081047 23.161758 3.25595 22.961016 3.415041 C 23.105977 3.452024 23.304961 3.476972 23.360039 3.473986 C 23.709023 3.223974 23.983008 2.999965 24.116016 2.98301 L 24.228047 3.132965 L 24.127969 3.204033 L 24.048984 3.158001 C 23.675039 3.465992 23.251055 4.138985 23.083945 4.58797 C 22.852031 4.537985 22.02 4.571015 21.849961 4.342965 Z M 21.849961 4.342965 " transform="matrix(33.333333,0,0,44.466667,0,0)"/>
<path style="fill:none;stroke-width:0.015;stroke-linecap:butt;stroke-linejoin:miter;stroke:rgb(0%,0%,0%);stroke-opacity:1;stroke-miterlimit:4;" d="M 22.961016 3.415041 C 22.916484 3.404938 22.873125 3.389829 22.831992 3.369975 C 22.764961 3.431995 22.599023 3.486021 22.387031 3.494981 " transform="matrix(33.333333,0,0,44.466667,0,0)"/>
<path style="fill:none;stroke-width:0.015;stroke-linecap:butt;stroke-linejoin:miter;stroke:rgb(0%,0%,0%);stroke-opacity:1;stroke-miterlimit:4;" d="M 21.883008 4.25099 C 21.826992 3.940979 21.916055 3.598025 22.074023 3.494015 C 22.419023 3.723031 23.01 3.723031 23.358984 3.473019 " transform="matrix(33.333333,0,0,44.466667,0,0)"/>
<path style="fill:none;stroke-width:0.015;stroke-linecap:butt;stroke-linejoin:miter;stroke:rgb(0%,0%,0%);stroke-opacity:1;stroke-miterlimit:4;" d="M 21.883008 4.089 C 22.212187 4.090055 22.541016 4.109381 22.867969 4.146979 C 23.008945 4.167975 23.246016 4.226041 23.212969 4.297021 M 22.006055 4.044989 L 22.083047 3.969002 L 22.006055 3.893014 L 21.93 3.968036 Z M 22.006055 4.044989 " transform="matrix(33.333333,0,0,44.466667,0,0)"/>
<path style="fill-rule:nonzero;fill:rgb(20%,45.09804%,12.941177%);fill-opacity:1;stroke-width:0.015;stroke-linecap:butt;stroke-linejoin:miter;stroke:rgb(0%,0%,0%);stroke-opacity:1;stroke-miterlimit:4;" d="M 22.186992 2.497042 C 22.091016 2.364043 21.828047 2.321964 21.770977 2.500996 C 21.746016 2.57997 21.708984 2.662985 21.646055 2.701023 C 21.583945 2.738006 21.598008 2.852031 21.624961 2.900962 C 21.691055 3.022014 21.633047 3.137972 21.761953 3.217034 C 21.761953 3.121018 21.903047 3.022014 22.023984 2.996978 C 22.145039 2.97203 22.327031 2.863978 22.351992 2.743013 C 22.378008 2.620994 22.419961 2.521025 22.186992 2.497042 Z M 22.186992 2.497042 " transform="matrix(33.333333,0,0,44.466667,0,0)"/>
<path style="fill-rule:nonzero;fill:rgb(58.823532%,52.941179%,49.019608%);fill-opacity:1;stroke-width:0.015;stroke-linecap:butt;stroke-linejoin:miter;stroke:rgb(0%,0%,0%);stroke-opacity:1;stroke-miterlimit:4;" d="M 21.588047 3.694042 L 21.620977 3.694042 L 21.622031 3.921038 C 21.62918 3.923322 21.635859 3.92666 21.641953 3.930964 L 21.838008 3.817993 L 21.855 3.846983 L 21.658008 3.961008 C 21.658945 3.968036 21.66 3.97603 21.658945 3.982969 L 21.855 4.096028 L 21.838008 4.125018 L 21.639961 4.013013 C 21.634687 4.01846 21.628242 4.022588 21.620977 4.02496 L 21.620977 4.25099 L 21.588047 4.25099 L 21.588047 4.023994 C 21.580898 4.02171 21.574102 4.018284 21.568008 4.013979 L 21.371953 4.127038 L 21.354961 4.097961 L 21.551953 3.984024 C 21.551016 3.976996 21.549961 3.969002 21.551016 3.961974 L 21.354961 3.849003 L 21.371953 3.820014 L 21.568945 3.932985 C 21.574219 3.927538 21.580781 3.923409 21.588047 3.921038 Z M 21.588047 3.694042 " transform="matrix(33.333333,0,0,44.466667,0,0)"/>
<path style="fill-rule:nonzero;fill:rgb(58.823532%,52.941179%,49.019608%);fill-opacity:1;stroke-width:0.015;stroke-linecap:butt;stroke-linejoin:miter;stroke:rgb(0%,0%,0%);stroke-opacity:1;stroke-miterlimit:4;" d="M 21.883945 4.250023 C 21.768516 4.365981 21.593203 4.398221 21.444023 4.33093 C 21.294844 4.26364 21.202969 4.110962 21.213398 3.947655 C 21.223711 3.78426 21.334336 3.644496 21.490898 3.596795 C 21.647461 3.549007 21.817148 3.603296 21.916992 3.732958 C 21.893086 3.801215 21.877734 3.872019 21.871055 3.943966 C 21.856992 3.798843 21.730195 3.691055 21.584648 3.700542 C 21.439102 3.710118 21.327422 3.833454 21.332461 3.979192 C 21.337383 4.12493 21.457148 4.24036 21.603047 4.240009 C 21.725859 4.238691 21.833086 4.156379 21.866016 4.037961 C 21.866953 4.089967 21.868945 4.208999 21.883945 4.250023 Z M 21.883945 4.250023 " transform="matrix(33.333333,0,0,44.466667,0,0)"/>
<path style="fill-rule:nonzero;fill:rgb(20%,45.09804%,12.941177%);fill-opacity:1;stroke-width:0.015;stroke-linecap:butt;stroke-linejoin:miter;stroke:rgb(0%,0%,0%);stroke-opacity:1;stroke-miterlimit:4;" d="M 21.438047 4.625041 C 21.412969 4.595964 21.367031 4.51699 21.371953 4.459011 C 21.423984 4.459538 21.474023 4.478688 21.513047 4.513036 C 21.508945 4.470958 21.491953 4.380037 21.500977 4.337958 C 21.571172 4.364136 21.631992 4.410432 21.676055 4.470958 C 21.660352 4.400066 21.657656 4.326889 21.667969 4.255031 C 21.718008 4.28402 21.800977 4.362994 21.817969 4.41702 C 21.821602 4.329525 21.841289 4.243435 21.875977 4.162967 C 21.913008 4.200039 21.971953 4.234035 22.008984 4.28402 C 22.016953 4.216993 22.051055 4.138019 22.100039 4.11799 C 22.158398 4.187828 22.195781 4.272776 22.207969 4.362994 C 22.245 4.350959 22.295039 4.287973 22.316016 4.255031 C 22.345547 4.303522 22.355859 4.361237 22.344961 4.41702 C 22.391016 4.375029 22.445039 4.316963 22.456992 4.266978 C 22.509141 4.305718 22.548164 4.35948 22.569023 4.420973 C 22.561055 4.367035 22.565039 4.271019 22.548047 4.216993 C 22.609922 4.247915 22.655508 4.304049 22.672969 4.370988 C 22.689961 4.31301 22.726992 4.208999 22.760039 4.183963 C 22.797773 4.24853 22.819102 4.321355 22.822031 4.396025 C 22.843008 4.354034 22.876055 4.279979 22.908984 4.263025 C 22.938047 4.308969 22.933945 4.409026 22.925977 4.462964 C 22.957031 4.419655 22.996523 4.382935 23.041992 4.355 C 23.048086 4.392072 23.048086 4.429933 23.041992 4.467005 C 23.079023 4.446009 23.141953 4.334005 23.163047 4.276026 C 23.224922 4.317841 23.268281 4.381969 23.283984 4.45497 C 23.343281 4.422467 23.394609 4.376962 23.433984 4.32197 C 23.433984 4.350959 23.446992 4.430021 23.43 4.492041 C 23.454961 4.467005 23.480039 4.41702 23.491992 4.396025 C 23.508984 4.438015 23.495977 4.537019 23.478984 4.590956 C 23.513906 4.56021 23.557617 4.541235 23.604023 4.537019 C 23.608008 4.607999 23.557969 4.732038 23.512031 4.824014 C 23.113945 4.712976 22.278047 4.670985 21.438047 4.625041 Z M 21.438047 4.625041 " transform="matrix(33.333333,0,0,44.466667,0,0)"/>
<path style=" stroke:none;fill-rule:nonzero;fill:rgb(96.862745%,87.843138%,9.019608%);fill-opacity:1;" d="M 761 107.742188 C 760.933594 106.363281 763.199219 103.296875 767.300781 103.339844 C 772.199219 103.386719 776.734375 108.1875 780.632812 107.832031 C 784.566406 107.476562 782.632812 109.210938 781.800781 109.65625 C 780.964844 110.097656 780.5 110.8125 780.765625 111.613281 C 781.066406 112.457031 780.566406 112.988281 778.964844 112.234375 C 775.464844 110.542969 771.964844 112.902344 767.367188 111.613281 C 763.398438 110.410156 761.101562 109.789062 761 107.742188 Z M 761 107.742188 "/>
<path style="fill-rule:nonzero;fill:rgb(96.862745%,87.843138%,9.019608%);fill-opacity:1;stroke-width:0.015;stroke-linecap:butt;stroke-linejoin:miter;stroke:rgb(0%,0%,0%);stroke-opacity:1;stroke-miterlimit:4;" d="M 21.566953 4.874965 C 21.442031 5.025007 21.318047 4.999971 21.292969 4.904042 C 21.268008 4.808026 21.36 4.76296 21.326016 4.678979 C 21.292969 4.595964 21.380039 4.558014 21.421992 4.595964 C 21.463945 4.633035 21.596953 4.513036 21.654961 4.638042 C 21.712969 4.76296 21.759023 4.850016 21.725977 4.900001 C 21.691992 4.949986 21.592031 4.925037 21.566953 4.874965 Z M 22.102969 4.649989 C 22.08 4.594997 22.209023 4.490021 22.276055 4.565042 C 22.342969 4.639975 22.447031 4.483959 22.505039 4.602025 C 22.563047 4.72097 22.582031 4.782989 22.610977 4.848962 C 22.640039 4.915989 22.453008 4.95104 22.395 4.892973 C 22.402969 4.931977 22.233047 4.962987 22.186992 4.850983 C 22.162031 4.792038 22.134961 4.72299 22.102969 4.649989 Z M 22.968047 4.719037 C 22.936992 4.66097 23.088984 4.578043 23.167969 4.683986 C 23.188945 4.639975 23.338945 4.631981 23.349023 4.759007 L 23.368008 5.011039 C 23.371992 5.061024 23.276953 5.106968 23.208047 4.98003 C 23.085 5.004978 23.028984 4.936018 23.015039 4.863984 C 23.00625 4.813648 22.99043 4.764893 22.968047 4.719037 Z M 22.968047 4.719037 " transform="matrix(33.333333,0,0,44.466667,0,0)"/>
<path style="fill-rule:nonzero;fill:rgb(20%,45.09804%,12.941177%);fill-opacity:1;stroke-width:0.015;stroke-linecap:butt;stroke-linejoin:miter;stroke:rgb(0%,0%,0%);stroke-opacity:1;stroke-miterlimit:4;" d="M 21.648047 4.636022 C 21.628945 4.594031 21.753984 4.511016 21.838945 4.574002 C 21.924023 4.636022 22.042031 4.519976 22.093008 4.631981 C 22.194961 4.858977 22.201055 4.874965 22.17 4.918976 C 22.138945 4.962987 22.006055 4.946033 21.971953 4.886034 C 21.965977 4.928024 21.851016 4.920997 21.791016 4.887966 C 21.723047 4.850016 21.675 4.711043 21.648047 4.636022 Z M 22.522969 4.646036 C 22.494023 4.581996 22.689023 4.524984 22.775039 4.638042 C 22.818984 4.597984 22.914023 4.595964 22.968047 4.719037 C 23.021953 4.842022 23.030039 4.910016 22.991016 4.941026 C 22.963008 4.962987 22.861992 4.98003 22.828945 4.923983 C 22.783008 4.952973 22.642031 4.928024 22.610977 4.848962 C 22.580039 4.771042 22.552969 4.701995 22.522969 4.646036 Z M 23.351016 4.769022 C 23.347031 4.711043 23.452969 4.683986 23.491992 4.769022 C 23.531953 4.853969 23.658047 4.777016 23.668945 4.918976 C 23.671055 4.946033 23.653945 5.050043 23.615039 5.100028 C 23.576016 5.150013 23.381953 5.100028 23.37 4.993997 C 23.360156 4.919327 23.353828 4.844219 23.351016 4.769022 Z M 23.351016 4.769022 " transform="matrix(33.333333,0,0,44.466667,0,0)"/>
<path style="fill:none;stroke-width:0.015;stroke-linecap:butt;stroke-linejoin:miter;stroke:rgb(0%,0%,0%);stroke-opacity:1;stroke-miterlimit:4;" d="M 21.566953 4.874965 C 21.521016 4.813033 21.459023 4.712976 21.380039 4.821027 M 21.973008 4.884979 C 21.940664 4.842989 21.915352 4.796079 21.898008 4.746006 M 22.395 4.894028 C 22.355977 4.865741 22.323281 4.829636 22.299023 4.787997 M 22.357031 4.675026 C 22.430039 4.68302 22.479961 4.751979 22.501992 4.782989 C 22.524961 4.813999 22.573008 4.869958 22.610039 4.876985 M 22.828945 4.925037 C 22.803984 4.884979 22.779023 4.850016 22.773047 4.821027 M 22.775039 4.638042 C 22.798125 4.668262 22.817578 4.701204 22.833047 4.735991 M 23.206992 4.978975 C 23.178398 4.92003 23.13375 4.870485 23.077969 4.835961 M 23.191055 4.749959 C 23.195039 4.873032 23.358984 4.881026 23.366016 4.967995 M 23.491992 4.769022 C 23.509687 4.804336 23.518242 4.843516 23.516953 4.882959 " transform="matrix(33.333333,0,0,44.466667,0,0)"/>
</g>
</svg>
