<?xml version="1.0" encoding="UTF-8"?>
<svg xmlns="http://www.w3.org/2000/svg" xmlns:xlink="http://www.w3.org/1999/xlink" width="1000px" height="667px" viewBox="0 0 1000 667" version="1.1">
<g id="surface1">
<rect x="0" y="0" width="1000" height="667" style="fill:rgb(100%,0%,0%);fill-opacity:1;stroke:none;"/>
<path style=" stroke:none;fill-rule:nonzero;fill:rgb(0%,36.078432%,89.803922%);fill-opacity:1;" d="M 0 0 L 1000 0 L 1000 444.667969 L 0 444.667969 Z M 0 0 "/>
<path style=" stroke:none;fill-rule:nonzero;fill:rgb(100%,100%,100%);fill-opacity:1;" d="M 0 0 L 1000 0 L 1000 222.332031 L 0 222.332031 Z M 0 0 "/>
<path style=" stroke:none;fill-rule:evenodd;fill:rgb(0%,36.078432%,89.803922%);fill-opacity:1;" d="M 250.015625 116.960938 C 248.894531 116.960938 247.78125 116.992188 246.667969 117.035156 C 225.019531 117.78125 204.695312 125.242188 190.226562 134.335938 L 190.226562 134.363281 C 188.644531 135.246094 187.09375 136.128906 185.621094 137.015625 L 190.59375 240.945312 C 194.042969 295.253906 220.574219 326.875 250.054688 339.292969 C 279.535156 326.875 306.0625 295.253906 309.507812 240.945312 L 314.457031 137.34375 C 312.9375 136.304688 311.402344 135.308594 309.851562 134.363281 L 309.851562 134.335938 C 294.644531 124.777344 272.972656 117.015625 250.089844 116.964844 L 250.039062 116.960938 Z M 250.015625 116.960938 "/>
<path style=" stroke:none;fill-rule:evenodd;fill:rgb(100%,100%,100%);fill-opacity:1;" d="M 250.050781 188.878906 L 235.5 226.78125 L 226.09375 210.480469 L 201.515625 253.8125 C 201.960938 256.503906 202.480469 259.097656 203.050781 261.632812 C 205.796875 267.8125 211.070312 274.867188 217.835938 274.867188 C 223.207031 274.867188 228.574219 269.140625 233.945312 269.140625 C 239.3125 269.140625 244.683594 274.871094 250.050781 274.871094 C 255.421875 274.871094 260.789062 269.140625 266.160156 269.140625 C 271.527344 269.140625 276.898438 274.871094 282.265625 274.871094 C 288.972656 274.871094 294.210938 267.945312 296.976562 261.804688 C 297.570312 259.203125 298.097656 256.523438 298.554688 253.753906 L 274.007812 210.480469 L 264.601562 226.78125 Z M 233.945312 274.871094 C 228.574219 274.871094 223.207031 280.601562 217.835938 280.601562 C 213.589844 280.601562 209.9375 278.59375 207.109375 275.746094 C 208.082031 278.535156 209.15625 281.265625 210.320312 283.925781 C 212.535156 285.761719 215.054688 287.003906 217.835938 287.003906 C 223.207031 287.003906 228.574219 281.273438 233.945312 281.273438 C 239.3125 281.273438 244.683594 287.003906 250.050781 287.003906 C 255.421875 287.003906 260.789062 281.273438 266.160156 281.273438 C 271.527344 281.273438 276.898438 287.003906 282.265625 287.003906 C 285.011719 287.003906 287.496094 285.789062 289.6875 283.996094 C 290.851562 281.347656 291.921875 278.625 292.898438 275.84375 C 290.082031 278.640625 286.46875 280.601562 282.265625 280.601562 C 276.898438 280.601562 271.527344 274.871094 266.160156 274.871094 C 260.789062 274.871094 255.421875 280.601562 250.050781 280.601562 C 244.683594 280.601562 239.3125 274.871094 233.945312 274.871094 Z M 233.945312 287.003906 C 228.574219 287.003906 223.207031 292.730469 217.835938 292.730469 C 216.667969 292.730469 215.5625 292.550781 214.488281 292.273438 C 223.773438 308.828125 236.449219 319.910156 250.039062 326.28125 C 263.605469 319.921875 276.257812 308.832031 285.542969 292.304688 C 284.492188 292.566406 283.40625 292.730469 282.265625 292.730469 C 276.898438 292.730469 271.527344 287.003906 266.160156 287.003906 C 260.789062 287.003906 255.421875 292.730469 250.050781 292.730469 C 244.683594 292.730469 239.3125 287.003906 233.945312 287.003906 Z M 233.945312 287.003906 "/>
<path style=" stroke:none;fill-rule:evenodd;fill:rgb(100%,89.803922%,0%);fill-opacity:1;" d="M 225.832031 130.871094 L 238.011719 130.871094 L 231.921875 144.941406 "/>
<path style=" stroke:none;fill-rule:evenodd;fill:rgb(100%,89.803922%,0%);fill-opacity:1;" d="M 225.832031 140.246094 L 238.011719 140.246094 L 231.921875 126.175781 "/>
<path style=" stroke:none;fill-rule:evenodd;fill:rgb(100%,89.803922%,0%);fill-opacity:1;" d="M 262.089844 130.871094 L 274.269531 130.871094 L 268.179688 144.941406 "/>
<path style=" stroke:none;fill-rule:evenodd;fill:rgb(100%,89.803922%,0%);fill-opacity:1;" d="M 262.089844 140.246094 L 274.269531 140.246094 L 268.179688 126.175781 "/>
<path style=" stroke:none;fill-rule:evenodd;fill:rgb(100%,89.803922%,0%);fill-opacity:1;" d="M 243.960938 163.261719 L 256.140625 163.261719 L 250.050781 177.332031 "/>
<path style=" stroke:none;fill-rule:evenodd;fill:rgb(100%,89.803922%,0%);fill-opacity:1;" d="M 243.960938 172.636719 L 256.140625 172.636719 L 250.050781 158.566406 "/>
<path style=" stroke:none;fill-rule:evenodd;fill:rgb(100%,0%,0%);fill-opacity:1;" d="M 250 116.949219 Z M 190.167969 134.402344 C 188.628906 135.226562 187.101562 136.078125 185.582031 136.957031 L 190.582031 240.898438 C 194 295.257812 220.582031 326.828125 250 339.28125 C 279.5 326.828125 306 295.257812 309.5 240.898438 L 314.417969 137.289062 C 312.90625 136.28125 311.378906 135.316406 309.832031 134.402344 L 305.167969 237.453125 C 303.648438 281.609375 281.613281 319.796875 250 333.054688 C 218.386719 319.796875 196.351562 281.609375 194.832031 237.453125 Z M 190.167969 134.402344 "/>
</g>
</svg>
