<?xml version="1.0" encoding="UTF-8"?>
<svg xmlns="http://www.w3.org/2000/svg" xmlns:xlink="http://www.w3.org/1999/xlink" width="1000px" height="667px" viewBox="0 0 1000 667" version="1.1">
<g id="surface1">
<rect x="0" y="0" width="1000" height="667" style="fill:rgb(69.803923%,13.333334%,20.392157%);fill-opacity:1;stroke:none;"/>
<path style="fill-rule:nonzero;fill:rgb(0%,0%,0%);fill-opacity:1;stroke-width:300;stroke-linecap:butt;stroke-linejoin:miter;stroke:rgb(100%,100%,100%);stroke-opacity:1;stroke-miterlimit:4;" d="M 0 449.996486 L 7410 449.996486 M 7410 1050.007028 L 0 1050.007028 M 0 1649.994729 L 7410 1649.994729 M 7410 2250.005271 L 0 2250.005271 M 0 2849.992972 L 7410 2849.992972 M 7410 3450.003514 L 0 3450.003514 " transform="matrix(0.134953,0,0,0.171026,0,0)"/>
<path style=" stroke:none;fill-rule:nonzero;fill:rgb(23.529412%,23.137255%,43.137255%);fill-opacity:1;" d="M 0 0 L 400 0 L 400 359.152344 L 0 359.152344 Z M 0 0 "/>
<path style=" stroke:none;fill-rule:nonzero;fill:rgb(100%,100%,100%);fill-opacity:1;" d="M 33.332031 15.390625 L 42.851562 52.519531 L 17.933594 29.574219 L 48.734375 29.574219 L 23.816406 52.519531 Z M 33.332031 15.390625 "/>
<path style=" stroke:none;fill-rule:nonzero;fill:rgb(100%,100%,100%);fill-opacity:1;" d="M 33.332031 87.222656 L 42.851562 124.351562 L 17.933594 101.402344 L 48.734375 101.402344 L 23.816406 124.351562 Z M 33.332031 87.222656 "/>
<path style=" stroke:none;fill-rule:nonzero;fill:rgb(100%,100%,100%);fill-opacity:1;" d="M 33.332031 159.054688 L 42.851562 196.179688 L 17.933594 173.234375 L 48.734375 173.234375 L 23.816406 196.179688 Z M 33.332031 159.054688 "/>
<path style=" stroke:none;fill-rule:nonzero;fill:rgb(100%,100%,100%);fill-opacity:1;" d="M 33.332031 230.882812 L 42.851562 268.011719 L 17.933594 245.066406 L 48.734375 245.066406 L 23.816406 268.011719 Z M 33.332031 230.882812 "/>
<path style=" stroke:none;fill-rule:nonzero;fill:rgb(100%,100%,100%);fill-opacity:1;" d="M 33.332031 302.714844 L 42.851562 339.84375 L 17.933594 316.898438 L 48.734375 316.898438 L 23.816406 339.84375 Z M 33.332031 302.714844 "/>
<path style=" stroke:none;fill-rule:nonzero;fill:rgb(100%,100%,100%);fill-opacity:1;" d="M 66.667969 51.308594 L 76.183594 88.433594 L 51.265625 65.488281 L 82.070312 65.488281 L 57.148438 88.433594 Z M 66.667969 51.308594 "/>
<path style=" stroke:none;fill-rule:nonzero;fill:rgb(100%,100%,100%);fill-opacity:1;" d="M 66.667969 123.136719 L 76.183594 160.265625 L 51.265625 137.320312 L 82.070312 137.320312 L 57.148438 160.265625 Z M 66.667969 123.136719 "/>
<path style=" stroke:none;fill-rule:nonzero;fill:rgb(100%,100%,100%);fill-opacity:1;" d="M 66.667969 194.96875 L 76.183594 232.097656 L 51.265625 209.148438 L 82.070312 209.148438 L 57.148438 232.097656 Z M 66.667969 194.96875 "/>
<path style=" stroke:none;fill-rule:nonzero;fill:rgb(100%,100%,100%);fill-opacity:1;" d="M 66.667969 266.800781 L 76.183594 303.925781 L 51.265625 280.980469 L 82.070312 280.980469 L 57.148438 303.925781 Z M 66.667969 266.800781 "/>
<path style=" stroke:none;fill-rule:nonzero;fill:rgb(100%,100%,100%);fill-opacity:1;" d="M 100 15.390625 L 109.519531 52.519531 L 84.597656 29.574219 L 115.402344 29.574219 L 90.480469 52.519531 Z M 100 15.390625 "/>
<path style=" stroke:none;fill-rule:nonzero;fill:rgb(100%,100%,100%);fill-opacity:1;" d="M 100 87.222656 L 109.519531 124.351562 L 84.597656 101.402344 L 115.402344 101.402344 L 90.480469 124.351562 Z M 100 87.222656 "/>
<path style=" stroke:none;fill-rule:nonzero;fill:rgb(100%,100%,100%);fill-opacity:1;" d="M 100 159.054688 L 109.519531 196.179688 L 84.597656 173.234375 L 115.402344 173.234375 L 90.480469 196.179688 Z M 100 159.054688 "/>
<path style=" stroke:none;fill-rule:nonzero;fill:rgb(100%,100%,100%);fill-opacity:1;" d="M 100 230.882812 L 109.519531 268.011719 L 84.597656 245.066406 L 115.402344 245.066406 L 90.480469 268.011719 Z M 100 230.882812 "/>
<path style=" stroke:none;fill-rule:nonzero;fill:rgb(100%,100%,100%);fill-opacity:1;" d="M 100 302.714844 L 109.519531 339.84375 L 84.597656 316.898438 L 115.402344 316.898438 L 90.480469 339.84375 Z M 100 302.714844 "/>
<path style=" stroke:none;fill-rule:nonzero;fill:rgb(100%,100%,100%);fill-opacity:1;" d="M 133.332031 51.308594 L 142.851562 88.433594 L 117.933594 65.488281 L 148.734375 65.488281 L 123.816406 88.433594 Z M 133.332031 51.308594 "/>
<path style=" stroke:none;fill-rule:nonzero;fill:rgb(100%,100%,100%);fill-opacity:1;" d="M 133.332031 123.136719 L 142.851562 160.265625 L 117.933594 137.320312 L 148.734375 137.320312 L 123.816406 160.265625 Z M 133.332031 123.136719 "/>
<path style=" stroke:none;fill-rule:nonzero;fill:rgb(100%,100%,100%);fill-opacity:1;" d="M 133.332031 194.96875 L 142.851562 232.097656 L 117.933594 209.148438 L 148.734375 209.148438 L 123.816406 232.097656 Z M 133.332031 194.96875 "/>
<path style=" stroke:none;fill-rule:nonzero;fill:rgb(100%,100%,100%);fill-opacity:1;" d="M 133.332031 266.800781 L 142.851562 303.925781 L 117.933594 280.980469 L 148.734375 280.980469 L 123.816406 303.925781 Z M 133.332031 266.800781 "/>
<path style=" stroke:none;fill-rule:nonzero;fill:rgb(100%,100%,100%);fill-opacity:1;" d="M 166.667969 15.390625 L 176.183594 52.519531 L 151.265625 29.574219 L 182.070312 29.574219 L 157.148438 52.519531 Z M 166.667969 15.390625 "/>
<path style=" stroke:none;fill-rule:nonzero;fill:rgb(100%,100%,100%);fill-opacity:1;" d="M 166.667969 87.222656 L 176.183594 124.351562 L 151.265625 101.402344 L 182.070312 101.402344 L 157.148438 124.351562 Z M 166.667969 87.222656 "/>
<path style=" stroke:none;fill-rule:nonzero;fill:rgb(100%,100%,100%);fill-opacity:1;" d="M 166.667969 159.054688 L 176.183594 196.179688 L 151.265625 173.234375 L 182.070312 173.234375 L 157.148438 196.179688 Z M 166.667969 159.054688 "/>
<path style=" stroke:none;fill-rule:nonzero;fill:rgb(100%,100%,100%);fill-opacity:1;" d="M 166.667969 230.882812 L 176.183594 268.011719 L 151.265625 245.066406 L 182.070312 245.066406 L 157.148438 268.011719 Z M 166.667969 230.882812 "/>
<path style=" stroke:none;fill-rule:nonzero;fill:rgb(100%,100%,100%);fill-opacity:1;" d="M 166.667969 302.714844 L 176.183594 339.84375 L 151.265625 316.898438 L 182.070312 316.898438 L 157.148438 339.84375 Z M 166.667969 302.714844 "/>
<path style=" stroke:none;fill-rule:nonzero;fill:rgb(100%,100%,100%);fill-opacity:1;" d="M 200 51.308594 L 209.519531 88.433594 L 184.597656 65.488281 L 215.402344 65.488281 L 190.480469 88.433594 Z M 200 51.308594 "/>
<path style=" stroke:none;fill-rule:nonzero;fill:rgb(100%,100%,100%);fill-opacity:1;" d="M 200 123.136719 L 209.519531 160.265625 L 184.597656 137.320312 L 215.402344 137.320312 L 190.480469 160.265625 Z M 200 123.136719 "/>
<path style=" stroke:none;fill-rule:nonzero;fill:rgb(100%,100%,100%);fill-opacity:1;" d="M 200 194.96875 L 209.519531 232.097656 L 184.597656 209.148438 L 215.402344 209.148438 L 190.480469 232.097656 Z M 200 194.96875 "/>
<path style=" stroke:none;fill-rule:nonzero;fill:rgb(100%,100%,100%);fill-opacity:1;" d="M 200 266.800781 L 209.519531 303.925781 L 184.597656 280.980469 L 215.402344 280.980469 L 190.480469 303.925781 Z M 200 266.800781 "/>
<path style=" stroke:none;fill-rule:nonzero;fill:rgb(100%,100%,100%);fill-opacity:1;" d="M 233.332031 15.390625 L 242.851562 52.519531 L 217.933594 29.574219 L 248.734375 29.574219 L 223.816406 52.519531 Z M 233.332031 15.390625 "/>
<path style=" stroke:none;fill-rule:nonzero;fill:rgb(100%,100%,100%);fill-opacity:1;" d="M 233.332031 87.222656 L 242.851562 124.351562 L 217.933594 101.402344 L 248.734375 101.402344 L 223.816406 124.351562 Z M 233.332031 87.222656 "/>
<path style=" stroke:none;fill-rule:nonzero;fill:rgb(100%,100%,100%);fill-opacity:1;" d="M 233.332031 159.054688 L 242.851562 196.179688 L 217.933594 173.234375 L 248.734375 173.234375 L 223.816406 196.179688 Z M 233.332031 159.054688 "/>
<path style=" stroke:none;fill-rule:nonzero;fill:rgb(100%,100%,100%);fill-opacity:1;" d="M 233.332031 230.882812 L 242.851562 268.011719 L 217.933594 245.066406 L 248.734375 245.066406 L 223.816406 268.011719 Z M 233.332031 230.882812 "/>
<path style=" stroke:none;fill-rule:nonzero;fill:rgb(100%,100%,100%);fill-opacity:1;" d="M 233.332031 302.714844 L 242.851562 339.84375 L 217.933594 316.898438 L 248.734375 316.898438 L 223.816406 339.84375 Z M 233.332031 302.714844 "/>
<path style=" stroke:none;fill-rule:nonzero;fill:rgb(100%,100%,100%);fill-opacity:1;" d="M 266.667969 51.308594 L 276.183594 88.433594 L 251.265625 65.488281 L 282.070312 65.488281 L 257.148438 88.433594 Z M 266.667969 51.308594 "/>
<path style=" stroke:none;fill-rule:nonzero;fill:rgb(100%,100%,100%);fill-opacity:1;" d="M 266.667969 123.136719 L 276.183594 160.265625 L 251.265625 137.320312 L 282.070312 137.320312 L 257.148438 160.265625 Z M 266.667969 123.136719 "/>
<path style=" stroke:none;fill-rule:nonzero;fill:rgb(100%,100%,100%);fill-opacity:1;" d="M 266.667969 194.96875 L 276.183594 232.097656 L 251.265625 209.148438 L 282.070312 209.148438 L 257.148438 232.097656 Z M 266.667969 194.96875 "/>
<path style=" stroke:none;fill-rule:nonzero;fill:rgb(100%,100%,100%);fill-opacity:1;" d="M 266.667969 266.800781 L 276.183594 303.925781 L 251.265625 280.980469 L 282.070312 280.980469 L 257.148438 303.925781 Z M 266.667969 266.800781 "/>
<path style=" stroke:none;fill-rule:nonzero;fill:rgb(100%,100%,100%);fill-opacity:1;" d="M 300 15.390625 L 309.519531 52.519531 L 284.597656 29.574219 L 315.402344 29.574219 L 290.480469 52.519531 Z M 300 15.390625 "/>
<path style=" stroke:none;fill-rule:nonzero;fill:rgb(100%,100%,100%);fill-opacity:1;" d="M 300 87.222656 L 309.519531 124.351562 L 284.597656 101.402344 L 315.402344 101.402344 L 290.480469 124.351562 Z M 300 87.222656 "/>
<path style=" stroke:none;fill-rule:nonzero;fill:rgb(100%,100%,100%);fill-opacity:1;" d="M 300 159.054688 L 309.519531 196.179688 L 284.597656 173.234375 L 315.402344 173.234375 L 290.480469 196.179688 Z M 300 159.054688 "/>
<path style=" stroke:none;fill-rule:nonzero;fill:rgb(100%,100%,100%);fill-opacity:1;" d="M 300 230.882812 L 309.519531 268.011719 L 284.597656 245.066406 L 315.402344 245.066406 L 290.480469 268.011719 Z M 300 230.882812 "/>
<path style=" stroke:none;fill-rule:nonzero;fill:rgb(100%,100%,100%);fill-opacity:1;" d="M 300 302.714844 L 309.519531 339.84375 L 284.597656 316.898438 L 315.402344 316.898438 L 290.480469 339.84375 Z M 300 302.714844 "/>
<path style=" stroke:none;fill-rule:nonzero;fill:rgb(100%,100%,100%);fill-opacity:1;" d="M 333.332031 51.308594 L 342.851562 88.433594 L 317.933594 65.488281 L 348.734375 65.488281 L 323.816406 88.433594 Z M 333.332031 51.308594 "/>
<path style=" stroke:none;fill-rule:nonzero;fill:rgb(100%,100%,100%);fill-opacity:1;" d="M 333.332031 123.136719 L 342.851562 160.265625 L 317.933594 137.320312 L 348.734375 137.320312 L 323.816406 160.265625 Z M 333.332031 123.136719 "/>
<path style=" stroke:none;fill-rule:nonzero;fill:rgb(100%,100%,100%);fill-opacity:1;" d="M 333.332031 194.96875 L 342.851562 232.097656 L 317.933594 209.148438 L 348.734375 209.148438 L 323.816406 232.097656 Z M 333.332031 194.96875 "/>
<path style=" stroke:none;fill-rule:nonzero;fill:rgb(100%,100%,100%);fill-opacity:1;" d="M 333.332031 266.800781 L 342.851562 303.925781 L 317.933594 280.980469 L 348.734375 280.980469 L 323.816406 303.925781 Z M 333.332031 266.800781 "/>
<path style=" stroke:none;fill-rule:nonzero;fill:rgb(100%,100%,100%);fill-opacity:1;" d="M 366.667969 15.390625 L 376.183594 52.519531 L 351.265625 29.574219 L 382.070312 29.574219 L 357.148438 52.519531 Z M 366.667969 15.390625 "/>
<path style=" stroke:none;fill-rule:nonzero;fill:rgb(100%,100%,100%);fill-opacity:1;" d="M 366.667969 87.222656 L 376.183594 124.351562 L 351.265625 101.402344 L 382.070312 101.402344 L 357.148438 124.351562 Z M 366.667969 87.222656 "/>
<path style=" stroke:none;fill-rule:nonzero;fill:rgb(100%,100%,100%);fill-opacity:1;" d="M 366.667969 159.054688 L 376.183594 196.179688 L 351.265625 173.234375 L 382.070312 173.234375 L 357.148438 196.179688 Z M 366.667969 159.054688 "/>
<path style=" stroke:none;fill-rule:nonzero;fill:rgb(100%,100%,100%);fill-opacity:1;" d="M 366.667969 230.882812 L 376.183594 268.011719 L 351.265625 245.066406 L 382.070312 245.066406 L 357.148438 268.011719 Z M 366.667969 230.882812 "/>
<path style=" stroke:none;fill-rule:nonzero;fill:rgb(100%,100%,100%);fill-opacity:1;" d="M 366.667969 302.714844 L 376.183594 339.84375 L 351.265625 316.898438 L 382.070312 316.898438 L 357.148438 339.84375 Z M 366.667969 302.714844 "/>
</g>
</svg>
