<?xml version="1.0" encoding="UTF-8"?>
<svg xmlns="http://www.w3.org/2000/svg" xmlns:xlink="http://www.w3.org/1999/xlink" width="1000px" height="667px" viewBox="0 0 1000 667" version="1.1">
<g id="surface1">
<rect x="0" y="0" width="1000" height="667" style="fill:rgb(100%,100%,100%);fill-opacity:1;stroke:none;"/>
<path style=" stroke:none;fill-rule:nonzero;fill:rgb(0%,21.960784%,65.882355%);fill-opacity:1;" d="M 370.371094 74.109375 L 1000 74.109375 L 1000 148.222656 L 370.371094 148.222656 Z M 370.371094 222.332031 L 1000 222.332031 L 1000 296.445312 L 370.371094 296.445312 Z M 0 370.554688 L 1000 370.554688 L 1000 444.667969 L 0 444.667969 Z M 0 518.777344 L 1000 518.777344 L 1000 592.890625 L 0 592.890625 Z M 0 518.777344 "/>
<path style="fill-rule:nonzero;fill:rgb(98.823529%,81.960785%,8.627451%);fill-opacity:1;stroke-width:0.611;stroke-linecap:square;stroke-linejoin:miter;stroke:rgb(48.235294%,24.705882%,0%);stroke-opacity:1;stroke-miterlimit:20;" d="M -19.106068 157.8884 L -16.040257 162.465782 C -28.636549 171.580522 -20.94614 176.972052 -29.873031 179.889901 C -24.320583 174.472015 -30.606521 173.636391 -25.929182 162.342781 " transform="matrix(3.999503,0,0,4.001502,253.211644,-410.279099)"/>
<path style="fill-rule:nonzero;fill:rgb(98.823529%,81.960785%,8.627451%);fill-opacity:1;stroke-width:0.611;stroke-linecap:square;stroke-linejoin:miter;stroke:rgb(48.235294%,24.705882%,0%);stroke-opacity:1;stroke-miterlimit:20;" d="M -24.893897 153.753234 L -25.964342 159.158431 C -41.31586 156.697441 -39.689681 165.94592 -48.064746 161.697516 C -40.307922 161.792207 -43.987091 156.687679 -32.693694 152.009748 " transform="matrix(3.999503,0,0,4.001502,253.211644,-410.279099)"/>
<path style="fill-rule:nonzero;fill:rgb(48.235294%,24.705882%,0%);fill-opacity:1;stroke-width:0.278;stroke-linecap:square;stroke-linejoin:miter;stroke:rgb(48.235294%,24.705882%,0%);stroke-opacity:1;stroke-miterlimit:20;" d="M -24.893897 153.75421 L -27.313143 153.317851 L -27.287749 153.418399 C -33.7407 154.999836 -37.245042 157.674613 -39.988547 159.708029 C -41.361764 160.725225 -42.547459 161.589158 -43.830821 162.057732 C -44.68249 162.373043 -45.595689 162.482377 -46.497168 162.377924 C -39.835207 164.745199 -40.275692 156.866323 -25.963366 159.160383 Z M -24.893897 153.75421 " transform="matrix(3.999503,0,0,4.001502,253.211644,-410.279099)"/>
<path style="fill:none;stroke-width:0.611;stroke-linecap:butt;stroke-linejoin:miter;stroke:rgb(48.235294%,24.705882%,0%);stroke-opacity:1;stroke-miterlimit:20;" d="M -27.361 153.120659 C -40.375314 156.306963 -41.605935 163.98279 -48.064746 161.69654 " transform="matrix(3.999503,0,0,4.001502,253.211644,-410.279099)"/>
<path style="fill-rule:nonzero;fill:rgb(98.823529%,81.960785%,8.627451%);fill-opacity:1;stroke-width:0.611;stroke-linecap:butt;stroke-linejoin:miter;stroke:rgb(48.235294%,24.705882%,0%);stroke-opacity:1;stroke-miterlimit:20;" d="M -17.009127 148.833207 L -21.330954 144.511588 L -40.778684 172.601623 L -12.687301 153.154826 L -17.009127 148.833207 L -40.778684 172.6026 " transform="matrix(3.999503,0,0,4.001502,253.211644,-410.279099)"/>
<path style="fill-rule:nonzero;fill:rgb(98.823529%,81.960785%,8.627451%);fill-opacity:1;stroke-width:0.611;stroke-linecap:square;stroke-linejoin:miter;stroke:rgb(48.235294%,24.705882%,0%);stroke-opacity:1;stroke-miterlimit:20;" d="M -26.063964 146.737315 L -30.640705 149.801594 C -39.757073 137.205739 -45.148368 144.896209 -48.064746 135.968899 C -42.64708 141.520524 -41.760251 135.245538 -30.465878 139.924444 " transform="matrix(3.999503,0,0,4.001502,253.211644,-410.279099)"/>
<path style="fill-rule:nonzero;fill:rgb(48.235294%,24.705882%,0%);fill-opacity:1;stroke-width:0.278;stroke-linecap:square;stroke-linejoin:miter;stroke:rgb(48.235294%,24.705882%,0%);stroke-opacity:1;stroke-miterlimit:20;" d="M -26.063964 146.738291 L -27.466482 144.718542 L -27.519223 144.807376 C -33.200593 141.362381 -37.570277 140.776663 -40.948627 140.272946 C -42.63829 140.021088 -44.085736 139.79461 -45.326124 139.217678 C -46.150446 138.838914 -46.874168 138.270768 -47.437715 137.560098 C -44.400228 143.944419 -39.140785 138.05991 -30.641682 149.803546 Z M -26.063964 146.738291 " transform="matrix(3.999503,0,0,4.001502,253.211644,-410.279099)"/>
<path style="fill:none;stroke-width:0.611;stroke-linecap:butt;stroke-linejoin:miter;stroke:rgb(48.235294%,24.705882%,0%);stroke-opacity:1;stroke-miterlimit:20;" d="M -27.361 144.544779 C -38.815549 137.595241 -45.114184 142.153099 -48.064746 135.968899 " transform="matrix(3.999503,0,0,4.001502,253.211644,-410.279099)"/>
<path style="fill-rule:nonzero;fill:rgb(98.823529%,81.960785%,8.627451%);fill-opacity:1;stroke-width:0.611;stroke-linecap:butt;stroke-linejoin:miter;stroke:rgb(48.235294%,24.705882%,0%);stroke-opacity:1;stroke-miterlimit:20;" d="M -17.009127 148.833207 L -17.009127 142.721245 L -50.623658 148.833207 L -17.009127 154.945169 L -17.009127 148.833207 L -50.623658 148.833207 " transform="matrix(3.999503,0,0,4.001502,253.211644,-410.279099)"/>
<path style=" stroke:none;fill-rule:nonzero;fill:rgb(48.235294%,24.705882%,0%);fill-opacity:1;" d="M 185.183594 185.277344 L 185.183594 209.734375 L 185.183594 185.277344 L 50.742188 185.277344 L 185.183594 209.734375 "/>
<path style="fill-rule:nonzero;fill:rgb(98.823529%,81.960785%,8.627451%);fill-opacity:1;stroke-width:0.611;stroke-linecap:square;stroke-linejoin:miter;stroke:rgb(48.235294%,24.705882%,0%);stroke-opacity:1;stroke-miterlimit:20;" d="M -21.928684 140.948474 L -27.332676 139.878563 C -24.873386 124.525931 -34.121606 126.152273 -29.873031 117.776513 C -29.96777 125.534341 -24.600891 122.47592 -19.922575 133.768553 " transform="matrix(3.999503,0,0,4.001502,253.211644,-410.279099)"/>
<path style="fill-rule:nonzero;fill:rgb(48.235294%,24.705882%,0%);fill-opacity:1;stroke-width:0.278;stroke-linecap:square;stroke-linejoin:miter;stroke:rgb(48.235294%,24.705882%,0%);stroke-opacity:1;stroke-miterlimit:20;" d="M -21.929661 140.94945 L -21.49406 138.52946 L -21.593682 138.554841 C -23.174933 132.101211 -25.851047 128.596668 -27.883526 125.852581 C -28.900254 124.48005 -29.763643 123.295924 -30.233428 122.011251 C -30.54792 121.160008 -30.657308 120.247265 -30.552803 119.346236 C -32.920285 126.00682 -25.041376 125.56558 -27.33463 139.879539 Z M -21.929661 140.94945 " transform="matrix(3.999503,0,0,4.001502,253.211644,-410.279099)"/>
<path style="fill:none;stroke-width:0.611;stroke-linecap:butt;stroke-linejoin:miter;stroke:rgb(48.235294%,24.705882%,0%);stroke-opacity:1;stroke-miterlimit:20;" d="M -21.29677 138.48065 C -24.481736 125.466984 -32.159448 124.236977 -29.873031 117.776513 " transform="matrix(3.999503,0,0,4.001502,253.211644,-410.279099)"/>
<path style="fill-rule:nonzero;fill:rgb(98.823529%,81.960785%,8.627451%);fill-opacity:1;stroke-width:0.611;stroke-linecap:butt;stroke-linejoin:miter;stroke:rgb(48.235294%,24.705882%,0%);stroke-opacity:1;stroke-miterlimit:20;" d="M -17.009127 148.833207 L -12.687301 144.511588 L -40.778684 125.063815 L -21.330954 153.154826 L -17.009127 148.833207 L -40.778684 125.062839 " transform="matrix(3.999503,0,0,4.001502,253.211644,-410.279099)"/>
<path style=" stroke:none;fill-rule:nonzero;fill:rgb(48.235294%,24.705882%,0%);fill-opacity:1;" d="M 185.183594 185.277344 L 167.898438 202.570312 L 185.183594 185.277344 L 90.117188 90.160156 L 167.898438 202.570312 "/>
<path style="fill-rule:nonzero;fill:rgb(98.823529%,81.960785%,8.627451%);fill-opacity:1;stroke-width:0.611;stroke-linecap:square;stroke-linejoin:miter;stroke:rgb(48.235294%,24.705882%,0%);stroke-opacity:1;stroke-miterlimit:20;" d="M -14.912187 139.778991 L -17.977998 135.200633 C -5.380728 126.084916 -13.072114 120.695339 -4.145223 117.776513 C -9.696695 123.195376 -3.442988 124.088595 -8.121304 135.382205 " transform="matrix(3.999503,0,0,4.001502,253.211644,-410.279099)"/>
<path style="fill-rule:nonzero;fill:rgb(48.235294%,24.705882%,0%);fill-opacity:1;stroke-width:0.278;stroke-linecap:square;stroke-linejoin:miter;stroke:rgb(48.235294%,24.705882%,0%);stroke-opacity:1;stroke-miterlimit:20;" d="M -14.913164 139.778015 L -12.895335 138.376198 L -12.983236 138.323483 C -9.538472 132.642023 -8.952462 128.272571 -8.449469 124.893957 C -8.197485 123.204162 -7.970894 121.756464 -7.392697 120.515719 C -7.014721 119.691809 -6.446291 118.968448 -5.736241 118.405183 C -12.119848 121.442128 -6.236304 126.700895 -17.979951 135.199656 Z M -14.913164 139.778015 " transform="matrix(3.999503,0,0,4.001502,253.211644,-410.279099)"/>
<path style="fill:none;stroke-width:0.611;stroke-linecap:butt;stroke-linejoin:miter;stroke:rgb(48.235294%,24.705882%,0%);stroke-opacity:1;stroke-miterlimit:20;" d="M -12.719531 138.48065 C -5.771402 127.025969 -10.328609 120.727553 -4.145223 117.776513 " transform="matrix(3.999503,0,0,4.001502,253.211644,-410.279099)"/>
<path style="fill-rule:nonzero;fill:rgb(98.823529%,81.960785%,8.627451%);fill-opacity:1;stroke-width:0.611;stroke-linecap:butt;stroke-linejoin:miter;stroke:rgb(48.235294%,24.705882%,0%);stroke-opacity:1;stroke-miterlimit:20;" d="M -17.009127 148.833207 L -10.897039 148.833207 L -17.009127 115.217904 L -23.121215 148.833207 L -17.009127 148.833207 L -17.009127 115.217904 " transform="matrix(3.999503,0,0,4.001502,253.211644,-410.279099)"/>
<path style=" stroke:none;fill-rule:nonzero;fill:rgb(48.235294%,24.705882%,0%);fill-opacity:1;" d="M 185.183594 185.277344 L 160.738281 185.277344 L 185.183594 185.277344 L 185.183594 50.765625 L 160.738281 185.277344 "/>
<path style="fill-rule:nonzero;fill:rgb(98.823529%,81.960785%,8.627451%);fill-opacity:1;stroke-width:0.611;stroke-linecap:square;stroke-linejoin:miter;stroke:rgb(48.235294%,24.705882%,0%);stroke-opacity:1;stroke-miterlimit:20;" d="M -9.124358 143.91318 L -8.053912 138.50896 C 7.297606 140.96995 5.672404 131.719518 14.048445 135.968899 C 6.289668 135.875184 9.746152 141.005093 -1.547244 145.683023 " transform="matrix(3.999503,0,0,4.001502,253.211644,-410.279099)"/>
<path style="fill-rule:nonzero;fill:rgb(48.235294%,24.705882%,0%);fill-opacity:1;stroke-width:0.278;stroke-linecap:square;stroke-linejoin:miter;stroke:rgb(48.235294%,24.705882%,0%);stroke-opacity:1;stroke-miterlimit:20;" d="M -9.124358 143.912204 L -6.705112 144.347587 L -6.729529 144.248015 C -0.276578 142.666578 3.226787 139.991802 5.971269 137.958386 C 7.344486 136.942166 8.529204 136.078233 9.812567 135.608682 C 10.664235 135.294347 11.577435 135.184037 12.478914 135.289466 C 5.816953 132.922191 6.259391 140.801068 -8.054889 138.507008 Z M -9.124358 143.912204 " transform="matrix(3.999503,0,0,4.001502,253.211644,-410.279099)"/>
<path style="fill:none;stroke-width:0.611;stroke-linecap:butt;stroke-linejoin:miter;stroke:rgb(48.235294%,24.705882%,0%);stroke-opacity:1;stroke-miterlimit:20;" d="M -6.657254 144.544779 C 6.357059 141.360428 7.587681 133.682648 14.048445 135.968899 " transform="matrix(3.999503,0,0,4.001502,253.211644,-410.279099)"/>
<path style="fill-rule:nonzero;fill:rgb(98.823529%,81.960785%,8.627451%);fill-opacity:1;stroke-width:0.611;stroke-linecap:butt;stroke-linejoin:miter;stroke:rgb(48.235294%,24.705882%,0%);stroke-opacity:1;stroke-miterlimit:20;" d="M -17.009127 148.833207 L -12.687301 153.154826 L 6.760429 125.063815 L -21.33193 144.511588 L -17.010104 148.833207 L 6.760429 125.062839 " transform="matrix(3.999503,0,0,4.001502,253.211644,-410.279099)"/>
<path style=" stroke:none;fill-rule:nonzero;fill:rgb(48.235294%,24.705882%,0%);fill-opacity:1;" d="M 185.183594 185.277344 L 167.898438 167.984375 L 185.183594 185.277344 L 280.253906 90.160156 L 167.898438 167.984375 "/>
<path style="fill-rule:nonzero;fill:rgb(98.823529%,81.960785%,8.627451%);fill-opacity:1;stroke-width:0.611;stroke-linecap:square;stroke-linejoin:miter;stroke:rgb(48.235294%,24.705882%,0%);stroke-opacity:1;stroke-miterlimit:20;" d="M -7.954291 150.930076 L -3.376573 147.864821 C 5.738818 160.460676 11.130113 152.771181 14.048445 161.69654 C 8.628826 156.144914 7.612098 162.3584 -3.682275 157.68047 " transform="matrix(3.999503,0,0,4.001502,253.211644,-410.279099)"/>
<path style="fill-rule:nonzero;fill:rgb(48.235294%,24.705882%,0%);fill-opacity:1;stroke-width:0.278;stroke-linecap:square;stroke-linejoin:miter;stroke:rgb(48.235294%,24.705882%,0%);stroke-opacity:1;stroke-miterlimit:20;" d="M -7.954291 150.930076 L -6.551772 152.947873 L -6.499032 152.859039 C -0.816684 156.304034 3.552023 156.889751 6.931349 157.393468 C 8.620036 157.645327 10.069435 157.871804 11.30787 158.448736 C 12.133168 158.8275 12.855914 159.395646 13.420437 160.107293 C 10.38295 153.722972 5.122531 159.605528 -3.375596 147.862869 Z M -7.954291 150.930076 " transform="matrix(3.999503,0,0,4.001502,253.211644,-410.279099)"/>
<path style="fill:none;stroke-width:0.611;stroke-linecap:butt;stroke-linejoin:miter;stroke:rgb(48.235294%,24.705882%,0%);stroke-opacity:1;stroke-miterlimit:20;" d="M -6.657254 153.120659 C 4.798271 160.071174 11.095929 155.513315 14.048445 161.69654 " transform="matrix(3.999503,0,0,4.001502,253.211644,-410.279099)"/>
<path style="fill-rule:nonzero;fill:rgb(98.823529%,81.960785%,8.627451%);fill-opacity:1;stroke-width:0.611;stroke-linecap:butt;stroke-linejoin:miter;stroke:rgb(48.235294%,24.705882%,0%);stroke-opacity:1;stroke-miterlimit:20;" d="M -17.009127 148.833207 L -17.009127 154.945169 L 16.60638 148.833207 L -17.009127 142.721245 L -17.009127 148.833207 L 16.60638 148.833207 " transform="matrix(3.999503,0,0,4.001502,253.211644,-410.279099)"/>
<path style=" stroke:none;fill-rule:nonzero;fill:rgb(48.235294%,24.705882%,0%);fill-opacity:1;" d="M 185.183594 185.277344 L 185.183594 160.820312 L 185.183594 185.277344 L 319.628906 185.277344 L 185.183594 160.820312 "/>
<path style="fill-rule:nonzero;fill:rgb(98.823529%,81.960785%,8.627451%);fill-opacity:1;stroke-width:0.611;stroke-linecap:square;stroke-linejoin:miter;stroke:rgb(48.235294%,24.705882%,0%);stroke-opacity:1;stroke-miterlimit:20;" d="M -12.088594 156.718917 L -6.683625 157.787852 C -9.145845 173.14146 0.104329 171.514141 -4.144247 179.889901 C -4.050485 172.133049 -9.157565 175.72545 -13.834904 164.43184 " transform="matrix(3.999503,0,0,4.001502,253.211644,-410.279099)"/>
<path style="fill-rule:nonzero;fill:rgb(48.235294%,24.705882%,0%);fill-opacity:1;stroke-width:0.278;stroke-linecap:square;stroke-linejoin:miter;stroke:rgb(48.235294%,24.705882%,0%);stroke-opacity:1;stroke-miterlimit:20;" d="M -12.087617 156.717941 L -12.524195 159.136954 L -12.423596 159.111573 C -10.842345 165.565204 -8.167208 169.068771 -6.133752 171.813833 C -5.118 173.187341 -4.253635 174.371466 -3.784827 175.65614 C -3.469358 176.506407 -3.359969 177.420126 -3.464475 178.321155 C -1.096993 171.658618 -8.976879 172.100835 -6.682648 157.786875 Z M -12.087617 156.717941 " transform="matrix(3.999503,0,0,4.001502,253.211644,-410.279099)"/>
<path style="fill:none;stroke-width:0.611;stroke-linecap:butt;stroke-linejoin:miter;stroke:rgb(48.235294%,24.705882%,0%);stroke-opacity:1;stroke-miterlimit:20;" d="M -12.719531 159.185764 C -9.535542 172.200407 -1.859783 173.430414 -4.1462 179.889901 " transform="matrix(3.999503,0,0,4.001502,253.211644,-410.279099)"/>
<path style="fill-rule:nonzero;fill:rgb(98.823529%,81.960785%,8.627451%);fill-opacity:1;stroke-width:0.611;stroke-linecap:butt;stroke-linejoin:miter;stroke:rgb(48.235294%,24.705882%,0%);stroke-opacity:1;stroke-miterlimit:20;" d="M -17.009127 148.833207 L -21.330954 153.154826 L 6.761406 172.6026 L -12.687301 144.511588 L -17.009127 148.833207 L 6.761406 172.6026 " transform="matrix(3.999503,0,0,4.001502,253.211644,-410.279099)"/>
<path style=" stroke:none;fill-rule:nonzero;fill:rgb(48.235294%,24.705882%,0%);fill-opacity:1;" d="M 185.183594 185.277344 L 202.46875 167.984375 L 185.183594 185.277344 L 280.253906 280.390625 L 202.46875 167.984375 "/>
<path style="fill-rule:nonzero;fill:rgb(48.235294%,24.705882%,0%);fill-opacity:1;stroke-width:0.278;stroke-linecap:square;stroke-linejoin:miter;stroke:rgb(48.235294%,24.705882%,0%);stroke-opacity:1;stroke-miterlimit:20;" d="M -19.105091 157.8884 L -21.12292 159.291193 L -21.035018 159.343908 C -24.479783 165.025367 -25.064816 169.393844 -25.568785 172.773434 C -25.82077 174.463229 -26.04736 175.910927 -26.624581 177.14972 C -27.003534 177.974605 -27.570987 178.697966 -28.282013 179.262207 C -21.898407 176.225262 -27.781951 170.964543 -16.038303 162.465782 Z M -19.105091 157.8884 " transform="matrix(3.999503,0,0,4.001502,253.211644,-410.279099)"/>
<path style="fill:none;stroke-width:0.611;stroke-linecap:butt;stroke-linejoin:miter;stroke:rgb(48.235294%,24.705882%,0%);stroke-opacity:1;stroke-miterlimit:20;" d="M -21.29677 159.185764 C -28.246853 170.640446 -23.688669 176.937885 -29.873031 179.889901 " transform="matrix(3.999503,0,0,4.001502,253.211644,-410.279099)"/>
<path style="fill-rule:nonzero;fill:rgb(98.823529%,81.960785%,8.627451%);fill-opacity:1;stroke-width:0.611;stroke-linecap:butt;stroke-linejoin:miter;stroke:rgb(48.235294%,24.705882%,0%);stroke-opacity:1;stroke-miterlimit:20;" d="M -17.009127 148.833207 L -23.121215 148.833207 L -17.009127 182.449487 L -10.897039 148.833207 L -17.009127 148.833207 L -17.009127 182.449487 " transform="matrix(3.999503,0,0,4.001502,253.211644,-410.279099)"/>
<path style=" stroke:none;fill-rule:nonzero;fill:rgb(48.235294%,24.705882%,0%);fill-opacity:1;" d="M 185.183594 185.277344 L 209.628906 185.277344 L 185.183594 185.277344 L 185.183594 319.792969 L 209.628906 185.277344 "/>
<path style=" stroke:none;fill-rule:nonzero;fill:rgb(48.235294%,24.705882%,0%);fill-opacity:1;" d="M 185.183594 185.277344 L 202.46875 202.570312 L 185.183594 185.277344 L 90.117188 280.390625 L 202.46875 202.570312 "/>
<path style="fill-rule:nonzero;fill:rgb(98.823529%,81.960785%,8.627451%);fill-opacity:1;stroke-width:0.611;stroke-linecap:butt;stroke-linejoin:miter;stroke:rgb(48.235294%,24.705882%,0%);stroke-opacity:1;stroke-miterlimit:20;" d="M -5.803633 148.833207 C -5.803633 155.021313 -10.820858 160.037983 -17.009127 160.037983 C -23.197397 160.037983 -28.213645 155.021313 -28.213645 148.833207 C -28.213645 142.645102 -23.197397 137.628432 -17.009127 137.628432 C -10.820858 137.628432 -5.803633 142.645102 -5.803633 148.833207 Z M -5.803633 148.833207 " transform="matrix(3.999503,0,0,4.001502,253.211644,-410.279099)"/>
<path style=" stroke:none;fill-rule:nonzero;fill:rgb(48.235294%,24.705882%,0%);fill-opacity:1;" d="M 218.183594 167.339844 C 215.332031 170.601562 213.703125 164.902344 203.519531 164.902344 C 193.332031 164.902344 191.703125 171.011719 190.070312 169.785156 C 188.445312 168.566406 198.628906 161.226562 201.890625 160.824219 C 205.144531 160.414062 214.515625 163.675781 218.183594 167.347656 M 206.371094 171.011719 C 209.222656 173.457031 206.777344 178.757812 203.925781 178.757812 C 201.074219 178.757812 195.777344 173.863281 198.222656 170.601562 "/>
<path style=" stroke:none;fill-rule:nonzero;fill:rgb(48.235294%,24.705882%,0%);fill-opacity:1;" d="M 192.921875 174.679688 C 193.332031 169.785156 197.40625 168.972656 203.921875 168.972656 C 210.441406 168.972656 213.296875 173.863281 215.742188 175.089844 C 212.886719 175.089844 210.445312 171.011719 203.925781 171.011719 C 197.40625 171.011719 197.40625 171.011719 192.925781 175.089844 M 194.148438 175.902344 C 195.777344 173.460938 197.816406 178.351562 202.292969 178.351562 C 206.773438 178.351562 209.222656 177.125 212.074219 175.089844 C 214.925781 173.046875 207.996094 179.980469 203.519531 179.980469 C 199.039062 179.980469 192.921875 177.535156 194.148438 175.902344 M 162.371094 170.601562 C 160.332031 171.417969 157.070312 175.496094 162.371094 178.351562 C 158.292969 175.496094 161.554688 171.417969 162.371094 170.601562 Z M 162.371094 170.601562 "/>
<path style=" stroke:none;fill-rule:nonzero;fill:rgb(48.235294%,24.705882%,0%);fill-opacity:1;" d="M 208 170.601562 C 208.8125 171.417969 212.074219 175.496094 208 178.351562 C 213.296875 175.496094 210.035156 171.417969 208 170.601562 Z M 178.664062 188.128906 C 174.996094 188.945312 176.222656 194.242188 172.960938 194.652344 C 169.703125 195.058594 168.074219 198.730469 168.480469 198.320312 C 170.519531 196.691406 175 195.46875 178.257812 195.46875 C 181.515625 195.46875 182.332031 197.507812 185.183594 197.507812 C 188.035156 197.507812 188.851562 195.46875 192.109375 195.46875 C 195.371094 195.46875 199.851562 196.691406 201.890625 198.320312 C 202.292969 198.730469 200.667969 195.058594 197.410156 194.652344 C 194.148438 194.242188 195.371094 188.945312 191.703125 188.128906 C 191.703125 189.761719 192.921875 189.355469 193.332031 191.800781 C 193.332031 193.839844 189.667969 193.839844 188.851562 191.800781 C 189.667969 195.058594 187.21875 195.058594 185.183594 195.058594 C 183.148438 195.058594 180.703125 195.058594 181.515625 191.800781 C 180.703125 193.839844 177.039062 193.839844 177.039062 191.800781 C 177.445312 189.355469 178.664062 189.757812 178.664062 188.128906 Z M 166.035156 201.992188 C 162.773438 204.4375 161.964844 205.660156 161.554688 208.511719 C 162.53125 206.800781 163.011719 206.097656 163.753906 205.09375 L 163.1875 204.84375 C 163.421875 204.871094 163.636719 204.90625 163.867188 204.941406 C 164.355469 204.277344 164.792969 203.699219 166.035156 201.992188 Z M 166.035156 201.992188 "/>
<path style=" stroke:none;fill-rule:nonzero;fill:rgb(48.235294%,24.705882%,0%);fill-opacity:1;" d="M 163.863281 204.941406 L 163.8125 205.011719 C 164.324219 205.132812 164.863281 205.183594 165.425781 205.1875 C 164.90625 205.097656 164.386719 205.011719 163.867188 204.941406 Z M 165.425781 205.1875 C 167.96875 205.636719 169.960938 206.21875 171.789062 206.8125 C 174.070312 206.644531 177.21875 206.0625 185.1875 206.0625 C 193.160156 206.0625 196.296875 206.644531 198.578125 206.8125 C 200.40625 206.21875 202.402344 205.636719 204.9375 205.1875 C 200.449219 205.203125 194.46875 201.988281 191.699219 201.988281 C 188.445312 201.988281 187.628906 202.804688 185.183594 202.804688 C 182.742188 202.804688 181.925781 201.992188 178.664062 201.992188 C 175.902344 201.992188 169.917969 205.203125 165.425781 205.1875 Z M 204.9375 205.1875 C 205.503906 205.1875 206.050781 205.128906 206.558594 205.011719 L 206.503906 204.941406 C 205.960938 205.019531 205.4375 205.101562 204.941406 205.1875 Z M 204.9375 205.1875 "/>
<path style=" stroke:none;fill-rule:nonzero;fill:rgb(48.235294%,24.705882%,0%);fill-opacity:1;" d="M 206.503906 204.941406 C 206.734375 204.90625 206.945312 204.871094 207.183594 204.84375 C 206.980469 204.929688 206.8125 205.003906 206.613281 205.09375 C 207.355469 206.097656 207.835938 206.800781 208.8125 208.511719 C 208.40625 205.660156 207.59375 204.4375 204.332031 201.992188 C 205.574219 203.699219 206.011719 204.273438 206.503906 204.941406 Z M 206.503906 204.941406 "/>
<path style=" stroke:none;fill-rule:nonzero;fill:rgb(48.235294%,24.705882%,0%);fill-opacity:1;" d="M 206.617188 205.09375 C 206.609375 205.082031 206.601562 205.070312 206.59375 205.0625 C 202.34375 206.703125 200.847656 206.984375 198.578125 206.8125 C 194.714844 208.066406 191.53125 209.328125 185.183594 209.328125 C 178.835938 209.328125 175.652344 208.066406 171.789062 206.8125 C 169.523438 206.980469 168.027344 206.703125 163.773438 205.0625 C 163.769531 205.074219 163.761719 205.082031 163.753906 205.09375 C 176.554688 210.601562 175.152344 212.585938 185.183594 212.585938 C 195.214844 212.585938 193.816406 210.601562 206.613281 205.09375 Z M 163.773438 205.0625 C 163.789062 205.046875 163.800781 205.027344 163.816406 205.011719 C 163.601562 204.96875 163.390625 204.914062 163.1875 204.84375 C 163.417969 204.9375 163.558594 204.980469 163.773438 205.0625 Z M 206.59375 205.0625 C 206.808594 204.980469 206.953125 204.9375 207.183594 204.84375 C 206.984375 204.914062 206.769531 204.964844 206.558594 205.011719 C 206.570312 205.03125 206.582031 205.046875 206.597656 205.0625 Z M 152.183594 167.339844 C 155.035156 170.601562 156.664062 164.902344 166.851562 164.902344 C 177.039062 164.902344 178.664062 171.011719 180.296875 169.785156 C 181.929688 168.5625 171.738281 161.226562 168.480469 160.824219 C 165.226562 160.417969 155.851562 163.675781 152.183594 167.347656 M 164 171.011719 C 161.148438 173.457031 163.589844 178.757812 166.441406 178.757812 C 169.292969 178.757812 174.59375 173.863281 172.144531 170.601562 "/>
<path style=" stroke:none;fill-rule:nonzero;fill:rgb(48.235294%,24.705882%,0%);fill-opacity:1;" d="M 177.445312 174.679688 C 177.039062 169.785156 172.964844 168.972656 166.445312 168.972656 C 159.925781 168.972656 157.070312 173.863281 154.628906 175.089844 C 157.480469 175.089844 159.921875 171.011719 166.441406 171.011719 C 172.960938 171.011719 172.960938 171.011719 177.441406 175.089844 M 176.222656 175.902344 C 174.59375 173.460938 172.554688 178.351562 168.074219 178.351562 C 163.59375 178.351562 161.148438 177.125 158.296875 175.089844 C 155.445312 173.050781 162.371094 179.980469 166.855469 179.980469 C 171.335938 179.980469 177.445312 177.535156 176.222656 175.902344 M 185.183594 216.257812 C 183.144531 216.257812 177.851562 217.480469 185.183594 217.480469 C 192.515625 217.480469 187.222656 216.257812 185.183594 216.257812 "/>
</g>
</svg>
