<?xml version="1.0" encoding="UTF-8"?>
<svg xmlns="http://www.w3.org/2000/svg" xmlns:xlink="http://www.w3.org/1999/xlink" width="1000px" height="667px" viewBox="0 0 1000 667" version="1.1">
<g id="surface1">
<rect x="0" y="0" width="1000" height="667" style="fill:rgb(11.764706%,70.980394%,22.745098%);fill-opacity:1;stroke:none;"/>
<path style=" stroke:none;fill-rule:nonzero;fill:rgb(0%,60.000002%,70.980394%);fill-opacity:1;" d="M 0 0 L 1000 0 L 1000 333.5 L 0 333.5 Z M 0 0 "/>
<path style=" stroke:none;fill-rule:nonzero;fill:rgb(80.784315%,6.666667%,14.901961%);fill-opacity:1;" d="M 0 213.441406 L 1000 213.441406 L 1000 453.558594 L 0 453.558594 Z M 0 213.441406 "/>
<path style=" stroke:none;fill-rule:nonzero;fill:rgb(100%,100%,100%);fill-opacity:1;" d="M 0 226.78125 L 1000 226.78125 L 1000 440.21875 L 0 440.21875 Z M 0 226.78125 "/>
<path style=" stroke:none;fill-rule:nonzero;fill:rgb(100%,100%,100%);fill-opacity:1;" d="M 200 106.71875 C 200 150.925781 173.136719 186.761719 140 186.761719 C 106.863281 186.761719 80 150.925781 80 106.71875 C 80 62.515625 106.863281 26.679688 140 26.679688 C 173.136719 26.679688 200 62.515625 200 106.71875 Z M 200 106.71875 "/>
<path style=" stroke:none;fill-rule:nonzero;fill:rgb(0%,60.000002%,70.980394%);fill-opacity:1;" d="M 220 106.71875 C 220 150.925781 193.136719 186.761719 160 186.761719 C 126.863281 186.761719 100 150.925781 100 106.71875 C 100 62.515625 126.863281 26.679688 160 26.679688 C 193.136719 26.679688 220 62.515625 220 106.71875 Z M 220 106.71875 "/>
<path style=" stroke:none;fill-rule:nonzero;fill:rgb(100%,100%,100%);fill-opacity:1;" d="M 272 154.742188 L 268.292969 169.96875 L 274 172.441406 "/>
<path style=" stroke:none;fill-rule:nonzero;fill:rgb(100%,100%,100%);fill-opacity:1;" d="M 272 154.742188 L 275.707031 169.96875 L 270 172.441406 "/>
<path style=" stroke:none;fill-rule:nonzero;fill:rgb(100%,100%,100%);fill-opacity:1;" d="M 283.414062 165.804688 L 271.414062 165.804688 L 271.414062 173.808594 "/>
<path style=" stroke:none;fill-rule:nonzero;fill:rgb(100%,100%,100%);fill-opacity:1;" d="M 283.414062 165.804688 L 273.703125 175.214844 L 270.179688 168.738281 "/>
<path style=" stroke:none;fill-rule:nonzero;fill:rgb(100%,100%,100%);fill-opacity:1;" d="M 260.585938 165.804688 L 270.296875 175.214844 L 273.820312 168.738281 "/>
<path style=" stroke:none;fill-rule:nonzero;fill:rgb(100%,100%,100%);fill-opacity:1;" d="M 260.585938 165.804688 L 272.585938 165.804688 L 272.585938 173.808594 "/>
<path style=" stroke:none;fill-rule:nonzero;fill:rgb(100%,100%,100%);fill-opacity:1;" d="M 279.054688 183.703125 L 275.34375 168.476562 L 269.640625 170.953125 "/>
<path style=" stroke:none;fill-rule:nonzero;fill:rgb(100%,100%,100%);fill-opacity:1;" d="M 279.054688 183.703125 L 269.34375 174.292969 L 272.871094 167.816406 "/>
<path style=" stroke:none;fill-rule:nonzero;fill:rgb(100%,100%,100%);fill-opacity:1;" d="M 264.945312 183.703125 L 274.65625 174.292969 L 271.128906 167.816406 "/>
<path style=" stroke:none;fill-rule:nonzero;fill:rgb(100%,100%,100%);fill-opacity:1;" d="M 264.945312 183.703125 L 268.65625 168.476562 L 274.359375 170.953125 "/>
<path style=" stroke:none;fill-rule:nonzero;fill:rgb(100%,100%,100%);fill-opacity:1;" d="M 272 90.710938 L 268.292969 105.9375 L 274 108.410156 "/>
<path style=" stroke:none;fill-rule:nonzero;fill:rgb(100%,100%,100%);fill-opacity:1;" d="M 272 90.710938 L 275.707031 105.9375 L 270 108.410156 "/>
<path style=" stroke:none;fill-rule:nonzero;fill:rgb(100%,100%,100%);fill-opacity:1;" d="M 283.414062 101.773438 L 271.414062 101.773438 L 271.414062 109.777344 "/>
<path style=" stroke:none;fill-rule:nonzero;fill:rgb(100%,100%,100%);fill-opacity:1;" d="M 283.414062 101.773438 L 273.703125 111.183594 L 270.179688 104.707031 "/>
<path style=" stroke:none;fill-rule:nonzero;fill:rgb(100%,100%,100%);fill-opacity:1;" d="M 260.585938 101.773438 L 270.296875 111.183594 L 273.820312 104.707031 "/>
<path style=" stroke:none;fill-rule:nonzero;fill:rgb(100%,100%,100%);fill-opacity:1;" d="M 260.585938 101.773438 L 272.585938 101.773438 L 272.585938 109.777344 "/>
<path style=" stroke:none;fill-rule:nonzero;fill:rgb(100%,100%,100%);fill-opacity:1;" d="M 279.054688 119.671875 L 275.34375 104.445312 L 269.640625 106.917969 "/>
<path style=" stroke:none;fill-rule:nonzero;fill:rgb(100%,100%,100%);fill-opacity:1;" d="M 279.054688 119.671875 L 269.34375 110.261719 L 272.871094 103.785156 "/>
<path style=" stroke:none;fill-rule:nonzero;fill:rgb(100%,100%,100%);fill-opacity:1;" d="M 264.945312 119.671875 L 274.65625 110.261719 L 271.128906 103.785156 "/>
<path style=" stroke:none;fill-rule:nonzero;fill:rgb(100%,100%,100%);fill-opacity:1;" d="M 264.945312 119.671875 L 268.65625 104.445312 L 274.359375 106.917969 "/>
<path style=" stroke:none;fill-rule:nonzero;fill:rgb(100%,100%,100%);fill-opacity:1;" d="M 272 26.679688 L 268.292969 41.90625 L 274 44.378906 "/>
<path style=" stroke:none;fill-rule:nonzero;fill:rgb(100%,100%,100%);fill-opacity:1;" d="M 272 26.679688 L 275.707031 41.90625 L 270 44.378906 "/>
<path style=" stroke:none;fill-rule:nonzero;fill:rgb(100%,100%,100%);fill-opacity:1;" d="M 283.414062 37.742188 L 271.414062 37.742188 L 271.414062 45.746094 "/>
<path style=" stroke:none;fill-rule:nonzero;fill:rgb(100%,100%,100%);fill-opacity:1;" d="M 283.414062 37.742188 L 273.703125 47.152344 L 270.179688 40.675781 "/>
<path style=" stroke:none;fill-rule:nonzero;fill:rgb(100%,100%,100%);fill-opacity:1;" d="M 260.585938 37.742188 L 270.296875 47.152344 L 273.820312 40.675781 "/>
<path style=" stroke:none;fill-rule:nonzero;fill:rgb(100%,100%,100%);fill-opacity:1;" d="M 260.585938 37.742188 L 272.585938 37.742188 L 272.585938 45.746094 "/>
<path style=" stroke:none;fill-rule:nonzero;fill:rgb(100%,100%,100%);fill-opacity:1;" d="M 279.054688 55.640625 L 275.34375 40.414062 L 269.640625 42.886719 "/>
<path style=" stroke:none;fill-rule:nonzero;fill:rgb(100%,100%,100%);fill-opacity:1;" d="M 279.054688 55.640625 L 269.34375 46.230469 L 272.871094 39.753906 "/>
<path style=" stroke:none;fill-rule:nonzero;fill:rgb(100%,100%,100%);fill-opacity:1;" d="M 264.945312 55.640625 L 274.65625 46.230469 L 271.128906 39.753906 "/>
<path style=" stroke:none;fill-rule:nonzero;fill:rgb(100%,100%,100%);fill-opacity:1;" d="M 264.945312 55.640625 L 268.65625 40.414062 L 274.359375 42.886719 "/>
<path style=" stroke:none;fill-rule:nonzero;fill:rgb(100%,100%,100%);fill-opacity:1;" d="M 320 154.742188 L 316.292969 169.96875 L 322 172.441406 "/>
<path style=" stroke:none;fill-rule:nonzero;fill:rgb(100%,100%,100%);fill-opacity:1;" d="M 320 154.742188 L 323.707031 169.96875 L 318 172.441406 "/>
<path style=" stroke:none;fill-rule:nonzero;fill:rgb(100%,100%,100%);fill-opacity:1;" d="M 331.414062 165.804688 L 319.414062 165.804688 L 319.414062 173.808594 "/>
<path style=" stroke:none;fill-rule:nonzero;fill:rgb(100%,100%,100%);fill-opacity:1;" d="M 331.414062 165.804688 L 321.703125 175.214844 L 318.179688 168.738281 "/>
<path style=" stroke:none;fill-rule:nonzero;fill:rgb(100%,100%,100%);fill-opacity:1;" d="M 308.585938 165.804688 L 318.296875 175.214844 L 321.820312 168.738281 "/>
<path style=" stroke:none;fill-rule:nonzero;fill:rgb(100%,100%,100%);fill-opacity:1;" d="M 308.585938 165.804688 L 320.585938 165.804688 L 320.585938 173.808594 "/>
<path style=" stroke:none;fill-rule:nonzero;fill:rgb(100%,100%,100%);fill-opacity:1;" d="M 327.054688 183.703125 L 323.34375 168.476562 L 317.640625 170.953125 "/>
<path style=" stroke:none;fill-rule:nonzero;fill:rgb(100%,100%,100%);fill-opacity:1;" d="M 327.054688 183.703125 L 317.34375 174.292969 L 320.871094 167.816406 "/>
<path style=" stroke:none;fill-rule:nonzero;fill:rgb(100%,100%,100%);fill-opacity:1;" d="M 312.945312 183.703125 L 322.65625 174.292969 L 319.128906 167.816406 "/>
<path style=" stroke:none;fill-rule:nonzero;fill:rgb(100%,100%,100%);fill-opacity:1;" d="M 312.945312 183.703125 L 316.65625 168.476562 L 322.359375 170.953125 "/>
<path style=" stroke:none;fill-rule:nonzero;fill:rgb(100%,100%,100%);fill-opacity:1;" d="M 320 90.710938 L 316.292969 105.9375 L 322 108.410156 "/>
<path style=" stroke:none;fill-rule:nonzero;fill:rgb(100%,100%,100%);fill-opacity:1;" d="M 320 90.710938 L 323.707031 105.9375 L 318 108.410156 "/>
<path style=" stroke:none;fill-rule:nonzero;fill:rgb(100%,100%,100%);fill-opacity:1;" d="M 331.414062 101.773438 L 319.414062 101.773438 L 319.414062 109.777344 "/>
<path style=" stroke:none;fill-rule:nonzero;fill:rgb(100%,100%,100%);fill-opacity:1;" d="M 331.414062 101.773438 L 321.703125 111.183594 L 318.179688 104.707031 "/>
<path style=" stroke:none;fill-rule:nonzero;fill:rgb(100%,100%,100%);fill-opacity:1;" d="M 308.585938 101.773438 L 318.296875 111.183594 L 321.820312 104.707031 "/>
<path style=" stroke:none;fill-rule:nonzero;fill:rgb(100%,100%,100%);fill-opacity:1;" d="M 308.585938 101.773438 L 320.585938 101.773438 L 320.585938 109.777344 "/>
<path style=" stroke:none;fill-rule:nonzero;fill:rgb(100%,100%,100%);fill-opacity:1;" d="M 327.054688 119.671875 L 323.34375 104.445312 L 317.640625 106.917969 "/>
<path style=" stroke:none;fill-rule:nonzero;fill:rgb(100%,100%,100%);fill-opacity:1;" d="M 327.054688 119.671875 L 317.34375 110.261719 L 320.871094 103.785156 "/>
<path style=" stroke:none;fill-rule:nonzero;fill:rgb(100%,100%,100%);fill-opacity:1;" d="M 312.945312 119.671875 L 322.65625 110.261719 L 319.128906 103.785156 "/>
<path style=" stroke:none;fill-rule:nonzero;fill:rgb(100%,100%,100%);fill-opacity:1;" d="M 312.945312 119.671875 L 316.65625 104.445312 L 322.359375 106.917969 "/>
<path style=" stroke:none;fill-rule:nonzero;fill:rgb(100%,100%,100%);fill-opacity:1;" d="M 320 26.679688 L 316.292969 41.90625 L 322 44.378906 "/>
<path style=" stroke:none;fill-rule:nonzero;fill:rgb(100%,100%,100%);fill-opacity:1;" d="M 320 26.679688 L 323.707031 41.90625 L 318 44.378906 "/>
<path style=" stroke:none;fill-rule:nonzero;fill:rgb(100%,100%,100%);fill-opacity:1;" d="M 331.414062 37.742188 L 319.414062 37.742188 L 319.414062 45.746094 "/>
<path style=" stroke:none;fill-rule:nonzero;fill:rgb(100%,100%,100%);fill-opacity:1;" d="M 331.414062 37.742188 L 321.703125 47.152344 L 318.179688 40.675781 "/>
<path style=" stroke:none;fill-rule:nonzero;fill:rgb(100%,100%,100%);fill-opacity:1;" d="M 308.585938 37.742188 L 318.296875 47.152344 L 321.820312 40.675781 "/>
<path style=" stroke:none;fill-rule:nonzero;fill:rgb(100%,100%,100%);fill-opacity:1;" d="M 308.585938 37.742188 L 320.585938 37.742188 L 320.585938 45.746094 "/>
<path style=" stroke:none;fill-rule:nonzero;fill:rgb(100%,100%,100%);fill-opacity:1;" d="M 327.054688 55.640625 L 323.34375 40.414062 L 317.640625 42.886719 "/>
<path style=" stroke:none;fill-rule:nonzero;fill:rgb(100%,100%,100%);fill-opacity:1;" d="M 327.054688 55.640625 L 317.34375 46.230469 L 320.871094 39.753906 "/>
<path style=" stroke:none;fill-rule:nonzero;fill:rgb(100%,100%,100%);fill-opacity:1;" d="M 312.945312 55.640625 L 322.65625 46.230469 L 319.128906 39.753906 "/>
<path style=" stroke:none;fill-rule:nonzero;fill:rgb(100%,100%,100%);fill-opacity:1;" d="M 312.945312 55.640625 L 316.65625 40.414062 L 322.359375 42.886719 "/>
<path style=" stroke:none;fill-rule:nonzero;fill:rgb(100%,100%,100%);fill-opacity:1;" d="M 368 154.742188 L 364.292969 169.96875 L 370 172.441406 "/>
<path style=" stroke:none;fill-rule:nonzero;fill:rgb(100%,100%,100%);fill-opacity:1;" d="M 368 154.742188 L 371.707031 169.96875 L 366 172.441406 "/>
<path style=" stroke:none;fill-rule:nonzero;fill:rgb(100%,100%,100%);fill-opacity:1;" d="M 379.414062 165.804688 L 367.414062 165.804688 L 367.414062 173.808594 "/>
<path style=" stroke:none;fill-rule:nonzero;fill:rgb(100%,100%,100%);fill-opacity:1;" d="M 379.414062 165.804688 L 369.703125 175.214844 L 366.179688 168.738281 "/>
<path style=" stroke:none;fill-rule:nonzero;fill:rgb(100%,100%,100%);fill-opacity:1;" d="M 356.585938 165.804688 L 366.296875 175.214844 L 369.820312 168.738281 "/>
<path style=" stroke:none;fill-rule:nonzero;fill:rgb(100%,100%,100%);fill-opacity:1;" d="M 356.585938 165.804688 L 368.585938 165.804688 L 368.585938 173.808594 "/>
<path style=" stroke:none;fill-rule:nonzero;fill:rgb(100%,100%,100%);fill-opacity:1;" d="M 375.054688 183.703125 L 371.34375 168.476562 L 365.640625 170.953125 "/>
<path style=" stroke:none;fill-rule:nonzero;fill:rgb(100%,100%,100%);fill-opacity:1;" d="M 375.054688 183.703125 L 365.34375 174.292969 L 368.871094 167.816406 "/>
<path style=" stroke:none;fill-rule:nonzero;fill:rgb(100%,100%,100%);fill-opacity:1;" d="M 360.945312 183.703125 L 370.65625 174.292969 L 367.128906 167.816406 "/>
<path style=" stroke:none;fill-rule:nonzero;fill:rgb(100%,100%,100%);fill-opacity:1;" d="M 360.945312 183.703125 L 364.65625 168.476562 L 370.359375 170.953125 "/>
<path style=" stroke:none;fill-rule:nonzero;fill:rgb(100%,100%,100%);fill-opacity:1;" d="M 368 90.710938 L 364.292969 105.9375 L 370 108.410156 "/>
<path style=" stroke:none;fill-rule:nonzero;fill:rgb(100%,100%,100%);fill-opacity:1;" d="M 368 90.710938 L 371.707031 105.9375 L 366 108.410156 "/>
<path style=" stroke:none;fill-rule:nonzero;fill:rgb(100%,100%,100%);fill-opacity:1;" d="M 379.414062 101.773438 L 367.414062 101.773438 L 367.414062 109.777344 "/>
<path style=" stroke:none;fill-rule:nonzero;fill:rgb(100%,100%,100%);fill-opacity:1;" d="M 379.414062 101.773438 L 369.703125 111.183594 L 366.179688 104.707031 "/>
<path style=" stroke:none;fill-rule:nonzero;fill:rgb(100%,100%,100%);fill-opacity:1;" d="M 356.585938 101.773438 L 366.296875 111.183594 L 369.820312 104.707031 "/>
<path style=" stroke:none;fill-rule:nonzero;fill:rgb(100%,100%,100%);fill-opacity:1;" d="M 356.585938 101.773438 L 368.585938 101.773438 L 368.585938 109.777344 "/>
<path style=" stroke:none;fill-rule:nonzero;fill:rgb(100%,100%,100%);fill-opacity:1;" d="M 375.054688 119.671875 L 371.34375 104.445312 L 365.640625 106.917969 "/>
<path style=" stroke:none;fill-rule:nonzero;fill:rgb(100%,100%,100%);fill-opacity:1;" d="M 375.054688 119.671875 L 365.34375 110.261719 L 368.871094 103.785156 "/>
<path style=" stroke:none;fill-rule:nonzero;fill:rgb(100%,100%,100%);fill-opacity:1;" d="M 360.945312 119.671875 L 370.65625 110.261719 L 367.128906 103.785156 "/>
<path style=" stroke:none;fill-rule:nonzero;fill:rgb(100%,100%,100%);fill-opacity:1;" d="M 360.945312 119.671875 L 364.65625 104.445312 L 370.359375 106.917969 "/>
<path style=" stroke:none;fill-rule:nonzero;fill:rgb(100%,100%,100%);fill-opacity:1;" d="M 368 26.679688 L 364.292969 41.90625 L 370 44.378906 "/>
<path style=" stroke:none;fill-rule:nonzero;fill:rgb(100%,100%,100%);fill-opacity:1;" d="M 368 26.679688 L 371.707031 41.90625 L 366 44.378906 "/>
<path style=" stroke:none;fill-rule:nonzero;fill:rgb(100%,100%,100%);fill-opacity:1;" d="M 379.414062 37.742188 L 367.414062 37.742188 L 367.414062 45.746094 "/>
<path style=" stroke:none;fill-rule:nonzero;fill:rgb(100%,100%,100%);fill-opacity:1;" d="M 379.414062 37.742188 L 369.703125 47.152344 L 366.179688 40.675781 "/>
<path style=" stroke:none;fill-rule:nonzero;fill:rgb(100%,100%,100%);fill-opacity:1;" d="M 356.585938 37.742188 L 366.296875 47.152344 L 369.820312 40.675781 "/>
<path style=" stroke:none;fill-rule:nonzero;fill:rgb(100%,100%,100%);fill-opacity:1;" d="M 356.585938 37.742188 L 368.585938 37.742188 L 368.585938 45.746094 "/>
<path style=" stroke:none;fill-rule:nonzero;fill:rgb(100%,100%,100%);fill-opacity:1;" d="M 375.054688 55.640625 L 371.34375 40.414062 L 365.640625 42.886719 "/>
<path style=" stroke:none;fill-rule:nonzero;fill:rgb(100%,100%,100%);fill-opacity:1;" d="M 375.054688 55.640625 L 365.34375 46.230469 L 368.871094 39.753906 "/>
<path style=" stroke:none;fill-rule:nonzero;fill:rgb(100%,100%,100%);fill-opacity:1;" d="M 360.945312 55.640625 L 370.65625 46.230469 L 367.128906 39.753906 "/>
<path style=" stroke:none;fill-rule:nonzero;fill:rgb(100%,100%,100%);fill-opacity:1;" d="M 360.945312 55.640625 L 364.65625 40.414062 L 370.359375 42.886719 "/>
<path style=" stroke:none;fill-rule:nonzero;fill:rgb(100%,100%,100%);fill-opacity:1;" d="M 176 154.742188 L 172.292969 169.96875 L 178 172.441406 "/>
<path style=" stroke:none;fill-rule:nonzero;fill:rgb(100%,100%,100%);fill-opacity:1;" d="M 176 154.742188 L 179.707031 169.96875 L 174 172.441406 "/>
<path style=" stroke:none;fill-rule:nonzero;fill:rgb(100%,100%,100%);fill-opacity:1;" d="M 187.414062 165.804688 L 175.414062 165.804688 L 175.414062 173.808594 "/>
<path style=" stroke:none;fill-rule:nonzero;fill:rgb(100%,100%,100%);fill-opacity:1;" d="M 187.414062 165.804688 L 177.703125 175.214844 L 174.179688 168.738281 "/>
<path style=" stroke:none;fill-rule:nonzero;fill:rgb(100%,100%,100%);fill-opacity:1;" d="M 164.585938 165.804688 L 174.296875 175.214844 L 177.820312 168.738281 "/>
<path style=" stroke:none;fill-rule:nonzero;fill:rgb(100%,100%,100%);fill-opacity:1;" d="M 164.585938 165.804688 L 176.585938 165.804688 L 176.585938 173.808594 "/>
<path style=" stroke:none;fill-rule:nonzero;fill:rgb(100%,100%,100%);fill-opacity:1;" d="M 183.054688 183.703125 L 179.34375 168.476562 L 173.640625 170.953125 "/>
<path style=" stroke:none;fill-rule:nonzero;fill:rgb(100%,100%,100%);fill-opacity:1;" d="M 183.054688 183.703125 L 173.34375 174.292969 L 176.871094 167.816406 "/>
<path style=" stroke:none;fill-rule:nonzero;fill:rgb(100%,100%,100%);fill-opacity:1;" d="M 168.945312 183.703125 L 178.65625 174.292969 L 175.128906 167.816406 "/>
<path style=" stroke:none;fill-rule:nonzero;fill:rgb(100%,100%,100%);fill-opacity:1;" d="M 168.945312 183.703125 L 172.65625 168.476562 L 178.359375 170.953125 "/>
<path style=" stroke:none;fill-rule:nonzero;fill:rgb(100%,100%,100%);fill-opacity:1;" d="M 224 154.742188 L 220.292969 169.96875 L 226 172.441406 "/>
<path style=" stroke:none;fill-rule:nonzero;fill:rgb(100%,100%,100%);fill-opacity:1;" d="M 224 154.742188 L 227.707031 169.96875 L 222 172.441406 "/>
<path style=" stroke:none;fill-rule:nonzero;fill:rgb(100%,100%,100%);fill-opacity:1;" d="M 235.414062 165.804688 L 223.414062 165.804688 L 223.414062 173.808594 "/>
<path style=" stroke:none;fill-rule:nonzero;fill:rgb(100%,100%,100%);fill-opacity:1;" d="M 235.414062 165.804688 L 225.703125 175.214844 L 222.179688 168.738281 "/>
<path style=" stroke:none;fill-rule:nonzero;fill:rgb(100%,100%,100%);fill-opacity:1;" d="M 212.585938 165.804688 L 222.296875 175.214844 L 225.820312 168.738281 "/>
<path style=" stroke:none;fill-rule:nonzero;fill:rgb(100%,100%,100%);fill-opacity:1;" d="M 212.585938 165.804688 L 224.585938 165.804688 L 224.585938 173.808594 "/>
<path style=" stroke:none;fill-rule:nonzero;fill:rgb(100%,100%,100%);fill-opacity:1;" d="M 231.054688 183.703125 L 227.34375 168.476562 L 221.640625 170.953125 "/>
<path style=" stroke:none;fill-rule:nonzero;fill:rgb(100%,100%,100%);fill-opacity:1;" d="M 231.054688 183.703125 L 221.34375 174.292969 L 224.871094 167.816406 "/>
<path style=" stroke:none;fill-rule:nonzero;fill:rgb(100%,100%,100%);fill-opacity:1;" d="M 216.945312 183.703125 L 226.65625 174.292969 L 223.128906 167.816406 "/>
<path style=" stroke:none;fill-rule:nonzero;fill:rgb(100%,100%,100%);fill-opacity:1;" d="M 216.945312 183.703125 L 220.65625 168.476562 L 226.359375 170.953125 "/>
<path style=" stroke:none;fill-rule:nonzero;fill:rgb(100%,100%,100%);fill-opacity:1;" d="M 224 90.710938 L 220.292969 105.9375 L 226 108.410156 "/>
<path style=" stroke:none;fill-rule:nonzero;fill:rgb(100%,100%,100%);fill-opacity:1;" d="M 224 90.710938 L 227.707031 105.9375 L 222 108.410156 "/>
<path style=" stroke:none;fill-rule:nonzero;fill:rgb(100%,100%,100%);fill-opacity:1;" d="M 235.414062 101.773438 L 223.414062 101.773438 L 223.414062 109.777344 "/>
<path style=" stroke:none;fill-rule:nonzero;fill:rgb(100%,100%,100%);fill-opacity:1;" d="M 235.414062 101.773438 L 225.703125 111.183594 L 222.179688 104.707031 "/>
<path style=" stroke:none;fill-rule:nonzero;fill:rgb(100%,100%,100%);fill-opacity:1;" d="M 212.585938 101.773438 L 222.296875 111.183594 L 225.820312 104.707031 "/>
<path style=" stroke:none;fill-rule:nonzero;fill:rgb(100%,100%,100%);fill-opacity:1;" d="M 212.585938 101.773438 L 224.585938 101.773438 L 224.585938 109.777344 "/>
<path style=" stroke:none;fill-rule:nonzero;fill:rgb(100%,100%,100%);fill-opacity:1;" d="M 231.054688 119.671875 L 227.34375 104.445312 L 221.640625 106.917969 "/>
<path style=" stroke:none;fill-rule:nonzero;fill:rgb(100%,100%,100%);fill-opacity:1;" d="M 231.054688 119.671875 L 221.34375 110.261719 L 224.871094 103.785156 "/>
<path style=" stroke:none;fill-rule:nonzero;fill:rgb(100%,100%,100%);fill-opacity:1;" d="M 216.945312 119.671875 L 226.65625 110.261719 L 223.128906 103.785156 "/>
<path style=" stroke:none;fill-rule:nonzero;fill:rgb(100%,100%,100%);fill-opacity:1;" d="M 216.945312 119.671875 L 220.65625 104.445312 L 226.359375 106.917969 "/>
</g>
</svg>
