<?xml version="1.0" encoding="UTF-8"?>
<svg xmlns="http://www.w3.org/2000/svg" xmlns:xlink="http://www.w3.org/1999/xlink" width="1000px" height="667px" viewBox="0 0 1000 667" version="1.1">
<g id="surface1">
<rect x="0" y="0" width="1000" height="667" style="fill:rgb(100%,100%,100%);fill-opacity:1;stroke:none;"/>
<path style="fill-rule:nonzero;fill:rgb(21.176471%,58.039218%,26.274511%);fill-opacity:1;stroke-width:3;stroke-linecap:butt;stroke-linejoin:miter;stroke:rgb(0.392157%,0%,0.784314%);stroke-opacity:1;stroke-miterlimit:10;" d="M 1885.93418 1567.625239 C 1885.93418 1567.625239 1884.903223 1560.631177 1898.176172 1555.508836 C 1911.454102 1550.381517 1912.485059 1531.27603 1909.830469 1518.53738 C 1909.830469 1518.53738 1902.897656 1530.653783 1894.490625 1534.690925 C 1894.490625 1534.690925 1880.774414 1541.839303 1880.146875 1555.488924 C 1880.146875 1555.488924 1880.037305 1560.47686 1879.001367 1564.359684 C 1878.438574 1566.485281 1872.367383 1547.275257 1883.872266 1532.983477 C 1895.740723 1518.233723 1899.062695 1506.26666 1889.619727 1482.964737 C 1889.619727 1482.964737 1888.738184 1497.102199 1879.444629 1505.181461 C 1870.151074 1513.255744 1868.970703 1513.877991 1869.120117 1533.137795 C 1869.120117 1533.137795 1869.269531 1539.818244 1865.728418 1541.993621 C 1865.728418 1541.993621 1858.501758 1531.430348 1856.584277 1524.441264 C 1854.666797 1517.452181 1853.780273 1514.500239 1862.037891 1506.420977 C 1862.037891 1506.420977 1888.499121 1489.321617 1869.413965 1451.897165 C 1869.413965 1451.897165 1868.82627 1464.790133 1859.682129 1472.401464 C 1850.533008 1480.012795 1851.275098 1485.140114 1850.831836 1498.341716 C 1850.388574 1511.548297 1849.502051 1510.617414 1848.471094 1512.479179 C 1848.471094 1512.479179 1831.657031 1481.565925 1844.636133 1465.103745 C 1857.615234 1448.636588 1864.841895 1445.216716 1850.533008 1414.617075 C 1850.533008 1414.617075 1851.170508 1430.307667 1839.71543 1438.073315 C 1828.265332 1445.843942 1830.919922 1464.013568 1830.919922 1464.013568 C 1830.919922 1464.013568 1831.657031 1470.853312 1829.296289 1475.821336 C 1829.296289 1475.821336 1813.094824 1444.22112 1828.55918 1427.201408 C 1841.687695 1412.75531 1842.574219 1402.659967 1835.491992 1382.155669 C 1835.491992 1382.155669 1834.605469 1391.628764 1827.378809 1396.756083 C 1820.152148 1401.883403 1814.399707 1407.005744 1815.729492 1426.733477 C 1815.729492 1426.733477 1816.317188 1440.557327 1814.549121 1444.440152 C 1814.549121 1444.440152 1807.760742 1431.860797 1805.848242 1423.627218 C 1803.930762 1415.39364 1803.188672 1410.579933 1808.204004 1402.346355 C 1813.219336 1394.112776 1833.13125 1370.502218 1809.384375 1336.482704 C 1809.384375 1336.482704 1808.647266 1347.513908 1802.600977 1357.454933 C 1796.554688 1367.395959 1799.353711 1379.203727 1800.683496 1388.208892 C 1802.013281 1397.219036 1797.585645 1405.920544 1797.585645 1405.920544 C 1797.585645 1405.920544 1787.261133 1386.969375 1789.477441 1365.220582 C 1791.68877 1343.476766 1782.838477 1325.610797 1762.777148 1312.717829 C 1762.777148 1312.717829 1748.174414 1346.583025 1768.086328 1363.821769 C 1768.086328 1363.821769 1785.049805 1380.597561 1789.328027 1400.947542 C 1789.328027 1400.947542 1776.493359 1399.708025 1764.844043 1377.02835 C 1753.189746 1354.348674 1728.999609 1357.922863 1727.380957 1357.768546 C 1727.380957 1357.768546 1731.360352 1392.873259 1768.52959 1402.814285 C 1768.52959 1402.814285 1792.276465 1406.851426 1796.704102 1424.249466 C 1796.704102 1424.249466 1800.683496 1436.211551 1802.307129 1442.578387 C 1802.307129 1442.578387 1794.786621 1439.626445 1787.853809 1429.376785 C 1780.920996 1419.122146 1781.802539 1417.882629 1758.354492 1415.552935 C 1758.354492 1415.552935 1748.911523 1414.462757 1743.896191 1407.782309 C 1743.896191 1407.782309 1753.782422 1444.908082 1779.147949 1444.599447 C 1779.147949 1444.599447 1802.307129 1442.115435 1815.28623 1472.555781 C 1815.28623 1472.555781 1812.776074 1471.002652 1809.384375 1468.672957 C 1805.992676 1466.343262 1797.43623 1461.997486 1780.477734 1464.013568 C 1763.514258 1466.034628 1758.792773 1463.237003 1754.514551 1461.838191 C 1754.514551 1461.838191 1771.627441 1493.214397 1795.817578 1483.895619 C 1820.002734 1474.576841 1831.686914 1508.561509 1831.950879 1509.213624 C 1831.950879 1509.213624 1828.708594 1506.729612 1824.430371 1502.533175 C 1820.152148 1498.341716 1811.271973 1493.169595 1794.487793 1498.496034 C 1794.487793 1498.496034 1782.395215 1503.155423 1770.153223 1499.426916 C 1770.153223 1499.426916 1781.951953 1522.260909 1809.533789 1518.378085 C 1837.110645 1514.495261 1844.048438 1538.728066 1844.048438 1538.728066 C 1844.048438 1538.728066 1840.35791 1536.552689 1837.852734 1534.531629 C 1835.342578 1532.515547 1826.049023 1527.233911 1806.14209 1533.137795 C 1786.230176 1539.036701 1778.998535 1532.201935 1778.998535 1532.201935 C 1778.998535 1532.201935 1790.065137 1552.397599 1811.301855 1554.727293 C 1811.301855 1554.727293 1823.100586 1554.572976 1828.115918 1552.706233 C 1833.13125 1550.844469 1846.404199 1547.892527 1855.54834 1561.094129 C 1855.54834 1561.094129 1853.043164 1561.562059 1849.208203 1559.854612 C 1849.208203 1559.854612 1835.04873 1554.727293 1824.280957 1563.737436 C 1824.280957 1563.737436 1814.693555 1573.524145 1801.121777 1571.657402 C 1801.121777 1571.657402 1818.67793 1588.746807 1846.553613 1574.30071 C 1846.553613 1574.30071 1855.991602 1567.465943 1862.924414 1572.74758 C 1869.857227 1578.029216 1885.93418 1567.625239 1885.93418 1567.625239 Z M 1885.93418 1567.625239 " transform="matrix(0.784314,0,0,0.784706,-1167.207031,-778.52709)"/>
<path style="fill-rule:nonzero;fill:rgb(95.686275%,77.254903%,23.921569%);fill-opacity:1;stroke-width:3;stroke-linecap:butt;stroke-linejoin:miter;stroke:rgb(0.392157%,0%,0.784314%);stroke-opacity:1;stroke-miterlimit:10;" d="M 2041.100684 1146.667358 C 2041.100684 1146.667358 2037.863379 1117.76023 2060.962793 1114.982517 C 2085.05332 1112.080355 2096.95166 1117.157894 2096.95166 1117.157894 L 2107.769238 1138.384 L 2104.028906 1152.67578 L 2089.08252 1159.510546 C 2089.08252 1159.510546 2091.64248 1137.557655 2071.516406 1137.099681 C 2066.416406 1136.985188 2063.423145 1139.006247 2055.354785 1137.726907 C 2047.246582 1136.43761 2042.908594 1145.353172 2041.100684 1146.667358 Z M 2041.100684 1146.667358 " transform="matrix(0.784314,0,0,0.784706,-1167.207031,-778.52709)"/>
<path style="fill-rule:nonzero;fill:rgb(95.686275%,77.254903%,23.921569%);fill-opacity:1;stroke-width:3;stroke-linecap:butt;stroke-linejoin:miter;stroke:rgb(0.392157%,0%,0.784314%);stroke-opacity:1;stroke-miterlimit:10;" d="M 2203.638281 1218.225817 C 2200.196777 1222.681109 2186.430762 1224.234239 2186.430762 1224.234239 C 2186.430762 1224.234239 2200.590234 1235.106147 2206.686328 1250.637443 C 2212.782422 1266.173718 2042.574902 1250.741981 2042.574902 1250.741981 C 2042.574902 1250.741981 2049.950977 1245.460345 2054.966309 1235.519319 C 2054.966309 1235.519319 2047.44082 1238.316944 2039.920312 1230.85993 C 2039.920312 1230.85993 2045.52334 1232.721694 2052.899414 1221.541152 C 2052.899414 1221.541152 2063.811621 1207.558007 2071.481543 1203.8295 C 2071.481543 1203.8295 2067.94541 1206.004877 2059.388965 1201.345488 C 2059.388965 1201.345488 2074.141113 1199.483723 2079.450293 1174.320036 C 2079.450293 1174.320036 2080.331836 1168.724787 2085.939844 1160.650503 C 2091.542871 1152.571242 2090.3625 1162.203633 2100.687012 1149.773618 C 2100.687012 1149.773618 2105.408496 1140.972549 2101.279687 1135.586375 C 2097.145898 1130.205179 2092.723242 1132.171481 2084.072168 1126.994382 C 2075.416113 1121.817283 2071.581152 1118.915121 2074.52959 1110.940397 C 2077.483008 1102.965674 2085.15293 1104.210169 2086.233691 1104.210169 C 2087.314453 1104.210169 2087.907129 1097.270865 2097.345117 1092.506938 C 2106.783105 1087.743012 2131.859766 1089.813851 2135.595117 1091.889669 C 2139.330469 1093.960509 2154.476074 1098.410822 2163.326367 1120.781863 C 2172.17168 1143.147927 2160.965625 1151.535822 2185.056152 1185.296481 C 2185.056152 1185.296481 2175.418945 1187.367321 2169.223242 1185.500578 C 2169.223242 1185.500578 2181.709277 1207.662544 2203.638281 1218.225817 Z M 2203.638281 1218.225817 " transform="matrix(0.784314,0,0,0.784706,-1167.207031,-778.52709)"/>
<path style="fill:none;stroke-width:3;stroke-linecap:butt;stroke-linejoin:miter;stroke:rgb(0.392157%,0%,0.784314%);stroke-opacity:1;stroke-miterlimit:10;" d="M 2098.32627 1123.833365 C 2078.713184 1122.902483 2086.233691 1104.210169 2086.233691 1104.210169 " transform="matrix(0.784314,0,0,0.784706,-1167.207031,-778.52709)"/>
<path style="fill-rule:nonzero;fill:rgb(95.686275%,77.254903%,23.921569%);fill-opacity:1;stroke-width:3;stroke-linecap:butt;stroke-linejoin:miter;stroke:rgb(0.392157%,0%,0.784314%);stroke-opacity:1;stroke-miterlimit:10;" d="M 2132.397656 1126.397025 C 2132.397656 1126.397025 2128.93125 1124.769225 2126.002734 1120.886401 C 2121.883887 1115.435513 2112.709863 1112.80714 2107.769238 1117.934459 C 2107.769238 1117.934459 2102.753906 1123.52473 2098.32627 1123.838343 C 2098.32627 1123.838343 2103.341602 1125.391473 2106.808008 1128.572402 C 2110.274414 1131.758309 2113.890234 1134.088003 2119.05 1133.391086 C 2124.214746 1132.689191 2125.026563 1129.971214 2127.457031 1128.343415 C 2129.89248 1126.705659 2132.397656 1126.397025 2132.397656 1126.397025 Z M 2132.397656 1126.397025 " transform="matrix(0.784314,0,0,0.784706,-1167.207031,-778.52709)"/>
<path style="fill-rule:nonzero;fill:rgb(95.686275%,77.254903%,23.921569%);fill-opacity:1;stroke-width:3;stroke-linecap:butt;stroke-linejoin:miter;stroke:rgb(0.392157%,0%,0.784314%);stroke-opacity:1;stroke-miterlimit:4;" d="M 2259.982324 1405.766227 C 2259.982324 1405.766227 2278.270605 1420.675276 2293.610449 1405.766227 C 2293.610449 1405.766227 2299.806152 1413.22324 2312.192578 1411.047863 C 2324.583984 1408.872486 2326.650879 1402.346355 2327.83125 1398.617848 C 2327.83125 1398.617848 2338.549219 1404.87019 2347.59375 1399.932034 C 2356.638281 1394.993879 2356.638281 1387.536865 2356.638281 1387.536865 C 2356.638281 1387.536865 2372.371582 1390.638146 2380.434961 1379.975314 C 2388.49834 1369.312481 2383.582617 1358.749208 2379.25459 1357.509691 C 2379.25459 1357.509691 2396.267871 1361.964983 2400.889746 1347.35959 C 2404.824316 1334.934553 2395.974023 1328.512959 2395.974023 1328.512959 C 2395.974023 1328.512959 2431.813477 1328.33873 2446.51582 1317.123341 C 2446.51582 1317.123341 2458.708008 1309.457252 2451.431543 1301.382969 C 2451.431543 1301.382969 2483.685059 1296.20587 2491.748437 1283.362682 C 2491.748437 1283.362682 2495.28457 1279.843251 2494.104199 1273.630732 C 2494.104199 1273.630732 2493.909961 1270.106322 2490.368848 1269.902225 C 2490.368848 1269.902225 2527.149609 1264.22235 2537.762988 1252.091014 C 2537.762988 1252.091014 2542.87793 1246.495764 2540.322949 1239.038751 C 2540.322949 1239.038751 2539.780078 1237.072449 2538.893555 1235.753284 C 2538.893555 1235.753284 2572.377246 1228.684553 2588.897461 1213.770525 C 2588.897461 1213.770525 2598.430078 1205.278092 2593.514355 1193.888474 C 2593.514355 1193.888474 2649.464941 1178.566253 2636.48584 1153.920275 C 2636.48584 1153.920275 2662.643262 1145.427841 2654.380664 1121.817283 C 2654.380664 1121.817283 2676.01582 1110.840838 2666.577832 1093.442799 C 2657.543262 1076.791456 2629.802051 1096.339983 2596.950879 1105.429774 C 2596.950879 1105.429774 2508.069434 1133.415976 2464.296094 1140.863034 L 2339.923828 1326.028947 L 2267.358398 1353.990259 Z M 2259.982324 1405.766227 " transform="matrix(0.784314,0,0,0.784706,-1167.207031,-778.52709)"/>
<path style="fill-rule:nonzero;fill:rgb(95.686275%,77.254903%,23.921569%);fill-opacity:1;stroke-width:3;stroke-linecap:butt;stroke-linejoin:miter;stroke:rgb(0.392157%,0%,0.784314%);stroke-opacity:1;stroke-miterlimit:4;" d="M 2259.095801 1269.379537 C 2259.095801 1269.379537 2270.755078 1260.633227 2291.543555 1270.932667 C 2291.543555 1270.932667 2298.546094 1275.756329 2304.054492 1270.474693 C 2308.656445 1266.059225 2309.084766 1257.925206 2302.75459 1253.225993 C 2287.270312 1241.731838 2281.517871 1207.249372 2305.115332 1192.957592 C 2305.115332 1192.957592 2339.336133 1172.662369 2464.814063 1140.728628 C 2464.814063 1140.728628 2475.322852 1137.811532 2480.930859 1139.210345 C 2487.10166 1140.74854 2491.35498 1146.045111 2492.226562 1150.58005 C 2492.226562 1150.58005 2497.839551 1166.534475 2478.963574 1175.66409 C 2478.963574 1175.66409 2470.441992 1179.561848 2461.656445 1182.085684 C 2461.656445 1182.085684 2471.303613 1179.999911 2475.422461 1189.542698 C 2479.357031 1198.652401 2473.654395 1207.976157 2455.953809 1213.979601 C 2455.953809 1213.979601 2451.167578 1215.841365 2444.349316 1217.499032 C 2444.349316 1217.499032 2459.494922 1221.849787 2452.218457 1234.070727 C 2452.218457 1234.070727 2445.728906 1246.908937 2422.81377 1249.188851 C 2422.81377 1249.188851 2439.92666 1251.050616 2427.829102 1267.308698 C 2427.829102 1267.308698 2422.519922 1276.219281 2405.805469 1279.529638 C 2405.805469 1279.529638 2418.490723 1279.94281 2412.095801 1291.337406 C 2405.705859 1302.727024 2390.664844 1309.148618 2375.867871 1310.184037 C 2375.867871 1310.184037 2367.849316 1310.59721 2362.246289 1309.352715 C 2362.246289 1309.352715 2376.306152 1316.396556 2368.043555 1328.199346 C 2368.043555 1328.199346 2361.952441 1336.587242 2346.707227 1336.17407 C 2346.707227 1336.17407 2350.666699 1349.35576 2339.480566 1354.348674 C 2330.779687 1358.231498 2323.553027 1352.018979 2323.553027 1352.018979 C 2323.553027 1352.018979 2326.501465 1366.156442 2313.816211 1371.124466 C 2313.816211 1371.124466 2307.476074 1374.385042 2298.038086 1371.124466 C 2298.038086 1371.124466 2290.811426 1387.27801 2265.14707 1375.938172 C 2239.477734 1364.603312 2259.095801 1269.379537 2259.095801 1269.379537 Z M 2259.095801 1269.379537 " transform="matrix(0.784314,0,0,0.784706,-1167.207031,-778.52709)"/>
<path style="fill:none;stroke-width:3;stroke-linecap:butt;stroke-linejoin:miter;stroke:rgb(0.392157%,0%,0.784314%);stroke-opacity:1;stroke-miterlimit:4;" d="M 2654.380664 1121.817283 C 2654.380664 1121.817283 2614.06875 1145.15903 2488.516113 1168.500777 " transform="matrix(0.784314,0,0,0.784706,-1167.207031,-778.52709)"/>
<path style="fill-rule:nonzero;fill:rgb(95.686275%,77.254903%,23.921569%);fill-opacity:1;stroke-width:3;stroke-linecap:butt;stroke-linejoin:miter;stroke:rgb(0.392157%,0%,0.784314%);stroke-opacity:1;stroke-miterlimit:4;" d="M 1934.38418 1534.591365 C 1934.38418 1534.591365 1919.437793 1560.272763 1901.34375 1560.685935 C 1901.34375 1560.685935 1870.220801 1556.897692 1861.425293 1565.031711 C 1855.289355 1570.706608 1849.033887 1575.390887 1846.478906 1589.886764 C 1843.918945 1604.387619 1851.394629 1607.493879 1853.162695 1608.116126 C 1853.162695 1608.116126 1854.542285 1618.470324 1864.767188 1615.777237 C 1864.767188 1615.777237 1865.354883 1626.544607 1883.448926 1621.367508 C 1901.542969 1616.190409 1909.013672 1617.848076 1912.554785 1599.82779 C 1916.095898 1581.812481 1919.363086 1582.106182 1922.585449 1579.945739 C 1926.913477 1577.043576 1935.041602 1574.305687 1941.072949 1570.831058 C 1946.486719 1567.714842 1967.225391 1557.161525 1974.307617 1556.335181 C 1981.384863 1555.508836 1979.811035 1531.689203 1979.811035 1531.689203 L 1961.522754 1531.689203 L 1952.672461 1518.641918 Z M 1934.38418 1534.591365 " transform="matrix(0.784314,0,0,0.784706,-1167.207031,-778.52709)"/>
<path style="fill:none;stroke-width:3;stroke-linecap:butt;stroke-linejoin:miter;stroke:rgb(0.392157%,0%,0.784314%);stroke-opacity:1;stroke-miterlimit:4;" d="M 2636.48584 1153.920275 C 2636.48584 1153.920275 2527.37373 1189.51283 2476.558008 1193.888474 M 2593.514355 1193.888474 C 2593.514355 1193.888474 2529.505371 1213.979601 2454.544336 1226.658515 M 2538.893555 1235.753284 C 2538.893555 1235.753284 2466.572168 1253.126433 2432.042578 1256.008684 " transform="matrix(0.784314,0,0,0.784706,-1167.207031,-778.52709)"/>
<path style="fill:none;stroke-width:3;stroke-linecap:butt;stroke-linejoin:miter;stroke:rgb(0.392157%,0%,0.784314%);stroke-opacity:1;stroke-miterlimit:10;" d="M 2490.368848 1269.902225 C 2490.368848 1269.902225 2429.19375 1282.655809 2413.694531 1284.194005 " transform="matrix(0.784314,0,0,0.784706,-1167.207031,-778.52709)"/>
<path style="fill-rule:nonzero;fill:rgb(0%,50.588238%,77.64706%);fill-opacity:1;stroke-width:3;stroke-linecap:butt;stroke-linejoin:miter;stroke:rgb(0.392157%,0%,0.784314%);stroke-opacity:1;stroke-miterlimit:10;" d="M 2421.508887 1362.940667 L 2424.571875 1460.006294 L 2407.434082 1450.060291 L 2378.900977 1573.2404 L 2367.127148 1564.782812 L 2394.903223 1446.769846 L 2375.53418 1447.128261 Z M 2421.508887 1362.940667 " transform="matrix(0.784314,0,0,0.784706,-1167.207031,-778.52709)"/>
<path style="fill:none;stroke-width:3;stroke-linecap:butt;stroke-linejoin:miter;stroke:rgb(0.392157%,0%,0.784314%);stroke-opacity:1;stroke-miterlimit:10;" d="M 2451.431543 1301.382969 C 2451.431543 1301.382969 2406.786621 1308.162978 2389.021289 1307.799585 M 2395.974023 1328.512959 C 2395.974023 1328.512959 2377.919824 1327.666702 2369.248828 1326.223088 M 2379.25459 1357.509691 C 2379.25459 1357.509691 2363.914746 1353.368012 2354.870215 1347.568665 M 2356.638281 1387.541843 C 2356.638281 1387.541843 2344.839551 1382.982013 2339.136914 1370.556976 M 2327.83125 1398.617848 C 2327.83125 1398.617848 2318.682129 1390.439027 2318.094434 1381.324346 " transform="matrix(0.784314,0,0,0.784706,-1167.207031,-778.52709)"/>
<path style="fill-rule:nonzero;fill:rgb(0%,50.588238%,77.64706%);fill-opacity:1;stroke-width:3;stroke-linecap:butt;stroke-linejoin:miter;stroke:rgb(0.392157%,0%,0.784314%);stroke-opacity:1;stroke-miterlimit:10;" d="M 2532.369141 1406.099751 L 2491.803223 1493.318935 L 2481.105176 1476.065257 L 2395.461035 1577.262607 L 2386.187402 1566.88352 L 2471.507812 1466.96551 L 2454.245508 1457.706468 Z M 2532.369141 1406.099751 " transform="matrix(0.784314,0,0,0.784706,-1167.207031,-778.52709)"/>
<path style="fill:none;stroke-width:3;stroke-linecap:butt;stroke-linejoin:miter;stroke:rgb(0.392157%,0%,0.784314%);stroke-opacity:1;stroke-miterlimit:10;" d="M 2293.610449 1405.766227 C 2293.610449 1405.766227 2297.032031 1402.814285 2294.691211 1389.971097 " transform="matrix(0.784314,0,0,0.784706,-1167.207031,-778.52709)"/>
<path style="fill-rule:nonzero;fill:rgb(0%,50.588238%,77.64706%);fill-opacity:1;stroke-width:3;stroke-linecap:butt;stroke-linejoin:miter;stroke:rgb(0.392157%,0%,0.784314%);stroke-opacity:1;stroke-miterlimit:10;" d="M 2495.369238 1342.077954 L 2474.471191 1436.669525 L 2460.361523 1422.397657 L 2383.712109 1569.785682 L 2371.898438 1562.89118 L 2449.06582 1415.801834 L 2430.269531 1410.868656 Z M 2495.369238 1342.077954 " transform="matrix(0.784314,0,0,0.784706,-1167.207031,-778.52709)"/>
<path style="fill:none;stroke-width:3;stroke-linecap:butt;stroke-linejoin:miter;stroke:rgb(0.392157%,0%,0.784314%);stroke-opacity:1;stroke-miterlimit:10;" d="M 2298.033105 1371.124466 C 2298.033105 1371.124466 2299.806152 1367.450717 2299.213477 1361.65137 " transform="matrix(0.784314,0,0,0.784706,-1167.207031,-778.52709)"/>
<path style="fill-rule:nonzero;fill:rgb(95.686275%,77.254903%,23.921569%);fill-opacity:1;stroke-width:3;stroke-linecap:butt;stroke-linejoin:miter;stroke:rgb(0.392157%,0%,0.784314%);stroke-opacity:1;stroke-miterlimit:4;" d="M 1991.988281 1405.766227 C 1991.988281 1405.766227 1973.69502 1420.680254 1958.355176 1405.766227 C 1958.355176 1405.766227 1952.164453 1413.22324 1939.773047 1411.047863 C 1927.381641 1408.872486 1925.319727 1402.346355 1924.139355 1398.617848 C 1924.139355 1398.617848 1913.421387 1404.875168 1904.371875 1399.932034 C 1895.327344 1394.993879 1895.327344 1387.536865 1895.327344 1387.536865 C 1895.327344 1387.536865 1879.594043 1390.638146 1871.530664 1379.975314 C 1863.467285 1369.312481 1868.383008 1358.749208 1872.711035 1357.509691 C 1872.711035 1357.509691 1855.702734 1361.964983 1851.075879 1347.35959 C 1847.146289 1334.934553 1855.996582 1328.512959 1855.996582 1328.512959 C 1855.996582 1328.512959 1820.152148 1328.33873 1805.454785 1317.123341 C 1805.454785 1317.123341 1793.257617 1309.457252 1800.539062 1301.382969 C 1800.539062 1301.382969 1768.285547 1296.20587 1760.222168 1283.362682 C 1760.222168 1283.362682 1756.681055 1279.843251 1757.861426 1273.630732 C 1757.861426 1273.630732 1758.060645 1270.106322 1761.596777 1269.902225 C 1761.596777 1269.902225 1724.816016 1264.22235 1714.202637 1252.091014 C 1714.202637 1252.091014 1709.087695 1246.495764 1711.647656 1239.038751 C 1711.647656 1239.038751 1712.185547 1237.072449 1713.07207 1235.753284 C 1713.07207 1235.753284 1679.593359 1228.684553 1663.073145 1213.770525 C 1663.073145 1213.770525 1653.535547 1205.278092 1658.45127 1193.888474 C 1658.45127 1193.888474 1602.500684 1178.566253 1615.479785 1153.920275 C 1615.479785 1153.920275 1589.322363 1145.427841 1597.584961 1121.817283 C 1597.584961 1121.817283 1575.949805 1110.840838 1585.387793 1093.442799 C 1594.422363 1076.791456 1622.163574 1096.339983 1655.014746 1105.429774 C 1655.014746 1105.429774 1743.896191 1133.415976 1787.669531 1140.863034 L 1912.041797 1326.028947 L 1984.612207 1353.990259 Z M 1991.988281 1405.766227 " transform="matrix(0.784314,0,0,0.784706,-1167.207031,-778.52709)"/>
<path style="fill:none;stroke-width:3;stroke-linecap:butt;stroke-linejoin:miter;stroke:rgb(0.392157%,0%,0.784314%);stroke-opacity:1;stroke-miterlimit:10;" d="M 2362.540137 1187.262783 C 2362.540137 1187.262783 2341.891113 1195.546141 2335.008105 1206.940737 C 2328.125098 1218.330355 2332.657324 1229.401382 2335.008105 1235.753284 C 2336.188477 1238.944169 2350.741406 1267.000063 2333.628516 1287.300264 " transform="matrix(0.784314,0,0,0.784706,-1167.207031,-778.52709)"/>
<path style="fill-rule:nonzero;fill:rgb(95.686275%,77.254903%,23.921569%);fill-opacity:1;stroke-width:3;stroke-linecap:butt;stroke-linejoin:miter;stroke:rgb(0.392157%,0%,0.784314%);stroke-opacity:1;stroke-miterlimit:4;" d="M 1992.869824 1269.384515 C 1992.869824 1269.384515 1981.215527 1260.633227 1960.42207 1270.937645 C 1960.42207 1270.937645 1953.419531 1275.756329 1947.916113 1270.474693 C 1943.31416 1266.064203 1942.880859 1257.925206 1949.211035 1253.225993 C 1964.700293 1241.731838 1970.452734 1207.249372 1946.855273 1192.957592 C 1946.855273 1192.957592 1912.634473 1172.662369 1787.156543 1140.728628 C 1787.156543 1140.728628 1776.642773 1137.81651 1771.039746 1139.215323 C 1764.868945 1140.753518 1760.615625 1146.050089 1759.744043 1150.58005 C 1759.744043 1150.58005 1754.131055 1166.534475 1773.007031 1175.66409 C 1773.007031 1175.66409 1781.528613 1179.566826 1790.31416 1182.085684 C 1790.31416 1182.085684 1780.662012 1179.999911 1776.548145 1189.542698 C 1772.613574 1198.657379 1778.316211 1207.976157 1796.016797 1213.979601 C 1796.016797 1213.979601 1800.803027 1215.846343 1807.616309 1217.50401 C 1807.616309 1217.50401 1792.475684 1221.849787 1799.752148 1234.070727 C 1799.752148 1234.070727 1806.241699 1246.913915 1829.151855 1249.188851 C 1829.151855 1249.188851 1812.043945 1251.055594 1824.136523 1267.313676 C 1824.136523 1267.313676 1829.445703 1276.219281 1846.165137 1279.529638 C 1846.165137 1279.529638 1833.479883 1279.947788 1839.869824 1291.337406 C 1846.259766 1302.727024 1861.300781 1309.148618 1876.102734 1310.184037 C 1876.102734 1310.184037 1884.121289 1310.59721 1889.724316 1309.357693 C 1889.724316 1309.357693 1875.664453 1316.396556 1883.92207 1328.204324 C 1883.92207 1328.204324 1890.018164 1336.59222 1905.263379 1336.179048 C 1905.263379 1336.179048 1901.303906 1349.360738 1912.490039 1354.348674 C 1921.190918 1358.236476 1928.417578 1352.018979 1928.417578 1352.018979 C 1928.417578 1352.018979 1925.469141 1366.156442 1938.154395 1371.129444 C 1938.154395 1371.129444 1944.494531 1374.39002 1953.93252 1371.129444 C 1953.93252 1371.129444 1961.16416 1387.282988 1986.823535 1375.94315 C 2012.487891 1364.603312 1992.869824 1269.384515 1992.869824 1269.384515 Z M 1992.869824 1269.384515 " transform="matrix(0.784314,0,0,0.784706,-1167.207031,-778.52709)"/>
<path style="fill:none;stroke-width:3;stroke-linecap:butt;stroke-linejoin:miter;stroke:rgb(0.392157%,0%,0.784314%);stroke-opacity:1;stroke-miterlimit:10;" d="M 2362.246289 1309.352715 C 2362.246289 1309.352715 2362.14668 1309.253155 2354.870215 1306.97324 M 2405.805469 1279.529638 C 2405.805469 1279.529638 2393.49873 1282.008672 2381.421094 1282.118187 M 2422.81377 1249.188851 C 2422.81377 1249.188851 2408.360449 1250.637443 2394.793652 1250.433346 M 2444.349316 1217.499032 C 2444.349316 1217.499032 2423.506055 1221.640711 2412.29502 1221.849787 M 2461.656445 1182.085684 C 2461.656445 1182.085684 2435.947266 1189.423226 2416.817285 1192.02671 M 2374.338867 1207.144834 C 2374.338867 1207.144834 2392.826367 1224.333798 2370.603516 1240.283246 C 2370.603516 1240.283246 2379.847266 1254.779123 2361.359766 1269.902225 " transform="matrix(0.784314,0,0,0.784706,-1167.207031,-778.52709)"/>
<path style="fill-rule:nonzero;fill:rgb(95.686275%,77.254903%,23.921569%);fill-opacity:1;stroke-width:3;stroke-linecap:butt;stroke-linejoin:miter;stroke:rgb(0.392157%,0%,0.784314%);stroke-opacity:1;stroke-miterlimit:4;" d="M 1994.393848 1416.200072 C 1994.393848 1416.200072 1990.628613 1436.415648 1960.765723 1461.868059 C 1960.765723 1461.868059 1937.726074 1482.188172 1938.31875 1505.594633 C 1938.916406 1529.424222 1934.184961 1532.102375 1925.14043 1540.181636 C 1925.14043 1540.181636 1943.822168 1541.630228 1952.87168 1529.205191 C 1952.87168 1529.205191 1952.478223 1549.913587 1949.724023 1551.780329 C 1949.724023 1551.780329 1955.581055 1552.153678 1964.077734 1542.874723 C 1964.077734 1542.874723 1969.192676 1537.488549 1973.91416 1535.41771 C 1973.91416 1535.41771 1968.405762 1549.709489 1972.733789 1562.960872 C 1972.733789 1562.960872 1974.108398 1557.783773 1981.384863 1555.508836 C 1981.384863 1555.508836 1994.563184 1552.815749 1999.673145 1533.760042 C 1999.673145 1533.760042 2003.02002 1521.12593 2023.669043 1509.940409 C 2023.669043 1509.940409 2047.067285 1501.114451 2046.47959 1489.580472 C 2045.891895 1478.046493 1994.393848 1416.200072 1994.393848 1416.200072 Z M 1994.393848 1416.200072 " transform="matrix(0.784314,0,0,0.784706,-1167.207031,-778.52709)"/>
<path style="fill:none;stroke-width:3;stroke-linecap:butt;stroke-linejoin:miter;stroke:rgb(0.392157%,0%,0.784314%);stroke-opacity:1;stroke-miterlimit:10;" d="M 2366.275488 1277.045626 C 2366.275488 1277.045626 2369.029687 1304.693326 2335.202344 1304.693326 C 2335.202344 1304.693326 2341.691895 1329.339303 2309.049902 1328.512959 C 2309.049902 1328.512959 2305.30957 1348.185935 2281.712109 1344.253331 " transform="matrix(0.784314,0,0,0.784706,-1167.207031,-778.52709)"/>
<path style="fill-rule:nonzero;fill:rgb(95.686275%,77.254903%,23.921569%);fill-opacity:1;stroke-width:3;stroke-linecap:butt;stroke-linejoin:miter;stroke:rgb(0.392157%,0%,0.784314%);stroke-opacity:1;stroke-miterlimit:4;" d="M 2317.616309 1534.591365 C 2317.616309 1534.591365 2332.562695 1560.272763 2350.656738 1560.685935 C 2350.656738 1560.685935 2381.779687 1556.897692 2390.580176 1565.031711 C 2396.716113 1570.706608 2402.966602 1575.390887 2405.526563 1589.886764 C 2408.081543 1604.387619 2400.605859 1607.493879 2398.837793 1608.116126 C 2398.837793 1608.116126 2397.463184 1618.470324 2387.233301 1615.777237 C 2387.233301 1615.777237 2386.645605 1626.544607 2368.551562 1621.367508 C 2350.45752 1616.190409 2342.986816 1617.848076 2339.445703 1599.82779 C 2335.90459 1581.812481 2332.637402 1582.106182 2329.415039 1579.945739 C 2325.087012 1577.043576 2316.958887 1574.305687 2310.927539 1570.831058 C 2305.51377 1567.714842 2284.775098 1557.161525 2277.692871 1556.335181 C 2270.615625 1555.508836 2272.189453 1531.689203 2272.189453 1531.689203 L 2290.477734 1531.689203 L 2299.328027 1518.641918 Z M 2317.616309 1534.591365 " transform="matrix(0.784314,0,0,0.784706,-1167.207031,-778.52709)"/>
<path style="fill-rule:nonzero;fill:rgb(95.686275%,77.254903%,23.921569%);fill-opacity:1;stroke-width:3;stroke-linecap:butt;stroke-linejoin:miter;stroke:rgb(0.392157%,0%,0.784314%);stroke-opacity:1;stroke-miterlimit:4;" d="M 2257.606641 1416.200072 C 2257.606641 1416.200072 2261.371875 1436.415648 2291.234766 1461.868059 C 2291.234766 1461.868059 2314.274414 1482.188172 2313.686719 1505.594633 C 2313.084082 1529.424222 2317.815527 1532.102375 2326.860059 1540.181636 C 2326.860059 1540.181636 2308.17832 1541.630228 2299.133789 1529.205191 C 2299.133789 1529.205191 2299.527246 1549.913587 2302.281445 1551.780329 C 2302.281445 1551.780329 2296.419434 1552.153678 2287.922754 1542.874723 C 2287.922754 1542.874723 2282.807813 1537.488549 2278.091309 1535.41771 C 2278.091309 1535.41771 2283.594727 1549.709489 2279.27168 1562.960872 C 2279.27168 1562.960872 2277.89209 1557.783773 2270.615625 1555.508836 C 2270.615625 1555.508836 2257.442285 1552.815749 2252.327344 1533.760042 C 2252.327344 1533.760042 2248.985449 1521.12593 2228.336426 1509.940409 C 2228.336426 1509.940409 2204.933203 1501.114451 2205.520898 1489.580472 C 2206.113574 1478.046493 2257.606641 1416.200072 2257.606641 1416.200072 Z M 2257.606641 1416.200072 " transform="matrix(0.784314,0,0,0.784706,-1167.207031,-778.52709)"/>
<path style="fill:none;stroke-width:3;stroke-linecap:butt;stroke-linejoin:miter;stroke:rgb(0.392157%,0%,0.784314%);stroke-opacity:1;stroke-miterlimit:4;" d="M 2333.693262 1560.685935 C 2333.693262 1560.685935 2339.047266 1561.875672 2350.656738 1560.685935 " transform="matrix(0.784314,0,0,0.784706,-1167.207031,-778.52709)"/>
<path style="fill:none;stroke-width:3;stroke-linecap:butt;stroke-linejoin:miter;stroke:rgb(0.392157%,0%,0.784314%);stroke-opacity:1;stroke-miterlimit:10;" d="M 2383.303711 1575.181812 C 2383.303711 1575.181812 2399.624707 1572.6978 2398.837793 1608.116126 M 2373.472266 1583.261073 C 2373.472266 1583.261073 2388.219434 1581.394331 2387.238281 1615.777237 " transform="matrix(0.784314,0,0,0.784706,-1167.207031,-778.52709)"/>
<path style="fill:none;stroke-width:3;stroke-linecap:butt;stroke-linejoin:miter;stroke:rgb(0.392157%,0%,0.784314%);stroke-opacity:1;stroke-miterlimit:4;" d="M 2231.085645 1500.417534 C 2231.085645 1500.417534 2238.167871 1501.866126 2243.083594 1507.456397 C 2247.999316 1513.051647 2257.442285 1512.016227 2257.442285 1512.016227 C 2257.442285 1512.016227 2252.327344 1507.86957 2250.559277 1497.515372 C 2248.78623 1487.161174 2243.083594 1484.054914 2243.083594 1484.054914 M 2259.972363 1474.248294 C 2259.972363 1474.248294 2267.05459 1475.696886 2271.970313 1481.287158 C 2276.886035 1486.882407 2286.324023 1485.846987 2286.324023 1485.846987 C 2286.324023 1485.846987 2281.214063 1481.705308 2279.441016 1471.346132 C 2277.672949 1460.991934 2271.970313 1457.885675 2271.970313 1457.885675 M 2264.843262 1514.445481 C 2264.843262 1514.445481 2271.024023 1515.714866 2275.317187 1520.598264 C 2279.610352 1525.476684 2287.853027 1524.57567 2287.853027 1524.57567 C 2287.853027 1524.57567 2283.385547 1520.956678 2281.841602 1511.916667 C 2280.297656 1502.871678 2275.317187 1500.163657 2275.317187 1500.163657 " transform="matrix(0.784314,0,0,0.784706,-1167.207031,-778.52709)"/>
<path style="fill-rule:nonzero;fill:rgb(95.686275%,77.254903%,23.921569%);fill-opacity:1;stroke-width:3;stroke-linecap:butt;stroke-linejoin:miter;stroke:rgb(0.392157%,0%,0.784314%);stroke-opacity:1;stroke-miterlimit:10;" d="M 2149.137012 1676.87696 C 2149.137012 1676.87696 2154.495996 1700.53232 2173.12793 1698.620776 C 2173.12793 1698.620776 2186.30625 1697.381259 2185.320117 1675.42339 C 2185.320117 1675.42339 2204.78877 1685.782566 2207.936426 1660.101169 C 2207.936426 1660.101169 2225.637012 1664.242848 2225.442773 1640.21414 C 2225.442773 1640.21414 2241.962988 1643.116302 2239.995703 1621.78068 C 2239.995703 1621.78068 2257.890527 1626.544607 2257.890527 1606.458459 C 2257.890527 1606.458459 2299.77627 1599.509199 2212.463672 1519.886413 L 2134.584082 1566.276206 Z M 2149.137012 1676.87696 " transform="matrix(0.784314,0,0,0.784706,-1167.207031,-778.52709)"/>
<path style="fill-rule:nonzero;fill:rgb(95.686275%,77.254903%,23.921569%);fill-opacity:1;stroke-width:3;stroke-linecap:butt;stroke-linejoin:miter;stroke:rgb(0.392157%,0%,0.784314%);stroke-opacity:1;stroke-miterlimit:4;" d="M 2140.480957 1570.706608 C 2140.480957 1570.706608 2153.460059 1582.225653 2162.703809 1565.031711 C 2162.703809 1565.031711 2175.289453 1564.414442 2177.256738 1554.886588 C 2177.256738 1554.886588 2187.486621 1553.851169 2189.448926 1544.11424 C 2189.448926 1544.11424 2203.41416 1542.665648 2203.020703 1530.862858 C 2203.020703 1530.862858 2228.406152 1528.901534 2203.030664 1500.158679 C 2177.650195 1471.420802 2134.584082 1547.842747 2134.584082 1547.842747 Z M 2140.480957 1570.706608 " transform="matrix(0.784314,0,0,0.784706,-1167.207031,-778.52709)"/>
<path style="fill:none;stroke-width:3;stroke-linecap:butt;stroke-linejoin:miter;stroke:rgb(0.392157%,0%,0.784314%);stroke-opacity:1;stroke-miterlimit:10;" d="M 2185.320117 1675.42339 C 2185.320117 1675.42339 2183.352832 1633.792546 2147.274316 1574.146392 M 2207.936426 1660.101169 C 2207.936426 1660.101169 2213.544434 1636.07246 2162.703809 1565.036689 C 2162.703809 1565.036689 2168.605664 1548.051822 2150.511621 1537.179914 M 2225.437793 1640.21414 C 2225.437793 1640.21414 2227.011621 1614.224107 2177.256738 1554.886588 C 2177.256738 1554.886588 2181.654492 1539.559389 2163.625195 1527.338448 M 2239.990723 1621.78068 C 2239.990723 1621.78068 2238.123047 1595.482013 2189.448926 1544.11424 C 2189.448926 1544.11424 2191.884375 1528.373868 2174.442773 1518.641918 M 2257.890527 1606.458459 C 2257.890527 1606.458459 2254.349414 1576.426307 2203.020703 1530.862858 C 2203.020703 1530.862858 2204.78877 1519.05509 2187.680859 1507.043225 " transform="matrix(0.784314,0,0,0.784706,-1167.207031,-778.52709)"/>
<path style="fill-rule:nonzero;fill:rgb(95.686275%,77.254903%,23.921569%);fill-opacity:1;stroke-width:3;stroke-linecap:butt;stroke-linejoin:miter;stroke:rgb(0.392157%,0%,0.784314%);stroke-opacity:1;stroke-miterlimit:10;" d="M 2102.863477 1676.87696 C 2102.863477 1676.87696 2097.504492 1700.53232 2078.872559 1698.620776 C 2078.872559 1698.620776 2065.699219 1697.381259 2066.680371 1675.42339 C 2066.680371 1675.42339 2047.211719 1685.782566 2044.064063 1660.101169 C 2044.064063 1660.101169 2026.363477 1664.242848 2026.562695 1640.21414 C 2026.562695 1640.21414 2010.04248 1643.116302 2012.009766 1621.78068 C 2012.009766 1621.78068 1994.109961 1626.544607 1994.109961 1606.458459 C 1994.109961 1606.458459 1952.224219 1599.509199 2039.541797 1519.886413 L 2117.416406 1566.276206 Z M 2102.863477 1676.87696 " transform="matrix(0.784314,0,0,0.784706,-1167.207031,-778.52709)"/>
<path style="fill-rule:nonzero;fill:rgb(95.686275%,77.254903%,23.921569%);fill-opacity:1;stroke-width:3;stroke-linecap:butt;stroke-linejoin:miter;stroke:rgb(0.392157%,0%,0.784314%);stroke-opacity:1;stroke-miterlimit:4;" d="M 2111.519531 1570.706608 C 2111.519531 1570.706608 2098.54043 1582.225653 2089.29668 1565.036689 C 2089.29668 1565.036689 2076.711035 1564.414442 2074.74375 1554.886588 C 2074.74375 1554.886588 2064.518848 1553.851169 2062.551562 1544.119218 C 2062.551562 1544.119218 2048.586328 1542.665648 2048.979785 1530.862858 C 2048.979785 1530.862858 2023.594336 1528.901534 2048.974805 1500.163657 C 2074.350293 1471.420802 2117.421387 1547.842747 2117.421387 1547.842747 Z M 2111.519531 1570.706608 " transform="matrix(0.784314,0,0,0.784706,-1167.207031,-778.52709)"/>
<path style="fill:none;stroke-width:3;stroke-linecap:butt;stroke-linejoin:miter;stroke:rgb(0.392157%,0%,0.784314%);stroke-opacity:1;stroke-miterlimit:10;" d="M 2066.680371 1675.42339 C 2066.680371 1675.42339 2068.647656 1633.792546 2104.726172 1574.146392 M 2044.064063 1660.101169 C 2044.064063 1660.101169 2038.461035 1636.07246 2089.29668 1565.036689 C 2089.29668 1565.036689 2083.394824 1548.051822 2101.488867 1537.179914 " transform="matrix(0.784314,0,0,0.784706,-1167.207031,-778.52709)"/>
<path style="fill-rule:nonzero;fill:rgb(95.686275%,77.254903%,23.921569%);fill-opacity:1;stroke-width:3;stroke-linecap:butt;stroke-linejoin:miter;stroke:rgb(0.392157%,0%,0.784314%);stroke-opacity:1;stroke-miterlimit:4;" d="M 2126.002734 1563.583119 C 2138.583398 1563.583119 2152.84248 1642.185419 2149.141992 1689.535963 C 2147.797266 1706.734883 2138.583398 1720.782742 2126.002734 1720.782742 C 2113.41709 1720.782742 2104.208203 1706.734883 2102.863477 1689.535963 C 2099.162988 1642.185419 2113.41709 1563.583119 2126.002734 1563.583119 " transform="matrix(0.784314,0,0,0.784706,-1167.207031,-778.52709)"/>
<path style="fill:none;stroke-width:3;stroke-linecap:butt;stroke-linejoin:miter;stroke:rgb(0.392157%,0%,0.784314%);stroke-opacity:1;stroke-miterlimit:10;" d="M 2026.562695 1640.21414 C 2026.562695 1640.21414 2024.988867 1614.224107 2074.74375 1554.886588 C 2074.74375 1554.886588 2070.345996 1539.559389 2088.375293 1527.338448 M 2012.009766 1621.78068 C 2012.009766 1621.78068 2013.877441 1595.482013 2062.551562 1544.11424 C 2062.551562 1544.11424 2060.116113 1528.373868 2077.557715 1518.641918 " transform="matrix(0.784314,0,0,0.784706,-1167.207031,-778.52709)"/>
<path style="fill-rule:nonzero;fill:rgb(95.686275%,77.254903%,23.921569%);fill-opacity:1;stroke-width:3;stroke-linecap:butt;stroke-linejoin:miter;stroke:rgb(0.392157%,0%,0.784314%);stroke-opacity:1;stroke-miterlimit:4;" d="M 2143.409473 1562.960872 C 2143.409473 1577.202872 2135.615039 1588.746807 2126.002734 1588.746807 C 2116.385449 1588.746807 2108.591016 1577.202872 2108.591016 1562.960872 C 2108.591016 1548.72385 2116.385449 1537.179914 2126.002734 1537.179914 C 2135.615039 1537.179914 2143.409473 1548.72385 2143.409473 1562.960872 Z M 2143.409473 1562.960872 " transform="matrix(0.784314,0,0,0.784706,-1167.207031,-778.52709)"/>
<path style="fill:none;stroke-width:3;stroke-linecap:butt;stroke-linejoin:miter;stroke:rgb(0.392157%,0%,0.784314%);stroke-opacity:1;stroke-miterlimit:10;" d="M 1994.109961 1606.458459 C 1994.109961 1606.458459 1997.651074 1576.426307 2048.979785 1530.862858 C 2048.979785 1530.862858 2047.211719 1519.05509 2064.319629 1507.043225 " transform="matrix(0.784314,0,0,0.784706,-1167.207031,-778.52709)"/>
<path style="fill-rule:nonzero;fill:rgb(100%,100%,100%);fill-opacity:1;stroke-width:3;stroke-linecap:butt;stroke-linejoin:miter;stroke:rgb(0.392157%,0%,0.784314%);stroke-opacity:1;stroke-miterlimit:4;" d="M 2126.002734 1557.330777 C 2126.002734 1557.330777 2273.658691 1491.900211 2274.032227 1340.524824 L 1977.973242 1340.524824 C 1978.341797 1491.900211 2126.002734 1557.330777 2126.002734 1557.330777 Z M 2126.002734 1557.330777 " transform="matrix(0.784314,0,0,0.784706,-1167.207031,-778.52709)"/>
<path style="fill:none;stroke-width:3;stroke-linecap:butt;stroke-linejoin:miter;stroke:rgb(0.392157%,0%,0.784314%);stroke-opacity:1;stroke-miterlimit:10;" d="M 2046.295312 1340.524824 L 2069.066016 1340.524824 M 2000.743945 1340.524824 L 2023.519629 1340.524824 M 2091.841699 1340.524824 L 2114.612402 1340.524824 " transform="matrix(0.784314,0,0,0.784706,-1167.207031,-778.52709)"/>
<path style="fill-rule:nonzero;fill:rgb(65.098041%,0%,19.607843%);fill-opacity:1;stroke-width:3;stroke-linecap:butt;stroke-linejoin:miter;stroke:rgb(0.392157%,0%,0.784314%);stroke-opacity:1;stroke-miterlimit:4;" d="M 2000.743945 1340.524824 L 2000.743945 1437.241993 C 2000.743945 1437.241993 2012.05459 1459.677748 2023.519629 1473.745518 L 2023.519629 1340.524824 Z M 2046.295312 1340.524824 L 2046.295312 1499.95956 C 2046.295312 1499.95956 2060.534473 1513.922793 2069.066016 1520.658 L 2069.066016 1340.524824 Z M 2091.841699 1340.524824 L 2091.841699 1537.603043 C 2091.841699 1537.603043 2108.087988 1548.096624 2114.617383 1551.536408 L 2114.617383 1340.524824 Z M 2091.841699 1340.524824 " transform="matrix(0.784314,0,0,0.784706,-1167.207031,-778.52709)"/>
<path style="fill:none;stroke-width:3;stroke-linecap:butt;stroke-linejoin:miter;stroke:rgb(0.392157%,0%,0.784314%);stroke-opacity:1;stroke-miterlimit:4;" d="M 2000.743945 1340.524824 L 2023.519629 1340.524824 M 2046.295312 1340.524824 L 2069.066016 1340.524824 M 2091.841699 1340.524824 L 2114.612402 1340.524824 " transform="matrix(0.784314,0,0,0.784706,-1167.207031,-778.52709)"/>
<path style="fill-rule:nonzero;fill:rgb(65.098041%,0%,19.607843%);fill-opacity:1;stroke-width:3;stroke-linecap:butt;stroke-linejoin:miter;stroke:rgb(0.392157%,0%,0.784314%);stroke-opacity:1;stroke-miterlimit:4;" d="M 2251.256543 1340.524824 L 2251.256543 1437.241993 C 2251.256543 1437.241993 2239.945898 1459.677748 2228.480859 1473.745518 L 2228.480859 1340.524824 Z M 2205.710156 1340.524824 L 2205.710156 1499.95956 C 2205.710156 1499.95956 2191.466016 1513.922793 2182.934473 1520.658 L 2182.934473 1340.524824 Z M 2160.158789 1340.524824 L 2160.158789 1537.603043 C 2160.158789 1537.603043 2143.9125 1548.096624 2137.388086 1551.536408 L 2137.388086 1340.524824 Z M 2160.158789 1340.524824 " transform="matrix(0.784314,0,0,0.784706,-1167.207031,-778.52709)"/>
<path style="fill-rule:nonzero;fill:rgb(0%,50.588238%,77.64706%);fill-opacity:1;stroke-width:3;stroke-linecap:butt;stroke-linejoin:miter;stroke:rgb(0.392157%,0%,0.784314%);stroke-opacity:1;stroke-miterlimit:10;" d="M 2364.726562 1614.726883 L 2358.984082 1638.203036 L 2374.702441 1653.86376 L 2352.48457 1747.698678 L 2332.727051 1721.161068 L 2303.446875 1734.825623 L 2325.664746 1640.985726 L 2346.258984 1635.241138 L 2351.608008 1611.809787 C 2351.608008 1611.809787 2357.838574 1609.370577 2364.726562 1614.726883 Z M 2364.726562 1614.726883 " transform="matrix(0.784314,0,0,0.784706,-1167.207031,-778.52709)"/>
<path style="fill-rule:nonzero;fill:rgb(0%,50.588238%,77.64706%);fill-opacity:1;stroke-width:3;stroke-linecap:butt;stroke-linejoin:miter;stroke:rgb(0.392157%,0%,0.784314%);stroke-opacity:1;stroke-miterlimit:10;" d="M 2369.985938 1599.250344 L 2358.675293 1620.356978 L 2370.005859 1639.766121 L 2325.485449 1724.351953 L 2312.924707 1693.329184 L 2281.283789 1698.551084 L 2325.804199 1613.965252 L 2347.110645 1614.029966 L 2358.032813 1592.85364 C 2358.032813 1592.85364 2365.981641 1592.838706 2369.985938 1599.250344 Z M 2369.985938 1599.250344 " transform="matrix(0.784314,0,0,0.784706,-1167.207031,-778.52709)"/>
<path style="fill-rule:nonzero;fill:rgb(0%,50.588238%,77.64706%);fill-opacity:1;stroke-width:3;stroke-linecap:butt;stroke-linejoin:miter;stroke:rgb(0.392157%,0%,0.784314%);stroke-opacity:1;stroke-miterlimit:10;" d="M 2371.898438 1605.388193 L 2341.801465 1643.624056 L 2348.699414 1665.218532 L 2287.255371 1737.090604 L 2281.637402 1703.887479 L 2249.692676 1701.473158 L 2311.141699 1629.606065 L 2331.890332 1634.71845 L 2363.810156 1594.128003 C 2363.810156 1594.128003 2372.371582 1598.379198 2371.898438 1605.388193 Z M 2371.898438 1605.388193 " transform="matrix(0.784314,0,0,0.784706,-1167.207031,-778.52709)"/>
<path style="fill:none;stroke-width:3;stroke-linecap:butt;stroke-linejoin:miter;stroke:rgb(0.392157%,0%,0.784314%);stroke-opacity:1;stroke-miterlimit:4;" d="M 1597.584961 1121.817283 C 1597.584961 1121.817283 1637.901855 1145.15903 1763.454492 1168.500777 M 1615.479785 1153.920275 C 1615.479785 1153.920275 1724.596875 1189.51283 1775.412598 1193.888474 M 1658.45127 1193.888474 C 1658.45127 1193.888474 1722.465234 1213.979601 1797.42627 1226.658515 M 1713.07207 1235.753284 C 1713.07207 1235.753284 1785.393457 1253.126433 1819.923047 1256.008684 " transform="matrix(0.784314,0,0,0.784706,-1167.207031,-778.52709)"/>
<path style="fill:none;stroke-width:3;stroke-linecap:butt;stroke-linejoin:miter;stroke:rgb(0.392157%,0%,0.784314%);stroke-opacity:1;stroke-miterlimit:10;" d="M 1761.596777 1269.902225 C 1761.596777 1269.902225 1822.771875 1282.660787 1838.271094 1284.194005 M 1800.539062 1301.382969 C 1800.539062 1301.382969 1845.179004 1308.162978 1862.949316 1307.799585 M 1855.996582 1328.512959 C 1855.996582 1328.512959 1874.045801 1327.666702 1882.721777 1326.223088 M 1872.711035 1357.509691 C 1872.711035 1357.509691 1888.050879 1353.368012 1897.100391 1347.568665 M 1895.327344 1387.541843 C 1895.327344 1387.541843 1907.126074 1382.982013 1912.828711 1370.556976 M 1924.139355 1398.622826 C 1924.139355 1398.622826 1933.283496 1390.439027 1933.876172 1381.329324 M 1958.360156 1405.766227 C 1958.360156 1405.766227 1954.933594 1402.814285 1957.274414 1389.976075 M 1953.93252 1371.124466 C 1953.93252 1371.124466 1952.164453 1367.450717 1952.752148 1361.65137 M 1889.430469 1187.262783 C 1889.430469 1187.262783 1910.074512 1195.546141 1916.95752 1206.935759 C 1923.840527 1218.330355 1919.308301 1229.401382 1916.95752 1235.753284 C 1915.777148 1238.944169 1901.229199 1267.000063 1918.337109 1287.295286 M 1889.724316 1309.352715 C 1889.724316 1309.352715 1889.818945 1309.253155 1897.100391 1306.97324 M 1846.165137 1279.529638 C 1846.165137 1279.529638 1858.471875 1282.008672 1870.549512 1282.118187 M 1829.151855 1249.188851 C 1829.151855 1249.188851 1843.605176 1250.637443 1857.176953 1250.433346 " transform="matrix(0.784314,0,0,0.784706,-1167.207031,-778.52709)"/>
<path style="fill-rule:nonzero;fill:rgb(21.176471%,58.039218%,26.274511%);fill-opacity:1;stroke-width:3;stroke-linecap:butt;stroke-linejoin:miter;stroke:rgb(0.392157%,0%,0.784314%);stroke-opacity:1;stroke-miterlimit:10;" d="M 1882.876172 1610.510534 C 1882.876172 1610.510534 1882.43291 1597.931179 1898.36543 1597.000297 L 1945.261523 1662.236722 C 1945.261523 1662.236722 1943.493457 1666.433159 1922.256738 1665.965229 C 1922.256738 1665.965229 1920.005566 1665.950295 1918.825195 1668.434307 C 1917.017285 1672.252417 1882.876172 1610.510534 1882.876172 1610.510534 Z M 1882.876172 1610.510534 " transform="matrix(0.784314,0,0,0.784706,-1167.207031,-778.52709)"/>
<path style="fill:none;stroke-width:3;stroke-linecap:butt;stroke-linejoin:miter;stroke:rgb(0.392157%,0%,0.784314%);stroke-opacity:1;stroke-miterlimit:10;" d="M 1807.616309 1217.499032 C 1807.616309 1217.499032 1828.464551 1221.640711 1839.675586 1221.849787 M 1790.31416 1182.085684 C 1790.31416 1182.085684 1816.02334 1189.423226 1835.15332 1192.02671 M 1877.626758 1207.144834 C 1877.626758 1207.144834 1859.144238 1224.333798 1881.36709 1240.283246 C 1881.36709 1240.283246 1872.12334 1254.784101 1890.605859 1269.902225 M 1885.690137 1277.045626 C 1885.690137 1277.045626 1882.940918 1304.693326 1916.763281 1304.693326 C 1916.763281 1304.693326 1910.27373 1329.344281 1942.920703 1328.512959 C 1942.920703 1328.512959 1946.656055 1348.190913 1970.253516 1344.253331 " transform="matrix(0.784314,0,0,0.784706,-1167.207031,-778.52709)"/>
<path style="fill:none;stroke-width:3;stroke-linecap:butt;stroke-linejoin:miter;stroke:rgb(0.392157%,0%,0.784314%);stroke-opacity:1;stroke-miterlimit:4;" d="M 1918.257422 1560.685935 C 1918.257422 1560.685935 1912.908398 1561.875672 1901.293945 1560.685935 " transform="matrix(0.784314,0,0,0.784706,-1167.207031,-778.52709)"/>
<path style="fill:none;stroke-width:3;stroke-linecap:butt;stroke-linejoin:miter;stroke:rgb(0.392157%,0%,0.784314%);stroke-opacity:1;stroke-miterlimit:10;" d="M 1868.651953 1575.181812 C 1868.651953 1575.181812 1852.325977 1572.6978 1853.112891 1608.116126 M 1878.483398 1583.261073 C 1878.483398 1583.261073 1863.73623 1581.394331 1864.717383 1615.777237 " transform="matrix(0.784314,0,0,0.784706,-1167.207031,-778.52709)"/>
<path style="fill:none;stroke-width:3;stroke-linecap:butt;stroke-linejoin:miter;stroke:rgb(0.392157%,0%,0.784314%);stroke-opacity:1;stroke-miterlimit:4;" d="M 2020.914844 1500.412556 C 2020.914844 1500.412556 2013.832617 1501.866126 2008.916895 1507.456397 C 2004.001172 1513.046669 1994.563184 1512.011249 1994.563184 1512.011249 C 1994.563184 1512.011249 1999.673145 1507.86957 2001.446191 1497.515372 C 2003.214258 1487.161174 2008.916895 1484.054914 2008.916895 1484.054914 M 1992.028125 1474.248294 C 1992.028125 1474.248294 1984.945898 1475.696886 1980.030176 1481.287158 C 1975.114453 1486.882407 1965.676465 1485.846987 1965.676465 1485.846987 C 1965.676465 1485.846987 1970.791406 1481.705308 1972.559473 1471.346132 C 1974.327539 1460.991934 1980.030176 1457.885675 1980.030176 1457.885675 M 1987.162207 1514.445481 C 1987.162207 1514.445481 1980.976465 1515.709888 1976.688281 1520.593286 C 1972.395117 1525.476684 1964.152441 1524.570692 1964.152441 1524.570692 C 1964.152441 1524.570692 1968.614941 1520.956678 1970.158887 1511.911689 C 1971.707813 1502.871678 1976.688281 1500.158679 1976.688281 1500.158679 " transform="matrix(0.784314,0,0,0.784706,-1167.207031,-778.52709)"/>
<path style="fill-rule:nonzero;fill:rgb(8.627451%,14.901961%,40.392157%);fill-opacity:1;stroke-width:3;stroke-linecap:butt;stroke-linejoin:miter;stroke:rgb(0.392157%,0%,0.784314%);stroke-opacity:1;stroke-miterlimit:10;" d="M 2274.032227 1230.551295 C 2274.032227 1230.551295 2201.576367 1268.448655 2126.002734 1227.440058 C 2050.429102 1268.448655 1977.973242 1230.551295 1977.973242 1230.551295 L 1977.973242 1340.524824 L 2274.032227 1340.524824 Z M 2274.032227 1230.551295 " transform="matrix(0.784314,0,0,0.784706,-1167.207031,-778.52709)"/>
<path style="fill-rule:nonzero;fill:rgb(0%,50.588238%,77.64706%);fill-opacity:1;stroke-width:3;stroke-linecap:butt;stroke-linejoin:miter;stroke:rgb(0.392157%,0%,0.784314%);stroke-opacity:1;stroke-miterlimit:10;" d="M 1609.304004 1515.749712 C 1616.480859 1512.817681 1621.645605 1509.990189 1621.625684 1502.334056 C 1621.620703 1500.512116 1620.604687 1496.474974 1618.572656 1490.222631 L 1570.391602 1342.983946 C 1567.542773 1334.232658 1565.38623 1329.035647 1564.385156 1327.119125 C 1562.218652 1322.972467 1557.965332 1321.284932 1552.242773 1318.90048 L 1613.472656 1318.90048 C 1606.81875 1322.041585 1600.75752 1324.535553 1600.812305 1331.58935 C 1600.837207 1334.282437 1601.594238 1338.080636 1603.153125 1342.983946 L 1640.063379 1458.522856 L 1676.933789 1342.983946 C 1678.492676 1338.080636 1679.299512 1334.282437 1679.274609 1331.58935 C 1679.204883 1324.341412 1672.889648 1321.727972 1666.683984 1318.90048 L 1726.02627 1318.90048 C 1720.602539 1321.070879 1716.179883 1322.778326 1713.908789 1327.119125 C 1712.907715 1329.035647 1710.751172 1334.232658 1707.897363 1342.983946 L 1659.721289 1490.222631 C 1657.684277 1496.469996 1656.947168 1500.576829 1656.668262 1502.478418 C 1656.668262 1502.478418 1654.446973 1511.792218 1668.984961 1515.744734 Z M 2635.987793 1500.606697 L 2635.987793 1333.894155 C 2635.987793 1331.011905 2635.509668 1328.801682 2634.563379 1327.263486 C 2633.612109 1325.72529 2629.47334 1321.294888 2623.566504 1318.90048 L 2678.740137 1318.90048 C 2672.833301 1320.851848 2668.694531 1325.605819 2667.748242 1327.188816 C 2666.796973 1328.776792 2666.318848 1331.011905 2666.318848 1333.894155 L 2666.318848 1500.606697 C 2666.318848 1503.583529 2666.811914 1505.868422 2667.798047 1507.456397 C 2668.779199 1509.039395 2672.838281 1512.912263 2678.740137 1515.744734 L 2623.566504 1515.744734 C 2629.47334 1513.061602 2633.612109 1508.919923 2634.563379 1507.381728 C 2635.509668 1505.84851 2635.987793 1503.583529 2635.987793 1500.606697 Z M 2635.987793 1500.606697 " transform="matrix(0.784314,0,0,0.784706,-1167.207031,-778.52709)"/>
</g>
</svg>
